<?xml version="1.0" encoding="utf-8"?>
<!-- Generator: Adobe Illustrator 24.3.0, SVG Export Plug-In . SVG Version: 6.00 Build 0)  -->
<svg version="1.1" id="Layer_1" xmlns="http://www.w3.org/2000/svg" xmlns:xlink="http://www.w3.org/1999/xlink" x="0px" y="0px"
	 viewBox="0 0 244.36 173.832" enable-background="new 0 0 244.36 173.832" xml:space="preserve">
<g>
	<path fill="#A9AAA5" d="M244.185,120c-0.496,8.891-2.069,17.63-4.769,26.15c-2.439,7.705-5.636,15.056-9.673,22.046
		c-0.236,0.412-0.488,0.807-0.824,1.363l-8.63-2.835c0.202,0.05,0.412,0.101,0.614,0.151c0.564,0.135,0.875,0.185,1.236-0.429
		c3.499-5.93,6.426-12.121,8.739-18.614c3.693-10.363,5.585-21.062,5.854-32.038c0.168-6.586-0.437-13.13-1.581-19.623
		c-1.211-6.889-3.163-13.576-5.762-20.078c-3.667-9.21-8.579-17.706-14.678-25.503c-6.165-7.881-13.298-14.778-21.339-20.75
		c-9.791-7.267-20.473-12.802-32.013-16.679c-12.348-4.155-25.065-6.174-38.111-6.325c-3.995,0.261-7.991,0.479-11.969,0.807
		c-8.159,0.673-16.124,2.397-23.913,4.862c-9.749,3.07-18.95,7.343-27.564,12.869c-9.21,5.913-17.403,12.978-24.561,21.264
		c-5.678,6.561-10.447,13.727-14.358,21.457c-3.23,6.376-5.728,13.037-7.545,19.96c-2.103,8.024-3.272,16.192-3.348,24.485
		c-0.042,3.844,0.135,7.721,0.614,11.532c0.614,4.904,1.396,9.807,2.507,14.627c1.884,8.235,5.064,16.023,9.059,23.467
		c0.202,0.379,0.681,0.749,1.119,0.883l-10.253-2.178c-0.799-1.825-1.489-3.356-2.145-4.895c-3.768-8.798-6.35-17.933-7.486-27.429
		c-0.614-5.173-1.051-10.388-1.043-15.586c0.025-8.613,1.161-17.125,3.272-25.494c1.859-7.368,4.433-14.476,7.78-21.28
		c4.113-8.327,9.16-16.057,15.157-23.173c6.165-7.318,13.105-13.786,20.826-19.405c7.679-5.593,15.922-10.245,24.704-13.921
		c8.47-3.558,17.218-6.165,26.243-7.814c5.669-1.035,11.389-1.817,17.167-1.85c5.61-0.034,11.237-0.084,16.831,0.286
		c6.409,0.421,12.751,1.539,19.009,3.053c9.252,2.229,18.151,5.442,26.638,9.715c12.104,6.09,22.954,13.929,32.425,23.652
		c8.428,8.647,15.35,18.345,20.708,29.162c3.558,7.166,6.266,14.652,8.176,22.416C243.857,98.72,244.783,109.318,244.185,120z"/>
</g>
<g>
	<path fill="#3698C9" d="M237.768,173.588c-0.025,0.084-0.059,0.168-0.093,0.244c-1.295-0.404-2.582-0.824-3.886-1.203
		c-7.192-2.111-14.467-3.861-21.894-4.904c-5.56-0.782-11.128-1.522-16.705-2.044c-4.82-0.454-9.673-0.698-14.509-0.816
		c-7.082-0.177-14.173-0.294-21.263-0.185c-6.636,0.093-13.273,0.496-19.909,0.816c-5.35,0.252-10.707,0.538-16.049,0.9
		c-5.568,0.378-11.12,0.866-16.679,1.287c-3.255,0.252-6.519,0.463-9.774,0.698c-4.761,0.336-9.513,0.698-14.274,1.018
		c-3.802,0.261-7.612,0.589-11.422,0.69c-8.521,0.227-17.033,0.471-25.553,0.446c-6.275-0.017-12.541-0.53-18.732-1.665
		c-3.205-0.589-6.477-1.093-9.547-2.136c-6.754-2.305-12.97-5.56-17.184-11.675c-0.109-0.16-0.193-0.345-0.294-0.513
		c3.852,2.994,8.15,4.937,13.037,6.325l10.253,2.178l0.185,0.042c7.486,1.161,15.048,1.531,22.609,1.48
		c8.251-0.05,16.511-0.454,24.763-0.765c4.618-0.177,9.244-0.429,13.853-0.723c7.065-0.454,14.131-1.009,21.196-1.464
		c7.427-0.479,14.863-0.95,22.306-1.329c5.938-0.303,11.877-0.53,17.823-0.665c5.139-0.109,10.279-0.168,15.418-0.034
		c7.629,0.193,15.266,0.353,22.87,0.942c6.872,0.538,13.727,1.413,20.523,2.565c5.198,0.892,10.312,2.355,15.451,3.625l8.63,2.835
		C231.888,170.913,234.832,172.251,237.768,173.588z"/>
	<path fill="#3698C9" d="M34.218,147.271c5.483,4.201,11.947,5.506,18.583,6.409c7.53,1.026,15.094,0.926,22.652,0.802
		c5.389-0.088,10.773-0.518,16.159-0.8c2.932-0.154,5.865-0.295,8.795-0.485c4.942-0.319,9.881-0.68,14.823-1.009
		c2.746-0.183,5.492-0.376,8.241-0.497c6.93-0.306,13.861-0.777,20.793-0.803c8.072-0.031,16.158,0.136,24.216,0.593
		c9.504,0.539,18.926,1.881,28.023,4.829c3.794,1.229,7.461,2.851,11.182,4.303c0.336,0.131,0.646,0.326,0.908,0.658
		c-1.017-0.311-2.033-0.625-3.05-0.933c-7.045-2.136-14.251-3.455-21.552-4.334c-6.931-0.834-13.878-1.376-20.86-1.326
		c-7.927,0.057-15.861,0.022-23.78,0.328c-7.807,0.302-15.6,0.961-23.397,1.499c-5.892,0.407-11.777,0.946-17.672,1.29
		c-7.617,0.445-15.241,0.791-22.865,1.113c-7.57,0.32-15.12-0.029-22.578-1.378c-5.79-1.047-11.365-2.773-15.85-6.877
		c-1.073-0.981-1.991-2.132-2.98-3.204C34.079,147.389,34.149,147.33,34.218,147.271z"/>
</g>
<g>
	<path fill="#3E3E3D" d="M211.23,83.396c-0.01-1.82-1.01-2.85-2.83-3.02c-0.91-0.09-1.83-0.07-2.75-0.08
		c-1.95-0.03-3.9,0.03-5.83-0.11c-1.78-0.12-2.7-1.13-2.88-2.91c-0.08-0.8-0.1-1.61-0.1-2.42c-0.04-5.69-0.06-11.39-0.11-17.08
		c-0.03-2.46-1.01-3.47-3.44-3.67c-0.51-0.04-1.03-0.05-1.54-0.05c-9.04-0.01-18.08-0.01-27.12,0c-0.58,0-1.18,0.02-1.76,0.11
		c-1.32,0.19-2.23,0.93-2.55,2.25c-0.17,0.67-0.28,1.37-0.28,2.06c-0.02,14.07,0,28.14-0.04,42.21c-0.01,1.17,0.38,1.4,1.44,1.39
		c8.05-0.04,16.1-0.02,24.14-0.02h24.47c0.64,0,1.23,0.08,1.22-0.91C211.24,95.226,211.27,89.316,211.23,83.396z M180.28,69.826
		c0.04-2.44-0.22-2.09,2.12-2.12c2.25,0.03,2.05-0.32,2.04,2.06c0,2.3,0.37,2.13-2.2,2.15c-0.33,0-0.66-0.02-0.99,0
		c-0.7,0.03-1-0.3-0.97-0.99C180.3,70.556,180.28,70.186,180.28,69.826z M180.23,60.636c0.02-0.26,0.43-0.52,0.7-0.72
		c0.13-0.08,0.36-0.02,0.54-0.02c3.57,0.09,2.93-0.72,2.94,3.21c0,0.25-0.4,0.7-0.65,0.72c-1.12,0.07-2.25,0.03-3.56,0.03
		C180.2,62.666,180.15,61.646,180.23,60.636z M162.72,60.996c-0.12-0.89,0.31-1.19,1.14-1.11c0.29,0.03,0.58,0.01,0.87,0.01
		c2.54,0.02,2.07-0.18,2.13,2.07c-0.05,2.11,0.38,1.99-2,1.98c-2.45-0.01-2.1,0.28-2.14-2.18
		C162.72,61.506,162.75,61.246,162.72,60.996z M166.67,95.266c-0.02,0.27-0.49,0.52-0.75,0.77c-0.02,0.02-0.07,0.01-0.11,0.01
		c-3.09,0.14-3.09,0.14-3.09-3.06v-0.11c0-3.16,0-3.18,3.18-2.85c0.29,0.03,0.75,0.48,0.77,0.75
		C166.74,92.266,166.74,93.776,166.67,95.266z M164.6,80.136h-0.33c-1.55,0.01-1.55,0.01-1.55-1.56v-0.44
		c0.04-2.41-0.29-2.06,2.11-2.07c2-0.01,1.92-0.26,1.91,1.87C166.73,80.456,166.95,80.106,164.6,80.136z M164.83,71.916
		c-2.44-0.01-2.12,0.18-2.15-2.22c0.02-2.24-0.16-1.93,1.94-1.96c2.23-0.02,2.25-0.01,2.23,2.19
		C166.83,71.966,167.27,71.916,164.83,71.916z M175.03,95.156c0.01,0.65-0.2,0.88-0.88,0.9c-3.23,0.11-3.22,0.13-3.22-3.16
		c0-2.96,0-2.93,2.95-2.91c0.83,0,1.2,0.21,1.16,1.11C174.97,92.446,175,93.806,175.03,95.156z M173.41,80.006
		c-2.06,0-1.93,0.23-1.91-1.87c0.01-2.55-0.32-2.2,2.2-2.24h0.11c1.67,0,1.67,0,1.67,1.65v0.44
		C175.44,80.246,175.82,79.996,173.41,80.006z M175.48,69.096c-0.03,0.22,0,0.44,0,0.66c-0.05,2.4,0.32,2.02-2.12,2.07
		c-0.25,0-0.51-0.03-0.76,0c-0.89,0.12-1.12-0.29-1.12-1.13c-0.02-2.99-0.05-2.93,2.64-3.02
		C175.29,67.636,175.64,68.036,175.48,69.096z M173.51,63.856c-2.18-0.04-2.01,0.38-2.01-1.97c0-2.15-0.24-1.99,2.03-1.99
		c2.21,0,2.01-0.2,2.01,2.02C175.54,64.246,175.72,63.816,173.51,63.856z M180.17,96.056c-0.65-0.02-0.92-0.19-0.91-0.87
		c0.04-1.43,0.03-2.85,0-4.28c-0.01-0.64,0.19-0.89,0.87-0.92c3.11-0.14,3.11-0.16,3.11,3.08
		C183.24,96.166,183.24,96.146,180.17,96.056z M182.35,79.976c-2.24-0.04-2.05,0.33-2.07-2.05c0-1.95,0-1.96,1.99-1.95
		c2.62,0.01,2.18-0.16,2.19,2.15C184.47,80.266,184.75,79.936,182.35,79.976z M193.11,69.766c-0.04,2.4,0.34,2.1-2.18,2.16
		c-1.79,0.04-1.79,0.04-1.79-1.77c0-2.45,0-2.46,2.41-2.44C193.31,67.726,193.09,67.426,193.11,69.766z M191.11,59.936
		c2.35,0,1.94-0.23,1.98,1.97c-0.05,2.21,0.42,2.04-2.05,2.04c-2.07,0-1.92,0.2-1.92-1.99
		C189.12,59.676,188.97,59.926,191.11,59.936z M192.17,96.036c-1.3,0-2.43,0.05-3.55-0.03c-0.24-0.02-0.62-0.49-0.63-0.77
		c-0.07-1.46-0.08-2.93,0-4.39c0.01-0.29,0.48-0.56,0.75-0.81c0.06-0.06,0.22-0.01,0.32-0.02c3.11-0.1,3.11-0.1,3.11,2.99V96.036z
		 M191.1,80.026c-2.16,0.01-1.96,0.17-1.95-1.94c0-2.32-0.24-2.03,2.05-2.06c2.16,0.02,1.96-0.22,1.95,1.94
		C193.14,80.226,193.44,80.026,191.1,80.026z M201.02,96.036c-1.28,0-2.41,0.04-3.54-0.03c-0.21-0.01-0.55-0.45-0.56-0.7
		c-0.05-1.5-0.06-3.01,0.01-4.5c0.01-0.28,0.47-0.72,0.76-0.75c3.33-0.38,3.33-0.36,3.33,2.94V96.036z M208.85,96.066
		c-0.84-0.02-1.68,0.05-2.52-0.04c-0.27-0.03-0.7-0.41-0.71-0.65c-0.07-1.53-0.08-3.07,0-4.6c0.01-0.27,0.49-0.52,0.76-0.78
		c0.02-0.02,0.07,0,0.11,0c3.14-0.15,3.14-0.15,3.14,3.12c0,0.73-0.02,1.46,0.01,2.19C209.66,95.886,209.4,96.086,208.85,96.066z"/>
	<path fill="#3E3E3D" d="M108.014,88.861c-2.791,0-5.583-0.027-8.373,0.017c-0.831,0.013-1.079-0.279-1.076-1.079
		c0.023-5.509,0.024-11.018-0.001-16.526c-0.004-0.826,0.308-1.073,1.104-1.07c5.545,0.024,11.091,0.026,16.637-0.001
		c0.832-0.004,1.065,0.306,1.062,1.098c-0.024,5.509-0.028,11.018,0.003,16.526c0.005,0.839-0.294,1.062-1.092,1.05
		C113.524,88.837,110.769,88.861,108.014,88.861z"/>
	<path fill="#3E3E3D" d="M117.354,101.715c0,2.681-0.021,5.361,0.013,8.042c0.01,0.808-0.166,1.184-1.088,1.178
		c-5.545-0.037-11.089-0.032-16.634-0.004c-0.825,0.004-1.086-0.285-1.082-1.086c0.023-5.508,0.026-11.016,0-16.524
		c-0.004-0.834,0.311-1.061,1.104-1.057c5.545,0.025,11.09,0.027,16.634-0.001c0.823-0.004,1.078,0.277,1.067,1.081
		C117.331,96.133,117.353,98.924,117.354,101.715z"/>
	<path fill="#3E3E3D" d="M76.059,70.273c0.43-0.021,0.788-0.054,1.147-0.054c5.393-0.004,10.786,0.02,16.179-0.025
		c1.02-0.009,1.302,0.316,1.294,1.314c-0.043,5.393-0.023,10.786-0.017,16.179c0.001,0.66,0.032,1.196-0.937,1.19
		c-5.723-0.036-11.446-0.018-17.17-0.022c-0.141,0-0.281-0.046-0.497-0.084C76.059,82.644,76.059,76.537,76.059,70.273z"/>
	<path fill="#3E3E3D" d="M75.978,111.207c0-0.63,0-1.212,0-1.794c0-5.143,0.028-10.287-0.022-15.429
		c-0.01-0.997,0.309-1.231,1.253-1.224c5.4,0.04,10.801,0.04,16.201,0.002c0.948-0.007,1.277,0.251,1.269,1.237
		c-0.042,5.4-0.023,10.8-0.016,16.201c0.001,0.63,0.006,1.148-0.888,1.144c-5.767-0.027-11.535-0.019-17.303-0.026
		C76.367,111.317,76.262,111.272,75.978,111.207z"/>
</g>
<g>
	<path fill="#EC2133" d="M123.365,147.454c-24.322,0-48.645,0.002-72.967-0.007c-0.768,0-1.539-0.087-2.305-0.173
		c-2.362-0.267-3.686-1.711-4.483-3.852c-0.78-2.095-1.561-4.205-2.554-6.204c-2.165-4.358-5.521-7.847-8.645-11.505
		c-4.34-5.082-8.62-10.217-12.914-15.339c-0.351-0.418-0.653-0.892-0.9-1.379c-0.879-1.734-0.512-2.748,1.324-3.439
		c0.67-0.252,1.431-0.365,2.15-0.367c13.998-0.043,27.996-0.049,41.994-0.098c1.401-0.005,2.283,0.511,2.801,1.818
		c0.554,1.398,1.226,2.75,1.82,4.132c1.186,2.758,2.302,3.509,5.32,3.501c17.634-0.051,35.269-0.113,52.903-0.157
		c7.899-0.02,15.798-0.005,23.697-0.008c0.404,0,0.812,0.008,1.21-0.046c1.131-0.153,1.617-0.676,1.628-1.829
		c0.018-1.763-0.011-3.526-0.025-5.289c-0.012-1.609,0.493-2.128,2.085-2.127c18.444,0.008,36.887,0.015,55.331,0.024
		c3.895,0.002,4.207,0.326,4.223,4.186c0.019,4.444,0.063,8.888,0.087,13.333c0.01,1.865-0.669,3.386-2.096,4.651
		c-4.084,3.619-6.637,8.167-7.958,13.44c-0.213,0.85-0.498,1.693-0.851,2.496c-1.454,3.307-4.31,4.202-7.58,4.231
		c-4.666,0.041-9.332,0.002-13.998,0.001c-19.766-0.001-39.533,0-59.299,0C123.365,147.449,123.365,147.452,123.365,147.454z
		 M95.854,133.933c1.58,0,3.16-0.014,4.739,0.007c0.665,0.009,1.023-0.176,1.01-0.934c-0.011-0.673-0.185-1.03-0.927-1.026
		c-3.196,0.019-6.393,0.023-9.589,0.006c-0.777-0.004-0.883,0.412-0.889,1.053c-0.006,0.671,0.262,0.914,0.917,0.904
		C92.694,133.917,94.274,133.933,95.854,133.933z M142.299,123.147c0-0.003,0-0.006,0-0.008c1.541,0,3.082-0.018,4.623,0.008
		c0.653,0.011,1.04-0.128,1.042-0.897c0.002-0.758-0.285-1.03-1.043-1.023c-3.119,0.028-6.238,0.028-9.356,0.002
		c-0.756-0.006-1.043,0.256-1.036,1.022c0.007,0.768,0.384,0.914,1.038,0.903C139.143,123.13,140.721,123.147,142.299,123.147z
		 M126.78,133.934c1.539,0,3.079-0.019,4.618,0.009c0.698,0.013,1.102-0.149,1.11-0.962c0.009-0.796-0.352-1.007-1.069-1.003
		c-3.079,0.018-6.157,0.016-9.236,0.002c-0.682-0.003-1.111,0.135-1.118,0.959c-0.008,0.888,0.463,1.017,1.187,1.004
		C123.774,133.916,125.277,133.934,126.78,133.934z M111.312,122.961c1.611,0,3.222-0.017,4.832,0.008
		c0.65,0.01,0.92-0.219,0.914-0.892c-0.006-0.679-0.215-1.004-0.949-0.999c-3.185,0.022-6.37,0.023-9.554,0
		c-0.769-0.006-0.891,0.381-0.903,1.03c-0.013,0.706,0.317,0.87,0.938,0.862C108.164,122.948,109.738,122.963,111.312,122.961z
		 M95.852,122.957c0,0.001,0,0.003,0,0.004c1.61,0,3.22-0.015,4.829,0.007c0.641,0.009,0.921-0.21,0.921-0.889
		c0-0.678-0.19-1.012-0.929-1.006c-3.183,0.024-6.366,0.026-9.549,0.01c-0.739-0.004-0.926,0.342-0.931,1.014
		c-0.005,0.696,0.314,0.876,0.939,0.867C92.706,122.942,94.279,122.957,95.852,122.957z M80.417,122.958c0,0.001,0,0.003,0,0.004
		c1.579,0,3.158-0.017,4.737,0.008c0.661,0.011,1.029-0.14,1.013-0.912c-0.015-0.711-0.279-0.974-0.983-0.97
		c-3.158,0.015-6.316,0.007-9.473-0.013c-0.713-0.005-0.97,0.305-0.965,1c0.004,0.672,0.29,0.901,0.936,0.891
		C77.259,122.942,78.838,122.958,80.417,122.958z M111.267,133.933c1.615,0,3.23-0.021,4.844,0.01
		c0.743,0.014,0.946-0.332,0.943-1.007c-0.003-0.632-0.208-0.954-0.885-0.951c-3.193,0.012-6.385,0.015-9.578-0.003
		c-0.729-0.004-0.939,0.321-0.94,1.008c-0.001,0.727,0.298,0.965,0.992,0.952C108.184,133.912,109.726,133.932,111.267,133.933z
		 M80.398,133.935c1.578,0,3.156-0.015,4.733,0.007c0.652,0.009,1.032-0.136,1.032-0.909c0-0.745-0.242-1.061-1.013-1.055
		c-3.119,0.022-6.238,0.019-9.356,0c-0.743-0.005-1.054,0.277-1.052,1.037c0.003,0.753,0.375,0.934,1.033,0.925
		C77.316,133.921,78.857,133.934,80.398,133.935z M126.738,122.965c1.616,0,3.233-0.017,4.849,0.008
		c0.655,0.01,0.937-0.23,0.916-0.9c-0.018-0.586-0.116-0.998-0.84-0.995c-3.232,0.015-6.465,0.014-9.697,0.001
		c-0.698-0.003-0.861,0.36-0.867,0.972c-0.007,0.647,0.227,0.932,0.902,0.92C123.579,122.945,125.159,122.964,126.738,122.965z
		 M142.189,134.01c1.616,0,3.232-0.015,4.848,0.008c0.659,0.009,0.919-0.255,0.92-0.913c0.001-0.666-0.296-0.919-0.932-0.92
		c-3.158-0.003-6.317-0.018-9.475-0.033c-0.648-0.003-1.017,0.201-1.017,0.955c0,0.77,0.375,0.921,1.028,0.912
		C139.103,133.999,140.646,134.013,142.189,134.01z M158.094,134.014c0,0.002,0,0.003,0,0.005c1.537,0,3.073-0.009,4.61,0.005
		c0.614,0.006,1.057-0.049,1.028-0.873c-0.025-0.701-0.24-0.972-0.956-0.967c-3.146,0.02-6.293,0.008-9.439-0.004
		c-0.662-0.002-1.015,0.228-1.021,0.956c-0.007,0.782,0.435,0.89,1.06,0.885C154.948,134.004,156.521,134.014,158.094,134.014z
		 M37.886,112.824c-0.052,2.467,1.769,4.385,4.195,4.419c2.44,0.034,4.385-1.829,4.421-4.233c0.037-2.446-1.921-4.459-4.343-4.468
		C39.815,108.534,37.938,110.415,37.886,112.824z"/>
	<path fill="#EC2133" d="M45.917,112.883c0.012,2.081-1.694,3.792-3.769,3.777c-2.024-0.014-3.721-1.696-3.747-3.714
		c-0.026-2.043,1.715-3.774,3.792-3.77C44.239,109.181,45.905,110.838,45.917,112.883z"/>
</g>
</svg>
