<?xml version="1.0" encoding="utf-8"?>
<!-- Generator: Adobe Illustrator 24.3.0, SVG Export Plug-In . SVG Version: 6.00 Build 0)  -->
<svg version="1.1" id="Layer_1" xmlns="http://www.w3.org/2000/svg" xmlns:xlink="http://www.w3.org/1999/xlink" x="0px" y="0px"
	 viewBox="0 0 311.237 298" enable-background="new 0 0 311.237 298" xml:space="preserve">
<g>
	<rect x="127.797" y="123.142" fill="#C4DB63" width="121.179" height="171.444"/>
	<path fill="#C4DB63" d="M84.282,54.553c0-10.355,0-20.614,0-30.985c10.355,0,20.613,0,30.993,0c0,10.329,0,20.587,0,30.985
		C104.996,54.553,94.738,54.553,84.282,54.553z"/>
	<path fill="#C4DB63" d="M161.263,23.592c0.038,0.631,0.096,1.154,0.097,1.676c0.009,9.225,0.003,18.45,0.026,27.675
		c0.003,1.056-0.04,1.778-1.461,1.77c-9.579-0.053-19.159-0.03-28.739-0.038c-0.285,0-0.57-0.072-0.963-0.124
		c0-10.304,0-20.562,0-30.958C140.513,23.592,150.766,23.592,161.263,23.592z"/>
	<path fill="#C4DB63" d="M115.293,105.429c-10.4,0-20.617,0-30.97,0c0-10.33,0-20.587,0-30.995c10.262,0,20.564,0,30.97,0
		C115.293,84.743,115.293,94.998,115.293,105.429z"/>
	<path fill="#C4DB63" d="M115.292,125.223c0,10.308,0,20.573,0,30.977c-10.327,0-20.59,0-30.981,0c0-10.28,0-20.549,0-30.977
		C94.579,125.223,104.883,125.223,115.292,125.223z"/>
	<path fill="#C4DB63" d="M115.252,207.026c-10.367,0-20.589,0-30.937,0c0-10.371,0-20.682,0-31.112c10.292,0,20.552,0,30.937,0
		C115.252,186.275,115.252,196.627,115.252,207.026z"/>
	<path fill="#C4DB63" d="M115.277,257.792c-10.371,0-20.588,0-30.949,0c0-10.337,0-20.636,0-31.041c10.32,0,20.575,0,30.949,0
		C115.277,237.083,115.277,247.337,115.277,257.792z"/>
	<path fill="#C4DB63" d="M130.122,105.312c0-4.47,0-8.837,0-13.204c0-5.325,0.036-10.65-0.026-15.974
		c-0.015-1.31,0.216-1.885,1.72-1.874c9.289,0.068,18.578,0.06,27.867,0.009c1.346-0.007,1.713,0.438,1.706,1.733
		c-0.049,9.289-0.044,18.578-0.025,27.867c0.002,1.022-0.091,1.654-1.39,1.647c-9.703-0.048-19.406-0.036-29.109-0.048
		C130.694,105.468,130.522,105.399,130.122,105.312z"/>
</g>
<g>
	<path fill="#0B1321" d="M60.409,295.218c0-98.533,0-196.785,0-295.218c40.632,0,81.124,0,121.715,0c0,41.501,0,82.971,0,124.635
		c-17.416,0-34.783,0-52.304,0c0,56.864,0,113.533,0,170.49c0.768,0,1.568,0,2.368,0c38.479,0,76.959-0.009,115.438,0.005
		c20.127,0.008,40.254,0.057,60.381,0.09c0.71,0.001,1.479-0.127,2.111,0.105c0.491,0.181,1.121,0.829,1.12,1.269
		c-0.001,0.445-0.633,1.005-1.12,1.291c-0.355,0.209-0.923,0.063-1.397,0.063c-102,0.001-203.999,0.001-305.999,0
		c-0.355,0-0.795,0.132-1.049-0.028c-0.604-0.382-1.121-0.902-1.672-1.366c0.526-0.44,0.99-1.038,1.595-1.273
		c0.568-0.221,1.284-0.063,1.935-0.063c18.174-0.001,36.347-0.001,54.521-0.001C58.752,295.218,59.452,295.218,60.409,295.218z
		 M84.282,54.553c10.457,0,20.714,0,30.993,0c0-10.398,0-20.656,0-30.985c-10.379,0-20.637,0-30.993,0
		C84.282,33.939,84.282,44.198,84.282,54.553z M161.263,23.592c-10.496,0-20.749,0-31.04,0c0,10.396,0,20.654,0,30.958
		c0.393,0.053,0.678,0.124,0.963,0.124c9.58,0.008,19.159-0.015,28.739,0.038c1.421,0.008,1.464-0.714,1.461-1.77
		c-0.024-9.225-0.017-18.45-0.026-27.675C161.359,24.746,161.301,24.224,161.263,23.592z M115.293,105.429
		c0-10.432,0-20.686,0-30.995c-10.406,0-20.708,0-30.97,0c0,10.408,0,20.665,0,30.995
		C94.676,105.429,104.892,105.429,115.293,105.429z M115.292,125.223c-10.409,0-20.713,0-30.981,0c0,10.428,0,20.697,0,30.977
		c10.391,0,20.654,0,30.981,0C115.292,145.795,115.292,135.531,115.292,125.223z M115.252,207.026c0-10.4,0-20.752,0-31.112
		c-10.385,0-20.645,0-30.937,0c0,10.43,0,20.741,0,31.112C94.663,207.026,104.885,207.026,115.252,207.026z M115.277,257.792
		c0-10.454,0-20.709,0-31.041c-10.374,0-20.629,0-30.949,0c0,10.405,0,20.704,0,31.041
		C94.689,257.792,104.907,257.792,115.277,257.792z M130.122,105.312c0.4,0.086,0.572,0.156,0.744,0.156
		c9.703,0.012,19.406,0,29.109,0.048c1.299,0.006,1.392-0.625,1.39-1.647c-0.019-9.289-0.024-18.578,0.025-27.867
		c0.007-1.296-0.36-1.741-1.706-1.733c-9.289,0.051-18.578,0.059-27.867-0.009c-1.504-0.011-1.736,0.564-1.72,1.874
		c0.062,5.324,0.026,10.65,0.026,15.974C130.122,96.475,130.122,100.842,130.122,105.312z"/>
	<path fill="#0B1321" d="M197.585,247.531c10.458,0,20.787,0,31.335,0c0.044,0.644,0.122,1.264,0.123,1.884
		c0.005,9.225-0.002,18.449,0.001,27.674c0,0.981,0.097,1.847-1.398,1.838c-9.756-0.055-19.513-0.038-29.27-0.05
		c-0.225,0-0.449-0.074-0.79-0.133C197.585,268.389,197.585,258.071,197.585,247.531z"/>
	<path fill="#0B1321" d="M228.922,144.576c0.047,0.791,0.123,1.483,0.123,2.176c0.007,8.988-0.034,17.976,0.037,26.963
		c0.013,1.66-0.381,2.22-2.151,2.2c-9.046-0.102-18.093-0.058-27.14-0.065c-0.696-0.001-1.393,0-2.234,0
		c-0.036-0.726-0.088-1.298-0.089-1.871c-0.006-9.165,0.029-18.331-0.038-27.496c-0.011-1.505,0.304-2.044,1.932-2.03
		c9.224,0.079,18.448,0.037,27.673,0.042C227.613,144.496,228.191,144.544,228.922,144.576z"/>
	<path fill="#0B1321" d="M228.897,227.248c-10.467,0-20.803,0-31.289,0c0-10.367,0-20.679,0-31.134c10.374,0,20.752,0,31.289,0
		C228.897,206.404,228.897,216.719,228.897,227.248z"/>
	<path fill="#0B1321" d="M182.915,175.755c-0.58,0.039-1.039,0.097-1.498,0.097c-9.344,0.002-18.688-0.039-28.031,0.033
		c-1.531,0.012-1.852-0.472-1.843-1.904c0.055-9.284,0.052-18.569-0.018-27.853c-0.01-1.394,0.462-1.666,1.729-1.66
		c9.344,0.046,18.687,0.035,28.031,0.016c1.049-0.002,1.793,0.028,1.786,1.45c-0.05,9.639-0.032,19.279-0.04,28.918
		C183.03,175.083,182.973,175.315,182.915,175.755z"/>
	<path fill="#0B1321" d="M151.729,196.083c10.437,0,20.756,0,31.196,0c0,10.415,0,20.722,0,31.132
		c-0.633,0.038-1.15,0.095-1.667,0.095c-9.402,0.006-18.804-0.006-28.206,0.025c-1.003,0.003-1.516-0.172-1.512-1.328
		c0.036-9.756,0.028-19.513,0.039-29.269C151.578,196.569,151.653,196.401,151.729,196.083z"/>
	<path fill="#0B1321" d="M151.68,247.535c10.455,0,20.775,0,31.239,0c0.043,0.647,0.114,1.216,0.115,1.786
		c0.009,9.225-0.015,18.451,0.037,27.676c0.008,1.403-0.3,1.951-1.847,1.939c-9.343-0.074-18.687-0.061-28.03-0.02
		c-1.193,0.005-1.666-0.255-1.66-1.552c0.047-9.639,0.025-19.278,0.03-28.918C151.565,248.215,151.622,247.984,151.68,247.535z"/>
</g>
</svg>
