<?xml version="1.0" encoding="utf-8"?>
<!-- Generator: Adobe Illustrator 24.3.0, SVG Export Plug-In . SVG Version: 6.00 Build 0)  -->
<svg version="1.1" id="Layer_1" xmlns="http://www.w3.org/2000/svg" xmlns:xlink="http://www.w3.org/1999/xlink" x="0px" y="0px"
	 viewBox="0 0 373.072 147" enable-background="new 0 0 373.072 147" xml:space="preserve">
<g>
	<polygon fill="#6EBAE7" points="26.01,147 85.78,72.692 95.472,85.615 46.819,147 83.781,147 161.703,46.846 242.472,147 
		279.927,147 163.318,0 109.203,68.654 84.972,37.962 0,147 	"/>
</g>
<g>
	<path fill="#0C131F" d="M84.972,37.962h48.424c0,0-25,29.885-24.193,30.692S84.972,37.962,84.972,37.962z"/>
	<polygon fill="#0C131F" points="163.318,0 258.242,0 373.072,147 279.927,147 	"/>
	<rect x="142.318" y="106.615" fill="#0C131F" width="17.769" height="17.769"/>
	<rect x="164.934" y="106.615" fill="#0C131F" width="17.769" height="17.769"/>
	<rect x="142.318" y="129.231" fill="#0C131F" width="17.769" height="17.769"/>
	<rect x="164.934" y="129.231" fill="#0C131F" width="17.769" height="17.769"/>
</g>
</svg>
