<?xml version="1.0" encoding="utf-8"?>
<!-- Generator: Adobe Illustrator 24.3.0, SVG Export Plug-In . SVG Version: 6.00 Build 0)  -->
<svg version="1.1" id="Layer_1" xmlns="http://www.w3.org/2000/svg" xmlns:xlink="http://www.w3.org/1999/xlink" x="0px" y="0px"
	 viewBox="0 0 216.76 209.19" enable-background="new 0 0 216.76 209.19" xml:space="preserve">
<g>
	<circle fill="#1A76B9" cx="86.368" cy="47.074" r="17.309"/>
	<path fill="#1A76B9" d="M56.157,38.105c0,0,2.872,27.7,18.567,34.617c20.351,8.969,41.541-0.629,41.541-0.629
		s-64.409,51.349-12.588,120.583C103.677,192.677,35.282,146.87,56.157,38.105z"/>
</g>
<g>
	<path fill="#F9582E" d="M121.449,206.174c2.754,0,3.43-0.059,8.174-0.332c-9.188,2.754-17.483,3.348-26.689,3.348
		c-0.891,0-1.779-0.011-2.664-0.032C44.741,207.804,0.677,161.863,0.009,106.322C0.003,105.829,0,105.335,0,104.84
		c0-0.182,0-0.365,0.001-0.547C0.247,48.789,44.096,2.649,99.543,0.114C101.194,0.038,102.855,0,104.525,0
		c10.639,0,17.626,1.049,29.524,4.353c-2.772-0.192-5.553-0.423-12.6-0.848C65.577,0.135,20.115,48.875,20.115,104.84
		S65.476,206.174,121.449,206.174z"/>
	<path fill="#F9582E" d="M108.033,195.533c-2.465,0-3.07-0.053-7.317-0.297c8.225,2.465,15.652,2.997,23.893,2.997
		c0.797,0,1.592-0.01,2.385-0.029c49.712-1.211,89.16-42.34,89.758-92.063c0.005-0.442,0.008-0.884,0.008-1.327
		c0-0.163,0-0.327-0.001-0.49c-0.22-49.69-39.476-90.996-89.114-93.266c-1.479-0.068-2.966-0.102-4.46-0.102
		c-9.524,0-15.78,0.939-26.431,3.897c2.482-0.172,4.971-0.379,11.28-0.759c50.019-3.017,90.719,40.617,90.719,90.719
		S158.143,195.533,108.033,195.533z"/>
	<circle fill="#F9582E" cx="153.715" cy="95.329" r="11.854"/>
	<path fill="#F9582E" d="M138.294,80.433c0,0-12.588,35.247,24.127,38.813c0,0-54.129,7.763-48.045,69.235
		C114.377,188.481,88.361,132.254,138.294,80.433z"/>
</g>
</svg>
