<?xml version="1.0" encoding="utf-8"?>
<!-- Generator: Adobe Illustrator 24.3.0, SVG Export Plug-In . SVG Version: 6.00 Build 0)  -->
<svg version="1.1" id="Layer_1" xmlns="http://www.w3.org/2000/svg" xmlns:xlink="http://www.w3.org/1999/xlink" x="0px" y="0px"
	 viewBox="0 0 267.513 227.351" enable-background="new 0 0 267.513 227.351" xml:space="preserve">
<g>
	<path fill="#CD115B" d="M225.567,6.555c-54.03-23.7-89.81,24.44-90.7,25.66c-0.89-1.22-36.67-49.36-90.7-25.66
		c-54.72,24-62.92,80.64,0,139.2l82.56,81.6v-46.56c0,0-27.84-19.32-44.04-36.96l-0.18-4.04c0,0-35.94-41.08-24.3-69.76
		c11.99-29.54,43.04-34.1,66.01-19.91c0.01,0,0.02,0,0.02,0c3,0.62,5.25,3.26,5.25,6.44c0,3.62-2.94,6.57-6.57,6.57
		c-3.63,0-6.57-2.95-6.57-6.57c0-0.22,0.01-0.43,0.03-0.64c-3.09-2.19-20.88-13.54-38.01,1.63c-18.84,16.68-19.08,39,10.44,75.24
		h4.95c0,0,13.94,20.21,41.11,36.41c27.17-16.2,41.11-36.41,41.11-36.41h4.95c29.52-36.24,29.28-58.56,10.44-75.24
		c-17.13-15.17-34.92-3.82-38.01-1.63c0.02,0.21,0.03,0.42,0.03,0.64c0,3.62-2.94,6.57-6.57,6.57s-6.57-2.95-6.57-6.57
		c0-3.18,2.25-5.82,5.25-6.44c0,0,0.01,0,0.02,0c22.97-14.19,54.02-9.63,66.01,19.91c11.64,28.68-24.3,69.76-24.3,69.76l-0.18,4.04
		c-16.2,17.64-44.04,36.96-44.04,36.96v46.56l82.56-81.6C282.687,89.595,280.287,30.555,225.567,6.555z M169.287,122.745
		c0,1.99-1.61,3.6-3.6,3.6h-15.09c-1.98,0-3.59,1.61-3.59,3.59v14.49c0,1.98-1.61,3.59-3.6,3.59h-14.92c-1.98,0-3.59-1.61-3.59-3.59
		v-14.49c0-1.98-1.61-3.59-3.6-3.59h-15.09c-1.98,0-3.59-1.61-3.59-3.6v-7.03h20.04l4.41-8.69l8.86,18.48l5.56-13.45l4.42,9.35
		l2.43-5.64l20.95-0.05V122.745z M143.407,82.155c1.99,0,3.6,1.6,3.6,3.59v14.48c0,1.99,1.61,3.6,3.59,3.6h15.09
		c1.99,0,3.6,1.61,3.6,3.59v7.04l-21.2-0.05l-2.21,5.31l-4.4-10.7l-5.55,13.97l-8.88-17.92l-4.63,9.39h-19.8v-7.04
		c0-1.98,1.61-3.59,3.59-3.59h15.09c1.99,0,3.6-1.61,3.6-3.6v-14.48c0-1.99,1.61-3.59,3.59-3.59H143.407z"/>
</g>
</svg>
