<?xml version="1.0" encoding="utf-8"?>
<!-- Generator: Adobe Illustrator 24.3.0, SVG Export Plug-In . SVG Version: 6.00 Build 0)  -->
<svg version="1.1" id="Layer_1" xmlns="http://www.w3.org/2000/svg" xmlns:xlink="http://www.w3.org/1999/xlink" x="0px" y="0px"
	 viewBox="0 0 259.04 259.04" enable-background="new 0 0 259.04 259.04" xml:space="preserve">
<g>
	<path fill="#086FAF" d="M129.52,259.04C58.102,259.04,0,200.937,0,129.52C0,58.103,58.102,0,129.52,0
		C200.938,0,259.04,58.103,259.04,129.52C259.04,200.937,200.938,259.04,129.52,259.04z M129.52,4C60.308,4,4,60.308,4,129.52
		s56.308,125.52,125.52,125.52S255.04,198.732,255.04,129.52S198.731,4,129.52,4z"/>
	<path fill="#086FAF" d="M129.52,250.04C63.065,250.04,9,195.975,9,129.52S63.065,9,129.52,9C195.975,9,250.04,63.065,250.04,129.52
		S195.975,250.04,129.52,250.04z M129.52,11C64.167,11,11,64.168,11,129.52c0,65.352,53.167,118.52,118.52,118.52
		c65.353,0,118.521-53.168,118.521-118.52C248.04,64.168,194.872,11,129.52,11z"/>
	<path fill="#086FAF" d="M130.96,67.907c0,0,40.8-45.12,79.44-8.4s13.44,124.68-79.44,165.36l-35.64-21.6
		c0,0,50.76-27.36,48.96-65.16s-33.84-54.36-62.28-28.44c0,0-20.52-23.04-47.16-6.48c0,0-0.72-30.24,24.84-46.8
		S116.2,48.827,130.96,67.907z"/>
	<path fill="#086FAF" d="M124.44,112.277c-21.04-19.99-41.75,11.91-41.75,11.91c-8.04-10.39-26.4-22.62-40.31-13.61
		c-3.48,2.26-6.07,4.98-7.99,7.79c-5.21,7.64-6.3,17.37-3.29,26.12c1.17,3.41,2.92,7.73,5.53,12.71
		c9.12,17.49,21.66,27.57,38.53,37.79l7.56,3.96C133.29,176.797,145.48,132.267,124.44,112.277z M105.52,159.917H90.28v15.27H75.16
		v-15.27H59.85v-15.12h15.31v-15.28h15.12v15.28h15.24V159.917z"/>
</g>
</svg>
