<?xml version="1.0" encoding="utf-8"?>
<!-- Generator: Adobe Illustrator 24.3.0, SVG Export Plug-In . SVG Version: 6.00 Build 0)  -->
<svg version="1.1" id="Layer_1" xmlns="http://www.w3.org/2000/svg" xmlns:xlink="http://www.w3.org/1999/xlink" x="0px" y="0px"
	 viewBox="0 0 230.22 252.636" enable-background="new 0 0 230.22 252.636" xml:space="preserve">
<g>
	<circle fill="#F29611" cx="115.01" cy="60.9" r="19.44"/>
	<path fill="#F29611" d="M103.413,120.826c0.81-15.528-8.253-16.156-8.253-16.156s4.07-11.13,18.59-11.13s18.59,11.13,18.59,11.13
		c-3.888,1.144-6.73,4.789-6.659,9.067c0.081,4.888,4.139,8.994,9.026,9.13c5.239,0.146,9.553-4.079,9.553-9.286
		c0-3.72-2.2-6.94-5.36-8.42c-0.83-6.86-6.55-12.58-6.55-12.58c12.6,1.08,22.44,11.64,22.44,11.64
		c10.04,40.63-37.22,96.43-40.82,100.61c-3.6-4.18-50.86-59.98-40.82-100.61c0,0,9.84-10.56,22.44-11.64l-11.24,16.08
		c0,0-1.83,9.3,0.87,13.8c2.7,4.5,6.03,0.72,6.03,0.72s-6.24-9.78,1.32-15.48c0,0,6.33,3.24,5.16,11.43
		c-0.585,4.095,0.789,5.107,2.308,5.096C101.859,124.213,103.318,122.644,103.413,120.826z"/>
	<circle fill="#F29611" cx="134.969" cy="113.58" r="3.621"/>
</g>
<g>
	<path fill="#1F3767" d="M127.175,194.1c0,0,7.575,5.04,22.695-3.36c14.669-8.149,50.233-32.563,32.289-83.651
		c-1.719-4.893-9.026-3.377-8.555,1.788c0.008,0.087,0.008,0.176,0.026,0.263c6.78,31.68-10.92,47.28-14.435,49.92
		s-10.885,1.92-3.685-7.56c7.2-9.48,1.63-17.4,1.63-17.4S147.62,170.52,127.175,194.1z"/>
	<path fill="#1F3767" d="M103.224,194.1c0,0-7.575,5.04-22.695-3.36c-14.669-8.149-50.233-32.563-32.289-83.651
		c1.719-4.893,9.026-3.377,8.555,1.788c-0.008,0.087-0.008,0.176-0.026,0.263c-6.78,31.68,10.92,47.28,14.435,49.92
		s11.092,1.759,3.685-7.56c-4.339-5.46-2.179-12.3-2.179-12.3S82.779,170.52,103.224,194.1z"/>
	<path fill="#1F3767" d="M115.11,252.636l-0.728-0.404c-30.108-16.704-54.816-38.78-73.436-65.615
		c-14.892-21.463-25.94-45.994-32.836-72.912c-11.736-45.808-7.295-83.217-7.25-83.589l0.074-0.597l0.466-0.38
		C33.253,3.136,100.464,0.337,113.75,0.039V0l2.72,0.032c15.6,0.344,80.776,3.335,112.348,29.106l0.466,0.38l0.074,0.597
		c0.047,0.373,4.487,37.782-7.249,83.589c-6.896,26.917-17.943,51.449-32.836,72.912c-18.619,26.835-43.327,48.911-73.436,65.615
		L115.11,252.636z M3.774,31.078c-0.509,4.932-3.546,39.849,7.271,81.99c10.667,41.555,37.379,98.832,104.065,136.135
		c66.687-37.304,93.399-94.58,104.065-136.135c10.816-42.141,7.78-77.058,7.271-81.99C194.636,5.63,128.392,3.231,115.323,3.01
		C107.313,3.117,36.608,4.814,3.774,31.078z"/>
	<path fill="#1F3767" d="M115.11,240.566l-0.506-0.297c-26.482-15.551-48.362-35.616-65.03-59.639
		c-14.178-20.435-24.707-43.828-31.292-69.532c-8.975-35.029-8.139-64.527-7.363-75.583l0.033-0.473l0.387-0.273
		c31.938-22.582,96.682-24.153,103.959-24.258c7.295,0.13,71.905,1.916,103.574,24.254l0.389,0.274l0.033,0.475
		c0.771,11.231,1.579,41.149-7.538,76.29c-6.636,25.58-17.188,48.86-31.363,69.193c-16.637,23.862-38.431,43.804-64.776,59.272
		L115.11,240.566z M12.881,36.13c-0.758,11.311-1.438,40.216,7.338,74.473c6.526,25.473,16.955,48.649,30.998,68.888
		c16.395,23.63,37.891,43.396,63.893,58.757c25.868-15.279,47.277-34.923,63.642-58.395c14.039-20.138,24.492-43.201,31.068-68.551
		c8.917-34.372,8.263-63.689,7.51-75.174c-31.321-21.736-94.865-23.488-102.035-23.616C108.142,12.615,44.463,14.155,12.881,36.13z"
		/>
</g>
</svg>
