<?xml version="1.0" encoding="utf-8"?>
<!-- Generator: Adobe Illustrator 24.3.0, SVG Export Plug-In . SVG Version: 6.00 Build 0)  -->
<svg version="1.1" id="Layer_1" xmlns="http://www.w3.org/2000/svg" xmlns:xlink="http://www.w3.org/1999/xlink" x="0px" y="0px"
	 viewBox="0 0 218.994 277.64" enable-background="new 0 0 218.994 277.64" xml:space="preserve">
<g>
	<path fill="#F7931E" d="M218.994,146.857v-6.908H108.335v-12.464c3.483,0.005,9.59,0.035,20.28,0.122
		c0.137,0.001,0.271,0.002,0.407,0.002c14.851-0.001,26.934-6.683,34.958-19.345c5.985-9.444,7.565-18.845,7.629-19.24
		c0.294-1.806-0.872-3.529-2.659-3.926c-28.253-6.285-44.748,1.507-53.609,9.15c-2.924,2.522-5.214,5.18-7.006,7.681V75.511
		c5.812,0.986,11.317,1.445,16.518,1.445c29.356-0.001,49.13-14.359,61.191-27.772c15.697-17.456,21.773-36.585,22.025-37.39
		c0.313-1.005,0.15-2.099-0.442-2.97c-0.593-0.871-1.55-1.424-2.601-1.501c-0.783-0.06-19.427-1.362-41.419,3.672
		c-24.72,5.657-43.59,17.162-55.272,33.549v-0.24h-0.008c0-0.043-0.006-0.087-0.008-0.131c-0.004-0.105-0.006-0.208-0.019-0.313
		c-0.004-0.027-0.001-0.054-0.005-0.082c-0.142-0.927-3.708-22.848-22.069-35.398C74.006,0.028,58.315-2.093,39.59,2.071
		c-0.908,0.202-1.696,0.762-2.186,1.552c-0.489,0.791-0.64,1.746-0.417,2.648c0.261,1.058,6.642,26.06,27.368,38
		c7.063,4.069,14.897,6.106,23.419,6.106c4.373,0,8.929-0.541,13.653-1.615v48.026c-10.855-14.215-27.89-23.831-49.981-28.074
		c-20.254-3.889-37.424-1.953-38.146-1.869c-1.004,0.118-1.906,0.669-2.468,1.508c-0.563,0.839-0.729,1.883-0.456,2.856
		c0.21,0.75,5.314,18.538,19.278,34.784c10.768,12.528,28.611,25.953,55.637,25.951c5.051,0,10.428-0.472,16.135-1.504v9.509H0
		v6.908h101.427v1.856c-0.165,0.292-0.304,0.603-0.38,0.948c-0.941,4.266-3.617,13.774-7.363,20.838
		c-0.014,0.023-0.025,0.049-0.039,0.072c-1.641,3.08-3.484,5.691-5.478,7.183c-23.328,17.462-46.454,2.725-47.42,2.093
		c-1.59-1.051-3.734-0.613-4.785,0.98c-1.051,1.592-0.612,3.734,0.98,4.785c0.286,0.189,7.128,4.65,17.33,6.605
		c2.736,0.524,5.871,0.89,9.292,0.89c5.382,0,11.47-0.916,17.806-3.547c-3.342,9.283-14.817,15.635-34.863,19.337
		c-19.586,3.616-30.303,29.179-30.75,30.265c-0.725,1.763,0.116,3.778,1.879,4.505c0.43,0.178,0.875,0.262,1.314,0.262
		c1.357,0,2.644-0.805,3.194-2.137c0.096-0.232,9.744-23.172,25.617-26.103c1.316-0.243,2.591-0.502,3.843-0.769
		c-1.791,10.178-3.339,31.916,11.951,46.307c0.667,0.627,1.518,0.938,2.366,0.938c0.919,0,1.836-0.364,2.516-1.087
		c1.307-1.389,1.24-3.574-0.148-4.882c-14.513-13.659-10.724-36.539-9.259-43.104c19.335-5.482,29.25-14.598,30.209-27.688
		c1.021-0.66,2.043-1.356,3.066-2.122c0.465-0.348,0.915-0.739,1.359-1.15l1.135,22.597c0.064,1.276,0.834,2.415,1.991,2.958
		c0.126,0.059,12.602,6.034,11.297,16.04c-0.464,3.553-3.329,7.413-7.007,10.996c-0.118,0.105-0.235,0.21-0.335,0.327
		c-5.583,5.342-12.889,10.022-16.599,12.072c-1.668,0.923-2.275,3.024-1.353,4.693c0.63,1.141,1.809,1.785,3.027,1.785
		c0.564,0,1.136-0.139,1.665-0.43c1.389-0.766,8.52-4.807,15.181-10.529c8.177,15.537-7.703,28.218-8.465,28.812
		c-1.507,1.167-1.783,3.334-0.618,4.842c0.681,0.881,1.703,1.342,2.736,1.342c0.738,0,1.48-0.235,2.109-0.72
		c0.247-0.191,6.088-4.752,10.002-12.038c3.504-6.521,6.046-16.349-0.625-27.184c3.67-4.008,6.534-8.488,7.132-13.075
		c1.587-12.171-8.892-19.613-13.336-22.189l-1.473-29.343c1.117-2.154,2.111-4.416,2.985-6.638
		c2.947,9.484,7.488,15.977,12.533,20.4c-1.979,5.459-4.048,17.894,11.886,28.714c5.962,4.049,9.468,9.3,10.42,15.607
		c1.212,8.034-2.079,16.498-5.65,20.961c-1.192,1.49-0.95,3.663,0.539,4.855c0.637,0.51,1.399,0.757,2.156,0.757
		c1.013,0,2.017-0.444,2.699-1.296c4.63-5.788,8.616-16.166,7.087-26.307c-0.833-5.52-3.218-10.509-6.989-14.74
		c5.304-1.579,14.88-2.593,25.969,4.745c0.508,0.336,1.021,0.652,1.535,0.956c0.194,3.206,1.119,9.422,5.057,16.516
		c5.032,9.065,16.205,21.471,40.851,29.089c0.34,0.105,0.684,0.154,1.021,0.154c1.475,0,2.841-0.952,3.299-2.434
		c0.563-1.823-0.458-3.757-2.28-4.319c-31.498-9.736-38.898-27.082-40.6-35.712c4.218,1.351,8.462,1.879,12.502,1.879
		c13.219-0.001,24.243-5.583,24.936-5.941c1.692-0.875,2.354-2.955,1.481-4.648c-0.873-1.694-2.953-2.359-4.65-1.489
		c-0.223,0.114-22.505,11.33-39.338,0.19c-16.407-10.857-30.415-6.505-35.635-4.161c-0.176-0.124-0.347-0.253-0.526-0.375
		c-10.617-7.21-10.928-14.63-9.92-18.833c7.488,4.267,15.148,5.069,19.818,5.069c2.711,0,4.415-0.268,4.492-0.282
		c1.88-0.322,3.144-2.106,2.823-3.986c-0.322-1.88-2.106-3.146-3.986-2.823c-0.072,0.012-7.254,1.189-15.367-1.866
		c-2.701-1.017-5.166-2.37-7.394-4.052c-0.04-0.029-0.075-0.062-0.116-0.09c-6.615-5.049-11.116-13.04-13.427-23.858v-12.274
		H218.994z M164.057,91.146c-2.257,8.353-10.45,29.729-35.385,29.555c-8.496-0.069-14.932-0.11-19.182-0.12
		c10.898-14.264,35.569-16.161,35.962-16.189c1.903-0.127,3.343-1.773,3.215-3.676c-0.127-1.904-1.788-3.339-3.676-3.216
		c-1.002,0.067-19.244,1.429-32.861,11.139C117.374,99.693,131.222,84.995,164.057,91.146z M164.975,17.767
		c14.702-3.386,28.111-3.79,34.888-3.708c-2.614,6.416-8.562,18.948-18.955,30.506c-19.054,21.187-43.464,29.227-72.573,23.933
		v-0.347c0.05-0.074,0.103-0.144,0.148-0.223c13.479-23.737,51.498-28.713,51.88-28.761c1.892-0.234,3.237-1.956,3.005-3.849
		c-0.233-1.894-1.96-3.236-3.849-3.007c-1.461,0.18-31.237,4.066-49.258,22.102C120.408,36.124,138.787,23.797,164.975,17.767z
		 M67.845,38.31C53.935,30.319,47.199,14.941,44.781,8.073c15.105-2.695,27.706-0.691,37.489,5.971
		c7.237,4.928,11.844,11.708,14.733,17.657c-10.201-6.244-22.318-7.407-23.036-7.47c-1.904-0.166-3.577,1.237-3.744,3.137
		c-0.168,1.9,1.237,3.577,3.137,3.744c0.191,0.017,17.092,1.628,25.753,11.082C87.263,44.726,76.762,43.431,67.845,38.31z
		 M35.044,101.666c-9.209-10.653-14.374-22.3-16.63-28.281c6.228-0.322,18.479-0.453,31.903,2.146
		c24.96,4.833,42.141,16.371,51.11,34.276v3.921C84.976,96.004,56.917,90.1,55.559,89.824c-1.866-0.379-3.69,0.827-4.072,2.695
		c-0.381,1.869,0.825,3.692,2.693,4.074c0.337,0.069,32.387,6.843,45.988,26.574c-0.042,0.171-0.069,0.337-0.086,0.497
		C73.657,128.421,51.783,121.03,35.044,101.666z"/>
</g>
</svg>
