<?xml version="1.0" encoding="utf-8"?>
<!-- Generator: Adobe Illustrator 24.3.0, SVG Export Plug-In . SVG Version: 6.00 Build 0)  -->
<svg version="1.1" id="Layer_1" xmlns="http://www.w3.org/2000/svg" xmlns:xlink="http://www.w3.org/1999/xlink" x="0px" y="0px"
	 viewBox="0 0 295.41 269.528" enable-background="new 0 0 295.41 269.528" xml:space="preserve">
<g>
	<path fill="#08B9F7" d="M209.98,259.424c0,0-1.04,5.052,2.229,6.389c3.269,1.337,18.869,1.337,18.869,1.337v2.377l64.333-2.229
		l-55.121-2.08l0.297-5.794H209.98z"/>
	<path fill="#08B9F7" d="M231.523,268.413l-0.446,1.114H148.47v-5.052h56.607v-5.052h2.823c0,0-1.56,6.76,3.417,8.097
		c4.47,1.201,17.21,0.966,19.76,0.904C231.362,268.413,231.523,268.413,231.523,268.413z"/>
	<path fill="#08B9F7" d="M85.431,259.424c0,0,1.04,5.052-2.229,6.389c-3.269,1.337-18.869,1.337-18.869,1.337v2.377L0,267.299
		l55.121-2.08l-0.297-5.794H85.431z"/>
	<path fill="#08B9F7" d="M63.887,268.413l0.446,1.114h82.608v-5.052H90.334v-5.052h-2.823c0,0,1.56,6.76-3.417,8.097
		c-4.47,1.201-17.21,0.966-19.76,0.904C64.048,268.413,63.887,268.413,63.887,268.413z"/>
	<rect x="146.941" y="264.476" fill="#08B9F7" width="1.529" height="5.052"/>
	<polygon fill="#08B9F7" points="168.899,160.548 168.899,148.885 165.779,157.242 148.507,158.752 128.115,160.548 	"/>
	<path fill="#08B9F7" d="M206.563,125.373H148.47h-1.529H88.848l9.93,8.914c0,0,35.547-4.445,48.126-3.454h0.037h1.529h0.037
		c12.579-0.99,48.126,3.454,48.126,3.454L206.563,125.373z"/>
	<path fill="#08B9F7" d="M216.795,198.501l-0.193,0.187h-3.388l-19.754,19.873l22.289,0.459l0.63,0.026l0-0.013l22.45,0.462v-20.808
		h-22.037L216.795,198.501z M213.729,199.926h1.599l-17.991,17.477l-0.961-0.02L213.729,199.926z M199.409,217.115l16.087-15.626
		l-0.002,0.092l-5.143,12.529l-10.518,3.023L199.409,217.115z M237.59,202.738l-2.634,12.363l-5.006,2.973l-1.993-0.041v-18.107
		h9.633V202.738z M227.826,199.926L224.614,215l-4.824,2.865l-3.387-0.07l0.363-17.869H227.826z"/>
	<polygon fill="#08B9F7" points="219.786,202.372 225.464,200.886 217.854,200.886 217.854,214.332 	"/>
	<polygon fill="#08B9F7" points="231.672,202.372 237.35,200.886 229.74,200.886 229.74,214.332 	"/>
	<path fill="#08B9F7" d="M244.398,220.621l1.353-44.208l-8.065-0.901l1.869-11.145h-5.183V77.396h-2.5V0h-22.757v31.907h-12.827
		v-8.469h-18.3v8.469h-29.479h-1.603h-29.48v-8.469h-18.3v8.469H86.297V0H63.541v77.396H61.04v86.972h-5.183l1.868,11.145
		l-8.065,0.901l1.353,44.208h-7.131l4.296,39.422h98.763h1.529h98.763l4.295-39.422H244.398z M243.159,220.621h-51.733
		l23.606-33.702l26.446-7.28c0,0-28.477-2.888-34.896-3.44l1.057-2.8l36.84,4.118L243.159,220.621z M106.89,220.621l-6.24-16.566
		h0.096v-64.693l1.672-0.194v7.214h20.875v3.071h-13.966v67.949h37.614h1.529h37.614v-67.949h-13.965v-3.071h20.874v-7.217
		l1.672,0.195v64.694h0.096l-6.241,16.566h-40.05h-1.529H106.89z M90.123,176.111c0,0-0.004,0-0.004,0l-1.527-4.048l-10.07,1.125
		v-49.791l19.748,15.956v58.384L90.123,176.111z M107.881,109.093c0.021,0.001,0.03,0,0.044-0.001l0.049-0.001v-0.002
		c0.508-0.113,35.253,0.001,35.253,0.001V64.584V64.16h3.714h1.529h3.714v0.424v44.507c0,0,34.764-0.114,35.254-0.001v0.002
		l0.047,0.001c0.013,0.001,0.023,0.002,0.045,0.001l18.91,0.306V83.126l7.28,2.589v35.695H148.47h-1.566H81.692V85.716l7.28-2.589
		v26.273L107.881,109.093z M91.296,82.291l2.061,24.402c0,0,3.703,0.652,7.382,1.276l-10.528,0.17V82.684L91.296,82.291z
		 M204.115,82.291l1.086,0.392v25.457l-10.528-0.17c3.678-0.624,7.382-1.276,7.382-1.276L204.115,82.291z M206.819,172.063
		l-1.527,4.048c0,0-0.004,0-0.004,0l-8.146,21.625v-58.384l19.748-15.955v49.791L206.819,172.063z M178.581,150.692h6.264v65.473
		h-6.264v-51.977V150.692z M177.343,164.188v51.977H168.7v-51.952h3.418v-13.52h5.225V164.188z M116.83,216.165h-6.265v-65.473
		h6.265v13.495V216.165z M118.068,164.188v-13.495h5.225v13.52h3.418v51.952h-8.642V164.188z M127.948,164.212h8.419v51.952h-8.419
		V164.212z M137.605,164.212h9.336v51.952h-9.336V164.212z M149.138,164.212h8.667v51.952h-8.667V164.212z M159.043,164.212h8.419
		v51.952h-8.419V164.212z M170.88,162.974H148.47h-1.529h-22.41v-16.591h22.41h1.529h22.411V162.974z M148.47,145.145h-1.529
		h-43.285v-6.12l40.056-4.641l-26.263,8.037h29.492h1.529l-0.034-8.411l0.034,0.004v8.407h29.492l-26.245-8.031l40.037,4.633v6.122
		H148.47z M148.47,132.777l-1.637,0.004l-47.868,5.541l-19.396-15.674h67.373h1.566h67.335l-19.395,15.674L148.47,132.777z
		 M216.009,85.604L216.009,85.604v-0.003V85.604z M79.401,85.599l0.002,0.005l-0.002,0.001V85.599z M236.453,175.374l-8.618-0.963
		c0.911-2.61,8.424-6.583,8.424-6.583l-9.806-0.279c0,0-0.787,4.846-0.962,6.6l-1.858-0.208l1.552-8.336h12.906L236.453,175.374z
		 M233.132,78.634v85.734h-8.978l-1.754,9.437l-0.46-0.051V92.847h9.93V78.634H233.132z M180.463,25.914h13.347v5.992h-1.065v-4.853
		h-10.772c4.235,0.612,7.734,3.257,9.51,4.853h-11.021V25.914z M101.6,25.914h13.347v1.139h-9.806
		c4.235,0.612,7.734,3.257,9.51,4.853H101.6V25.914z M66.017,2.476h17.804v31.907h63.083h1.603h63.083V2.476h17.804v87.895h-10.909
		V33.999h0V13.05l7.577-7.577h-12.592v28.415l2.538,0.056v51.272l-9.981-3.55l0,0l-2.236-0.807l-0.003,0.008l-51.605-17.937v-0.007
		h-3.714h-1.529h-3.714v0.007L91.621,80.866l-0.003-0.008l-2.234,0.807l0,0l-9.982,3.55V33.944l2.538-0.056V5.473H69.347
		l7.577,7.577v20.949h0v56.372H66.017V2.476z M62.278,78.634h1.263v14.214h9.93v80.905l-0.459,0.051l-1.756-9.437h-8.977V78.634z
		 M57.32,165.605h12.906l1.551,8.336l-1.858,0.208c-0.175-1.754-0.962-6.6-0.962-6.6l-9.806,0.279c0,0,7.513,3.973,8.424,6.583
		l-8.618,0.963L57.32,165.605z M50.932,177.517l36.841-4.118l1.056,2.8c-6.419,0.552-34.897,3.44-34.897,3.44l26.446,7.28
		l23.606,33.702H52.252L50.932,177.517z M246.123,258.805H148.47h-1.529H49.288l-4.025-36.945h101.678h1.529h101.677
		L246.123,258.805z"/>
	<path fill="#08B9F7" d="M153.076,224.064l72.393,6.389l5.163,17.532h-54.503v-12.803h-27.66h-1.529h-27.66v12.803H64.779
		l5.163-17.532l72.393-6.389l-93.454,0.594l5.052,31.795h93.008h1.529h93.008l5.052-31.795L153.076,224.064z M173.468,249.321
		v-11.217h-40.784l15.823,1.387l21.841,1.919l2.959,7.912H148.47h-1.529H119.9v-1.337h0.619V236.42h26.421h1.529h26.421v11.565
		h0.619v1.337H173.468z"/>
	<path fill="#08B9F7" d="M143.103,45.167c1.263-0.149,2.538-0.21,3.801-0.161h1.603c1.263-0.049,2.538,0.012,3.801,0.161
		l47.148,5.658l12.48,24.069V37.453h-63.429h-1.603H83.474v37.441l12.48-24.069L143.103,45.167z"/>
	<polygon fill="#08B9F7" points="88.848,117.981 146.941,117.981 148.47,117.981 206.563,117.981 206.563,111.889 148.47,111.889 
		146.941,111.889 88.848,111.889 	"/>
	<path fill="#08B9F7" d="M79.662,219.02l22.289-0.459l-19.754-19.873h-3.388l-0.193-0.187l0.004,0.187H56.582v20.808l22.45-0.462
		l0,0.013L79.662,219.02z M95.577,217.132l-10.518-3.023l-5.143-12.529l-0.002-0.092L96,217.115L95.577,217.132z M81.682,199.926
		l17.352,17.457l-0.959,0.02l-17.991-17.477H81.682z M67.453,199.926v18.107l-1.993,0.041l-5.006-2.973L57.82,202.74v-2.814H67.453z
		 M75.62,217.865L70.796,215l-3.211-15.074h11.059l0.363,17.869L75.62,217.865z"/>
	<polygon fill="#08B9F7" points="69.946,200.886 75.625,202.372 77.556,214.332 77.556,200.886 	"/>
	<polygon fill="#08B9F7" points="65.67,214.332 65.67,200.886 58.06,200.886 63.739,202.372 	"/>
</g>
</svg>
