<?xml version="1.0" encoding="utf-8"?>
<!-- Generator: Adobe Illustrator 24.3.0, SVG Export Plug-In . SVG Version: 6.00 Build 0)  -->
<svg version="1.1" id="Layer_1" xmlns="http://www.w3.org/2000/svg" xmlns:xlink="http://www.w3.org/1999/xlink" x="0px" y="0px"
	 viewBox="0 0 238.083 160.2" enable-background="new 0 0 238.083 160.2" xml:space="preserve">
<g>
	<path fill="#ED5A4A" d="M82.052,56.87h-0.01L0.002,18.36v120.96l42.84,20.88c0,0,7.92-33.84,39.24-33.84l-0.04-0.01
		c31.32,0,39.24,33.84,39.24,33.84l42.84-20.88V18.35L82.052,56.87z M82.562,117.8c-9.39,0-17-7.61-17-17c0-9.39,7.61-17,17-17
		c9.39,0,17,7.61,17,17C99.562,110.19,91.952,117.8,82.562,117.8z"/>
</g>
<g>
	<polygon fill="#08B9F7" points="17.28,3.24 60.48,39.24 17.28,19.8 	"/>
	<polygon fill="#08B9F7" points="147.6,2.34 104.4,38.34 147.6,18.9 	"/>
	<path fill="#08B9F7" d="M237.84,0c0,0-9.96,12-21.36,15.12c0,0-4.08,6.96-9,9l3.96-6.36l-13.2,11.04l5.76-8.46
		c0,0-21.12,6.18-29.4,7.38l-3.84,4.92V27.6l-7.8,10.2l3.96-6.6c0,0-16.08,2.52-23.28,12.36s-9.36,12.84-9.36,12.84
		s-0.96-9.48,5.64-15.36c0,0-20.04,9.72-23.88,29.28c0,0-15,10.08-19.08,16.44l5.4,5.28c0,0,28.32-30.12,58.8-41.04
		s38.76-15.48,38.76-15.48s-32.04,18.72-42.48,21.96C147,60.72,124.92,76.8,124.92,76.8s36.24-2.88,46.32-7.32l-5.4-2.52
		c0,0,7.44,2.4,14.52,0.48c0,0-10.92-1.44-14.76-4.56c0,0,31.05,5.685,51.75-15.855c0,0-6.165,0.135-8.1-0.45
		c0,0,8.28-0.315,10.755-2.205c0,0-11.7,1.65-18.045-2.79c0,0,15.21,1.26,22.14-1.62C224.1,39.96,240.24,27,237.84,0z"/>
</g>
<g>
	<path fill="#4B2F96" d="M89.58,100.96c-3.45,1.9-7.7,6.78-7.7,6.78l0.62,0.62c3.9-3.72,11.64-3.72,11.64-3.72l6.9-10.74l-5.94-5.22
		l-10.68,6c0.81,7.02-4.56,11.76-4.56,11.76l0.69,0.84c1.42-1.32,6.65-6.26,7.73-7.28c-0.07-0.18-0.11-0.37-0.11-0.58
		c0-0.86,0.7-1.56,1.56-1.56c0.86,0,1.56,0.7,1.56,1.56c0,0.85-0.7,1.55-1.56,1.55C89.68,100.97,89.63,100.97,89.58,100.96z"/>
</g>
</svg>
