<?xml version="1.0" encoding="utf-8"?>
<!-- Generator: Adobe Illustrator 24.3.0, SVG Export Plug-In . SVG Version: 6.00 Build 0)  -->
<svg version="1.1" id="Layer_1" xmlns="http://www.w3.org/2000/svg" xmlns:xlink="http://www.w3.org/1999/xlink" x="0px" y="0px"
	 viewBox="0 0 315.331 346.65" enable-background="new 0 0 315.331 346.65" xml:space="preserve">
<g>
	<path fill="#F15C5D" d="M211.051,63.47c-9.28-4.85-18.32-10.23-27.43-15.38c-15.14-8.55-30.26-17.16-45.42-25.66
		c-5.16-2.89-8.52-2.04-8.57,4.66c-0.02,1.65-0.05,3.31-0.05,4.97c0,85.07,0,170.14,0.01,255.21c0.02,3.25,0.3,6.48,0.58,12.29
		c4.28-2.97,6.85-4.38,8.95-6.29c18.04-16.26,35.96-32.64,53.93-48.95c10.97-9.96,10.99-9.94,23.57-3.36
		c0.18,0.08,0.51-0.1,1.69-0.38c0.25-1.99,0.81-4.31,0.81-6.65c0.05-52.47-0.03-104.95,0.1-157.43
		C219.241,70.12,216.541,66.34,211.051,63.47z M206.82,227.1l-67.96-34.81l3.56-5.87l66.96,33.71L206.82,227.1z M206.82,210.52
		l-67.96-34.81l3.56-5.87l66.96,33.72L206.82,210.52z M206.82,193.95l-67.96-34.81l3.56-5.88l66.96,33.72L206.82,193.95z
		 M206.82,177.37l-67.96-34.81l3.56-5.87l66.96,33.71L206.82,177.37z M206.82,160.79l-67.96-34.81l3.56-5.87l66.96,33.72
		L206.82,160.79z M206.82,144.22l-67.96-34.81l3.56-5.88l66.96,33.72L206.82,144.22z M206.82,127.64l-67.96-34.81l3.56-5.87
		l66.96,33.71L206.82,127.64z M206.82,111.06l-67.96-34.81l3.56-5.87l66.96,33.72L206.82,111.06z M206.82,94.49l-67.96-34.81
		l3.56-5.88l66.96,33.72L206.82,94.49z M206.82,77.91l-67.96-34.81l3.56-5.87l66.96,33.71L206.82,77.91z"/>
	<path fill="#F15C5D" d="M47.171,56.49v1.08l-0.93,0.59C46.601,57.63,46.911,57.07,47.171,56.49z"/>
	<path fill="#F15C5D" d="M119.321,28.02c-0.09,0.04-0.12-0.48-0.12-1.29C119.251,27.14,119.291,27.57,119.321,28.02z"/>
	<path fill="#F15C5D" d="M304.101,117.15l-0.75-0.69v-0.74C303.57,116.2,303.82,116.68,304.101,117.15z"/>
	<path fill="#F15C5D" d="M299.251,342.16c-27.98-25.38-56.01-50.69-83.97-76.06c-8.46-7.67-10.03-7.82-19.18,0.4
		c-23.18,20.82-46.32,41.69-69.32,62.71c-5.76,5.24-10.96,11.06-17.23,17.44h193.17C300.831,344.18,300.181,343,299.251,342.16z
		 M200.191,331.53h-14.92v-14.92h14.92V331.53z M200.191,309.98h-14.92v-14.92h14.92V309.98z M221.741,331.53h-14.92v-14.92h14.92
		V331.53z M221.741,309.98h-14.92v-14.92h14.92V309.98z"/>
	<path fill="#F15C5D" d="M225.521,226.6l-0.1,10.73c-0.15-2.02-0.16-4.13-0.07-6.34C225.411,229.53,225.471,228.06,225.521,226.6z"
		/>
	<path fill="#F15C5D" d="M47.171,56.49v1.08l-0.93,0.59C46.601,57.63,46.911,57.07,47.171,56.49z"/>
	<path fill="#F15C5D" d="M119.461,37.14c0.02,85.12,0.03,170.24,0.04,255.36c0,14.68-7.08,24.73-22.71,31.11
		c-0.16-3.52-0.43-6.66-0.43-9.8c-0.03-45.6-0.2-91.2,0.12-136.79c0.07-9.72-3.02-15.85-12.01-20.37
		c-10.81-5.44-20.76-12.59-31.07-19.01c-10.07-6.27-10.87-6.38-23.37-2.23v-0.91l-0.58-44.51V67.96l4.98-2.24l4.76-3.04l0.01-0.01
		l7.04-4.51l0.93-0.59v-1.08c0.29-0.66,0.53-1.35,0.71-2.08V20.86h8.73v9.79c0.08,4.61,0.03,9.42,0,14.78c0,0.3-0.01,0.6-0.01,0.91
		c-0.01,2.21-0.02,4.51-0.02,6.93c12.53-6.95,22.67-12.21,32.32-18.25c0.93-0.58,1.52-1.93,1.89-3.48V0h10.41v7.03
		c0.28,6,0,12.22,0,19.59c2.07-0.72,3.81-1.18,5.33-1.65l0.03-0.01l12.94-5.77c0,0-0.3,5.04-0.3,7.51v0.03
		c0,0.81,0.03,1.33,0.12,1.29C119.501,31.05,119.461,34.1,119.461,37.14z"/>
	<path fill="#F15C5D" d="M56.611,45.43v0.9l-0.01,0.01C56.601,46.03,56.611,45.73,56.611,45.43z"/>
	<path fill="#F15C5D" d="M86.121,164.66c-0.3-0.29-0.62-0.55-0.97-0.76c-12.23-7.51-24.28-15.41-37.08-21.79
		c-4.11-2.05-10.85-1.24-15.41,0.62c-8.11,3.32-15.27,8.91-23.23,12.69c-7.36,3.5-9.47,8.74-9.43,16.53
		c0.25,48.08,0.11,96.17,0.14,144.25c0,2.92,0.3,5.84,0.61,11.34c4.28-3.6,6.6-5.45,8.8-7.41c7.84-6.97,15.3-14.42,23.55-20.86
		c7.15-5.57,10.5-11.89,10.42-21.13c-0.34-40.07-0.16-80.14-0.13-120.21c0-3.17,0.31-6.33,0.58-11.61
		c15.58,9.03,29.5,17.11,43.43,25.18l3.39-4.08l-4.65-2.75L86.121,164.66z M14.541,296.72h-8.29v-8.29h8.29V296.72z M14.541,280.14
		h-8.29v-8.28h8.29V280.14z M14.541,263.57h-8.29v-8.29h8.29V263.57z M14.541,246.99h-8.29v-8.29h8.29V246.99z M14.541,230.41h-8.29
		v-8.28h8.29V230.41z M14.541,213.84h-8.29v-8.29h8.29V213.84z M14.541,197.26h-8.29v-8.29h8.29V197.26z M14.541,180.69h-8.29v-8.29
		h8.29V180.69z M29.451,288.43h-8.28v-8.29h8.28V288.43z M29.451,271.86h-8.28v-8.29h8.28V271.86z M29.451,255.28h-8.28v-8.29h8.28
		V255.28z M29.451,238.7h-8.28v-8.29h8.28V238.7z M29.451,222.13h-8.28v-8.29h8.28V222.13z M29.451,205.55h-8.28v-8.29h8.28V205.55z
		 M29.451,188.97h-8.28v-8.28h8.28V188.97z"/>
	<path fill="#F15C5D" d="M89.441,186.67c0.21,0.87,0.32,1.95,0.32,3.26c-0.04,42.28-0.03,84.55-0.13,126.82
		c-0.01,0.55-0.07,1.1-0.19,1.69v9.1l-41.24-34.96v-89.81l41.24-22.08V186.67z"/>
	<path fill="#F15C5D" d="M86.101,338.41l3.34,2.43H1.281c14.44-13.24,26.85-24.79,39.54-36.01c1.38-1.21,5.37-1.59,6.6-0.54
		C60.491,315.45,73.251,326.98,86.101,338.41z"/>
	<path fill="#F15C5D" d="M226.251,146.38l40.82,23.46V287.9l-41.78-36.16l0.13-14.41l0.1-10.73l0.34-37.67
		c-0.07-10.55-0.2-21.1-0.18-31.64C225.681,154.37,225.971,151.46,226.251,146.38z"/>
	<path fill="#F15C5D" d="M315.141,139.34c0.26,60.08,0.19,120.14,0.14,180.22c0,1.84-0.51,3.7-0.91,6.42
		c-2.19-0.96-4.08-1.36-5.35-2.45c-10.46-8.97-21.45-17.48-30.87-27.44c-3.81-4.03-5.77-11.32-5.82-17.16
		c-0.43-51.63-0.24-103.27-0.26-154.9c-0.02-3.53-0.32-7.05-0.58-12.97c-7.2,4.2-13.98,8.18-20.54,12.02l-1.79,1.05l-7.94,4.64
		l-7.82,4.57l-5.18,3.04l-1.97-2.69c2.85-2.35,5.46-5.17,8.46-7.23c0.66-0.46,1.34-0.88,2.05-1.24c0.1-0.05,0.2-0.1,0.3-0.16
		l8.55-6.82c1.21-1.59,2.11-3.36,2.7-5.35v-0.02l0.02-2.64l0.33-47.5l9.35-0.72v49.34l4.76-2.66l0.03,0.02
		c0.1-0.07,0.2-0.13,0.3-0.2l0.07-0.03l1.94-1.1l0.11-0.05l0.05-0.03c8.47-4.19,16.78-2.21,26.09,4.86V86.2h11.99v30.26l0.75,0.69
		l7.14,6.59l0.15,0.14c0.3,0.27,0.59,0.58,0.86,0.94l0.01,0.01l2.31,1.15l0.31,5.45c0.16,0.9,0.24,1.77,0.24,2.56
		c0,0.6,0.01,1.21,0.01,1.81l0.2,3.58L315.141,139.34z"/>
</g>
</svg>
