<?xml version="1.0" encoding="utf-8"?>
<!-- Generator: Adobe Illustrator 24.3.0, SVG Export Plug-In . SVG Version: 6.00 Build 0)  -->
<svg version="1.1" id="Layer_1" xmlns="http://www.w3.org/2000/svg" xmlns:xlink="http://www.w3.org/1999/xlink" x="0px" y="0px"
	 viewBox="0 0 360.981 133.297" enable-background="new 0 0 360.981 133.297" xml:space="preserve">
<g>
	<path fill="#EC2133" d="M202.149,86.997c-0.682,3.019-1.263,5.757-1.955,8.466c-0.101,0.395-0.702,0.866-1.13,0.934
		c-1.173,0.188-2.377,0.241-3.569,0.242c-22.333,0.011-44.667,0.068-67-0.019c-13.189-0.051-26.377-0.423-39.567-0.481
		c-7.007-0.031-14.015,0.293-21.023,0.475c-2.021,0.052-2.863-0.557-3.167-2.6C62.91,81.722,52.025,72.686,38.417,73.981
		c-8.463,0.805-16.727,7.809-18.82,15.997c-0.039,0.151-0.073,0.303-0.115,0.453c-1.71,6.177-2.866,7.062-9.265,6.937
		c-2.065-0.04-4.145-0.073-6.185-0.352c-1.793-0.245-2.972-1.51-3.465-3.218c-0.98-3.389-1.178-7.924,3.515-9.912
		c1.093-0.463,0.813-1.286,0.668-2.094c-0.55-3.063-1.246-6.107-1.633-9.189c-0.938-7.471,1.5-13.604,7.675-18.068
		c2.779-2.009,5.955-2.853,9.384-2.769c4.043,0.1,8.087,0.222,12.131,0.256c3.014,0.025,5.505-1.198,7.133-3.743
		c2.432-3.801,4.665-7.728,7.068-11.547c3.205-5.094,6.464-10.154,9.755-15.192c1.58-2.419,3.824-3.661,6.797-3.676
		c8.204-0.039,16.408-0.169,24.611-0.25c3.028-0.03,4.232,1.068,4.212,4.091c-0.081,12.514-0.23,25.028-0.334,37.542
		c-0.068,8.257-0.121,16.515-0.136,24.773c-0.004,2.382,0.694,3.065,3.096,3.066c19.528,0.004,39.056-0.017,58.584-0.033
		c2.649-0.002,5.297-0.024,7.946-0.033c12.983-0.043,25.966-0.086,38.949-0.123C200.645,86.895,201.301,86.956,202.149,86.997z
		 M64.689,39.695c0.002,0,0.005,0,0.007,0c0,4.254,0.036,8.509-0.023,12.763c-0.016,1.185,0.284,1.631,1.554,1.616
		c5.291-0.064,10.584-0.056,15.876,0c1.206,0.013,1.614-0.317,1.606-1.573c-0.052-8.405-0.046-16.81-0.009-25.215
		c0.005-1.17-0.27-1.656-1.555-1.641c-5.291,0.063-10.584,0.052-15.876,0.001c-1.209-0.012-1.627,0.352-1.606,1.597
		C64.731,31.393,64.689,35.544,64.689,39.695z M61.178,27.322c-0.106-0.04-0.211-0.08-0.317-0.12
		c-5.567,8.866-11.134,17.732-16.819,26.787c0.749,0.065,1.154,0.13,1.559,0.13c4.673,0.002,9.346-0.048,14.018,0.016
		c1.283,0.018,1.689-0.353,1.68-1.657c-0.053-7.995-0.025-15.991-0.03-23.987C61.269,28.102,61.21,27.712,61.178,27.322z"/>
</g>
<g>
	<path fill="#302E2F" d="M108.982,0c0,23.273,0,46.114,0,69.146c73.184,0,146.24,0,219.297,0c0.043,0.114,0.086,0.228,0.129,0.342
		c-1.374,1.141-2.74,2.292-4.124,3.42c-3.14,2.557-6.267,5.131-9.455,7.627c-0.604,0.473-1.456,0.842-2.211,0.875
		c-6.64,0.291-13.285,0.448-19.925,0.748c-2.646,0.119-4.828-0.707-6.878-2.335c-9.286-7.375-21.043-7.451-30.503-0.267
		c-5.123,3.891-11.583,3.866-16.644-0.064c-8.976-6.97-20.762-6.99-30.021,0.007c-2.369,1.79-4.915,2.668-7.922,2.668
		c-33.867,0.004-67.735,0.057-101.602,0.157c-1.665,0.005-2.293-0.422-2.291-2.111c0.004-2.54-0.285-5.081-0.288-7.622
		c-0.026-21.557-0.018-43.114-0.005-64.672c0.001-1.087,0.086-2.179,0.217-3.258c0.29-2.383,1.301-3.688,3.643-4.02
		C103.145,0.253,105.943,0.211,108.982,0z"/>
	<path fill="#302E2F" d="M169.33,17.498c0,15.485,0,30.878,0,46.401c-18.365,0-36.711,0-55.205,0
		c-0.035-0.412-0.107-0.859-0.107-1.306c-0.006-14.534,0.006-29.069-0.024-43.603c-0.002-1.168,0.261-1.625,1.552-1.622
		c17.441,0.041,34.882,0.025,52.324,0.029C168.326,17.397,168.782,17.458,169.33,17.498z"/>
	<path fill="#302E2F" d="M239.019,17.497c18.359,0,36.712,0,55.185,0c0,15.514,0,30.946,0,46.454c-18.426,0-36.741,0-55.185,0
		C239.019,48.49,239.019,33.05,239.019,17.497z"/>
	<path fill="#302E2F" d="M176.654,17.464c18.396,0,36.654,0,55.059,0c0,15.5,0,30.927,0,46.458c-18.329,0-36.63,0-55.059,0
		C176.654,48.486,176.654,33.049,176.654,17.464z"/>
	<path fill="#302E2F" d="M99.594,114.482c1.481,0.401,2.948,0.869,4.446,1.191c9.778,2.106,19.52,4.421,29.357,6.209
		c14.2,2.581,28.552,4.054,42.947,5.154c18.501,1.415,37.027,2.189,55.566,1.608c13.482-0.423,26.965-1.264,40.407-2.4
		c13.652-1.154,27.183-3.332,40.482-6.736c8.51-2.178,16.94-4.663,24.516-9.251c2.581-1.563,5.037-3.535,7.07-5.758
		c3.613-3.95,3.716-8.609,0.244-12.705c-2.049-2.417-4.733-4.3-7.155-6.395c-0.499-0.432-1.105-0.74-1.662-1.105
		c0.069-0.143,0.138-0.285,0.207-0.428c3.964,1.82,7.981,3.534,11.878,5.488c3.865,1.939,7.49,4.296,10.303,7.665
		c3.881,4.647,3.695,9.424-0.518,13.775c-3.43,3.541-7.737,5.731-12.184,7.654c-7.698,3.329-15.768,5.47-23.937,7.236
		c-13,2.81-26.147,4.737-39.409,5.636c-12.634,0.857-25.29,1.592-37.948,1.857c-11.673,0.245-23.376,0.113-35.039-0.437
		c-12.591-0.594-25.177-1.606-37.715-2.92c-10.465-1.096-20.894-2.667-31.271-4.432c-13.406-2.28-26.621-5.441-39.425-10.127
		c-0.422-0.155-0.829-0.353-1.243-0.531C99.539,114.649,99.566,114.565,99.594,114.482z"/>
	<path fill="#302E2F" d="M41.482,118.604c-11.967,0.006-21.396-9.286-21.398-21.088c-0.002-12.125,9.528-21.685,21.491-21.556
		c11.966,0.129,21.297,9.434,21.313,21.254C62.904,109.294,53.595,118.597,41.482,118.604z M41.48,86.376
		c-6.225-0.013-11.079,4.79-11.094,10.979c-0.015,6.105,4.915,11.011,11.102,11.048c6.047,0.036,11.07-4.979,11.092-11.073
		C52.603,91.157,47.772,86.389,41.48,86.376z"/>
	<path fill="#302E2F" d="M291.716,97.373c-0.078,13.052-10.88,21.671-22.016,21.303c-11.675-0.387-20.819-9.7-20.748-21.796
		c0.068-11.611,9.784-21.08,21.471-20.928C282.485,76.108,291.766,85.446,291.716,97.373z M270.24,109.506
		c6.548,0.03,12.259-5.526,12.297-11.962c0.04-6.816-5.443-12.28-12.375-12.334c-6.44-0.05-11.881,5.472-11.907,12.082
		C258.229,103.915,263.686,109.476,270.24,109.506z"/>
	<path fill="#302E2F" d="M223.651,118.606c-11.946-0.008-21.259-9.283-21.265-21.178c-0.006-12.01,9.385-21.44,21.395-21.483
		c11.838-0.042,21.366,9.493,21.351,21.366C245.116,109.377,235.798,118.614,223.651,118.606z M235.849,97.54
		c0.109-6.606-5.225-12.26-11.649-12.347c-6.902-0.094-12.467,5.173-12.597,11.921c-0.126,6.555,5.327,12.259,11.849,12.393
		C230.101,109.643,235.739,104.201,235.849,97.54z"/>
</g>
</svg>
