<?xml version="1.0" encoding="utf-8"?>
<!-- Generator: Adobe Illustrator 24.3.0, SVG Export Plug-In . SVG Version: 6.00 Build 0)  -->
<svg version="1.1" id="Layer_1" xmlns="http://www.w3.org/2000/svg" xmlns:xlink="http://www.w3.org/1999/xlink" x="0px" y="0px"
	 viewBox="0 0 150.554 216.226" enable-background="new 0 0 150.554 216.226" xml:space="preserve">
<g>
	<linearGradient id="SVGID_1_" gradientUnits="userSpaceOnUse" x1="41.432" y1="170.4402" x2="150.5181" y2="170.4402">
		<stop  offset="0" style="stop-color:#28A9E1"/>
		<stop  offset="1" style="stop-color:#24529F"/>
	</linearGradient>
	<path fill="url(#SVGID_1_)" d="M150.4,182.4c-1.758-0.985-3.246-1.75-4.665-2.627c-10.089-6.235-20.162-12.496-30.243-18.743
		c-2.24-1.388-4.448-1.151-6.644,0.151c-6.267,3.718-12.537,7.431-18.815,11.13c-7.628,4.493-15.202,9.082-22.919,13.417
		c-5.916,3.323-12.013,6.325-18.037,9.454c-2.008,1.043-4.035,2.051-6.067,3.048c-1.263,0.62-1.548,0.46-1.556-0.909
		c-0.025-4.07-0.024-8.14-0.019-12.21c0.002-1.967,1.039-3.38,2.638-4.32c8.196-4.818,16.413-9.599,24.637-14.368
		c9.866-5.722,19.744-11.422,29.62-17.126c3.493-2.017,7.018-3.983,10.488-6.038c2.136-1.265,4.3-1.266,6.337-0.057
		c8.321,4.938,16.592,9.96,24.874,14.963c2.643,1.597,5.251,3.25,7.895,4.844c1.793,1.081,2.608,2.626,2.591,4.719
		c-0.036,4.284,0.003,8.569,0.002,12.854C150.518,181.061,150.458,181.539,150.4,182.4z"/>
	<linearGradient id="SVGID_2_" gradientUnits="userSpaceOnUse" x1="41.4091" y1="120.281" x2="150.4976" y2="120.281">
		<stop  offset="0" style="stop-color:#28A9E1"/>
		<stop  offset="1" style="stop-color:#24529F"/>
	</linearGradient>
	<path fill="url(#SVGID_2_)" d="M41.688,148.547c-0.103-0.887-0.237-1.524-0.241-2.16c-0.023-3.781,0.027-7.563-0.037-11.344
		c-0.033-1.948,0.802-3.333,2.406-4.282c4.143-2.452,8.309-4.864,12.464-7.296c8.775-5.137,17.532-10.304,26.327-15.406
		c8.867-5.144,17.76-10.244,26.669-15.316c1.76-1.002,3.718-0.942,5.446,0.018c3.633,2.019,7.188,4.18,10.751,6.323
		c6.35,3.821,12.69,7.661,19.017,11.521c1.507,0.92,2.974,1.913,4.407,2.944c1.024,0.737,1.563,1.822,1.571,3.086
		c0.031,4.86,0.029,9.721,0.031,14.582c0,0.194-0.087,0.389-0.173,0.753c-0.423-0.16-0.813-0.243-1.134-0.438
		c-8.329-5.077-16.657-10.156-24.97-15.258c-2.807-1.723-5.584-3.495-8.354-5.276c-2.113-1.359-4.235-1.687-6.494-0.343
		c-4.317,2.567-8.643,5.119-12.983,7.648c-11.985,6.987-23.923,14.057-35.996,20.89c-5.185,2.934-10.655,5.364-15.996,8.022
		C43.595,147.614,42.788,148.006,41.688,148.547z"/>
	<linearGradient id="SVGID_3_" gradientUnits="userSpaceOnUse" x1="41.2283" y1="145.3074" x2="150.5542" y2="145.3074">
		<stop  offset="0" style="stop-color:#28A9E1"/>
		<stop  offset="1" style="stop-color:#24529F"/>
	</linearGradient>
	<path fill="url(#SVGID_3_)" d="M150.418,157.184c-0.668-0.304-1.163-0.47-1.597-0.735c-6.575-4.009-13.152-8.014-19.708-12.054
		c-4.134-2.548-8.289-5.069-12.331-7.757c-2.938-1.954-5.591-2.06-8.694-0.182c-10.11,6.118-20.31,12.089-30.535,18.015
		c-7.016,4.066-14.09,8.036-21.215,11.906c-4.411,2.396-8.97,4.517-13.453,6.78c-0.892,0.45-1.32,0.191-1.388-0.76
		c-0.044-0.616-0.052-1.234-0.068-1.852c-0.075-2.88-0.216-5.76-0.198-8.639c0.015-2.388,0.322-4.734,2.678-6.133
		c1.912-1.135,3.83-2.259,5.75-3.38c7.716-4.505,15.426-9.02,23.154-13.505c8.227-4.774,16.471-9.521,24.71-14.275
		c3.638-2.099,7.304-4.15,10.915-6.295c2.403-1.427,4.716-1.442,7.101,0c10.641,6.433,21.294,12.845,31.938,19.274
		c1.998,1.206,3.162,2.8,3.073,5.339c-0.148,4.238-0.032,8.486-0.035,12.73C150.514,156.092,150.461,156.524,150.418,157.184z"/>
	<linearGradient id="SVGID_4_" gradientUnits="userSpaceOnUse" x1="0.1368" y1="91.6419" x2="70.9009" y2="91.6419">
		<stop  offset="0" style="stop-color:#28A9E1"/>
		<stop  offset="1" style="stop-color:#24529F"/>
	</linearGradient>
	<path fill="url(#SVGID_4_)" d="M0.322,111.158c-0.095-0.354-0.172-0.509-0.172-0.664c-0.002-4.605-0.043-9.211,0.034-13.815
		c0.027-1.64,1.379-2.494,2.603-3.227c4.626-2.767,9.29-5.473,13.956-8.174c6.628-3.837,13.257-7.673,19.921-11.448
		c1.232-0.698,2.59-1.285,3.963-1.595c1.621-0.366,3.171,0.228,4.58,1.097c6.622,4.089,13.258,8.156,19.859,12.28
		c1.594,0.996,3.209,2.034,4.548,3.329c0.717,0.693,1.183,1.963,1.215,2.99c0.13,4.157,0.051,8.32,0.038,12.481
		c-0.001,0.233-0.101,0.466-0.206,0.918c-0.685-0.345-1.302-0.611-1.874-0.951c-3.149-1.873-6.361-3.655-9.406-5.685
		c-2.285-1.523-4.334-3.396-6.52-5.072c-3.553-2.725-7.462-4.63-12.057-4.297c-4.226,0.306-7.991,2.07-11.282,4.638
		c-5.845,4.561-12.298,8.098-18.774,11.618c-3.144,1.709-6.284,3.427-9.429,5.134C1.041,110.866,0.742,110.973,0.322,111.158z"/>
	<linearGradient id="SVGID_5_" gradientUnits="userSpaceOnUse" x1="41.5114" y1="19.5611" x2="112.165" y2="19.5611">
		<stop  offset="0" style="stop-color:#28A9E1"/>
		<stop  offset="1" style="stop-color:#24529F"/>
	</linearGradient>
	<path fill="url(#SVGID_5_)" d="M41.539,39.122c0-5.11-0.106-10.041,0.098-14.96c0.037-0.886,1.193-1.984,2.104-2.533
		c6.346-3.826,12.748-7.56,19.163-11.27c5.522-3.194,11.092-6.305,16.624-9.482c2.336-1.341,4.582-1.057,6.776,0.264
		c4.022,2.421,8.037,4.854,12.028,7.328c3.359,2.082,6.646,4.282,10.028,6.327c2.383,1.441,3.753,3.409,3.777,6.217
		c0.033,3.872,0.026,7.744,0.028,11.616c0,0.151-0.091,0.302-0.193,0.621c-0.405-0.21-0.761-0.363-1.086-0.568
		c-6.622-4.166-13.244-8.333-19.858-12.514c-1.286-0.813-2.512-1.723-3.807-2.52c-2.834-1.743-5.701-1.672-8.525,0.026
		c-4.939,2.971-9.814,6.051-14.803,8.937c-7.16,4.142-14.397,8.15-21.603,12.212C42.119,38.918,41.923,38.97,41.539,39.122z"/>
	<linearGradient id="SVGID_6_" gradientUnits="userSpaceOnUse" x1="41.436" y1="41.4496" x2="112.1488" y2="41.4496">
		<stop  offset="0" style="stop-color:#28A9E1"/>
		<stop  offset="1" style="stop-color:#24529F"/>
	</linearGradient>
	<path fill="url(#SVGID_6_)" d="M111.95,55.163c-0.546-0.261-0.962-0.408-1.323-0.639c-8.113-5.19-16.219-10.391-24.33-15.585
		c-2.063-1.321-4.177-1.394-6.292-0.142c-5.988,3.542-11.945,7.138-17.956,10.642c-6.54,3.813-13.126,7.546-19.696,11.308
		c-0.167,0.096-0.376,0.119-0.735,0.227c-0.066-0.502-0.169-0.923-0.17-1.344c-0.01-3.995,0.018-7.99-0.011-11.985
		c-0.013-1.786,0.537-3.129,2.189-4.082c5.845-3.371,11.625-6.856,17.458-10.249c5.977-3.478,11.98-6.913,17.987-10.339
		c2.408-1.373,4.851-1.443,7.261,0.044c7.461,4.603,14.919,9.211,22.381,13.812c2.1,1.295,3.421,3.052,3.425,5.62
		c0.005,3.913,0.014,7.825,0.011,11.737C112.148,54.425,112.056,54.661,111.95,55.163z"/>
	<linearGradient id="SVGID_7_" gradientUnits="userSpaceOnUse" x1="0.1101" y1="113.3929" x2="69.3363" y2="113.3929">
		<stop  offset="0" style="stop-color:#28A9E1"/>
		<stop  offset="1" style="stop-color:#24529F"/>
	</linearGradient>
	<path fill="url(#SVGID_7_)" d="M0.213,133.051c-0.032-0.478-0.081-0.872-0.081-1.266c-0.001-4.119,0.067-8.239-0.021-12.355
		c-0.036-1.704,0.662-2.839,2.025-3.661c3.417-2.062,6.833-4.127,10.278-6.143c5.116-2.994,10.255-5.948,15.386-8.915
		c3.527-2.039,7.057-4.074,10.589-6.106c2.076-1.194,4.017-1.18,6.127,0.175c4.848,3.113,9.816,6.039,14.719,9.066
		c3.186,1.968,6.341,3.986,9.517,5.971c0.872,0.545,0.702,0.976-0.084,1.413c-3.415,1.901-6.811,3.836-10.244,5.703
		c-1.915,1.041-3.934,0.549-5.788-1.02c-1.529-1.294-3.118-2.578-4.856-3.552c-3.397-1.903-7.073-2.006-10.605-0.52
		c-2.559,1.076-4.962,2.564-7.342,4.018c-4.386,2.68-8.636,5.588-13.07,8.184c-5.287,3.096-10.708,5.964-16.072,8.927
		C0.625,133.007,0.533,132.999,0.213,133.051z"/>
	<linearGradient id="SVGID_8_" gradientUnits="userSpaceOnUse" x1="42.4587" y1="60.4974" x2="112.2322" y2="60.4974">
		<stop  offset="0" style="stop-color:#28A9E1"/>
		<stop  offset="1" style="stop-color:#24529F"/>
	</linearGradient>
	<path fill="url(#SVGID_8_)" d="M42.459,66.078c1.053-0.643,1.943-1.206,2.852-1.737c7.887-4.608,15.766-9.23,23.673-13.803
		c3.455-1.998,6.943-3.946,10.47-5.815c2.266-1.201,4.621-1.135,6.843,0.189c4.243,2.529,8.474,5.08,12.676,7.675
		c3.503,2.163,6.952,4.415,10.439,6.605c1.881,1.181,2.913,2.687,2.814,5.07c-0.157,3.783-0.036,7.577-0.043,11.366
		c-0.001,0.394-0.069,0.787-0.137,1.499c-1.353-0.813-2.507-1.474-3.629-2.186c-5.283-3.35-10.562-6.705-15.83-10.077
		c-1.698-1.087-3.401-2.174-5.03-3.359c-2.73-1.987-5.425-2.181-8.379-0.402c-6.31,3.8-12.687,7.491-19.042,11.216
		c-2.692,1.578-5.432,1.559-8.091-0.013c-2.903-1.716-5.74-3.542-8.595-5.337C43.124,66.764,42.868,66.451,42.459,66.078z"/>
	<linearGradient id="SVGID_9_" gradientUnits="userSpaceOnUse" x1="0" y1="135.33" x2="51.1102" y2="135.33">
		<stop  offset="0" style="stop-color:#28A9E1"/>
		<stop  offset="1" style="stop-color:#24529F"/>
	</linearGradient>
	<path fill="url(#SVGID_9_)" d="M0.002,154.947c0-3.649-0.007-7.298,0.006-10.947c0.003-0.78,0.171-1.567,0.105-2.338
		c-0.183-2.108,0.945-3.454,2.583-4.416c8.974-5.269,17.975-10.492,26.96-15.743c2.63-1.537,5.273-3.056,7.843-4.688
		c2.715-1.724,5.228-1.854,7.818,0.297c1.384,1.15,3.009,2.009,4.521,3.005c0.367,0.242,0.716,0.51,1.272,0.91
		c-0.839,0.55-1.501,1.006-2.183,1.427c-3.293,2.032-6.59,4.058-9.891,6.078c-1.478,0.904-2.342,2.213-2.419,3.933
		c-0.056,1.236-0.72,1.975-1.681,2.54c-7.7,4.524-15.406,9.038-23.11,13.555c-3.443,2.018-6.886,4.037-10.332,6.051
		c-0.338,0.197-0.697,0.359-1.046,0.537C0.299,155.082,0.15,155.015,0.002,154.947z"/>
	<linearGradient id="SVGID_10_" gradientUnits="userSpaceOnUse" x1="60.8238" y1="78.2436" x2="112.1254" y2="78.2436">
		<stop  offset="0" style="stop-color:#28A9E1"/>
		<stop  offset="1" style="stop-color:#24529F"/>
	</linearGradient>
	<path fill="url(#SVGID_10_)" d="M60.824,77.436c0.748-0.512,1.318-0.957,1.937-1.315c5.733-3.321,11.479-6.62,17.212-9.94
		c2.076-1.202,4.105-0.8,5.974,0.337c7.771,4.727,15.5,9.524,23.239,14.303c0.524,0.324,1.023,0.693,1.511,1.07
		c1.836,1.417,1.938,3.031,0.099,4.49c-1.671,1.325-3.43,2.579-5.289,3.616c-3.296,1.84-7.317,1.158-10.48-1.42
		c-1.328-1.082-2.841-1.935-4.249-2.923c-1.007-0.707-1.967-1.48-2.968-2.196c-3.196-2.286-6.528-2.294-9.657-0.082
		c-2.832,2.001-5.458,1.867-8.22,0.093c-2.663-1.71-5.333-3.408-7.992-5.123C61.609,78.132,61.324,77.847,60.824,77.436z"/>
	<linearGradient id="SVGID_11_" gradientUnits="userSpaceOnUse" x1="0.1249" y1="178.242" x2="36.7827" y2="178.242">
		<stop  offset="0" style="stop-color:#28A9E1"/>
		<stop  offset="1" style="stop-color:#24529F"/>
	</linearGradient>
	<path fill="url(#SVGID_11_)" d="M0.233,196.549c-0.05-0.656-0.101-1.017-0.101-1.378c-0.004-4.078,0.022-8.155-0.007-12.233
		c-0.014-1.951,0.907-3.183,2.573-4.131c5.293-3.011,10.535-6.113,15.799-9.176c5.194-3.023,10.391-6.041,15.588-9.06
		c0.178-0.103,0.361-0.2,0.55-0.279c1.702-0.708,2.146-0.425,2.146,1.387c0,3.913-0.039,7.826,0.002,11.739
		c0.015,1.399-0.575,2.392-1.712,3.065c-6.837,4.043-13.684,8.071-20.537,12.089c-3.691,2.164-7.392,4.311-11.108,6.433
		C2.474,195.547,1.451,195.965,0.233,196.549z"/>
	<linearGradient id="SVGID_12_" gradientUnits="userSpaceOnUse" x1="0.0863" y1="197.935" x2="36.778" y2="197.935">
		<stop  offset="0" style="stop-color:#28A9E1"/>
		<stop  offset="1" style="stop-color:#24529F"/>
	</linearGradient>
	<path fill="url(#SVGID_12_)" d="M0.208,216.226c-0.034-0.592-0.076-0.994-0.076-1.396c-0.003-3.997,0.104-7.999-0.041-11.991
		c-0.073-2.013,0.913-3.197,2.407-4.097c4.124-2.487,8.286-4.912,12.447-7.337c5.943-3.463,11.891-6.918,17.857-10.341
		c0.954-0.547,2.002-0.944,3.033-1.341c0.593-0.228,0.945,0.052,0.943,0.72c-0.015,4.492,0.053,8.986-0.113,13.472
		c-0.03,0.799-0.861,1.829-1.608,2.296c-3.736,2.335-7.567,4.52-11.366,6.754c-4.189,2.462-8.365,4.947-12.575,7.371
		c-3.317,1.91-6.677,3.747-10.023,5.607C0.889,216.054,0.644,216.089,0.208,216.226z"/>
	<linearGradient id="SVGID_13_" gradientUnits="userSpaceOnUse" x1="0.1148" y1="158.4869" x2="36.7815" y2="158.4869">
		<stop  offset="0" style="stop-color:#28A9E1"/>
		<stop  offset="1" style="stop-color:#24529F"/>
	</linearGradient>
	<path fill="url(#SVGID_13_)" d="M0.247,176.815c-0.055-0.671-0.115-1.07-0.115-1.468c-0.004-4.079,0.045-8.159-0.016-12.237
		c-0.027-1.8,0.841-2.988,2.264-3.821c7.501-4.387,15.024-8.737,22.535-13.106c2.953-1.717,5.896-3.45,8.844-5.176
		c0.142-0.083,0.275-0.183,0.42-0.26c2.009-1.078,2.604-0.729,2.602,1.531c-0.003,3.75-0.034,7.499-0.004,11.249
		c0.012,1.559-0.597,2.587-1.98,3.39c-6.907,4.013-13.752,8.133-20.653,12.158c-4.195,2.447-8.451,4.79-12.682,7.175
		C1.154,176.422,0.82,176.55,0.247,176.815z"/>
	<linearGradient id="SVGID_14_" gradientUnits="userSpaceOnUse" x1="75.5359" y1="97.02" x2="96.0212" y2="97.02">
		<stop  offset="0" style="stop-color:#28A9E1"/>
		<stop  offset="1" style="stop-color:#24529F"/>
	</linearGradient>
	<path fill="url(#SVGID_14_)" d="M75.657,106.827c-0.054-0.696-0.106-1.056-0.106-1.417c-0.005-3.91-0.034-7.821,0.008-11.73
		c0.049-4.534,5.578-7.98,9.574-5.791c3.6,1.973,6.986,4.337,10.461,6.537c0.125,0.079,0.196,0.244,0.427,0.544
		C89.272,98.9,82.589,102.791,75.657,106.827z"/>
	<linearGradient id="SVGID_15_" gradientUnits="userSpaceOnUse" x1="97.0502" y1="191.662" x2="108.258" y2="191.662">
		<stop  offset="0" style="stop-color:#28A9E1"/>
		<stop  offset="1" style="stop-color:#24529F"/>
	</linearGradient>
	<path fill="url(#SVGID_15_)" d="M102.681,196.049c-1.481,0-2.962-0.014-4.443,0.006c-0.824,0.011-1.195-0.332-1.185-1.179
		c0.025-2.098,0.029-4.196-0.002-6.294c-0.014-0.91,0.382-1.222,1.262-1.228c3.001-0.018,6.002-0.112,9.003-0.097
		c0.313,0.002,0.886,0.523,0.895,0.817c0.074,2.342,0.038,4.688,0.043,7.033c0.002,0.779-0.471,0.964-1.13,0.961
		c-1.481-0.005-2.962-0.002-4.443-0.002C102.681,196.061,102.681,196.055,102.681,196.049z"/>
	<linearGradient id="SVGID_16_" gradientUnits="userSpaceOnUse" x1="97.0735" y1="180.699" x2="108.2448" y2="180.699">
		<stop  offset="0" style="stop-color:#28A9E1"/>
		<stop  offset="1" style="stop-color:#24529F"/>
	</linearGradient>
	<path fill="url(#SVGID_16_)" d="M102.731,176.435c1.482,0,2.966,0.039,4.446-0.016c0.758-0.028,1.06,0.252,1.059,0.98
		c-0.003,2.265,0.034,4.531-0.026,6.794c-0.007,0.272-0.512,0.756-0.791,0.76c-3.129,0.044-6.26,0.042-9.388-0.043
		c-0.324-0.009-0.891-0.621-0.905-0.97c-0.085-2.138-0.039-4.281-0.046-6.423c-0.003-0.739,0.379-1.024,1.08-1.02
		c1.524,0.01,3.048,0.003,4.571,0.003C102.731,176.479,102.731,176.457,102.731,176.435z"/>
	<linearGradient id="SVGID_17_" gradientUnits="userSpaceOnUse" x1="110.6881" y1="180.7278" x2="121.8813" y2="180.7278">
		<stop  offset="0" style="stop-color:#28A9E1"/>
		<stop  offset="1" style="stop-color:#24529F"/>
	</linearGradient>
	<path fill="url(#SVGID_17_)" d="M116.337,184.945c-1.483,0-2.967-0.012-4.45,0.005c-0.833,0.009-1.202-0.387-1.199-1.202
		c0.007-2.019,0.007-4.038,0.001-6.057c-0.003-0.825,0.392-1.189,1.215-1.188c2.926,0.004,5.851-0.001,8.777-0.03
		c0.826-0.008,1.203,0.305,1.193,1.162c-0.025,2.142-0.024,4.285,0.008,6.428c0.011,0.723-0.311,0.929-0.97,0.919
		c-1.524-0.023-3.049-0.007-4.574-0.007C116.337,184.965,116.337,184.955,116.337,184.945z"/>
	<linearGradient id="SVGID_18_" gradientUnits="userSpaceOnUse" x1="110.8962" y1="191.5763" x2="121.8657" y2="191.5763">
		<stop  offset="0" style="stop-color:#28A9E1"/>
		<stop  offset="1" style="stop-color:#24529F"/>
	</linearGradient>
	<path fill="url(#SVGID_18_)" d="M116.305,195.844c-1.357,0-2.714-0.03-4.07,0.01c-0.923,0.027-1.36-0.288-1.339-1.274
		c0.043-1.972,0.041-3.947,0.001-5.92c-0.019-0.958,0.365-1.306,1.312-1.306c2.918-0.001,5.836-0.09,8.753-0.064
		c0.302,0.003,0.849,0.534,0.859,0.834c0.072,2.259,0.033,4.521,0.041,6.782c0.003,0.776-0.448,0.967-1.116,0.961
		c-1.48-0.012-2.96-0.004-4.44-0.004C116.305,195.857,116.305,195.85,116.305,195.844z"/>
</g>
</svg>
