<?xml version="1.0" encoding="utf-8"?>
<!-- Generator: Adobe Illustrator 24.3.0, SVG Export Plug-In . SVG Version: 6.00 Build 0)  -->
<svg version="1.1" id="Layer_1" xmlns="http://www.w3.org/2000/svg" xmlns:xlink="http://www.w3.org/1999/xlink" x="0px" y="0px"
	 viewBox="0 0 411.57 217.616" enable-background="new 0 0 411.57 217.616" xml:space="preserve">
<g>
	<path fill="#0A1E3B" d="M353.58,87.966c-18.25-17.03-36.51-34.06-54.73-51.09c-12.84-12-25.67-24-38.48-36.03
		c-1.15-1.08-1.88-1.12-3.07,0c-5.63,5.39-11.33,10.67-17.04,15.98c-16.64,15.53-33.33,31.06-49.98,46.66
		c-1.36,1.26-2.02,1.12-3.28-0.07c-9.38-9.09-18.85-18.12-28.3-27.14c-12.34-11.79-24.69-23.57-37-35.36
		c-1.05-1.01-1.78-1.36-3.04-0.14c-9.1,8.78-18.26,17.49-27.39,26.2C76.62,40.966,62,54.956,47.38,68.946
		c-7.1,6.75-14.13,13.53-21.23,20.25c-0.3,0.29-0.56,0.54-0.79,0.75l-0.03,0.02c-0.41,0.38-0.73,0.62-1.01,0.73l-2.09,1.51
		l20.82,21.04l1.72-1.7l0.04-0.05c0.11-0.14,0.25-0.27,0.4-0.41c0.18-0.17,0.37-0.35,0.55-0.52c7.01-6.65,13.93-13.36,20.92-20.01
		c10.92-10.49,21.86-20.91,32.81-31.37c6.4-6.12,12.8-12.21,19.17-18.36c1.12-1.05,1.82-0.98,2.9,0.07
		c15.6,14.93,31.27,29.83,46.87,44.77c15.63,15,31.23,30.07,46.79,45.11c7.14,6.89,14.2,13.82,21.3,20.71
		c0.42,0.42,0.81,0.91,1.47,1.64l31.56-12.49c-1.34,0.43-2.13-0.36-2.98-1.15c-4.24-4.06-8.43-8.11-12.67-12.17
		c-12.8-12.21-25.6-24.41-38.36-36.62c-3.29-3.15-6.54-6.33-9.87-9.44c-1.08-0.98-1.33-1.58-0.07-2.76
		c13.26-12.28,26.41-24.63,39.6-36.97c4.16-3.85,8.32-7.7,12.41-11.61c0.91-0.91,1.51-0.88,2.45,0
		c8.18,7.72,16.44,15.42,24.66,23.11c11.71,10.92,23.47,21.79,35.11,32.74c8.29,7.83,16.44,15.81,24.66,23.68l21.89-9.45
		C362.19,95.906,357.85,91.956,353.58,87.966z"/>
</g>
<g>
	<path fill="#8DC441" d="M411.57,84.036c-3.99,1.88-7.97,3.77-11.96,5.59c-10.42,4.83-20.81,9.58-31.23,14.38
		c-17.98,8.29-35.96,16.54-53.93,24.83c-8.19,3.78-16.34,7.66-24.56,11.44c-17.73,8.14-35.53,16.26-53.3,24.44
		c-14.41,6.61-28.78,13.33-43.19,19.97c-14.87,6.86-29.77,13.68-44.63,20.53c-8.6,3.96-17.17,7.87-25.74,11.9
		c-1.79,0.83-2.94,0.66-4.44-0.77c-8.57-8.05-17.25-15.99-25.88-23.96c-8.57-7.94-17.14-15.92-25.75-23.85
		c-8.32-7.66-16.68-15.32-25-22.98c-6.72-6.23-13.36-12.49-20.08-18.71c-6.92-6.44-13.85-12.88-20.88-19.21
		c-1.33-1.22-1.29-2.09-0.14-3.21c5.28-5.28,10.56-10.57,15.81-15.87c0.49-0.49,0.98-0.99,1.47-1.48L36,105.126l39.74,40.15
		l16.55,17.52l30.84,32.74c1.12,1.18,2.17,1.36,3.64,0.77c6.93-2.8,13.89-5.53,20.81-8.29c13.08-5.22,26.13-10.39,39.21-15.57
		c6.89-2.73,13.81-5.38,20.7-8.11c6.58-2.63,13.15-5.28,19.73-7.94c3.46-1.37,6.92-2.73,10.77-4.27l31.56-12.49l0.27-0.1
		c9.55-3.81,19.09-7.55,28.64-11.33c11.65-4.58,23.26-9.23,34.87-13.85c3.95-1.54,7.87-3.11,12.1-4.76l24.83-9.82l0.66-0.26
		c10.98-4.4,21.98-8.73,32.96-13.11c2.48-0.98,5-1.88,7.48-2.79C411.43,83.756,411.5,83.896,411.57,84.036z"/>
	<path fill="#8DC441" d="M146.882,146.24c-3.3,0-6.6-0.045-9.898,0.02c-1.569,0.031-2.264-0.523-2.252-2.158
		c0.046-6.412,0.039-12.825,0.005-19.237c-0.009-1.613,0.574-2.073,2.246-2.045c6.28,0.105,12.566,0.099,18.844-0.058
		c3.038-0.076,3.295-0.023,3.292,3.015c-0.005,6.039-0.049,12.078,0.036,18.116c0.025,1.795-0.599,2.432-2.375,2.382
		c-3.297-0.094-6.598-0.027-9.898-0.027C146.882,146.245,146.882,146.243,146.882,146.24z"/>
	<path fill="#8DC441" d="M147.012,109.617c-3.361,0-6.723-0.047-10.083,0.02c-1.615,0.032-2.211-0.623-2.2-2.213
		c0.046-6.348,0.044-12.698,0.004-19.046c-0.011-1.696,0.605-2.195,2.352-2.169c6.591,0.098,13.186,0.041,19.777-0.062
		c1.593-0.025,2.281,0.418,2.271,2.077c-0.041,6.597-0.037,13.196,0.021,19.793c0.011,1.296-0.572,1.614-1.686,1.608
		C153.983,109.606,150.498,109.618,147.012,109.617z"/>
	<path fill="#8DC441" d="M108.548,146.248c-3.299,0-6.599-0.045-9.897,0.02c-1.524,0.03-2.102-0.551-2.09-2.082
		c0.051-6.411,0.055-12.823,0.007-19.234c-0.011-1.532,0.652-2.184,2.095-2.179c6.903,0.024,13.807,0.026,20.709,0.15
		c0.509,0.009,1.431,0.918,1.438,1.418c0.097,6.783,0.071,13.568,0.06,20.353c-0.002,1.376-0.952,1.557-2.051,1.553
		c-3.424-0.013-6.847-0.005-10.271-0.005C108.548,146.243,108.548,146.246,108.548,146.248z"/>
	<path fill="#8DC441" d="M108.578,109.614c-3.424-0.001-6.848-0.019-10.272,0.009c-1.198,0.01-1.787-0.299-1.77-1.7
		c0.078-6.412,0.094-12.825,0.02-19.236c-0.021-1.817,0.658-2.357,2.406-2.355c6.596,0.008,13.192-0.1,19.787-0.176
		c1.429-0.017,2.178,0.507,2.167,2.082c-0.046,6.412-0.047,12.825-0.002,19.237c0.011,1.631-0.676,2.192-2.251,2.161
		C115.302,109.568,111.94,109.615,108.578,109.614z"/>
	<path fill="#8DC441" d="M268.276,77.601c-1.288,0-2.576-0.018-3.864,0.008c-0.612,0.012-0.884-0.204-0.879-0.842
		c0.018-2.503,0.015-5.006,0.002-7.509c-0.003-0.63,0.224-0.809,0.877-0.798c2.451,0.041,4.905,0.039,7.355-0.023
		c1.186-0.03,1.286-0.009,1.285,1.177c-0.002,2.357-0.019,4.714,0.014,7.071c0.01,0.701-0.234,0.949-0.927,0.93
		c-1.287-0.037-2.576-0.01-3.863-0.01C268.276,77.604,268.276,77.603,268.276,77.601z"/>
	<path fill="#8DC441" d="M268.327,63.307c-1.312,0-2.624-0.018-3.936,0.008c-0.63,0.013-0.863-0.243-0.859-0.864
		c0.018-2.478,0.017-4.956,0.002-7.434c-0.004-0.662,0.236-0.857,0.918-0.847c2.573,0.038,5.147,0.016,7.719-0.024
		c0.622-0.01,0.89,0.163,0.886,0.811c-0.016,2.575-0.014,5.151,0.008,7.726c0.004,0.506-0.223,0.63-0.658,0.628
		C271.048,63.303,269.687,63.307,268.327,63.307z"/>
	<path fill="#8DC441" d="M253.313,77.605c-1.288,0-2.576-0.018-3.863,0.008c-0.595,0.012-0.82-0.215-0.816-0.813
		c0.02-2.502,0.021-5.005,0.003-7.507c-0.004-0.598,0.255-0.853,0.818-0.851c2.694,0.009,5.389,0.01,8.083,0.059
		c0.199,0.004,0.558,0.358,0.561,0.554c0.038,2.648,0.028,5.296,0.023,7.944c-0.001,0.537-0.371,0.608-0.801,0.606
		c-1.336-0.005-2.673-0.002-4.009-0.002C253.313,77.603,253.313,77.604,253.313,77.605z"/>
	<path fill="#8DC441" d="M253.325,63.306c-1.337,0-2.673-0.008-4.009,0.004c-0.467,0.004-0.698-0.117-0.691-0.663
		c0.03-2.503,0.037-5.006,0.008-7.508c-0.008-0.709,0.257-0.92,0.939-0.919c2.574,0.003,5.149-0.039,7.723-0.069
		c0.558-0.006,0.85,0.198,0.846,0.813c-0.018,2.503-0.018,5.006-0.001,7.509c0.004,0.636-0.264,0.856-0.879,0.843
		C255.95,63.288,254.637,63.306,253.325,63.306z"/>
</g>
</svg>
