<?xml version="1.0" encoding="utf-8"?>
<!-- Generator: Adobe Illustrator 24.3.0, SVG Export Plug-In . SVG Version: 6.00 Build 0)  -->
<svg version="1.1" id="Layer_1" xmlns="http://www.w3.org/2000/svg" xmlns:xlink="http://www.w3.org/1999/xlink" x="0px" y="0px"
	 viewBox="0 0 250.205 354.594" enable-background="new 0 0 250.205 354.594" xml:space="preserve">
<g>
	<path d="M15.146,253.57c5.962,26.336,17.145,45.864,35.699,60.438C26.658,307.657,6.741,275.771,0,234.011
		c26.732,28.316,59.862,30.941,92.9,31.165c32.897,0.223,65.932-1.92,94.467-27.864c-5.407,5.567-10.187,12.58-16.338,16.43
		c-18.405,11.517-38.637,15.456-59.109,16.629C79.275,272.24,46.945,270.328,15.146,253.57z"/>
	<path d="M44.164,286.227c10.179,7.491,22.109,9.847,34.224,11.356c26.832,3.341,53.42,0.912,79.858-3.964
		c19.659-3.625,38.817-8.985,57.092-17.199c8.679-3.901,17.046-8.388,24.312-14.65c4.502-3.88,8.37-8.24,9.836-14.263
		c0.24,0.036,0.48,0.071,0.72,0.107c-0.358,5.018-0.31,10.104-1.14,15.043c-6.575,39.117-35.195,73.284-72.415,86.497
		c-22.154,7.865-44.289,6.972-66.126-1.184c-25.097-9.373-45.307-25.084-59.805-47.767c-2.755-4.311-4.85-9.045-7.25-13.583
		C43.701,286.488,43.932,286.358,44.164,286.227z"/>
</g>
<g>
	<path fill="#B7B7B7" d="M190.472,215.472c15.791,0.334,31.354,1.532,45.815,8.335c2.795,1.315,5.476,3.151,7.747,5.249
		c5.242,4.843,6.183,10.943,2.425,17.038c-2.026,3.287-4.632,6.384-7.532,8.937c-9.683,8.524-21.219,13.92-33.113,18.547
		c-25.419,9.888-51.858,15.386-78.954,17.864c-17.009,1.556-34.034,1.798-51.013-0.454c-9.841-1.306-19.506-3.328-28.29-8.275
		c-1.363-0.768-2.642-1.691-3.921-2.599c-0.56-0.397-1.02-0.935-1.652-1.528c4.533,1.345,8.81,2.855,13.2,3.874
		c14.962,3.471,30.175,3.911,45.431,3.166c25.286-1.235,50.058-5.44,74.15-13.35c13.7-4.498,27.015-9.867,38.654-18.584
		c3.229-2.418,6.247-5.323,8.719-8.505c5.938-7.641,4.44-15.302-3.698-20.698c-5.99-3.972-12.763-5.953-19.693-7.459
		C196.007,216.434,193.232,215.987,190.472,215.472z"/>
	<path fill="#B7B7B7" d="M53.645,3.002c1.297,0.634,3.102,1.402,4.791,2.374c1.653,0.951,3.188,2.109,4.775,3.176
		c0.209-0.223,0.419-0.445,0.628-0.668c-1.415-1.343-2.829-2.686-4.211-3.999c3.873-1.845,8.83-0.723,11.066,3.593
		c2.36,4.556,4.364,9.533,5.289,14.553c3.095,16.797,5.718,33.683,8.359,50.561c1.365,8.727,2.26,17.527,3.591,26.259
		c1.766,11.581,0.955,23.059-1.089,34.487c-0.935,5.229-2.435,10.358-3.351,15.59c-0.511,2.919-0.349,5.956-0.49,8.94
		c0.271,0.056,0.542,0.111,0.813,0.167c0.434-1.051,0.868-2.103,1.402-3.394c16.393,2.326,28.389,11.335,38.146,24.36
		c-4.567,0.566-8.535,1.057-13.149,1.628c-0.661-1.008-1.665-2.61-2.738-4.164c-3.418-4.949-7.142-5.787-12.137-2.367
		c-1.809,1.239-3.268,3.094-4.623,4.869c-2.465,3.23-5.026,3.618-7.867,0.64c-1.708-1.79-3.054-3.93-4.524-5.941
		c-3.837-5.25-9.399-6.074-14.255-1.697c-2.305,2.077-3.993,4.839-5.912,7.23c-3.892-7.83,1.88-17.81,13.816-23.246
		c0,1.351,0,2.593,0,4.985c1.075-1.401,1.865-2.002,2.065-2.759c1.933-7.316,4.068-14.598,5.56-22.007
		c2.417-12.006,2.23-24.173,0.551-36.24c-2.213-15.91-4.143-31.917-7.561-47.584c-2.758-12.641-7.252-24.943-11.584-37.18
		C59.446,10.762,56.115,6.983,53.645,3.002z M84.083,92.256c-0.47,0.019-0.94,0.039-1.41,0.058
		c0.503,5.572,1.006,11.144,1.51,16.716c0.378-0.034,0.755-0.068,1.133-0.102C84.905,103.37,84.494,97.813,84.083,92.256z
		 M76.261,160.713c1.435,1.379,2.171,2.649,2.926,2.661c0.83,0.013,2.379-1.15,2.364-1.77c-0.027-1.1-0.999-2.177-1.575-3.264
		C79.001,158.963,78.025,159.586,76.261,160.713z"/>
	<path fill="#B7B7B7" d="M56.294,184.096c11.863,11.836,24.755,19.645,40.26,22.978c5.736,1.233,8.261,5.386,8.758,12.977
		c-12.459,5.322-24.234,3.419-34.82-4.412C60.383,208.16,57.074,197.124,56.294,184.096z"/>
	<path fill="#B7B7B7" d="M114.408,214.888c-0.327-7.71,6.802-8.694,10.999-12.323c0.293,0.256,0.586,0.511,0.878,0.767
		c-3.581,4.151-7.163,8.302-10.744,12.453C115.164,215.486,114.786,215.187,114.408,214.888z"/>
</g>
<g>
	<path fill="#FFCE07" d="M107.775,258.914c0-2.418,0.015-4.837-0.003-7.255c-0.078-10.98,0.24-21.983-0.374-32.933
		c-0.502-8.956-4.247-12.109-12.838-14.729c-7.097-2.164-14.183-4.751-20.739-8.173c-4.818-2.516-8.793-6.661-13.102-10.132
		c-1.513-1.219-1.699-2.688-0.81-4.52c1.909-3.931,3.816-7.827,8.475-9.113c3.076-0.849,5.888-0.299,7.959,2.343
		c1.605,2.047,3.001,4.263,4.657,6.266c3.545,4.288,7.878,4.272,11.489,0.047c1.25-1.463,2.31-3.113,3.685-4.442
		c3.362-3.251,7.247-2.584,9.488,1.506c0.434,0.792,0.794,1.624,1.202,2.43c1.792,3.54,3.442,4.152,7.133,2.654
		c7.296-2.961,14.678,1.655,14.386,9.367c-0.211,5.566-3.678,9.815-8.544,11.787c-5.563,2.254-7.414,6.037-7.615,11.471
		c-0.351,9.511-0.703,19.024-1.295,28.522c-0.312,5.013-1.131,9.995-1.722,14.991C108.73,258.971,108.252,258.942,107.775,258.914z"
		/>
	<path fill="#FFCE07" d="M108.999,279.425c-1.026-1.7-1.86-2.557-2-3.516c-0.08-0.547,1.242-1.885,1.467-1.788
		c0.948,0.41,2.12,1.085,2.421,1.94C111.096,276.655,110.021,277.702,108.999,279.425z"/>
</g>
</svg>
