<?xml version="1.0" encoding="utf-8"?>
<!-- Generator: Adobe Illustrator 24.3.0, SVG Export Plug-In . SVG Version: 6.00 Build 0)  -->
<svg version="1.1" id="Layer_8" xmlns="http://www.w3.org/2000/svg" xmlns:xlink="http://www.w3.org/1999/xlink" x="0px" y="0px"
	 viewBox="0 0 194.856 195.608" enable-background="new 0 0 194.856 195.608" xml:space="preserve">
<g>
	<polygon fill-rule="evenodd" clip-rule="evenodd" fill="#00A384" points="55.967,172.34 54.278,195.608 165.028,193.35 
		156.159,107.102 183.727,120.483 194.856,78.22 148.591,64.147 185.581,82.486 179.342,111.236 146.778,93.511 155.221,184.488 
		65.049,185.937 65.699,172.34 	"/>
</g>
<g>
	<path fill="#00BA96" d="M89.709,116.631c-4.478,3.75-6.293,8.546-7.022,11.646c12.467,0.464,21.901-2.04,28.075-7.473
		c3.829-3.365,5.565-7.221,6.346-9.817C104.998,109.649,95.79,111.543,89.709,116.631z"/>
	<path fill="#00BA96" d="M77.719,139.022c0.331,1.881,1.232,3.432,2.729,4.717c4.372,3.763,12.507,4.054,16.296,3.975
		C90.954,137.922,81.071,138.505,77.719,139.022z"/>
	<path fill="#00BA96" d="M142.003,172.343L128.621,47.696h-20.735V30.38c0-8.387-3.405-15.978-8.903-21.477
		C93.485,3.405,85.893,0,77.507,0c-8.387,0-15.992,3.405-21.49,8.903c-5.498,5.498-8.89,13.09-8.89,21.477v17.317h-5.578V30.38
		c0-2.915,0.543-5.697,1.524-8.254c1.51-6.293,4.73-12.096,9.407-16.773c1.789-1.789,3.75-3.379,5.843-4.73
		c-5.909,1.232-11.195,4.16-15.303,8.281c-5.498,5.498-8.903,13.09-8.903,21.477v17.317H13.381L0,172.343h56.216l5.366-64.297
		l-24.259,16.601L19.701,85.641l14.415-8.85l7.433-4.571l5.578-3.418l7.433-4.571l8.493-5.22l2.027-0.583l22.364-0.252l4.107-0.053
		l1.034,2.438c0.172,0.411,0.344,0.795,0.53,1.179c0.172,0.358,0.344,0.716,0.53,1.047c0.013,0.04,0.04,0.08,0.066,0.106
		c0.172,0.344,0.358,0.662,0.556,0.98c0.185,0.318,0.371,0.623,0.57,0.914c0.013,0.026,0.026,0.04,0.04,0.066
		c1.63,2.438,3.537,4.24,5.578,5.459c0.464,0.291,0.941,0.53,1.418,0.755c1.868,0.861,3.869,1.272,5.883,1.272h0.133
		c7.075-0.066,12.905-4.995,15.78-11.248c-0.649,8.572-7.459,15.978-15.78,17.329c-0.225,0.04-0.451,0.066-0.676,0.093
		c-0.225,0.027-0.451,0.053-0.676,0.066c-0.225,0.014-0.45,0.026-0.676,0.04c-0.994,0.039-2.014,0-3.034-0.146
		c-0.013,0-0.027-0.013-0.04,0c-0.768-0.119-1.55-0.278-2.332-0.504c-2.027-0.583-4.054-1.563-6.055-2.994h0.026
		c-0.305-0.225-0.609-0.451-0.914-0.689c-0.305-0.225-0.596-0.477-0.901-0.755c0,0-0.013-0.013-0.026-0.013
		c-0.292-0.252-0.57-0.517-0.861-0.808c-0.291-0.278-0.596-0.583-0.888-0.888c-0.292-0.305-0.583-0.623-0.861-0.954
		c-0.305-0.331-0.583-0.676-0.861-1.034c-0.278-0.358-0.57-0.729-0.848-1.1c-0.238-0.331-0.477-0.676-0.729-1.034
		c-0.026-0.039-0.053-0.092-0.093-0.132v-0.013c-0.331-0.477-0.649-0.967-0.967-1.484l-20.218,0.225l-11.699,7.194l-7.433,4.571
		l-5.021,3.074l-7.989,4.902l-4.372,2.69l10.4,26.856L70.816,92.16l-4.929,80.183H142.003z M100.454,47.696h-5.578V30.38
		c0-2.319-0.252-4.571-0.755-6.744c-0.888-2.2-2.213-4.213-3.935-5.936c-3.047-3.048-7.035-4.876-11.301-5.194
		c0.636,0.517,1.259,1.06,1.842,1.643c4.147,4.16,6.717,9.897,6.717,16.23v17.317H54.559V30.38c0-6.333,2.57-12.07,6.717-16.23
		c4.147-4.147,9.884-6.717,16.23-6.717c6.333,0,12.07,2.57,16.23,6.717c4.147,4.16,6.717,9.897,6.717,16.23V47.696z M99.023,150.257
		c-0.172,0.013-1.471,0.133-3.378,0.133c-4.465,0-12.269-0.636-16.932-4.637c-2.319-2.001-3.59-4.597-3.776-7.711l-0.053-1.086
		l1.047-0.278c0.172-0.04,16.614-4.054,24.153,11.686l0.821,1.709L99.023,150.257z M124.355,108.337
		c-0.026,0.398-0.596,9.857-9.221,17.436c-6.929,6.108-16.879,9.182-29.638,9.182c-2.199,0-4.491-0.093-6.876-0.279l-3.1-0.238
		l0.053-3.114c0.013-0.477,0.305-11.685,9.791-19.688c8.161-6.89,20.337-9.168,36.183-6.744l2.955,0.451L124.355,108.337z
		 M76.261,109.158c1.113-1.961,2.438-3.829,4.001-5.458c0.742-0.874,1.616-1.59,2.438-2.385c0.901-0.676,1.736-1.458,2.703-2.054
		c3.736-2.57,7.963-4.319,12.295-5.458c1.086-0.265,2.186-0.464,3.272-0.702c1.1-0.212,2.199-0.345,3.312-0.517
		c2.054-0.252,4.081-0.795,6.055-1.51c3.948-1.391,7.618-3.604,10.427-6.664c2.809-3.074,4.677-6.995,5.326-11.209
		c0.782-4.2,0.397-8.585-0.278-12.891c0.278,1.06,0.609,2.107,0.835,3.18c0.212,1.073,0.451,2.146,0.557,3.246
		c0.305,2.173,0.358,4.412,0.172,6.638c-0.358,4.452-2.093,8.89-5.048,12.388c-2.915,3.551-6.929,6.028-11.116,7.671
		c-2.107,0.808-4.319,1.404-6.585,1.722c-1.06,0.172-2.12,0.305-3.167,0.517c-1.033,0.238-2.08,0.451-3.1,0.702
		c-4.12,1.033-8.055,2.663-11.566,4.955c-0.914,0.53-1.696,1.232-2.544,1.841c-0.768,0.702-1.603,1.338-2.305,2.12
		c-1.484,1.484-2.782,3.153-3.908,4.929c-2.279,3.551-3.749,7.618-4.624,11.818c-0.901,4.2-1.126,8.572-0.782,12.918
		C70.948,126.435,71.783,117.042,76.261,109.158z"/>
</g>
</svg>
