<?xml version="1.0" encoding="utf-8"?>
<!-- Generator: Adobe Illustrator 24.3.0, SVG Export Plug-In . SVG Version: 6.00 Build 0)  -->
<svg version="1.1" id="Layer_3" xmlns="http://www.w3.org/2000/svg" xmlns:xlink="http://www.w3.org/1999/xlink" x="0px" y="0px"
	 viewBox="0 0 182.481 269.785" enable-background="new 0 0 182.481 269.785" xml:space="preserve">
<g>
	<path fill="#500C5C" d="M37.206,70.592c-7.946,4.589-9.957,8.854-8.279,17.968c1.873,10.199,3.06,20.434,1.799,30.781
		c-1.456,11.951-7.695,21.936-13.564,32.051c-2.902,4.997-5.73,10.022-7.074,15.715c-2.151,3.662-3.532,7.602-4.172,11.793
		c-5.813,4.228-4.32-2.169-5.915-4.061c3.625-3.189,2.707-8.057,4.422-11.951c3.477-9.772,9.29-18.45,13.277-27.944
		c6.61-15.706,5.841-32.199,3.709-48.703c-0.584-4.552-2.03-9.049-0.603-13.722c2.615-8.557,10.171-9.466,16.234-7.213
		c1.419,0.529,2.383,1.521,2.587,2.985C39.867,70.008,38.198,70.018,37.206,70.592z"/>
	<path fill="#500C5C" d="M74.876,235.521c-2.577,0.028-5.155,0.046-7.732,0.074c-2.003,0.918-4.116,0.584-6.203,0.593
		c-1.001,0.195-1.993,0.389-2.995,0.593c-22.576-12.396-35.426-42.899-25.218-63.435c-1.307,6.991-1.233,13.017-0.232,18.71
		c1.057,6.063,4.135,11.756,7.797,16.892c8.622,12.081,21.009,19.071,34.193,24.866C76.099,234.529,76.109,234.622,74.876,235.521z"
		/>
	<path fill="#500C5C" d="M123.115,199.01c-1.298,4.534-4.358,8.038-6.861,11.867c-1.724-6.796-2.958-13.703-6.017-20.137
		c-6.054-12.692-15.381-22.047-27.796-28.472c-1.446-0.751-3.217-1.066-4.385-2.948c3.616-0.334,6.342,1.53,9.077,2.828
		c16.253,7.686,28.565,19.303,35.259,36.316c0.083,0.195,0.343,0.315,0.566,0.445c0.009,0.009,0.019,0.019,0.028,0.019
		C123.031,198.954,123.077,198.982,123.115,199.01z"/>
	<path fill="#500C5C" d="M90.504,98.585c-1.297,4.775-2.64,9.247-3.713,13.781c-1.496,6.318-2.158,12.678-0.244,19.078
		c0.318,1.063,0.929,2.674-0.442,3.276c-1.487,0.652-2.354-0.645-3.216-1.844C75.826,123.049,79.545,105.49,90.504,98.585z"/>
</g>
<g>
	<path fill="#912F9F" d="M181.088,185.409c-2.828,1.873-5.136-1.159-7.482-2.327c-5.452-2.726-9.744-7.287-14.955-10.337
		c-5.665-3.31-14.584-0.204-20.749,5.961c-5.183,5.174-8.4,11.71-12.859,17.375c-0.436,1.14-0.612,2.457-2.058,2.846
		c-0.009,0-0.019-0.009-0.028-0.019c-0.223-0.13-0.482-0.25-0.566-0.445c-6.694-17.013-19.006-28.63-35.259-36.316
		c-2.735-1.298-5.461-3.162-9.077-2.828c1.168,1.882,2.939,2.197,4.385,2.948c12.414,6.425,21.741,15.78,27.796,28.472
		c3.06,6.434,4.293,13.342,6.017,20.137c-3.792,6.128-7.714,12.146-13.406,16.744c-8.187,6.62-17.643,8.808-27.972,7.899
		c1.233-0.899,1.224-0.992-0.389-1.706c-13.184-5.795-25.57-12.785-34.193-24.866c-3.662-5.136-6.74-10.829-7.797-16.892
		c-1.001-5.693-1.076-11.719,0.232-18.71c-10.208,20.536,2.642,51.039,25.218,63.435c-4.487,1.103-8.808,2.605-12.887,4.867
		c-6.462,3.579-9.549,9.763-8.075,17.087c0.482,2.401,1.372,4.728,2.095,7.092c0.389,1.252,0.473,2.401-0.705,3.338
		c-1.15,0.899-2.271,0.705-3.458,0.13c-13.008-6.342-22.233-16.021-26.015-30.197c-1.947-7.278-2.309-14.695-2.392-22.335
		c-0.121-11.209,0.556-22.112,3.31-32.932c0.862-3.393-2.995-2.976-3.903-4.932c0.64-4.191,2.021-8.131,4.172-11.793
		c1.539,0.658,3.087,1.316,4.849,2.067c5.906-14.667,14.287-27.981,22.196-41.545c5.118-8.799,5.952-17.653,0.566-26.757
		c-2.142-3.625-2.726-7.881-3.245-11.997c-0.593-4.654,2.624-10.282,7.055-11.942c3.977-1.493,7.343,0.093,10.356,3.087
		c6.759,6.703,11.756,6.518,19.674-0.389c5.581-4.858,12.841-3.542,16.132,3.032c1.771,3.542,1.317,7.158-0.083,10.755
		c-2.04,5.238-5.785,9.447-8.548,14.259c-3.245,5.656-6.128,11.422-5.961,18.209c0.204,8.131,5.674,13.731,13.777,14.667
		c11.144,1.27,22.094-1.826,33.238-1.076c7.232,0.491,14.5,0.658,21.593,2.132c2.67,0.547,3.829-0.26,5.266-2.169
		c8.956-11.877,15.205-25.033,18.469-39.524c0.575-2.587,1.483-3.43,3.885-3.087c0.454,0.065,0.964-0.111,1.381,0.028
		c2.744,0.955,6.61-2.633,7.946,0.538c0.76,1.799-0.491,5.479-1.224,8.224c-3.356,12.609-8.372,24.504-15.576,35.417
		c-4.246,6.416-4.358,6.434,1.724,11.209c8.78,6.889,14.843,15.604,17.968,26.303C182.201,180.848,183.49,183.814,181.088,185.409z"
		/>
	<path fill="#912F9F" d="M107.548,10.801c-3.041,19.414-12.47,34.842-28.611,46.134c-1.706,1.205-3.44,2.095-5.581,1.595
		c-2.587-0.593-3.245-2.438-3.226-4.867c0.019-2.689,1.799-2.902,3.746-2.939c1.066-0.019,2.16,0,3.199,0.213
		c6.889,1.4,7.64,0.649,9.726-5.961c2.281-7.232-0.473-14.287-0.056-21.445c0.176-2.846-2.735-4.191-5.544-4.589
		c-3.811-0.528-7.528,0.241-9.077,3.848c-2.132,5.006-4.803,8.326-10.569,9.559c-3.625,0.779-3.458,4.904-2.225,7.871
		c1.669,4.005,0.139,6.536-2.995,8.604c-5.405,3.57-10.857,7.065-16.318,10.551c-1.419,0.899-2.856,1.641-4.701,1.66
		c-4.626,0.046-6.295-2.318-4.015-6.397c1.419-2.54,3.032-5.136,5.136-7.093c6.258-5.85,8.418-12.924,7.667-21.278
		c-0.556-6.147,1.743-11.469,5.646-16.169c5.183-6.24,17.319-9.225,24.727-6.045c1.724,0.742,3.328,1.576,3.115,3.838
		c-0.028,0-0.046,0.009-0.074,0.009l0.065,0.074c0-0.028,0.009-0.056,0.009-0.083c1.233-0.204,2.735,0.019,2.948-1.789
		c0.964,0.38,1.919-0.51,2.67-0.732c4.395-1.317,8.641-3.162,13.026-4.506C103.07-1.233,109.245-0.083,107.548,10.801z"/>
</g>
</svg>
