<?xml version="1.0" encoding="utf-8"?>
<!-- Generator: Adobe Illustrator 24.3.0, SVG Export Plug-In . SVG Version: 6.00 Build 0)  -->
<svg version="1.1" id="Layer_1" xmlns="http://www.w3.org/2000/svg" xmlns:xlink="http://www.w3.org/1999/xlink" x="0px" y="0px"
	 viewBox="0 0 294.791 264.2" enable-background="new 0 0 294.791 264.2" xml:space="preserve">
<g>
	<path fill="#ADADAD" d="M285.893,116.91c-5.525,6.689-6.767,13.378-7.064,21.426C276.823,193,244.865,238.957,197.77,255.492
		c-0.893,0.311-1.785,0.673-2.678,0.996c-0.078,0.039-0.155,0.065-0.246,0.091c-0.039,0.013-0.09,0.039-0.129,0.052
		c-1.022,0.323-2.044,0.634-3.066,0.932c-0.013,0-0.026,0-0.026,0c-20.624,6.042-40.691,6.611-48.674,6.547
		c-1.863,0-3.066-0.039-3.467-0.065c-0.052,0-0.104,0-0.142-0.013c-0.776-0.078-1.54-0.168-2.264-0.207
		c-56.916-2.665-101.721-39.591-115.203-94.863c-1.449-5.913-3.053-11.864-3.597-17.881c-1.346-14.607-2.885-28.27-12.925-40.885
		c-7.698-9.691-6.016-23.198-1.669-35.179c1.488-4.088,3.183-8.863,8.772-7.854c5.072,0.919,4.503,5.784,4.645,9.562
		c0.22,5.589,0.052,11.191,0.052,16.794c0.893,0.039,1.773,0.09,2.652,0.129c0-5.589-0.129-11.179,0.039-16.768
		c0.155-4.852,0.362-10.364,6.961-10.519c7-0.181,6.637,5.46,6.702,10.286c0.078,6.21,0.013,12.421,0.013,18.644
		c1.32-0.013,2.639-0.026,3.946-0.039c0-6.249-0.181-12.524,0.065-18.761c0.142-3.636-1.242-8.772,4.347-9.367
		c4.839-0.518,6.185,4.089,7.621,7.672c5.758,14.297,5.563,28.632-4.063,40.846c-7.116,9.031-7.349,17.868-5.059,28.063
		c7.038,31.337,23.147,55.945,51.934,71.458c1.281,0.699,2.795,1.203,4.114,1.992c31.828,10.493,61.314,10.609,61.314,10.609
		c2.148-0.233,4.296-0.259,6.366-0.479c48.544-5.201,85.289-40.445,92.496-88.834c1.126-7.53,0.259-13.999-4.942-20.611
		c-12.304-15.629-12.589-36.382-2.057-51.145c10.881-15.241,28.594-14.659,38.453,1.268
		C297.472,83.167,297.252,103.17,285.893,116.91z"/>
</g>
<g>
	<path fill="#4C4C4C" d="M119.318,92.144c-0.698-4.932-1.6-9.675-2.001-14.46c-1.166-13.902,2.79-27.119,5.753-40.454
		c2.526-11.366,5.162-22.708,7.858-34.542c2.292,10.01,0.718,19.517-0.947,29.06c-2.777,15.917-5.581,31.834-7.958,47.813
		c-0.564,3.789,0.519,7.823,0.871,12.07c6.423,0,12.454,0,18.915,0c-0.661-4.364-1.453-8.346-1.838-12.366
		c-1.566-16.324,3.513-31.695,6.916-47.311c2.252-10.331,4.324-20.701,6.309-30.248c2.225,6.787,1.826,14.892,0.476,22.793
		c-2.542,14.883-6.177,29.586-8.472,44.5c-1.103,7.167-0.19,14.645-0.19,22.372c6.811,0,12.86,0,18.519,0
		c0-10.681-1.179-21.647,0.289-32.247c1.967-14.2,6.097-28.092,9.06-42.167c1.142-5.424,1.629-10.986,2.482-16.956
		c3.338,12.148,1.423,23.751-1.139,35.299c-3.545,15.978-7.979,31.795-7.064,48.443c0.455,8.274,0.294,7.969,8.367,8.881
		c14.463,1.635,28.881,3.665,43.308,5.607c1.762,0.237,3.484,0.877,5.184,1.45c11.302,3.804,13.316,6.092,12.361,17.882
		c-2.615,32.3-16.104,59.089-41.862,79.173c-9.911,7.728-21.524,11.545-33.979,12.535c-22.472,1.787-44.418,0.93-63.086-14.228
		c-21.369-17.351-33.57-40.027-38.453-66.84c-0.867-4.761-0.78-9.688-1.448-14.495c-0.839-6.038,1.965-10.087,7.257-11.698
		c9.074-2.762,18.301-5.215,27.627-6.897C101.232,93.525,110.239,93.098,119.318,92.144z M229.007,119.941
		c-9.429,1.922-18.142,4.111-26.985,5.421c-25.185,3.732-50.556,3.762-75.941,3.11c-8.525-0.219-13.472,4.148-14.317,12.66
		c-0.765,7.704,1.601,14.679,5.901,20.848c11.58,16.613,27.055,28.134,46.4,34.288c8.843,2.813,17.326,1.85,24.288-4.453
		c7.428-6.726,15.044-13.507,21.153-21.372C220.955,155.706,227.306,138.651,229.007,119.941z M170.275,102.678
		c-6.915-6.509-15.039-2.783-22.925-4.046c0.522,2.647,0.855,4.336,1.189,6.026c-2.004-5.717-6.272-6.991-11.5-5.728
		c-4.209,1.017-9.52-2.264-12.698,3.06c-5.144-5.338-52.034,1.505-60.463,9.951c8.787,2.056,16.646,4.41,24.675,5.68
		c29.832,4.721,59.899,5.209,89.929,2.99c14.101-1.042,28.077-3.953,42.053-6.343c3.11-0.532,5.986-2.434,8.97-3.705
		c-0.106-0.576-0.212-1.153-0.318-1.729c-18.802-7.192-38.659-8.116-58.599-9.576C170.446,100.809,170.35,101.861,170.275,102.678z"
		/>
</g>
<g>
	<path fill="#F89A1F" d="M229.007,119.941c-1.702,18.71-8.052,35.765-19.5,50.502c-6.109,7.864-13.725,14.646-21.153,21.372
		c-6.962,6.304-15.445,7.266-24.288,4.453c-19.346-6.154-34.82-17.675-46.4-34.288c-4.3-6.169-6.666-13.144-5.901-20.848
		c0.845-8.512,5.792-12.879,14.317-12.66c25.385,0.652,50.756,0.622,75.941-3.11C210.865,124.052,219.578,121.862,229.007,119.941z"
		/>
	<path fill="#F89A1F" d="M170.275,102.678c0.075-0.817,0.172-1.869,0.314-3.422c19.94,1.46,39.797,2.384,58.599,9.576
		c0.106,0.576,0.212,1.153,0.318,1.729c-2.984,1.271-5.86,3.173-8.97,3.705c-13.977,2.39-27.953,5.301-42.053,6.343
		c-30.031,2.219-60.098,1.731-89.929-2.99c-8.03-1.271-15.888-3.625-24.675-5.68c8.429-8.446,55.319-15.288,60.463-9.951
		c3.178-5.323,8.489-2.043,12.698-3.06c5.228-1.263,9.496,0.01,11.5,5.728c-0.333-1.689-0.667-3.379-1.189-6.026
		C155.236,99.895,163.36,96.169,170.275,102.678z"/>
</g>
</svg>
