<?xml version="1.0" encoding="utf-8"?>
<!-- Generator: Adobe Illustrator 24.3.0, SVG Export Plug-In . SVG Version: 6.00 Build 0)  -->
<svg version="1.1" id="Layer_1" xmlns="http://www.w3.org/2000/svg" xmlns:xlink="http://www.w3.org/1999/xlink" x="0px" y="0px"
	 viewBox="0 0 260.052 283.341" enable-background="new 0 0 260.052 283.341" xml:space="preserve">
<g>
	<path d="M42.659,99.301c5.46-8.332,11.639-14.713,18.404-20.56c4.074-3.521,8.344-6.834,13.053-9.448
		c2.635-1.463,2.905-2.93,1.803-5.626c-3.981-9.737-6.946-19.719-6.96-30.419c-0.024-18.241,10.53-30.587,28.79-31.994
		c21.596-1.664,43.289-1.678,64.882-0.009c18.534,1.433,28.949,13.693,28.931,32.27c-0.01,10.414-2.859,20.156-6.782,29.614
		c-1.33,3.207-0.747,4.729,2.186,6.572c25.057,15.747,40.786,38.437,47.649,66.959c4.085,16.98,3.399,34.201-1.87,51.043
		c-0.492,1.574-1.075,3.129-1.743,4.637c-4.158,9.384-8.592,11.656-18.701,9.702c-3.087-0.597-1.044-2.199-0.554-3.22
		c4.01-8.358,7.206-17.018,9.014-26.099c4.59-23.055-1.015-44.233-13.645-63.385c-15.034-22.798-36.542-36.616-63.645-40.483
		c-29.355-4.188-55.187,4.302-76.675,24.707c-4.519,4.291-8.733,6.544-14.801,5.796C49.286,99.024,46.502,99.301,42.659,99.301z
		 M132.111,16.378c-9.406,0-16.99,0.024-24.573-0.012c-3.042-0.014-6.039,0.239-9.043,0.752
		c-10.319,1.763-14.516,7.673-13.713,18.532c0.541,7.32,2.861,14.259,5.44,21.12c1.064,2.83,2.3,3.41,5.186,2.396
		c12.33-4.332,25.064-6.234,38.151-5.832c10.961,0.337,21.604,2.329,31.938,5.923c2.2,0.765,3.528,0.727,4.483-1.717
		c2.869-7.342,5.233-14.812,5.876-22.703c0.838-10.287-4.278-16.379-14.596-17.817C150.954,15.584,140.605,16.903,132.111,16.378z"
		/>
	<path d="M200.814,159.785c0.004-2.619-0.005-5.238,0.007-7.857c0.018-3.883-1.919-5.883-5.784-5.972
		c-3.307-0.076-6.616-0.05-9.921-0.151c-1.813-0.055-3.146-0.419-2.741-2.937c1.25-7.781,2.827-15.406,7.017-22.269
		c4.614-7.555,9.268-7.637,13.714,0.049c3.987,6.893,5.968,14.512,6.963,22.329c2.11,16.587,1.558,32.97-4.68,48.778
		c-1.067,2.703-2.382,5.275-4.341,7.458c-3.441,3.835-6.708,3.828-9.996-0.217c-3.734-4.595-5.462-10.133-6.931-15.752
		c-2.527-9.665-2.518-9.667,7.322-9.686c1.241-0.002,2.484-0.073,3.721-0.007c3.892,0.208,5.533-1.896,5.632-5.498
		C200.87,165.3,200.809,162.542,200.814,159.785z"/>
	<path d="M260.052,152.673c-0.561,9.565-1.22,19.197-5.552,28.095c-2.741,5.63-4.575,6.571-10.766,6.146
		c-2.197-0.151-3.236-0.507-2.452-3.227c6.066-21.049,6.177-42.13-0.204-63.149c-0.637-2.098-0.535-2.913,1.994-2.992
		c7.133-0.223,9.073,0.841,11.977,7.544C258.846,133.86,259.673,143.176,260.052,152.673z"/>
</g>
<g>
	<path fill="#F47820" d="M68.64,162.88c0-2.282,0-4.217,0-6.384c38.654,0,77.285,0,116.15,0c0,1.902,0,3.903,0,6.37
		c-2.439,0-5.006-0.214-7.51,0.088c-1.315,0.159-2.944,0.903-3.713,1.923c-12.121,16.075-19.763,34.064-23.31,53.914
		c-0.774,4.329-3.166,8.378-4.898,12.521c-0.502,1.2-1.298,2.277-2.392,4.153c2.367-0.531,3.966-0.996,5.597-1.238
		c12.195-1.811,19.931,4.561,21.016,17.057c0.888,10.231-0.697,20.126-3.657,29.858c-0.245,0.804-1.126,1.983-1.754,2.01
		c-4.195,0.179-8.402,0.093-12.434,0.093c1.309-5.858,2.786-11.416,3.706-17.064c0.415-2.55,0.11-5.382-0.548-7.909
		c-1.425-5.475-6.173-7.721-13.15-6.66c-6.1,0.928-14.963,5.861-19.683,11.13c3.122-1.252,1.413,4.046-1.74,8.01
		c-2.471,3.108-4.381,6.714-6.186,10.278c-0.893,1.763-1.835,2.369-3.739,2.307c-4.112-0.135-8.231-0.041-12.865-0.041
		c0.831-2.411,1.55-4.478,2.256-6.55c3.39-9.937,6.546-19.907,7.396-30.487c0.574-7.142-1.019-13.896-2.684-20.709
		c-3.3-13.501-6.203-27.158-13.067-39.434c-3.962-7.085-8.553-13.816-12.726-20.787c-1.243-2.077-2.819-2.712-5.087-2.479
		C72.098,163.006,70.547,162.88,68.64,162.88z M91.992,163.073c2.917,4.676,5.825,8.907,8.289,13.383
		c4.53,8.228,11.595,15.122,12.38,25.361c0.316,4.123,3.138,6.471,5.688,7.294c-3.986-7.621-4.53-15.301,0.467-22.731
		c4.188-6.227,12.445-6.209,16.528,0.074c1.73,2.662,2.682,5.831,4.062,8.938c7.158-10.557,14.389-21.223,21.912-32.318
		C137.962,163.073,115.219,163.073,91.992,163.073z"/>
	<path fill="#F47820" d="M49.199,158.25c-0.194-11.394,1.152-22.547,5.567-33.176c1.118-2.691,2.451-5.242,4.396-7.437
		c3.701-4.178,6.628-4.224,10.332-0.137c2.452,2.705,3.925,5.971,5.221,9.324c2.049,5.299,3.092,10.845,4.092,16.411
		c0.457,2.542-0.281,3.487-2.957,3.323c-3.436-0.21-6.896,0.032-10.342-0.072c-3.434-0.103-5.189,1.418-5.196,4.867
		c-0.011,5.655-0.005,11.311-0.002,16.966c0.002,3.41,1.65,5.04,5.12,4.956c3.722-0.09,7.449,0.013,11.172-0.026
		c1.505-0.016,2.275,0.282,1.947,2.106c-1.322,7.352-2.926,14.612-6.799,21.118c-4.913,8.252-10.03,8.222-14.86-0.187
		c-5.277-9.188-6.847-19.406-7.661-29.766C49.016,163.781,49.199,161.008,49.199,158.25z"/>
	<path fill="#F47820" d="M20.704,117.539c-7.362,23.361-7.422,46.391-0.047,69.407c-9.337,2.105-12.914,0.486-16.101-8.42
		c-5.958-16.648-5.935-33.565-0.738-50.372C6.985,117.912,9.632,116.504,20.704,117.539z"/>
	<path fill="#F47820" d="M25.086,152.673c0.561,9.565,1.22,19.197,5.552,28.095c2.741,5.63,4.575,6.571,10.766,6.146
		c2.197-0.151,3.236-0.507,2.452-3.227c-6.066-21.049-6.177-42.13,0.204-63.149c0.637-2.098,0.535-2.913-1.994-2.992
		c-7.133-0.223-9.073,0.841-11.977,7.544C26.292,133.86,25.465,143.176,25.086,152.673z"/>
</g>
</svg>
