<?xml version="1.0" encoding="utf-8"?>
<!-- Generator: Adobe Illustrator 24.3.0, SVG Export Plug-In . SVG Version: 6.00 Build 0)  -->
<svg version="1.1" id="Layer_3" xmlns="http://www.w3.org/2000/svg" xmlns:xlink="http://www.w3.org/1999/xlink" x="0px" y="0px"
	 viewBox="0 0 267.419 228.268" enable-background="new 0 0 267.419 228.268" xml:space="preserve">
<g>
	<path fill="#353535" d="M267.419,40.495c-4.342,7.847-10.501,10.046-17.936,8.627c-0.541-0.103,0.061,2.02,0.217,2.23
		c0.763,1.028,2.17,1.379,2.899,2.429c1.041,1.499-0.273,3.306-1.449,4.28c-2.094,1.734-4.748,1.182-6.988,0.043
		c-0.908,2.753,4.229,8.145-3.207,6.513c-1.674-0.369-1.788,0.553-2.1,1.83c-0.435,1.778-0.981,6.193-3.162,6.879
		c-1.347,0.423-2.682-0.454-3.656-1.292c-1.1-0.946-2.223-2.107-3.505-2.806c-0.849-0.463-2.342-0.307-2.902-1.191
		c6.641,10.487,1.164,15.836-6.613,20.874c-0.255-9.195-4.371-15.893-10.245-22.108c-7.421-7.819-12.345-16.901-7.989-28.153
		c1.433-3.69-0.965-4.654-3.136-5.889c-35.93-20.292-73.519-24.01-111.606-8.017C30.811,47.917,0.7,102.677,8.888,162.105
		c0.795,5.704,3.207,11.168,2.866,19.001c-5.023-7.677-6.655-14.715-8.287-21.526C-13.646,88.259,34.458,15.393,106.715,2.366
		c36.497-6.598,69.787,0.653,100.452,21.143c1.547,1.036,2.81,3.548,5.421,1.703c12.36-8.741,22.917-3.718,32.396,4.924
		C251.299,35.912,257.897,40.296,267.419,40.495z"/>
	<path fill="#353535" d="M187.485,189.123c-22.477-0.397-44.727-3.321-67.02-5.634c-14.559-1.504-29.061-3.888-43.734-2.171
		c-4.456,0.525-5.023-1.391-4.967-5.123c0.156-13.225,0.114-26.45-0.014-39.676c-0.028-3.093,0.979-5.336,3.15-7.478
		c18.078-17.979,36.142-35.972,54.065-54.107c2.81-2.824,4.427-2.88,7.294,0.043c17.894,18.163,35.972,36.142,54.079,54.093
		c2.2,2.185,3.079,4.442,3.023,7.492c-0.17,7.79-0.057,15.595-0.057,23.385c0,7.79-0.284,15.595,0.099,23.371
		C193.644,188.045,192.097,189.194,187.485,189.123z"/>
</g>
<g>
	<path fill="#19BCC6" d="M2.752,214.872c7.322-9.518,18.315-12.887,28.866-16.596c30.524-10.733,61.697-11.638,93.602-6.944
		c23.781,3.499,47.82,5.92,71.975,5.317c6.353-0.159,12.747-0.654,19.021-1.638c17.239-2.703,31.02-10.007,35.426-29.613
		c7.303,23.858-2.151,53.345-30.965,60.115c-18.809,4.419-37.529,2.662-56.338,0.651c-25.374-2.713-50.173-8.903-75.433-12.336
		c-25.472-3.462-50.824-3.289-76.153,1.161c-2.996,0.526-6.086,0.514-9.132,0.751C3.333,215.449,3.043,215.16,2.752,214.872z"/>
	<path fill="#19BCC6" d="M59.245,135.25c-2.233-9.256,0.426-15.786,7.179-22.241c20.978-20.05,41.291-40.801,61.642-61.498
		c3.554-3.614,5.565-3.389,8.986,0.081c20.705,21.003,41.31,42.124,62.659,62.46c6.685,6.368,7.288,12.829,6.136,20.563
		c-0.665,0.589-1.331,1.178-1.996,1.767c-4.282-4.892-8.327-10.019-12.889-14.635c-17.582-17.789-35.509-35.241-52.892-53.22
		c-4.542-4.698-6.905-4.013-11.074,0.244c-20.311,20.737-40.925,41.177-61.49,61.662C63.746,132.186,62.426,134.626,59.245,135.25z"
		/>
	<path fill="#19BCC6" d="M129.263,111.051h-4.168c-1.622,0-2.936-1.315-2.936-2.936v-4.168c0-1.622,1.315-2.936,2.936-2.936h4.168
		c1.622,0,2.936,1.315,2.936,2.936v4.168C132.199,109.737,130.885,111.051,129.263,111.051z"/>
	<path fill="#19BCC6" d="M142.324,111.051h-4.168c-1.622,0-2.936-1.315-2.936-2.936v-4.168c0-1.622,1.315-2.936,2.936-2.936h4.168
		c1.622,0,2.936,1.315,2.936,2.936v4.168C145.26,109.737,143.946,111.051,142.324,111.051z"/>
	<path fill="#19BCC6" d="M129.263,122.807h-4.168c-1.622,0-2.936-1.315-2.936-2.936v-4.168c0-1.622,1.315-2.936,2.936-2.936h4.168
		c1.622,0,2.936,1.315,2.936,2.936v4.168C132.199,121.492,130.885,122.807,129.263,122.807z"/>
	<path fill="#19BCC6" d="M142.324,122.807h-4.168c-1.622,0-2.936-1.315-2.936-2.936v-4.168c0-1.622,1.315-2.936,2.936-2.936h4.168
		c1.622,0,2.936,1.315,2.936,2.936v4.168C145.26,121.492,143.946,122.807,142.324,122.807z"/>
</g>
</svg>
