<?xml version="1.0" encoding="utf-8"?>
<!-- Generator: Adobe Illustrator 26.0.1, SVG Export Plug-In . SVG Version: 6.00 Build 0)  -->
<svg version="1.1" id="Layer_2" xmlns="http://www.w3.org/2000/svg" xmlns:xlink="http://www.w3.org/1999/xlink" x="0px" y="0px"
	 viewBox="0 0 176.651 258.804" enable-background="new 0 0 176.651 258.804" xml:space="preserve">
<g>
	<path fill="#5F0666" d="M53.546,189.643c0,6.151,5.002,11.155,11.155,11.155s11.155-5.005,11.155-11.155
		s-5.002-11.155-11.155-11.155C58.548,178.487,53.546,183.492,53.546,189.643z M66.933,189.643c0,1.231-1.002,2.231-2.231,2.231
		c-1.229,0-2.231-1-2.231-2.231s1.002-2.231,2.231-2.231C65.931,187.411,66.933,188.411,66.933,189.643z"/>
	<path fill="#5F0666" d="M98.168,189.643c0,6.151,5.002,11.155,11.155,11.155c6.153,0,11.155-5.005,11.155-11.155
		s-5.002-11.155-11.155-11.155C103.17,178.487,98.168,183.492,98.168,189.643z M111.555,189.643c0,1.231-1.002,2.231-2.231,2.231
		s-2.231-1-2.231-2.231s1.002-2.231,2.231-2.231S111.555,188.411,111.555,189.643z"/>
	<path fill="#5F0666" d="M174.976,217.986c-1.595-1.276-3.857-1.305-5.478-0.07c-6.698,5.072-20.041,8.898-31.044,8.898
		c-13.967,0-24.66-5.001-32.7-15.284c-0.845-1.083-2.144-1.715-3.517-1.715H71.561c-1.373,0-2.671,0.632-3.517,1.712
		c-8.266,10.572-18.145,15.286-32.033,15.286c-9.608,0-19.069-3.162-26.642-8.898c-1.626-1.233-3.887-1.205-5.478,0.07
		c-1.595,1.274-2.122,3.471-1.276,5.332c8.018,17.663,26.024,35.486,48.182,35.486c12.219,0,25.862-1.442,36.347-11.35
		c11.108,10.088,27.161,11.35,38.748,11.35c22.25,0,42.552-18.285,50.36-35.486C177.097,221.457,176.57,219.261,174.976,217.986z
		 M125.891,249.879c-17.565,0-28.79-3.734-35.331-11.753c-0.845-1.037-2.113-1.641-3.455-1.641c-1.342,0-2.611,0.604-3.455,1.641
		c-6.811,8.347-16.327,11.753-32.852,11.753c-12.467,0-23.636-7.446-31.535-16.849c5.373,1.778,11.042,2.708,16.75,2.708
		c15.674,0,28.019-5.565,37.672-16.999h26.438c9.573,11.282,22.464,16.999,38.333,16.999c6.096,0,13.88-1.081,21.247-3.36
		C151.065,242.165,138.527,249.879,125.891,249.879z"/>
</g>
<g>
	<path fill="#F70B59" d="M19.892,98.95l6.907,62.181c0.252,2.26,2.16,3.97,4.436,3.97h111.555c2.275,0,4.183-1.71,4.436-3.97
		l6.907-62.181c12.171-5.99,19.892-18.278,19.892-32.017c0-19.684-16.015-35.697-35.697-35.697c-1.098,0-2.197,0.05-3.29,0.151
		C127.8,12.726,109.498,0,89.243,0C68.592,0,50.26,12.962,43.205,32.026c-2.453-0.525-4.963-0.791-7.508-0.791
		C16.013,31.235,0,47.249,0,66.932C0,80.672,7.722,92.96,19.892,98.95z M35.697,40.159c3.077,0,6.091,0.514,8.951,1.531
		c1.173,0.419,2.471,0.326,3.569-0.255c1.103-0.577,1.913-1.59,2.235-2.793C55.15,21.145,71.103,8.925,89.243,8.925
		c17.639,0,33.471,11.796,38.499,28.684c0.658,2.221,2.907,3.569,5.172,3.098c1.769-0.361,3.59-0.547,5.413-0.547
		c14.764,0,26.772,12.009,26.772,26.772c0,10.992-6.589,20.746-16.785,24.849c-1.525,0.615-2.588,2.016-2.772,3.647l-6.75,60.747
		H35.231l-6.75-60.746c-0.182-1.632-1.246-3.032-2.772-3.647C15.514,87.679,8.925,77.925,8.925,66.933
		C8.925,52.169,20.933,40.159,35.697,40.159z"/>
	<path fill="#F70B59" d="M26.774,71.395c2.466,0,4.462-1.999,4.462-4.462c0-4.921,4.005-8.925,8.925-8.925
		c2.466,0,4.462-1.999,4.462-4.462s-1.996-4.462-4.462-4.462c-9.844,0-17.849,8.007-17.849,17.849
		C22.311,69.397,24.306,71.395,26.774,71.395z"/>
	<path fill="#F70B59" d="M71.395,44.622c2.466,0,4.462-1.999,4.462-4.462c0-4.921,4.005-8.925,8.925-8.925
		c2.466,0,4.462-1.999,4.462-4.462s-1.996-4.462-4.462-4.462c-9.844,0-17.849,8.007-17.849,17.849
		C66.933,42.624,68.929,44.622,71.395,44.622z"/>
	<path fill="#F70B59" d="M120.479,71.395c2.466,0,4.462-1.999,4.462-4.462c0-4.921,4.005-8.925,8.925-8.925
		c2.466,0,4.462-1.999,4.462-4.462s-1.996-4.462-4.462-4.462c-9.844,0-17.849,8.007-17.849,17.849
		C116.017,69.397,118.013,71.395,120.479,71.395z"/>
</g>
</svg>
