<?xml version="1.0" encoding="utf-8"?>
<!-- Generator: Adobe Illustrator 24.3.0, SVG Export Plug-In . SVG Version: 6.00 Build 0)  -->
<svg version="1.1" id="Layer_8" xmlns="http://www.w3.org/2000/svg" xmlns:xlink="http://www.w3.org/1999/xlink" x="0px" y="0px"
	 viewBox="0 0 283.467 194.217" enable-background="new 0 0 283.467 194.217" xml:space="preserve">
<g>
	<path fill="#FFB000" d="M56.099,180.652c-76.313-7.809-69.873-72.617-10.16-120.207C97.927,18.108,167.793-3.084,218.17,0.363
		c89.357,6.592,83.734,79.912,3.078,133.002c-52.303,33.722,69.158-35.545,56.223-90.587c-4.919-29.814-46.529-36.951-76.87-35.685
		C52.319,14.994-70.511,159.968,56.099,180.652z"/>
</g>
<g>
	<path fill="#351137" d="M132.543,34.774c-0.115,0-0.672,0.583-0.672,0.698c0,0.068-0.062,0.229-0.141,0.365
		c-0.203,0.396-0.75,2.245-0.755,2.562c0,0.167,0.036,0.417,0.083,0.568c0.047,0.156,0.177,0.609,0.292,1.01
		c0.115,0.396,0.234,0.812,0.281,0.917c0.052,0.109,0.203,0.474,0.344,0.823c0.229,0.578,0.365,0.87,0.438,0.87
		s0.083-0.302,0.068-0.911c-0.026-0.651-0.089-1.161-0.167-1.307c-0.083-0.161-0.135-0.703-0.161-1.688
		c-0.016-1.266,0.005-1.526,0.182-2.068c0.12-0.333,0.208-0.682,0.208-0.771c0-0.094,0.073-0.25,0.151-0.354
		c0.172-0.219,0.188-0.443,0.031-0.599C132.657,34.821,132.579,34.774,132.543,34.774z M123.334,43.644
		c-0.151,0-0.531,0.401-0.828,0.865l-0.188,0.318l0.214,0.005c0.339,0,1.083-1.083,0.823-1.182
		C123.35,43.644,123.34,43.644,123.334,43.644z M132.371,47.123c-0.057,0-0.109,0.042-0.109,0.099c0,0.047,0.021,0.094,0.042,0.094
		c0.026,0,0.073-0.047,0.104-0.094C132.439,47.164,132.418,47.123,132.371,47.123z M142.376,28.128c0.958,0,1.51,0.036,1.844,0.125
		c0.292,0.068,1.141,0.26,1.885,0.406c1.224,0.245,2.026,0.542,2.5,0.917c0.057,0.052,0.271,0.12,0.484,0.151
		c0.589,0.109,2.125,1.214,2.521,1.802c0.182,0.266,0.323,0.557,0.323,0.641c0,0.078,0.083,0.312,0.188,0.505
		c0.109,0.203,0.193,0.427,0.193,0.495c0,0.172,0.359,1.255,0.557,1.651c0.438,0.891,0.766,3.859,0.552,5.036
		c-0.234,1.26-0.234,1.318-0.052,1.802c0.094,0.25,0.297,0.656,0.438,0.901c0.729,1.203,0.844,1.443,0.943,1.927
		c0.125,0.599,0.068,1.297-0.125,1.516c-0.068,0.078-0.432,0.297-0.797,0.464l-0.682,0.323l-0.016,0.573
		c-0.021,0.422-0.083,0.635-0.24,0.839c-0.115,0.141-0.214,0.344-0.214,0.443c-0.005,0.385-0.307,0.932-0.578,1.047
		c-0.411,0.161-0.656,0.552-0.719,1.161c-0.083,0.656-0.339,1.214-0.698,1.469c-0.203,0.146-0.354,0.188-0.953,0.188
		c-0.12,0-0.25,0-0.401-0.005L148.24,52.5l-0.911-0.464c-0.505-0.255-0.974-0.526-1.062-0.594c-0.172-0.161-0.562-0.276-0.844-0.276
		c-0.078,0-0.146,0.005-0.198,0.026c-0.12,0.047-0.568,0.411-1.005,0.823c-0.651,0.609-0.859,0.901-1.281,1.708
		c-0.464,0.88-0.682,1.557-0.833,2.615c-0.062,0.385-0.042,0.438,0.349,0.854c0.234,0.255,0.688,0.63,0.995,0.859
		c0.625,0.448,1.276,1.089,1.365,1.349c0.062,0.224,0.854,0.672,1.432,0.823c2.188,0.557,3.042,1.047,3.469,1.995
		c0.089,0.182,0.25,0.495,0.365,0.688c0.63,1.078,0.833,1.443,1.021,1.927c0.115,0.292,0.286,0.708,0.38,0.922
		c0.083,0.214,0.255,0.776,0.37,1.255c0.109,0.474,0.26,1.083,0.339,1.354c0.073,0.26,0.193,0.823,0.271,1.24
		c0.109,0.589,0.224,0.891,0.557,1.401c0.24,0.359,0.557,0.875,0.698,1.146c0.156,0.26,0.401,0.719,0.562,1
		c0.156,0.281,0.385,0.656,0.49,0.833c0.115,0.172,0.24,0.417,0.276,0.531c0.036,0.125,0.203,0.396,0.375,0.62
		c0.245,0.339,0.63,1.104,1.344,2.724c0.073,0.156,0.161,0.396,0.188,0.531c0.083,0.328,0.635,1.542,1.198,2.594l0.167,0.323
		l0.146-0.214c0.089-0.115,0.479-0.536,0.87-0.938c0.385-0.401,1.005-1.036,1.354-1.401c0.349-0.37,0.839-0.839,1.083-1.052
		c0.557-0.495,1.667-1.885,2.276-2.859c0.266-0.422,0.531-0.776,0.599-0.802c0.115-0.042,1.307-1.786,1.312-1.901
		c0-0.031,0.177-0.297,0.38-0.604c0.609-0.875,1.453-2.557,1.526-3.042c0.047-0.297,0.021-0.604-0.062-0.906
		c-0.083-0.25-0.167-0.849-0.193-1.323c-0.026-0.484-0.12-1.109-0.193-1.401c-0.078-0.292-0.141-0.833-0.135-1.198
		c0.005-0.599,0.042-0.734,0.385-1.318c0.208-0.359,0.411-0.792,0.453-0.974c0.042-0.172,0.109-0.365,0.151-0.411
		c0.036-0.057,0.099-0.302,0.141-0.542c0.036-0.24,0.188-0.693,0.344-1.01c0.146-0.307,0.307-0.781,0.339-1.031
		c0.042-0.297,0.188-0.625,0.385-0.891c0.266-0.37,0.344-0.422,0.667-0.422c0.005,0,0.016,0,0.021,0
		c0.339,0.005,0.453,0.062,0.812,0.443c0.26,0.276,0.37,0.375,0.484,0.375c0.042,0,0.089-0.016,0.141-0.042
		c0.094-0.052,0.292-0.073,0.516-0.073c0.458,0,1.047,0.089,1.198,0.229c0.115,0.104,0.344,0.156,0.76,0.161
		c0.552,0,0.63,0.031,0.938,0.333c0.182,0.182,0.339,0.38,0.339,0.438c-0.005,0.057,0.094,0.104,0.198,0.109
		c0.12,0,0.37,0.099,0.573,0.203c0.385,0.219,0.396,0.255,0.625,1.417c0.021,0.125,0.156,0.24,0.359,0.312
		c0.703,0.234,0.766,0.979,0.297,3.677c-0.12,0.693-0.26,1.052-0.948,2.359c-0.599,1.161-0.938,1.688-1.38,2.156
		c-0.323,0.349-0.656,0.781-0.745,0.964c-0.089,0.182-0.281,0.458-0.427,0.62c-0.156,0.156-0.432,0.547-0.62,0.865
		c-0.182,0.318-0.568,0.964-0.849,1.443c-0.651,1.057-1.083,1.885-1.083,2.036c0,0.182-0.688,1.552-0.922,1.839
		c-0.12,0.141-0.365,0.583-0.542,0.979c-0.432,0.922-1.052,2.161-1.307,2.594c-0.109,0.182-0.266,0.5-0.333,0.703
		c-0.073,0.193-0.24,0.5-0.365,0.672c-0.135,0.167-0.323,0.484-0.422,0.693c-0.099,0.214-0.396,0.75-0.656,1.203
		c-0.266,0.448-0.609,1.057-0.755,1.344c-0.161,0.286-0.432,0.693-0.62,0.891c-0.188,0.203-0.615,0.75-0.958,1.24
		c-0.333,0.479-0.901,1.182-1.26,1.552c-1.026,1.057-2.474,2.917-3.068,3.938c-0.323,0.542-0.854,0.818-1.49,0.818
		c-0.49,0-1.042-0.167-1.604-0.495c-0.365-0.219-0.703-0.391-0.74-0.391c-0.042,0-0.135-0.073-0.203-0.156
		c-0.068-0.089-0.214-0.198-0.328-0.245c-1.156-0.521-1.792-1.047-2.771-2.281c-0.26-0.318-0.583-0.661-0.719-0.766
		c-0.359-0.266-1.328-1.38-1.63-1.875c-0.146-0.224-0.589-0.786-0.99-1.266c-0.401-0.464-0.854-1.078-0.995-1.339
		c-0.156-0.271-0.573-0.891-0.948-1.396c-0.375-0.495-0.807-1.109-0.969-1.37c-0.151-0.25-0.458-0.719-0.667-1.036
		c-0.214-0.318-0.432-0.672-0.49-0.766c-0.047-0.078-0.078-0.115-0.12-0.115c-0.062,0-0.146,0.068-0.318,0.224
		c-0.458,0.422-1.594,1.12-2.156,1.318c-0.266,0.094-1.01,0.224-1.661,0.286c-1.297,0.125-1.755,0.297-2,0.766
		c-0.323,0.615-1.438,2.229-1.818,2.63c-0.224,0.24-0.609,0.729-0.854,1.104c-0.245,0.365-0.969,1.229-1.62,1.896
		c-1.208,1.255-1.385,1.505-1.927,2.755c-0.167,0.396-0.464,1.052-0.661,1.443c-0.188,0.396-0.432,0.917-0.542,1.167l-0.188,0.432
		l0.37,0.12c0.198,0.068,0.422,0.12,0.469,0.12c0.062,0,0.349,0.109,0.641,0.245c0.286,0.135,0.578,0.245,0.646,0.245
		s0.328,0.109,0.599,0.229c0.26,0.125,0.714,0.266,1.005,0.297c0.286,0.042,0.568,0.109,0.625,0.167
		c0.047,0.052,0.182,0.099,0.302,0.099c0.172,0,1.151,0.271,1.833,0.516c0.156,0.062,0.484,0.167,0.724,0.255
		c0.24,0.083,0.552,0.24,0.693,0.333c0.135,0.099,0.302,0.177,0.359,0.177c0.057,0,0.271,0.089,0.464,0.198
		c0.203,0.109,0.432,0.198,0.51,0.198c0.089,0,0.24,0.068,0.349,0.146c0.094,0.078,0.25,0.146,0.328,0.151
		c0.078,0,0.307,0.089,0.51,0.193c0.193,0.109,0.422,0.198,0.5,0.198s0.484,0.177,0.891,0.401c0.411,0.219,1.01,0.51,1.328,0.651
		c0.318,0.135,0.958,0.5,1.417,0.812c0.474,0.312,0.938,0.604,1.042,0.635c0.328,0.104,1.661,0.849,2.37,1.318
		c0.37,0.245,0.771,0.5,0.906,0.568c0.135,0.057,0.5,0.333,0.818,0.604c0.318,0.266,0.75,0.573,0.964,0.693
		c0.375,0.208,1.323,0.88,1.568,1.13c0.224,0.224,0.917,0.677,1.438,0.938c0.271,0.146,0.839,0.599,1.26,1.016
		c0.411,0.417,0.865,0.854,0.99,0.964c0.344,0.312,0.661,0.688,0.661,0.786c0,0.047,0.146,0.135,0.318,0.203
		c0.318,0.12,0.646,0.604,0.641,0.969c0,0.089,0.094,0.323,0.208,0.505c0.307,0.484,0.536,1,0.849,1.906
		c0.302,0.88,0.328,1.125,0.146,1.479c-0.083,0.135-0.172,0.396-0.203,0.578c-0.089,0.417-3.401,6.865-3.911,7.594
		c-0.193,0.286-0.391,0.635-0.427,0.771c-0.109,0.344-0.526,1.135-0.885,1.682c-0.422,0.63-0.797,1.266-0.984,1.672
		c-0.078,0.182-0.339,0.547-0.573,0.812c-0.229,0.271-0.531,0.661-0.667,0.875c-0.135,0.208-0.479,0.594-0.755,0.865
		c-0.271,0.255-0.495,0.505-0.495,0.552c0,0.177-1.031,1.557-1.656,2.229c-0.359,0.391-0.74,0.87-0.849,1.073
		c-0.099,0.203-0.74,0.901-1.417,1.562c-0.672,0.661-1.333,1.37-1.474,1.583c-0.26,0.411-0.604,0.776-1.161,1.245
		c-0.182,0.151-0.458,0.458-0.594,0.672c-0.135,0.208-0.443,0.573-0.667,0.802c-0.224,0.24-0.594,0.651-0.818,0.922
		c-0.214,0.266-0.615,0.729-0.87,1.016c-0.448,0.516-0.656,0.786-1.594,2.12c-0.255,0.365-0.5,0.651-0.536,0.651
		c-0.052,0-0.089,0.057-0.089,0.125c0,0.078-0.089,0.214-0.198,0.307c-0.109,0.099-0.193,0.214-0.193,0.25
		c-0.005,0.042-0.255,0.417-0.573,0.828c-0.302,0.411-0.703,1.036-0.88,1.391c-0.177,0.354-0.411,0.693-0.51,0.75
		c-0.26,0.135-0.245,0.276,0.073,0.677c0.156,0.182,0.297,0.417,0.339,0.505c0.047,0.125,0.161,0.172,0.458,0.177h0.401
		l-0.062,0.406c-0.083,0.589-0.083,0.568,0.021,0.995c0.208,0.812,0.021,2.167-0.286,2.167c-0.167,0-0.312,0.365-0.25,0.625
		c0.031,0.135,0.104,0.245,0.156,0.245c0.125,0,0.5,0.417,0.755,0.828c0.214,0.339,0.234,1.13,0.047,1.495
		c-0.099,0.203-0.516,0.479-0.885,0.599c-0.078,0.031,0.125,0.495,0.573,1.328c0.068,0.135,0.219,0.448,0.333,0.708
		c0.125,0.25,0.297,0.531,0.391,0.62c0.099,0.089,0.172,0.292,0.172,0.453c0,0.167,0.083,0.427,0.188,0.594
		c0.104,0.161,0.193,0.453,0.188,0.656c0,0.214,0.068,0.521,0.151,0.703c0.161,0.349,0.911,1.156,1.323,1.443
		c0.135,0.083,0.484,0.38,0.76,0.641c0.552,0.516,1.51,1.266,1.63,1.266c0.047,0,0.208,0.203,0.365,0.458
		c0.245,0.396,0.281,0.542,0.281,1.141c-0.005,0.375-0.057,0.734-0.104,0.781c-0.057,0.057-0.151,0.354-0.198,0.661
		c-0.125,0.724-0.271,0.927-0.932,1.297c-0.391,0.219-0.505,0.281-0.938,0.281c-0.167,0-0.385-0.01-0.688-0.021
		c-0.661-0.036-1.182-0.109-1.328-0.188c-0.135-0.078-0.432-0.167-0.677-0.208c-0.667-0.099-1.562-0.365-1.979-0.583
		c-0.214-0.104-0.464-0.193-0.557-0.198c-0.099,0-0.427-0.156-0.724-0.344c-0.307-0.172-0.755-0.38-1.016-0.448
		c-0.307-0.083-0.568-0.229-0.818-0.5c-0.26-0.26-0.5-0.411-0.797-0.479c-0.573-0.13-0.833-0.323-0.995-0.724
		c-0.151-0.354-0.568-0.63-0.974-0.63c-0.328-0.005-0.604-0.161-0.885-0.49c-0.125-0.156-0.464-0.411-0.76-0.578
		c-0.286-0.177-0.557-0.38-0.589-0.469c-0.026-0.078-0.266-0.24-0.516-0.359c-0.255-0.109-0.667-0.401-0.927-0.646
		c-0.25-0.24-0.661-0.526-0.917-0.615c-0.521-0.203-1.615-0.901-1.615-1.036c0-0.047-0.464-0.312-1.042-0.594
		c-0.568-0.276-1.188-0.646-1.37-0.823c-0.182-0.172-0.672-0.536-1.099-0.797c-0.411-0.266-0.823-0.599-0.932-0.734
		c-0.094-0.135-0.536-0.505-0.99-0.807c-1.375-0.938-2.031-1.75-2.021-2.516c0-0.411,0.042-0.49,0.391-0.786
		c0.214-0.182,0.495-0.354,0.63-0.391c0.141-0.031,0.323-0.078,0.411-0.104c0.094-0.021,0.172-0.125,0.177-0.24
		c0-0.104,0.068-0.307,0.135-0.443c0.078-0.146,0.229-0.422,0.318-0.625s0.339-0.51,0.557-0.672
		c0.203-0.172,0.583-0.594,0.818-0.958c0.531-0.771,2.354-2.609,2.906-2.932c0.214-0.125,0.656-0.474,0.974-0.771
		c0.766-0.714,1-0.859,1.401-0.859c0,0,0.005,0,0.01,0c0.01,0,0.021,0,0.031,0c0.37,0,0.458-0.062,0.641-0.38
		c0.068-0.135,0.469-0.693,0.891-1.25s0.901-1.266,1.078-1.583c0.177-0.318,0.479-0.76,0.672-0.979
		c0.542-0.615,0.792-0.958,0.797-1.094c0-0.068,0.057-0.193,0.125-0.271c0.12-0.141,1.089-1.719,1.453-2.359
		c0.37-0.667,1.365-2.646,1.365-2.724c0-0.057,0.198-0.328,0.432-0.604c0.234-0.286,0.458-0.625,0.5-0.76
		c0.036-0.13,0.146-0.411,0.245-0.625c0.375-0.807,0.484-1.073,0.672-1.682c0.109-0.344,0.229-0.849,0.271-1.109
		c0.042-0.266,0.13-0.625,0.208-0.807c0.078-0.172,0.141-0.443,0.141-0.599c0.005-0.411,0.458-1.646,1.047-2.828
		c0.13-0.271,0.24-0.557,0.24-0.646c0-0.083,0.047-0.193,0.109-0.219c0.047-0.036,0.203-0.307,0.339-0.604
		c0.141-0.307,0.286-0.62,0.339-0.693c0.047-0.078,0.224-0.375,0.391-0.646c0.167-0.276,0.38-0.557,0.479-0.625
		c0.089-0.062,0.281-0.312,0.422-0.552c0.37-0.625,2.219-2.849,2.781-3.359c0.469-0.432,0.911-1.016,0.911-1.24
		c0-0.193-0.865-0.505-1.776-0.646c-0.396-0.068-0.76-0.109-0.885-0.109c-0.021,0-0.036,0-0.042,0.005c-0.005,0-0.026,0-0.057,0
		c-0.161,0-0.635-0.036-1.161-0.109c-1.005-0.13-12.505-0.531-16.083-0.557l-0.99-0.005v-0.281c0.005-0.281-0.161-0.396-0.776-0.536
		l-0.245-0.052l0.01,2.771c0.005,1.526-0.026,3.109-0.057,3.521c-0.083,0.875-0.182,1.052-1.01,1.052
		c-0.125,0-0.26-0.005-0.422-0.01c-0.24-0.01-0.432-0.016-0.589-0.016c-0.615,0-0.641,0.109-0.646,0.578
		c0,0.26-0.094,0.724-0.193,1.021c-0.109,0.307-0.219,0.76-0.255,1.01c-0.031,0.25-0.104,0.484-0.161,0.51
		c-0.047,0.036-0.089,0.182-0.089,0.328c-0.005,0.281-0.521,1.896-0.745,2.318c-0.146,0.292-0.505,1.203-0.594,1.542
		c-0.031,0.135-0.099,0.328-0.146,0.432c-0.052,0.104-0.219,0.557-0.385,1.01c-0.37,1.031-0.792,2.042-0.906,2.156
		c-0.052,0.057-0.089,0.151-0.094,0.229c0,0.115-0.365,0.906-0.589,1.271c-0.047,0.078-0.224,0.469-0.401,0.865
		c-0.177,0.396-0.448,0.979-0.594,1.297s-0.365,0.859-0.484,1.203c-0.286,0.839-0.766,1.839-0.932,1.964
		c-0.078,0.057-0.255,0.422-0.396,0.807c-0.135,0.396-0.432,0.979-0.641,1.307c-0.214,0.339-0.391,0.646-0.391,0.703
		c0,0.047-0.156,0.333-0.344,0.641c-0.188,0.307-0.344,0.609-0.344,0.667c0,0.047-0.344,0.583-0.766,1.188
		c-0.411,0.609-0.802,1.172-0.849,1.26c-1.089,1.698-2.38,3.167-3.125,3.516c-0.214,0.104-0.411,0.219-0.438,0.25
		c-0.031,0.036-0.214,0.141-0.411,0.24c-0.203,0.104-0.641,0.312-0.969,0.474c-0.552,0.276-1.812,0.698-2.047,0.698h-0.005
		c-0.078,0-2.021,0.927-2.943,1.406c-0.094,0.047-0.375,0.172-0.62,0.266c-0.896,0.339-1.323,0.536-1.703,0.797
		c-0.677,0.458-1.474,0.953-1.536,0.953c-0.068,0-0.505,0.286-1.271,0.849c-0.323,0.229-0.807,0.552-1.094,0.714
		c-0.281,0.161-0.776,0.5-1.099,0.745c-0.328,0.26-0.609,0.458-0.63,0.458s-0.646,0.401-1.391,0.885
		c-0.74,0.479-1.589,0.984-1.88,1.12c-0.292,0.13-0.62,0.328-0.729,0.448c-0.104,0.115-0.505,0.359-0.875,0.562
		c-0.38,0.188-0.818,0.417-0.974,0.51c-0.161,0.094-0.406,0.193-0.552,0.229c-0.135,0.026-0.677,0.333-1.203,0.677
		c-0.526,0.344-0.984,0.62-1.016,0.62c-0.036,0-0.385,0.234-0.786,0.521c-0.396,0.286-1.13,0.729-1.625,0.974
		c-0.63,0.312-0.979,0.542-1.135,0.766c-0.12,0.182-0.625,0.656-1.13,1.062c-0.51,0.406-1.125,0.932-1.365,1.172
		c-1.083,1.016-1.719,1.583-1.932,1.714c-0.312,0.203-2.469,2.297-3.286,3.208c-0.75,0.833-0.969,1.172-1.068,1.703l-0.073,0.344
		l0.427-0.083c0.276-0.047,0.531-0.073,0.75-0.073c0.302,0,0.531,0.047,0.625,0.151c0.089,0.078,0.182,0.323,0.208,0.521l0.057,0.37
		l0.359-0.125c0.193-0.062,0.495-0.198,0.677-0.292c0.146-0.073,0.281-0.104,0.401-0.104c0.427,0,0.651,0.396,0.26,0.776
		c-0.125,0.125-0.448,0.302-0.708,0.401c-0.271,0.094-0.552,0.224-0.63,0.281c-0.224,0.172-1.104,0.328-1.87,0.333
		c-0.021,0-0.036,0-0.052,0c-0.479,0-0.729,0.057-0.938,0.188c-0.167,0.094-0.359,0.208-0.438,0.234
		c-1.333,0.542-1.37,0.578-1.708,1.495c-0.089,0.25-0.37,0.807-0.646,1.24c-0.266,0.432-0.479,0.807-0.479,0.839
		c-0.005,0.026-0.161,0.365-0.349,0.75c-0.188,0.38-0.344,0.766-0.344,0.854c0,0.193-0.62,1.214-0.833,1.391
		c-0.135,0.12-0.734,1.24-0.734,1.396c-0.005,0.031-0.12,0.307-0.26,0.604c-0.443,0.943-0.828,1.87-1.135,2.766
		c-0.167,0.469-0.333,0.953-0.385,1.057c-0.609,1.401-1.031,2.057-1.75,2.688c-0.245,0.208-0.536,0.469-0.667,0.583
		c-0.188,0.172-0.615,0.271-1.146,0.271c-0.198,0-0.411-0.016-0.635-0.042c-0.812-0.104-1.745-0.708-2.589-1.682
		c-0.693-0.797-0.99-1.328-1.109-1.995c-0.036-0.203-0.125-0.453-0.188-0.562c-0.089-0.115-0.135-0.464-0.13-0.953
		c0.005-0.62-0.031-0.812-0.177-0.969c-0.365-0.417-0.5-1.422-0.276-2.068c0.083-0.229,0.073-0.396-0.052-0.76
		c-0.188-0.562-0.125-1.036,0.208-1.708c0.146-0.307,0.208-0.531,0.161-0.625c-0.193-0.37-0.208-0.958-0.047-1.323
		c0.099-0.214,0.208-0.734,0.25-1.177c0.052-0.443,0.141-0.865,0.208-0.953c0.089-0.094,0.151-0.51,0.177-1.13
		c0.021-0.526,0.083-1.068,0.141-1.193c0.089-0.161,0.094-0.297,0.005-0.542c-0.141-0.406-0.13-1.807,0.016-2.13
		c0.089-0.193,0.094-0.385,0-0.859c-0.094-0.505-0.094-0.786,0.042-1.708c0.266-1.786,0.323-2.026,0.698-2.802
		c0.609-1.25,0.943-1.443,2.974-1.698c0.969-0.125,1.885-0.38,2.62-0.729c0.505-0.24,0.641-0.26,2.375-0.312
		c3.146-0.083,3.661-0.203,4.464-1.026c0.703-0.729,1.109-1.073,1.479-1.255c0.146-0.073,0.557-0.448,0.896-0.823
		c0.344-0.375,0.672-0.677,0.74-0.677h0.005c0.057,0,0.229-0.125,0.385-0.286c0.146-0.156,0.422-0.328,0.594-0.385
		c0.224-0.073,0.438-0.286,0.771-0.766c0.531-0.786,0.859-1.12,1.74-1.771c0.349-0.266,0.641-0.526,0.641-0.573
		c0.01-0.156,0.922-1.297,1.349-1.688c0.208-0.193,0.703-0.693,1.104-1.104s0.859-0.849,1.021-0.984
		c0.604-0.5,2.021-1.995,2.333-2.453c0.188-0.271,0.589-0.719,0.901-1.016c0.323-0.297,0.74-0.766,0.948-1.062
		c0.536-0.76,1.599-1.786,2.115-2.042c0.245-0.115,0.771-0.505,1.161-0.849c0.396-0.354,1.01-0.776,1.359-0.948
		c0.349-0.167,0.682-0.349,0.74-0.417c0.047-0.068,0.505-0.286,0.99-0.495c0.495-0.198,1.021-0.453,1.167-0.552
		c0.156-0.094,0.557-0.312,0.906-0.484c0.719-0.349,1.135-0.589,1.708-0.979c0.224-0.151,0.615-0.312,0.865-0.37
		c0.266-0.057,0.625-0.219,0.818-0.37c0.458-0.344,0.661-0.448,1.089-0.526c0.453-0.073,1.167-0.531,1.458-0.922
		c0.245-0.339,0.385-1.057,0.594-2.932c0.052-0.479,0.146-1.021,0.193-1.203c0.052-0.182,0.12-0.531,0.161-0.771
		c0.031-0.24,0.12-0.625,0.203-0.865c0.068-0.245,0.161-1.042,0.203-1.786c0.141-2.651,0.286-4.188,0.422-4.521
		c0.083-0.182,0.151-0.568,0.156-0.849c0-0.281,0.052-0.688,0.109-0.896c0.052-0.214,0.161-0.734,0.234-1.156
		c0.078-0.427,0.208-1.083,0.312-1.448c0.089-0.375,0.219-0.911,0.286-1.203c0.094-0.365,0.125-1.099,0.115-2.354
		c-0.005-1.448,0.016-1.88,0.135-2.094c0.198-0.385,0.245-5.635,0.042-5.714c-0.094-0.036-0.141-0.365-0.182-1.198
		c-0.104-1.922-0.12-2.141-0.271-4.12c-0.13-1.865-0.125-2.385,0.089-3.776c0.141-0.932,0.583-2.646,0.75-2.906
		c0.078-0.115,0.135-0.339,0.141-0.495c0-0.375,0.526-1.75,0.964-2.51c0.219-0.391,0.734-1.016,1.359-1.641
		c0.906-0.917,1.062-1.031,1.703-1.276l0.708-0.266l0.63-1.047c0.635-1.068,0.859-1.307,1.786-1.906
		c0.281-0.182,0.828-0.641,1.219-1.016s0.885-0.792,1.12-0.948c0.234-0.141,0.526-0.354,0.661-0.448s0.406-0.255,0.604-0.344
		c0.474-0.224,1.146-0.771,1.146-0.938c0.005-0.073,0.042-0.208,0.099-0.307c0.229-0.391,0.984-2.068,0.99-2.172
		c0-0.057,0.068-0.214,0.156-0.328c0.078-0.115,0.286-0.583,0.443-1.047c0.375-1.052,0.797-1.932,1.073-2.214
		c0.359-0.38,0.938-2.161,1.042-3.255c0.031-0.375,0.125-0.932,0.203-1.25s0.172-0.734,0.198-0.917
		c0.042-0.182,0.151-0.568,0.26-0.849c0.099-0.276,0.188-0.625,0.188-0.771c0.005-0.141,0.062-0.453,0.146-0.693
		c0.307-0.964,0.443-1.521,0.505-2.021c0.031-0.292,0.125-0.667,0.203-0.818c0.292-0.625,0.474-1.281,0.516-1.927
		c0.031-0.375,0.094-0.734,0.151-0.802c0.078-0.083,0.031-0.115-0.203-0.115c-0.161,0-0.297-0.042-0.297-0.078
		c0-0.052-0.068-0.167-0.146-0.276c-0.036-0.047-0.062-0.078-0.083-0.078c-0.042,0-0.047,0.161-0.036,0.609
		c0.016,0.615-0.036,0.865-0.271,0.865c-0.115,0-0.276-0.057-0.49-0.167c-0.5-0.245-0.818-0.698-0.812-1.161
		c0-0.188-0.005-0.266-0.062-0.266c-0.026,0-0.068,0.021-0.12,0.052c-0.115,0.057-0.24,0.089-0.354,0.089
		c-0.161,0-0.312-0.057-0.401-0.172c-0.323-0.411-0.526-0.99-0.474-1.344c0.125-0.781,0.203-1.052,0.37-1.234
		c0.099-0.104,0.208-0.406,0.245-0.672c0.062-0.448,0.151-0.667,0.661-1.745c0.099-0.219,0.443-0.615,0.766-0.891
		c0.323-0.276,0.583-0.557,0.583-0.635c0-0.062,0.109-0.188,0.245-0.276c0.323-0.208,0.312-0.333-0.047-0.453
		c-0.219-0.089-0.286-0.167-0.286-0.359c0-0.146,0.073-0.349,0.151-0.443c0.078-0.104,0.146-0.339,0.146-0.51
		c0.005-0.172,0.042-0.318,0.094-0.318c0.047,0,0.224-0.219,0.401-0.479c0.182-0.276,0.38-0.479,0.484-0.479
		c0.109,0,0.224-0.135,0.323-0.365c0.146-0.354,0.146-0.354-0.094-0.385c-0.125-0.021-0.25-0.089-0.281-0.167
		c-0.083-0.224-1.464-0.516-2.885-0.604c-0.594-0.031-1.307-0.104-1.599-0.156c-0.292-0.057-1.036-0.141-1.646-0.203
		c-0.609-0.052-1.562-0.198-2.125-0.307c-1.516-0.302-2.688-0.51-3.297-0.604c-0.292-0.042-0.62-0.12-0.724-0.172
		c-0.099-0.057-0.438-0.125-0.745-0.167c-0.302-0.031-0.734-0.141-0.958-0.229c-0.318-0.13-0.76-0.172-2.292-0.182l-1.896-0.026
		l-1.214,0.417c-1.328,0.443-1.698,0.604-1.99,0.865c-0.109,0.094-0.505,0.286-0.875,0.417c-0.38,0.141-0.828,0.323-1,0.396
		c-0.177,0.068-0.37,0.135-0.438,0.135c-0.068,0.005-0.292,0.083-0.505,0.188c-0.214,0.104-0.438,0.177-0.495,0.188
		c-0.062,0-0.245,0.068-0.406,0.151c-0.526,0.25-3.24,0.979-3.667,0.979c-0.005,0-0.005,0-0.005,0c-0.109,0-0.521,0.083-0.917,0.182
		c-0.396,0.104-0.927,0.188-1.193,0.188c-0.005,0-0.005,0-0.01,0s-0.016,0-0.021,0c-0.266,0-0.516,0.036-0.573,0.089
		c-0.125,0.125-1.354,0.443-2.365,0.609c-0.453,0.073-1.068,0.198-1.359,0.271c-0.292,0.073-0.792,0.177-1.115,0.224
		c-0.318,0.052-0.755,0.135-0.969,0.193c-0.208,0.057-0.531,0.104-0.724,0.104c-0.005,0-0.01,0-0.01,0c-0.005,0-0.005,0-0.005,0
		c-0.312,0-0.854,0.214-1.464,0.604c-0.125,0.078-0.531,0.245-0.901,0.391c-0.38,0.141-0.854,0.328-1.068,0.422
		c-0.214,0.099-0.438,0.193-0.49,0.203c-0.531,0.188-1.661,0.943-1.974,1.307c-0.438,0.536-0.76,0.792-1.344,1.057
		c-0.104,0.047-0.609,0.276-1.115,0.516c-0.505,0.224-1.042,0.464-1.188,0.521c-0.167,0.068-0.417,0.104-0.641,0.104
		c-0.203,0-0.391-0.031-0.484-0.083c-0.026-0.021-0.068-0.026-0.115-0.026c-0.078,0-0.172,0.021-0.271,0.068
		c-0.135,0.068-0.745,0.161-1.349,0.214c-0.698,0.052-1.182,0.135-1.328,0.229c-0.141,0.094-0.432,0.151-0.734,0.151
		c-0.005,0-0.016,0-0.021,0c-0.552-0.005-0.755-0.13-0.875-0.568c-0.047-0.135-0.115-0.203-0.24-0.203
		c-0.104,0-0.25,0.047-0.469,0.13c-0.177,0.073-0.594,0.141-0.927,0.141c-0.01,0-0.016,0-0.021,0
		c-0.531-0.005-0.651-0.047-1.031-0.349c-0.677-0.516-0.88-1.432-0.432-1.911c0.214-0.224,1.094-0.635,1.359-0.635
		c0.073,0,0.292-0.047,0.484-0.104c0.401-0.104,0.479-0.297,0.229-0.625c-0.219-0.302-0.188-1.219,0.068-1.526
		c0.167-0.208,0.198-0.333,0.151-0.646c-0.083-0.521,0.094-1.089,0.396-1.328l0.245-0.193l-0.24-0.365
		c-0.25-0.359-0.328-1.047-0.182-1.432c0.182-0.448,1.719-0.792,3.115-0.792c0.427,0,0.839,0.031,1.198,0.099
		c0.292,0.062,1.219,0.193,2.073,0.307l1.547,0.188l0.677-0.266c0.37-0.141,0.839-0.292,1.021-0.328
		c0.438-0.089,1.26-0.349,1.943-0.615c1.146-0.443,3.286-1.151,4.052-1.328c0.448-0.094,1.13-0.333,1.505-0.51
		c0.917-0.427,2.234-0.922,3.37-1.271c0.505-0.146,1.224-0.385,1.594-0.516c0.365-0.13,0.839-0.245,1.042-0.245h0.005h0.005
		c0.484,0,1.198-0.307,1.266-0.557c0.052-0.214,0.792-0.615,1.427-0.76c0.245-0.068,0.651-0.219,0.927-0.344
		c0.453-0.219,0.958-0.37,2.182-0.667c0.698-0.167,1.271-0.328,2.62-0.734c0.609-0.188,1.495-0.422,1.969-0.526
		c0.464-0.099,1.135-0.318,1.505-0.469c0.635-0.286,2.094-0.531,2.958-0.531c0.135,0,0.255,0.005,0.354,0.016
		c0.833,0.12,3.714,0.229,5.271,0.229c0.484,0,0.839-0.01,0.974-0.036c1.318-0.219,2.109-0.271,5.188-0.271
		c0.417,0,0.88,0,1.396,0.005c1.042,0.005,1.87,0.01,2.521,0.01c2.672,0,2.484-0.125,2.724-0.964
		c0.146-0.531,0.266-0.745,0.656-1.135c0.266-0.26,0.547-0.583,0.635-0.708s0.271-0.281,0.406-0.339
		c0.469-0.198,0.948-0.568,1.115-0.859c0.115-0.193,0.224-0.729,0.318-1.5c0.271-2.297,0.531-3.214,1.156-4.172
		c0.188-0.276,0.432-0.76,0.562-1.078c0.292-0.74,0.844-1.625,1.125-1.844c0.125-0.094,0.333-0.344,0.469-0.552
		c0.245-0.385,0.604-0.594,2.266-1.344c0.557-0.25,1.385-0.375,2.177-0.375c0.839,0,1.641,0.141,2.052,0.417
		c0.203,0.135,0.438,0.245,0.521,0.245c0.089,0,0.38,0.125,0.641,0.292c0.25,0.156,0.479,0.297,0.51,0.297
		c0.104,0,0.406-0.385,0.625-0.807c0.323-0.615,0.557-0.818,1.234-1.062c0.312-0.115,0.75-0.323,0.953-0.464
		c0.203-0.135,0.427-0.25,0.49-0.25c0.068,0,0.417-0.161,0.786-0.349l0.677-0.354l1.698-0.005
		C142.126,28.128,142.256,28.128,142.376,28.128z"/>
	<path fill="#351137" d="M195.264,77.799c0.085,0,0.497,0.432,0.497,0.516c0,0.05,0.046,0.17,0.104,0.27
		c0.15,0.293,0.555,1.661,0.559,1.896c0,0.123-0.027,0.308-0.062,0.42c-0.035,0.116-0.131,0.451-0.216,0.747
		c-0.085,0.293-0.173,0.601-0.208,0.678c-0.039,0.081-0.15,0.351-0.254,0.609c-0.17,0.428-0.27,0.643-0.324,0.643
		s-0.062-0.223-0.05-0.674c0.019-0.482,0.065-0.859,0.123-0.967c0.062-0.119,0.1-0.52,0.119-1.248
		c0.012-0.936-0.004-1.129-0.135-1.53c-0.089-0.247-0.154-0.505-0.154-0.57c0-0.069-0.054-0.185-0.112-0.262
		c-0.127-0.162-0.139-0.328-0.023-0.443C195.179,77.834,195.237,77.799,195.264,77.799z M202.076,84.361
		c0.112,0,0.393,0.297,0.613,0.64l0.139,0.235l-0.158,0.004c-0.25,0-0.801-0.801-0.609-0.875
		C202.064,84.361,202.072,84.361,202.076,84.361z M195.391,86.935c0.042,0,0.081,0.031,0.081,0.073c0,0.035-0.015,0.069-0.031,0.069
		c-0.019,0-0.054-0.035-0.077-0.069C195.341,86.966,195.356,86.935,195.391,86.935z M187.989,72.883
		c-0.709,0-1.117,0.027-1.364,0.092c-0.216,0.05-0.844,0.193-1.395,0.301c-0.905,0.181-1.499,0.401-1.849,0.678
		c-0.042,0.039-0.2,0.089-0.358,0.112c-0.435,0.081-1.572,0.898-1.865,1.333c-0.135,0.197-0.239,0.412-0.239,0.474
		c0,0.058-0.062,0.231-0.139,0.374c-0.081,0.15-0.143,0.316-0.143,0.366c0,0.127-0.266,0.929-0.412,1.221
		c-0.324,0.659-0.566,2.855-0.408,3.726c0.173,0.932,0.173,0.975,0.039,1.333c-0.069,0.185-0.22,0.485-0.324,0.667
		c-0.539,0.89-0.624,1.067-0.697,1.426c-0.092,0.443-0.05,0.959,0.092,1.121c0.05,0.058,0.32,0.22,0.59,0.343l0.505,0.239
		l0.012,0.424c0.015,0.312,0.062,0.47,0.177,0.62c0.085,0.104,0.158,0.254,0.158,0.328c0.004,0.285,0.227,0.69,0.428,0.774
		c0.304,0.119,0.485,0.408,0.532,0.859c0.062,0.485,0.25,0.898,0.516,1.087c0.15,0.108,0.262,0.139,0.705,0.139
		c0.089,0,0.185,0,0.297-0.004l0.805-0.004l0.674-0.343c0.374-0.189,0.721-0.389,0.786-0.439c0.127-0.119,0.416-0.204,0.624-0.204
		c0.058,0,0.108,0.004,0.146,0.019c0.089,0.035,0.42,0.304,0.744,0.609c0.482,0.451,0.636,0.667,0.948,1.264
		c0.343,0.651,0.505,1.152,0.617,1.934c0.046,0.285,0.031,0.324-0.258,0.632c-0.173,0.189-0.509,0.466-0.736,0.636
		c-0.462,0.331-0.944,0.805-1.01,0.998c-0.046,0.166-0.632,0.497-1.06,0.609c-1.618,0.412-2.25,0.774-2.566,1.476
		c-0.066,0.135-0.185,0.366-0.27,0.509c-0.466,0.798-0.617,1.067-0.755,1.426c-0.085,0.216-0.212,0.524-0.281,0.682
		c-0.062,0.158-0.189,0.574-0.274,0.929c-0.081,0.351-0.193,0.801-0.25,1.002c-0.054,0.193-0.143,0.609-0.2,0.917
		c-0.081,0.435-0.166,0.659-0.412,1.036c-0.177,0.266-0.412,0.647-0.516,0.848c-0.116,0.193-0.297,0.532-0.416,0.74
		c-0.116,0.208-0.285,0.485-0.362,0.616c-0.085,0.127-0.177,0.308-0.204,0.393c-0.027,0.092-0.15,0.293-0.277,0.459
		c-0.181,0.25-0.466,0.817-0.994,2.015c-0.054,0.116-0.119,0.293-0.139,0.393c-0.062,0.243-0.47,1.141-0.886,1.919l-0.123,0.239
		l-0.108-0.158c-0.066-0.085-0.354-0.397-0.643-0.694c-0.285-0.297-0.744-0.767-1.002-1.036c-0.258-0.274-0.62-0.62-0.801-0.778
		c-0.412-0.366-1.233-1.395-1.684-2.115c-0.197-0.312-0.393-0.574-0.443-0.593c-0.085-0.031-0.967-1.322-0.971-1.406
		c0-0.023-0.131-0.22-0.281-0.447c-0.451-0.647-1.075-1.892-1.129-2.25c-0.035-0.22-0.015-0.447,0.046-0.67
		c0.062-0.185,0.123-0.628,0.143-0.979c0.019-0.358,0.089-0.821,0.143-1.036c0.058-0.216,0.104-0.616,0.1-0.886
		c-0.004-0.443-0.031-0.543-0.285-0.975c-0.154-0.266-0.304-0.586-0.335-0.721c-0.031-0.127-0.081-0.27-0.112-0.304
		c-0.027-0.042-0.073-0.223-0.104-0.401c-0.027-0.177-0.139-0.512-0.254-0.747c-0.108-0.227-0.227-0.578-0.25-0.763
		c-0.031-0.22-0.139-0.462-0.285-0.659c-0.197-0.274-0.254-0.312-0.493-0.312c-0.004,0-0.012,0-0.015,0
		c-0.25,0.004-0.335,0.046-0.601,0.328c-0.193,0.204-0.274,0.277-0.358,0.277c-0.031,0-0.065-0.012-0.104-0.031
		c-0.069-0.039-0.216-0.054-0.381-0.054c-0.339,0-0.774,0.065-0.886,0.17c-0.085,0.077-0.254,0.116-0.563,0.119
		c-0.408,0-0.466,0.023-0.694,0.247c-0.135,0.135-0.25,0.281-0.25,0.324c0.004,0.042-0.069,0.077-0.146,0.081
		c-0.089,0-0.274,0.073-0.424,0.15c-0.285,0.162-0.293,0.189-0.462,1.048c-0.015,0.092-0.116,0.177-0.266,0.231
		c-0.52,0.173-0.566,0.724-0.22,2.72c0.089,0.512,0.193,0.778,0.701,1.745c0.443,0.859,0.694,1.248,1.021,1.595
		c0.239,0.258,0.485,0.578,0.551,0.713s0.208,0.339,0.316,0.459c0.116,0.116,0.32,0.405,0.459,0.64
		c0.135,0.235,0.42,0.713,0.628,1.067c0.482,0.782,0.801,1.395,0.801,1.507c0,0.135,0.509,1.148,0.682,1.36
		c0.089,0.104,0.27,0.432,0.401,0.724c0.32,0.682,0.778,1.599,0.967,1.919c0.081,0.135,0.197,0.37,0.247,0.52
		c0.054,0.143,0.177,0.37,0.27,0.497c0.1,0.123,0.239,0.358,0.312,0.512c0.073,0.158,0.293,0.555,0.485,0.89
		c0.197,0.331,0.451,0.782,0.559,0.994c0.119,0.212,0.32,0.512,0.459,0.659c0.139,0.15,0.455,0.555,0.709,0.917
		c0.247,0.354,0.667,0.875,0.932,1.148c0.759,0.782,1.83,2.158,2.269,2.913c0.239,0.401,0.632,0.605,1.102,0.605
		c0.362,0,0.771-0.123,1.187-0.366c0.27-0.162,0.52-0.289,0.547-0.289c0.031,0,0.1-0.054,0.15-0.116
		c0.05-0.066,0.158-0.146,0.243-0.181c0.855-0.385,1.325-0.774,2.05-1.688c0.193-0.235,0.432-0.489,0.532-0.566
		c0.266-0.197,0.983-1.021,1.206-1.387c0.108-0.166,0.435-0.582,0.732-0.936c0.297-0.343,0.632-0.798,0.736-0.99
		c0.116-0.2,0.424-0.659,0.701-1.033c0.277-0.366,0.597-0.821,0.717-1.013c0.112-0.185,0.339-0.532,0.493-0.767
		c0.158-0.235,0.32-0.497,0.362-0.566c0.035-0.058,0.058-0.085,0.089-0.085c0.046,0,0.108,0.05,0.235,0.166
		c0.339,0.312,1.179,0.828,1.595,0.975c0.197,0.069,0.747,0.166,1.229,0.212c0.959,0.092,1.298,0.22,1.48,0.566
		c0.239,0.455,1.063,1.649,1.345,1.946c0.166,0.177,0.451,0.539,0.632,0.817c0.181,0.27,0.717,0.909,1.198,1.403
		c0.894,0.929,1.025,1.114,1.426,2.038c0.123,0.293,0.343,0.778,0.489,1.067c0.139,0.293,0.32,0.678,0.401,0.863l0.139,0.32
		l-0.274,0.089c-0.146,0.05-0.312,0.089-0.347,0.089c-0.046,0-0.258,0.081-0.474,0.181c-0.212,0.1-0.428,0.181-0.478,0.181
		s-0.243,0.081-0.443,0.17c-0.193,0.092-0.528,0.197-0.744,0.22c-0.212,0.031-0.42,0.081-0.462,0.123
		c-0.035,0.039-0.135,0.073-0.223,0.073c-0.127,0-0.852,0.2-1.356,0.381c-0.116,0.046-0.358,0.123-0.536,0.189
		c-0.177,0.062-0.408,0.177-0.512,0.247c-0.1,0.073-0.223,0.131-0.266,0.131c-0.042,0-0.2,0.065-0.343,0.146
		c-0.15,0.081-0.32,0.146-0.378,0.146c-0.066,0-0.177,0.05-0.258,0.108c-0.069,0.058-0.185,0.108-0.243,0.112
		c-0.058,0-0.227,0.066-0.378,0.143c-0.143,0.081-0.312,0.146-0.37,0.146s-0.358,0.131-0.659,0.297
		c-0.304,0.162-0.747,0.378-0.983,0.482c-0.235,0.1-0.709,0.37-1.048,0.601c-0.351,0.231-0.694,0.447-0.771,0.47
		c-0.243,0.077-1.229,0.628-1.753,0.975c-0.274,0.181-0.57,0.37-0.67,0.42c-0.1,0.042-0.37,0.247-0.605,0.447
		c-0.235,0.197-0.555,0.424-0.713,0.512c-0.277,0.154-0.979,0.651-1.16,0.836c-0.166,0.166-0.678,0.501-1.063,0.694
		c-0.2,0.108-0.62,0.443-0.932,0.751c-0.304,0.308-0.64,0.632-0.732,0.713c-0.254,0.231-0.489,0.509-0.489,0.582
		c0,0.035-0.108,0.1-0.235,0.15c-0.235,0.089-0.478,0.447-0.474,0.717c0,0.066-0.069,0.239-0.154,0.374
		c-0.227,0.358-0.397,0.74-0.628,1.41c-0.223,0.651-0.243,0.832-0.108,1.094c0.062,0.1,0.127,0.293,0.15,0.428
		c0.066,0.308,2.516,5.078,2.894,5.618c0.143,0.212,0.289,0.47,0.316,0.57c0.081,0.254,0.389,0.84,0.655,1.245
		c0.312,0.466,0.59,0.936,0.728,1.237c0.058,0.135,0.25,0.405,0.424,0.601c0.17,0.2,0.393,0.489,0.493,0.647
		c0.1,0.154,0.354,0.439,0.559,0.64c0.2,0.189,0.366,0.374,0.366,0.408c0,0.131,0.763,1.152,1.225,1.649
		c0.266,0.289,0.547,0.643,0.628,0.794c0.073,0.15,0.547,0.667,1.048,1.156c0.497,0.489,0.986,1.013,1.09,1.171
		c0.193,0.304,0.447,0.574,0.859,0.921c0.135,0.112,0.339,0.339,0.439,0.497c0.1,0.154,0.328,0.424,0.493,0.593
		c0.166,0.177,0.439,0.482,0.605,0.682c0.158,0.197,0.455,0.539,0.643,0.751c0.331,0.381,0.485,0.582,1.179,1.568
		c0.189,0.27,0.37,0.482,0.397,0.482c0.039,0,0.065,0.042,0.065,0.092c0,0.058,0.066,0.158,0.146,0.227
		c0.081,0.073,0.143,0.158,0.143,0.185c0.004,0.031,0.189,0.308,0.424,0.613c0.223,0.304,0.52,0.767,0.651,1.029
		c0.131,0.262,0.304,0.512,0.378,0.555c0.193,0.1,0.181,0.204-0.054,0.501c-0.116,0.135-0.22,0.308-0.25,0.374
		c-0.035,0.092-0.119,0.127-0.339,0.131h-0.297l0.046,0.301c0.062,0.435,0.062,0.42-0.015,0.736
		c-0.154,0.601-0.015,1.603,0.212,1.603c0.123,0,0.231,0.27,0.185,0.462c-0.023,0.1-0.077,0.181-0.116,0.181
		c-0.092,0-0.37,0.308-0.559,0.613c-0.158,0.25-0.173,0.836-0.035,1.106c0.073,0.15,0.381,0.354,0.655,0.443
		c0.058,0.023-0.092,0.366-0.424,0.983c-0.05,0.1-0.162,0.331-0.247,0.524c-0.092,0.185-0.22,0.393-0.289,0.459
		c-0.073,0.066-0.127,0.216-0.127,0.335c0,0.123-0.062,0.316-0.139,0.439c-0.077,0.119-0.143,0.335-0.139,0.485
		c0,0.158-0.05,0.385-0.112,0.52c-0.119,0.258-0.674,0.855-0.979,1.067c-0.1,0.062-0.358,0.281-0.563,0.474
		c-0.408,0.381-1.117,0.936-1.206,0.936c-0.035,0-0.154,0.15-0.27,0.339c-0.181,0.293-0.208,0.401-0.208,0.844
		c0.004,0.277,0.042,0.543,0.077,0.578c0.042,0.042,0.112,0.262,0.146,0.489c0.092,0.536,0.2,0.686,0.69,0.959
		c0.289,0.162,0.374,0.208,0.694,0.208c0.123,0,0.285-0.008,0.509-0.015c0.489-0.027,0.875-0.081,0.983-0.139
		c0.1-0.058,0.32-0.123,0.501-0.154c0.493-0.073,1.156-0.27,1.464-0.432c0.158-0.077,0.343-0.143,0.412-0.146
		c0.073,0,0.316-0.116,0.536-0.254c0.227-0.127,0.559-0.281,0.751-0.331c0.227-0.062,0.42-0.17,0.605-0.37
		c0.193-0.193,0.37-0.304,0.59-0.354c0.424-0.096,0.616-0.239,0.736-0.536c0.112-0.262,0.42-0.466,0.721-0.466
		c0.243-0.004,0.447-0.119,0.655-0.362c0.092-0.116,0.343-0.304,0.563-0.428c0.212-0.131,0.412-0.281,0.435-0.347
		c0.019-0.058,0.197-0.177,0.381-0.266c0.189-0.081,0.493-0.297,0.686-0.478c0.185-0.177,0.489-0.389,0.678-0.455
		c0.385-0.15,1.194-0.667,1.194-0.767c0-0.035,0.343-0.231,0.771-0.439c0.42-0.204,0.879-0.478,1.013-0.609
		c0.135-0.127,0.497-0.397,0.813-0.59c0.304-0.197,0.609-0.443,0.69-0.543c0.069-0.1,0.397-0.374,0.732-0.597
		c1.017-0.694,1.503-1.295,1.495-1.861c0-0.304-0.031-0.362-0.289-0.582c-0.158-0.135-0.366-0.262-0.466-0.289
		c-0.104-0.023-0.239-0.058-0.304-0.077c-0.069-0.015-0.127-0.092-0.131-0.177c0-0.077-0.05-0.227-0.1-0.328
		c-0.058-0.108-0.17-0.312-0.235-0.462s-0.25-0.378-0.412-0.497c-0.15-0.127-0.432-0.439-0.605-0.709
		c-0.393-0.57-1.742-1.93-2.15-2.169c-0.158-0.092-0.485-0.351-0.721-0.57c-0.566-0.528-0.74-0.636-1.036-0.636c0,0-0.004,0-0.008,0
		c-0.008,0-0.015,0-0.023,0c-0.274,0-0.339-0.046-0.474-0.281c-0.05-0.1-0.347-0.512-0.659-0.925
		c-0.312-0.412-0.667-0.936-0.798-1.171s-0.354-0.563-0.497-0.724c-0.401-0.455-0.586-0.709-0.59-0.809
		c0-0.05-0.042-0.143-0.092-0.2c-0.089-0.104-0.805-1.272-1.075-1.745c-0.274-0.493-1.01-1.957-1.01-2.015
		c0-0.042-0.146-0.243-0.32-0.447c-0.173-0.212-0.339-0.462-0.37-0.563c-0.027-0.096-0.108-0.304-0.181-0.462
		c-0.277-0.597-0.358-0.794-0.497-1.245c-0.081-0.254-0.17-0.628-0.2-0.821c-0.031-0.197-0.096-0.462-0.154-0.597
		c-0.058-0.127-0.104-0.328-0.104-0.443c-0.004-0.304-0.339-1.218-0.774-2.092c-0.096-0.2-0.177-0.412-0.177-0.478
		c0-0.062-0.035-0.143-0.081-0.162c-0.035-0.027-0.15-0.227-0.25-0.447c-0.104-0.227-0.212-0.459-0.25-0.512
		c-0.035-0.058-0.166-0.277-0.289-0.478c-0.123-0.204-0.281-0.412-0.354-0.462c-0.066-0.046-0.208-0.231-0.312-0.408
		c-0.274-0.462-1.641-2.108-2.058-2.485c-0.347-0.32-0.674-0.751-0.674-0.917c0-0.143,0.64-0.374,1.314-0.478
		c0.293-0.05,0.563-0.081,0.655-0.081c0.015,0,0.027,0,0.031,0.004c0.004,0,0.019,0,0.042,0c0.119,0,0.47-0.027,0.859-0.081
		c0.744-0.096,9.251-0.393,11.898-0.412l0.732-0.004v-0.208c-0.004-0.208,0.119-0.293,0.574-0.397l0.181-0.039l-0.008,2.05
		c-0.004,1.129,0.019,2.3,0.042,2.605c0.062,0.647,0.135,0.778,0.747,0.778c0.092,0,0.193-0.004,0.312-0.008
		c0.177-0.008,0.32-0.012,0.435-0.012c0.455,0,0.474,0.081,0.478,0.428c0,0.193,0.069,0.536,0.143,0.755
		c0.081,0.227,0.162,0.563,0.189,0.747c0.023,0.185,0.077,0.358,0.119,0.378c0.035,0.027,0.065,0.135,0.065,0.243
		c0.004,0.208,0.385,1.403,0.551,1.715c0.108,0.216,0.374,0.89,0.439,1.141c0.023,0.1,0.073,0.243,0.108,0.32
		c0.039,0.077,0.162,0.412,0.285,0.747c0.274,0.763,0.586,1.51,0.67,1.595c0.039,0.042,0.066,0.112,0.069,0.17
		c0,0.085,0.27,0.67,0.435,0.94c0.035,0.058,0.166,0.347,0.297,0.64s0.331,0.724,0.439,0.959s0.27,0.636,0.358,0.89
		c0.212,0.62,0.566,1.36,0.69,1.453c0.058,0.042,0.189,0.312,0.293,0.597c0.1,0.293,0.32,0.724,0.474,0.967
		c0.158,0.25,0.289,0.478,0.289,0.52c0,0.035,0.116,0.247,0.254,0.474c0.139,0.227,0.254,0.451,0.254,0.493
		c0,0.035,0.254,0.432,0.566,0.879c0.304,0.451,0.593,0.867,0.628,0.932c0.805,1.256,1.761,2.343,2.312,2.601
		c0.158,0.077,0.304,0.162,0.324,0.185c0.023,0.027,0.158,0.104,0.304,0.177c0.15,0.077,0.474,0.231,0.717,0.351
		c0.408,0.204,1.341,0.516,1.514,0.516h0.004c0.058,0,1.495,0.686,2.177,1.04c0.069,0.035,0.277,0.127,0.459,0.197
		c0.663,0.25,0.979,0.397,1.26,0.59c0.501,0.339,1.09,0.705,1.137,0.705c0.05,0,0.374,0.212,0.94,0.628
		c0.239,0.17,0.597,0.408,0.809,0.528c0.208,0.119,0.574,0.37,0.813,0.551c0.243,0.193,0.451,0.339,0.466,0.339
		s0.478,0.297,1.029,0.655c0.547,0.354,1.175,0.728,1.391,0.828c0.216,0.096,0.459,0.243,0.539,0.331
		c0.077,0.085,0.374,0.266,0.647,0.416c0.281,0.139,0.605,0.308,0.721,0.378c0.119,0.069,0.301,0.143,0.408,0.17
		c0.1,0.019,0.501,0.247,0.89,0.501c0.389,0.254,0.728,0.459,0.751,0.459c0.027,0,0.285,0.173,0.582,0.385
		c0.293,0.212,0.836,0.539,1.202,0.721c0.466,0.231,0.724,0.401,0.84,0.566c0.089,0.135,0.462,0.485,0.836,0.786
		c0.378,0.301,0.832,0.69,1.01,0.867c0.801,0.751,1.272,1.171,1.429,1.268c0.231,0.15,1.826,1.699,2.431,2.374
		c0.555,0.617,0.717,0.867,0.79,1.26l0.054,0.254l-0.316-0.062c-0.204-0.035-0.393-0.054-0.555-0.054
		c-0.223,0-0.393,0.035-0.462,0.112c-0.065,0.058-0.135,0.239-0.154,0.385l-0.042,0.274l-0.266-0.092
		c-0.143-0.046-0.366-0.146-0.501-0.216c-0.108-0.054-0.208-0.077-0.297-0.077c-0.316,0-0.482,0.293-0.193,0.574
		c0.092,0.092,0.331,0.223,0.524,0.297c0.2,0.069,0.408,0.166,0.466,0.208c0.166,0.127,0.817,0.243,1.383,0.247
		c0.015,0,0.027,0,0.039,0c0.354,0,0.539,0.042,0.694,0.139c0.123,0.069,0.266,0.154,0.324,0.173
		c0.986,0.401,1.013,0.428,1.264,1.106c0.066,0.185,0.274,0.597,0.478,0.917c0.197,0.32,0.354,0.597,0.354,0.62
		c0.004,0.019,0.119,0.27,0.258,0.555c0.139,0.281,0.254,0.566,0.254,0.632c0,0.143,0.459,0.898,0.617,1.029
		c0.1,0.089,0.543,0.917,0.543,1.033c0.004,0.023,0.089,0.227,0.193,0.447c0.327,0.697,0.613,1.383,0.84,2.046
		c0.123,0.347,0.247,0.705,0.285,0.782c0.451,1.036,0.763,1.522,1.295,1.988c0.181,0.154,0.397,0.347,0.493,0.432
		c0.139,0.127,0.455,0.2,0.848,0.2c0.146,0,0.304-0.012,0.47-0.031c0.601-0.077,1.291-0.524,1.915-1.245
		c0.512-0.59,0.732-0.983,0.821-1.476c0.027-0.15,0.092-0.335,0.139-0.416c0.066-0.085,0.1-0.343,0.096-0.705
		c-0.004-0.459,0.023-0.601,0.131-0.717c0.27-0.308,0.37-1.052,0.204-1.53c-0.062-0.17-0.054-0.293,0.039-0.563
		c0.139-0.416,0.092-0.767-0.154-1.264c-0.108-0.227-0.154-0.393-0.119-0.462c0.143-0.274,0.154-0.709,0.035-0.979
		c-0.073-0.158-0.154-0.543-0.185-0.871c-0.039-0.328-0.104-0.64-0.154-0.705c-0.066-0.069-0.112-0.378-0.131-0.836
		c-0.015-0.389-0.062-0.79-0.104-0.882c-0.066-0.119-0.069-0.22-0.004-0.401c0.104-0.301,0.096-1.337-0.012-1.576
		c-0.066-0.143-0.069-0.285,0-0.636c0.069-0.374,0.069-0.582-0.031-1.264c-0.197-1.322-0.239-1.499-0.516-2.073
		c-0.451-0.925-0.697-1.067-2.2-1.256c-0.717-0.092-1.395-0.281-1.938-0.539c-0.374-0.177-0.474-0.193-1.757-0.231
		c-2.327-0.062-2.709-0.15-3.302-0.759c-0.52-0.539-0.821-0.794-1.094-0.929c-0.108-0.054-0.412-0.331-0.663-0.609
		c-0.254-0.277-0.497-0.501-0.547-0.501h-0.004c-0.042,0-0.17-0.092-0.285-0.212c-0.108-0.116-0.312-0.243-0.439-0.285
		c-0.166-0.054-0.324-0.212-0.57-0.566c-0.393-0.582-0.636-0.828-1.287-1.31c-0.258-0.197-0.474-0.389-0.474-0.424
		c-0.008-0.116-0.682-0.959-0.998-1.248c-0.154-0.143-0.52-0.512-0.817-0.817c-0.297-0.304-0.636-0.628-0.755-0.728
		c-0.447-0.37-1.495-1.476-1.726-1.815c-0.139-0.2-0.435-0.532-0.667-0.751c-0.239-0.22-0.547-0.566-0.701-0.786
		c-0.397-0.563-1.183-1.322-1.564-1.51c-0.181-0.085-0.57-0.374-0.859-0.628c-0.293-0.262-0.748-0.574-1.006-0.701
		c-0.258-0.123-0.505-0.258-0.547-0.308c-0.035-0.05-0.374-0.212-0.732-0.366c-0.366-0.146-0.755-0.335-0.863-0.408
		c-0.116-0.069-0.412-0.231-0.67-0.358c-0.532-0.258-0.84-0.435-1.264-0.724c-0.166-0.112-0.455-0.231-0.64-0.274
		c-0.197-0.042-0.462-0.162-0.605-0.274c-0.339-0.254-0.489-0.331-0.805-0.389c-0.335-0.054-0.863-0.393-1.079-0.682
		c-0.181-0.25-0.285-0.782-0.439-2.169c-0.039-0.354-0.108-0.755-0.143-0.89c-0.039-0.135-0.089-0.393-0.119-0.57
		c-0.023-0.177-0.089-0.462-0.15-0.64c-0.05-0.181-0.119-0.771-0.15-1.322c-0.104-1.961-0.212-3.098-0.312-3.344
		c-0.062-0.135-0.112-0.42-0.116-0.628c0-0.208-0.039-0.509-0.081-0.663c-0.039-0.158-0.119-0.543-0.173-0.855
		c-0.058-0.316-0.154-0.801-0.231-1.071c-0.065-0.277-0.162-0.674-0.212-0.89c-0.069-0.27-0.092-0.813-0.085-1.742
		c0.004-1.071-0.012-1.391-0.1-1.549c-0.146-0.285-0.181-4.169-0.031-4.227c0.069-0.027,0.104-0.27,0.135-0.886
		c0.077-1.422,0.089-1.584,0.2-3.048c0.096-1.379,0.092-1.765-0.066-2.793c-0.104-0.69-0.432-1.957-0.555-2.15
		c-0.058-0.085-0.1-0.25-0.104-0.366c0-0.277-0.389-1.295-0.713-1.857c-0.162-0.289-0.543-0.751-1.006-1.214
		c-0.67-0.678-0.786-0.763-1.26-0.944l-0.524-0.197l-0.466-0.774c-0.47-0.79-0.636-0.967-1.322-1.41
		c-0.208-0.135-0.613-0.474-0.902-0.751c-0.289-0.277-0.655-0.586-0.828-0.701c-0.173-0.104-0.389-0.262-0.489-0.331
		c-0.1-0.069-0.301-0.189-0.447-0.254c-0.351-0.166-0.848-0.57-0.848-0.694c-0.004-0.054-0.031-0.154-0.073-0.227
		c-0.17-0.289-0.728-1.53-0.732-1.607c0-0.042-0.05-0.158-0.116-0.243c-0.058-0.085-0.212-0.432-0.327-0.774
		c-0.277-0.778-0.59-1.429-0.794-1.638c-0.266-0.281-0.694-1.599-0.771-2.408c-0.023-0.277-0.092-0.69-0.15-0.925
		s-0.127-0.543-0.146-0.678c-0.031-0.135-0.112-0.42-0.193-0.628c-0.073-0.204-0.139-0.462-0.139-0.57
		c-0.004-0.104-0.046-0.335-0.108-0.512c-0.227-0.713-0.328-1.125-0.374-1.495c-0.023-0.216-0.092-0.493-0.15-0.605
		c-0.216-0.462-0.351-0.948-0.381-1.426c-0.023-0.277-0.069-0.543-0.112-0.593c-0.058-0.062-0.023-0.085,0.15-0.085
		c0.119,0,0.22-0.031,0.22-0.058c0-0.039,0.05-0.123,0.108-0.204c0.027-0.035,0.046-0.058,0.062-0.058
		c0.031,0,0.035,0.119,0.027,0.451c-0.012,0.455,0.027,0.64,0.2,0.64c0.085,0,0.204-0.042,0.362-0.123
		c0.37-0.181,0.605-0.516,0.601-0.859c0-0.139,0.004-0.197,0.046-0.197c0.019,0,0.05,0.015,0.089,0.039
		c0.085,0.042,0.177,0.066,0.262,0.066c0.119,0,0.231-0.042,0.297-0.127c0.239-0.304,0.389-0.732,0.351-0.994
		c-0.092-0.578-0.15-0.778-0.274-0.913c-0.073-0.077-0.154-0.301-0.181-0.497c-0.046-0.331-0.112-0.493-0.489-1.291
		c-0.073-0.162-0.327-0.455-0.566-0.659c-0.239-0.204-0.432-0.412-0.432-0.47c0-0.046-0.081-0.139-0.181-0.204
		c-0.239-0.154-0.231-0.247,0.035-0.335c0.162-0.065,0.212-0.123,0.212-0.266c0-0.108-0.054-0.258-0.112-0.328
		c-0.058-0.077-0.108-0.25-0.108-0.378c-0.004-0.127-0.031-0.235-0.069-0.235c-0.035,0-0.166-0.162-0.297-0.354
		c-0.135-0.204-0.281-0.354-0.358-0.354c-0.081,0-0.166-0.1-0.239-0.27c-0.108-0.262-0.108-0.262,0.069-0.285
		c0.092-0.015,0.185-0.066,0.208-0.123c0.062-0.166,1.083-0.381,2.135-0.447c0.439-0.023,0.967-0.077,1.183-0.116
		c0.216-0.042,0.767-0.104,1.218-0.15c0.451-0.039,1.156-0.146,1.572-0.227c1.121-0.223,1.988-0.378,2.439-0.447
		c0.216-0.031,0.459-0.089,0.536-0.127c0.073-0.042,0.324-0.092,0.551-0.123c0.223-0.023,0.543-0.104,0.709-0.17
		c0.235-0.096,0.563-0.127,1.695-0.135l1.403-0.019L220,91.809c0.983,0.328,1.256,0.447,1.472,0.64
		c0.081,0.069,0.374,0.212,0.647,0.308c0.281,0.104,0.613,0.239,0.74,0.293c0.131,0.05,0.274,0.1,0.324,0.1
		c0.05,0.004,0.216,0.062,0.374,0.139s0.324,0.131,0.366,0.139c0.046,0,0.181,0.05,0.301,0.112c0.389,0.185,2.397,0.724,2.713,0.724
		c0.004,0,0.004,0,0.004,0c0.081,0,0.385,0.062,0.678,0.135c0.293,0.077,0.686,0.139,0.882,0.139c0.004,0,0.004,0,0.008,0
		s0.012,0,0.015,0c0.197,0,0.381,0.027,0.424,0.066c0.092,0.092,1.002,0.328,1.749,0.451c0.335,0.054,0.79,0.146,1.006,0.2
		c0.216,0.054,0.586,0.131,0.825,0.166c0.235,0.039,0.559,0.1,0.717,0.143c0.154,0.042,0.393,0.077,0.536,0.077
		c0.004,0,0.008,0,0.008,0c0.004,0,0.004,0,0.004,0c0.231,0,0.632,0.158,1.083,0.447c0.092,0.058,0.393,0.181,0.667,0.289
		c0.281,0.104,0.632,0.243,0.79,0.312c0.158,0.073,0.324,0.143,0.362,0.15c0.393,0.139,1.229,0.697,1.46,0.967
		c0.324,0.397,0.563,0.586,0.994,0.782c0.077,0.035,0.451,0.204,0.825,0.381c0.374,0.166,0.771,0.343,0.879,0.385
		c0.123,0.05,0.308,0.077,0.474,0.077c0.15,0,0.289-0.023,0.358-0.062c0.019-0.015,0.05-0.019,0.085-0.019
		c0.058,0,0.127,0.015,0.2,0.05c0.1,0.05,0.551,0.119,0.998,0.158c0.516,0.039,0.875,0.1,0.983,0.17
		c0.104,0.069,0.32,0.112,0.543,0.112c0.004,0,0.012,0,0.015,0c0.408-0.004,0.559-0.096,0.647-0.42c0.035-0.1,0.085-0.15,0.177-0.15
		c0.077,0,0.185,0.035,0.347,0.096c0.131,0.054,0.439,0.104,0.686,0.104c0.008,0,0.012,0,0.015,0
		c0.393-0.004,0.482-0.035,0.763-0.258c0.501-0.381,0.651-1.06,0.32-1.414c-0.158-0.166-0.809-0.47-1.006-0.47
		c-0.054,0-0.216-0.035-0.358-0.077c-0.297-0.077-0.354-0.22-0.17-0.462c0.162-0.223,0.139-0.902-0.05-1.129
		c-0.123-0.154-0.146-0.247-0.112-0.478c0.062-0.385-0.069-0.805-0.293-0.983l-0.181-0.143l0.177-0.27
		c0.185-0.266,0.243-0.774,0.135-1.06c-0.135-0.331-1.272-0.586-2.304-0.586c-0.316,0-0.62,0.023-0.886,0.073
		c-0.216,0.046-0.902,0.143-1.534,0.227l-1.144,0.139l-0.501-0.197c-0.274-0.104-0.62-0.216-0.755-0.243
		c-0.324-0.066-0.932-0.258-1.437-0.455c-0.848-0.328-2.431-0.852-2.998-0.983c-0.331-0.069-0.836-0.247-1.114-0.378
		c-0.678-0.316-1.653-0.682-2.493-0.94c-0.374-0.108-0.905-0.285-1.179-0.381c-0.27-0.096-0.62-0.181-0.771-0.181h-0.004h-0.004
		c-0.358,0-0.886-0.227-0.936-0.412c-0.039-0.158-0.586-0.455-1.056-0.563c-0.181-0.05-0.482-0.162-0.686-0.254
		c-0.335-0.162-0.709-0.274-1.614-0.493c-0.516-0.123-0.94-0.243-1.938-0.543c-0.451-0.139-1.106-0.312-1.456-0.389
		c-0.343-0.073-0.84-0.235-1.114-0.347c-0.47-0.212-1.549-0.393-2.189-0.393c-0.1,0-0.189,0.004-0.262,0.012
		c-0.616,0.089-2.747,0.17-3.899,0.17c-0.358,0-0.62-0.008-0.721-0.027c-0.975-0.162-1.561-0.2-3.838-0.2
		c-0.308,0-0.651,0-1.033,0.004c-0.771,0.004-1.383,0.008-1.865,0.008c-1.977,0-1.838-0.092-2.015-0.713
		c-0.108-0.393-0.197-0.551-0.485-0.84c-0.197-0.193-0.405-0.432-0.47-0.524s-0.2-0.208-0.301-0.25
		c-0.347-0.146-0.701-0.42-0.825-0.636c-0.085-0.143-0.166-0.539-0.235-1.11c-0.2-1.699-0.393-2.377-0.855-3.086
		c-0.139-0.204-0.32-0.563-0.416-0.798c-0.216-0.547-0.624-1.202-0.832-1.364c-0.092-0.069-0.247-0.254-0.347-0.408
		c-0.181-0.285-0.447-0.439-1.676-0.994c-0.412-0.185-1.025-0.277-1.611-0.277c-0.62,0-1.214,0.104-1.518,0.308
		c-0.15,0.1-0.324,0.181-0.385,0.181c-0.066,0-0.281,0.092-0.474,0.216c-0.185,0.116-0.354,0.22-0.378,0.22
		c-0.077,0-0.301-0.285-0.462-0.597c-0.239-0.455-0.412-0.605-0.913-0.786c-0.231-0.085-0.555-0.239-0.705-0.343
		c-0.15-0.1-0.316-0.185-0.362-0.185c-0.05,0-0.308-0.119-0.582-0.258l-0.501-0.262l-1.256-0.004
		C188.174,72.883,188.078,72.883,187.989,72.883z"/>
	<path fill="#351137" d="M57.208,158.684c-49.455-9.578-25.403-65.965,37.896-96.003C49.568,93.476,5.923,139.908,57.208,158.684z"
		/>
</g>
</svg>
