<?xml version="1.0" encoding="utf-8"?>
<!-- Generator: Adobe Illustrator 24.3.0, SVG Export Plug-In . SVG Version: 6.00 Build 0)  -->
<svg version="1.1" id="Layer_1" xmlns="http://www.w3.org/2000/svg" xmlns:xlink="http://www.w3.org/1999/xlink" x="0px" y="0px"
	 viewBox="0 0 348.167 314.5" enable-background="new 0 0 348.167 314.5" xml:space="preserve">
<g>
	<polygon fill="#18164D" points="96.454,129.729 86.631,134.615 12.31,207.913 74.641,263.591 85.419,252.414 33.777,205.352 
		89.708,151.499 	"/>
	<polygon fill="#18164D" points="264.023,136.183 273.846,141.069 348.167,214.367 285.836,270.046 275.058,258.868 
		326.701,211.806 270.769,157.954 	"/>
	<path fill="#18164D" d="M199.875,295.274c-5.454,6.359-9.446,11.283-13.734,15.932c-4.044,4.384-11.33,4.333-15.447,0.199
		c-4.138-4.156-3.707-9.865,1.115-14.441c3.308-3.139,6.756-6.141,9.901-9.435c1.057-1.107,1.372-2.921,2.026-4.413
		c-0.602-0.435-1.205-0.871-1.807-1.306c-6.402,6.018-12.798,12.042-19.206,18.054c-5.234,4.91-11.238,5.516-17.331,1.771
		c-5.754-3.537-6.243-8.154-1.211-12.62c6.305-5.597,12.698-11.096,19.053-16.637c-0.36-0.684-0.721-1.368-1.081-2.052
		c-1.584,0.576-3.494,0.768-4.699,1.791c-6.794,5.771-13.495,11.658-20.074,17.673c-4.593,4.199-11.096,3.964-15.813-0.876
		c-4.657-4.779-4.875-11.657-0.234-15.791c7.252-6.46,14.711-12.687,21.97-19.139c1.339-1.19,2.146-2.98,3.199-4.494
		c-0.493-0.481-0.987-0.963-1.48-1.444c-1.651,1.113-3.426,2.08-4.932,3.363c-7.546,6.425-15.01,12.946-22.525,19.408
		c-4.787,4.116-13.068,2.526-18.188-3.451c-4.233-4.943-4.001-10.835,1.022-15.242c15.647-13.727,31.36-27.38,47.211-40.869
		c1.482-1.261,4.11-1.523,6.234-1.616c6.263-0.274,12.649,0.471,18.784-0.488c7.499-1.172,15.73,3.415,15.738,11.036
		c0.014,13.449,6.24,21.538,17.418,24.436c-2.508,5.889-4.933,11.585-7.359,17.282c0.491,0.304,0.981,0.608,1.472,0.912
		c-1.501,0.235-3.018,0.394-4.499,0.718c-10.406,2.273-14.164,14.268-6.728,22.204C191.884,289.167,195.85,291.892,199.875,295.274z
		"/>
	<path fill="#18164D" d="M266.812,222.795c-5.714-3.234-10.88-6.137-16.027-9.074c-9.625-5.493-20.02,0.253-20.541,11.369
		c-0.051,1.086-0.102,2.172-0.153,3.258c-0.457,0.074-0.915,0.148-1.372,0.221c-0.814-4.138-2.261-8.267-2.319-12.415
		c-0.148-10.548-4.308-18.576-13.002-24.544c-7.622-5.233-15.002-10.818-23.341-16.866c5.984-5.134,11.306-9.707,16.635-14.271
		c5.389-4.615,10.786-9.221,16.533-14.134c21.182,18.236,42.13,36.271,63.584,54.742
		C280.143,208.32,273.657,215.362,266.812,222.795z"/>
</g>
<g>
	<path fill="#262A6A" d="M0,188.92c13.976-11.853,30.309-15.342,47.662-17.756c0-2.007,0-3.903,0-5.8
		c0.003-20.594,0.1-41.189-0.079-61.781c-0.031-3.579,1.101-5.054,4.495-6.059c8.952-2.651,17.77-5.753,27.154-8.844
		c0,27.31,0,54.021,0,81.169c1.981,0.314,3.665,0.582,6.098,0.968c0-2.481,0-4.537,0-6.592c0.002-36.648,0.074-73.296-0.091-109.942
		c-0.019-4.164,0.965-6.3,5.139-7.742c11.916-4.116,23.609-8.878,35.495-13.087c1.744-0.618,4.473-0.245,6.048,0.762
		c6.821,4.357,13.501,8.963,19.962,13.837c1.744,1.316,2.54,3.888,3.771,5.884c-0.483,0.358-0.966,0.717-1.449,1.075
		c-8.165-5.341-16.329-10.683-25.251-16.519c0,4.825-0.267,8.689,0.142,12.48c0.146,1.355,1.677,2.987,3.003,3.716
		c6.377,3.509,12.83,6.902,19.404,10.025c3.034,1.442,4.244,3.234,2.842,7.123c-8.189-4.082-16.322-8.135-25.365-12.643
		c0,4.83-0.188,8.941,0.142,13.009c0.076,0.933,1.808,2.057,3,2.518c6.329,2.448,12.67,4.892,19.127,6.966
		c3.344,1.074,4.488,2.74,3.085,6.673c-8.186-2.73-16.36-5.457-25.377-8.464c0,4.461-0.211,8.423,0.146,12.333
		c0.091,0.999,1.852,2.365,3.063,2.656c6.287,1.51,12.632,2.792,18.982,4.019c3.071,0.594,4.774,1.828,3.141,5.864
		c-8.171-1.396-16.493-2.818-25.114-4.291c0,5.032,0,9.513,0,14.445c8.437,0.475,16.773,0.945,25.468,1.434
		c0.098,1.542,0.183,2.897,0.297,4.684c-8.69,0-17.041,0-25.677,0c0,4.994,0,9.578,0,14.425c8.52-0.958,16.695-1.877,25.049-2.817
		c1.17,3.709,1.199,5.853-3.577,6.183c-7.086,0.49-14.117,1.759-21.464,2.736c0,4.65,0,9.101,0,14.251
		c8.39-2.069,16.606-4.095,25.05-6.178c1.505,3.576,0.467,5.306-3.249,6.175c-6.137,1.435-12.143,3.435-18.286,4.837
		c-2.909,0.664-4.161,1.794-3.904,4.88c0.266,3.204,0.059,6.447,0.059,10.68c8.816-3.523,16.977-6.784,25.145-10.048
		c1.378,4.669,1.376,4.664-3.601,6.837c-2.938,1.283-5.867,2.587-9.941,4.386c6.622,1.394,12.05,2.536,18.169,3.824
		c0-2.464,0-4.357,0-6.251c-0.003-45.728,0.118-91.458-0.159-137.184c-0.037-6.08,1.8-9.612,6.912-12.849
		c11.624-7.359,22.854-15.35,34.109-23.275c2.526-1.779,4.613-2.134,7.514-1.011c15.682,6.067,31.392,12.073,47.207,17.781
		c3.6,1.3,4.457,3.15,4.45,6.715c-0.105,55.133-0.074,110.267-0.074,165.4c0,1.915,0,3.83,0,6.02c2.237,0,3.951,0,6.204,0
		c0-46.691,0-93.466,0-140.946c13.378,4.415,26.113,8.498,38.71,12.972c1.179,0.419,2.093,3.302,2.099,5.045
		c0.122,33.242,0.089,66.484,0.089,99.727c0,5.816,0,11.632,0,18.655c13.706-3.083,26.813-6.031,39.919-8.979
		c0.102,0.25,0.205,0.499,0.307,0.749c-10.02,3.431-19.857,7.589-30.092,10.166c-44.783,11.275-89.412,9.829-133.948-2.121
		c-37.623-10.095-75.772-17.338-114.941-16.922c-22.502,0.239-44.542,3.354-64.945,13.816C1.714,188.907,1.208,188.815,0,188.92z
		 M165.647,92.965c0,4.81,0,9.063,0,13.637c12.594-0.577,24.771-1.134,37.076-1.697c0-6.577,0-12.496,0-18.733
		C190.244,88.458,178.071,90.688,165.647,92.965z M202.774,138.44c-12.581-1.561-24.836-3.082-37.506-4.655
		c0,4.082-0.221,7.491,0.116,10.843c0.123,1.22,1.374,3.048,2.45,3.339c11.512,3.108,23.092,5.963,34.94,8.959
		C202.774,150.735,202.774,144.941,202.774,138.44z M165.252,45.838c12.624-6.576,24.332-12.651,35.997-18.806
		c0.725-0.383,1.583-1.376,1.6-2.103c0.134-5.517,0.073-11.04,0.073-17.412c-12.565,8.283-24.162,15.872-35.661,23.608
		c-1.003,0.675-1.823,2.281-1.92,3.519C165.08,37.99,165.252,41.371,165.252,45.838z M165.881,86.328
		c11.811-2.427,23.357-4.752,34.863-7.259c0.879-0.191,2.076-1.64,2.11-2.543c0.201-5.261,0.098-10.533,0.098-16.38
		c-9.756,3.308-18.77,6.343-27.769,9.421c-10.737,3.672-10.733,3.688-9.803,15.175C165.406,85.055,165.569,85.357,165.881,86.328z
		 M202.729,113.008c-12.277,0-24.598,0-37.08,0c0,4.962,0,9.222,0,13.61c12.516,1.455,24.647,2.866,37.08,4.312
		C202.729,124.653,202.729,118.871,202.729,113.008z M165.762,154.081c-1.8,12.729-1.768,12.79,9.042,17.256
		c2.385,0.986,4.772,1.968,7.163,2.938c6.817,2.766,13.636,5.526,20.745,8.406c0-6.561,0-12.493,0-18.511
		C190.382,160.804,178.277,157.499,165.762,154.081z M202.963,33.787c-12.603,6.385-24.233,12.231-35.787,18.221
		c-0.901,0.467-1.746,1.914-1.814,2.959c-0.226,3.46-0.086,6.945-0.086,11.036c12.384-4.512,24.011-8.702,35.578-13.051
		c0.914-0.344,1.978-1.763,2.015-2.719C203.068,45.095,202.963,39.947,202.963,33.787z M202.463,191.854
		c0.159-0.488,0.318-0.976,0.477-1.463c-12.347-5.356-24.695-10.711-37.27-16.166c-0.88,8.477-0.871,8.441,6.616,10.26
		c4.544,1.104,9.042,2.395,13.585,3.502C191.388,189.331,196.931,190.57,202.463,191.854z"/>
</g>
<g>
	<path fill="#005888" d="M144.24,208.265c-7.522,6.432-15.423,13.317-23.529,19.953c-0.997,0.816-3.665,1.018-4.586,0.283
		c-13.754-10.962-27.344-22.13-41.609-33.768c5.299-4.904,10.215-9.362,15.029-13.929c11.059-10.492,22.151-20.952,33.042-31.617
		c2.999-2.936,5.138-3.237,8.441-0.366c9.86,8.569,19.919,16.914,30.106,25.09c1.508,1.21,4.511,1.988,6.171,1.328
		c7.191-2.857,13.509-1.811,19.525,2.772c9.112,6.942,18.285,13.804,27.405,20.734c4.747,3.607,6.365,8.558,7.105,14.387
		c0.885,6.97,2.61,13.883,4.556,20.653c1.31,4.558-0.146,6.955-4.356,7.888c-14.362,3.184-27.104-6.333-28.058-20.829
		c-0.743-11.292-11.03-18.947-22.036-16.326c-8.206,1.954-16.02,1.142-23.702-2.456c-1.973-0.924-4.571-0.511-6.883-0.712
		C141.864,203.4,142.865,205.451,144.24,208.265z"/>
	<path fill="#005888" d="M231.314,281.938c-6.395,0.26-26.587-16.474-26.483-21.722c0.064-3.216,1.315-7.478,3.597-9.229
		c1.716-1.317,6.36-0.18,8.933,1.247c6.712,3.722,13.056,8.125,19.447,12.405c7.225,4.839,6.768,11.333-1.055,15.538
		C234.049,281.092,232.137,281.619,231.314,281.938z"/>
	<path fill="#005888" d="M212.916,301.884c-3.84-2.845-6.97-4.757-9.599-7.207c-3.754-3.498-7.103-7.427-10.695-11.104
		c-3.7-3.788-4.332-8.191-1.501-12.414c3.128-4.667,8.221-4.572,12.127-1.736c6.698,4.862,12.999,10.376,18.852,16.23
		c1.591,1.591,2.296,6.349,1.109,7.959C220.844,296.819,216.886,298.853,212.916,301.884z"/>
	<path fill="#005888" d="M270.461,232.929c-0.12,8.624-6.396,12.825-12.265,9.854c-6.178-3.128-12.3-6.421-18.175-10.08
		c-5.436-3.385-6.599-7.566-4.068-11.896c2.979-5.096,7.384-6.12,13.127-2.982c5.213,2.848,10.601,5.448,15.504,8.76
		C267.294,228.414,269.166,231.483,270.461,232.929z"/>
	<path fill="#005888" d="M220.716,247.839c8.051-1.737,11.383-5.884,11.852-12.993c8.212,4.498,16.019,8.559,23.594,13.014
		c3.835,2.255,4.064,7.691,0.97,11.322c-3.662,4.298-10.538,5.484-15.409,2.404C235.089,257.39,228.58,253,220.716,247.839z"/>
</g>
</svg>
