<?xml version="1.0" encoding="utf-8"?>
<!-- Generator: Adobe Illustrator 24.3.0, SVG Export Plug-In . SVG Version: 6.00 Build 0)  -->
<svg version="1.1" id="Layer_4" xmlns="http://www.w3.org/2000/svg" xmlns:xlink="http://www.w3.org/1999/xlink" x="0px" y="0px"
	 viewBox="0 0 217.651 242.733" enable-background="new 0 0 217.651 242.733" xml:space="preserve">
<g>
	<path fill="#FF1268" d="M153.509,167.564v21.807c0,18.048-14.629,32.717-32.586,32.717c-17.97,0-32.599-14.668-32.599-32.717
		v-21.807h21.729v21.807c0,6.003,4.881,10.897,10.871,10.897c5.99,0,10.858-4.894,10.858-10.897v-21.807H153.509z"/>
	<rect x="112.858" y="76.866" fill="#FF1268" width="8.065" height="8.091"/>
	<rect x="92.708" y="93.048" fill="#FF1268" width="8.065" height="8.091"/>
	<rect x="56.431" y="64.729" fill="#FF1268" width="8.061" height="8.095"/>
	<rect x="116.89" y="32.364" fill="#FF1268" width="8.065" height="8.091"/>
	<rect x="92.708" y="16.182" fill="#FF1268" width="8.065" height="8.091"/>
	<path fill="#FF1268" d="M161.222,84.957v8.091c0,6.695-5.429,12.137-12.084,12.137c-6.669,0-12.098-5.442-12.098-12.137v-8.091
		h8.065v8.091c0,2.232,1.801,4.046,4.033,4.046c2.219,0,4.032-1.814,4.032-4.046v-8.091H161.222z"/>
	<polygon fill="#FF1268" points="46.289,221.957 38.302,223.054 32.991,184.034 40.991,182.95 	"/>
	<polygon fill="#FF1268" points="39.764,173.959 31.777,175.055 30.603,166.416 38.589,165.32 	"/>
	<rect x="92.708" y="93.048" fill="#FF1268" width="8.065" height="8.091"/>
	<rect x="112.858" y="76.866" fill="#FF1268" width="8.065" height="8.091"/>
	<path fill="#FF1268" d="M161.222,84.957v8.091c0,6.695-5.429,12.137-12.084,12.137c-6.669,0-12.098-5.442-12.098-12.137v-8.091
		h8.065v8.091c0,2.232,1.801,4.046,4.033,4.046c2.219,0,4.032-1.814,4.032-4.046v-8.091H161.222z"/>
	<polygon fill="#FF1268" points="39.764,173.959 31.777,175.055 30.603,166.416 38.589,165.32 	"/>
	<polygon fill="#FF1268" points="40.991,182.95 46.289,221.957 38.302,223.054 32.991,184.034 	"/>
	<path fill="#FF1268" d="M153.509,167.564v21.807c0,18.048-14.629,32.717-32.586,32.717c-17.97,0-32.599-14.668-32.599-32.717
		v-21.807h21.729v21.807c0,6.003,4.881,10.897,10.871,10.897c5.99,0,10.858-4.894,10.858-10.897v-21.807H153.509z"/>
	<rect x="92.708" y="16.182" fill="#FF1268" width="8.065" height="8.091"/>
	<rect x="116.89" y="32.364" fill="#FF1268" width="8.065" height="8.091"/>
	<rect x="92.708" y="93.048" fill="#FF1268" width="8.065" height="8.091"/>
	<rect x="112.858" y="76.866" fill="#FF1268" width="8.065" height="8.091"/>
	<path fill="#FF1268" d="M153.17,84.957h8.052v8.091c0,6.695-5.429,12.137-12.084,12.137c-6.669,0-12.098-5.442-12.098-12.137
		v-8.091h8.065v8.091c0,2.232,1.801,4.046,4.033,4.046c2.219,0,4.032-1.814,4.032-4.046V84.957z"/>
	<path fill="#FF1268" d="M92.708,16.182v8.091h8.065v-8.091H92.708z M116.89,32.364v8.091h8.065v-8.091H116.89z M116.89,32.364
		v8.091h8.065v-8.091H116.89z M92.708,16.182v8.091h8.065v-8.091H92.708z M38.589,165.32l-7.987,1.096l1.175,8.639l7.987-1.096
		L38.589,165.32z M40.991,182.95l-8,1.083l5.311,39.02l7.987-1.096L40.991,182.95z M92.708,16.182v8.091h8.065v-8.091H92.708z
		 M116.89,32.364v8.091h8.065v-8.091H116.89z M131.781,167.564v21.807c0,6.003-4.868,10.897-10.858,10.897
		c-5.99,0-10.871-4.894-10.871-10.897v-21.807H88.324v21.807c0,18.048,14.629,32.717,32.599,32.717
		c17.957,0,32.586-14.668,32.586-32.717v-21.807H131.781z M131.781,167.564v21.807c0,6.003-4.868,10.897-10.858,10.897
		c-5.99,0-10.871-4.894-10.871-10.897v-21.807H88.324v21.807c0,18.048,14.629,32.717,32.599,32.717
		c17.957,0,32.586-14.668,32.586-32.717v-21.807H131.781z M32.991,184.034l5.311,39.02l7.987-1.096l-5.298-39.007L32.991,184.034z
		 M38.589,165.32l-7.987,1.096l1.175,8.639l7.987-1.096L38.589,165.32z M116.89,32.364v8.091h8.065v-8.091H116.89z M92.708,24.273
		h8.065v-8.091h-8.065V24.273z M198.859,0h-1.24c-6.525,0-12.476,3.315-15.934,8.861l-20.58,33.056
		c-4.006-10.649-10.793-20.176-19.667-27.418C129.993,5.142,115.546,0,100.773,0C86.17,0,71.867,5.037,60.501,14.172
		c-10.714,8.6-18.466,20.515-22.003,33.722c-9.944,5.259-18.362,13.037-24.417,22.59c-6.577,10.362-10.049,22.368-10.049,34.7
		c0,5.86,0.783,11.667,2.323,17.252l7.765-2.14c-1.344-4.894-2.023-9.983-2.023-15.112c0-10.793,3.041-21.298,8.783-30.368
		c5.572-8.796,13.429-15.856,22.72-20.463c0.039-0.013,0.091-0.039,0.117-0.052c7.752-3.824,16.104-5.755,24.808-5.755
		c11.054,0,21.82,3.263,30.968,9.292C85.257,64.011,73.459,75.326,66.739,89.42c-4.163,8.744-6.277,18.14-6.277,27.901
		c0,4.098,0.391,8.156,1.135,12.137H12.098c-3.223,0-6.264,1.266-8.561,3.55C1.266,135.304,0,138.358,0,141.594
		c0,6.695,5.429,12.137,12.098,12.137h0.509l11.615,85.505c0.274,2.01,1.984,3.497,3.993,3.497h137.04
		c2.01,0,3.719-1.488,3.993-3.497l11.615-85.505h0.509c3.223,0,6.264-1.266,8.561-3.55c2.284-2.297,3.537-5.351,3.537-8.587
		c0-4.254-2.166-8.052-5.559-10.231c1.005-4.581,1.527-9.292,1.527-14.042c0-14.916-5.09-29.258-14.407-40.769l38.198-45.532
		c1.423-1.697,2.532-3.615,3.276-5.677c0.77-2.088,1.148-4.254,1.148-6.486C217.651,8.47,209.22,0,198.859,0z M68.526,40.456
		c-6.943,0-13.69,1.083-20.136,3.21c3.615-9.005,9.514-17.044,17.148-23.177c10.088-8.104,22.264-12.398,35.235-12.398
		c12.933,0,25.565,4.502,35.575,12.672c9.461,7.726,16.195,18.388,19.145,30.159l-4.463,7.191c-8.169-3.615-17.109-5.52-26.074-5.52
		c-5.494,0-10.91,0.692-16.143,2.049C97.407,45.493,83.195,40.456,68.526,40.456z M12.098,145.64c-2.232,0-4.033-1.814-4.033-4.046
		c0-1.083,0.418-2.101,1.175-2.858c0.757-0.757,1.775-1.188,2.858-1.188h96.728v8.091H12.098z M161.731,234.642H31.738
		l-11.001-80.911h91.182c2.205,2.48,5.429,4.046,9.005,4.046c6.656,0,12.084-5.442,12.084-12.137v-4.046
		c0-2.232,1.814-4.046,4.032-4.046c2.232,0,4.033,1.814,4.033,4.046v12.137c0,6.695,5.429,12.137,12.097,12.137
		c6.656,0,12.084-5.442,12.084-12.137h7.478L161.731,234.642z M185.404,141.594c0,1.083-0.418,2.101-1.174,2.858
		c-0.757,0.77-1.775,1.188-2.858,1.188h-16.117v-8.091h16.117c0.313,0,0.6,0.039,0.913,0.104
		C184.086,138.071,185.404,139.728,185.404,141.594z M181.371,117.321c0,4.111-0.444,8.169-1.292,12.137h-18.857
		c-2.219,0-4.033,1.814-4.033,4.046v20.084c0,2.153-1.605,4.046-3.758,4.176c-2.336,0.157-4.293-1.71-4.293-4.033v-11.863
		c0-6.786-5.546-12.515-12.306-12.411c-6.577,0.117-11.876,5.507-11.876,12.137v3.902c0,2.153-1.618,4.033-3.758,4.176
		c-2.349,0.157-4.307-1.71-4.307-4.032v-12.137c0-2.232-1.814-4.046-4.032-4.046H69.831c-0.861-3.967-1.305-8.026-1.305-12.137
		c0-8.548,1.84-16.756,5.494-24.417c6.395-13.416,18.048-23.973,31.999-28.945c1.018-0.378,1.984-0.692,2.975-0.979
		c5.155-1.527,10.532-2.297,15.96-2.297c4.542,0,8.965,0.522,13.272,1.566c4.293,1.044,8.47,2.597,12.463,4.659
		c0.013,0,0.013,0.013,0.013,0.013c2.806,1.435,5.481,3.119,7.987,4.998c2.897,2.179,5.612,4.659,8.065,7.373
		C176.19,89.72,181.371,103.227,181.371,117.321z M208.933,22.564c-0.431,1.188-1.057,2.271-1.866,3.236l-37.545,44.749
		c-1.905-1.827-3.915-3.55-6.016-5.116c-1.697-1.279-3.484-2.466-5.311-3.576l30.316-48.703c1.984-3.171,5.377-5.063,9.109-5.063
		h1.24c5.912,0,10.727,4.829,10.727,10.766C209.586,20.123,209.364,21.376,208.933,22.564z M131.781,189.371
		c0,6.003-4.868,10.897-10.858,10.897c-5.99,0-10.871-4.894-10.871-10.897v-21.807H88.324v21.807
		c0,18.048,14.629,32.717,32.599,32.717c17.957,0,32.586-14.668,32.586-32.717v-21.807h-21.728V189.371z M124.955,32.364h-8.065
		v8.091h8.065V32.364z M92.708,24.273h8.065v-8.091h-8.065V24.273z M32.991,184.034l5.311,39.02l7.987-1.096l-5.298-39.007
		L32.991,184.034z M38.589,165.32l-7.987,1.096l1.175,8.639l7.987-1.096L38.589,165.32z M92.708,16.182v8.091h8.065v-8.091H92.708z
		 M116.89,32.364v8.091h8.065v-8.091H116.89z M38.589,165.32l-7.987,1.096l1.175,8.639l7.987-1.096L38.589,165.32z M40.991,182.95
		l-8,1.083l5.311,39.02l7.987-1.096L40.991,182.95z M131.781,167.564v21.807c0,6.003-4.868,10.897-10.858,10.897
		c-5.99,0-10.871-4.894-10.871-10.897v-21.807H88.324v21.807c0,18.048,14.629,32.717,32.599,32.717
		c17.957,0,32.586-14.668,32.586-32.717v-21.807H131.781z M131.781,167.564v21.807c0,6.003-4.868,10.897-10.858,10.897
		c-5.99,0-10.871-4.894-10.871-10.897v-21.807H88.324v21.807c0,18.048,14.629,32.717,32.599,32.717
		c17.957,0,32.586-14.668,32.586-32.717v-21.807H131.781z M116.89,32.364v8.091h8.065v-8.091H116.89z M92.708,16.182v8.091h8.065
		v-8.091H92.708z M40.991,182.95l-8,1.083l5.311,39.02l7.987-1.096L40.991,182.95z M38.589,165.32l-7.987,1.096l1.175,8.639
		l7.987-1.096L38.589,165.32z M92.708,16.182v8.091h8.065v-8.091H92.708z M116.89,32.364v8.091h8.065v-8.091H116.89z M116.89,32.364
		v8.091h8.065v-8.091H116.89z M92.708,16.182v8.091h8.065v-8.091H92.708z"/>
	<path fill="#FF1268" d="M32.247,89.001v8.095c0,2.229,1.808,4.044,4.031,4.044c2.223,0,4.031-1.815,4.031-4.044v-8.095h8.061v8.095
		c0,6.688-5.424,12.133-12.092,12.133c-6.661,0-12.092-5.444-12.092-12.133v-8.095H32.247L32.247,89.001z"/>
</g>
</svg>
