<?xml version="1.0" encoding="utf-8"?>
<!-- Generator: Adobe Illustrator 24.3.0, SVG Export Plug-In . SVG Version: 6.00 Build 0)  -->
<svg version="1.1" id="Layer_1" xmlns="http://www.w3.org/2000/svg" xmlns:xlink="http://www.w3.org/1999/xlink" x="0px" y="0px"
	 viewBox="0 0 329.843 181.68" enable-background="new 0 0 329.843 181.68" xml:space="preserve">
<g>
	<path fill="#885418" d="M311.959,9.91l0.811,137.38c-4.53,2.98-13.54,7.83-31.36,15.59c-0.3,0.13-0.6,0.26-0.91,0.4
		c-2.36,1.02-4.69,1.99-7.01,2.9V0L311.959,9.91z"/>
	<path fill="#885418" d="M269.38,12.18v155.57c-2.48,0.92-4.94,1.78-7.4,2.57V22.79L269.38,12.18z"/>
	<path fill="#885418" d="M257.87,27.11v144.48c-2.41,0.71-4.81,1.35-7.24,1.93V36.82L257.87,27.11z"/>
	<path fill="#885418" d="M246.52,40.86v133.59c-0.77,0.16-1.54,0.32-2.31,0.46c-1.63,0.33-3.27,0.62-4.93,0.88V49.74L246.52,40.86z"
		/>
	<path fill="#885418" d="M235.17,52.64v123.73c-0.27,0.04-0.55,0.07-0.83,0.11c-2.04,0.24-4.11,0.45-6.21,0.62
		c-0.07,0.01-0.13,0.01-0.2,0.01V60.82L235.17,52.64z"/>
	<path fill="#885418" d="M223.82,67.96v109.42c-1.78,0.1-3.59,0.16-5.43,0.19c-0.6,0.01-1.2,0.03-1.81,0.03V75.22L223.82,67.96z"/>
	<path fill="#885418" d="M212.47,80.14v93.48c-0.07,0-0.15-0.01-0.22-0.01c-1.22-0.05-2.45-0.1-3.71-0.17h-0.1
		c-1.06-0.05-2.13-0.11-3.21-0.19V86.66L212.47,80.14z"/>
	<path fill="#885418" d="M201.12,91.13v81.81c-1.06-0.08-2.14-0.18-3.22-0.29c-0.54-0.05-1.09-0.11-1.64-0.16
		c-0.79-0.08-1.58-0.16-2.38-0.25V97L201.12,91.13z"/>
	<path fill="#885418" d="M189.77,100.56v71.21c-0.79-0.1-1.59-0.2-2.4-0.31c-1.11-0.15-2.25-0.3-3.38-0.46
		c-0.479-0.07-0.96-0.15-1.45-0.22v-64.92L189.77,100.56z"/>
	<path fill="#885418" d="M178.42,109.99v60.17c-0.52-0.09-1.05-0.17-1.57-0.26c-1.69-0.27-3.4-0.55-5.14-0.86
		c-0.17-0.03-0.34-0.06-0.52-0.09v-54.22L178.42,109.99z"/>
	<path fill="#885418" d="M64.17,0v160.22c-0.02,0-0.04,0.01-0.06,0.01c-1.27,0.2-2.53,0.41-3.76,0.66c-0.03,0-0.04,0.01-0.06,0.01
		c-1.48,0.27-2.95,0.56-4.39,0.87c-11.93,2.46-22.41,5.71-31.01,8.89L24.079,9.91L64.17,0z"/>
	<path fill="#885418" d="M75.68,22.79v135.87c-0.3,0.02-0.59,0.06-0.88,0.09c-0.67,0.07-1.33,0.15-1.99,0.22
		c-0.62,0.08-1.22,0.15-1.84,0.24c-0.87,0.12-1.75,0.24-2.62,0.36c-0.02,0-0.05,0.01-0.07,0.01V12.18L75.68,22.79z"/>
	<path fill="#885418" d="M87.03,36.82v120.94c-0.57,0.03-1.14,0.06-1.7,0.09c-0.07,0-0.16,0.01-0.24,0.01
		c-1.21,0.07-2.4,0.16-3.58,0.25c-0.29,0.02-0.58,0.04-0.88,0.07c-0.28,0.02-0.55,0.04-0.83,0.07V27.11L87.03,36.82z"/>
	<path fill="#885418" d="M98.38,49.74v107.79c-0.33-0.01-0.67-0.01-1-0.01h-1.52c-1,0-1.97,0.01-2.94,0.04c-0.3,0-0.59,0-0.88,0.01
		c-0.3,0.01-0.6,0.01-0.89,0.03V40.86L98.38,49.74z"/>
	<path fill="#885418" d="M109.73,60.82v97.14c-0.03-0.01-0.05-0.01-0.08-0.01c-1.1-0.08-2.18-0.15-3.26-0.2
		c-0.4-0.02-0.8-0.04-1.19-0.05c-0.89-0.04-1.75-0.07-2.63-0.1h-0.07V52.64L109.73,60.82z"/>
	<path fill="#885418" d="M121.08,75.22v83.86c-1.21-0.17-2.41-0.31-3.6-0.44c-0.18-0.02-0.38-0.05-0.56-0.07
		c-1.03-0.1-2.07-0.21-3.08-0.29V67.96L121.08,75.22z"/>
	<path fill="#885418" d="M132.43,86.66v74.21c-0.89-0.17-1.78-0.33-2.67-0.49c-0.77-0.13-1.54-0.26-2.31-0.38
		c-0.76-0.13-1.51-0.25-2.26-0.36v-79.5L132.43,86.66z"/>
	<path fill="#885418" d="M143.78,97v66.35c-0.58-0.13-1.16-0.26-1.74-0.39c-0.67-0.16-1.34-0.32-2.02-0.48
		c-0.67-0.15-1.36-0.31-2.03-0.46c-0.49-0.11-0.97-0.22-1.45-0.31V91.13L143.78,97z"/>
	<path fill="#885418" d="M155.13,105.86v59.99c-0.27-0.06-0.54-0.12-0.8-0.18c-1.91-0.4-3.84-0.82-5.81-1.25
		c-0.21-0.05-0.42-0.1-0.63-0.14v-63.72L155.13,105.86z"/>
	<path fill="#885418" d="M166.48,114.73v53.37c-0.05,0-0.11-0.01-0.16-0.03c-2.21-0.42-4.44-0.85-6.71-1.32
		c-0.12-0.02-0.24-0.04-0.37-0.07v-56.69L166.48,114.73z"/>
</g>
<g>
	<path fill="#462C19" d="M329.79,136.18c0.112,0.209,0.024,0.467-0.063,0.672c-0.091,0.216-0.217,0.413-0.348,0.605
		c-0.271,0.376-0.572,0.733-0.896,1.062c-0.649,0.658-1.343,1.272-2.061,1.847c-1.432,1.159-2.929,2.23-4.449,3.263
		c-3.06,2.033-6.21,3.912-9.386,5.739c-3.145,1.867-6.45,3.438-9.689,5.139l-9.776,5.028c-0.825,0.422-1.621,0.829-2.448,1.214
		l-2.508,1.155l-5.027,2.303c-3.392,1.46-6.801,2.858-10.284,4.153c-3.437,1.303-7.028,2.478-10.552,3.536l-2.637,0.758
		c-0.457,0.128-0.852,0.252-1.314,0.369l-1.389,0.362c-0.925,0.245-1.855,0.477-2.797,0.696l-2.743,0.619l0.547-0.14l-0.089,0.022
		l-0.481,0.127l-4.449,0.909c-1.528,0.303-2.996,0.531-4.49,0.774c-1.425,0.256-3.143,0.462-4.544,0.626l-2.197,0.267l-1.067,0.12
		l-0.531,0.059l-0.266,0.03l-0.315,0.028l-0.442,0.02l0.4-0.018c-1.46,0.123-2.809,0.263-4.363,0.371l-4.23,0.241
		c-2.867,0.169-5.742,0.197-8.548,0.209l-4.239-0.045l-4.214-0.136c-1.463-0.067-2.976-0.125-4.374-0.225l-2.047-0.138l-2.223-0.176
		l-4.201-0.367l-4.185-0.424c-2.962-0.315-5.688-0.665-8.476-1.067l-4.203-0.615l-4.189-0.683l-4.129-0.684l-4.097-0.726
		l-0.145-0.026l-0.239-0.054l-0.13-0.03l1.211,0.149c-0.672-0.007-1.388-0.145-2.015-0.387l0.922,0.269l-5.581-1.114l-2.88-0.575
		l-1.457-0.302l-0.728-0.151l-0.364-0.076l-0.182-0.038l-0.046-0.009l-0.02-0.004l0.196,0.041c0.264,0.048,0.537,0.07,0.804,0.065
		l-1.077-0.118l-5.25-1.153l-2.576-0.57l-2.641-0.617l-2.637-0.618l-2.587-0.631c-1.74-0.421-3.352-0.759-5.064-1.139l0.914,0.087
		l-0.04-0.01l-0.902-0.085c-2.049-0.418-3.949-0.8-5.953-1.134l-2.963-0.515l-2.939-0.448c-2.001-0.275-4.037-0.582-5.978-0.797
		c-0.98-0.105-1.96-0.221-3.026-0.314l-2.924-0.271l-1.187-0.225c0.425,0.148,0.9,0.225,1.349,0.22l-0.327-0.012
		c-3.331-0.294-6.585-0.49-10.082-0.593l-2.519-0.075l-2.549-0.027l-2.458-0.021l-2.553,0.033c-0.876,0.017-1.673,0.013-2.615,0.047
		l-1.347,0.036l-1.229,0.056c-1.663,0.078-3.225,0.128-4.981,0.275l-5.09,0.369c-0.851,0.06-1.644,0.154-2.476,0.232l-2.587,0.277
		l-0.484,0.033l-0.07,0.008l0.479-0.033l-4.02,0.499l-0.569,0.048l-0.06,0.008l0.53-0.041l-3.638,0.501l-0.652,0.066l-0.06,0.008
		l0.587-0.053c-5.155,0.796-10.383,1.741-15.515,2.868c-5.142,1.152-10.28,2.402-15.357,3.895c-2.54,0.751-5.073,1.501-7.57,2.395
		l-7.551,2.55C9.868,177.59,4.936,179.612,0,181.68c4.563-2.782,9.208-5.48,14.041-7.814c4.848-2.278,9.675-4.699,14.707-6.629
		c5.006-1.986,10.081-3.842,15.254-5.409c2.584-0.791,5.183-1.541,7.8-2.231c2.607-0.69,5.242-1.293,7.901-1.916l0.587-0.053
		l0.06-0.012l-0.652,0.066l3.882-0.819l0.531-0.042l0.06-0.012l-0.569,0.048l4.2-0.781l0.479-0.033l0.07-0.012l-0.483,0.033
		l2.541-0.428c0.88-0.137,1.794-0.298,2.66-0.412l2.642-0.358l2.566-0.332c1.675-0.226,3.558-0.39,5.337-0.556l1.352-0.124
		l1.238-0.096c0.78-0.069,1.708-0.114,2.556-0.172l2.619-0.164c0.448-0.03,0.92-0.045,1.389-0.06l1.328-0.047l2.626-0.074
		l2.656-0.024c3.403-0.034,7.049,0.037,10.602,0.216l-0.327-0.012c0.503,0.002,1.031,0.086,1.509,0.24l-1.186-0.225l3.225,0.202
		l3.117,0.237c2.152,0.179,4.191,0.431,6.271,0.658l3.171,0.394l3.128,0.458c2.058,0.308,4.198,0.699,6.184,1.071l-0.901-0.085
		l0.04,0.01l0.914,0.087c1.781,0.361,3.67,0.73,5.408,1.12l2.627,0.595l2.588,0.561l10.46,2.256l-1.077-0.118
		c0.325,0.005,0.656,0.038,0.979,0.096l0.306,0.062l0.167,0.033l0.334,0.067l0.669,0.134l1.338,0.268l2.717,0.527l5.613,1.088
		l0.923,0.269c-0.52-0.222-1.13-0.34-1.695-0.327l1.212,0.149l0.13,0.03l-0.384-0.08l4.13,0.755l4.114,0.705l4.058,0.685
		l4.064,0.618c2.727,0.398,5.523,0.802,8.098,1.121l4.124,0.487l4.121,0.429l1.941,0.189l2.121,0.178l3.968,0.302l4.136,0.249
		l4.117,0.158c2.766,0.071,5.466,0.099,8.168,0.041l4.123-0.076c1.229-0.036,2.657-0.125,3.978-0.183l0.381-0.017l0.02-0.002
		l3.991-0.314c1.535-0.125,2.752-0.219,4.244-0.4c1.427-0.16,2.885-0.316,4.263-0.52l4.261-0.653l-0.48,0.127l0.091-0.018
		l0.547-0.14l2.609-0.457l2.531-0.49l1.271-0.248c0.427-0.08,0.908-0.198,1.335-0.29l2.652-0.593
		c3.507-0.82,6.89-1.742,10.351-2.762c3.424-1,6.837-2.144,10.235-3.307l5.071-1.846l2.538-0.928
		c0.853-0.313,1.707-0.676,2.539-1.006l10.095-4.025c3.366-1.356,6.756-2.65,10.092-4.101c3.332-1.431,6.637-2.923,9.866-4.555
		c1.62-0.806,3.221-1.652,4.764-2.588c0.776-0.464,1.524-0.966,2.237-1.513c0.361-0.269,0.699-0.565,1.013-0.884
		c0.152-0.163,0.3-0.332,0.417-0.521C329.747,136.621,329.866,136.4,329.79,136.18z"/>
</g>
</svg>
