<?xml version="1.0" encoding="utf-8"?>
<!-- Generator: Adobe Illustrator 24.3.0, SVG Export Plug-In . SVG Version: 6.00 Build 0)  -->
<svg version="1.1" id="Layer_7" xmlns="http://www.w3.org/2000/svg" xmlns:xlink="http://www.w3.org/1999/xlink" x="0px" y="0px"
	 viewBox="0 0 325.26 323.668" enable-background="new 0 0 325.26 323.668" xml:space="preserve">
<g>
	<path fill="#00A19A" d="M149.882,251.431c8.053-0.431,16.07-0.499,24.178,0.832c-0.13-0.405-0.166-0.624-0.264-0.808
		c-1.735-3.242-3.444-6.499-5.246-9.703c-0.361-0.641-0.991-1.286-1.652-1.577c-4.229-1.861-8.271-4.067-11.76-7.083
		c-6.032-5.213-11.712-10.8-16.878-16.889c-0.465-0.549-0.946-1.085-1.587-1.387c4.463,3.09,8.823,6.342,13.417,9.224
		c4.654,2.919,9.703,5.068,15.421,6.4c0-0.95,0.001-1.727,0-2.504c-0.014-6.416,1.717-12.422,5.016-17.824
		c4.436-7.264,10.929-11.853,19.476-13.142c1.377-0.208,2.89,0.004,4.262,0.339c3.032,0.741,4.45,3.181,3.494,6.208
		c-0.587,1.859-1.638,3.573-2.502,5.341c-0.19,0.39-0.472,0.735-0.845,1.306c0.515-0.061,0.786-0.093,1.073-0.127
		c-4.828,5.466-8.971,11.303-10.689,18.907c0.719-0.294,1.163-0.444,1.578-0.651c3.995-1.983,7.304-4.908,10.686-7.741
		c1.514-1.268,3.044-2.552,4.718-3.584c1.928-1.188,3.16-0.383,3.211,1.917c0.101,4.602-1.982,8.401-4.448,12.067
		c-3.423,5.088-8.125,8.466-13.9,10.375c-1.041,0.344-1.053,0.829-0.764,1.686c0.932,2.765,1.882,5.528,2.685,8.332
		c0.286,1,0.17,2.115,0.243,3.282c0.344,0.026,0.737,0.074,1.13,0.081c4.903,0.093,9.827-0.065,14.706,0.323
		c8.46,0.673,16.911,1.614,24.967,4.552c2.837,1.034,5.403,2.554,7.058,5.188c3.085,4.911,1.629,10.248-3.608,13.523
		c-4.159,2.601-8.824,3.829-13.547,4.757c-5.371,1.055-10.777,1.99-16.206,2.668c-4.316,0.539-8.689,0.641-13.039,0.888
		c-6.642,0.377-13.286,0.715-19.93,1.062c-2.065,0.108-4.132,0.181-6.197,0.291c-6.507,0.349-13.013,0.712-19.52,1.061
		c-2.017,0.108-4.035,0.188-6.061,0.281c21.116-3.464,41.917-8.3,62.437-14.344c0.932-0.275,1.869-0.689,2.654-1.248
		c0.426-0.304,0.768-1.079,0.709-1.591c-0.041-0.353-0.794-0.788-1.294-0.901c-6.516-1.475-13.085-2.739-19.553-4.396
		c-3.767-0.965-7.375-2.548-11.066-3.821c-0.479-0.165-1.047-0.257-1.538-0.176c-5.091,0.846-10.164,1.805-15.265,2.587
		c-3.281,0.503-6.595,0.815-9.905,1.091c-0.805,0.067-1.644-0.471-2.478-0.511c-1.377-0.067-2.775-0.05-4.138,0.131
		c-0.507,0.067-1.238,0.636-1.328,1.084c-0.107,0.534,0.19,1.475,0.618,1.733c1.758,1.061,3.567,2.1,5.476,2.839
		c7.602,2.942,15.549,4.67,23.482,6.427c0.435,0.096,0.871,0.193,1.518,0.336c-4.171-0.366-8.125-0.728-12.082-1.055
		c-3.76-0.31-7.524-0.566-11.284-0.877c-6.452-0.534-12.905-1.241-19.107-3.118c-2.919-0.883-5.717-2.406-8.316-4.043
		c-3-1.889-3.34-4.206-1.618-7.322c1.663-3.01,4.338-4.733,7.497-5.821c1.214-0.418,2.438-0.807,3.858-1.275
		c-8.346-1.839-16.449-3.625-24.698-5.443c0.987,2.466,1.94,4.777,2.839,7.109c2.173,5.637,3.985,11.383,4.374,17.449
		c0.133,2.083,0.049,4.261-0.418,6.285c-1.372,5.952-6.683,8.475-12.297,6.017c-3.662-1.603-6.603-4.175-9.277-7.071
		c-5.299-5.739-9.665-12.195-14.056-18.616c-2.407-3.52-4.5-7.254-6.74-10.888c-0.276-0.447-0.583-0.875-0.876-1.312
		c-0.137-0.006-0.273-0.012-0.41-0.018c-2.148,6.46-4.295,12.921-6.443,19.381c-0.026-0.005-0.053-0.01-0.079-0.015
		c1.743-8.826,3.486-17.651,5.315-26.919c10.181,11.664,20.27,23.005,32.496,32.119c0.157-0.089,0.315-0.178,0.472-0.267
		c-0.288-1.646-0.54-3.299-0.872-4.936c-1.589-7.833-3.261-15.65-4.759-23.5c-0.357-1.873-0.277-3.857-0.18-5.779
		c0.09-1.795,1.376-2.406,2.6-1.14c1.828,1.891,3.407,4.039,4.953,6.178c0.576,0.797,1.077,1.237,2.102,1.325
		c9.834,0.847,19.676,1.264,29.543,0.777c0.944-0.047,1.895-0.054,2.825-0.195c0.333-0.051,0.614-0.444,0.918-0.681
		c-0.245-0.264-0.444-0.605-0.741-0.78c-6.401-3.759-12.858-7.425-19.206-11.271c-3.912-2.37-7.71-4.941-11.462-7.561
		c-1.721-1.202-3.322-2.631-4.77-4.154c-1.477-1.553-1.032-2.812,1.074-2.733c3.067,0.115,6.193,0.463,9.156,1.237
		c10.015,2.617,19.532,6.564,28.326,12.02c3.709,2.301,7.078,5.212,10.363,8.115c2.337,2.065,3.582,4.872,3.081,8.123
		C150.81,249.057,150.288,250.169,149.882,251.431z"/>
	<path fill="#00A19A" d="M202.784,202.929c3.552,3.708,7.939,5.567,13.056,5.876c5.773,0.349,11.01-0.997,15.287-5.028
		c6.021-5.675,5.165-13.651-1.842-18.129c-6.773-4.328-16.698-4.079-23.217,0.624c-2.108,1.52-3.857,3.365-4.847,5.842
		c-0.341,0.855-0.824,1.653-1.344,2.677c-1.223-1.931-0.867-3.686-0.397-5.4c1.193-4.353,4.133-7.295,7.932-9.466
		c2.889-1.651,6.005-2.615,9.346-2.814c0.475-0.028,0.942-0.196,1.398-0.296c0-0.245,0.05-0.404-0.007-0.5
		c-3.271-5.518-6.811-10.82-11.978-14.805c-0.036-0.027-0.067-0.061-0.103-0.087c-2.802-1.962-4.766-3.155-5.967,1.921
		c-1.396,5.899-2.813,11.794-4.298,17.67c-0.916,3.624-1.991,7.221-4.075,10.377c-0.521,0.789-1.438,1.633-2.299,1.8
		c-1.107,0.215-1.847-0.843-2.127-1.894c-0.725-2.718-1.788-5.434-1.954-8.197c-0.5-8.335,0.6-16.456,4.911-23.815
		c1.076-1.838,2.448-3.61,4.033-5.022c4.971-4.429,10.673-3.146,14.637,1.63c3.768,4.539,5.835,9.99,7.944,15.402
		c0.408,1.046,0.777,2.107,1.168,3.16c0.95,2.558,0.965,2.425,3.723,2.712c6.086,0.634,11.28,3.125,14.928,8.159
		c4.925,6.796,3.444,15.651-3.204,20.76C224.78,212.778,209.798,211.824,202.784,202.929z"/>
</g>
<g>
	<path fill="#565655" d="M94.091,215.834c1.938-6.623,3.886-13.244,5.81-19.872c0.876-3.017,1.726-6.042,2.531-9.078
		c0.146-0.552,0.021-1.175,0.021-2.159c-0.389,0.515-0.588,0.682-0.663,0.892c-2.991,8.466-6.223,16.859-8.879,25.429
		c-2.574,8.305-3.824,16.906-3.961,25.632c-0.149,9.472,1.237,18.72,4.096,27.75c0.146,0.461,0.271,0.928,0.139,1.498
		c-1.234-2.861-2.549-5.689-3.689-8.587c-4.263-10.837-7.308-22.011-8.294-33.63c-1.429-16.841,0.29-33.216,7.99-48.605
		c3.739-7.473,8.195-14.387,14.623-19.846c1.327-1.127,2.833-2.072,4.353-2.931c1.167-0.66,2.621-1.291,3.806-0.335
		c1.223,0.987,1.377,2.595,1.053,4.089c-0.933,4.297-1.931,8.58-2.948,12.857c-0.416,1.746-1.467,3.522-1.283,5.179
		c0.183,1.642,1.64,3.113,2.394,4.726c2.036,4.353,3.992,8.744,5.987,13.117c3.326,7.29,7.883,13.415,15.635,16.52
		c0.114,0.046,0.198,0.165,0.511,0.436c-6.349-1.06-11.972-3.252-17.062-6.742c-5.061-3.47-9.429-7.621-12.303-13.502
		c-3.315,9.289-6.512,18.25-9.71,27.21C94.195,215.868,94.143,215.851,94.091,215.834z"/>
	<path fill="#565655" d="M196.81,144.772c-7.387,8.847-15.545,17.04-25.623,23.108c-5.958,3.587-12.173,6.545-19.132,7.598
		c-8.778,1.329-17.283,0.378-25.133-3.883c-2.824-1.533-5.227-3.891-7.667-6.049c-0.897-0.793-1.488-2.034-1.966-3.177
		c-0.89-2.129-0.177-3.879,2.035-4.455c1.97-0.512,4.09-0.813,6.113-0.689c8.754,0.534,17.492,1.335,26.246,1.894
		c12.013,0.767,23.513-1.296,34.135-7.094C189.698,149.906,193.233,147.157,196.81,144.772z"/>
	<path fill="#565655" d="M116.902,149.336c1.088-0.161,2.18-0.295,3.262-0.486c5.447-0.961,9.304-4.163,11.977-8.824
		c3.19-5.563,4.19-11.491,1.944-17.636c-2.339-6.399-8.398-8.898-14.566-6.009c-6.273,2.938-9.615,8.201-10.924,14.829
		c-0.895,4.531-0.481,8.942,1.87,13.057c-0.106,0.045-0.211,0.09-0.317,0.135c-0.551-1.056-1.191-2.076-1.638-3.175
		c-3.557-8.748-0.409-20.576,7.002-26.447c9.532-7.551,21.814-3.456,24.925,8.318c2.858,10.816-2.594,22.507-11.422,27.035
		c-3.379,1.733-6.655,2.266-10.197,1.13c-0.767-0.246-1.384-0.957-2.07-1.454C116.798,149.652,116.85,149.494,116.902,149.336z"/>
</g>
<g>
	<path fill="#98CB40" d="M268.558,87.51c-0.845,1.543-1.712,2.958-2.599,4.205c0,0-20.985-24.302-22.358-45.541
		c0.275,8.918,2.599,28.994,17.012,43.385C248.693,83.03,221.157,61.01,231.195,0c0,0,0.761,14.328,26.247,26.5
		C280.73,37.616,277.666,70.35,268.558,87.51z"/>
	<path fill="#98CB40" d="M297.447,118.316c-1.519,0.811-2.987,1.507-4.382,2.053c0,0-4.174-31.152,6.077-49.287
		c-4.552,7.453-13.402,25.146-9.303,44.657c-6.267-11.734-17.031-44.525,23.875-89.132c0,0-7.052,12.146,7.308,35.771
		C334.147,83.959,314.101,109.136,297.447,118.316z"/>
	<path fill="#98CB40" d="M287.45,135.555c0.363,1.116,0.655,2.185,0.855,3.186c0,0-21.407-0.914-32.357-9.958
		c4.46,3.944,15.28,11.995,28.865,11.571c-8.624,2.807-31.917,6.121-56.979-26.656c0,0,7.312,6.182,24.881-0.639
		C268.767,106.824,283.275,123.282,287.45,135.555z"/>
</g>
<g>
	<path fill="#438421" d="M0,240.358c1.278,2.282,2.744,4.447,4.281,6.552c1.525,2.115,3.162,4.144,4.829,6.14
		c3.355,3.978,6.934,7.755,10.732,11.292c7.567,7.1,15.844,13.394,24.594,18.888c8.768,5.47,17.986,10.184,27.52,14.122
		c9.533,3.942,19.376,7.099,29.356,9.668l3.743,0.965c1.247,0.322,2.519,0.553,3.777,0.834c2.525,0.522,5.034,1.113,7.57,1.58
		l7.626,1.304l1.905,0.325l1.919,0.248l3.835,0.513c5.098,0.785,10.253,1.164,15.386,1.677c2.568,0.244,5.154,0.317,7.729,0.485
		c2.579,0.119,5.15,0.357,7.737,0.356c20.663,0.46,41.4-0.207,61.497-4.086c4.965-1.176,10.012-2.079,14.852-3.655l3.663-1.071
		l1.835-0.525l1.789-0.647l7.159-2.581c9.372-3.829,18.327-8.611,26.368-14.61c8.037-5.989,15.112-13.204,20.788-21.416
		c5.67-8.217,9.846-17.457,12.408-27.169c2.546-9.717,3.637-19.861,3.322-30.016c-0.291-10.162-1.971-20.304-4.611-30.21
		c-2.687-9.9-6.436-19.54-11.022-28.784c-4.533-9.276-9.926-18.158-15.987-26.592l-0.063-0.088l-0.01-0.017l-9.43-16.173
		l-9.331-16.234l10.553,15.468l10.455,15.53l-0.073-0.105c6.623,8.191,12.58,16.951,17.738,26.2
		c5.1,9.276,9.384,19.045,12.606,29.21c3.21,10.167,5.189,20.762,5.858,31.489c0.638,10.72-0.097,21.629-2.718,32.18
		c-2.576,10.547-6.941,20.727-12.985,29.835c-6.006,9.14-13.735,17.094-22.416,23.63c-8.682,6.562-18.277,11.747-28.231,15.879
		c-10.014,4.006-20.406,6.793-30.883,8.899c-10.515,1.822-21.101,3.224-31.712,3.623c-2.651,0.118-5.305,0.284-7.952,0.361
		l-7.929,0.023c-5.284,0.089-10.573-0.229-15.856-0.394c-2.643-0.049-5.28-0.338-7.919-0.508c-2.637-0.219-5.28-0.344-7.911-0.641
		c-5.26-0.619-10.53-1.107-15.756-2.006c-5.248-0.719-10.432-1.85-15.624-2.894c-2.589-0.558-5.154-1.242-7.73-1.857
		c-1.284-0.328-2.579-0.605-3.852-0.974l-3.819-1.107c-20.384-5.766-39.99-14.628-57.379-26.707
		c-4.3-3.083-8.541-6.246-12.526-9.718c-2.035-1.682-3.955-3.499-5.896-5.285c-0.966-0.898-1.873-1.86-2.811-2.785
		c-0.939-0.926-1.859-1.869-2.743-2.848C11.048,258.259,4.598,249.776,0,240.358z"/>
</g>
</svg>
