<?xml version="1.0" encoding="utf-8"?>
<!-- Generator: Adobe Illustrator 24.3.0, SVG Export Plug-In . SVG Version: 6.00 Build 0)  -->
<svg version="1.1" id="Layer_2" xmlns="http://www.w3.org/2000/svg" xmlns:xlink="http://www.w3.org/1999/xlink" x="0px" y="0px"
	 viewBox="0 0 227.251 227.251" enable-background="new 0 0 227.251 227.251" xml:space="preserve">
<g>
	<path fill-rule="evenodd" clip-rule="evenodd" fill="#7C6400" d="M113.625,0C50.872,0,0,50.872,0,113.625
		s50.872,113.625,113.625,113.625c62.755,0,113.626-50.872,113.626-113.625S176.38,0,113.625,0z M113.625,221.728
		c-59.703,0-108.102-48.399-108.102-108.102S53.922,5.523,113.625,5.523c59.704,0,108.103,48.399,108.103,108.103
		S173.329,221.728,113.625,221.728z"/>
	<path fill-rule="evenodd" clip-rule="evenodd" fill="#7C6400" d="M113.625,9.352C56.038,9.352,9.352,56.038,9.352,113.625
		c0,57.588,46.685,104.273,104.273,104.273c57.588,0,104.273-46.685,104.273-104.273C217.898,56.038,171.213,9.352,113.625,9.352z
		 M113.625,215.305c-56.155,0-101.68-45.525-101.68-101.68c0-56.156,45.525-101.68,101.68-101.68
		c56.156,0,101.68,45.525,101.68,101.68C215.306,169.781,169.781,215.305,113.625,215.305z"/>
	<path fill="#7C6400" d="M113.631,14.362c-5.287,2.205-1.4,10.303,0,12.132C115.032,24.666,118.92,16.567,113.631,14.362z"/>
	<path fill="#7C6400" d="M113.623,212.888c5.289-2.205,1.4-10.303,0-12.132C112.223,202.585,108.334,210.682,113.623,212.888z"/>
	<path fill="#7C6400" d="M127.394,15.321c-5.543,1.452-2.814,10.01-1.681,12.015C127.353,25.72,132.326,18.239,127.394,15.321z"/>
	<path fill="#7C6400" d="M99.859,211.929c5.545-1.452,2.816-10.011,1.684-12.015C99.902,201.53,94.929,209.01,99.859,211.929z"/>
	<path fill="#7C6400" d="M138.313,30.063c1.86-1.356,7.883-8.022,3.436-11.635C136.052,19.046,137.488,27.914,138.313,30.063z"/>
	<path fill="#7C6400" d="M85.507,208.822c5.697-0.618,4.262-9.486,3.436-11.637C87.082,198.543,81.059,205.209,85.507,208.822z"/>
	<path fill="#7C6400" d="M149.659,34.294c2.03-1.086,8.921-6.851,5.017-11.047C148.947,23.069,149.141,32.049,149.659,34.294z"/>
	<path fill="#7C6400" d="M72.578,204.004c5.729,0.177,5.536-8.802,5.017-11.047C75.564,194.043,68.677,199.807,72.578,204.004z"/>
	<path fill="#7C6400" d="M161.451,40.793c2.175-0.76,9.871-5.394,6.66-10.141C162.48,29.593,161.285,38.496,161.451,40.793z"/>
	<path fill="#7C6400" d="M59.144,196.6c5.631,1.058,6.824-7.844,6.658-10.142C63.628,187.218,55.933,191.853,59.144,196.6z"/>
	<path fill="#7C6400" d="M171.087,48.127c2.261-0.451,10.523-3.974,8.001-9.121C173.658,37.177,171.242,45.83,171.087,48.127z"/>
	<path fill="#7C6400" d="M48.165,188.245c5.431,1.828,7.847-6.823,8.001-9.122C53.908,179.576,45.644,183.098,48.165,188.245z"/>
	<path fill="#7C6400" d="M180.124,57.323c2.299-0.114,10.992-2.379,9.258-7.84C184.281,46.871,180.614,55.072,180.124,57.323z"/>
	<path fill="#7C6400" d="M37.871,177.77c5.101,2.608,8.768-5.592,9.258-7.842C44.831,170.042,36.137,172.306,37.871,177.77z"/>
	<path fill="#7C6400" d="M187.287,67.086c2.294,0.207,11.217-0.831,10.257-6.48C192.855,57.312,188.085,64.926,187.287,67.086z"/>
	<path fill="#7C6400" d="M29.712,166.645c4.689,3.293,9.458-4.32,10.254-6.481C37.673,159.957,28.75,160.997,29.712,166.645z"/>
	<path fill="#7C6400" d="M193.317,78.398c2.239,0.541,11.219,0.822,11.098-4.906C200.258,69.546,194.425,76.378,193.317,78.398z"/>
	<path fill="#7C6400" d="M22.839,153.76c4.155,3.945,9.989-2.886,11.096-4.907C31.695,148.314,22.718,148.032,22.839,153.76z"/>
	<path fill="#7C6400" d="M197.431,89.787c2.144,0.846,10.995,2.371,11.669-3.322C205.534,81.984,198.808,87.94,197.431,89.787z"/>
	<path fill="#7C6400" d="M18.149,140.785c3.57,4.484,10.294-1.473,11.671-3.319C27.679,136.618,18.825,135.095,18.149,140.785z"/>
	<path fill="#7C6400" d="M200.033,102.413c1.993,1.153,10.524,3.968,12.031-1.561C209.196,95.891,201.666,100.791,200.033,102.413z"
		/>
	<path fill="#7C6400" d="M15.188,126.401c2.869,4.959,10.399,0.06,12.031-1.562C25.227,123.686,16.695,120.871,15.188,126.401z"/>
	<path fill="#7C6400" d="M200.752,114.502c1.815,1.419,9.874,5.388,12.132,0.121C210.731,109.312,202.595,113.121,200.752,114.502z"
		/>
	<path fill="#7C6400" d="M14.368,112.629c2.153,5.31,10.289,1.503,12.131,0.122C24.685,111.332,16.626,107.363,14.368,112.629z"/>
	<path fill="#7C6400" d="M199.576,127.917c1.575,1.68,8.926,6.844,11.968,1.989C210.236,124.327,201.611,126.834,199.576,127.917z"
		/>
	<path fill="#7C6400" d="M15.707,97.347c1.31,5.578,9.934,3.069,11.968,1.989C26.101,97.655,18.75,92.491,15.707,97.347z"/>
	<path fill="#7C6400" d="M196.765,139.694c1.326,1.883,7.89,8.016,11.577,3.631C207.819,137.618,198.93,138.905,196.765,139.694z"/>
	<path fill="#7C6400" d="M18.909,83.928c0.523,5.706,9.413,4.418,11.577,3.628C29.16,85.674,22.597,79.542,18.909,83.928z"/>
	<path fill="#7C6400" d="M192.009,151.676c1.033,2.06,6.62,9.093,10.915,5.299C203.249,151.254,194.265,151.215,192.009,151.676z"/>
	<path fill="#7C6400" d="M185.309,159.941c0.565,2.234,4.508,10.305,9.519,7.524C196.376,161.949,187.611,159.978,185.309,159.941z"
		/>
	<path fill="#7C6400" d="M178.633,169.52c0.565,2.234,4.508,10.305,9.519,7.524C189.7,171.528,180.935,169.556,178.633,169.52z"/>
	<path fill="#7C6400" d="M24.327,70.277c-0.324,5.72,8.66,5.758,10.916,5.297C34.21,73.516,28.622,66.482,24.327,70.277z"/>
	<path fill="#7C6400" d="M31.2,58.316c-1.114,5.619,7.776,6.903,10.075,6.76C40.536,62.894,35.979,55.153,31.2,58.316z"/>
	<path fill="#7C6400" d="M38.661,48.559c-1.8,5.439,6.863,7.811,9.163,7.953C47.359,54.256,43.793,46.013,38.661,48.559z"/>
	<path fill="#7C6400" d="M170.871,179.312c0.146,2.298,2.535,10.957,7.971,9.145C181.38,183.32,173.128,179.77,170.871,179.312z"/>
	<path fill="#7C6400" d="M48.405,38.795c-2.536,5.139,5.716,8.687,7.972,9.147C56.233,45.643,53.842,36.983,48.405,38.795z"/>
	<path fill="#7C6400" d="M160.067,187.348c-0.21,2.293,0.816,11.217,6.466,10.264C169.832,192.928,162.226,188.148,160.067,187.348z
		"/>
	<path fill="#7C6400" d="M60.717,29.639c-3.3,4.685,4.307,9.463,6.466,10.265C67.391,37.61,66.365,28.686,60.717,29.639z"/>
	<path fill="#7C6400" d="M149.396,193.075c-0.525,2.242-0.746,11.223,4.983,11.062C158.295,199.955,151.425,194.166,149.396,193.075
		z"/>
	<path fill="#7C6400" d="M72.872,23.113c-3.918,4.184,2.954,9.971,4.98,11.063C78.377,31.935,78.598,22.955,72.872,23.113z"/>
	<path fill="#7C6400" d="M137.282,197.483c-0.851,2.14-2.394,10.991,3.294,11.677C145.067,205.6,139.127,198.863,137.282,197.483z"
		/>
	<path fill="#7C6400" d="M86.672,18.092c-4.491,3.559,1.45,10.295,3.295,11.678C90.819,27.629,92.362,18.778,86.672,18.092z"/>
	<path fill="#7C6400" d="M127.071,211.974c4.941-2.902-0.009-10.398-1.643-12.021C124.289,201.954,121.532,210.504,127.071,211.974z
		"/>
	<path fill="#7C6400" d="M100.178,15.279c-4.94,2.902,0.008,10.398,1.643,12.019C102.961,25.297,105.716,16.746,100.178,15.279z"/>
	<path fill-rule="evenodd" clip-rule="evenodd" fill="#7C6400" d="M89.44,173.136c0.816,0.491,12.455-23.946,43.299-27.613
		c-28.66,5.835-40.34,25.167-43.808,35.292c-1.099,3.208,3.064,2.393,3.076,2.278c0.445-3.909,0.867-5.423,2.179-7.451
		c0.843,0.294,1.919,0.66,2.097,0.722c23.947,8.479,50.418-9.156,50.418-35.716v-7.938
		C119.998,151.524,105.879,109.373,89.44,173.136z"/>
	<path fill-rule="evenodd" clip-rule="evenodd" fill="#7C6400" d="M108.832,47.463c-20.828,0-37.87,17.041-37.87,37.868v19.361
		c1.334-0.242,5.302-5.328,9.359-11.165v-8.196c0-15.673,12.83-28.508,28.51-28.508c15.681,0,28.508,12.828,28.508,28.508v14.426
		c3.393,2.602,5.92,3.528,9.361,4.809V85.332C146.701,64.506,129.661,47.463,108.832,47.463z"/>
	<path fill-rule="evenodd" clip-rule="evenodd" fill="#7C6400" d="M153.138,112c-9.21-4.174-11.863-3.297-19.84-10.932
		c-7.105-7.092-10.704-18.712-21.314-21.276c1.709-4.916,1.847-9.88-0.022-14.895c-1.649,1.955-3.111,4.113-4.174,6.706
		c1.123-4.336,1.089-8.603,0.153-12.818c-11.573,5.807-14.609,13.675-17.01,20.74c-1.304,3.838-12.063,26.242-20.181,32.236
		l0.056,25.83c-0.166,13.311,4.269,24.464,14.794,32.906c2.723-10.568,7.444-28.55,17.558-36.201
		c9.19-6.952,22.328,0.296,30.575-0.621C140.408,132.935,165.461,117.588,153.138,112z"/>
</g>
</svg>
