<?xml version="1.0" encoding="utf-8"?>
<!-- Generator: Adobe Illustrator 24.3.0, SVG Export Plug-In . SVG Version: 6.00 Build 0)  -->
<svg version="1.1" id="Layer_7" xmlns="http://www.w3.org/2000/svg" xmlns:xlink="http://www.w3.org/1999/xlink" x="0px" y="0px"
	 viewBox="0 0 208.108 176.999" enable-background="new 0 0 208.108 176.999" xml:space="preserve">
<g>
	<path fill="#217BB3" d="M120.67,77.621l-2.818-4.881c1.782-2.625,4.43-5.262,8.141-6.066c0,0-4.567-0.377-9.313,4.036
		c-3.071,2.856-6.217,7.72-8.252,15.991c-0.143,0.583-0.281,1.181-0.413,1.799c0,0,1.066-0.712,2.741-1.799h15.157l-3.986-6.903
		L120.67,77.621z"/>
	<path fill="#217BB3" d="M97.352,70.55c-4.492-4.26-8.719-3.9-8.719-3.9c3.562,0.772,6.014,3.238,7.643,5.762l-3.007,5.208
		l-1.258,2.177l-3.985,6.903h15.157c1.675,1.087,2.741,1.799,2.741,1.799c-0.132-0.618-0.27-1.216-0.412-1.799
		C103.456,78.281,100.345,73.388,97.352,70.55z"/>
	<path fill="#217BB3" d="M115.137,68.036l-8.167-14.145L98.835,67.98c-2.044-0.909-3.573-1.026-3.573-1.026s1.306,0.675,3.074,1.89
		c2.819,1.935,6.813,5.239,8.571,9.361c0,0,3.511-5.597,8.705-9.345c0.968-0.698,1.993-1.332,3.066-1.854
		C118.678,67.006,117.197,67.197,115.137,68.036z M107.01,68.952c-1.604,0-2.905-1.301-2.905-2.905c0-1.605,1.301-2.905,2.905-2.905
		c1.605,0,2.906,1.3,2.906,2.905C109.916,67.651,108.615,68.952,107.01,68.952z"/>
	<path fill="#217BB3" d="M120.67,99.379l-2.818,4.881c1.782,2.625,4.43,5.262,8.141,6.066c0,0-4.567,0.377-9.313-4.036
		c-3.071-2.856-6.217-7.72-8.252-15.991c-0.143-0.583-0.281-1.181-0.413-1.799c0,0,1.066,0.712,2.741,1.799h15.157l-3.986,6.903
		L120.67,99.379z"/>
	<path fill="#217BB3" d="M97.352,106.449c-4.492,4.26-8.719,3.9-8.719,3.9c3.562-0.772,6.014-3.238,7.643-5.762l-3.007-5.208
		l-1.258-2.177l-3.985-6.903h15.157c1.675-1.087,2.741-1.799,2.741-1.799c-0.132,0.618-0.27,1.217-0.412,1.799
		C103.456,98.718,100.345,103.611,97.352,106.449z"/>
	<path fill="#217BB3" d="M115.137,108.963l-8.167,14.145l-8.134-14.089c-2.044,0.909-3.573,1.026-3.573,1.026
		s1.306-0.675,3.074-1.89c2.819-1.935,6.813-5.239,8.571-9.361c0,0,3.511,5.597,8.705,9.345c0.968,0.698,1.993,1.332,3.066,1.854
		C118.678,109.993,117.197,109.803,115.137,108.963z M107.01,108.047c-1.604,0-2.905,1.301-2.905,2.905
		c0,1.605,1.301,2.905,2.905,2.905c1.605,0,2.906-1.3,2.906-2.905C109.916,109.348,108.615,108.047,107.01,108.047z"/>
	<path fill="#217BB3" d="M134.207,129.03c-4.416,2.159-25.856,0-26.088,2.562c-0.673,7.4,13.937,9.93,17.881,10.732
		c16.428,3.337,29.523-6.42,48.72-24.474c19.816-18.635,35.011-46.478,33.249-71.589c-2.485-35.406-34.285-53.405-62.58-43.615
		C126.867,9.054,115.775,19.439,110.35,25.8c-2.167,2.54-6.06,2.54-8.227,0C96.697,19.439,85.605,9.054,67.083,2.647
		C38.788-7.143,7.227,11.81,1.178,45.263c-7.289,40.308,19.789,86.677,66.528,115.53c11.69,7.216,47.356,20.263,65.334,14.979
		c11.733-3.449,41.464-26.942,38.22-30.173c-8.154-8.12-27.602,12.221-42.178,11.227c-13.665-0.932-22.672-3.416-27.331-10.249
		c-7.57-11.102-6.028-25.681-9.694-24.454c-8.817-2.949-2.849,19.681-10.321,15.17C50.173,118.24,31.802,87.164,36.68,60.188
		c4.005-22.148,24.901-34.697,43.634-28.215c10.958,3.791,17.988,9.684,21.923,13.9c2.175,2.33,5.823,2.33,7.998,0
		c3.935-4.216,10.965-10.11,21.923-13.9c18.734-6.482,39.629,6.067,43.635,28.215c3.117,17.24-3.291,36.143-16.541,52.523
		c-5.7-2.171-18.362-9.634-22.049-3.926c-2.232,3.455,5.375,5.881,6.322,8.599C144.922,121.393,137.564,127.388,134.207,129.03z"/>
</g>
<g>
	<path fill="#34B8D7" d="M132.124,166c12.497-1.99,25.978-15.399,39.322-20.079c-0.04-0.12-0.095-0.232-0.185-0.322
		c-8.154-8.12-27.602,12.221-42.178,11.227c-13.665-0.932-22.672-3.416-27.331-10.249c-7.57-11.102-6.028-25.681-9.694-24.454
		c-8.817-2.949-2.849,19.681-10.321,15.17C50.173,118.24,31.802,87.163,36.68,60.188c4.005-22.149,24.901-34.697,43.634-28.215
		c4.892,1.693,8.96,3.809,12.36,6.003C78.826,27.71,65.088,19.088,47.432,23.564c-11.441,2.9-22.59,15.052-25.107,26.651
		C8.64,113.29,85.632,173.403,132.124,166z"/>
	<path fill="#34B8D7" d="M207.969,46.261c-2.485-35.406-34.285-53.405-62.58-43.615c-9.448,3.269-16.953,7.572-22.769,11.849
		c0.096,0.612,23.984-8.597,38.228-4.849c28.132,7.403,34.553,33.608,30.631,58.628c-3.456,22.044-28.04,58.267-56.69,68.483
		c-5.777,2.06-19.322-0.666-24.554-6.169c-1.283,0.208-2.072,0.523-2.116,1.003c-0.673,7.4,13.937,9.93,17.881,10.731
		c16.427,3.337,29.523-6.42,48.72-24.473C194.536,99.215,209.731,71.372,207.969,46.261z"/>
</g>
</svg>
