<?xml version="1.0" encoding="utf-8"?>
<!-- Generator: Adobe Illustrator 24.3.0, SVG Export Plug-In . SVG Version: 6.00 Build 0)  -->
<svg version="1.1" id="Layer_5" xmlns="http://www.w3.org/2000/svg" xmlns:xlink="http://www.w3.org/1999/xlink" x="0px" y="0px"
	 viewBox="0 0 303.354 206.292" enable-background="new 0 0 303.354 206.292" xml:space="preserve">
<g>
	<path fill="#63A013" d="M151.675,68.711c32.133,0,58.553,23.389,61.653,53.333c0.199-1.943,0.304-3.911,0.304-5.906
		c0-32.714-27.74-59.234-61.957-59.234s-61.957,26.52-61.957,59.234c0,1.995,0.105,3.964,0.309,5.906
		C93.127,92.1,119.542,68.711,151.675,68.711"/>
	<path fill="#63A013" d="M174.032,22.404c0,12.372-10.011,22.404-22.357,22.404c-12.346,0-22.357-10.032-22.357-22.404
		C129.318,10.027,139.329,0,151.675,0C164.021,0,174.032,10.027,174.032,22.404"/>
</g>
<g>
	<path fill="#23A2E2" d="M137.166,173.895c-40.159,36.651-90.042,7.184-75.387-20.582c9.781-18.53,35.049-20.703,35.049-20.703
		s-23.509-12.262-42.657-0.707c-3.492,2.11-6.686,5.409-9.241,9.482c0.01-4.194-1.147-8.44-3.581-12.221
		c-6.723-10.456-20.629-13.462-31.059-6.723c-10.425,6.744-13.425,20.677-6.702,31.127c6.723,10.446,20.629,13.456,31.059,6.718
		c1.848-1.194,3.461-2.623,4.833-4.215c-2.791,17.54,5.843,38.882,39.275,48.134c53.7,14.86,83.167-54.495,117.358-55.684
		C196.112,148.522,175.587,138.835,137.166,173.895"/>
	<circle fill="#23A2E2" cx="149.759" cy="113.324" r="33.878"/>
</g>
<g>
	<path fill="#F90083" d="M293.06,121.688c-10.43-6.739-24.337-3.733-31.059,6.718c-2.587,4.021-3.728,8.555-3.571,13.001
		c-2.55-4.084-5.749-7.393-9.252-9.503c-19.148-11.556-42.652,0.707-42.652,0.707s25.263,2.173,35.044,20.703
		c14.655,27.766-35.227,57.234-75.387,20.582c-38.421-35.06-58.946-25.373-58.946-25.373c34.19,1.189,63.663,70.543,117.363,55.684
		c34.028-9.419,42.359-31.363,39.112-49.076c1.398,1.665,3.068,3.157,4.99,4.398c10.43,6.739,24.337,3.733,31.059-6.718
		C306.49,142.364,303.49,128.426,293.06,121.688"/>
</g>
</svg>
