<?xml version="1.0" encoding="utf-8"?>
<!-- Generator: Adobe Illustrator 24.3.0, SVG Export Plug-In . SVG Version: 6.00 Build 0)  -->
<svg version="1.1" id="Layer_6" xmlns="http://www.w3.org/2000/svg" xmlns:xlink="http://www.w3.org/1999/xlink" x="0px" y="0px"
	 viewBox="0 0 184.777 181.53" enable-background="new 0 0 184.777 181.53" xml:space="preserve">
<g>
	<path fill="#43B9CF" d="M184.673,104.07c0.39-11.17-0.09-22.68-5.01-32.92c-5.42-11.31-14.9-20.01-25.88-25.83
		c-1.14-0.6-2.41-1.2-3.66-0.9c-1.42,0.34-2.31,1.7-3.05,2.95c-6.3,10.52-12.59,21.04-18.89,31.56c-1.75,2.94-3.54,6.59-1.91,9.6
		c1.07,1.97,3.29,2.97,5.03,4.38c4.12,3.35,5.47,9,6.1,14.27c1.99,16.54-0.67,33.61-7.6,48.76c-1.67,3.65-3.91,7.48-7.69,8.83
		c-2.32,0.82-4.85,0.57-7.29,0.31c-8.39-0.9-16.78-1.79-25.16-2.69c-3.39-0.36-6.89-0.75-9.84-2.46c-2.94-1.71-5.19-5.12-4.46-8.44
		c-1.23,3.16-4.99,4.73-8.38,4.48c-3.38-0.24-6.48-1.89-9.47-3.5c-3.16-1.71-6.32-3.42-9.49-5.13c-3.05-1.66-6.62-4.8-5.02-7.88
		c0.49-0.94,1.46-1.89,1.06-2.87c-0.43-1.06-1.93-0.95-3.05-0.78c-7.24,1.11-14.97-3.19-17.83-9.93
		c21.32-6.13,39.23-20.38,56.18-34.69c5.67-4.78,11.96-9.87,19.38-9.96c5.26-0.06,11.1,2.33,15.44-0.66
		c1.72-1.18,2.84-3.04,3.91-4.84c6.58-11.07,13.16-22.14,19.74-33.21c1.09-1.82,2.21-3.86,1.82-5.94c-0.39-2.13-2.24-3.63-3.95-4.94
		c-12.53-9.54-25.05-19.09-37.57-28.63c-2.38-1.82-5.44-3.76-8.53-2.71c-3.06,1.03-5.94,4.12-8.49,6.06
		c-24.17,18.37-48.34,36.73-72.5,55.1c-2.82,2.14-5.75,4.41-7.24,7.62c-1.35,2.89-1.37,6.19-1.37,9.38
		c0,32.22,0.01,64.45,0.01,96.67c0,1.46,0.03,3.03,0.86,4.24c1.34,1.96,4.11,2.16,6.48,2.16h167.71c7.06,0,9.5-5.94,9.59-12.1
		c0.14-8.83-0.61-51.01-0.07-63.31C184.613,105.44,184.643,104.76,184.673,104.07z M81.323,38.67c0-1.62,1.31-2.94,2.94-2.94h6.84
		c1.62,0,2.93,1.32,2.93,2.94v6.84c0,1.63-1.31,2.94-2.93,2.94h-6.84c-1.63,0-2.94-1.31-2.94-2.94V38.67z M81.323,53.56
		c0-1.62,1.31-2.94,2.94-2.94h6.84c1.62,0,2.93,1.32,2.93,2.94v6.84c0,1.62-1.31,2.94-2.93,2.94h-6.84c-1.63,0-2.94-1.32-2.94-2.94
		V53.56z M64.783,38.67c0-1.62,1.31-2.94,2.93-2.94h6.84c1.63,0,2.94,1.32,2.94,2.94v6.84c0,1.63-1.31,2.94-2.94,2.94h-6.84
		c-1.62,0-2.93-1.31-2.93-2.94V38.67z M64.783,53.56c0-1.62,1.31-2.94,2.93-2.94h6.84c1.63,0,2.94,1.32,2.94,2.94v6.84
		c0,1.62-1.31,2.94-2.94,2.94h-6.84c-1.62,0-2.93-1.32-2.93-2.94V53.56z"/>
</g>
</svg>
