<?xml version="1.0" encoding="utf-8"?>
<!-- Generator: Adobe Illustrator 24.3.0, SVG Export Plug-In . SVG Version: 6.00 Build 0)  -->
<svg version="1.1" id="Layer_1" xmlns="http://www.w3.org/2000/svg" xmlns:xlink="http://www.w3.org/1999/xlink" x="0px" y="0px"
	 viewBox="0 0 367.213 280.028" enable-background="new 0 0 367.213 280.028" xml:space="preserve">
<g>
	<path fill="#EFBC1C" d="M367.213,0c-25.934,45.559-60.495,78.639-112.281,89.701c-10.958,2.341-22.479,1.952-33.695,3.22
		c-6.887,0.779-13.892,1.648-20.481,3.663c-11.589,3.546-14.396,8.44-12.76,19.835c0.036,0.251-0.057,0.509-0.251,0.671l-1.25,1.049
		c-2.69-3.496-4.46-3.754-7.664-10.517c-3.705-7.822-1.312-18.419,2.04-25.949c9.994-22.449,29.353-33.927,52.993-37.538
		c11.795-1.802,23.984-1.792,35.965-1.473c35.365,0.94,64.586-12.609,89.646-36.605c1.912-1.831,3.771-3.718,5.674-5.559
		C365.296,0.355,365.601,0.377,367.213,0z"/>
	<path fill="#EFBC1C" d="M337.313,57.159c-1.11,1.57-2.13,3.22-3.34,4.71c-15.62,19.08-32.67,36.69-53.02,50.83
		c-12.98,9.02-26.79,16.41-42.87,17.61c-6.98,0.52-14.09-0.63-21.05-1.02c-16.17,1.19-22.82-5.18-22.82-5.18
		c2.188-5.312,5.544-9.337,9.125-12.359c6.529-5.511,14.896-8.286,23.438-8.455C268.669,102.464,305.435,86.347,337.313,57.159z"/>
	<path fill="#EFBC1C" d="M331.345,85.267c-13.351,16.765-25.907,34.181-39.62,50.628c-8.249,9.884-17.66,18.52-28.2,25.927
		c-10.804,7.594-23.909,11.459-37.039,10.043c-16.496-1.779-21.398-10.448-22.839-15.956c-0.614-2.348-0.037-4.77,1.254-6.824
		c0.099-0.158,0.188-0.321,0.263-0.49c4.224-9.431,10.169-13.294,21.423-10.878c19.253,4.108,37.61-1.389,53.811-11.514
		c12.758-7.985,24.012-18.371,35.801-27.875C321.393,94.163,324.547,87.451,331.345,85.267z"/>
</g>
<g>
	<path d="M159.36,124.344c-3.102-0.217-5.006-0.462-6.911-0.465c-15.657-0.03-31.315-0.088-46.971,0.037
		c-3.769,0.03-6.268-0.479-6.831-5.045c-0.478-3.877-3.407-6.012-7.437-6.05c-6.162-0.057-12.326-0.049-18.487,0.032
		c-4.582,0.06-7.744,2.258-8.427,6.894c-0.468,3.174-2.028,3.993-4.986,4.177c-29.81,1.854-52.641,21.717-58.659,50.995
		c-0.531,2.583-0.635,5.291-0.637,7.941c-0.028,30.148-0.008,60.297,0.025,90.445c0.007,6.29,0.333,6.64,6.376,6.649
		c18.988,0.029,37.978-0.07,56.965,0.073c4.123,0.031,6.85-1.202,8.836-4.988c3.4-6.481,7.163-12.777,10.932-19.056
		c1.857-3.093,1.576-5.211-1.346-7.657c-20.026-16.761-27.182-43.695-18.1-67.318c9.391-24.427,32.07-39.806,58.36-38.802
		c6.701,0.256,13.401,2.302,19.947,4.092c2.98,0.815,4.57,0.522,6.051-2.175C151.542,137.784,155.222,131.555,159.36,124.344z"/>
	<path d="M81.547,277.403c3.24,0.31,5.142,0.649,7.045,0.651c29.5,0.031,59.005,0.36,88.499-0.087
		c25.505-0.386,44.621-12.238,56.333-34.945c4.333-8.401,6.889-17.534,6.814-27.357c-0.222-28.998-0.144-58,0.066-86.999
		c0.036-4.944-1.373-6.779-6.486-6.722c-19.498,0.218-38.999,0.144-58.499,0.014c-3.628-0.024-5.851,1.27-7.56,4.453
		c-3.544,6.601-7.284,13.105-11.162,19.516c-1.949,3.221-1.808,5.172,1.329,7.903c19.567,17.036,26.548,38.376,19.517,63.451
		c-9.167,32.691-44.601,51.251-76.747,40.352c-5.316-1.803-7.758-0.866-10.051,3.932C88.229,266.623,85.081,271.331,81.547,277.403z
		"/>
	<path d="M119.926,152.432c28.026,0.224,49.771,22.119,49.546,49.889c-0.222,27.496-22.353,49.487-49.708,49.393
		c-27.134-0.094-49.625-22.716-49.511-49.8C70.369,174.548,92.787,152.215,119.926,152.432z M129.923,185.509
		c-8.033-3.937-17.842-2.122-23.969,4.397c-3.584,3.814-5.978,8.368-5.564,12.139c0.536,4.878,2.612,10.576,5.983,13.874
		c3.373,3.3,9.219,5.528,13.983,5.533c4.568,0.004,10.225-2.395,13.411-5.673c3.324-3.421,5.838-9.16,5.815-13.873
		c-0.022-4.722-2.568-10.47-5.936-13.844C132.597,187.01,131.314,186.191,129.923,185.509z M86.262,174.497
		c-5.283,6.711-8.107,13.281-9.318,20.634c-1.376,8.357-1.474,8.359,6.275,11.651c5.961,2.533,11.942,5.017,19.033,7.992
		C96.663,200.698,91.623,188.003,86.262,174.497z M124.492,245.2c11.094-1.19,19.403-5.504,26.345-12.588
		c0.557-0.569,1.002-1.863,0.743-2.523c-3.103-7.906-6.35-15.755-9.983-24.658C135.71,219.117,130.304,231.685,124.492,245.2z
		 M76.734,206.729c1.295,10.839,5.594,19.028,12.43,25.936c0.724,0.732,2.532,1.154,3.473,0.787
		c7.666-2.993,15.245-6.209,23.925-9.802C102.892,217.842,90.288,212.487,76.734,206.729z M146.993,167.949
		c-8.285-6.597-16.864-9.228-26.206-9.574c-1.086-0.04-2.839,0.691-3.22,1.541c-3.432,7.659-6.627,15.424-10.352,24.25
		C120.936,178.572,133.549,173.43,146.993,167.949z M137.769,189.241c5.705,14.023,10.839,26.643,16.204,39.829
		c6.455-8.038,9.35-16.485,9.481-25.85c0.018-1.305-1.043-3.323-2.148-3.833C153.985,196.014,146.516,192.962,137.769,189.241z
		 M115.226,158.771c-10.659,1.192-18.83,5.453-25.759,12.256c-0.584,0.573-1.086,1.891-0.829,2.556
		c3.056,7.927,6.264,15.796,9.825,24.658C104.24,184.639,109.539,172.161,115.226,158.771z M132.661,219.791
		c-13.923,5.726-26.485,10.891-39.664,16.311c8.137,6.415,16.804,9.191,26.299,9.539c0.99,0.036,2.539-0.997,2.961-1.927
		C125.667,236.201,128.868,228.594,132.661,219.791z"/>
</g>
</svg>
