<?xml version="1.0" encoding="utf-8"?>
<!-- Generator: Adobe Illustrator 24.3.0, SVG Export Plug-In . SVG Version: 6.00 Build 0)  -->
<svg version="1.1" id="Layer_7" xmlns="http://www.w3.org/2000/svg" xmlns:xlink="http://www.w3.org/1999/xlink" x="0px" y="0px"
	 viewBox="0 0 196.741 212.443" enable-background="new 0 0 196.741 212.443" xml:space="preserve">
<g>
	<path fill="#00D8C8" d="M51.307,161.811c3.468,0.786,6.975,1.193,10.528,1.224c1.591,0,3.177-0.08,4.75-0.206
		c-5.429-3.664-10.081-8.133-13.959-13.405l-1.139-12.807h-1.492c-0.567,0-1.113-0.107-1.635-0.326
		c-0.523-0.214-0.988-0.523-1.39-0.925c-0.398-0.402-0.71-0.862-0.925-1.39c-0.219-0.523-0.326-1.068-0.326-1.635v-22.025
		c0-0.545,0.054-1.086,0.156-1.622c0.107-0.532,0.264-1.05,0.474-1.555c0.21-0.505,0.465-0.983,0.764-1.434
		c0.304-0.451,0.648-0.871,1.032-1.256c0.389-0.389,0.804-0.733,1.26-1.032c0.451-0.304,0.929-0.559,1.434-0.769
		c0.5-0.206,1.023-0.366,1.555-0.469c0.536-0.107,1.077-0.161,1.618-0.161h3.798c0.362,0.004,0.684-0.103,0.974-0.313
		c0.29-0.214,0.492-0.492,0.599-0.836c0.103-0.344,0.098-0.688-0.022-1.028s-0.331-0.608-0.63-0.809
		c-0.724-0.46-1.381-1.005-1.971-1.631c-0.585-0.626-1.086-1.318-1.501-2.069c-0.411-0.755-0.724-1.546-0.938-2.382
		c-0.214-0.831-0.322-1.676-0.317-2.534v-1.729c-0.004-0.715,0.071-1.421,0.219-2.118c0.147-0.702,0.366-1.376,0.657-2.029
		c0.286-0.652,0.639-1.265,1.059-1.845c0.416-0.576,0.889-1.104,1.421-1.586c0.527-0.478,1.099-0.898,1.716-1.256
		c0.617-0.362,1.265-0.652,1.939-0.876c0.679-0.223,1.372-0.375,2.082-0.456c0.706-0.076,1.416-0.08,2.127-0.013
		c5.317,0.509,9.209,5.264,9.209,10.613v1.314c0,0.858-0.107,1.707-0.317,2.538c-0.214,0.831-0.527,1.622-0.943,2.377
		c-0.411,0.755-0.912,1.443-1.501,2.069c-0.585,0.626-1.242,1.171-1.966,1.631c-0.295,0.206-0.505,0.478-0.621,0.813
		c-0.116,0.34-0.121,0.679-0.013,1.023c0.103,0.34,0.304,0.621,0.59,0.831c0.29,0.214,0.612,0.322,0.97,0.322h3.798
		c1.327,0,2.583,0.304,3.767,0.916c1.18,0.608,2.158,1.448,2.936,2.529c-0.742,0.232-1.461,0.518-2.154,0.862
		c-0.697,0.344-1.358,0.742-1.993,1.189c-0.63,0.451-1.224,0.947-1.774,1.492c-0.554,0.541-1.063,1.126-1.524,1.752
		c-0.46,0.621-0.867,1.278-1.224,1.966c-0.353,0.688-0.652,1.403-0.898,2.14c-0.241,0.733-0.424,1.488-0.55,2.252
		c-0.121,0.764-0.183,1.537-0.188,2.31v30.323c0.004,0.697,0.103,1.381,0.308,2.047c0.201,0.666,0.496,1.287,0.88,1.868
		c0.389,0.581,0.849,1.09,1.385,1.533c0.536,0.447,1.126,0.804,1.77,1.072l-0.487,5.393c3.021-0.643,5.97-1.524,8.856-2.632
		l-1.26-6.372h-4.379c-0.384,0-0.755-0.071-1.113-0.219s-0.675-0.357-0.947-0.63c-0.273-0.273-0.483-0.59-0.63-0.947
		c-0.147-0.353-0.219-0.728-0.219-1.113v-30.341c0-0.688,0.067-1.372,0.206-2.047c0.134-0.67,0.331-1.327,0.594-1.962
		c0.264-0.635,0.585-1.238,0.97-1.81c0.384-0.572,0.818-1.104,1.305-1.586c0.487-0.487,1.014-0.921,1.586-1.305
		c0.572-0.38,1.175-0.702,1.81-0.965c0.635-0.264,1.291-0.465,1.966-0.599c0.675-0.134,1.354-0.201,2.042-0.201h4.799
		c0.451,0.004,0.862-0.13,1.233-0.398c0.366-0.268,0.617-0.621,0.751-1.055c0.134-0.433,0.125-0.867-0.022-1.296
		c-0.152-0.429-0.416-0.773-0.791-1.028c-0.916-0.581-1.747-1.269-2.489-2.06c-0.746-0.791-1.376-1.662-1.899-2.614
		c-0.523-0.952-0.92-1.953-1.189-3.003c-0.268-1.055-0.407-2.123-0.407-3.208V92.09c0-0.849,0.085-1.689,0.25-2.52
		c0.165-0.831,0.411-1.64,0.733-2.422c0.326-0.782,0.724-1.524,1.198-2.23c0.469-0.706,1.005-1.358,1.604-1.957
		s1.251-1.131,1.957-1.604c0.706-0.469,1.448-0.867,2.234-1.189c0.782-0.326,1.591-0.567,2.422-0.733s1.671-0.246,2.516-0.246
		c0.067,0,0.134,0,0.197,0c0.067,0,0.134,0,0.201,0c0.845,0,1.685,0.08,2.516,0.246c0.836,0.161,1.64,0.407,2.426,0.728
		c0.782,0.326,1.528,0.724,2.234,1.193c0.706,0.469,1.358,1.005,1.957,1.604s1.135,1.251,1.609,1.953
		c0.469,0.706,0.867,1.452,1.193,2.234s0.567,1.591,0.733,2.422c0.165,0.831,0.25,1.671,0.25,2.52v2.19
		c0,1.086-0.134,2.154-0.402,3.204c-0.268,1.05-0.666,2.051-1.189,3.003c-0.518,0.952-1.153,1.823-1.895,2.618
		c-0.742,0.791-1.573,1.479-2.489,2.06c-0.375,0.255-0.639,0.594-0.791,1.023c-0.147,0.429-0.156,0.862-0.022,1.296
		c0.134,0.433,0.384,0.786,0.746,1.055c0.366,0.268,0.778,0.402,1.233,0.402h4.804c0.684,0,1.367,0.067,2.042,0.201
		c0.675,0.134,1.327,0.331,1.966,0.594c0.635,0.264,1.238,0.585,1.81,0.97c0.572,0.38,1.099,0.813,1.586,1.3s0.92,1.014,1.305,1.586
		c0.384,0.572,0.706,1.175,0.97,1.81c0.264,0.639,0.46,1.291,0.594,1.966c0.139,0.675,0.206,1.354,0.206,2.042v30.363
		c0,0.384-0.076,0.755-0.223,1.113c-0.147,0.357-0.357,0.67-0.63,0.943s-0.585,0.478-0.943,0.626s-0.728,0.223-1.113,0.219h-4.379
		l-2.02,10.179c0.715,4.062-0.974,8.669-4.477,11.748c-2.963,2.636-6.198,4.888-9.701,6.752c6.345-0.013,12.565-0.916,18.651-2.717
		c2.69-1.662,5.192-3.575,7.503-5.733c2.1-2.051,4.442-3.776,7.029-5.17c1.845-0.992,3.821-1.506,5.921-1.542
		c0.853,0.004,1.694,0.112,2.516,0.322c1.644-1.323,3.222-2.717,4.728-4.191c1.51-1.47,2.949-3.012,4.312-4.62
		c1.363-1.609,2.645-3.275,3.852-5.005c1.202-1.734,2.324-3.517,3.36-5.353c1.037-1.837,1.98-3.718,2.837-5.644
		c0.858-1.926,1.622-3.888,2.292-5.889c0.67-1.997,1.242-4.022,1.72-6.077c0.478-2.051,0.858-4.124,1.139-6.216
		c0.282-2.087,0.465-4.187,0.545-6.292c0.085-2.109,0.067-4.214-0.054-6.318c-0.116-2.105-0.335-4.2-0.652-6.283
		c-0.317-2.087-0.728-4.151-1.242-6.193c-0.514-2.047-1.122-4.062-1.828-6.05c-0.702-1.988-1.501-3.937-2.391-5.849
		c-0.889-1.912-1.863-3.776-2.931-5.594c-1.068-1.819-2.216-3.584-3.45-5.295l-50.735-73.85c-0.188-0.277-0.407-0.527-0.657-0.751
		c-0.25-0.223-0.523-0.411-0.822-0.567c-0.295-0.156-0.608-0.273-0.929-0.353C99.061,0.04,98.73,0,98.395,0
		c-0.335,0-0.666,0.04-0.988,0.121c-0.326,0.08-0.639,0.197-0.934,0.353c-0.295,0.156-0.567,0.344-0.818,0.567
		c-0.25,0.223-0.469,0.474-0.661,0.751l-50.73,73.85c-1.153,1.591-2.23,3.231-3.231,4.915c-1.005,1.685-1.935,3.409-2.784,5.179
		c-0.853,1.77-1.627,3.57-2.319,5.407c-0.693,1.832-1.3,3.695-1.828,5.586c-0.527,1.89-0.97,3.798-1.332,5.729
		c-0.357,1.93-0.63,3.87-0.818,5.822c-0.183,1.953-0.286,3.91-0.299,5.872c-0.013,1.962,0.063,3.923,0.219,5.876
		c0.161,1.957,0.407,3.901,0.737,5.836c0.335,1.935,0.751,3.847,1.251,5.746c0.5,1.895,1.086,3.767,1.756,5.612
		c0.666,1.845,1.412,3.655,2.239,5.434c0.827,1.778,1.734,3.521,2.712,5.219c0.983,1.698,2.038,3.351,3.164,4.955
		c1.131,1.604,2.324,3.159,3.588,4.656C48.585,158.987,49.917,160.43,51.307,161.811z M122.708,88.689
		c0-0.715,0.076-1.421,0.223-2.118c0.147-0.702,0.366-1.376,0.652-2.029c0.29-0.652,0.643-1.265,1.063-1.845
		c0.416-0.576,0.889-1.104,1.416-1.586c0.532-0.478,1.104-0.898,1.72-1.256c0.617-0.362,1.26-0.652,1.939-0.876
		s1.372-0.375,2.078-0.456c0.71-0.076,1.421-0.08,2.131-0.013c5.313,0.509,9.209,5.264,9.209,10.613v1.314
		c0,0.858-0.107,1.707-0.322,2.538c-0.21,0.831-0.523,1.622-0.938,2.377c-0.411,0.755-0.912,1.443-1.501,2.069
		c-0.585,0.626-1.242,1.171-1.971,1.631c-0.299,0.201-0.505,0.474-0.626,0.813c-0.121,0.34-0.13,0.679-0.022,1.023
		s0.304,0.626,0.594,0.836c0.29,0.214,0.617,0.317,0.979,0.317h3.794c0.545,0,1.086,0.054,1.618,0.156
		c0.536,0.107,1.055,0.264,1.555,0.474c0.505,0.21,0.983,0.465,1.434,0.769c0.456,0.299,0.871,0.643,1.26,1.028
		c0.384,0.389,0.728,0.804,1.032,1.26c0.299,0.451,0.554,0.929,0.764,1.434c0.21,0.5,0.366,1.019,0.474,1.555
		c0.103,0.532,0.156,1.072,0.156,1.618v22.007c0,0.567-0.107,1.113-0.322,1.635c-0.219,0.527-0.527,0.988-0.929,1.39
		s-0.862,0.71-1.385,0.925c-0.527,0.219-1.072,0.326-1.64,0.326h-1.492l-1.099,12.168c-2.77,3.91-5.988,7.413-9.643,10.51
		c-3.66,3.097-7.645,5.688-11.958,7.78l-0.974-10.769c0.643-0.268,1.233-0.626,1.77-1.072c0.536-0.442,0.996-0.952,1.385-1.533
		c0.384-0.581,0.679-1.202,0.88-1.868c0.206-0.67,0.304-1.349,0.308-2.047v-30.354c-0.004-0.778-0.067-1.546-0.188-2.315
		c-0.125-0.764-0.308-1.515-0.55-2.252c-0.246-0.737-0.545-1.448-0.898-2.136c-0.357-0.688-0.769-1.345-1.229-1.971
		c-0.46-0.626-0.965-1.206-1.519-1.752c-0.554-0.541-1.144-1.041-1.778-1.488c-0.63-0.451-1.291-0.849-1.988-1.193
		c-0.693-0.344-1.412-0.63-2.154-0.858c0.778-1.081,1.756-1.926,2.936-2.534c1.184-0.608,2.44-0.912,3.767-0.916h3.798
		c0.357,0.004,0.684-0.103,0.974-0.313c0.29-0.214,0.492-0.492,0.594-0.836c0.107-0.344,0.103-0.688-0.018-1.028
		s-0.331-0.608-0.63-0.809c-0.724-0.46-1.381-1.005-1.971-1.631c-0.585-0.626-1.086-1.318-1.501-2.069
		c-0.411-0.755-0.724-1.546-0.938-2.382c-0.214-0.831-0.322-1.676-0.322-2.534V88.689z M77.483,43.304h13.119V30.18h15.59v13.115
		h13.11v15.581h-13.11v13.119h-15.59V58.876H77.483V43.304z"/>
	<path fill="#00D8C8" d="M151.082,186.378c5-7.078-0.858-14.017-10.791-5.197c4.844-5.769,1.014-12.963-6.3-9.241
		c-4.947,2.52-6.828,6.189-14.286,10.756c-17.105,10.456-37.428,5.157-42.763-0.147c12.967-1.314,20.926-5.009,28.29-11.488
		c5.921-5.224,4.728-18.151-17.682-8.553c-35.073,15.023-71.902-5.014-84.525-24.036c0.505,1.971,1.068,3.923,1.694,5.854
		c0.626,1.935,1.309,3.847,2.055,5.737c0.746,1.895,1.546,3.758,2.404,5.599c0.862,1.845,1.778,3.655,2.753,5.443
		c0.97,1.783,1.997,3.539,3.079,5.259c1.081,1.72,2.212,3.405,3.396,5.058c1.189,1.649,2.422,3.262,3.709,4.839
		c1.282,1.573,2.619,3.106,3.999,4.598s2.802,2.94,4.272,4.343c1.47,1.403,2.985,2.761,4.54,4.071
		c1.551,1.309,3.146,2.574,4.777,3.785c1.635,1.211,3.302,2.368,5.005,3.476c1.707,1.108,3.441,2.163,5.21,3.164
		s3.57,1.944,5.398,2.833c1.828,0.889,3.682,1.72,5.559,2.493c1.881,0.778,3.785,1.492,5.706,2.149
		c1.926,0.652,3.865,1.251,5.827,1.787c1.962,0.536,3.937,1.01,5.925,1.421c1.993,0.416,3.995,0.769,6.006,1.059
		c2.011,0.286,4.031,0.514,6.055,0.679c2.029,0.165,4.057,0.268,6.09,0.304c2.029,0.04,4.062,0.013,6.095-0.071
		c2.029-0.089,4.057-0.237,6.077-0.451c2.02-0.21,4.035-0.487,6.037-0.822c2.006-0.34,3.999-0.737,5.979-1.198
		s3.941-0.983,5.889-1.564c1.948-0.585,3.874-1.224,5.782-1.926s3.794-1.466,5.653-2.283c1.863-0.818,3.695-1.694,5.501-2.623
		c1.805-0.934,3.584-1.921,5.326-2.963c1.747-1.041,3.459-2.14,5.134-3.284c1.68-1.148,3.32-2.35,4.92-3.597
		C163.442,187.768,158.093,179.399,151.082,186.378z"/>
</g>
<g>
	<path fill="#1C1C1C" d="M196.718,111.979c-0.049-2.31-0.179-4.62-0.393-6.926s-0.505-4.598-0.88-6.881
		c-0.375-2.283-0.827-4.549-1.363-6.801c-0.536-2.252-1.148-4.482-1.841-6.689c-0.688-2.212-1.457-4.393-2.306-6.546
		c-0.845-2.154-1.765-4.276-2.762-6.363c-0.992-2.091-2.06-4.142-3.204-6.153c-1.139-2.015-2.346-3.986-3.628-5.916
		c-1.278-1.926-2.623-3.807-4.035-5.639c-1.412-1.837-2.887-3.615-4.424-5.344s-3.137-3.405-4.79-5.023
		c-1.658-1.618-3.369-3.173-5.134-4.669c-1.765-1.492-3.579-2.927-5.447-4.294s-3.78-2.668-5.737-3.901s-3.959-2.395-6.001-3.485
		c-2.038-1.095-4.115-2.114-6.229-3.056c-2.109-0.947-4.254-1.819-6.426-2.61c-2.176-0.795-4.375-1.51-6.6-2.149
		c-2.221-0.639-4.468-1.202-6.729-1.68c-2.249-0.479-4.512-0.874-6.788-1.194l22.123,32.187c1.318,0.724,2.619,1.488,3.896,2.292
		c1.273,0.8,2.525,1.64,3.749,2.52c1.224,0.88,2.422,1.792,3.588,2.744c1.171,0.952,2.31,1.939,3.418,2.958
		c1.108,1.023,2.185,2.073,3.231,3.164c1.041,1.086,2.055,2.198,3.03,3.347c0.979,1.148,1.921,2.324,2.824,3.53
		c0.907,1.206,1.774,2.435,2.605,3.695c0.831,1.256,1.622,2.538,2.373,3.843c0.751,1.305,1.466,2.632,2.136,3.981
		c0.67,1.349,1.3,2.717,1.89,4.107c0.59,1.385,1.135,2.788,1.64,4.209c0.5,1.421,0.961,2.855,1.376,4.303
		c0.416,1.448,0.786,2.909,1.113,4.379c0.331,1.475,0.612,2.954,0.849,4.442s0.429,2.98,0.572,4.482
		c0.147,1.497,0.246,3.003,0.304,4.509c0.054,1.506,0.063,3.012,0.027,4.518c-0.04,1.506-0.121,3.012-0.25,4.513
		s-0.304,2.998-0.523,4.486c-0.219,1.492-0.483,2.976-0.791,4.451c-0.313,1.475-0.666,2.936-1.063,4.392
		c-0.398,1.452-0.84,2.891-1.327,4.317c-0.487,1.43-1.014,2.837-1.586,4.232c-0.572,1.394-1.189,2.77-1.841,4.129
		c-0.657,1.354-1.354,2.69-2.091,4.004c-0.737,1.318-1.515,2.605-2.328,3.874c-0.818,1.269-1.671,2.507-2.56,3.722
		c-0.889,1.215-1.819,2.404-2.779,3.561c-0.965,1.162-1.962,2.288-2.994,3.387c-1.032,1.099-2.096,2.167-3.195,3.199
		c-1.095,1.032-2.221,2.033-3.378,2.998c0.062,0.116,0.143,0.228,0.201,0.353c0.152,0.335,0.29,0.657,0.411,1.019
		c0.666-0.112,1.341-0.17,2.02-0.17c0.804-0.022,1.6,0.072,2.382,0.268c0.782,0.201,1.519,0.505,2.216,0.912
		s1.327,0.903,1.886,1.484c0.559,0.581,1.028,1.229,1.408,1.944c0.344,0.661,0.603,1.354,0.778,2.078
		c0.952,0.121,1.863,0.384,2.735,0.795c0.867,0.407,1.649,0.943,2.35,1.6c0.697,0.661,1.278,1.412,1.738,2.257
		c0.46,0.845,0.777,1.738,0.952,2.681c1.698-1.568,3.342-3.199,4.929-4.884c1.582-1.685,3.106-3.427,4.571-5.219
		c1.461-1.796,2.86-3.637,4.191-5.527c1.332-1.895,2.596-3.829,3.789-5.813c1.198-1.979,2.319-3.999,3.374-6.064
		c1.055-2.06,2.033-4.156,2.936-6.283c0.907-2.131,1.734-4.29,2.489-6.479c0.751-2.185,1.425-4.397,2.024-6.636
		c0.594-2.234,1.113-4.491,1.551-6.761c0.438-2.274,0.795-4.558,1.072-6.855c0.273-2.297,0.469-4.602,0.581-6.913
		C196.736,116.608,196.768,114.294,196.718,111.979z"/>
	<path fill="#1C1C1C" d="M75.257,18.45c-1.577,0.384-3.141,0.804-4.696,1.265c-1.555,0.46-3.101,0.956-4.629,1.492
		c-1.533,0.536-3.047,1.108-4.549,1.72c-1.506,0.608-2.989,1.256-4.459,1.939c-1.475,0.688-2.927,1.408-4.361,2.163
		c-1.434,0.755-2.851,1.546-4.245,2.373s-2.77,1.685-4.124,2.578s-2.686,1.823-3.99,2.779c-1.309,0.961-2.592,1.953-3.852,2.976
		c-1.256,1.023-2.489,2.078-3.695,3.159c-1.206,1.086-2.386,2.198-3.539,3.338c-1.148,1.144-2.274,2.315-3.365,3.512
		c-1.095,1.198-2.158,2.422-3.19,3.669c-1.032,1.251-2.038,2.529-3.007,3.825c-0.97,1.3-1.908,2.623-2.811,3.972
		c-0.907,1.345-1.778,2.712-2.614,4.102c-0.836,1.385-1.64,2.797-2.409,4.223c-0.764,1.43-1.497,2.878-2.194,4.343
		c-0.697,1.466-1.354,2.945-1.98,4.442c-0.621,1.497-1.206,3.012-1.756,4.535c-0.545,1.528-1.059,3.065-1.528,4.616
		c-0.474,1.555-0.907,3.115-1.3,4.687c-0.398,1.573-0.751,3.155-1.068,4.745S1.3,98.096,1.063,99.7
		c-0.237,1.604-0.438,3.213-0.594,4.826c-0.156,1.613-0.277,3.231-0.353,4.853C0.036,110.996,0,112.618,0,114.24
		c0,1.622,0.045,3.244,0.125,4.862c0.08,1.618,0.206,3.235,0.366,4.848c0.161,1.618,0.362,3.226,0.603,4.826
		c8.186,11.073,22.181,22.208,36.941,28.661c-0.769-1.064-1.506-2.149-2.212-3.253c-0.71-1.104-1.385-2.225-2.038-3.365
		c-0.648-1.135-1.265-2.292-1.854-3.463c-0.585-1.175-1.144-2.359-1.667-3.561c-0.527-1.202-1.019-2.417-1.479-3.646
		c-0.46-1.224-0.889-2.462-1.282-3.713c-0.398-1.251-0.755-2.511-1.086-3.78c-0.326-1.269-0.621-2.547-0.885-3.829
		c-0.259-1.287-0.487-2.578-0.679-3.874s-0.349-2.596-0.474-3.905c-0.125-1.305-0.21-2.61-0.268-3.919
		c-0.054-1.314-0.072-2.623-0.058-3.932c0.013-1.314,0.067-2.623,0.147-3.928c0.085-1.309,0.206-2.614,0.357-3.919
		c0.156-1.3,0.344-2.596,0.563-3.892c0.223-1.291,0.478-2.574,0.769-3.856c0.29-1.278,0.612-2.547,0.97-3.807
		c0.357-1.265,0.751-2.516,1.171-3.753c0.424-1.242,0.88-2.471,1.372-3.686c0.487-1.215,1.005-2.422,1.56-3.611
		c0.55-1.189,1.135-2.364,1.747-3.521c0.617-1.157,1.26-2.297,1.935-3.423c0.675-1.126,1.381-2.23,2.114-3.316
		c0.733-1.086,1.492-2.154,2.283-3.199c0.791-1.05,1.604-2.073,2.449-3.079c0.844-1.001,1.716-1.984,2.61-2.94
		c0.898-0.956,1.819-1.89,2.761-2.797c0.947-0.912,1.912-1.792,2.904-2.65c0.992-0.858,2.006-1.689,3.043-2.493
		c1.037-0.804,2.091-1.577,3.168-2.328c1.077-0.746,2.176-1.466,3.289-2.154c1.117-0.693,2.248-1.354,3.396-1.984l22.15-32.226
		c-1.604,0.223-3.204,0.487-4.799,0.791C78.421,17.726,76.835,18.07,75.257,18.45z"/>
</g>
</svg>
