<?xml version="1.0" encoding="utf-8"?>
<!-- Generator: Adobe Illustrator 24.3.0, SVG Export Plug-In . SVG Version: 6.00 Build 0)  -->
<svg version="1.1" id="Layer_1" xmlns="http://www.w3.org/2000/svg" xmlns:xlink="http://www.w3.org/1999/xlink" x="0px" y="0px"
	 viewBox="0 0 297.635 261.976" enable-background="new 0 0 297.635 261.976" xml:space="preserve">
<path fill="#8E2780" d="M24.298,4.519c-2.401,14.671-4.061,29.289-2.942,43.918c1.349,17.64,0.807,35.745,7.916,52.439
	c8.409,19.744,23.846,32.109,44.135,37.957c19.147,5.518,39.054,7.112,58.82,8.856c9.283,0.819,16.618,5.117,24.017,9.905
	c7.391,4.783,13.416,11.38,21.213,15.642c10.76,5.882,22.481,8.32,34.405,10.248c5.887,0.952,6.498,2.472,3.711,7.59
	c-2.775,5.096-7.246,8.356-12.201,10.953c-14.007,7.342-28.327,6.217-42.747,1.317c-3.073-1.044-6.161-2.064-9.292-2.909
	c-1.427-0.385-3.31-0.784-3.989,1.09c-0.644,1.778,0.908,2.797,2.214,3.568c4.985,2.945,10.548,4.454,16,6.201
	c26.632,8.533,53.217,10.148,79.535-1.132c8.482-3.636,16.145-8.443,22.128-15.86c4.046-5.016,8.574-9.803,14.714-12.574
	c2.321-1.047,4.648-1.662,7.194-1.613c3.124,0.06,6.385,0.065,8.03,3.265c1.616,3.145-1.279,4.851-2.866,6.849
	c-15.454,19.467-33.009,36.608-54.466,49.498c-28.762,17.278-59.623,25.083-93.203,21.319c-20.546-2.303-40.585-7.023-57.937-18.327
	c-36.899-24.038-66.403-54.788-80.533-97.638C-0.54,118.717-2.243,91.741,2.86,64.179c3.3-17.826,8.557-34.847,15.849-51.332
	C20.05,9.815,20.987,6.45,24.298,4.519z"/>
<path fill="#E94871" d="M285.291,30.595c-0.018,0.155-0.05,0.332-0.097,0.504c-1.097,4.144-2.585,9.09-4.494,14.129
	c-0.865,2.271-1.811,4.561-2.862,6.806c-0.027,0.068-0.065,0.142-0.108,0.206l-1.348,2.769c-0.019,0.037-0.042,0.09-0.07,0.132
	c-0.86,1.674-1.773,3.3-2.757,4.847c-0.517,0.834-1.062,1.644-1.619,2.407c-3.723,5.262-8.182,9.317-13.457,10.813
	c9.23,5.209,17.654,11.324,22.806,21.099c4.456,8.428,4.644,16.844,0.744,25.359c-3.581,7.82-9.093,14.068-16.39,18.728
	c-21.808,13.959-45.16,20.414-71.006,14.52c-21.383-4.885-38.815-16.612-54.277-31.684c-0.008-0.008-0.016-0.016-0.025-0.024
	c-1.281-1.254-2.281-2.761-3.164-4.322c-3.394-6.005-12.035-4.454-12.566-4.346c-0.015-0.004-0.025,0.001-0.025,0.001
	c-11.638-0.957-23.042-3.062-33.872-7.603C73.159,97.574,59.372,86.369,54.927,66.8C48.532,38.73,68.047,9.05,97.142,1.995
	c18.772-4.548,35.38-1.92,47.984,14.164c4.387,5.604,7.782,11.809,10.391,18.419c0.863,2.176,1.833,4.147,3.593,5.763
	c8.165,7.475,13.269,16.209,11.104,27.95c3.232-3.73,3.643-8.198,4.801-12.468c3.168,3.008,5.785,8.282,4.99,16.081
	c-0.802,7.856,1.746,13.313,7.234,18.227c1.67,1.482,2.923,3.437,5.232,4.65c-1.986-3.507-3.911-7.047-5.971-10.498
	c-3.26-5.477-4.204-11.433-3.94-17.652c0.492-11.876,6.684-17.81,18.548-17.852c9.248-0.025,18.195,2.099,27.251,3.528
	c2.042,0.321,4.185,1.193,6.316,1.555c0,0,10.768-4.633,25.536-13.853c2.511-1.554,5.138-3.252,7.845-5.089
	c3.562-2.4,7.257-5.033,11.031-7.896C281.881,24.9,285.747,27.276,285.291,30.595z"/>
</svg>
