<?xml version="1.0" encoding="utf-8"?>
<!-- Generator: Adobe Illustrator 24.3.0, SVG Export Plug-In . SVG Version: 6.00 Build 0)  -->
<svg version="1.1" id="Layer_3" xmlns="http://www.w3.org/2000/svg" xmlns:xlink="http://www.w3.org/1999/xlink" x="0px" y="0px"
	 viewBox="0 0 317.176 312.846" enable-background="new 0 0 317.176 312.846" xml:space="preserve">
<g>
	<path fill-rule="evenodd" clip-rule="evenodd" fill="#666666" d="M113.88,185.903c-2.412-2.359-6.888-4.283-10.065-6.703
		c-9.358-7.712-14.121-16.113-13.651-30.221c0.735-15.309,16.348-44.123-4.499-48.819c12.864,5.247-3.622,36.598-3.348,52.614
		c0.115,9.846,2.224,15.253,8.386,20.545C96.094,178.544,105.874,183.528,113.88,185.903L113.88,185.903z"/>
	<path fill-rule="evenodd" clip-rule="evenodd" fill="#666666" d="M67.379,157.501c-4.475-1.921-9.041-10.765-11.587-13.439
		c-9.193-9.241-6.562-4.403-16.577-10.021c-3.841-2.17-7.466-4.783-9.054-10.761c-3.122-10.876,0.101-19.829,5.529-25.98
		c2.825-3.298,7.952-6.395,12.228-8.795c3.124-1.586,4.615-2.539,7.698-2.271c7.073,0.902,6.808-7.421,14.419-13.692
		c38.397-32.562,92.485,5.708,92.894,39.263c0.065,8.767-4.874,11.427,1.956,19.385c2.101,2.483,4.585,4.076,6.997,6.438
		c2.285,2.037,5.962,5.734,3.026,8.711c-2.426,2.411-6.182,4.248-5.588,7.678c0.556,2.346,2.345,3.117,2.631,4.837
		c0.432,2.029-1.644,2.471-2.888,4.055c1.07,1.787,2.412,2.36,2.954,4.711c0.546,2.357-0.748,2.862-2.886,4.061
		c-1.692,1.393-0.303,3.048,0.243,5.397c0.423,2.039,0.595,3.436,0.12,5.085c-2.806,10.991-20.494,5.797-28.463,4.506
		c-2.758-0.388-7.83-0.973-10.246,1.433c-2.103,2.285-2.23,6.735-0.42,10.422c1.363,3.495,4.025,6.496,6.445,8.847
		c4.695,4.395,11.335,8.041,16.055,10.591c2.807,1.469,5.63,2.943,8.565,4.727c2.485,1.594,5.539,3.697,7.825,5.734
		c5.393,5.233,10.647,11.983,10.004,19.923c-0.751,7.626-6.676,12.501-13.601,14.836c5.983-3.797,10.614-8.166,11.215-14.271
		c1.488-13.408-14.406-22.597-23.663-28.15l-8.099-4.53c-1.914-1.086-5.097-3.516-7.27-5.232
		c-4.77-3.631-10.213-9.941-11.202-17.251c-1.336-17.797,22.587-8.072,31.8-8.37c15.13-0.41,4.162-12.252,6.663-15.425
		c1.816-1.074,1.939-0.756,3.309-2.022c-0.744-1.908-2.984-2.873-3.079-5.031c-0.296-1.714,2.09-2.279,2.888-4.055
		c-1.166-3.945-4.471-6.69-0.763-9.601c3.072-2.662,6.508-4.37,3.153-8.192c-4.262-4.201-11.47-8.353-12.458-15.663
		c-0.593-3.429,0.48-6.417,0.779-9.462c0.891-7.31-0.547-14.81-4.895-21.18c-3.2-5.343-16.009-19.038-28.994-24.602
		c-52.063-22.567-61.06,33.715-67.268,22.576c-5.398-0.463-15.727,14.196-16.575,19.657c-1.128,6.671,1.403,14.111,7.32,18.766
		c0.571,0.509,1.911,1.084,2.485,1.594c5.454,1.539,1.504-0.952,1.604-3.554c-0.045-1.081-0.022-2.926,1.272-3.431
		c1.143,1.023,2.979,7.637,3.723,9.544c2.233,5.725,5.112,11.198,9.561,14.961c8.199,6.693,18.272,11.441,7.848,8.66
		C78.23,159.776,68.398,157.804,67.379,157.501L67.379,157.501z"/>
	<path fill-rule="evenodd" clip-rule="evenodd" fill="#666666" d="M209.726,135.776c0.64-2.561,1.184-17.25,5.174-21.96
		c8.814-9.77,18.373-13.12,31.265-10.375c2.894,0.693,4.78,1.473,7.156,2.333c9.068,3.105,19.075,12.909,22.775,24.626
		c1.772,6.332,1.64,10.427-1.868,15.216c-1.315,1.964-2.912,4.139-4.473,6.086c-18.391,21.337-17.075,17.671-15.777,39.921
		c0.079,1.631-0.009,3.236-0.254,4.797c2.464-0.982,4.85-1.956,7.156-2.938c4.332-23.477-11.006-9.34,13.339-38.184
		c5.595-6.876,9.779-12.76,8.2-21.969c-1.815-9.252-7.919-18.443-14.777-24.354c-4.666-3.876-9.349-6.06-14.111-7.779
		c-4.499-1.675-11.646-2.543-16.488-2.087c-9.621,0.438-17.759,5.946-23.424,13.295c-1.842,2.14-2.526,4.937-2.903,7.297
		C210.199,123.016,208.971,132.514,209.726,135.776z"/>
	<path fill-rule="evenodd" clip-rule="evenodd" fill="#666666" d="M241.203,162.495c2.767-0.053,3.853,1.085,8.51-3.028
		c4.347-3.685,7.65-10.43,0.769-12.965c-4.015-1.594-5.054,0.18-6.967,2.792c-0.083-2.682,2.883-5.608,7.753-4.605
		c6.502,1.742,8.267,9.771,0.293,15.795C248.425,162.896,243.853,164.853,241.203,162.495L241.203,162.495z"/>
	<path fill-rule="evenodd" clip-rule="evenodd" fill="#666666" d="M244.077,176.271c-3.321-6.094-6.845-12.452-13.16-12.229
		c-3.266-0.025-6.649,2.35-9.637,3.819c-3.271,1.667-6.551,3.34-9.823,5.01c-2.426,1.073-6.468,2.862-7.98-1.974
		c-0.782-3.024,0.729-7.88,1.842-10.126c2.098-3.794,4.536-6.56,4.452-9.237c0.186-1.188-0.715-3.509-0.567-4.453
		c1.359,0.938,2.357,4.249,2.587,5.979c-0.05,1.928-1.337,5.357-2.169,7.414c-0.712,1.341-1.976,6.227-1.218,7.797
		c3.561-1.865,7.686-4.123,11.447-5.715c4.326-1.995,7.36-3.699,11.769-3.01C240.971,160.764,244.632,172.719,244.077,176.271
		L244.077,176.271z"/>
	<path fill-rule="evenodd" clip-rule="evenodd" fill="#666666" d="M201.254,133.731c-2.508,1.544-3.94,1.079-6.55,3.333
		c-3.466,2.854-3.713,7.656-3.362,11.833c0.666,5.429-0.581,6.928-2.375,11.981l-1.425,4.376c-1.483,4.616-1.97,9.39-1.727,14.266
		c-0.003,7.997,2.346,21.932,13.19,21.681c7.042-0.112,16.678-3.931,23.429-6.999c2.191-1.111,5.499-3.014,7.886-3.851
		c-0.985,1.541-13.18,8.841-14.553,9.596c-4.97,2.854-11.893,5.411-17.229,5.786c-5.572,0.34-9.306-1.453-12.814-6.365
		c-3.506-4.904-5.313-11.003-5.519-16.117c-0.52-9.527,0.761-16.113,4.54-24.242c0.355-0.672,0.636-0.87,0.747-1.578
		c1.535-3.399,2.387-3.993,2.554-8.323c-0.032-4.613,1.062-10.007,5.29-12.985C196.726,133.75,199.666,134.21,201.254,133.731
		L201.254,133.731z"/>
</g>
<g>
	<path fill-rule="evenodd" clip-rule="evenodd" fill="#46BEA2" d="M21.295,233.429c43.841,75.939,141.108,101.845,216.53,58.294
		c65.748-37.956,94.04-115.868,71.94-185.37c6.49,54.075-11.155,71.098-48.884,87.129c-0.324,1.78-0.772,3.78-1.351,6.034
		c-0.658,2.552-1.193,4.42-2.868,7.06c-6.218,10.892-20.101,19.382-33.115,25.591c-2.429,1.07-4.648,2.429-7.051,3.262
		c-2.57,1.026-3.789,1.561-3.973,1.631c1.201-0.588,37.649-17.356,41.201-40.64c-5.157,2.061-10.647,4.148-16.452,6.323
		c-65.669,24.626-70.782,99.486-3.762,68.739c-70.922,45.639-157.455,23.845-199.507-48.971
		C-8.058,149.65,17.041,56.575,89.709,14.628C100.812,8.209,112.397,3.368,124.193,0C108.757,3.403,93.568,9.191,79.15,17.514
		C3.825,61.004-22.695,157.227,21.295,233.429z"/>
</g>
</svg>
