<?xml version="1.0" encoding="utf-8"?>
<!-- Generator: Adobe Illustrator 24.3.0, SVG Export Plug-In . SVG Version: 6.00 Build 0)  -->
<svg version="1.1" id="Layer_4" xmlns="http://www.w3.org/2000/svg" xmlns:xlink="http://www.w3.org/1999/xlink" x="0px" y="0px"
	 viewBox="0 0 169.792 308.88" enable-background="new 0 0 169.792 308.88" xml:space="preserve">
<g>
	<ellipse fill="#0C0C0C" cx="63.07" cy="261.505" rx="63.07" ry="47.375"/>
</g>
<g>
	<path fill="#F4065C" d="M14.821,144.273c-1.902-16.17,5.843-22.828,5.843-22.828s-1.092,2.441-0.626,6.174
		c0.212,1.697,0.745,3.661,1.849,5.784c0.331,0.637,0.75,1.289,1.236,1.949c0.162,0.22,0.332,0.44,0.508,0.662
		c0.353,0.442,0.733,0.886,1.135,1.33c1.206,1.33,2.606,2.654,4.047,3.904c4.804,4.167,10.059,7.511,10.059,7.511l0,0
		c2.718,2.854,4.756,8.968,4.756,8.968l-0.815-6.794c0.299,0.281,0.606,0.589,0.919,0.918c0.015,0.016,0.03,0.032,0.045,0.048
		c0.299,0.315,0.602,0.648,0.909,0.997c0.026,0.029,0.051,0.059,0.077,0.088c0.298,0.341,0.599,0.695,0.901,1.061
		c0.03,0.037,0.06,0.074,0.091,0.11c0.298,0.363,0.597,0.735,0.896,1.114c0.032,0.041,0.064,0.082,0.097,0.123
		c0.298,0.38,0.595,0.766,0.888,1.155c0.029,0.039,0.058,0.077,0.087,0.115c0.298,0.396,0.593,0.793,0.883,1.19
		c0.022,0.03,0.044,0.061,0.066,0.091c0.298,0.408,0.589,0.814,0.874,1.215c0.012,0.017,0.025,0.035,0.037,0.052
		c2.474,3.488,4.374,6.534,4.374,6.534c0,4.62-3.533,13.452-3.533,13.452c2.989-3.669,5.299-10.599,5.299-10.599l1.767,4.484
		c-0.951,3.531-5.296,7.742-5.299,7.745c0.079-0.062,0.174-0.148,0.266-0.229l5.576-4.798c0.153,0.361,0.297,0.717,0.432,1.07
		c0.025,0.066,0.048,0.13,0.072,0.196c0.111,0.295,0.218,0.587,0.317,0.874c0.014,0.041,0.027,0.081,0.04,0.121
		c0.108,0.316,0.208,0.628,0.302,0.936c0.004,0.012,0.007,0.023,0.01,0.035c0.101,0.333,0.194,0.66,0.279,0.982c0,0,0,0,0,0.001l0,0
		c0.132,0.5,0.25,0.99,0.346,1.462l0,0c0,0.001,0,0.003,0.001,0.004c0.077,0.377,0.139,0.741,0.194,1.099
		c0.013,0.085,0.025,0.168,0.037,0.252c0.316,2.228,0.225,4.059-0.13,5.334c-0.679,2.446-5.571,9.104-5.571,9.104
		c0.51-0.357,1.024-0.795,1.523-1.271c2.164-2.063,4.048-4.844,4.048-4.844l0,0l0,0c-0.357,3.108-1.535,5.911-2.869,8.2
		c-0.222,0.382-0.449,0.749-0.677,1.101c-0.456,0.704-0.916,1.347-1.357,1.922c-0.22,0.287-0.436,0.557-0.643,0.809
		c-1.244,1.512-2.2,2.372-2.2,2.372l0,0l0,0c0,0-0.012-0.117-0.035-0.33c-0.004-0.034-0.008-0.071-0.012-0.11
		c-0.005-0.045-0.01-0.09-0.016-0.141c-0.01-0.089-0.022-0.19-0.034-0.299c-0.005-0.046-0.011-0.096-0.017-0.146
		c-0.012-0.105-0.026-0.217-0.04-0.337c-0.006-0.053-0.013-0.105-0.019-0.161c-0.016-0.132-0.034-0.275-0.052-0.423
		c-0.009-0.071-0.018-0.144-0.027-0.218c-0.022-0.175-0.045-0.356-0.07-0.549c-0.008-0.061-0.016-0.126-0.024-0.189
		c-0.021-0.162-0.043-0.33-0.066-0.503c-0.01-0.076-0.02-0.151-0.03-0.23c-0.03-0.226-0.062-0.462-0.096-0.706
		c-0.01-0.074-0.021-0.15-0.031-0.225c-0.032-0.231-0.066-0.469-0.101-0.714c-0.007-0.047-0.013-0.092-0.02-0.14
		c-0.386-2.686-0.946-6.175-1.704-10.005c-0.198-1.002-0.411-2.028-0.637-3.068c-0.018-0.085-0.038-0.171-0.056-0.256
		c-0.219-1-0.451-2.013-0.697-3.032c-0.441-1.833-0.925-3.683-1.455-5.512c-0.182-0.627-0.37-1.25-0.563-1.87
		c-0.047-0.15-0.093-0.299-0.14-0.448c-0.208-0.657-0.42-1.311-0.641-1.955c-0.009-0.026-0.019-0.052-0.028-0.078
		c-0.209-0.609-0.425-1.208-0.646-1.802c-0.058-0.157-0.117-0.313-0.176-0.468c-0.234-0.617-0.473-1.228-0.72-1.824
		c-0.019-0.047-0.041-0.093-0.061-0.14l0,0c-3.223-7.693-8.674-14.907-13.04-19.946c-0.343-0.396-0.678-0.776-1.006-1.144
		c-0.023-0.026-0.047-0.053-0.07-0.079c-0.658-0.738-1.282-1.417-1.858-2.031c-0.022-0.023-0.043-0.045-0.064-0.068
		c-0.277-0.295-0.544-0.576-0.797-0.84c-0.006-0.006-0.013-0.013-0.019-0.019c-0.265-0.276-0.516-0.535-0.752-0.775
		c-0.005-0.006-0.01-0.01-0.016-0.016c-0.219-0.224-0.423-0.429-0.613-0.619c-0.025-0.025-0.051-0.051-0.075-0.075
		c-0.389-0.388-0.714-0.705-0.955-0.937c-0.002-0.002-0.003-0.003-0.005-0.004c-0.178-0.175-0.349-0.338-0.508-0.482
		c0,0,11.55,11.822,19.295,28.4c0.249,0.533,0.489,1.072,0.723,1.618c0.002,0.005,0.005,0.01,0.007,0.016c0,0,0,0-0.001,0
		c1.487,3.477,2.661,7.192,3.594,10.89c0.001,0,0.003,0.001,0.004,0.001c0.014,0.055,0.024,0.109,0.038,0.163
		c0.266,1.062,0.512,2.121,0.739,3.174c0.011,0.051,0.025,0.103,0.036,0.153c-0.001,0-0.002,0-0.002,0
		c0.496,2.316,0.904,4.59,1.237,6.761h0.001c0.004,0.023,0.006,0.045,0.01,0.068c0.127,0.832,0.242,1.645,0.349,2.443
		c0.008,0.06,0.018,0.125,0.026,0.185c-0.001,0-0.001,0-0.002,0c0.229,1.737,0.414,3.385,0.559,4.897l0,0
		c0.003,0.029,0.005,0.055,0.008,0.085c0.045,0.473,0.086,0.931,0.124,1.377c0.011,0.132,0.021,0.258,0.032,0.387
		c0.028,0.344,0.055,0.679,0.08,1.005c0.01,0.133,0.02,0.264,0.029,0.394c0.024,0.337,0.047,0.66,0.067,0.974
		c0.006,0.085,0.012,0.174,0.017,0.258c0.025,0.397,0.047,0.775,0.067,1.13c0,0.005,0.001,0.012,0.001,0.017l0,0
		c0.13,2.392,0.139,3.818,0.139,3.818h-1.087l-0.679-4.212c0,0-5.979-3.941-7.881-5.979c-0.079-0.085-0.17-0.182-0.27-0.287
		c-0.013-0.014-0.026-0.028-0.04-0.042c-0.095-0.101-0.197-0.209-0.308-0.326c-0.008-0.009-0.016-0.017-0.025-0.026
		c-0.114-0.12-0.238-0.25-0.366-0.385c-0.035-0.037-0.072-0.076-0.108-0.114c-0.106-0.111-0.214-0.225-0.328-0.344
		c-0.031-0.033-0.062-0.065-0.094-0.099c-0.302-0.316-0.628-0.656-0.971-1.014c-0.019-0.02-0.038-0.04-0.057-0.06
		c-0.129-0.134-0.261-0.272-0.394-0.411c-0.101-0.106-0.203-0.212-0.306-0.319c-0.121-0.126-0.242-0.252-0.365-0.379
		c-2.943-3.062-6.423-6.657-6.423-6.657l12.501,4.484l-12.365-7.745c-1.111-1.616-2.221-3.456-3.264-5.311
		c-0.001-0.002-0.002-0.004-0.004-0.006c-0.262-0.466-0.519-0.932-0.771-1.397l0,0c-0.252-0.464-0.498-0.925-0.738-1.381
		c-0.001-0.001-0.001-0.003-0.002-0.004c-2.423-4.601-4.19-8.615-4.19-8.615l9.512,1.359l-11.414-4.484c0,0-2.948-4.666-5.026-15.66
		c-0.003-0.018-0.007-0.036-0.011-0.055C15.498,149.256,15.129,146.891,14.821,144.273z"/>
	<path fill="#F4065C" d="M169.072,54.671C173.628,15.946,155.078,0,155.078,0s2.615,5.845,1.5,14.785
		c-0.507,4.064-1.784,8.767-4.428,13.852c-0.793,1.525-1.795,3.088-2.96,4.667c-0.388,0.526-0.795,1.055-1.217,1.584
		c-0.845,1.059-1.756,2.122-2.719,3.184c-2.888,3.185-6.242,6.356-9.693,9.35c-11.504,9.979-24.089,17.987-24.089,17.987l0,0
		c-6.508,6.834-11.39,21.478-11.39,21.478l1.953-16.271c-0.716,0.674-1.452,1.412-2.201,2.198c-0.035,0.037-0.072,0.077-0.107,0.114
		c-0.715,0.754-1.442,1.552-2.177,2.388c-0.061,0.07-0.123,0.141-0.184,0.212c-0.715,0.817-1.435,1.665-2.158,2.541
		c-0.072,0.088-0.145,0.176-0.217,0.265c-0.715,0.869-1.431,1.76-2.145,2.668c-0.077,0.098-0.154,0.196-0.231,0.295
		c-0.714,0.911-1.424,1.835-2.128,2.766c-0.07,0.092-0.139,0.184-0.208,0.276c-0.714,0.948-1.419,1.9-2.114,2.85
		c-0.053,0.073-0.106,0.145-0.159,0.218c-0.713,0.977-1.411,1.949-2.093,2.909c-0.03,0.042-0.059,0.083-0.088,0.124
		C79.9,98.793,75.35,106.089,75.35,106.089c0,11.064,8.461,32.217,8.461,32.217c-7.159-8.787-12.692-25.383-12.692-25.383
		l-4.231,10.739c2.277,8.458,12.682,18.54,12.691,18.548c-0.189-0.149-0.418-0.355-0.638-0.549L65.587,130.17
		c-0.368,0.865-0.71,1.718-1.035,2.562c-0.061,0.158-0.114,0.312-0.173,0.469c-0.267,0.705-0.522,1.405-0.76,2.094
		c-0.034,0.098-0.064,0.193-0.097,0.291c-0.258,0.757-0.499,1.505-0.724,2.241c-0.009,0.028-0.016,0.056-0.025,0.084
		c-0.242,0.797-0.463,1.581-0.667,2.352c0,0.001,0,0.001,0,0.002l0,0c-0.316,1.198-0.599,2.37-0.829,3.501l0,0
		c-0.001,0.003-0.001,0.006-0.002,0.009c-0.184,0.903-0.332,1.775-0.464,2.632c-0.031,0.202-0.061,0.403-0.089,0.603
		c-0.758,5.335-0.538,9.722,0.31,12.774c1.627,5.858,13.342,21.803,13.342,21.803c-1.22-0.854-2.452-1.903-3.648-3.043
		c-5.183-4.941-9.694-11.601-9.694-11.601l0,0l0,0c0.854,7.444,3.676,14.156,6.87,19.638c0.532,0.914,1.075,1.793,1.62,2.636
		c1.091,1.686,2.194,3.226,3.25,4.602c0.528,0.688,1.044,1.335,1.54,1.938c2.98,3.621,5.268,5.68,5.268,5.68l0,0l0,0
		c0,0,0.029-0.28,0.085-0.79c0.009-0.081,0.019-0.17,0.029-0.263c0.012-0.107,0.024-0.215,0.038-0.338
		c0.024-0.213,0.052-0.456,0.082-0.715c0.013-0.11,0.027-0.23,0.041-0.349c0.029-0.25,0.061-0.521,0.096-0.807
		c0.015-0.126,0.03-0.252,0.046-0.385c0.038-0.317,0.08-0.659,0.124-1.012c0.021-0.171,0.043-0.344,0.065-0.523
		c0.052-0.418,0.107-0.853,0.167-1.316c0.019-0.145,0.039-0.302,0.059-0.452c0.05-0.387,0.103-0.79,0.158-1.205
		c0.024-0.183,0.048-0.362,0.073-0.55c0.073-0.542,0.149-1.107,0.23-1.691c0.024-0.176,0.05-0.358,0.075-0.538
		c0.077-0.553,0.157-1.122,0.241-1.709c0.016-0.113,0.031-0.22,0.048-0.334c0.925-6.434,2.265-14.79,4.08-23.961
		c0.475-2.399,0.984-4.856,1.526-7.347c0.044-0.204,0.09-0.409,0.135-0.613c0.524-2.395,1.081-4.821,1.668-7.262
		c1.057-4.389,2.214-8.82,3.485-13.201c0.435-1.501,0.887-2.994,1.349-4.478c0.111-0.358,0.223-0.717,0.336-1.074
		c0.498-1.574,1.006-3.139,1.534-4.683c0.022-0.063,0.044-0.125,0.066-0.188c0.5-1.458,1.019-2.894,1.547-4.315
		c0.139-0.375,0.279-0.749,0.421-1.121c0.561-1.478,1.132-2.942,1.724-4.368c0.047-0.112,0.099-0.224,0.146-0.336l0,0
		c7.719-18.425,20.773-35.701,31.229-47.769c0.821-0.948,1.624-1.859,2.408-2.74c0.056-0.063,0.112-0.126,0.168-0.189
		c1.576-1.767,3.07-3.394,4.449-4.865c0.052-0.055,0.102-0.108,0.153-0.163c0.664-0.707,1.303-1.38,1.91-2.012
		c0.015-0.015,0.03-0.032,0.045-0.047c0.635-0.661,1.237-1.281,1.801-1.855c0.013-0.013,0.025-0.025,0.038-0.038
		c0.526-0.535,1.013-1.026,1.469-1.482c0.06-0.06,0.121-0.121,0.18-0.18c0.932-0.929,1.71-1.688,2.288-2.244
		c0.004-0.004,0.007-0.007,0.011-0.01c0.427-0.419,0.837-0.809,1.218-1.155c0,0-27.661,28.312-46.21,68.014
		c-0.596,1.276-1.172,2.569-1.731,3.875c-0.005,0.013-0.011,0.025-0.017,0.037h0.001c-3.561,8.327-6.373,17.225-8.608,26.08
		c-0.003,0.001-0.006,0.001-0.009,0.002c-0.033,0.131-0.058,0.26-0.091,0.391c-0.637,2.544-1.225,5.08-1.77,7.601
		c-0.026,0.122-0.059,0.246-0.085,0.367c0.002,0,0.004,0,0.006-0.001c-1.189,5.546-2.166,10.993-2.963,16.192
		c-0.001,0-0.002,0.001-0.003,0.001c-0.009,0.056-0.015,0.108-0.023,0.164c-0.304,1.993-0.58,3.94-0.835,5.85
		c-0.019,0.145-0.044,0.299-0.063,0.443c0.001,0,0.003-0.001,0.004-0.001c-0.549,4.159-0.992,8.106-1.34,11.728l0,0
		c-0.007,0.07-0.012,0.133-0.018,0.202c-0.108,1.133-0.206,2.23-0.298,3.298c-0.027,0.316-0.051,0.618-0.077,0.928
		c-0.068,0.824-0.132,1.626-0.191,2.406c-0.024,0.319-0.048,0.633-0.07,0.944c-0.058,0.806-0.112,1.582-0.161,2.333
		c-0.013,0.205-0.028,0.418-0.041,0.618c-0.06,0.95-0.114,1.856-0.16,2.707c-0.001,0.013-0.002,0.028-0.002,0.04l0,0
		c-0.311,5.728-0.332,9.143-0.332,9.143h2.604l1.627-10.088c0,0,14.319-9.437,18.875-14.319c0.189-0.203,0.408-0.435,0.646-0.688
		c0.031-0.033,0.063-0.067,0.095-0.1c0.227-0.241,0.473-0.5,0.738-0.78c0.02-0.021,0.038-0.041,0.059-0.062
		c0.274-0.288,0.569-0.599,0.878-0.923c0.084-0.088,0.173-0.182,0.259-0.272c0.253-0.265,0.513-0.538,0.785-0.823
		c0.075-0.079,0.15-0.157,0.226-0.237c0.723-0.757,1.503-1.571,2.326-2.429c0.046-0.048,0.092-0.096,0.138-0.144
		c0.309-0.322,0.626-0.652,0.944-0.984c0.243-0.253,0.486-0.507,0.734-0.764c0.289-0.301,0.579-0.602,0.873-0.909
		c7.049-7.332,15.382-15.943,15.382-15.943L98.78,175.404l29.614-18.549c2.66-3.869,5.319-8.277,7.816-12.72
		c0.003-0.005,0.006-0.01,0.008-0.015c0.627-1.115,1.243-2.233,1.847-3.345l0,0c0.603-1.111,1.193-2.216,1.768-3.307
		c0.002-0.003,0.003-0.007,0.005-0.01c5.804-11.02,10.033-20.631,10.033-20.631l-22.78,3.254l27.336-10.739
		c0,0,7.061-11.174,12.036-37.503c0.008-0.044,0.017-0.087,0.025-0.131C167.45,66.605,168.334,60.941,169.072,54.671z"/>
</g>
<g>
	<path fill="#3D3D3D" d="M32.406,264.791c0-15.134,8.932-28.409,22.365-35.92c-0.216-0.003-0.429-0.014-0.645-0.014
		c-22.357,0-40.481,16.089-40.481,35.935s18.124,35.935,40.481,35.935c0.216,0,0.43-0.012,0.645-0.014
		C41.338,293.2,32.406,279.925,32.406,264.791z"/>
	<path fill="#3D3D3D" d="M93.574,264.791c0-15.134-8.932-28.409-22.365-35.92c0.216-0.003,0.429-0.014,0.645-0.014
		c22.357,0,40.481,16.089,40.481,35.935s-18.124,35.935-40.481,35.935c-0.216,0-0.43-0.012-0.645-0.014
		C84.641,293.2,93.574,279.925,93.574,264.791z"/>
	<path fill="#3D3D3D" d="M65.68,221.594c-13.882,0-26.525-1.545-27.349-1.647c-3.181-0.396-5.438-3.296-5.043-6.478
		c0.396-3.181,3.299-5.44,6.478-5.043c0.298,0.038,29.971,3.657,46.505-0.256c3.122-0.74,6.247,1.193,6.986,4.313
		c0.738,3.12-1.193,6.247-4.313,6.986C82.142,221.077,73.704,221.594,65.68,221.594z"/>
</g>
</svg>
