<?xml version="1.0" encoding="utf-8"?>
<!-- Generator: Adobe Illustrator 24.3.0, SVG Export Plug-In . SVG Version: 6.00 Build 0)  -->
<svg version="1.1" id="Layer_1" xmlns="http://www.w3.org/2000/svg" xmlns:xlink="http://www.w3.org/1999/xlink" x="0px" y="0px"
	 viewBox="0 0 747.945 747.946" enable-background="new 0 0 747.945 747.946" xml:space="preserve">
<g>
	<path fill="#333333" d="M373.977,37.796c-187.73,0-340.45,152.72-340.45,340.44s152.72,340.45,340.45,340.45
		c187.72,0,340.44-152.73,340.44-340.45S561.697,37.796,373.977,37.796z M495.137,169.736l10.32-22.66l10.32,22.66l23.07,3.64
		l-16.69,17.64l3.94,24.91l-20.64-11.76l-20.64,11.76l3.95-24.91l-16.7-17.64L495.137,169.736z M352.467,141.756l16.57-36.39
		l16.57,36.39l37.05,5.84l-26.81,28.33l6.33,40l-33.14-18.88l-33.14,18.88l6.33-40l-26.81-28.33L352.467,141.756z M222.297,169.736
		l10.32-22.66l10.32,22.66l23.07,3.64l-16.7,17.64l3.94,24.91l-20.63-11.76l-20.64,11.76l3.94-24.91l-16.69-17.64L222.297,169.736z
		 M72.867,294.416l226.94,74.15l4.5,13.38l-155-15.02L72.867,294.416z M162.547,379.486l145.68,14.12l10.18,30.28l-121.46-11.77
		L162.547,379.486z M210.187,424.686l112.14,10.86l8.1,24.1l-92.86-9L210.187,424.686z M250.807,463.206l83.54,8.1l9.13,27.18
		l-61.8-5.99L250.807,463.206z M425.557,575.216l-32.49-32.02v48.93l-19.17,28.58l-19.17-28.58v-48.93l-32.56,32.02l-6.22-29.48
		l38.78-46.14l-44.21-131.6c14.48-20.12,28.96-40.25,43.43-60.38c-2.22-1.11-8.85-4.02-16.32-1.54
		c-9.27,3.07-16.03,13.22-16.75,25.47c-2.01-10.11-4.03-20.22-6.04-30.33c3.03-4.39,7.94-10.68,15.12-16.8
		c8.78-7.49,17.91-15.27,29.11-14.76c17.61,0.81,28.36,21.55,29.49,23.8c16.21,24.85,32.43,49.7,48.64,74.54l-44.25,131.6
		l38.75,46.14L425.557,575.216z M466.267,492.496l-61.8,5.99l9.14-27.18l83.53-8.1L466.267,492.496z M510.377,450.646l-92.86,9
		l8.11-24.1l112.13-10.86L510.377,450.646z M550.997,412.116l-121.46,11.77l10.18-30.28l145.68-14.12L550.997,412.116z
		 M598.637,366.926l-155,15.02l4.5-13.38l226.94-74.15L598.637,366.926z"/>
	<path fill="#333333" d="M373.973,0C167.432,0,0,167.433,0,373.972s167.432,373.973,373.973,373.973
		c206.539,0,373.972-167.434,373.972-373.973S580.512,0,373.973,0z M623.914,628.182c-32.464,32.457-70.266,57.942-112.36,75.747
		c-43.576,18.428-89.869,27.778-137.583,27.778s-94.006-9.35-137.587-27.778c-42.09-17.805-79.891-43.29-112.352-75.747
		c-32.467-32.471-57.953-70.273-75.746-112.359c-18.436-43.577-27.782-89.869-27.782-137.587c0-47.711,9.346-94.003,27.782-137.58
		c17.793-42.086,43.279-79.888,75.746-112.359c32.468-32.464,70.27-57.949,112.352-75.754
		c43.588-18.428,89.876-27.771,137.587-27.771c47.707,0,93.999,9.343,137.583,27.771c42.087,17.798,79.888,43.29,112.36,75.754
		c32.457,32.464,57.942,70.265,75.746,112.359c18.428,43.576,27.778,89.869,27.778,137.58c0,47.717-9.35,94.009-27.778,137.587
		C681.856,557.916,656.371,595.718,623.914,628.182z"/>
</g>
</svg>
