<?xml version="1.0" encoding="utf-8"?>
<!-- Generator: Adobe Illustrator 24.3.0, SVG Export Plug-In . SVG Version: 6.00 Build 0)  -->
<svg version="1.1" id="Layer_2_1_" xmlns="http://www.w3.org/2000/svg" xmlns:xlink="http://www.w3.org/1999/xlink" x="0px" y="0px"
	 viewBox="0 0 237.095 234.693" enable-background="new 0 0 237.095 234.693" xml:space="preserve">
<g>
	<polygon fill="#0F3048" points="197.511,40.396 139.929,166.426 95.969,166.426 37.951,39.427 71.917,0.553 162.692,0.553 	"/>
</g>
<g>
	<path fill="#FFFFFF" d="M145.878,84.474v27.2h-56.3v-27.2c0-11.61,9.5-21.11,21.11-21.11h0.11c-6.85-2.74-11.68-9.44-11.68-17.27
		c0-10.28,8.33-18.62,18.61-18.62s18.62,8.34,18.62,18.62c0,7.83-4.83,14.52-11.68,17.27h0.11
		C136.388,63.364,145.878,72.864,145.878,84.474z"/>
</g>
<g>
	<polygon fill="#476227" points="143.898,177.419 117.727,234.693 91.557,177.419 	"/>
</g>
<g>
	<polygon fill="#D21F19" points="61.582,0.553 21.141,46.837 0,0.553 	"/>
</g>
<g>
	<polygon fill="#EF7A00" points="237.095,0.553 215.424,47.991 173.967,0.553 	"/>
</g>
</svg>
