<?xml version="1.0" encoding="utf-8"?>
<!-- Generator: Adobe Illustrator 24.3.0, SVG Export Plug-In . SVG Version: 6.00 Build 0)  -->
<svg version="1.1" id="Layer_7" xmlns="http://www.w3.org/2000/svg" xmlns:xlink="http://www.w3.org/1999/xlink" x="0px" y="0px"
	 viewBox="0 0 313.21 313.21" enable-background="new 0 0 313.21 313.21" xml:space="preserve">
<g>
	<path fill="#95EFDE" d="M305.395,156.612c0,82.404-66.809,149.2-149.213,149.2s-149.2-66.796-149.2-149.2
		c0-33.799,11.235-64.976,30.188-89.988c2.006-2.662,4.106-5.243,6.286-7.758c2.662-3.076,5.444-6.019,8.333-8.841
		c2.234-2.207,4.534-4.32,6.915-6.367c1.819-1.578,3.692-3.116,5.591-4.601c1.913-1.511,3.865-2.956,5.858-4.36
		c4.16-2.943,8.48-5.684,12.934-8.186c2.247-1.271,4.507-2.474,6.835-3.625h0.013c2.354-1.177,4.762-2.287,7.196-3.33
		c18.11-7.824,38.066-12.158,59.051-12.158C238.586,7.398,305.395,74.207,305.395,156.612z"/>
	<path fill="#95EFDE" d="M156.598,313.21C70.25,313.21,0,242.96,0,156.612c0-34.435,10.957-67.095,31.686-94.451
		c2.041-2.708,4.261-5.447,6.597-8.141c2.726-3.151,5.669-6.274,8.747-9.281c2.287-2.26,4.731-4.51,7.258-6.683
		c1.868-1.62,3.843-3.246,5.866-4.827c1.913-1.512,3.926-3.01,6.149-4.577c4.401-3.114,8.969-6.004,13.575-8.591
		c2.445-1.382,4.793-2.627,7.175-3.805l0.325-0.155c2.312-1.148,4.747-2.271,7.243-3.341C114.217,4.293,135.07,0,156.598,0
		C242.955,0,313.21,70.256,313.21,156.612C313.21,242.96,242.955,313.21,156.598,313.21z M88.07,19.101
		c-2.225,1.106-4.426,2.278-6.718,3.574c-4.519,2.538-8.999,5.373-13.317,8.428c-2.181,1.537-4.151,3.003-6.026,4.485
		c-1.99,1.555-3.925,3.148-5.759,4.739c-2.48,2.132-4.873,4.335-7.117,6.552c-3.024,2.954-5.909,6.016-8.582,9.105
		c-2.292,2.644-4.469,5.33-6.472,7.985C13.746,90.803,3,122.837,3,156.612C3,241.306,71.904,310.21,156.598,310.21
		c84.702,0,153.612-68.904,153.612-153.599C310.21,71.91,241.3,3,156.598,3c-21.116,0-41.569,4.211-60.791,12.516
		c-2.561,1.097-5.05,2.25-7.404,3.427L88.07,19.101z"/>
</g>
<g>
	<path fill="#FA55FF" d="M84.632,153.017c0,0,120.227,81.123,130.783,57.85C225.971,187.594,84.632,153.017,84.632,153.017z"/>
</g>
<g>
	<path fill="#F536FF" d="M105.624,169.991c0,0,154.634,60.126,134.712,79.82S105.624,169.991,105.624,169.991z"/>
</g>
<g>
	<path fill="#FF82FF" d="M83.503,152.267c0,0,140.509,119.643,165.538,94.08S83.503,152.267,83.503,152.267z"/>
	<path fill="#FF82FF" d="M221.783,224.209c-0.044-0.036-0.11-0.089-0.136-0.147c-1.081-1.137-1.399-3.076-0.258-4.117
		c0.736-0.678,1.872-0.774,2.633-1.394c1.394-1.127,0.952-3.496-0.283-4.758c-1.257-1.279-3.046-1.862-4.638-2.686
		c-1.592-0.823-3.193-2.128-3.336-3.924c-0.185-2.414,2.501-4.277,4.917-4.06c0.062,0.014,0.101,0.01,0.163,0.024
		c2.358,0.243,4.367,1.808,6.098,3.402c1.797,1.648,3.57,3.458,5.879,4.209c2.291,0.772,5.298,0.084,6.238-2.143
		c0.989-2.333-0.385-5.753,1.728-7.135c0.889-0.553,2.028-0.428,2.925,0.084c0.277,0.153,0.536,0.328,0.759,0.546
		c0.977,0.906,1.473,2.223,1.904,3.487c2.497,7.147,4.063,14.63,4.648,22.153c0.428,5.387,0.369,10.743-0.171,16.107
		c-0.062,0.57-0.904,1.198-0.966,1.768c-4.944-9.251-13.698-16.425-23.76-19.444C224.571,225.716,222.939,225.298,221.783,224.209z"
		/>
</g>
<g>
	<path fill="#7749FF" d="M189.18,127.173l-4.334,5.564l-4.347,5.564l-6.34-4.949L59.12,43.658c1.819-1.578,3.692-3.116,5.591-4.601
		c1.913-1.511,3.865-2.956,5.858-4.36l112.271,87.527L189.18,127.173z"/>
</g>
<g>
	<path fill="#FFA070" d="M208.173,177.183l-7.651,9.389l-6.313,7.744l-5.671-4.628l-1.244-1.003l-5.631-4.601L37.586,66.624
		c2.006-2.662,4.106-5.243,6.286-7.758c2.662-3.076,5.444-6.019,8.333-8.841l143.422,116.926l5.898,4.815l0.99,0.803
		L208.173,177.183z"/>
</g>
<g>
	<path d="M186.7,193.308c-0.026-0.46-0.014-0.924,0.04-1.392c0.072-1.073,0.263-2.159,0.556-3.234
		c0.821-3.201,2.489-6.367,4.601-9.136c1.861-2.462,4.078-4.598,6.354-6.137c1.036-0.689,2.128-1.222,3.272-1.64
		c0.581-0.22,1.188-0.383,1.795-0.545c8.76-2.058,19.82,2.468,26.802,8.233c6.434,5.318,10.586,13.705,13.593,22.107
		c0.93,2.62,1.759,5.231,2.518,7.748c1.698,5.62,2.732,11.427,3.411,17.311c0.579,5.291,0.843,10.654,0.966,16.012
		c-4.128-8.55-14.016-12.632-22.685-16.195c-2.078-0.854-4.188-1.625-6.276-2.378c-6.762-2.409-13.582-4.611-19.705-8.251
		C193.894,211.039,186.942,202.997,186.7,193.308z"/>
	<path d="M189.189,154.245l-8.684-15.939l8.678-11.129l17.682,4.367c1.434,0.358,2.796,1.454,3.421,2.752l14.055,28.889
		l-21.37-16.664c0.58-1.067-0.046-2.72-1.487-3.844c-1.551-1.21-3.475-1.359-4.294-0.309c-0.81,1.039-0.205,2.879,1.347,4.089
		c1.441,1.124,3.205,1.317,4.09,0.505l21.371,16.664l-31.328-6.77C191.266,156.557,189.887,155.515,189.189,154.245z"/>
	<path d="M178.592,109.824l-8.305-15.644l8.678-11.129l17.304,4.072c1.403,0.334,2.725,1.399,3.322,2.675l13.399,28.377
		l-20.754-16.184c0.585-1.064-0.007-2.69-1.407-3.781c-1.506-1.175-3.394-1.296-4.212-0.246c-0.81,1.039-0.241,2.851,1.265,4.025
		c1.4,1.092,3.129,1.258,4.01,0.443l20.754,16.184l-30.672-6.258C180.6,112.082,179.26,111.071,178.592,109.824z"/>
</g>
<g>
	<path fill="#F7F24F" d="M178.962,83.048l-4.334,5.564l-4.347,5.564l-6.153-4.802L83.503,26.511
		c2.247-1.271,4.507-2.474,6.835-3.625h0.013c2.354-1.177,4.762-2.287,7.196-3.33l75.262,58.69L178.962,83.048z"/>
	
		<rect x="178.287" y="174.46" transform="matrix(0.6319 -0.7751 0.7751 0.6319 -68.1184 214.3843)" fill="#F7F24F" width="26.684" height="8.885"/>
</g>
<g>
	<path fill="#FC6522" d="M250.853,243.858c-0.067,0.575-0.91,1.204-0.963,1.766c-4.949-9.256-13.696-16.425-23.768-19.448
		c-1.552-0.455-3.183-0.883-4.334-1.966c-0.053-0.04-0.12-0.094-0.147-0.147c-6.754-2.408-13.576-4.614-19.702-8.253
		c-8.052-4.775-14.994-12.813-15.234-22.497c-0.027-0.468-0.013-0.923,0.04-1.391l-0.12,0.12l-6.875-5.604l1.913-2.354
		L37.586,66.624c2.006-2.662,4.106-5.243,6.286-7.758L187.976,176.34l3.919,3.21l2.956,2.408l5.671,4.614l20.317,16.572
		l28.797,23.473l1.391,1.137C251.455,233.131,251.388,238.494,250.853,243.858z"/>
</g>
<g>
	<path fill="#5034C6" d="M202.97,146.527c0.575-1.07-0.04-2.729-1.485-3.852c-1.551-1.204-3.478-1.351-4.293-0.308l-12.345-9.63
		l-6.353-4.949L64.711,39.057c1.913-1.511,3.865-2.956,5.858-4.36l112.271,87.527l6.34,4.949l17.682,4.374
		c1.431,0.361,2.795,1.458,3.424,2.755l14.057,28.89L202.97,146.527z"/>
</g>
<g>
	<path fill="#F4B651" d="M192.23,101.988c0.589-1.057,0-2.688-1.404-3.772c-1.498-1.177-3.397-1.297-4.213-0.254l-11.984-9.349
		l-6.166-4.802L90.351,22.887c2.354-1.177,4.762-2.287,7.196-3.33l75.262,58.69l6.153,4.802l17.307,4.079
		c1.404,0.334,2.729,1.391,3.317,2.675l13.402,28.369L192.23,101.988z"/>
</g>
</svg>
