<?xml version="1.0" encoding="utf-8"?>
<!-- Generator: Adobe Illustrator 24.3.0, SVG Export Plug-In . SVG Version: 6.00 Build 0)  -->
<svg version="1.1" id="Layer_1" xmlns="http://www.w3.org/2000/svg" xmlns:xlink="http://www.w3.org/1999/xlink" x="0px" y="0px"
	 viewBox="0 0 232.785 249.436" enable-background="new 0 0 232.785 249.436" xml:space="preserve">
<g>
	<path fill="#2B134E" d="M172.724,80.683h-12.282V60.328c0-17.054-13.873-30.927-30.927-30.927S98.587,43.275,98.587,60.328v20.354
		H86.305c-7.055,0-12.795,5.739-12.795,12.795v71.759c0,7.055,5.74,12.795,12.795,12.795h86.419c7.056,0,12.795-5.74,12.795-12.795
		V93.478C185.519,86.422,179.779,80.683,172.724,80.683z M108.745,60.328c0-11.453,9.317-20.77,20.77-20.77
		c11.452,0,20.769,9.317,20.769,20.77v20.354h-41.539V60.328z M175.361,165.236c0,1.454-1.183,2.638-2.638,2.638H86.305
		c-1.454,0-2.638-1.183-2.638-2.638V93.478c0-1.454,1.183-2.637,2.638-2.637h86.419c1.454,0,2.638,1.183,2.638,2.637V165.236z"/>
</g>
<g>
	<path fill="#868686" d="M102.922,137.168c-0.054-0.177-0.105-0.355-0.154-0.53l-0.078-0.274c-0.06-0.225-0.115-0.452-0.17-0.68
		c-0.038-0.157-0.074-0.314-0.11-0.475c-0.046-0.211-0.091-0.422-0.133-0.635c-0.04-0.208-0.076-0.417-0.112-0.627
		c-0.038-0.225-0.076-0.45-0.107-0.672c-0.045-0.313-0.086-0.626-0.121-0.947c-0.012-0.119-0.041-0.439-0.041-0.439
		c-0.025-0.276-0.047-0.553-0.064-0.837c0,0-0.017-0.295-0.022-0.391c-0.019-0.408-0.031-0.816-0.031-1.227h-9.404
		C94.758,131.515,98.395,134.415,102.922,137.168z"/>
	<path fill="#868686" d="M155.427,130.654c-0.004,0.103-0.022,0.404-0.022,0.404c-0.017,0.278-0.038,0.555-0.063,0.828
		c0,0-0.029,0.322-0.042,0.448c-0.034,0.315-0.075,0.628-0.12,0.937c-0.032,0.225-0.07,0.449-0.108,0.675
		c-0.036,0.21-0.072,0.421-0.112,0.627c-0.041,0.214-0.087,0.426-0.133,0.636c-0.035,0.16-0.072,0.318-0.11,0.474
		c-0.054,0.227-0.109,0.453-0.17,0.68l-0.077,0.273c-0.049,0.177-0.101,0.355-0.155,0.532c4.527-2.753,8.164-5.653,10.548-7.734
		h-9.404C155.457,129.844,155.445,130.252,155.427,130.654z"/>
	<path fill="#868686" d="M125.254,124.285c0,1.034,0.467,1.958,1.201,2.575l-2.198,11.087h8.721l-2.198-11.087
		c0.734-0.617,1.201-1.541,1.201-2.575c0-1.858-1.506-3.363-3.363-3.363C126.76,120.921,125.254,122.427,125.254,124.285z"/>
	<path fill="#868686" d="M146.886,129.434c0-8.773-6.218-16.12-14.478-17.87v3.397c6.42,1.682,11.171,7.533,11.171,14.473
		c0,8.249-6.711,14.96-14.961,14.96c-8.249,0-14.96-6.711-14.96-14.96c0-6.421,4.068-11.907,9.761-14.024
		c0.579,0.499,1.331,0.802,2.155,0.802c1.826,0,3.306-1.48,3.306-3.306c0-1.826-1.48-3.306-3.306-3.306
		c-1.615,0-2.957,1.158-3.247,2.689c-6.982,2.57-11.977,9.283-11.977,17.145c0,10.073,8.195,18.268,18.268,18.268
		C138.691,147.702,146.886,139.507,146.886,129.434z"/>
	<path fill="#868686" d="M171.895,128.398c-0.475-0.499-11.745-12.223-27.809-17.667c-4.204-3.483-9.596-5.579-15.468-5.579
		c-5.873,0-11.265,2.096-15.468,5.579c-16.064,5.444-27.334,17.167-27.809,17.667l-0.984,1.036l0.984,1.036
		c0.475,0.499,11.745,12.223,27.809,17.666c4.204,3.483,9.595,5.579,15.468,5.579c5.873,0,11.265-2.096,15.468-5.579
		c16.064-5.444,27.334-17.167,27.809-17.666l0.984-1.036L171.895,128.398z M108.53,115.809c-0.107,0.157-0.208,0.319-0.311,0.479
		c-0.077,0.119-0.155,0.238-0.23,0.358c-0.107,0.172-0.211,0.346-0.314,0.521c-0.07,0.118-0.138,0.238-0.206,0.357
		c-0.103,0.182-0.205,0.364-0.303,0.549c-0.052,0.098-0.101,0.198-0.152,0.297c-0.197,0.383-0.384,0.773-0.561,1.168
		c-0.036,0.08-0.074,0.159-0.109,0.24c-0.09,0.206-0.174,0.414-0.258,0.623c-0.043,0.107-0.086,0.215-0.127,0.322
		c-0.081,0.209-0.16,0.419-0.235,0.631c-0.035,0.098-0.066,0.196-0.1,0.294c-0.137,0.405-0.264,0.814-0.381,1.228
		c-0.028,0.099-0.058,0.197-0.084,0.296c-0.053,0.198-0.101,0.398-0.149,0.599c-0.035,0.148-0.07,0.295-0.103,0.444
		c-0.041,0.187-0.081,0.374-0.118,0.563c-0.038,0.195-0.072,0.39-0.105,0.586c-0.033,0.192-0.065,0.384-0.093,0.578
		c-0.042,0.289-0.079,0.579-0.111,0.87c-0.014,0.132-0.025,0.265-0.038,0.398c-0.023,0.251-0.042,0.503-0.058,0.755
		c-0.007,0.119-0.015,0.239-0.02,0.359c-0.017,0.369-0.028,0.738-0.028,1.11c0,0.371,0.011,0.74,0.028,1.109
		c0.005,0.121,0.013,0.24,0.02,0.361c0.015,0.251,0.034,0.502,0.057,0.751c0.012,0.134,0.024,0.269,0.038,0.402
		c0.031,0.285,0.068,0.569,0.108,0.851c0.029,0.204,0.063,0.406,0.098,0.609c0.032,0.19,0.065,0.38,0.102,0.569
		c0.037,0.192,0.078,0.383,0.12,0.573c0.032,0.143,0.065,0.286,0.099,0.429c0.049,0.205,0.098,0.41,0.153,0.613
		c0.022,0.083,0.047,0.165,0.07,0.247c0.122,0.437,0.256,0.87,0.402,1.297c0.03,0.087,0.058,0.175,0.089,0.261
		c0.077,0.218,0.158,0.434,0.241,0.649c0.039,0.1,0.078,0.2,0.118,0.299c0.087,0.215,0.174,0.43,0.267,0.643
		c0.028,0.064,0.058,0.128,0.087,0.192c0.187,0.419,0.385,0.831,0.595,1.237c0.045,0.088,0.089,0.176,0.135,0.263
		c0.101,0.189,0.205,0.376,0.311,0.563c0.065,0.115,0.13,0.229,0.197,0.342c0.105,0.179,0.211,0.356,0.32,0.532
		c0.072,0.116,0.147,0.229,0.221,0.344c0.106,0.163,0.209,0.329,0.318,0.489c-9.888-4.55-17.312-11.109-19.957-13.625
		C91.219,126.917,98.643,120.359,108.53,115.809z M115.179,145.912l-0.293-0.248c-0.297-0.252-0.587-0.511-0.868-0.777
		c-0.005-0.005-0.01-0.009-0.015-0.014c-0.273-0.258-0.538-0.524-0.796-0.794c-0.013-0.013-0.026-0.027-0.039-0.04
		c-0.256-0.271-0.505-0.548-0.746-0.83c-0.006-0.007-0.012-0.014-0.019-0.021c-1.244-1.464-2.277-3.079-3.079-4.8
		c-0.008-0.017-0.015-0.035-0.023-0.052c-0.148-0.32-0.288-0.644-0.42-0.971c-0.015-0.036-0.029-0.072-0.043-0.108
		c-0.123-0.31-0.239-0.623-0.347-0.938c-0.016-0.048-0.033-0.096-0.049-0.144c-0.102-0.305-0.197-0.614-0.286-0.924
		c-0.016-0.057-0.033-0.113-0.048-0.17c-0.083-0.302-0.159-0.607-0.229-0.913c-0.015-0.066-0.031-0.131-0.045-0.197
		c-0.065-0.297-0.122-0.597-0.174-0.898c-0.013-0.075-0.028-0.15-0.04-0.225c-0.048-0.292-0.086-0.587-0.122-0.882
		c-0.01-0.084-0.023-0.167-0.032-0.251c-0.032-0.294-0.054-0.59-0.073-0.886c-0.006-0.085-0.015-0.168-0.019-0.253
		c-0.02-0.378-0.031-0.758-0.031-1.139c0-0.381,0.011-0.761,0.031-1.139c0.005-0.085,0.014-0.169,0.019-0.253
		c0.019-0.296,0.041-0.592,0.073-0.886c0.009-0.084,0.022-0.167,0.032-0.251c0.035-0.295,0.074-0.59,0.122-0.882
		c0.012-0.075,0.027-0.149,0.04-0.224c0.052-0.301,0.109-0.601,0.174-0.898c0.014-0.066,0.03-0.131,0.045-0.196
		c0.07-0.306,0.146-0.611,0.229-0.913c0.016-0.057,0.032-0.113,0.048-0.17c0.089-0.31,0.183-0.619,0.286-0.925
		c0.016-0.048,0.032-0.095,0.048-0.142c0.108-0.316,0.224-0.629,0.347-0.94c0.014-0.036,0.028-0.072,0.042-0.107
		c0.132-0.328,0.272-0.652,0.421-0.973c0.008-0.017,0.015-0.033,0.023-0.05c0.802-1.722,1.835-3.337,3.08-4.801
		c0.005-0.006,0.011-0.012,0.016-0.019c0.241-0.283,0.491-0.561,0.748-0.832c0.012-0.013,0.025-0.026,0.038-0.04
		c0.258-0.271,0.524-0.537,0.797-0.796c0.004-0.004,0.009-0.008,0.013-0.013c0.282-0.266,0.571-0.526,0.869-0.778l0.293-0.249
		c3.667-2.996,8.346-4.797,13.439-4.797c5.093,0,9.773,1.801,13.439,4.797l0.293,0.248c0.297,0.252,0.587,0.512,0.869,0.778
		c0.005,0.004,0.009,0.009,0.014,0.013c0.273,0.259,0.538,0.524,0.796,0.795c0.013,0.013,0.026,0.027,0.038,0.04
		c0.257,0.271,0.506,0.549,0.747,0.831c0.006,0.007,0.012,0.013,0.017,0.02c1.244,1.464,2.278,3.079,3.079,4.801
		c0.008,0.017,0.015,0.033,0.023,0.05c0.148,0.321,0.288,0.645,0.421,0.973c0.014,0.036,0.028,0.071,0.042,0.107
		c0.123,0.31,0.239,0.624,0.347,0.94c0.016,0.047,0.032,0.095,0.048,0.142c0.102,0.306,0.197,0.614,0.286,0.925
		c0.016,0.057,0.033,0.113,0.048,0.17c0.083,0.302,0.159,0.607,0.229,0.913c0.015,0.066,0.031,0.131,0.045,0.196
		c0.065,0.298,0.122,0.597,0.174,0.898c0.013,0.075,0.028,0.149,0.04,0.224c0.048,0.293,0.086,0.587,0.122,0.882
		c0.01,0.084,0.023,0.167,0.032,0.251c0.032,0.294,0.054,0.59,0.073,0.886c0.005,0.085,0.015,0.168,0.019,0.253
		c0.02,0.378,0.031,0.758,0.031,1.139c0,0.381-0.011,0.761-0.031,1.139c-0.004,0.085-0.014,0.169-0.019,0.254
		c-0.019,0.296-0.041,0.591-0.073,0.885c-0.009,0.085-0.022,0.168-0.032,0.253c-0.035,0.294-0.074,0.588-0.121,0.88
		c-0.012,0.076-0.028,0.151-0.041,0.227c-0.052,0.3-0.109,0.599-0.173,0.895c-0.015,0.067-0.031,0.133-0.046,0.2
		c-0.07,0.305-0.145,0.608-0.228,0.909c-0.016,0.058-0.033,0.116-0.049,0.174c-0.088,0.309-0.183,0.616-0.285,0.92
		c-0.017,0.049-0.033,0.098-0.05,0.147c-0.108,0.314-0.223,0.625-0.345,0.933c-0.015,0.038-0.03,0.076-0.045,0.114
		c-0.131,0.325-0.27,0.647-0.417,0.965c-0.009,0.019-0.017,0.038-0.026,0.058c-0.801,1.72-1.834,3.334-3.077,4.797
		c-0.007,0.008-0.014,0.016-0.021,0.024c-0.24,0.282-0.489,0.558-0.744,0.828c-0.013,0.014-0.026,0.027-0.039,0.041
		c-0.258,0.271-0.523,0.536-0.797,0.795c-0.004,0.004-0.009,0.008-0.013,0.012c-0.282,0.266-0.571,0.526-0.869,0.778l-0.295,0.25
		c-3.666,2.995-8.345,4.795-13.437,4.795C123.525,150.708,118.845,148.907,115.179,145.912z M148.705,143.059
		c0.109-0.16,0.211-0.323,0.316-0.485c0.075-0.116,0.151-0.232,0.224-0.349c0.109-0.175,0.214-0.352,0.319-0.529
		c0.067-0.114,0.133-0.229,0.199-0.345c0.105-0.186,0.209-0.372,0.309-0.56c0.047-0.089,0.092-0.179,0.138-0.269
		c0.208-0.403,0.404-0.811,0.59-1.226c0.03-0.066,0.061-0.132,0.09-0.199c0.092-0.212,0.179-0.426,0.266-0.64
		c0.04-0.1,0.08-0.201,0.119-0.302c0.083-0.215,0.164-0.43,0.241-0.648c0.031-0.087,0.059-0.175,0.089-0.263
		c0.145-0.427,0.279-0.858,0.401-1.295c0.023-0.083,0.048-0.165,0.07-0.247c0.054-0.203,0.104-0.408,0.153-0.613
		c0.034-0.143,0.068-0.286,0.099-0.43c0.042-0.19,0.083-0.381,0.12-0.572c0.037-0.189,0.07-0.38,0.102-0.57
		c0.034-0.202,0.068-0.404,0.098-0.608c0.041-0.283,0.078-0.566,0.108-0.851c0.014-0.134,0.026-0.268,0.038-0.402
		c0.023-0.25,0.042-0.5,0.057-0.751c0.007-0.12,0.015-0.24,0.02-0.361c0.017-0.369,0.028-0.738,0.028-1.109
		c0-0.371-0.011-0.74-0.028-1.109c-0.005-0.121-0.013-0.24-0.02-0.361c-0.015-0.251-0.034-0.502-0.057-0.752
		c-0.012-0.134-0.024-0.268-0.038-0.402c-0.031-0.286-0.068-0.57-0.109-0.854c-0.029-0.203-0.063-0.404-0.097-0.606
		c-0.033-0.19-0.065-0.38-0.102-0.569c-0.037-0.192-0.078-0.383-0.12-0.573c-0.032-0.143-0.065-0.286-0.099-0.429
		c-0.049-0.205-0.098-0.41-0.153-0.613c-0.022-0.084-0.048-0.167-0.071-0.25c-0.121-0.435-0.255-0.865-0.4-1.29
		c-0.03-0.089-0.059-0.178-0.091-0.267c-0.077-0.217-0.157-0.431-0.24-0.645c-0.039-0.102-0.08-0.204-0.121-0.305
		c-0.086-0.213-0.172-0.426-0.264-0.636c-0.031-0.071-0.064-0.14-0.095-0.21c-0.182-0.408-0.375-0.809-0.579-1.205
		c-0.048-0.094-0.095-0.189-0.145-0.283c-0.099-0.186-0.202-0.37-0.306-0.554c-0.067-0.118-0.134-0.236-0.203-0.352
		c-0.103-0.176-0.208-0.351-0.315-0.524c-0.075-0.121-0.153-0.24-0.23-0.359c-0.103-0.159-0.204-0.321-0.311-0.478
		c9.888,4.55,17.312,11.109,19.958,13.625C166.016,131.951,158.592,138.509,148.705,143.059z"/>
	<path fill="#868686" d="M213.271,19.433c-22.91-9.91-46.93-15.71-71.67-18.17c-21.57-2.15-43.18-1.31-64.79,0.68
		c-24.08,2.22-47.64,6.88-70.88,13.35c-6.07,1.7-6.62,2.47-5.41,8.69c2.04,10.48,4.02,20.98,6.52,31.36
		c5.65,23.56,15.48,45.43,27.83,66.18c8.99,15.1,20.14,28.42,33.31,40.07c0.07-0.31,0.15-0.61,0.24-0.9
		c-0.08,0.29-0.23,0.91-0.23,0.91c1.12,0.37,41,26.24,63.35,31.86c-18.59-10.23-35.85-22.15-50.51-37.6
		c-0.64-0.62-1.28-1.23-1.92-1.85c-7.49-9.1-15.58-17.78-22.28-27.43c-5.87-8.46-10.45-17.87-15.12-27.1
		c-10.26-20.3-16.95-41.82-21.53-64.07c-0.88-4.26,0.31-5.96,4.36-6.92c29.7-7.06,59.76-11.47,90.29-11.76
		c18.47-0.17,36.96,0.51,55.43,1.04c6.64,0.19,13.26,1.06,19.88,1.62c9.16,0.77,18.32,1.54,27.48,2.31
		C216.241,20.463,214.711,20.053,213.271,19.433z M137.501,15.353h-29.11c0.06-0.14,0.12-0.28,0.18-0.41h28.93V15.353z"/>
</g>
<g>
	<path fill="#093655" d="M218.379,40.214c-32.461-2.086-63.821-4.1-95.181-6.115c-0.005-0.449-0.011-0.897-0.016-1.346
		c35.945-2.202,71.889-4.404,109.387-6.701c0,10.931,0.54,20.907-0.09,30.808c-3.483,54.829-22.037,103.776-57.822,145.832
		c-15.806,18.576-35.161,32.958-55.327,46.329c-0.989,0.656-3.232,0.491-4.303-0.201C57.757,211.75,22.366,160.097,11.159,92.424
		c-0.616-3.722-0.837-7.51-0.816-11.313c4.253,10.575,8.067,21.353,12.837,31.689c18.664,40.436,43.784,76.078,78.736,104.252
		c0.777,0.626,1.578,1.225,2.38,1.819c13.313,9.854,13.287,9.82,26.29-0.386c44.119-34.626,70.014-80.306,81.175-134.705
		C214.662,69.642,216.142,55.213,218.379,40.214z"/>
</g>
</svg>
