<?xml version="1.0" encoding="utf-8"?>
<!-- Generator: Adobe Illustrator 24.3.0, SVG Export Plug-In . SVG Version: 6.00 Build 0)  -->
<svg version="1.1" id="Layer_1" xmlns="http://www.w3.org/2000/svg" xmlns:xlink="http://www.w3.org/1999/xlink" x="0px" y="0px"
	 viewBox="0 0 834.773 834.839" enable-background="new 0 0 834.773 834.839" xml:space="preserve">
<g>
	<path fill="#254C84" d="M317.682,644.454v177.832c-40.929-10.54-79.347-27.404-114.094-49.503v-1.469L317.682,644.454z"/>
	<path fill="#254C84" d="M474.433,470.199v360.59c-18.641,2.677-37.684,4.05-57.059,4.05c-19.351,0-38.394-1.374-57.035-4.05
		v-233.73L474.433,470.199z"/>
	<path fill="#254C84" d="M631.185,597.296v175.487c-34.747,22.099-73.165,38.963-114.117,49.503V470.46L631.185,597.296z"/>
	<polygon fill="#254C84" points="474.433,238.033 474.433,434.244 360.339,561.104 360.339,321.027 	"/>
	<polygon fill="#254C84" points="317.682,348.242 317.682,608.499 203.588,735.336 203.588,431.236 	"/>
	<polygon fill="#254C84" points="631.185,128.889 631.185,561.104 517.067,434.244 517.067,211.884 	"/>
	<path fill="#254C84" d="M417.375,834.773c-20.004,0-40.079-1.426-59.666-4.238c-14.813-2.109-29.828-5.102-44.624-8.895
		c-42.303-10.895-82.462-28.319-119.365-51.79c-58.2-36.999-106.795-88.316-140.531-148.402C18.393,559.473,0,488.913,0,417.399
		C0,361.053,11.035,306.39,32.799,254.93c21.021-49.704,51.114-94.342,89.444-132.675c38.33-38.333,82.965-68.429,132.666-89.452
		C306.367,11.037,361.028,0,417.374,0s111.008,11.037,162.469,32.803c49.703,21.023,94.342,51.12,132.675,89.452
		c38.333,38.333,68.429,82.971,89.452,132.675c21.768,51.46,32.804,106.123,32.804,162.469c0,71.511-18.393,142.067-53.189,204.04
		c-33.732,60.078-82.327,111.397-140.529,148.412c-36.913,23.476-77.081,40.9-119.388,51.789
		c-14.818,3.799-29.825,6.792-44.605,8.896C457.478,833.348,437.396,834.773,417.375,834.773z M417.374,5
		C189.99,5,5,190.001,5,417.399c0,141.86,71.553,272.041,191.403,348.233c36.46,23.188,76.136,40.403,117.926,51.166
		c14.617,3.747,29.451,6.704,44.088,8.788c38.727,5.559,79.249,5.555,117.936,0c14.604-2.079,29.43-5.036,44.069-8.789
		c41.795-10.757,81.479-27.972,117.948-51.165c119.851-76.22,191.402-206.4,191.402-348.233C829.773,190.001,644.771,5,417.374,5z"
		/>
</g>
<g>
	<polygon fill="#999999" points="529.665,139.528 469.361,136.931 485.15,159.139 146.281,398.344 146.299,398.369 146.281,398.369 
		146.281,631.222 170.232,631.222 170.232,410.754 499.029,178.658 512.154,197.118 	"/>
</g>
</svg>
