<?xml version="1.0" encoding="utf-8"?>
<!-- Generator: Adobe Illustrator 24.3.0, SVG Export Plug-In . SVG Version: 6.00 Build 0)  -->
<svg version="1.1" id="Layer_7" xmlns="http://www.w3.org/2000/svg" xmlns:xlink="http://www.w3.org/1999/xlink" x="0px" y="0px"
	 viewBox="0 0 236.819 237.04" enable-background="new 0 0 236.819 237.04" xml:space="preserve">
<g>
	<path fill-rule="evenodd" clip-rule="evenodd" fill="#71726F" d="M51.651,20.792C11.277,48.362-9.308,99.35,4.065,149.247
		c16.922,63.169,81.853,100.657,145.021,83.728c51.619-13.828,86.079-59.7,87.733-110.481
		c-7.144,41.673-37.735,77.473-81.256,89.132c-59.621,15.979-120.895-19.4-136.873-79.02C7.474,90.732,21.59,48.034,51.651,20.792
		L51.651,20.792z"/>
</g>
<g>
	<circle fill="#27A886" cx="101.273" cy="58.918" r="15.139"/>
	<path fill="#27A886" d="M55.411,93.284c0,0,27.44-38.321,78.85,11.039c0,0-37.019-16.483-8.37,78.377
		c0,0-19.625-25.687-27.901-48.729c1.116,2.336-18.804,36.329-30.033,48.729C67.957,182.7,101.886,102.197,55.411,93.284z"/>
	<path fill-rule="evenodd" clip-rule="evenodd" fill="#27A886" d="M187.233,188.938c35.978-24.088,54.325-68.631,42.407-112.23
		c-15.085-55.194-72.947-87.942-129.247-73.159c-46.001,12.086-76.718,52.17-78.189,96.533c6.366-36.41,33.631-67.688,72.418-77.874
		c53.131-13.958,107.746,16.953,121.984,69.04C226.606,127.838,214.024,165.141,187.233,188.938L187.233,188.938z"/>
</g>
<g>
	<path fill="#76E2C3" d="M138.785,108.671c4.59,0.333,20.661,19.781,40.876,4.333c0,0-11.905,24.379,1.747,61.334
		c-10.035-10.111-18.777-22.905-20.276-25.885c-0.448-3.456,0.211,13.534-18.734,25.799
		C152.69,159.498,152.759,124.334,138.785,108.671z"/>
	<circle fill="#76E2C3" cx="160.097" cy="104.013" r="9.891"/>
</g>
</svg>
