<?xml version="1.0" encoding="utf-8"?>
<!-- Generator: Adobe Illustrator 24.3.0, SVG Export Plug-In . SVG Version: 6.00 Build 0)  -->
<svg version="1.1" id="Layer_1" xmlns="http://www.w3.org/2000/svg" xmlns:xlink="http://www.w3.org/1999/xlink" x="0px" y="0px"
	 viewBox="0 0 229.193 259.118" enable-background="new 0 0 229.193 259.118" xml:space="preserve">
<g>
	<path fill="#ED2124" d="M225.309,253.035c-13.226-12.645-26.431-25.315-39.783-37.827c-3.915-3.669-3.674-5.937,1.013-8.748
		c20.337-12.198,29.81-37.259,23.257-60.752c-6.064-21.741-27.985-38.336-51.252-38.394c-45.723-0.115-91.448,0.082-137.17-0.17
		c-6.402-0.035-8.14,2.247-8.077,8.204c0.221,20.703,0.08,41.409,0.075,62.114c-0.005,24.587-0.033,49.174,0.017,73.762
		c0.005,2.28-0.882,5.596,1.577,6.502c5.114,1.884,10.779,1.785,15.857,0.147c3.45-1.113,1.956-5.304,1.964-8.128
		c0.1-38.175,0.111-76.35,0.052-114.524c-0.008-4.859,0.624-8.49,6.823-8.45c40.326,0.257,80.659-0.681,120.979,0.557
		c7.084,0.218,13.568,2.602,18.952,7.304c11.945,10.431,15.453,24.015,10.139,38.53c-4.962,13.555-17.139,21.907-32.623,22.007
		c-21.351,0.139-42.706,0.249-64.055,0.026c-16.924-0.177-16.255,3.937-16.238-16.901c0.005-5.748,2.45-7.347,7.874-7.247
		c14.877,0.273,29.762,0.14,44.643,0.082c9.919-0.039,19.838-0.175,29.754-0.389c1.816-0.039,4.48,0.916,5.258-1.17
		c0.864-2.316-1.673-3.653-3.169-5.117c-3.232-3.164-6.555-6.236-9.727-9.458c-2.711-2.753-5.722-4.074-9.744-4.049
		c-25.665,0.162-51.332,0.24-76.995,0.017c-6.142-0.053-8.219,1.932-8.162,8.205c0.276,30.408,0.3,60.822-0.015,91.229
		c-0.068,6.584,1.981,8.523,8.473,8.449c26.956-0.304,53.918-0.125,80.877-0.124c5.172,0,10.345,0.018,15.517-0.015
		c1.242-0.008,2.789,0.276,3.364-1.201c0.573-1.469-0.778-2.414-1.629-3.253c-3.221-3.177-6.894-5.951-9.794-9.386
		c-4.019-4.761-8.821-6.07-14.864-5.943c-15.522,0.324-31.057,0.232-46.584,0.072c-16.894-0.174-14.711,2.181-15.183-15.299
		c-0.172-6.366,1.855-8.754,8.483-8.68c21.561,0.241,43.129-0.035,64.694-0.208c5.293-0.042,9.342,1.894,13.153,5.653
		c11.959,11.795,24.234,23.269,36.41,34.843c1.714,1.629,3.453,3.169,6.108,3.241c7.743,0.208,15.478,0.388,23.633-0.437
		C228.619,255.137,226.659,254.326,225.309,253.035z"/>
	<path fill="#ED2124" d="M36.264,98.23c16.684-0.283,33.374-0.294,50.055-0.667c2.098-0.047,4.637-1.14,6.162-2.597
		c8.9-8.507,17.57-17.254,26.286-25.951c1.523-1.52,2.897-3.188,4.34-4.787c-0.154-0.368-0.308-0.735-0.462-1.103
		c-18.913,0-37.827,0-57.507,0C75.912,42.691,76.13,22.035,72.084,0c-0.711,1.361-1.091,1.878-1.268,2.457
		c-2.738,8.938-7.947,16.352-14.097,23.234c-8.561,9.582-18.873,16.937-29.633,23.772C12.934,58.453,2.942,70.429,0.479,87.567
		c-1.143,7.953-0.312,15.706,3.241,24.182c4.829-7.535,10.898-11.465,18.698-12.418C27.011,98.769,31.643,98.308,36.264,98.23z
		 M5.504,104.492c-0.44-0.185-0.879-0.371-1.319-0.556c0.998-2.779,1.817-5.638,3.025-8.323c5.495-12.215,14.873-21.091,25.3-29.026
		c17.216-13.103,30.642-29.125,38.297-49.608c0.081-0.216,0.353-0.361,0.87-0.866c0.243,0.98,0.597,1.747,0.6,2.516
		c0.113,25.05-10.041,44.791-30.732,58.982c-3.815,2.617-7.849,4.924-11.849,7.261C20.636,90.165,12.234,96.271,5.504,104.492z"/>
	<path fill="#ED2124" d="M111.368,86.903c-3.21,3.208-6.351,6.486-9.524,9.732c0.148,0.345,0.296,0.69,0.444,1.034
		c2.714,0,5.449-0.209,8.139,0.051c3.727,0.36,6.509-0.857,9.127-3.554c9.312-9.591,18.816-18.996,28.223-28.496
		c0.475-0.48,0.714-1.195,1.369-2.332c-4.134,0-7.702-0.206-11.228,0.09c-1.663,0.14-3.625,0.845-4.801,1.974
		C125.763,72.46,118.579,79.696,111.368,86.903z"/>
	<path fill="#ED2124" d="M149.023,77.143c5.307,4.954,10.886,9.778,15.331,15.455c5.438,6.946,12.173,4.829,18.823,4.878
		c-10.126-10.205-20.019-20.175-30.31-30.547c-1.116,1.066-2.344,2.451-3.78,3.568C146.18,72.757,146.338,74.637,149.023,77.143z"/>
	<path fill="#ED2124" d="M136.533,91.218c-2.01,0.184-3.852-0.206-3.622,2.943c0.283,3.889,0.065,3.905,3.15,3.917
		c3.671,0.015,3.671,0.015,3.678-3.66C140.171,92.282,139.448,90.951,136.533,91.218z"/>
	<path fill="#ED2124" d="M147.875,91.218c-2.01,0.184-3.852-0.206-3.622,2.943c0.283,3.889,0.065,3.905,3.15,3.917
		c3.671,0.015,3.671,0.015,3.678-3.66C151.514,92.282,150.791,90.951,147.875,91.218z"/>
	<path fill="#ED2124" d="M136.533,81.347c-2.01,0.184-3.852-0.206-3.622,2.943c0.283,3.889,0.065,3.905,3.15,3.917
		c3.671,0.015,3.671,0.015,3.678-3.66C140.171,82.411,139.448,81.08,136.533,81.347z"/>
	<path fill="#ED2124" d="M147.875,81.347c-2.01,0.184-3.852-0.206-3.622,2.943c0.283,3.889,0.065,3.905,3.15,3.917
		c3.671,0.015,3.671,0.015,3.678-3.66C151.514,82.411,150.791,81.08,147.875,81.347z"/>
</g>
</svg>
