<?xml version="1.0" encoding="utf-8"?>
<!-- Generator: Adobe Illustrator 24.3.0, SVG Export Plug-In . SVG Version: 6.00 Build 0)  -->
<svg version="1.1" id="Layer_1" xmlns="http://www.w3.org/2000/svg" xmlns:xlink="http://www.w3.org/1999/xlink" x="0px" y="0px"
	 viewBox="0 0 322.763 290.418" enable-background="new 0 0 322.763 290.418" xml:space="preserve">
<g>
	<path fill="#ED1A3C" d="M322.002,79.261c-2.78-20.92-11.11-39.21-26.01-54.17c-18.28-18.35-40.5-26.94-66.42-24.7
		c-19.06,1.65-35.43,9.65-49.31,22.76c-7.75,7.31-13.89,15.83-18.86,25.66c-0.34-0.58-0.51-0.85-0.65-1.14
		c-5.52-10.78-12.76-20.23-22.11-27.94c-20.44-16.87-43.72-23.23-69.79-17.88c-20.46,4.19-36.93,15.12-49.41,31.7
		c-17.06,22.67-22.93,48.15-17.46,76.06c3.03,15.53,9.64,29.67,17.66,43.18c13.45,22.7,30.44,42.61,48.93,61.28
		c27.74,28.02,58.15,52.85,90.45,75.41c1.76,1.23,2.91,1.26,4.69,0.01c21.57-15.15,42.26-31.43,62-48.89
		c20.52-18.16,39.91-37.43,57-58.91c11.82-14.86,22.37-30.55,30.11-47.98C320.532,116.35,324.542,98.381,322.002,79.261z
		 M231.892,158.261c-5.33-8.45-11.44-14.52-21.09-14.73c-6.01-0.12-11.21,2.41-15.55,6.62c-9.95,9.65-9.33,19.34,1.53,30.29
		c-7.04,3.35-14.27,6.79-21.51,10.23c-0.21-0.07-0.42-0.15-0.63-0.22c3.52-4,7.03-8,10.87-12.37c-7.29-18.72,2.48-36.23,22.32-39.65
		C219.722,136.391,229.392,143.97,231.892,158.261z M173.102,139.811c-6.86,7.37-15.5,13.17-23.79,19.07
		c-2.76,1.96-6.64,1.15-9.52-1.41c-4.63-4.11-8.01-9-9.61-15.21c3.91,3.75,7.63,7.4,11.43,10.95c3.47,3.23,7,3.17,10.8,0.3
		c9.4-7.1,18.68-14.15,23.33-25.67c1.63-4.06,4.93-7.13,9.45-9.01C181.082,126.21,178.342,134.17,173.102,139.811z M77.992,150.571
		c-1.32-28.27,3.43-54.38,26.41-74.01c18.41-15.74,47.72-19.71,68.12-9.14c13.09,6.79,21.25,20.04,19.86,33.59
		c-3.76-17.14-17.13-28.89-34.15-30.81c-27.8-3.14-48.25,9-63.44,31.28c-8.76,12.84-13.12,27.46-15.41,42.73
		C79.062,146.37,78.692,148.511,77.992,150.571z M137.732,228.9c-8.67-7.05-17.64-13.75-25.95-21.2
		c-18.71-16.81-25.91-38.23-23.49-62.95c1.89-19.43,14.71-34.2,34.98-34.7c4.16-0.11,8.32-0.51,12.47-0.44
		c14.72,0.24,28.55-1.81,38.44-14.65c0.39,0.33,0.77,0.67,1.16,1.01c-1.5,2.74-2.64,5.77-4.56,8.18c-4.57,5.78-11.28,8.1-18.12,9.64
		c-9.1,2.04-18.37,3.36-27.46,5.43c-20.7,4.73-32.56,22.86-29.34,43.92c2.94,19.17,13.05,34.46,25.75,48.31
		c5.3,5.78,11.28,10.94,16.95,16.38C138.292,228.191,138.012,228.54,137.732,228.9z M234.452,189.021
		c-7.92,5.15-16.45,9.42-24.08,14.96c-7.06,5.13-13.21,11.5-19.88,17.18c-6.53,5.54-10.03,5.48-16.28-0.16
		c-12.8-11.53-25.64-23.02-38.24-34.78c-3.5-3.26-7-5.16-11.82-4.47c-1.67,0.24-3.4,0.04-5.54,0.04c7.78-8.02,15.66-8.27,22.72-1.2
		c11.76,11.78,23.51,23.56,35.27,35.33c4.78,4.78,5.82,4.87,11.13,0.45c5.24-4.37,10.17-9.15,15.62-13.24
		c6.38-4.78,12.96-9.38,19.83-13.41c9.98-5.86,17.87-13.16,20.6-25.04C246.762,176.131,244.342,182.59,234.452,189.021z"/>
</g>
</svg>
