<?xml version="1.0" encoding="utf-8"?>
<!-- Generator: Adobe Illustrator 24.3.0, SVG Export Plug-In . SVG Version: 6.00 Build 0)  -->
<svg version="1.1" id="Layer_5" xmlns="http://www.w3.org/2000/svg" xmlns:xlink="http://www.w3.org/1999/xlink" x="0px" y="0px"
	 viewBox="0 0 226.662 226.663" enable-background="new 0 0 226.662 226.663" xml:space="preserve">
<g>
	<path fill="#1C5282" d="M123.194,204.178c3.437-6.469,6.326-13.122,7.736-20.384c1.694-8.724,1.678-17.479,0.843-26.256
		c-0.91-9.565-3.095-18.891-5.455-28.19c-3.905-15.384-3.492-30.531,3.1-45.205c2.149-4.784,4.787-9.285,8.978-13.68
		c-1.267,4.902-2.349,9.07-2.893,13.359c-1.577,12.433-0.049,24.585,3.147,36.598c0.998,3.751,2.235,7.423,3.636,11.045
		c0.506,1.309,1.043,1.767,2.522,1.193c11.883-4.61,24.299-4.842,36.782-4.219c6.039,0.301,19.287,2.053,19.906,2.744
		c-3.742,0.589-7.492,1.131-11.224,1.778c-7.311,1.267-14.57,2.772-21.528,5.426c-2.127,0.811-4.219,1.742-6.25,2.771
		c-6.256,3.171-10.712,8.016-13.4,14.521c-1.572,3.803-2.806,7.715-4.033,11.631c-4.014,12.811-20.479,36.635-21.916,36.816
		L123.194,204.178z"/>
	<path fill="#1C5282" d="M80.831,162.407c-3.583,6.581-14.205,18.459-15.161,18.359c0.585-1.285,1.156-2.498,1.713-3.712
		c2.955-6.438,5.596-12.991,6.867-20.001c0.557-3.055,0.671-6.153,0.257-9.208c-0.642-4.897-3.126-8.751-7.024-11.721
		c-3.483-2.655-7.452-4.411-11.535-5.91c-6.915-2.96-24.812-7.495-26.453-8.88c14.776,0.338,28.955,0.023,42.427,5.843
		c0.262,0.113,0.548-0.102,0.485-0.38c-1-4.444-11.82-30.007-20.156-40.554c-0.842-1.056-3.026-4.026-3.026-4.026
		s26.225,21.4,33.277,36.761C89.225,133.656,88.568,148.217,80.831,162.407z"/>
	<circle fill="#1C5282" cx="88.414" cy="60.585" r="13.105"/>
	<circle fill="#1C5282" cx="57.666" cy="155.844" r="8.26"/>
	<circle fill="#1C5282" cx="165.914" cy="155.844" r="8.26"/>
</g>
<g>
	<path fill="#05DBC1" d="M114.979,0.004C42.728-0.553-0.1,58.692,0,112.698c0.114,58.289,45.212,113.194,113.651,113.965
		c68.682-0.2,112.652-57.975,113.009-112.066C227.059,55.766,181.177,0.532,114.979,0.004z M133.038,211.916
		c-7.538,1.528-15.132,2.17-22.813,1.799c-0.542-0.029-1.085-0.114-1.999-0.228c2.07-4.597,4.012-8.708,5.81-12.891
		c5.097-11.835,7.538-24.155,6.367-37.06c-0.728-8.08-2.327-16.032-3.683-24.012c-1.542-8.994-3.555-17.931-3.726-27.096
		c-0.385-22.627,7.709-41.429,25.454-55.79c0.257-0.214,1.285-0.814,1.285-0.814s-21.214,7.152-27.71,14.99
		c-6.381,7.709-10.293,16.631-12.748,26.254c-0.157,0.657-0.728,2.099-1.071,2.355c-14.048-19.144-55.89-30.779-55.419-30.593
		c24.212,9.494,40.244,26.953,49.495,50.965c2.798,7.281,4.782,14.761,4.84,22.642c0.086,13.391-5.068,24.64-14.148,34.22
		c-7.409,7.809-16.317,13.491-26.011,18.073c-1.884,0.885-2.941,0.071-4.226-0.928c-18.445-14.419-30.622-32.949-36.632-55.576
		C1.885,84.646,34.805,30.141,86.798,16.064C138.663,2.003,193.44,30.84,209.571,84.66
		C226.488,141.022,190.884,200.21,133.038,211.916z"/>
	<path fill="#05DBC1" d="M158.044,93.694c6.449,0.041,11.511,5.325,11.429,11.929c-0.08,6.385-5.49,11.635-11.92,11.567
		c-6.349-0.067-11.786-5.553-11.719-11.824C145.904,98.854,151.346,93.652,158.044,93.694z"/>
	<circle fill="#05DBC1" cx="51.313" cy="110.057" r="6.353"/>
</g>
</svg>
