<?xml version="1.0" encoding="utf-8"?>
<!-- Generator: Adobe Illustrator 24.3.0, SVG Export Plug-In . SVG Version: 6.00 Build 0)  -->
<svg version="1.1" id="Layer_1" xmlns="http://www.w3.org/2000/svg" xmlns:xlink="http://www.w3.org/1999/xlink" x="0px" y="0px"
	 viewBox="0 0 424.207 332" enable-background="new 0 0 424.207 332" xml:space="preserve">
<g>
	<g>
		<linearGradient id="SVGID_1_" gradientUnits="userSpaceOnUse" x1="210.9043" y1="343.7124" x2="210.9043" y2="77.2733">
			<stop  offset="0.2626" style="stop-color:#2B4DA1"/>
			<stop  offset="0.2791" style="stop-color:#2C4892"/>
			<stop  offset="0.3255" style="stop-color:#2B3D76"/>
			<stop  offset="0.3767" style="stop-color:#27325F"/>
			<stop  offset="0.4324" style="stop-color:#21294C"/>
			<stop  offset="0.494" style="stop-color:#1B213E"/>
			<stop  offset="0.5641" style="stop-color:#161A33"/>
			<stop  offset="0.6476" style="stop-color:#12152C"/>
			<stop  offset="0.7578" style="stop-color:#101127"/>
			<stop  offset="1" style="stop-color:#0F1026"/>
		</linearGradient>
		<path fill="url(#SVGID_1_)" d="M261.675,177.69l-34.164-48.512c-0.658-0.934-2.127-0.468-2.127,0.674v52.265
			c0,5.572-4.517,10.09-10.09,10.09h-8.781c-5.572,0-10.09-4.517-10.09-10.09v-52.265c0-1.142-1.469-1.608-2.127-0.674
			l-34.164,48.512c0,0,0,0,0,0l27.581,46.452h-0.036v42.919c0,0,0,0,0,0l23.226,14.028l23.226-14.028c0,0,0,0,0,0v-42.919h-0.036
			L261.675,177.69C261.675,177.69,261.675,177.69,261.675,177.69z"/>
	</g>
	<linearGradient id="SVGID_2_" gradientUnits="userSpaceOnUse" x1="31.6997" y1="139.4979" x2="212.0578" y2="139.4979">
		<stop  offset="0.2626" style="stop-color:#2B4DA1"/>
		<stop  offset="0.2791" style="stop-color:#2C4892"/>
		<stop  offset="0.3255" style="stop-color:#2B3D76"/>
		<stop  offset="0.3767" style="stop-color:#27325F"/>
		<stop  offset="0.4324" style="stop-color:#21294C"/>
		<stop  offset="0.494" style="stop-color:#1B213E"/>
		<stop  offset="0.5641" style="stop-color:#161A33"/>
		<stop  offset="0.6476" style="stop-color:#12152C"/>
		<stop  offset="0.7578" style="stop-color:#101127"/>
		<stop  offset="1" style="stop-color:#0F1026"/>
	</linearGradient>
	<path fill="url(#SVGID_2_)" d="M58.377,85.747C41.922,95.261,31.7,112.979,31.7,131.986v99.371
		c0,11.126,9.019,20.145,20.145,20.145c11.126,0,20.145-9.019,20.145-20.145v-99.371c0-4.669,2.511-9.021,6.553-11.357
		L212.058,43.44L193.5,33.191c-14.031-7.749-31.096-7.583-44.973,0.439"/>
	<linearGradient id="SVGID_3_" gradientUnits="userSpaceOnUse" x1="9.462382e-04" y1="311.3532" x2="424.2041" y2="311.3532">
		<stop  offset="0.2626" style="stop-color:#2B4DA1"/>
		<stop  offset="0.2791" style="stop-color:#2C4892"/>
		<stop  offset="0.3255" style="stop-color:#2B3D76"/>
		<stop  offset="0.3767" style="stop-color:#27325F"/>
		<stop  offset="0.4324" style="stop-color:#21294C"/>
		<stop  offset="0.494" style="stop-color:#1B213E"/>
		<stop  offset="0.5641" style="stop-color:#161A33"/>
		<stop  offset="0.6476" style="stop-color:#12152C"/>
		<stop  offset="0.7578" style="stop-color:#101127"/>
		<stop  offset="1" style="stop-color:#0F1026"/>
	</linearGradient>
	<path fill="url(#SVGID_3_)" d="M424.204,311.349c0,11.405-9.238,20.651-20.642,20.651H20.652c-5.702,0-10.863-2.314-14.604-6.047
		c-3.733-3.741-6.047-8.902-6.047-14.605c0-11.405,9.246-20.642,20.651-20.642h382.91c5.702,0,10.863,2.314,14.596,6.047
		C421.89,300.486,424.204,305.646,424.204,311.349z"/>
	<linearGradient id="SVGID_4_" gradientUnits="userSpaceOnUse" x1="479.0275" y1="275.9673" x2="4.4657" y2="-125.5032">
		<stop  offset="0.2626" style="stop-color:#2B4DA1"/>
		<stop  offset="0.2791" style="stop-color:#2C4892"/>
		<stop  offset="0.3255" style="stop-color:#2B3D76"/>
		<stop  offset="0.3767" style="stop-color:#27325F"/>
		<stop  offset="0.4324" style="stop-color:#21294C"/>
		<stop  offset="0.494" style="stop-color:#1B213E"/>
		<stop  offset="0.5641" style="stop-color:#161A33"/>
		<stop  offset="0.6476" style="stop-color:#12152C"/>
		<stop  offset="0.7578" style="stop-color:#101127"/>
		<stop  offset="1" style="stop-color:#0F1026"/>
	</linearGradient>
	<path fill="url(#SVGID_4_)" d="M148.527,33.63c13.877-8.022,30.942-8.189,44.973-0.439l20.6,11.377l131.565,76.06
		c4.042,2.336,6.553,6.689,6.553,11.357v99.371c0,11.126,9.019,20.145,20.145,20.145c0.199,0,0.392-0.024,0.59-0.03
		c1.901-3.075,3.003-6.697,3.003-10.578v-99.371c0-19.007-10.222-36.725-26.678-46.238L205.634,12.242
		c-6.239-3.606-13.599-3.48-19.529-0.336"/>
</g>
<g>
	<path fill="#22386F" d="M229.222,9.537c-2.834,0.252-5.659,1.106-8.284,2.623L77.293,95.204
		c-16.455,9.514-26.678,27.231-26.678,46.239v99.371c0,3.892,1.107,7.524,3.018,10.605c10.287-0.906,18.355-9.539,18.355-20.061
		v-99.371c0-4.669,2.511-9.021,6.553-11.358l143.644-83.043c9.632-5.569,12.926-17.891,7.358-27.522
		C229.44,9.884,229.33,9.712,229.222,9.537z"/>
	<path fill="#22386F" d="M365.829,85.747L222.186,2.705c-6.461-3.734-14.13-3.476-20.162,0.002l-0.003-0.002l-15.917,9.202
		c5.93-3.144,13.291-3.27,19.529,0.336l143.644,83.043c16.456,9.514,26.678,27.231,26.678,46.238v99.371
		c0,3.887-1.104,7.515-3.011,10.593c10.855-0.309,19.562-9.199,19.562-20.13v-99.371C392.507,112.979,382.285,95.261,365.829,85.747
		z"/>
</g>
<g>
	<path fill="#0E1841" d="M210.904,284.382l-63.492-36.656c-18.887-10.905-30.62-31.228-30.62-53.036v-57.443
		c0-9.79,5.267-18.912,13.744-23.806l80.368-46.4l82.982,47.91c6.864,3.963,11.129,11.35,11.129,19.277v64.415
		c0,19.371-10.421,37.421-27.196,47.106L210.904,284.382z M210.904,80.897l-74.368,42.936c-4.777,2.758-7.744,7.897-7.744,13.414
		v57.443c0,17.535,9.434,33.876,24.62,42.644l57.492,33.193l60.915-35.17c13.074-7.549,21.196-21.616,21.196-36.714v-64.415
		c0-3.654-1.965-7.058-5.129-8.885L210.904,80.897z"/>
</g>
<g>
	<path fill="#4C71B7" d="M403.558,318.536H20.649c-9.046,0-16.728-5.819-19.52-13.917C0.401,306.73,0,308.993,0,311.351l0,0
		C0,322.755,9.245,332,20.649,332h382.909c11.404,0,20.649-9.245,20.649-20.649l0,0c0-2.358-0.401-4.621-1.129-6.732
		C420.286,312.717,412.604,318.536,403.558,318.536z"/>
	<rect x="257.428" y="132.571" fill="#4C71B7" width="12.645" height="12.645"/>
	<rect x="273.686" y="132.571" fill="#4C71B7" width="12.645" height="12.645"/>
	<rect x="257.428" y="148.467" fill="#4C71B7" width="12.645" height="12.645"/>
	<rect x="273.686" y="148.467" fill="#4C71B7" width="12.645" height="12.645"/>
	<rect x="135.478" y="132.571" fill="#4C71B7" width="12.645" height="12.645"/>
	<rect x="151.736" y="132.571" fill="#4C71B7" width="12.645" height="12.645"/>
	<rect x="135.478" y="148.467" fill="#4C71B7" width="12.645" height="12.645"/>
	<rect x="151.736" y="148.467" fill="#4C71B7" width="12.645" height="12.645"/>
</g>
</svg>
