<?xml version="1.0" encoding="utf-8"?>
<!-- Generator: Adobe Illustrator 24.3.0, SVG Export Plug-In . SVG Version: 6.00 Build 0)  -->
<svg version="1.1" id="Layer_1" xmlns="http://www.w3.org/2000/svg" xmlns:xlink="http://www.w3.org/1999/xlink" x="0px" y="0px"
	 viewBox="0 0 226.4 176.971" enable-background="new 0 0 226.4 176.971" xml:space="preserve">
<g>
	<polygon fill="#2E3058" points="49.279,154.353 49.279,176.398 0.144,176.398 0.144,125 17.235,104.01 45.628,157.035 	"/>
	<polygon fill="#2E3058" points="119.601,104.65 119.601,176.971 68.116,176.971 68.116,142.221 	"/>
	<polygon fill="#2E3058" points="183.961,57.688 183.961,176.914 132.476,176.914 132.476,95.26 	"/>
</g>
<g>
	<polygon fill="#D8202D" points="51.564,50.56 51.564,142.884 47.737,145.671 17.979,90.553 0.067,112.372 0.067,50.56 	"/>
	<polygon fill="#D8202D" points="119.601,26.297 119.601,93.226 68.116,130.798 68.116,26.297 	"/>
	<polygon fill="#D8202D" points="183.961,0 183.961,46.265 132.476,83.836 132.476,0 	"/>
</g>
<g>
	<polygon fill="#F3A900" points="226.4,16.946 215.15,39.986 209.24,31.216 46.4,150.046 17.02,95.616 0.032,115.914 0,112.736 
		0,109.146 0.07,109.056 17.82,87.456 47.93,143.266 51.56,140.616 206.68,27.426 200.82,18.726 	"/>
</g>
</svg>
