<?xml version="1.0" encoding="utf-8"?>
<!-- Generator: Adobe Illustrator 24.3.0, SVG Export Plug-In . SVG Version: 6.00 Build 0)  -->
<svg version="1.1" id="Layer_4" xmlns="http://www.w3.org/2000/svg" xmlns:xlink="http://www.w3.org/1999/xlink" x="0px" y="0px"
	 viewBox="0 0 241.674 244.528" enable-background="new 0 0 241.674 244.528" xml:space="preserve">
<g>
	<path fill="#F7941D" d="M185.007,71.707c-0.734,0.855-1.453,1.717-2.187,2.572c-2.914,3.412-5.82,6.818-8.741,10.23
		c-2.515,2.956-5.037,5.906-7.552,8.855c-10.572-21.771-26.445-35.806-45.637-41.241c-0.948-3.954-1.888-7.901-2.821-11.862
		C144.77,38.209,168.223,49.287,185.007,71.707"/>
	<path fill="#F7941D" d="M198.137,41.821c-3.712,8.741-13.778,12.816-22.491,9.09c-8.713-3.719-12.766-13.828-9.055-22.569
		c3.705-8.741,13.778-12.809,22.484-9.083C197.788,22.978,201.842,33.08,198.137,41.821"/>
</g>
<g>
	<path fill="#32318F" d="M149.638,104.76c10.445,17.495,4.787,40.189-12.647,50.664c-17.434,10.491-40.036,4.802-50.481-12.693
		s-4.787-40.174,12.647-50.664C116.59,81.592,139.193,87.28,149.638,104.76"/>
</g>
<g>
	<path fill="#32318F" d="M197.824,143.19c-1.111-0.036-2.237-0.071-3.355-0.093c-4.474-0.128-8.941-0.249-13.422-0.378h-0.007
		c-3.868-0.107-7.737-0.207-11.612-0.321c9.539-20.51,10.928-40.365,4.652-57.89c2.921-3.412,5.828-6.818,8.741-10.23
		C199.049,93.35,204.271,117.401,197.824,143.19"/>
	<path fill="#32318F" d="M229.234,134.62c-9.105,2.607-18.587-2.686-21.194-11.819c-2.6-9.14,2.679-18.658,11.776-21.265
		c9.112-2.615,18.594,2.679,21.194,11.819C243.61,122.487,238.338,132.005,229.234,134.62"/>
</g>
<g>
	<path fill="#AFAF3F" d="M148.504,195.481c-21.964,11.976-46.492,12.104-70.294,0.413c0.271-1.097,0.527-2.187,0.798-3.284
		c1.047-4.367,2.094-8.734,3.149-13.101c0.912-3.776,1.817-7.559,2.729-11.334c18.01,13.628,37.074,19.121,55.447,16.606
		C143.061,188.343,145.775,191.919,148.504,195.481"/>
	<path fill="#AFAF3F" d="M80.034,228.501c-0.648-9.475,6.483-17.689,15.929-18.345c9.447-0.655,17.625,6.504,18.28,15.986
		c0.648,9.475-6.483,17.689-15.929,18.345C88.868,245.136,80.689,237.983,80.034,228.501"/>
</g>
<g>
	<path fill="#8B5E3C" d="M194.468,143.097c-4.567,24.664-19.898,43.87-43.92,55.069c-0.684-0.898-1.368-1.788-2.045-2.686
		c-2.729-3.562-5.443-7.138-8.171-10.7c-2.351-3.092-4.702-6.169-7.053-9.254c21.892-5.478,38.142-16.891,47.76-32.806h0.007
		C185.527,142.848,189.994,142.969,194.468,143.097"/>
	<path fill="#8B5E3C" d="M176.943,217.266c-7.744-5.457-9.618-16.186-4.182-23.965c5.443-7.772,16.129-9.653,23.88-4.196
		s9.625,16.186,4.182,23.965C195.387,220.85,184.694,222.731,176.943,217.266"/>
</g>
<g>
	<path fill="#1B75BC" d="M82.157,179.509c-1.054,4.367-2.102,8.734-3.149,13.101c-23.089-9.596-38.634-28.653-44.554-54.571
		c1.019-0.484,2.023-0.969,3.042-1.446c4.046-1.931,8.086-3.854,12.132-5.792c3.491-1.66,6.996-3.327,10.487-4.994
		C60.906,148.426,68.642,166.757,82.157,179.509"/>
	<path fill="#1B75BC" d="M10.346,159.989c6.932-6.469,17.782-6.077,24.229,0.876c6.454,6.96,6.063,17.846-0.869,24.322
		c-6.932,6.469-17.782,6.077-24.229-0.883C3.029,177.35,3.421,166.464,10.346,159.989"/>
</g>
<g>
	<path fill="#2BB673" d="M162.387,97.107c-7.1-11.878-18.392-20.271-31.795-23.634c-13.383-3.353-27.26-1.283-39.087,5.818
		c-24.412,14.696-32.381,46.581-17.746,71.084c7.1,11.898,18.392,20.301,31.795,23.654c4.181,1.05,8.413,1.565,12.605,1.565
		c9.242,0,18.342-2.505,26.472-7.403c16.13-9.696,25.088-26.896,25.088-44.531C169.719,114.601,167.356,105.43,162.387,97.107z
		 M139.429,159.536c-9.514,5.727-20.665,7.393-31.421,4.696c-10.777-2.697-19.867-9.454-25.583-19.028
		c-11.777-19.736-5.373-45.42,14.281-57.257c6.535-3.919,13.857-5.939,21.281-5.939c3.373,0,6.777,0.424,10.14,1.263
		c5.393,1.353,10.363,3.717,14.696,6.939c4.333,3.222,8.03,7.302,10.888,12.08C165.508,122.034,159.094,147.719,139.429,159.536z"/>
	<path fill="#2BB673" d="M77.334,79.828c-17.019,14.84-26.338,32.408-27.706,50.973c-4.046,1.938-8.086,3.861-12.132,5.792
		c-7.103-24.044-2.123-48.145,14.22-69.075c1.005,0.484,2.023,0.969,3.035,1.453c4.032,1.945,8.079,3.883,12.111,5.828
		C70.359,76.473,73.843,78.154,77.334,79.828"/>
	<path fill="#2BB673" d="M19.55,62.524c9.375,1.332,15.894,10.038,14.569,19.449c-1.332,9.411-10.002,15.951-19.378,14.626
		C5.366,95.259-1.16,86.553,0.173,77.142C1.498,67.739,10.175,61.192,19.55,62.524"/>
</g>
<g>
	<path fill="#FF2952" d="M123.79,64.319c-22.213-3.932-41.69-0.142-56.929,10.48c-4.032-1.945-8.079-3.883-12.111-5.828
		c14.156-20.667,35.955-31.959,62.443-32.386c0.292,1.225,0.584,2.458,0.876,3.676c0.933,3.961,1.874,7.908,2.821,11.862
		C121.852,56.183,122.821,60.251,123.79,64.319"/>
	<path fill="#FF2952" d="M100.815,8.359c4.866,8.15,2.23,18.722-5.892,23.602c-8.121,4.887-18.651,2.237-23.517-5.913
		s-2.23-18.715,5.892-23.602C85.42-2.434,95.949,0.216,100.815,8.359"/>
</g>
</svg>
