<?xml version="1.0" encoding="utf-8"?>
<!-- Generator: Adobe Illustrator 24.3.0, SVG Export Plug-In . SVG Version: 6.00 Build 0)  -->
<svg version="1.1" id="Layer_3" xmlns="http://www.w3.org/2000/svg" xmlns:xlink="http://www.w3.org/1999/xlink" x="0px" y="0px"
	 viewBox="0 0 195.02 195.02" enable-background="new 0 0 195.02 195.02" xml:space="preserve">
<g>
	<path fill="#C41919" d="M97.51,0C43.74,0,0,43.75,0,97.51c0,53.77,43.74,97.51,97.51,97.51c53.76,0,97.51-43.74,97.51-97.51
		C195.02,43.75,151.27,0,97.51,0z M112.31,182.28c-4.2,1.11-10.87,1.62-15.21,1.62c-36.42,0-64.56-24.78-70.09-60.56
		c-0.04-0.27,0.03-0.51,0.21-0.71c0.17-0.21,0.4-0.31,0.67-0.31h48.07c0.24,0,0.44,0.08,0.61,0.24c0.17,0.18,0.26,0.38,0.27,0.62
		c0.27,14.09,4.24,46.46,35.51,58.16c0.22,0.09,0.33,0.25,0.31,0.49C112.65,182.06,112.54,182.21,112.31,182.28z M142.34,165.29
		c-9,5.78-20.44,6.26-30.08,1.63c-12.1-5.82-28.68-18.53-29.15-44.6h86.68C169.79,122.32,162.95,152.07,142.34,165.29z
		 M185.86,117.99c-0.78,3.36-1.75,6.66-2.9,9.9c-1.16,3.25-2.49,6.42-4.01,9.51c-1.52,3.09-3.21,6.09-5.07,8.99
		c-1.86,2.9-3.88,5.69-6.06,8.36c-2.17,2.67-4.49,5.21-6.96,7.61c-2.47,2.41-5.07,4.66-7.79,6.77
		c12.61-12.56,21.03-30.36,22.22-53.14c0.01-0.27-0.08-0.5-0.25-0.69c-0.19-0.19-0.41-0.28-0.68-0.28H19.85
		c-0.27,0-0.49,0.09-0.67,0.28s-0.27,0.42-0.26,0.69c1.1,21.06,8.4,37.88,19.46,50.23c-2.47-2.12-4.82-4.37-7.04-6.74
		c-2.23-2.37-4.32-4.86-6.28-7.45c-1.96-2.6-3.77-5.3-5.44-8.08c-1.67-2.8-3.18-5.67-4.54-8.63c-1.36-2.95-2.55-5.98-3.59-9.06
		c-1.03-3.09-1.9-6.22-2.59-9.4c-0.7-3.17-1.22-6.38-1.57-9.61s-0.52-6.48-0.52-9.74c0-50.01,40.69-90.69,90.7-90.69
		s90.7,40.68,90.7,90.69c0,3.45-0.2,6.89-0.59,10.31C187.23,111.25,186.64,114.63,185.86,117.99z"/>
</g>
<g>
	<path fill-rule="evenodd" clip-rule="evenodd" fill="#EF9B11" d="M121.272,25.791l-15.687,25.85
		c-6.475,0.356-15.985,3.86-23.609,10.316c-1.016-3.06-2.349-5.967-4.018-8.723c-5.46-9.04-13.63-15.211-22.295-17.839
		c-1.701,8.888-0.032,18.988,5.428,28.034c0.609,1.003,1.251,1.968,1.924,2.895c0.019,0.032,0.019,0.063-0.013,0.089
		c-0.025,0.025-0.051,0.032-0.089,0.013c-4.152-3.028-7.167-6.926-9.046-11.713c-4.393-2.317-9.072-3.384-14.036-3.187
		c1.003,6.38,4.558,12.76,10.411,17.509c0.171,0.14,0.349,0.267,0.521,0.406c-2.051,0.686-4.044,1.517-5.98,2.489
		c-1.936,0.965-3.79,2.07-5.574,3.301c-1.778,1.232-3.46,2.584-5.053,4.05c-1.587,1.473-3.066,3.041-4.431,4.723
		c-1.365,1.676-2.609,3.441-3.726,5.294c-1.117,1.854-2.101,3.777-2.946,5.771c-0.844,1.993-1.549,4.031-2.108,6.126
		c-0.559,2.089-0.965,4.209-1.225,6.355c-0.032,0.241-0.013,0.476,0.051,0.711c0.07,0.235,0.178,0.444,0.324,0.635
		c0.152,0.19,0.33,0.349,0.54,0.463c0.216,0.121,0.438,0.197,0.679,0.222c0.241,0.032,0.476,0.013,0.711-0.051
		c0.235-0.07,0.444-0.171,0.635-0.324s0.343-0.33,0.463-0.54c0.121-0.209,0.197-0.438,0.222-0.679
		c0.108-0.901,0.248-1.797,0.413-2.692c0.165-0.889,0.362-1.778,0.584-2.654c0.222-0.882,0.47-1.752,0.749-2.616
		c0.279-0.863,0.584-1.72,0.921-2.558c0.336-0.844,0.692-1.682,1.079-2.501s0.8-1.625,1.244-2.419
		c0.438-0.794,0.901-1.574,1.39-2.336c0.489-0.768,1.003-1.517,1.543-2.247c0.533-0.73,1.092-1.441,1.676-2.139
		c0.584-0.692,1.187-1.371,1.816-2.025c0.628-0.66,1.276-1.295,1.943-1.911c0.667-0.609,1.352-1.206,2.057-1.778
		c0.705-0.565,1.428-1.117,2.171-1.638c0.743-0.527,1.498-1.022,2.273-1.498c0.768-0.476,1.562-0.927,2.362-1.352
		c0.8-0.425,1.612-0.825,2.444-1.193c0.825-0.375,1.663-0.724,2.514-1.041s1.708-0.609,2.577-0.87
		c0.87-0.267,1.746-0.502,2.628-0.705c0.882-0.209,1.771-0.387,2.666-0.54c0.895-0.146,1.797-0.267,2.698-0.362
		c0.901-0.089,1.809-0.152,2.717-0.184c0.901-0.038,1.809-0.038,2.717-0.019c0.908,0.025,1.816,0.083,2.717,0.165
		c0.901,0.083,1.803,0.19,2.698,0.33c0.895,0.146,1.79,0.311,2.673,0.508c0.889,0.203,1.765,0.425,2.635,0.679
		c0.876,0.254,1.733,0.54,2.59,0.851c0.851,0.305,1.695,0.641,2.527,1.009c0.832,0.362,1.651,0.749,2.457,1.168
		s1.593,0.857,2.374,1.327c0.774,0.47,1.536,0.959,2.285,1.473l-3.206,5.288c-0.622-0.438-1.263-0.857-1.917-1.251
		c-0.654-0.4-1.314-0.774-1.993-1.13c-0.673-0.356-1.359-0.692-2.057-1.003s-1.403-0.603-2.12-0.87
		c-0.717-0.267-1.441-0.514-2.171-0.736s-1.466-0.419-2.209-0.597c-0.743-0.171-1.492-0.324-2.247-0.451
		c-0.749-0.133-1.511-0.235-2.266-0.317c-0.762-0.076-1.524-0.133-2.285-0.165c-0.762-0.032-1.53-0.038-2.292-0.025
		c-0.762,0.019-1.524,0.057-2.285,0.121c-0.762,0.07-1.524,0.159-2.279,0.267c-0.755,0.114-1.505,0.254-2.254,0.413
		c-0.743,0.159-1.486,0.343-2.222,0.552c-0.736,0.203-1.46,0.438-2.184,0.686c-0.717,0.254-1.435,0.533-2.133,0.832
		c-0.705,0.298-1.397,0.616-2.082,0.959c-0.686,0.343-1.352,0.705-2.012,1.092c-0.66,0.381-1.308,0.787-1.943,1.213
		c-0.635,0.425-1.257,0.87-1.86,1.339c-0.609,0.463-1.2,0.946-1.778,1.447c-0.571,0.502-1.13,1.022-1.676,1.562
		c-0.54,0.533-1.067,1.092-1.574,1.663c-0.508,0.565-0.997,1.155-1.466,1.758c-0.47,0.597-0.921,1.213-1.352,1.847
		c-0.432,0.628-0.844,1.27-1.238,1.93c-0.387,0.654-0.762,1.32-1.111,2c-0.349,0.686-0.673,1.371-0.978,2.076
		c-0.305,0.698-0.59,1.409-0.851,2.127s-0.495,1.441-0.711,2.177c-0.209,0.73-0.4,1.473-0.571,2.216
		c-0.165,0.749-0.311,1.498-0.432,2.247c-0.038,0.241-0.025,0.482,0.032,0.717s0.159,0.451,0.298,0.641
		c0.146,0.197,0.317,0.356,0.527,0.482c0.203,0.127,0.432,0.209,0.667,0.248c0.241,0.038,0.476,0.025,0.711-0.032
		s0.451-0.159,0.648-0.298c0.197-0.146,0.356-0.317,0.482-0.527c0.127-0.203,0.209-0.425,0.248-0.667
		c0.108-0.679,0.235-1.359,0.387-2.031s0.324-1.339,0.514-2c0.197-0.66,0.413-1.314,0.648-1.962
		c0.235-0.648,0.489-1.289,0.762-1.924c0.279-0.628,0.571-1.251,0.889-1.866c0.317-0.609,0.648-1.213,1.003-1.809
		c0.356-0.59,0.724-1.168,1.117-1.739c0.387-0.565,0.8-1.124,1.225-1.663s0.863-1.073,1.327-1.587
		c0.457-0.508,0.933-1.009,1.422-1.492c0.495-0.489,0.997-0.952,1.517-1.403c0.521-0.457,1.054-0.889,1.606-1.308
		c0.546-0.419,1.111-0.819,1.682-1.2s1.162-0.743,1.758-1.092c0.597-0.343,1.2-0.667,1.816-0.978
		c0.622-0.305,1.244-0.59,1.885-0.857c0.635-0.267,1.276-0.514,1.93-0.736c0.648-0.229,1.308-0.432,1.974-0.616
		c0.66-0.184,1.333-0.349,2.006-0.489s1.352-0.26,2.038-0.362c0.679-0.095,1.365-0.171,2.051-0.229
		c0.686-0.051,1.378-0.089,2.063-0.095c0.692-0.013,1.378,0,2.07,0.032c0.686,0.032,1.378,0.089,2.057,0.165
		c0.686,0.076,1.371,0.171,2.051,0.292c0.679,0.121,1.352,0.26,2.019,0.425c0.673,0.159,1.339,0.343,1.993,0.546
		c0.66,0.209,1.308,0.432,1.955,0.679c0.641,0.248,1.276,0.514,1.904,0.8s1.244,0.59,1.854,0.914c0.609,0.33,1.206,0.673,1.79,1.035
		c0.584,0.368,1.155,0.749,1.72,1.149l-3.307,5.453c-0.87-0.654-1.778-1.251-2.723-1.79c-0.946-0.546-1.924-1.022-2.927-1.441
		c-1.009-0.419-2.038-0.774-3.085-1.067c-1.054-0.286-2.114-0.514-3.193-0.667c-1.079-0.159-2.165-0.248-3.25-0.273
		c-1.092-0.019-2.177,0.025-3.263,0.14c-1.086,0.114-2.158,0.298-3.219,0.546c-1.06,0.248-2.101,0.559-3.123,0.94
		c-1.022,0.375-2.012,0.819-2.984,1.32c-0.965,0.502-1.898,1.067-2.793,1.682c-0.895,0.622-1.752,1.295-2.565,2.019
		s-1.574,1.498-2.292,2.323c-0.717,0.819-1.378,1.682-1.987,2.584c-0.609,0.908-1.155,1.847-1.651,2.819
		c-0.489,0.971-0.914,1.974-1.282,2.996c-0.368,1.028-0.667,2.076-0.901,3.136c-0.051,0.241-0.057,0.476-0.013,0.717
		c0.038,0.235,0.127,0.457,0.254,0.66c0.133,0.209,0.298,0.381,0.495,0.514c0.197,0.14,0.413,0.235,0.654,0.292
		c0.235,0.051,0.47,0.057,0.711,0.013c0.235-0.038,0.457-0.127,0.66-0.254c0.209-0.133,0.381-0.298,0.521-0.495
		c0.14-0.197,0.235-0.413,0.286-0.654c0.203-0.921,0.463-1.828,0.781-2.717c0.317-0.889,0.692-1.758,1.117-2.603
		c0.425-0.844,0.908-1.657,1.435-2.438c0.527-0.781,1.105-1.53,1.727-2.241c0.628-0.711,1.295-1.378,2-2.006
		c0.711-0.622,1.454-1.206,2.235-1.739c0.781-0.527,1.593-1.009,2.431-1.441c0.844-0.432,1.708-0.806,2.596-1.13
		c0.889-0.317,1.797-0.584,2.717-0.787c0.921-0.209,1.854-0.356,2.793-0.444c0.946-0.089,1.885-0.121,2.831-0.095
		c0.946,0.032,1.885,0.121,2.819,0.267c0.933,0.152,1.854,0.356,2.762,0.622c0.908,0.26,1.797,0.578,2.66,0.959
		c0.87,0.375,1.708,0.8,2.52,1.282c0.819,0.482,1.593,1.016,2.343,1.593l-3.238,5.339c-0.495-0.413-1.009-0.794-1.549-1.149
		c-0.54-0.349-1.098-0.673-1.676-0.959s-1.168-0.54-1.778-0.755c-0.603-0.216-1.225-0.394-1.854-0.54
		c-0.628-0.14-1.257-0.248-1.898-0.317c-0.641-0.07-1.289-0.095-1.93-0.089c-0.648,0.006-1.289,0.051-1.924,0.133
		c-0.641,0.089-1.27,0.209-1.898,0.368c-0.622,0.152-1.238,0.349-1.841,0.584c-0.597,0.229-1.187,0.495-1.752,0.794
		c-0.571,0.298-1.124,0.635-1.657,0.997c-0.527,0.368-1.035,0.762-1.517,1.187c-0.489,0.425-0.946,0.882-1.371,1.359
		c-0.432,0.482-0.832,0.984-1.206,1.511c-0.368,0.527-0.705,1.073-1.009,1.644c-0.311,0.565-0.578,1.149-0.819,1.746
		c-0.083,0.229-0.121,0.457-0.114,0.698c0.006,0.241,0.057,0.47,0.159,0.686c0.095,0.222,0.229,0.413,0.406,0.578
		c0.171,0.165,0.368,0.292,0.59,0.381s0.457,0.127,0.692,0.127c0.241-0.006,0.47-0.051,0.692-0.146s0.413-0.229,0.584-0.4
		c0.171-0.165,0.298-0.362,0.387-0.584c0.19-0.476,0.406-0.94,0.654-1.39c0.241-0.451,0.514-0.882,0.806-1.301
		c0.298-0.419,0.622-0.813,0.965-1.193c0.349-0.381,0.711-0.736,1.105-1.067c0.387-0.336,0.794-0.648,1.219-0.927
		c0.425-0.286,0.87-0.546,1.327-0.774c0.457-0.229,0.921-0.432,1.403-0.609c0.482-0.171,0.971-0.317,1.473-0.432
		c0.502-0.114,1.003-0.197,1.511-0.254c0.514-0.051,1.022-0.076,1.536-0.063c0.508,0.006,1.022,0.044,1.53,0.114
		c0.502,0.07,1.003,0.171,1.498,0.305c0.495,0.127,0.984,0.292,1.46,0.482s0.94,0.406,1.384,0.654
		c0.451,0.241,0.882,0.514,1.301,0.813c0.413,0.298,0.813,0.622,1.187,0.971l-3.282,5.409c-0.051,0.089-0.057,0.184,0,0.273
		c0.051,0.089,0.127,0.133,0.229,0.133h4.71c0.368,0,0.654-0.152,0.851-0.463l51.434-79.144
		C130.87,25.575,124.002,21.144,121.272,25.791z"/>
	<path fill-rule="evenodd" clip-rule="evenodd" fill="#EF9B11" d="M89.778,103.342c-0.406-1.022-0.876-2.012-1.403-2.971
		c-0.121-0.203-0.273-0.381-0.463-0.527c-0.19-0.146-0.4-0.248-0.628-0.311c-0.235-0.063-0.463-0.083-0.705-0.051
		c-0.235,0.025-0.457,0.095-0.667,0.216c-0.209,0.114-0.387,0.267-0.54,0.451c-0.146,0.184-0.254,0.394-0.324,0.622
		s-0.095,0.457-0.07,0.698c0.025,0.235,0.089,0.463,0.197,0.673c0.463,0.825,0.87,1.676,1.213,2.552
		c0.444,1.105,0.794,2.235,1.054,3.396c0.057,0.235,0.152,0.451,0.292,0.648c0.14,0.203,0.311,0.362,0.514,0.495
		c0.203,0.127,0.425,0.216,0.667,0.254c0.241,0.044,0.476,0.038,0.711-0.013c0.241-0.057,0.457-0.152,0.654-0.292
		s0.362-0.311,0.489-0.514c0.133-0.209,0.216-0.432,0.26-0.667c0.038-0.241,0.032-0.482-0.019-0.717
		C90.705,105.939,90.292,104.625,89.778,103.342z"/>
	<path fill-rule="evenodd" clip-rule="evenodd" fill="#EF9B11" d="M145.472,100.847c-0.984,0-1.943,0.152-2.876,0.444
		c-0.933,0.298-1.803,0.73-2.603,1.295c-0.8,0.565-1.498,1.238-2.095,2.012c-0.59,0.781-1.054,1.632-1.384,2.558
		c-0.083,0.222-0.121,0.463-0.108,0.705c0.006,0.241,0.063,0.47,0.171,0.692c0.102,0.216,0.241,0.413,0.419,0.571
		c0.184,0.165,0.387,0.286,0.616,0.368c0.229,0.083,0.463,0.114,0.705,0.108c0.241-0.013,0.476-0.07,0.692-0.178
		c0.222-0.102,0.413-0.248,0.571-0.425c0.165-0.184,0.286-0.387,0.368-0.616c0.203-0.565,0.482-1.092,0.851-1.574
		c0.368-0.476,0.794-0.895,1.289-1.238c0.495-0.349,1.028-0.616,1.606-0.8c0.578-0.178,1.168-0.273,1.771-0.273
		s1.193,0.095,1.771,0.273c0.571,0.184,1.105,0.451,1.6,0.8c0.495,0.343,0.927,0.762,1.289,1.238
		c0.368,0.482,0.654,1.009,0.857,1.574c0.083,0.229,0.203,0.432,0.368,0.609c0.159,0.184,0.349,0.324,0.571,0.425
		c0.216,0.108,0.451,0.165,0.692,0.178s0.476-0.025,0.705-0.108s0.432-0.203,0.609-0.362c0.178-0.165,0.324-0.356,0.425-0.578
		c0.102-0.216,0.159-0.444,0.171-0.686s-0.019-0.476-0.102-0.705c-0.336-0.927-0.794-1.778-1.39-2.552
		c-0.597-0.781-1.295-1.454-2.095-2.019c-0.8-0.565-1.67-0.99-2.603-1.289c-0.933-0.298-1.885-0.444-2.869-0.451h0.008V100.847z"/>
	<path fill-rule="evenodd" clip-rule="evenodd" fill="#EF9B11" d="M155.369,83.358c-1.86-5.764-4.749-10.957-8.672-15.579
		c-0.159-0.184-0.343-0.33-0.559-0.438s-0.444-0.171-0.679-0.19c-0.241-0.019-0.476,0.006-0.705,0.083
		c-0.229,0.07-0.438,0.184-0.622,0.343c-0.184,0.159-0.33,0.343-0.444,0.552c-0.108,0.216-0.171,0.444-0.197,0.686
		c-0.019,0.235,0.006,0.47,0.083,0.705c0.07,0.229,0.184,0.438,0.336,0.622c3.073,3.612,5.46,7.631,7.167,12.055
		c-1.854-0.355-3.72-0.533-5.606-0.533c-0.476,0-0.959,0.013-1.422,0.038c-1.143-2.343-2.52-4.526-4.139-6.564
		c-0.146-0.19-0.33-0.349-0.54-0.463c-0.209-0.121-0.438-0.19-0.679-0.222c-0.241-0.025-0.476-0.006-0.711,0.057
		c-0.229,0.07-0.444,0.178-0.628,0.324c-0.19,0.152-0.349,0.33-0.463,0.546c-0.121,0.209-0.19,0.438-0.222,0.673
		c-0.025,0.241-0.006,0.482,0.057,0.711c0.07,0.235,0.178,0.444,0.324,0.635c1.181,1.492,2.216,3.073,3.117,4.742
		c-2.12,0.387-4.177,0.99-6.164,1.822c-0.286-0.482-0.59-0.946-0.908-1.403c-0.14-0.197-0.311-0.362-0.514-0.489
		c-0.203-0.133-0.425-0.216-0.66-0.26c-0.241-0.038-0.476-0.032-0.711,0.019c-0.235,0.051-0.451,0.146-0.648,0.279
		c-0.197,0.14-0.362,0.311-0.495,0.514c-0.127,0.203-0.216,0.419-0.26,0.66c-0.044,0.235-0.038,0.47,0.013,0.705
		c0.044,0.235,0.14,0.451,0.273,0.654c0.216,0.305,0.413,0.616,0.609,0.933c-2.006,1.13-3.866,2.476-5.567,4.031
		s-3.206,3.288-4.507,5.187c-1.308,1.904-2.381,3.93-3.225,6.075c-0.838,2.146-1.422,4.361-1.758,6.647
		c-0.032,0.241-0.013,0.476,0.044,0.705c0.063,0.235,0.165,0.444,0.311,0.635c0.146,0.19,0.324,0.349,0.527,0.47
		c0.209,0.121,0.432,0.203,0.673,0.235c0.235,0.032,0.47,0.019,0.705-0.038s0.444-0.159,0.635-0.305
		c0.197-0.14,0.355-0.317,0.476-0.521c0.127-0.203,0.209-0.425,0.241-0.667c0.229-1.562,0.59-3.092,1.086-4.596
		c0.502-1.498,1.13-2.939,1.885-4.323c0.762-1.39,1.632-2.698,2.622-3.93c0.997-1.232,2.089-2.362,3.282-3.396
		s2.469-1.955,3.828-2.762s2.781-1.486,4.26-2.038c1.479-0.552,2.996-0.965,4.552-1.251c1.555-0.279,3.123-0.419,4.704-0.419
		s3.149,0.14,4.698,0.419c1.555,0.286,3.073,0.698,4.558,1.251c1.479,0.552,2.895,1.232,4.253,2.038
		c1.365,0.806,2.641,1.727,3.834,2.762s2.285,2.165,3.276,3.396c0.99,1.232,1.866,2.539,2.622,3.93
		c0.762,1.384,1.384,2.825,1.885,4.323c0.502,1.505,0.863,3.034,1.086,4.596c0.063,0.451,0.267,0.825,0.609,1.124
		s0.743,0.444,1.2,0.444c0.083,0,0.171-0.006,0.254-0.019c0.241-0.032,0.463-0.114,0.673-0.235s0.387-0.279,0.533-0.476
		c0.146-0.19,0.248-0.406,0.311-0.641c0.057-0.235,0.07-0.47,0.038-0.711c-0.4-2.73-1.162-5.358-2.285-7.878
		c-1.124-2.52-2.558-4.85-4.317-6.977c-1.758-2.127-3.765-3.98-6.031-5.561C160.409,85.516,157.971,84.272,155.369,83.358z"/>
	<path fill-rule="evenodd" clip-rule="evenodd" fill="#EF9B11" d="M145.472,91.515c-1.136,0-2.266,0.102-3.384,0.292
		c-1.124,0.197-2.216,0.489-3.282,0.87c-1.073,0.381-2.101,0.851-3.092,1.409c-0.99,0.559-1.924,1.2-2.8,1.917
		c-0.882,0.717-1.695,1.505-2.438,2.362c-0.749,0.857-1.416,1.771-2,2.742c-0.59,0.978-1.092,1.987-1.511,3.047
		c-0.413,1.054-0.736,2.139-0.965,3.257c-0.044,0.235-0.051,0.47,0,0.711c0.044,0.235,0.133,0.457,0.267,0.654
		c0.133,0.203,0.305,0.375,0.502,0.508c0.203,0.133,0.419,0.229,0.66,0.273c0.121,0.025,0.241,0.038,0.362,0.038
		c0.432,0,0.819-0.14,1.155-0.413c0.336-0.279,0.546-0.628,0.635-1.054c0.184-0.908,0.444-1.79,0.781-2.654
		c0.343-0.863,0.749-1.695,1.225-2.482c0.482-0.794,1.022-1.543,1.632-2.241c0.609-0.705,1.27-1.346,1.987-1.93
		c0.717-0.59,1.479-1.111,2.292-1.562c0.806-0.457,1.644-0.844,2.52-1.155c0.87-0.311,1.765-0.546,2.679-0.705
		c0.908-0.159,1.828-0.235,2.755-0.235c0.927-0.006,1.847,0.076,2.762,0.229c0.914,0.159,1.809,0.394,2.679,0.705
		c0.876,0.311,1.714,0.692,2.52,1.149c0.813,0.451,1.574,0.971,2.292,1.555s1.384,1.225,1.993,1.93
		c0.609,0.698,1.149,1.441,1.632,2.235c0.482,0.794,0.889,1.619,1.232,2.482c0.336,0.863,0.603,1.746,0.787,2.654
		c0.057,0.235,0.152,0.444,0.286,0.641c0.14,0.19,0.311,0.356,0.508,0.482c0.203,0.127,0.419,0.209,0.654,0.254
		c0.229,0.044,0.463,0.044,0.698-0.006c0.229-0.044,0.444-0.14,0.641-0.267c0.197-0.133,0.368-0.298,0.502-0.495
		c0.133-0.197,0.222-0.406,0.273-0.641c0.051-0.229,0.057-0.463,0.013-0.698c-0.229-1.111-0.552-2.197-0.971-3.25
		c-0.413-1.054-0.914-2.063-1.505-3.034s-1.257-1.879-2-2.736c-0.749-0.857-1.562-1.644-2.438-2.362
		c-0.882-0.711-1.816-1.352-2.8-1.911c-0.99-0.552-2.019-1.022-3.085-1.403c-1.073-0.381-2.165-0.673-3.282-0.863
		c-1.117-0.197-2.241-0.298-3.377-0.298h0.006V91.515z"/>
	<path fill-rule="evenodd" clip-rule="evenodd" fill="#EF9B11" d="M150.937,43.306L137.606,59.57
		c-5.961-4.107-12.525-6.653-19.699-7.65c-0.241-0.025-0.476-0.013-0.705,0.051c-0.235,0.063-0.444,0.165-0.635,0.311
		s-0.349,0.324-0.47,0.533s-0.197,0.432-0.229,0.667c-0.032,0.241-0.019,0.476,0.038,0.711c0.063,0.229,0.165,0.444,0.311,0.635
		c0.14,0.197,0.317,0.349,0.527,0.476c0.203,0.121,0.425,0.203,0.667,0.235c6.444,0.889,12.367,3.155,17.763,6.786l-4.184,4.749
		c-2.908-1.854-6.006-3.257-9.313-4.222c-3.301-0.965-6.672-1.454-10.113-1.454c-0.241,0-0.476,0.044-0.698,0.14
		c-0.229,0.089-0.425,0.222-0.597,0.394c-0.171,0.171-0.298,0.368-0.394,0.59s-0.14,0.457-0.14,0.698s0.044,0.476,0.14,0.698
		c0.096,0.222,0.222,0.425,0.394,0.597c0.171,0.171,0.368,0.298,0.597,0.394c0.222,0.089,0.457,0.14,0.698,0.14
		c2.996-0.013,5.942,0.387,8.824,1.2c2.888,0.813,5.606,2.012,8.158,3.587l-4.215,4.787c-3.136-1.746-6.494-2.806-10.062-3.174
		c-3.574-0.375-7.072-0.025-10.506,1.035c-0.235,0.07-0.444,0.184-0.635,0.336c-0.19,0.152-0.343,0.336-0.463,0.552
		c-0.114,0.216-0.184,0.444-0.203,0.692c-0.025,0.241,0,0.482,0.07,0.717c0.076,0.229,0.19,0.444,0.349,0.628
		c0.152,0.19,0.343,0.336,0.559,0.451c0.222,0.114,0.451,0.178,0.692,0.197c0.248,0.019,0.482-0.013,0.717-0.089
		c2.819-0.87,5.701-1.181,8.64-0.927c2.946,0.248,5.733,1.047,8.361,2.387l-4.33,4.907c-1.701-0.667-3.466-1.035-5.301-1.111
		c-1.828-0.076-3.619,0.152-5.371,0.679c-0.235,0.063-0.444,0.178-0.635,0.33c-0.19,0.152-0.343,0.336-0.463,0.552
		c-0.114,0.209-0.184,0.438-0.209,0.679c-0.025,0.248-0.006,0.482,0.063,0.717c0.07,0.235,0.184,0.444,0.343,0.635
		c0.152,0.184,0.336,0.336,0.552,0.451c0.216,0.114,0.444,0.184,0.686,0.209c0.248,0.019,0.482-0.006,0.717-0.076
		c2.323-0.692,4.647-0.724,6.989-0.083l-7.612,8.621c-1.568-3.434-3.53-6.621-5.885-9.573c-0.514-0.648-1.054-1.282-1.6-1.898
		c-0.159-0.184-0.349-0.324-0.565-0.432c-0.222-0.108-0.451-0.165-0.692-0.178c-0.241-0.019-0.476,0.013-0.705,0.095
		c-0.235,0.076-0.438,0.197-0.616,0.362c-0.184,0.159-0.324,0.349-0.432,0.571c-0.108,0.216-0.165,0.444-0.178,0.686
		s0.019,0.482,0.102,0.711c0.076,0.229,0.197,0.432,0.362,0.609c0.502,0.571,0.997,1.155,1.473,1.752
		c2.514,3.149,4.539,6.59,6.069,10.316l-4.71,5.339c-0.965-3.111-2.33-6.031-4.095-8.761c-0.571-0.895-1.193-1.778-1.847-2.622
		c-0.152-0.19-0.33-0.336-0.54-0.457c-0.209-0.114-0.432-0.184-0.673-0.216c-0.235-0.025-0.47-0.006-0.705,0.057
		c-0.229,0.063-0.438,0.171-0.628,0.317c-0.19,0.146-0.343,0.324-0.463,0.533s-0.197,0.432-0.229,0.667
		c-0.032,0.241-0.019,0.476,0.044,0.705c0.063,0.235,0.165,0.444,0.311,0.635c0.59,0.755,1.149,1.549,1.663,2.355
		c2,3.104,3.428,6.463,4.272,10.062l-3.142,3.561c-0.076,0.083-0.089,0.178-0.044,0.286c0.051,0.102,0.133,0.159,0.248,0.152h6.456
		c0.298,0.006,0.546-0.102,0.749-0.317l56.284-59.928C161.774,44.976,154.873,38.723,150.937,43.306z"/>
	<path fill="#EF9B11" d="M169.79,122.32c0,0-6.84,29.75-27.45,42.97c-9,5.78-20.44,6.26-30.08,1.63
		c-12.1-5.82-28.68-18.53-29.15-44.6L169.79,122.32L169.79,122.32z"/>
</g>
</svg>
