<?xml version="1.0" encoding="utf-8"?>
<!-- Generator: Adobe Illustrator 24.3.0, SVG Export Plug-In . SVG Version: 6.00 Build 0)  -->
<svg version="1.1" id="Layer_3" xmlns="http://www.w3.org/2000/svg" xmlns:xlink="http://www.w3.org/1999/xlink" x="0px" y="0px"
	 viewBox="0 0 234.947 163.436" enable-background="new 0 0 234.947 163.436" xml:space="preserve">
<g>
	<path fill="#561B5E" d="M149.632,86.037C96.96,65.199,73.343,96.799,80.974,114.719c5.989,14.064,28.654,23.01,47.946-8.195
		C135.655,95.631,139.576,93.34,149.632,86.037z"/>
	<path fill="#561B5E" d="M0,52.8c77.353,4.65,88.342,57.49,68.513,75.289c-15.563,13.969-48.837,11.942-54.694-37.906
		C11.774,72.781,8.24,67.672,0,52.8z"/>
	<path fill="#561B5E" d="M86.582,135.274c3.419,1.314,7.059,2.002,10.741,2.002c9.628,0,23.857-4.452,36.971-25.66
		c5.173-8.368,7.851-10.299,15.796-16.033l16.624-12.065l-16.382-6.482c-12.647-5.003-24.626-7.539-35.605-7.539
		c-15.152,0-28.225,4.927-37.003,13.738c-6.387-11.829-17.224-21.464-31.449-28.368l22.245-22.245
		c8.234-8.234,19.403-12.861,31.048-12.861h12.279c0,13.513,10.955,24.468,24.468,24.468c13.513,0,24.468-10.955,24.468-24.468
		h12.28c11.645,0,22.813,4.626,31.048,12.861l30.836,30.836L204.286,94.12L191.25,81.085v82.351H81.382v-19.578
		C82.969,140.88,84.691,138.007,86.582,135.274z"/>
</g>
<g>
	<path fill="#F42F55" d="M60.491,163.436c1.851-48.713-25.884-77.415-26.218-77.742c-1.031-1.007-1.049-2.661-0.042-3.692
		c1.007-1.031,2.661-1.049,3.691-0.041c0.321,0.313,24.464,24.56,27.581,67.08c7.733-20.282,19.492-33.489,28.97-41.463
		c13.062-10.989,24.506-14.661,24.987-14.812c1.375-0.434,2.841,0.331,3.272,1.708c0.432,1.376-0.332,2.841-1.706,3.272
		c-0.506,0.163-41.475,13.802-54.57,65.69H60.491z"/>
	<path fill="#F42F55" d="M156.681,20.616c0,0.937-0.059,1.859-0.193,2.752c-1.339,10.085-9.981,17.864-20.423,17.864
		c-10.442,0-19.084-7.779-20.423-17.864c-0.134-0.892-0.193-1.815-0.193-2.752C115.448,9.237,124.686,0,136.065,0
		C147.444,0,156.681,9.237,156.681,20.616z"/>
</g>
</svg>
