<?xml version="1.0" encoding="utf-8"?>
<!-- Generator: Adobe Illustrator 24.3.0, SVG Export Plug-In . SVG Version: 6.00 Build 0)  -->
<svg version="1.1" id="Layer_1" xmlns="http://www.w3.org/2000/svg" xmlns:xlink="http://www.w3.org/1999/xlink" x="0px" y="0px"
	 viewBox="0 0 436.13 232.779" enable-background="new 0 0 436.13 232.779" xml:space="preserve">
<g>
	<linearGradient id="SVGID_1_" gradientUnits="userSpaceOnUse" x1="43.9304" y1="-26.2224" x2="389.6931" y2="204.2861">
		<stop  offset="0.0051" style="stop-color:#EF4136"/>
		<stop  offset="1" style="stop-color:#EE2A7B"/>
	</linearGradient>
	<path fill="url(#SVGID_1_)" d="M434.05,0.269c-8.74,6.84-18.97,13.99-30.72,20.78c-6.08,3.52-12.01,6.61-17.71,9.34l-46.107,0.21
		v-7.853c2.729-1.331,4.61-4.132,4.61-7.373c0-4.529-3.671-8.2-8.2-8.2s-8.2,3.671-8.2,8.2c0,3.406,2.077,6.326,5.032,7.565v7.692
		l-22.696,0.1h-0.004v-7.75c3.012-1.214,5.138-4.161,5.138-7.607c0-4.529-3.671-8.2-8.2-8.2c-4.529,0-8.2,3.671-8.2,8.2
		c0,3.199,1.833,5.968,4.504,7.319v8.067l-22.169,0.1v-7.88c3.01-1.21,5.13-4.16,5.13-7.61c0-4.53-3.67-8.2-8.2-8.2
		c-4.52,0-8.2,3.67-8.2,8.2c0,3.2,1.84,5.97,4.51,7.32v8.2h-0.55c-15.64,0.07-30.32,6.22-41.35,17.3
		c-5.47,5.49-9.72,11.88-12.62,18.83h-0.13c-8.61-17.88-21.65-33.21-38.11-44.69c-19.43-13.54-42.26-20.7-66.03-20.7
		c-15.6,0-30.74,3.05-44.99,9.08c-13.76,5.82-26.12,14.16-36.74,24.77c-10.61,10.61-18.94,22.97-24.77,36.74
		C3.06,86.469,0,101.599,0,117.209c0,15.6,3.06,30.73,9.08,44.99c5.83,13.76,14.16,26.12,24.77,36.73
		c10.62,10.62,22.98,18.95,36.74,24.77c14.25,6.03,29.39,9.08,44.99,9.08c15.6,0,30.74-3.05,44.99-9.08
		c13.76-5.82,26.12-14.15,36.73-24.77c10.62-10.61,18.95-22.97,24.77-36.73c4.09-9.68,6.82-19.77,8.14-30.13
		c9.65,10.02,23.19,16.26,38.17,16.26h76.34c22.41,0,40.65-18.24,40.65-40.66c0-22.41-18.24-40.65-40.65-40.65H241.63
		c1.31-1.87,2.79-3.65,4.43-5.3c7.43-7.46,17.32-11.6,27.84-11.65h0.47v9.01h6.76v-9.04l22.169-0.1v9.14h6.757v-9.17h0.004
		l22.696-0.1v9.27h6.757v-9.31l47.806-0.21c6.89,3.27,14.11,7.16,21.54,11.82c9.59,6.01,17.96,12.32,25.16,18.4
		c0.87,0.74,2.11,0.03,2.11-1.21V1.509C436.13,0.299,434.93-0.421,434.05,0.269z M216.63,159.889
		c-5.52,13.06-13.43,24.79-23.5,34.86c-10.08,10.08-21.81,17.99-34.86,23.51c-13.52,5.72-27.89,8.62-42.69,8.62
		c-14.81,0-29.17-2.9-42.69-8.62c-13.06-5.52-24.79-13.43-34.86-23.51c-10.07-10.07-17.98-21.8-23.5-34.86
		c-5.72-13.51-8.62-27.88-8.62-42.68c0-14.81,2.9-29.17,8.62-42.69c5.52-13.06,13.43-24.79,23.5-34.86s21.8-17.98,34.86-23.51
		c13.52-5.71,27.88-8.61,42.69-8.61c22.55,0,44.21,6.79,62.65,19.64c14.83,10.34,26.74,23.97,34.89,39.84h-18.19l1.08,2.41l1.83,4.1
		l2.64,5.91l1.59,3.55l1.44,3.21h-34.35c-2.89,3.79-7.46,6.24-12.59,6.24c-8.75,0-15.83-7.09-15.83-15.83s7.08-15.83,15.83-15.83
		c4.46,0,8.49,1.85,11.36,4.83l0.32,1.56h8.34c-0.01-0.05-0.02-0.1-0.04-0.15h18.38l-1.33-2.98
		c-23.86-34.52-69.49-51.46-113.66-34.35c-31.43,12.17-58.45,49.93-59.78,83.6c-2.85,72.03,69.76,121.5,136.55,90.73
		c28.61-13.17,48.6-40.13,52.84-71.33c1.78-13.13,1.01-25.6-1.79-37.12c-0.42-2.97-1.35-6.18-2.55-9.37h10.25
		c-0.06,1.13-0.09,2.27-0.09,3.41v5.7c0,11.28,3.54,21.76,9.56,30.36C224.04,137.489,221.25,148.969,216.63,159.889z M61.01,130.989
		l8.59-0.94c2.39,21.64,21.86,37.25,43.51,34.87l0.95,8.59C87.71,176.419,63.91,157.339,61.01,130.989z M113.25,192.189
		c-17.09,1.88-33.88-3-47.29-13.75c-13.42-10.75-21.84-26.08-23.72-43.17l7.16-0.78c1.67,15.17,9.15,28.78,21.06,38.33
		c11.91,9.54,26.83,13.88,42,12.21L113.25,192.189z M85.39,112.279c1.44-8.66,6.8-16.22,14.49-20.44
		c23.19-12.71,49.68,6.08,45.33,32.16c-1.44,8.66-6.81,16.22-14.5,20.44C107.53,157.149,81.04,138.359,85.39,112.279z
		 M344.72,86.199c11.84,0,21.47,9.63,21.47,21.47c0,11.84-9.63,21.48-21.47,21.48h-76.34c-18.66,0-33.83-15.18-33.83-33.84v-5.7
		c0-1.14,0.05-2.28,0.14-3.41H344.72z"/>
</g>
</svg>
