<?xml version="1.0" encoding="utf-8"?>
<!-- Generator: Adobe Illustrator 24.3.0, SVG Export Plug-In . SVG Version: 6.00 Build 0)  -->
<svg version="1.1" id="Layer_2" xmlns="http://www.w3.org/2000/svg" xmlns:xlink="http://www.w3.org/1999/xlink" x="0px" y="0px"
	 viewBox="0 0 286.31 247.858" enable-background="new 0 0 286.31 247.858" xml:space="preserve">
<g>
	<circle fill="#F19987" cx="143.155" cy="58.629" r="35.057"/>
	<path fill="#F19987" d="M185.706,115.58c-10.88-10.9-25.93-17.64-42.55-17.64c-33.25,0-60.19,26.95-60.19,60.19v24.7
		c0,0.36,0,0.7,0.01,1.06h120.35c0.02-0.36,0.02-0.7,0.02-1.06v-24.7C203.346,141.5,196.606,126.46,185.706,115.58z M120.766,148.78
		c-4.35,0-7.86-3.52-7.86-7.86s3.51-7.86,7.86-7.86c4.34,0,7.86,3.52,7.86,7.86S125.106,148.78,120.766,148.78z M143.156,148.78
		c-4.34,0-7.86-3.52-7.86-7.86s3.52-7.86,7.86-7.86c4.34,0,7.86,3.52,7.86,7.86S147.496,148.78,143.156,148.78z M165.546,148.78
		c-4.34,0-7.86-3.52-7.86-7.86s3.52-7.86,7.86-7.86c4.34,0,7.86,3.52,7.86,7.86S169.886,148.78,165.546,148.78z"/>
</g>
<g>
	<path fill="#C16B89" d="M176.077,0h-65.844C49.453,0,0,49.453,0,110.233c0,60.791,49.453,110.244,110.233,110.244h52.113
		l27.381,27.381v-24.918l3.857-3.857c52.497-8.411,92.726-54.018,92.726-108.85C286.31,49.453,236.868,0,176.077,0z
		 M176.077,211.183h-65.844c-55.656,0-100.939-45.283-100.939-100.951c0-55.656,45.283-100.939,100.939-100.939h65.844
		c55.656,0,100.939,45.283,100.939,100.939C277.016,165.901,231.733,211.183,176.077,211.183z"/>
</g>
</svg>
