<?xml version="1.0" encoding="utf-8"?>
<!-- Generator: Adobe Illustrator 24.3.0, SVG Export Plug-In . SVG Version: 6.00 Build 0)  -->
<svg version="1.1" id="Layer_1" xmlns="http://www.w3.org/2000/svg" xmlns:xlink="http://www.w3.org/1999/xlink" x="0px" y="0px"
	 viewBox="0 0 251.64 327" enable-background="new 0 0 251.64 327" xml:space="preserve">
<g>
	<path fill="#2D2D2D" d="M218.562,110.894c4.117,1.255,8.233,2.51,12.35,3.765c2.842,0.867,4.462,3.87,3.596,6.713
		c-2.116,6.953-3.775,14.717-8.357,17.305c-11.668,6.59-11.544,14.245-10.108,25.13c3.14,23.807-5.764,43.605-22.473,60.394
		c-14.421,14.49-13.895,14.329-1.595,29.999c2.844,3.624,3.98,10.829,2.35,14.997c-1.245,3.184-8.997,6.671-12.226,5.507
		c-3.996-1.441-8.133-7.191-9.024-11.707c-3.362-17.042-5.604-17.779-23.105-15.393c-14.925,2.035-30.535,2.37-45.44,0.404
		c-19.935-2.628-19.321-3.587-25.065,16.226c-1.347,4.645-8.164,9.343-13.285,10.557c-2.514,0.596-8.17-6.217-9.952-10.66
		c-1.003-2.502,2.256-7.669,4.842-10.494c12.756-13.934,12.944-14.393-0.663-27.549c-19.834-19.178-28.348-42.387-23.376-69.58
		c1.345-7.354-0.286-10.469-6.085-14.626c-5.678-4.07-10.442-10.257-13.691-16.511c-1.587-3.055-0.173-9.773,2.384-12.248
		c2.267-2.194,7.995-0.81,14.412-1.109c-12.574,11.854-11.319,15.753,6.169,26.398c8.686-5.863,9.019-12.545,2.519-20.656
		c-9.83-12.268-9.585-18.044,5.615-21.501c26.482-6.022,53.764-10.947,80.795-11.409c23.776-0.406,47.851,5.027,71.395,9.833
		c6.406,1.308,11.638,8.368,17.286,13.39c0.789,0.701,1.074,1.806,0.735,2.806L218.562,110.894z M75.058,223.161
		c33.502,22.915,78.442,21.31,107.026-2.374c22.603-18.727,29.713-56.334,15.416-78.183c-3.881-5.932-5.629-13.259-8.175-19.501
		c-30.51,2.1-62.724,4.318-97.451,6.708c5.38,1.443,8.379,2.809,11.446,2.979c18.979,1.055,37.995,1.537,56.945,2.943
		c4.43,0.329,11.627,2.774,12.285,5.511c1.054,4.389-0.958,10.918-4,14.643c-12.552,15.372-24.863,31.261-39.482,44.511
		c-9.535,8.642-22.648,13.588-34.642,19.149C89.157,221.99,82.686,221.839,75.058,223.161z M150.882,94.633
		c-20.444-9.138-86.202-1.958-91.766,7.44C88.617,99.682,120.953,97.06,150.882,94.633z M232.647,127.048
		c-0.897-1.705-1.793-3.411-2.69-5.116c-1.556-2.96-4.688-4.749-8.027-4.58c-5.201,0.263-10.528,0.385-13.559,3.084
		c-2.131,1.898-1.568,6.822-1.041,11.705c0.412,3.816,2.672,7.187,6.052,9.006l3.257,1.753
		C224.898,134.722,224.387,135.228,232.647,127.048z"/>
</g>
<g>
	<path fill="#C4C4C4" d="M131.875,0c-3.992,21.696,15.273,41.875,3.285,64.092C133.783,42.746,116.734,22.422,131.875,0z"/>
	<path fill="#C4C4C4" d="M110.951,17.926c-4.379,17.285,13.677,33.802,1.998,51.517C113.803,52.206,98.543,35.968,110.951,17.926z"
		/>
	<path fill="#C4C4C4" d="M159.294,69.018c1.142-17.054-12.842-33.546-1.47-53.204c0.067-0.115,0.247-0.079,0.264,0.053
		c2.223,17.18,4.206,32.513,6.165,47.65c0.377,2.914-1.825,5.524-4.761,5.644l-0.057,0.002
		C159.354,69.167,159.289,69.1,159.294,69.018z"/>
</g>
<g>
	<path fill="#591F0C" d="M185.682,253.284c-3.335-4.441-6.94-8.269-9.205-12.77c-0.82-1.629,0.81-5.965,2.608-7.21
		c18.807-13.035,37.781-25.838,57.02-38.222c1.864-1.2,6.128,0.241,8.693,1.578c1.897,0.989,2.724,3.896,4.234,5.785
		c4.149,5.192,3.401,8.804-2.632,12.15c-15.3,8.485-30.439,17.272-45.455,26.251c-3.774,2.257-6.826,5.712-10.238,8.584
		C189.536,250.415,188.28,251.299,185.682,253.284z"/>
	<path fill="#591F0C" d="M79.323,235.412c-5.988,7.752-8.994,12.107-12.594,15.899c-0.693,0.73-4.084-0.224-5.588-1.3
		c-4.923-3.522-9.224-7.991-14.355-11.131c-13.57-8.305-27.359-16.264-41.25-24.023c-5.618-3.138-7.303-6.292-3.46-12.159
		c6.919-10.566,8.017-11.398,15.055-6.714c17.97,11.963,35.816,24.114,53.81,36.041C73.194,233.52,76.041,234.119,79.323,235.412z"
		/>
</g>
<g>
	<path fill="#C9C9C9" d="M51.84,324.004c38.756-28,77.513-56,117.32-84.759c7.821,11.535,15.273,22.526,23.605,34.815
		c-43.223,27.811-85.009,56.978-139.615,52.479C52.713,325.693,52.276,324.848,51.84,324.004z M162.103,257.25
		c-0.663-0.85-1.327-1.701-1.99-2.551c-28.223,19.995-56.446,39.991-84.67,59.987c0.614,0.86,1.227,1.721,1.841,2.581
		C105.557,297.26,133.83,277.255,162.103,257.25z"/>
	<path fill="#C9C9C9" d="M113.291,274.695c-7.594,5.483-14.23,10.546-21.193,15.11c-1.777,1.164-5.153,1.782-6.833,0.873
		c-7.341-3.974-14.547-8.3-21.296-13.195c-1.779-1.29-3.263-6-2.307-7.557c6.187-10.072,13.087-19.706,20.386-30.412
		c13.376,9.479,26.239,18.594,39.442,27.949c-2.611,4.539-5.263,4.9-9.16,2.143c-6.457-4.569-13.179-8.765-20.806-11.61
		C98.47,263.324,105.415,268.653,113.291,274.695z"/>
	<path fill="#C9C9C9" d="M150.363,279.184c1.771-0.134,4.097-1.063,5.224-0.275c8.822,6.167,17.413,12.662,27.518,20.121
		c-19.397,2.806-35.822-1.443-53.114-7.691c5.647-3.176,10.298-6.041,15.201-8.374c1.221-0.581,3.496,0.157,4.877,0.978
		c4.301,2.556,8.407,5.442,13.302,7.198c-4.373-3.444-8.746-6.888-13.118-10.331C150.29,280.267,150.326,279.725,150.363,279.184z"
		/>
</g>
<g>
	<path fill="#0A7139" d="M40.515,294.938c-3.966-16.099-18.673-18.625-30.874-26.756c5.943,13.279,24.841,12.263,26.662,27.525
		c-19.201,1.707-36.227-18.624-31.099-34.892c9.244,3.528,18.588,6.956,27.824,10.654C43.681,275.734,46.642,284.013,40.515,294.938
		z"/>
	<path fill="#0A7139" d="M245.519,260.237c6.027,16.426-10.15,35.739-30.589,35.872c2.033-15.222,19.447-14.79,26.944-27.33
		c-13.165,7.323-26.817,10.343-31.01,25.912c-5.517-9.119-3.646-17.685,4.65-21.735c5.264-2.57,11.186-3.756,16.628-6.009
		C236.739,265.045,241.071,262.501,245.519,260.237z"/>
</g>
</svg>
