<?xml version="1.0" encoding="utf-8"?>
<!-- Generator: Adobe Illustrator 24.3.0, SVG Export Plug-In . SVG Version: 6.00 Build 0)  -->
<svg version="1.1" id="Layer_4" xmlns="http://www.w3.org/2000/svg" xmlns:xlink="http://www.w3.org/1999/xlink" x="0px" y="0px"
	 viewBox="0 0 232.443 220.675" enable-background="new 0 0 232.443 220.675" xml:space="preserve">
<g>
	<path fill="#5271FF" d="M181.297,173.602v-9.692c0-2.237-1.807-4.036-4.052-4.036h-9.733c-1.207,0-2.342-0.559-3.08-1.483
		l-4.538-5.697c-0.762-0.972-1.062-2.196-1.062-3.436v-0.024v-23.931c0-1.248,0.575-2.399,1.548-3.161l10.3-7.869
		c1.71-1.297,3.793-2.01,5.94-1.985h17.237c2.245,0,4.052-1.799,4.052-4.036V91.913c0-2.245-1.807-4.044-4.052-4.044H177.48
		c-2.245,0-4.052,1.799-4.052,4.044c0,0,0.024,5.884,0.049,10.77c0.024,4.133-1.896,8.007-5.162,10.527l-8.258,6.321
		c-1.272,0.972-3.631,1.759-5.227,1.759h-23.964c-2.245,0-4.052,1.799-4.052,4.036v23.907c0,2.237,1.807,4.036,4.052,4.036h23.964
		c0.113,0,0.235,0,0.348-0.024c1.621-0.138,3.217,0.575,4.214,1.848l3.793,4.781c0.648,0.827,0.762,1.913,0.462,2.926
		c-0.097,0.348-0.162,0.713-0.162,1.086v9.692c0,2.237,1.799,4.036,4.044,4.036h9.717
		C179.489,177.637,181.297,175.838,181.297,173.602z"/>
	<path fill="#5271FF" d="M191.961,137.279c0,1.013-0.194,1.994-0.583,2.934c-0.389,0.932-0.948,1.767-1.669,2.48
		c-0.721,0.721-1.548,1.272-2.488,1.661c-0.94,0.389-1.921,0.583-2.942,0.583c-1.013,0-1.994-0.195-2.934-0.583
		c-0.948-0.389-1.775-0.94-2.496-1.661c-0.721-0.713-1.272-1.548-1.661-2.48c-0.397-0.94-0.592-1.921-0.592-2.934
		c0-1.021,0.195-1.994,0.592-2.934c0.389-0.94,0.94-1.767,1.661-2.488c0.721-0.713,1.548-1.272,2.496-1.661
		c0.94-0.389,1.921-0.583,2.934-0.583c1.021,0,2.002,0.195,2.942,0.583c0.94,0.389,1.767,0.948,2.488,1.661
		c0.721,0.721,1.28,1.548,1.669,2.488C191.767,135.286,191.961,136.258,191.961,137.279z"/>
</g>
<g>
	<path fill="#38B6FF" d="M178.29,45.226h-9.717c-2.245,0-4.052,1.799-4.052,4.036v9.717c0,1.199-0.551,2.334-1.475,3.071
		l-5.721,4.522c-0.964,0.762-2.196,1.062-3.444,1.062h-0.024h-23.988c-1.248,0-2.407-0.575-3.169-1.548l-7.893-10.268
		c-1.297-1.71-2.01-3.785-1.985-5.932V32.697c0-2.237-1.807-4.036-4.052-4.036H96.391c-2.245,0-4.044,1.799-4.044,4.036v16.338
		c0,2.237,1.799,4.036,4.044,4.036c0,0,5.9-0.024,10.803-0.041c4.141-0.024,8.031,1.888,10.551,5.146l6.337,8.234
		c0.972,1.272,1.759,3.622,1.759,5.219V95.56c0,2.237,1.807,4.036,4.052,4.036h23.964c2.245,0,4.052-1.799,4.052-4.036V71.629
		c0-0.122,0-0.235-0.024-0.348c-0.138-1.613,0.575-3.209,1.848-4.198l4.789-3.785c0.835-0.648,1.921-0.762,2.942-0.462
		c0.348,0.089,0.713,0.162,1.086,0.162h9.717c2.245,0,4.052-1.799,4.052-4.044v-9.692C182.334,47.025,180.535,45.226,178.29,45.226z
		"/>
	<path fill="#38B6FF" d="M149.553,42.252c0,1.013-0.195,1.994-0.583,2.934c-0.389,0.932-0.94,1.767-1.661,2.48
		c-0.721,0.721-1.556,1.272-2.496,1.661c-0.94,0.389-1.921,0.583-2.934,0.583c-1.021,0-2.002-0.194-2.942-0.583
		c-0.94-0.389-1.775-0.94-2.496-1.661c-0.721-0.713-1.272-1.548-1.661-2.48c-0.389-0.94-0.583-1.921-0.583-2.934
		c0-1.021,0.194-1.994,0.583-2.934c0.389-0.94,0.94-1.767,1.661-2.488c0.721-0.713,1.556-1.272,2.496-1.661
		c0.94-0.389,1.921-0.583,2.942-0.583c1.013,0,1.994,0.194,2.934,0.583c0.94,0.389,1.775,0.948,2.496,1.661
		c0.721,0.721,1.272,1.548,1.661,2.488S149.553,41.231,149.553,42.252z"/>
</g>
<g>
	<path fill="#6063AC" d="M51.422,175.449h9.717c2.237,0,4.044-1.807,4.044-4.044v-9.717c0-1.199,0.559-2.326,1.483-3.063
		l5.713-4.522c0.972-0.762,2.196-1.062,3.444-1.062h0.024h23.988c1.256,0,2.407,0.575,3.177,1.54l7.885,10.276
		c1.297,1.702,2.01,3.785,1.994,5.924v17.197c0,2.237,1.799,4.036,4.044,4.036h16.378c2.245,0,4.052-1.799,4.052-4.036V171.64
		c0-2.237-1.807-4.044-4.052-4.044c0,0-5.9,0.024-10.803,0.049c-4.141,0.024-8.023-1.888-10.551-5.146l-6.337-8.234
		c-0.972-1.272-1.759-3.622-1.759-5.219V125.14c0-2.237-1.799-4.036-4.044-4.036H75.847c-2.245,0-4.044,1.799-4.044,4.036v23.907
		c0,0.113,0,0.235,0.016,0.348c0.146,1.613-0.575,3.209-1.848,4.198l-4.789,3.785c-0.835,0.648-1.921,0.762-2.934,0.462
		c-0.348-0.089-0.721-0.162-1.094-0.162h-9.717c-2.237,0-4.044,1.799-4.044,4.036v9.692
		C47.37,173.642,49.201,175.449,51.422,175.449z"/>
	<path fill="#6063AC" d="M95.516,178.424c0,1.013-0.194,1.994-0.583,2.934c-0.397,0.94-0.948,1.767-1.669,2.48
		c-0.721,0.721-1.548,1.272-2.488,1.661c-0.948,0.389-1.921,0.583-2.942,0.583s-2.002-0.195-2.942-0.583
		c-0.94-0.389-1.767-0.94-2.488-1.661c-0.721-0.713-1.28-1.54-1.669-2.48c-0.389-0.94-0.583-1.921-0.583-2.934
		c0-1.013,0.194-1.994,0.583-2.934c0.389-0.94,0.948-1.767,1.669-2.488c0.721-0.713,1.548-1.272,2.488-1.653
		c0.94-0.389,1.921-0.583,2.942-0.583s1.994,0.195,2.942,0.583c0.94,0.381,1.767,0.94,2.488,1.653
		c0.721,0.721,1.272,1.548,1.669,2.488C95.321,176.43,95.516,177.411,95.516,178.424z"/>
	<path fill="#6366A5" d="M51.138,47.049v9.692c0,2.237,1.807,4.036,4.052,4.036h9.741c1.199,0,2.334,0.559,3.071,1.483l4.538,5.697
		c0.762,0.972,1.062,2.188,1.062,3.436v0.024v23.931c0,1.248-0.575,2.399-1.548,3.161l-10.292,7.869
		c-1.718,1.289-3.801,2.01-5.948,1.985H38.577c-2.245,0-4.044,1.799-4.044,4.036v16.338c0,2.237,1.799,4.044,4.044,4.044h16.354
		c2.245,0,4.052-1.807,4.052-4.044c0,0-0.024-5.884-0.049-10.778c-0.024-4.125,1.896-8.007,5.162-10.519l8.258-6.321
		c1.272-0.972,3.631-1.759,5.227-1.759h23.996c2.245,0,4.044-1.799,4.044-4.036V71.418c0-2.237-1.799-4.036-4.044-4.036H77.606
		c-0.113,0-0.227,0-0.348,0.024c-1.621,0.138-3.217-0.583-4.206-1.848l-3.793-4.781c-0.648-0.827-0.77-1.913-0.47-2.926
		c0.097-0.348,0.162-0.721,0.162-1.086v-9.692c0-2.237-1.799-4.036-4.044-4.036H55.19C52.945,43.014,51.138,44.837,51.138,47.049z"
		/>
	<path fill="#6366A5" d="M55.838,83.372c0,1.013-0.194,1.994-0.583,2.934c-0.389,0.94-0.948,1.767-1.669,2.488
		c-0.721,0.713-1.548,1.264-2.488,1.653s-1.921,0.583-2.942,0.583s-2.002-0.194-2.942-0.583c-0.94-0.389-1.767-0.94-2.488-1.653
		c-0.721-0.721-1.272-1.548-1.669-2.488c-0.389-0.94-0.583-1.921-0.583-2.934s0.194-1.994,0.583-2.934
		c0.397-0.94,0.948-1.767,1.669-2.48c0.721-0.721,1.548-1.272,2.488-1.661c0.94-0.389,1.921-0.583,2.942-0.583
		s2.002,0.194,2.942,0.583s1.767,0.94,2.488,1.661c0.721,0.713,1.28,1.54,1.669,2.48C55.644,81.378,55.838,82.359,55.838,83.372z"/>
	<path fill="#6366A5" d="M110.393,217.216c0,1.953-1.62,3.52-3.572,3.458C47.597,218.782,0,170.014,0,110.338
		C0,50.662,47.597,1.894,106.821,0.002c1.952-0.062,3.572,1.505,3.572,3.458v0c0,1.862-1.477,3.385-3.338,3.445
		C51.531,8.673,6.907,54.392,6.907,110.338s44.625,101.665,100.148,103.433C108.915,213.83,110.393,215.354,110.393,217.216
		L110.393,217.216z"/>
	<path fill="#6366A5" d="M122.05,217.216c0,1.953,1.62,3.52,3.572,3.458c59.224-1.892,106.821-50.66,106.821-110.336
		c0-59.676-47.597-108.444-106.821-110.336c-1.952-0.062-3.572,1.505-3.572,3.458v0c0,1.862,1.477,3.385,3.338,3.445
		c55.524,1.768,100.148,47.488,100.148,103.433s-44.625,101.665-100.148,103.433C123.527,213.83,122.05,215.354,122.05,217.216
		L122.05,217.216z"/>
</g>
</svg>
