<?xml version="1.0" encoding="utf-8"?>
<!-- Generator: Adobe Illustrator 24.3.0, SVG Export Plug-In . SVG Version: 6.00 Build 0)  -->
<svg version="1.1" id="Layer_14" xmlns="http://www.w3.org/2000/svg" xmlns:xlink="http://www.w3.org/1999/xlink" x="0px" y="0px"
	 viewBox="0 0 340.312 263.021" enable-background="new 0 0 340.312 263.021" xml:space="preserve">
<g>
	<path fill="#22C7B8" d="M219.244,90.32h-46.54V0h-82.39v90.32H0.004v82.39h90.31v90.31h82.39v-90.31h0.2
		c3.65-3.47,7.32-7.12,10.92-10.93C204.924,139.57,223.464,112.85,219.244,90.32z M168.884,144.04h-24.85v24.85h-25.05v-24.85
		h-24.85v-25.06h24.85V94.13h25.05v24.85h24.85V144.04z"/>
	<path fill="#22C7B8" d="M239.242,0.506c40.864,112.443-61.76,188.659-61.76,188.659c93.62-34.88,72.11-82.709,162.829-142.919
		c-22.758,4.463-49.912,12.369-63.594,21.981C272.456,42.682,260.079,21.901,239.242,0.506z"/>
</g>
<g>
	
		<ellipse transform="matrix(0.8887 -0.4584 0.4584 0.8887 20.9577 138.6681)" fill="#5A7172" cx="296.157" cy="26.158" rx="20.267" ry="20.267"/>
	<path fill="#5A7172" d="M324.922,68.927c-65.865,45.766-47.926,84.699-139.647,125.166
		C279.528,176.072,256.333,163.439,324.922,68.927z"/>
	<path fill="#5A7172" d="M131.511,214.106l-3.279-2.31c-3.373-2.377-82.697-58.774-90.172-107.451
		c-1.849-12.038,0.731-22.748,7.668-31.832C56.789,58.028,69.742,50.52,84.226,50.197c21.1-0.489,39.261,14.71,47.284,22.651
		c7.9-7.821,25.622-22.662,46.322-22.662c0.32,0,0.639,0.003,0.961,0.011c14.484,0.323,27.438,7.831,38.499,22.316
		c6.938,9.083,9.517,19.793,7.669,31.832c-7.475,48.676-86.798,105.073-90.171,107.45L131.511,214.106z M85.189,61.571
		c-0.25,0-0.497,0.002-0.748,0.009c-10.838,0.256-20.819,6.259-29.665,17.842c-5.055,6.62-6.842,14.205-5.464,23.189
		c5.938,38.704,67.228,86.361,82.199,97.484c14.97-11.123,76.261-58.779,82.198-97.484c1.379-8.984-0.409-16.569-5.464-23.189
		c-8.857-11.598-18.852-17.601-29.706-17.844c-0.237-0.005-0.477-0.007-0.714-0.007c-22.238,0-41.752,23.01-41.949,23.245
		l-4.366,5.216l-4.366-5.216C126.952,84.587,107.332,61.571,85.189,61.571z"/>
</g>
</svg>
