<?xml version="1.0" encoding="utf-8"?>
<!-- Generator: Adobe Illustrator 24.3.0, SVG Export Plug-In . SVG Version: 6.00 Build 0)  -->
<svg version="1.1" id="Layer_6" xmlns="http://www.w3.org/2000/svg" xmlns:xlink="http://www.w3.org/1999/xlink" x="0px" y="0px"
	 viewBox="0 0 150.462 284.424" enable-background="new 0 0 150.462 284.424" xml:space="preserve">
<g>
	<path id="XMLID_1_" fill="#BF8B16" d="M38.946,197.062c0,0,37.708,23.065,76.594-0.884l-40.374,85.896
		c0,0-11.259,3.446-14.441-6.548C57.543,265.532,38.946,197.062,38.946,197.062z"/>
</g>
<g>
	<path fill="#1CF7DD" d="M59.864,0.002c-30.75,0-55.67,24.92-55.67,55.67s24.92,55.68,55.67,55.68s55.68-24.93,55.68-55.68
		S90.614,0.002,59.864,0.002z M53.984,17.272c-1.35,0.61-3.23,1.6-5.48,2.78c-2.24,1.19-4.77,2.72-7.42,4.44
		c-2.63,1.74-5.35,3.72-7.89,5.91c-5.13,4.33-9.33,9.65-11.53,14.18c-0.56,1.13-1.01,2.19-1.39,3.15c-0.38,0.95-0.62,1.82-0.87,2.52
		c-0.33,1.26-0.53,2.05-0.58,2.22c0.02-0.18,0.11-1,0.28-2.29c0.17-0.73,0.32-1.63,0.59-2.64c0.28-1.01,0.62-2.14,1.14-3.33
		c0.49-1.19,1.09-2.47,1.83-3.76c0.71-1.3,1.56-2.62,2.54-3.91c0.96-1.3,2.04-2.58,3.21-3.82c1.18-1.22,2.42-2.42,3.73-3.54
		c2.62-2.23,5.43-4.24,8.18-5.89c2.76-1.67,5.45-2.99,7.78-4.06c2.33-1.06,4.36-1.76,5.76-2.26c1.42-0.47,2.25-0.68,2.25-0.68
		S55.334,16.652,53.984,17.272z"/>
</g>
<g>
	<circle id="XMLID_1109_" fill="#FF223D" cx="90.704" cy="136.294" r="55.676"/>
</g>
<g>
	<circle id="XMLID_36_" fill="#8007AD" cx="115.54" cy="80.618" r="34.922"/>
</g>
<g>
	<path id="XMLID_548_" d="M75.567,284.424c-0.178,0-0.357-0.005-0.538-0.015c-3.696-0.206-6.79-2.491-8.074-5.963l-33.988-91.86
		l3.042-1.125l33.988,91.86c0.991,2.68,3.342,3.745,5.212,3.85c1.858,0.096,4.326-0.693,5.609-3.247l39.898-79.388
		c0.211-0.42-0.017-0.704-0.171-0.836c-0.18-0.154-0.466-0.286-0.812-0.038c-10.545,7.561-32.9,18.69-64.137,8.278
		c-10.412-3.471-11.988-4.64-11.701-6.612c0.352-2.42,3.439-2.52,14.921-2.892c22.87-0.74,70.458-2.279,79.537-29.84
		c9.769-29.658-0.661-47.745-7.748-55.888c-6.029-6.927-11.833-9.278-13.125-9.037c-1.2,0.218-2.754,4.026-4.003,7.087
		c-3.184,7.799-7.999,19.584-20.901,17.238c-4.338-0.789-7.689-1.78-10.382-2.575c-8.472-2.505-11.324-3.346-25.072,7.651
		c-5.86,4.689-12.77,6.008-19.14,5.266c-1.162,12.42-9.522,27.787-20.73,32.271c-7.116,2.847-11.316,3.157-14.046,1.039
		c-4.767-3.697-3.476-13.646-0.904-33.466c0.271-2.088,0.556-4.282,0.847-6.581c1.04-8.189,0.319-17.529-0.445-27.416
		C0.382,72.122-2.508,34.706,46.161,8.915l0.261-0.11c1.318-0.426,32.57-10.26,58.916,4.92
		c15.822,9.117,26.344,25.325,31.276,48.173c3.63,16.818-1.204,26.363-8.027,31.778c1.537,2.804,2.479,5.642,2.656,8.463
		l-3.237,0.202c-0.134-2.139-0.861-4.419-2.121-6.784c-1.825,1.114-3.725,1.989-5.593,2.678c-0.372,0.137-0.749,0.269-1.131,0.396
		c3.561,0.849,8.972,4.298,13.892,9.95c7.539,8.662,18.653,27.849,8.381,59.031c-9.788,29.715-58.907,31.303-82.512,32.067
		c-3.638,0.118-7.358,0.238-9.77,0.459c1.442,0.614,3.759,1.488,7.472,2.725c29.87,9.958,51.179-0.636,61.221-7.837
		c1.485-1.065,3.419-0.981,4.809,0.208c1.403,1.199,1.789,3.111,0.962,4.758L83.717,279.38
		C82.136,282.527,79.046,284.424,75.567,284.424z M47.547,11.851C0.898,36.642,3.574,71.33,5.938,101.937
		c0.777,10.058,1.511,19.557,0.429,28.075c-0.293,2.302-0.577,4.498-0.849,6.589c-2.182,16.817-3.624,27.927-0.325,30.486
		c1.634,1.267,5.184,0.78,10.853-1.487c10.086-4.034,17.794-18.519,18.741-29.812c-3.569-0.818-6.864-2.257-9.577-4.063
		c-4.155-2.766-6.194-5.966-5.452-8.56c0.449-1.569,2.047-3.472,7.112-3.626c5.565-0.175,9.541,3.198,10.8,9.241
		c0.281,1.352,0.428,2.801,0.447,4.321c5.655,0.712,11.795-0.413,16.978-4.559c14.34-11.475,18.397-11.074,28.017-8.229
		c2.755,0.814,5.877,1.737,10.043,2.495c10.328,1.878,14.201-7.633,17.318-15.272c1.327-3.25,2.463-6.034,3.991-7.643
		c-4.052,0.856-8.482,1.25-13.128,1.25c-31.191,0.002-72.496-17.687-79.995-31.636c-2.354-4.378-1.481-8.383,2.455-11.276
		c15.683-11.52,45.878-4.091,66.974,5.772c13.447,6.288,28.75,16.221,36.102,26.903c7.156-5.879,9.367-15.367,6.57-28.323
		c-4.727-21.903-14.721-37.391-29.704-46.034C79.485,2.556,49.75,11.181,47.547,11.851z M27.281,122.775
		c-0.103,0-0.207,0.002-0.312,0.005c-2.968,0.09-3.969,0.844-4.092,1.276c-0.222,0.774,0.914,2.828,4.13,4.969
		c2.246,1.495,4.939,2.708,7.856,3.455c-0.047-1.064-0.168-2.082-0.367-3.039C33.574,125.016,31.148,122.775,27.281,122.775z
		 M45.297,55.676c-7.783,0-14.639,1.539-19.578,5.168c-2.617,1.923-3.1,4.187-1.519,7.126c8.533,15.874,66.881,37.567,94.971,27.222
		c1.839-0.678,3.516-1.477,5.029-2.396c-5.991-8.74-18.591-18.276-34.802-25.855C75.452,60.419,58.952,55.676,45.297,55.676z"/>
	<path id="XMLID_1171_" d="M51.103,235.5l-0.001-0.003c-0.203-0.544,0.067-1.139,0.604-1.363
		c8.847-3.688,19.137-12.934,21.984-15.585c0.426-0.397,1.091-0.382,1.496,0.036l0.004,0.004c0.417,0.429,0.407,1.111-0.03,1.519
		c-2.928,2.742-13.367,12.153-22.661,16.014C51.946,236.352,51.313,236.061,51.103,235.5z"/>
	<path id="XMLID_1173_" d="M60.02,241.934l-0.001-0.003c-0.203-0.544,0.067-1.139,0.604-1.363
		c8.847-3.688,19.137-12.934,21.984-15.585c0.426-0.397,1.091-0.382,1.496,0.036l0.004,0.004c0.417,0.429,0.407,1.111-0.03,1.519
		c-2.928,2.742-13.367,12.153-22.661,16.014C60.862,242.786,60.229,242.495,60.02,241.934z"/>
	<path id="XMLID_1177_" d="M70.143,249.239l-0.001-0.003c-0.203-0.544,0.067-1.139,0.604-1.363
		c8.847-3.688,19.137-12.934,21.984-15.585c0.426-0.397,1.091-0.382,1.496,0.036l0.004,0.004c0.417,0.429,0.407,1.111-0.03,1.519
		c-2.928,2.742-13.367,12.153-22.661,16.014C70.986,250.092,70.353,249.801,70.143,249.239z"/>
	<path id="XMLID_1175_" d="M79.06,255.674l-0.001-0.003c-0.203-0.544,0.067-1.139,0.604-1.363
		c8.846-3.688,19.137-12.934,21.984-15.585c0.426-0.397,1.091-0.382,1.496,0.036l0.004,0.004c0.417,0.429,0.407,1.111-0.03,1.519
		c-2.928,2.742-13.367,12.154-22.661,16.014C79.902,256.526,79.27,256.235,79.06,255.674z"/>
	<path id="XMLID_1185_" d="M80.898,212.503l0.003-0.001c0.544-0.203,1.139,0.067,1.363,0.604
		c3.688,8.846,12.934,19.137,15.585,21.984c0.397,0.426,0.382,1.091-0.036,1.496l-0.004,0.004c-0.429,0.417-1.111,0.407-1.519-0.03
		c-2.742-2.928-12.153-13.367-16.014-22.661C80.046,213.345,80.337,212.713,80.898,212.503z"/>
	<path id="XMLID_1183_" d="M74.463,221.419l0.003-0.001c0.544-0.203,1.139,0.067,1.363,0.604
		c3.688,8.846,12.934,19.137,15.585,21.984c0.397,0.426,0.382,1.091-0.036,1.496l-0.004,0.004c-0.429,0.417-1.111,0.407-1.519-0.03
		c-2.742-2.928-12.153-13.367-16.014-22.661C73.611,222.262,73.902,221.629,74.463,221.419z"/>
	<path id="XMLID_1181_" d="M67.158,231.543l0.003-0.001c0.544-0.203,1.139,0.067,1.363,0.604
		c3.688,8.847,12.934,19.137,15.585,21.984c0.397,0.426,0.382,1.091-0.036,1.496l-0.004,0.004c-0.429,0.417-1.111,0.407-1.519-0.03
		c-2.742-2.928-12.153-13.367-16.014-22.662C66.306,232.385,66.597,231.753,67.158,231.543z"/>
	<path id="XMLID_1179_" d="M60.724,240.459l0.003-0.001c0.544-0.203,1.139,0.067,1.363,0.604
		c3.688,8.847,12.934,19.137,15.585,21.984c0.397,0.426,0.382,1.091-0.036,1.496l-0.004,0.004c-0.429,0.417-1.111,0.407-1.519-0.03
		c-2.742-2.928-12.153-13.367-16.014-22.661C59.871,241.302,60.162,240.669,60.724,240.459z"/>
</g>
</svg>
