<?xml version="1.0" encoding="utf-8"?>
<!-- Generator: Adobe Illustrator 24.3.0, SVG Export Plug-In . SVG Version: 6.00 Build 0)  -->
<svg version="1.1" id="Layer_3" xmlns="http://www.w3.org/2000/svg" xmlns:xlink="http://www.w3.org/1999/xlink" x="0px" y="0px"
	 viewBox="0 0 316.857 157.8" enable-background="new 0 0 316.857 157.8" xml:space="preserve">
<g>
	<path fill="#383432" d="M139.225,25.902c-4.476-6.976-2.09-11.704,0.329-15.953c4.422-7.768,13.936-11.407,22.928-9.409
		c8.448,1.878,15.588,9.549,16.279,18.74c0.602,8.007,0.722,16.145-0.06,24.115c-0.335,3.411-3.178,6.803-5.503,9.705
		c-1.355,1.692-3.944,2.392-5.972,3.549c-3.826,2.182-8.846,4.204-6.758,9.665c1.134,2.966,4.419,5.962,7.45,7.217
		c24.64,10.208,49.434,20.045,74.211,29.919c20.687,8.244,41.414,16.388,62.126,24.57c10.133,4.003,13.829,9.387,12.253,17.885
		c-1.427,7.691-7.048,11.584-17.653,11.549c-60.248-0.196-120.495-0.679-180.743-0.694c-34.012-0.008-68.023,0.759-102.035,1.038
		C6.69,157.876,1.644,154.236,0.36,147.21c-1.517-8.302,1.697-13.621,10.706-17.34c43.793-18.077,87.58-36.168,131.427-54.114
		c6.818-2.79,12.925-5.111,13.582-14.359c0.231-3.251,4.866-7.307,8.434-8.976c8.092-3.786,11.064-9.394,9.941-17.993
		c-0.569-4.354-0.123-8.83-0.473-13.224c-0.775-9.737-6.56-15.544-15.686-16.048c-8.409-0.465-14.852,4.939-16.818,13.999
		C141.116,20.803,140.414,22.377,139.225,25.902z M156.034,151.514c10.058,0.013,20.111,0.106,30.197,0.103
		c16.564-0.005,33.128-0.01,49.692-0.007c16.564,0.004,33.128,0.017,49.692,0.051c4.803,0.01,9.607,0.021,14.411,0.035
		c5.849,0.016,10.673-1.331,11.82-7.473c1.109-5.94-3.265-8.748-8.158-10.688c-46.872-18.592-93.709-37.276-140.681-55.613
		c-3.383-1.321-8.189-1.248-11.589,0.082c-23.844,9.331-47.494,19.157-71.202,28.837c-22.735,9.283-45.462,18.586-68.199,27.864
		c-5.042,2.057-8.737,5.33-7.281,11.17c1.369,5.487,5.582,7.812,11.268,7.283c1.029-0.096,2.074-0.007,3.112-0.027
		c16.262-0.32,32.526-0.532,48.79-0.71c16.174-0.177,32.348-0.321,48.521-0.514c7.008-0.083,14.015-0.176,21.023-0.283
		C143.652,151.529,149.844,151.506,156.034,151.514z"/>
	<path fill="#383432" d="M152.93,72.302c0,0-26.592-15.541-34.535-14.159c0,0-3.108,27.283,0,34.19
		C118.395,92.332,149.131,79.554,152.93,72.302z"/>
	<path fill="#383432" d="M163.981,72.302c0,0,26.592-15.541,34.535-14.159c0,0,3.108,27.283,0,34.19
		C198.516,92.332,167.78,79.554,163.981,72.302z"/>
</g>
<g>
	<path fill="#AFAFAF" d="M162.201,100.272c-0.01,2.038-1.714,3.746-3.753,3.761c-2.056,0.016-3.801-1.728-3.794-3.791
		c0.007-2.06,1.762-3.783,3.824-3.755C160.516,96.515,162.211,98.238,162.201,100.272z"/>
	<path fill="#AFAFAF" d="M158.462,142.24c-2.113,0.011-3.804-1.653-3.806-3.744c-0.002-2.055,1.67-3.727,3.739-3.74
		c2.108-0.014,3.81,1.66,3.806,3.743C162.199,140.56,160.53,142.229,158.462,142.24z"/>
	<path fill="#AFAFAF" d="M158.414,123.137c-2.047-0.006-3.746-1.695-3.758-3.739c-0.012-2.058,1.737-3.812,3.788-3.796
		c2.04,0.016,3.745,1.719,3.758,3.755C162.215,121.424,160.493,123.142,158.414,123.137z"/>
</g>
<g>
	<path fill="#EE727D" d="M164.561,73.581c0,1.001-0.01,2.003,0.003,3.004c0.02,1.563-0.658,2.765-2.005,3.486
		c-2.722,1.458-5.509,1.459-8.234,0.01c-1.373-0.73-2.041-1.953-2.024-3.542c0.022-2.002,0.022-4.005,0-6.007
		c-0.018-1.674,0.711-2.916,2.176-3.651c2.613-1.311,5.281-1.312,7.897-0.009c1.465,0.73,2.219,1.965,2.19,3.641
		C164.546,71.535,164.56,72.558,164.561,73.581z"/>
</g>
<g>
	<path fill="#FAEB45" d="M151.821,66.51c-1.027,1.463-1.027,1.463-1.297,3.513c-3.312-0.87-6.618-1.738-9.923-2.606
		c-0.013,0.034-0.026,0.068-0.04,0.103c1.01,0.445,2.019,0.892,3.029,1.336c2.147,0.944,4.289,1.899,6.446,2.818
		c0.429,0.183,0.583,0.411,0.551,0.867c-0.054,0.755,0.204,1.679-0.147,2.225c-0.333,0.517-1.277,0.644-1.955,0.936
		c-1.813,0.78-3.627,1.556-5.413,2.447c2.472-0.531,4.944-1.062,7.419-1.593c0.104,0.748,0.114,1.478,0.325,2.144
		c0.211,0.667,0.622,1.271,0.961,1.932c-5.495,3.66-11.332,6.837-17.847,8.614c-0.523,0.143-1.045,0.314-1.579,0.388
		c-1.451,0.2-2.519-0.49-3.367-1.583c-1.297-1.673-1.948-3.636-2.368-5.666c-1.351-6.532-1.37-13.055,0.48-19.498
		c0.394-1.372,1.102-2.699,1.889-3.9c1.024-1.561,2.351-1.887,4.16-1.383c5.55,1.545,10.649,4.093,15.586,7
		c1.011,0.596,2.018,1.199,3.025,1.802C151.787,66.423,151.8,66.473,151.821,66.51z"/>
	<path fill="#FAEB45" d="M164.924,66.474c2.061-1.19,4.021-2.354,6.01-3.463c4.072-2.269,8.309-4.155,12.809-5.418
		c1.784-0.501,3.041-0.106,4.181,1.389c1.269,1.664,1.916,3.605,2.331,5.614c1.348,6.533,1.33,13.046-0.46,19.506
		c-0.402,1.452-1.007,2.828-1.963,4.018c-1.053,1.31-2.361,1.819-4.042,1.378c-6.814-1.785-12.94-5.009-18.809-8.947
		c1.107-1.086,1.349-2.469,1.312-4.015c2.552,0.548,5.041,1.083,7.531,1.618c0.011-0.035,0.021-0.071,0.032-0.106
		c-1.951-0.837-3.903-1.672-5.853-2.511c-0.557-0.24-1.32-0.353-1.604-0.78c-0.286-0.428-0.038-1.183-0.122-1.781
		c-0.116-0.829,0.228-1.2,0.984-1.515c2.866-1.193,5.699-2.467,8.543-3.713c0.176-0.077,0.347-0.166,0.492-0.339
		c-3.306,0.868-6.612,1.736-9.98,2.62C166.289,68.697,165.99,67.498,164.924,66.474z"/>
</g>
</svg>
