<?xml version="1.0" encoding="utf-8"?>
<!-- Generator: Adobe Illustrator 24.3.0, SVG Export Plug-In . SVG Version: 6.00 Build 0)  -->
<svg version="1.1" id="Layer_2_1_" xmlns="http://www.w3.org/2000/svg" xmlns:xlink="http://www.w3.org/1999/xlink" x="0px" y="0px"
	 viewBox="0 0 234.17 234.17" enable-background="new 0 0 234.17 234.17" xml:space="preserve">
<g>
	<circle fill="#6BBD91" cx="117.085" cy="117.085" r="117.085"/>
</g>
<g>
	<path fill="#FCEB3D" d="M208.017,167.146c-0.242-4.496-5.853-8.229-16.675-11.089c-3.405-0.885-7.259-1.684-11.452-2.351
		l-0.982-0.158c-1.176-0.182-2.412-0.364-3.684-0.533c-0.618,0.727-1.236,1.466-1.854,2.206c1.806,0.23,3.539,0.473,5.15,0.715
		l0.982,0.158c4.12,0.667,7.889,1.442,11.222,2.315c9.283,2.448,14.7,5.672,14.87,8.871c0.242,4.678-9.937,10.119-27.243,14.542
		c-3.442,0.873-6.932,1.66-10.374,2.351l-0.133,0.024c-4.92,0.994-10.265,1.903-15.863,2.715c-2.206,0.315-4.472,0.606-6.774,0.897
		c-2.533,0.315-5.126,0.594-7.756,0.873c-1.26,0.133-2.521,0.254-3.805,0.376c-5.09,0.485-10.507,0.873-16.142,1.175l-5.744,0.279
		c-0.763,0.024-1.515,0.049-2.266,0.085c-2.363,0.085-4.714,0.145-7.029,0.182c-3.43,0.061-6.762,0.085-9.901,0.048
		c-2.024-0.012-4.023-0.036-5.987-0.097c-1.285-0.024-2.545-0.061-3.817-0.109c-1.018-0.036-2.012-0.073-3.042-0.133
		c-4.338-0.182-8.713-0.461-13.015-0.848c-6.132-0.557-11.707-1.285-16.566-2.157c-14.433-2.605-23.183-6.617-23.401-10.737
		c-0.17-3.175,4.811-6.944,13.67-10.325c1.042-0.4,2.121-0.8,3.26-1.188l0.194-0.061c2.933-0.994,6.084-1.927,9.489-2.812
		c1.248-0.327,2.545-0.642,3.866-0.957l1.769-0.412c0.315-0.073,0.63-0.145,0.957-0.218c-0.57-0.703-1.139-1.406-1.709-2.097
		l-1.575,0.376c-1.345,0.315-2.654,0.63-3.999,0.994c-3.296,0.848-6.459,1.781-9.38,2.763l-0.206,0.061
		c-1.224,0.424-2.399,0.848-3.527,1.285c-10.349,3.963-15.463,8.241-15.233,12.713c0.376,7.029,14.021,10.943,25.389,12.991
		c4.932,0.897,10.58,1.636,16.796,2.193c4.339,0.388,8.75,0.679,13.125,0.86c1.006,0.048,2.024,0.097,3.054,0.133
		c1.26,0.048,2.545,0.085,3.842,0.109c1.975,0.061,3.999,0.085,6.035,0.097c0.982,0.012,2,0.012,3.018,0.012
		c2.242,0,4.569-0.012,6.932-0.061c2.327-0.036,4.69-0.097,7.089-0.182c0.739-0.036,1.491-0.061,2.254-0.085l5.817-0.279
		c5.635-0.303,11.089-0.703,16.203-1.188c1.297-0.121,2.569-0.242,3.842-0.376c2.642-0.279,5.247-0.557,7.804-0.885
		c2.315-0.279,4.593-0.582,6.811-0.897c5.611-0.812,10.943-1.721,15.888-2.715l0.121-0.024c3.527-0.703,7.102-1.503,10.616-2.399
		c13.318-3.393,29.085-9.053,29.085-16.736C208.029,167.34,208.017,167.243,208.017,167.146z"/>
	<path fill="#FCEB3D" d="M206.951,160.287c0.424,8.18-15.791,14.046-29.46,17.548c-3.599,0.921-7.077,1.697-10.64,2.399
		l-0.182,0.036c-4.351,0.885-8.81,1.648-13.258,2.303c-0.024,0.012-0.121,0.036-0.254,0.049c-0.23,0.048-0.461,0.085-0.691,0.109
		c-0.509,0.073-1.018,0.158-1.527,0.23l-0.121,0.012c-1.551,0.23-3.115,0.436-4.678,0.642l-1.442,0.182l-0.897,0.121
		c-0.097,0-0.182,0.012-0.279,0.024c-1.163,0.145-2.339,0.279-3.527,0.412c-0.909,0.097-1.818,0.206-2.751,0.291l-2.218,0.23
		c-0.897,0.097-1.794,0.182-2.69,0.267l-0.509,0.049c-0.388,0.036-0.763,0.073-1.127,0.097c-0.267,0.036-0.606,0.061-0.957,0.097
		l-0.473,0.036c-3.854,0.327-7.392,0.582-10.786,0.776c-0.63,0.049-1.272,0.085-1.915,0.121c-0.049,0-0.158,0.012-0.267,0.012
		l-0.679,0.036c-0.4,0.012-0.763,0.036-1.127,0.049c-0.121,0.012-0.206,0.012-0.291,0.012l-7.489,0.315
		c-1.939,0.061-3.866,0.109-5.781,0.133c-0.364,0.012-0.763,0.012-1.139,0.012c-1.079,0.024-2.157,0.036-3.236,0.036
		c-1.054,0.024-2.109,0.024-3.187,0.024c-0.436,0-0.824,0-1.236-0.012c-0.194,0.012-0.485,0-0.788,0h-0.376
		c-1.539-0.012-3.054-0.036-4.545-0.073l-1.503-0.036c-0.618-0.012-1.236-0.024-1.842-0.036c-0.667-0.012-1.345-0.036-2.036-0.073
		c-1.006-0.036-2.024-0.073-3.054-0.133c-4.339-0.17-8.738-0.461-13.064-0.86l-0.073-0.012c-6.314-0.557-11.973-1.297-16.833-2.181
		c-16.809-3.018-25.498-7.55-25.801-13.464c-0.254-4.726,4.981-9.186,15.548-13.234c1.151-0.424,2.315-0.86,3.551-1.272l0.279-0.097
		c2.86-0.957,5.95-1.866,9.21-2.727l0.218-0.048c0.533-0.158,1.091-0.291,1.648-0.412c0.255,0.133,0.485,0.352,0.727,0.642
		c0.218,0.254,0.436,0.521,0.654,0.788c0.376,0.473,0.763,0.933,1.163,1.394c-1.357,0.376-2.787,0.776-3.224,0.897l-0.206,0.061
		c-3.321,0.86-6.471,1.794-9.356,2.763l-0.279,0.097c-1.103,0.376-2.145,0.763-3.163,1.151c-12.252,4.69-13.403,8.423-13.331,9.816
		c0.158,2.981,6.277,7.247,22.977,10.24c4.738,0.885,10.264,1.588,16.445,2.157l0.097,0.012c1.866,0.17,3.745,0.315,5.635,0.448
		c2.448,0.17,4.896,0.303,7.332,0.4c0.557,0.036,1.127,0.061,1.672,0.085h0.012c0.461,0.012,0.897,0.024,1.357,0.036
		c0.679,0.036,1.309,0.061,1.975,0.073c0.63,0.024,1.236,0.036,1.83,0.049l1.503,0.036c1.491,0.036,2.981,0.048,4.484,0.061h0.412
		c0.218,0,0.448,0.012,0.667,0h0.182c0.376,0.012,0.739,0.012,1.115,0.012c0.763,0.012,1.527,0,2.278-0.012
		c0.291,0,0.594-0.012,0.873-0.012h1.745c0.485,0,0.994-0.012,1.503-0.024c0.376,0,0.739,0,1.091-0.012
		c1.575-0.024,3.127-0.061,4.69-0.109c0.351-0.012,0.727-0.024,1.079-0.036l7.526-0.303c0.121-0.012,0.194-0.012,0.291-0.012
		c0.194-0.012,0.412-0.024,0.642-0.036c0.109-0.012,0.194-0.012,0.303-0.024l0.121-0.012l0.836-0.036
		c0.667-0.036,1.297-0.061,1.915-0.109c0.57-0.036,1.151-0.073,1.733-0.097c2.715-0.17,5.49-0.376,8.495-0.63h0.012
		c0.145-0.012,0.303-0.024,0.473-0.036l0.473-0.048c0.218-0.012,0.448-0.036,0.667-0.061c0.097,0,0.182-0.012,0.279-0.024
		c0.424-0.036,0.776-0.061,1.115-0.097l0.533-0.048c0.885-0.073,1.769-0.17,2.642-0.255l1.721-0.194h0.012l0.509-0.036
		c0.461-0.048,0.921-0.097,1.382-0.158c0.436-0.048,0.885-0.097,1.321-0.145c1.188-0.133,2.363-0.267,3.527-0.412l0.206-0.024
		c0.097-0.012,0.182-0.024,0.291-0.036l1.66-0.218h0.012l0.606-0.085v0.012c0.461-0.048,0.921-0.121,1.382-0.182
		c0.012,0,0.012,0,0.012,0c1.018-0.133,2.012-0.279,3.005-0.412l0.121-0.024c0.521-0.073,1.03-0.145,1.539-0.23l0.182-0.024
		c0.158-0.024,0.291-0.049,0.436-0.061l0.279-0.048c0.836-0.133,1.648-0.255,2.472-0.388h0.012c1.539-0.23,3.066-0.485,4.593-0.763
		c2.072-0.351,4.157-0.763,6.205-1.175l0.182-0.036c3.442-0.679,6.811-1.43,10.301-2.315c20.069-5.138,27.037-10.616,26.855-14.033
		c-0.133-2.69-4.629-5.526-12.349-7.804l-0.23-0.073c-0.376-0.109-1.842-0.594-2.908-0.933c2.169-0.351,4.29-0.873,6.35-1.6
		C202.491,152.786,206.72,156.227,206.951,160.287z"/>
</g>
<g>
	<path fill="#FFFFFF" d="M51.889,199.348c9.855,7.188,20.803,12.725,32.321,16.352c11.524,3.602,23.627,5.273,35.67,4.851
		c12.042-0.358,24.012-2.788,35.283-7.123c11.263-4.358,21.837-10.584,31.209-18.391c-8.74,8.511-19.147,15.412-30.502,20.145
		c-11.34,4.78-23.597,7.383-35.914,7.789c-12.317,0.386-24.715-1.44-36.336-5.483C71.986,213.492,61.16,207.274,51.889,199.348z"/>
	<path fill="#FFFFFF" d="M19.42,79.622c3.538-9.805,8.722-19.022,15.095-27.328c6.433-8.266,14.13-15.563,22.739-21.583
		c17.222-12.083,38.26-18.548,59.322-18.627c21.063,0.071,42.1,6.541,59.325,18.62c8.609,6.021,16.304,13.32,22.738,21.586
		c6.37,8.308,11.553,17.526,15.087,27.333c-4.043-9.598-9.399-18.618-16.017-26.593c-6.548-8.022-14.277-15.057-22.861-20.787
		c-8.596-5.702-17.955-10.261-27.822-13.246c-9.853-3.01-20.154-4.504-30.45-4.492c-10.297-0.017-20.597,1.484-30.451,4.493
		c-9.865,2.988-19.228,7.541-27.824,13.245c-8.585,5.73-16.313,12.767-22.863,20.787C28.821,61.005,23.464,70.024,19.42,79.622z"/>
	<path fill="#FFFFFF" d="M226.268,115.957c-1.575-3.236-3.333-6.374-5.078-9.513c-0.63-1.103-1.43-2.109-2.036-2.981
		c-0.545,0.036-0.982,0.206-1.127,0.061c-0.242-0.206-0.448-0.679-0.376-0.957c0.218-0.715-0.17-1.091-0.594-1.479
		c-3.127-2.872-6.18-5.805-9.38-8.592c-4.423-3.842-8.956-7.586-13.464-11.319c-0.4-0.315-1.115-0.424-1.636-0.351
		c-0.873,0.109-1.418-0.255-1.042-1.054c0.364-0.8-0.024-1.079-0.545-1.454c-4.545-3.321-9.428-6.035-14.785-7.72
		c-0.109-0.036-0.206-0.073-0.327-0.097c-0.012,0-0.024,0-0.036-0.012c-0.63-0.339-1.333-0.509-2.06-0.448h-0.012c0,0,0,0-0.012,0
		h-0.024c-0.957-0.133-1.903-0.23-2.86-0.339c-2.012-0.23-4.036-0.388-6.059-0.436c-1.382-0.036-2.715,0.279-3.769,1.309
		c-0.206,0.206-0.473,0.4-0.557,0.654c-0.436,1.454-1.6,2.387-2.472,3.527c-1.612,2.048-2.375,4.302-1.842,6.908
		c0.073,0.339,0.145,0.715,0.339,0.969c0.776,0.994,0.945,2.206,1.273,3.369c0.545,1.878,1.345,2.509,3.321,2.545
		c2.654,0.061,5.32,0.145,7.974,0c1.878-0.097,3.769-0.497,5.599-0.945c1.115-0.267,2.193-0.291,3.321-0.279
		c1.503,0.024,2.581,0.4,3.623,1.624c1.975,2.327,3.636,4.823,4.896,7.562c1.624,3.514,3.139,7.053,4.702,10.58
		c0.351,0.751,0.715,1.503,1.042,2.218c-2.06,0-4.096-0.097-6.132,0.024c-4.12,0.242-7.816,1.854-11.343,3.866
		c-0.4,0.218-0.824,0.509-1.066,0.885c-0.763,1.103-1.575,0.885-2.642,0.46c-2.193-0.836-4.435-1.575-6.69-2.206
		c-2.945-0.8-5.95-0.23-8.907,0.024c-1.127,0.109-2.242,0.351-3.369,0.497c-2.508,0.327-4.496,1.648-6.314,3.284
		c-0.509,0.448-0.945,0.594-1.624,0.364c-3.684-1.321-7.501-1.987-11.367-2.472c-0.788-0.121-1.588-0.388-2.327-0.667
		c-0.315-0.121-0.618-0.448-0.739-0.763c-0.618-1.648-0.606-1.66,0.994-2.436c2.121-1.03,3.926-2.436,5.369-4.338
		c0.606-0.8,0.8-1.697,0.242-2.497c-1.03-1.503-0.885-3.211-1.054-4.86c-0.024-0.194,0.036-0.388-0.036-0.521
		c-0.957-1.963-0.485-4.157-0.994-6.193c-0.061-0.206,0.158-0.509,0.327-0.703c0.327-0.364,0.788-0.618,1.066-1.018
		c0.642-0.909,0.618-1.394-0.085-2.254c-0.933-1.103-1.878-2.218-2.86-3.284c-0.618-0.654-0.8-1.454-0.521-2.157
		c0.485-1.176,0.267-2.218-0.194-3.272c-0.448-1.006-0.933-2.012-1.515-2.933c-1.175-1.854-1.927-3.817-2-6.011
		c0-0.036,0-0.061-0.012-0.097c-0.57-1.83-0.291-3.466,0.412-5.296c1.333-3.514,0.17-6.774-1.915-9.731
		c0.388,1.2,0.824,2.387,1.127,3.611c0.303,1.224,0.521,2.484,0.133,3.769c-0.049-2.848-1.188-5.284-2.69-7.635
		c-1.624,1.866-3.829,2.181-5.987,2.569c-1.139,0.206-2.327,0.23-3.466,0.388c-0.424,0.048-0.812,0.255-1.188,0.436
		c-0.364,0.048-0.715,0.121-1.079,0.158c-0.145,0.024-0.351,0.024-0.412-0.061c-0.594-0.763-1.43-0.448-2.181-0.509
		c-0.339-0.024-0.703,0.024-1.03-0.024c-1.527-0.291-2.824,0.218-4.096,1.03c-3.369,2.145-6.738,4.29-10.18,6.35
		c-3.151,1.915-4.763,4.702-5.138,8.313c-0.121,1.212-0.339,2.412-0.545,3.611c-0.061,0.339-0.194,0.667-0.303,0.994
		c-0.424,1.188-0.873,2.387-1.26,3.587c-0.448,1.454-0.448,2.921,0.073,4.363c0.8,2.218,1.491,4.472,2.436,6.605
		c0.509,1.139,1.406,2.133,2.242,3.078c1.418,1.588,2.933,3.066,4.375,4.629c0.17,0.182,0.291,0.485,0.267,0.739
		c-0.242,3.357-0.521,6.714-0.873,10.058c-0.036,0.376-0.461,0.873-0.812,1.006c-1.721,0.594-3.454,1.188-5.223,1.588
		c-3.139,0.703-6.302,1.26-9.465,1.854c-0.279,0.061-0.691,0.012-0.86-0.158c-2.29-2.375-5.308-2.848-8.362-3.199
		c-2.048-0.23-4.108-0.339-6.168-0.376c-1.006-0.024-2.036,0.158-2.993,0.448c-2.496,0.788-4.969,1.697-7.38,2.533
		c-5.732-4.508-12.228-6.241-19.584-5.296c0.388-0.812,0.739-1.551,1.079-2.29c1.963-4.302,3.902-8.616,5.89-12.894
		c1.188-2.533,3.127-4.532,4.944-6.605c0.121-0.145,0.388-0.23,0.594-0.254c1.091-0.085,2.193-0.267,3.308-0.218
		c0.873,0.049,1.733,0.485,2.606,0.545c2.666,0.17,5.223,1.224,7.986,0.824c1.406-0.194,2.86-0.024,4.302,0
		c2.448,0.024,3.308-0.57,3.939-2.921c0.279-1.054,0.715-2.036,1.151-3.03c1.079-2.496,0.521-4.884-0.921-7.102
		c-0.376-0.582-0.885-1.091-1.285-1.648c-0.57-0.788-1.115-1.6-1.612-2.424c-0.727-1.224-1.818-1.915-3.163-2.036
		c-1.357-0.109-2.727-0.097-4.084,0c-3.732,0.267-7.477,0.497-11.016,1.903c-0.448,0.194-0.909,0.364-1.345,0.594
		c-2.339,1.188-4.678,2.315-6.932,3.636c-1.648,0.957-3.163,2.169-4.702,3.296c-0.23,0.17-0.327,0.582-0.388,0.909
		c-0.073,0.376-0.012,0.788-0.012,1.297c-1.321-0.557-2.145,0.097-3.054,0.776c-6.859,5.163-13.064,11.089-19.463,16.784
		c-0.921,0.8-1.733,1.709-2.618,2.545c-0.691,0.679-1.26,1.382-0.994,2.545c-0.364-0.085-0.618-0.158-0.873-0.23
		c-0.061-0.049-0.145-0.085-0.218-0.133c-3.224,5.562-7.138,10.798-8.471,17.33v1.733c0.097,0.267,0.23,0.533,0.291,0.8
		c0.291,1.321,1.018,2.351,1.939,3.333c1.006,1.066,1.927,2.242,2.763,3.43c1.624,2.351,3.648,4.278,5.95,5.95
		c4.605,3.333,9.174,6.714,13.864,9.937c4.908,3.393,10.458,5.199,16.336,6.047c3.115,0.448,6.241,0.4,9.38,0.17
		c0.461-0.036,0.836,0.036,1.163,0.218c0.255,0.133,0.485,0.352,0.727,0.642c0.218,0.254,0.436,0.521,0.654,0.788
		c0.376,0.473,0.763,0.933,1.163,1.394c0.994,1.188,2,2.387,3.005,3.575c0.57,0.691,1.139,1.394,1.709,2.097
		c0.436,0.533,0.873,1.066,1.297,1.612c1.2,1.551,2.242,3.199,3.102,4.932c0.8,1.6,1.479,3.26,2.06,4.969
		c1.212,3.611,2.606,7.138,4.423,10.458c2.448,0.17,4.896,0.303,7.332,0.4c0.557,0.036,1.127,0.061,1.672,0.085h0.012
		c0.461,0.012,0.897,0.024,1.357,0.036c0.679,0.036,1.309,0.061,1.975,0.073c0.63,0.024,1.236,0.036,1.83,0.049l1.503,0.036
		c1.491,0.036,2.981,0.048,4.484,0.061h0.412c0.218,0,0.448,0.012,0.667,0h0.182c0.376,0.012,0.739,0.012,1.115,0.012
		c0.763,0.012,1.527,0,2.278-0.012c0.291,0,0.594-0.012,0.873-0.012h1.745c0.485,0,0.994-0.012,1.503-0.024
		c0.376,0,0.739,0,1.091-0.012c1.575-0.024,3.127-0.061,4.69-0.109c0.351-0.012,0.727-0.024,1.079-0.036l7.526-0.303
		c0.121-0.012,0.194-0.012,0.291-0.012c0.194-0.012,0.412-0.024,0.642-0.036c0.109-0.012,0.194-0.012,0.303-0.024l0.121-0.012
		l0.836-0.036c0.667-0.036,1.297-0.061,1.915-0.109c0.57-0.036,1.151-0.073,1.733-0.097c2.715-0.17,5.49-0.376,8.495-0.63h0.012
		c0.145-0.012,0.303-0.024,0.473-0.036l0.473-0.048c0.218-0.012,0.448-0.036,0.667-0.061c0.097,0,0.182-0.012,0.279-0.024
		c0.424-0.036,0.776-0.061,1.115-0.097l0.533-0.048c0.885-0.073,1.769-0.17,2.642-0.255l1.721-0.194h0.012l0.509-0.036
		c0.461-0.048,0.921-0.097,1.382-0.158c0.436-0.048,0.885-0.097,1.321-0.145c1.188-0.133,2.363-0.267,3.527-0.412l0.206-0.024
		c0.097-0.012,0.182-0.024,0.291-0.036l1.66-0.218h0.012l0.606-0.085v0.012c0.461-0.048,0.921-0.121,1.382-0.182
		c0.012,0,0.012,0,0.012,0c1.018-0.133,2.012-0.279,3.005-0.412l0.121-0.024c0.521-0.073,1.03-0.145,1.539-0.23l0.182-0.024
		c0.158-0.024,0.291-0.049,0.436-0.061l0.279-0.048c0.836-0.133,1.648-0.255,2.472-0.388h0.012c1.539-0.23,3.066-0.485,4.593-0.763
		c0.873-2.109,1.685-4.254,2.509-6.374c1.382-3.539,3.102-6.847,5.381-9.852c0.485-0.642,0.994-1.248,1.515-1.854
		c1.357-1.551,2.69-3.139,4.011-4.726c0.618-0.739,1.236-1.478,1.854-2.206c0.012-0.024,0.036-0.036,0.049-0.061
		c0.145-0.182,0.291-0.351,0.448-0.533c0.182-0.218,0.582-0.339,0.885-0.339c1.418,0.012,2.848,0.133,4.278,0.133
		c0.727,0,1.478-0.012,2.206-0.048h0.049c1.309-0.218,2.581-0.473,3.842-0.824c0.182,0.048,0.557,0.17,1.006,0.315
		c0.012,0,0.012,0,0.024,0c2.169-0.351,4.29-0.873,6.35-1.6c3.345-1.151,6.556-2.775,9.586-4.92c4.617-3.26,9.21-6.592,13.73-9.974
		c2.278-1.697,4.242-3.708,5.623-6.229c0.254-0.485,0.642-0.909,1.042-1.272c1.575-1.466,2.896-3.078,3.333-5.272v-1.903
		C227.213,118.975,226.959,117.363,226.268,115.957z"/>
</g>
</svg>
