<?xml version="1.0" encoding="utf-8"?>
<!-- Generator: Adobe Illustrator 24.3.0, SVG Export Plug-In . SVG Version: 6.00 Build 0)  -->
<svg version="1.1" id="Layer_1" xmlns="http://www.w3.org/2000/svg" xmlns:xlink="http://www.w3.org/1999/xlink" x="0px" y="0px"
	 viewBox="0 0 289.211 206" enable-background="new 0 0 289.211 206" xml:space="preserve">
<g>
	<path fill="#115C2F" d="M289.211,10.348c-4.168,0.716-8.336,1.44-12.511,2.14c-7.238,1.225-14.468,2.537-21.737,3.579
		c-2.474,0.358-3.738,1.575-4.772,3.675c-8.988,18.214-15.335,37.342-19.757,57.131c-4.39,19.685-6.578,39.633-6.785,59.788
		c-0.095,8.972,0.223,17.943,0.294,26.915c0.04,4.987-0.008,5.011-4.844,4.892c-27.233-0.66-54.467-1.352-81.7-2.012
		c-20.314-0.501-40.635-0.954-60.949-1.463c-13.943-0.342-27.878-0.787-41.82-1.074c-2.203-0.048-3.086-0.62-2.999-2.943
		c0.74-18.54-2.943-36.539-6.975-54.475C19.144,81.986,10.769,58.364,1.798,34.948C1.241,33.477,0.748,31.982,0,29.85
		c6.164,2.116,11.636,3.985,17.116,5.862c14.547,4.979,29.397,8.646,44.469,11.286c4.263,0.756,8.542,1.424,12.845,2.004
		c-0.008,0.056,0,0.103,0.016,0.151c0.795,2.832,1.503,5.719,2.315,8.542c-4.645-0.095-9.282-0.31-13.935-0.636
		c-12.742-0.875-25.531-2.545-38.535-4.772c1.67,5.114,3.118,9.481,4.534,13.855c8.375,25.977,15.048,52.319,17.339,79.616
		c0.183,2.219,0.764,3.301,3.269,3.229c18.795-0.533,37.597-0.946,56.4-1.424c30.582-0.779,61.164-1.607,91.753-2.322
		c2.529-0.056,3.309-0.891,3.412-3.38c1.281-31.33,7.333-61.744,18.103-91.173c5.504-15.032,12.034-29.619,20.6-43.22
		c3.428-5.44,3.643-5.583,9.886-4.51c12.034,2.076,24.076,4.064,36.11,6.093C286.857,9.25,288.01,9.513,289.211,10.348z"/>
</g>
<g>
	<path fill="#102416" d="M119.436,189.529c-0.046,9.113-7.238,16.489-16.06,16.471c-9.144-0.019-16.803-7.703-16.692-16.749
		c0.105-8.604,7.49-15.875,16.053-15.805C112.29,173.524,119.481,180.451,119.436,189.529z M113.147,186.638
		c-0.042-5.447-4.587-10.034-9.841-9.933c-5.621,0.109-10.125,4.594-10.121,10.078c0.004,5.276,4.488,9.775,9.672,9.704
		C108.66,196.409,113.188,192.074,113.147,186.638z"/>
	<path fill="#102416" d="M152.283,205.997c-9.273-0.091-16.513-7.563-16.375-16.899c0.126-8.5,7.377-15.753,15.724-15.729
		c9.423,0.028,17.046,7.228,16.921,15.985C168.42,198.703,161.203,206.085,152.283,205.997z M162.094,186.84
		c0.039-5.597-4.178-10.053-9.579-10.122c-5.532-0.071-10.17,4.38-10.304,9.891c-0.128,5.23,4.285,9.806,9.503,9.852
		C157.632,196.513,162.056,192.413,162.094,186.84z"/>
</g>
<g>
	<path fill="#78C368" d="M178.695,38.52c-16.615-3.189-33.23-6.363-49.846-9.497c-8.312-1.575-10.531-0.127-13.036,7.763
		c-4.406,13.871-8.956,27.703-13.394,41.566c-3.356,10.491-6.785,20.966-9.871,31.536c-1.702,5.814,0.199,9.465,5.321,10.467
		c26.637,5.233,53.29,10.38,79.974,15.382c6.442,1.209,9.632-1.638,9.95-8.288c1.153-24.354,2.235-48.708,3.555-77.803
		C191.548,41.28,191.286,40.938,178.695,38.52z M165.571,81.294c-3.388,2.879-8.844,4.526-13.378,4.565
		c-5.536,0.048-11.278-1.67-16.599-3.547c-7.23-2.545-10.817-8.717-11.215-15.947c-0.342-6.005,0.859-12.113,1.599-18.15
		c0.167-1.344,1.265-2.569,1.933-3.85c0.636,0.016,1.281,0.032,1.917,0.04c0.342,2.227,1.034,4.462,0.954,6.673
		c-0.167,4.502-1.058,8.988-1.105,13.489c-0.088,7.787,3.754,12.487,11.326,14.412c2.855,0.732,5.743,1.328,8.646,1.877
		c8.097,1.535,14.38-2.044,17.053-9.886c1.455-4.279,2.45-8.709,3.913-12.98c0.62-1.813,1.925-3.396,3.317-5.774
		c1.018,1.623,1.821,2.307,1.742,2.863C174.289,64.6,173.39,74.661,165.571,81.294z"/>
	<path fill="#78C368" d="M76.077,45.694c-0.851,1.726-1.678,2.664-1.646,3.309c-0.008,0.056,0,0.103,0.016,0.151
		c0.795,2.832,1.503,5.719,2.315,8.542c2.386,8.248,5.758,15.891,15.43,19.479c3.245,1.201,3.317,3.356,2.529,6.14
		c-2.044,7.198-3.921,14.444-5.997,21.634c-3.746,12.972-1.233,17.506,11.747,20.982c1.098,0.294,2.156,0.724,3.484,2.609
		c-8.439,1.988-16.806,4.446-25.348,5.758c-4.367,0.676-6.371-3.213-6.904-7.325c-1.933-14.834-3.865-29.667-5.743-44.509
		c-1.074-8.463-2.068-16.941-3.134-25.404c-0.358-2.863-0.724-5.727-1.106-8.582c-0.064-0.501-0.111-0.994-0.135-1.479
		c-0.151-3.372,0.891-6.236,4.375-7.182c13.481-3.651,27.082-6.856,40.643-10.189c0.485-0.119,1.098,0.27,2.8,0.74
		c-1.615,5.854-3.118,11.31-4.629,16.758c-1.996,7.214-4.017,14.42-5.981,21.642c-1.05,3.873-3.73,4.844-6.649,2.752
		c-2.903-2.084-5.663-4.828-7.469-7.882c-1.074-1.829-1.869-3.834-2.601-5.878c-0.732-2.052-1.408-4.144-2.275-6.14
		c-0.31-0.7-0.692-1.36-1.129-2.052C77.946,48.438,77.063,47.237,76.077,45.694z"/>
	<path fill="#78C368" d="M154.416,29.28c-2.567-2.434-9.754,2.155-9.561-5.611c0.228-9.16,3.842-13.909,10.081-12.583
		c3.467,0.737,10.195-1.978,9.487,6.043C163.651,25.862,160.726,29.698,154.416,29.28z"/>
	<path fill="#78C368" d="M179.237,21.495c-2.764-1.612-9.177,1.47-8.945-5.702c0.291-8.99,3.456-12.926,10.079-12.168
		c3.717,0.426,9.667-1.201,9.559,5.714C189.788,18.337,186.796,21.724,179.237,21.495z"/>
	<path fill="#78C368" d="M140.433,5.258c-0.518,4.083-2.084,7.188-7.006,6.747c-2.936-0.263-6.363-0.212-5.723-4.703
		c0.538-3.772,1.209-7.721,6.499-7.266C137.395,0.31,140.739,0.605,140.433,5.258z"/>
</g>
</svg>
