<?xml version="1.0" encoding="utf-8"?>
<!-- Generator: Adobe Illustrator 24.3.0, SVG Export Plug-In . SVG Version: 6.00 Build 0)  -->
<svg version="1.1" id="Layer_9" xmlns="http://www.w3.org/2000/svg" xmlns:xlink="http://www.w3.org/1999/xlink" x="0px" y="0px"
	 viewBox="0 0 345.02 200.698" enable-background="new 0 0 345.02 200.698" xml:space="preserve">
<g>
	<path fill-rule="evenodd" clip-rule="evenodd" fill="#999999" d="M23.775,197.353c-0.085-35.398-0.571-60.476-0.379-90.599
		c-1.253-9.198,292.559-0.18,295.395-3.247c1.561,0.006,2.833,1.458,2.833,3.248c0.136,26.916-0.066,42.745-0.284,73.292
		l-0.095,17.427c-0.003,1.99-1.605,3.558-3.394,3.149v0.002c-102.895-25.668-147.538-40.245-250.1-9.618
		c-12.022,2.88-25.264,6.058-40.583,9.618C25.39,201.09,23.658,199.296,23.775,197.353L23.775,197.353z M29.335,180.02l0.074,13.49
		c133.682-35.032,152.604-35,286.203,0c0.212-30.3,0.442-58.167,0.334-83.518H29.075C29.027,132.165,29.058,153.555,29.335,180.02z"
		/>
	<path fill-rule="evenodd" clip-rule="evenodd" fill="#999999" d="M58.529,111.342c-1.588,8.455,10.053,5.316,14.738,5.911
		c3.443,0.349,4.718-2.634,4.277-5.911h189.924c-1.332,9.283,9.414,5.921,14.758,6.501c3.468,0.02,4.644-3.58,4.263-6.501
		l54.192,0.002c5.878,0.041,3.972-8.525,4.263-12.117c0-2.388-1.817-4.488-4.263-4.488l-54.192-0.001
		c1.332-9.282-9.413-5.921-14.757-6.501c-3.469-0.02-4.643,3.581-4.263,6.501l-189.919,0c1.538-9.076-9.606-6.026-14.757-6.502
		c-3.468-0.02-4.645,3.58-4.264,6.501l-54.19,0.001c-5.88-0.042-3.973,8.523-4.264,12.115c0,2.387,1.817,4.488,4.263,4.488h54.191
		V111.342z"/>
	<path fill-rule="evenodd" clip-rule="evenodd" fill="#999999" d="M202.29,36.415c39.848-21.692,73.097,35.917,34.392,59.57
		C196.834,117.674,163.586,60.069,202.29,36.415z"/>
	<path fill-rule="evenodd" clip-rule="evenodd" fill="#999999" d="M111.73,36.087c39.848-21.689,73.097,35.915,34.393,59.57
		C106.275,117.348,73.027,59.742,111.73,36.087z"/>
	<path fill-rule="evenodd" clip-rule="evenodd" fill="#999999" d="M152.448,6.142c51.069-27.797,93.677,46.029,44.075,76.343
		C145.456,110.28,102.849,36.455,152.448,6.142z"/>
</g>
<g>
	<path fill-rule="evenodd" clip-rule="evenodd" fill="#0A3F59" d="M26.603,197.46c-0.19-29.988-0.475-60.738-0.368-90.707
		c97.517,0,195.034,0,292.55,0c0.108,30.116-0.179,60.604-0.368,90.707C170.691,160.83,174.329,160.831,26.603,197.46z"/>
</g>
<g>
	<path fill-rule="evenodd" clip-rule="evenodd" fill="#262626" d="M57.281,103.6l-0.002,1.287
		c-0.476,0.284-53.251-0.547-53.419,0.29c0.169,0.836,56.319,0.008,56.796,0.29c0-0.206,0-4.232,0-4.578H5.777v2.709h51.504V103.6z
		 M284.364,105.468c0-1.101,0-3.488,0-4.578h54.879v3.997C348.886,106.181,282.719,105.166,284.364,105.468L284.364,105.468z
		 M280.788,107.372c0,0.672,0,3.591,0,4.318l-1.676,0.002v-0.002c-8.3,1.378-5.378-8.337-5.867-13.081h5.867V97.1h-5.939v-2.71
		h7.615C280.788,98.189,280.788,103.558,280.788,107.372L280.788,107.372z M269.596,105.468c0-0.878,0-3.704,0-4.578H75.423v4.578
		H269.596z M71.852,107.37c0,1.53,0,3.36,0,4.886c-10.455,1.369-6.972-6.392-7.541-13.081h5.86v-2.076h-5.938V94.39h7.619v2.063
		h-0.006v2.723h0.006V107.37L71.852,107.37z M4.338,108.518c-2.68,0.107-0.989-7.927-1.439-9.292
		c0.001-0.918,0.646-1.663,1.44-1.663h57.016c0.317-1.345-0.975-6.522,1.439-6.501h10.492c2.225,0.02,1.224,4.059,1.434,5.391h0.005
		v1.109h195.571c0.314-1.344-0.972-6.522,1.438-6.501h10.492c2.4-0.032,1.145,5.17,1.439,6.501h57.017
		c2.685-0.105,0.986,7.926,1.439,9.292c-0.001,0.918-0.645,1.662-1.439,1.663h-57.017c-0.312,1.346,0.972,6.518-1.437,6.501
		l-10.494-0.001c-2.399,0.032-1.144-5.169-1.438-6.499H74.724v1.109h-0.005c-0.201,1.294,0.771,5.397-1.434,5.383v0.007H62.794
		c-2.396,0.032-1.146-5.17-1.439-6.499L4.338,108.518L4.338,108.518z M337.565,104.888V103.6H286.04l0.001,1.287L337.565,104.888
		L337.565,104.888z M266.221,104.888H77.1V103.6h189.121V104.888z"/>
	<path fill-rule="evenodd" clip-rule="evenodd" fill="#262626" d="M203.982,39.346c35.629-19.793,65.96,32.755,31.007,53.709
		C199.357,112.841,169.03,60.299,203.982,39.346z M207.025,40.41c-32.053,19.223-4.231,67.397,28.434,49.248
		C267.51,70.438,239.688,22.261,207.025,40.41L207.025,40.41z M197.715,78.618c18.366,30.622,64.391,4.041,47.052-27.167
		C226.401,20.829,180.376,47.41,197.715,78.618L197.715,78.618z M227.153,42.966c-29.13-7.289-40.695,35.89-11.824,44.136
		C244.459,94.393,256.024,51.213,227.153,42.966L227.153,42.966z M209.634,71.736c8.454,15.187,32.142,1.512,23.212-13.403
		C224.393,43.146,200.706,56.822,209.634,71.736L209.634,71.736z M212.468,62.684c-3.23,11.328,14.679,16.128,17.546,4.701
		C233.245,56.057,215.334,51.256,212.468,62.684L212.468,62.684z M219.533,71.395c8.219,2.351,11.702-10.65,3.411-12.725
		C214.731,56.334,211.248,69.311,219.533,71.395z M218.448,70.073c5.003,1.432,7.125-6.485,2.078-7.75
		C215.521,60.895,213.397,68.807,218.448,70.073z"/>
	<path fill-rule="evenodd" clip-rule="evenodd" fill="#262626" d="M113.423,39.018c35.63-19.792,65.961,32.756,31.007,53.709
		C108.798,112.514,78.471,59.972,113.423,39.018z M116.466,40.084c-32.054,19.219-4.232,67.396,28.433,49.246
		C176.952,70.114,149.128,21.93,116.466,40.084L116.466,40.084z M107.155,78.29c18.367,30.622,64.39,4.042,47.053-27.166
		C135.842,20.502,89.817,47.081,107.155,78.29L107.155,78.29z M136.594,42.639c-29.131-7.288-40.697,35.89-11.824,44.136
		C153.9,94.065,165.465,50.885,136.594,42.639L136.594,42.639z M119.075,71.408c8.455,15.187,32.142,1.512,23.213-13.404
		C133.833,42.819,110.147,56.495,119.075,71.408L119.075,71.408z M121.909,62.357c-3.23,11.329,14.679,16.128,17.546,4.701
		C142.684,55.73,124.774,50.929,121.909,62.357L121.909,62.357z M128.974,71.068c8.217,2.352,11.701-10.65,3.411-12.726
		C124.171,56.007,120.688,68.984,128.974,71.068z M127.887,69.746c5.004,1.433,7.127-6.485,2.08-7.75
		C124.961,60.567,122.838,68.479,127.887,69.746z"/>
	<path fill-rule="evenodd" clip-rule="evenodd" fill="#262626" d="M154.618,9.898c46.042-25.064,84.46,41.502,39.738,68.831
		C148.315,103.792,109.898,37.226,154.618,9.898L154.618,9.898z M158.517,11.263c-41.014,25.07-5.767,86.1,36.439,63.113
		C235.969,49.307,200.721-11.722,158.517,11.263L158.517,11.263z M146.586,60.228c23.955,39.182,82.258,5.509,60.299-34.815
		C182.932-13.772,124.628,19.905,146.586,60.228L146.586,60.228z M184.313,14.539c-37.333-9.342-52.153,45.994-15.154,56.563
		C206.491,80.443,221.313,25.108,184.313,14.539L184.313,14.539z M161.862,51.408c11.3,19.404,40.903,2.31,29.748-17.176
		C180.307,14.829,150.707,31.922,161.862,51.408L161.862,51.408z M165.493,39.808c-4.137,14.519,18.811,20.669,22.487,6.025
		C192.116,31.313,169.167,25.165,165.493,39.808L165.493,39.808z M174.548,50.971c10.531,3.015,14.996-13.646,4.372-16.307
		C168.392,31.668,163.93,48.303,174.548,50.971z M173.156,49.277c6.412,1.839,9.132-8.313,2.664-9.932
		C169.406,37.515,166.683,47.655,173.156,49.277z"/>
</g>
</svg>
