<?xml version="1.0" encoding="utf-8"?>
<!-- Generator: Adobe Illustrator 26.0.1, SVG Export Plug-In . SVG Version: 6.00 Build 0)  -->
<svg version="1.1" id="Layer_1" xmlns="http://www.w3.org/2000/svg" xmlns:xlink="http://www.w3.org/1999/xlink" x="0px" y="0px"
	 viewBox="0 0 230.53 217.843" enable-background="new 0 0 230.53 217.843" xml:space="preserve">
<g>
	<path fill="#514410" d="M112.428,68.647l17.579,17.58c9.253,9.247,24.247,9.247,33.494,0l17.58-17.58l-17.58-17.579
		c-9.247-9.249-24.241-9.249-33.494,0L112.428,68.647z"/>
	<path fill="#514410" d="M112.428,68.647l17.579-17.579c9.253-9.249,9.253-24.243,0-33.491L112.431,0L94.85,17.58
		c-9.251,9.245-9.251,24.239,0,33.488L112.428,68.647z"/>
	<path fill="#514410" d="M112.428,68.647L94.85,86.227c-9.251,9.247-24.242,9.247-33.49,0l-17.576-17.58L61.36,51.068
		c9.248-9.249,24.239-9.249,33.49,0L112.428,68.647z"/>
	<path fill="#514410" d="M185.8,217.843l44.73-56.552c-23.856-26.146-70.215-38.666-115.266-38.666
		c-45.048,0-91.408,12.52-115.264,38.666l44.728,56.552c19.829-8.345,44.182-13.272,70.536-13.272
		C141.618,204.57,165.971,209.498,185.8,217.843z"/>
</g>
<g>
	<line fill="none" stroke="#8E6900" stroke-width="4" stroke-miterlimit="10" x1="112.428" y1="122.647" x2="112.428" y2="67.581"/>
	<path fill="#8E6900" d="M6.046,169.164l5.718,6.996c26.907-16.789,65.631-24.917,103.499-24.917
		c37.866,0,76.581,8.128,103.505,24.917l5.722-6.996c-27.879-18.336-69.017-27.208-109.227-27.208S33.912,150.828,6.046,169.164z"/>
	<path fill="#8E6900" d="M137.908,78.328l-17.576-17.579l-7.904,7.898l17.579,17.58c9.253,9.247,24.247,9.247,33.494,0l7.901-7.899
		C162.155,87.577,147.157,87.577,137.908,78.328z"/>
	<path fill="#8E6900" d="M122.116,43.169l-17.583,17.583l7.895,7.895l17.579-17.579c9.253-9.249,9.253-24.243,0-33.491l-7.891-7.896
		C131.365,18.93,131.363,33.919,122.116,43.169z"/>
	<path fill="#8E6900" d="M86.949,78.333l17.584-17.581l7.895,7.895L94.85,86.227c-9.251,9.247-24.242,9.247-33.49,0l-7.893-7.899
		C62.718,87.577,77.701,87.577,86.949,78.333z"/>
	<path fill="#8E6900" d="M40.417,211.866l4.311,5.977c19.829-9.157,44.182-14.574,70.536-14.574
		c26.354,0,50.707,5.417,70.536,14.574l4.307-5.977c-21.241-9.434-46.999-17.223-74.844-17.223
		C87.419,194.643,61.659,202.432,40.417,211.866z"/>
	<path fill="#8E6900" d="M22.548,189.47l5.468,7.237c25.121-11.962,56.438-17.861,87.248-17.861s62.123,5.895,87.245,17.873
		l5.469-7.243c-26.376-13.206-59.83-20.517-92.714-20.517C82.383,168.959,48.919,176.271,22.548,189.47z"/>
</g>
</svg>
