<?xml version="1.0" encoding="utf-8"?>
<!-- Generator: Adobe Illustrator 24.3.0, SVG Export Plug-In . SVG Version: 6.00 Build 0)  -->
<svg version="1.1" id="Layer_1" xmlns="http://www.w3.org/2000/svg" xmlns:xlink="http://www.w3.org/1999/xlink" x="0px" y="0px"
	 viewBox="0 0 845.797 846.06" enable-background="new 0 0 845.797 846.06" xml:space="preserve">
<g>
	<path d="M332.274,314.627c0.505-17.786,4.11-34.677,11.956-50.475c11.757-23.672,28.978-41.877,54.794-49.634
		c33.353-10.022,61.581,0.097,84.589,25.162c18.52,20.175,26.859,44.774,28.269,71.872c0.11,2.121,0.386,3.416,2.727,4.299
		c3.626,1.368,5.958,5.923,5.501,9.454c-0.544,4.204-3.255,7.943-7.591,8.121c-9.199,0.378-18.51,0.594-27.634-0.405
		c-11.884-1.301-23.565-4.631-35.456-5.645c-13.049-1.112-26.243-0.445-39.366-0.802c-16.959-0.462-33.307,3.373-49.839,6.273
		c-8.018,1.406-16.369,1.167-24.571,1.201c-6.627,0.027-10.369-3.034-11.362-8.267C323.45,321.344,326.326,317.247,332.274,314.627z
		"/>
	<path d="M762.112,404.2c18.872,0,39.045-0.069,59.218,0.022c15.326,0.07,24.021,6.643,24.451,18.204
		c0.446,11.976-8.75,19.37-24.552,19.45c-20.172,0.103-40.345,0.025-60.407,0.025c-9.62,174.191-153.413,308.56-319.101,318.521
		c0,12.849,0,25.907,0,38.965c0,6.175,0.001,12.35-0.007,18.524c-0.023,18.445-6.248,27.892-18.542,28.144
		c-12.397,0.254-19.165-9.425-19.189-27.495c-0.019-14.555-0.007-29.11-0.008-43.664c0-4.369,0-8.737,0-14.713
		c-85.331-6.309-159.123-38.188-219.451-98.547c-60.064-60.095-92.379-133.234-98.651-219.735c-18.281,0-36.209,0.016-54.137-0.011
		c-4.849-0.007-9.742,0.246-14.537-0.3c-10.854-1.237-16.492-8.094-17.164-18.518c-0.639-9.916,7.476-18.294,18.389-18.647
		c16.743-0.542,33.515-0.2,50.275-0.227c5.221-0.009,10.442-0.001,14.854-0.001c27.028-186.83,132.858-292.933,320.421-320.451
		c0-12.871,0-27.281,0-41.69c-0.001-32.461,4.52-42.36,19.207-42.048c14.414,0.306,18.541,9.816,18.54,42.715
		c-0.001,14.022,0,28.044,0,41.107C628.849,110.806,734.699,216.891,762.112,404.2z M156.177,441.878
		c6.427,139.061,130.178,245.694,247.791,247.015c0-6.519-0.048-13.04,0.009-19.56c0.145-16.568,6.493-24.586,19.233-24.374
		c12.308,0.205,18.33,7.9,18.506,23.774c0.077,6.92,0.013,13.842,0.013,20.812c134.565-5.438,244.692-125.207,247.196-247.659
		c-8.294,0-16.589,0.273-24.86-0.065c-12.008-0.491-19.399-7.944-19.312-18.897c0.088-11.024,7.388-18.193,19.565-18.662
		c8.257-0.318,16.536-0.061,24.828-0.061C685.619,280.563,576.081,162.057,441.727,156.5c0,5.663,0.011,11.278-0.002,16.892
		c-0.048,19.472-5.464,27.557-18.577,27.749c-13.208,0.193-19.118-8.167-19.175-27.149c-0.017-5.91-0.003-11.82-0.003-17.812
		c-147.717,8.441-247.106,139.295-246.772,248.022c8.29,0,16.614-0.327,24.902,0.078c11.86,0.58,19.341,8.325,18.793,19.364
		c-0.578,11.631-7.412,17.546-18.663,18.147C173.938,442.234,165.603,441.878,156.177,441.878z M736.911,403.621
		c-7.835-167.758-153.668-291.756-295.189-293.923c0,4.745,0,9.484,0,14.222c0,5.155,0,10.309,0,16.449
		c71.23,5.738,131.596,32.988,181.26,82.358c50.003,49.708,76.662,110.757,82.728,180.895
		C716.818,403.621,726.377,403.621,736.911,403.621z M140.168,403.673c6.031-71.153,33.042-131.589,82.684-181.102
		c49.828-49.699,110.821-76.412,180.36-82.448c0-11.525,0-21.057,0-30.591C243.851,113.536,110.2,258.504,109.934,403.673
		C119.501,403.673,129.067,403.673,140.168,403.673z M707.235,442.456c-23.359,153.659-111.472,241.511-264.679,264.957
		c0,9.495,0,19.43,0,29.383c166.913-5.869,294.41-157.139,292.95-294.34C725.934,442.456,716.363,442.456,707.235,442.456z
		 M403.311,707.496c-153.817-23.824-241.708-111.892-264.836-264.562c-9.965,0-19.806,0-29.668,0
		c7.769,167.557,154.297,291.572,294.504,293.372C403.311,726.759,403.311,717.208,403.311,707.496z"/>
	<path d="M208.954,306.452l-3.343,6.225c-0.428,0.794-0.128,1.785,0.664,2.212l16.732,8.993c0.791,0.427,1.781,0.128,2.206-0.666
		l-0.198,0.371l3.83,2.057l-0.573,1.068l53.121,28.558l-0.334,0.668l-2.416-1.301l-0.808,0.07l-0.804,1.496l0.387,0.711l2.42,1.298
		l-0.325,0.598l1.649,0.886l2.473-4.599l12.359,6.646l-4.213,7.839c-0.701-0.169-1.451,0.117-1.81,0.785l-1.224,2.274
		c-0.429,0.794-0.132,1.781,0.668,2.209l2.869,1.544c0.791,0.426,1.781,0.127,2.205-0.666l1.225-2.274
		c0.334-0.623,0.214-1.356-0.235-1.855l4.225-7.861l0.956,0.513l-2.758,5.136c-1.711,3.174-0.515,7.13,2.659,8.836l122.821,66.026
		c3.174,1.707,7.128,0.517,8.834-2.657l-0.136,0.249l9.762,5.245l0.705-1.317l5.318,2.857l-3.71,6.913l-10.71,19.911l0.008,0.006
		l-1.509,2.805l1.183,0.773c-8.818,13.46-19.35,25.248-31.161,35.213l20.789,24.621c14.16-11.95,26.787-26.091,37.353-42.237
		l26.309,14.214l0.202,30.025c0.004,1.802-0.746,4.19-1.686,5.337c-0.94,1.148-0.293,2.461,1.443,2.937l17.52,4.786
		c1.736,0.476,3.055-0.598,2.939-2.395l-4.188-45.727c-0.14-1.573,0.157-3.203,0.961-4.7c2.181-4.056,7.235-5.578,11.295-3.395
		c0.433,0.233,1.838,1.329,2.119,1.622l89.328,94.719c1.892,1.931,4.736,1.743,6.361-0.419l36.301-48.809
		c1.62-2.162,1.006-4.953-1.373-6.231l-118.757-63.839l0.853-1.589l-3.838-2.065l1.777-16.065h0.004l0.169-1.535l0.515-4.64
		l-56.464-30.353c-5.042-2.708-11.345-0.812-14.053,4.228l-4.914,9.141l-2.263-1.216l0.709-1.315l-9.758-5.246l-0.136,0.252
		c1.707-3.174,0.515-7.13-2.655-8.834l-122.826-66.028c-3.174-1.707-7.132-0.518-8.838,2.657l-2.094-23.37l-7.305-3.929l-1.876,3.49
		l-1.373-0.738l-9.589,17.837l-51.769-27.826l-0.573,1.065l-3.83-2.059l-0.198,0.371c0.424-0.794,0.132-1.781-0.664-2.209
		l-16.729-8.991C210.373,305.363,209.383,305.658,208.954,306.452z M466.803,485.762c1.459-1.748,3.995-2.292,6.072-1.173
		l10.129,5.444l-3.491,6.493c-1.298,2.418-4.312,3.323-6.728,2.022c-0.293-0.155-0.655-0.046-0.808,0.245
		c-0.157,0.29-0.049,0.653,0.239,0.808l0.626,0.338c3.368,1.81,7.56,0.546,9.366-2.818l3.137-5.831l0.944,0.507l0.083,12.474
		c0.103,1.859-2.156,3.541-4.539,2.259l-16.098-8.653c-2.082-1.117-3.026-3.533-2.374-5.712L466.803,485.762z M461.436,424.671
		c1.645-3.067,5.466-4.213,8.533-2.566l43.359,23.308l-0.202,1.805l-1.298,11.697L464,433.204
		C460.937,431.557,459.787,427.733,461.436,424.671z M288.602,341.896l4.007-7.453l4.976-2.164l1.261-2.348l4.349,2.339l1.859,18.47
		L288.602,341.896z"/>
	<path d="M634.629,305.792l-16.729,8.993c-0.796,0.427-1.088,1.414-0.664,2.208l-0.198-0.371l-3.83,2.059l-0.573-1.065
		l-51.768,27.826l-9.589-17.837l-1.373,0.738l-1.876-3.49l-7.305,3.929l-2.098,23.37c-1.702-3.174-5.66-4.364-8.834-2.657
		l-122.825,66.028c-3.17,1.705-4.361,5.66-2.655,8.834l-0.136-0.252l-9.758,5.246l0.709,1.315l-2.263,1.216l-4.914-9.141
		c-2.708-5.04-9.012-6.936-14.053-4.228l-56.464,30.353l0.515,4.64l0.169,1.535l0.004-0.002l1.777,16.067l-3.838,2.065l0.854,1.589
		l-118.757,63.839c-2.378,1.278-2.992,4.068-1.372,6.231l36.301,48.809c1.624,2.162,4.469,2.35,6.361,0.417l89.327-94.717
		c0.28-0.293,1.686-1.389,2.119-1.622c4.06-2.183,9.115-0.661,11.295,3.393c0.804,1.499,1.1,3.129,0.96,4.702l-4.188,45.727
		c-0.115,1.797,1.204,2.871,2.939,2.395l17.52-4.786c1.735-0.476,2.383-1.789,1.443-2.937c-0.94-1.146-1.694-3.535-1.686-5.337
		l0.202-30.025l26.309-14.214c10.565,16.147,23.192,30.287,37.353,42.237l20.789-24.621c-11.811-9.966-22.343-21.754-31.161-35.213
		l1.183-0.773l-1.509-2.805l0.008-0.006l-10.71-19.911l-3.711-6.913l5.318-2.857l0.705,1.317l9.762-5.245l-0.136-0.249
		c1.707,3.174,5.66,4.364,8.834,2.657l122.822-66.026c3.174-1.707,4.369-5.662,2.659-8.836l-2.758-5.136l0.957-0.513l4.226,7.861
		c-0.45,0.499-0.573,1.233-0.235,1.855l1.224,2.274c0.425,0.793,1.414,1.092,2.206,0.666l2.869-1.544
		c0.799-0.428,1.092-1.416,0.668-2.209l-1.225-2.274c-0.358-0.668-1.109-0.954-1.81-0.785l-4.213-7.839l12.359-6.646l2.474,4.599
		l1.649-0.886l-0.326-0.598l2.42-1.298l0.388-0.711l-0.804-1.496l-0.808-0.068l-2.415,1.298l-0.334-0.668l53.121-28.558
		l-0.573-1.065l3.83-2.059l-0.198-0.371c0.424,0.794,1.414,1.092,2.205,0.666l16.733-8.993c0.792-0.427,1.092-1.418,0.664-2.212
		l-3.343-6.225C636.414,305.658,635.424,305.363,634.629,305.792z M382.435,492.166c0.651,2.179-0.293,4.594-2.374,5.712
		l-16.097,8.653c-2.383,1.282-4.642-0.4-4.539-2.259l0.082-12.474l0.944-0.507l3.137,5.831c1.805,3.364,5.998,4.627,9.366,2.816
		l0.626-0.336c0.288-0.154,0.396-0.518,0.239-0.808c-0.152-0.293-0.515-0.4-0.808-0.245c-2.415,1.301-5.429,0.396-6.727-2.022
		l-3.492-6.493l10.125-5.444c2.082-1.119,4.617-0.575,6.076,1.173L382.435,492.166z M381.797,433.204l-47.832,25.711l-1.294-11.697
		l-0.202-1.805l43.359-23.308c3.067-1.647,6.889-0.501,8.533,2.566C386.009,427.733,384.86,431.557,381.797,433.204z
		 M540.742,350.74l1.859-18.47l4.349-2.339l1.261,2.348l4.976,2.164l4.007,7.453L540.742,350.74z"/>
</g>
<g>
	<path fill="#FDB71D" d="M447.779,633.642c-7.891-5.731-15.053-10.809-22.057-16.095c-2.073-1.565-3.507-1.582-5.587-0.013
		c-7.006,5.285-14.167,10.364-22.046,16.085c2.4-7.416,4.493-13.973,6.644-20.51c2.865-8.709,2.871-8.685-4.499-14.017
		c-5.364-3.881-10.69-7.815-16.025-11.737c-0.147-0.108-0.198-0.349-0.521-0.956c7.82,0,15.405,0,22.991,0
		c6.708,0,6.709,0.001,8.759-6.286c2.361-7.24,4.72-14.482,7.434-22.81c0.721,2.048,1.127,3.134,1.487,4.236
		c2.447,7.481,4.955,14.944,7.273,22.465c0.585,1.897,1.489,2.456,3.392,2.434c7.881-0.093,15.764-0.038,23.646-0.037
		c1.08,0,2.16,0,3.241,0c0.066,0.225,0.132,0.449,0.198,0.674c-6.873,5.019-13.652,10.175-20.668,14.986
		c-2.556,1.753-2.996,3.318-1.995,6.167C442.279,616.284,444.793,624.451,447.779,633.642z"/>
	<polygon fill="#FDB71D" points="422.156,242.755 426.867,257.253 442.117,257.253 429.785,266.22 434.496,280.72 422.156,271.755 
		409.823,280.72 414.534,266.22 402.198,257.253 417.449,257.253 	"/>
	<polygon fill="#FDB71D" points="332.466,570.637 337.177,585.135 352.428,585.135 340.095,594.102 344.806,608.602 
		332.466,599.637 320.134,608.602 324.845,594.102 312.509,585.135 327.759,585.135 	"/>
	<polygon fill="#FDB71D" points="513.326,570.637 518.037,585.135 533.288,585.135 520.955,594.102 525.666,608.602 
		513.326,599.637 500.994,608.602 505.705,594.102 493.369,585.135 508.619,585.135 	"/>
</g>
</svg>
