<?xml version="1.0" encoding="utf-8"?>
<!-- Generator: Adobe Illustrator 24.3.0, SVG Export Plug-In . SVG Version: 6.00 Build 0)  -->
<svg version="1.1" id="Layer_6" xmlns="http://www.w3.org/2000/svg" xmlns:xlink="http://www.w3.org/1999/xlink" x="0px" y="0px"
	 viewBox="0 0 197.485 231.222" enable-background="new 0 0 197.485 231.222" xml:space="preserve">
<g>
	<path fill="#E21D40" d="M81.842,209.438c-5.403,6.188-9.076,13.614-9.741,21.784c-1.836-8.397-3.673-16.954-4.977-25.524
		C71.874,207.309,76.798,208.572,81.842,209.438z"/>
	<path fill="#E21D40" d="M59.104,176.03c-21.536-13.306-35.894-37.119-35.894-64.294c0-7.29,1.053-14.329,2.98-20.998
		c-1.692-0.261-3.282-0.781-4.71-1.544c-2.084,7.155-3.223,14.714-3.223,22.542c0,29.935,16.355,56.033,40.605,69.899
		C58.89,179.768,58.978,177.899,59.104,176.03z"/>
	<path fill="#E21D40" d="M135.127,39.952c-0.197,0.678-0.423,1.349-0.699,2.002c-0.283,0.67-0.614,1.321-0.949,1.97
		c-0.102,0.197-0.198,0.398-0.297,0.596c24.392,12.523,41.091,37.911,41.091,67.215c0,27.505-14.706,51.569-36.679,64.777
		c-0.797,3.115-2.251,5.691-4.066,7.819c27.033-12.977,45.698-40.606,45.698-72.596C179.226,80.384,161.288,53.24,135.127,39.952z"
		/>
	<path fill="#E21D40" d="M126.648,17.422c-0.2-1.158-0.346-2.329-0.625-3.566c-0.812-3.593-4.565-7.479-7.093-10.061
		c-4.112-4.218-7.798-0.931-12.522-2.968c-0.386-0.173-0.759-0.386-1.171-0.532c-3.793-1.264-9.595,1.85-12.962,3.26
		c-3.646,1.53-6.774,4.112-9.315,7.119c-0.572,0.679-1.104,1.384-1.623,2.076c-0.745,0.971-1.49,1.89-2.355,2.635
		C33.974,24.569,0,64.452,0,112.146c0,43.383,28.132,80.325,67.11,93.552h0.013c4.751,1.61,9.675,2.874,14.718,3.74
		c5.496,0.958,11.138,1.451,16.901,1.451c54.441,0,98.742-44.301,98.742-98.743C197.485,67.379,167.543,29.492,126.648,17.422z
		 M5.323,112.146c0-39.869,25.111-73.99,60.35-87.364c-0.319,1.158-0.639,2.289-0.958,3.433c-0.972,3.526-2.888,4.831-6.521,4.564
		c-2.422-0.186-4.977,0.293-6.933,1.743c-1.956,1.451-3.18,3.992-2.675,6.374c0.346,1.624,1.424,2.994,2.502,4.285
		c2.156,2.582,4.578,5.389,4.604,8.769c0.013,2.156-1.065,4.285-2.795,5.563c-1.743,1.277-4.099,1.663-6.148,1.011
		c-2.076-0.665-4.046-2.515-5.536-3.739c-1.051-0.852-2.502-0.985-3.846-1.078c-3.207-0.213-7.093,1.038-8.69,4.165
		c-0.519,1.038-1.051,2.076-1.411,3.167c-0.772,2.329-0.333,4.059,0.346,6.308c0.665,2.169,2.289,3.46,2.994,5.549
		c0.506,1.45,0.146,3.327-1.198,4.085c-0.519,0.293-1.131,0.386-1.717,0.413c-1.424,0.093-2.954-0.186-3.952-1.211
		c-0.985-1.011-1.118-2.914,0.027-3.753c-2.542,1.091-3.194,4.791-1.65,7.106c1.53,2.302,4.564,3.261,7.332,3.034
		c2.063-0.173,4.125-0.945,5.602-2.408c1.477-1.464,2.262-3.673,1.783-5.696c-0.413-1.663-1.57-3.021-2.329-4.551
		c-0.745-1.544-0.945-3.633,0.333-4.751c0.413-0.359,0.918-0.572,1.45-0.705c2.462-0.639,4.737,0.453,6.015,2.662
		c1.384,2.408,2.715,4.817,4.139,7.239c0.998,1.69,2.369,2.768,4.032,3.792c2.728,1.677,6.188,2.196,9.369,1.877
		c1.85-0.186,3.274-0.759,4.471-1.557c-4.298,37.235,1.77,54.774,1.77,54.774c17.207-16.821,38.858-19.349,42.771-19.682
		c-16.288,4.258-28.944,17.1-33.708,22.517c-1.89,7.106-4.817,14.026-6.84,21.226c-3.699,13.161-3.673,26.801-2.009,40.442
		C30.727,186.535,5.323,152.255,5.323,112.146z M98.742,205.565c-4.165,0-8.264-0.279-12.283-0.799
		c4.285-3.819,9.235-7,14.399-9.369c4.538-2.076,9.023-4.405,13.521-6.507c0.971-0.453,1.93-0.892,2.888-1.304
		c6.986-3.087,13.76-6.76,14.572-14.732c1.198-11.884,0.226-25.218-7.519-34.786c-5.044-6.241-16.701-14.825-10.247-23.807
		c3.54-4.924,11.91-4.046,13.813-10.766c0.08-0.293,0.16-0.599,0.213-0.918c0.466-2.528-0.279-5.097-1.743-7.213
		c-0.067-0.12-0.146-0.253-0.24-0.399c-4.631-8.251-15.317-10.912-22.876-5.216c-6.241,4.711-8.197,10.446-8.197,10.446
		c-0.639-5.656-3.194-9.568-5.736-12.136c-2.928-2.968-7.958-2.701-10.38,0.772c-6.8,9.861-3.047,21.945-2.076,32.857
		c-5.31,3.087-8.477,6.015-8.477,6.015c-5.137-22.037,0-52.312,0-52.312c0.399-0.812,0.785-1.663,1.171-2.542
		c1.397-3.274,4.857-4.205,8.131-4.112c5.283,0.147,10.806,2.302,15.41,4.778c2.635-2.622,3.087-8.131,2.994-12.336
		c-9.874-8.544-10.18-22.224-7.506-33.988c1.091-4.791,7.905-4.711,11.205-1.597c1.371,1.291,1.903,3.221,2.316,5.057
		c0.665,2.994,1.57,6.467,4.405,7.625c1.238,0.506,2.622,0.426,3.952,0.612c2.968,0.413,5.722,2.209,7.293,4.764
		c4.485,7.226-3.021,15.304-9.262,18.604c-0.945,8.477,2.568,12.176,2.568,12.176s19.908,3.247,27.041,11.578
		c7.146,8.344,21.066,40.947,21.066,42.238c0,9.741-22.636,24.26-24.06,25.165c25.151-12.257,29.237-24.513,29.237-24.513
		s-18.098-40.508-24.353-46.324c-6.241-5.815-28.119-10.46-28.119-10.46c-0.12-0.745-0.373-1.544-0.373-2.395v-0.067
		c0.04-2.156,0.772-4.312,2.103-6.015c2.728-3.513,7.346-4.804,10.18-8.184c3.46-4.112,1.397-8.583,3.407-13.108
		c0.426-0.971,0.985-1.89,1.397-2.861c1.424-3.354,1.264-7.812,1.091-11.418c-0.067-1.584-0.572-3.034-1.158-4.484
		c36.968,12.469,63.65,47.455,63.65,88.562C192.162,163.659,150.256,205.565,98.742,205.565z"/>
</g>
</svg>
