<?xml version="1.0" encoding="utf-8"?>
<!-- Generator: Adobe Illustrator 24.3.0, SVG Export Plug-In . SVG Version: 6.00 Build 0)  -->
<svg version="1.1" id="Layer_5" xmlns="http://www.w3.org/2000/svg" xmlns:xlink="http://www.w3.org/1999/xlink" x="0px" y="0px"
	 viewBox="0 0 191.29 191.29" enable-background="new 0 0 191.29 191.29" xml:space="preserve">
<g>
	<path fill-rule="evenodd" clip-rule="evenodd" fill="#1C1C1C" d="M191.29,95.645c0,1.993-0.064,3.972-0.191,5.927
		c-0.434,7.293-1.699,14.37-3.692,21.127c-0.013,0-0.013,0-0.013,0.013c-4.688,15.941-13.424,30.157-25.022,41.449
		c-1.265,1.239-2.555,2.44-3.883,3.589c-10.717,9.35-23.528,16.35-37.655,20.194c-0.945,0.268-1.89,0.498-2.848,0.728
		c-1.009,0.243-2.031,0.473-3.066,0.677c-0.766,0.153-1.533,0.307-2.299,0.447c-0.038,0-0.077,0.013-0.115,0.013
		c-0.741,0.128-1.482,0.255-2.223,0.37c-1.673,0.255-3.359,0.473-5.058,0.626c-0.37,0.051-0.754,0.089-1.124,0.102
		c-0.69,0.077-1.379,0.128-2.069,0.166c-0.128,0.013-0.256,0.013-0.383,0.025c-1.98,0.128-3.985,0.192-6.003,0.192
		c-0.511,0-1.009,0-1.52-0.026c-1.098-0.025-2.21-0.064-3.321-0.115c-1.392-0.077-2.772-0.179-4.164-0.307
		c-28.893-2.67-54.056-18.227-69.703-40.848C6.259,134.565,0,115.839,0,95.645c0-42.266,27.411-78.12,65.424-90.766
		C74.927,1.712,85.082,0,95.645,0c40.44,0,75.016,25.099,89.016,60.57c0,0.013,0.013,0.025,0.013,0.038
		C188.94,71.453,191.29,83.281,191.29,95.645z"/>
</g>
<g>
	<path fill-rule="evenodd" clip-rule="evenodd" fill="#4BB7C3" d="M158.974,53.174c0.881-0.651,2.108-0.473,2.772,0.409
		c11.202,15.034,1.916,28.446-6.91,41.219c-3.832,5.531-7.562,10.921-9.248,16.081c-2.784,8.52-1.724,15.136,1.558,19.453
		c1.686,2.235,3.972,3.87,6.629,4.841c2.708,1.009,5.786,1.316,9.005,0.894c7.881-1.047,16.503-6.565,22.417-17.474
		c2.746-5.058,4.752-10.908,5.901-17.027c0.128-1.954,0.191-3.934,0.191-5.927c0-12.364-2.35-24.192-6.616-35.037
		c0-0.013-0.013-0.026-0.013-0.038c-4.649-8.379-11.189-15.404-19.249-20.309c-11.623-7.064-26.44-9.733-43.275-5.671
		c-1.469,0.358-2.951,0.754-4.42,1.201c-8.967,2.733-12.096,7.664-14.676,11.713c-1.942,3.053-3.449,7.23-11.853,11.317
		c-3.653,1.571-8.137,3.385-12.173,4.994C69,67.8,67.02,67.506,71.031,78.555c1.98,5.429,5.109,11.419,9.797,15.928
		c3.564,3.423,8.047,5.991,13.654,6.808c11.713,1.673,16.682-3.372,18.521-14.331c16.324,6.22,26.108,27.475,20.118,47.171
		c-0.817,2.67-1.265,5.135-1.405,7.408c-0.319,5.301,1.162,9.516,4.011,12.773c2.925,3.359,7.306,5.799,12.684,7.434
		c4.138,1.252,8.852,2.044,13.961,2.414c11.598-11.291,20.335-25.508,25.022-41.449c-6.527,10.653-15.647,16.145-24.103,17.269
		c-3.857,0.511-7.587,0.115-10.883-1.098c-3.347-1.239-6.259-3.321-8.418-6.169c-4.011-5.288-5.39-13.156-2.159-23.043
		c1.865-5.697,5.761-11.33,9.759-17.103c8.047-11.636,16.503-23.86,6.987-36.633C157.927,55.065,158.105,53.826,158.974,53.174z
		 M124.538,58.45c-0.46,0.984-1.635,1.405-2.618,0.945c-0.996-0.473-1.418-1.635-0.945-2.631c0.434-0.907,0.473-1.916,0.192-2.823
		c-0.281-0.907-0.894-1.712-1.776-2.21v-0.013c-0.881-0.498-1.878-0.626-2.797-0.421c-0.932,0.204-1.775,0.754-2.35,1.584
		c-0.613,0.894-1.839,1.124-2.733,0.498c-0.907-0.613-1.124-1.839-0.511-2.733c1.162-1.673,2.861-2.772,4.739-3.193
		c1.839-0.409,3.857-0.166,5.62,0.856h0.013c1.775,1.035,2.989,2.644,3.564,4.458C125.496,54.592,125.406,56.623,124.538,58.45z"/>
</g>
<g>
	<path fill-rule="evenodd" clip-rule="evenodd" fill="#999999" d="M158.489,167.749c-4.011-0.46-7.779-1.201-11.215-2.235
		c-6.08-1.852-11.1-4.662-14.523-8.609c-3.513-4.036-5.352-9.184-4.969-15.596c0.153-2.567,0.664-5.339,1.571-8.328
		c1.993-6.527,2.005-14.395-0.166-21.765c-1.622-5.505-4.458-10.704-8.596-14.842c-0.843,3.679-2.593,6.348-4.866,8.303
		c-2.925,2.516-6.629,3.755-10.346,4.42l-2.274,0.409c-6.105,1.06-7.562,1.316-14.587,5.748l-0.422,0.255l-0.485,0.038
		c0,0-4.343,0.358-8.162-0.843c-0.933-0.281-1.724-0.153-2.376,0.613c-1.035,1.213-1.903,3.615-2.644,7.574
		c-0.588,3.104-0.588,5.71,0.051,7.868c0.6,2.044,1.801,3.743,3.666,5.16c1.993,1.507,3.883,2.695,5.607,3.781
		c7.511,4.739,12.224,7.702,9.554,21.778c-1.507,7.958-5.978,23.707-10.857,28.867c1.392,0.204,2.797,0.358,4.19,0.498
		c1.392,0.128,2.772,0.23,4.164,0.307c1.111,0.051,2.223,0.089,3.321,0.115c2.529,0.038,5.033-0.013,7.523-0.166
		c0.128-0.013,0.255-0.013,0.383-0.025c0.69-0.038,1.379-0.089,2.069-0.166c0.37-0.013,0.754-0.051,1.124-0.102
		c1.699-0.153,3.385-0.37,5.058-0.626c0.741-0.115,1.482-0.243,2.223-0.37c0.038,0,0.077-0.013,0.115-0.013
		c0.766-0.14,1.533-0.294,2.299-0.447c1.035-0.204,2.057-0.434,3.066-0.677c0.958-0.23,1.903-0.46,2.848-0.728
		c7.178-1.903,14.089-4.649,20.603-8.149c6.221-3.347,12.083-7.357,17.461-11.994C158.757,167.787,158.616,167.775,158.489,167.749z
		 M97.088,122.724c-1.993,0-3.615-1.609-3.615-3.615c0-1.993,1.622-3.615,3.615-3.615s3.615,1.622,3.615,3.615
		C100.703,121.115,99.081,122.724,97.088,122.724z"/>
</g>
<g>
	<path fill-rule="evenodd" clip-rule="evenodd" fill="#8BA542" d="M57.287,85.682c3.206,12.275,5.965,24.077,3.653,35.777
		c-2.235,11.355-9.299,22.826-25.431,34.947l-0.294-0.281c-15.634-14.778-21.267-36.799-20.156-58.373
		c1.124-21.663,9.031-42.803,20.45-55.755c0.447-0.511,0.868-0.971,1.252-1.38c0.754-0.779,0.715-2.031-0.077-2.772
		c-0.792-0.754-2.031-0.715-2.772,0.077c-0.498,0.524-0.945,1.009-1.354,1.469c-11.98,13.579-20.27,35.638-21.433,58.157
		c-1.137,21.957,4.483,44.425,19.977,60.059c-4.943-1.916-9.912-4.356-14.165-7.613C6.259,134.565,0,115.839,0,95.645
		c0-42.266,27.411-78.12,65.424-90.766c-8.315,10.244-12.339,21.535-13.616,33.376C50.147,53.558,53.098,69.703,57.287,85.682z"/>
</g>
</svg>
