<?xml version="1.0" encoding="utf-8"?>
<!-- Generator: Adobe Illustrator 24.3.0, SVG Export Plug-In . SVG Version: 6.00 Build 0)  -->
<svg version="1.1" id="Layer_2" xmlns="http://www.w3.org/2000/svg" xmlns:xlink="http://www.w3.org/1999/xlink" x="0px" y="0px"
	 viewBox="0 0 283.88 142.669" enable-background="new 0 0 283.88 142.669" xml:space="preserve">
<g>
	<path fill="#009345" d="M141.796,47.145c0.864,0.853,1.539,1.706,2.163,2.559c0.614,0.853,1.158,1.706,1.643,2.559
		c0.966,1.706,1.72,3.412,2.299,5.118c1.159,3.412,1.662,6.824,1.673,10.236c0.004,3.412-0.494,6.824-1.65,10.236
		c-0.58,1.706-1.334,3.412-2.303,5.118c-0.487,0.853-1.032,1.706-1.65,2.559c-0.627,0.853-1.305,1.706-2.174,2.559
		c-0.87-0.853-1.548-1.706-2.174-2.559c-0.618-0.853-1.164-1.706-1.65-2.559c-0.97-1.706-1.724-3.412-2.303-5.118
		c-1.156-3.412-1.654-6.824-1.65-10.236c0.01-3.412,0.513-6.824,1.673-10.236c0.58-1.706,1.333-3.412,2.3-5.118
		c0.485-0.853,1.028-1.706,1.643-2.559C140.257,48.851,140.931,47.998,141.796,47.145z"/>
	<path fill="#009345" d="M202.974,67.617c-1.212,0.085-2.279,0.294-3.308,0.535c-1.022,0.248-1.99,0.542-2.913,0.874
		c-1.844,0.666-3.527,1.471-5.077,2.389c-3.101,1.836-5.704,4.099-7.932,6.683c-2.224,2.588-4.067,5.502-5.41,8.845
		c-0.67,1.673-1.208,3.458-1.583,5.385c-0.186,0.964-0.327,1.967-0.413,3.017c-0.08,1.055-0.12,2.144-0.015,3.358
		c1.216-0.081,2.286-0.288,3.317-0.528c1.024-0.246,1.994-0.538,2.918-0.869c1.847-0.664,3.529-1.469,5.08-2.387
		c3.098-1.838,5.697-4.104,7.915-6.698c2.213-2.597,4.052-5.515,5.393-8.86c0.67-1.673,1.209-3.458,1.585-5.382
		c0.187-0.963,0.33-1.965,0.419-3.012C203.032,69.914,203.075,68.828,202.974,67.617z"/>
	<path fill="#009345" d="M240.265,107.323c-1.097-0.52-2.13-0.862-3.145-1.156c-1.012-0.285-1.999-0.504-2.967-0.667
		c-1.934-0.324-3.795-0.448-5.596-0.409c-3.603,0.078-6.981,0.774-10.191,1.932c-3.208,1.164-6.243,2.8-9.053,5.054
		c-1.405,1.129-2.75,2.421-4.021,3.916c-0.635,0.749-1.25,1.554-1.84,2.426c-0.587,0.881-1.156,1.81-1.66,2.919
		c1.099,0.525,2.133,0.87,3.149,1.167c1.013,0.288,2.001,0.509,2.969,0.674c1.935,0.327,3.796,0.451,5.597,0.412
		c3.602-0.082,6.978-0.782,10.183-1.953c3.203-1.178,6.236-2.818,9.046-5.075c1.405-1.129,2.75-2.421,4.022-3.913
		c0.636-0.748,1.251-1.55,1.842-2.419C239.189,109.353,239.76,108.427,240.265,107.323z"/>
	<path fill="#009345" d="M80.907,67.617c1.212,0.085,2.279,0.294,3.308,0.535c1.022,0.248,1.99,0.542,2.913,0.874
		c1.844,0.666,3.526,1.471,5.077,2.389c3.101,1.836,5.704,4.099,7.932,6.683c2.224,2.588,4.067,5.502,5.41,8.845
		c0.67,1.673,1.208,3.458,1.583,5.385c0.186,0.964,0.327,1.967,0.413,3.017c0.079,1.055,0.12,2.144,0.015,3.358
		c-1.215-0.081-2.286-0.288-3.316-0.528c-1.024-0.246-1.994-0.538-2.918-0.869c-1.847-0.664-3.529-1.469-5.08-2.387
		c-3.098-1.838-5.698-4.104-7.915-6.698c-2.213-2.597-4.052-5.515-5.393-8.86c-0.67-1.673-1.209-3.458-1.585-5.382
		c-0.187-0.963-0.33-1.965-0.419-3.012C80.849,69.914,80.806,68.828,80.907,67.617z"/>
	<path fill="#009345" d="M43.615,107.323c1.097-0.52,2.13-0.862,3.145-1.156c1.012-0.285,1.999-0.504,2.967-0.667
		c1.934-0.324,3.795-0.448,5.596-0.409c3.603,0.078,6.981,0.774,10.191,1.932c3.208,1.164,6.243,2.8,9.053,5.054
		c1.405,1.129,2.75,2.421,4.021,3.916c0.635,0.749,1.25,1.554,1.84,2.426c0.587,0.881,1.156,1.81,1.66,2.919
		c-1.099,0.525-2.133,0.87-3.149,1.167c-1.013,0.288-2.001,0.509-2.969,0.674c-1.935,0.327-3.796,0.451-5.598,0.412
		c-3.602-0.082-6.978-0.782-10.183-1.953c-3.203-1.178-6.236-2.818-9.046-5.075c-1.405-1.129-2.75-2.421-4.022-3.913
		c-0.636-0.748-1.251-1.55-1.842-2.419C44.691,109.353,44.121,108.427,43.615,107.323z"/>
</g>
<g>
	<path fill="#1C442A" d="M141.796,93.869c0.864,0.853,1.539,1.706,2.163,2.559c0.614,0.853,1.158,1.706,1.643,2.559
		c0.966,1.706,1.72,3.412,2.299,5.118c1.159,3.412,1.662,6.824,1.673,10.236c0.004,3.412-0.494,6.824-1.65,10.236
		c-0.58,1.706-1.334,3.412-2.303,5.118c-0.487,0.853-1.032,1.706-1.65,2.559c-0.627,0.853-1.305,1.706-2.174,2.559
		c-0.87-0.853-1.548-1.706-2.174-2.559c-0.618-0.853-1.164-1.706-1.65-2.559c-0.97-1.706-1.724-3.412-2.303-5.118
		c-1.156-3.412-1.654-6.824-1.65-10.236c0.01-3.412,0.513-6.824,1.673-10.236c0.58-1.706,1.333-3.412,2.3-5.118
		c0.485-0.853,1.028-1.706,1.643-2.559C140.257,95.575,140.931,94.722,141.796,93.869z"/>
	<path fill="#1C442A" d="M175.532,106.586c-1.212,0.085-2.279,0.293-3.308,0.534c-1.022,0.247-1.99,0.541-2.913,0.873
		c-1.844,0.666-3.527,1.47-5.078,2.387c-3.102,1.835-5.705,4.097-7.935,6.68c-2.225,2.587-4.069,5.501-5.413,8.843
		c-0.671,1.672-1.21,3.458-1.585,5.384c-0.186,0.964-0.327,1.967-0.414,3.016c-0.08,1.055-0.121,2.144-0.016,3.358
		c1.215-0.081,2.286-0.287,3.317-0.526c1.024-0.245,1.994-0.537,2.919-0.868c1.847-0.663,3.53-1.467,5.081-2.385
		c3.099-1.837,5.699-4.102,7.918-6.695c2.214-2.596,4.054-5.513,5.396-8.858c0.671-1.672,1.21-3.458,1.587-5.382
		c0.188-0.963,0.331-1.964,0.42-3.012C175.589,108.883,175.632,107.796,175.532,106.586z"/>
	<path fill="#1C442A" d="M206.156,129.316c-1.034-0.637-2.022-1.09-2.999-1.494c-0.974-0.395-1.932-0.72-2.876-0.989
		c-1.887-0.534-3.723-0.862-5.518-1.02c-3.59-0.317-7.024,0.003-10.341,0.803c-3.316,0.805-6.512,2.098-9.553,4.03
		c-1.52,0.968-2.999,2.105-4.426,3.452c-0.713,0.675-1.413,1.407-2.095,2.21c-0.68,0.811-1.348,1.672-1.97,2.72
		c1.035,0.643,2.024,1.099,3.002,1.505c0.975,0.398,1.933,0.726,2.877,0.996c1.887,0.537,3.724,0.865,5.518,1.024
		c3.589,0.314,7.022-0.011,10.336-0.825c3.312-0.819,6.508-2.117,9.548-4.052c1.52-0.968,2.999-2.104,4.427-3.448
		c0.714-0.673,1.414-1.403,2.096-2.203C204.863,131.216,205.532,130.358,206.156,129.316z"/>
	<path fill="#1C442A" d="M108.348,106.586c1.212,0.085,2.279,0.293,3.308,0.534c1.022,0.247,1.99,0.541,2.913,0.873
		c1.844,0.666,3.527,1.47,5.078,2.387c3.102,1.835,5.705,4.097,7.935,6.68c2.225,2.587,4.069,5.501,5.413,8.843
		c0.671,1.672,1.21,3.458,1.585,5.384c0.186,0.964,0.327,1.967,0.414,3.016c0.08,1.055,0.121,2.144,0.016,3.358
		c-1.215-0.081-2.286-0.287-3.317-0.526c-1.024-0.245-1.994-0.537-2.919-0.868c-1.847-0.663-3.53-1.467-5.081-2.385
		c-3.099-1.837-5.699-4.102-7.918-6.695c-2.214-2.596-4.054-5.513-5.396-8.858c-0.671-1.672-1.21-3.458-1.587-5.382
		c-0.187-0.963-0.331-1.964-0.42-3.012C108.292,108.883,108.248,107.796,108.348,106.586z"/>
	<path fill="#1C442A" d="M77.725,129.316c1.034-0.637,2.022-1.09,2.999-1.494c0.974-0.395,1.932-0.72,2.876-0.989
		c1.887-0.534,3.723-0.862,5.518-1.02c3.59-0.317,7.024,0.003,10.341,0.803c3.316,0.805,6.512,2.098,9.553,4.03
		c1.52,0.968,2.999,2.105,4.426,3.452c0.713,0.675,1.413,1.407,2.095,2.21c0.68,0.811,1.348,1.672,1.971,2.72
		c-1.035,0.643-2.024,1.099-3.002,1.505c-0.975,0.398-1.933,0.726-2.877,0.996c-1.887,0.537-3.724,0.865-5.519,1.024
		c-3.589,0.314-7.022-0.011-10.336-0.825c-3.312-0.819-6.508-2.117-9.548-4.052c-1.52-0.968-2.999-2.104-4.427-3.448
		c-0.714-0.673-1.414-1.403-2.097-2.203C79.017,131.216,78.349,130.358,77.725,129.316z"/>
	<path fill="#1C442A" d="M254.207,77.396c-1.185-0.267-2.267-0.374-3.322-0.439c-1.05-0.056-2.061-0.053-3.041-0.001
		c-1.958,0.108-3.8,0.395-5.55,0.828c-3.498,0.867-6.642,2.286-9.519,4.12c-2.874,1.839-5.477,4.101-7.725,6.916
		c-1.123,1.409-2.152,2.965-3.064,4.702c-0.455,0.87-0.879,1.79-1.263,2.771c-0.38,0.988-0.732,2.019-0.98,3.212
		c1.188,0.271,2.272,0.382,3.328,0.448c1.051,0.059,2.064,0.058,3.045,0.007c1.96-0.105,3.803-0.392,5.552-0.825
		c3.496-0.87,6.637-2.293,9.507-4.139c2.866-1.851,5.467-4.117,7.712-6.935c1.123-1.409,2.152-2.965,3.066-4.699
		c0.456-0.869,0.881-1.787,1.267-2.764C253.602,79.612,253.956,78.584,254.207,77.396z"/>
	<path fill="#1C442A" d="M193.082,37.016c-1.14,0.42-2.107,0.918-3.027,1.436c-0.912,0.523-1.759,1.075-2.553,1.651
		c-1.585,1.154-2.976,2.396-4.21,3.71c-2.466,2.628-4.334,5.527-5.754,8.63c-1.414,3.105-2.371,6.418-2.729,10.003
		c-0.177,1.793-0.196,3.658-0.018,5.613c0.091,0.978,0.235,1.98,0.445,3.012c0.218,1.036,0.483,2.093,0.922,3.229
		c1.145-0.417,2.115-0.914,3.038-1.431c0.915-0.522,1.764-1.073,2.56-1.648c1.588-1.153,2.98-2.395,4.213-3.709
		c2.463-2.629,4.327-5.53,5.733-8.639c1.401-3.111,2.354-6.426,2.708-10.012c0.177-1.793,0.196-3.658,0.022-5.611
		c-0.089-0.977-0.231-1.978-0.438-3.009C193.779,39.205,193.517,38.15,193.082,37.016z"/>
	<path fill="#1C442A" d="M164.643,22.569c-1.032,0.64-1.879,1.323-2.676,2.016c-0.788,0.696-1.507,1.407-2.169,2.132
		c-1.32,1.45-2.433,2.946-3.376,4.482c-1.887,3.07-3.133,6.286-3.899,9.612c-0.76,3.326-1.03,6.764-0.659,10.347
		c0.188,1.792,0.545,3.623,1.112,5.501c0.286,0.94,0.629,1.892,1.042,2.861c0.422,0.971,0.895,1.953,1.554,2.977
		c1.037-0.639,1.887-1.321,2.687-2.014c0.791-0.695,1.512-1.406,2.176-2.13c1.324-1.449,2.437-2.946,3.38-4.481
		c1.883-3.071,3.125-6.288,3.876-9.616c0.746-3.33,1.011-6.768,0.637-10.353c-0.188-1.792-0.544-3.623-1.109-5.5
		c-0.284-0.939-0.625-1.891-1.035-2.859C165.766,24.573,165.297,23.592,164.643,22.569z"/>
	<path fill="#1C442A" d="M232.344,56.624c-1.213,0.063-2.284,0.251-3.317,0.474c-1.026,0.229-1.999,0.505-2.928,0.82
		c-1.856,0.632-3.553,1.406-5.12,2.295c-3.135,1.778-5.779,3.993-8.054,6.535c-2.271,2.546-4.168,5.426-5.573,8.744
		c-0.701,1.66-1.272,3.435-1.682,5.355c-0.204,0.961-0.363,1.961-0.469,3.009c-0.099,1.054-0.16,2.142-0.077,3.357
		c1.217-0.059,2.29-0.245,3.325-0.466c1.029-0.227,2.003-0.501,2.934-0.815c1.859-0.63,3.556-1.403,5.123-2.292
		c3.132-1.781,5.772-3.998,8.038-6.55c2.261-2.556,4.153-5.439,5.556-8.759c0.701-1.66,1.272-3.435,1.685-5.352
		c0.205-0.96,0.366-1.958,0.474-3.004C232.36,58.921,232.423,57.836,232.344,56.624z"/>
	<path fill="#1C442A" d="M29.673,77.396c1.185-0.267,2.267-0.374,3.322-0.439c1.05-0.056,2.061-0.053,3.041-0.001
		c1.958,0.108,3.801,0.395,5.55,0.828c3.498,0.867,6.642,2.286,9.519,4.12c2.874,1.839,5.477,4.101,7.725,6.916
		c1.123,1.409,2.152,2.965,3.064,4.702c0.455,0.87,0.879,1.79,1.263,2.771c0.38,0.988,0.731,2.019,0.98,3.212
		c-1.188,0.271-2.272,0.382-3.328,0.448c-1.051,0.059-2.064,0.058-3.045,0.007c-1.96-0.105-3.803-0.392-5.551-0.825
		c-3.496-0.87-6.637-2.293-9.507-4.139c-2.866-1.851-5.467-4.117-7.712-6.935c-1.123-1.409-2.152-2.965-3.066-4.699
		c-0.456-0.869-0.881-1.787-1.267-2.764C30.278,79.612,29.924,78.584,29.673,77.396z"/>
	<path fill="#1C442A" d="M90.798,37.016c1.14,0.42,2.106,0.918,3.027,1.436c0.912,0.523,1.759,1.075,2.554,1.651
		c1.585,1.154,2.976,2.396,4.21,3.71c2.466,2.628,4.334,5.527,5.754,8.63c1.414,3.105,2.371,6.418,2.729,10.003
		c0.177,1.793,0.196,3.658,0.018,5.613c-0.091,0.978-0.235,1.98-0.445,3.012c-0.218,1.036-0.483,2.093-0.922,3.229
		c-1.145-0.417-2.115-0.914-3.038-1.431c-0.915-0.522-1.764-1.073-2.56-1.648c-1.588-1.153-2.98-2.395-4.213-3.709
		c-2.463-2.629-4.327-5.53-5.733-8.639c-1.401-3.111-2.354-6.426-2.708-10.012c-0.177-1.793-0.196-3.658-0.021-5.611
		c0.089-0.977,0.231-1.978,0.438-3.009C90.102,39.205,90.364,38.15,90.798,37.016z"/>
	<path fill="#1C442A" d="M119.237,22.569c1.032,0.64,1.879,1.323,2.676,2.016c0.788,0.696,1.507,1.407,2.169,2.132
		c1.32,1.45,2.433,2.946,3.376,4.482c1.887,3.07,3.133,6.286,3.899,9.612c0.76,3.326,1.03,6.764,0.659,10.347
		c-0.188,1.792-0.545,3.623-1.112,5.501c-0.286,0.94-0.629,1.892-1.042,2.861c-0.422,0.971-0.895,1.953-1.554,2.977
		c-1.037-0.639-1.887-1.321-2.687-2.014c-0.791-0.695-1.513-1.406-2.176-2.13c-1.324-1.449-2.437-2.946-3.38-4.481
		c-1.883-3.071-3.125-6.288-3.876-9.616c-0.746-3.33-1.011-6.768-0.636-10.353c0.188-1.792,0.544-3.623,1.109-5.5
		c0.284-0.939,0.625-1.891,1.035-2.859C118.114,24.573,118.583,23.592,119.237,22.569z"/>
	<path fill="#1C442A" d="M51.536,56.624c1.213,0.063,2.284,0.251,3.317,0.474c1.026,0.229,1.999,0.505,2.928,0.82
		c1.856,0.632,3.553,1.406,5.12,2.295c3.135,1.778,5.779,3.993,8.054,6.535c2.271,2.546,4.168,5.426,5.572,8.744
		c0.701,1.66,1.272,3.435,1.682,5.355c0.204,0.961,0.363,1.961,0.469,3.009c0.099,1.054,0.16,2.142,0.077,3.357
		c-1.217-0.059-2.29-0.245-3.326-0.466c-1.028-0.227-2.003-0.501-2.934-0.815c-1.859-0.63-3.556-1.403-5.123-2.292
		c-3.132-1.781-5.772-3.998-8.038-6.55c-2.26-2.556-4.153-5.439-5.555-8.759c-0.701-1.66-1.272-3.435-1.685-5.352
		c-0.205-0.96-0.366-1.958-0.474-3.004C51.521,58.921,51.457,57.836,51.536,56.624z"/>
</g>
<g>
	<path fill="#026634" d="M167.878,67.617c-1.084,0.546-1.988,1.151-2.844,1.772c-0.847,0.623-1.626,1.268-2.349,1.931
		c-1.443,1.327-2.684,2.72-3.76,4.165c-2.151,2.891-3.677,5.985-4.734,9.229c-1.051,3.246-1.625,6.646-1.572,10.249
		c0.028,1.802,0.222,3.657,0.621,5.578c0.201,0.961,0.459,1.941,0.785,2.942c0.334,1.004,0.718,2.024,1.284,3.103
		c1.09-0.545,1.997-1.149,2.855-1.768c0.85-0.622,1.631-1.267,2.356-1.929c1.447-1.326,2.688-2.718,3.763-4.164
		c2.147-2.893,3.669-5.987,4.712-9.236c1.038-3.251,1.607-6.652,1.55-10.256c-0.028-1.802-0.221-3.657-0.617-5.577
		c-0.2-0.961-0.455-1.939-0.778-2.94C168.819,69.713,168.438,68.695,167.878,67.617z"/>
	<path fill="#026634" d="M212.023,94.548c-1.198-0.198-2.285-0.242-3.342-0.245c-1.051,0.004-2.061,0.066-3.036,0.175
		c-1.948,0.221-3.771,0.614-5.492,1.148c-3.442,1.067-6.498,2.666-9.264,4.664c-2.763,2.002-5.231,4.411-7.311,7.352
		c-1.04,1.472-1.977,3.084-2.787,4.872c-0.404,0.895-0.773,1.838-1.1,2.839c-0.322,1.008-0.613,2.058-0.792,3.263
		c1.201,0.202,2.29,0.25,3.348,0.255c1.053-0.002,2.064-0.062,3.04-0.169c1.95-0.218,3.774-0.611,5.495-1.145
		c3.44-1.071,6.493-2.673,9.251-4.682c2.754-2.014,5.219-4.426,7.298-7.37c1.039-1.472,1.977-3.084,2.789-4.869
		c0.405-0.894,0.776-1.835,1.105-2.833C211.548,96.795,211.841,95.748,212.023,94.548z"/>
	<path fill="#026634" d="M116.003,67.617c1.084,0.546,1.988,1.151,2.844,1.772c0.847,0.623,1.625,1.268,2.349,1.931
		c1.443,1.327,2.684,2.72,3.76,4.165c2.151,2.891,3.677,5.985,4.734,9.229c1.051,3.246,1.624,6.646,1.572,10.249
		c-0.028,1.802-0.222,3.657-0.621,5.578c-0.201,0.961-0.459,1.941-0.785,2.942c-0.334,1.004-0.718,2.024-1.284,3.103
		c-1.09-0.545-1.997-1.149-2.855-1.768c-0.85-0.622-1.631-1.267-2.356-1.929c-1.447-1.326-2.688-2.718-3.763-4.164
		c-2.147-2.893-3.669-5.987-4.712-9.236c-1.038-3.251-1.607-6.652-1.55-10.256c0.028-1.802,0.221-3.657,0.618-5.577
		c0.2-0.961,0.455-1.939,0.778-2.94C115.062,69.713,115.442,68.695,116.003,67.617z"/>
	<path fill="#026634" d="M71.857,94.548c1.198-0.198,2.285-0.242,3.342-0.245c1.051,0.004,2.061,0.066,3.036,0.175
		c1.948,0.221,3.771,0.614,5.492,1.148c3.442,1.067,6.498,2.666,9.264,4.664c2.763,2.002,5.231,4.411,7.312,7.352
		c1.04,1.472,1.977,3.084,2.787,4.872c0.404,0.895,0.773,1.838,1.1,2.839c0.322,1.008,0.613,2.058,0.792,3.263
		c-1.201,0.202-2.29,0.25-3.348,0.255c-1.053-0.002-2.064-0.062-3.04-0.169c-1.95-0.218-3.774-0.611-5.495-1.145
		c-3.44-1.071-6.493-2.673-9.251-4.682c-2.754-2.014-5.219-4.426-7.298-7.37c-1.039-1.472-1.977-3.084-2.789-4.869
		c-0.405-0.894-0.776-1.835-1.105-2.833C72.333,96.795,72.039,95.748,71.857,94.548z"/>
	<path fill="#026634" d="M226.175,28.269c-1.199,0.192-2.244,0.494-3.247,0.826c-0.996,0.337-1.934,0.716-2.824,1.128
		c-1.778,0.827-3.383,1.777-4.846,2.829c-2.926,2.103-5.319,4.588-7.31,7.358c-1.987,2.774-3.564,5.841-4.606,9.289
		c-0.52,1.725-0.898,3.552-1.1,5.504c-0.1,0.977-0.151,1.988-0.145,3.041c0.014,1.058,0.07,2.146,0.282,3.346
		c1.204-0.189,2.251-0.489,3.257-0.819c0.999-0.335,1.938-0.712,2.83-1.124c1.78-0.825,3.386-1.775,4.849-2.827
		c2.924-2.105,5.312-4.592,7.292-7.372c1.974-2.783,3.548-5.852,4.588-9.302c0.52-1.725,0.898-3.552,1.103-5.501
		c0.101-0.976,0.155-1.986,0.151-3.037C226.435,30.551,226.382,29.465,226.175,28.269z"/>
	<path fill="#026634" d="M194.192,2.963c-1.149,0.393-2.127,0.869-3.059,1.367c-0.924,0.502-1.784,1.035-2.591,1.593
		c-1.611,1.118-3.03,2.328-4.293,3.613c-2.526,2.571-4.46,5.427-5.949,8.496c-1.484,3.072-2.517,6.363-2.956,9.938
		c-0.218,1.789-0.279,3.653-0.146,5.611c0.068,0.98,0.19,1.985,0.376,3.022c0.194,1.04,0.435,2.103,0.849,3.249
		c1.154-0.391,2.135-0.865,3.069-1.362c0.927-0.5,1.788-1.032,2.597-1.589c1.614-1.116,3.034-2.326,4.296-3.612
		c2.522-2.573,4.452-5.43,5.929-8.506c1.471-3.078,2.499-6.371,2.935-9.948c0.218-1.789,0.28-3.653,0.149-5.609
		c-0.066-0.979-0.186-1.983-0.369-3.018C194.838,5.168,194.6,4.107,194.192,2.963z"/>
	<path fill="#026634" d="M143.217,0c-0.924,0.788-1.659,1.59-2.343,2.395c-0.675,0.806-1.279,1.617-1.824,2.433
		c-1.088,1.631-1.963,3.278-2.666,4.937c-1.405,3.319-2.154,6.685-2.413,10.088c-0.252,3.403-0.004,6.842,0.901,10.329
		c0.454,1.744,1.082,3.5,1.925,5.272c0.423,0.886,0.906,1.776,1.459,2.672c0.563,0.896,1.177,1.796,1.983,2.71
		c0.93-0.787,1.668-1.589,2.355-2.394c0.678-0.806,1.284-1.617,1.832-2.432c1.091-1.631,1.967-3.278,2.669-4.937
		c1.401-3.319,2.146-6.686,2.39-10.089c0.238-3.404-0.015-6.843-0.924-10.331c-0.454-1.744-1.082-3.5-1.921-5.272
		c-0.421-0.886-0.901-1.776-1.452-2.672C144.627,1.813,144.017,0.914,143.217,0z"/>
	<path fill="#026634" d="M266.545,45.524c-1.211-0.086-2.297-0.029-3.35,0.066c-1.046,0.102-2.046,0.257-3.006,0.456
		c-1.919,0.401-3.698,0.961-5.362,1.653c-3.328,1.382-6.223,3.257-8.792,5.503c-2.565,2.25-4.799,4.877-6.598,7.998
		c-0.898,1.562-1.682,3.254-2.323,5.109c-0.319,0.929-0.599,1.902-0.832,2.929c-0.227,1.034-0.42,2.106-0.486,3.323
		c1.215,0.09,2.303,0.036,3.357-0.057c1.049-0.099,2.049-0.253,3.011-0.45c1.921-0.398,3.701-0.959,5.365-1.65
		c3.326-1.385,6.217-3.264,8.777-5.52c2.556-2.261,4.786-4.891,6.583-8.015c0.899-1.562,1.682-3.254,2.325-5.106
		c0.321-0.927,0.602-1.899,0.837-2.923C266.28,47.806,266.475,46.737,266.545,45.524z"/>
	<path fill="#026634" d="M283.88,87.549c-1.108-0.498-2.147-0.819-3.168-1.092c-1.017-0.265-2.009-0.463-2.98-0.607
		c-1.94-0.285-3.803-0.371-5.603-0.295c-3.601,0.151-6.964,0.915-10.149,2.138c-3.183,1.228-6.185,2.926-8.949,5.236
		c-1.381,1.157-2.7,2.476-3.941,3.996c-0.62,0.762-1.218,1.579-1.79,2.463c-0.569,0.892-1.12,1.833-1.601,2.952
		c1.109,0.503,2.15,0.827,3.172,1.103c1.019,0.268,2.011,0.468,2.982,0.614c1.941,0.288,3.804,0.375,5.604,0.299
		c3.599-0.155,6.961-0.923,10.141-2.159c3.178-1.242,6.178-2.944,8.941-5.257c1.381-1.157,2.7-2.476,3.942-3.993
		c0.62-0.76,1.22-1.575,1.793-2.456C282.845,89.6,283.397,88.663,283.88,87.549z"/>
	<path fill="#026634" d="M57.706,28.269c1.199,0.192,2.244,0.494,3.247,0.826c0.996,0.337,1.934,0.716,2.824,1.128
		c1.778,0.827,3.382,1.777,4.846,2.829c2.926,2.103,5.319,4.588,7.31,7.358c1.986,2.774,3.564,5.841,4.606,9.289
		c0.52,1.725,0.898,3.552,1.1,5.504c0.1,0.977,0.151,1.988,0.144,3.041c-0.014,1.058-0.07,2.146-0.282,3.346
		c-1.204-0.189-2.251-0.489-3.257-0.819c-0.998-0.335-1.938-0.712-2.83-1.124c-1.781-0.825-3.386-1.775-4.849-2.827
		c-2.924-2.105-5.312-4.592-7.291-7.372c-1.975-2.783-3.548-5.852-4.588-9.302c-0.52-1.725-0.898-3.552-1.103-5.501
		c-0.101-0.976-0.155-1.986-0.151-3.037C57.445,30.551,57.498,29.465,57.706,28.269z"/>
	<path fill="#026634" d="M89.689,2.963c1.149,0.393,2.127,0.869,3.059,1.367c0.924,0.502,1.784,1.035,2.591,1.593
		c1.611,1.118,3.03,2.328,4.293,3.613c2.525,2.571,4.459,5.427,5.949,8.496c1.485,3.072,2.517,6.363,2.956,9.938
		c0.218,1.789,0.279,3.653,0.146,5.611c-0.068,0.98-0.19,1.985-0.376,3.022c-0.194,1.04-0.435,2.103-0.849,3.249
		c-1.154-0.391-2.135-0.865-3.07-1.362c-0.927-0.5-1.789-1.032-2.597-1.589c-1.614-1.116-3.034-2.326-4.296-3.612
		c-2.522-2.573-4.452-5.43-5.929-8.506c-1.471-3.078-2.499-6.371-2.935-9.948c-0.218-1.789-0.28-3.653-0.149-5.609
		c0.066-0.979,0.186-1.983,0.369-3.018C89.043,5.168,89.28,4.107,89.689,2.963z"/>
	<path fill="#026634" d="M17.335,45.524c1.211-0.086,2.297-0.029,3.35,0.066c1.046,0.102,2.046,0.257,3.006,0.456
		c1.919,0.401,3.698,0.961,5.362,1.653c3.328,1.382,6.223,3.257,8.792,5.503c2.565,2.25,4.799,4.877,6.598,7.998
		c0.899,1.562,1.682,3.254,2.323,5.109c0.319,0.929,0.599,1.902,0.832,2.929c0.227,1.034,0.42,2.106,0.486,3.323
		c-1.215,0.09-2.303,0.036-3.358-0.057c-1.048-0.099-2.049-0.253-3.011-0.45c-1.921-0.398-3.701-0.959-5.365-1.65
		c-3.326-1.385-6.217-3.264-8.777-5.52c-2.556-2.261-4.786-4.891-6.583-8.015c-0.899-1.562-1.682-3.254-2.325-5.106
		c-0.321-0.927-0.602-1.899-0.837-2.923C17.6,47.806,17.405,46.737,17.335,45.524z"/>
	<path fill="#026634" d="M0,87.549c1.108-0.498,2.147-0.819,3.168-1.092c1.017-0.265,2.009-0.463,2.98-0.607
		c1.94-0.285,3.803-0.371,5.603-0.295c3.6,0.151,6.964,0.915,10.149,2.138c3.184,1.228,6.185,2.926,8.949,5.236
		c1.382,1.157,2.7,2.476,3.941,3.996c0.62,0.762,1.218,1.579,1.79,2.463c0.569,0.892,1.12,1.833,1.601,2.952
		c-1.109,0.503-2.15,0.827-3.172,1.103c-1.019,0.268-2.011,0.468-2.982,0.614c-1.941,0.288-3.804,0.375-5.605,0.299
		c-3.599-0.155-6.961-0.923-10.141-2.159c-3.178-1.242-6.178-2.944-8.941-5.257c-1.381-1.157-2.7-2.476-3.942-3.993
		c-0.62-0.76-1.219-1.575-1.793-2.456C1.035,89.6,0.483,88.663,0,87.549z"/>
</g>
</svg>
