<?xml version="1.0" encoding="utf-8"?>
<!-- Generator: Adobe Illustrator 26.0.1, SVG Export Plug-In . SVG Version: 6.00 Build 0)  -->
<svg version="1.1" id="Layer_5" xmlns="http://www.w3.org/2000/svg" xmlns:xlink="http://www.w3.org/1999/xlink" x="0px" y="0px"
	 viewBox="0 0 337.163 159.215" enable-background="new 0 0 337.163 159.215" xml:space="preserve">
<g>
	<path fill="#F46403" d="M164.564,0c20.57,0,39.212,8.311,52.729,21.657c13.46,13.476,21.788,31.987,21.788,52.443
		s-8.36,38.999-21.788,52.443c-13.55,13.378-32.159,21.665-52.729,21.665c-4.936,0-9.774-0.449-14.416-1.406
		c-3.939-0.703-7.723-1.847-11.499-3.155l-24.894,14.849c-2.37,1.398-5.451,0.703-6.857-1.659c-0.703-1.144-0.866-2.354-0.613-3.506
		l4.037-28.416c-6.146-6.464-11.147-13.983-14.572-22.368c-3.718-8.663-5.737-18.38-5.737-28.416
		c0-20.456,8.36-38.999,21.788-52.476C125.353,8.311,143.994,0,164.564,0z M203.94,34.692c1.921,2.002,1.921,5.157,0,7.069
		c-1.929,1.912-5.1,1.912-7.118,0c-4.291-4.266-9.317-7.609-14.768-9.872c-5.443-2.198-11.433-3.408-17.489-3.408
		c-12.651,0-24.093,5.067-32.355,13.28c-8.271,8.222-13.362,19.598-13.362,32.183c0,12.488,5.091,23.864,13.362,32.077
		c8.262,8.222,19.704,13.289,32.355,13.289c12.561,0,23.995-5.067,32.257-13.289c7.208-7.069,11.956-16.598,13.109-27.108h-18.715
		l-12.847,22.711c-1.308,2.452-4.389,3.318-6.849,1.912c-1.316-0.703-2.117-1.912-2.468-3.244l-7.306-33.491l-3.269,8.736
		c-0.703,2.002-2.623,3.31-4.642,3.31h-20.472c-2.82,0-5.091-2.264-5.091-4.969c0-2.803,2.272-5.067,5.091-5.067h16.974
		l7.821-21.347c0.515-1.659,1.921-2.958,3.784-3.31c2.623-0.605,5.345,1.144,5.892,3.759l8.262,37.34l7.56-13.477
		c0.801-1.757,2.566-2.967,4.585-2.967h27.035c2.73,0,5.002,2.264,5.002,5.067c0,15.291-6.244,29.119-16.337,39.155
		c-10.093,10.036-23.995,16.247-39.375,16.247s-29.348-6.211-39.375-16.247c-10.126-10.069-16.337-23.864-16.337-39.155
		s6.244-29.184,16.337-39.253c10.028-9.97,23.995-16.182,39.375-16.182c7.372,0,14.58,1.398,21.273,4.201
		C192.596,25.515,198.75,29.527,203.94,34.692z M210.183,28.767C198.488,17.138,182.405,9.97,164.564,9.97
		c-17.849,0-33.924,7.167-45.619,18.797s-18.903,27.623-18.903,45.366c0,8.728,1.765,17.138,4.936,24.657
		c3.261,7.87,8.074,14.948,14.065,20.807c1.152,1.054,1.855,2.705,1.569,4.364l-2.983,20.644l17.939-10.763h0.098
		c1.218-0.801,2.918-0.956,4.487-0.262c3.776,1.504,7.723,2.713,11.948,3.506c4.037,0.801,8.173,1.21,12.496,1.21
		c17.841,0,33.924-7.167,45.619-18.797s18.903-27.623,18.903-45.366S221.878,40.397,210.183,28.767z"/>
	<polygon fill="#F46403" points="279.555,74.701 272.479,67.624 265.403,74.701 257.932,67.231 239.081,67.231 239.081,64.488 
		259.068,64.488 265.403,70.823 272.479,63.746 279.555,70.823 293.873,56.505 301.234,63.866 337.163,63.866 337.163,66.609 
		300.098,66.609 293.873,60.384 	"/>
	<polygon fill="#F46403" points="57.608,74.701 64.684,67.624 71.76,74.701 79.231,67.231 98.082,67.231 98.082,64.488 
		78.096,64.488 71.76,70.823 64.684,63.746 57.608,70.823 43.29,56.505 35.929,63.866 0,63.866 0,66.609 37.065,66.609 
		43.29,60.384 	"/>
</g>
</svg>
