<?xml version="1.0" encoding="utf-8"?>
<!-- Generator: Adobe Illustrator 24.3.0, SVG Export Plug-In . SVG Version: 6.00 Build 0)  -->
<svg version="1.1" id="Layer_1" xmlns="http://www.w3.org/2000/svg" xmlns:xlink="http://www.w3.org/1999/xlink" x="0px" y="0px"
	 viewBox="0 0 278.418 241" enable-background="new 0 0 278.418 241" xml:space="preserve">
<g>
	<path fill="#2C2B7B" d="M268.249,113.85l-7.72-0.18c-4.92-0.12-9.24-3.05-10.71-7.34c-1.14-3.26-2.49-6.43-4.01-9.5
		c-2.05-4.1-1-8.91,2.57-12.02l5.61-4.87c4.18-3.61,4.35-9.67,0.38-13.46l-17.14-16.47c-3.95-3.82-10.55-3.97-14.73-0.34l-5.6,4.86
		c-3.6,3.11-8.9,3.8-13.28,1.73c-3.28-1.55-6.68-2.94-10.17-4.15c-4.61-1.57-7.61-5.65-7.48-10.15l0.19-7.05
		c0.15-5.27-4.38-9.64-10.15-9.77l-11.52-0.27v55.75c0.7,0.05,1.41,0.1,2.11,0.17c27.38,2.6,49.04,23.44,50.5,48.56
		c1.67,28.81-22.32,52.58-52.61,54.45v55.96l5.5,0.12c5.76,0.14,10.55-4.02,10.68-9.28l0.21-7.07c0.12-4.49,3.35-8.42,8.04-9.78
		c3.56-1.05,7.02-2.25,10.39-3.66c4.48-1.87,9.76-0.9,13.16,2.35l5.32,5.11c3.98,3.82,10.59,3.97,14.74,0.34l18.03-15.63
		c4.18-3.62,4.35-9.65,0.38-13.49l-5.32-5.1c-3.42-3.25-4.18-8.12-1.91-12.13c1.7-3.01,3.22-6.1,4.53-9.31
		c1.73-4.2,6.19-6.92,11.11-6.81l7.73,0.18c5.76,0.14,10.54-4,10.7-9.27l0.64-22.7C278.569,118.36,273.999,113.98,268.249,113.85z
		 M170.019,212.94c-1.84,0-3.66-0.08-5.46-0.21V209c1.8,0.13,3.62,0.21,5.46,0.21c42.13,0,76.41-34.28,76.41-76.41
		c0-42.14-34.28-76.42-76.41-76.42c-1.84,0-3.66,0.09-5.46,0.22v-3.74c1.8-0.12,3.62-0.21,5.46-0.21
		c44.19,0,80.14,35.96,80.14,80.15S214.209,212.94,170.019,212.94z"/>
</g>
<g>
	<path fill="#60CAE6" d="M109.692,135.411H85.701c1.196,17.601,8.134,33.569,18.937,46.047l18.764-18.985
		C116.194,155.374,111.23,145.959,109.692,135.411z"/>
</g>
<g>
	<path fill="#F37421" d="M108.367,188.31c13.228,12.242,30.658,19.95,49.914,20.723v-26.742
		c-11.873-0.727-22.649-5.456-31.005-12.891L108.367,188.31z"/>
</g>
<g>
	<path fill="#101D42" d="M205.377,235.744l-7.329,2.38l-5.726-5.156l1.603-7.538l7.328-2.381l5.727,5.157L205.377,235.744z
		 M196.484,227.734l-0.888,4.17l3.168,2.853l4.053-1.318l0.887-4.17l-3.167-2.852L196.484,227.734z"/>
	
		<rect x="183.527" y="145.488" transform="matrix(0.9571 -0.2896 0.2896 0.9571 -46.0093 61.7558)" fill="#101D42" width="4.254" height="81.689"/>
	<path fill="#101D42" d="M191.138,133.045c0,13.312-10.791,24.105-24.105,24.105s-24.105-10.792-24.105-24.105
		c0-13.312,10.792-24.104,24.105-24.104S191.138,119.732,191.138,133.045z"/>
	<path fill="#101D42" d="M211.408,42.442l-7.403,2.141l-5.556-5.341l1.848-7.481l7.401-2.141l5.557,5.34L211.408,42.442z
		 M202.779,34.147l-1.023,4.139l3.075,2.955l4.094-1.186l1.022-4.138l-3.073-2.954L202.779,34.147z"/>
	
		<rect x="140.418" y="83.265" transform="matrix(0.3577 -0.9338 0.9338 0.3577 40.0944 229.0744)" fill="#101D42" width="92.297" height="4.253"/>
	<path fill="#101D42" d="M270.696,177.887l-7.704,0.142l-3.975-6.602l3.729-6.745l7.706-0.142l3.976,6.602L270.696,177.887z
		 M264.524,167.632l-2.066,3.73l2.2,3.653l4.26-0.08l2.065-3.729l-2.199-3.652L264.524,167.632z"/>
	<polygon fill="#101D42" points="261.33,173.217 238.9,173.217 182.398,142.316 184.438,138.585 239.989,168.964 261.33,168.964 	
		"/>
	
		<rect x="172.276" y="120.469" transform="matrix(0.918 -0.3965 0.3965 0.918 -32.2923 88.983)" fill="#101D42" width="53.592" height="4.253"/>
	<path fill="#101D42" d="M85.499,132.12h8.78v0.16h39.57l3.2,5.53h8.86l4.43-7.68l-4.43-7.67h-8.86l-3.2,5.53h-35.07
		c0.02-0.55,0.03-1.11,0.07-1.66c0.15-2.4,0.47-4.75,0.94-7.06h14.34l3.2,5.54h8.86l4.43-7.68l-4.43-7.68h-8.86l-3.2,5.54h-13.28
		c1.02-3.46,2.38-6.77,4.04-9.91h41.85l3.58,6.2h8.86l4.43-7.67l-4.43-7.68h-8.86l-2.81,4.86h-40.09
		c8.7-13.29,23.16-22.58,39.74-24.11c5.69-0.52,11.21-0.14,16.45,1V56.41c-0.57-0.02-1.13-0.03-1.7-0.03
		C119.999,56.38,85.859,90.29,85.499,132.12z M139.029,125.89h4.9l2.45,4.24l-2.45,4.25h-4.9l-2.45-4.25L139.029,125.89z
		 M119.309,112.88h4.9l2.45,4.25l-2.45,4.25h-4.9l-2.45-4.25L119.309,112.88z M152.299,99.36h4.9l2.45,4.25l-2.45,4.24h-4.9
		l-2.45-4.24L152.299,99.36z M162.459,18.71l-23.48,0.32c-5.45,0.07-9.8,4.55-9.73,9.99l0.1,7.3c0.06,4.65-2.81,8.84-7.19,10.41
		c-0.79,0.29-1.57,0.58-2.35,0.89V34.18h-4.29v15.27c-1.02,0.47-2.03,0.95-3.03,1.45c-2.62,1.32-5.59,1.49-8.26,0.62V15.48h-4.29
		v33.44l-5.2-5.07c-3.89-3.79-10.16-3.71-13.93,0.2l-16.38,16.84c-3.81,3.88-3.72,10.12,0.18,13.92l5.24,5.09
		c1.67,1.63,2.73,3.69,3.13,5.86h-6.18L56.239,75.2h-20.25l-2.81-4.87h-8.87L19.879,78l4.43,7.68h8.87l3.57-6.19h17.71l10.56,10.56
		h7.89c-0.17,0.79-0.43,1.57-0.78,2.32c-1.28,2.73-2.43,5.54-3.44,8.42h-21.77l-10.56-10.56h-19.76l-3.3-5.73h-8.87l-4.43,7.67
		l4.43,7.68h8.87l3.07-5.33h18.21l10.56,10.56h21.58c-1.98,2.75-5.19,4.48-8.71,4.53l-7.3,0.1c-5.45,0.08-9.79,4.53-9.72,9.99
		l0.17,12.42h40.61c0.36-43.88,36.18-79.47,80.14-79.47c0.57,0,1.13,0.01,1.7,0.03V18.76C163.239,18.72,162.849,18.7,162.459,18.71z
		 M31.189,82.25h-4.9L23.839,78l2.45-4.24h4.9l2.46,4.24L31.189,82.25z M11.309,96.42h-4.9l-2.45-4.25l2.45-4.24h4.9l2.46,4.24
		L11.309,96.42z"/>
</g>
<g>
	<path fill="#2491D0" d="M81.769,132.12c-0.01,0.23-0.01,0.45-0.01,0.68c0,19.83,7.24,37.99,19.22,52l-26.93,24.87
		c-18.37-21.45-28.61-46.44-29.77-77.69"/>
	<path fill="#2491D0" d="M125.34,23.135v8.864l-7.675,4.431l-7.676-4.431v-8.864l7.676-4.431L125.34,23.135z"/>
</g>
<g>
	<path fill="#FEBC12" d="M234.346,114.121l-7.33,2.381l-5.726-5.157l1.603-7.537l7.328-2.381l5.727,5.157L234.346,114.121z"/>
	<path fill="#FEBC12" d="M84.511,210.441c19.338,18.335,45.21,29.806,73.77,30.559v-27.667
		c-20.912-0.779-39.841-9.149-54.171-22.481L84.511,210.441z"/>
	<path fill="#FEBC12" d="M109.764,4.431v8.864l-7.676,4.431l-7.675-4.431V4.431L102.088,0L109.764,4.431z"/>
</g>
</svg>
