<?xml version="1.0" encoding="utf-8"?>
<!-- Generator: Adobe Illustrator 24.3.0, SVG Export Plug-In . SVG Version: 6.00 Build 0)  -->
<svg version="1.1" id="Layer_14" xmlns="http://www.w3.org/2000/svg" xmlns:xlink="http://www.w3.org/1999/xlink" x="0px" y="0px"
	 viewBox="0 0 150.454 195.299" enable-background="new 0 0 150.454 195.299" xml:space="preserve">
<g>
	<path fill="#F91069" d="M132.736,105.336c32.122-21.973-3.115-53.665-19.256-29.136c-13.237-8.835-24.276-8.529-38.099-1.183
		C61.559,67.671,50.52,67.365,37.283,76.2c-16.141-24.529-51.378,7.163-19.256,29.136L4.21,134.933
		c15.887,26.319,44.146,42.418,71.172,55.348c27.31-12.718,55.964-28.15,71.171-55.348L132.736,105.336z M22.412,95.943
		c-16.937-11.715-2.145-25.881,5.833-12.494L22.412,95.943z M128.351,95.943l-5.833-12.494
		C130.496,70.062,145.288,84.229,128.351,95.943z"/>
</g>
<g>
	<path fill="#FFC200" d="M75.381,104.877c-20.705,2.422-16.996,31.103-10.214,44.596c6.284,5.653,8.314-3.365,5.148-8.02
		c-2.632-7.595-9.295-17.905,5.066-13.03c14.36-4.875,7.701,5.434,5.066,13.03c-3.171,4.647-1.125,13.68,5.149,8.021
		C92.383,135.989,96.082,107.29,75.381,104.877z"/>
	<path fill="#FFC200" d="M23.64,86.23c0,0-2.788-0.896-3.286,0.498c-0.498,1.394,4.72,3.512,2.858,7.501s8.294-7.999,8.294-7.999
		C25.173,75.97,15.962,79.602,23.64,86.23z"/>
	<path fill="#FFC200" d="M130.408,86.727c-0.498-1.394-3.286-0.498-3.286-0.498c7.679-6.627-1.533-10.259-7.866,0
		c0,0,10.157,11.988,8.294,7.999C125.688,90.239,130.906,88.121,130.408,86.727z"/>
	<path fill="#FFC200" d="M0.812,137.657c0,0,15.964,39.87,72.031,57.313C72.843,194.969-8.971,203.176,0.812,137.657z"/>
	<path fill="#FFC200" d="M149.642,137.657c0,0-15.964,39.87-72.031,57.313C77.611,194.969,159.426,203.176,149.642,137.657z"/>
	<path fill="#FFC200" d="M101.951,60.565H48.812c-1.021,0-1.848-0.827-1.848-1.848s0.827-1.848,1.848-1.848h53.139
		c1.021,0,1.848,0.827,1.848,1.848S102.972,60.565,101.951,60.565z"/>
	<path fill="#FFC200" d="M75.381,33.7c-1.021,0-1.848-0.827-1.848-1.848v-5.52c0-4.282,2.068-8.236,5.532-10.576
		c1.851-1.251,2.939-3.331,2.908-5.563c-0.048-3.473-3.024-6.449-6.498-6.497c-1.764-0.021-3.456,0.65-4.722,1.897
		c-1.267,1.249-1.964,2.916-1.964,4.695c0,1.021-0.827,1.848-1.848,1.848s-1.848-0.827-1.848-1.848c0-2.775,1.088-5.377,3.065-7.326
		C70.134,1.013,72.754-0.04,75.527,0c5.515,0.077,10.064,4.627,10.141,10.142c0.048,3.483-1.647,6.725-4.534,8.676
		c-2.446,1.652-3.906,4.461-3.906,7.514v5.52C77.229,32.873,76.402,33.7,75.381,33.7z"/>
	<path fill="#FFC200" d="M129.848,60.946c-9.97,0-19.831-6.802-29.367-13.381c-8.565-5.908-17.422-12.018-25.013-12.018
		c-7.595,0-16.497,6.112-25.106,12.022c-9.578,6.576-19.482,13.376-29.448,13.376c-2.041,0-3.696-1.655-3.696-3.696
		s1.655-3.696,3.696-3.696c7.672,0,16.616-6.14,25.264-12.078c9.538-6.548,19.401-13.32,29.289-13.32
		c9.893,0,19.713,6.774,29.21,13.325c8.605,5.936,17.502,12.074,25.17,12.074c2.041,0,3.696,1.655,3.696,3.696
		S131.889,60.946,129.848,60.946z"/>
</g>
</svg>
