<?xml version="1.0" encoding="utf-8"?>
<!-- Generator: Adobe Illustrator 24.3.0, SVG Export Plug-In . SVG Version: 6.00 Build 0)  -->
<svg version="1.1" id="Layer_3" xmlns="http://www.w3.org/2000/svg" xmlns:xlink="http://www.w3.org/1999/xlink" x="0px" y="0px"
	 viewBox="0 0 251.889 345.887" enable-background="new 0 0 251.889 345.887" xml:space="preserve">
<g>
	
		<ellipse transform="matrix(0.3754 -0.9269 0.9269 0.3754 100.3958 227.6675)" fill-rule="evenodd" clip-rule="evenodd" fill="#FDAE43" cx="219.111" cy="39.347" rx="40.502" ry="31.32"/>
	<path fill-rule="evenodd" clip-rule="evenodd" fill="#FDAE43" d="M107.61,200.252c0,14.27-9.49,25.86-21.18,25.86
		c-2.32,0-4.56-0.46-6.65-1.3c-8.44-3.41-14.54-13.12-14.54-24.56c0-14.27,9.49-25.86,21.19-25.86c8.61,0,16.02,6.28,19.32,15.29
		C106.95,192.902,107.61,196.482,107.61,200.252z"/>
	<path fill-rule="evenodd" clip-rule="evenodd" fill="#FDAE43" d="M122.09,230.812c-0.16,1.01-0.34,2.03-0.56,3.03
		c-5.66,26.56-31.57,50.01-46.69,39.08c-6.71-4.85-12.36-10.8-17.11-17.34c-23.65-32.48-25.32-79.59-25.32-79.59
		C75.75,286.152,122.09,230.812,122.09,230.812z"/>
</g>
<g>
	<path fill-rule="evenodd" clip-rule="evenodd" fill="#F79C39" d="M107.61,200.252c0,14.27-9.49,25.86-21.18,25.86
		c-2.32,0-4.56-0.46-6.65-1.3c2.33-0.97,4.38-2.14,5.68-3.17c5.44-4.31,9.11-10.5,12.57-16.27c3-5,5.89-10.2,7.72-15.69
		C106.95,192.902,107.61,196.482,107.61,200.252z"/>
	<path fill-rule="evenodd" clip-rule="evenodd" fill="#F79C39" d="M121.53,233.842c-5.66,26.56-31.57,50.01-46.69,39.08
		c-6.71-4.85-12.36-10.8-17.11-17.34c0.51,0.27,1,0.52,1.47,0.75c14.97,7.59,31.29,4.83,45.11-3.84c7.01-4.4,12.1-10.87,16.55-17.59
		C121.09,234.552,121.32,234.202,121.53,233.842z"/>
</g>
<g>
	
		<ellipse transform="matrix(0.9762 -0.2168 0.2168 0.9762 -10.7828 7.6537)" fill-rule="evenodd" clip-rule="evenodd" fill="#3A9B81" cx="29.486" cy="52.963" rx="27.353" ry="35.123"/>
	<path fill-rule="evenodd" clip-rule="evenodd" fill="#3A9B81" d="M183.12,158.612c0,11.44-6.1,21.15-14.54,24.55
		c-2.09,0.85-4.33,1.31-6.65,1.31c-11.69,0-21.19-11.59-21.19-25.86c0-3.78,0.67-7.36,1.86-10.59c3.32-9,10.73-15.27,19.33-15.27
		C173.62,132.752,183.12,144.342,183.12,158.612z"/>
	<path fill-rule="evenodd" clip-rule="evenodd" fill="#3A9B81" d="M215.95,134.352c0,0-1.67,47.09-25.3,79.57
		c-4.76,6.55-10.42,12.51-17.13,17.36c-15.11,10.92-41.02-12.52-46.69-39.07c-0.22-1.01-0.4-2.02-0.56-3.04
		C126.27,189.172,172.6,244.512,215.95,134.352z"/>
</g>
<g>
	<path fill-rule="evenodd" clip-rule="evenodd" fill="#2F846A" d="M162.89,180.002c1.3,1.03,3.36,2.2,5.69,3.16
		c-2.09,0.85-4.33,1.31-6.65,1.31c-11.69,0-21.19-11.59-21.19-25.86c0-3.78,0.67-7.36,1.86-10.59c1.83,5.5,4.72,10.7,7.72,15.71
		C153.79,169.492,157.46,175.682,162.89,180.002z"/>
	<path fill-rule="evenodd" clip-rule="evenodd" fill="#2F846A" d="M190.65,213.922c-4.76,6.55-10.42,12.51-17.13,17.36
		c-15.11,10.92-41.02-12.52-46.69-39.07c0.21,0.35,0.43,0.7,0.66,1.05c4.46,6.71,9.54,13.19,16.56,17.59
		c13.81,8.67,30.13,11.43,45.11,3.84C189.63,214.452,190.14,214.192,190.65,213.922z"/>
</g>
<g>
	<path fill-rule="evenodd" clip-rule="evenodd" fill="#7A5689" d="M244.13,149.592c-0.53-18.15-10.62-43.31-31.13-56.29
		c-12.95-8.19-29.96-11.73-51.41-6.08c-23.34,6.15-40.39,19.82-51.86,36.14l-1.16-1.31c-11.39-12.49-26.39-21.99-44.64-24.57
		c-21.18-2.93-35.97,3.43-46.02,13.88c-15.03,15.66-18.87,41.09-17.72,55.56c1.12,14,4.62,27.8,9.65,41.41
		c7.31,19.75,17.84,39.07,28.85,57.88c8.77,15.02,19.22,28.7,30.05,42.12c10.52,13.07,38.2,37.97,38.68,37.55
		c0.48-0.41-25.61-25.96-35.57-39.08c-10.26-13.5-19.81-27.48-27.95-42.54c-10.14-18.82-19.79-38.1-26.22-57.76
		c-4.33-13.18-7.17-26.52-7.73-39.98c-0.54-12.89,3.28-35.49,17.14-49.08c7.73-7.59,18.86-11.99,34.49-9.47
		c14.82,2.35,26.57,10.58,35.66,20.87c1.86,2.09,3.61,4.28,5.24,6.54l8,13.19l6.99-15.14c0.75-1.33,1.55-2.65,2.39-3.95
		c9.66-15.02,24.3-27.96,45.14-33.97c22.3-6.42,39.1-0.5,50.69,10.19c13.26,12.24,20.03,30.38,20.85,44.11
		c1.43,24.01-4.87,47.96-16.16,70.97c-16.51,33.64-72.94,93.51-72.43,93.89c0.53,0.37,59.73-58.57,77.35-92.22
		C237.62,198.932,244.85,174.372,244.13,149.592z"/>
</g>
</svg>
