<?xml version="1.0" encoding="utf-8"?>
<!-- Generator: Adobe Illustrator 24.3.0, SVG Export Plug-In . SVG Version: 6.00 Build 0)  -->
<svg version="1.1" id="Layer_1" xmlns="http://www.w3.org/2000/svg" xmlns:xlink="http://www.w3.org/1999/xlink" x="0px" y="0px"
	 viewBox="0 0 860.028 720.261" enable-background="new 0 0 860.028 720.261" xml:space="preserve">
<g>
	<path fill="#F8B46E" d="M654.427,487.383l-64.522,90.402l-125.945-89.89c29.641-26.999,51.025-57.181,64.522-90.402
		L654.427,487.383z"/>
</g>
<g>
	<path fill="#F3A951" d="M836.982,601.129c55.245,45.684,4.273,146.928-79.871,111.907l-133.339-95.168l79.871-111.906
		L836.982,601.129z"/>
</g>
<g>
	<path fill="#383838" d="M131.028,407.853c-19.383,0.213-38.766,0.374-58.147,0.688c-2.732,0.044-3.704-0.577-3.717-3.505
		c-0.086-19.971-0.411-39.94-0.558-59.911c-0.13-17.72,14.256-32.511,31.961-32.792c19.675-0.312,39.352-0.511,59.029-0.643
		c18.345-0.123,32.804,14.208,33.007,32.554c0.218,19.676,0.43,39.353,0.639,59.029c0.041,3.896,0.03,3.901-3.772,3.943
		C169.99,407.429,150.509,407.639,131.028,407.853z M92.223,349.707c0.014,1.25,0.026,2.411,0.039,3.572
		c0.172,15.96,0.411,31.921,0.454,47.882c0.008,2.857,0.875,3.61,3.683,3.567c23.694-0.358,47.391-0.567,71.087-0.823
		c3.884-0.042,3.866-0.048,3.823-3.926c-0.182-16.156-0.359-32.312-0.516-48.469c-0.013-1.313-0.306-3.16,1.814-2.781
		c0.71,0.127,1.61,1.707,1.649,2.655c0.216,5.183,0.191,10.376,0.248,15.566c0.124,11.26,0.302,22.521,0.329,33.781
		c0.006,2.446,0.848,3.28,3.263,3.104c2.827-0.206,5.684-0.244,8.513-0.09c2.506,0.137,3.133-0.873,3.098-3.246
		c-0.282-18.897-0.385-37.796-0.683-56.693c-0.249-15.769-13.357-28.633-29.102-28.54c-19.682,0.115-39.363,0.39-59.044,0.617
		c-4.985,0.058-9.697,1.288-13.96,3.873c-9.738,5.905-14.742,14.685-14.731,26.007c0.018,18.604,0.412,37.208,0.496,55.813
		c0.012,2.762,0.895,3.557,3.531,3.365c3.217-0.233,6.469-0.291,9.687-0.101c2.783,0.165,3.428-0.923,3.383-3.545
		c-0.279-16.252-0.376-32.508-0.614-48.761C88.637,350.193,89.144,348.881,92.223,349.707z"/>
	<path fill="#383838" d="M159.249,271.038c0.152,7.286-0.567,14.272-4.324,20.736c-5.674,9.763-17.476,15.407-29.294,13.861
		c-11.183-1.463-21.39-10.182-23.613-21.222c-2.132-10.587-3.09-21.375,1.71-31.645c5.32-11.382,17.336-17.147,28.26-16.24
		c12.453,1.034,22.841,9.591,25.814,21.431C158.86,262.174,158.799,266.671,159.249,271.038z M156.002,270.929
		c-0.842-4.873-1.124-9.929-2.642-14.581c-3.135-9.607-13.252-16.324-23.528-16.38c-10.061-0.055-20.051,6.635-23.546,16.009
		c-3.362,9.02-2.838,18.324-0.822,27.446c2.179,9.859,11.432,17.812,20.698,18.703c11.654,1.12,21.613-4.206,26.568-13.896
		C155.542,282.729,155.498,276.925,156.002,270.929z"/>
	<path fill="#383838" d="M413.018,404.797c-19.383,0.213-38.766,0.374-58.147,0.688c-2.732,0.044-3.704-0.577-3.717-3.505
		c-0.086-19.971-0.411-39.94-0.558-59.911c-0.13-17.72,14.256-32.511,31.961-32.792c19.675-0.312,39.352-0.511,59.029-0.643
		c18.345-0.123,32.804,14.208,33.007,32.554c0.218,19.676,0.43,39.353,0.639,59.029c0.041,3.896,0.03,3.901-3.772,3.943
		C451.979,404.373,432.499,404.583,413.018,404.797z M374.212,346.651c0.014,1.25,0.026,2.411,0.039,3.572
		c0.172,15.96,0.411,31.921,0.454,47.882c0.008,2.857,0.875,3.61,3.683,3.567c23.694-0.358,47.391-0.567,71.087-0.823
		c3.884-0.042,3.866-0.048,3.823-3.926c-0.182-16.156-0.359-32.312-0.516-48.469c-0.013-1.313-0.306-3.16,1.814-2.781
		c0.71,0.127,1.61,1.707,1.649,2.655c0.216,5.183,0.191,10.376,0.248,15.566c0.124,11.26,0.302,22.521,0.329,33.781
		c0.006,2.446,0.848,3.28,3.263,3.104c2.827-0.206,5.684-0.244,8.513-0.09c2.506,0.137,3.133-0.873,3.098-3.246
		c-0.282-18.897-0.385-37.796-0.683-56.693c-0.249-15.769-13.358-28.633-29.102-28.54c-19.682,0.115-39.363,0.39-59.044,0.617
		c-4.985,0.058-9.697,1.288-13.96,3.873c-9.738,5.905-14.742,14.685-14.731,26.007c0.018,18.604,0.412,37.208,0.496,55.813
		c0.012,2.762,0.895,3.557,3.531,3.365c3.217-0.233,6.469-0.291,9.687-0.101c2.783,0.165,3.428-0.923,3.383-3.545
		c-0.279-16.252-0.376-32.508-0.614-48.761C370.627,347.137,371.133,345.825,374.212,346.651z"/>
	<path fill="#383838" d="M441.238,267.983c0.152,7.286-0.567,14.272-4.324,20.736c-5.674,9.763-17.476,15.407-29.294,13.861
		c-11.183-1.463-21.39-10.182-23.613-21.222c-2.132-10.587-3.09-21.375,1.71-31.645c5.32-11.382,17.336-17.147,28.26-16.24
		c12.453,1.034,22.841,9.591,25.814,21.431C440.849,259.119,440.788,263.615,441.238,267.983z M437.992,267.873
		c-0.842-4.873-1.124-9.929-2.642-14.581c-3.135-9.607-13.252-16.324-23.528-16.38c-10.061-0.055-20.051,6.635-23.546,16.009
		c-3.362,9.02-2.838,18.324-0.822,27.446c2.179,9.859,11.432,17.812,20.698,18.703c11.654,1.12,21.613-4.206,26.568-13.896
		C437.532,279.673,437.488,273.869,437.992,267.873z"/>
	<path fill="#383838" d="M272.544,406.299c-25.947,0.285-51.894,0.5-77.839,0.921c-3.658,0.059-4.958-0.772-4.975-4.692
		c-0.116-26.734-0.551-53.466-0.747-80.199c-0.175-23.72,19.084-43.521,42.784-43.897c26.338-0.417,52.678-0.685,79.019-0.861
		c24.558-0.165,43.914,19.02,44.185,43.578c0.292,26.34,0.576,52.68,0.856,79.019c0.055,5.215,0.04,5.222-5.05,5.278
		C324.699,405.732,298.621,406.013,272.544,406.299z M220.596,328.463c0.018,1.674,0.035,3.227,0.052,4.781
		c0.23,21.366,0.551,42.731,0.608,64.097c0.01,3.825,1.171,4.832,4.93,4.775c31.719-0.479,63.44-0.759,95.161-1.102
		c5.199-0.056,5.176-0.065,5.117-5.255c-0.244-21.628-0.48-43.255-0.691-64.883c-0.017-1.757-0.41-4.23,2.429-3.723
		c0.95,0.17,2.155,2.285,2.207,3.555c0.289,6.938,0.256,13.89,0.332,20.837c0.166,15.074,0.404,30.147,0.441,45.221
		c0.008,3.274,1.135,4.391,4.368,4.155c3.784-0.276,7.609-0.327,11.397-0.12c3.354,0.183,4.194-1.168,4.147-4.345
		c-0.378-25.296-0.515-50.596-0.914-75.892c-0.333-21.109-17.881-38.329-38.957-38.206c-26.347,0.154-52.693,0.522-79.04,0.827
		c-6.673,0.077-12.98,1.724-18.688,5.185c-13.036,7.905-19.734,19.658-19.719,34.814c0.025,24.905,0.552,49.809,0.664,74.714
		c0.017,3.697,1.198,4.761,4.726,4.505c4.306-0.312,8.66-0.39,12.968-0.135c3.725,0.22,4.589-1.236,4.529-4.745
		c-0.374-21.756-0.503-43.517-0.822-65.274C215.796,329.113,216.475,327.356,220.596,328.463z"/>
	<path fill="#383838" d="M310.321,223.153c0.204,9.754-0.759,19.106-5.788,27.758c-7.596,13.07-23.395,20.625-39.215,18.554
		c-14.971-1.959-28.634-13.63-31.61-28.409c-2.855-14.173-4.137-28.614,2.289-42.362c7.122-15.237,23.207-22.954,37.831-21.74
		c16.67,1.384,30.576,12.839,34.555,28.689C309.8,211.287,309.719,217.306,310.321,223.153z M305.975,223.006
		c-1.127-6.523-1.504-13.291-3.536-19.519c-4.197-12.861-17.739-21.852-31.496-21.927c-13.468-0.074-26.842,8.882-31.519,21.43
		c-4.501,12.075-3.799,24.53-1.101,36.74c2.917,13.198,15.303,23.845,27.708,25.036c15.6,1.499,28.932-5.631,35.565-18.601
		C305.359,238.803,305.3,231.032,305.975,223.006z"/>
	<path fill="#383838" d="M162.215,185.711c4.671-0.054,9.343-0.07,14.013-0.171c2.192-0.047,3.957,0.422,4.074,2.343
		c0.118,1.954-1.762,2.644-3.824,2.68c-9.58,0.167-19.161,0.271-28.743,0.336c-2.081,0.014-3.951-0.588-3.885-2.568
		c0.065-1.937,1.803-2.465,3.992-2.472C152.633,185.844,157.424,185.767,162.215,185.711z"/>
	<path fill="#383838" d="M377.835,183.38c4.555-0.048,9.11-0.082,13.665-0.153c2.127-0.033,3.904,0.313,4.081,2.331
		c0.182,2.081-1.652,2.645-3.715,2.678c-9.587,0.156-19.176,0.265-28.765,0.314c-2.06,0.01-3.87-0.545-3.709-2.64
		c0.158-2.061,1.967-2.364,4.059-2.381C368.246,183.492,373.04,183.43,377.835,183.38z"/>
	<path fill="#383838" d="M379.958,234.264c0.087,2.094-2.688,3.64-4.634,2.789c-8.895-3.887-17.746-7.842-26.463-11.972
		c-0.885-0.419-1.472-2.547-0.919-3.213c0.612-0.737,3.105-1.319,4.07-0.912c8.644,3.647,17.152,7.499,25.639,11.374
		C378.699,232.809,379.393,233.776,379.958,234.264z"/>
	<path fill="#383838" d="M271.922,101.525c0.04,3.729,0.053,7.458,0.134,11.187c0.036,1.676-0.7,2.812-2.957,2.967
		c-2.429,0.167-3.236-1.173-3.269-2.699c-0.166-7.742-0.244-15.486-0.244-23.23c0-1.513,0.701-2.886,3.149-2.832
		c2.595,0.058,3.056,1.43,3.061,3.134c0.012,3.825,0.074,7.649,0.115,11.474C271.915,101.526,271.918,101.525,271.922,101.525z"/>
	<path fill="#383838" d="M193.016,225.377c-0.481,0.418-1.167,1.355-2.189,1.848c-8.32,4.011-16.654,8.007-25.128,11.804
		c-1.026,0.46-3.446,0.117-4.265-0.573c-1.39-1.172-0.816-2.682,1.087-3.59c8.548-4.076,17.07-8.188,25.676-12.183
		C190.593,221.572,193.083,222.789,193.016,225.377z"/>
	<path fill="#383838" d="M189.593,153.696c-1.394-0.415-2.332-0.591-3.14-0.951c-7.927-3.526-15.825-7.093-23.749-10.623
		c-2.014-0.897-3.988-1.989-2.552-3.987c1.397-1.944,3.724-1.317,5.709-0.434c8.031,3.574,16.085,7.12,23.995,10.857
		c1.144,0.54,1.94,2.028,2.124,3.16C192.072,152.287,190.429,153.043,189.593,153.696z"/>
	<path fill="#383838" d="M349.137,151.874c-0.779-0.514-2.507-1.169-2.453-1.721c0.109-1.126,0.813-2.649,1.913-3.213
		c5.635-2.891,11.471-5.534,17.243-8.255c2.577-1.215,5.051-2.653,7.806-3.506c1.282-0.397,3.121,0.36,4.708,0.593
		c-0.531,1.207-0.605,2.994-1.667,3.527c-8.103,4.067-16.394,7.898-24.648,11.773C351.342,151.4,350.486,151.51,349.137,151.874z"/>
	<path fill="#383838" d="M226.183,123.852c-0.684,0.643-1.354,1.85-2.316,2.028c-1.103,0.203-2.981-0.201-3.619-0.88
		c-1.919-2.044-3.41-4.345-5.048-6.555c-3.338-4.504-6.606-9.042-10.026-13.506c-1.201-1.567-1.317-2.881,0.645-3.972
		c1.972-1.097,3.51-0.254,4.51,1.073c5.101,6.769,10.118,13.58,15.15,20.382C225.716,122.742,225.829,123.121,226.183,123.852z"/>
	<path fill="#383838" d="M312.035,122.901c0.608-1.147,0.896-1.876,1.355-2.528c4.521-6.431,9.048-12.859,13.628-19.263
		c1.016-1.421,2.482-2.592,4.681-1.602c2.099,0.945,1.924,2.502,0.871,3.998c-4.703,6.677-9.365,13.374-14.248,19.968
		c-0.636,0.859-2.479,1.603-3.73,1.576C313.695,125.03,312.852,123.636,312.035,122.901z"/>
	<path fill="#383838" d="M114.912,417.1l315.195-3.416C390.475,466.681,245.794,546.503,114.912,417.1z"/>
</g>
<g>
	<path fill="#151B24" d="M225.428,3.729C78.423,28.285-20.84,167.456,3.736,314.575c24.576,147.119,163.686,246.489,310.692,221.932
		c147.024-24.56,246.265-163.746,221.69-310.865C511.541,78.523,372.453-20.831,225.428,3.729z M305.225,492.243
		c-122.419,20.45-238.229-62.207-258.678-184.626C26.094,185.179,108.75,69.37,231.17,48.92
		c122.438-20.453,238.248,62.203,258.7,184.642C510.32,355.981,427.664,471.791,305.225,492.243z"/>
	
		<rect x="574.645" y="528.793" transform="matrix(0.5809 -0.8139 0.8139 0.5809 -175.9451 753.0847)" fill="#151B24" width="137.486" height="37.237"/>
</g>
</svg>
