<?xml version="1.0" encoding="utf-8"?>
<!-- Generator: Adobe Illustrator 24.3.0, SVG Export Plug-In . SVG Version: 6.00 Build 0)  -->
<svg version="1.1" id="Layer_1" xmlns="http://www.w3.org/2000/svg" xmlns:xlink="http://www.w3.org/1999/xlink" x="0px" y="0px"
	 viewBox="0 0 278.313 278.31" enable-background="new 0 0 278.313 278.31" xml:space="preserve">
<g>
	<path fill="#721445" d="M138.01,278.31c-6.721-0.196-12.592-3.702-15.968-10.798c-1.245-2.617-2.992-3.687-5.661-4.183
		c-51.768-9.616-91.951-49.608-101.524-101.023c-0.512-2.748-1.518-4.661-4.3-6.027c-7.028-3.451-10.636-9.396-10.556-17.255
		c0.078-7.68,3.669-13.467,10.562-16.855c2.568-1.262,3.64-2.984,4.23-5.633c12.052-54.082,45.095-87.713,98.855-100.851
		c4.423-1.081,7.198-2.653,9.612-6.763c7.115-12.116,24.942-11.822,31.848,0.456c2.133,3.792,4.638,5.172,8.695,6.125
		c49.324,11.591,81.889,41.379,96.866,90.009c0.467,1.515,1.042,3.029,1.245,4.586c0.806,6.188,3.209,10.541,8.884,14.501
		c11.442,7.984,9.345,25.089-3.09,31.6c-2.436,1.276-3.841,2.732-4.438,5.478c-11.058,50.911-41.386,84.138-91.351,99.267
		c-1.138,0.345-2.272,0.762-3.439,0.942c-6.337,0.981-11.736,2.535-15.054,9.339C150.923,276.361,145.08,278.249,138.01,278.31z
		 M119.683,26.138c-3.393,0.809-6.116,1.348-8.777,2.108C66.321,40.98,38.431,69.899,26.986,114.793
		c-0.981,3.847-1.043,6.477,3.018,9.247c10.661,7.271,10.323,23.624-0.429,30.753c-3.161,2.096-3.649,4.1-2.974,7.457
		c8.874,44.148,45.099,80.321,89.442,89.305c3.35,0.679,5.383,0.206,7.471-2.981c7.385-11.27,23.7-11.245,31.064,0.068
		c2.131,3.274,4.303,3.513,7.531,2.87c44.113-8.794,80.598-45.304,89.344-89.382c0.623-3.138,0.319-5.158-2.771-7.193
		c-11.137-7.331-11.256-23.78-0.224-31.281c3.105-2.111,3.774-4.138,2.979-7.495c-9.26-39.102-32.102-66.957-69.032-82.903
		c-6.627-2.861-13.83-4.426-20.827-6.372c-2.178-0.606-4.331-1.041-6.161,1.744c-8.571,13.043-23.937,12.877-32.984-0.102
		C121.713,27.498,120.486,26.82,119.683,26.138z"/>
</g>
<g>
	<path fill="#C11E60" d="M182.511,111.609c0,5.811-0.054,11.622,0.05,17.431c0.019,1.046,0.461,2.248,1.089,3.095
		c9.115,12.278,13.032,25.96,11.114,41.175c-2.958,23.462-19.749,42.063-42.742,47.497c-29.774,7.036-60.378-11.808-67.295-41.598
		c-4.583-19.738,0.454-37.027,13.994-51.921c1.351-1.486,1.848-2.939,1.857-4.904c0.044-8.79-0.326-17.633,0.508-26.356
		c1.601-16.737,9.216-29.627,25.313-36.67c13.126-5.743,25.533-3.726,37.138,3.499c11.826,7.364,17.933,18.533,18.596,32.477
		c0.257,5.413,0.042,10.849,0.042,16.275C182.287,111.61,182.399,111.61,182.511,111.609z M112.713,116.192
		c0.171,0.035,0.342,0.129,0.462,0.085c0.714-0.26,1.426-0.531,2.122-0.836c17.629-7.726,34.875-7.038,51.73,2.34
		c2.379,1.323,2.815,1.07,2.824-1.774c0.019-6.415-0.034-12.83-0.008-19.245c0.018-4.293-1.003-8.338-2.815-12.188
		c-3.188-6.773-7.69-12.58-14.781-15.3c-8.562-3.283-17.277-2.425-25.236,2.09c-6.069,3.443-10.307,8.4-12.691,15.457
		c-3.293,9.745-2.324,19.416-1.741,29.214C112.582,116.094,112.674,116.149,112.713,116.192z M131.902,171.875
		c0,2.138,0.002,4.276,0,6.414c-0.005,4.31,1.046,5.589,5.317,6.544c2.53,0.566,4.835-0.032,7.044-1.243
		c1.393-0.764,2.082-1.843,2.05-3.516c-0.079-4.121,0.025-8.246-0.041-12.368c-0.045-2.771,0.235-5.3,1.722-7.853
		c2.371-4.072,1-9.257-2.681-12.132c-3.615-2.823-8.696-2.811-12.322,0.029c-3.639,2.85-5.001,8.099-2.663,12.129
		c1.361,2.344,1.689,4.644,1.591,7.187C131.858,168.666,131.908,170.271,131.902,171.875z"/>
</g>
</svg>
