<?xml version="1.0" encoding="utf-8"?>
<!-- Generator: Adobe Illustrator 24.3.0, SVG Export Plug-In . SVG Version: 6.00 Build 0)  -->
<svg version="1.1" id="Layer_1" xmlns="http://www.w3.org/2000/svg" xmlns:xlink="http://www.w3.org/1999/xlink" x="0px" y="0px"
	 viewBox="0 0 898.361 898.361" enable-background="new 0 0 898.361 898.361" xml:space="preserve">
<g>
	<path fill="#9ABBB5" d="M464.776,344.877c3.725,0.228,7.529,0.548,10.538,0.954l0.922,84.532h8.012
		c-0.349-31.62-0.682-62.498-0.987-90.442c-10.529-1.197-20.664-1.764-31.048-1.728c-11.412,0.035-22.543,0.796-34.044,2.334
		l0.98,89.836h32.532l-0.975-85.816C455.116,344.476,459.76,344.569,464.776,344.877z"/>
</g>
<g>
	<path fill="#427D6B" d="M669.84,483.49c-48.01-17.54-123.82-38.73-218.56-38.84c-95.46-0.11-171.82,21.24-219.98,38.84
		c-7.18,46.07-17.31,150.41,27.08,269.65c51.91,35.96,119.54,57.8,193.48,57.8c73.04,0,139.95-21.28,191.61-56.46
		C684.11,643.47,678.46,540.7,669.84,483.49z M305.35,541.49l-17.76-8.26l-17.76,8.26l3.39-17.51l-14.37-12.39l19.86-2.56
		l8.88-15.93l8.88,15.93l19.85,2.56l-14.37,12.39L305.35,541.49z M336.2,734.17l93.41-155.33l2.57-4.27l2.16-3.67l0.99-1.66
		l2.44-4.1l0.04,0.08l2.66-4.43l-0.05-0.13l2.93-4.91l0.04,0.17l6.49-10.84v-0.3l1.94-3.29l2.11,3.55v0.25l6.44,10.71l0.05-0.12
		l2.93,4.86v0.05l-0.05,0.08l2.7,4.53l0.05-0.09l2.43,4.1v0.04l1.22,2.05l0.04-0.04l2.16,3.67l2.44,4.05l93.18,154.99H336.2z
		 M630.26,523.98l3.39,17.51l-17.76-8.26l-17.76,8.26l3.39-17.51l-14.37-12.39l19.86-2.56l8.88-15.93l8.88,15.93l19.85,2.56
		L630.26,523.98z"/>
</g>
<g>
	<path fill="#333333" d="M449.18,0C201.106,0,0,201.104,0,449.18s201.106,449.181,449.18,449.181
		c248.076,0,449.181-201.105,449.181-449.181S697.256,0,449.18,0z M449.18,832.319c-211.602,0-383.138-171.537-383.138-383.139
		c0-211.602,171.537-383.139,383.138-383.139c211.602,0,383.139,171.537,383.139,383.139
		C832.319,660.782,660.782,832.319,449.18,832.319z"/>
	<path fill="#333333" d="M423.667,234.268c2.224-0.183,4.487-0.349,6.789-0.495c1.345-0.086,2.703-0.148,4.073-0.22
		c1.369-0.072,2.75-0.137,4.142-0.178c1.392-0.044,2.794-0.088,4.205-0.133c1.412-0.02,2.833-0.041,4.263-0.063
		c5.719-0.05,11.305,0.031,16.692,0.271c1.347,0.052,2.681,0.112,4.002,0.193c1.321,0.078,2.628,0.155,3.923,0.231
		c1.237,0.09,2.462,0.178,3.674,0.269l-1.001-12.872c-7.886-0.176-16.289-0.243-25.009-0.149c-1.409,0.014-2.809,0.029-4.2,0.044
		c-1.391,0.027-2.773,0.054-4.145,0.08c-1.372,0.018-2.734,0.054-4.085,0.093c-1.351,0.036-2.692,0.071-4.02,0.106
		c-2.929,0.095-5.8,0.2-8.607,0.316L423.667,234.268z"/>
	<path fill="#333333" d="M440.885,215.219c1.392-0.044,2.794-0.088,4.206-0.133c1.412-0.02,2.833-0.041,4.262-0.062
		c5.719-0.051,11.306,0.031,16.693,0.271c1.347,0.051,2.681,0.112,4.002,0.192c1.321,0.078,2.628,0.155,3.923,0.231
		c0.009,0.001,0.017,0.001,0.026,0.002l-1.149-14.787c-8.189-0.193-16.954-0.27-26.063-0.173c-1.409,0.015-2.809,0.029-4.2,0.044
		c-1.391,0.027-2.773,0.054-4.145,0.08c-1.372,0.018-2.734,0.054-4.085,0.093c-1.351,0.035-2.691,0.071-4.02,0.106
		c-1.629,0.053-3.237,0.109-4.829,0.168l-0.833,14.962c2.61-0.224,5.278-0.424,7.998-0.596c1.345-0.086,2.703-0.148,4.072-0.22
		C438.113,215.325,439.493,215.26,440.885,215.219z"/>
	<path fill="#333333" d="M420.675,287.983c9.792-1.186,19.63-1.832,29.468-1.928c0.561-0.005,1.121-0.009,1.683-0.011
		c9.25-0.032,18.511,0.423,27.743,1.355l-1.249-16.067c-9.503-0.282-19.889-0.415-30.768-0.299c-1.409,0.015-2.809,0.029-4.2,0.044
		c-1.391,0.027-2.773,0.053-4.145,0.08c-1.372,0.018-2.734,0.054-4.085,0.093c-1.351,0.036-2.692,0.071-4.02,0.106
		c-3.247,0.105-6.425,0.221-9.52,0.353L420.675,287.983z"/>
	<path fill="#333333" d="M421.888,266.205c2.901-0.258,5.874-0.485,8.914-0.678c1.345-0.086,2.703-0.147,4.072-0.219
		c1.37-0.072,2.75-0.138,4.142-0.178c1.392-0.044,2.794-0.088,4.205-0.132c1.412-0.021,2.834-0.042,4.264-0.063
		c5.719-0.051,11.305,0.031,16.692,0.271c1.347,0.051,2.681,0.112,4.002,0.192c1.321,0.078,2.628,0.155,3.923,0.231
		c1.97,0.144,3.907,0.279,5.808,0.439l-0.789-10.153c-9.221-0.262-19.251-0.381-29.738-0.269c-1.409,0.015-2.809,0.029-4.2,0.044
		c-1.391,0.027-2.773,0.054-4.145,0.08c-1.372,0.018-2.734,0.054-4.085,0.093c-1.351,0.035-2.691,0.071-4.019,0.106
		c-2.89,0.094-5.723,0.197-8.494,0.311L421.888,266.205z"/>
	<path fill="#333333" d="M427.386,170.163l-0.142,0.001l-1.42,25.432c1.39-0.104,2.793-0.226,4.211-0.317
		c1.345-0.085,2.703-0.172,4.073-0.244c1.369-0.072,2.75-0.137,4.142-0.178c1.392-0.044,2.794-0.088,4.205-0.132
		c1.412-0.021,2.833-0.042,4.263-0.063c5.719-0.051,11.305,0.031,16.692,0.271c1.347,0.051,2.681,0.112,4.002,0.192
		c1.321,0.078,2.628,0.155,3.923,0.231c0.364,0.027,0.724,0.102,1.085,0.128l-2.004-25.743l-0.078,0.001
		c-5.814,4.569-13.256,7.35-21.397,7.43C440.8,177.252,433.299,174.617,427.386,170.163z"/>
	<path fill="#333333" d="M422.75,250.727c2.573-0.221,5.204-0.416,7.884-0.587c1.345-0.085,2.703-0.147,4.073-0.22
		c1.369-0.072,2.75-0.137,4.142-0.178c1.392-0.044,2.794-0.088,4.205-0.132c1.412-0.021,2.834-0.042,4.263-0.063
		c5.719-0.051,11.305,0.031,16.692,0.271c1.347,0.051,2.681,0.112,4.002,0.192c1.321,0.078,2.629,0.155,3.923,0.231
		c1.615,0.118,3.205,0.232,4.774,0.356l-0.861-11.082c-8.919-0.24-18.569-0.347-28.642-0.239c-1.409,0.015-2.809,0.03-4.2,0.044
		c-1.391,0.027-2.773,0.054-4.145,0.08c-1.372,0.018-2.734,0.054-4.085,0.093c-1.351,0.036-2.692,0.071-4.02,0.106
		c-2.511,0.082-4.979,0.17-7.4,0.266L422.75,250.727z"/>
	<path fill="#333333" d="M566.701,311.427c-14.783-5.559-30.144-10.06-45.693-13.388c-22.684-4.857-45.951-7.266-69.154-7.16
		c-0.562,0.002-1.122,0.006-1.683,0.011c-23.391,0.23-46.79,3.012-69.573,8.274c-15.866,3.666-31.502,8.554-46.514,14.541
		c-1.231,0.491-1.865,1.79-1.476,3c3.769,11.715,7.539,23.43,11.308,35.144c0.225,0.546,0.587,1.099,1.192,1.422
		c0.933,0.497,2.027,0.253,2.306,0.142c33.352-13.179,68.575-19.389,104.73-19.544c35.107-0.161,69.436,5.36,102.094,17.518
		c1.436,0.534,3.044-0.224,3.464-1.631l10.54-35.358C568.605,313.18,567.943,311.894,566.701,311.427z M552.692,342.687
		c-0.672-0.228-1.495-0.531-2.481-0.854c-0.983-0.328-2.119-0.705-3.396-1.131c-5.122-1.66-12.566-3.959-21.89-6.25
		c-9.329-2.272-20.541-4.514-33.094-6.15c-12.556-1.609-26.457-2.503-41.045-2.402c-0.912-0.018-1.82,0.032-2.726,0.052
		c-0.905,0.025-1.808,0.048-2.709,0.074c-0.9,0.022-1.797,0.046-2.691,0.069c-0.447,0.011-0.894,0.022-1.339,0.034
		c-0.445,0.025-0.889,0.051-1.332,0.076c-3.545,0.211-7.046,0.338-10.469,0.672c-1.713,0.149-3.415,0.265-5.096,0.431
		c-1.679,0.185-3.341,0.367-4.986,0.548c-0.823,0.09-1.642,0.18-2.456,0.269c-0.811,0.112-1.617,0.222-2.42,0.332
		c-1.605,0.218-3.192,0.431-4.76,0.644c-12.515,1.878-23.673,4.353-32.95,6.805c-9.277,2.462-16.665,4.918-21.751,6.675
		c-1.268,0.45-2.394,0.851-3.371,1.197c-0.978,0.343-1.794,0.661-2.462,0.903c-1.332,0.49-2.031,0.747-2.031,0.747
		s0.659-0.339,1.915-0.985c0.631-0.318,1.404-0.728,2.335-1.179c0.931-0.452,2.005-0.972,3.215-1.558
		c4.866-2.29,12.004-5.476,21.151-8.699c9.144-3.213,20.296-6.481,32.983-8.971c1.591-0.284,3.201-0.572,4.831-0.863
		c0.815-0.144,1.635-0.289,2.46-0.435c0.828-0.121,1.662-0.242,2.5-0.365c1.677-0.239,3.373-0.48,5.085-0.725
		c1.715-0.219,3.455-0.386,5.207-0.58c3.501-0.424,7.087-0.624,10.722-0.884c0.454-0.032,0.91-0.063,1.366-0.094
		c0.457-0.016,0.914-0.033,1.373-0.048c0.917-0.031,1.838-0.062,2.761-0.094c0.923-0.029,1.85-0.058,2.78-0.089
		c0.93-0.023,1.862-0.074,2.798-0.056c14.976-0.106,29.232,1.203,41.967,3.418c12.738,2.244,23.961,5.279,33.173,8.313
		c9.212,3.057,16.422,6.089,21.335,8.287c1.222,0.562,2.308,1.061,3.25,1.494c0.94,0.432,1.721,0.827,2.359,1.132
		c1.27,0.622,1.937,0.947,1.937,0.947S554.034,343.15,552.692,342.687z"/>
	<path fill="#333333" d="M448.236,112.536c-18.833,0.184-33.943,14.803-33.749,32.652c0.11,10.133,5.133,19.126,12.899,24.975
		c5.913,4.455,13.414,7.089,21.555,7.009c8.141-0.08,15.583-2.861,21.397-7.43c7.636-6.001,12.462-15.089,12.352-25.222
		C482.495,126.67,467.069,112.351,448.236,112.536z M471.759,161.118c-1.474,1.382-2.995,2.48-4.426,3.382
		c-2.874,1.802-5.425,2.785-7.193,3.371c-1.777,0.578-2.795,0.744-2.795,0.744s0.873-0.524,2.32-1.583
		c1.438-1.064,3.468-2.657,5.591-4.86c2.117-2.193,4.335-5.011,5.843-8.397c0.393-0.839,0.699-1.727,0.998-2.629
		c0.064-0.228,0.129-0.458,0.194-0.688l0.1-0.346l0.079-0.352c0.054-0.233,0.109-0.469,0.164-0.705
		c0.043-0.239,0.085-0.479,0.128-0.72c0.101-0.478,0.14-0.971,0.211-1.461c0.033-0.496,0.1-0.991,0.104-1.496
		c0.054-1.006,0.015-2.032-0.068-3.066c-0.17-2.071-0.616-4.082-1.227-5.991c-0.64-1.9-1.427-3.709-2.369-5.36
		c-1.865-3.315-4.183-6.053-6.411-8.144c-2.228-2.096-4.334-3.587-5.845-4.554c-0.383-0.239-0.723-0.452-1.018-0.636
		c-0.297-0.182-0.556-0.324-0.763-0.448c-0.416-0.245-0.634-0.373-0.634-0.373s0.253,0.044,0.734,0.129
		c0.24,0.046,0.542,0.095,0.892,0.173c0.35,0.084,0.754,0.18,1.208,0.288c1.807,0.47,4.417,1.332,7.387,3.003
		c2.957,1.662,6.256,4.197,9.036,7.807c1.395,1.795,2.613,3.872,3.585,6.158c0.943,2.294,1.621,4.812,1.839,7.457
		c0.472,5.292-0.989,10.466-3.506,14.326C474.689,158.099,473.232,159.74,471.759,161.118z"/>
	<polygon fill="#333333" points="220.801,191.55 235.467,165.24 250.133,191.55 282.929,195.769 259.198,216.249 264.8,245.165 
		235.467,231.513 206.134,245.165 211.737,216.249 188.005,195.769 	"/>
	<polygon fill="#333333" points="128.706,362.099 143.372,335.789 158.039,362.099 190.834,366.318 167.103,386.797 
		172.705,415.714 143.372,402.062 114.039,415.714 119.642,386.797 95.91,366.318 	"/>
	<polygon fill="#333333" points="678.654,191.55 663.988,165.24 649.321,191.55 616.526,195.769 640.257,216.249 634.655,245.165 
		663.988,231.513 693.321,245.165 687.718,216.249 711.45,195.769 	"/>
	<polygon fill="#333333" points="768.118,362.099 753.452,335.789 738.785,362.099 705.989,366.318 729.721,386.797 
		724.118,415.714 753.452,402.062 782.784,415.714 777.182,386.797 800.913,366.318 	"/>
	<path fill="#333333" d="M693.413,474.232l-2.561-15.711c-50.67-17.341-134.668-39.785-240.964-39.682
		c-105.54,0.102-188.977,22.389-239.506,39.682c-0.873,5.209-1.746,10.417-2.619,15.626c-10.05,60.66-14.179,149.873,15.015,249.671
		c3.777,3.671,7.647,7.277,11.685,10.763c2.053,1.773,4.195,3.476,6.32,5.193c-20.798-62.29-27.882-120.91-28.017-171.484
		c-0.096-34.968,3.125-66.093,7.407-91.944l0.852-4.879c5.66-2.018,13.885-4.864,23.898-8.009
		c34.023-10.687,113.665-31.972,207.267-31.753c29.598,0.069,109.916,2.175,204.074,31.753c9.925,3.118,18.126,5.951,23.898,8.009
		c0.277,1.636,0.555,3.271,0.833,4.907c3.968,24.636,7.472,57.493,7.171,95.795c-0.388,49.421-7.181,107.918-27.432,169.507
		c3.344-2.66,6.617-5.377,9.8-8.164c2.785-2.44,5.494-4.934,8.165-7.455C708.566,621.991,702.156,528.525,693.413,474.232z"/>
	<polygon fill="#333333" points="483.774,712.974 451.594,696.94 419.412,712.974 425.558,679.014 399.523,654.962 435.503,650.008 
		451.594,619.109 467.684,650.008 503.664,654.962 477.628,679.014 	"/>
</g>
</svg>
