<?xml version="1.0" encoding="utf-8"?>
<!-- Generator: Adobe Illustrator 24.3.0, SVG Export Plug-In . SVG Version: 6.00 Build 0)  -->
<svg version="1.1" id="Layer_1" xmlns="http://www.w3.org/2000/svg" xmlns:xlink="http://www.w3.org/1999/xlink" x="0px" y="0px"
	 viewBox="0 0 283.669 350" enable-background="new 0 0 283.669 350" xml:space="preserve">
<g>
	<path fill="#0C0C0C" d="M250.233,214.359v0.224c-0.014,29.342-0.014,58.677-0.022,88.019c0,2.894,0.043,5.787-0.014,8.681
		c-0.166,8.558-6.706,15.083-15.149,15.141c-8.725,0.065-15.46-6.308-15.604-15.069c-0.152-9.159-0.022-18.324-0.043-27.483
		c-0.022-9.267-6.764-16.501-15.481-16.66c-8.753-0.159-15.778,7.169-15.915,16.61c-0.036,2.286,0.036,4.587-0.072,6.873
		c-0.391,8.413-6.699,13.825-15.85,13.666c-8.638-0.152-14.678-5.787-14.823-13.948c-0.094-5.18,0.029-10.367-0.036-15.554
		c-0.123-9.238-7.082-16.415-15.792-16.364c-8.696,0.043-15.611,7.241-15.64,16.501c-0.065,19.771-0.014,39.542-0.036,59.306
		c0,6.366-2.763,11.206-8.507,13.969c-5.809,2.8-11.524,2.192-16.624-1.794c-4.066-3.169-5.672-7.553-5.65-12.703
		c0.065-18.078,0.058-36.164,0.007-54.25c-0.022-7.799-4.464-13.984-11.22-15.959c-10.099-2.952-20.032,4.391-20.176,15.141
		c-0.159,11.568,0.036,23.142-0.072,34.717c-0.072,7.929-5.961,14.23-13.796,15.076c-7.401,0.803-14.483-4.001-16.386-11.293
		c-0.477-1.837-0.535-3.812-0.543-5.729c-0.043-15.915-0.022-31.823-0.022-47.739c0-16.516,0.051-33.032-0.051-49.547
		c0-0.383,0.014-0.738,0.051-1.063c0.195-1.707,0.998-2.706,2.857-3.566c8.131-3.74,16.422-6.93,24.842-9.651
		c13.383-4.319,27.121-7.444,41.112-9.658c22.839-3.61,45.793-4.464,68.819-2.156c17.854,1.787,35.209,5.361,51.978,11.068
		c8.775,2.981,17.384,6.54,25.819,10.743C250.37,210.996,250.233,212.558,250.233,214.359z"/>
</g>
<g>
	<path fill="#444444" d="M182.028,78.603c-1.425,1.411-2.655,3.132-4.312,4.167c-3.928,2.467-9.94,7.509-11.741,6.337
		c-5.556-3.624-9.817-9.455-14.013-14.874c-1.751-2.272-1.932-8.052-3.067-8.117c-4.63-0.26-10.982-0.629-13.774,2.069
		c-24.025,23.2-47.565,46.907-70.773,70.925c-2.771,2.872-3.603,8.515-3.704,12.906c-0.347,14.997-0.514,30.015-0.181,45.011
		c-8.421,2.72-16.711,5.91-24.842,9.651c-1.859,0.861-2.662,1.859-2.857,3.566c-0.564-1.44-0.81-3.342-0.637-5.853
		c0.499-7.314-0.391-14.729,0.181-22.028c0.702-8.913-2.214-13.311-11.691-12.081c-2.959,0.383-6.091,0.499-8.992-0.058
		c-3.95-0.76-7.755-2.279-11.625-3.472c1.953-3.27,3.364-7.082,5.961-9.723c14.997-15.221,30.297-30.16,45.467-45.221
		c18.491-18.353,37.481-36.244,55.183-55.328c7.668-8.269,12.646-19.026,19.33-29.393C116.095,15.325,104.057,7.86,88.605,5.002
		c7.69-5.853,16.451-5.773,24.908-3.776c22.419,5.281,36.873,21.913,51.681,37.821c0.984,1.056,1.505,3.132,1.309,4.608
		c-0.76,5.664,1.078,8.262,7.14,7.545c1.758-0.21,3.935,0.593,5.484,1.606C193.126,61.979,193.654,67.065,182.028,78.603z"/>
	<path fill="#444444" d="M283.669,167.064c-3.878,1.208-7.726,3.335-11.647,3.472c-22.752,0.817-20.024-4.001-20.864,21.066
		c-0.101,2.995-0.022,5.997-0.029,8.999c-0.014,5.614-0.022,9.028-0.897,11.097v-0.224c0-1.801,0.137-3.364-2.04-4.449
		c-8.435-4.203-17.044-7.762-25.819-10.743c0.029-15.033,0.376-30.08-0.347-45.077c-0.246-5.078-2.706-11.097-6.178-14.787
		c-13.665-14.497-28.141-28.243-43.058-43c7.357-6.981,13.803-13.094,20.856-19.778c2.373,2.17,4.869,4.275,7.176,6.576
		c25.718,25.674,51.464,51.327,77.016,77.168C280.414,159.989,281.752,163.808,283.669,167.064z"/>
</g>
<g>
	<g>
		<path d="M187.974,330.6c-0.138,8.665-6.837,15.229-15.466,15.153c-8.832-0.078-15.356-6.796-15.253-15.708
			c0.101-8.711,7.037-15.362,15.814-15.165C181.583,315.07,188.111,321.955,187.974,330.6z"/>
	</g>
	<g>
		<path d="M125.892,173.7c-11.511,2.872-11.284-4.478-11.768-12.739c-0.622-10.613,4.644-11.642,13.438-12.004
			c10.93-0.451,11.618,5.045,11.917,13.576C139.846,173.008,135.263,175.783,125.892,173.7z"/>
	</g>
	<g>
		<path d="M114.482,134.691c0.28-1.592,0.266-3.221,0.065-4.825c-1.074-8.592,4.272-9.597,12.137-9.809
			c9.654-0.261,12.934,2.833,12.822,12.597c-0.107,9.375-2.65,12.972-12.618,12.925
			C117.232,145.533,113.097,142.557,114.482,134.691z"/>
	</g>
	<g>
		<path d="M155.986,120.602c10.839-2.423,12.132,3.598,12.473,12.518c0.392,10.255-3.981,12.188-13.162,12.416
			c-10.275,0.255-12.226-3.889-12.272-13.115C142.977,122.524,146.139,118.418,155.986,120.602z"/>
	</g>
	<g>
		<path d="M155.662,173.693c-11.206,2.589-12.246-3.476-12.621-12.379c-0.437-10.341,3.91-12.211,13.068-12.431
			c10.29-0.247,12.322,4.066,12.367,13.24C168.525,172.029,165.242,176.14,155.662,173.693z"/>
	</g>
</g>
</svg>
