<?xml version="1.0" encoding="utf-8"?>
<!-- Generator: Adobe Illustrator 24.3.0, SVG Export Plug-In . SVG Version: 6.00 Build 0)  -->
<svg version="1.1" id="Layer_1" xmlns="http://www.w3.org/2000/svg" xmlns:xlink="http://www.w3.org/1999/xlink" x="0px" y="0px"
	 viewBox="0 0 304.498 304.586" enable-background="new 0 0 304.498 304.586" xml:space="preserve">
<g>
	<linearGradient id="SVGID_1_" gradientUnits="userSpaceOnUse" x1="76.0808" y1="182.5788" x2="231.0829" y2="182.5788">
		<stop  offset="0" style="stop-color:#9E5440"/>
		<stop  offset="0.1411" style="stop-color:#974D39"/>
		<stop  offset="0.3788" style="stop-color:#843A27"/>
		<stop  offset="0.5395" style="stop-color:#762B19"/>
		<stop  offset="1" style="stop-color:#652D25"/>
	</linearGradient>
	<path fill="url(#SVGID_1_)" d="M173.741,214.134c2.762,2.602,4.581,5.418,5.598,8.775c0.544,1.796,0.396,2.613-1.778,2.606
		c-15.88-0.051-31.761-0.042-47.641,0.013c-2.199,0.008-2.655-0.677-1.965-2.754c1.068-3.214,2.708-6.004,5.404-8.397
		c-1.408-1.29-3.13-1.214-4.62-1.643c-20.016-5.755-36.236-16.428-45.872-35.532c-5.283-10.473-7.088-21.71-6.746-33.343
		c0.046-1.566-0.273-3.43,2.059-3.931c3.702-0.795,6.822-0.001,7.859,2.268c1.464,3.204,2.659,6.543,4.631,9.489
		c8.68,12.971,21.219,18.342,36.423,18.32c11.806-0.017,22.424-3.857,31.452-11.267c19.653-16.131,42.287-18.979,66.407-15.641
		c5.273,0.73,6.421,2.539,6.074,7.906c-1.849,28.618-18.348,50.006-46.096,59.67C181.408,211.9,177.802,212.885,173.741,214.134z"/>
	<linearGradient id="SVGID_2_" gradientUnits="userSpaceOnUse" x1="93.6402" y1="141.8611" x2="259.882" y2="141.8611">
		<stop  offset="0" style="stop-color:#9E5440"/>
		<stop  offset="0.1411" style="stop-color:#974D39"/>
		<stop  offset="0.3788" style="stop-color:#843A27"/>
		<stop  offset="0.5395" style="stop-color:#762B19"/>
		<stop  offset="1" style="stop-color:#652D25"/>
	</linearGradient>
	<path fill="url(#SVGID_2_)" d="M209.734,133.716c-16.263,0.357-32.069,2.627-46.139,11.629c-3.985,2.55-7.68,5.548-11.57,8.251
		c-12.66,8.798-26.302,10.991-40.759,5.314c-8.44-3.314-14.131-9.587-16.947-18.296c-1.463-4.527-0.725-5.368,3.827-4.897
		c14.582,1.508,29.157,2.994,43.869,2.295c8.147-0.387,15.774-2.652,23.443-5.165c18.703-6.128,37.813-10.334,57.566-11.07
		c9.746-0.363,19.397,0.165,28.673,3.593c2.388,0.882,4.694,1.93,6.534,3.764c2.492,2.484,2.171,4.648-1.009,6.257
		c-2.608,1.319-5.476,1.586-8.342,1.755c-7.44,0.438-14.716-0.935-22.007-2.069C221.193,134.194,215.491,133.765,209.734,133.716z"
		/>
</g>
<g>
	<path fill="#2DB34A" d="M151.103,122.579c-7.643-4.932-9.294-10.491-5.35-18.503c2.284-4.64,5.12-9.007,7.41-13.644
		c2.712-5.49,4.549-11.237,3.147-17.528c3.218,5.887,2.629,11.777-0.23,17.512c-2.062,4.137-4.528,8.071-6.733,12.14
		C145.553,109.559,145.723,116.248,151.103,122.579z"/>
	<path fill="#2DB34A" d="M115.933,71.26c3.45,6.296,2.27,12.439-0.745,18.439c-1.429,2.844-3.074,5.587-4.738,8.304
		c-4.3,7.019-6.225,14.11-0.515,21.733c-4.562-1.794-7.265-6.842-6.507-11.486c0.726-4.446,3.047-8.206,5.214-12.027
		c3.142-5.539,6.462-10.979,7.42-17.471C116.437,76.216,116.44,73.749,115.933,71.26z"/>
	<path fill="#2DB34A" d="M141.117,73.604c-0.073,0.278-0.159,0.556-0.245,0.841c-1.251,2.331-2.476,4.675-3.761,6.985
		c-2.834,5.098-5.999,9.998-8.535,15.269c-5.542,11.495-4.013,21.976,4.204,31.603c0.212,0.252,0.444,0.483,0.656,0.742
		c0.205,0.245,0.391,0.51,0.583,0.768c-6.476-3.979-12.369-8.502-13.958-16.613c-1.145-5.867,0.682-11.19,3.192-16.222
		c2.205-4.416,4.695-8.694,7.164-12.971l0.02-0.02c0.205-0.212,1.748-1.867,3.655-5.463c2.41-4.529,5.41-12.137,7.032-23.817
		C142.117,60.587,143.13,66.466,141.117,73.604z"/>
</g>
<g>
	
		<linearGradient id="SVGID_3_" gradientUnits="userSpaceOnUse" x1="881.9042" y1="491.9191" x2="957.3605" y2="584.7883" gradientTransform="matrix(-0.7071 -0.7071 0.7071 -0.7071 430.9487 1095.2776)">
		<stop  offset="0" style="stop-color:#8CC542"/>
		<stop  offset="1" style="stop-color:#BDD538"/>
	</linearGradient>
	<path fill="url(#SVGID_3_)" d="M53.122,265.703l23.991-27.415c-34.014-29.768-47.3-76.882-33.83-120.011
		c9.08-29.108,28.963-52.933,55.963-67.085c27.008-14.161,57.909-16.951,87.016-7.861c15.327,4.775,29.156,12.518,41.115,22.974
		c34.017,29.768,47.303,76.869,33.831,120c-18.754,60.089-82.898,93.716-142.975,74.943c-15.332-4.77-29.166-12.496-41.121-22.96
		L53.122,265.703 M53.122,265.703c15.31,13.387,33.584,23.886,54.246,30.344c79.384,24.769,163.831-19.495,188.624-98.885
		c18.338-58.72-1.118-120.217-44.62-158.282c-15.305-13.389-33.59-23.874-54.249-30.334C117.734-16.235,33.286,28.03,8.5,107.414
		C-9.825,166.145,9.614,227.636,53.122,265.703L53.122,265.703z"/>
</g>
<g>
	<path fill="#91C13E" d="M121.273,235.027c-46.222-17.882-69.831-68.913-54.195-115.419c-0.515,1.208-1.043,2.435-1.531,3.69
		c-18.389,47.534,5.236,100.977,52.781,119.371c47.535,18.389,100.985-5.242,119.368-52.79c0.497-1.272,0.952-2.557,1.382-3.837
		C219.37,231.025,167.535,252.926,121.273,235.027z"/>
</g>
</svg>
