<?xml version="1.0" encoding="utf-8"?>
<!-- Generator: Adobe Illustrator 24.3.0, SVG Export Plug-In . SVG Version: 6.00 Build 0)  -->
<svg version="1.1" id="Layer_1" xmlns="http://www.w3.org/2000/svg" xmlns:xlink="http://www.w3.org/1999/xlink" x="0px" y="0px"
	 viewBox="0 0 395.434 245.903" enable-background="new 0 0 395.434 245.903" xml:space="preserve">
<g>
	<path fill="#226E37" d="M291.468,127.612c-5.13,5.491-9.396,10.058-13.662,14.625c-0.742-0.43-1.483-0.86-2.225-1.29
		c0.328-4.301,0.656-8.602,0.998-13.089c-6.422-0.757-13.088-1.543-19.755-2.329c-0.177-0.627-0.354-1.255-0.531-1.882
		c6.336-2.017,12.673-4.035,18.833-5.996c-1.717-2.966-4.039-6.98-6.362-10.994c0.482-0.592,0.964-1.184,1.447-1.776
		c5.431,2.333,10.862,4.666,17.605,7.562c-1.987-8.98-3.835-17.333-5.683-25.687c0.855-0.341,1.71-0.682,2.564-1.023
		c3.397,7.926,6.795,15.853,9.807,22.879c5.859-4.665,12.842-10.224,19.825-15.784c0.578,0.742,1.156,1.484,1.734,2.226
		c-4.734,5.761-9.467,11.522-15.546,18.92c7.832-2.813,13.799-4.957,19.767-7.1c0.402,0.676,0.805,1.352,1.207,2.029
		c-3.962,3.423-7.923,6.846-11.338,9.796c5.919,3.514,12.15,7.212,18.382,10.911c-0.394,0.768-0.787,1.536-1.181,2.304
		c-6.845-1.16-13.691-2.32-18.981-3.217c3.925,7.235,8.302,15.304,12.68,23.373c-0.734,0.378-1.468,0.755-2.202,1.133
		c-6.032-5.881-12.063-11.762-19.265-18.784c3.554,30.527,6.829,58.661,10.426,89.564c22.318-47.224,31.948-94.93,31.78-146.016
		c-2.813,3.346-5.397,6.927-8.509,9.968c-2.814,2.749-6.206,4.907-9.343,7.325c-0.756-0.519-1.511-1.038-2.267-1.556
		c1.58-6.565,3.161-13.13,4.567-18.973c-9.231-1.222-18.733-2.48-29.528-3.909c9.84-7.646,19.921-9.66,30.976-7.602
		c-1.074-5.978-11.7-5.351-9.618-15.069c-0.751-0.454-3.013-1.824-5.275-3.193c0.418-0.87,0.836-1.739,1.255-2.609
		c8.968,4.183,17.936,8.367,27.654,12.9c-1.944-11.405-4.04-23.697-6.392-37.495c11.816,10.252,12.655,23.69,15.256,38.326
		c7.56-14.209,16.687-23.183,31.727-22.959c-7.3,7.774-14.566,15.512-23.272,24.784c11.768-3.34,21.524-6.11,31.28-8.879
		c0.303,0.751,0.606,1.502,0.909,2.254c-7.218,4.876-14.436,9.752-22.266,15.042c10.347,3.941,22.626,6.031,26.489,21.238
		c-4.515-2.939-9.414-7.582-10.707-6.732c-7.918,5.203-12.648-3.903-20.952-3.38c11.588,10.346,18.674,21.777,17.365,38.683
		c-2.133-4.846-3.566-8.103-5.254-11.94c-1.66,0.968-3.128,1.823-5.168,3.012c-2.166-5.928-4.298-11.766-6.753-18.486
		c-1.739,1.194-3.035,2.083-4.789,3.286c-1.959-5.065-3.954-10.223-5.949-15.38c-0.526,54.176-8.629,106.955-22.68,159.558
		c-11.81-2.203-22.992-4.288-34.97-6.522C298.744,195.627,297.596,162.051,291.468,127.612z"/>
</g>
<g>
	<path fill="#EE203A" d="M244.29,205.29c0,2.959,0,5.626,0,8.749c-2.803,0-5.571,0-8.745,0c0-2.837,0-5.631,0-8.749
		C238.329,205.29,240.981,205.29,244.29,205.29z"/>
	<path fill="#EE203A" d="M223.864,214.196c0-3.145,0-5.807,0-8.85c2.845,0,5.481,0,8.654,0c0,2.725,0,5.64,0,8.85
		C229.719,214.196,227.087,214.196,223.864,214.196z"/>
	<path fill="#EE203A" d="M235.43,193.949c3.283,0,5.938,0,8.856,0c0,2.946,0,5.592,0,8.575c-3.006,0-5.801,0-8.856,0
		C235.43,199.644,235.43,196.979,235.43,193.949z"/>
	<path fill="#EE203A" d="M232.741,202.546c-3.274,0-5.922,0-8.828,0c0-2.931,0-5.569,0-8.55c2.99,0,5.775,0,8.828,0
		C232.741,196.883,232.741,199.525,232.741,202.546z"/>
	<path fill="#EE203A" d="M174.253,219.516c0,2.959,0,5.626,0,8.749c-2.803,0-5.571,0-8.745,0c0-2.837,0-5.631,0-8.749
		C168.292,219.516,170.944,219.516,174.253,219.516z"/>
	<path fill="#EE203A" d="M153.827,228.423c0-3.145,0-5.807,0-8.85c2.845,0,5.481,0,8.654,0c0,2.725,0,5.64,0,8.85
		C159.681,228.423,157.049,228.423,153.827,228.423z"/>
	<path fill="#EE203A" d="M165.393,208.175c3.283,0,5.938,0,8.856,0c0,2.946,0,5.592,0,8.575c-3.006,0-5.801,0-8.856,0
		C165.393,213.87,165.393,211.206,165.393,208.175z"/>
	<path fill="#EE203A" d="M162.703,216.773c-3.274,0-5.922,0-8.828,0c0-2.931,0-5.569,0-8.55c2.99,0,5.775,0,8.828,0
		C162.703,211.109,162.703,213.751,162.703,216.773z"/>
	<path fill="#EE203A" d="M158.654,164.335c-0.084,2.423-1.883,3.336-3.125,4.509c-22.804,21.517-45.668,42.97-68.471,64.488
		c-2.088,1.97-4.242,3.279-7.215,3.274c-19.513-0.036-39.026,0.001-58.539-0.006c-1.418-0.001-2.934,0.134-4.38-1.726
		c7.211-5.897,14.335-11.762,21.5-17.577c14.297-11.603,28.534-23.282,42.978-34.699c4.093-3.235,6.107-6.741,5.625-12.075
		c-0.425-4.698,8.96-13.372,13.676-13.118c2.93,0.158,2.065,2.587,2.085,4.174c0.101,8.138,0.047,16.278,0.832,24.52
		c0.691-3.514,1.469-7.013,2.043-10.546c0.391-2.405,1.299-4.102,3.942-4.495c15.682-2.33,31.358-4.698,47.041-7.017
		C157.273,163.948,157.956,164.224,158.654,164.335z"/>
	<path fill="#EE203A" d="M207.413,135.747c-0.359,2.88,1.663,7.112-1.045,8.593c-2.585,1.414-5.4-2.029-7.96-3.591
		c-9.023-5.506-18.081-10.968-26.92-16.76c-4.538-2.974-8.352-2.919-13.019-0.058c-14.764,9.05-29.745,17.748-44.711,26.465
		c-2.307,1.344-4.849,4.793-7.544,0.031c-0.764-1.35-2.316,0.061-3.369,0.643c-3.989,2.202-7.935,4.483-11.919,6.696
		c-2.265,1.258-3.593,1.011-4.013-2.01c-1.155-8.299-0.138-10.418,7.076-14.574c21.639-12.464,43.31-24.877,64.795-37.604
		c4.192-2.483,7.367-2.627,11.454-0.015c9.673,6.182,19.402,12.335,29.501,17.768C205.875,124.632,209.101,128.596,207.413,135.747z
		"/>
	<path fill="#EE203A" d="M227.25,236.61c-1.459,0-2.918,0.009-4.377-0.002c-7.492-0.054-7.589-0.055-7.79-7.582
		c-0.073-2.752-0.918-4.853-2.927-6.74c-13.824-12.979-27.527-26.089-41.402-39.013c-5.979-5.568-6.156-5.394-11.948,0.089
		c-13.107,12.407-26.175,24.858-39.396,37.144c-3.138,2.916-5.281,5.919-4.692,10.394c0.565,4.303-1.531,5.901-5.709,5.737
		c-4.734-0.186-9.482-0.006-14.223-0.048c-1.237-0.011-2.82,0.201-3.362-1.224c-0.546-1.437,0.85-2.28,1.731-3.119
		c7.917-7.549,15.831-15.102,23.817-22.578c14.638-13.705,29.411-27.268,43.923-41.105c3.163-3.016,5.089-2.715,8.086,0.116
		c21.731,20.532,43.607,40.911,65.434,61.343c0.932,0.872,1.865,1.748,2.732,2.682c0.714,0.77,1.782,1.534,1.202,2.767
		c-0.551,1.172-1.822,1.071-2.891,1.089c-2.735,0.046-5.471,0.015-8.206,0.015C227.25,236.588,227.25,236.599,227.25,236.61z"/>
	<path fill="#EE203A" d="M207.664,161.725c-0.612,3.206,1.413,7.455-1.254,8.966c-3.016,1.71-5.742-2.143-8.429-3.72
		c-9.588-5.626-19.089-11.417-28.409-17.474c-3.46-2.249-6.262-2.318-9.414,0.138c-1.138,0.887-2.637,1.31-3.771,2.201
		c-12.709,9.987-27.737,13.124-43.285,14.691c-1.998,0.201-4.664,1.614-5.735-1.3c-1.046-2.847-0.139-5.25,2.729-6.908
		c17.046-9.852,34.06-19.761,51.046-29.716c2.522-1.478,4.736-1.306,7.145,0.169c11.964,7.327,23.91,14.688,35.976,21.845
		C209.119,153.498,206.824,158.067,207.664,161.725z"/>
	<path fill="#EE203A" d="M41.187,112.452c-1.661-5.874,2.076-9.205,7.644-12.204c11.05-5.952,21.842-12.397,32.602-18.87
		c4.081-2.455,7.355-2.559,11.439,0.321c6.828,4.816,13.974,9.252,21.313,13.248c4.496,2.448,6.427,5.558,5.837,10.491
		c-0.129,1.077,0.094,2.199-0.057,3.271c-0.314,2.23,1.219,5.28-1.318,6.49c-2.156,1.028-3.776-1.622-5.575-2.73
		c-7.123-4.39-14.3-8.701-21.275-13.318c-2.97-1.966-5.306-2.111-8.424-0.212c-11.501,7.002-23.154,13.756-34.796,20.522
		c-1.948,1.132-3.98,3.651-6.254,2.251c-2.206-1.358-0.837-4.374-1.124-6.648C41.129,114.525,41.187,113.971,41.187,112.452z"/>
	<path fill="#EE203A" d="M86.83,32.907c-1.661-5.831,2.321-9.042,7.832-12.031c11.374-6.169,22.536-12.748,33.596-19.47
		c3.358-2.041,5.801-1.789,8.908,0.297c6.959,4.67,13.97,9.311,21.283,13.385c5.124,2.855,7.573,6.487,6.615,12.314
		c-0.146,0.888,0.054,1.827-0.032,2.731c-0.183,1.941,0.957,4.629-0.839,5.641c-2.098,1.182-3.944-1.216-5.72-2.302
		c-7.152-4.377-14.281-8.801-21.268-13.434c-2.966-1.967-5.378-2.051-8.487-0.166c-11.536,6.992-23.223,13.738-34.88,20.53
		c-1.843,1.074-3.823,3.421-5.787,2.364c-2.314-1.246-0.971-4.292-1.21-6.556C86.766,35.487,86.83,34.751,86.83,32.907z"/>
	<path fill="#EE203A" d="M164.959,52.232c-0.417,2.519,1.512,6.242-0.934,7.564c-2.421,1.309-4.715-1.986-6.968-3.337
		c-6.407-3.84-12.686-7.9-18.926-12.008c-3.568-2.349-6.62-2.489-10.504-0.083c-11.772,7.292-23.871,14.055-35.765,21.153
		c-3.68,2.196-4.6,1.586-5.104-2.816c-1.052-9.183,1.564-15.239,10.44-19.477c10.821-5.167,20.995-11.719,31.297-17.925
		c3.135-1.888,5.447-1.697,8.412,0.302c6.644,4.479,13.333,8.971,20.393,12.728C163.151,41.447,166.593,45.212,164.959,52.232z"/>
	<path fill="#EE203A" d="M164.939,76.064c-0.238,2.581,1.421,6.311-0.691,7.703c-2.41,1.588-4.735-1.783-6.963-3.102
		c-6.88-4.076-13.677-8.314-20.302-12.79c-2.849-1.925-5.179-1.929-8-0.207c-6.829,4.169-13.859,8.014-20.601,12.314
		c-3.72,2.373-6.695,2.284-10.424-0.159c-10.653-6.977-10.717-6.765,0.223-12.922c9.983-5.619,20.002-11.193,29.753-17.196
		c3.754-2.311,6.409-1.848,9.814,0.472c6.457,4.4,13.033,8.701,19.912,12.385C163.318,65.591,166.582,69.295,164.939,76.064z"/>
	<path fill="#EE203A" d="M41.203,136.787c-1.519-5.758,1.786-9.302,7.455-12.344c11.539-6.193,22.784-12.946,34.018-19.689
		c3.453-2.073,6.111-1.863,9.418,0.379c7.226,4.898,14.688,9.458,22.154,13.99c3.077,1.867,3.54,3.016,0.114,5.184
		c-10.038,6.351-10.085,6.659-21.898-0.713c-3.834-2.393-6.554-2.355-10.338-0.012c-11.292,6.994-22.842,13.571-34.312,20.275
		c-6.294,3.679-6.578,3.488-6.611-3.959C41.2,139.169,41.203,138.441,41.203,136.787z"/>
	<path fill="#EE203A" d="M41.194,160.293c-1.641-5.942,2.242-9.111,7.83-12.087c11.093-5.907,21.806-12.523,32.699-18.807
		c4.85-2.798,11.336-1.557,14.66,2.597c1.197,1.497,0.46,2.253-0.763,3.011c-2.323,1.441-4.642,2.889-6.968,4.325
		c-2.772,1.711-5.678,3.114-6.265,6.999c-0.358,2.369-3.003,3.024-4.831,4.118c-9.851,5.896-19.744,11.724-29.654,17.521
		c-1.679,0.982-3.429,2.969-5.375,2.01c-2.385-1.175-1.034-3.921-1.313-5.977C41.093,163.108,41.194,162.183,41.194,160.293z"/>
	<path fill="#EE203A" d="M122.897,94.513c-4.866-1.883-9.221-4.513-13.146-7.744c-1.792-1.476-0.002-2.518,1.239-3.244
		c6.274-3.67,12.586-7.275,18.854-10.955c2.163-1.27,4.102-0.942,6.115,0.343c8.573,5.477,17.224,10.832,25.74,16.394
		c4.354,2.844,3.998,4.325-0.236,7.555c-5.507,4.202-10.696,5.592-16.28,0.297c-1.162-1.102-2.856-1.622-4.12-2.64
		c-4.807-3.871-9.664-5.773-15.142-1.168C125.149,94.002,123.937,94.131,122.897,94.513z"/>
	<path fill="#EE203A" d="M41.191,184.501c-1.367-5.444,1.444-9.041,7.134-11.979c10.029-5.178,19.688-11.09,29.383-16.893
		c3.941-2.359,5.258-1.243,5.06,2.965c-0.009,0.182-0.023,0.369,0.008,0.546c1.545,8.905-1.75,14.569-10.219,18.483
		c-8.727,4.034-16.725,9.638-25.092,14.468c-1.628,0.94-3.198,3.161-5.298,1.764c-1.669-1.111-0.841-3.366-0.962-5.134
		C41.131,187.634,41.191,186.536,41.191,184.501z"/>
	<path fill="#EE203A" d="M155.964,159.124c6.083-6.013,8.034-6.381,14.189-2.68c11.086,6.665,22.173,13.329,33.191,20.105
		c3.487,2.144,6.141,15.306,3.909,18.512c-1.282,1.841-2.19,0.244-3.02-0.505c-4.057-3.66-8.096-7.343-12.074-11.088
		c-7.826-7.367-15.88-14.52-23.299-22.279C164.87,157.018,160.406,159.79,155.964,159.124z"/>
	<path fill="#EE203A" d="M124.089,108.839c0.234-2.705-0.068-5.604,0.821-8.074c1.598-4.437,7.572-5.57,12.363-2.772
		c10.677,6.238,10.673,6.232,0.448,12.403c-2.804,1.693-5.685,3.286-8.344,5.186c-4.032,2.881-5.43,1.676-5.097-2.905
		c0.092-1.268,0.014-2.548,0.014-3.822C124.226,108.85,124.157,108.844,124.089,108.839z"/>
	<path fill="#EE203A" d="M73.194,183.701c-6.786,5.566-13.572,11.133-20.359,16.698c-1.962,1.609-3.832,3.358-5.928,4.769
		c-1.577,1.062-3.329,4.378-5.102,2.02c-1.644-2.186-1.147-5.715,1.844-7.608c3.981-2.52,8.038-4.923,12.116-7.285
		c5.567-3.225,11.185-6.364,16.78-9.54C72.761,183.071,72.977,183.386,73.194,183.701z"/>
	<line fill="#EE203A" x1="222.098" y1="159.076" x2="204.853" y2="194.071"/>
	<path fill="#EE203A" d="M293.207,191.878c-2.867-2.806-4.002-5.605-3.885-9.564c0.269-9.046,0.085-18.106,0.085-27.214
		c-3.983,0-7.29,0-11.123,0c0,16.209,0,31.956,0,47.769c-13.379-5.683-12.646-16.976-11.695-28.148
		c-15.605-5.668-30.701-11.151-45.797-16.634c0.005,0.126,0.016,0.24,0.025,0.359l-0.066-0.033l-17.245,34.995l2.691,1.326
		l16.146-32.765c24.152,24.186,48.316,48.361,72.553,72.46c1.188,1.181,3.055,2.347,4.623,2.371
		c12.503,0.193,25.01,0.107,38.927,0.107C322.664,221.151,308.046,206.402,293.207,191.878z"/>
</g>
</svg>
