<?xml version="1.0" encoding="utf-8"?>
<!-- Generator: Adobe Illustrator 24.3.0, SVG Export Plug-In . SVG Version: 6.00 Build 0)  -->
<svg version="1.1" id="Layer_2" xmlns="http://www.w3.org/2000/svg" xmlns:xlink="http://www.w3.org/1999/xlink" x="0px" y="0px"
	 viewBox="0 0 217.726 217.726" enable-background="new 0 0 217.726 217.726" xml:space="preserve">
<g>
	<path fill-rule="evenodd" clip-rule="evenodd" fill="#06BCA6" d="M85.292,176.168c21.272-37.493,58.565-64.665,102.535-72.22
		c0.052-1.121,0.072-2.242,0.072-3.363c0-1.717-0.052-3.415-0.162-5.113c-0.687,0-1.388,0-2.075,0
		c-49.546,0-97.537,26.471-124.041,68.591c5.337,3.978,11.204,7.316,17.447,9.868c-1.626,7.259-2.728,14.724-3.248,22.35
		C78.472,189.304,81.648,182.583,85.292,176.168z"/>
	<path fill="#06BCA6" d="M108.863,217.726C48.836,217.726,0,168.89,0,108.864C0,48.836,48.836,0,108.863,0
		s108.863,48.836,108.863,108.864C217.726,168.89,168.89,217.726,108.863,217.726z M108.863,5.092
		c-57.22,0-103.771,46.552-103.771,103.772s46.552,103.771,103.771,103.771s103.771-46.551,103.771-103.771
		S166.083,5.092,108.863,5.092z"/>
</g>
<g>
	<path fill-rule="evenodd" clip-rule="evenodd" fill="#134D7C" d="M120.076,94.156c-9.167,3.072-17.972,6.921-26.323,11.49V45.641
		h26.323V94.156z M41.179,141.48c-3.267,9.196-5.704,18.773-7.235,28.674c3.987-6.959,8.48-13.588,13.421-19.841
		c4.474-5.619,9.31-10.951,14.471-15.921c7.598-7.297,15.897-13.836,24.806-19.512c2.328-1.483,4.712-2.909,7.111-4.283
		c8.337-4.717,17.142-8.69,26.323-11.852c16.202-5.585,33.578-8.619,51.673-8.619c5.251,0,10.431,0.253,15.553,0.758
		c-2.814-23.075-15.553-43.078-33.811-55.618v51.535c-5.991,0.668-11.871,1.66-17.647,2.962h-8.657V23.577
		c-5.886-1.393-12.019-2.132-18.334-2.132c-43.646,0-79.026,35.433-79.026,79.141C29.827,115.548,33.977,129.551,41.179,141.48z
		 M86.642,109.767c-9.434,5.8-18.258,12.539-26.304,20.094V67.952h26.304V109.767z"/>
	<path fill-rule="evenodd" clip-rule="evenodd" fill="#134D7C" d="M187.646,106.967c-36.516,11.995-66.487,38.466-83.104,72.654
		c1.426,0.091,2.871,0.124,4.312,0.124C150.372,179.746,184.398,147.694,187.646,106.967z"/>
</g>
</svg>
