<?xml version="1.0" encoding="utf-8"?>
<!-- Generator: Adobe Illustrator 24.3.0, SVG Export Plug-In . SVG Version: 6.00 Build 0)  -->
<svg version="1.1" id="Layer_4" xmlns="http://www.w3.org/2000/svg" xmlns:xlink="http://www.w3.org/1999/xlink" x="0px" y="0px"
	 viewBox="0 0 216.769 216.769" enable-background="new 0 0 216.769 216.769" xml:space="preserve">
<g>
	<path fill="#34317C" d="M105.218,216.728c-0.347-0.778-1.158-0.66-1.774-0.891c-5.982-2.247-10.012-8.055-9.92-14.336
		c0.092-6.305,4.029-11.893,10.079-13.936c1.517-0.512,1.897-1.208,1.841-2.667c-0.103-2.671-0.088-5.35-0.003-8.023
		c0.038-1.217-0.406-1.49-1.557-1.575c-14.765-1.087-27.804-6.429-39.028-16.093c-1.02-0.878-1.53-0.921-2.486,0.064
		c-3.922,4.039-7.911,8.015-11.948,11.94c-0.982,0.954-1.071,1.545-0.273,2.746c7.412,11.168,4.516,26.424-6.32,33.893
		c-1.491,1.028-2.956,1.359-4.435,0.155c-1.177-0.959-1.334-2.29-0.831-3.65c0.357-0.965,1.277-1.457,2.063-2.052
		c6.697-5.069,9.119-13.982,5.918-21.734c-3.383-8.191-12.307-12.881-20.807-10.934c-8.852,2.028-15.05,10.007-14.517,18.686
		c0.575,9.353,7.285,16.549,16.341,17.522c0.63,0.068,1.262,0.113,1.891,0.185c2.22,0.254,3.353,1.426,3.247,3.346
		c-0.103,1.852-1.513,3.049-3.638,2.974c-5.812-0.207-11.03-2.058-15.453-5.879c-10.172-8.786-11.692-23.34-3.592-33.971
		c7.857-10.312,22.359-12.648,33.419-5.339c0.888,0.587,1.417,0.766,2.265-0.101c4.083-4.177,8.218-8.305,12.392-12.391
		c0.854-0.836,0.788-1.315,0.037-2.182c-9.751-11.25-15.216-24.305-16.266-39.168c-0.084-1.185-0.434-1.577-1.618-1.542
		c-2.602,0.075-5.213,0.119-7.811-0.013c-1.551-0.079-2.281,0.324-2.829,1.908c-2.437,7.045-9.462,10.987-16.94,9.705
		c-6.921-1.186-12.232-7.669-12.196-14.888c0.036-7.09,5.374-13.509,12.201-14.669c7.4-1.258,14.45,2.599,16.86,9.51
		c0.622,1.783,1.447,2.178,3.115,2.1c2.529-0.118,5.068-0.083,7.6-0.008c1.179,0.035,1.562-0.341,1.619-1.538
		c0.225-4.722,1.103-9.341,2.441-13.875c0.875-2.966,2.242-4.173,4.186-3.666c2.153,0.562,2.768,2.291,1.898,5.338
		c-8.813,30.849,7.51,62.927,37.596,73.884c35.371,12.882,73.875-9.511,80.246-46.668c5.75-33.534-16.763-64.828-50.495-70.193
		c-24.178-3.845-48.831,7.872-61.378,29.172c-0.142,0.242-0.28,0.487-0.423,0.728c-1.313,2.215-3.104,2.911-4.817,1.873
		c-1.646-0.998-1.926-2.872-0.715-4.972c2.147-3.724,4.541-7.286,7.452-10.454c1.01-1.099,1.121-1.709-0.039-2.821
		c-4.064-3.895-8.024-7.901-11.962-11.925c-0.828-0.846-1.337-1.008-2.416-0.292c-8.573,5.686-19.311,5.708-27.588,0.159
		C7.637,44.665,3.223,34.531,5.284,25.019c2.284-10.544,8.82-17.204,19.369-19.65c9.443-2.189,19.63,2.001,25.293,10.176
		c5.609,8.097,5.814,19.17,0.363,27.414c-0.917,1.387-0.877,2.103,0.325,3.253c4.016,3.844,7.928,7.799,11.807,11.782
		c0.892,0.916,1.37,0.899,2.334,0.065c11.264-9.744,24.363-15.116,39.211-16.165c1.291-0.091,1.466-0.604,1.444-1.68
		c-0.054-2.603-0.13-5.215,0.024-7.81c0.095-1.603-0.421-2.265-1.953-2.8c-7.035-2.455-10.974-9.483-9.681-16.959
		c1.195-6.907,7.697-12.219,14.903-12.176c7.102,0.043,13.492,5.371,14.654,12.219c1.256,7.398-2.606,14.44-9.53,16.845
		c-1.797,0.624-2.165,1.466-2.094,3.124c0.112,2.6,0.06,5.208,0.015,7.812c-0.016,0.948,0.229,1.337,1.274,1.409
		c15.007,1.036,28.222,6.462,39.57,16.35c0.85,0.741,1.308,0.608,2.024-0.118c4.101-4.16,8.221-8.302,12.394-12.389
		c0.837-0.819,0.768-1.342,0.169-2.266c-5.302-8.181-5.901-16.797-1.405-25.39c4.427-8.46,11.787-12.789,21.333-13.217
		c10.493-0.47,20.507,6.653,23.97,16.937c3.418,10.15-0.41,21.889-9.101,27.91c-1.837,1.273-3.723,1.076-4.818-0.503
		c-1.124-1.619-0.662-3.255,1.365-4.84c10.627-8.31,9.706-24.087-1.793-30.723c-6.521-3.763-14.818-3.086-20.748,1.693
		c-5.715,4.606-8.143,12.557-5.985,19.599c2.216,7.233,8.607,12.378,16.063,12.936c0.561,0.042,1.127,0.066,1.68,0.159
		c2.014,0.338,3.057,1.61,2.879,3.471c-0.165,1.722-1.401,2.82-3.346,2.804c-4.832-0.039-9.33-1.34-13.281-4.113
		c-1.325-0.93-1.925-0.668-2.913,0.349c-3.824,3.938-7.701,7.828-11.647,11.644c-1.07,1.034-1.201,1.59-0.15,2.812
		c9.612,11.172,14.914,24.164,15.986,38.854c0.099,1.354,0.553,1.617,1.765,1.584c2.814-0.077,5.631-0.045,8.446-0.013
		c0.922,0.011,1.431-0.136,1.811-1.201c2.425-6.792,8.06-10.851,14.588-10.677c6.914,0.184,12.299,4.49,14.38,11.514
		c0.082,0.277,0.107,0.539,0.448,0.595c0,2.112,0,4.224,0,6.336c-0.647,0.132-0.567,0.752-0.718,1.166
		c-2.373,6.497-7.766,10.48-14.301,10.525c-6.446,0.044-12.09-4.009-14.318-10.468c-0.414-1.2-0.964-1.452-2.085-1.423
		c-2.673,0.067-5.355,0.132-8.022-0.019c-1.637-0.093-2.022,0.487-2.013,2.008c0.009,1.606-0.259,3.223-0.51,4.82
		c-2.008,12.806-7.172,24.161-15.709,33.944c-0.634,0.727-0.896,1.202-0.054,2.027c4.222,4.138,8.396,8.325,12.542,12.54
		c0.746,0.759,1.246,0.745,2.098,0.151c4.792-3.339,10.13-4.65,15.954-4.261c14.242,0.952,24.561,14.088,22.441,28.643
		c-1.979,13.588-15.941,23.176-29.411,20.198c-17.357-3.838-25.263-23.213-15.49-38.017c0.559-0.846,0.882-1.387-0.026-2.274
		c-4.229-4.13-8.404-8.317-12.542-12.539c-0.821-0.837-1.296-0.588-2.032,0.049c-11.317,9.805-24.469,15.207-39.394,16.26
		c-1.15,0.081-1.395,0.502-1.373,1.533c0.054,2.603,0.117,5.214-0.019,7.811c-0.085,1.629,0.346,2.396,2.013,2.969
		c6.054,2.079,10.077,8.043,9.906,14.271c-0.179,6.533-4.377,12.124-10.489,14.134c-0.676,0.222-1.575-0.11-2.046,0.703
		C109.16,216.728,107.189,216.728,105.218,216.728z M169.265,187.63c0.015,10.167,8.262,18.421,18.367,18.385
		c10.123-0.036,18.386-8.319,18.379-18.422c-0.007-10.128-8.254-18.342-18.415-18.341C177.417,169.253,169.25,177.44,169.265,187.63
		z M47.927,29.517c-0.046-10.174-8.319-18.414-18.412-18.337c-10.141,0.077-18.384,8.378-18.332,18.462
		c0.053,10.15,8.31,18.338,18.455,18.301C39.826,47.905,47.972,39.697,47.927,29.517z M108.576,24.173
		c4.827,0.008,8.769-3.914,8.738-8.693c-0.031-4.791-4.007-8.701-8.806-8.661c-4.707,0.04-8.57,3.901-8.628,8.622
		C99.823,20.221,103.75,24.165,108.576,24.173z M24.174,108.644c0.019-4.836-3.873-8.773-8.664-8.765
		c-4.79,0.008-8.72,3.973-8.693,8.771c0.027,4.706,3.87,8.58,8.594,8.663C20.173,117.396,24.155,113.457,24.174,108.644z
		 M193.019,108.531c-0.023,4.836,3.862,8.782,8.648,8.783c4.778,0.001,8.732-3.976,8.71-8.761c-0.021-4.708-3.852-8.578-8.584-8.671
		C197.025,99.789,193.042,103.716,193.019,108.531z M108.554,193.02c-4.823,0.015-8.746,3.973-8.672,8.749
		c0.073,4.725,3.942,8.575,8.648,8.606c4.788,0.031,8.77-3.907,8.783-8.687C117.326,196.902,113.388,193.005,108.554,193.02z"/>
</g>
<g>
	<path fill="#19989B" d="M72.756,130.483c0-3.168-0.034-6.336,0.02-9.503c0.017-1.007-0.201-1.62-1.173-2.162
		c-3.244-1.809-4.681-4.718-4.681-8.387c0.001-4.717-0.027-9.433,0.007-14.15c0.042-5.888,3.805-9.715,9.765-9.871
		c3.447-0.09,6.899-0.039,10.348-0.008c1.078,0.01,2.068-0.193,3.064-0.609c10.096-4.22,20.198-8.427,30.314-12.598
		c0.98-0.404,1.508-0.924,1.866-1.985c1.673-4.963,6.463-7.758,11.631-6.94c4.783,0.757,8.418,5.034,8.507,10.107
		c0.059,3.378,0.083,6.76-0.015,10.136c-0.037,1.285,0.412,1.755,1.59,2.184c7.109,2.59,11.806,9.308,11.776,16.645
		c-0.03,7.286-4.669,13.987-11.664,16.508c-1.448,0.522-1.733,1.19-1.697,2.548c0.087,3.236,0.065,6.476,0.014,9.714
		c-0.081,5.178-3.722,9.47-8.613,10.239c-5.111,0.803-9.896-2.052-11.566-7.054c-0.334-1-0.817-1.474-1.729-1.85
		c-8.819-3.634-17.638-7.27-26.416-11.003c-1.643-0.699-1.681-0.066-1.67,1.255c0.043,5.35,0.088,10.701-0.008,16.05
		c-0.087,4.831-3.151,8.617-7.608,9.686c-4.089,0.981-8.516-0.933-10.68-4.631c-0.983-1.68-1.387-3.513-1.384-5.449
		C72.76,136.396,72.756,133.439,72.756,130.483z M121.574,126.989c0-15.895,0-31.519,0-47.105c-0.194-0.057-0.276-0.112-0.326-0.091
		c-9.26,3.822-18.514,7.659-27.783,11.458c-0.79,0.324-1.029,0.766-1.027,1.576c0.024,6.961,0.023,13.921,0.002,20.882
		c-0.002,0.78,0.152,1.29,0.959,1.622C102.72,119.165,112.026,123.032,121.574,126.989z M136.089,103.4
		c0-9.502,0.018-19.003-0.011-28.505c-0.009-3.01-2.183-4.867-4.89-4.301c-2.037,0.426-3.134,2.091-3.135,4.839
		c-0.005,18.581-0.003,37.162-0.001,55.743c0,0.492-0.024,0.993,0.056,1.475c0.389,2.335,2.49,3.81,4.774,3.381
		c2.017-0.379,3.198-2.009,3.202-4.548C136.097,122.122,136.089,112.761,136.089,103.4z M86.102,103.315
		c0-3.023-0.007-6.046,0.005-9.069c0.003-0.805,0.08-1.556-1.122-1.531c-2.881,0.059-5.768-0.052-8.643,0.101
		c-2.184,0.116-3.04,1.187-3.056,3.476c-0.032,4.64-0.03,9.28-0.001,13.92c0.015,2.5,0.959,3.515,3.388,3.577
		c2.67,0.068,5.344-0.023,8.014,0.042c1.105,0.027,1.46-0.342,1.437-1.447C86.06,109.363,86.102,106.339,86.102,103.315z
		 M79.103,130.476c0,2.814-0.014,5.628,0.004,8.442c0.018,2.806,1.256,4.343,3.467,4.361c2.212,0.017,3.506-1.527,3.521-4.31
		c0.025-4.502,0.007-9.005,0.007-13.508c0-5.579,0.001-5.545-5.591-5.309c-1.098,0.047-1.455,0.356-1.43,1.459
		C79.147,124.565,79.103,127.521,79.103,130.476z M142.494,113.509c4.225-1.638,7.076-6.024,6.916-10.47
		c-0.162-4.511-3.035-8.644-6.916-9.883C142.494,99.903,142.494,106.63,142.494,113.509z"/>
</g>
</svg>
