<?xml version="1.0" encoding="utf-8"?>
<!-- Generator: Adobe Illustrator 24.3.0, SVG Export Plug-In . SVG Version: 6.00 Build 0)  -->
<svg version="1.1" id="Layer_2_1_" xmlns="http://www.w3.org/2000/svg" xmlns:xlink="http://www.w3.org/1999/xlink" x="0px" y="0px"
	 viewBox="0 0 206.867 194.289" enable-background="new 0 0 206.867 194.289" xml:space="preserve">
<g>
	<path fill-rule="evenodd" clip-rule="evenodd" fill="#18184C" d="M163.693,120.623c-11.699,31.419-39.123,49.369-68.139,41.619
		c-8.462-2.26-15.339-6.206-20.642-11.851c-1.169-1.245-2.26-2.57-3.278-3.981c-4.698-4.53-11.38-7.616-16.086-10.151
		c-7.284-1.651-9.477-1.624-16.758-3.275c-10.296-2.334-27.78-36.851-20.019-45.511L39.85,72.199
		c3.884-32.336,28.821-22.081,44.106-32.031c1.899-1.605,3.635-3.335,5.232-5.183L87.441,11.68c0.588-0.382,5.995,4.775,9.327,11.73
		c2.8-5.672,3.828-16.37,5.352-23.056C-91.719-9.583,39.039,192.73,99.255,194.281c36.4,0.938,76.058-81.709,92.133-106.558
		c-9.292,18.284-23.107,41.58-21.707,41.472c46.29-3.606,39.643-43.486,30.962-55.718
		C186.875,75.854,174.135,92.582,163.693,120.623z"/>
</g>
<g>
	<path fill-rule="evenodd" clip-rule="evenodd" fill="#06BECC" d="M107.453,0.672c16.608,15.043,30.402,32.417,33.85,56.438
		c14.03,18.905,21.78,32.733,21.522,47.965C211.581,31.215,185.281,3.008,107.453,0.672z"/>
	<path fill-rule="evenodd" clip-rule="evenodd" fill="#06BECC" d="M145.898,123.558c-10.756,6.668-22.337,11.444-35.913,9.568
		c-12.449,4.666-21.164,6.715-29.391,4.199C113.078,175.31,132.49,165.436,145.898,123.558z"/>
	<circle fill-rule="evenodd" clip-rule="evenodd" fill="#06BECC" cx="67.998" cy="65.672" r="12.798"/>
</g>
</svg>
