<?xml version="1.0" encoding="utf-8"?>
<!-- Generator: Adobe Illustrator 24.3.0, SVG Export Plug-In . SVG Version: 6.00 Build 0)  -->
<svg version="1.1" id="Layer_1" xmlns="http://www.w3.org/2000/svg" xmlns:xlink="http://www.w3.org/1999/xlink" x="0px" y="0px"
	 viewBox="0 0 799.785 713.877" enable-background="new 0 0 799.785 713.877" xml:space="preserve">
<g>
	<polygon fill="#646363" points="344.145,254.391 344.145,418.791 302.595,427.641 302.595,278.701 298.595,278.701 
		298.595,428.491 275.165,433.491 275.165,301.681 272.165,301.681 272.165,434.121 230.125,443.081 230.125,210.791 
		121.975,260.261 230.125,202.411 	"/>
	<polygon fill="#646363" points="12.575,9.101 12.575,700.741 86.993,606.486 86.993,215.333 92.993,215.333 92.993,598.887 
		121.527,562.747 121.527,245.514 125.527,245.514 125.527,557.681 191.145,474.571 191.145,166.761 	"/>
</g>
<g>
	<polygon fill="#F15B3C" points="191.144,153.56 190.532,94.555 17.334,0 56.068,34.222 	"/>
	<polygon fill="#F15B3C" points="685.35,710.837 799.785,710.837 564.628,386.252 374.742,710.837 559.179,473.44 682.835,623.086 	
		"/>
</g>
<g>
	<polygon fill="#ED4924" points="565.886,386.252 218.809,453.32 12.575,710.837 374.742,710.837 	"/>
	<rect x="508.878" y="594.267" fill="#ED4924" width="39.402" height="39.402"/>
	<rect x="508.878" y="650.437" fill="#ED4924" width="39.402" height="39.402"/>
	<rect x="567.562" y="594.267" fill="#ED4924" width="39.402" height="39.402"/>
	<rect x="567.562" y="650.437" fill="#ED4924" width="39.402" height="39.402"/>
</g>
</svg>
