<?xml version="1.0" encoding="utf-8"?>
<!-- Generator: Adobe Illustrator 24.3.0, SVG Export Plug-In . SVG Version: 6.00 Build 0)  -->
<svg version="1.1" id="Layer_2" xmlns="http://www.w3.org/2000/svg" xmlns:xlink="http://www.w3.org/1999/xlink" x="0px" y="0px"
	 viewBox="0 0 242.671 246.809" enable-background="new 0 0 242.671 246.809" xml:space="preserve">
<g>
	<path fill="#F85F00" d="M106.375,105.889c-11.76,2.37-23.47,6.11-34.93,11.14c1.94-15.36,10.8-28.56,23.36-36.38
		c13.1,3.36,27.86,9.75,31.67,21.76c0.08,0.24,0.15,0.48,0.21,0.72C119.925,103.599,113.145,104.519,106.375,105.889z"/>
	<path fill="#F85F00" d="M120.445,128.709c-6.23,9.94-16.7,21.18-31.19,33.47c-11.13-9.24-18.21-23.18-18.21-38.77
		c0-1.05,0.03-2.1,0.1-3.13c21.22-9.51,40.57-13.24,56.11-14.31C128.075,112.559,125.795,120.189,120.445,128.709z"/>
	<path fill="#F85F00" d="M116.805,86.609c-4.89-3.19-11.1-5.87-18.46-7.98c6.91-3.56,14.75-5.58,23.07-5.58
		c3.42,0,6.76,0.34,9.99,0.99c3.14,4.39,6.63,10.61,9.15,18.85c0.91,2.95,1.71,6.27,2.32,9.96c-4.4-0.17-8.84-0.13-13.29,0.1
		c-0.11-0.47-0.24-0.94-0.39-1.41C127.365,95.779,123.205,90.749,116.805,86.609z"/>
	<path fill="#F85F00" d="M132.335,172.589c-3.52,0.78-7.17,1.19-10.92,1.19c-11.18,0-21.5-3.64-29.86-9.8
		c27.4-23.37,40.34-42.9,38.56-58.18c4.77-0.25,9.16-0.24,13.08-0.08c0.04,0,0.07,0,0.11,0.01
		C145.365,121.529,143.845,143.589,132.335,172.589z"/>
	<path fill="#F85F00" d="M143.285,92.049c-2.16-7.05-4.98-12.67-7.73-16.99c6.64,1.94,12.72,5.21,17.92,9.51
		c0.31,4.13,0.85,9.42,1.79,15.33c0.21,1.29,0.43,2.64,0.69,4.03c-3.09-0.4-6.48-0.73-10.15-0.94
		C145.195,99.219,144.355,95.569,143.285,92.049z"/>
	<path fill="#F85F00" d="M158.955,104.349c-1.19-6.38-1.93-12.25-2.37-16.99c5.38,5.25,9.6,11.69,12.2,18.91
		C166.085,105.619,162.785,104.939,158.955,104.349z"/>
	<path fill="#F85F00" d="M156.525,106.899c2.13,10.64,5.76,23.42,11.92,34.58c-5.58,14.51-17.68,25.79-32.71,30.23
		c5.62-14.51,9.16-28.29,10.56-41.11c0.95-8.69,0.92-16.95-0.08-24.72C149.955,106.099,153.405,106.469,156.525,106.899z"/>
	<path fill="#F85F00" d="M171.785,123.409c0,5-0.73,9.82-2.08,14.38c-4.95-9.69-8.13-20.54-10.16-30.43
		c4.14,0.66,7.6,1.44,10.29,2.13C171.105,113.909,171.785,118.579,171.785,123.409z"/>
</g>
<g>
	<path d="M26.131,99.653c-3.29-10.942-5.818-22.353-7.524-33.966c8.031-1.186,17.311-3.737,27.642-7.588
		c11.247-4.198,23.918-9.988,37.666-17.211c16.385-8.606,30.585-17.33,37.383-21.628c0.014,0.009,0.023,0.018,0.037,0.023
		c0.009-0.005,0.023-0.014,0.036-0.023c6.799,4.298,20.994,13.022,37.379,21.628c13.748,7.223,26.423,13.013,37.666,17.211
		c10.33,3.851,19.611,6.402,27.642,7.588c-1.707,11.612-4.234,23.024-7.52,33.966c-3.545,11.79-8.063,23.334-13.438,34.345
		c30.827-33.373,39.569-83.322,39.569-83.322l-9.176-0.105c-14.546-0.169-37.58-8.318-66.618-23.563
		c-22.481-11.809-40.573-23.741-40.751-23.859L121.372,0l-0.036,0.023L121.299,0l-4.759,3.148
		c-0.178,0.119-18.27,12.05-40.751,23.859C46.756,42.252,23.718,50.401,9.171,50.57L0,50.675c0,0,8.742,49.95,39.564,83.322
		C34.194,122.987,29.677,111.443,26.131,99.653"/>
	<path d="M121.372,227.12c-0.014-0.009-0.027-0.018-0.036-0.023c-0.014,0.005-0.023,0.014-0.037,0.023
		c-52.582-33.66-97.458-101.222-106.05-114.158c2.934,8.368,6.274,16.568,9.979,24.512c10.207,21.893,23.357,42.298,39.09,60.645
		c14.008,16.33,27.528,27.993,36.402,34.901c9.765,7.602,16.225,11.307,16.499,11.462l4.079,2.327l0.037-0.023l0.036,0.023
		l4.079-2.327c0.269-0.155,6.73-3.86,16.499-11.462c8.875-6.908,22.39-18.571,36.398-34.901
		c15.733-18.347,28.887-38.752,39.094-60.645c3.705-7.944,7.04-16.143,9.979-24.512C218.825,125.898,173.95,193.46,121.372,227.12"
		/>
	<path d="M177.365,109.149c-0.03-0.13-0.06-0.26-0.09-0.38c-3.34-12.87-11.01-24-21.35-31.74c-0.64-0.48-1.29-0.94-1.95-1.39
		c-7.45-5.12-16.17-8.53-25.59-9.67c-1.47-0.18-2.95-0.31-4.46-0.37h-0.03c-0.85-0.04-1.7-0.06-2.56-0.06
		c-12.46,0-23.99,3.94-33.42,10.64c-1.06,0.75-2.09,1.54-3.09,2.36c-12.35,10.07-20.45,25.14-21.21,42.13
		c-0.05,0.88-0.07,1.77-0.07,2.66c0,0.19,0,0.37,0.01,0.56c0.16,17.21,7.84,32.62,19.91,43.1l2.25,1.85
		c9.81,7.7,22.18,12.29,35.62,12.29c2.59,0,5.13-0.17,7.63-0.5c1.13-0.15,2.25-0.33,3.35-0.54c26.67-5.13,46.81-28.59,46.81-56.76
		C179.125,118.439,178.515,113.679,177.365,109.149z M121.415,173.779c-27.82,0-50.37-22.55-50.37-50.37
		c0-27.82,22.55-50.36,50.37-50.36c27.82,0,50.37,22.54,50.37,50.36C171.785,151.229,149.235,173.779,121.415,173.779z"/>
</g>
</svg>
