<?xml version="1.0" encoding="utf-8"?>
<!-- Generator: Adobe Illustrator 24.3.0, SVG Export Plug-In . SVG Version: 6.00 Build 0)  -->
<svg version="1.1" id="Layer_1" xmlns="http://www.w3.org/2000/svg" xmlns:xlink="http://www.w3.org/1999/xlink" x="0px" y="0px"
	 viewBox="0 0 187.99 285.921" enable-background="new 0 0 187.99 285.921" xml:space="preserve">
<g>
	<path fill="#495EAB" d="M43.236,124.865h1.908c18.338,0,33.203-14.866,33.203-33.203v-9.763H65.334v-6.373h13.013v-6.681H65.334
		v-6.373h13.013v-6.681H65.334v-6.373h13.013v-1.751c0-18.338-14.866-33.203-33.203-33.203h-1.908
		c-18.338,0-33.204,14.866-33.204,33.203v1.751h12.952v6.373H10.033v6.681h12.952v6.373H10.033v6.681h12.952v6.373H10.033v9.763
		C10.033,109.999,24.898,124.865,43.236,124.865z"/>
	<path fill="#495EAB" d="M77.364,142.299c-5.538,0-10.241,3.636-11.852,8.646H48.075v-14.091
		c22.554-2.068,40.305-21.96,40.305-46.116h-7.268c0,21.521-16.563,39.03-36.922,39.03c-20.359,0-36.922-17.509-36.922-39.03H0
		c0,24.157,17.752,44.048,40.305,46.116v14.091H29.379c-13.073,0-23.709,10.636-23.709,23.709v3.885h38.267h1.827h2.193v-3.308
		h0.117v-16.517h17.493c1.661,4.923,6.319,8.48,11.796,8.48c6.864,0,12.448-5.584,12.448-12.448
		C89.812,147.883,84.228,142.299,77.364,142.299z M40.305,170.77H13.919c1.739-6.918,8.011-12.054,15.461-12.054h10.926V170.77z
		 M77.364,159.425c-2.58,0-4.678-2.098-4.678-4.678c0-2.58,2.098-4.678,4.678-4.678s4.678,2.098,4.678,4.678
		C82.042,157.327,79.944,159.425,77.364,159.425z"/>
</g>
<g>
	<path fill="#EC008C" d="M187.163,125.08c0.87-5.24,1.08-10.65,0.5-15.94c-0.63-5.61-2.14-11.09-4.74-16.06
		c-4.53-8.68-12.04-15.06-19.6-21.03c-16.44-13.01-18.48-13.36-27.52-22.29c-3.95-3.9-9.59-9.54-15.19-18.06
		c-5.55-8.46-8.94-16.53-11.06-22.96c-0.15-0.75-0.39-1.48-0.69-2.17c-0.3-0.99-0.57-1.93-0.81-2.81c-0.09,0.3-0.18,0.59-0.27,0.89
		c-1.47-2.09-3.57-3.26-5.86-4.21c-0.92-0.38-2.1-0.44-3.09-0.44c-1.25,0-2.26,1.02-2.26,2.27v187.48l0.01,0.37
		c0.12,2.35,0.21,5.11,0.23,8.07c-2.17-4.78-5.19-8.85-9.03-12.07c-10.24-8.59-24.89-9.97-41.25-3.88
		c-5.93,2.2-11.83,5.3-17.56,9.17c-12.08,8.17-20.93,20.38-24.71,34.46c-0.02,0.07-0.04,0.14-0.06,0.22c0,0-0.94,3.77-1.68,8.73
		c-0.05,0.07-0.08,0.14-0.12,0.21c-0.23,1.6-0.39,3.19-0.49,4.76v0.03c-0.39,4.22-0.45,8.66,0.37,12.11c0,0,1.02,22.31,20.92,30.78
		c4.13,1.76,9.08,2.92,15.01,3.16c2.81,0.12,5.84,0.03,9.11-0.31c5.48-0.91,11.09-2.77,16.6-5.5l8.17-4.73c0,0,0-0.01,0.01-0.01
		c5.45-3.64,10.7-8.15,15.53-13.46c10-8.44,17.05-24.95,19.54-37.23c2.3-11.36,3.22-23.46,2.6-35.05V101.8
		c17.35,9.48,34.52,19.57,49.77,32.21c9.82,8.14,15.64,19.59,15.3,32.44c-0.28,10.82-3.16,20.84-6.16,31.14
		c-0.13,0.44-0.26,0.91-0.21,1.37c0.2,1.83,2.5,1.68,3.46,0.64c1.59-1.68,2.55-4.76,3.76-6.83c1.46-2.51,2.69-5.15,3.75-7.85
		c1.86-4.73,3.41-9.59,4.23-14.62c0.87-5.24,1.08-10.65,0.49-15.94c-0.42-3.88-1.29-7.7-2.63-11.32c0.46-1.02,0.89-2.05,1.3-3.1
		C184.743,135.13,186.324,130.19,187.163,125.08z M176.873,134.07c-4.53-6.6-10.76-11.84-17.04-16.8
		c-16.44-13-18.48-13.35-27.52-22.29c-3.95-3.9-9.59-9.53-15.18-18.06c-3.06-4.66-5.46-9.2-7.36-13.41v-8.83
		c18.53,10.03,36.99,20.62,53.26,34.11c10.17,8.43,15.65,19.1,15.3,32.44C178.223,125.62,177.673,129.87,176.873,134.07z"/>
</g>
</svg>
