<?xml version="1.0" encoding="utf-8"?>
<!-- Generator: Adobe Illustrator 24.3.0, SVG Export Plug-In . SVG Version: 6.00 Build 0)  -->
<svg version="1.1" id="Layer_3" xmlns="http://www.w3.org/2000/svg" xmlns:xlink="http://www.w3.org/1999/xlink" x="0px" y="0px"
	 viewBox="0 0 163.887 174.473" enable-background="new 0 0 163.887 174.473" xml:space="preserve">
<g>
	<path fill="#9210A0" d="M64.869,12.213c-1.519,7.9-0.039,15.268,2.576,21.72c2.638,6.483,6.645,12.197,11.274,17.426
		c4.483,5.325,10.055,9.932,15.484,14.566c2.894,2.194,5.806,4.345,8.675,6.589c1.708,1.312,3.405,2.641,5.09,3.991
		c1.612,1.462,3.245,2.893,4.81,4.416c6.206,6.156,11.471,13.521,15.167,21.626c3.62,8.135,5.684,16.935,5.881,25.597
		c0.264,8.667-1.135,17.14-3.763,24.996c-1.339,3.926-2.961,7.712-4.921,11.298c-1.952,3.578-4.152,7.02-6.875,10.035
		c1.272-7.937,1.928-15.582,1.92-23.039c-0.041-7.438-0.664-14.641-2.305-21.395c-1.534-6.773-4.027-13.059-7.259-18.846
		c-3.321-5.751-7.416-11.01-12.213-15.804c-1.202-1.197-2.496-2.322-3.723-3.507l-3.962-3.335c-3.132-2.68-6.306-5.355-9.34-8.169
		C75.527,74.4,69.835,68.142,65.623,60.546c-4.254-7.435-7.455-15.838-7.945-24.604l-0.121-3.252
		c0.072-1.097,0.135-2.182,0.241-3.258l0.15-1.602l0.311-1.595c0.221-1.056,0.396-2.099,0.717-3.122
		C60.125,19.034,62.05,15.15,64.869,12.213z"/>
</g>
<g>
	<circle fill="#006DD0" cx="117.097" cy="41.318" r="14.53"/>
	<path fill="#006DD0" d="M153.398,0c5.869,9.267,9.321,20.3,10.247,31.716c0.92,11.43-0.795,23.248-4.932,34.296
		c-4.14,11.049-10.765,21.299-19.267,29.78c-4.233,4.264-8.997,8.002-14.037,11.304c-5.077,3.253-10.507,5.946-16.118,8.125
		c-5.645,2.093-11.505,3.64-17.46,4.583c-5.966,0.861-12.012,1.194-18.008,0.813c-11.987-0.748-23.746-4.026-34.159-9.59
		c-10.415-5.548-19.522-13.281-26.39-22.468C6.419,79.378,1.714,68.814,0,57.976c5.883,9.242,12.713,17.266,20.576,23.719
		c7.825,6.466,16.533,11.431,25.685,14.718c18.311,6.646,38.206,6.418,55.822-0.261c17.642-6.616,32.725-19.614,42.066-36.715
		c4.695-8.52,7.943-18.009,9.53-28.038C155.303,21.356,155.112,10.818,153.398,0z"/>
</g>
</svg>
