<?xml version="1.0" encoding="utf-8"?>
<!-- Generator: Adobe Illustrator 24.3.0, SVG Export Plug-In . SVG Version: 6.00 Build 0)  -->
<svg version="1.1" id="Layer_1" xmlns="http://www.w3.org/2000/svg" xmlns:xlink="http://www.w3.org/1999/xlink" x="0px" y="0px"
	 viewBox="0 0 893.68 793.347" enable-background="new 0 0 893.68 793.347" xml:space="preserve">
<g>
	<path fill="#E9E8E9" d="M319.501,79.642V721.72c6.431-0.699,12.815-1.258,19.2-1.817c0.839-0.047,1.678-0.14,2.517-0.187
		c27.169-2.283,54.244-3.635,81.273-4.101c10.812-0.233,21.623-0.28,32.342-0.186V79.642H319.501z M393.15,703.441h-23.453v-50.207
		h23.453V703.441z M393.153,595.887h-23.459v-50.22h23.459V595.887z M393.153,488.186h-23.459v-50.22h23.459V488.186z
		 M393.153,380.486h-23.459v-50.22h23.459V380.486z M393.153,272.785h-23.459v-50.22h23.459V272.785z M393.153,168.715h-23.459
		v-50.22h23.459V168.715z"/>
	<rect x="345.513" fill="#E9E8E9" width="76.823" height="71.766"/>
</g>
<g>
	<path fill="#D3D6D6" d="M454.832,79.642v635.786c17.709,0.14,35.37,0.606,52.986,1.491c10.951,0.513,21.856,1.212,32.807,2.05
		c4.381,0.326,8.808,0.653,13.188,1.072c11.697,0.979,23.394,2.144,35.091,3.448c2.33,0.28,4.66,0.559,7.037,0.839V79.642H454.832z
		 M537.124,703.441h-23.453v-50.207h23.453V703.441z M537.127,595.887h-23.459v-50.22h23.459V595.887z M537.127,488.186h-23.459
		v-50.22h23.459V488.186z M537.127,380.486h-23.459v-50.22h23.459V380.486z M537.127,272.785h-23.459v-50.22h23.459V272.785z
		 M537.127,168.715h-23.459v-50.22h23.459V168.715z"/>
	<rect x="422.337" fill="#D3D6D6" width="24.499" height="71.766"/>
	<rect x="289.257" y="71.766" fill="#D3D6D6" width="315.157" height="8.796"/>
</g>
<g>
	<path fill="#2B515B" d="M507.818,360.231V716.92c10.951,0.513,21.856,1.212,32.807,2.05v-27.262h13.188v28.334
		c11.697,0.979,23.394,2.144,35.091,3.448V360.23h-81.086V360.231z M553.809,658.438h-13.175V629.97h13.175V658.438z
		 M553.809,596.687h-13.175v-28.468h13.175V596.687z M553.809,534.935h-13.175v-28.468h13.175V534.935z M553.809,473.184h-13.175
		v-28.468h13.175V473.184z M553.809,411.433h-13.175v-28.468h13.175V411.433z"/>
	<rect x="526.24" y="317.171" fill="#2B515B" width="44.064" height="38.181"/>
	<path fill="#2B515B" d="M338.701,212.177h-19.2h-117.39V708.09v30.825c9.181-1.777,18.314-3.461,27.495-5.052l3.821-0.655
		c28.8-4.865,57.46-8.7,86.073-11.554c6.431-0.702,12.815-1.263,19.2-1.824c0.839-0.047,1.678-0.14,2.516-0.187V679.23v-16.138
		v-70.818v-70.771v-70.818v-70.771v-70.818v-96.919H338.701z M251.41,715.444H234.7V681.04h16.711L251.41,715.444L251.41,715.444z
		 M251.41,644.886H234.7v-34.404h16.711L251.41,644.886L251.41,644.886z M251.41,574.328H234.7v-34.404h16.711L251.41,574.328
		L251.41,574.328z M251.41,503.769H234.7v-34.404h16.711L251.41,503.769L251.41,503.769z M251.41,433.211H234.7v-34.404h16.711
		L251.41,433.211L251.41,433.211z M251.41,362.653H234.7v-34.404h16.711L251.41,362.653L251.41,362.653z M251.41,292.095H234.7
		v-34.404h16.711L251.41,292.095L251.41,292.095z M296.476,715.444h-16.711V681.04h16.711V715.444z M296.476,644.886h-16.711
		v-34.404h16.711V644.886z M296.476,574.328h-16.711v-34.404h16.711V574.328z M296.476,503.769h-16.711v-34.404h16.711V503.769z
		 M296.476,433.211h-16.711v-34.404h16.711V433.211z M296.476,362.653h-16.711v-34.404h16.711V362.653z M296.476,292.095h-16.711
		v-34.404h16.711V292.095z"/>
	<rect x="292.544" y="164.232" fill="#2B515B" width="47.485" height="44.637"/>
</g>
<g>
	<path fill="#142A2E" d="M588.905,360.231v363.26c2.33,0.28,4.66,0.559,7.037,0.839c24.699,2.936,49.398,6.571,74.003,10.952
		v-375.05h-81.04V360.231z M637.437,720.189h-13.175V691.72h13.175V720.189z M637.437,658.438h-13.175V629.97h13.175V658.438z
		 M637.437,596.687h-13.175v-28.468h13.175V596.687z M637.437,534.935h-13.175v-28.468h13.175V534.935z M637.437,473.184h-13.175
		v-28.468h13.175V473.184z M637.437,411.433h-13.175v-28.468h13.175V411.433z"/>
	<rect x="492.713" y="355.352" fill="#142A2E" width="187.824" height="6.049"/>
	<path fill="#142A2E" d="M338.701,212.177v507.725c0.839-0.047,1.678-0.14,2.517-0.187c27.169-2.283,54.244-3.635,81.273-4.101
		V212.177H338.701z M391.484,715.444h-16.711V681.04h16.711V715.444z M391.484,644.886h-16.711v-34.404h16.711V644.886z
		 M391.484,574.328h-16.711v-34.404h16.711V574.328z M391.484,503.769h-16.711v-34.404h16.711V503.769z M391.484,433.211h-16.711
		v-34.404h16.711V433.211z M391.484,362.653h-16.711v-34.404h16.711V362.653z M391.484,292.095h-16.711v-34.404h16.711V292.095z"/>
	<rect x="183.358" y="205.542" fill="#142A2E" width="252.852" height="6.654"/>
</g>
<g>
	
		<rect x="507.836" y="427.297" fill="none" stroke="#2B4348" stroke-width="3" stroke-miterlimit="10" width="81.058" height="0.584"/>
	<polygon fill="none" stroke="#2B4348" stroke-width="3" stroke-miterlimit="10" points="507.836,489.498 588.894,489.498 
		588.894,489.498 	"/>
	
		<rect x="507.836" y="551.114" fill="none" stroke="#2B4348" stroke-width="3" stroke-miterlimit="10" width="81.058" height="0.584"/>
	
		<rect x="507.836" y="613.315" fill="none" stroke="#2B4348" stroke-width="3" stroke-miterlimit="10" width="81.058" height="0.584"/>
	
		<rect x="507.836" y="675.515" fill="none" stroke="#2B4348" stroke-width="3" stroke-miterlimit="10" width="81.058" height="0.584"/>
	
		<rect x="588.893" y="427.297" fill="none" stroke="#2B4348" stroke-width="3" stroke-miterlimit="10" width="81.058" height="0.584"/>
	<polygon fill="none" stroke="#2B4348" stroke-width="3" stroke-miterlimit="10" points="588.893,489.498 669.951,489.498 
		669.951,489.498 	"/>
	
		<rect x="588.893" y="551.114" fill="none" stroke="#2B4348" stroke-width="3" stroke-miterlimit="10" width="81.058" height="0.584"/>
	
		<rect x="588.893" y="613.315" fill="none" stroke="#2B4348" stroke-width="3" stroke-miterlimit="10" width="81.058" height="0.584"/>
	
		<rect x="588.893" y="675.515" fill="none" stroke="#2B4348" stroke-width="3" stroke-miterlimit="10" width="81.058" height="0.584"/>
	
		<rect x="220.863" y="310.709" fill="none" stroke="#2B4348" stroke-width="3" stroke-miterlimit="10" width="97.239" height="0.667"/>
	
		<rect x="220.863" y="381.129" fill="none" stroke="#2B4348" stroke-width="3" stroke-miterlimit="10" width="97.239" height="0.667"/>
	
		<rect x="220.863" y="451.549" fill="none" stroke="#2B4348" stroke-width="3" stroke-miterlimit="10" width="97.239" height="0.667"/>
	
		<rect x="220.863" y="521.969" fill="none" stroke="#2B4348" stroke-width="3" stroke-miterlimit="10" width="97.239" height="0.667"/>
	
		<rect x="220.863" y="592.389" fill="none" stroke="#2B4348" stroke-width="3" stroke-miterlimit="10" width="97.239" height="0.667"/>
	
		<rect x="220.863" y="662.809" fill="none" stroke="#2B4348" stroke-width="3" stroke-miterlimit="10" width="97.239" height="0.667"/>
	<path fill="none" stroke="#2B4348" stroke-width="3" stroke-miterlimit="10" d="M233.428,733.23
		c-1.258,0.233-2.563,0.419-3.821,0.652"/>
	
		<line fill="none" stroke="#2B4348" stroke-width="3" stroke-miterlimit="10" x1="341.239" y1="310.709" x2="415.038" y2="310.709"/>
	<line fill="none" stroke="#2B4348" stroke-width="3" stroke-miterlimit="10" x1="341.239" y1="381.24" x2="415.038" y2="381.24"/>
	
		<line fill="none" stroke="#2B4348" stroke-width="3" stroke-miterlimit="10" x1="341.239" y1="451.771" x2="415.038" y2="451.771"/>
	
		<line fill="none" stroke="#2B4348" stroke-width="3" stroke-miterlimit="10" x1="341.239" y1="522.302" x2="415.038" y2="522.302"/>
	
		<line fill="none" stroke="#2B4348" stroke-width="3" stroke-miterlimit="10" x1="341.239" y1="592.834" x2="415.038" y2="592.834"/>
	
		<line fill="none" stroke="#2B4348" stroke-width="3" stroke-miterlimit="10" x1="341.239" y1="663.365" x2="415.038" y2="663.365"/>
</g>
<g>
	<path fill="#586D71" d="M893.68,793.347c-74.097-23.043-148.659-40.584-223.735-52.332c-24.606-3.889-49.305-7.116-74.003-9.722
		c-2.377-0.248-4.707-0.496-7.037-0.745c-11.697-1.158-23.394-2.193-35.091-3.061c-4.381-0.372-8.808-0.662-13.188-0.951
		c-10.951-0.745-21.856-1.365-32.807-1.82c-17.616-0.786-35.277-1.2-52.986-1.324c-10.719-0.083-21.53-0.041-32.342,0.165
		c-27.029,0.414-54.105,1.613-81.273,3.641c-0.839,0.041-1.678,0.124-2.517,0.166c-6.384,0.496-12.769,0.993-19.2,1.613
		c-28.613,2.524-57.273,5.916-86.073,10.218c-1.258,0.207-2.563,0.372-3.821,0.579c-9.181,1.406-18.314,2.896-27.495,4.468
		C135.191,755.7,67.852,772,0,793.347c66.92-33.178,134.306-58.621,202.111-76.368c10.858-2.813,21.717-5.461,32.575-7.86
		c5.546-1.282,11.138-2.482,16.73-3.599c9.414-1.986,18.874-3.806,28.334-5.419c5.592-0.993,11.184-1.903,16.73-2.73
		c7.689-1.241,15.332-2.358,23.021-3.31c6.384-0.869,12.815-1.655,19.2-2.317c0.839-0.124,1.678-0.207,2.517-0.29
		c9.507-0.993,18.967-1.861,28.474-2.565c7.782-0.62,15.611-1.117,23.44-1.448c9.787-0.538,19.573-0.869,29.359-0.993
		c10.765-0.248,21.53-0.248,32.342-0.041c17.615,0.248,35.277,1.034,52.986,2.358c1.957,0.124,3.914,0.248,5.872,0.455
		c7.829,0.579,15.611,1.282,23.44,2.11c17.243,1.779,34.485,4.013,51.774,6.785c2.33,0.331,4.707,0.703,7.037,1.117
		c9.46,1.531,18.874,3.227,28.334,5.089c4.381,0.827,8.761,1.737,13.142,2.606c10.858,2.275,21.67,4.716,32.528,7.364
		C744.089,732.12,818.651,758.513,893.68,793.347z"/>
</g>
</svg>
