<?xml version="1.0" encoding="utf-8"?>
<!-- Generator: Adobe Illustrator 24.3.0, SVG Export Plug-In . SVG Version: 6.00 Build 0)  -->
<svg version="1.1" id="Layer_6" xmlns="http://www.w3.org/2000/svg" xmlns:xlink="http://www.w3.org/1999/xlink" x="0px" y="0px"
	 viewBox="0 0 298.904 298.904" enable-background="new 0 0 298.904 298.904" xml:space="preserve">
<g>
	<path fill="#035123" d="M298.904,149.441c0,8.577-0.729,16.983-2.123,25.175c-10.207,60.321-56.59,108.355-116.053,121.007
		c-0.129,0.021-0.236,0.064-0.364,0.064c-9.972,2.123-20.307,3.217-30.9,3.217c-15.418,0-30.279-2.337-44.281-6.669c0,0,0,0-0.021,0
		c-0.021-0.021-0.064-0.021-0.107-0.021c-0.772-0.257-1.522-0.493-2.294-0.75c-44.238-14.539-79.385-49.192-94.588-93.13
		C2.874,183.001,0,166.553,0,149.441c0-8.728,0.751-17.284,2.187-25.604C11.644,69.049,50.95,24.467,102.758,7.441
		c0.75-0.257,1.523-0.493,2.273-0.729C119.077,2.359,133.98,0,149.463,0c10.572,0,20.908,1.094,30.858,3.195h0.021
		c0.129,0.021,0.257,0.043,0.386,0.086c51.101,10.872,92.551,47.862,109.663,96.347
		C295.902,115.217,298.904,131.965,298.904,149.441z"/>
</g>
<g>
	<path fill="#008037" d="M180.32,3.195v0.107c0,0.3,0,0.622-0.021,0.965c-0.343,13.574-2.766,49.235-18.206,65.553
		c-19.256,20.35-57.062,37.098-57.062,37.098V6.712C119.077,2.359,133.98,0,149.463,0C160.035,0,170.37,1.094,180.32,3.195z"/>
	<path fill="#008037" d="M180.363,191.964v103.723c-9.972,2.123-20.307,3.217-30.9,3.217c-15.418,0-30.279-2.337-44.281-6.669
		c0,0.129-0.021,0.236-0.021,0.365v-0.365c0.579-14.968,3.538-47.734,18.12-63.173C142.536,208.712,180.363,191.964,180.363,191.964
		z"/>
</g>
<g>
	<path fill="#8BC53F" d="M157.204,103.53c-0.879,1.758-1.801,3.495-2.745,5.254c-6.433,11.751-14.389,23.374-24.317,34.138
		c-25.54,27.705-64.052,49.921-121.972,55.411C2.874,183.001,0,166.553,0,149.441c0-8.728,0.751-17.284,2.187-25.604
		c43.081-1.973,75.782-9.585,100.571-20.157c0.129-0.043,0.236-0.107,0.365-0.15c0.643-0.279,1.287-0.558,1.908-0.858
		c9.521-4.203,17.863-8.835,25.132-13.767c44.195-30,49.664-70.271,50.135-84.638c0.021-0.343,0.021-0.665,0.021-0.965
		c0.021-0.043,0.021-0.064,0.021-0.107C180.406,16.833,178.734,60.707,157.204,103.53z"/>
	<path fill="#8BC53F" d="M298.904,149.441c0,8.577-0.729,16.983-2.123,25.175c-50.092,0.858-87.147,8.985-114.531,20.736
		c-0.515,0.214-1.008,0.45-1.522,0.686c-0.129,0.021-0.236,0.086-0.364,0.15c-9.521,4.203-17.863,8.856-25.153,13.788
		c-41.944,28.456-49.021,66.218-50.028,82.258c0,0.129-0.021,0.236-0.021,0.365v-0.365c-0.021-0.021-0.064-0.021-0.107-0.021
		c0.258-16.576,3.152-57.169,23.116-96.861c0.943-1.866,1.93-3.731,2.938-5.597c6.369-11.665,14.281-23.116,24.124-33.795
		c27.426-29.764,69.799-53.18,135.159-56.333C295.902,115.217,298.904,131.965,298.904,149.441z"/>
</g>
</svg>
