<?xml version="1.0" encoding="utf-8"?>
<!-- Generator: Adobe Illustrator 24.3.0, SVG Export Plug-In . SVG Version: 6.00 Build 0)  -->
<svg version="1.1" id="Layer_12" xmlns="http://www.w3.org/2000/svg" xmlns:xlink="http://www.w3.org/1999/xlink" x="0px" y="0px"
	 viewBox="0 0 310.28 285.853" enable-background="new 0 0 310.28 285.853" xml:space="preserve">
<g>
	<path fill="#9E1D95" d="M278.643,145.284c-2.714,2.714-5.532,5.249-8.439,7.616c-5.39-14.216-14.074-26.836-25.1-36.923
		c-1.312-1.209-2.663-2.367-4.052-3.499c-9.816-8.015-21.227-14.139-33.693-17.805c-2.071-0.618-4.168-1.158-6.291-1.621h-0.013
		c-1.531-0.347-3.088-0.643-4.644-0.9l-0.013-0.013c0.129-0.206,0.27-0.399,0.425-0.605c0.129-0.206,0.27-0.412,0.412-0.618
		c2.071-2.972,4.31-5.866,6.715-8.658l0.013-0.013c0.437-0.528,0.901-1.042,1.364-1.557c0.013-0.026,0.026-0.039,0.051-0.051
		c0.579-0.669,1.184-1.325,1.801-1.968c0.772-0.836,1.57-1.66,2.393-2.483c1.312-1.325,2.663-2.599,4.027-3.834
		s2.753-2.432,4.168-3.577c1.415-1.158,2.856-2.264,4.31-3.332c0.617-0.463,1.248-0.913,1.891-1.364
		c3.113-2.187,6.317-4.181,9.597-6.008c1.48-0.823,2.972-1.608,4.477-2.341c1.582-0.785,3.191-1.518,4.812-2.226
		c3.062-1.338,6.162-2.521,9.314-3.551c18.05-5.931,37.36-6.973,55.86-3.152C315.154,81.281,305.376,118.525,278.643,145.284z"/>
</g>
<g>
	<path fill="#470256" d="M306.869,46.636l-57.249,57.262l-8.568,8.581c-9.816-8.015-21.227-14.139-33.693-17.805
		c-2.071-0.618-4.168-1.158-6.291-1.621h-0.013c-1.531-0.347-3.088-0.643-4.644-0.9c0.27-0.425,0.54-0.823,0.823-1.235
		c2.071-2.972,4.31-5.866,6.715-8.658l0.013-0.013c0.437-0.528,0.901-1.042,1.364-1.557c0.013-0.026,0.026-0.039,0.051-0.051
		c0.579-0.669,1.184-1.325,1.801-1.968c0.772-0.836,1.57-1.66,2.393-2.483c1.312-1.325,2.663-2.599,4.027-3.834
		s2.753-2.432,4.168-3.577c1.415-1.158,2.856-2.264,4.31-3.332c0.617-0.463,1.248-0.913,1.891-1.364
		c3.113-2.187,6.317-4.181,9.597-6.008c1.48-0.811,2.972-1.595,4.477-2.341c1.582-0.785,3.191-1.518,4.812-2.226
		c3.062-1.325,6.175-2.509,9.327-3.525C269.856,44.191,288.729,43.098,306.869,46.636z"/>
</g>
<g>
	<path fill="#08FFF8" d="M207.358,94.673c-2.071-0.618-4.168-1.158-6.291-1.621h-0.013c-1.531-0.347-3.088-0.643-4.644-0.9
		l-0.013-0.013c-5.275-0.901-10.691-1.364-16.223-1.364c-5.519,0-10.935,0.463-16.21,1.364c-2.2,0.373-4.361,0.811-6.51,1.351
		c-1.492,0.347-2.985,0.746-4.451,1.184c-6.059,1.775-11.874,4.13-17.368,7.011c-6.381,3.332-12.338,7.372-17.779,11.99
		c-0.888,0.759-1.762,1.518-2.612,2.303c-0.399-0.913-0.798-1.827-1.184-2.753c-0.013-0.051-0.026-0.103-0.051-0.141
		c-0.412-1.029-0.823-2.058-1.209-3.088c-0.206-0.54-0.399-1.094-0.592-1.634c-0.064-0.167-0.116-0.335-0.167-0.502l-0.013-0.013
		c-0.553-1.569-1.068-3.165-1.557-4.773c-0.296-1.016-0.592-2.058-0.875-3.101c-1.132-4.233-2.007-8.478-2.612-12.723
		c-0.991-6.818-1.299-13.611-0.978-20.301c0.077-1.608,0.193-3.203,0.335-4.799c0.154-1.621,0.335-3.255,0.566-4.863
		c0.116-0.811,0.232-1.608,0.36-2.419c0.129-0.798,0.27-1.595,0.424-2.393c0.142-0.798,0.309-1.595,0.463-2.393
		c0.013-0.039,0.026-0.077,0.026-0.116v-0.013c0.733-3.486,1.647-6.921,2.702-10.305c0.322-1.029,0.656-2.058,1.029-3.075
		c4.67-13.457,11.977-25.91,21.459-36.575c17.947,5.944,34.131,16.493,46.803,30.644c0.013,0.013,0.026,0.026,0.026,0.039
		c10.922,12.196,19.22,27.081,23.762,43.998c0.347,1.312,0.669,2.612,0.965,3.924c0.154,0.682,0.309,1.351,0.45,2.033
		C206.354,85.321,207.011,90.003,207.358,94.673z"/>
</g>
<g>
	<path fill="#F99D12" d="M154.985,80.625c3.306,3.679,6.291,7.526,8.98,11.514c-2.2,0.373-4.361,0.811-6.51,1.351
		c-1.492,0.347-2.985,0.746-4.451,1.184c-6.059,1.775-11.874,4.13-17.368,7.011c-6.381,3.332-12.338,7.372-17.779,11.99
		c-0.888,0.759-1.762,1.518-2.612,2.303c-5.673,5.185-10.716,11.051-15.026,17.445c-0.811,1.209-1.608,2.444-2.354,3.692
		c-3.036,4.979-5.622,10.253-7.706,15.76c-0.077-0.051-0.154-0.116-0.232-0.18c-2.83-2.303-5.583-4.773-8.221-7.41
		c-3.101-3.101-5.969-6.342-8.607-9.7c-3.654-4.644-6.87-9.52-9.649-14.576c-0.759-1.377-1.48-2.779-2.187-4.181
		c-0.399-0.811-0.785-1.621-1.158-2.432c-1.492-3.19-2.805-6.432-3.95-9.739c-0.283-0.823-0.566-1.66-0.836-2.483
		c-1.917-5.905-3.306-11.952-4.181-18.05c-1.762-12.389-1.377-25.035,1.158-37.321c18.513-3.821,37.823-2.779,55.886,3.152v0.013
		c15.58,5.095,30.233,13.843,42.622,26.219c0.965,0.965,1.904,1.943,2.805,2.933C154.084,79.621,154.547,80.123,154.985,80.625z"/>
</g>
<g>
	<path fill="#D87F09" d="M117.856,113.675c-0.888,0.759-1.762,1.518-2.612,2.303c-5.673,5.185-10.716,11.051-15.026,17.445
		c-0.811,1.209-1.608,2.444-2.354,3.692c-3.036,4.979-5.622,10.253-7.706,15.76v0.013c-0.077-0.064-0.154-0.116-0.232-0.193
		c-2.83-2.303-5.583-4.773-8.221-7.41c-3.101-3.101-5.969-6.342-8.607-9.7c-3.654-4.644-6.87-9.52-9.649-14.576
		c-0.759-1.377-1.48-2.779-2.187-4.181c-0.399-0.811-0.785-1.621-1.158-2.432c-1.479-3.203-2.792-6.445-3.95-9.739
		c-0.283-0.823-0.566-1.66-0.836-2.483c-1.891-5.918-3.281-11.952-4.13-18.05c-1.698-12.003-1.377-24.225,0.965-36.151
		L117.856,113.675z"/>
</g>
<g>
	<path fill="#2BFF0D" d="M119.104,92.062c5.879,2.753,11.398,5.982,16.532,9.623c-6.381,3.332-12.338,7.372-17.779,11.99
		c-0.888,0.759-1.762,1.518-2.612,2.303c-5.673,5.185-10.716,11.051-15.026,17.445c-0.811,1.209-1.608,2.444-2.354,3.692
		c-3.036,4.979-5.622,10.253-7.706,15.76v0.013c-3.525,9.25-5.661,19.195-6.137,29.564c-0.026,0.283-0.039,0.553-0.039,0.836
		c-0.27-0.09-0.553-0.206-0.823-0.309c0-0.013-0.013-0.013-0.013-0.013c-1.878-0.759-3.744-1.569-5.596-2.432
		c-2.148-1.003-4.233-2.071-6.278-3.19c-1.994-1.093-3.937-2.251-5.828-3.461c-2.882-1.814-5.661-3.769-8.311-5.841
		c-7.076-5.48-13.341-11.759-18.719-18.654c-11.707-14.949-19.259-32.754-21.961-51.473c10.691-6.561,22.437-11.231,34.684-13.791
		c0.013,0,0.039-0.013,0.051,0c11.604-2.431,23.646-2.972,35.675-1.441c6.741,0.862,13.483,2.367,20.121,4.567
		C111.063,88.588,115.116,90.196,119.104,92.062z"/>
</g>
<g>
	<path fill="#08FFF8" d="M207.358,94.673c-2.071-0.618-4.168-1.158-6.291-1.621h-0.013c-1.531-0.347-3.088-0.643-4.644-0.9
		l-0.013-0.013c-5.275-0.901-10.691-1.364-16.223-1.364c-5.519,0-10.935,0.463-16.21,1.364c-2.2,0.373-4.361,0.811-6.51,1.351
		c-1.492,0.347-2.985,0.746-4.451,1.184c-6.059,1.775-11.874,4.13-17.368,7.011c-6.381,3.332-12.338,7.372-17.779,11.99
		c-0.888,0.759-1.762,1.518-2.612,2.303c-0.399-0.913-0.798-1.827-1.184-2.753c-0.013-0.051-0.026-0.103-0.051-0.141
		c-0.412-1.029-0.823-2.058-1.209-3.088c-0.206-0.54-0.399-1.094-0.592-1.634c-0.064-0.167-0.116-0.335-0.167-0.502l-0.013-0.013
		c-0.553-1.569-1.068-3.165-1.557-4.773c-0.296-1.016-0.592-2.058-0.875-3.101c-1.132-4.233-2.007-8.478-2.612-12.723
		c-0.991-6.818-1.299-13.611-0.978-20.301c0.077-1.608,0.193-3.203,0.335-4.799c0.154-1.621,0.335-3.255,0.566-4.863
		c0.116-0.811,0.232-1.608,0.36-2.419c0.129-0.798,0.27-1.595,0.424-2.393c0.142-0.798,0.309-1.595,0.463-2.393
		c0.013-0.039,0.026-0.077,0.026-0.116v-0.013c0.733-3.486,1.647-6.921,2.702-10.305c0.322-1.029,0.656-2.058,1.029-3.075
		c4.67-13.457,11.977-25.91,21.459-36.575c17.947,5.944,34.131,16.493,46.803,30.644c0.013,0.013,0.026,0.026,0.026,0.039
		c10.922,12.196,19.22,27.081,23.762,43.998c0.347,1.312,0.669,2.612,0.965,3.924c0.154,0.682,0.309,1.351,0.45,2.033
		C206.354,85.321,207.011,90.003,207.358,94.673z"/>
</g>
<g>
	<path fill="#13E5D6" d="M154.573,82.722l2.882,10.768c-1.492,0.347-2.985,0.746-4.451,1.184c-6.059,1.775-11.874,4.13-17.368,7.011
		c-6.381,3.332-12.338,7.372-17.779,11.99c-0.888,0.759-1.762,1.518-2.612,2.303c-0.399-0.913-0.798-1.827-1.184-2.753
		c-0.013-0.051-0.026-0.103-0.051-0.141c-0.412-1.029-0.823-2.058-1.209-3.088c-0.206-0.54-0.399-1.094-0.592-1.634
		c-0.064-0.167-0.116-0.335-0.167-0.502l-0.013-0.013c-0.553-1.569-1.068-3.165-1.557-4.773c-0.296-1.016-0.592-2.058-0.875-3.101
		c-1.132-4.233-2.007-8.478-2.612-12.723c-0.991-6.818-1.299-13.611-0.978-20.301c0.077-1.608,0.193-3.203,0.335-4.799
		c0.154-1.621,0.335-3.255,0.566-4.863c0.116-0.811,0.232-1.608,0.36-2.419c0.129-0.798,0.27-1.595,0.424-2.393
		c0.142-0.798,0.309-1.595,0.463-2.393c0.013-0.039,0.026-0.077,0.026-0.116v-0.013c3.834-18.191,12.325-35.096,24.482-49.054
		l20.944,78.219L154.573,82.722z"/>
</g>
<g>
	<path fill="#F65A77" d="M82.889,183.533c-0.034,0.938-0.045,1.877-0.045,2.815c0,13.916,3.369,27.051,9.326,38.627
		c-0.079,0.011-0.158,0.011-0.237,0.023c-4.612,0.396-9.179,0.452-13.667,0.192c-1.831-0.102-3.64-0.26-5.437-0.475
		c-0.893-0.102-1.797-0.226-2.679-0.35c-0.893-0.136-1.786-0.271-2.668-0.43c-0.882-0.158-1.763-0.328-2.645-0.497
		c-0.87-0.181-1.741-0.373-2.611-0.576c-1.187-0.271-2.351-0.577-3.516-0.893c-3.493-0.95-6.907-2.114-10.242-3.459l-0.011-0.011
		c-15.487-6.217-29.052-16.437-39.339-29.482c7.913-14.594,19.557-26.972,33.755-35.756c0.011-0.011,0.011-0.011,0.023-0.011
		c9.179-5.675,19.432-9.846,30.454-12.118c3.685-0.769,7.461-1.323,11.304-1.65c1.187-0.102,2.374-0.181,3.55-0.237
		c3.018-0.147,6.014-0.158,8.976-0.011c-0.712,1.063-1.413,2.148-2.069,3.244c-2.668,4.375-4.94,9.01-6.771,13.848v0.011
		c-3.097,8.128-4.974,16.866-5.392,25.978c-0.023,0.249-0.034,0.486-0.034,0.735C82.9,183.205,82.9,183.363,82.889,183.533z"/>
</g>
<g>
	<path fill="#F5183C" d="M82.844,186.348c0,13.916,3.369,27.051,9.326,38.627c-0.079,0.011-0.158,0.011-0.237,0.023
		c-4.612,0.396-9.179,0.452-13.667,0.192c-1.82-0.113-3.64-0.271-5.437-0.475c-0.893-0.102-1.797-0.226-2.679-0.35
		c-0.893-0.136-1.786-0.271-2.668-0.43c-0.882-0.158-1.763-0.328-2.645-0.497c-0.87-0.181-1.741-0.373-2.611-0.576
		c-4.725-1.108-9.315-2.577-13.746-4.375c-15.148-6.104-28.453-16.052-38.65-28.691l70.845-6.071l2.216-0.192
		C82.855,184.471,82.844,185.41,82.844,186.348z"/>
</g>
<g>
	<path fill="#8F8AFF" d="M129.898,269.148c-1.029,0.656-2.071,1.299-3.126,1.904c-1.209,0.708-2.432,1.389-3.666,2.058
		c-1.235,0.656-2.47,1.286-3.718,1.891c-0.013,0-0.013,0.013-0.013,0.013c-1.248,0.605-2.496,1.184-3.757,1.737
		c-0.643,0.283-1.274,0.553-1.917,0.823c-2.534,1.068-5.095,2.02-7.68,2.856c-2.586,0.862-5.197,1.621-7.822,2.251
		c-0.013,0-0.026,0.013-0.026,0.013c-22.154,5.493-45.401,3.731-66.319-4.606c-0.515-18.886,3.911-37.72,12.929-54.445l-0.013-0.013
		c0,0,0.013,0,0.026-0.013c7.758-14.434,18.924-27.312,33.282-37.308c1.106-0.772,2.226-1.518,3.358-2.251
		c0.579-0.36,1.145-0.733,1.724-1.081c0.013-0.013,0.013-0.013,0.013-0.013c0.283-0.167,0.566-0.347,0.849-0.515
		c-0.026,0.283-0.039,0.553-0.039,0.836c-0.013,0.18-0.013,0.36-0.026,0.553c-0.039,1.068-0.052,2.136-0.052,3.203
		c0,15.837,3.834,30.786,10.614,43.96c0.566,1.119,1.158,2.226,1.788,3.306c8.053,14.267,19.645,26.283,33.578,34.825
		C129.898,269.148,129.898,269.148,129.898,269.148z"/>
</g>
<g>
	<path fill="#7171E2" d="M129.885,269.136c-1.029,0.669-2.071,1.299-3.113,1.917c-1.209,0.708-2.432,1.389-3.666,2.058
		c-1.235,0.656-2.47,1.286-3.718,1.891c-0.013,0-0.013,0.013-0.013,0.013c-1.248,0.605-2.496,1.184-3.757,1.737
		c-0.643,0.283-1.274,0.553-1.917,0.823c-2.534,1.042-5.095,2.007-7.68,2.856c-2.586,0.849-5.197,1.595-7.822,2.251
		c-0.013,0-0.026,0.013-0.026,0.013c-21.768,5.365-44.59,3.757-65.226-4.22l63.36-44.165
		C104.361,248.577,115.952,260.593,129.885,269.136z"/>
</g>
<g>
	<path fill="#00B5B0" d="M250.752,99.974c-0.347,1.325-0.733,2.637-1.132,3.924c-1.274,4.168-2.792,8.195-4.516,12.08
		c-1.312-1.209-2.663-2.367-4.052-3.499c-9.816-8.015-21.227-14.139-33.693-17.805c-2.071-0.618-4.168-1.158-6.291-1.621h-0.013
		c-1.531-0.347-3.088-0.643-4.644-0.9l-0.013-0.013c-5.275-0.901-10.691-1.364-16.223-1.364c-5.519,0-10.935,0.463-16.21,1.364
		c-2.2,0.373-4.361,0.811-6.51,1.351c-1.492,0.347-2.985,0.746-4.451,1.184c0.283-3.975,0.811-7.963,1.569-11.952
		c0.129-0.695,0.27-1.402,0.412-2.097c0.412-1.981,0.888-3.962,1.415-5.944c0.283-1.042,0.579-2.071,0.875-3.101
		c0.373-1.222,0.759-2.431,1.158-3.641c0.373-1.055,0.746-2.11,1.132-3.165c0.013-0.039,0.026-0.077,0.039-0.116
		c0.785-2.11,1.634-4.181,2.547-6.201c0.026-0.052,0.064-0.116,0.077-0.18c0.579-1.286,1.171-2.547,1.801-3.795
		c0-0.013,0-0.013,0-0.013c0.63-1.248,1.274-2.483,1.93-3.692c0.013-0.013,0-0.013,0-0.013c4.001-7.32,8.787-14.049,14.216-20.121
		C192.846,16.493,209.03,5.944,226.977,0c12.556,14.126,21.292,31.365,25.19,49.955c0,0,0.013,0.013,0.013,0.026
		C255.537,66.023,255.28,83.069,250.752,99.974z"/>
</g>
<g>
	<path fill="#005450" d="M225.871,0.424l-20.944,78.181l-0.965,3.641l-0.013,0.013l-2.882,10.794h-0.013
		c-1.531-0.347-3.088-0.643-4.644-0.9l-0.013-0.013c-5.275-0.901-10.691-1.364-16.223-1.364c-5.519,0-10.935,0.463-16.21,1.364
		c-2.2,0.373-4.361,0.811-6.51,1.351c-1.492,0.347-2.985,0.746-4.451,1.184c0.283-3.975,0.811-7.963,1.569-11.952
		c0.129-0.695,0.27-1.402,0.412-2.097c0.412-1.981,0.888-3.962,1.415-5.944c0.283-1.042,0.579-2.071,0.875-3.101
		c0.373-1.222,0.759-2.431,1.158-3.641c0.373-1.055,0.746-2.11,1.132-3.165c0.013-0.039,0.026-0.077,0.039-0.116
		c0.798-2.097,1.647-4.168,2.547-6.201c0.026-0.052,0.064-0.116,0.077-0.18c0.579-1.286,1.171-2.547,1.801-3.795
		c0-0.013,0-0.013,0-0.013c0.63-1.248,1.274-2.483,1.93-3.692c0.013-0.013,0-0.013,0-0.013c4.014-7.307,8.8-14.023,14.242-20.082
		C192.602,16.84,208.387,6.445,225.871,0.424z"/>
</g>
<g>
	<path fill="#2B2E5F" d="M215.024,189.777l-15.785-25.164v-11.35h3.594c1.816,0,3.288-1.472,3.288-3.288v-11.248
		c0-1.816-1.472-3.289-3.288-3.289h-42.839c-1.816,0-3.288,1.472-3.288,3.289v11.248c0,1.816,1.472,3.288,3.288,3.288h3.594v11.35
		l-15.785,25.164c-1.235,1.969-1.162,4.488,0.184,6.383l28.742,40.433c0.572,0.805,1.3,1.408,2.106,1.811v-44.521
		c-1.56-0.898-2.623-2.563-2.623-4.492c0-2.873,2.329-5.201,5.201-5.201c2.873,0,5.201,2.328,5.201,5.201
		c0,1.929-1.063,3.594-2.623,4.492v44.521c0.806-0.403,1.533-1.007,2.105-1.811l28.742-40.433
		C216.186,194.265,216.259,191.746,215.024,189.777z"/>
</g>
<g>
	<path fill="#2A9B00" d="M97.864,137.115c-3.036,4.979-5.622,10.253-7.706,15.76v0.013c-3.525,9.25-5.661,19.195-6.137,29.564
		c-0.026,0.283-0.039,0.553-0.039,0.836c-0.27-0.103-0.54-0.206-0.811-0.322c-0.013,0-0.013,0-0.026,0
		c-1.878-0.759-3.744-1.569-5.596-2.432c-2.148-1.003-4.233-2.071-6.278-3.19c-1.994-1.106-3.937-2.251-5.828-3.461
		c-2.882-1.827-5.648-3.782-8.311-5.841c-7.063-5.493-13.328-11.784-18.693-18.667c-11.437-14.653-18.886-32.021-21.742-50.264
		l46.751,21.896l26.553,12.428L97.864,137.115z"/>
</g>
<g>
	<path fill="#41477A" d="M135.308,213.962c-1.497,0.018-2.934-0.042-4.308-0.168c-9.393-0.857-17.016-7.899-19.063-17.106
		c-0.861-3.872-1.32-7.851-1.361-11.868c-0.009-0.842,0.043-1.638,0.064-2.457c6.882,7.734,14.415,10.972,14.415,10.972
		c-2.684-1.941-4.938-4.172-6.831-6.519c-5.572-6.909-6.854-16.312-3.863-24.669c4.612-12.883,14.789-19.853,14.789-19.853
		c-10.437,66.077,41.311,99.375,41.311,99.375c-17.715-8.541-33.804-8.648-42.866-17.145c-2.906-2.724-5.447-5.756-7.632-9.008
		C128.735,216.812,135.308,213.962,135.308,213.962z"/>
	<path fill="#41477A" d="M227.533,213.215c1.497-0.014,2.932-0.105,4.304-0.26c9.372-1.058,16.843-8.262,18.692-17.511
		c0.777-3.889,1.152-7.878,1.107-11.894c-0.009-0.842-0.078-1.636-0.117-2.455c-6.715,7.88-14.177,11.279-14.177,11.279
		c2.641-1.998,4.848-4.277,6.69-6.664c5.423-7.027,6.503-16.455,3.333-24.746c-4.887-12.782-15.211-19.531-15.211-19.531
		c11.85,65.839-39.172,100.237-39.172,100.237c17.528-8.919,33.611-9.37,42.489-18.06c2.847-2.786,5.322-5.871,7.437-9.17
		C234.166,215.923,227.533,213.215,227.533,213.215z"/>
</g>
</svg>
