<?xml version="1.0" encoding="utf-8"?>
<!-- Generator: Adobe Illustrator 24.3.0, SVG Export Plug-In . SVG Version: 6.00 Build 0)  -->
<svg version="1.1" id="Layer_1" xmlns="http://www.w3.org/2000/svg" xmlns:xlink="http://www.w3.org/1999/xlink" x="0px" y="0px"
	 viewBox="0 0 263.814 203.709" enable-background="new 0 0 263.814 203.709" xml:space="preserve">
<g>
	<linearGradient id="SVGID_1_" gradientUnits="userSpaceOnUse" x1="5.6245" y1="101.8543" x2="267.3384" y2="101.8543">
		<stop  offset="0" style="stop-color:#ED287D"/>
		<stop  offset="0.4923" style="stop-color:#675DA9"/>
		<stop  offset="1" style="stop-color:#3F7DC0"/>
	</linearGradient>
	<path fill="url(#SVGID_1_)" d="M243.838,114.957v-2.032c0-3.3-1.069-6.356-2.86-8.865c-2.274-26.786-14.216-50.848-32.333-68.674
		l2.76-2.757C190.92,12.468,162.848,0,131.909,0C100.97,0,72.893,12.468,52.411,32.629l2.757,2.757
		c-18.117,17.825-30.056,41.886-32.33,68.672c-1.795,2.508-2.862,5.565-2.862,8.866v2.032C5.946,114.957,0,130.939,0,150.655
		c0,19.716,5.946,35.699,19.975,35.699v2.034c0,8.427,6.892,15.321,15.32,15.321h2.706c8.428,0,15.322-6.894,15.322-15.321v-75.463
		c0-8.428-6.894-15.323-15.322-15.323h-2.706c-1.966,0-3.843,0.388-5.575,1.073c3.283-22.897,14.101-43.387,29.86-58.876
		l2.755,2.757c17.94-17.617,42.505-28.511,69.573-28.511c27.068,0,51.629,10.894,69.569,28.511l2.755-2.758
		c15.761,15.491,26.578,35.98,29.865,58.878c-1.735-0.685-3.614-1.074-5.582-1.074h-2.706c-8.428,0-15.32,6.895-15.32,15.323v75.463
		c0,8.427,6.892,15.321,15.32,15.321h2.706c8.428,0,15.323-6.894,15.323-15.321v-2.034c14.027,0,19.976-15.982,19.976-35.699
		C263.814,130.939,257.865,114.957,243.838,114.957z"/>
</g>
<g>
	<linearGradient id="SVGID_2_" gradientUnits="userSpaceOnUse" x1="83.5808" y1="62.3362" x2="179.2951" y2="168.3362">
		<stop  offset="0" style="stop-color:#EF3924"/>
		<stop  offset="0.4923" style="stop-color:#F3745A"/>
		<stop  offset="1" style="stop-color:#F5E709"/>
	</linearGradient>
	<path fill="url(#SVGID_2_)" d="M131.907,49.704c-36.536,0-66.151,29.621-66.151,66.154c0,36.532,29.615,66.147,66.153,66.147
		c36.532,0,66.147-29.615,66.149-66.147C198.058,79.321,168.441,49.704,131.907,49.704z M102.653,166.055
		c-8.128-4.744-14.996-11.403-19.993-19.365l19.705-12.338c2.998,4.778,7.112,8.771,11.991,11.622L102.653,166.055z
		 M131.909,142.643c-14.795,0-26.793-11.995-26.793-26.792c0.004-14.791,11.998-26.786,26.793-26.786
		c14.791,0,26.786,11.995,26.786,26.789C158.694,130.649,146.7,142.643,131.909,142.643z M161.85,98.017
		c-3.026-5.062-7.284-9.286-12.377-12.27l11.714-20.077c8.487,4.964,15.604,12.009,20.642,20.447L161.85,98.017z"/>
	<linearGradient id="SVGID_3_" gradientUnits="userSpaceOnUse" x1="83.031" y1="62.8326" x2="178.7453" y2="168.8326">
		<stop  offset="0" style="stop-color:#EF3924"/>
		<stop  offset="0.4923" style="stop-color:#F3745A"/>
		<stop  offset="1" style="stop-color:#F5E709"/>
	</linearGradient>
	<path fill="url(#SVGID_3_)" d="M130.909,106.347c-5.256,0-9.509,4.255-9.509,9.509c0,5.246,4.257,9.505,9.507,9.505
		c5.252,0,9.507-4.255,9.507-9.509C140.413,110.604,136.157,106.347,130.909,106.347z"/>
</g>
</svg>
