<?xml version="1.0" encoding="utf-8"?>
<!-- Generator: Adobe Illustrator 24.3.0, SVG Export Plug-In . SVG Version: 6.00 Build 0)  -->
<svg version="1.1" id="Layer_1" xmlns="http://www.w3.org/2000/svg" xmlns:xlink="http://www.w3.org/1999/xlink" x="0px" y="0px"
	 viewBox="0 0 292.306 308" enable-background="new 0 0 292.306 308" xml:space="preserve">
<g>
	<path fill="#919191" d="M186.146,34.122c0.033,3.372-2.798,6.257-6.159,6.275c-3.32,0.018-6.228-2.893-6.219-6.227
		c0.009-3.284,2.791-6.108,6.081-6.17C183.197,27.938,186.112,30.771,186.146,34.122z"/>
	<path fill="#919191" d="M186.143,70.668c0.042,3.382-2.725,6.216-6.131,6.282c-3.315,0.064-6.238-2.828-6.251-6.184
		c-0.013-3.308,2.935-6.24,6.248-6.213C183.287,64.579,186.102,67.386,186.143,70.668z"/>
	<path fill="#919191" d="M239.698,182.363c6.107,2.357,12.158,4.494,18.047,7.011c10.125,4.328,19.779,9.484,27.294,17.82
		c9.45,10.482,9.7,22.99,0.658,33.89c-7.504,9.046-17.415,14.748-27.984,19.306c-26.826,11.571-54.905,16.321-84.075,15.229
		c-15.564-0.583-31.03-1.752-46.189-5.515c-8.779-2.179-17.312-5.051-24.706-10.502c-4.514-3.328-8.116-7.418-9.426-13.036
		c-1.768-7.578,1.209-13.626,6.717-18.521c7.964-7.076,17.71-10.147,28.055-11.037c8.818-0.759,17.705-0.724,26.563-0.992
		c4.902-0.148,9.791-0.287,14.994-2.552c-12.701-4.644-24.298-10.295-35.478-18.28c3.968-0.524,7.315-1.055,10.681-1.39
		c5.45-0.543,10.909-1.01,16.372-1.385c1.139-0.078,2.373,0.228,3.463,0.631c4.149,1.533,8.242,3.216,12.391,4.747
		c0.85,0.314,1.986,0.55,2.766,0.247c7.394-2.871,14.739-5.867,22.099-8.827c-0.068-0.342-0.137-0.684-0.205-1.026
		c-2.803-0.236-5.601-0.57-8.409-0.692c-17.752-0.768-35.428,0.111-53.071,2.234c-21.107,2.539-41.993,6.326-62.761,10.773
		c-12.42,2.659-24.016,7.285-33.783,15.722c-10.69,9.234-16.332,21.117-18.176,34.95c-1.17,8.77-0.7,17.526,0.358,26.273
		c0.135,1.117,0.157,2.253,0.146,3.38c-0.033,3.356-2.344,5.975-5.484,6.269c-3.445,0.323-6.513-1.622-6.894-4.996
		c-1.76-15.577-2.787-31.138,2.055-46.448c6.292-19.895,19.936-32.809,38.633-40.986c9.948-4.35,20.452-6.739,31.069-8.645
		c14.721-2.643,29.429-5.418,44.225-7.577c21.239-3.1,42.623-4.638,64.098-3.468c7.783,0.424,15.52,1.652,23.288,2.416
		c0.905,0.089,2.087-0.179,2.779-0.733c22.856-18.314,37.686-41.772,44.579-70.206c1.19-4.909,1.815-9.964,2.548-14.973
		c0.535-3.659,2.251-6.252,5.701-7.753c0.683-0.297,1.426-1.252,1.521-1.984c1.701-13.157,1.882-26.339,0.572-39.551
		c-0.402-4.052-1.968-7.359-4.933-10.148c-10.372-9.755-22.346-16.5-36.282-19.667c-1.443-0.328-2.412-0.219-3.481,1.08
		c-2.328,2.83-6.169,3.453-9.443,1.879c-3.283-1.578-4.963-4.81-4.458-8.575c0.432-3.22,3.05-5.988,6.22-6.576
		c3.829-0.711,7.226,0.8,8.88,4.219c0.671,1.387,1.501,1.974,2.993,2.298c15.599,3.382,28.888,10.997,40.415,21.96
		c3.838,3.65,5.41,8.043,5.824,13.093c0.975,11.91,1.205,23.82,0.014,35.73c-0.088,0.88-0.215,1.758-0.344,2.633
		c-0.337,2.295-0.459,4.253,1.757,6.101c2.94,2.451,2.359,6.125,1.893,9.501c-4.559,33.031-18.58,61.345-42.333,84.798
		C240.838,181.117,240.269,181.758,239.698,182.363z M186.246,263.262c7.093,0.066,20.061-1.137,32.869-3.819
		c15.581-3.262,30.67-7.946,44.445-16.176c5.214-3.115,10.097-6.665,13.595-11.77c3.447-5.03,3.405-9.953-0.472-14.652
		c-1.978-2.397-4.267-4.665-6.793-6.46c-12.381-8.8-26.456-13.775-40.995-17.588c-0.782-0.205-1.95,0.134-2.637,0.635
		c-12.323,8.987-25.716,15.867-40.185,20.683c-0.674,0.224-1.526,0.811-1.727,1.417c-2.388,7.212-8.185,9.965-14.89,11.523
		c-8.405,1.954-16.985,1.289-25.499,1.686c-6.978,0.325-13.989,0.771-20.883,1.83c-5.746,0.883-11.169,3.108-15.373,7.465
		c-3.011,3.12-3.067,5.942-0.068,9.073c1.27,1.326,2.724,2.532,4.265,3.53c6.302,4.083,13.375,6.229,20.613,7.879
		C148.223,262.1,164.215,262.893,186.246,263.262z"/>
	<ellipse fill="#919191" cx="19.5" cy="292.5" rx="19.5" ry="15.5"/>
</g>
<g>
	<path fill="#282828" d="M186.144,52.668c0.037,3.351-2.858,6.258-6.199,6.224c-3.318-0.034-6.095-2.77-6.159-6.067
		c-0.066-3.39,2.742-6.298,6.099-6.316C183.266,46.489,186.106,49.285,186.144,52.668z"/>
	<path fill="#282828" d="M133.467,173.065c-7.012,1.093-13.569,2.165-20.15,3.068c-0.715,0.098-1.746-0.613-2.324-1.234
		c-13.983-15.003-24.121-32.307-30.663-51.718c-3.271-9.705-5.465-19.66-6.556-29.857c-0.364-3.402,0.649-6.13,3.235-8.383
		c0.519-0.452,0.888-1.457,0.815-2.153c-1.167-11.074-1.777-22.161-1.004-33.29c0.24-3.451,0.578-6.896,0.877-10.343
		c0.35-4.049,2.241-7.286,5.111-10.094c11.614-11.363,25.234-19.013,41.141-22.555c0.897-0.2,1.904-1.056,2.362-1.883
		c1.918-3.463,5.193-5.172,9.052-4.467c3.186,0.581,5.835,3.326,6.294,6.522c0.553,3.845-1.195,7.147-4.608,8.708
		c-3.409,1.559-6.94,0.688-9.648-2.153c-0.563-0.591-1.775-1.047-2.545-0.885c-14.757,3.089-27.271,10.307-37.981,20.821
		c-3.694,3.626-3.8,8.372-4.156,13.006c-0.915,11.922-0.662,23.829,0.915,35.689c0.09,0.675,0.777,1.565,1.405,1.825
		c3.68,1.523,5.373,4.278,5.834,8.147c3.237,27.2,14.079,50.954,32.482,71.246c1.569,1.73,3.203,3.404,4.864,5.046
		C129.817,169.707,131.488,171.21,133.467,173.065z"/>
	<path fill="#282828" d="M240.76,65.16c-10.93,9.42-21.93,18.74-32.88,28.12c-0.91,0.78-1.7,0.86-2.82,0.43
		c-5.56-2.09-11.15-4.07-16.73-6.11c-4.83-1.78-9.67-1.97-14.56-0.23c-6.15,2.19-12.29,4.36-18.46,6.48
		c-0.63,0.21-1.62,0.24-2.09-0.12c-3.77-2.83-7.59-5.62-11.14-8.72c-8.8-7.68-17.45-15.52-26.17-23.29
		c-4.64-4.13-9.29-8.24-14.18-12.59c-0.06,0.59-0.09,0.79-0.09,0.99c0.02,21.65,0.02,43.31,0.09,64.96l2.65,1.63
		c-0.03-0.21-0.07-0.43-0.12-0.68c3.42,2.31,6.8,4.58,10.14,6.84l0.1,0.06c4.13,2.79,8.22,5.55,12.29,8.32
		c1.54,1.05,2.84,1.23,4.07-0.55c3,2.3,5.95,4.56,8.64,6.62c0,2.21-0.15,4.14,0.06,6.04c0.1,0.97,0.58,2.2,1.31,2.76
		c2.7,2.07,4.45,4.84,6.4,7.52c1.55,2.12,4.48,2.05,6.49,3.25c1.92,1.15,3.07,3.88,5.55,4.36c2.63,0.5,4.69,1.88,6.96,3.1
		c4.51,2.44,9.22,3.22,13.99,0.4c0.59-0.35,1.52-0.45,2.2-0.28c3.38,0.83,6.58,0.72,9.68-1.09c0.65-0.38,1.63-0.29,2.44-0.25
		c3.56,0.17,6.57-0.81,8.82-3.75c0.3-0.39,0.96-0.62,1.49-0.71c4.23-0.73,7.15-2.99,8.61-7.1c0.16-0.44,0.69-0.88,1.15-1.08
		c4.01-1.76,5.89-4.89,5.69-9.39c-0.03-0.61,0.3-1.33,0.67-1.85c0.45-0.63,1.11-1.11,1.7-1.63c2.37-2.07,4.74-4.14,7.2-6.29
		c1.39,1.26,2.65,0.68,4-0.23c5.92-4.03,11.87-8.02,17.81-12.02l0.04-0.03c1.48-0.99,2.96-1.98,4.44-2.98
		c0.1,0.05,0.2,0.11,0.3,0.16l2.5-1.48V49C252.71,54.58,246.8,59.94,240.76,65.16z M128.24,127.53c-5-3.36-9.91-6.66-15.03-10.1
		c9.73-9.17,19.3-18.19,29.05-27.37c2.59,2.04,5.18,4.08,7.8,6.14C142.76,106.68,135.56,117.03,128.24,127.53z M144.79,144.79
		c-1.53-0.93-2.26-2.71-1.62-4.51c0.92-2.6,2.12-5.19,3.68-7.45c1.76-2.56,3.8-2.35,5.76-0.26
		C149.97,136.69,147.41,140.7,144.79,144.79z M153.5,152.62c-3.85-0.43-5.92-3.22-4.41-6.68c1.37-3.14,3.4-6,5.32-8.86
		c0.95-1.4,2.66-1.25,3.96-0.6c1.39,0.69,2.56,1.84,4.1,3C157.22,142.9,154.82,147.41,153.5,152.62z M161.55,157.84
		c-3.8-1.01-5-3-3.55-6.42c0.93-2.19,2.29-4.2,3.52-6.26c0.89-1.49,2.23-2.3,3.97-1.73c1.92,0.63,3.22,1.92,3.37,4.27
		C163.66,149.21,162.6,153.54,161.55,157.84z M166.15,159.6c-0.31-0.38-0.68-0.98-0.58-1.37c0.44-1.75,0.88-3.54,1.66-5.16
		c0.63-1.32,1.97-1.84,3.5-1.55c1.56,0.29,2.04,1.47,2.3,2.82c0.06,0.32,0.12,0.64,0.13,0.97c0.03,1.4-0.38,3.02,0.19,4.14
		c0.55,1.07,2.12,1.61,3.47,2.54C173.7,163.23,168.08,161.92,166.15,159.6z M216.15,144.3c-1.32,2.69-3.61,3.31-5.99,1.68
		c-5.79-3.95-11.58-7.89-17.41-11.78c-0.46-0.31-1.21-0.18-1.83-0.25c0.28,0.51,0.45,1.17,0.87,1.52
		c5.59,4.54,11.18,9.09,16.86,13.53c1.25,0.97,1.2,1.74,0.48,2.91c-1.84,3.01-5.01,3.65-7.75,1.52c-4.86-3.78-9.71-7.56-14.57-11.34
		c-0.21-0.16-0.4-0.39-0.64-0.46c-0.49-0.15-1.01-0.22-1.52-0.33c0.16,0.49,0.19,1.11,0.51,1.43c1.91,1.89,3.89,3.71,5.85,5.55
		c3.05,2.87,6.11,5.74,9.25,8.7c-2.29,2.67-5.38,3.05-7.96,1.15c-3.95-2.91-7.89-5.85-11.88-8.71c-0.47-0.33-1.23-0.25-1.85-0.36
		c0.26,0.59,0.38,1.34,0.81,1.75c3.34,3.13,6.74,6.2,10.3,9.45c-3.6,1.67-6.67,0.47-9.71-0.91c-2.01-0.91-3.3-2.18-3.14-4.73
		c0.16-2.49-1.17-4.48-3.12-6.06c-0.44-0.36-0.92-0.95-0.98-1.47c-0.35-3.54-2.45-5.63-5.48-7.09c-0.61-0.3-1.27-0.86-1.52-1.47
		c-1.37-3.29-3.93-5.1-7.21-6.15c-0.66-0.22-1.28-0.7-1.81-1.17c-0.64-0.56-1.12-1.3-1.76-1.85c-3.74-3.23-8.05-2.86-11.17,0.98
		c-0.86,1.06-1.57,2.24-2.35,3.36c-2.64-1.62-2.7-1.63-2.02-4.57c2.43-10.45,6.18-20.34,12.67-29.03c0.27-0.36,0.55-0.82,0.93-0.98
		c4.56-1.88,9.14-3.71,13.85-5.36c-3,2.45-4.53,5.68-5.85,9.15c-1.41,3.72-3.18,7.3-4.81,10.93c-1.86,4.13-0.7,7.78,3.21,10.02
		c4.19,2.41,8.11,1.7,10.64-2.11c1.92-2.88,3.66-5.88,5.41-8.87c0.54-0.92,1.12-1.28,2.24-1.45c3.84-0.57,6.06,0.58,7.6,4.46
		c2.67,6.73,8.56,10.67,14.54,14.11c5.74,3.3,10.57,7.71,15.79,11.64C216.75,142.49,216.66,143.28,216.15,144.3z M216.88,137.68
		c-2.06-1.65-3.83-3.21-5.75-4.56c-3.74-2.63-7.48-5.26-11.37-7.66c-6.87-4.23-11.68-9.99-13.75-17.69c-3.79,0-7.4-0.08-10.99,0.07
		c-0.69,0.03-1.55,0.81-1.97,1.48c-2.08,3.32-3.98,6.75-6.06,10.07c-1.42,2.27-3.2,2.52-5.71,1.07c-2.17-1.25-2.56-2.65-1.49-5.12
		c2.04-4.73,4.01-9.49,6.12-14.2c0.5-1.1,1.22-2.29,2.18-2.96c3.68-2.58,7.39-5.15,11.32-7.31c1.35-0.74,3.54-0.76,5.07-0.26
		c7.43,2.46,14.76,5.18,22.11,7.87c0.61,0.22,1.17,0.81,1.56,1.37c5.92,8.44,10.03,17.68,12.32,27.73c0.26,1.15,0.32,2.34,0.57,3.49
		C221.82,134.62,218.76,135.64,216.88,137.68z M232.21,127.54c-7.26-10.42-14.47-20.77-21.81-31.31c2.53-2.03,5.06-4.05,7.75-6.2
		c9.67,9.11,19.3,18.17,29.08,27.39C242.12,120.87,237.23,124.15,232.21,127.54z"/>
</g>
</svg>
