<?xml version="1.0" encoding="utf-8"?>
<!-- Generator: Adobe Illustrator 24.3.0, SVG Export Plug-In . SVG Version: 6.00 Build 0)  -->
<svg version="1.1" id="Layer_1" xmlns="http://www.w3.org/2000/svg" xmlns:xlink="http://www.w3.org/1999/xlink" x="0px" y="0px"
	 viewBox="0 0 908.197 740.44" enable-background="new 0 0 908.197 740.44" xml:space="preserve">
<g>
	<path fill="#278C8C" d="M253.638,656.78H8.306c0,46.204,54.921,83.66,122.666,83.66S253.638,702.984,253.638,656.78z"/>
	<path fill="#278C8C" d="M654.556,656.78h245.332c0,46.204-54.918,83.66-122.663,83.66
		C709.477,740.44,654.556,702.984,654.556,656.78z"/>
	<path fill="#278C8C" d="M413.892,120.007c0-22.205,18.001-40.205,40.205-40.205c22.205,0,40.205,18.001,40.205,40.205
		s-18.001,40.205-40.205,40.205C431.892,160.213,413.892,142.212,413.892,120.007z M454.097,144.374
		c13.459,0,24.367-10.911,24.367-24.367c0-13.459-10.908-24.367-24.367-24.367s-24.367,10.908-24.367,24.367
		C429.73,133.463,440.638,144.374,454.097,144.374z"/>
</g>
<g>
	<path fill="#676767" d="M253.644,632.983L149.718,327.018c-3.261-7.959-10.621-13.103-18.747-13.103s-15.486,5.144-18.747,13.103
		L8.3,632.983l-4.254-1.986l103.925-305.965c3.998-9.766,13.03-16.076,23.001-16.076s19.002,6.311,23.001,16.076l103.925,305.965
		L253.644,632.983z"/>
	<path fill="#676767" d="M196.346,632.983l-55.382-305.965c-1.739-7.959-5.661-13.103-9.992-13.103
		c-4.33,0-8.253,5.144-9.992,13.103L65.597,632.983l-2.268-1.986l55.385-305.965c2.13-9.766,6.942-16.076,12.257-16.076
		s10.127,6.311,12.257,16.076l55.385,305.965L196.346,632.983z"/>
	<path fill="#676767" d="M711.848,632.983l55.385-305.965c1.736-7.959,5.658-13.103,9.989-13.103c4.33,0,8.253,5.144,9.992,13.103
		l55.382,305.965l2.268-1.986l-55.382-305.965c-2.133-9.766-6.945-16.076-12.26-16.076c-5.315,0-10.124,6.311-12.257,16.076
		L709.58,630.997L711.848,632.983z"/>
	<rect y="626.32" fill="#676767" width="261.943" height="30.46"/>
	<path fill="#676767" d="M654.55,632.983l103.925-305.965c3.261-7.959,10.62-13.103,18.75-13.103
		c8.126,0,15.486,5.144,18.744,13.103l103.925,305.965l4.254-1.986L800.223,325.032c-3.998-9.766-13.03-16.076-22.998-16.076
		c-9.974,0-19.002,6.311-23.004,16.076L650.296,630.997L654.55,632.983z"/>
	
		<rect x="646.25" y="626.32" transform="matrix(-1 -1.224647e-16 1.224647e-16 -1 1554.4471 1283.0995)" fill="#676767" width="261.946" height="30.46"/>
	<path fill="#676767" d="M446.788,49.648c0,11.27,0,42.083,0,42.083h7.309h7.31c0,0,0-30.813,0-42.083s13.097-24.061,13.097-24.061
		L454.097,0L433.69,25.586C433.69,25.586,446.788,38.378,446.788,49.648z"/>
	<path fill="#676767" d="M816.288,241.56c-12.445-11.769-31.627-10.717-38.155,0.837c-2.979,5.268-2.256,9.36-0.426,12.845
		c-0.097,0.22-0.209,0.447-0.311,0.67c0.406,0.72,1.369,0.823,1.898,1.454c1.854,2.259,3.843,3.893,6.455,4.956
		c0.943,0.397,1.428,0.729,2.359,0.958c3.367,0.873,6.493,1.014,7.924-0.476c-1.401-3.502-0.952-5.752,0.238-7.095
		c0.065-0.073,0.068-0.212,0.138-0.279c1.243-1.169,3.24-1.319,5.224-0.699c0.138,0.041,0.276,0.038,0.414,0.088
		c1.963,0.752,3.772,2.403,4.845,4.715c0.085,0.179,0.2,0.329,0.276,0.523c0.917,2.406,0.746,5.608-0.77,9.331
		c-0.432,1.058-0.599,2.012-1.301,3.167c-14.469,23.756-83.272,0.823-114.47-32.514c-22.722-24.288-29.532-50.541-29.532-50.541
		s-109.525-33.686-206.996-33.686c-97.468,0-206.996,33.686-206.996,33.686s-6.807,26.253-29.532,50.541
		c-31.192,33.336-100,56.27-114.467,32.514c-0.705-1.158-0.87-2.112-1.301-3.17c-1.51-3.719-1.686-6.922-0.773-9.325
		c0.076-0.191,0.194-0.347,0.279-0.529c1.075-2.309,2.879-3.96,4.842-4.712c0.141-0.05,0.273-0.044,0.414-0.088
		c1.986-0.62,3.981-0.47,5.227,0.699c0.068,0.068,0.071,0.206,0.135,0.279c1.19,1.343,1.639,3.593,0.238,7.095
		c1.431,1.49,4.56,1.348,7.924,0.476c0.931-0.229,1.419-0.561,2.359-0.958c2.615-1.064,4.604-2.694,6.461-4.956
		c0.529-0.629,1.486-0.737,1.892-1.454c-0.103-0.223-0.212-0.444-0.308-0.667c1.827-3.484,2.55-7.577-0.426-12.847
		c-6.531-11.555-25.71-12.607-38.157-0.837c-7.785,7.359-11.904,17.589-9.968,29.602c-0.024,0.112-0.091,0.2-0.112,0.311
		c0.508,2.979,1.287,6.037,2.621,9.225c7.521,18.03,34.879,31.456,79.829,20.357c49.339-12.184,188.701-70.516,235.875-75.948
		c14.616-1.683,24.652,2.715,31.033,7.536c6.378,4.818,9.105,10.059,9.105,10.059h13.808h13.808c0,0,2.726-5.241,9.11-10.059
		c6.378-4.821,16.414-9.219,31.03-7.536c47.174,5.432,186.533,63.764,235.872,75.948c44.953,11.099,72.308-2.327,79.832-20.357
		c1.331-3.188,2.112-6.246,2.623-9.225c-0.021-0.112-0.091-0.2-0.115-0.311C828.195,259.149,824.073,248.92,816.288,241.56z"/>
	<polygon fill="#676767" points="532.819,580.835 532.259,663.244 374.448,661.996 375.008,579.588 	"/>
	<path fill="#676767" d="M515.71,561.982l54.39-140.05c-47.932-55.473-75.013-91.762-89.242-162.796l-16.53-0.112L463.491,382.5
		c6.98,2.076,13.289,6.223,18.079,12.203c0.461,0.557,0.892,1.13,1.319,1.715c0.444,0.626,0.981,1.149,1.39,1.81
		c0.236,0.381,0.356,0.797,0.577,1.183c0.668,1.15,1.219,2.362,1.753,3.591c0.347,0.799,0.769,1.571,1.055,2.384
		c0.093,0.267,0.128,0.558,0.215,0.83c5.135,15.728-0.795,33.488-15.486,42.589c-17.249,10.685-39.892,5.364-50.576-11.884
		c-10.685-17.249-5.364-39.892,11.885-50.577c3.364-2.084,6.957-3.383,10.603-4.28l0.836-123.168l-16.53-0.113
		c-12.798,73.737-47.072,112.572-91.444,161.569l52.483,140.776C499.735,561.873,397.312,561.178,515.71,561.982z"/>
</g>
</svg>
