<?xml version="1.0" encoding="utf-8"?>
<!-- Generator: Adobe Illustrator 24.3.0, SVG Export Plug-In . SVG Version: 6.00 Build 0)  -->
<svg version="1.1" id="Layer_6" xmlns="http://www.w3.org/2000/svg" xmlns:xlink="http://www.w3.org/1999/xlink" x="0px" y="0px"
	 viewBox="0 0 218.071 218.138" enable-background="new 0 0 218.071 218.138" xml:space="preserve">
<g>
	<path fill="#FF276A" d="M195.482,131.572c2.221-0.225,4.442-0.242,6.661,0.013c-0.16,6.481,0.077,12.96-0.248,19.446
		c-1.09,21.784-18.176,41.955-39.531,46.495c-3.349,0.712-6.729,1.149-10.141,1.364c-2.359,0.059-4.74-0.43-7.071,0.29
		c-0.757-0.604-1.648-0.327-2.474-0.328c-12.257-0.019-24.513-0.022-36.77-0.011c-11.044,0.01-22.089,0.042-33.133,0.065
		c-2.312-0.007-4.625-0.014-6.937-0.021c-13.65-0.718-25.515-5.632-35.094-15.451c-8.876-9.098-13.777-20.069-14.582-32.834
		c-0.4-6.339-0.074-12.678-0.238-19.015c2.221-0.255,4.441-0.237,6.662-0.013c-0.009,5.699-0.029,11.398-0.027,17.097
		c0.002,5.482,1.285,10.697,3.197,15.805c0.634,1.693,1.497,2.34,3.406,2.335c31.988-0.069,63.976-0.05,95.964-0.049
		c3.206,0,4.825,1.103,4.787,3.253c-0.038,2.134-1.626,3.167-4.881,3.167c-30.563,0-61.126-0.002-91.689,0.011
		c-0.796,0-1.649-0.211-2.511,0.278c0.401,0.577,0.697,1.06,1.048,1.499c9.224,11.509,21.246,17.373,35.961,17.423
		c26.787,0.091,53.574,0.027,80.362,0.024c2.49,0,4.971-0.032,7.459-0.328c12.763-1.518,22.995-7.438,30.854-17.548
		c0.279-0.359,0.752-0.704,0.411-1.359c-8.733,0-17.494,0.001-26.255,0c-2.778,0-5.559,0.052-8.335-0.028
		c-1.972-0.057-3.205-1.442-3.149-3.302c0.052-1.744,1.285-2.954,3.167-3.078c0.568-0.037,1.139-0.012,1.709-0.012
		c11.755,0,23.51-0.025,35.265,0.032c1.418,0.007,2.187-0.367,2.714-1.734c1.335-3.463,2.491-6.964,2.973-10.654
		C196.009,146.812,195.392,139.184,195.482,131.572z"/>
	<path fill="#FF276A" d="M166.097,53.704c-2.086-0.998-4.171-1.995-6.257-2.993c8.166-8.15,16.332-16.3,24.496-24.452
		c2.973-2.969,5.998-5.889,8.894-8.932c3.548-3.729,1.806-9.621-3.149-10.754c-2.517-0.576-4.551,0.391-6.34,2.181
		c-10.369,10.376-20.77,20.721-31.159,31.077c-0.815-2.26-1.629-4.52-2.444-6.779c6.366-6.316,12.735-12.628,19.095-18.95
		c3.433-3.413,6.79-6.906,10.286-10.254c7.366-7.051,19.11-3.983,21.577,5.699c1.204,4.727,0.049,8.99-3.506,12.53
		c-9.939,9.896-19.843,19.828-29.756,29.75C167.232,52.429,166.675,53.077,166.097,53.704z"/>
	<path fill="#FF276A" d="M139.578,166.768c1.777,0.055,3.264,1.642,3.157,3.369c-0.104,1.67-1.596,3.047-3.284,3.03
		c-1.772-0.018-3.169-1.542-3.089-3.371C136.438,168.082,137.889,166.716,139.578,166.768z"/>
</g>
<g>
	<path fill="#1A237E" d="M15.926,131.585c-3.6-0.337-6.954-1.281-9.856-3.598c-5.091-4.065-7.271-10.809-5.417-17.058
		c1.869-6.3,7.275-10.91,13.772-11.36c4.185-0.29,8.401-0.251,12.599-0.151c1.811,0.043,2.202-0.423,2.091-2.225
		c-1.204-19.527,6.795-34.146,23.714-43.89c2.966-1.708,6.166-2.941,9.507-3.692c1.409-0.317,1.867-0.909,2.004-2.372
		c1.815-19.453,15.424-34.329,32.385-39.114c21.074-5.946,42.808,3.776,52.608,23.426c0.253,0.508,0.536,1.001,0.805,1.501
		c0.814,2.259,1.629,4.519,2.444,6.779c0.254,1.382,0.848,2.802,0.702,4.141c-0.528,4.853,2.483,6.15,6.345,6.749
		c0.068,0.011,0.141-0.006,0.211-0.009c2.086,0.998,4.171,1.995,6.257,2.993c11.865,6.96,19.398,17.078,22.255,30.588
		c0.905,4.28,1.103,8.624,0.591,12.952c-0.231,1.95,0.466,2.196,2.15,2.164c4.053-0.078,8.125-0.164,12.163,0.127
		c8.466,0.61,14.787,7.494,14.815,15.839c0.029,8.373-6.201,15.166-14.672,16.004c-0.422,0.042-0.838,0.137-1.256,0.206
		c-2.219-0.254-4.44-0.238-6.661-0.013c-0.781-0.033-1.561-0.094-2.342-0.094c-37.902-0.005-75.803-0.003-113.705-0.009
		c-0.852,0-1.724,0.031-2.553-0.126c-1.601-0.302-2.471-1.353-2.515-2.984c-0.044-1.628,0.753-2.758,2.342-3.118
		c0.957-0.217,1.978-0.206,2.97-0.207c38.614-0.009,77.228-0.007,115.843-0.011c2.492,0,4.994,0.088,7.474-0.092
		c4.577-0.333,8.201-4.035,8.625-8.602c0.427-4.599-2.633-9.03-7.083-10.17c-1.526-0.391-3.107-0.348-4.677-0.348
		c-45.952,0.004-91.905,0.003-137.857,0.003c-14.819,0-29.637,0.002-44.456-0.002c-2.153-0.001-4.264,0.135-6.205,1.23
		c-3.735,2.108-5.663,6.449-4.657,10.552c1.123,4.58,4.714,7.4,9.674,7.418c11.256,0.04,22.512,0.012,33.768,0.015
		c3.354,0.001,5.026,1.134,4.95,3.337c-0.073,2.134-1.612,3.099-4.93,3.109c-9.188,0.03-18.375,0.064-27.563,0.097
		C20.366,131.348,18.146,131.329,15.926,131.585z M144.326,99.369c11.965,0,23.931-0.033,35.895,0.038
		c1.637,0.01,2.267-0.45,2.362-2.095c0.217-3.781,0.196-7.53-0.422-11.283c-3.295-20.02-23.758-34.573-43.716-31.053
		c-20.782,3.666-34.115,21.036-32.42,42.156c0.134,1.667,0.609,2.291,2.407,2.279C120.395,99.33,132.36,99.369,144.326,99.369z
		 M67.986,99.369c9.905,0,19.811-0.039,29.716,0.038c1.696,0.013,2.137-0.391,1.97-2.124c-0.856-8.867,0.728-17.298,4.955-25.173
		c0.527-0.981,0.397-1.619-0.26-2.439C95.091,58.1,82.981,52.881,68.39,54.974C47.31,57.999,33.538,76.152,35.481,97.311
		c0.15,1.634,0.721,2.11,2.361,2.097C47.89,99.331,57.938,99.369,67.986,99.369z M142.858,48.092c0.341,0,0.839,0,1.338,0
		c3.407-0.002,3.407-0.002,2.75-3.458c-4.127-21.726-24.36-35.331-46.03-30.952C85.305,16.837,72.356,30.987,70.878,46.45
		c-0.114,1.188-0.154,1.792,1.407,1.751c14.424-0.378,26.352,4.981,35.772,15.882c0.894,1.035,1.251,0.835,2.03-0.069
		C118.676,54.055,129.58,48.814,142.858,48.092z"/>
	<path fill="#1A237E" d="M65.838,198.885c2.312,0.007,4.625,0.014,6.937,0.021c4.158,8.16,10.866,12.515,19.964,12.695
		c10.897,0.215,21.804,0.222,32.701-0.005c8.919-0.186,15.551-4.449,19.712-12.415c2.331-0.72,4.713-0.231,7.071-0.29
		c-4.025,11.327-14.47,19.004-26.431,19.147c-11.173,0.134-22.35,0.134-33.522,0C80.327,217.894,69.833,210.179,65.838,198.885z"/>
	<path fill="#1A3C69" d="M67.905,128.259c0.007,1.751-1.532,3.226-3.316,3.178c-1.754-0.047-3.056-1.39-3.061-3.157
		c-0.005-1.843,1.423-3.244,3.254-3.192C66.468,125.138,67.898,126.589,67.905,128.259z"/>
	<path fill="#1A237E" d="M131.559,78.794c-2.702,0.006-4.903-0.878-6.716-2.647c-1.342-1.31-1.451-3.103-0.361-4.426
		c1.112-1.349,2.866-1.649,4.383-0.471c1.801,1.399,3.376,1.44,5.191,0.031c1.532-1.189,3.269-0.926,4.396,0.397
		c1.15,1.351,1.004,3.245-0.444,4.588C136.156,77.985,133.945,78.849,131.559,78.794z"/>
	<path fill="#1A237E" d="M159.023,88.49c-2.524-0.088-4.745-0.91-6.574-2.632c-1.411-1.329-1.579-3.289-0.372-4.565
		c1.309-1.384,2.907-1.561,4.381-0.382c1.796,1.436,3.353,1.398,5.146-0.019c1.483-1.173,3.267-0.882,4.377,0.426
		c1.173,1.383,1.039,3.176-0.421,4.552C163.729,87.596,161.506,88.407,159.023,88.49z"/>
	<path fill="#1A237E" d="M69.403,83.384c-2.621-0.031-4.773-0.856-6.598-2.478c-1.494-1.328-1.726-3.169-0.641-4.567
		c1.092-1.406,2.979-1.703,4.553-0.474c1.74,1.359,3.254,1.361,4.998,0.009c1.587-1.23,3.451-0.944,4.551,0.457
		c1.122,1.428,0.916,3.162-0.613,4.557C73.843,82.54,71.676,83.328,69.403,83.384z"/>
	<path fill="#1A237E" d="M95.034,38.485c-2.646-0.048-4.796-0.882-6.611-2.515c-1.481-1.332-1.683-3.186-0.571-4.572
		c1.107-1.38,2.971-1.641,4.561-0.402c1.755,1.367,3.268,1.288,4.999-0.054c1.58-1.225,3.454-0.903,4.542,0.529
		c1.051,1.382,0.888,3.075-0.525,4.408C99.59,37.614,97.363,38.441,95.034,38.485z"/>
	<path fill="#1A237E" d="M119.895,44.901c-2.46-0.087-4.616-0.893-6.406-2.569c-1.44-1.348-1.618-3.226-0.488-4.579
		c1.076-1.29,2.95-1.59,4.405-0.428c1.808,1.445,3.365,1.414,5.167-0.008c1.465-1.156,3.319-0.848,4.394,0.453
		c1.12,1.355,1.027,3.058-0.339,4.411C124.769,44.023,122.477,44.86,119.895,44.901z"/>
</g>
</svg>
