<?xml version="1.0" encoding="utf-8"?>
<!-- Generator: Adobe Illustrator 24.3.0, SVG Export Plug-In . SVG Version: 6.00 Build 0)  -->
<svg version="1.1" id="Layer_3" xmlns="http://www.w3.org/2000/svg" xmlns:xlink="http://www.w3.org/1999/xlink" x="0px" y="0px"
	 viewBox="0 0 163.418 198.292" enable-background="new 0 0 163.418 198.292" xml:space="preserve">
<g>
	<path fill="#22225B" d="M26.668,67.319l-0.203-0.047c-0.151-0.042-3.763-0.958-5.746-5.074c-1.025-2.139-1.421-4.752-1.155-7.77
		c0.317-3.695,1.613-8.025,3.851-12.876c2.347-5.09,5.048-9.758,8.015-13.896c2.378-3.305,4.929-6.282,7.593-8.832
		c4.543-4.356,7.874-6.006,7.905-6.021l0.042-0.016h0.036c0.156-0.005,3.877-0.161,4.59,1.743c0.635,1.697-1.358,4.392-5.923,8.036
		c-6.433,5.116-11.247,16.951-14.151,25.975c-3.154,9.795-4.798,18.486-4.814,18.58L26.668,67.319z M47.069,13.167
		c-0.37,0.187-3.539,1.874-7.791,5.949c-4.153,3.992-10.216,11.148-15.504,22.597c-4.054,8.775-4.965,15.603-2.706,20.307
		c1.639,3.414,4.523,4.564,5.298,4.814c0.271-1.395,1.905-9.441,4.793-18.408c1.853-5.772,3.867-10.789,5.969-14.921
		c2.633-5.173,5.428-8.957,8.311-11.247c5.506-4.387,6.198-6.547,5.808-7.588C50.66,13.115,47.464,13.162,47.069,13.167z"/>
	<path fill="#22225B" d="M137.037,67.636l-0.036-0.203c-0.016-0.083-1.665-8.78-4.824-18.58c-2.904-9.03-7.718-20.859-14.151-25.98
		c-4.564-3.638-6.563-6.339-5.923-8.03c0.713-1.91,4.434-1.754,4.59-1.743h0.036l0.036,0.016c0.031,0.016,3.372,1.665,7.911,6.016
		c2.659,2.555,5.215,5.527,7.593,8.837c2.966,4.132,5.662,8.806,8.015,13.89c2.243,4.856,3.539,9.186,3.851,12.881
		c0.255,3.019-0.13,5.631-1.155,7.77c-1.983,4.117-5.595,5.038-5.751,5.069L137.037,67.636z M116.417,13.479
		c-0.827,0-3.43,0.114-3.95,1.494c-0.39,1.041,0.297,3.206,5.808,7.593c2.883,2.29,5.678,6.074,8.311,11.247
		c2.103,4.127,4.106,9.144,5.969,14.916c2.888,8.967,4.512,17.018,4.793,18.408c0.775-0.255,3.659-1.4,5.293-4.814
		c2.264-4.705,1.353-11.533-2.701-20.307c-5.288-11.45-11.351-18.606-15.509-22.592c-4.247-4.075-7.421-5.766-7.786-5.949
		C116.599,13.479,116.521,13.479,116.417,13.479z"/>
	<path fill="#22225B" d="M140.394,76.15c-0.645,0-1.166-0.52-1.166-1.166c0-35.801-25.871-64.919-57.665-64.919
		s-57.67,29.129-57.67,64.919c0,0.645-0.515,1.166-1.161,1.166c-0.645,0-1.166-0.52-1.166-1.166c0-9.061,1.582-17.856,4.7-26.142
		c3.013-7.999,7.328-15.197,12.829-21.369c5.506-6.188,11.918-11.049,19.069-14.447c7.411-3.523,15.285-5.303,23.399-5.303
		c8.119,0,15.993,1.79,23.399,5.303c7.146,3.398,13.568,8.254,19.074,14.447c5.501,6.172,9.815,13.37,12.829,21.369
		c3.117,8.285,4.7,17.076,4.7,26.142C141.56,75.63,141.039,76.15,140.394,76.15z"/>
	<path fill="#22225B" d="M146.551,76.15c-0.645,0-1.166-0.52-1.166-1.166c0-39.611-28.635-71.836-63.821-71.836
		S17.737,35.374,17.737,74.985c0,0.645-0.52,1.166-1.166,1.166c-0.64,0-1.161-0.52-1.161-1.166c0-9.992,1.743-19.693,5.178-28.832
		c3.32-8.816,8.082-16.753,14.151-23.565c6.068-6.823,13.146-12.178,21.026-15.92c8.171-3.882,16.852-5.85,25.798-5.85
		s17.632,1.967,25.798,5.85c7.885,3.742,14.957,9.097,21.031,15.92c6.068,6.813,10.825,14.749,14.151,23.576
		c3.44,9.128,5.178,18.829,5.178,28.832C147.716,75.63,147.196,76.15,146.551,76.15z"/>
	<path fill="#22225B" d="M123.844,153.274c0,0-13.599,11.163-6.198,27.11c7.401,15.941,29.951-10.284,30.045-14.765
		c0.088-4.481-6.24-12.959-8.639-13.495C136.641,151.598,123.844,153.274,123.844,153.274z"/>
	<path fill="#22225B" d="M43.202,153.274c0,0,13.599,11.163,6.198,27.11C42,196.325,19.444,170.1,19.356,165.629
		c-0.088-4.481,6.24-12.959,8.639-13.495C30.394,151.598,43.202,153.274,43.202,153.274z"/>
	<path fill="#22225B" d="M83.973,123.536c-0.437-0.047-0.817-0.104-1.15-0.151c0.666-0.141,1.02-0.25,1.02-0.25
		S83.89,123.271,83.973,123.536z"/>
	<path fill="#22225B" d="M84.254,123.76l-0.302-0.031c-0.401-0.047-0.786-0.094-1.15-0.146l-1.083-0.156l1.072-0.229
		c0.656-0.141,0.994-0.25,0.994-0.25l0.177-0.052l0.062,0.177c0,0,0.047,0.141,0.135,0.401L84.254,123.76z"/>
	<path fill="#22225B" d="M132.582,139.889c-3.341,9.264-39.538,8.093-49.603,8.093c-0.13,0-0.255,0-0.39-0.016
		c-0.12,0.005-0.255,0.016-0.385,0.016c-10.065,0-38.684,0.068-46.735-5.584c-8.046-5.657,10.143-25.892,10.143-25.892
		c17.122,8.613,30.185,7.994,35.551,7.177c0.677-0.099,1.228-0.208,1.655-0.302c0.323,0.047,0.713,0.094,1.145,0.146
		c5.782,0.645,20.505,1.067,38.034-7.755C122.002,115.782,134.404,134.814,132.582,139.889z"/>
	<path fill="#22225B" d="M82.823,123.385c-0.416,0.094-0.978,0.203-1.655,0.302c0.12-0.354,0.182-0.552,0.182-0.552
		S81.86,123.245,82.823,123.385z"/>
	<path fill="#22225B" d="M80.892,123.921l0.088-0.297c0.12-0.354,0.182-0.541,0.182-0.552l0.052-0.161l0.172,0.036
		c0.01,0,0.515,0.12,1.452,0.25l1.083,0.156l-1.067,0.229c-0.541,0.115-1.088,0.213-1.66,0.302L80.892,123.921z M81.48,123.354
		c-0.005,0.026-0.016,0.057-0.031,0.088c0.083-0.016,0.172-0.031,0.255-0.042C81.61,123.385,81.543,123.37,81.48,123.354z"/>
	<path fill="#22225B" d="M133.534,46.512c-0.645,4.054-2.259,8.036-4.45,11.179c-1.567,2.243-4.705,2.555-6.797,0.718
		c-1.072-0.937-2.165-1.832-3.242-2.68c-4.778-3.711-9.498-6.443-12.621-8.114c-0.302-0.161-0.583-0.312-0.854-0.458
		c-0.203-0.109-0.396-0.224-0.578-0.359c-1.171-0.848-1.915-2.207-1.962-3.685c-0.198-6.917,3.992-13.745,10.575-16.118
		c0.755-0.271,1.499-0.479,2.243-0.635c7.385-1.567,14.239,2.358,16.987,10.034c0.156,0.432,0.286,0.869,0.401,1.312
		C133.972,40.485,134.018,43.519,133.534,46.512z"/>
	<path fill="#22225B" fill-opacity="0.4" d="M133.534,46.512c-3.882,3.919-9.024,7.094-14.489,9.217
		c-4.778-3.711-9.498-6.443-12.621-8.114c-0.302-0.161-0.583-0.312-0.854-0.458c-0.203-0.109-0.396-0.224-0.578-0.359
		c0.801,0.109,1.509,0.182,1.952,0.172c11.585-0.177,20.864-0.25,26.293-9.253C133.972,40.485,134.018,43.519,133.534,46.512z"/>
	<path fill="#22225B" d="M125.806,60.751c-0.599,0-1.109-0.458-1.155-1.062c-0.052-0.645,0.422-1.218,1.056-1.27
		c0.984-0.083,1.848-0.583,2.415-1.4c4.216-6.058,5.709-14.374,3.612-20.229c-1.358-3.794-3.877-6.75-7.088-8.322
		c-3.201-1.567-6.984-1.686-10.648-0.375c-5.959,2.149-9.987,8.306-9.8,14.978c0.016,0.609,0.193,1.207,0.51,1.728
		c0.333,0.552,0.161,1.27-0.385,1.603c-0.552,0.333-1.27,0.161-1.603-0.39c-0.526-0.869-0.822-1.863-0.854-2.878
		c-0.099-3.622,0.942-7.323,2.935-10.43c2.071-3.227,4.986-5.584,8.41-6.818c4.273-1.535,8.691-1.369,12.464,0.463
		c3.758,1.837,6.693,5.262,8.265,9.628c1.207,3.388,1.421,7.39,0.599,11.601c-0.755,3.856-2.347,7.676-4.491,10.757
		c-0.952,1.374-2.462,2.243-4.122,2.394C125.879,60.751,125.848,60.751,125.806,60.751z"/>
	<path fill="#22225B" d="M58.638,43.113c-0.026,1.02-0.385,1.972-0.994,2.753c-0.411,0.531-0.932,0.973-1.535,1.291
		c-0.271,0.146-0.557,0.297-0.854,0.458c-3.3,1.775-8.389,4.72-13.438,8.759c-0.812,0.651-1.629,1.327-2.43,2.035
		c-2.082,1.832-5.225,1.525-6.792-0.718c-2.019-2.904-3.56-6.521-4.288-10.253c-0.583-2.951-0.661-5.964-0.094-8.759
		c0.161-0.775,0.375-1.546,0.635-2.285c2.753-7.687,9.602-11.601,16.987-10.034c0.744,0.156,1.488,0.375,2.243,0.635
		C54.652,29.363,58.836,36.196,58.638,43.113z"/>
	<path fill="#22225B" fill-opacity="0.4" d="M57.686,45.21c-0.016,0.219-0.031,0.437-0.047,0.656
		c-0.411,0.531-0.932,0.973-1.535,1.291c-0.276,0.146-0.562,0.297-0.859,0.458c-3.3,1.775-8.384,4.72-13.433,8.759
		c-4.892-2.056-9.639-5.116-13.511-8.936c-0.583-2.951-0.661-5.964-0.094-8.759c5.668,4.949,13.807,8.088,23.388,8.025
		C52.908,46.699,56.609,45.767,57.686,45.21z"/>
	<path fill="#22225B" d="M35.864,60.751c-0.031,0-0.073,0-0.099-0.005c-1.665-0.151-3.169-1.02-4.127-2.394
		c-2.144-3.081-3.742-6.901-4.486-10.757c-0.817-4.21-0.614-8.213,0.599-11.601c1.561-4.366,4.486-7.791,8.254-9.628
		c3.763-1.832,8.192-2.004,12.464-0.463c3.424,1.233,6.334,3.591,8.41,6.818c1.993,3.097,3.034,6.797,2.935,10.43
		c-0.031,1.015-0.328,2.009-0.854,2.878c-0.333,0.552-1.056,0.723-1.603,0.39c-0.552-0.333-0.718-1.056-0.385-1.603
		c0.317-0.526,0.494-1.119,0.51-1.728c0.187-6.672-3.841-12.829-9.8-14.978c-3.674-1.322-7.453-1.192-10.648,0.375
		c-3.206,1.561-5.72,4.517-7.088,8.322c-2.097,5.855-0.614,14.172,3.612,20.229c0.567,0.817,1.426,1.317,2.415,1.4
		c0.645,0.052,1.119,0.625,1.056,1.27C36.967,60.293,36.452,60.751,35.864,60.751z"/>
	<path fill="#22225B" d="M30.243,150.438c-0.088,0-0.167-0.01-0.25-0.026c-0.63-0.141-1.025-0.76-0.895-1.39
		c2.352-10.851,5.933-18.923,8.514-23.779c2.816-5.293,5.069-7.999,5.163-8.108c0.411-0.494,1.15-0.562,1.645-0.141
		c0.489,0.411,0.562,1.15,0.141,1.65c-0.047,0.057-2.238,2.706-4.929,7.781c-2.503,4.715-5.964,12.548-8.259,23.102
		C31.268,150.063,30.779,150.438,30.243,150.438z"/>
	<path fill="#22225B" d="M29.312,166.504c0,0-2.097-5.043-3.747-7.994c-3.643-6.511-16.966-8.837-16.888,6.828
		c0.031,5.876,2.285,10.206,5.079,13.334c4.075,4.543,9.956,7.036,16.05,7.036H91.41"/>
	<path fill="#22225B" d="M46.574,157.38c0,0-14.593-16.711-23.206-2.462"/>
	<path fill="#22225B" d="M91.702,186.874H30.092c-6.521,0-12.688-2.706-16.919-7.427c-3.544-3.95-5.35-8.697-5.376-14.099
		c-0.036-7.354,2.732-10.508,5.064-11.861c2.842-1.65,6.656-1.478,9.956,0.432c0.172,0.104,0.333,0.203,0.5,0.307
		c0.541,0.349,0.687,1.072,0.338,1.619c-0.349,0.541-1.072,0.692-1.613,0.338c-0.135-0.083-0.265-0.172-0.406-0.25
		c-2.576-1.499-5.496-1.66-7.609-0.432c-2.576,1.494-3.929,4.892-3.908,9.821c0.026,4.824,1.634,9.045,4.778,12.553
		c3.789,4.231,9.326,6.662,15.181,6.662h61.599c0.645,0,1.166,0.52,1.166,1.166C92.841,186.348,92.347,186.874,91.702,186.874z"/>
	<path fill="#22225B" d="M29.442,166.566c-0.156-0.213-0.302-0.442-0.453-0.666c-0.146-0.224-0.291-0.442-0.432-0.671
		c-0.286-0.442-0.578-0.895-0.854-1.343c-0.562-0.895-1.103-1.796-1.65-2.691c-0.271-0.442-0.541-0.89-0.812-1.322l-0.406-0.645
		c-0.068-0.12-0.125-0.203-0.187-0.297l-0.193-0.271c-0.265-0.37-0.552-0.718-0.854-1.051c-0.302-0.343-0.64-0.671-0.963-1.004
		l-0.031-0.031c-0.453-0.458-0.453-1.207,0.016-1.655c0.385-0.385,0.978-0.437,1.421-0.172c0.505,0.302,0.968,0.677,1.39,1.098
		c0.422,0.416,0.801,0.89,1.124,1.405l0.12,0.193l0.114,0.198c0.068,0.13,0.146,0.271,0.203,0.385c0.114,0.25,0.239,0.5,0.343,0.749
		c0.052,0.125,0.104,0.25,0.161,0.375l0.156,0.37l0.146,0.375l0.141,0.375c0.38,1.004,0.713,2.019,1.025,3.039
		c0.146,0.515,0.297,1.025,0.416,1.551c0.062,0.255,0.135,0.52,0.187,0.786c0.062,0.26,0.12,0.52,0.167,0.791
		c0.016,0.094-0.047,0.177-0.141,0.203C29.541,166.655,29.478,166.623,29.442,166.566z"/>
	<path fill="#22225B" d="M23.649,156.09c-0.203,0-0.411-0.052-0.609-0.172c-0.552-0.333-0.729-1.046-0.396-1.598
		c1.936-3.206,4.34-5.215,7.146-5.975c0.619-0.172,1.265,0.203,1.431,0.822c0.167,0.625-0.203,1.27-0.827,1.431
		c-2.201,0.598-4.143,2.259-5.761,4.934C24.425,155.887,24.045,156.09,23.649,156.09z"/>
	<path fill="#22225B" d="M46.564,157.995c-1.181-1.056-2.404-2.051-3.659-2.982c-1.254-0.926-2.545-1.785-3.882-2.509
		c-1.332-0.723-2.711-1.296-4.091-1.671c-0.343-0.094-0.692-0.172-1.036-0.234c-0.338-0.062-0.687-0.109-1.03-0.141
		c-0.343-0.031-0.682-0.047-1.025-0.036c-0.343,0.005-0.677,0.031-1.015,0.062l-0.042,0.005c-0.645,0.073-1.213-0.396-1.28-1.041
		c-0.062-0.578,0.312-1.098,0.843-1.244c0.874-0.25,1.796-0.333,2.691-0.286c0.224,0.005,0.442,0.031,0.666,0.052
		c0.219,0.031,0.442,0.062,0.661,0.104c0.437,0.083,0.864,0.182,1.28,0.317c0.422,0.125,0.822,0.281,1.218,0.442
		c0.401,0.172,0.786,0.349,1.161,0.552c0.37,0.193,0.739,0.411,1.093,0.63c0.359,0.219,0.697,0.453,1.041,0.703
		c1.353,0.963,2.571,2.066,3.69,3.248c0.557,0.593,1.088,1.207,1.593,1.837c0.25,0.317,0.494,0.64,0.729,0.963
		c0.234,0.328,0.468,0.661,0.677,1.004c0.047,0.078,0.021,0.182-0.057,0.234C46.705,158.052,46.621,158.041,46.564,157.995z"/>
	<path fill="#22225B" d="M119.904,157.89c0,0,14.041-17.221,22.655-2.967"/>
	<path fill="#22225B" d="M157.246,165.338c-0.01,0.921-0.062,1.806-0.172,2.654c-0.578,4.549-2.55,8.041-4.908,10.679
		c-4.08,4.549-9.956,7.047-16.056,7.047H74.517l62.099-19.204c0,0,0.328-0.796,0.833-1.936c0.76-1.733,1.92-4.278,2.914-6.058
		c2.8-5.017,11.377-7.552,15.108-1.259c0.755,1.265,1.317,2.883,1.587,4.923c0.047,0.338,0.083,0.692,0.109,1.056
		c0.005,0.068,0.016,0.146,0.016,0.224C157.22,164.047,157.246,164.677,157.246,165.338z"/>
	<path fill="#22225B" fill-opacity="0.4" d="M157.074,167.982c-0.578,4.554-2.55,8.046-4.908,10.679
		c-4.08,4.554-9.956,7.047-16.056,7.047h-15.639c-2.67-2.868-3.383-5.236,0.854-5.616c11.83-1.072,10.836-11.346,10.836-11.346
		s5.1,8.129,11.169,8.129c11.096,0,12.766-9.399,12.766-9.399S156.444,167.664,157.074,167.982z"/>
	<path fill="#22225B" fill-opacity="0.4" d="M8.681,167.982c0.578,4.554,2.55,8.046,4.908,10.679
		c4.08,4.554,9.956,7.047,16.056,7.047h15.639c2.67-2.868,3.388-5.236-0.854-5.616c-11.83-1.072-15.207-11.627-15.207-11.627
		s-3.383,5.569-9.451,5.569c-7.531,0-10.117-6.558-10.117-6.558S9.306,167.664,8.681,167.982z"/>
	<path fill="#22225B" d="M135.632,150.219c-0.536,0-1.02-0.375-1.14-0.916c-2.326-10.539-6.833-19.881-10.206-25.861
		c-3.659-6.479-6.781-10.492-6.813-10.534c-0.396-0.505-0.307-1.244,0.198-1.639c0.505-0.396,1.239-0.312,1.634,0.193
		c0.135,0.172,3.274,4.195,7.016,10.82c3.456,6.12,8.067,15.681,10.45,26.506c0.141,0.63-0.255,1.254-0.885,1.395
		C135.804,150.214,135.715,150.219,135.632,150.219z"/>
	<path fill="#22225B" d="M82.422,128.116c-16.581-0.057-28.728-2.045-37.149-6.089c-7.609-3.664-11.065-8.525-13.443-12.803
		c-1.483-2.67-2.613-6.656-3.274-11.538c-0.677-4.96-0.817-10.528-0.411-16.092c0.442-6.042,1.535-11.97,3.175-17.138
		c1.858-5.881,4.382-10.815,7.5-14.656c6.401-7.9,16.17-11.127,24.788-13.984c2.269-0.744,4.413-1.462,6.396-2.217
		c0.656-0.25,0.729-1.129,0.827-2.238c0.141-1.66,0.317-3.721,2.587-4.824c3.357-1.634,11.106,1.478,11.632,1.697
		c0.422,0.078,7.25,1.447,15.519,4.668c4.986,1.941,9.519,4.184,13.464,6.641c4.939,3.081,8.972,6.526,11.986,10.242
		c7.921,9.769,9.987,24.055,10.508,31.705c0.38,5.506,0.224,11.065-0.437,16.082c-0.635,4.861-1.707,8.884-3.081,11.637
		C128.356,118.488,118.712,127.997,82.422,128.116z M75.938,26.459c-0.906,0-1.717,0.125-2.347,0.427
		c-2.066,1.004-2.227,2.862-2.368,4.507c-0.104,1.197-0.193,2.233-1.083,2.566c-1.988,0.76-4.127,1.468-6.407,2.222
		c-8.572,2.831-18.278,6.047-24.606,13.844c-7.921,9.763-10.034,23.982-10.596,31.58c-0.822,11.189,0.614,21.947,3.643,27.417
		c2.347,4.221,5.756,9.03,13.271,12.636c8.363,4.023,20.458,6.006,36.977,6.053c36.077-0.114,45.637-9.514,50.243-18.689
		c2.821-5.631,4.216-16.69,3.477-27.516c-0.9-13.125-4.601-24.31-10.419-31.487c-6.766-8.348-17.487-13.719-25.288-16.763
		c-8.457-3.294-15.4-4.642-15.467-4.648h-0.016l-0.016-0.01C84.858,28.577,79.654,26.459,75.938,26.459z"/>
	<path fill="#22225B" d="M82.422,129.089c-16.737-0.057-29.014-2.077-37.565-6.193c-7.859-3.778-11.424-8.795-13.87-13.209
		c-3.154-5.678-4.653-16.737-3.815-28.177c0.453-6.12,1.561-12.126,3.216-17.362c1.894-5.995,4.481-11.033,7.671-14.968
		c4.117-5.074,10.237-9.243,18.189-12.392c0.599-0.234,1.275,0.052,1.514,0.651c0.234,0.604-0.057,1.28-0.651,1.52
		c-7.583,3.003-13.375,6.927-17.242,11.689c-7.749,9.56-9.831,23.545-10.378,31.034c-0.401,5.465-0.26,10.934,0.406,15.811
		c0.645,4.715,1.723,8.54,3.123,11.059c2.269,4.091,5.574,8.743,12.844,12.236c8.233,3.961,20.183,5.902,36.556,5.959
		c16.451-0.057,28.567-1.998,37.034-5.964c7.879-3.69,11.044-8.457,12.912-12.189c2.722-5.428,3.961-16.279,3.091-27.006
		c-1.046-12.902-4.778-23.893-10.497-30.945c-2.998-3.695-7.203-6.917-12.491-9.576c-0.572-0.286-0.807-0.989-0.52-1.572
		c0.291-0.578,0.989-0.807,1.572-0.52c5.59,2.805,10.05,6.235,13.256,10.19c8.124,10.008,10.388,24.492,11.018,32.231
		c0.916,11.283-0.385,22.368-3.331,28.239c-1.879,3.758-5.381,9.217-14.01,13.261c-4.132,1.931-9.191,3.43-15.056,4.439
		C98.889,128.475,91.166,129.058,82.422,129.089z"/>
	<path fill="#22225B" d="M112.993,41.198c-0.229,0-0.463-0.068-0.677-0.219c-11.491-8.15-32.147-14.916-39.47-12.933
		c-2.144,0.583-1.827,4.783-1.634,5.798c0.125,0.63-0.291,1.244-0.921,1.369c-0.63,0.12-1.244-0.297-1.369-0.926
		c-0.38-2.009-0.536-7.447,3.31-8.488c2.103-0.567,5.017-0.572,8.65-0.016c3.263,0.505,7.104,1.473,11.106,2.81
		c8.108,2.696,16.206,6.62,21.666,10.492c0.531,0.37,0.651,1.103,0.281,1.624C113.716,41.026,113.357,41.198,112.993,41.198z"/>
	<path fill="#22225B" d="M57.431,39.47c-0.047-0.042-4.778-5.168-4.278-8.369c0.12-0.781,0.546-1.384,1.27-1.78
		c1.54-0.838,4.304-0.505,8.223,0.989c3.076,1.176,6.027,2.748,7.52,3.575l-0.187,0.343c-1.473-0.822-4.408-2.389-7.463-3.555
		c-3.758-1.436-6.485-1.785-7.895-1.01c-0.625,0.343-0.973,0.833-1.083,1.499c-0.401,2.623,3.19,7.01,4.179,8.046L57.431,39.47z"/>
	<path fill="#22225B" d="M56.681,39.038c-0.307,0-0.609-0.125-0.843-0.359c-1.291-1.343-4.231-4.793-3.789-7.609
		c0.167-1.109,0.827-2.014,1.91-2.602c1.822-0.994,4.772-0.692,9.04,0.932c3.128,1.197,6.131,2.795,7.64,3.643
		c0.557,0.307,0.76,1.025,0.448,1.582c-0.307,0.562-1.025,0.765-1.582,0.453c-6.734-3.763-12.527-5.6-14.421-4.564
		c-0.567,0.312-0.692,0.651-0.729,0.911c-0.208,1.374,1.442,3.82,3.175,5.636c0.442,0.468,0.427,1.207-0.036,1.65
		C57.264,38.929,56.973,39.038,56.681,39.038z"/>
	<path fill="#22225B" d="M79.19,95.578c-0.656,0.031-1.291,0.245-1.811,0.651c-0.25,0.182-0.463,0.411-0.536,0.677
		c-0.161,0.572,0.333,1.52,0.817,2.061c2.571,2.862,7.297,2.535,9.488-0.593c1.036-1.468,0.172-2.946-1.931-3.003
		C83.312,95.323,81.397,95.48,79.19,95.578z"/>
	<path fill="#22225B" d="M91.171,91.889c7,14.395,30.591,16.852,38.918,3.908c3.992-6.204,3.95-13.089,0.578-19.907
		c-3.258-6.615-8.811-9.857-15.691-10.018c-10.487-0.26-18.887,3.716-23.945,13.406C88.766,83.634,88.943,87.303,91.171,91.889z"/>
	<path fill="#22225B" d="M87.491,106.903c-0.068-0.036-0.115-0.083-0.187-0.12l-0.094-0.062c-0.031-0.016-0.068-0.042-0.099-0.057
		c-0.031-0.021-0.073-0.036-0.104-0.052c-0.036-0.016-0.068-0.031-0.099-0.047c-0.078-0.031-0.141-0.062-0.219-0.088
		c-0.291-0.109-0.614-0.177-0.937-0.219c-0.645-0.078-1.306-0.005-1.894,0.187c-0.307,0.104-0.583,0.234-0.848,0.396
		c-0.271,0.167-0.52,0.359-0.76,0.588c-0.245,0.224-0.468,0.479-0.687,0.76c-0.213,0.281-0.416,0.599-0.64,0.916l-0.026,0.031
		c-0.172,0.25-0.52,0.312-0.77,0.141c-0.161-0.114-0.245-0.302-0.239-0.479c0.026-0.453,0.109-0.906,0.271-1.338
		c0.167-0.437,0.38-0.864,0.671-1.265c0.286-0.396,0.651-0.744,1.046-1.03c0.406-0.291,0.864-0.515,1.338-0.671
		c0.947-0.312,1.962-0.343,2.909-0.099c0.474,0.125,0.932,0.307,1.358,0.583c0.422,0.265,0.812,0.63,1.083,1.088
		c0.193,0.317,0.083,0.729-0.234,0.926c-0.224,0.13-0.489,0.125-0.697,0L87.491,106.903z"/>
	<path fill="#22225B" d="M73.226,91.889c-7,14.395-30.591,16.852-38.918,3.908c-3.987-6.204-3.95-13.089-0.578-19.907
		c3.258-6.615,8.811-9.857,15.691-10.018c10.487-0.26,18.887,3.716,23.945,13.406C75.631,83.634,75.454,87.303,73.226,91.889z"/>
	<path fill="#22225B" d="M136.111,186.874H74.506c-0.645,0-1.166-0.52-1.166-1.166c0-0.645,0.52-1.166,1.166-1.166h61.599
		c5.865,0,11.392-2.425,15.181-6.656c3.149-3.508,4.752-7.734,4.778-12.553c0.021-4.934-1.322-8.332-3.908-9.826
		c-2.118-1.228-5.033-1.056-7.609,0.437c-0.13,0.078-0.271,0.161-0.406,0.25c-0.541,0.349-1.265,0.193-1.613-0.343
		c-0.349-0.546-0.193-1.27,0.343-1.619c0.161-0.109,0.323-0.208,0.494-0.302c3.3-1.92,7.114-2.087,9.956-0.437
		c2.332,1.353,5.111,4.512,5.064,11.861c-0.031,5.413-1.842,10.159-5.376,14.104C148.804,184.167,142.637,186.874,136.111,186.874z"
		/>
	<path fill="#22225B" d="M136.454,166.436c0.047-0.265,0.109-0.531,0.161-0.791c0.057-0.265,0.125-0.526,0.187-0.786
		c0.125-0.526,0.276-1.036,0.422-1.551c0.302-1.025,0.645-2.035,1.025-3.039l0.141-0.375l0.146-0.375l0.156-0.37
		c0.052-0.125,0.109-0.25,0.161-0.375c0.104-0.25,0.229-0.5,0.343-0.749c0.052-0.115,0.13-0.255,0.203-0.385l0.115-0.198
		l0.115-0.193c0.328-0.515,0.703-0.989,1.129-1.405c0.416-0.422,0.885-0.796,1.39-1.098c0.552-0.333,1.275-0.156,1.608,0.396
		c0.281,0.468,0.193,1.056-0.172,1.426l-0.031,0.026c-0.333,0.338-0.661,0.666-0.963,1.004c-0.312,0.343-0.588,0.692-0.854,1.051
		l-0.193,0.271c-0.062,0.094-0.12,0.182-0.187,0.297l-0.406,0.645c-0.271,0.437-0.541,0.88-0.817,1.322
		c-0.541,0.89-1.083,1.79-1.645,2.691c-0.281,0.453-0.557,0.906-0.854,1.348c-0.146,0.224-0.286,0.453-0.437,0.666
		c-0.146,0.229-0.291,0.448-0.448,0.671c-0.057,0.078-0.161,0.094-0.239,0.036C136.47,166.566,136.449,166.504,136.454,166.436z"/>
	<path fill="#22225B" d="M142.559,156.09c-0.396,0-0.775-0.203-0.999-0.557c-1.619-2.675-3.56-4.335-5.766-4.934
		c-0.619-0.172-0.984-0.807-0.822-1.431c0.172-0.619,0.807-0.989,1.431-0.822c2.8,0.76,5.21,2.769,7.146,5.975
		c0.333,0.552,0.151,1.265-0.401,1.598C142.98,156.038,142.767,156.09,142.559,156.09z"/>
	<path fill="#22225B" d="M119.384,157.786c0.219-0.349,0.442-0.677,0.677-1.004c0.234-0.323,0.484-0.651,0.729-0.963
		c0.5-0.64,1.036-1.244,1.593-1.837c1.119-1.181,2.337-2.28,3.69-3.248c0.343-0.245,0.682-0.474,1.041-0.703
		c0.359-0.219,0.723-0.437,1.093-0.63c0.375-0.203,0.765-0.38,1.161-0.552c0.396-0.161,0.796-0.317,1.218-0.442
		c0.422-0.135,0.848-0.234,1.28-0.317c0.219-0.042,0.437-0.073,0.661-0.104c0.224-0.021,0.442-0.047,0.666-0.052
		c0.895-0.047,1.822,0.036,2.691,0.286c0.619,0.177,0.978,0.822,0.807,1.447c-0.156,0.552-0.692,0.9-1.244,0.848l-0.036-0.01
		c-0.343-0.036-0.677-0.062-1.02-0.062c-0.338-0.005-0.682,0.01-1.025,0.042c-0.338,0.031-0.682,0.068-1.03,0.141
		c-0.343,0.062-0.692,0.141-1.036,0.234c-1.379,0.37-2.753,0.947-4.091,1.671c-1.338,0.723-2.623,1.577-3.882,2.503
		c-1.249,0.926-2.488,1.931-3.659,2.987c-0.068,0.062-0.177,0.052-0.239-0.016C119.353,157.927,119.347,157.844,119.384,157.786z"/>
	<path fill="#22225B" d="M85.618,165.057h-0.193c-0.271,0-0.572,0-0.911,0h-0.13c-0.479,0-0.916,0-1.291,0h-0.193v-0.016
		c-0.255,0-0.526,0-0.807-0.005h-0.016v-0.39c0.364-0.005,0.697-0.016,1.01-0.021c0.411-0.01,0.791-0.016,1.124-0.026h0.094
		c0.677-0.016,1.119-0.031,1.119-0.031l0.203-0.005v0.494H85.618z"/>
	<path fill="#22225B" d="M123.162,195.815c-4.007,0-8.077-0.942-9.873-2.404c-0.619-0.505-0.963-1.056-1.01-1.645
		c-0.052-0.604-0.349-1.14-0.88-1.582c-1.358-1.14-3.945-1.41-4.788-1.332c-1.098,0.099-11.023,2.139-11.408,2.217
		c-2.144,0.697-7.036,1.056-9.763,1.207c-0.406,0.021-0.822,0.047-1.166,0.062h-0.016c-0.323-0.016-0.708-0.031-1.166-0.062
		c-2.722-0.151-7.614-0.51-9.758-1.207c-0.39-0.078-10.32-2.118-11.418-2.217c-0.843-0.078-3.43,0.193-4.788,1.332
		c-0.531,0.442-0.833,0.978-0.88,1.582c-0.047,0.588-0.39,1.14-1.01,1.645c-2.212,1.801-7.885,2.805-12.636,2.248
		c-2.685-0.323-5.241-2.186-7.192-5.246c-1.645-2.581-2.717-5.839-2.8-8.499c-0.141-4.746,1.296-9.534,3.336-11.153
		c0.833-0.661,1.129-1.993,1.405-3.284c0.328-1.499,0.63-2.909,1.749-3.398c1.083-0.474,4.616-1.01,8.421-1.28
		c2.738-0.198,7.895-0.416,11.824,0.317c0.453-0.317,2.888-1.931,6.656-1.837c0.468,0.016,0.989,0.026,1.546,0.031
		c5.865,0.12,10.757,0.302,11.294,1.348c0.427,0.833-0.442,1.421-0.963,1.769c-0.088,0.057-0.182,0.125-0.26,0.182l-0.036,0.375
		c-2.503-0.047-4.934-0.104-7.229-0.182c-0.38-0.016-0.807-0.078-1.223-0.156c-0.479,0.64-1.452,2.337-1.665,5.766
		c-0.031,0.541-0.047,1.124-0.042,1.733c0.078,5.605,3.045,5.605,5.912,5.6h21.119c2.878,0.005,5.845,0.005,5.912-5.6
		c0.005-0.614-0.01-1.197-0.036-1.749c-0.213-3.289-1.135-4.996-1.593-5.642c-0.198,0.026-0.375,0.042-0.536,0.047
		c-2.222,0.073-4.59,0.135-7.239,0.182l-1.707,0.031l1.66-0.416h0.005c-0.068-0.052-0.161-0.114-0.245-0.172
		c-0.52-0.349-1.39-0.947-0.963-1.769c0.536-1.046,5.428-1.223,11.288-1.348c0.552-0.005,1.072-0.021,1.546-0.031
		c3.773-0.094,6.214,1.509,6.656,1.837c3.929-0.734,9.087-0.515,11.83-0.317c3.794,0.271,7.338,0.812,8.415,1.28
		c1.119,0.489,1.421,1.905,1.749,3.398c0.281,1.291,0.567,2.623,1.4,3.284c2.04,1.608,3.477,6.407,3.336,11.153l-0.193-0.01
		l0.193,0.01c-0.078,2.659-1.15,5.912-2.805,8.499c-1.946,3.065-4.502,4.923-7.187,5.246
		C125.025,195.768,124.094,195.815,123.162,195.815z M106.898,188.445c1.046,0,3.383,0.297,4.746,1.431
		c0.614,0.515,0.952,1.135,1.015,1.853c0.042,0.474,0.333,0.942,0.869,1.374c2.144,1.754,7.682,2.717,12.34,2.165
		c2.571-0.302,5.027-2.108,6.911-5.069c1.619-2.529,2.665-5.709,2.743-8.301c0.156-5.282-1.53-9.519-3.19-10.836
		c-0.942-0.744-1.244-2.144-1.54-3.508c-0.302-1.4-0.588-2.711-1.52-3.128c-0.869-0.38-4.08-0.947-8.296-1.249
		c-2.743-0.198-7.911-0.422-11.809,0.328l-0.088,0.016l-0.068-0.057c-0.026-0.016-2.524-1.905-6.485-1.806
		c-0.468,0.016-0.989,0.026-1.546,0.031c-2.129,0.047-4.783,0.104-6.958,0.265c-3.222,0.25-3.893,0.645-4.002,0.864
		c-0.245,0.484,0.234,0.864,0.843,1.275c0.271,0.187,0.463,0.317,0.505,0.484c2.467-0.047,4.689-0.104,6.792-0.172
		c0.182-0.01,0.38-0.026,0.609-0.057l0.115-0.016l0.068,0.094c0.442,0.598,1.499,2.373,1.733,5.938
		c0.042,0.557,0.047,1.155,0.042,1.78c-0.031,2.659-0.723,4.372-2.108,5.236c-1.213,0.755-2.727,0.755-4.195,0.744H73.304
		c-1.468,0-2.993,0.01-4.195-0.744c-1.384-0.864-2.071-2.576-2.103-5.236c-0.01-0.614,0.005-1.207,0.036-1.764
		c0.239-3.721,1.358-5.485,1.827-6.079l0.068-0.088l0.12,0.021c0.432,0.078,0.89,0.156,1.28,0.172
		c2.16,0.068,4.439,0.125,6.787,0.172c0.036-0.167,0.234-0.297,0.505-0.484c0.604-0.411,1.088-0.791,0.838-1.275
		c-0.109-0.219-0.775-0.614-3.997-0.864c-2.175-0.172-4.835-0.224-6.958-0.265c-0.552-0.005-1.083-0.021-1.546-0.031
		c-3.955-0.099-6.464,1.79-6.485,1.806l-0.073,0.057l-0.083-0.016c-3.893-0.749-9.071-0.526-11.814-0.328
		c-4.216,0.302-7.416,0.869-8.285,1.249c-0.932,0.406-1.218,1.728-1.52,3.128c-0.297,1.353-0.599,2.764-1.546,3.508
		c-1.665,1.317-3.346,5.563-3.195,10.836c0.078,2.592,1.129,5.772,2.743,8.301c1.889,2.961,4.34,4.757,6.911,5.069
		c4.658,0.552,10.195-0.411,12.34-2.165c0.536-0.432,0.833-0.9,0.869-1.374c0.062-0.718,0.406-1.338,1.02-1.853
		c1.53-1.28,4.294-1.494,5.069-1.416c1.135,0.109,11.044,2.139,11.465,2.227l0.021,0.005c2.092,0.692,6.958,1.041,9.67,1.192
		c0.458,0.021,0.833,0.047,1.155,0.052c0.343-0.016,0.755-0.036,1.15-0.052c2.711-0.151,7.578-0.505,9.67-1.192l0.021-0.005
		c0.422-0.088,10.331-2.118,11.465-2.227C106.659,188.456,106.768,188.445,106.898,188.445z"/>
	<path fill="#22225B" d="M123.162,195.815c-4.007,0-8.077-0.942-9.873-2.404c-0.619-0.505-0.963-1.056-1.01-1.645
		c-0.052-0.604-0.349-1.14-0.88-1.582c-1.358-1.14-3.945-1.41-4.788-1.332c-1.098,0.099-11.023,2.139-11.408,2.217
		c-2.144,0.697-7.036,1.056-9.763,1.207c-0.406,0.021-0.822,0.047-1.166,0.062h-0.016c-0.323-0.016-0.708-0.031-1.166-0.062
		c-2.722-0.151-7.614-0.51-9.758-1.207c-0.39-0.078-10.32-2.118-11.418-2.217c-0.843-0.078-3.43,0.193-4.788,1.332
		c-0.531,0.442-0.833,0.978-0.88,1.582c-0.047,0.588-0.39,1.14-1.01,1.645c-2.212,1.801-7.885,2.805-12.636,2.248
		c-2.685-0.323-5.241-2.186-7.192-5.246c-1.645-2.581-2.717-5.839-2.8-8.499c-0.141-4.746,1.296-9.534,3.336-11.153
		c0.833-0.661,1.129-1.993,1.405-3.284c0.328-1.499,0.63-2.909,1.749-3.398c1.083-0.474,4.616-1.01,8.421-1.28
		c2.738-0.198,7.895-0.416,11.824,0.317c0.453-0.317,2.888-1.931,6.656-1.837c0.468,0.016,0.989,0.026,1.546,0.031
		c5.865,0.12,10.757,0.302,11.294,1.348c0.427,0.833-0.442,1.421-0.963,1.769c-0.088,0.057-0.182,0.125-0.26,0.182l-0.036,0.375
		c-2.503-0.047-4.934-0.104-7.229-0.182c-0.38-0.016-0.807-0.078-1.223-0.156c-0.479,0.64-1.452,2.337-1.665,5.766
		c-0.031,0.541-0.047,1.124-0.042,1.733c0.078,5.605,3.045,5.605,5.912,5.6h21.119c2.878,0.005,5.845,0.005,5.912-5.6
		c0.005-0.614-0.01-1.197-0.036-1.749c-0.213-3.289-1.135-4.996-1.593-5.642c-0.198,0.026-0.375,0.042-0.536,0.047
		c-2.222,0.073-4.59,0.135-7.239,0.182l-1.707,0.031l1.66-0.416h0.005c-0.068-0.052-0.161-0.114-0.245-0.172
		c-0.52-0.349-1.39-0.947-0.963-1.769c0.536-1.046,5.428-1.223,11.288-1.348c0.552-0.005,1.072-0.021,1.546-0.031
		c3.773-0.094,6.214,1.509,6.656,1.837c3.929-0.734,9.087-0.515,11.83-0.317c3.794,0.271,7.338,0.812,8.415,1.28
		c1.119,0.489,1.421,1.905,1.749,3.398c0.281,1.291,0.567,2.623,1.4,3.284c2.04,1.608,3.477,6.407,3.336,11.153l-0.193-0.01
		l0.193,0.01c-0.078,2.659-1.15,5.912-2.805,8.499c-1.946,3.065-4.502,4.923-7.187,5.246
		C125.025,195.768,124.094,195.815,123.162,195.815z M106.898,188.445c1.046,0,3.383,0.297,4.746,1.431
		c0.614,0.515,0.952,1.135,1.015,1.853c0.042,0.474,0.333,0.942,0.869,1.374c2.144,1.754,7.682,2.717,12.34,2.165
		c2.571-0.302,5.027-2.108,6.911-5.069c1.619-2.529,2.665-5.709,2.743-8.301c0.156-5.282-1.53-9.519-3.19-10.836
		c-0.942-0.744-1.244-2.144-1.54-3.508c-0.302-1.4-0.588-2.711-1.52-3.128c-0.869-0.38-4.08-0.947-8.296-1.249
		c-2.743-0.198-7.911-0.422-11.809,0.328l-0.088,0.016l-0.068-0.057c-0.026-0.016-2.524-1.905-6.485-1.806
		c-0.468,0.016-0.989,0.026-1.546,0.031c-2.129,0.047-4.783,0.104-6.958,0.265c-3.222,0.25-3.893,0.645-4.002,0.864
		c-0.245,0.484,0.234,0.864,0.843,1.275c0.271,0.187,0.463,0.317,0.505,0.484c2.467-0.047,4.689-0.104,6.792-0.172
		c0.182-0.01,0.38-0.026,0.609-0.057l0.115-0.016l0.068,0.094c0.442,0.598,1.499,2.373,1.733,5.938
		c0.042,0.557,0.047,1.155,0.042,1.78c-0.031,2.659-0.723,4.372-2.108,5.236c-1.213,0.755-2.727,0.755-4.195,0.744H73.304
		c-1.468,0-2.993,0.01-4.195-0.744c-1.384-0.864-2.071-2.576-2.103-5.236c-0.01-0.614,0.005-1.207,0.036-1.764
		c0.239-3.721,1.358-5.485,1.827-6.079l0.068-0.088l0.12,0.021c0.432,0.078,0.89,0.156,1.28,0.172
		c2.16,0.068,4.439,0.125,6.787,0.172c0.036-0.167,0.234-0.297,0.505-0.484c0.604-0.411,1.088-0.791,0.838-1.275
		c-0.109-0.219-0.775-0.614-3.997-0.864c-2.175-0.172-4.835-0.224-6.958-0.265c-0.552-0.005-1.083-0.021-1.546-0.031
		c-3.955-0.099-6.464,1.79-6.485,1.806l-0.073,0.057l-0.083-0.016c-3.893-0.749-9.071-0.526-11.814-0.328
		c-4.216,0.302-7.416,0.869-8.285,1.249c-0.932,0.406-1.218,1.728-1.52,3.128c-0.297,1.353-0.599,2.764-1.546,3.508
		c-1.665,1.317-3.346,5.563-3.195,10.836c0.078,2.592,1.129,5.772,2.743,8.301c1.889,2.961,4.34,4.757,6.911,5.069
		c4.658,0.552,10.195-0.411,12.34-2.165c0.536-0.432,0.833-0.9,0.869-1.374c0.062-0.718,0.406-1.338,1.02-1.853
		c1.53-1.28,4.294-1.494,5.069-1.416c1.135,0.109,11.044,2.139,11.465,2.227l0.021,0.005c2.092,0.692,6.958,1.041,9.67,1.192
		c0.458,0.021,0.833,0.047,1.155,0.052c0.343-0.016,0.755-0.036,1.15-0.052c2.711-0.151,7.578-0.505,9.67-1.192l0.021-0.005
		c0.422-0.088,10.331-2.118,11.465-2.227C106.659,188.456,106.768,188.445,106.898,188.445z"/>
	<path fill="#22225B" d="M85.618,165.057h-0.193c-0.271,0-0.572,0-0.911,0h-0.13c-0.479,0-0.916,0-1.291,0h-0.193v-0.489l0.203,0.01
		c0,0,0.442,0.016,1.119,0.031h0.078c0.333,0.005,0.713,0.016,1.124,0.021c0.317,0.01,0.651,0.016,1.025,0.026v0.385l-0.833,0.01
		V165.057z"/>
	<path fill="#22225B" fill-opacity="0.298" d="M56.661,179.999H43.743c-0.619,0-1.124-0.505-1.124-1.124v2.332
		c0,0.625,0.505,1.129,1.124,1.129h12.917c0.619,0,1.124-0.505,1.124-1.129v-2.332C57.795,179.494,57.29,179.999,56.661,179.999z"/>
	<path fill="#22225B" d="M56.661,183.215H43.743c-1.098,0-1.998-0.906-1.998-2.009v-3.055c0-2.779,2.248-5.033,5.022-5.033h6.865
		c2.774,0,5.022,2.253,5.022,5.033v3.055C58.664,182.309,57.764,183.215,56.661,183.215z M46.772,174.867
		c-1.806,0-3.274,1.468-3.274,3.284v3.055c0,0.141,0.114,0.255,0.255,0.255h12.912c0.141,0,0.26-0.115,0.26-0.255v-3.055
		c0-1.816-1.468-3.284-3.279-3.284H46.772z"/>
	<path fill="#22225B" d="M86.669,165.447c-0.286,0-0.708,0-1.249,0c-0.323,0-0.583-0.265-0.583-0.583
		c0-0.317,0.26-0.583,0.583-0.583c1.051,0.01,1.66,0,1.665,0c0.323,0,0.583,0.255,0.583,0.583c0,0.317-0.255,0.583-0.583,0.583
		C87.096,165.447,86.945,165.447,86.669,165.447z"/>
	<path fill="#22225B" d="M84.384,165.447c-0.396,0-0.833,0-1.296-0.005c-0.317-0.01-0.583-0.276-0.578-0.593
		c0.01-0.317,0.265-0.572,0.593-0.572c0.458,0.005,0.89,0.005,1.28,0.005c0.317,0,0.583,0.265,0.583,0.583
		C84.967,165.182,84.702,165.447,84.384,165.447z"/>
	<path fill="#22225B" d="M82.001,165.432C82.001,165.432,81.99,165.432,82.001,165.432c-1.369-0.016-2.826-0.031-4.434-0.062
		c-0.317-0.005-0.572-0.271-0.572-0.588c0.005-0.323,0.26-0.578,0.578-0.578h0.01c1.608,0.031,3.065,0.047,4.419,0.062
		c0.317,0,0.583,0.265,0.572,0.593C82.584,165.177,82.318,165.432,82.001,165.432z"/>
	<path fill="#22225B" d="M69.042,165.02c-0.042,0-0.073,0-0.109-0.01c-0.213-0.036-0.427-0.073-0.661-0.12
		c-1.421-0.281-3.362-0.656-6.058-0.656h-1.01c-0.317,0-0.583-0.265-0.583-0.583c0-0.317,0.265-0.583,0.583-0.583h1.01
		c2.805,0,4.809,0.39,6.276,0.677c0.229,0.047,0.448,0.083,0.651,0.125c0.317,0.062,0.526,0.364,0.463,0.677
		C69.562,164.828,69.318,165.02,69.042,165.02z"/>
	<path fill="#22225B" d="M44.972,196.871c-0.708,0-1.577-0.062-2.529-0.26c-2.227-0.448-5.361-1.754-7.598-5.381
		c-4.049-6.573-4.268-12.777-0.666-19.522c0.297-0.552,0.666-1.098,1.025-1.619c0.317-0.463,0.651-0.947,0.786-1.249
		c0.552-1.254,0.583-1.567,0.651-2.311c0.026-0.255,0.057-0.546,0.104-0.916v-0.016c0.031-0.219,0.182-0.801,0.869-1.41
		c0.479-0.427,1.218-0.39,1.645,0.094c0.427,0.484,0.39,1.223-0.094,1.65c-0.068,0.062-0.109,0.109-0.13,0.141
		c-0.031,0.265-0.057,0.489-0.078,0.692c-0.094,0.942-0.172,1.499-0.848,3.024c-0.224,0.5-0.599,1.051-0.999,1.634
		c-0.328,0.474-0.661,0.958-0.895,1.39c-3.216,6.021-3.029,11.325,0.599,17.2c1.431,2.311,3.44,3.763,5.995,4.299
		c1.957,0.422,3.518,0.125,3.534,0.12c0.63-0.125,1.244,0.276,1.374,0.916c0.125,0.63-0.286,1.249-0.916,1.374
		C46.767,196.731,46.059,196.871,44.972,196.871z"/>
	<path fill="#22225B" d="M76.51,165.541c-0.359,0-0.677-0.239-0.755-0.604c-0.094-0.422,0.167-0.833,0.583-0.937
		c1.114-0.255,1.624-0.505,1.848-0.651c-0.505-0.328-2.066-0.864-5.079-1.129c-0.427-0.036-0.744-0.411-0.703-0.838
		c0.036-0.432,0.411-0.749,0.838-0.708c1.785,0.151,3.315,0.416,4.424,0.775c0.546,0.172,2.207,0.692,2.207,1.905
		c0,1.285-1.816,1.853-3.185,2.17C76.625,165.541,76.562,165.541,76.51,165.541z"/>
	<path fill="#22225B" d="M60.397,163.766c-0.182,0-0.349-0.062-0.5-0.177c-0.323-0.271-0.37-0.76-0.099-1.098
		c0.994-1.197,4.439-1.655,6.396-1.816c0.427-0.042,0.801,0.276,0.843,0.708c0.036,0.427-0.281,0.801-0.708,0.838
		c-3.378,0.286-5.048,0.916-5.345,1.27C60.84,163.673,60.621,163.766,60.397,163.766z"/>
	<path fill="#22225B" d="M54.251,174.904c-0.177,0-0.349-0.052-0.505-0.161c-0.396-0.281-0.489-0.822-0.208-1.223
		c0.994-1.4,4.096-3.778,13.698-3.997c0.484-0.016,0.885,0.375,0.895,0.859c0.005,0.479-0.375,0.885-0.854,0.895
		c-9.43,0.213-11.804,2.55-12.308,3.263C54.797,174.784,54.527,174.904,54.251,174.904z"/>
	<path fill="#22225B" d="M51.404,168.356c-3.529,0-6.844-0.265-9.342-0.739c-1.244-0.234-2.233-0.52-2.93-0.833
		c-0.343-0.156-1.364-0.614-1.364-1.499c0-0.89,1.03-1.348,1.364-1.504c0.697-0.317,1.686-0.599,2.93-0.833
		c2.498-0.474,5.813-0.739,9.342-0.739c3.523,0,6.839,0.265,9.342,0.739c1.244,0.234,2.227,0.515,2.925,0.833
		c0.343,0.156,1.369,0.614,1.369,1.504c0,0.885-1.03,1.343-1.369,1.499c-0.697,0.323-1.681,0.599-2.925,0.833
		C58.243,168.101,54.922,168.356,51.404,168.356z M38.94,165.286c0.13,0.208,0.978,0.77,3.659,1.244
		c2.389,0.427,5.511,0.661,8.795,0.661c3.284,0,6.407-0.234,8.801-0.661c2.685-0.474,3.534-1.036,3.659-1.244
		c-0.135-0.213-0.978-0.77-3.659-1.244c-2.394-0.432-5.517-0.661-8.801-0.661c-3.284,0-6.407,0.229-8.795,0.661
		C39.918,164.516,39.07,165.073,38.94,165.286z"/>
	<path fill="#22225B" d="M51.404,161.627c1.155,0.047,2.311,0.125,3.461,0.234c1.161,0.109,2.306,0.25,3.456,0.427
		c1.15,0.187,2.295,0.406,3.435,0.723c0.567,0.167,1.14,0.343,1.707,0.598c0.286,0.135,0.578,0.276,0.864,0.494
		c0.146,0.109,0.291,0.229,0.432,0.411c0.073,0.094,0.141,0.193,0.198,0.328c0.052,0.13,0.083,0.286,0.083,0.442
		c0,0.328-0.265,0.583-0.583,0.583c-0.328,0-0.583-0.265-0.583-0.583c-0.005,0.016,0,0.031-0.005,0.031c0,0-0.016-0.016-0.031-0.031
		c-0.042-0.042-0.12-0.104-0.203-0.151c-0.177-0.109-0.411-0.208-0.651-0.291c-0.489-0.172-1.02-0.297-1.556-0.401
		c-1.077-0.198-2.191-0.323-3.3-0.401c-1.109-0.078-2.238-0.125-3.357-0.135c-1.114-0.005-2.243,0.016-3.362,0.062
		c-0.645,0.031-1.187-0.474-1.218-1.119c-0.031-0.645,0.474-1.192,1.119-1.223C51.331,161.627,51.363,161.627,51.404,161.627z"/>
	<path fill="#22225B" d="M38.346,166.452c-0.64,0-1.161-0.52-1.161-1.166c0-1.384,1.473-2.28,4.767-2.909
		c2.529-0.484,5.891-0.749,9.451-0.749c0.645,0,1.166,0.526,1.166,1.171c0,0.645-0.52,1.166-1.166,1.166
		c-3.024,0-5.949,0.203-8.233,0.572c-2.592,0.422-3.461,0.89-3.69,1.051C39.34,166.087,38.882,166.452,38.346,166.452z"/>
	<path fill="#22225B" fill-opacity="0.298" d="M124.776,179.614h-12.917c-0.619,0-1.124-0.51-1.124-1.129v2.722
		c0,0.625,0.505,1.129,1.124,1.129h12.917c0.619,0,1.124-0.505,1.124-1.129v-2.722C125.91,179.104,125.405,179.614,124.776,179.614z
		"/>
	<path fill="#22225B" d="M124.776,183.215h-12.917c-1.098,0-2.004-0.906-2.004-2.009v-3.055c0-2.779,2.253-5.033,5.027-5.033h6.865
		c2.774,0,5.022,2.253,5.022,5.033v3.055C126.779,182.309,125.884,183.215,124.776,183.215z M114.887,174.867
		c-1.806,0-3.274,1.468-3.274,3.284v3.055c0,0.141,0.114,0.255,0.255,0.255h12.912c0.141,0,0.26-0.115,0.26-0.255v-3.055
		c0-1.816-1.468-3.284-3.279-3.284H114.887z"/>
	<path fill="#22225B" d="M124.776,183.215h-12.917c-1.098,0-2.004-0.906-2.004-2.009v-3.055c0-2.779,2.253-5.033,5.027-5.033h6.865
		c2.774,0,5.022,2.253,5.022,5.033v3.055C126.779,182.309,125.884,183.215,124.776,183.215z M114.887,174.867
		c-1.806,0-3.274,1.468-3.274,3.284v3.055c0,0.141,0.114,0.255,0.255,0.255h12.912c0.141,0,0.26-0.115,0.26-0.255v-3.055
		c0-1.816-1.468-3.284-3.279-3.284H114.887z"/>
	<path fill="#22225B" d="M98.806,165.135c-0.286,0-0.536-0.208-0.572-0.505c-0.047-0.317,0.177-0.614,0.494-0.661
		c0.375-0.052,0.801-0.13,1.296-0.234c1.468-0.286,3.482-0.682,6.282-0.682h1.01c0.323,0,0.583,0.265,0.583,0.583
		c0,0.317-0.26,0.583-0.583,0.583h-1.01c-2.691,0-4.642,0.38-6.063,0.661c-0.51,0.104-0.952,0.187-1.369,0.239
		C98.858,165.135,98.832,165.135,98.806,165.135z"/>
	<path fill="#22225B" d="M86.513,165.432c-0.317,0-0.583-0.255-0.583-0.572c0-0.323,0.255-0.583,0.572-0.593
		c1.275-0.016,2.774-0.031,4.419-0.062c0.323-0.005,0.593,0.25,0.593,0.578c0.005,0.317-0.25,0.588-0.578,0.588
		C89.292,165.4,87.793,165.416,86.513,165.432C86.518,165.432,86.518,165.432,86.513,165.432z"/>
	<path fill="#22225B" d="M84.514,165.447c-0.317,0-0.578-0.255-0.578-0.572c0-0.323,0.255-0.583,0.572-0.593
		c0.286,0,0.588-0.005,0.911-0.005c0.317,0,0.578,0.26,0.578,0.583c0,0.317-0.26,0.583-0.578,0.583
		C85.108,165.442,84.811,165.442,84.514,165.447C84.525,165.447,84.525,165.447,84.514,165.447z"/>
	<path fill="#22225B" d="M81.86,165.447c-0.281,0-0.427,0-0.427,0c-0.317,0-0.583-0.265-0.583-0.583
		c0-0.317,0.265-0.583,0.583-0.583c0.01,0,0.614,0,1.655,0c0.317,0,0.583,0.255,0.583,0.583c0,0.317-0.255,0.583-0.583,0.583
		C82.558,165.447,82.141,165.447,81.86,165.447z"/>
	<path fill="#22225B" d="M107.976,163.62c-0.177,0-0.349-0.062-0.494-0.177c-0.515-0.432-2.347-0.973-5.288-1.223
		c-0.427-0.036-0.749-0.411-0.708-0.838c0.036-0.432,0.411-0.749,0.838-0.708c1.78,0.146,4.939,0.552,6.152,1.577
		c0.323,0.271,0.37,0.77,0.094,1.098C108.418,163.527,108.205,163.62,107.976,163.62z"/>
	<path fill="#22225B" d="M92.019,165.541c-0.057,0-0.114-0.005-0.172-0.021c-1.369-0.312-3.185-0.88-3.185-2.17
		c0-1.207,1.665-1.738,2.207-1.905c1.109-0.354,2.649-0.625,4.429-0.781c0.427-0.036,0.807,0.281,0.838,0.708
		c0.036,0.427-0.281,0.812-0.708,0.838c-3.024,0.265-4.58,0.801-5.079,1.129c0.224,0.151,0.739,0.396,1.848,0.656
		c0.422,0.094,0.677,0.51,0.583,0.932C92.696,165.302,92.378,165.541,92.019,165.541z"/>
	<path fill="#22225B" d="M114.273,174.904c-0.271,0-0.541-0.13-0.713-0.364c-0.526-0.739-3.019-3.175-13.068-3.279
		c-0.484-0.01-0.869-0.406-0.864-0.89c0.01-0.479,0.396-0.864,0.88-0.864h0.005c10.201,0.109,13.443,2.561,14.479,4.013
		c0.276,0.401,0.187,0.942-0.213,1.223C114.627,174.857,114.445,174.904,114.273,174.904z"/>
	<path fill="#22225B" d="M117.125,168.356c-3.523,0-6.844-0.265-9.342-0.739c-1.244-0.234-2.227-0.52-2.93-0.833
		c-0.338-0.156-1.364-0.614-1.364-1.499c0-0.89,1.03-1.348,1.364-1.504c0.703-0.317,1.686-0.599,2.93-0.833
		c2.498-0.474,5.818-0.739,9.342-0.739c3.529,0,6.844,0.265,9.342,0.739c1.244,0.234,2.227,0.515,2.93,0.833
		c0.338,0.156,1.364,0.614,1.364,1.504c0,0.885-1.03,1.343-1.364,1.499c-0.703,0.323-1.686,0.599-2.93,0.833
		C123.969,168.101,120.654,168.356,117.125,168.356z M104.661,165.286c0.135,0.208,0.978,0.77,3.659,1.244
		c2.394,0.427,5.511,0.661,8.801,0.661c3.284,0,6.407-0.234,8.795-0.661c2.691-0.474,3.534-1.036,3.659-1.244
		c-0.13-0.213-0.978-0.77-3.659-1.244c-2.389-0.432-5.511-0.661-8.795-0.661c-3.289,0-6.407,0.229-8.801,0.661
		C105.639,164.516,104.796,165.073,104.661,165.286z"/>
	<path fill="#22225B" d="M117.125,163.964c-1.119-0.047-2.243-0.073-3.362-0.062c-1.119,0.005-2.243,0.047-3.357,0.13
		c-1.109,0.088-2.217,0.203-3.3,0.406c-0.536,0.099-1.062,0.224-1.551,0.396c-0.239,0.088-0.474,0.187-0.656,0.297
		c-0.083,0.052-0.161,0.109-0.198,0.146c-0.016,0.016-0.031,0.031-0.031,0.031s0-0.016-0.01-0.031c0,0.328-0.265,0.593-0.588,0.593
		c-0.328,0-0.593-0.265-0.593-0.593c0-0.161,0.031-0.307,0.088-0.442c0.052-0.13,0.125-0.234,0.193-0.328
		c0.141-0.177,0.297-0.302,0.437-0.411c0.291-0.208,0.572-0.359,0.859-0.489c0.578-0.255,1.145-0.437,1.712-0.598
		c1.14-0.317,2.28-0.536,3.43-0.723c1.15-0.177,2.3-0.317,3.456-0.427c1.155-0.109,2.306-0.187,3.466-0.234
		c0.64-0.026,1.187,0.474,1.207,1.119c0.026,0.645-0.474,1.192-1.114,1.213C117.188,163.969,117.156,163.964,117.125,163.964z"/>
	<path fill="#22225B" d="M130.178,166.452c-0.541,0-0.994-0.364-1.124-0.864c-0.234-0.161-1.093-0.63-3.69-1.051
		c-2.29-0.364-5.215-0.572-8.228-0.572c-0.645,0-1.166-0.52-1.166-1.166c0-0.645,0.52-1.171,1.166-1.171
		c3.555,0,6.911,0.265,9.451,0.749c3.3,0.63,4.767,1.525,4.767,2.909C131.343,165.931,130.823,166.452,130.178,166.452z"/>
	<path fill="#22225B" d="M94.653,178.718c-0.073,0-0.151,0-0.219,0H73.309c-1.473,0-3.154,0.005-4.502-0.843
		c-1.561-0.968-2.347-2.847-2.378-5.725c-0.005-0.63,0.01-1.233,0.042-1.801c0.245-3.893,1.452-5.772,1.957-6.401
		c0.177-0.229,0.463-0.338,0.744-0.281c0.411,0.078,0.848,0.146,1.197,0.161c2.29,0.073,4.72,0.135,7.213,0.182
		c0.036,0,0.078,0.005,0.114,0.005c0.198,0.031,1.004,0.104,4.288,0.057c0.005,0,0.005,0,0.016,0H82.1
		c0.343,0,0.677,0.005,0.994,0.005c0.047,0,0.094,0.01,0.135,0.016c0.338,0,0.723,0,1.15,0h0.135c0.291,0,0.552,0,0.786,0
		c0.042-0.005,0.073-0.005,0.109-0.005l1.103-0.01c0.005,0,0.005,0,0.016,0c3.279,0.057,4.091-0.016,4.288-0.047
		c0.036-0.005,0.068-0.005,0.104-0.005c2.644-0.047,5.001-0.109,7.234-0.182c0.156-0.005,0.333-0.021,0.541-0.052
		c0.281-0.042,0.562,0.078,0.729,0.302c0.593,0.796,1.619,2.659,1.853,6.245c0.036,0.578,0.052,1.192,0.036,1.827
		c-0.036,2.878-0.817,4.746-2.378,5.725C97.655,178.687,96.079,178.718,94.653,178.718z M73.533,177.162h20.906
		c1.332,0,2.711,0,3.685-0.599c1.077-0.671,1.613-2.118,1.645-4.419c0.01-0.599-0.005-1.166-0.036-1.702
		c-0.182-2.748-0.859-4.309-1.306-5.064c-0.078,0.005-0.146,0.005-0.224,0.005c-2.217,0.073-4.569,0.135-7.192,0.182
		c-0.255,0.036-1.041,0.115-4.497,0.062H86.45l-0.9,0.005c-0.042,0.01-0.078,0.01-0.125,0.01c-0.271,0-0.583,0-0.911,0h-0.13
		c-0.479,0-0.916,0-1.291,0c-0.047,0-0.094-0.01-0.13-0.016c-0.281,0-0.567,0-0.869-0.01h-0.088
		c-3.456,0.057-4.236-0.021-4.502-0.062c-2.482-0.047-4.903-0.099-7.182-0.172c-0.297-0.005-0.614-0.047-0.932-0.099
		c-0.442,0.713-1.181,2.295-1.358,5.163c-0.031,0.531-0.047,1.103-0.042,1.697c0.031,2.3,0.567,3.747,1.645,4.419
		c0.973,0.604,2.347,0.604,3.685,0.599H73.533z"/>
	<path fill="#22225B" d="M69.666,154.872c-1.91,0-3.711-0.141-5.069-0.396c-1.749-0.338-2.529-0.801-2.529-1.52
		c0-0.713,0.775-1.181,2.529-1.514c1.358-0.26,3.159-0.401,5.069-0.401c1.91,0,3.716,0.141,5.074,0.401
		c1.749,0.333,2.529,0.801,2.529,1.514c0,0.718-0.781,1.181-2.529,1.52C73.382,154.721,71.576,154.872,69.666,154.872z
		 M63.463,152.952c0.755,0.317,2.873,0.744,6.204,0.744c3.326,0,5.454-0.427,6.209-0.744c-0.755-0.323-2.883-0.749-6.209-0.749
		C66.346,152.213,64.223,152.639,63.463,152.952z"/>
	<path fill="#22225B" d="M69.666,158.551c-2.103,0-4.184-0.25-5.86-0.692c-0.76-0.203-1.405-0.448-1.863-0.692
		c-0.234-0.125-0.942-0.526-0.942-1.187c0-2.446,1.233-3.445,1.291-3.492l0.937-0.739v1.077c0.437,0.317,2.659,0.869,6.433,0.869
		s6.001-0.552,6.438-0.869v-1.083l0.937,0.739c0.057,0.036,1.285,1.036,1.285,3.482c0,0.661-0.708,1.051-0.942,1.187
		c-0.458,0.245-1.093,0.489-1.863,0.692C73.856,158.302,71.774,158.551,69.666,158.551z M62.172,155.902
		c0.141,0.151,0.749,0.541,2.28,0.911c1.52,0.37,3.378,0.567,5.215,0.567c1.853,0,3.7-0.198,5.22-0.567
		c1.53-0.364,2.134-0.76,2.274-0.911c-0.016-1.01-0.271-1.671-0.494-2.051c-0.411,0.25-1.051,0.453-1.926,0.614
		c-1.358,0.255-3.164,0.396-5.074,0.396c-1.91,0-3.711-0.141-5.069-0.396c-0.88-0.161-1.514-0.364-1.926-0.614
		C62.448,154.232,62.182,154.893,62.172,155.902z"/>
	<path fill="#22225B" d="M69.713,163.209c-0.947,0-1.832-0.047-2.509-0.135c-0.604-0.078-1.514-0.193-1.514-0.89v-5.079l0.64,0.052
		c0.021,0,2.509,0.219,3.393,0.219c0.458,0,2.654-0.172,3.461-0.239l0.645-0.057l-0.005,0.645c-0.016,1.192-0.073,4.32-0.073,4.45
		c0,0.703-0.916,0.817-1.514,0.895C71.545,163.163,70.655,163.209,69.713,163.209z M66.851,161.83
		c0.411,0.094,1.358,0.213,2.862,0.213c1.509,0,2.456-0.12,2.868-0.213c0.005-0.755,0.036-2.519,0.052-3.477
		c-0.9,0.073-2.482,0.198-2.92,0.198c-0.651,0-2.04-0.104-2.862-0.172V161.83z"/>
	<path fill="#22225B" d="M98.858,154.872c-1.91,0-3.711-0.141-5.069-0.396c-1.749-0.338-2.529-0.801-2.529-1.52
		c0-0.713,0.775-1.181,2.529-1.514c1.358-0.26,3.159-0.401,5.069-0.401c1.915,0,3.716,0.141,5.074,0.401
		c1.749,0.333,2.529,0.801,2.529,1.514c0,0.718-0.775,1.181-2.529,1.52C102.574,154.721,100.773,154.872,98.858,154.872z
		 M92.654,152.952c0.755,0.317,2.873,0.744,6.204,0.744c3.326,0,5.449-0.427,6.209-0.744c-0.755-0.323-2.873-0.749-6.209-0.749
		C95.537,152.213,93.409,152.639,92.654,152.952z"/>
	<path fill="#22225B" d="M98.858,158.551c-2.103,0-4.184-0.25-5.86-0.692c-0.76-0.203-1.405-0.448-1.863-0.692
		c-0.234-0.125-0.942-0.526-0.942-1.187c0-2.446,1.233-3.445,1.291-3.492l0.937-0.739v1.077c0.437,0.317,2.659,0.869,6.438,0.869
		s6.006-0.552,6.433-0.869v-1.077l0.942,0.739c0.052,0.042,1.285,1.036,1.285,3.492c0,0.661-0.708,1.051-0.937,1.187
		c-0.458,0.245-1.098,0.489-1.863,0.692C103.047,158.302,100.965,158.551,98.858,158.551z M91.358,155.902
		c0.141,0.151,0.744,0.541,2.274,0.911c1.525,0.37,3.378,0.567,5.23,0.567c1.837,0,3.695-0.198,5.215-0.567
		c1.53-0.364,2.139-0.76,2.274-0.911c-0.016-1.01-0.271-1.671-0.494-2.051c-0.411,0.25-1.046,0.453-1.926,0.614
		c-1.358,0.255-3.159,0.396-5.074,0.396c-1.91,0-3.711-0.141-5.069-0.396c-0.88-0.161-1.514-0.364-1.926-0.614
		C91.629,154.232,91.374,154.893,91.358,155.902z"/>
	<path fill="#22225B" d="M98.816,163.209c-0.947,0-1.837-0.047-2.509-0.135c-0.609-0.078-1.514-0.193-1.514-0.89
		c0-0.135-0.047-3.263-0.073-4.45l-0.005-0.645l0.645,0.052c0.807,0.073,3.003,0.239,3.461,0.239c0.895,0,3.372-0.208,3.393-0.213
		l0.635-0.057v5.079c0,0.703-0.916,0.817-1.509,0.895C100.648,163.163,99.763,163.209,98.816,163.209z M95.948,161.83
		c0.411,0.094,1.358,0.213,2.868,0.213c1.499,0,2.446-0.12,2.862-0.213v-3.451c-0.817,0.062-2.207,0.172-2.862,0.172
		c-0.437,0-2.019-0.12-2.925-0.198C95.907,159.311,95.933,161.076,95.948,161.83z"/>
	<path fill="#22225B" fill-opacity="0.298" d="M54.043,165.348c0,0.193,0.916,0.354,2.051,0.354c1.135,0,2.051-0.161,2.051-0.354
		c0-0.078,0-0.755,0-0.755s-1.343,0.286-2.051,0.286c-0.479,0-2.051-0.286-2.051-0.286S54.043,165.229,54.043,165.348z"/>
	<path fill="#22225B" d="M56.093,165.9c-0.557,0-1.088-0.042-1.483-0.109c-0.375-0.062-0.76-0.172-0.76-0.442v-0.755
		c0-0.057,0.021-0.109,0.068-0.151c0.047-0.036,0.104-0.052,0.156-0.036c0.016,0,1.561,0.281,2.014,0.281
		c0.671,0,1.993-0.281,2.009-0.281c0.052-0.016,0.114,0,0.161,0.036c0.047,0.042,0.073,0.094,0.073,0.151v0.755
		c0,0.271-0.39,0.38-0.76,0.442C57.171,165.858,56.645,165.9,56.093,165.9z M54.235,165.286c0.156,0.083,0.796,0.224,1.858,0.224
		c1.062,0,1.702-0.13,1.858-0.224v-0.458c-0.422,0.083-1.312,0.239-1.858,0.239c-0.38,0-1.4-0.172-1.858-0.25V165.286z"/>
	<path fill="#22225B" d="M56.093,165.145c-0.557,0-1.088-0.042-1.483-0.109c-0.375-0.062-0.76-0.172-0.76-0.442
		c0-0.276,0.385-0.38,0.76-0.442c0.396-0.073,0.926-0.109,1.483-0.109c0.557,0,1.088,0.036,1.483,0.109
		c0.375,0.062,0.76,0.167,0.76,0.442c0,0.271-0.385,0.38-0.76,0.442C57.171,165.104,56.645,165.145,56.093,165.145z M54.391,164.594
		c0.281,0.078,0.854,0.161,1.702,0.161c0.848,0,1.421-0.083,1.702-0.161c-0.281-0.078-0.854-0.167-1.702-0.167
		C55.245,164.427,54.673,164.516,54.391,164.594z"/>
	<path fill="#22225B" fill-opacity="0.298" d="M49.26,164.469c0,0.193,0.916,0.359,2.051,0.359c1.135,0,2.051-0.167,2.051-0.359
		c0-0.078,0-0.755,0-0.755S52.018,164,51.31,164c-0.484,0-2.051-0.286-2.051-0.286S49.26,164.36,49.26,164.469z"/>
	<path fill="#22225B" d="M51.31,165.026c-0.562,0-1.088-0.036-1.483-0.104c-0.375-0.062-0.76-0.172-0.76-0.448v-0.755
		c0-0.052,0.021-0.109,0.068-0.146c0.047-0.036,0.099-0.052,0.156-0.036c0.016,0,1.561,0.276,2.009,0.276
		c0.677,0,1.998-0.276,2.014-0.276c0.052-0.016,0.114,0,0.161,0.036c0.047,0.036,0.073,0.094,0.073,0.146v0.755
		c0,0.276-0.39,0.385-0.765,0.448C52.388,164.989,51.862,165.026,51.31,165.026z M49.453,164.412
		c0.156,0.088,0.791,0.229,1.858,0.229c1.062,0,1.702-0.135,1.858-0.229v-0.458c-0.422,0.088-1.317,0.245-1.858,0.245
		c-0.38,0-1.4-0.172-1.858-0.25V164.412z"/>
	<path fill="#22225B" d="M51.31,164.276c-0.562,0-1.088-0.042-1.483-0.109c-0.375-0.062-0.76-0.172-0.76-0.448
		c0-0.271,0.385-0.38,0.76-0.442c0.396-0.068,0.921-0.109,1.483-0.109c0.557,0,1.088,0.042,1.483,0.109
		c0.375,0.062,0.76,0.172,0.76,0.442c0,0.276-0.385,0.385-0.76,0.448C52.388,164.235,51.862,164.276,51.31,164.276z M49.609,163.719
		c0.281,0.078,0.854,0.167,1.702,0.167c0.848,0,1.421-0.088,1.702-0.167c-0.281-0.078-0.854-0.161-1.702-0.161
		C50.457,163.558,49.879,163.641,49.609,163.719z"/>
	<path fill="#22225B" fill-opacity="0.298" d="M49.593,166.077c0,0.198,0.916,0.359,2.051,0.359c1.135,0,2.051-0.161,2.051-0.359
		c0-0.078,0-0.755,0-0.755s-1.343,0.291-2.051,0.291c-0.479,0-2.051-0.291-2.051-0.291S49.593,165.968,49.593,166.077z"/>
	<path fill="#22225B" d="M51.644,166.629c-0.557,0-1.088-0.036-1.483-0.109c-0.375-0.062-0.76-0.167-0.76-0.442v-0.755
		c0-0.052,0.021-0.109,0.068-0.146c0.047-0.042,0.104-0.057,0.156-0.042c0.016,0,1.561,0.281,2.014,0.281
		c0.671,0,1.993-0.281,2.009-0.281c0.052-0.016,0.114,0,0.161,0.042c0.047,0.036,0.073,0.094,0.073,0.146v0.755
		c0,0.276-0.39,0.38-0.76,0.442C52.721,166.592,52.2,166.629,51.644,166.629z M49.786,166.025c0.156,0.083,0.796,0.224,1.858,0.224
		c1.062,0,1.702-0.13,1.858-0.224v-0.458c-0.422,0.083-1.317,0.239-1.858,0.239c-0.38,0-1.4-0.172-1.858-0.25V166.025z"/>
	<path fill="#22225B" d="M51.644,165.884c-0.557,0-1.088-0.042-1.483-0.109c-0.375-0.062-0.76-0.172-0.76-0.442
		c0-0.276,0.385-0.38,0.76-0.442c0.396-0.073,0.926-0.109,1.483-0.109c0.557,0,1.088,0.036,1.483,0.109
		c0.375,0.062,0.76,0.167,0.76,0.442c0,0.271-0.385,0.38-0.76,0.442C52.721,165.843,52.2,165.884,51.644,165.884z M49.942,165.333
		c0.281,0.078,0.854,0.161,1.702,0.161c0.848,0,1.421-0.083,1.702-0.161c-0.281-0.078-0.854-0.167-1.702-0.167
		C50.795,165.166,50.223,165.255,49.942,165.333z"/>
	<path fill="#22225B" fill-opacity="0.298" d="M45.065,165.26c0,0.198,0.916,0.359,2.051,0.359s2.051-0.161,2.051-0.359
		c0-0.078,0-0.755,0-0.755s-1.343,0.291-2.051,0.291c-0.479,0-2.051-0.291-2.051-0.291S45.065,165.145,45.065,165.26z"/>
	<path fill="#22225B" d="M47.116,165.812c-0.557,0-1.088-0.036-1.483-0.109c-0.375-0.057-0.76-0.167-0.76-0.442v-0.755
		c0-0.052,0.021-0.109,0.068-0.146c0.047-0.042,0.104-0.057,0.156-0.042c0.016,0,1.561,0.281,2.014,0.281
		c0.671,0,1.993-0.281,2.009-0.281c0.057-0.016,0.114,0,0.161,0.042c0.047,0.036,0.073,0.094,0.073,0.146v0.755
		c0,0.276-0.39,0.385-0.76,0.442C48.203,165.775,47.678,165.812,47.116,165.812z M45.258,165.208
		c0.156,0.083,0.796,0.224,1.858,0.224c1.067,0,1.702-0.13,1.858-0.224v-0.458c-0.422,0.083-1.312,0.239-1.858,0.239
		c-0.38,0-1.395-0.172-1.858-0.25V165.208z"/>
	<path fill="#22225B" d="M47.116,165.067c-0.557,0-1.088-0.042-1.483-0.109c-0.375-0.062-0.76-0.172-0.76-0.442
		s0.385-0.38,0.76-0.442c0.396-0.073,0.926-0.109,1.483-0.109c0.562,0,1.088,0.036,1.483,0.109c0.375,0.062,0.76,0.172,0.76,0.442
		s-0.385,0.38-0.76,0.442C48.203,165.026,47.678,165.067,47.116,165.067z M45.414,164.505c0.281,0.078,0.854,0.167,1.702,0.167
		c0.848,0,1.421-0.088,1.702-0.167c-0.281-0.078-0.854-0.161-1.702-0.161C46.267,164.344,45.695,164.427,45.414,164.505z"/>
	<path fill="#22225B" d="M130.958,141.991c-0.057,0.062-0.109,0.114-0.167,0.177c-5.506,6.24-16.888,12.111-26.719,12.111
		c-3.971,0-7.198-2.394-8.202-5.376c-0.271-0.807-0.38-1.655-0.297-2.508c0.26-2.55,2.222-5.158,6.682-6.854
		c11.788-4.497,14.062-9.004,14.411-11.169c0.13-0.833-0.016-1.312-0.016-1.312L130.958,141.991z"/>
	<path fill="#22225B" fill-opacity="0.4" d="M130.792,142.168c-5.506,6.24-16.888,12.111-26.719,12.111
		c-3.971,0-7.198-2.394-8.202-5.376c2.087,0.843,7.916,2.368,14.973,0.588c11.314-2.847,13.583-10.617,19.704-7.463
		C130.641,142.074,130.714,142.121,130.792,142.168z"/>
	<path fill="#22225B" d="M104.072,155.455c-4.71,0-8.816-3.097-9.571-7.203c-0.349-1.92,0.088-3.82,1.254-5.491
		c1.265-1.806,3.315-3.258,6.084-4.32c7.869-2.993,11.179-5.923,12.574-7.843c1.405-1.946,1.129-3.175,1.119-3.232
		c0.01,0.026,0.01,0.031,0.01,0.031l2.227-0.692c0.068,0.219,0.599,2.181-1.218,4.903c-2.207,3.31-6.875,6.344-13.88,9.019
		c-2.3,0.88-4.028,2.077-5.007,3.477c-0.807,1.155-1.103,2.436-0.869,3.726c0.552,3.013,3.679,5.288,7.276,5.288
		c9.056,0,20.151-4.939,25.803-11.476c0.422-0.489,1.161-0.546,1.65-0.12c0.489,0.422,0.541,1.161,0.115,1.65
		c-2.826,3.274-7.114,6.334-12.059,8.603C114.414,154.149,108.902,155.455,104.072,155.455z"/>
	<path fill="#22225B" d="M49.588,127.06c0,0-1.941,6.261,14.395,12.48c11.486,4.372,6.448,14.749-1.811,14.749
		c-9.93,0-21.239-5.584-26.688-11.887"/>
	<path fill="#22225B" d="M123.558,196.871c-1.088,0-1.796-0.141-1.842-0.151c-0.63-0.125-1.041-0.739-0.916-1.374
		c0.125-0.63,0.739-1.041,1.369-0.916c0.031,0.005,1.582,0.291,3.529-0.12c2.55-0.546,4.569-1.988,5.995-4.299
		c3.627-5.876,3.81-11.179,0.599-17.2c-0.229-0.432-0.567-0.921-0.89-1.39c-0.406-0.583-0.775-1.135-1.004-1.634
		c-0.677-1.525-0.749-2.082-0.843-3.024c-0.026-0.203-0.042-0.427-0.078-0.692c-0.026-0.031-0.062-0.078-0.135-0.141
		c-0.479-0.427-0.526-1.166-0.094-1.65c0.427-0.484,1.166-0.531,1.65-0.094c0.682,0.609,0.838,1.192,0.869,1.41v0.016
		c0.052,0.37,0.078,0.661,0.099,0.916c0.073,0.744,0.104,1.056,0.656,2.311c0.13,0.302,0.463,0.786,0.781,1.249
		c0.359,0.526,0.734,1.067,1.025,1.619c3.607,6.75,3.388,12.948-0.666,19.522c-2.238,3.627-5.366,4.934-7.593,5.381
		C125.135,196.814,124.26,196.871,123.558,196.871z"/>
	<path fill="#22225B" d="M112.53,22.426c-0.838,0-1.702-0.198-2.509-0.609c-18.762-8.873-38.59-8.873-57.352,0
		c-2.456,1.244-5.376,0.52-6.641-1.65l-2.951-5.048c-0.557-0.963-0.682-2.129-0.338-3.294c0.432-1.488,1.551-2.784,3.071-3.555
		l0.026-0.016C57.29,2.779,69.24,0,81.34,0s24.049,2.779,35.515,8.254l0.021,0.016c1.514,0.77,2.644,2.066,3.076,3.555
		c0.343,1.166,0.219,2.332-0.338,3.294l-2.951,5.048C115.803,21.624,114.221,22.426,112.53,22.426z M81.34,12.839
		c10.065,0,20.052,2.311,29.691,6.87l0.031,0.016c1.332,0.687,2.951,0.349,3.586-0.739l2.951-5.048
		c0.302-0.51,0.234-1.083,0.12-1.462c-0.25-0.854-0.958-1.65-1.884-2.123C93.586-0.271,69.094-0.271,46.85,10.362
		c-0.921,0.474-1.629,1.265-1.879,2.123c-0.109,0.38-0.177,0.947,0.12,1.462l2.951,5.048c0.635,1.088,2.243,1.421,3.586,0.739
		l0.031-0.016C61.287,15.15,71.285,12.839,81.34,12.839z"/>
	<path fill="#22225B" fill-opacity="0.298" d="M112.93,114.387v2.498c0,1.926-1.577,3.508-3.503,3.508H99.045
		c-1.926,0-3.503-1.582-3.503-3.508v-2.498c0-0.286,0.042-0.562,0.104-0.833c0.37,1.535,1.754,2.675,3.393,2.675h10.388
		c1.639,0,3.024-1.14,3.404-2.675C112.894,113.82,112.93,114.101,112.93,114.387z"/>
	<path fill="#22225B" d="M109.428,121.559H99.045c-2.571,0-4.663-2.092-4.663-4.674v-2.498c0-2.576,2.087-4.674,4.663-4.674h10.383
		c2.571,0,4.668,2.092,4.668,4.674v2.498C114.096,119.456,111.999,121.559,109.428,121.559z M99.045,112.045
		c-1.285,0-2.326,1.051-2.326,2.337v2.493c0,1.291,1.046,2.337,2.326,2.337h10.383c1.291,0,2.332-1.051,2.332-2.337v-2.493
		c0-1.291-1.046-2.337-2.332-2.337H99.045z"/>
	<path fill="#22225B" d="M112.93,116.807c-0.645,0-1.161-0.52-1.161-1.166c0-0.645,0.515-1.166,1.161-1.166
		c14.999,0,27.188-9.711,27.188-21.635c0-0.645,0.52-1.166,1.166-1.166s1.166,0.52,1.166,1.166c0,3.268-0.791,6.443-2.363,9.42
		c-1.504,2.857-3.648,5.423-6.375,7.614C128.148,114.34,120.768,116.807,112.93,116.807z"/>
	<path fill="#22225B" d="M142.398,54.75l6.578,37.596l-0.062,0.016c-0.016-0.307-0.047-0.609-0.104-0.921l-6.459-36.925
		C142.366,54.599,142.382,54.672,142.398,54.75z"/>
	<path fill="#22225B" d="M148.726,92.596l-0.01-0.229c-0.005-0.281-0.047-0.583-0.094-0.885l-6.459-36.93l0.38-0.068l0.047,0.234
		l6.61,37.784L148.726,92.596z"/>
	<path fill="#22225B" d="M142.351,54.505c-0.057-0.239-0.12-0.479-0.198-0.708l0.073-0.016L142.351,54.505z"/>
	<path fill="#22225B" d="M142.153,54.547c-0.052-0.234-0.115-0.468-0.182-0.692l-0.073-0.213l0.484-0.083l0.156,0.911
		L142.153,54.547z"/>
	<path fill="#22225B" d="M142.033,100.689c-1.639,0-3.242-0.505-4.606-1.468c-1.764-1.239-2.935-3.086-3.31-5.194l-7.083-40.48
		c-0.37-2.113,0.109-4.247,1.343-6.011c1.239-1.764,3.086-2.94,5.189-3.31c2.113-0.375,4.242,0.109,6.006,1.343
		c1.436,1.01,2.519,2.482,3.039,4.148c0.109,0.333,0.198,0.682,0.265,1.046l7.083,40.48c0.062,0.354,0.099,0.713,0.115,1.072
		c0.156,4.013-2.701,7.557-6.646,8.249C142.965,100.653,142.496,100.689,142.033,100.689z M134.955,46.444
		c-0.328,0-0.661,0.026-0.984,0.083c-1.499,0.265-2.805,1.098-3.685,2.358c-0.874,1.249-1.218,2.769-0.952,4.268l7.083,40.474
		c0.479,2.769,2.904,4.731,5.621,4.731c0.328,0,0.661-0.031,0.989-0.083c2.8-0.494,4.835-3.013,4.72-5.865
		c-0.01-0.25-0.042-0.505-0.078-0.755l-7.094-40.474c-0.042-0.26-0.104-0.505-0.177-0.734l-0.005-0.016
		c-0.375-1.181-1.145-2.222-2.17-2.94C137.256,46.798,136.111,46.444,134.955,46.444z"/>
	<path fill="#22225B" d="M147.794,93.746l-0.057-1.338c-0.005-0.25-0.036-0.505-0.078-0.755l-7.083-40.474
		c-0.042-0.26-0.104-0.505-0.177-0.734l-0.416-1.28l2.878-0.51c3.893-0.682,7.827,0.203,11.091,2.493
		c3.253,2.285,5.428,5.699,6.11,9.597l2.675,15.275c0.682,3.898-0.203,7.838-2.488,11.106c-2.285,3.258-5.683,5.439-9.581,6.115
		L147.794,93.746z M142.923,51.013l7,39.985l0.338-0.062c3.279-0.572,6.152-2.41,8.077-5.158c1.926-2.753,2.67-6.074,2.097-9.352
		l-2.67-15.275c-1.197-6.818-7.697-11.387-14.494-10.19L142.923,51.013z"/>
	<path fill="#22225B" d="M4.055,60.948l-2.67,15.275c-1.301,7.427,3.7,14.567,11.117,15.863l1.546,0.276
		c0.016-0.307,0.047-0.609,0.104-0.911l7.083-40.474c0.052-0.312,0.125-0.609,0.224-0.895l-1.556-0.271
		C12.486,48.505,5.361,53.517,4.055,60.948z"/>
	<path fill="#22225B" d="M14.234,92.596l-1.769-0.312c-3.633-0.64-6.818-2.67-8.952-5.72C1.374,83.52,0.552,79.83,1.187,76.192
		l2.675-15.275c0.635-3.643,2.659-6.828,5.704-8.967s6.729-2.966,10.362-2.326l1.769,0.312l-0.068,0.208
		c-0.094,0.271-0.167,0.567-0.219,0.869l-7.083,40.474c-0.052,0.297-0.083,0.593-0.094,0.89V92.596z M4.055,60.948l0.193,0.031
		l-2.67,15.275c-0.619,3.539,0.177,7.125,2.259,10.086c2.077,2.961,5.163,4.939,8.707,5.563l1.338,0.229
		c0.016-0.239,0.047-0.479,0.083-0.713l7.083-40.474c0.036-0.245,0.099-0.484,0.161-0.708l-1.332-0.234
		c-3.534-0.625-7.114,0.187-10.076,2.264c-2.966,2.077-4.929,5.173-5.553,8.712L4.055,60.948z"/>
	<path fill="#22225B" d="M20.563,54.75l-6.578,37.602l0.062,0.016c0.016-0.302,0.047-0.604,0.104-0.916l6.459-36.93
		C20.594,54.599,20.579,54.672,20.563,54.75z"/>
	<path fill="#22225B" d="M14.234,92.596l-0.474-0.094l6.656-38.028l0.38,0.073l-6.459,36.925c-0.057,0.312-0.088,0.609-0.094,0.89
		L14.234,92.596z"/>
	<path fill="#22225B" fill-opacity="0.298" d="M12.501,92.086l1.546,0.276c0.016-0.307,0.047-0.609,0.104-0.921l7.083-40.474
		c0.052-0.302,0.13-0.604,0.224-0.895l-0.265-0.047L16.02,79.549c-0.052,0.307-0.083,0.609-0.088,0.921l-1.546-0.276
		C7.76,79.039,3.061,73.22,3.061,66.705l-1.676,9.519C0.084,83.65,5.085,90.79,12.501,92.086z"/>
	<path fill="#22225B" d="M20.927,100.689c-0.458,0-0.921-0.036-1.39-0.125c-3.95-0.692-6.807-4.236-6.646-8.249
		c0.016-0.349,0.057-0.718,0.114-1.067l7.083-40.474c0.062-0.364,0.156-0.718,0.265-1.051c0.531-1.665,1.608-3.133,3.045-4.143
		c1.764-1.239,3.898-1.723,6.001-1.348c4.377,0.77,7.302,4.955,6.542,9.326l-7.083,40.474
		C28.161,97.936,24.758,100.689,20.927,100.689z M22.385,51.18l-7.083,40.474c-0.047,0.25-0.073,0.505-0.078,0.755
		c-0.12,2.847,1.915,5.366,4.72,5.865c3.097,0.541,6.063-1.54,6.61-4.648l7.083-40.474c0.541-3.102-1.54-6.074-4.648-6.62
		c-1.499-0.26-3.003,0.078-4.262,0.958c-1.025,0.723-1.796,1.769-2.165,2.94l-0.01,0.016C22.483,50.675,22.421,50.92,22.385,51.18z"
		/>
	<path fill="#22225B" d="M15.161,93.746l-2.868-0.505c-3.888-0.687-7.291-2.857-9.581-6.115c-2.285-3.258-3.169-7.203-2.488-11.106
		l2.68-15.275c0.682-3.898,2.852-7.312,6.11-9.597c3.258-2.29,7.192-3.175,11.091-2.493l2.883,0.51l-0.422,1.28
		c-0.078,0.229-0.13,0.474-0.177,0.734l-7.083,40.474c-0.047,0.25-0.068,0.505-0.078,0.755L15.161,93.746z M4.055,60.948l1.15,0.203
		L2.53,76.426c-0.572,3.279,0.172,6.61,2.097,9.352c1.926,2.758,4.793,4.585,8.077,5.158l0.343,0.062l6.995-39.985l-0.338-0.062
		c-3.279-0.572-6.604,0.172-9.342,2.103c-2.753,1.926-4.575,4.804-5.152,8.088L4.055,60.948z"/>
	<path fill="#22225B" d="M50.676,198.287c-1.442,0-2.847-0.5-3.971-1.395c-1.119-0.895-1.92-2.16-2.238-3.57l-1.41-6.219
		c-0.141-0.609,0.005-1.239,0.396-1.723c0.385-0.489,0.968-0.76,1.593-0.76h10.528c0.578,0,1.124,0.25,1.514,0.677
		s0.572,1.004,0.515,1.577l-0.609,5.72C56.65,195.846,53.933,198.287,50.676,198.287z M45.05,186.379
		c-0.114,0-0.193,0.068-0.224,0.109c-0.031,0.036-0.078,0.125-0.057,0.239l1.416,6.224c0.484,2.113,2.332,3.591,4.497,3.591
		c2.363,0,4.335-1.775,4.58-4.132l0.609-5.714c0.016-0.109-0.042-0.187-0.073-0.219c-0.031-0.036-0.099-0.094-0.208-0.094H45.05
		V186.379z"/>
	<path fill="#22225B" d="M117.848,198.287c-3.263,0-5.98-2.451-6.323-5.694l-0.604-5.72c-0.062-0.572,0.125-1.15,0.51-1.577
		c0.39-0.427,0.942-0.677,1.514-0.677h10.534c0.619,0,1.202,0.281,1.593,0.76c0.385,0.494,0.526,1.114,0.396,1.723l-1.416,6.219
		c-0.317,1.4-1.109,2.67-2.238,3.57C120.7,197.798,119.285,198.287,117.848,198.287z M112.946,186.379
		c-0.109,0-0.177,0.062-0.208,0.094c-0.031,0.036-0.083,0.109-0.068,0.219l0.604,5.714c0.25,2.358,2.222,4.132,4.58,4.132
		c2.17,0,4.018-1.478,4.497-3.596l1.416-6.219c0.021-0.12-0.026-0.203-0.057-0.245c-0.026-0.036-0.099-0.109-0.224-0.109h-10.539
		V186.379z"/>
	<path fill="#22225B" fill-opacity="0.4" d="M34.964,142.168c5.506,6.24,16.888,12.111,26.719,12.111
		c3.971,0,7.203-2.394,8.202-5.376c-2.087,0.843-7.911,2.368-14.973,0.588c-11.314-2.847-13.583-10.617-19.699-7.463
		C35.125,142.074,35.047,142.121,34.964,142.168z"/>
	<path fill="#22225B" d="M62.167,155.455c-4.83,0-10.346-1.306-15.509-3.69c-4.944-2.269-9.233-5.324-12.059-8.598
		c-0.422-0.494-0.364-1.233,0.114-1.65c0.489-0.422,1.228-0.364,1.645,0.115c5.657,6.547,16.753,11.481,25.809,11.481
		c3.596,0,6.724-2.269,7.276-5.288c0.234-1.291-0.062-2.576-0.869-3.726c-0.978-1.395-2.711-2.597-5.007-3.477
		c-7.005-2.67-11.673-5.704-13.88-9.024c-1.811-2.727-1.28-4.689-1.218-4.897l2.227,0.692c0,0,0.005-0.01,0.005-0.031
		c-0.01,0.052-0.286,1.28,1.119,3.227c1.4,1.931,4.71,4.856,12.574,7.848c2.779,1.056,4.824,2.514,6.089,4.314
		c1.171,1.676,1.608,3.57,1.249,5.491C70.988,152.358,66.872,155.455,62.167,155.455z"/>
	<path fill="#22225B" fill-opacity="0.298" d="M114.398,165.38c0,0.193-0.916,0.354-2.051,0.354c-1.129,0-2.051-0.161-2.051-0.354
		c0-0.078,0-0.755,0-0.755s1.348,0.286,2.051,0.286c0.484,0,2.051-0.286,2.051-0.286S114.398,165.26,114.398,165.38z"/>
	<path fill="#22225B" d="M112.347,165.931c-0.557,0-1.083-0.042-1.483-0.109c-0.37-0.062-0.76-0.172-0.76-0.442v-0.755
		c0-0.062,0.026-0.12,0.073-0.151c0.047-0.036,0.104-0.052,0.161-0.036c0.016,0,1.327,0.281,2.009,0.281
		c0.458,0,1.998-0.281,2.014-0.281c0.052-0.01,0.115,0.005,0.156,0.036c0.047,0.042,0.068,0.094,0.068,0.151v0.755
		c0,0.271-0.385,0.38-0.76,0.442C113.435,165.89,112.91,165.931,112.347,165.931z M110.495,165.317
		c0.156,0.083,0.791,0.224,1.853,0.224c1.067,0,1.702-0.13,1.858-0.224v-0.458c-0.458,0.078-1.473,0.245-1.858,0.245
		c-0.541,0-1.436-0.151-1.853-0.239V165.317z"/>
	<path fill="#22225B" d="M112.347,165.177c-0.557,0-1.083-0.042-1.483-0.109c-0.37-0.062-0.76-0.172-0.76-0.442
		c0-0.276,0.39-0.38,0.76-0.442c0.401-0.073,0.926-0.109,1.483-0.109c0.562,0,1.088,0.036,1.483,0.109
		c0.375,0.062,0.765,0.167,0.765,0.442c0,0.271-0.39,0.38-0.765,0.442C113.435,165.135,112.91,165.177,112.347,165.177z
		 M110.651,164.625c0.276,0.078,0.854,0.161,1.697,0.161c0.848,0,1.421-0.083,1.702-0.161c-0.281-0.078-0.854-0.167-1.702-0.167
		C111.504,164.458,110.927,164.547,110.651,164.625z"/>
	<path fill="#22225B" fill-opacity="0.298" d="M119.186,164.5c0,0.193-0.921,0.359-2.051,0.359c-1.135,0-2.051-0.167-2.051-0.359
		c0-0.078,0-0.755,0-0.755s1.343,0.286,2.051,0.286c0.479,0,2.051-0.286,2.051-0.286S119.186,164.391,119.186,164.5z"/>
	<path fill="#22225B" d="M117.135,165.057c-0.562,0-1.088-0.036-1.483-0.104c-0.375-0.062-0.765-0.172-0.765-0.448v-0.755
		c0-0.062,0.026-0.114,0.073-0.146c0.047-0.036,0.109-0.052,0.161-0.036c0.016,0,1.327,0.276,2.014,0.276
		c0.458,0,1.993-0.276,2.009-0.276c0.057-0.01,0.114,0.005,0.156,0.036c0.047,0.036,0.068,0.094,0.068,0.146v0.755
		c0,0.276-0.385,0.385-0.76,0.448C118.223,165.02,117.692,165.057,117.135,165.057z M115.278,164.443
		c0.156,0.088,0.791,0.229,1.858,0.229c1.062,0,1.697-0.135,1.853-0.229v-0.458c-0.458,0.078-1.473,0.25-1.853,0.25
		c-0.546,0-1.436-0.156-1.858-0.239V164.443z"/>
	<path fill="#22225B" d="M117.135,164.302c-0.562,0-1.088-0.036-1.483-0.104c-0.375-0.062-0.765-0.172-0.765-0.448
		c0-0.271,0.39-0.38,0.765-0.442c0.396-0.068,0.921-0.109,1.483-0.109c0.557,0,1.088,0.042,1.483,0.109
		c0.37,0.062,0.76,0.172,0.76,0.442c0,0.276-0.39,0.385-0.76,0.448C118.223,164.266,117.692,164.302,117.135,164.302z
		 M115.434,163.751c0.281,0.078,0.854,0.167,1.702,0.167c0.843,0,1.421-0.088,1.697-0.167c-0.276-0.078-0.854-0.161-1.697-0.161
		C116.287,163.589,115.715,163.673,115.434,163.751z"/>
	<path fill="#22225B" fill-opacity="0.298" d="M118.848,166.108c0,0.198-0.916,0.359-2.051,0.359c-1.129,0-2.045-0.161-2.045-0.359
		c0-0.078,0-0.755,0-0.755s1.343,0.291,2.045,0.291c0.484,0,2.051-0.291,2.051-0.291S118.848,165.999,118.848,166.108z"/>
	<path fill="#22225B" d="M116.797,166.66c-0.557,0-1.083-0.036-1.483-0.109c-0.37-0.062-0.76-0.167-0.76-0.442v-0.755
		c0-0.062,0.026-0.115,0.073-0.146s0.109-0.057,0.161-0.042c0.016,0,1.327,0.281,2.009,0.281c0.458,0,1.998-0.281,2.014-0.281
		c0.052-0.005,0.115,0.01,0.156,0.042c0.047,0.036,0.068,0.094,0.068,0.146v0.755c0,0.276-0.385,0.38-0.76,0.442
		C117.88,166.623,117.359,166.66,116.797,166.66z M114.944,166.056c0.156,0.083,0.791,0.224,1.853,0.224
		c1.067,0,1.702-0.13,1.858-0.224v-0.458c-0.458,0.078-1.473,0.245-1.858,0.245c-0.541,0-1.436-0.151-1.853-0.239V166.056z"/>
	<path fill="#22225B" d="M116.797,165.916c-0.557,0-1.083-0.042-1.483-0.109c-0.37-0.062-0.76-0.172-0.76-0.442
		c0-0.276,0.39-0.38,0.76-0.442c0.401-0.073,0.926-0.109,1.483-0.109c0.562,0,1.088,0.036,1.483,0.109
		c0.375,0.062,0.765,0.167,0.765,0.442c0,0.271-0.39,0.38-0.765,0.442C117.88,165.874,117.359,165.916,116.797,165.916z
		 M115.101,165.364c0.276,0.078,0.854,0.161,1.697,0.161c0.848,0,1.426-0.083,1.702-0.161c-0.276-0.078-0.854-0.167-1.702-0.167
		C115.954,165.197,115.376,165.286,115.101,165.364z"/>
	<path fill="#22225B" fill-opacity="0.298" d="M123.37,165.291c0,0.198-0.916,0.359-2.051,0.359c-1.135,0-2.051-0.161-2.051-0.359
		c0-0.078,0-0.755,0-0.755s1.343,0.291,2.051,0.291c0.479,0,2.051-0.291,2.051-0.291S123.37,165.177,123.37,165.291z"/>
	<path fill="#22225B" d="M121.32,165.843c-0.562,0-1.088-0.036-1.483-0.109c-0.375-0.057-0.76-0.167-0.76-0.442v-0.755
		c0-0.062,0.021-0.114,0.068-0.146c0.047-0.042,0.109-0.057,0.161-0.042c0.016,0,1.332,0.281,2.014,0.281
		c0.458,0,1.993-0.281,2.009-0.281c0.057-0.005,0.12,0.01,0.156,0.042c0.047,0.036,0.073,0.094,0.073,0.146v0.755
		c0,0.276-0.39,0.385-0.765,0.442C122.408,165.806,121.877,165.843,121.32,165.843z M119.462,165.239
		c0.156,0.083,0.791,0.224,1.858,0.224c1.062,0,1.702-0.13,1.858-0.224v-0.458c-0.463,0.078-1.478,0.245-1.858,0.245
		c-0.546,0-1.436-0.151-1.858-0.239V165.239z"/>
	<path fill="#22225B" d="M121.32,165.099c-0.562,0-1.088-0.042-1.483-0.109c-0.375-0.062-0.76-0.172-0.76-0.442
		c0-0.271,0.385-0.38,0.76-0.442c0.396-0.073,0.921-0.109,1.483-0.109c0.557,0,1.088,0.036,1.483,0.109
		c0.375,0.062,0.76,0.172,0.76,0.442c0,0.271-0.385,0.38-0.76,0.442C122.408,165.057,121.877,165.099,121.32,165.099z
		 M119.618,164.536c0.281,0.078,0.854,0.167,1.702,0.167s1.421-0.088,1.702-0.167c-0.281-0.078-0.854-0.161-1.702-0.161
		S119.899,164.458,119.618,164.536z"/>
	<path fill="#22225B" fill-opacity="0.298" d="M135.715,181.903c-0.146,5.027-3.961,12.86-9.821,13.557
		c-5.855,0.703-13.193-0.994-13.427-3.711c-0.234-2.711-4.746-3.201-5.881-3.091c-1.135,0.109-11.439,2.222-11.439,2.222
		c-2.097,0.692-6.849,1.041-9.722,1.197c-0.437,0.026-0.833,0.047-1.166,0.062c-0.333-0.016-0.729-0.036-1.166-0.062
		c-2.862-0.156-7.624-0.51-9.711-1.197c0,0-10.315-2.113-11.45-2.222c-1.135-0.109-5.647,0.38-5.876,3.091
		c-0.234,2.717-7.567,4.413-13.427,3.711c-5.865-0.697-9.68-8.53-9.826-13.557c-0.047-1.436,0.052-2.836,0.265-4.137
		c0.016-0.068,0.021-0.141,0.036-0.198c0.531-3.128,1.681-5.631,2.966-6.651c1.848-1.462,1.135-5.798,3.107-6.656
		c1.972-0.864,13.557-2.212,20.214-0.942c0,0,2.535-1.946,6.61-1.842c0.468,0.01,0.989,0.021,1.546,0.036
		c-0.125,0.645-0.224,1.379-0.281,2.207c-0.031,0.541-0.047,1.124-0.036,1.754c0.016,0.994,0.114,1.816,0.297,2.493
		c0.016,0.047,0.021,0.104,0.036,0.151c-0.016,0.068-0.021,0.141-0.036,0.208c-0.12,0.609-0.203,1.301-0.26,2.077
		c-0.031,0.536-0.047,1.119-0.036,1.749c0.078,5.943,3.414,5.798,6.318,5.798h9.56c0.489,0,0.786,0,0.786,0s0.604,0,1.546,0h8.801
		c2.904,0,6.24,0.156,6.318-5.798c0.01-0.63-0.005-1.218-0.036-1.764c-0.047-0.775-0.141-1.462-0.255-2.066
		c-0.016-0.073-0.026-0.141-0.042-0.213c0.016-0.047,0.031-0.099,0.042-0.146c0.177-0.677,0.276-1.504,0.291-2.488
		c0.01-0.63-0.005-1.223-0.036-1.769c-0.057-0.822-0.156-1.546-0.271-2.175c0.838-0.016,1.619-0.031,2.295-0.047
		c4.085-0.099,6.61,1.842,6.61,1.842c6.646-1.265,18.241,0.078,20.214,0.942c1.972,0.864,1.259,5.194,3.107,6.656
		c1.291,1.02,2.441,3.523,2.966,6.651c0.016,0.068,0.026,0.141,0.042,0.203C135.663,179.067,135.762,180.467,135.715,181.903z"/>
	<path fill="#22225B" fill-opacity="0.298" d="M100.544,172.15c-0.078,5.943-3.414,5.798-6.318,5.798h-8.801
		c-0.942,0-1.546,0-1.546,0s-0.297,0-0.786,0h-9.56c-2.904,0-6.24,0.156-6.318-5.798c-0.01-0.63,0.005-1.202,0.036-1.749
		c0.245-3.711,1.358-5.433,1.79-5.964c0.505,0.094,0.937,0.161,1.312,0.172c2.561,0.083,5.017,0.141,7.218,0.177
		c0.578,0.094,2.587,0.094,4.429,0.062h0.078c0.349,0,0.692,0.01,1.015,0.01v0.016c0.375,0,0.812,0,1.291,0h0.141
		c0.328,0,0.63,0,0.9,0v-0.01c0.328,0,0.666-0.005,1.025-0.005h0.068c1.842,0.031,3.846,0.036,4.429-0.062
		c2.212-0.042,4.674-0.094,7.239-0.182c0.193-0.005,0.401-0.021,0.63-0.062c0.474,0.64,1.468,2.373,1.691,5.834
		C100.539,170.933,100.554,171.516,100.544,172.15z"/>
	<path fill="#22225B" fill-opacity="0.298" d="M73.164,162.184c0,0.239-1.546,0.442-3.451,0.442c-1.9,0-3.445-0.203-3.445-0.442
		c0-0.125,0-4.445,0-4.445s2.514,0.219,3.445,0.219c0.593,0,3.518-0.239,3.518-0.239S73.164,162.012,73.164,162.184z"/>
	<path fill="#22225B" fill-opacity="0.298" d="M95.366,162.184c0,0.239,1.546,0.442,3.451,0.442c1.9,0,3.445-0.203,3.445-0.442
		c0-0.125,0-4.445,0-4.445s-2.514,0.219-3.445,0.219c-0.593,0-3.518-0.239-3.518-0.239S95.366,162.012,95.366,162.184z"/>
	<path fill="#22225B" fill-opacity="0.298" d="M131.182,142.475c-0.052,0.062,0.807,0.416-1.39,4.304
		c-5.506,6.24-16.279,11.679-26.11,11.679c-3.966,0-7.198-2.399-8.202-5.376c-0.271-0.807-0.38-1.655-0.291-2.514
		c0.255-2.55,2.217-5.158,6.677-6.849c11.788-4.497,14.062-9.009,14.411-11.169c0.135-0.833-0.016-1.317-0.016-1.317
		L131.182,142.475z"/>
	<path fill="#22225B" fill-opacity="0.298" d="M34.417,142.86c0.057,0.062,0,1.036,2.201,3.851
		c5.506,6.24,15.467,12.131,25.298,12.131c3.971,0,7.198-2.394,8.202-5.371c0.271-0.812,0.38-1.66,0.297-2.514
		c-0.26-2.55-2.222-5.158-6.682-6.854c-11.788-4.491-14.062-9.004-14.411-11.169c-0.13-0.833,0.016-1.312,0.016-1.312L34.417,142.86
		z"/>
	<path fill="#22225B" fill-opacity="0.4" d="M128.653,110.879c0,0.827-0.078,1.655-0.224,2.482c-0.151,0.827-0.37,1.645-0.666,2.456
		c-0.297,0.817-0.661,1.619-1.098,2.415c-0.442,0.791-0.947,1.572-1.525,2.337c-0.583,0.765-1.228,1.514-1.936,2.248
		c-0.713,0.729-1.488,1.442-2.332,2.129c-0.838,0.692-1.738,1.358-2.696,1.998s-1.972,1.254-3.039,1.842
		c-1.072,0.588-2.191,1.14-3.357,1.671c-1.171,0.526-2.384,1.015-3.638,1.478c-1.259,0.463-2.55,0.885-3.882,1.275
		c-1.332,0.396-2.701,0.749-4.096,1.067c-1.395,0.317-2.816,0.593-4.262,0.833c-1.447,0.245-2.909,0.442-4.393,0.609
		c-1.483,0.161-2.977,0.281-4.481,0.364c-1.504,0.078-3.013,0.12-4.523,0.12s-3.019-0.042-4.523-0.12
		c-1.504-0.083-2.998-0.203-4.481-0.364c-1.483-0.167-2.946-0.364-4.392-0.609c-1.447-0.239-2.868-0.515-4.262-0.833
		c-1.395-0.317-2.764-0.671-4.096-1.067c-1.332-0.39-2.628-0.812-3.882-1.275c-1.254-0.463-2.467-0.952-3.638-1.478
		c-1.166-0.531-2.285-1.083-3.357-1.671c-1.067-0.588-2.082-1.202-3.039-1.842s-1.858-1.306-2.696-1.998
		c-0.843-0.687-1.619-1.4-2.332-2.129c-0.713-0.734-1.358-1.483-1.936-2.248s-1.083-1.546-1.525-2.337
		c-0.437-0.796-0.807-1.598-1.098-2.415c-0.297-0.812-0.515-1.629-0.666-2.456c-0.146-0.827-0.224-1.655-0.224-2.482
		c0-0.827,0.078-1.655,0.224-2.482c0.151-0.822,0.37-1.645,0.666-2.456c0.291-0.817,0.661-1.619,1.098-2.41
		c0.442-0.796,0.947-1.577,1.525-2.342s1.223-1.514,1.936-2.248c0.713-0.729,1.488-1.442,2.332-2.129
		c0.838-0.692,1.738-1.358,2.696-1.998c0.958-0.64,1.972-1.254,3.039-1.842c1.072-0.583,2.191-1.14,3.357-1.665
		c1.171-0.526,2.384-1.02,3.638-1.483c1.254-0.458,2.55-0.885,3.882-1.275c1.332-0.39,2.701-0.744,4.096-1.062
		c1.395-0.317,2.816-0.599,4.262-0.838c1.447-0.245,2.909-0.442,4.392-0.604c1.483-0.161,2.977-0.286,4.481-0.364
		c1.504-0.083,3.013-0.125,4.523-0.125s3.019,0.042,4.523,0.125c1.504,0.078,2.998,0.203,4.481,0.364
		c1.483,0.161,2.946,0.359,4.393,0.604c1.447,0.239,2.868,0.52,4.262,0.838s2.764,0.671,4.096,1.062
		c1.332,0.39,2.623,0.817,3.882,1.275c1.254,0.463,2.467,0.958,3.638,1.483c1.166,0.526,2.285,1.083,3.357,1.665
		c1.067,0.588,2.082,1.202,3.039,1.842c0.958,0.64,1.858,1.306,2.696,1.998c0.843,0.687,1.619,1.4,2.332,2.129
		c0.708,0.734,1.353,1.483,1.936,2.248c0.578,0.765,1.083,1.546,1.525,2.342c0.437,0.791,0.801,1.593,1.098,2.41
		c0.297,0.812,0.515,1.634,0.666,2.456C128.575,109.224,128.653,110.052,128.653,110.879z"/>
	<path fill="#22225B" fill-opacity="0.298" d="M132.837,109.12c-4.507,8.983-13.823,18.679-50.415,18.798
		c-36.597-0.114-45.434-9.815-50.42-18.798c-2.753-4.97-4.283-14.661-3.804-25.231c0.349,7.421,1.733,13.812,3.804,17.549
		c4.986,8.983,13.823,18.673,50.42,18.798c36.582-0.12,45.908-9.815,50.415-18.798c1.931-3.856,3.268-10.367,3.612-17.882
		C136.923,94.194,135.398,103.989,132.837,109.12z"/>
	<path fill="#22225B" fill-opacity="0.298" d="M118.603,14.536c-1.181,2.014-1.775,3.029-2.951,5.048
		c-0.973,1.665-3.258,2.139-5.121,1.192c-19.048-9.014-39.324-9.014-58.372,0c-1.868,0.947-4.148,0.474-5.121-1.192
		c-0.708-1.202-1.197-2.051-1.733-2.961c1.098,0.375,2.394,0.286,3.544-0.307c20.589-9.737,42.509-9.737,63.087,0
		c2.014,1.03,4.481,0.515,5.537-1.28c0.578-0.989,1.025-1.749,1.462-2.498C119.045,13.24,118.952,13.937,118.603,14.536z"/>
	<path fill="#22225B" fill-opacity="0.298" d="M148.913,92.362c0.13,3.383-2.269,6.453-5.688,7.062
		c-3.726,0.651-7.307-1.868-7.958-5.595l-2.196-12.558c1.816,1.936,4.538,2.956,7.338,2.462c2.888-0.505,5.163-2.509,6.162-5.074
		l2.238,12.782C148.867,91.753,148.903,92.055,148.913,92.362z"/>
	<path fill="#22225B" fill-opacity="0.298" d="M150.459,92.086l-1.546,0.276c-0.016-0.307-0.047-0.609-0.104-0.921l-7.083-40.474
		c-0.052-0.302-0.13-0.604-0.224-0.895l0.265-0.047l5.173,29.524c0.052,0.307,0.083,0.609,0.088,0.921l1.546-0.276
		c6.625-1.155,11.325-6.974,11.325-13.49l1.66,9.508C162.877,83.65,157.875,90.79,150.459,92.086z"/>
	<path fill="#22225B" fill-opacity="0.298" d="M14.047,92.362c-0.13,3.383,2.269,6.453,5.688,7.062
		c3.726,0.651,7.307-1.868,7.957-5.595l2.196-12.558c-1.816,1.936-4.538,2.956-7.338,2.462c-2.888-0.505-5.163-2.509-6.162-5.074
		l-2.238,12.782C14.094,91.753,14.058,92.055,14.047,92.362z"/>
</g>
<g>
	<path fill="#4A83FF" d="M46.772,173.988h6.87c2.29,0,4.143,1.858,4.143,4.153v3.055c0,0.625-0.505,1.129-1.124,1.129H43.743
		c-0.619,0-1.124-0.505-1.124-1.129v-3.055C42.619,175.856,44.477,173.988,46.772,173.988z"/>
	<path fill="#4A83FF" d="M121.752,173.988h-6.865c-2.29,0-4.143,1.858-4.143,4.153v3.055c0,0.625,0.505,1.129,1.124,1.129h12.912
		c0.625,0,1.129-0.505,1.129-1.129v-3.055C125.91,175.856,124.047,173.988,121.752,173.988z"/>
	<path fill="#4A83FF" d="M100.544,172.15c-0.078,5.943-3.414,5.798-6.318,5.798h-8.801c-0.942,0-1.546,0-1.546,0s-0.297,0-0.786,0
		h-9.56c-2.904,0-6.24,0.156-6.318-5.798c-0.01-0.63,0.005-1.202,0.036-1.749c0.245-3.711,1.358-5.433,1.79-5.964
		c0.505,0.094,0.937,0.161,1.312,0.172c2.561,0.083,5.017,0.141,7.218,0.177c0.578,0.094,2.587,0.094,4.429,0.062h0.078
		c0.349,0,0.692,0.01,1.015,0.01v0.016c0.375,0,0.812,0,1.291,0h0.141c0.328,0,0.63,0,0.9,0v-0.01c0.328,0,0.666-0.005,1.025-0.005
		h0.068c1.842,0.031,3.846,0.036,4.429-0.062c2.212-0.042,4.674-0.094,7.239-0.182c0.193-0.005,0.401-0.021,0.63-0.062
		c0.474,0.64,1.468,2.373,1.691,5.834C100.539,170.933,100.554,171.516,100.544,172.15z"/>
	<path fill="#4A83FF" d="M100.419,169.501c-0.619,4.299-3.586,4.174-6.193,4.174h-8.801c-0.942,0-1.546,0-1.546,0s-0.297,0-0.786,0
		h-9.56c-2.607,0-5.563,0.125-6.204-4.158c0.343-3.107,1.322-4.59,1.712-5.079c0.505,0.094,0.937,0.161,1.312,0.172
		c2.561,0.083,5.017,0.141,7.218,0.177c0.578,0.094,2.587,0.094,4.429,0.062h0.078c0.349,0,0.692,0.01,1.015,0.01v0.005
		c0.375,0,0.812,0,1.291,0h0.141c0.328,0,0.63,0,0.9,0v-0.005c0.328,0,0.666-0.01,1.025-0.01h0.068
		c1.842,0.031,3.846,0.042,4.429-0.062c2.212-0.036,4.674-0.094,7.239-0.177c0.193-0.01,0.401-0.026,0.63-0.062
		C99.243,165.13,100.102,166.623,100.419,169.501z"/>
	<path fill="#4A83FF" d="M76.687,152.952c0,0.739-3.143,1.327-7.021,1.327c-3.872,0-7.01-0.598-7.01-1.327
		c0-0.734,3.138-1.332,7.01-1.332C73.544,151.63,76.687,152.218,76.687,152.952z"/>
	<path fill="#4A83FF" d="M105.873,152.952c0,0.739-3.138,1.327-7.016,1.327c-3.872,0-7.016-0.598-7.016-1.327
		c0-0.734,3.133-1.332,7.016-1.332C102.735,151.63,105.873,152.218,105.873,152.952z"/>
	<path fill="#4A83FF" d="M77.744,155.98c0,0.848-3.617,1.988-8.077,1.988c-4.455,0-8.072-1.14-8.072-1.988
		c0-2.191,1.062-3.024,1.062-3.024c0,0.739,3.138,1.332,7.01,1.332c3.877,0,7.021-0.598,7.021-1.332
		C76.687,152.952,77.744,153.779,77.744,155.98z"/>
	<path fill="#4A83FF" d="M73.164,162.184c0,0.239-1.546,0.442-3.451,0.442c-1.9,0-3.445-0.203-3.445-0.442c0-0.125,0-4.445,0-4.445
		s2.514,0.219,3.445,0.219c0.593,0,3.518-0.239,3.518-0.239S73.164,162.012,73.164,162.184z"/>
	<path fill="#4A83FF" d="M95.366,162.184c0,0.239,1.546,0.442,3.451,0.442c1.9,0,3.445-0.203,3.445-0.442c0-0.125,0-4.445,0-4.445
		s-2.514,0.219-3.445,0.219c-0.593,0-3.518-0.239-3.518-0.239S95.366,162.012,95.366,162.184z"/>
	<path fill="#4A83FF" d="M106.935,155.98c0,0.848-3.617,1.988-8.077,1.988c-4.465,0-8.082-1.14-8.082-1.988
		c0-2.191,1.067-3.024,1.067-3.024c0,0.739,3.133,1.332,7.016,1.332c3.877,0,7.016-0.598,7.016-1.332
		C105.873,152.952,106.935,153.779,106.935,155.98z"/>
	<path fill="#4A83FF" d="M54.043,165.348c0,0.193,0.916,0.354,2.051,0.354c1.135,0,2.051-0.161,2.051-0.354c0-0.078,0-0.755,0-0.755
		s-1.343,0.286-2.051,0.286c-0.479,0-2.051-0.286-2.051-0.286S54.043,165.229,54.043,165.348z"/>
	<path fill="#4A83FF" d="M58.144,164.594c0,0.047-0.052,0.094-0.156,0.135c-0.104,0.047-0.25,0.083-0.442,0.115
		c-0.193,0.036-0.416,0.062-0.666,0.078c-0.25,0.021-0.515,0.031-0.786,0.031c-0.271,0-0.531-0.01-0.786-0.031
		c-0.25-0.016-0.474-0.042-0.661-0.078c-0.193-0.031-0.343-0.068-0.448-0.115c-0.104-0.042-0.156-0.088-0.156-0.135
		c0-0.047,0.052-0.094,0.156-0.141c0.104-0.042,0.255-0.078,0.448-0.114c0.187-0.031,0.411-0.057,0.661-0.078
		c0.255-0.016,0.515-0.026,0.786-0.026c0.271,0,0.536,0.01,0.786,0.026c0.25,0.021,0.474,0.047,0.666,0.078
		c0.193,0.036,0.338,0.073,0.442,0.114C58.092,164.5,58.144,164.547,58.144,164.594z"/>
	<path fill="#4A83FF" d="M49.26,164.469c0,0.193,0.916,0.359,2.051,0.359c1.135,0,2.051-0.167,2.051-0.359c0-0.078,0-0.755,0-0.755
		S52.018,164,51.31,164c-0.484,0-2.051-0.286-2.051-0.286S49.26,164.36,49.26,164.469z"/>
	<path fill="#4A83FF" d="M53.361,163.719c0,0.052-0.052,0.094-0.156,0.141c-0.104,0.042-0.255,0.083-0.448,0.114
		c-0.193,0.031-0.411,0.057-0.661,0.078c-0.255,0.016-0.515,0.026-0.786,0.026c-0.271,0-0.536-0.01-0.786-0.026
		c-0.25-0.021-0.474-0.047-0.666-0.078c-0.193-0.031-0.338-0.073-0.442-0.114c-0.104-0.047-0.156-0.088-0.156-0.141
		c0-0.047,0.052-0.088,0.156-0.135c0.104-0.042,0.25-0.083,0.442-0.115c0.193-0.036,0.416-0.062,0.666-0.078
		c0.25-0.021,0.515-0.026,0.786-0.026c0.271,0,0.531,0.005,0.786,0.026c0.25,0.016,0.468,0.042,0.661,0.078
		c0.193,0.031,0.343,0.073,0.448,0.115C53.309,163.631,53.361,163.673,53.361,163.719z"/>
	<path fill="#4A83FF" d="M49.593,166.077c0,0.198,0.916,0.359,2.051,0.359c1.135,0,2.051-0.161,2.051-0.359c0-0.078,0-0.755,0-0.755
		s-1.343,0.291-2.051,0.291c-0.479,0-2.051-0.291-2.051-0.291S49.593,165.968,49.593,166.077z"/>
	<path fill="#4A83FF" d="M53.694,165.333c0,0.047-0.052,0.094-0.156,0.135c-0.104,0.042-0.25,0.083-0.442,0.114
		c-0.193,0.036-0.416,0.062-0.666,0.078c-0.25,0.021-0.515,0.031-0.786,0.031c-0.271,0-0.531-0.01-0.786-0.031
		c-0.25-0.016-0.474-0.042-0.666-0.078c-0.187-0.031-0.338-0.073-0.442-0.114c-0.104-0.042-0.156-0.088-0.156-0.135
		c0-0.047,0.052-0.094,0.156-0.141c0.104-0.042,0.255-0.078,0.442-0.115c0.193-0.031,0.416-0.057,0.666-0.078
		c0.255-0.016,0.515-0.026,0.786-0.026c0.271,0,0.536,0.01,0.786,0.026c0.25,0.021,0.474,0.047,0.666,0.078
		c0.193,0.036,0.338,0.073,0.442,0.115C53.642,165.239,53.694,165.286,53.694,165.333z"/>
	<path fill="#4A83FF" d="M45.065,165.26c0,0.198,0.916,0.359,2.051,0.359s2.051-0.161,2.051-0.359c0-0.078,0-0.755,0-0.755
		s-1.343,0.291-2.051,0.291c-0.479,0-2.051-0.291-2.051-0.291S45.065,165.145,45.065,165.26z"/>
	<path fill="#4A83FF" d="M49.166,164.505c0,0.047-0.052,0.094-0.156,0.141c-0.104,0.042-0.25,0.083-0.442,0.115
		c-0.193,0.031-0.416,0.057-0.666,0.078c-0.25,0.016-0.515,0.026-0.786,0.026c-0.271,0-0.531-0.01-0.786-0.026
		c-0.25-0.021-0.474-0.047-0.661-0.078c-0.193-0.031-0.343-0.073-0.448-0.115c-0.104-0.047-0.156-0.094-0.156-0.141
		s0.052-0.094,0.156-0.135s0.255-0.083,0.448-0.115c0.187-0.036,0.411-0.062,0.661-0.078c0.255-0.021,0.515-0.026,0.786-0.026
		c0.271,0,0.536,0.005,0.786,0.026c0.25,0.016,0.474,0.042,0.666,0.078c0.193,0.031,0.338,0.073,0.442,0.115
		S49.166,164.458,49.166,164.505z"/>
	<path fill="#4A83FF" d="M110.531,20.765c-19.048-9.014-39.324-9.014-58.372,0c-1.868,0.952-4.148,0.474-5.121-1.187
		c-1.181-2.025-1.769-3.029-2.951-5.048c-0.968-1.665,0.016-4.085,2.253-5.23c22.707-10.856,47.303-10.856,70.015,0
		c2.238,1.145,3.227,3.565,2.254,5.23c-1.181,2.019-1.769,3.024-2.951,5.048C114.679,21.239,112.394,21.723,110.531,20.765z"/>
	<path fill="#4A83FF" d="M109.428,120.393H99.045c-1.926,0-3.503-1.582-3.503-3.508v-2.498c0-1.931,1.577-3.508,3.503-3.508h10.383
		c1.926,0,3.503,1.577,3.503,3.508v2.498C112.93,118.811,111.353,120.393,109.428,120.393z"/>
	<path fill="#4A83FF" d="M141.726,50.977l7.083,40.474c0.057,0.302,0.088,0.609,0.104,0.911c0.13,3.383-2.269,6.453-5.688,7.052
		c-3.726,0.656-7.307-1.858-7.958-5.59l-7.094-40.469c-0.651-3.732,1.868-7.317,5.595-7.973c1.863-0.323,3.69,0.141,5.132,1.15
		c1.202,0.848,2.144,2.077,2.613,3.549C141.601,50.368,141.674,50.665,141.726,50.977z"/>
	<path fill="#4A83FF" d="M158.906,60.948l2.67,15.275c1.301,7.427-3.7,14.567-11.117,15.863l-1.546,0.276
		c-0.016-0.307-0.047-0.609-0.104-0.911l-7.083-40.474c-0.052-0.312-0.125-0.609-0.224-0.895l1.556-0.271
		C150.475,48.505,157.6,53.517,158.906,60.948z"/>
	<path fill="#4A83FF" d="M21.234,50.977l-7.083,40.474c-0.057,0.302-0.088,0.609-0.104,0.911c-0.13,3.383,2.269,6.453,5.688,7.052
		c3.726,0.656,7.307-1.858,7.957-5.59l7.094-40.469c0.651-3.732-1.868-7.317-5.595-7.973c-1.863-0.323-3.69,0.141-5.132,1.15
		c-1.202,0.848-2.144,2.077-2.613,3.549C21.359,50.368,21.286,50.665,21.234,50.977z"/>
	<path fill="#4A83FF" d="M4.055,60.948l-2.67,15.275c-1.301,7.427,3.7,14.567,11.117,15.863l1.546,0.276
		c0.016-0.307,0.047-0.609,0.104-0.911l7.083-40.474c0.052-0.312,0.125-0.609,0.224-0.895l-1.556-0.271
		C12.486,48.505,5.361,53.517,4.055,60.948z"/>
	<path fill="#4A83FF" d="M114.398,165.38c0,0.193-0.916,0.354-2.051,0.354c-1.129,0-2.051-0.161-2.051-0.354
		c0-0.078,0-0.755,0-0.755s1.348,0.286,2.051,0.286c0.484,0,2.051-0.286,2.051-0.286S114.398,165.26,114.398,165.38z"/>
	<path fill="#4A83FF" d="M114.398,164.625c0,0.047-0.052,0.094-0.156,0.135c-0.104,0.042-0.25,0.083-0.442,0.114
		c-0.193,0.036-0.416,0.062-0.666,0.078c-0.25,0.021-0.51,0.031-0.786,0.031c-0.271,0-0.531-0.01-0.781-0.031
		c-0.255-0.016-0.474-0.042-0.666-0.078c-0.193-0.031-0.343-0.073-0.448-0.114c-0.104-0.042-0.156-0.088-0.156-0.135
		c0-0.047,0.052-0.094,0.156-0.141c0.104-0.042,0.255-0.078,0.448-0.115c0.193-0.031,0.411-0.057,0.666-0.078
		c0.25-0.016,0.51-0.026,0.781-0.026c0.276,0,0.536,0.01,0.786,0.026c0.25,0.021,0.474,0.047,0.666,0.078
		c0.193,0.036,0.338,0.073,0.442,0.115C114.346,164.531,114.398,164.578,114.398,164.625z"/>
	<path fill="#4A83FF" d="M119.186,164.5c0,0.193-0.921,0.359-2.051,0.359c-1.135,0-2.051-0.167-2.051-0.359c0-0.078,0-0.755,0-0.755
		s1.343,0.286,2.051,0.286c0.479,0,2.051-0.286,2.051-0.286S119.186,164.391,119.186,164.5z"/>
	<path fill="#4A83FF" d="M119.186,163.751c0,0.052-0.052,0.094-0.156,0.141c-0.104,0.042-0.255,0.083-0.448,0.115
		c-0.193,0.031-0.411,0.057-0.666,0.078c-0.25,0.016-0.51,0.026-0.781,0.026c-0.276,0-0.536-0.01-0.786-0.026
		c-0.25-0.021-0.474-0.047-0.666-0.078c-0.193-0.031-0.338-0.073-0.442-0.115c-0.104-0.047-0.156-0.088-0.156-0.141
		c0-0.047,0.052-0.094,0.156-0.135c0.104-0.042,0.25-0.083,0.442-0.114c0.193-0.036,0.416-0.062,0.666-0.078
		c0.25-0.021,0.51-0.026,0.786-0.026c0.271,0,0.531,0.005,0.781,0.026c0.255,0.016,0.474,0.042,0.666,0.078
		c0.193,0.031,0.343,0.073,0.448,0.114C119.134,163.657,119.186,163.704,119.186,163.751z"/>
	<path fill="#4A83FF" d="M118.848,166.108c0,0.198-0.916,0.359-2.051,0.359c-1.129,0-2.045-0.161-2.045-0.359
		c0-0.078,0-0.755,0-0.755s1.343,0.291,2.045,0.291c0.484,0,2.051-0.291,2.051-0.291S118.848,165.999,118.848,166.108z"/>
	<path fill="#4A83FF" d="M118.848,165.364c0,0.047-0.052,0.094-0.156,0.135c-0.104,0.042-0.25,0.083-0.442,0.115
		c-0.193,0.036-0.416,0.062-0.666,0.078c-0.25,0.021-0.51,0.026-0.786,0.026c-0.271,0-0.531-0.005-0.781-0.026
		c-0.255-0.016-0.474-0.042-0.666-0.078c-0.193-0.031-0.343-0.073-0.448-0.115c-0.104-0.042-0.156-0.088-0.151-0.135
		c-0.005-0.047,0.047-0.094,0.151-0.141c0.104-0.042,0.255-0.078,0.448-0.114c0.193-0.031,0.411-0.057,0.666-0.078
		c0.25-0.016,0.51-0.026,0.781-0.026c0.276,0,0.536,0.01,0.786,0.026c0.25,0.021,0.474,0.047,0.666,0.078
		c0.193,0.036,0.338,0.073,0.442,0.114C118.796,165.27,118.848,165.317,118.848,165.364z"/>
	<path fill="#4A83FF" d="M123.37,165.291c0,0.198-0.916,0.359-2.051,0.359c-1.135,0-2.051-0.161-2.051-0.359
		c0-0.078,0-0.755,0-0.755s1.343,0.291,2.051,0.291c0.479,0,2.051-0.291,2.051-0.291S123.37,165.177,123.37,165.291z"/>
	<path fill="#4A83FF" d="M123.37,164.536c0,0.047-0.052,0.094-0.156,0.141c-0.104,0.042-0.255,0.078-0.448,0.115
		c-0.193,0.031-0.411,0.057-0.661,0.078c-0.255,0.016-0.515,0.026-0.786,0.026s-0.536-0.01-0.786-0.026
		c-0.25-0.021-0.474-0.047-0.666-0.078c-0.193-0.036-0.338-0.073-0.442-0.115c-0.104-0.047-0.156-0.094-0.156-0.141
		c0-0.047,0.052-0.094,0.156-0.135c0.104-0.042,0.25-0.083,0.442-0.114c0.193-0.036,0.416-0.062,0.666-0.078
		c0.25-0.021,0.515-0.026,0.786-0.026s0.531,0.005,0.786,0.026c0.25,0.016,0.468,0.042,0.661,0.078
		c0.193,0.031,0.343,0.073,0.448,0.114C123.318,164.443,123.37,164.49,123.37,164.536z"/>
</g>
</svg>
