<?xml version="1.0" encoding="utf-8"?>
<!-- Generator: Adobe Illustrator 24.3.0, SVG Export Plug-In . SVG Version: 6.00 Build 0)  -->
<svg version="1.1" id="Layer_1" xmlns="http://www.w3.org/2000/svg" xmlns:xlink="http://www.w3.org/1999/xlink" x="0px" y="0px"
	 viewBox="0 0 307.63 238.649" enable-background="new 0 0 307.63 238.649" xml:space="preserve">
<g>
	<path fill="#CD6D28" d="M249.812,57.125c-3.51-10.2-10.94-13.98-21.34-13.2c-3.27,0.24-6.58-0.2-9.87-0.31l-19.12,0.06h-0.75
		l-71.16,0.23l-4.27,0.02c-2.89,0.02-5.75,0.02-8.64,0.04c-2.29-0.02-4.6,0-6.89,0.07c-14.01,0.38-17.85,4.16-17.83,17.96
		c0,16.29,0.53,32.56,0.29,48.84c-0.16,9.62,2.82,11.64,11.69,7.55c22.52-10.35,45.28-20.14,67.95-30.12
		c5.18-2.29,10.52-4.44,15.65-0.2c5.14,4.25,3.83,9.83,2.76,15.39c-6,30.87-11.85,61.77-17.76,92.65c-1.2,6.2-1.87,13.04-9.85,14.29
		c-0.63,0.1-1.24,0.15-1.81,0.16c-6.69,0.12-9.74-5.33-11.75-10.83c-3.49-9.63-8.29-10.03-17.4-6.2c-2.89,1.22-5.78,2.35-8.66,3.4
		c-35.32,12.78-70.21,12.14-103.67-9.87c-1.15-0.78-2.53-1.65-4.06,0.75c14.38,32.86,41.39,48.04,75.75,50.44
		c35.34,2.47,68.87-6.64,101.05-20.94c3.67-3.89,8.92-5.11,13.3-7.8c11.84-7.25,22.89-14.52,26.4-29.9
		c8.16-35.72,14.41-71.77,21.97-107.61C252.852,66.845,253.302,61.705,249.812,57.125z M137.502,201.705
		c6.6,0.16,10.11,4.45,9.7,10.75c-0.37,5.8-4.29,8.99-10.25,9.32c-5.9-0.71-9.71-3.99-9.75-9.86
		C127.152,205.545,130.942,201.535,137.502,201.705z M196.062,77.395l0.87-0.06C197.392,78.515,196.212,78.315,196.062,77.395z
		 M197.532,76.505c-0.07,0.14-0.18,0.27-0.32,0.38l0.4-0.62C197.592,76.355,197.572,76.425,197.532,76.505z"/>
	<path fill="#CD6D28" d="M245.498,132.695c1.612,3.776,4.824,2.434,7.652,2.425c12.182-0.038,24.376-0.39,36.542,0.036
		c12.545,0.439,19.408,8.185,17.673,20.233c-2.313,16.067-5.889,31.957-8.037,48.042c-1.687,12.63-12.107,6.299-18.101,9.43
		c-3.724,0.041-4.533-3.027-6.052-5.491c-9.337-15.146-22.787-15.143-32.534,0.017c-1.562,2.429-2.355,5.521-6.077,5.475
		c-4.358-1.947-10.253,0.068-13.334-5.171c-1.83-11.654,2.564-22.511,4.628-33.61c1.826-9.816,2.875-19.864,6.017-29.364
		C235.711,139.163,236.785,131.981,245.498,132.695z"/>
</g>
<g>
	<path fill="#3F3F3F" d="M187.895,217.309c1.216-5.319,6.446-5.66,10.059-7.775c14.105-8.261,22.571-19.153,25.862-36.239
		c7.473-38.795,13.867-77.854,23.775-116.164c3.687,0.023,7.442-0.394,11.048,0.157c8.374,1.279,12.988,6.186,10.178,14.729
		c-12.792,38.891-25.821,77.707-39.084,116.44c-2.77,8.088-9.943,12.69-17.044,16.731
		C204.693,209.739,196.784,214.549,187.895,217.309z"/>
	<path fill="#3F3F3F" d="M0,155.43c23.892,16.394,49.609,20.392,77.143,13.11c13.226-3.498,25.52-8.862,37.348-20.49
		c-13.249-1.581-24.057-2.871-34.865-4.161c-0.217-0.736-0.435-1.472-0.652-2.209c32.639-14.366,65.277-28.731,100.369-44.177
		c-6.792,35.712-13.096,68.858-19.399,102.004c-0.85,0.199-1.699,0.397-2.549,0.596c-2.654-5.385-5.639-10.636-7.876-16.189
		c-2.549-6.327-5.25-6.942-11.475-3.499c-27.126,15.006-55.987,21.227-86.644,13.365C29.276,188.108,12.016,175.405,0,155.43z"/>
	<path fill="#3F3F3F" d="M259.522,190.265c-13.5-0.11-20.96,7.23-22.96,22.6c3.31,14.3,10.83,21.15,22.92,20.89
		c11.58-0.26,18.65-7.05,21.74-20.89C279.142,197.355,272.442,190.385,259.522,190.265z M259.402,221.585
		c-6.63,0.13-10.6-3.71-10.62-10c-0.01-5.63,3.53-9.72,9.64-9.95c6.68-0.24,9.75,3.98,10.91,10.03
		C268.152,217.175,265.692,221.465,259.402,221.585z"/>
	<path fill="#3F3F3F" d="M158.862,210.555c-2.61-13.66-8.82-19.83-20.24-20.29c-7.81-0.32-13.53,1.77-17.57,6.66
		c-2.98,3.58-5.05,8.67-6.4,15.42c3.63,14.64,11.01,21.65,22.68,21.57c11.43-0.08,19.13-7.34,21.98-20.74
		C159.182,212.275,159.032,211.395,158.862,210.555z M147.202,212.455c-0.37,5.8-4.29,8.99-10.25,9.32
		c-5.9-0.71-9.71-3.99-9.75-9.86c-0.05-6.37,3.74-10.38,10.3-10.21C144.102,201.865,147.612,206.155,147.202,212.455z"/>
	<path fill="#373737" d="M186.159,0c23.553,0.027,32.296,10.653,27.877,33.731c-1.584,8.271-4.442,16.409-1.425,25.087
		c1.133,3.259-0.153,6.725-3.673,8.433c-3.018,1.464-5.822,0.686-8.014-1.788c-2.846-3.213-3.253-6.831-0.218-9.968
		c8.478-8.763,7.903-20.379,9.795-31.089c1.267-7.17-2.421-12.929-8.651-16.705c-16.081-9.747-43.661-1.077-49.583,16.63
		c-3.735,11.167-9.895,22.475-4.922,35.253c1.357,3.485-1.349,6.346-4.71,7.786c-3.009,1.29-5.835,0.721-8.066-1.772
		c-2.564-2.864-3.215-6.845-0.536-9.048c8.045-6.617,8.182-16.209,10.553-24.96C150.812,8.615,162.085-0.028,186.159,0z"/>
</g>
</svg>
