<?xml version="1.0" encoding="utf-8"?>
<!-- Generator: Adobe Illustrator 24.3.0, SVG Export Plug-In . SVG Version: 6.00 Build 0)  -->
<svg version="1.1" id="Layer_3" xmlns="http://www.w3.org/2000/svg" xmlns:xlink="http://www.w3.org/1999/xlink" x="0px" y="0px"
	 viewBox="0 0 172.803 267.067" enable-background="new 0 0 172.803 267.067" xml:space="preserve">
<g>
	<path d="M95.093,177.862c-5.77-0.182-11.218-0.353-17.231-0.543c0.353-13.569,0.672-27.469,1.084-41.367
		c1.079-36.352,2.08-72.707,3.475-109.047C82.207,19.369,83.262,6.03,86.54,3.278c3.774,2.886,4.476,19.166,4.6,23.366
		c1.447,48.754,2.768,97.511,4.107,146.268C95.288,174.419,95.158,175.93,95.093,177.862z"/>
	<path d="M76.924,207.165c0.207-7.042,0.439-14.933,0.69-23.458c5.951,0.296,11.426,0.568,17.896,0.889
		c0.209,7.362,0.436,15.372,0.685,24.15C89.723,208.216,83.813,207.731,76.924,207.165z"/>
</g>
<g>
	<path fill="#F50016" d="M79.105,0.206l-4.03,102.479L43.197,58.683c2.355-5.98,6.527-14.164,8.446-17.833l12.539,20.652
		l-6.75-16.57c-2.235-5.487-1.695-11.705,1.394-16.761C69.389,10.879,79.105,0.206,79.105,0.206z"/>
</g>
<g>
	<path fill="#E19059" d="M22.852,149.105c-1.536-0.119-3.002-0.313-4.399-0.567c-9.546-1.741-16.71-9.656-17.962-19.279
		c-0.526-4.046-0.632-8.166-0.305-12.285c0.068-0.863,0.194-1.674,0.291-2.512c6.342,8.557,13.763,12.567,13.763,12.567
		c-2.572-2.235-4.677-4.728-6.401-7.307c-5.075-7.591-5.525-17.344-1.692-25.632c5.909-12.778,16.977-18.984,16.977-18.984
		c-16.763,66.748,33.203,105.62,33.203,105.62c-17.368-10.379-33.843-11.966-42.348-21.505c-2.727-3.058-5.053-6.398-6.993-9.932
		C15.855,151.421,22.852,149.105,22.852,149.105z"/>
	<path fill="#E19059" d="M149.808,149.191c1.536-0.111,3.004-0.297,4.402-0.544c9.555-1.691,16.761-9.569,18.062-19.185
		c0.547-4.043,0.674-8.163,0.369-12.284c-0.064-0.864-0.185-1.675-0.278-2.513c-6.386,8.523-13.829,12.495-13.829,12.495
		c2.583-2.222,4.702-4.704,6.439-7.274c5.114-7.565,5.615-17.315,1.826-25.623c-5.842-12.808-16.878-19.072-16.878-19.072
		c16.414,66.835-33.753,105.445-33.753,105.445c17.422-10.288,33.905-11.789,42.46-21.284c2.743-3.044,5.086-6.371,7.045-9.895
		C156.792,151.544,149.808,149.191,149.808,149.191z"/>
</g>
<g>
	<path fill="#FF7957" d="M110.995,133.823l29.648-17.885c0,0,0,0,0.002,0.09c-0.016,0.512-0.017,2.769-0.493,6.333
		c0.002,0.06-0.028,0.061-0.056,0.152c-0.328,2.386-0.88,5.38-1.752,8.774c-2.676,10.243-8.532,24.274-21.282,38.187
		c0,0-8.793,8.842-10.858,21.687l0.001,0.03c-0.231,1.481-0.403,2.96-0.423,4.465l-4.271,0.114l-2.567-75.952l39.614-32.416
		c0.036,0.21,0.072,0.45,0.109,0.69c0.207,0.988,0.354,1.977,0.5,2.966c0.176,0.958,0.322,1.917,0.438,2.877
		c0.187,1.379,0.375,2.789,0.502,4.17c0.002,0.017,0.004,0.035,0.006,0.052c0.366,3.254-0.816,6.492-3.096,8.843L110.995,133.823z"
		/>
</g>
<g>
	<path fill="#FEFF44" d="M137.522,82.405l-38.788,31.762L94.816,0c0,0,9.677,10.72,20.138,28.047
		c3.061,5.07,3.57,11.288,1.309,16.762l-6.838,16.558l12.633-20.591c1.904,3.681,3.782,7.543,5.545,11.559L109.646,83.15
		l22.38-19.587C134.201,69.583,136.084,75.883,137.522,82.405z"/>
</g>
<g>
	<path fill="#FFD541" d="M40.954,63.806l33.364,45.822l-3.416,86.338l-4.27-0.136c-0.04-1.566-0.174-3.046-0.398-4.498
		c-1.997-12.886-10.744-21.774-10.744-21.774c-16.894-18.629-21.56-37.47-22.819-47.082c0.002-0.06-0.026-0.121-0.025-0.151
		c-0.458-3.566-0.446-5.854-0.46-6.336c0.003-0.09,0.004-0.121,0.004-0.121l29.554,18.069l-22.53-23.467
		c-4.628-4.821-6.676-11.53-5.663-18.136C35.083,82.347,37.728,72.767,40.954,63.806z"/>
</g>
<g>
	<path fill="#3F3F3F" d="M86.951,267.067c-10.741-10.896-18.284-23.288-16.68-39.559c0.857-8.698,7.825-13.752,17.513-13.27
		c8.658,0.43,15.332,6.243,14.958,14.483c-0.252,5.559-1.853,11.332-4.093,16.469C95.423,252.591,91.068,259.501,86.951,267.067z"/>
</g>
</svg>
