<?xml version="1.0" encoding="utf-8"?>
<!-- Generator: Adobe Illustrator 24.3.0, SVG Export Plug-In . SVG Version: 6.00 Build 0)  -->
<svg version="1.1" id="Layer_7" xmlns="http://www.w3.org/2000/svg" xmlns:xlink="http://www.w3.org/1999/xlink" x="0px" y="0px"
	 viewBox="0 0 232.054 232.054" enable-background="new 0 0 232.054 232.054" xml:space="preserve">
<g>
	<path fill="#373738" d="M116.026-0.611c-64.42,0-116.64,52.22-116.64,116.64s52.22,116.64,116.64,116.64
		s116.64-52.22,116.64-116.64S180.446-0.611,116.026-0.611z M115.986,225.289c-60.26,0-109.29-49.03-109.29-109.29
		c0-60.27,49.03-109.3,109.29-109.3c60.27,0,109.3,49.03,109.3,109.3C225.286,176.259,176.256,225.289,115.986,225.289z
		 M115.986,8.639c-59.19,0-107.35,48.15-107.35,107.36c0,26.03,9.32,49.94,24.8,68.55c0.83,1,1.68,1.99,2.56,2.96
		c19.66,21.98,48.24,35.84,79.99,35.84c59.21,0,107.36-48.16,107.36-107.35C223.346,56.789,175.196,8.639,115.986,8.639z
		 M116.026,216.519c-55.5,0-100.49-44.99-100.49-100.49s44.99-100.49,100.49-100.49s100.49,44.99,100.49,100.49
		S171.526,216.519,116.026,216.519z"/>
</g>
<g>
	<path fill="#000D44" d="M136.273,77.724c0,1.62-0.316,3.104-0.842,4.282c-0.705,1.568-1.778,2.557-2.988,2.557
		c-0.126,0-0.253-0.011-0.389-0.021c-1.441,5.45-3.956,10.396-6.061,14.141c-2.452,4.388-6.513,13.584-9.954,21.696
		c-0.263,0.621-0.526,1.252-0.789,1.862c-0.652,1.547-1.263,3.03-1.841,4.409l-0.095-0.158l-1.221,3.146l-1.326,3.388v0.011
		c-0.621,1.515-0.979,2.399-0.979,2.399l0.032,0.032l16.172,15.225l-13.689,25.768l-12.511,23.537
		c1.263-11.174-3.43-14.72-6.303-18.518c-0.894-1.178-2.083-2.904-3.483-5.019c-0.431-0.631-0.863-1.305-1.315-1.999
		c2.725,0.936,5.072,1.568,6.892,1.999c2.525,0.6,4.019,0.779,4.019,0.779c-0.6-0.253-1.2-0.505-1.789-0.779
		c-2.841-1.305-5.503-2.894-7.976-4.63c-3.483-2.441-6.429-5.577-8.702-9.165c-1.862-2.915-3.788-5.945-5.692-8.923
		c8.47,3.367,14.583,4.135,14.583,4.135c-11.395-4.651-20.244-14.036-25.042-20.023c-1.494-2.178-2.862-4.051-3.988-5.492
		c3.441-2.147,6.25-5.335,6.418-5.524c-2.673,1.968-7.46,4.188-7.46,4.188c-11.564,3.851-23.043,2.083-30.787-2.01
		c-5.766-3.041-9.459-7.386-9.575-11.669c-0.105-3.935,4.272-11.721,9.575-19.729c7.155-10.795,15.941-21.991,17.582-24.674
		c1.505-2.431,3.072-5.524,6.471-7.05c4.03-1.81,11.521-6.387,16.435-6.397c1.81,0,7.734,5.356,8.312,6.124
		c1.294,1.726,0.8,3.114,1.105,7.502c0.189,2.82-6.818,2.641-4.356,2.757c1.894,0.074,3.556,2.83,1.147,4.177
		c-0.884,0.484-4.409,0.873-6.639,1.2c-1.673,0.231-4.956-1.147-7.681-0.915c-2.315,0.2-5.471-1.126-8.996,2.136
		c0.2-0.095,1.873-0.884,3.925-1.263c-0.274,0.231-0.558,0.505-0.873,0.821c-6.797,6.555-9.259,17.256-10.059,22.001
		c-4.924,3.167-6.902,7.449-7.144,8.018c2.515-3.809,6.808-5.608,6.808-5.608c5.387-3.272,11.648-1.852,14.973-0.673
		c-3.788,3.146-4.461,6.65-4.461,6.65c2.483-3.841,6.829-5.671,6.829-5.671c16.761-8.102,23.201-4.103,30.135-1.441
		c-0.274,0.116-0.558,0.242-0.852,0.368c-12.889,5.976-25.084,4.009-25.715,3.904c0.694,0.263,14.141,5.24,26.568-1.915
		c8.996-5.177,20.57,1.578,21.086,1.894c-0.379-0.337-6.923-5.903-15.257-5.513c1.357-1.063,2.82-2.473,4.356-3.946
		c-2.894-3.483-5.482-9.354-7.134-15.614c-0.2,0.053-0.4,0.074-0.6,0.074c-2.115,0-3.819-3.062-3.819-6.839
		c0-2.988,1.063-5.524,2.546-6.471c0,0,2.778,2.041,2.957,6.04c0,0,0.789-4.482-2.873-8.249c0.189-2.788,0.768-5.229,1.81-7.102
		c4.566,2.567,9.038,2.567,9.038,2.567c-5.587-1.641-7.155-2.273-8.26-4.177c-0.547-0.957-1.42-4.872,0.621-4.651
		c5.934,0.642,10.995,1.473,18.024,1.789c7.471,0.347,12.405,1.641,15.625,5.513c1.82,2.189,2.557,3.967,2.967,7.008
		c-2.41,2.578-1.883,5.577-1.883,5.577c0.126-2.757,2.041-4.167,2.041-4.167c0.6,0.442,1.105,1.147,1.505,2.02
		C135.957,74.599,136.273,76.093,136.273,77.724z"/>
</g>
<g>
	<path d="M210.746,117.349c-0.274,10.038-29.061,23.537-49.242,16.824c0,0-15.13,23.274-17.593,32.081
		c-1.82,6.492-0.547,12.269,12.3,24c-19.139,11.816-47.075-0.684-47.075-0.684l11.595-13.11l14.699-16.614l11.269-12.732
		L135.43,136.34l-1.747-1.662l-1.094-1.042l1.073-1.883l1.768-3.083l1.463-2.567h-0.032l1.62-2.862l1.631-2.862l5.871-10.375
		c10.69,3.525,20.728-0.189,21.328-0.421c-0.547,0.084-9.48,1.536-20.107-1.747l3.335-5.892c4.335-0.011,9.775,1.189,17.256,4.808
		c0,0,4.346,1.831,6.829,5.671c0,0-0.684-3.504-4.472-6.65c3.325-1.178,9.585-2.599,14.983,0.673c0,0,4.293,1.799,6.797,5.608
		c-0.242-0.568-2.21-4.851-7.134-8.018c-0.8-4.745-3.262-15.446-10.059-22.001c-0.316-0.316-0.6-0.589-0.873-0.821
		c2.052,0.379,3.725,1.168,3.925,1.263c-3.525-3.262-6.681-1.936-8.996-2.136c-2.736-0.232-6.018,1.147-7.681,0.915
		c-2.241-0.326-5.766-0.715-6.629-1.2c-2.41-1.347-0.758-4.103,1.136-4.177c2.462-0.116-4.545,0.063-4.356-2.757
		c0.295-4.388-0.189-5.777,1.094-7.502c0.579-0.768,6.503-6.124,8.323-6.124c4.914,0.011,12.395,4.588,16.425,6.397
		c3.399,1.526,4.966,4.619,6.471,7.05C186.441,77.608,210.999,108.111,210.746,117.349z"/>
</g>
</svg>
