<?xml version="1.0" encoding="utf-8"?>
<!-- Generator: Adobe Illustrator 24.3.0, SVG Export Plug-In . SVG Version: 6.00 Build 0)  -->
<svg version="1.1" id="Layer_7" xmlns="http://www.w3.org/2000/svg" xmlns:xlink="http://www.w3.org/1999/xlink" x="0px" y="0px"
	 viewBox="0 0 397.053 259.177" enable-background="new 0 0 397.053 259.177" xml:space="preserve">
<g>
	<path fill="#565656" d="M102.346,35.797c-4.389-0.876-6.064,0.28-4.526,3.717c1.218,2.721,2.84,5.637,5.373,7.649
		c7.681,6.103,8.099,12.647,4.683,20.357c-4.502,10.162-9.943,19.945-16.34,29.459c-7.399,11.004-7.875,22.781-5.89,34.742
		c1.914,11.532,4.282,23.022,5.971,34.573c1.153,7.885,0.808,15.807-2.04,23.538c-0.377,1.025-0.899,2.018-1.593,2.999
		c3.197-8.909,2.473-17.833,0.267-26.723c-1.492-6.012-3.63-11.931-5.03-17.953c-1.77-7.617-3.505-15.265-4.49-22.959
		c-1.319-10.306,2.502-19.718,9.506-28.54c5.08-6.398,9.899-12.967,14.034-19.75c3.038-4.984,4.247-10.579,3.407-16.113
		c-0.376-2.475-2.004-5.027-3.844-7.139c-3.356-3.852-6.331-7.753-7.065-12.426c-0.213-1.358-0.225-2.847,0.296-4.125
		c0.429-1.053,1.593-2.426,2.772-2.668c1.385-0.284,3.139,0.502,4.733,0.823C102.495,35.438,102.42,35.618,102.346,35.797z"/>
	<path fill="#565656" d="M232.019,211.781c-1.734-0.752-3.523-1.444-5.192-2.266c-16.339-8.04-31.553-17.105-46.016-26.852
		c-6.08-4.097-10.406-9.132-12.472-14.857c-26.32-72.928-31.63-82.605-43.966-87.505c2.23,0.848,4.554,1.588,6.674,2.564
		c9.756,4.489,14.808,11.393,17.628,19.196c3.317,9.177,7.081,17.836,10.935,26.882c6.102,14.323,9.074,27.824,16.088,41.928
		c1.57,3.158,6.679,7.649,9.876,10.094c14.146,10.815,29.108,21.007,45.769,29.791c0.353,0.186,0.654,0.424,0.979,0.637
		C232.22,211.523,232.119,211.652,232.019,211.781z"/>
	<path fill="#565656" d="M133.827,128.459c5.054,10.925,10.464,21.693,13.674,32.998c1.577,5.552,3.628,11.048,5.82,16.491
		c1.595,3.96,4.981,6.886,9.366,9.465c8.197,4.822,15.917,10.151,23.856,15.249c4.028,2.587,8.101,5.129,11.983,7.91
		c-3.98-2.115-8.003-4.182-11.932-6.356c-9.63-5.328-19.206-10.718-28.826-16.058c-5.466-3.034-8.816-7.215-10.404-12.124
		c-1.394-4.308-2.402-8.705-3.163-13.095c-1.811-10.442-5.643-20.54-9.394-30.66c-0.444-1.197-0.827-2.405-1.228-3.61
		C133.568,128.638,133.672,128.587,133.827,128.459z"/>
	<path fill="#565656" d="M160.377,51.78c0.676-2.611,1.3-5.232,2.044-7.83c0.643-2.243,1.314-4.488,2.167-6.683
		c1.553-3.999,0.741-7.785-1.459-11.416c-5.804-9.58-14.371-17.06-26.288-21.756c-9.121-3.594-18.101-3.644-26.477,1.65
		c-0.084,0.053-0.248,0.023-0.723,0.055c4.349-3.477,9.295-5.347,15.083-5.718c8.253-0.529,15.675,1.545,22.483,5.102
		c9.393,4.907,16.5,11.358,19.67,20.247c1.608,4.509,1.329,8.966-0.752,13.38c-2.018,4.281-3.865,8.614-5.787,12.925L160.377,51.78z
		"/>
	<path fill="#565656" d="M87.024,71.844C75.76,58.906,85.43,20.765,103.554,8.32C90.781,28.458,84.853,49.768,87.024,71.844z"/>
	<path fill="#565656" d="M70.978,111.573c13.54-7.384,21.811-45.962,19.385-62.542C85.456,70.442,84.986,93.394,70.978,111.573z"/>
	<path fill="#565656" d="M80.603,112.571c12.396-8.818,15.178-48.008,10.44-64.191C89.184,70.166,91.945,92.99,80.603,112.571z"/>
	<path fill="#565656" d="M63.79,116.848c13.54-7.384,21.811-45.962,19.385-62.542C78.267,75.717,77.797,98.669,63.79,116.848z"/>
	<path fill="#565656" d="M77.986,101.239c-11.925-10.847-2.694-49.804,8.122-64.851C81.347,58.1,70.759,80.015,77.986,101.239z"/>
	<path fill="#565656" d="M115.434,69.095c12.494,3.562,24.623,2.903,36.287-4.826C144.332,73.876,127.798,76.062,115.434,69.095z"/>
	<g>
		<path fill="#565656" d="M86.108,197.201c-1.333,2.873-2.469,5.786-3.281,8.752c-0.778,2.959-1.247,6.01-0.82,8.918
			c0.371,2.919,1.87,5.53,4.099,7.505c2.287,1.925,5.123,3.281,8.09,4.389c-3.151-0.301-6.319-1.265-9.057-3.164
			c-1.348-0.974-2.519-2.231-3.419-3.675c-0.883-1.456-1.44-3.104-1.691-4.767c-0.445-3.355,0.193-6.668,1.318-9.681
			C82.483,202.46,84.069,199.641,86.108,197.201z"/>
	</g>
</g>
<g>
	<path fill="#ABF9FF" d="M172.713,258.863c14.53-8.56,29.864-14.498,46.877-17.552c27.878-5.004,54.805-2.779,80.741,6.724
		c6.673,2.445,13.186,1.845,18.723-1.944c5.504-3.766,7.747-8.876,5.012-14.147c-1.614-3.11-4.961-6.543-8.7-7.981
		c-48.188-18.54-115.053-2.739-142.347,33.355C172.871,257.513,172.915,257.797,172.713,258.863z"/>
	<path fill="#ABF9FF" d="M143.724,249.792c-15.871,2.133-31.908,1.832-48.885-1.414c-27.818-5.32-53.06-16.275-75.677-32.893
		c-5.819-4.276,49.522,67.393,123.912,35.477C143.261,250.851,143.285,250.603,143.724,249.792z"/>
	<path fill="#ABF9FF" d="M368.322,183.002c-15.866-0.085-28.603,13.965-28.783,31.752c-0.183,17.993,12.557,32.729,28.394,32.844
		c16.044,0.117,28.967-14.392,29.119-32.694C397.196,197.568,384.155,183.087,368.322,183.002z"/>
	<path fill="#ABF9FF" d="M0,174.467c9.155,19.774,24.466,35.764,46.337,47.206c43.611,22.817,89.029,24.314,135.051,4.946
		c44.401-18.685,91.175-25.776,140.952-20.281c0.509,0.056,1.036,0.007,2.359,0.007c-1.472-0.969-2.395-1.68-3.439-2.249
		c-18.327-9.988-39.02-17.238-61.431-18.261c-36.879-1.684-67.195,12.43-99.065,24.747c-30.584,11.821-65.669,13.57-97.782,4.3
		c-25.271-7.295-47.239-21.089-61.665-39.15C0.951,175.274,0.442,174.888,0,174.467z"/>
</g>
</svg>
