<?xml version="1.0" encoding="utf-8"?>
<!-- Generator: Adobe Illustrator 24.3.0, SVG Export Plug-In . SVG Version: 6.00 Build 0)  -->
<svg version="1.1" id="Layer_3" xmlns="http://www.w3.org/2000/svg" xmlns:xlink="http://www.w3.org/1999/xlink" x="0px" y="0px"
	 viewBox="0 0 195.812 222.236" enable-background="new 0 0 195.812 222.236" xml:space="preserve">
<g>
	<path fill="#14A99D" d="M156.528,134.675c-17.576,30.903-46.105,45.503-79.787,51.596c-5.676,1.027-8.73,2.72-10.673,8.624
		c-3.829,11.635-12.934,17.959-24.78,20.46c-7.847,1.656-15.653,3.527-23.542,4.95c-2.829,0.51-7.155,4.837-8.379-1.415
		c-0.862-4.405-4.399-10.414,3.701-12.525c1.198-0.312,2.326-0.894,4.217-1.64c-19.044-3.734-9.01-19.873-13.668-29.598
		c-4.209-8.789,5.829-7.194,12.154-11.28c-5.88-0.481-8.856-0.528-11.758-1.012c-3.693-0.615-4.285-3.478-3.922-6.58
		c0.311-2.656,1.05-5.287,4.611-4.806c13.731,1.857,27.46-4.338,41.196,0.05c3.209,1.025,4.263,0.305,4.122-3.664
		c-0.684-19.277,6.313-36.277,19.305-49.861c24.991-26.13,52.376-92.682,53.444-94.319c7.342,27.647,16.048,53.828,36.946,75.538
		c3.482-15.126,0.662-28.596-1.328-42.081C158.528,35.107,179.838,94.117,156.528,134.675z M106.075,146.6
		c4.106-15.158,13.228-23.067,26.628-28.736c-14.406-4.989-22.618-13.76-26.851-28.964c-3.852,16.502-13.469,24.359-28.819,29.987
		C93.49,122.354,101.191,131.477,106.075,146.6z"/>
</g>
<g>
	<path fill="#29ABE0" d="M173.871,99.37c25.381,21.761,28.825,64.686,5.964,92.508c-25.757,31.347-72.191,37.55-102.714,11.55
		C134.401,191.586,166.434,156.72,173.871,99.37z"/>
	<path fill="#29ABE0" d="M151.447,14.623l1.952,6.149c0.13,0.41,0.451,0.73,0.86,0.86l6.149,1.952c1.23,0.39,1.23,2.131,0,2.521
		l-6.149,1.952c-0.409,0.13-0.73,0.451-0.86,0.86l-1.952,6.149c-0.39,1.23-2.131,1.23-2.521,0l-1.952-6.149
		c-0.13-0.409-0.451-0.73-0.86-0.86l-6.149-1.952c-1.23-0.39-1.23-2.131,0-2.521l6.149-1.952c0.409-0.13,0.73-0.451,0.86-0.86
		l1.952-6.149C149.316,13.393,151.057,13.393,151.447,14.623z"/>
	<path fill="#29ABE0" d="M188.892,0.646l1.367,4.305c0.091,0.287,0.316,0.511,0.602,0.602l4.305,1.367
		c0.861,0.273,0.861,1.492,0,1.765l-4.305,1.367c-0.287,0.091-0.511,0.316-0.602,0.602l-1.367,4.305
		c-0.273,0.861-1.492,0.861-1.765,0l-1.367-4.305c-0.091-0.287-0.316-0.511-0.602-0.602l-4.305-1.367
		c-0.861-0.273-0.861-1.492,0-1.765l4.305-1.367c0.287-0.091,0.511-0.316,0.602-0.602l1.367-4.305
		C187.4-0.215,188.618-0.215,188.892,0.646z"/>
	<path fill="#29ABE0" d="M173.865,34.746l1.102,3.47c0.073,0.231,0.254,0.412,0.485,0.486l3.47,1.102
		c0.694,0.22,0.694,1.202,0,1.422l-3.47,1.102c-0.231,0.073-0.412,0.254-0.485,0.485l-1.102,3.47c-0.22,0.694-1.202,0.694-1.422,0
		l-1.102-3.47c-0.073-0.231-0.254-0.412-0.485-0.485l-3.47-1.102c-0.694-0.22-0.694-1.202,0-1.422l3.47-1.102
		c0.231-0.073,0.412-0.254,0.485-0.486l1.102-3.47C172.663,34.052,173.645,34.052,173.865,34.746z"/>
</g>
</svg>
