<?xml version="1.0" encoding="utf-8"?>
<!-- Generator: Adobe Illustrator 24.3.0, SVG Export Plug-In . SVG Version: 6.00 Build 0)  -->
<svg version="1.1" id="Layer_1" xmlns="http://www.w3.org/2000/svg" xmlns:xlink="http://www.w3.org/1999/xlink" x="0px" y="0px"
	 viewBox="0 0 203.067 234.424" enable-background="new 0 0 203.067 234.424" xml:space="preserve">
<g>
	<path fill="#F26232" d="M185.021,160.009c0.04-1.47,0.52-3.15,0-4.38c-1.72-4.05-1.57-7.46-0.36-10.72
		c0.98-2.64,2.67-5.2,4.61-7.89c32.19-44.67,4.97-106.89-49.62-114.06c-12.3-1.62-24.41,0.17-35.37,4.61
		c-1.92,0.77-3.8,1.61-5.63,2.54c1.41,3,2.57,6.11,3.47,9.34c1.88-0.8,3.8-1.51,5.75-2.15c7.56-2.44,15.52-3.62,23.78-4.19
		c5.35,0.71,11.15,0.8,16.54,3.09c1.29,0.54,3.21,1.12,2.61,2.97c-0.64,1.94-2.48,1.08-3.84,0.72c-13.42-3.67-26.03-2.87-37.99,1.56
		c-1.94,0.72-3.87,1.54-5.77,2.45c0.48,2.36,0.83,4.78,1.08,7.25c0.14,3.62,1.52,7.16,0.89,10.85c0.35,1.79,1.31,3.06,3.25,3.02
		c2.04-0.06,2.71-1.5,2.79-3.32c-0.07-3.5-0.15-7-0.23-10.51c6,0.04,11.99,0.3,17.97,0.02c0.04-0.01,0.08-0.01,0.12-0.01
		c0.06-0.01,0.11-0.01,0.15-0.01c1.77-0.09,3.09,0.02,3.97,0.59c0.11,0.07,0.2,0.12,0.29,0.2c0.09,0.09,0.17,0.17,0.24,0.24
		c0.1,0.11,0.18,0.22,0.24,0.31c0.34,0.52,0.53,1.24,0.57,2.17c0,0.03,0,0.05,0,0.05v1.14l-0.31,98.01c0,0,0.01,0.81,0.04,2.02v0.7
		c0.01,0.85,0.04,1.84,0.05,2.87c0.02,0.57,0.03,1.15,0.04,1.73c0,0.44,0.02,0.86,0.02,1.27c0.01,0.33,0.01,0.63,0.02,0.94
		c0,0.17,0.02,0.35,0.02,0.52c0,0.16,0.01,0.33,0.01,0.48c0,0.19,0,0.35-0.01,0.53c11.06-7.68,20.84-16.97,29.23-27.9
		c-4.56,0.79-4.77,0.89-6.63-2.93c-5.55-11.36-6.5-23.04-2.27-35.11c2.89-8.24,2.62-16.44-1.37-24.33c-0.94-1.87-1.29-3.39,0.74-4.8
		c3.51-2.44,4.84-6,4.7-10.14c-0.07-2.48,0.15-4.14,3.36-2.64c3.32,1.56,6.52,1.24,9.03-1.81c1.24-1.51,1.98-0.83,3.05,0.34
		c6.3,6.95,7.49,20.98,1.97,28.58c-2.06,2.84-2.22,5.15-0.51,8.08c3.87,6.72,5.71,14.16,6.66,21.71c0.94,7.42,1.08,14.94-1.67,23.09
		c-3.34-7.1-4.57-14.14-8.51-19.9c-0.52,0.24-1.05,0.48-1.58,0.73c1.54,5.47,3.1,10.96,4.64,16.43c2.35,8.4,5.56,16.72,5.14,25.56
		c-1.36,28-13.71,50.8-33.72,69.89c-2.15,2.05-3.56,1.97-5.39-0.27c-3.91-4.74-7.93-9.48-12.96-12.98
		c-3.54-2.45-3.58-3.69-0.82-7.03c12.53-15.19,25.16-30.34,34.18-48.03c1.07-2.11,2.43-4.26,1.85-7.35
		c-0.91,0.76-1.49,1.02-1.71,1.45c-9.28,19.93-23.05,36.81-37.23,53.26c-4.99,5.81-7.66,10.53-3.06,17.41
		c0.88,1.32,1.93,3.48,0.3,4.53c-1.71,1.09-2.92-1.08-4-2.2c-7.27-7.45-14.24-15.18-21.77-22.35c-3.63-3.48-3.77-4.59,1.11-6.73
		c25.03-11.01,46.96-26.21,63.5-48.42c1.26-1.67,2.97-3.26,2.76-5.69c-0.47-0.08-0.69-0.19-0.8-0.12c-0.46,0.28-0.99,0.52-1.3,0.94
		c-18.52,25.4-42.98,42.8-72.27,53.67c-4.53,1.69-5.49,4.7-3.57,8.79c1.65,3.53,3.65,6.9,5.31,10.42c0.99,2.1,3.39,5.13,1.65,6.45
		c-2.39,1.79-4.58-1.55-6.21-3.19c-7.2-7.24-14.2-14.7-21.08-22.24c-3.17-3.47-7.31-6.06-10.32-10.75
		c21.8,0.15,41.97-4.3,60.91-13.49c5.26-2.57,10.3-5.4,15.1-8.55h-0.08c-2.26-0.02-4.53-0.02-6.79-0.02
		c0.27,0.17,0.54,0.37,0.8,0.63c-10.11,6.79-21.3,10.54-32.63,13.87c-13.3,3.9-27,4.84-40.8,4.68c-7.73-0.1-10.14,3.13-7.71,10.51
		c1.94,5.88,3.62,12.04,9.72,16.6c0.24-4.85-2.51-7.63-3.74-10.94c-0.58-1.56-1.31-3.08-1.85-4.66c-0.41-1.24-0.77-2.68,0.41-3.63
		c1.23-0.97,2.57-0.26,3.57,0.56c3.45,2.82,6.96,5.59,10.17,8.65c7.53,7.17,14.47,15.01,22.86,21.21c2.75,2.04,5.91,6.33,9.6,3.44
		c3.82-3-0.11-6.73-1.25-10.01c-1.05-3.04-3.23-5.73-3.07-10.24c8.42,5.68,15.18,11.95,21.99,18.13c2.21,1.99,4.2,4.21,6.4,6.21
		c1.51,1.36,3.15,2.95,5.4,1.55c2.1-1.33,1.7-3.52,1.5-5.56c-0.04-0.36-0.15-0.72-0.22-1.09c-0.38-2.11-2.5-4.83-0.51-6.18
		c2.45-1.67,4.86,1,6.81,2.5c2.92,2.27,5.75,4.75,8.19,7.52c2.95,3.34,5.28,3.69,8.74,0.47c12.56-11.72,22.49-25.16,28.14-41.53
		c0.54-1.56,1.08-3.12,2.03-5.86c1.44,10.95,2.91,20.67,3.89,30.45c0.32,3.22,1.82,6.01,2.25,9.11c0.22,1.55,1.5,3.29-0.27,4.63
		c-0.93,0.71-2.17,0.5-3.17-0.1c-1.67-1-1.85-2.61-1.74-4.38c0.18-2.98,1.12-6.05-0.9-9.02c-1.56,4.64-3.45,9.26-2.1,14.21
		c1.2,4.41,9.75,6.7,13.32,3.85c1.48-1.2,1.12-2.52,0.6-4C182.601,206.409,184.211,183.179,185.021,160.009z M97.341,51.169
		c-2.32,0-4.63,0.01-6.94,0.01c-0.02,0-0.03,0.01-0.05,0.01h0.05C92.711,51.179,95.031,51.169,97.341,51.169z M89.801,51.189
		c-0.02,0-0.03-0.01-0.05-0.01h-0.01c-2.76,0-5.52,0.01-8.29,0.02c2.77-0.01,5.53-0.01,8.29-0.01H89.801z"/>
</g>
<g>
	<path fill="#ED2A91" d="M134.531,54.699c0,0.03,0,0.05,0,0.05v1.14l-0.31,98.01c0,0,0.01,0.81,0.04,2.02v0.7
		c0.01,0.85,0.04,1.84,0.05,2.87c0.02,0.57,0.03,1.15,0.04,1.73c0,0.44,0.02,0.86,0.02,1.27c0.01,0.33,0.01,0.63,0.02,0.94
		c0,0.17,0.02,0.35,0.02,0.52c0,0.16,0.01,0.33,0.01,0.48c0,0.19,0,0.35-0.01,0.53c-1.04,0.74-2.11,1.46-3.2,2.16
		c-0.07,0.05-0.15,0.11-0.23,0.15c-0.01,0.01-0.03,0.03-0.05,0.03c-0.02,0.01-0.04,0.02-0.06,0.03c-0.01,0-0.01,0.01-0.02,0.01
		h-0.08c-2.26-0.02-4.53-0.02-6.79-0.02c-39-0.07-78.01-0.09-117-0.15c-0.29,0-0.55-0.4-0.84-0.64h-0.01
		c0.06-35.74,0.11-71.51,0.17-107.25c0-0.65,0.03-1.32-0.08-1.93c-0.02-0.13-0.05-0.26-0.09-0.38c-0.07-0.24-0.17-0.47-0.31-0.69
		c-0.04-0.08-0.1-0.15-0.16-0.22c-0.02-0.03-0.04-0.06-0.07-0.09c-0.08-0.1-0.18-0.2-0.29-0.29l-0.01-0.01
		c0.27-3.25,1.69-4.72,5.29-4.48c5.31,0.37,10.68,0.18,16.02,0.2c-0.11,3.47-0.21,6.94-0.31,10.4c-2.42,2.25-1.82,4.63,0.08,6.7
		c1.55,1.68,3.69,1.9,5.44,0.31c1.83-1.66,3.41-3.63,0.95-6.09c0.41-3.79-0.52-7.71,1-11.4c13.15-0.03,26.28-0.07,39.4-0.08h0.01
		c2.76-0.02,5.52-0.03,8.28-0.03c2.77-0.01,5.53-0.01,8.29-0.01h0.06c0.18,0.04,0.37,0.04,0.55,0h0.05
		c2.31-0.01,4.63-0.02,6.94-0.02c2.31-0.01,4.63-0.01,6.94-0.02c0.14,3.62,1.52,7.16,0.89,10.85c-0.23,0.28-0.43,0.56-0.6,0.83
		c-0.17,0.27-0.31,0.54-0.42,0.81c-0.83,2.02-0.04,3.89,1.91,5.38c0.38,0.29,0.77,0.5,1.18,0.65c0.18,0.06,0.36,0.11,0.54,0.14
		c0.16,0.04,0.32,0.06,0.48,0.07c0.34,0.02,0.68-0.01,1.01-0.09c0.27-0.07,0.53-0.16,0.78-0.29c0.5-0.26,0.98-0.65,1.39-1.16
		c1.32-1.64,2.05-3.42,1.13-5.11c-0.14-0.26-0.32-0.52-0.55-0.77c-0.23-0.26-0.49-0.51-0.81-0.76c-0.07-3.5-0.15-7-0.23-10.51
		c6,0.04,11.99,0.3,17.97,0.02c0.04-0.01,0.08-0.01,0.12-0.01c0.06-0.01,0.11-0.01,0.15-0.01c1.77-0.09,3.09,0.02,3.97,0.59
		c0.11,0.07,0.2,0.12,0.29,0.2c0.09,0.09,0.17,0.17,0.24,0.24c0.1,0.11,0.18,0.22,0.24,0.31
		C134.301,53.049,134.491,53.769,134.531,54.699z"/>
</g>
<g>
	<path fill="#1C0D33" d="M111.211,61.696c-0.089,1.829-0.758,3.267-2.799,3.323c-1.94,0.045-2.899-1.227-3.245-3.022
		c0.636-3.691-0.747-7.225-0.892-10.849c-0.245-2.464-0.602-4.884-1.082-7.248c-0.301-1.505-0.658-2.988-1.082-4.449
		c-0.892-3.234-2.052-6.344-3.468-9.344c-2.386-5.029-5.519-9.712-9.478-14.005C77.683,3.682,61.281,3.426,49.384,15.524
		c-9.689,9.857-14.607,22.033-15.621,35.792c-1.527,3.691-0.591,7.604-1.003,11.396c-2.698,3.535-4.906,3.501-6.478-0.914
		c0.112-3.468,0.212-6.935,0.323-10.403c2.163-9.333,3.981-18.766,8.641-27.318c3.601-6.59,8.017-12.51,14.005-17.082
		C62.641-3.253,79.333-2.138,91.721,9.67c5.542,5.274,9.589,11.317,12.555,17.896c1.427,3.122,2.609,6.378,3.59,9.734
		c0.402,1.36,0.769,2.754,1.104,4.148c0.346,1.416,0.658,2.843,0.948,4.293c0.357,1.817,0.702,3.635,1.059,5.452
		C111.055,54.694,111.133,58.195,111.211,61.696z"/>
	<path fill="#1C0D33" d="M6.299,59.277C6.244,95.024,6.188,130.783,6.132,166.53c-4.505-2.074-6.155-5.363-6.099-10.503
		c0.279-22.791,0.446-45.593-0.011-68.373c-0.223-11.106,1.249-21.687,5.274-31.979C6.422,56.645,6.299,57.983,6.299,59.277z"/>
</g>
</svg>
