<?xml version="1.0" encoding="utf-8"?>
<!-- Generator: Adobe Illustrator 24.3.0, SVG Export Plug-In . SVG Version: 6.00 Build 0)  -->
<svg version="1.1" id="Layer_6" xmlns="http://www.w3.org/2000/svg" xmlns:xlink="http://www.w3.org/1999/xlink" x="0px" y="0px"
	 viewBox="0 0 178.97 198.477" enable-background="new 0 0 178.97 198.477" xml:space="preserve">
<g>
	<path fill="#85C346" d="M178.474,100.956c1.687,14.595-0.947,28.441-7.57,41.23c-4.423,8.54-12.925,12.481-21.815,14.996
		c-16.133,4.565-32.437,2.751-48.669,0.545c-23.058-3.134-45.259-10.521-68.254-13.971c-6.612-0.992-13.294-1.645-19.968-2.03
		c-3.235-0.187-4.802-1.338-6.023-4.353C-15.539,83.766,22.584,22.227,80.294,17.674c10.322-0.814,20.461-0.317,30.485,2.147
		c2.753,0.677,4.872,0.142,7.095-1.567c12.452-9.571,26.703-14.963,42.046-17.71c1.546-0.277,3.119-0.451,4.687-0.534
		c1.986-0.105,3.546,0.663,3.884,2.786c0.378,2.375-0.914,3.724-3.143,4.196c-4.236,0.896-8.538,1.528-12.72,2.622
		c-29.055,7.602-48.291,25.402-56.56,54.589c-0.933,3.294-1.46,5.259,3.308,5.712c4.676,0.443,7.956,3.989,10.39,8.036
		c3.447,5.73,5.086,12.089,5.095,18.61c0.012,9.038,1.159,17.62,6.811,25.44c-8.543,2.579-14.171,0.688-16.928-7.77
		c-0.113,1.109-0.19,2.222-0.347,3.325c-0.206,1.447,0.728,3.563-1.358,4.036c-2.004,0.454-4.669,1.068-5.931-1.096
		c-1.215-2.084-1.485-0.712-2.915-0.454c-4.699,0.847-9.765,0.995-14.348-0.54c-2.294-0.769-0.337-4.366-1.747-6.401
		c-2.727,1.204-1.059,6.366-5.316,6.015c-2.741-0.226-6.026,0.078-8.046-1.325c-2.683-1.864,0.47-4.473,1.004-6.705
		c1.071-4.474,1.023-8.97,1.229-13.487c0.364-7.997,2.039-15.634,7.075-22.135c1.832-2.366,4.199-4.959,7.017-5.119
		c6.272-0.355,7.142-4.473,8.425-9.227c3.005-11.138,8.052-21.371,15.434-30.309c2.618-3.17,2.955-4.5-1.888-5.288
		C49.236,16.763-0.745,62.179,8.504,118.539c0.542,3.305,1.071,5.706,5.393,4.74c22.645-5.063,45.091-0.629,67.586,1.576
		c21.367,2.094,42.735,4.736,64.236,1.94c9.312-1.211,18.129-3.752,24.883-10.981C174.575,111.56,176.075,106.112,178.474,100.956z"
		/>
	<path fill="#85C346" d="M128.679,32.254c1.954,7.177,4.51,13.26,13.346,15.151c-9.234,1.051-11.603,7.377-13.185,14.912
		c-1.601-7.815-4.83-13.802-13.754-15.243C123.712,45.469,127.226,40.073,128.679,32.254z"/>
	<path fill="#85C346" d="M144.904,83.261c1.197,5.26,4.424,7.814,9.543,8.858c-4.942,1.615-8.716,4.108-9.555,9.835
		c-1.313-5.316-4.155-8.558-9.703-9.472C139.865,90.809,143.649,88.591,144.904,83.261z"/>
</g>
<g>
	<path fill="#0B5390" d="M163.697,166.131c-19.853,23.06-45.24,33.999-75.329,32.144c-34.25-2.112-59.887-18.88-77.65-49.676
		c13.757,0.571,26.025,3.006,38.227,5.765c24.527,5.545,48.847,12.06,74.079,14.001
		C136.639,169.413,150.056,168.935,163.697,166.131z"/>
	<path fill="#0B5390" d="M57.421,73.798c-4.617,1.662-8.242,2.345-11.127,4.188c-2.662,1.7-0.864,6.741-5.585,8.397
		c0.377-8.923-6.231-10.61-13.237-11.999c1.775-1.962,3.726-2.259,5.555-2.584c3.922-0.697,6.39-2.649,6.949-6.785
		c0.144-1.064,0.374-2.413,1.955-2.577c0.864-0.089,1.855,0.142,1.881,0.954C44.071,71.508,51.151,71.373,57.421,73.798z"/>
	<path fill="#0B5390" d="M67.273,45.855c1.039,5.45,4.03,8.302,9.599,8.767c-4.525,2.058-9.593,2.983-9.051,9.791
		c-2.303-4.613-3.625-9.43-10.201-9.025C62.788,53.752,66.415,51.412,67.273,45.855z"/>
	<path fill="#0B5390" d="M56.476,95.277c-3.281,0.998-4.622,3.285-5.874,7.381c-0.782-4.314-2.713-6.21-6.518-7.372
		c3.651-1.027,5.678-2.574,6.42-6.899C51.863,92.423,53.382,94.525,56.476,95.277z"/>
</g>
</svg>
