<?xml version="1.0" encoding="utf-8"?>
<!-- Generator: Adobe Illustrator 24.3.0, SVG Export Plug-In . SVG Version: 6.00 Build 0)  -->
<svg version="1.1" id="Layer_8" xmlns="http://www.w3.org/2000/svg" xmlns:xlink="http://www.w3.org/1999/xlink" x="0px" y="0px"
	 viewBox="0 0 254.373 218.562" enable-background="new 0 0 254.373 218.562" xml:space="preserve">
<g>
	<path fill="#FD0028" d="M239.275,24.725c-13.823-15.13-35.246-21.902-57.314-18.121l1.298,7.572
		c19.477-3.334,38.294,2.545,50.344,15.732c12.476,13.655,16.237,32.87,10.59,54.103c-10.999,41.358-97.604,109.248-118.236,124.921
		C105.788,193.259,21.179,125.369,10.18,84.01C4.533,62.778,8.294,43.563,20.77,29.908C32.82,16.721,51.638,10.842,71.114,14.176
		l1.298-7.572c-22.068-3.782-43.491,2.99-57.314,18.121C1.003,40.154-3.496,62.482,2.755,85.985
		c13.175,49.54,119.422,130.003,123.153,132.577c3.731-2.574,112.534-83.037,125.709-132.577
		C257.869,62.482,253.369,40.154,239.275,24.725z"/>
	<path fill="#FD0028" d="M155.15,15.041c-28.07-11.09-58.19,0-58.19,0l-9.7,24.25c3.58-0.79,7.06-1.2,10.39-1.2
		c15.61,0,24.54,5.88,28.4,10.81c3.87-4.93,12.8-10.81,28.41-10.81c3.33,0,6.81,0.41,10.39,1.2L155.15,15.041z M136.1,28.501h-7.51
		v7.52h-5.07v-7.52h-7.51v-5.06h7.51v-7.51h5.07v7.51h7.51V28.501z"/>
	<path fill="#FD0028" d="M173.189,46.132c-33.98-13.154-47.134,11.581-47.134,11.581s-13.154-24.734-47.134-11.581
		s-52.451,89.09,47.134,118.383C223.413,135.816,207.169,59.285,173.189,46.132z M133.558,154.855
		c1.536-5.051,2.583-13.402-2.392-22.665c0,0-9.894,5.945-19.1,4.694c-7.564-1.028-8.527-8.643-8.601-12.137
		c-0.074-3.494-2.267-3.482-3.519-4.312c-1.251-0.83-0.124-2.602,0.36-4.051c0.483-1.45-1.896-2.119-2.986-3.432
		c-1.09-1.313,1.995-2.887,1.537-5.105c-0.458-2.218-4.912-0.645-7.551-3.879c-2.639-3.234,3.372-2.713,6.285-11.616
		c1.561-4.772,3.381-8.828,0.53-23.197C96.088,58.905,99.2,52.576,99.2,52.576s67.769,13.219,71.611,82.044L133.558,154.855z"/>
</g>
<g>
	<path fill="#001A56" d="M126.055,164.515c99.585-29.292,80.799-104.442,47.134-118.383c-29.653-12.28-47.134,7.504-47.134,7.504
		S118.283,43.14,99.29,42.329c-12.075,12.978-3.717,31.592,12.189,40.606c15.928,9.025,33.734,15.855,32.384,38.456
		C142.514,143.993,126.055,164.515,126.055,164.515z"/>
	<path fill="#001A56" d="M63.906,0h7.701c5.584,0,10.111,4.527,10.111,10.111l0,0c0,5.584-4.527,10.111-10.111,10.111h-7.701
		c-5.584,0-10.111-4.527-10.111-10.111l0,0C53.796,4.527,58.323,0,63.906,0z"/>
	<path fill="#001A56" d="M182.765,0h7.701c5.584,0,10.111,4.527,10.111,10.111l0,0c0,5.584-4.527,10.111-10.111,10.111h-7.701
		c-5.584,0-10.111-4.527-10.111-10.111l0,0C172.654,4.527,177.181,0,182.765,0z"/>
</g>
</svg>
