<?xml version="1.0" encoding="utf-8"?>
<!-- Generator: Adobe Illustrator 24.3.0, SVG Export Plug-In . SVG Version: 6.00 Build 0)  -->
<svg version="1.1" id="Layer_1" xmlns="http://www.w3.org/2000/svg" xmlns:xlink="http://www.w3.org/1999/xlink" x="0px" y="0px"
	 viewBox="0 0 201.988 201.988" enable-background="new 0 0 201.988 201.988" xml:space="preserve">
<g>
	<path fill="#6D5800" d="M100.987,0.004c-55.78,0-100.99,45.21-100.99,100.99c0,55.77,45.21,100.99,100.99,100.99
		c55.77,0,100.99-45.22,100.99-100.99C201.977,45.214,156.757,0.004,100.987,0.004z M100.987,198.344
		c-53.76,0-97.35-43.59-97.35-97.35s43.59-97.35,97.35-97.35s97.34,43.59,97.34,97.35S154.747,198.344,100.987,198.344z"/>
	<polygon fill="#6D5800" points="149.389,56.061 149.389,98.294 137.486,90.606 114.979,104.581 111.193,106.936 108.973,108.306 
		108.973,43.547 83.395,59.401 83.395,87.26 77.395,83.199 77.395,56.061 114.979,32.765 	"/>
	<path fill="#6D5800" d="M100.985,187.534c-2.697,0-5.464-0.134-8.225-0.397l-2.263-0.216V99.155L66.748,83.082L40.708,99.22v64.198
		l-4.367-4.905c-14.125-15.863-21.905-36.295-21.905-57.528c0-47.723,38.826-86.549,86.549-86.549
		c47.724,0,86.549,38.826,86.549,86.549c0,21.238-7.777,41.669-21.898,57.528l-4.367,4.905v-49.999l-23.749-16.074l-26.047,16.138
		v73.438l-2.263,0.216C106.449,187.401,103.682,187.534,100.985,187.534z M95.497,182.345c3.692,0.252,7.283,0.252,10.975,0V110.7
		l31.166-19.311l28.63,19.375v39.081c10.531-14.056,16.266-31.162,16.266-48.861c0-44.966-36.583-81.549-81.549-81.549
		c-44.966,0-81.549,36.583-81.549,81.549c0,17.697,5.736,34.803,16.272,48.862v-53.41l31.159-19.311l28.63,19.376V182.345z"/>
	<path fill="#6D5800" d="M42.777,100.373l19.468-12.061v87.254c-7.156-3.725-13.706-8.446-19.468-13.982V100.373z"/>
	<path fill="#6D5800" d="M113.541,114.636l19.468-12.067v76.135c-6.153,2.538-12.679,4.379-19.468,5.395V114.636z"/>
</g>
</svg>
