<?xml version="1.0" encoding="utf-8"?>
<!-- Generator: Adobe Illustrator 24.3.0, SVG Export Plug-In . SVG Version: 6.00 Build 0)  -->
<svg version="1.1" id="Layer_4" xmlns="http://www.w3.org/2000/svg" xmlns:xlink="http://www.w3.org/1999/xlink" x="0px" y="0px"
	 viewBox="0 0 262.009 262.009" enable-background="new 0 0 262.009 262.009" xml:space="preserve">
<g>
	<path fill-rule="evenodd" clip-rule="evenodd" fill="#231F20" d="M121.027,221.377c0-5.153,4.178-9.33,9.331-9.33
		c5.152,0,9.33,4.177,9.33,9.33c0,5.153-4.178,9.331-9.331,9.331C125.205,230.707,121.027,226.53,121.027,221.377z"/>
	<path fill-rule="evenodd" clip-rule="evenodd" fill="#231F20" d="M79.47,262.009c0,0,2.433-12.009,14.854-25.704
		c7.986-8.805,20.502-18.392,28.599-23.73c2.142-1.413,4.254-2.78,7.823-2.78c3.568,0,5.593,1.326,7.212,2.379
		c8.066,5.249,21.02,15.101,29.21,24.131c12.42,13.695,14.854,25.704,14.854,25.704s1.408-13.97-12.644-31.024
		c-8.431-10.232-19.91-20.847-26.001-34.984c-5.108-11.857-12.537-59.643-12.631-59.03c-0.094-0.613-7.522,47.173-12.631,59.03
		c-6.09,14.136-17.569,24.751-26,34.984C78.062,248.04,79.47,262.009,79.47,262.009z"/>
	<path fill-rule="evenodd" clip-rule="evenodd" fill="#231F20" d="M140.982,40.633c0,5.153-4.178,9.33-9.331,9.33
		c-5.153,0-9.33-4.177-9.33-9.33c0-5.153,4.178-9.33,9.33-9.33C136.805,31.302,140.982,35.48,140.982,40.633z"/>
	<path fill-rule="evenodd" clip-rule="evenodd" fill="#231F20" d="M182.539,0c0,0-2.433,12.009-14.854,25.704
		c-7.986,8.805-20.502,18.392-28.599,23.73c-2.142,1.413-4.254,2.78-7.823,2.78c-3.569,0-5.593-1.326-7.212-2.38
		c-8.066-5.249-21.02-15.101-29.21-24.131C82.422,12.009,79.988,0,79.988,0S78.58,13.97,92.632,31.024
		c8.431,10.232,19.91,20.847,26.001,34.984c5.108,11.857,12.537,59.643,12.631,59.03c0.094,0.613,7.523-47.173,12.631-59.03
		c6.09-14.136,17.569-24.751,26.001-34.984C183.948,13.97,182.539,0,182.539,0z"/>
	<path fill-rule="evenodd" clip-rule="evenodd" fill="#231F20" d="M40.633,121.027c5.153,0,9.33,4.178,9.33,9.331
		c0,5.153-4.177,9.33-9.33,9.33c-5.153,0-9.331-4.178-9.331-9.33C31.302,125.205,35.48,121.027,40.633,121.027z"/>
	<path fill-rule="evenodd" clip-rule="evenodd" fill="#231F20" d="M0,79.47c0,0,12.009,2.433,25.704,14.854
		c8.805,7.986,18.392,20.502,23.73,28.599c1.413,2.142,2.78,4.255,2.78,7.823c0,3.569-1.326,5.593-2.379,7.212
		c-5.249,8.066-15.101,21.02-24.131,29.21C12.009,179.588,0,182.021,0,182.021s13.97,1.408,31.024-12.644
		c10.232-8.431,20.847-19.91,34.984-26.001c11.857-5.108,59.643-12.537,59.03-12.631c0.613-0.094-47.173-7.522-59.03-12.631
		c-14.136-6.09-24.751-17.569-34.984-26C13.97,78.062,0,79.47,0,79.47z"/>
	<path fill-rule="evenodd" clip-rule="evenodd" fill="#231F20" d="M221.376,140.982c-5.153,0-9.33-4.178-9.33-9.331
		c0-5.153,4.177-9.33,9.33-9.33c5.153,0,9.331,4.178,9.331,9.331C230.707,136.805,226.53,140.982,221.376,140.982z"/>
	<path fill-rule="evenodd" clip-rule="evenodd" fill="#231F20" d="M262.009,182.539c0,0-12.009-2.434-25.704-14.854
		c-8.805-7.986-18.392-20.502-23.73-28.599c-1.413-2.142-2.78-4.254-2.78-7.823c0-3.568,1.326-5.593,2.38-7.212
		c5.249-8.066,15.101-21.02,24.131-29.211c13.695-12.42,25.704-14.853,25.704-14.853s-13.97-1.409-31.024,12.644
		c-10.233,8.432-20.848,19.91-34.984,26.001c-11.857,5.108-59.643,12.537-59.03,12.631c-0.613,0.094,47.173,7.522,59.03,12.631
		c14.136,6.09,24.751,17.569,34.984,26C248.04,183.948,262.009,182.539,262.009,182.539z"/>
</g>
<g>
	<circle fill="#DD1C54" cx="177.415" cy="84.369" r="24.073"/>
	<circle fill="#DD1C54" cx="82.546" cy="82.885" r="24.073"/>
	<circle fill="#DD1C54" cx="82.546" cy="175.415" r="24.073"/>
	<circle fill="#DD1C54" cx="175.415" cy="175.415" r="24.073"/>
</g>
</svg>
