<?xml version="1.0" encoding="utf-8"?>
<!-- Generator: Adobe Illustrator 24.3.0, SVG Export Plug-In . SVG Version: 6.00 Build 0)  -->
<svg version="1.1" id="Layer_6" xmlns="http://www.w3.org/2000/svg" xmlns:xlink="http://www.w3.org/1999/xlink" x="0px" y="0px"
	 viewBox="0 0 291.999 233.248" enable-background="new 0 0 291.999 233.248" xml:space="preserve">
<g>
	<path fill="#008C82" d="M195.813,47.49c-5.45,3.121-10.126,7.207-13.855,12.031c-3.729,4.827-6.507,10.384-8.154,16.449
		l-24.305,89.465c-0.788,2.907-4.912,2.907-5.7,0L119.494,75.97c-3.232-11.935-11.253-22.319-21.998-28.476l-0.004-0.004
		c-2.627-1.503-1.559-5.516,1.467-5.516h29.121c4.005,7.826,10.829,12.978,18.575,12.978c7.745,0,14.569-5.151,18.575-12.978h29.117
		C197.375,41.974,198.44,45.987,195.813,47.49z"/>
	<path fill="#008C82" d="M214.607,44.188c2.032,5.942,2.845,12.099,2.46,18.183c-0.387,6.087-1.97,12.095-4.738,17.737
		l-40.825,83.235c-1.328,2.704,1.769,5.427,4.281,3.764l77.329-51.137c10.308-6.829,23.189-9.33,35.323-6.859l0.005,0
		c2.966,0.606,4.813-3.113,2.541-5.111l-21.869-19.229c-8.176,3.233-16.702,2.595-22.519-2.52c-5.816-5.114-7.54-13.489-5.38-22.011
		l-21.866-19.227C217.076,39.013,213.627,41.324,214.607,44.188z"/>
	<path fill="#008C82" d="M77.392,44.188c-2.032,5.942-2.845,12.099-2.46,18.183c0.387,6.087,1.97,12.095,4.738,17.737l40.825,83.235
		c1.328,2.704-1.769,5.427-4.281,3.764L38.884,115.97c-10.308-6.829-23.189-9.33-35.323-6.859l-0.005,0
		c-2.966,0.606-4.813-3.113-2.541-5.111l21.869-19.229c8.176,3.233,16.702,2.595,22.519-2.52c5.816-5.114,7.54-13.489,5.38-22.011
		l21.866-19.227C74.922,39.013,78.372,41.324,77.392,44.188z"/>
</g>
<g>
	<circle fill="#EEEFED" cx="140.116" cy="173.711" r="59.537"/>
</g>
<g>
	<ellipse fill="#FF7F00" cx="146.653" cy="25.749" rx="19.696" ry="25.749"/>
	
		<ellipse transform="matrix(0.6603 -0.751 0.751 0.6603 45.011 220.1597)" fill="#FF7F00" cx="265.881" cy="60.322" rx="25.749" ry="19.696"/>
	
		<ellipse transform="matrix(0.751 -0.6603 0.6603 0.751 -33.3288 32.2682)" fill="#FF7F00" cx="26.118" cy="60.322" rx="19.696" ry="25.749"/>
	<circle fill="#FF7F00" cx="140.117" cy="173.711" r="44.115"/>
</g>
</svg>
