<?xml version="1.0" encoding="utf-8"?>
<!-- Generator: Adobe Illustrator 24.3.0, SVG Export Plug-In . SVG Version: 6.00 Build 0)  -->
<svg version="1.1" id="Layer_1" xmlns="http://www.w3.org/2000/svg" xmlns:xlink="http://www.w3.org/1999/xlink" x="0px" y="0px"
	 viewBox="0 0 882.554 798.429" enable-background="new 0 0 882.554 798.429" xml:space="preserve">
<g>
	<path fill="#D61F26" d="M861.965,682.59l-135.771-58.107c-12.819,18.05-27.522,34.591-43.828,49.436l82.613,78.372
		c4.618,4.618,12.111,4.618,16.682,0l43.451-25.731l-38.314,38.36c-4.618,4.618-12.111,4.618-16.73,0l-89.399-89.446
		c-4.901,4.43-9.99,8.672-15.175,12.724l99.248,99.248c11.31,11.263,24.458,17.908,42.885-0.565l69.559-69.511
		C890.194,704.315,877.375,689.754,861.965,682.59z M209.689,179.186l3.912-3.911l-4.713-4.713l-4.242,4.194l-2.45-2.168
		c-2.263-1.98-5.797-1.885-7.917,0.236l-5.419,5.419l-20.595-20.594l10.934-13.242l-7.022-7.022l-12.065,12.111L76.84,66.224
		l2.12-2.073c1.838-1.838,1.838-4.76,0-6.598L22.786,1.378c-1.839-1.837-4.76-1.837-6.598,0L1.343,16.223
		c-1.791,1.838-1.791,4.76,0,6.598l56.174,56.174c1.839,1.839,4.76,1.839,6.598,0l1.508-1.555l83.273,83.273l-40.199,40.199
		c-11.217,11.168,3.11,20.406,8.812,19.275l46.373-4.665c3.299,0,7.305-1.178,10.745-2.969l0.801,0.848l0.849-0.848l51.745,55.185
		c10.651-14.751,22.62-28.512,35.722-41.047L209.689,179.186z M166.38,207.462l-39.445,0.047l19.322-23.327l22.856,22.903
		C168.17,207.321,167.228,207.462,166.38,207.462z M173.26,193.843l-19.134-19.134l3.959-4.807l19.557,19.558L173.26,193.843z"/>
</g>
<g>
	<path fill-rule="evenodd" clip-rule="evenodd" fill="#1D1D1B" d="M765.53,424.178c-0.667-5.643-1.365-11.286-2.033-16.929
		c-3.155-20.783-7.342-40.837-14.533-59.617c-1.183-2.669-2.336-5.4-3.519-8.1c-19.569-48.907-53.701-92.838-97.45-125.635
		c-6.917-5.219-14.078-10.437-21.511-14.624c-7.919-4.49-15.746-9.132-24.12-12.925c-10.376-4.672-20.934-8.707-31.674-12.712
		c-14.776-5.552-30.916-9.83-47.178-12.166c-3.429-0.486-6.826-0.941-10.255-1.305c-2.609-0.303-5.218-0.577-7.827-0.789v-0.03
		c-6.826-0.577-13.744-1.001-20.965-1.214c-1.061-0.03-2.033-0.182-3.004-0.334c-1.881-0.364-3.671-0.819-5.825-0.819
		c-0.819,0.394-1.608,0.789-2.427,1.183c-3.034,0-8.889-0.667-11.256,0.425c-2.731,0-9.648-0.151-11.681,0.789h-0.516
		c-1.213,0-2.579,0-3.519,0.394c-0.91,0.152-1.851,0.273-2.791,0.425c-1.335,0-2.974-0.091-4.035,0.394
		c-1.578,0-3.58,0.121-4.824,0.789c-1.73,0-3.884,0.091-5.249,0.819c-0.91,0.151-1.851,0.273-2.821,0.394
		c-0.789,0.152-1.608,0.273-2.397,0.425c-0.819,0.121-1.608,0.243-2.427,0.394c-2.761,0-5.249,0.971-7.646,1.517
		c-5.643,1.244-11.165,2.64-16.565,4.308c-22.572,6.948-43.477,15.625-63.834,26.881c-6.189,3.428-12.621,6.887-18.446,10.983
		c-12.743,8.95-24.848,18.355-36.802,29.126c-1.062,0.971-2.124,1.699-3.641,1.305c-0.121-0.03-0.243-0.061-0.334-0.091
		c0,1.153-1.911,1.729-1.608,4.035c-0.485,0-16.019,17.233-17.505,19.175c-3.823,4.763-7.615,9.527-11.408,14.29
		c-13.046,18.628-25.091,37.348-33.707,58.191c-8.526,20.57-16.504,43.021-19.842,66.109c-1.73,11.924-3.792,24.332-4.005,37.014
		c-0.607,37.833,3.823,70.448,14.593,102.729c4.339,13.046,9.405,25.273,15.322,37.439c1.911,3.732,3.823,7.463,5.764,11.195
		c4.126,6.553,7.706,13.44,11.984,19.903c8.283,12.621,17.688,24.908,28.064,36.255c4.399,4.824,8.829,9.648,13.683,14.077
		c1.881,1.73,3.762,3.459,5.643,5.219c1.911,1.699,4.217,3.277,5.886,5.37h0.395v0.394h0.424c0.121-0.516,0.243-1.062,0.395-1.608
		h0.394v0.425c0.577,0,0.395-0.152,0.455,0.364c0.091,0.91,0.182,1.547,0.637,2.215c1.335,2.002,3.823,3.337,5.643,4.794
		c5.006,4.005,10.225,7.767,15.473,11.438c19.721,13.683,43.658,26.244,66.443,34.041c21.056,7.19,42.809,12.803,66.292,15.443
		c64.167,7.251,129.579-8.374,178.426-37.924c13.167-7.979,26.88-16.474,38.743-26.941c7.858-6.917,15.443-13.896,22.785-21.45
		c2.579-2.639,5.128-5.309,7.706-7.949c26.122-30.613,46.45-63.349,59.222-100.727c2.427-7.099,5.067-14.472,6.796-21.875
		C764.498,489.043,767.35,458.006,765.53,424.178z M683.674,251.547c3.489,2.549,6.401,6.098,9.041,9.496
		c3.428,4.399,7.16,8.464,10.467,12.894c17.627,23.513,31.401,48.331,41.838,75.484c4.642,12.105,7.524,24.878,10.801,37.681
		c1.214,4.885,8.313,48.543,5.673,51.334c-1.396,1.457-11.013,0.758-13.44,0.668c-7.919,0.061-15.807,0.091-23.726,0.151
		c-4.46-0.243-10.133-0.667-14.502,0.212c0-0.576-0.758-1.122-0.91-1.699c-0.212-1.456-0.425-2.913-0.637-4.369
		c-1.335-21.389-5.522-41.17-11.68-59.981c-1.457-4.278-2.943-8.586-4.43-12.894c-3.792-8.009-7.19-16.11-11.195-23.937
		c-1.487-2.852-5.309-7.373-5.309-10.619c0-2.67,7.737-7.797,9.618-10.042c0.546,0,0.394,0.121,0.394-0.394
		c-0.546,0-0.455-0.152-0.698-0.486c-2.245-3.458-5.946-6.31-8.859-9.314c-7.403-7.585-14.806-15.2-22.209-22.815h-0.425
		C653.487,280.855,680.246,255.157,683.674,251.547z M646.66,599.63v-0.394c-3.398-1.972-5.825-5.613-8.586-8.343
		c-6.463-6.674-12.925-13.349-19.417-20.054c-1.457-1.578-6.129-5.158-6.31-7.16c0.03-0.182,0.03-0.364,0.061-0.577
		c0.637-2.366,4.278-5.825,5.855-7.888c4.885-6.523,9.344-13.076,13.44-19.994c4.369-7.463,7.494-15.382,10.801-23.391
		c1.73-4.248,3.701-8.708,4.794-13.259c1.092-4.278,2.154-8.586,3.246-12.864c0.607-3.064,1.214-6.128,1.851-9.193
		c0.243-2.427,0.516-4.854,0.789-7.281c0.607-5.643,1.183-11.438,1.456-17.293c0.091-2.397-0.213-5.006,0.364-7.16
		c0.151-0.576,0.455-0.91,0.91-1.274v-0.425c12.196,0,25.849-0.607,38.228,0.212c3.246,0.213,7.281-0.88,10.073,0.607
		c0.486,0,0.394-0.121,0.364,0.394c-0.455,9.526-0.273,18.477-1.274,27.76c-0.941,6.432-1.912,12.864-2.852,19.296
		c-1.244,8.525-4.308,16.899-6.523,25.03c-5.613,20.57-15.746,39.593-26.971,57.341c-2.822,4.46-6.189,8.465-9.223,12.803
		c-2.275,3.216-7.312,10.952-10.68,12.712C647.055,599.752,647.176,599.63,646.66,599.63z M355.008,507.945
		c-1.335-5.583-5.583-10.073-6.917-15.776c-1.062-4.612,0.758-9.739,0.213-14.472c-0.455-4.005-4.035-7.221-5.34-10.922
		c-0.394-1.153,0.121-2.397-0.121-3.58c-0.576-2.973-1.213-6.159-2.548-8.798c-3.428-4.429-6.887-8.89-10.346-13.319
		c1.881,0,3.034-2.639,4.551-3.307c2.579-1.123,6.22-1.578,9.132-1.911v0.789c-0.789,0-1.578,1.031-2.002,1.608
		c-0.637,0-0.061,1.426,0.091,2.002c0.971,4.308,1.942,8.617,2.943,12.894c0.242,2.609-0.395,5.006-0.213,7.646h9.648
		c-1.183-2.306-2.397-4.581-3.58-6.857c-0.789-2.306,1.183-4.612,1.153-6.826c-0.091-4.338-2.913-8.737-3.216-13.288h-1.214
		c0,0.667-0.698,0.546-1.213,0.576c-1.214,0.091-1.821-0.88-2.367-1.821c-0.637-1.213-1.274-2.488-1.911-3.701
		c-0.394-2.215,4.399-5.218,5.916-6.31c3.914,0.243,9.617,0.789,11.559,4.672c0.758,1.547,0.789,3.55,0.971,5.37
		c0.182,1.608,0.941,3.975,0.03,5.461c-1.213,1.881-4.369,3.064-6.129,4.217c0.03,0.243,0.061,0.516,0.091,0.758
		c0.334,1.244,1.123,3.155,2.306,3.853c1.456,0.88,4.945-0.91,5.583,1.153c0.728,5.461,1.456,10.892,2.215,16.323
		c2.367,13.076,7.251,27.214,14.138,38.136c4.339,6.887,9.102,13.349,14.229,19.903c0.364,0.485,0.789,1.183,0.758,1.911
		c-0.121,1.729-2.67,3.368-3.792,4.611c-3.853,4.218-8.009,8.708-12.378,12.561c-1.79,1.82-3.611,3.61-5.461,5.4
		c-0.819,0-1.396-0.789-1.851-1.335c-3.276-4.642-6.553-9.314-9.83-13.956c-1.547-2.275-4.186-4.248-5.158-6.857
		c-0.424-1.123-0.182-2.761-0.121-4.005C355.008,516.743,355.888,511.707,355.008,507.945z M305.646,600.54
		c-3.368-3.975-6.735-7.949-10.133-11.924c-7.949-10.588-14.866-21.45-21.147-32.857c-2.397-4.338-5.825-9.982-6.796-14.897
		c0.728,0,1.426-0.486,2.003-0.789c0.667,0.212,1.304,0.394,1.972,0.577c0.819,0.667,1.456,3.368,2.791,4.733
		c6.372,5.825,12.743,11.65,19.114,17.475c8.04,7.099,19.175,5.673,28.731,9.709c3.611,1.517,6.098,5.977,9.86,7.039
		c1.73,0.091,3.429,0.212,5.158,0.303c0,1.487-23.27,24.635-26.152,26.152v-0.394C308.923,604.606,307.224,602.33,305.646,600.54z
		 M600.211,295.509c7.039,4.005,14.077,7.979,21.086,11.954v0.819c-0.516,0-5.795,5.583-6.826,6.432v0.394h-0.819
		c0-0.971-1.487-2.821-2.002-3.61v-0.394c-1.244,0-2.882,6.402-3.611,7.646v0.394h-0.425v-0.394c-0.85,0-1.76-1.638-2.852-1.881
		c-2.427-0.576-5.765,0.424-8.01-0.576c-2.639-1.184-4.551-3.823-6.826-5.643c-3.974-2.973-7.979-5.977-11.953-8.98
		c-1.335-1.335-2.64-2.7-3.975-4.066c-1.729-1.638-3.853-3.853-4.854-5.916c-1.73-3.641,0.424-9.8-2.033-12.985
		c-1.577-2.063-4.065-3.337-6.037-4.824c-4.642-3.641-9.284-7.282-13.925-10.922c-2.154-1.73-4.855-3.277-6.736-5.37h-0.789
		c0,4.248,5.977,21.905,4.248,24.484c-0.698,1.001-5.946-1.153-6.766-1.487c-11.347-4.551-24.15-7.797-36.953-9.254
		c-6.554-0.546-13.137-1.123-19.691-1.669c-1.183,0-0.971-3.398-1.001-4.46c-0.334-5.977,0.182-11.893,0.182-18.082
		c0-9.193-0.456-19.023,0.424-27.791c4.824,0.212,9.618,0.394,14.442,0.546c5.916,0.698,11.802,1.365,17.718,2.032
		c14.168,2.306,27.791,5.795,40.776,10.467c2.215,0.789,7.221,1.942,8.707,3.823c1.851,2.306,2.64,8.192,3.307,11.317l5.825,23.392
		c0.637,2.579,0.94,5.309,2.184,7.585c0,1.092,2.245,0.061,2.731-0.151c5.218-2.306,10.437-4.581,15.655-6.887
		c2.427-1.062,5.219-3.064,8.161-2.609c0,3.004,3.459,5.552,2.791,8.738c-0.728,3.307-6.857,6.189-7.16,9.405
		C595.023,288.865,598.694,294.325,600.211,295.509z M654.275,437.467c-0.061-5.127-0.88-10.042-1.517-14.927
		c-1.092-8.586-3.307-16.474-5.309-24.514c-0.85-2.973-1.729-5.946-2.579-8.89c-0.455-5.4,5.886-8.707,3.792-14.472v-0.789h-0.395
		v0.394c-0.455,0-4.429,5.218-5.643,6.038v0.395h-0.395v-2.791c-0.516,0.121-1.061,0.243-1.608,0.394
		c-0.728-1.517-1.457-3.064-2.215-4.581c-2.639-5.036-4.338-11.044-7.857-15.534v-0.425c0.789,0,1.426,0.819,2.032,1.214
		c0,0.516-0.152,0.394,0.394,0.394c0-0.213,3.519-4.035,4.035-4.824h0.395c-0.061-0.091-0.121-0.212-0.182-0.303
		c-3.125-5.552-5.795-11.135-9.708-16.353c-1.244-1.638-2.306-3.519-3.975-4.854c-1.972-1.547-4.672-1.638-6.674-3.034
		c-0.546,0-0.395,0.121-0.395-0.394c0.668,0,1.426-1.608,1.76-2.184c2.518-4.156-1.365-4.612-0.971-8.252
		c0.182-1.73,5.735-7.039,7.252-8.495c2.821,0.576,4.733,2.579,6.978,4.278c2.731,1.972,5.461,3.974,8.192,5.946
		c1.85,1.76,3.701,3.519,5.582,5.279c2.761,2.367,4.824,5.765,7.919,7.706c1.547,0.94,8.677,1.638,10.588,0.91
		c1.881-0.758,6.159-6.159,7.949-5.127c1.699,0.971,4.763,7.646,5.825,9.648c9.193,17.445,15.807,35.406,20.873,55.127
		c1.184,4.672,8.01,40.898,5.128,43.992c-1.699,1.79-43.598,0.789-48.846,0.637v-0.425
		C654.002,438.65,654.275,438.043,654.275,437.467z M602.789,554.576c-0.424,0-0.546-0.182-0.789-0.425v0.819
		c-0.607,0-0.97-1.73-1.426-2.275c-1.699-2.124-4.824-4.521-5.612-7.069c-0.395-1.244-0.213-2.943-0.334-4.338
		c-0.273-2.7-2.518-14.168-3.944-15.685c-2.366-2.549-8.646,2.184-10.952,2.852c-1.032,0.121-2.063,0.243-3.095,0.334v-0.394h-0.395
		c0-0.546,0.061-0.516,0.334-0.85c1.699-2.063,7.342-6.341,8.009-8.222c1.275-3.58-1.699-8.283-0.819-12.196
		c0.667-2.761,2.912-5.401,4.308-7.827c1.76-3.611,3.489-7.221,5.249-10.831c1.365-3.732,2.73-7.464,4.096-11.226
		c1.001-3.519,2.003-7.039,2.973-10.588c0.212-0.243,0.425-0.516,0.637-0.758c1.517-1.487,4.49-1.881,6.553-2.427
		c5.431-1.517,16.171-3.398,18.962-8.707c0.85,0-2.063-4.429-2.427-5.218c-0.667,0-0.394-0.273-0.394-0.819
		c1.82,0,4.642,3.125,5.977,0.85c-0.273-2.275-5.856-3.519-7.585-2.063c-2.245,0-5.158-2.033-6.857-3.216h-0.394v-0.789
		c3.004,0,6.584,0.303,9.253-0.425c5.825,0.182,11.559,0,17.718,0c2.609,0,5.158,0.486,7.646,0v0.425
		c0.607,0,0.546,0.303,0.667,0.819c0.88,3.368,0.334,7.767,0.182,11.225c-0.364,7.585-0.758,14.987-2.306,22.087
		c-2.822,12.864-6.25,25.091-10.892,36.953c-4.794,12.318-12.045,23.513-19.66,34.496c-2.367,3.398-4.976,8.646-8.647,10.71
		C608.827,561.312,603.336,555.274,602.789,554.576z M605.611,563.011v0.819c-0.121,0-6.614,7.1-7.251,8.04
		c-1.122,0-1.79-1.547-2.154-2.367c-2.518-5.279-2.67-10.71-1.851-16.96C598.815,554.697,601.576,559.977,605.611,563.011z
		 M559.738,494.201c0-1.001,0.486-1.972,0.971-2.73c1.426-2.306,6.159-2.185,8.495-3.944c4.733-4.369,9.435-8.768,14.169-13.168
		c1.911-1.668,3.853-3.367,5.764-5.036c1.335-0.576,2.67-1.123,4.005-1.699h2.002c0,3.338-1.396,6.705-2.336,9.708
		c-2.457,7.737-5.825,14.745-9.739,21.693h-0.394v0.394h-0.395c-0.364-2.033-0.728-4.035-1.092-6.068
		c-0.607-3.428-0.182-8.889-5.583-6.796c-0.91,0.334-1.578,3.155-2.791,4.217c-1.699,1.366-10.164,3.489-12.682,3.823v-0.394
		H559.738z M544.75,331.461c-1.214,0.333,0.455,4.672-5.522,4.186c-1.972-0.152-3.701-1.426-5.4-2.215
		c-3.337-1.456-6.705-2.943-10.042-4.399c-13.471-4.612-27.943-7.585-43.719-7.069c0-1.638-0.789-2.973-0.789-4.854
		c0-9.86,0.486-19.599,0.334-29.369c-0.061-4.338-0.758-9.617,0.455-13.683c19.994,0,38.076,4.096,55.157,9.982
		c3.125,1.093,7.13,2.063,9.769,4.035c1.699,1.244,1.942,3.61,3.611,5.188c3.458,3.095,6.947,6.189,10.406,9.314
		c3.549,3.307,7.13,7.251,11.195,9.708c0,0.667,0.243,0.425,0.789,0.425c0-0.789,2.215-2.275,2.852-2.791
		c1.305-1.031,2.488-2.639,4.339-2.427c1.638,0.182,3.276,1.79,4.551,2.701c4.217,3.064,8.374,6.614,12.287,10.285
		c2.185,2.124,4.369,4.217,6.553,6.311v0.394c-0.243,1.093-24.514,25.728-26.365,26.517c-1.457,0.577-3.034,0.091-4.612,0.182
		c-2.215,0.152-5.492,2.154-6.735-0.789c-2.003-4.703,3.125-6.523,5.916-8.191h0.424c0-1.426-2.154-1.73-3.185-1.426
		c-1.547,0.455-2.852,1.699-4.49,2.033c-0.212-0.03-0.455-0.091-0.668-0.121c-2.093-0.667-3.914-3.306-5.522-4.733
		c-3.246-2.882-8.92-2.912-13.501-2.609v-0.789h0.395c1.274-1.911,2.943-2.275,4.46-3.61l1.183-1.638
		C547.511,331.825,546.116,331.643,544.75,331.461z M535.982,350.12c0,2.184-6.675,8.404-8.647,9.254
		c-1.517,0.273-3.064,0.546-4.612,0.819c-1.305,0-3.004-0.121-4.035,0.394c-3.216,0-4.884,1.305-7.251,2.822v0.394
		c-1.214,0-2.67-0.607-3.611-1.183h-0.394V361.8c0.486,0,2.882-4.46,3.216-5.219c0.667,0-1.093-6.371-1.214-7.646h-0.819
		c0,0.364-3.884,4.369-4.43,5.219h-0.394c0.061,0.121,0.091,0.212,0.121,0.333c1.638,4.126,0.91,3.247-2.124,5.309
		c-0.819,0.121-1.608,0.243-2.427,0.395c-3.034,0-11.317,1.517-13.683,2.821h-0.789c0,4.551-1.578,3.701-5.249,4.429v-0.424
		c-0.728,0-0.213-3.216-0.213-4.035c0-8.1-0.03-16.14-0.03-24.18c0-4.217-0.152-8.617,0.243-12.833
		c20.752,0,39.987,3.58,55.946,12.894v0.819c-0.91,0-2.67,2.397-3.216,3.216h-0.394v0.394c1.911,0,4.551-2.093,6.826-2.427v0.819
		c-0.395,0-4.339,4.49-4.824,5.218C533.404,346.903,535.436,349.543,535.982,350.12z M512.955,617.894
		c-1.184,0.364-2.367,0.698-3.52,1.062c-1.608,0-3.58,0.091-4.824,0.789c-0.819,0.152-1.608,0.273-2.427,0.394
		c-1.062,0.152-2.154,0.273-3.216,0.425c-1.213,0.121-2.427,0.243-3.61,0.394c-1.092,0.121-2.154,0.273-3.247,0.394
		c-2.093,0-5.127-0.455-6.826,0.394c-1.335-0.121-2.669-0.243-4.035-0.394c-0.819,0-0.698-1.305-0.728-2.003
		c0-8.465-0.03-16.899-0.061-25.364c0.577,0,1.183-0.486,1.608-0.789c5.916,0.03,11.802,0.091,17.688,0.121
		c2.245-0.061,7.282-0.607,9.011,0.607c2.185,1.517,3.307,4.976,4.43,7.221c1.214,2.397,3.064,4.915,3.337,7.737
		C516.96,613.253,517.02,616.499,512.955,617.894z M482.19,467.988c-0.151,1.456-0.303,2.912-0.455,4.369
		c-0.88,3.307-3.519,7.706-1.669,11.377c0,0.91,1.062,1.092,1.183,2.033c0.455,3.641-1.638,7.039-4.824,8.04v0.394h-0.394
		c0-1.517-1.274-2.184-1.82-3.337c-0.85-1.668-1.517-5.552-1.001-7.524c0-0.637-0.334-0.607-0.819-0.819v0.425
		c-0.516,0-0.424,0.061-0.607,0.485c-0.334,1.062-0.698,2.154-1.062,3.246c-1.396,2.397-3.095,1.547-3.55,5.097
		c1.851,0,2.852-1.668,3.216-3.216h0.394c0.304,0.819,0.577,1.638,0.88,2.457c0.304,2.124-0.728,4.763-1.668,6.402v0.394
		c-1.608-0.364-3.246-0.698-4.885-1.061c-13.38-2.701-25.091-12.379-31.765-24.271c-0.941-1.638-3.307-4.308-3.064-6.402
		c0.121-1.092,1.456-1.608,2.336-1.941c4.186-1.638,9.162-2.518,13.622-3.368c3.823-0.758,7.494-2.275,11.68-2.397
		c0,2.518-1.426,5.492-2.427,7.646v0.819c2.427,0,5.188,1.001,7.464,0.273c1.487-0.455,3.519-4.976,4.217-6.311
		c2.003,0-5.279-3.853-5.643-4.035c0-2.124,5.613-8.647,6.978-10.801c1.244-2.033,1.457-3.762,1.457-6.493
		c0-2.002,0.212-4.278-0.758-5.825c-1.092-1.699-3.519-2.943-5.128-4.035c-3.671-2.609-7.342-5.249-10.982-7.858h-0.395
		c-2.093,2.609-4.186,5.188-6.31,7.767c-4.278,5.552-8.556,11.104-12.833,16.626c-2.397,3.277-5.856,6.371-7.039,10.224h-0.789
		c-0.395-1.456-0.819-2.943-1.214-4.429c-1.335,0.273-2.67,0.546-4.035,0.819c0,2.063,1.183,4.186,1.85,6.098
		c1.881,5.552,4.581,10.861,7.646,15.898c1.669,2.578,3.338,5.188,5.006,7.767h0.394c-0.03,0.121-0.091,0.212-0.152,0.334
		c-1.76,3.186-7.16,7.585-10.012,10.437c-6.219,6.22-12.469,12.47-18.72,18.69c-2.973,2.943-5.946,5.855-8.95,8.768v0.394
		c-1.183,0-5.006-4.854-5.825-5.886c-14.745-19.69-25.151-42.354-25.151-69.355h0.394v-0.395c4.066,1.396,8.101,2.822,12.136,4.218
		c2.701,0.91,5.977,0.303,8.799,1.031c3.428,0.849,6.159,3.944,9.253,5.582c1.183,0.607,2.761,0.425,3.641,1.547
		c1.608,1.942,2.791,4.945,3.61,7.342c2.002,0,7.372-0.667,8.95-1.668c1.911-1.214,2.791-4.612,3.762-6.462
		c1.305-2.488,2.609-5.006,3.884-7.494c1.82-1.79,3.61-3.61,5.431-5.4c1.213-1.183,2.457-2.882,3.914-3.489
		c1.699-0.273,3.367-0.576,5.036-0.849c0.364-1.093,0.728-2.185,1.092-3.277c0.94-3.186,2.336-5.886,3.004-9.193
		c0.182-7.099,0.364-14.199,0.546-21.298c0.546-3.064,5.946-8.768,8.1-11.438c1.517-1.972,3.034-3.944,4.581-5.916
		c2.579-2.882,6.735-3.641,9.982-5.309c2.367-1.183,4.521-3.762,6.402-5.643c0.85-0.849,2.185-1.729,2.488-2.852
		c0.577-2.245-0.88-5.43-2.033-7.069c-1.456-2.063-14.715-12.682-16.626-13.168c-2.397-0.607-9.678,5.825-12.045,7.251
		c-2.822,1.668-6.25,1.972-9.466,2.822c-3.58,0.91-8.737,2.973-12.53,2.852c-2.791-0.091-5.552-1.062-8.101-1.638
		c-1.881-0.455-3.823-0.637-5.4-1.669c-1.396-1.244-2.791-2.488-4.187-3.732c0-2.033,5.249-6.007,6.735-7.342
		c11.59-10.528,26.335-18.143,41.201-22.3c3.61-0.91,7.221-1.79,10.831-2.7c3.337-0.637,6.705-1.244,10.042-1.851
		c1.517,0.03,3.914-0.273,4.702,1.123c1.153,2.154,0.516,6.614,0.516,9.344c0,9.496-0.061,19.023-0.091,28.549
		c-0.182,2.093-1.366,3.398-1.517,5.643c0.91,0,1.699,0.758,2.457,1.153c3.368,1.578,6.735,3.125,10.133,4.703
		c1.547,0.758,3.398,1.335,4.733,2.609c1.881,1.76,15.533,21.814,15.533,23.301c-0.091,1.82-3.185,2.822-4.278,4.065h-0.394
		c0.061,0.091,0.121,0.182,0.151,0.273c1.942,3.398,3.702,6.917,5.34,10.437c0.789,1.638,2.427,3.368,2.488,5.37
		c0.03,1.426-1.335,3.064-2.336,4.035c0,3.216,2.731,5.855,2.427,9.193c-0.213,2.336-1.912,4.43-2.822,6.493
		c-2.094,4.612-4.672,9.193-6.068,14.077c0,0.758-1.214,1.79-1.517,2.457c-0.486,1.032-1.092,2.731-2.094,3.398
		c-0.91,0.576-2.427,0.516-3.61,0.546c-4.733,0.061-8.495-0.485-11.286,3.247C481.827,466.41,482.19,467.32,482.19,467.988z
		 M333.164,399.634c0.94,0,1.547,1.153,1.547,2.002c0,2.67-3.489,6.735-4.521,9.345c-0.941,3.368-1.912,6.705-2.882,10.042
		c-0.94,3.004-4.187,16.535-5.977,17.84c-1.699,1.214-15.14,0.607-18.355,0.607v-0.394c-0.758,0-0.364-2.943-0.243-3.611
		c1.335-10.194,2.275-19.751,4.915-29.095c3.125-11.104,6.523-21.784,11.589-31.856c1.395-2.943,2.791-5.856,4.157-8.798
		c4.49-7.736,9.344-14.957,14.805-22.208c1.608-2.154,3.186-4.339,4.794-6.523c3.974-4.217,7.919-8.404,11.893-12.621
		c2.882,0.789,4.946,3.671,7.1,5.795c3.277,3.277,6.462,6.705,9.739,9.981c4.126,4.096,8.1,8.161,12.227,12.318
		c1.729,1.699,4.065,3.549,5.158,5.734c-0.546,0.121-1.062,0.243-1.608,0.394c-4.885,0-11.225-0.85-15.624,0.273
		c-2.852,0.698-6.675,3.823-9.102,5.522c-2.488,1.669-5.006,3.338-7.524,5.006c-3.368,3.337-6.736,6.644-10.103,9.951
		c-3.853,6.371-7.706,12.712-11.59,19.084C332.891,398.42,333.164,399.057,333.164,399.634z M474.727,321.297
		c-0.698,1.335-3.186,0.88-4.338,1.456c-1.214,0.152-2.397,0.273-3.61,0.425c-1.062,0.121-2.154,0.243-3.216,0.394
		c-0.819,0.121-1.608,0.273-2.427,0.394c-4.096,0-8.04,1.547-11.741,2.609c-15.352,4.308-29.186,11.316-41.656,21.298
		c-3.792,3.307-7.585,6.614-11.377,9.891v0.425h-0.425c-2.791-2.245-5.249-5.067-7.737-7.554
		c-4.581-4.672-9.193-9.344-13.774-14.017c-2.397-2.427-4.793-4.855-7.19-7.281c-2.7-2.548-5.856-5.128-7.919-8.192
		c-0.516,0-0.394,0.121-0.394-0.394c0.607,0,0.758-0.486,1.153-0.88c7.828-8.101,17.173-14.108,26.274-19.964
		c1.729-1.092,3.458-2.184,5.158-3.277c16.11-8.556,32.888-15.503,51.547-19.235c5.279-1.062,10.922-2.033,16.474-2.458
		c2.701-0.303,5.37-0.576,8.04-0.88h7.646c0,12.166,0.212,24.09,0.03,36.225C475.182,313.227,475.85,319.022,474.727,321.297z
		 M606.642,339.774c0.91,1.304,1.942,2.973,3.489,3.641c2.487,1.031,5.309,0.303,7.312,2.488c1.911,2.124,3.307,4.581,4.854,6.887
		c4.156,6.129,7.646,12.409,10.831,18.992c1.517,3.125,3.459,6.28,4.309,9.739c0.364,1.608-0.273,3.883-0.85,5.218v0.424h0.819
		c0-0.576,0.424-0.91,0.789-1.213v-0.395h0.819c0,0.516-0.151,0.395,0.394,0.395c0.273,0.971,0.516,1.911,0.789,2.882
		c0.213,1.79-0.364,3.58-0.789,5.158h0.819c0,0.728,1.183,0.304,1.638,0.758c0.455,0.85,0.91,1.669,1.365,2.518
		c2.912,10.376,5.401,20.691,6.28,32.129c0.212,2.791,0.91,6.038,0.364,8.859c0.698,0,0.182,0.424,0,0.819
		c-4.612,0-9.193,0.364-14.077,0.364c-2.306,0-5.613-0.758-7.646,0.03c-2.973,0-13.531,0.273-15.291-0.971
		c-1.395-1.001-4.308-8.495-4.612-10.346c-0.546-2.973,1.699-19.993,3.125-21.571c2.124-2.397,6.371-2.731,9.071-4.248
		c1.426-0.819,1.79-2.73,3.004-3.792c1.547-1.395,3.944-0.94,5.643-2.093c1.972-2.154,3.944-4.308,5.886-6.493
		c0-0.455-0.121-0.546-0.394-0.789v0.394c-1.457,0-2.67,1.821-4.096,2.124c-2.518,0.546-5.128-0.364-7.585-0.516v-0.394h-0.395
		c0-2.033,4.794-5.977,4.733-8.859c-0.03-1.79-2.245-3.337-3.428-4.521c-1.668-1.638-3.822-4.642-5.946-5.492
		c-1.578-0.637-3.55-0.424-5.431-0.455c-4.187-0.061-9.466,0.667-13.137-0.728c-2.275-0.88-4.429-5.825-6.22-7.676
		c-2.215-2.275-5.643-4.308-8.404-5.673v-0.394c-0.667,0-0.394-0.273-0.394-0.819c2.427,0,4.551,0.516,6.826,0.819
		c0-3.701-5.34-3.095-7.646-4.429h-0.395c0-1.73,18.962-18.568,21.329-21.723c1.184,0.667,2.094,1.608,2.822,2.822
		c0.546,0,0.394-0.152,0.394,0.394c-0.728,0-1.79,2.215-2.397,2.822C605.217,337.953,606.096,338.955,606.642,339.774z
		 M475.213,269.66h-0.394c0,0.607-6.523,0.334-7.646,0.789c-2.215,0-4.945-0.303-6.826,0.394c-0.941,0.152-1.881,0.273-2.821,0.425
		c-1.062,0.121-2.154,0.243-3.216,0.394c-1.092,0.121-2.154,0.243-3.216,0.394c-1.092,0.152-2.154,0.273-3.246,0.394
		c-1.305,0-2.609,0.212-3.611,0.819c-3.367,0-7.797,0.849-10.467,2.397c-5.309,0-12.621,3.155-17.263,4.946
		c-8.859,3.428-17.536,6.978-25.758,11.62c-7.403,4.126-13.956,9.193-20.965,14.017c-3.307,2.275-6.31,4.763-9.375,7.524
		c-1.365,1.183-2.882,2.215-3.914,3.762c-0.91,0-1.608-0.455-2.245-1.001c-11.044-11.074-22.087-22.147-33.161-33.221
		c-0.273-0.424-0.577-0.85-0.486-1.426c0.456-2.731,16.657-14.745,19.569-16.869c26.395-19.811,56.461-33.525,89.198-40.715
		c7.949-1.76,16.201-3.064,24.514-3.701c4.186-0.425,8.313-0.85,12.499-1.274c2.306,0.394,6.917-0.91,8.495,1.092
		c1.304,1.669,0.546,12.985,0.546,15.807C475.425,247.057,475.546,258.859,475.213,269.66z M326.247,294.659
		c5.218,5.401,10.771,10.376,15.928,15.867c2.882,3.095,8.374,6.766,9.921,10.619c-0.667,0-4.005,4.278-4.642,5.067
		c-2.427,2.943-5.309,5.34-7.646,8.374c-3.064,3.884-6.129,7.797-9.193,11.681c-4.975,7.646-9.678,15.23-13.805,23.24
		c-1.517,3.216-3.034,6.402-4.581,9.587c-0.425,0-0.758,1.851-0.94,2.367c-1.881,5.279-3.762,10.558-5.674,15.837
		c-0.819,3.428-1.638,6.857-2.458,10.315c-2.669,9.709-4.611,20.54-4.611,31.462h-0.394c0,0.667-4.278,0.394-5.218,0.394h-44.69
		c0-39.441,13.319-75.029,30.43-105.945c2.943-4.885,5.886-9.769,8.828-14.624c5.765-8.222,12.196-16.322,19.235-23.816
		c3.034-3.246,6.068-6.493,9.132-9.739C319.268,286.589,323.577,291.929,326.247,294.659z M298.152,443.504
		c0,4.551-8.343,12.196-11.529,15.807c-3.246,3.671-2.7,10.164-4.369,14.685c-0.789,2.063-3.944,2.761-5.795,3.398
		c-3.064,1.032-6.068,2.852-9.314,3.338c-5.583,0.819-11.317-0.607-16.869-0.607c0-1.517-0.941-4.278-1.153-6.068
		c-0.303-4.551-0.637-9.102-0.94-13.653c-0.334-5.249-0.971-11.772,0.061-16.899H298.152z M363.352,578.696
		c3.459,0,12.409-0.03,15.079-1.244c2.154-1.001,3.519-3.671,4.824-5.461c0.758-1.062,1.941-2.215,1.76-3.701
		c-0.607-4.308-11.256-14.017-10.588-17.627c0.334-1.972,4.793-5.734,6.432-7.191c5.158-5.279,10.315-10.588,15.503-15.867
		c0.334,0.121,0.667,0.243,1.001,0.364c2.7,1.305,4.915,4.278,7.221,6.22c3.762,2.852,7.494,5.643,11.225,8.464
		c6.159,4.005,12.682,7.615,19.508,10.437c4.308,1.547,8.647,3.125,12.955,4.672c0.364,0.273,0.728,0.516,1.123,0.758
		c0.91,1.274,1.062,3.277,1.365,4.885c0.88,4.521,1.729,9.071,2.609,13.592c0.273,0.637,0.546,1.244,0.819,1.851
		c1.547,1.274,3.064,2.548,4.612,3.792c2.64,2.488,5.218,5.036,7.858,7.433c1.062,0.88,2.124,1.76,3.185,2.639
		c1.82,0.91,4.369,0.819,6.584,0.88v27.761h-0.394c0,0.698-2.488,0.394-3.216,0.394c-9.709,0-19.327-0.91-28.216-2.7
		c-23.817-4.854-45.995-13.258-65.412-26.911c-5.492-3.853-10.406-8.222-15.837-12.227V578.696z M469.782,529.182
		c-2.731,1.365-5.128,4.854-7.16,7.13c-2.821,3.064-5.643,6.129-8.434,9.193c-1.578,2.457-1.881,5.795-3.519,8.252v0.394
		c-3.519,0-7.463-2.245-10.528-3.428c-10.407-4.005-19.994-9.344-28.944-16.231c-3.762-2.912-6.948-6.462-10.831-9.314v-0.394
		c0.334-1.821,34.981-36.923,37.833-38.228v-0.424c5.279,4.217,10.103,8.464,16.11,11.225c2.033,0.789,4.035,1.578,6.038,2.367
		c3.095,0.758,11.195,1.517,13.016,3.914c1.487,1.911,0.121,6.766-0.546,8.646c-5.492,0-8.495-2.457-8.829,4.855
		c-0.06,1.396-0.394,3.398,0.425,4.49c1.122,0.88,2.245,1.76,3.367,2.609c0.728,0.85,1.457,1.699,2.215,2.548
		c0,0.546-0.152,0.394,0.394,0.394c0-2.245,3.641-3.58,4.945-4.733c2.003-1.76,2.518-4.763,4.218-6.674
		c0.758-0.88,1.82-1.244,2.852-1.638c4.855-1.881,5.097,1.335,8.98,2.245c1.456,0.03,2.912,0.03,4.369,0.03
		c1.214,0.243,2.427,0.485,3.611,0.728c0-1.032,1.061-2.094,1.608-2.822c1.426,0,2.518,1.79,3.216,2.822
		c1.881-0.182,3.762-0.334,5.613-0.516c2.67,0.182,4.035,3.944,4.46,6.159c-1.638,0-8.95,2.306-10.224,3.185
		c-0.728,0.789-1.487,1.578-2.215,2.367c-0.546,0.304-1.092,0.576-1.638,0.88c-2.427,0-8.464,0.485-9.8-1.062
		c-0.637-1.244-1.244-2.518-1.881-3.792v-0.394c-2.275,0.637-4.581,1.274-6.887,1.881
		C477.761,526.755,473.271,527.362,469.782,529.182z M480.461,663.221v-37.044h0.394c0-0.728,2.852-0.455,3.61-0.516
		c7.433-0.698,15.049-1.274,22.148-2.579c2.791-0.516,5.886-0.667,8.465-1.729h0.394c0,1.335,12.682,21.025,14.138,21.996
		c3.337,2.184,7.858,3.155,11.62,4.521c5.37,1.911,10.71,3.792,16.08,5.673c0.668-0.03,1.305-0.091,1.972-0.121
		c2.943-0.637,6.614-1.426,9.102-2.973c4.702-2.912,8.95-8.222,13.197-12.075c2.701-2.488,5.431-5.006,8.131-7.524
		c2.124-2.458,2.882-8.252,3.792-11.499c2.185-7.919,4.399-15.807,6.584-23.725c0.637-2.548,1.274-5.128,1.911-7.706
		c0.243-3.671-3.58-7.949-2.336-11.438c0.577-1.638,7.19-8.343,8.768-9.041v-0.394c3.458,1.578,7.13,6.159,9.799,9.102
		c8.556,8.768,17.081,17.536,25.606,26.304c0,3.034-19.872,20.024-23.209,22.724c-20.024,15.988-42.02,28.822-65.837,37.378
		c-6.947,2.488-13.956,4.855-21.237,6.674c-2.882,0.729-9.011,1.426-11.256,2.852c-2.124,0-4.702,0.303-6.432,1.183
		c-0.789,0.152-1.608,0.273-2.427,0.425c-0.789,0.121-1.608,0.243-2.397,0.394c-0.94,0.121-1.881,0.243-2.821,0.394
		c-1.062,0.151-2.154,0.273-3.216,0.394c-1.274,0-3.004-0.061-4.035,0.424c-0.91,0.121-1.851,0.243-2.791,0.395
		c-1.881,0-4.095-0.243-5.643,0.394c-2.124,0-5.128-0.455-6.857,0.395c-1.426,0-3.186,0.061-4.43-0.395
		c-0.151-0.03-0.303-0.121-0.455-0.151C479.673,672.384,480.461,667.135,480.461,663.221z M480.461,162.198h1.031
		c8.07,0.03,16.11,0.424,23.999,1.183c2.609,0.243,5.219,0.516,7.797,0.85c36.225,4.429,70.206,15.928,99.544,31.796
		c9.678,5.249,18.932,11.377,28.216,17.658c11.468,7.737,22.33,17.051,32.584,26.972c1.547,1.517,6.28,5.188,6.371,7.282
		c0.091,3.125-25.819,26.517-29.308,30.976c-1.547,0-19.842-18.628-20.236-20.601c0-1.335,0-2.64-0.03-3.975
		c-0.213-4.369-0.121-8.95-0.243-13.288c-0.091-1.73,0.121-3.701-0.728-5.036c-1.669-2.7-4.338-5.067-6.705-7.282
		c-2.518-2.458-5.006-4.915-7.524-7.372c-1.851-1.335-4.824-0.243-6.766-1.305c-2.336-1.668-4.703-3.307-7.039-4.976
		c-1.79-0.91-3.58-1.851-5.37-2.791c-1.274-0.698-3.004-1.881-4.551-1.942h-0.394c-0.121,0-0.243,0-0.364,0.03
		c-2.639,0.243-4.945,1.457-7.372,2.306c-7.494,2.761-14.957,5.522-22.421,8.283c0,3.155-0.212,6.22,0,9.254h-0.425v0.394
		c-2.306-0.849-4.642-1.699-6.978-2.548c-6.523-2.397-13.622-4.581-20.418-6.129c-16.839-3.914-34.284-6.614-53.063-6.614v-0.395
		c-0.667,0-0.424-4.702-0.424-5.643c0.06-10.073,0.091-20.115,0.091-30.188c0.03-2.275,0.03-4.551,0.03-6.826
		C480.158,168.903,479.035,165.171,480.461,162.198z M314.505,212.713c21.966-15.867,46.783-27.305,72.511-35.861
		c9.982-3.337,20.418-6.675,31.067-8.586c8.707-1.578,17.567-3.368,26.547-4.369c1.729-0.182,3.458-0.334,5.188-0.486
		c4.187-0.424,8.374-0.819,12.53-1.213h13.289v52.729h-0.425c0,0.789-7.433,0.273-8.829,0.789c-1.578,0-3.519-0.182-4.854,0.395
		c-2.154,0-5.036-0.395-6.826,0.424c-0.94,0.121-1.881,0.243-2.822,0.395c-1.213,0.121-2.397,0.273-3.61,0.394
		c-1.092,0.152-2.154,0.273-3.216,0.394c-1.213,0.152-2.427,0.273-3.641,0.425c-1.941,0-4.521,0.304-6.037,1.183
		c-3.368,0-6.583,1.062-9.617,1.79c-4.005,0.941-7.919,1.821-11.742,2.943c-29.793,8.708-57.371,22.178-81.613,41.595
		c-4.005,3.185-7.919,6.341-11.832,9.891c-1.031,1.001-2.063,1.972-3.095,2.943c-2.791,0-8.707-7.251-10.77-9.344
		c-9.041-8.95-18.052-17.9-27.063-26.881C279.645,237.712,309.803,216.081,314.505,212.713z M193.33,405.701
		c0.698-3.519,1.365-7.009,2.063-10.528c2.002-12.227,5.279-23.786,9.132-35.072c10.831-31.674,24.969-59.01,45.145-85.891
		c7.827-10.437,17.141-19.599,25.94-29.52c4.338,3.095,7.736,7.221,11.529,11.013c5.43,5.461,10.831,10.892,16.262,16.353
		c2.882,2.882,7.433,6.037,9.254,9.648c1.092,0-2.549,3.702-3.034,4.278c-4.066,4.885-8.95,9.041-12.894,13.986
		c-5.825,7.312-10.831,14.897-16.141,22.482c-3.064,4.308-5.279,9.011-7.979,13.471c-12.531,20.661-20.54,45.903-25.03,70.569
		c-1.335,7.129-2.336,14.714-2.882,22.117c-0.273,3.186-0.061,7.008-0.88,10.042c0,1.123-4.126,0.789-5.218,0.819h-47.876
		C190.721,428.152,191.267,416.502,193.33,405.701z M237.17,604.97c-8.495-13.44-16.596-27.093-22.936-41.686
		c-15.534-35.618-25.303-75.848-23.938-119.385h0.425c0-0.546-0.151-0.394,0.394-0.394c3.732,0,8.768,0.667,12.075-0.425
		c4.157,0.789,9.163,0.425,13.683,0.425h26.941c0,8.647,0.243,16.96,0.88,25.333c0.273,3.55,1.972,8.374,0.758,11.954
		c-0.789,2.306-7.494,4.945-9.648,6.219c-7.524,4.43-8.222,8.798-10.649,16.383c-0.667,1.942-2.033,4.763-1.85,6.948
		c0.667,4.278,1.335,8.556,2.002,12.833h0.425v0.394c1.942,0,4.308-3.732,7.585-3.337c3.155,1.062,6.28,2.093,9.375,3.125
		c2.882,1.092,6.402,1.638,8.95,3.337c1.487,1.73,2.973,3.429,4.46,5.158c1.426,1.335,2.852,2.7,4.278,4.035
		c1.82,3.914,3.61,7.828,5.37,11.711c2.063,4.035,4.065,8.04,6.098,12.045c4.399,8.343,9.89,16.292,15.23,24.18
		c3.611,5.37,8.01,10.861,12.409,15.685c2.427,2.791,4.855,5.552,7.282,8.313c0.364,0.516,0.607,1.062,0.516,1.79
		c-0.304,2.154-7.342,8.1-9.163,9.708c-8.98,8.98-17.961,17.991-26.911,27.002C266.144,646.322,240.508,610.249,237.17,604.97z
		 M475.516,732.881c-0.819,1.214-4.429,0.698-5.916,0.728c-17.263,0.273-33.798-2.367-49.514-5.188
		c-12.014-2.154-23.513-6.007-34.738-9.466c-9.708-2.973-18.901-7.039-28.064-11.044c-23.847-10.497-46.389-24.665-66.686-42.05
		c-4.217-3.823-8.434-7.615-12.682-11.438c-1.76-1.76-3.52-3.216-4.703-5.309c0.546,0,0.455-0.061,0.819-0.364
		c12.196-12.075,24.393-24.15,36.589-36.255c4.46,2.245,8.434,6.917,12.196,10.376c5.461,4.945,11.498,9.709,17.597,13.774
		c10.831,7.191,21.45,14.533,33.131,19.933c10.407,4.763,20.813,8.95,31.766,12.894c13.895,4.976,30.976,8.222,46.57,9.739
		c4.157,0.273,8.313,0.577,12.47,0.88c2.518,0.061,9.526-0.334,11.165,1.001c0.88,0.728,0.667,2.032,0.789,3.125
		c0.061,3.337,0.091,6.645,0.121,9.982c-0.061,7.524-0.121,15.018-0.182,22.512C476.244,720.047,477.063,730.514,475.516,732.881z
		 M476.032,675.691c0,1.092-3.853,0.758-4.824,0.698c-3.853-0.243-7.554-0.03-11.286-0.394c-10.346-1.001-20.388-2.124-30.157-4.065
		c-28.185-5.643-54.277-16.96-77.82-32.251c-8.313-5.4-16.565-11.104-24.15-17.778c-3.125-2.761-10.892-8.313-12.53-11.924
		c-0.486-1.062,0.273-2.003,0.94-2.761c5.34-6.068,11.559-11.256,17.263-16.96c3.459-3.337,6.917-6.675,10.376-10.012
		c1.668-1.032,4.278-0.607,6.219-1.123c2.063,0.121,4.612-0.364,6.432,0.425c2.397,1.031,4.733,3.519,6.644,5.401
		c1.608,1.214,3.186,2.427,4.763,3.641c7.433,5.552,14.987,10.649,22.937,15.26c23.816,13.774,54.429,21.935,85.193,21.935v0.394
		c0.667,0,0.394,4.278,0.394,5.249v31.796C476.426,666.65,477.063,672.809,476.032,675.691z M676.332,651.45
		c-5.279,5.249-10.558,10.285-16.14,15.23c-25.182,22.239-55.734,38.531-86.437,49.878c-8.95,3.276-18.325,6.462-27.73,8.495
		c-5.218,1.274-10.437,2.518-15.655,3.762c-1.517,0-3.247,0.182-4.429,0.789c-0.941,0.151-1.881,0.273-2.822,0.424
		c-1.456,0-3.276,0.213-4.429,0.789c-1.062,0.152-2.154,0.273-3.216,0.394c-1.062,0.152-2.154,0.273-3.216,0.425
		c-1.093,0.121-2.154,0.243-3.216,0.394c-1.214,0.151-2.427,0.273-3.641,0.394c-1.487,0-3.216-0.152-4.43,0.394
		c-1.517,0-3.611-0.212-4.824,0.425c-1.669,0-3.914-0.273-5.218,0.394c-2.033,0-9.132,0.394-10.103-0.758
		c-1.638-1.911-0.576-18.992-0.576-22.603c0-9.83-0.425-20.054,0.212-29.763h0.394c0-0.698,5.006-0.425,6.038-0.425
		c15.716-0.243,31.28-2.912,45.539-6.644c17.475-4.612,33.616-10.922,49.453-18.689c4.642-2.275,9.587-4.672,13.926-7.464
		c5.734-3.762,11.711-7.646,17.384-11.559c2.579-1.972,5.158-3.944,7.706-5.916c4.035-2.882,7.827-6.34,11.589-9.739
		c4.703-4.308,9.8-8.616,13.774-13.622c3.823,0.941,11.286,10.558,14.35,13.835c6.674,7.099,13.835,13.774,20.297,21.146
		c0.758,0.85,1.608,1.82,1.426,3.125C682.006,646.565,677.849,649.903,676.332,651.45z M762.344,448.753
		c-0.576,6.311-0.121,12.682-0.698,18.871c-1.032,10.801-2.488,21.116-4.308,31.402c-6.978,39.289-21.996,75.363-43.598,107.371
		c-5.431,8.04-11.438,16.141-17.809,23.604c-3.034,3.58-6.037,7.1-9.041,10.68c-0.243-0.061-0.486-0.122-0.728-0.182
		c-1.244-0.698-2.094-1.881-3.064-2.943c-2.275-2.397-4.581-4.794-6.857-7.221c-5.37-5.582-10.77-11.195-16.14-16.808
		c-3.034-2.852-5.947-5.674-8.465-8.829c-0.546-0.668-1.001-1.274-0.91-2.185c0.243-2.215,5.461-7.16,7.069-9.071
		c3.185-4.308,6.401-8.616,9.587-12.925c7.646-11.317,14.502-22.997,20.055-35.406c7.008-15.655,12.833-32.008,16.292-49.332
		c1.365-6.766,2.215-13.774,3.49-20.631c1.213-6.553,1.304-13.47,1.426-20.388c0.03-2.73-0.425-8.828,0.394-10.861
		c0-0.546,4.035-0.607,4.824-0.819c10.74,0.061,21.45,0.121,32.19,0.212c2.852-0.151,5.977-0.212,8.89-0.03
		c2.093,0.121,4.49-0.546,6.401,0.243C762.192,443.504,762.405,447.691,762.344,448.753z"/>
</g>
</svg>
