<?xml version="1.0" encoding="utf-8"?>
<!-- Generator: Adobe Illustrator 24.3.0, SVG Export Plug-In . SVG Version: 6.00 Build 0)  -->
<svg version="1.1" id="Layer_4" xmlns="http://www.w3.org/2000/svg" xmlns:xlink="http://www.w3.org/1999/xlink" x="0px" y="0px"
	 viewBox="0 0 268.015 212.216" enable-background="new 0 0 268.015 212.216" xml:space="preserve">
<g>
	<path fill="#FFA022" d="M200.392,149.622c0,0-17.791,32.212-44.581,50.007c-0.228,0.152-0.457,0.304-0.7,0.457
		c-27.567,18.038-63.429,15.602-88.485-4.932c14.004-5.662,26.775-14.643,27.643-15.252c-9.728,4.626-20.973,7.939-27.626,9.398
		c-3.275,0.718-6.68-0.276-9.052-2.647l-5.776-5.777c22.833-13.289,46.335-32.042,47.812-33.229
		c-16.439,9.979-35.856,19.636-47.164,25.065c-3.572,1.715-7.83,0.982-10.632-1.82l-13.975-13.975
		c31.159-15.922,57.402-36.974,59.046-38.298c-19.161,12.353-46.137,23.872-59.899,29.415c-3.474,1.399-7.441,0.59-10.089-2.059
		L0,129.06c0,0,29.023-11.089,62.272-27.719c32.276-16.143,56.802-33.023,56.802-33.023L200.392,149.622z"/>
	<path fill="#FFA022" d="M264.235,10.654l-6.875-6.875c-5.346-5.346-14.123-4.97-18.992,0.815l-58.772,69.823
		c-6.297-2.245-13.355-1.681-19.26,1.695l-16.042-16.042c-3.435-3.435-8.424-4.811-13.134-3.624l0,0
		c-5.622,1.418-7.555,8.423-3.455,12.523l71.342,71.342c4.1,4.1,11.105,2.167,12.523-3.455l0,0
		c1.188-4.711-0.188-9.699-3.624-13.134l-16.042-16.042c3.376-5.905,3.94-12.963,1.695-19.26l69.823-58.772
		C269.204,24.777,269.581,16,264.235,10.654z"/>
</g>
<g>
	<path fill="#DD851D" d="M190.703,139.934c-23.733,42.108-69.38,76.554-118.599,59.294c24.615,16.692,57.39,17.619,83.007,0.857
		c0.244-0.152,0.472-0.304,0.7-0.457c26.791-17.794,44.581-50.007,44.581-50.007L190.703,139.934z"/>
	<path fill="#DD851D" d="M211.993,133.468c0,1.126-0.137,2.268-0.426,3.379c-1.416,5.632-8.418,7.565-12.528,3.455l-4.156-4.155
		c4.11,4.11,11.112,2.177,12.528-3.456c0.274-1.111,0.411-2.237,0.411-3.364c0-3.379-1.248-6.697-3.562-9.27l3.684,3.668
		C210.562,126.344,211.993,129.861,211.993,133.468z"/>
	<path fill="#DD851D" d="M263.428,29.64L193.59,88.412c2.253,6.302,1.69,13.365-1.69,19.271l-4.155-4.155
		c3.379-5.906,3.942-12.969,1.69-19.271l69.822-58.772c5.739-4.825,6.165-13.502,0.944-18.86l4.034,4.034
		C269.577,16.001,269.212,24.784,263.428,29.64z"/>
</g>
</svg>
