<?xml version="1.0" encoding="utf-8"?>
<!-- Generator: Adobe Illustrator 24.3.0, SVG Export Plug-In . SVG Version: 6.00 Build 0)  -->
<svg version="1.1" id="Layer_12" xmlns="http://www.w3.org/2000/svg" xmlns:xlink="http://www.w3.org/1999/xlink" x="0px" y="0px"
	 viewBox="0 0 217.64 227.405" enable-background="new 0 0 217.64 227.405" xml:space="preserve">
<g>
	<path fill="#FFD52D" d="M134.854,100.298c-0.138,0.321-0.304,0.713-0.497,1.16c-0.191,0.448-0.425,0.942-0.669,1.489
		c-0.495,1.086-1.105,2.343-1.782,3.65c-0.171,0.321-0.343,0.66-0.519,0.984c-0.088,0.16-0.18,0.326-0.268,0.489
		c-0.18,0.307-0.359,0.616-0.542,0.926c-1.169-0.892-2.697-1.44-4.371-1.453c-3.705-0.03-6.731,2.556-6.755,5.775
		c-0.025,3.222,2.956,5.855,6.662,5.885c1.674,0.014,3.211-0.511,4.393-1.384c0.177,0.312,0.354,0.624,0.528,0.934
		c0.086,0.166,0.174,0.332,0.26,0.495c0.171,0.323,0.337,0.666,0.503,0.992c0.658,1.318,1.246,2.583,1.724,3.678
		c0.235,0.553,0.461,1.05,0.644,1.5c0.185,0.45,0.345,0.843,0.478,1.166c0.268,0.647,0.406,1.022,0.406,1.022
		c2.835-1.158,4.07-4.493,2.669-7.214c-1.509-2.926-3.2-6.172-3.653-6.954c0.467-0.776,2.21-3.995,3.763-6.894
		c1.445-2.699,0.265-6.056-2.553-7.258C135.274,99.284,135.133,99.657,134.854,100.298"/>
	<path fill="#FFD52D" d="M107.039,142.442c-0.21-0.279-0.464-0.619-0.757-1.008c-0.293-0.39-0.605-0.84-0.956-1.326
		c-0.696-0.97-1.478-2.125-2.274-3.365c-0.193-0.309-0.403-0.627-0.591-0.942c-0.097-0.157-0.193-0.315-0.29-0.475
		c-0.177-0.309-0.356-0.619-0.533-0.931c1.359-0.566,2.597-1.614,3.448-3.056c1.876-3.191,1.147-7.101-1.63-8.731
		c-2.78-1.633-6.554-0.37-8.43,2.818c-0.851,1.445-1.166,3.036-1,4.495c-0.359-0.003-0.716-0.008-1.072-0.014
		c-0.188-0.006-0.373-0.014-0.558-0.022c-0.367-0.011-0.746-0.039-1.111-0.058c-1.473-0.091-2.862-0.213-4.051-0.348
		c-0.597-0.072-1.141-0.124-1.625-0.193c-0.481-0.064-0.903-0.122-1.249-0.171c-0.694-0.088-1.089-0.157-1.089-0.157
		c-0.414,3.031,1.859,5.769,4.921,5.916c3.288,0.16,6.949,0.321,7.852,0.318h0.003c0.437,0.79,2.354,3.91,4.092,6.703
		c1.616,2.6,5.117,3.258,7.568,1.42C107.708,143.312,107.457,143.003,107.039,142.442"/>
	<path fill="#FFD52D" d="M84.416,97.306c0.348-0.041,0.768-0.091,1.252-0.152c0.484-0.058,1.031-0.102,1.627-0.163
		c1.191-0.116,2.581-0.216,4.053-0.285c0.365-0.014,0.746-0.036,1.113-0.041c0.185-0.006,0.37-0.008,0.558-0.014
		c0.356,0.003,0.713,0.003,1.075,0.006c-0.191,1.456,0.097,3.053,0.923,4.509c1.826,3.222,5.581,4.545,8.386,2.956
		c2.802-1.589,3.595-5.484,1.768-8.703c-0.826-1.459-2.047-2.525-3.396-3.111c0.182-0.309,0.365-0.616,0.547-0.923
		c0.099-0.157,0.199-0.315,0.298-0.472c0.193-0.312,0.409-0.624,0.605-0.931c0.818-1.227,1.619-2.368,2.329-3.329
		c0.359-0.481,0.68-0.926,0.978-1.31c0.298-0.384,0.558-0.718,0.774-0.995c0.423-0.555,0.682-0.862,0.682-0.862
		c-2.42-1.876-5.932-1.276-7.59,1.299c-1.782,2.766-3.749,5.852-4.202,6.637c-0.903-0.017-4.564,0.083-7.858,0.191
		c-3.061,0.099-5.382,2.796-5.015,5.835C83.325,97.447,83.72,97.383,84.416,97.306"/>
	<path fill="#FFD52D" d="M204.469,65.852c-0.507,1.175-1.114,2.614-1.824,4.255c-0.699,1.641-1.56,3.455-2.452,5.461
		c-1.813,3.982-4.052,8.591-6.535,13.383c-0.628,1.175-1.256,2.421-1.905,3.607c-0.324,0.588-0.659,1.195-0.983,1.793
		c-0.659,1.125-1.317,2.259-1.986,3.394c-4.286-3.272-9.888-5.278-16.028-5.329c-13.586-0.111-24.68,9.371-24.771,21.174
		c-0.091,11.813,10.84,21.468,24.426,21.58c6.14,0.051,11.772-1.874,16.109-5.076c0.648,1.145,1.297,2.29,1.935,3.424
		c0.314,0.608,0.638,1.216,0.952,1.813c0.628,1.185,1.236,2.442,1.844,3.637c2.411,4.833,4.569,9.473,6.322,13.485
		c0.861,2.026,1.692,3.85,2.361,5.501c0.679,1.651,1.266,3.09,1.753,4.275c0.983,2.371,1.489,3.749,1.489,3.749
		c10.395-4.245,14.923-16.473,9.787-26.453c-5.532-10.729-11.732-22.633-13.393-25.5c1.712-2.847,8.105-14.65,13.799-25.277
		c5.299-9.898,0.973-22.208-9.361-26.615C206.009,62.134,205.492,63.502,204.469,65.852"/>
	<path fill="#FFD52D" d="M102.478,220.384c-0.77-1.023-1.702-2.269-2.776-3.698c-1.074-1.428-2.219-3.08-3.505-4.863
		c-2.553-3.556-5.42-7.791-8.338-12.34c-0.709-1.135-1.479-2.3-2.168-3.455c-0.355-0.577-0.709-1.155-1.064-1.743
		c-0.648-1.135-1.307-2.269-1.955-3.414c4.985-2.077,9.523-5.917,12.644-11.205c6.879-11.702,4.204-26.037-5.977-32.015
		c-10.192-5.988-24.031-1.358-30.91,10.334c-3.12,5.299-4.275,11.134-3.668,16.484c-1.317-0.01-2.624-0.03-3.931-0.051
		c-0.689-0.02-1.368-0.051-2.047-0.081c-1.347-0.041-2.735-0.142-4.073-0.213c-5.4-0.334-10.496-0.78-14.852-1.277
		c-2.188-0.263-4.184-0.456-5.957-0.709c-1.763-0.233-3.313-0.446-4.579-0.628c-2.543-0.324-3.992-0.577-3.992-0.577
		c-1.52,11.114,6.818,21.154,18.044,21.691c12.056,0.588,25.48,1.175,28.793,1.165h0.01c1.601,2.898,8.632,14.336,15.004,24.578
		c5.927,9.533,18.763,11.945,27.749,5.207C104.93,223.575,104.008,222.441,102.478,220.384"/>
	<path fill="#FFD52D" d="M19.523,54.88c1.277-0.152,2.816-0.334,4.589-0.557c1.773-0.213,3.779-0.375,5.967-0.598
		c4.367-0.426,9.463-0.79,14.863-1.044c1.337-0.051,2.735-0.132,4.083-0.152c0.679-0.02,1.358-0.03,2.047-0.051
		c1.307,0.01,2.614,0.01,3.941,0.02c-0.699,5.339,0.355,11.195,3.384,16.534c6.697,11.813,20.465,16.666,30.748,10.84
		c10.273-5.825,13.181-20.11,6.484-31.913c-3.029-5.349-7.507-9.26-12.451-11.408c0.669-1.135,1.337-2.259,2.006-3.384
		c0.365-0.577,0.729-1.155,1.094-1.732c0.709-1.145,1.499-2.29,2.219-3.414c2.999-4.498,5.937-8.682,8.541-12.208
		c1.317-1.763,2.492-3.394,3.586-4.802c1.094-1.408,2.047-2.634,2.837-3.647c1.55-2.036,2.502-3.161,2.502-3.161
		c-8.875-6.879-21.752-4.681-27.83,4.762c-6.535,10.141-13.748,21.458-15.41,24.335C59.41,33.24,45.986,33.605,33.91,34
		c-11.225,0.365-19.736,10.253-18.388,21.397C15.521,55.397,16.97,55.164,19.523,54.88"/>
</g>
<g>
	<path fill="#00C2CB" d="M129.348,91.824c-3.291-0.157-6.949-0.318-7.855-0.318c-0.439-0.79-2.357-3.907-4.095-6.703
		c-1.616-2.6-5.117-3.258-7.568-1.42c0,0,0.254,0.309,0.669,0.873c0.21,0.279,0.464,0.619,0.757,1.008
		c0.293,0.387,0.605,0.837,0.956,1.323c0.696,0.973,1.478,2.127,2.277,3.365c0.191,0.309,0.401,0.627,0.589,0.942
		c0.097,0.157,0.193,0.318,0.293,0.478c0.174,0.309,0.354,0.619,0.533,0.931c-1.359,0.564-2.6,1.611-3.448,3.056
		c-1.879,3.188-1.149,7.098,1.63,8.731c2.777,1.633,6.551,0.37,8.43-2.821c0.848-1.442,1.163-3.034,0.997-4.495
		c0.359,0.006,0.718,0.008,1.075,0.014c0.185,0.008,0.373,0.014,0.558,0.022c0.365,0.011,0.746,0.041,1.111,0.058
		c1.47,0.094,2.86,0.216,4.051,0.351c0.594,0.072,1.141,0.124,1.622,0.191c0.484,0.066,0.903,0.124,1.249,0.171
		c0.696,0.088,1.089,0.16,1.089,0.16C134.683,94.709,132.406,91.973,129.348,91.824"/>
	<path fill="#00C2CB" d="M133.122,129.392c-0.345,0.041-0.768,0.091-1.252,0.149c-0.484,0.061-1.031,0.105-1.625,0.166
		c-1.191,0.116-2.583,0.216-4.056,0.285c-0.365,0.014-0.746,0.033-1.111,0.041c-0.185,0.003-0.373,0.008-0.561,0.011
		c-0.356,0-0.713-0.003-1.072-0.003c0.188-1.459-0.099-3.053-0.926-4.512c-1.826-3.219-5.581-4.542-8.383-2.954
		c-2.804,1.586-3.597,5.484-1.771,8.703c0.826,1.456,2.047,2.525,3.398,3.111c-0.185,0.309-0.367,0.616-0.55,0.923
		c-0.099,0.157-0.199,0.315-0.298,0.47c-0.193,0.312-0.406,0.627-0.605,0.934c-0.815,1.227-1.616,2.368-2.329,3.329
		c-0.359,0.478-0.68,0.923-0.978,1.31c-0.298,0.384-0.558,0.718-0.774,0.995c-0.423,0.555-0.68,0.859-0.68,0.859
		c2.42,1.879,5.929,1.276,7.587-1.296c1.785-2.766,3.752-5.855,4.202-6.637c0.906,0.017,4.567-0.086,7.858-0.191
		c3.061-0.099,5.382-2.799,5.015-5.838C134.213,129.249,133.818,129.312,133.122,129.392"/>
	<path fill="#00C2CB" d="M82.687,126.397c0.138-0.321,0.304-0.71,0.495-1.158s0.425-0.945,0.671-1.489
		c0.495-1.089,1.102-2.343,1.779-3.653c0.171-0.321,0.343-0.66,0.522-0.981c0.088-0.163,0.177-0.326,0.268-0.489
		c0.18-0.309,0.359-0.619,0.539-0.928c1.169,0.892,2.697,1.442,4.374,1.456c3.702,0.028,6.728-2.559,6.753-5.777
		c0.028-3.219-2.954-5.852-6.659-5.882c-1.677-0.014-3.213,0.508-4.396,1.384c-0.177-0.315-0.351-0.627-0.525-0.937
		c-0.088-0.166-0.174-0.329-0.26-0.495c-0.174-0.323-0.34-0.666-0.506-0.989c-0.655-1.321-1.243-2.583-1.721-3.68
		c-0.235-0.55-0.464-1.05-0.647-1.5c-0.182-0.45-0.345-0.843-0.475-1.166c-0.271-0.647-0.406-1.022-0.406-1.022
		c-2.838,1.158-4.073,4.495-2.669,7.217c1.506,2.926,3.197,6.17,3.653,6.952v0.003c-0.467,0.774-2.21,3.992-3.766,6.894
		c-1.445,2.699-0.265,6.054,2.553,7.256C82.264,127.411,82.408,127.038,82.687,126.397"/>
	<path fill="#00C2CB" d="M184.277,34.78c-12.066-0.577-25.48-1.165-28.803-1.165c-1.611-2.898-8.642-14.326-15.014-24.578
		c-5.927-9.533-18.763-11.945-27.749-5.207c0,0,0.932,1.135,2.452,3.201c0.77,1.023,1.702,2.269,2.776,3.698
		c1.074,1.418,2.219,3.07,3.505,4.853c2.553,3.566,5.42,7.801,8.348,12.34c0.699,1.135,1.469,2.3,2.158,3.455
		c0.355,0.577,0.709,1.165,1.074,1.753c0.638,1.135,1.297,2.269,1.955,3.414c-4.985,2.067-9.533,5.907-12.644,11.205
		c-6.889,11.691-4.215,26.027,5.977,32.015c10.182,5.988,24.021,1.358,30.91-10.344c3.11-5.288,4.265-11.124,3.657-16.484
		c1.317,0.02,2.634,0.03,3.941,0.051c0.679,0.03,1.368,0.051,2.047,0.081c1.337,0.041,2.735,0.152,4.073,0.213
		c5.39,0.344,10.486,0.79,14.852,1.287c2.178,0.263,4.184,0.456,5.947,0.699c1.773,0.243,3.313,0.456,4.579,0.628
		c2.553,0.324,3.992,0.588,3.992,0.588C203.841,45.357,195.493,35.327,184.277,34.78"/>
	<path fill="#00C2CB" d="M198.117,172.534c-1.266,0.152-2.816,0.334-4.589,0.547c-1.773,0.223-3.779,0.385-5.957,0.608
		c-4.367,0.426-9.473,0.79-14.873,1.044c-1.337,0.051-2.735,0.122-4.073,0.152c-0.679,0.01-1.368,0.03-2.057,0.041
		c-1.307,0-2.614-0.01-3.931-0.01c0.689-5.349-0.365-11.195-3.394-16.544c-6.697-11.803-20.465-16.656-30.738-10.83
		c-10.283,5.815-13.191,20.111-6.494,31.913c3.029,5.339,7.507,9.26,12.461,11.408c-0.679,1.135-1.347,2.259-2.016,3.384
		c-0.365,0.577-0.729,1.155-1.094,1.722c-0.709,1.145-1.489,2.3-2.219,3.424c-2.989,4.498-5.927,8.682-8.541,12.208
		c-1.317,1.753-2.492,3.384-3.586,4.802c-1.094,1.408-2.047,2.634-2.837,3.647c-1.55,2.036-2.492,3.151-2.492,3.151
		c8.875,6.889,21.742,4.681,27.82-4.752c6.545-10.141,13.758-21.468,15.41-24.335c3.323,0.061,16.747-0.314,28.813-0.699
		c11.225-0.365,19.736-10.263,18.388-21.407C202.118,172.008,200.67,172.241,198.117,172.534"/>
	<path fill="#00C2CB" d="M13.181,161.552c0.507-1.175,1.114-2.604,1.813-4.245c0.699-1.641,1.56-3.465,2.462-5.461
		c1.813-3.992,4.042-8.591,6.525-13.393c0.628-1.175,1.256-2.421,1.915-3.597c0.324-0.598,0.648-1.195,0.983-1.793
		c0.659-1.135,1.317-2.269,1.976-3.404c4.286,3.272,9.888,5.288,16.038,5.339c13.576,0.101,24.67-9.382,24.761-21.184
		c0.101-11.803-10.83-21.458-24.416-21.569c-6.15-0.051-11.783,1.864-16.119,5.076c-0.648-1.155-1.287-2.3-1.925-3.434
		c-0.324-0.608-0.638-1.206-0.952-1.813c-0.638-1.185-1.246-2.442-1.854-3.627c-2.401-4.843-4.559-9.473-6.312-13.495
		c-0.861-2.016-1.702-3.85-2.371-5.501c-0.669-1.651-1.266-3.09-1.743-4.275c-0.993-2.371-1.489-3.749-1.489-3.749
		C2.067,65.67-2.462,77.909,2.685,87.888c5.522,10.729,11.722,22.623,13.393,25.49v0.01c-1.712,2.837-8.105,14.64-13.809,25.277
		c-5.299,9.898-0.973,22.198,9.361,26.605C11.631,165.27,12.158,163.903,13.181,161.552"/>
</g>
</svg>
