<?xml version="1.0" encoding="utf-8"?>
<!-- Generator: Adobe Illustrator 24.3.0, SVG Export Plug-In . SVG Version: 6.00 Build 0)  -->
<svg version="1.1" id="Layer_6" xmlns="http://www.w3.org/2000/svg" xmlns:xlink="http://www.w3.org/1999/xlink" x="0px" y="0px"
	 viewBox="0 0 195.225 265.62" enable-background="new 0 0 195.225 265.62" xml:space="preserve">
<g>
	<path id="XMLID_1440_" fill="#C66700" d="M172.305,176.563c-2.965-17.203-3.079-34.857-6.972-51.874
		c-3.591-15.692-11.12-31.416-24.139-40.588c7.623,7.534,9.155,19.312,10.198,30.075c1.736,17.906,3.471,35.813,5.206,53.719
		c0.803,8.289,1.616,16.629,3.87,24.645c2.254,8.017,6.052,15.775,12.062,21.539c6.01,5.764,14.432,9.326,22.696,8.307
		C181.7,211.351,175.269,193.766,172.305,176.563z"/>
	<path id="XMLID_1439_" fill="#C66700" d="M132.799,158.747c4.8-10.411,8.763-21.351,9.999-32.748
		c1.083-9.989-0.052-20.4-4.259-29.475c2.639,13.211,0.735,27.2-4.018,39.865c-5.34,14.227-14.089,26.945-23.833,38.606
		c-6.753,8.082-14.082,15.784-22.669,21.882c-8.587,6.098-18.526,10.555-29.004,11.616c0,0,6.111,24.399,19.784,35.833
		c5.845-8.503,11.691-17.005,17.537-25.507C109.623,199.491,122.978,180.046,132.799,158.747z"/>
	<path id="XMLID_1438_" fill="#C66700" d="M120.688,224.511c1.574-16.515,10.291-31.336,17.852-46.102
		c4.731-9.239,9.14-19.115,11.092-29.218c-14.531,30.878-45.309,53.475-56.623,86.02c-1.262,3.629-2.276,7.373-4.088,10.76
		c-1.812,3.388-4.57,6.464-8.21,7.694c15.311,9.9,37.515,1.8,52.657,11.956C123.96,254.301,119.291,239.163,120.688,224.511z"/>
	<path id="XMLID_1435_" fill="#C66700" d="M149.405,229.304c-3.136-13.799-2.861-28.119-2.43-42.264
		c0.094-3.103,0.193-6.212,0.266-9.322c-1.486,5.886-4.541,11.466-7.717,16.717c-4.496,7.431-9.442,14.909-10.952,23.462
		c-2.04,11.564,2.786,23.718,11.086,32.025c8.3,8.307,19.692,13.04,31.288,14.89C159.468,256.533,152.541,243.103,149.405,229.304z
		 M132.323,227.822c-1.207-9.085,1.517-18.655,6.531-26.372c-6.657,16.723-4.066,37.058,7.176,51.218
		C138.593,246.472,133.598,237.418,132.323,227.822z"/>
	<path id="XMLID_1434_" fill="#C66700" d="M44.625,128.72c6.665-25.694,20.159-46.175,35.361-60.332
		c0.387-0.663,0.784-1.32,1.196-1.968c0.297-0.467,0.602-0.932,0.906-1.398c1.294-1.974,2.515-3.839,2.919-5.58
		c0.431-1.858-0.001-3.97-0.74-5.968C67.57,66.121,51.98,85.388,42.387,110.536c-10.687,28.128-13.735,63.741,1.329,99.496
		c-18.149-22.627-26.193-35.646-33.625-35.697c-4.301-0.173-8.347,5.063-9.685,15.213C-1,200.2,1.288,211.014,6.613,220.346
		l3.818,6.691c-3.539-15.936-1.646-26.348,3.251-28.045c4.812-1.645,11.036,3.624,20.533,13.252
		c9.643,9.567,22.559,23.491,44.119,37.744C40.342,210.942,35.382,164.355,44.625,128.72z"/>
	<path id="XMLID_1428_" fill="#C66700" d="M86.889,46.503c2.411,4.337,4.467,9.317,3.347,14.152
		c-0.739,3.187-2.769,5.888-4.526,8.647c-7.875,12.37-10.818,27.787-8.054,42.189c1.719,8.958,5.637,17.463,11.215,24.677
		c1.803-0.856-4.262-52.38,32.621-81.091c-15.147,16.549-24.077,38.66-24.673,61.086c3.231-9.83,10.454-17.811,18.067-24.819
		c7.614-7.008,15.881-13.44,22.181-21.649c10.95-14.267,14.988-33.575,10.817-51.052c-0.315-1.32-1.778-1.985-3.002-1.402
		l-0.024,0.011l-8.653-16.029c-0.917-1.699-3.5-0.989-3.421,0.939l0,0c0.04,0.956,0.324,1.884,0.815,2.705
		c2.235,3.748,3.114,8.204,2.688,12.529c-0.187,1.9-1.553,3.494-3.421,3.888c-9.276,1.954-19.065,1.516-28.08-1.432l-0.027-0.009
		c-1.714-0.561-2.896-2.129-2.974-3.931c-0.171-3.964,0.75-7.974,2.8-11.39c0.476-0.793,0.748-1.691,0.786-2.615l0,0
		c0.08-1.94-2.518-2.653-3.44-0.945L93.58,16.439c-0.128-0.019-0.252-0.047-0.38-0.063c-2.594-0.331-5.242,0.482-7.173,2.246
		c-0.01,0.009-0.02,0.019-0.03,0.028c-3.884,3.57-5.856,9.109-5.102,14.331C81.604,37.891,84.478,42.166,86.889,46.503z"/>
	<path id="XMLID_1427_" fill="#C66700" d="M71.29,50.786c1.757,0,3.181-1.424,3.181-3.181c0-1.757-1.424-3.181-3.181-3.181
		c-1.757,0-3.181,1.424-3.181,3.181C68.109,49.362,69.533,50.786,71.29,50.786z"/>
	<path id="XMLID_1426_" fill="#C66700" d="M24.372,164.503c1.098,0,1.988-0.89,1.988-1.988c0-1.098-0.89-1.988-1.988-1.988
		c-1.098,0-1.988,0.89-1.988,1.988C22.384,163.613,23.274,164.503,24.372,164.503z"/>
	<path id="XMLID_1424_" fill="#C66700" d="M27.155,128.718c2.196,0,3.976-1.78,3.976-3.976c0-2.196-1.78-3.976-3.976-3.976
		c-2.196,0-3.976,1.78-3.976,3.976C23.179,126.938,24.959,128.718,27.155,128.718z"/>
	<path id="XMLID_1412_" fill="#C66700" d="M42.662,86.174c1.757,0,3.181-1.424,3.181-3.181c0-1.757-1.424-3.181-3.181-3.181
		c-1.757,0-3.181,1.424-3.181,3.181C39.481,84.75,40.905,86.174,42.662,86.174z"/>
	<path id="XMLID_1409_" fill="#C66700" d="M54.193,150.587c0,0-9.94,31.809,3.181,42.147c13.121,10.338,38.966-11.928,38.966-11.928
		C61.747,180.01,54.193,150.587,54.193,150.587z M57.025,188.012c11.808,4.324,31.759-4.622,31.759-4.622
		C68.019,199.642,57.025,188.012,57.025,188.012z"/>
	<path id="XMLID_1406_" fill="#C66700" d="M125.415,97.91c-0.377,3.733-1.229,7.423-2.537,10.923
		c-4.467,11.961-13.74,21.753-24.647,28.39c-10.908,6.637-23.392,10.316-35.982,12.444c10.731,13.112,26.37,22.109,43.1,24.794
		c-1.414-14.88,8.728-28.013,14.51-41.796C124.442,121.742,126.325,109.717,125.415,97.91z M79.838,153.966
		c0,0,6.362,9.543,20.676,16.898c0,0-17.892-5.567-31.013-18.29c0,0,28.23-6.163,45.128-25.248
		C114.629,127.326,101.309,147.604,79.838,153.966z"/>
	<circle fill="#C66700" cx="162.606" cy="92.242" r="4.282"/>
	<circle fill="#C66700" cx="172.491" cy="120.46" r="3.028"/>
	<circle fill="#C66700" cx="175.519" cy="146.068" r="2.141"/>
	<circle fill="#C66700" cx="178.547" cy="173.029" r="2.141"/>
	<circle fill="#C66700" cx="185.937" cy="201.45" r="1.201"/>
</g>
</svg>
