<?xml version="1.0" encoding="utf-8"?>
<!-- Generator: Adobe Illustrator 24.3.0, SVG Export Plug-In . SVG Version: 6.00 Build 0)  -->
<svg version="1.1" id="Layer_2_1_" xmlns="http://www.w3.org/2000/svg" xmlns:xlink="http://www.w3.org/1999/xlink" x="0px" y="0px"
	 viewBox="0 0 217.278 217.277" enable-background="new 0 0 217.278 217.277" xml:space="preserve">
<g>
	<path fill="#00D1DB" d="M45.384,147.024c0.339-0.017,0.67,0.07,0.988,0.236l6.584-0.368c0.298-0.203,0.616-0.322,0.955-0.343
		c1.624-0.091,3.129,2.129,3.741,5.245l3.96-0.219c-0.07-1.062-0.384-2.116-1.434-3.055c-9.808-8.754-11.458-17.463-11.842-28.64
		c-0.05-1.608,2.199-2.492,3.402-5.456c1.418-3.497,11.429-12.838,19.637-13.309c0,0,6.692-4.005,13.665-1.885
		c0,0-5.076-2.885-12.822,0.174c1.81-4.943,6.973-16.446,16.583-18.96c2.021-0.603,4.125-0.951,6.25-0.901
		c5.882-5.89,9.221-8.019,10.184-11.586c3.179-11.776-9.961-26.065,11.086-32.343c3.179-0.947,13.76-1.095,12.106,4.708
		c-0.653,2.298,2.191,4.439,2.385,7.237c0.467,6.741,3.848,7.618,3.844,11.036c-0.004,1.426-2.211,0.637-2.67,1.207
		c-0.347,0.438,0.281,0.918,0.331,2.211c0.012,0.393-0.194,1.219-0.083,1.798c0.256,1.306,0.843,2.542,0.103,3.129
		c-2.104,1.678-6.13-0.165-7.287,4.58c-0.55,2.249,1.839,4.257,4.7,7.986c-8.291,3.993-10.511,10.102-10.511,10.102
		c3.026-4.869,8.601-7.163,11.974-8.151l0.037,0.05c3.592-0.847,9.246-1.257,14.996,2.046c3.505,2.009,6.758,4.927,12.131,4.605
		c0,0-6.349-0.645-10.933-5.138c3.17-1.269,12.177-6.547,20.952,1.926c2.889,5.125,6.671,5.262,6.671,5.262
		c-4.171-1.277-11.048-12.197-9.42-26.094c0,0,0.244-1.905-0.521-3.311c1.492,0.959,2.472,2.323,2.472,2.323
		c-1.633-3.993-3.431-3.815-4.997-3.778c-7.857,0.178-4.91,0.583-8.928-4.228c-2.244-2.687,3.914-6.378,6.431-7.204
		c1.715-0.562,5.468,2.889,7.291,4.278c2.348,1.79,3.985,6.75,6.493,11.272c3.666,6.605,13.111,20.41,8.097,30.748
		c-0.719,1.484-3.191,1.211-5.704,3.327c-2.964,2.497-16.537,6.183-24.221,2.678c0,0-8.002,0.438-13.318-4.828
		c0,0,3.228,5.051,11.73,5.981c-2.228,2.013-6.374,5.365-11.313,7.556c3.757,7.932-3.05,16.43-3.125,24.411
		c-2.393-3.261-4.741-7.944-6.221-14.607c0,0,0.099,8.622,4.96,18.145c6.332,12.408,6.518,26.705,6.518,26.705
		c-13.351-17.162-45.032-21.63-53.254-47.765c5.671,5.522,12.929,6.312,12.929,6.312c-6.874-2.025-10.47-6.717-12.14-9.742
		c-1.488,0.331-3.112,0.504-4.869,0.442c-3.935-0.141-8.06-1.178-12.54,1.542c0,0,5.762-2.327,11.747-0.537
		c-2.153,2.525-8.647,10.06-19.927,9.626c-4.819-3.104-7.126-3.274-7.126-3.274c9.031,3.79,7.733,13.119,10.862,24.035
		c0,0,0.657,1.748,1.955,2.608c-1.719-0.145-3.187-0.876-3.187-0.876c1.207,1.748,7.63,1.575,7.597,4.964l2.352-0.132
		c0.265-3.166,1.509-5.539,3.137-5.63c0.335-0.021,0.665,0.07,0.984,0.236l6.584-0.368c0.298-0.203,0.616-0.327,0.955-0.343
		c1.98-0.112,3.778,3.195,4.009,7.382c0.236,4.191-1.182,7.676-3.162,7.787c-0.335,0.021-0.665-0.066-0.984-0.236l-6.584,0.368
		c-0.298,0.203-0.616,0.327-0.955,0.343c-1.629,0.091-3.129-2.125-3.745-5.245l-3.059,0.174c-0.608,1.98-2.298,3.728-7.217,2.819
		c-2.356-0.434-3.381-1.223-3.807-2.203l-3.96,0.219c-0.26,3.166-1.505,5.539-3.133,5.63c-0.339,0.021-0.67-0.066-0.988-0.231
		l-6.58,0.364c-0.302,0.203-0.62,0.327-0.955,0.343c-1.984,0.112-3.778-3.195-4.013-7.382
		C41.987,150.62,43.404,147.135,45.384,147.024"/>
	<path fill="#00D1DB" d="M85.672,127.763c-0.26-1.885-0.393-4.274-0.248-6.163c2.244,7.969,6.725,15.297,12.793,20.927
		c4.456,4.133,10.027,6.766,15.674,8.858c8.531,3.162,17.128,6.183,23.382,13.177c1.529,1.711,2.893,3.633,3.79,5.754
		c0.248,0.587,0.612,1.695,0.723,2.277c-0.368-0.479-0.794-0.926-1.215-1.364c-12.788-13.322-34.058-11.982-46.537-25.61
		c-2.984-3.257-5.278-7.134-6.754-11.292C86.523,132.202,85.982,129.999,85.672,127.763"/>
	<path fill="#00D1DB" d="M95.167,152.833c-0.418-1.191-0.82-2.727-0.975-3.974c2.511,4.884,6.392,9.057,11.08,11.915
		c3.442,2.099,7.412,3.075,11.359,3.689c5.964,0.929,11.952,1.758,16.941,5.479c1.22,0.91,2.361,1.98,3.224,3.24
		c0.239,0.349,0.621,1.021,0.771,1.385c-0.302-0.263-0.638-0.497-0.97-0.726c-10.073-6.972-23.723-3.292-33.635-10.503
		c-2.37-1.723-4.373-3.941-5.882-6.449C96.306,155.606,95.664,154.245,95.167,152.833"/>
	<path fill="#00D1DB" d="M108.639,203.133c-52.105,0-94.495-42.39-94.495-94.495c0-52.104,42.39-94.495,94.495-94.495
		s94.495,42.39,94.495,94.495S160.744,203.133,108.639,203.133z M108.639,18.514c-49.694,0-90.124,40.429-90.124,90.124
		s40.43,90.124,90.124,90.124s90.124-40.429,90.124-90.124C198.763,58.944,158.333,18.514,108.639,18.514z"/>
	<path fill="#00D1DB" d="M108.639,217.277C48.735,217.277,0,168.542,0,108.638C0,48.735,48.735,0,108.639,0
		s108.639,48.735,108.639,108.638C217.278,168.542,168.543,217.277,108.639,217.277z M108.639,5.025
		C51.506,5.025,5.025,51.506,5.025,108.638c0,57.133,46.481,103.614,103.614,103.614s103.614-46.481,103.614-103.614
		C212.253,51.506,165.771,5.025,108.639,5.025z"/>
</g>
</svg>
