<?xml version="1.0" encoding="utf-8"?>
<!-- Generator: Adobe Illustrator 24.3.0, SVG Export Plug-In . SVG Version: 6.00 Build 0)  -->
<svg version="1.1" id="Layer_3" xmlns="http://www.w3.org/2000/svg" xmlns:xlink="http://www.w3.org/1999/xlink" x="0px" y="0px"
	 viewBox="0 0 245.16 233.391" enable-background="new 0 0 245.16 233.391" xml:space="preserve">
<g>
	<path fill="#020202" d="M78.294,35.47c-3.16-17.1-15.978-29.046-28.603-26.684C37.065,11.149,29.386,26.92,32.561,44.02
		c3.16,17.1,15.963,29.046,28.589,26.684C73.776,68.341,81.454,52.57,78.294,35.47z"/>
	<path fill="#020202" d="M78.353,157.179c-5.39-8.329-11.474-15.83-17.838-22.579c-2.023-2.156-4.09-4.238-6.158-6.232
		c-1.875,5.021-3.559,11.046-4.799,18.267c-5.877,56.173,32.768,86.342,33.329,86.755C73.407,211.861,74.544,182.238,78.353,157.179
		z"/>
	<path fill="#020202" d="M195.47,8.786c-12.626-2.363-25.443,9.584-28.604,26.684c-3.16,17.1,4.519,32.871,17.145,35.234
		c12.626,2.363,25.429-9.584,28.589-26.684C215.774,26.92,208.095,11.149,195.47,8.786z"/>
	<path fill="#020202" d="M195.603,146.635c-1.241-7.221-2.924-13.246-4.799-18.267c-2.068,1.993-4.135,4.076-6.172,6.232
		c-6.35,6.748-12.434,14.25-17.824,22.579c3.795,25.059,4.947,54.682-4.534,76.212C162.835,232.977,201.48,202.808,195.603,146.635z
		"/>
</g>
<g>
	<path fill="#C12A0C" d="M245.16,82.768c-2.171,0.886-32.162,13.482-59.569,39.871c-2.082,1.993-4.15,4.076-6.173,6.232
		c-6.364,6.748-12.434,14.25-17.823,22.579c-1.565,2.377-3.057,4.843-4.474,7.354c-10.396,18.37-17.351,40.299-17.159,66.038
		c-7.251-15.491-14.324-40.388-17.381-69.36c-3.057,28.973-10.145,53.87-17.395,69.36c0.192-25.739-6.749-47.668-17.145-66.038
		c-1.418-2.51-2.909-4.976-4.474-7.354c-5.39-8.329-11.459-15.83-17.824-22.579c-2.023-2.156-4.09-4.238-6.172-6.232
		C32.163,96.251,2.171,83.654,0,82.768C59.599,102.556,116.334,71.723,85.441,0c22.49,28.914,33.373,63.276,37.139,96.886
		C126.346,63.276,137.229,28.914,159.719,0C128.827,71.723,185.561,102.556,245.16,82.768z"/>
</g>
</svg>
