<?xml version="1.0" encoding="utf-8"?>
<!-- Generator: Adobe Illustrator 24.3.0, SVG Export Plug-In . SVG Version: 6.00 Build 0)  -->
<svg version="1.1" id="Layer_1" xmlns="http://www.w3.org/2000/svg" xmlns:xlink="http://www.w3.org/1999/xlink" x="0px" y="0px"
	 viewBox="0 0 265.965 318.69" enable-background="new 0 0 265.965 318.69" xml:space="preserve">
<g>
	<linearGradient id="SVGID_1_" gradientUnits="userSpaceOnUse" x1="-26.7559" y1="44.1019" x2="241.0855" y2="355.5557">
		<stop  offset="0" style="stop-color:#2E3192"/>
		<stop  offset="1" style="stop-color:#00A651"/>
	</linearGradient>
	<path fill="url(#SVGID_1_)" d="M36.325,2.826C16.054,7.898,1.886,26.723,1.121,49.422C0.755,54.643,0.073,59.848,0.073,65.07
		c-0.1,35.337-0.083,70.658-0.033,105.995c0.017,6.585,0.399,13.154,0.615,19.739c5.238,3.459,11.075,0.748,16.546,1.646
		c6.402,1.048,8.381-1.297,8.298-7.965c-0.366-33.159-0.067-66.334-0.283-99.493c-0.017-4.922,0.898-7.433,6.302-6.386
		c5.787,1.131,6.003-2.345,5.97-6.785c-0.166-21.269-0.05-42.554-0.133-63.84C37.339,6.285,38.37,4.157,36.325,2.826z"/>
	<linearGradient id="SVGID_2_" gradientUnits="userSpaceOnUse" x1="-0.7443" y1="21.7326" x2="267.0971" y2="333.1864">
		<stop  offset="0" style="stop-color:#2E3192"/>
		<stop  offset="1" style="stop-color:#00A651"/>
	</linearGradient>
	<path fill="url(#SVGID_2_)" d="M45.288,0.365c-3.792,0.399-5.022,1.879-4.989,5.754c0.166,22.4,0.133,44.799,0.033,67.216
		c-0.017,3.675,0.765,6.003,5.039,5.238c6.003-1.081,7.217,1.713,7.167,7.317c-0.249,33.192-0.05,66.384-0.216,99.576
		c-0.017,4.922,0.549,7.284,6.519,7.217c5.754-0.066,6.768-1.996,6.718-7.151c-0.216-26.557-0.1-53.114-0.1-79.671
		c0-11.491,0-11.491,11.69-11.674c0.067-29.334,0.133-58.652,0.199-87.986C67.289,0.864,56.596-0.832,45.288,0.365z"/>
	<linearGradient id="SVGID_3_" gradientUnits="userSpaceOnUse" x1="11.7846" y1="10.9581" x2="279.626" y2="322.4119">
		<stop  offset="0" style="stop-color:#2E3192"/>
		<stop  offset="1" style="stop-color:#00A651"/>
	</linearGradient>
	<path fill="url(#SVGID_3_)" d="M81.423,8.148c-1.896,11.807-0.632,23.68-0.765,35.52c-0.2,16.846,0.1,33.708,0.2,50.553
		c11.591,0.116,11.591,0.116,11.591,11.857c0,26.574,0.083,53.164-0.083,79.754c-0.033,4.606,0.449,6.818,6.086,6.835
		c5.754,0.017,6.885-1.879,6.835-7.101c-0.249-22.433-0.1-44.866-0.1-67.299c0-11.291,0-11.291,11.408-10.975l0.632-32.943
		c-7.018-8.747-10.26-19.207-13.353-29.717C99.683,30.431,93.23,17.66,81.423,8.148z"/>
	<linearGradient id="SVGID_4_" gradientUnits="userSpaceOnUse" x1="39.4962" y1="-12.873" x2="307.3376" y2="298.5807">
		<stop  offset="0" style="stop-color:#2E3192"/>
		<stop  offset="1" style="stop-color:#00A651"/>
	</linearGradient>
	<path fill="url(#SVGID_4_)" d="M160.463,99.526c0.05,5.355,0.1,10.676,0.15,16.031c11.69,0.299,11.69,0.299,11.69,11.79
		c0,19.323-0.05,38.63,0.067,57.953c0.017,2.228-1.364,6.319,1.646,6.369c7.583,0.133,15.399,2.345,22.815-1.197
		c0.033,0.067,0.083,0.133,0.133,0.2v-0.266c0.615-18.741,0.765-37.466-0.1-56.207c0,0-0.017,0-0.017,0.017
		c0-0.1,0.017-0.183,0.017-0.283c-0.565-18.209-12.239-31.413-29.584-34.323l-6.818-0.349h-0.15c-0.05,0.083-0.1,0.166-0.133,0.249
		h-0.017v0.017h0.15H160.463z"/>
	<linearGradient id="SVGID_5_" gradientUnits="userSpaceOnUse" x1="21.5863" y1="2.529" x2="289.4277" y2="313.9827">
		<stop  offset="0" style="stop-color:#2E3192"/>
		<stop  offset="1" style="stop-color:#00A651"/>
	</linearGradient>
	<path fill="url(#SVGID_5_)" d="M155.74,114.875V98.994c-4.506-1.181-18.641-4.989-20.038-6.386l-5.238-3.259l-0.465-0.283
		l-2.677-1.663c-1.663-1.946-3.343-3.891-5.022-5.837v25.725h-1.164c3.692,0.1,7.383,0.183,11.092,0.266l0.017,0.017
		c-0.017,26.025-0.083,52.05,0.05,78.075c0,2.112-1.546,4.956,1.596,6.436c3.326-0.033,6.635-0.067,9.961-0.083
		c3.226-1.879,1.413-4.939,1.447-7.35c0.283-22.899,0.366-45.78,0.499-68.679C149.205,116.238,152.547,116.055,155.74,114.875z"/>
	<linearGradient id="SVGID_6_" gradientUnits="userSpaceOnUse" x1="51.1918" y1="-22.931" x2="319.0332" y2="288.5228">
		<stop  offset="0" style="stop-color:#2E3192"/>
		<stop  offset="1" style="stop-color:#00A651"/>
	</linearGradient>
	<ellipse fill="url(#SVGID_6_)" cx="224.355" cy="178.429" rx="5.978" ry="7.486"/>
	<linearGradient id="SVGID_7_" gradientUnits="userSpaceOnUse" x1="38.9921" y1="-12.4395" x2="306.8335" y2="299.0142">
		<stop  offset="0" style="stop-color:#2E3192"/>
		<stop  offset="1" style="stop-color:#00A651"/>
	</linearGradient>
	<ellipse fill="url(#SVGID_7_)" cx="224.355" cy="203.106" rx="5.978" ry="7.486"/>
	<linearGradient id="SVGID_8_" gradientUnits="userSpaceOnUse" x1="27.3257" y1="-2.4068" x2="295.1671" y2="309.047">
		<stop  offset="0" style="stop-color:#2E3192"/>
		<stop  offset="1" style="stop-color:#00A651"/>
	</linearGradient>
	<ellipse fill="url(#SVGID_8_)" cx="224.355" cy="226.705" rx="5.978" ry="7.486"/>
	<linearGradient id="SVGID_9_" gradientUnits="userSpaceOnUse" x1="38.1231" y1="-11.6922" x2="305.9645" y2="299.7616">
		<stop  offset="0" style="stop-color:#2E3192"/>
		<stop  offset="1" style="stop-color:#00A651"/>
	</linearGradient>
	<path fill="url(#SVGID_9_)" d="M265.965,89.718l-3.341-6.81c-0.345-0.751-1.117-0.999-1.709-0.55
		c-16.8,12.732-27.183,35.72-27.183,60.378v108.578c0,4.425-0.548,8.71-1.562,12.748c-2.006,7.986-6.861,14.438-13.248,16.913
		c-1.664,0.645-3.498,1.064-5.501,1.135c-0.2,0.007-0.398,0.01-0.595,0.01c-9.593,0.001-17.297-9.952-17.297-21.964v-57.085
		c0-0.852-0.551-1.542-1.231-1.542h-46.504c-0.68,0-1.231,0.69-1.231,1.542v48.193c0,17.737,5.442,34.872,15.39,47.498
		c10.122,12.846,23.649,19.927,38.045,19.927c14.396,0,27.922-7.08,38.044-19.925c9.949-12.626,15.391-29.762,15.391-47.499
		l-7.966-106.549C244.899,120.17,251.975,101.125,265.965,89.718z M187.157,282.918l-7.239-0.495
		c-10.131,0-18.344-11.016-18.344-24.605v-40.398c0-0.756,0.49-1.369,1.094-1.369h16.157c0.604,0,1.094,0.613,1.094,1.369v39.595
		c0,6.807,1.8,13.422,5.118,18.812l3.055,4.832C188.688,281.601,188.116,282.983,187.157,282.918z"/>
</g>
</svg>
