<?xml version="1.0" encoding="utf-8"?>
<!-- Generator: Adobe Illustrator 24.3.0, SVG Export Plug-In . SVG Version: 6.00 Build 0)  -->
<svg version="1.1" id="Layer_3" xmlns="http://www.w3.org/2000/svg" xmlns:xlink="http://www.w3.org/1999/xlink" x="0px" y="0px"
	 viewBox="0 0 235.174 236.739" enable-background="new 0 0 235.174 236.739" xml:space="preserve">
<g>
	<path d="M117.572,38.928c-10.595-0.08-19.041-8.878-18.996-19.787C98.621,8.401,107.128-0.041,117.865,0
		c10.856,0.041,19.297,8.628,19.166,19.499C136.903,30.198,128.08,39.007,117.572,38.928z"/>
	<path d="M197.654,188.745c-10.842,0.022-19.211-8.325-19.211-19.16c0-10.748,8.693-19.661,19.203-19.69
		c10.626-0.029,19.2,8.691,19.249,19.574C216.944,180.073,208.309,188.723,197.654,188.745z"/>
	<path d="M37.99,188.745c-10.615,0.013-19.3-8.645-19.276-19.216c0.024-10.677,8.821-19.642,19.266-19.634
		c10.673,0.008,19.157,8.664,19.187,19.573C57.195,180.129,48.637,188.732,37.99,188.745z"/>
	<path d="M27.213,137.293c1.964-20.838,10.266-38.787,24.663-53.949c4.487-4.725,9.467-8.877,14.811-12.599
		c1.599-1.113,2.969-0.617,3.9,0.832c0.923,1.436,0.486,2.815-0.974,3.7c-9.99,6.05-17.883,14.245-24.238,23.941
		c-7.648,11.671-11.879,24.56-13.198,38.425c-0.16,1.679,0.005,3.599-2.372,3.756C28.09,141.513,27.105,139.816,27.213,137.293z"/>
	<path d="M207.897,137.575c0.047,1.141,0.229,2.273-0.722,3.177c-0.787,0.748-1.718,0.913-2.666,0.517
		c-1.191-0.497-1.42-1.583-1.518-2.771c-0.622-7.537-2.188-14.877-4.794-21.981c-6.077-16.568-16.334-29.978-30.597-40.338
		c-0.506-0.367-1.118-0.589-1.682-0.875c-1.587-0.807-2.382-2.061-1.48-3.716c0.872-1.599,2.247-1.489,3.676-0.555
		c4.035,2.638,7.834,5.58,11.349,8.873C196.178,95.564,205.562,114.838,207.897,137.575z"/>
	<path d="M118.991,236.635c-12.325-0.073-23.153-2.37-33.686-6.22c-1.5-0.548-2.648-1.316-1.998-3.167
		c0.69-1.963,2.065-1.835,3.697-1.221c11.943,4.496,24.29,6.273,37.017,5.385c7.872-0.549,15.505-2.225,22.914-4.929
		c0.6-0.219,1.178-0.512,1.79-0.688c1.557-0.447,2.934-0.23,3.568,1.457c0.632,1.683-0.442,2.537-1.813,3.103
		c-6.465,2.671-13.167,4.477-20.1,5.398C126.246,236.302,122.09,236.598,118.991,236.635z"/>
</g>
<g>
	<path fill="#F76A00" d="M70.495,138.754c0.205-10.659,5.408-18.963,13.754-25.497c18.705-14.644,49.034-14.288,67.331,0.809
		c13.315,10.987,16.501,27.809,7.312,41.628c-0.571,0.859-0.52,1.535-0.18,2.419c1.726,4.487,3.535,8.93,6.456,12.808
		c0.741,0.984,1.071,1.929,0.403,3.079c-0.753,1.295-1.897,1.611-3.28,1.439c-5.93-0.735-11.636-2.267-16.843-5.24
		c-1.529-0.873-2.59-0.734-4.138-0.075c-20.738,8.832-40.497,7.421-58.574-6.562C74.905,157.508,70.656,149.17,70.495,138.754z
		 M104.442,138.49c-0.015-5.941-4.381-10.308-10.3-10.301c-5.874,0.007-10.38,4.488-10.367,10.31
		c0.013,5.693,4.707,10.348,10.427,10.342C100.112,148.835,104.457,144.443,104.442,138.49z M131.166,138.497
		c-0.011,5.963,4.357,10.363,10.27,10.345c5.52-0.018,10.307-4.873,10.392-10.541c0.083-5.547-4.57-10.094-10.346-10.111
		C135.554,128.172,131.178,132.544,131.166,138.497z M128.125,138.515c0.015-5.906-4.413-10.33-10.333-10.321
		c-5.922,0.008-10.342,4.442-10.312,10.344c0.029,5.661,4.566,10.236,10.215,10.303C123.43,148.909,128.11,144.275,128.125,138.515z
		"/>
	<path fill="#F76A00" d="M117.086,86.759c-5.373,0-10.746,0.002-16.119,0C88.777,86.753,81.68,80.827,79.51,68.871
		c-0.945-5.205-0.98-10.368,0.755-15.429c2.792-8.145,9.242-11.814,17.004-14.012c4.137-1.172,7.652-1.034,10.924,2.295
		c2.394,2.435,5.426,4.233,8.076,6.432c1.142,0.948,1.88,0.986,3.006-0.056c3.118-2.885,6.387-5.604,9.54-8.452
		c1.113-1.006,2.276-1.39,3.733-1.063c1.561,0.351,3.156,0.565,4.706,0.955c14.268,3.595,18.995,13.094,17.859,27.037
		c-0.286,3.511-1.069,6.991-2.82,10.107c-3.336,5.937-8.457,9.493-15.246,9.863c-6.635,0.361-13.305,0.079-19.96,0.079
		C117.086,86.67,117.086,86.715,117.086,86.759z"/>
	<path fill="#F76A00" d="M196.843,236.149c-5.933-0.001-11.867,0.074-17.799-0.018c-10.032-0.155-17.639-6.758-19.469-16.579
		c-0.862-4.623-1.235-9.207-0.17-13.827c2.3-9.983,9.5-14.368,18.718-16.709c3.803-0.966,6.724-0.483,9.449,2.512
		c2.197,2.415,4.935,4.329,7.332,6.573c0.988,0.925,1.594,0.841,2.547-0.025c3.142-2.858,6.399-5.59,9.548-8.439
		c1.166-1.055,2.348-1.45,3.928-1.201c2.533,0.398,5.061,0.787,7.521,1.52c10.812,3.22,15.727,9.305,16.629,20.546
		c0.372,4.632-0.349,9.121-1.98,13.434c-2.806,7.422-9.912,12.104-18.455,12.202C208.71,236.205,202.777,236.149,196.843,236.149z"
		/>
	<path fill="#F76A00" d="M36.599,236.631c-5.421-0.199-12.179,0.522-18.87-0.28c-8.444-1.013-14.499-6.617-16.531-14.88
		c-1.176-4.783-1.651-9.626-0.664-14.519c2.086-10.347,9.305-15.043,18.843-17.434c3.778-0.947,6.733-0.55,9.46,2.472
		c2.132,2.363,4.812,4.224,7.152,6.412c1.074,1.004,1.779,1.107,2.928,0.037c3.047-2.838,6.262-5.495,9.352-8.289
		c1.159-1.048,2.357-1.446,3.929-1.253c2.707,0.332,5.382,0.757,7.995,1.554c9.827,2.997,15.015,9.557,15.689,19.747
		c0.3,4.541-0.316,8.938-1.745,13.239c-2.644,7.959-9.739,13.077-18.438,13.181C49.766,236.688,43.835,236.631,36.599,236.631z"/>
</g>
</svg>
