<?xml version="1.0" encoding="utf-8"?>
<!-- Generator: Adobe Illustrator 24.3.0, SVG Export Plug-In . SVG Version: 6.00 Build 0)  -->
<svg version="1.1" id="Layer_3" xmlns="http://www.w3.org/2000/svg" xmlns:xlink="http://www.w3.org/1999/xlink" x="0px" y="0px"
	 viewBox="0 0 153.66 232.437" enable-background="new 0 0 153.66 232.437" xml:space="preserve">
<g>
	<circle fill="#1082CE" cx="63.888" cy="104.171" r="20.761"/>
	<path fill="#1082CE" d="M119.532,120.88c3.591,0.031,6.435,2.914,6.435,6.442c0,3.591-3.015,6.559-6.606,6.497
		c-3.654-0.055-6.497-3.023-6.442-6.668C113.004,123.622,115.91,120.849,119.532,120.88z"/>
	<path fill="#1082CE" d="M138.758,76.53c0,0-20.55-5.032-38.413,24.609c-16.414,27.234-11.444,40.719-62.01,21.657
		c-54.103-20.395-10.112-34.518-10.112-34.518s-31.161,3.864-26.416,19.577c5.43,18.05,54.188,39.769,63.552,55.575
		c6.318,10.68,7.525,41.031-10.19,55.388c0,0,37.432-11.132,48.579-83.51C112.576,78.05,138.758,76.53,138.758,76.53"/>
</g>
<g>
	<path fill="#80CC28" d="M92.111,129.301c-0.709-3.786-1.768-7.315-1.994-10.906c-0.397-6.668,3.108-11.218,9.403-13.532
		c1.854-0.678,3.42-2.119,5.531-2.462c1.652-0.28,2.563,0.171,2.937,1.753c0.428,1.753-0.257,2.882-2.025,3.023
		c-1.449,0.117-2.937-0.055-4.417-0.031c-0.452,0-0.911,0.171-1.363,0.312c-5.305,1.753-8.18,6.131-7.44,11.958
		c0.343,2.734,1.363,5.367,2.08,8.047c0.257,0.966,0.795,1.192,1.823,1.044c3.365-0.506,6.723-0.927,10.088-1.27
		c1.114-0.109,1.457-0.538,1.597-1.581c0.966-5.959,5.928-9.777,11.997-9.325c5.586,0.428,10.003,5.204,10.088,10.883
		c0.086,5.702-4.386,10.509-10.291,11.07c-4.986,0.483-9.2-2.399-11.654-8.024c-1.854,0.171-3.763,0.288-5.671,0.514
		c-1.909,0.226-3.786,0.561-5.866,0.872c0.226,0.538,0.335,0.958,0.538,1.355c2.734,5.57,7.097,9.862,11.117,14.466
		c0.109,0.14,0.257,0.343,0.366,0.343c2.742,0.28,4.222,2.594,6.333,3.872c6.668,4.066,17.949,2.734,23.339-2.859
		c0.966-1.013,1.652-2.368,2.337-3.646c0.88-1.667,1.823-3.217,3.646-4.066c0.397-0.195,0.795-0.678,0.966-1.13
		c2.368-6.045,4.822-12.121,5.079-18.704c0.14-3.957,0.171-8.055-0.6-11.927c-1.285-6.442-5.905-9.636-12.199-8.928
		c-1.737,0.203-3.389,1.246-5.103,1.753c-1.683,0.506-2.477,0-2.937-1.698c-0.483-1.862,0.171-2.906,2.142-3.077
		c1.511-0.109,3.1-0.872,4.503,0.397c0.109,0.109,0.452,0,0.686-0.031c9.06-0.452,14.303,3.677,15.954,12.573
		c1.145,6.131,0.374,12.153-0.88,18.143c-0.802,3.872-1.652,7.712-2.711,11.498c-0.483,1.722-1.62,3.28-2.275,4.97
		c-0.888,2.267-1.426,4.666-2.423,6.84c-2.368,5.196-5.188,10.057-10.517,12.799c1.052,3.903,2.22,7.658,3.077,11.475
		c2.111,9.574,2.337,19.156-0.997,28.535c-4.931,13.789-14.965,22.436-29.042,25.856c-21.15,5.173-40.213,0.195-55.832-14.692
		c-19.694-18.704-18.922-48.315,1.028-67.393c9.177-8.756,20.317-13.96,32.462-17.318C87.468,130.376,89.976,129.807,92.111,129.301
		z M93.739,132.269c-13.68,2.68-26.681,7.401-37.478,16.897c-9.379,8.25-15.191,18.509-15.619,31.083
		c-0.569,17.177,6.731,30.654,21.29,39.862c12.908,8.195,27.102,11.358,42.324,8.195c17.24-3.615,28.528-15.682,30.919-32.976
		c1.285-9.325-0.366-18.361-3.303-27.234c-0.569-1.722-1.145-2.828-3.194-2.173c-0.46,0.14-1.052-0.031-1.566-0.117
		c-4.16-0.592-7.728-2.516-10.719-5.251c-2.875-2.633-5.36-5.71-8.094-8.538c-1.021-1.075-2.36-1.838-3.248-2.991
		c-1.449-1.87-3.023-3.56-4.16-5.796C98.982,139.444,96.271,136.024,93.739,132.269z M109.841,148.737
		c-0.117,0.203-0.203,0.397-0.312,0.623c1.309,1.387,2.563,2.828,3.989,4.098c2.594,2.321,5.103,4.83,8.008,6.7
		c6.552,4.238,12.114,3.194,16.5-3.194c2.22-3.225,3.677-6.949,5.469-10.454c0.686-1.355,1.285-2.742,2.025-4.409
		c-2.617,0.506-3.474,2.259-4.472,3.981c-0.974,1.698-1.94,3.537-3.334,4.807c-6.162,5.539-18.128,6.357-24.71-0.366
		C112.202,149.703,110.924,149.337,109.841,148.737z M111.524,127.182c-0.062,4.378,3.358,7.938,7.72,8.055
		c4.386,0.086,8.039-3.365,8.148-7.658c0.086-4.464-3.389-8.055-7.837-8.11C115.138,119.415,111.578,122.827,111.524,127.182z"/>
	<path fill="#80CC28" d="M61.675,0c0,0-19.67,24.975-4.588,36.084c-8.125-8.889,5.071-25.637,5.071-25.637S76.85,25.902,69.589,35.5
		C83.573,23.035,61.675,0,61.675,0"/>
	<path fill="#80CC28" d="M128.53,52.693c0,0-31.503-4.121-33.342,14.521c3.482-11.529,24.625-8.764,24.625-8.764
		s-5.757,20.535-17.723,19.211C119.953,83.292,128.53,52.693,128.53,52.693"/>
	<path fill="#80CC28" d="M0,58.683c0,0,30.989-7.042,34.549,11.358c-4.534-11.155-25.334-6.435-25.334-6.435
		s7.65,19.912,19.436,17.473C11.389,88.356,0,58.683,0,58.683"/>
	<circle fill="#80CC28" cx="63.888" cy="104.171" r="16.699"/>
</g>
</svg>
