<?xml version="1.0" encoding="utf-8"?>
<!-- Generator: Adobe Illustrator 24.3.0, SVG Export Plug-In . SVG Version: 6.00 Build 0)  -->
<svg version="1.1" id="Layer_1" xmlns="http://www.w3.org/2000/svg" xmlns:xlink="http://www.w3.org/1999/xlink" x="0px" y="0px"
	 viewBox="0 0 806.557 805.362" enable-background="new 0 0 806.557 805.362" xml:space="preserve">
<g>
	<path fill="#3D3D3C" d="M782.611,711.631V491.578v-3.654v-13.105H23.945v16.759h0.001v219.974c2.438,0.459,4.829,0.927,7.308,1.376
		V495.232h744.049v217.74C777.75,712.527,780.204,712.084,782.611,711.631z"/>
	<path fill="#3D3D3C" d="M0,468.034h806.557v-48.211H0V468.034z M7.307,427.132h791.942v33.594H7.307V427.132z"/>
	<polygon fill="#3D3D3C" points="273.267,776.556 271.267,776.556 271.267,522.057 58.603,522.057 58.603,712.972 56.603,712.972 
		56.603,520.057 273.267,520.057 	"/>
	<polygon fill="#3D3D3C" points="504.082,805.362 502.082,805.362 502.082,522.057 306.979,522.057 306.979,805.362 
		304.979,805.362 304.979,520.057 504.082,520.057 	"/>
	<polygon fill="#3D3D3C" points="536.752,776.556 534.752,776.556 534.752,520.057 752.458,520.057 752.458,712.972 
		750.458,712.972 750.458,522.057 536.752,522.057 	"/>
</g>
<g>
	<path fill="#FDC48E" d="M665.105,339.365H373.264c0-9.928,9.99-17.979,22.315-17.979h247.208
		C655.113,321.386,665.105,329.436,665.105,339.365z"/>
	<path fill="#FDC48E" d="M474.4,222.664c29.937-25.202,59.874-50.414,89.816-75.611c-27.053-42.66-59.794-81.538-97.211-115.474
		c-29.943,25.201-59.886,50.411-89.822,75.611C404.244,149.85,436.977,188.735,474.4,222.664z"/>
	<path fill="#FDC48E" d="M359.674,88.784c3.833,4.196,10.283,4.612,14.629,0.951c25.331-21.328,50.665-42.651,75.992-63.975
		c4.342-3.655,5.031-10.085,1.558-14.573c-2.067-2.669-4.242-5.255-6.52-7.747c-3.833-4.192-10.279-4.608-14.625-0.949
		c-25.332,21.322-50.667,42.648-75.994,63.977c-4.34,3.655-5.031,10.085-1.556,14.571C355.223,83.71,357.399,86.293,359.674,88.784z
		"/>
	<path fill="#FDC48E" d="M489.546,243.05c-3.479-4.492-2.79-10.916,1.558-14.575c25.335-21.326,50.665-42.647,75.992-63.971
		c4.34-3.655,10.793-3.241,14.623,0.945c2.281,2.492,4.459,5.076,6.528,7.747c3.479,4.492,2.79,10.916-1.557,14.577
		c-25.332,21.322-50.668,42.652-75.998,63.973c-4.342,3.655-10.797,3.238-14.625-0.949
		C493.788,248.305,491.613,245.719,489.546,243.05z"/>
</g>
<g>
	<rect x="372.089" y="345.258" fill="#676767" width="294.19" height="62.292"/>
	<path fill="#676767" d="M411.114,142.032C352.896,175.595,211.417,282.4,149.024,359.471c-9.839,12.152-12.415,28.419-2.317,40.355
		c10.04,11.985,26.508,12.219,40.159,4.598c86.58-48.34,215.94-169.542,258.939-221.186c-5.299-7.267-10.862-14.322-16.663-21.18
		C423.376,155.176,417.371,148.49,411.114,142.032z"/>
	<path fill="#676767" d="M386.955,98.879c23.4-19.701,46.799-39.395,70.179-59.086c-4.326-2.396-8.085-6.857-9.704-11.532
		c-23.393,19.689-46.785,39.382-70.185,59.079C381.59,89.733,385.343,94.189,386.955,98.879z"/>
	<path fill="#676767" d="M484.253,214.456c23.405-19.698,46.798-39.393,70.185-59.085c1.627,4.678,5.377,9.141,9.718,11.535
		c-23.393,19.693-46.786,39.386-70.193,59.084C492.35,221.3,488.6,216.842,484.253,214.456z"/>
</g>
</svg>
