<?xml version="1.0" encoding="utf-8"?>
<!-- Generator: Adobe Illustrator 24.3.0, SVG Export Plug-In . SVG Version: 6.00 Build 0)  -->
<svg version="1.1" id="Layer_1" xmlns="http://www.w3.org/2000/svg" xmlns:xlink="http://www.w3.org/1999/xlink" x="0px" y="0px"
	 viewBox="0 0 249.235 207" enable-background="new 0 0 249.235 207" xml:space="preserve">
<g>
	<path fill="#0F1336" d="M249.209,110.809c0,1.118,0,2.054,0,2.991c0.001,24.799,0.005,49.597,0.002,74.396
		c-0.001,10.707-8.43,18.375-20.57,18.722c-0.983,0.028-1.967,0.042-2.95,0.042c-67.421,0.002-134.843-0.022-202.264,0.04
		c-6.315,0.006-12.072-0.973-16.812-4.924c-4.016-3.348-6.489-7.439-6.505-12.348c-0.082-25.908-0.043-51.815-0.039-77.723
		c0-0.376,0.098-0.752,0.166-1.239c26.994,0,53.851,0,81.004,0c-7.609,14.358-8.784,28.911-2.967,43.735
		c4.385,11.175,12.144,20.213,23.016,27.069c21.784,13.738,51.219,13.897,72.666,0.483c12.834-8.028,21.422-18.713,25.373-32.204
		c3.919-13.382,2.225-26.336-4.584-39.04C213.005,110.809,230.91,110.809,249.209,110.809z"/>
	<path fill="#0F1336" d="M2.555,61.417c-1.309,0-2.367-0.82-2.376-1.832C0.114,52.559-0.264,45.739,0.327,38.97
		c0.652-7.455,9.714-13.392,19.632-13.596c5.399-0.111,10.804-0.045,16.438-0.028c1.316,0.004,2.39-0.823,2.39-1.841l0-5.152
		c0-1.016,1.065-1.84,2.378-1.84H82.54c1.314,0,2.378,0.824,2.378,1.84v1.694c0,2.85,2.987,5.16,6.671,5.16h11.26
		c3.684,0,6.671-2.31,6.671-5.16V0l66.646,0v23.371c0,1.016,1.065,1.84,2.378,1.84h8.667c1.314,0,2.378-0.824,2.378-1.84v-5.013
		c0-1.016,1.065-1.84,2.378-1.84h21.206c1.314,0,2.378,0.824,2.378,1.84l0,5.136c0,1.017,1.07,1.842,2.385,1.84
		c3.643-0.007,7.142-0.024,10.639,0.011c5.197,0.053,9.826,1.353,13.714,4.051c4.173,2.896,6.743,6.496,6.852,10.866
		c0.167,6.707,0.053,13.418,0.049,20.127c0,0.263-0.097,0.527-0.176,0.929c-0.918,0.034-1.785,0.094-2.651,0.094
		c-18.959,0.006-37.918-0.007-56.877,0.026c-1.628,0.003-2.783-0.295-3.921-1.297c-25.223-22.22-69.483-22.294-94.971-0.175
		c-1.066,0.925-2.05,1.488-3.801,1.485C58.716,61.403,30.635,61.417,2.555,61.417L2.555,61.417z"/>
	<path fill="#0F1336" d="M233.598,94.22c-6.9,0-12.49,6.09-12.49,13.59H0.118V64.47h249.01v12.84
		C249.128,86.65,242.178,94.22,233.598,94.22z M204.018,104.66h3.97v-4.33h-3.97V104.66z M196.268,104.66h3.97v-4.33h-3.97V104.66z
		 M188.518,104.66h3.97v-4.33h-3.97V104.66z M180.758,104.66h3.98v-4.33h-3.98V104.66z M165.258,104.66h3.97v-4.33h-3.97V104.66z
		 M157.508,104.66h3.97v-4.33h-3.97V104.66z M149.758,104.66h3.97v-4.33h-3.97V104.66z M141.998,104.66h3.98v-4.33h-3.98V104.66z
		 M134.248,104.66h3.98v-4.33h-3.98V104.66z M126.498,104.66h3.97v-4.33h-3.97V104.66z M118.748,104.66h3.97v-4.33h-3.97V104.66z
		 M110.988,104.66h3.98v-4.33h-3.98V104.66z M103.238,104.66h3.98v-4.33h-3.98V104.66z M87.738,104.66h3.97v-4.33h-3.97V104.66z
		 M79.988,104.66h3.97v-4.33h-3.97V104.66z M72.228,104.66h3.98v-4.33h-3.98V104.66z M64.478,104.66h3.98v-4.33h-3.98V104.66z
		 M48.978,104.66h3.97v-4.33h-3.97V104.66z M41.218,104.66h3.98v-4.33h-3.98V104.66z M33.468,104.66h3.98v-4.33h-3.98V104.66z
		 M25.718,104.66h3.97v-4.33h-3.97V104.66z M10.218,104.66h3.97v-4.33h-3.97V104.66z M2.458,104.66h3.98v-4.33h-3.98V104.66z
		 M6.438,67.68h-3.98v4.33h3.98V67.68z M14.188,67.68h-3.97v4.33h3.97V67.68z M21.938,67.68h-3.97v4.33h3.97V67.68z M21.938,100.33
		h-3.97v4.33h3.97V100.33z M29.688,67.68h-3.97v4.33h3.97V67.68z M37.448,67.68h-3.98v4.33h3.98V67.68z M45.198,67.68h-3.98v4.33
		h3.98V67.68z M52.948,67.68h-3.97v4.33h3.97V67.68z M60.698,67.68h-3.97v4.33h3.97V67.68z M60.698,100.33h-3.97v4.33h3.97V100.33z
		 M68.458,67.68h-3.98v4.33h3.98V67.68z M76.208,67.68h-3.98v4.33h3.98V67.68z M83.958,67.68h-3.97v4.33h3.97V67.68z M91.708,67.68
		h-3.97v4.33h3.97V67.68z M99.458,67.68h-3.97v4.33h3.97V67.68z M99.458,100.33h-3.97v4.33h3.97V100.33z M107.218,67.68h-3.98v4.33
		h3.98V67.68z M114.968,67.68h-3.98v4.33h3.98V67.68z M122.718,67.68h-3.97v4.33h3.97V67.68z M130.468,67.68h-3.97v4.33h3.97V67.68z
		 M138.228,67.68h-3.98v4.33h3.98V67.68z M145.978,67.68h-3.98v4.33h3.98V67.68z M153.728,67.68h-3.97v4.33h3.97V67.68z
		 M161.478,67.68h-3.97v4.33h3.97V67.68z M169.228,67.68h-3.97v4.33h3.97V67.68z M176.988,67.68h-3.98v4.33h3.98V67.68z
		 M176.988,100.33h-3.98v4.33h3.98V100.33z M184.738,67.68h-3.98v4.33h3.98V67.68z M192.488,67.68h-3.97v4.33h3.97V67.68z
		 M200.238,67.68h-3.97v4.33h3.97V67.68z M207.988,67.68h-3.97v4.33h3.97V67.68z M215.748,67.68h-3.98v4.33h3.98V67.68z
		 M215.748,100.33h-3.98v4.33h3.98V100.33z M223.498,67.68h-3.98v4.33h3.98V67.68z M231.248,67.68h-3.97v4.33h3.97V67.68z
		 M238.998,67.68h-3.97v4.33h3.97V67.68z M246.758,67.68h-3.98v4.33h3.98V67.68z"/>
</g>
<g>
	<path fill="#CFCFCE" d="M159.958,107.81c-1.95-1.35-4.03-2.53-6.23-3.52v0.31h-3.97v-1.81c-1.23-0.4-2.49-0.73-3.78-1v2.81h-3.98
		v-3.44c-1.24-0.13-2.49-0.2-3.77-0.22v3.66h-3.98v-3.49c-1.28,0.11-2.54,0.3-3.78,0.54v2.95h-3.97v-1.94
		c-1.29,0.4-2.55,0.87-3.78,1.4c-0.4,0.17-0.79,0.35-1.18,0.54c-1.93,0.91-3.78,1.99-5.52,3.21c-9.74,6.84-16.12,18.13-16.14,30.9
		c-0.03,21.31,16.85,38.54,37.76,38.56c21.39,0.02,38.47-16.87,38.54-38.1C176.218,126.12,169.838,114.69,159.958,107.81z
		 M137.998,158.48c-10.63,0.03-19.35-8.79-19.31-19.55c0.03-10.67,8.61-19.18,19.32-19.16c10.83,0.01,19.4,8.62,19.35,19.44
		C157.308,149.76,148.588,158.44,137.998,158.48z"/>
	<rect x="0.119" y="75.551" fill="#CFCFCE" width="21.723" height="22.883"/>
	<rect x="27.251" y="75.551" fill="#CFCFCE" width="33.352" height="22.883"/>
	<rect x="66.012" y="75.551" fill="#CFCFCE" width="33.352" height="22.883"/>
	<rect x="104.773" y="75.551" fill="#CFCFCE" width="33.352" height="22.883"/>
	<rect x="143.534" y="75.551" fill="#CFCFCE" width="33.352" height="22.883"/>
	<rect x="182.295" y="75.551" fill="#CFCFCE" width="33.352" height="22.883"/>
</g>
</svg>
