<?xml version="1.0" encoding="utf-8"?>
<!-- Generator: Adobe Illustrator 24.3.0, SVG Export Plug-In . SVG Version: 6.00 Build 0)  -->
<svg version="1.1" id="Layer_4" xmlns="http://www.w3.org/2000/svg" xmlns:xlink="http://www.w3.org/1999/xlink" x="0px" y="0px"
	 viewBox="0 0 295.734 148.497" enable-background="new 0 0 295.734 148.497" xml:space="preserve">
<g>
	<path fill="#262626" d="M295.734,148c0-81.75-66.25-148-147.995-148S0,66.25,0,148H295.734z"/>
</g>
<g>
	<path fill="#D19500" d="M90.495,108.183c-0.112-0.227-0.192-0.877-0.411-1.096c-0.565-0.215-1.042-0.615-1.63-0.804
		c-0.423-0.135-1.004-0.285-1.254-0.696c-0.342-0.558-0.069-1.223,0.415-1.411c-0.031-0.023-0.062-0.054-0.085-0.096
		c-0.338-0.615-0.242-1.765,0.634-1.811c0.042-0.004,0.081,0.004,0.115,0.015c0.031-0.012,0.069-0.019,0.112-0.015
		c0.238,0.012,0.323-0.396,0.446-0.569c0.161-0.227,0.373-0.285,0.642-0.319c0.385-0.046,0.923,0.038,1.269,0.296
		c0.023-0.008,0.046-0.012,0.073-0.015c0.907-0.065,1.999,0.492,2.338,1.353c0.012,0.038,0.019,0.069,0.019,0.1
		c0.423,0.8,1.13,1.596,1.661,2.307c0.677,0.907,1.35,1.792,1.923,2.772c0.565,0.969,0.965,2.023,1.457,3.03
		c0.165,0.342,0.369,0.669,0.581,0.992c0.304-0.277,0.661-1.219,0.769-1.427c0.235-0.461,0.5-1.084,0.984-1.342
		c0.015-0.008,0.035-0.015,0.05-0.023c0.331-0.781,1.023-1.346,1.65-1.884c0.461-0.392,0.831-0.896,1.23-1.342
		c0.446-0.5,0.973-0.877,1.377-1.419c0.888-1.196,1.027-2.392,0.761-3.826c-0.108-0.588-0.254-1.223-0.496-1.769
		c-0.185-0.423-0.446-0.784-0.581-1.23c-0.219-0.75,0.396-1.607,0.811-2.157c0.954-1.265,2.372-1.384,3.618-0.715
		c0.035-0.042,0.088-0.077,0.158-0.092c1.257-0.292,2.284-0.542,3.568-0.235c0.108,0.027,0.219,0.058,0.327,0.088
		c0.015-0.019,0.038-0.038,0.062-0.054c0.496-0.323,1.169-1.057,1.307-1.646c0.05-0.204,0.35-0.296,0.492-0.131
		c0.608,0.715,0.192,1.811,0.161,2.638c0,0.004,0,0.008,0,0.012c0.392,0.208,0.769,0.446,1.13,0.7
		c0.488-0.742,1.492-1.38,2.126-1.884c0.811-0.642,1.638-1.007,2.049,0.138c0.381,1.073-0.146,2.503-0.596,3.476
		c-0.088,0.192-0.192,0.377-0.304,0.554c0.046,0.046,0.077,0.112,0.077,0.196c0,1.503-0.004,3.011,0.019,4.518
		c0.019,1.353-0.658,2.43-1.034,3.687c-0.169,0.561-0.434,1.096-0.65,1.638c-0.288,0.719-0.3,1.48-0.258,2.242
		c0.012,0.288,0.058,0.573,0.115,0.854c0.023,0.031,0.042,0.069,0.05,0.119c0.096,0.561,1.027,0.931,1.48,1.169
		c0.611,0.319,1.223,0.6,1.792,0.992c1.561,1.061,3.218,1.919,4.826,2.915c2.984,1.849,6.068,4.045,8.182,6.89
		c2.153,2.892,3.276,6.325,4.499,9.674c0.704,1.93,1.45,3.645,2.861,5.176c0.581,0.627,1.296,1.107,2.049,1.5
		c0.611,0.319,1.453,0.634,2.234,0.781c0.046-0.05,0.115-0.081,0.208-0.073c3.703,0.269,7.31,0.042,10.755-1.419
		c1.542-0.654,3.068-1.219,4.545-2.019c0.642-0.346,1.257-0.654,1.942-0.9c0.865-0.311,1.561-0.942,2.384-1.338
		c1.615-0.773,5.718-2.019,6.091,0.827c0.127,0.984-0.696,1.999-1.346,2.634c-0.98,0.957-2.434,1.269-3.703,1.653
		c-0.096,0.027-0.177,0.008-0.238-0.035c-1.096,0.169-2.172,1.069-3.13,1.584c-1.242,0.677-2.495,1.338-3.78,1.93
		c-2.438,1.13-5.156,1.615-7.806,1.938c-2.715,0.331-5.629,0.546-8.344,0.15c-1.188-0.173-2.28-0.523-3.407-0.919
		c-0.658-0.231-1.334-0.492-1.834-0.973c-0.623,0.427-1.561,0.45-2.234,0.769c0.192,0.692,0.223,1.388-0.173,2.099
		c-0.531,0.938-1.761,1.08-2.722,1.096c-1.542,0.027-3.111-0.211-4.653-0.261c-0.642-0.019-1.253,0.065-1.857,0.096
		c-0.081,0.077-0.196,0.104-0.315,0.012c-0.388,0.008-0.773-0.023-1.157-0.123c-0.1,0.031-0.215,0.008-0.288-0.092
		c-0.138-0.054-0.277-0.111-0.415-0.188c-0.15-0.081-0.281-0.181-0.4-0.288c-0.058,0.058-0.146,0.081-0.254,0.038
		c-1.107-0.419-2.388,0.304-3.53,0.308c-1.104,0-1.661-0.98-1.634-1.992c0.023-0.911,0.719-1.315,1.619-1.469
		c-0.054-0.023-0.108-0.042-0.158-0.058c-0.615-0.211-1.227-0.304-1.819-0.596c-0.707-0.354-1.207-1.011-1.7-1.607
		c-0.846-1.027-1.7-2.284-1.696-3.657c0.004-0.677,0.242-1.365,0.796-1.638c-1.061-0.508-2.019-1.088-2.965-1.838
		c-0.865-0.688-1.815-1.334-2.449-2.246c-0.396,1.015-0.715,2.111-1.334,3.007c-0.411,0.596-0.811,1.196-1.211,1.8
		c-0.95,1.43-1.923,2.857-2.803,4.33c-0.627,1.05-0.319,3.057-1.553,3.687c0.35,0.631,0.477,1.388,0.204,2.08
		c-0.304,0.788-1.257,0.777-1.819,0.308c-0.008,0.019-0.019,0.035-0.027,0.054c-0.215,0.331-0.65,0.473-1.019,0.488
		c-0.561,0.023-1.03-0.319-1.292-0.781c-0.092,0.096-0.192,0.185-0.3,0.258c-0.646,0.431-1.192-0.154-1.423-0.719
		c-0.454-1.111,0.242-1.969,1.173-2.43c0.338-0.654,0.408-1.369,0.631-2.069c0.288-0.896,0.588-1.784,0.934-2.661
		c0.45-1.138,0.757-2.257,1.015-3.449c0.227-1.054,0.45-2.107,0.684-3.161c0.138-0.608,0.208-1.4,0.531-1.949
		c0.019-0.031,0.038-0.054,0.062-0.073c0.238-1,0.308-2.042,0.127-3.049c-0.196-1.111-0.861-2.111-1.207-3.184
		c-0.558,0.177-1.361,0.108-1.765,0.015c-2.288-0.527-3.141-2.63-4.026-4.568c-0.484-1.069-1.219-1.988-1.726-3.041
		c-0.523-1.084-0.677-2.43-0.877-3.607c-0.127-0.75-0.273-1.4-0.646-2.073c-0.311-0.569-0.707-1.08-1.015-1.657
		C91.045,109.379,90.787,108.772,90.495,108.183"/>
	<path fill="#D19500" d="M41.403,137.589c0,0-1.568-11.49,7.417-22.422s16.812-5.531,16.812-5.531s3.135-4.448,2.198-6.885
		c-0.943-2.432-4.807-6.031-5.328-10.271c-0.521-4.234-2.927-9.844-0.625-9.953c2.297-0.104,6.578,13.344,6.578,13.344
		s-8.042-22.661,1.568-10.167c3.688,4.797,4.906,12.073,4.906,12.073s3.448,0.844,3.865,1.802c0.422,0.948,4.911,2.328,7.521,6.245
		c2.615,3.917,3.031,5.188,2.193,6.776c-0.833,1.589-4.073,5.297-6.474,4.448l-1.151,1.589c0,0,2.719,10.167-6.786,18
		c0,0-1.359,4.234-0.729,5.932c0.625,1.693,2.818,2.859,2.818,3.917c0,1.057-2.401,2.12-4.807,1.589
		c-2.401-0.531-1.25,0.141-1.25,0.141s-7.417,0.073-8.354-0.458c-0.943-0.531-0.943-2.12-0.943-2.12s-1.568,2.016-2.089,1.802
		s-8.776,1.771-9.609,0.781c-0.833-0.995-2.818-0.464-2.818-0.464s-2.615-3.391-3.448-5.083c-0.839-1.693-1.281,2.438-4.703,0.318
		C34.741,140.87,34.403,133.141,41.403,137.589"/>
	<path fill="#D19500" d="M136.171,42.296c-1.141,0.078-2.182,0.198-2.318,0.297c-0.141,0.078-0.807,0.234-1.474,0.312
		c-2.521,0.37-4.979,1.406-7.219,3.068c-0.708,0.505-1.651,1.193-2.104,1.484c-0.807,0.568-1.104,1.036-1.339,2.245
		c-0.078,0.354-0.646,1.292-1.297,2.073c-1.063,1.328-1.318,1.505-3.385,2.542c-1.219,0.604-2.359,1.094-2.536,1.094
		c-0.156,0-0.411,0.135-0.547,0.292c-0.141,0.156-0.594,0.391-1.042,0.51c-0.438,0.115-1.125,0.411-1.536,0.682
		c-0.411,0.255-0.885,0.469-1.042,0.469c-0.141,0-0.474,0.156-0.729,0.37c-0.568,0.453-0.609,1.49-0.078,2.854
		c0.198,0.531,0.552,1.484,0.766,2.094c0.24,0.625,0.552,1.172,0.708,1.25c1.516,0.646,5.589,0.917,8.141,0.568
		c1.104-0.156,2.104-0.297,2.245-0.297c0.375,0,0.276,0.354-0.177,0.745c-0.234,0.177-0.531,0.448-0.667,0.568
		c-0.161,0.135-0.354,0.255-0.453,0.255c-0.354,0-2.5,1.797-2.755,2.302c-0.156,0.297-0.609,0.766-1.042,1.057
		c-0.49,0.349-0.766,0.703-0.766,0.958c0,0.37,0.078,0.411,0.688,0.312s0.688-0.062,0.688,0.333c0,1.422,2.005,2.755,4.13,2.734
		c1.177,0,1.453-0.099,3.734-1.292c3.562-1.854,6.042-2.677,6.391-2.109c0.198,0.292,1.401,0.234,1.672-0.099
		c0.339-0.391,0.453-0.37,1.083,0.214c0.531,0.49,0.651,0.51,1.807,0.396l1.26-0.141l1.12,1c0.609,0.526,1.182,0.974,1.26,0.974
		s0.333,0.37,0.568,0.823c0.24,0.469,0.552,0.917,0.672,1.036c0.135,0.094,0.312,0.505,0.375,0.875
		c0.432,2.307,0.469,2.818,0.292,3.307c-0.255,0.661-0.964,3.964-1.099,5.156c-0.198,1.641,0.255,3.203,1.339,4.672
		c0.51,0.724,1.141,1.677,1.354,2.13c0.234,0.427,0.786,1.307,1.24,1.932c1.161,1.625,2.302,3.635,2.302,4.068
		c0,0.682-0.786,2.167-1.536,2.927c-1.078,1.078-2.573,2.328-2.948,2.484c-0.177,0.057-0.688,0.391-1.12,0.703
		c-0.432,0.333-1.573,1.036-2.557,1.583c-0.964,0.547-1.812,1.036-1.87,1.115c-0.057,0.057-0.354,0.255-0.667,0.411
		c-0.807,0.406-2.047,1.875-2.656,3.125c-0.453,0.979-0.51,1.271-0.49,3.422c0,1.969,0.057,2.443,0.391,2.927
		c0.589,0.958,2.125,2.833,2.281,2.833c0.099,0,0.156,0.12,0.156,0.276s0.078,0.312,0.156,0.349
		c0.339,0.141,1.516,2.307,1.932,3.521c0.078,0.193,0.193,0.349,0.271,0.349c0.062,0,0.594,0.411,1.141,0.922
		c1.281,1.208,1.969,1.719,2.854,2.13c0.391,0.193,0.729,0.406,0.729,0.505c0,0.078,0.214,0.156,0.469,0.156
		c0.276,0,0.828,0.198,1.24,0.448c0.651,0.375,1.083,0.432,3.208,0.49c1.807,0.062,2.552,0,2.807-0.193
		c0.396-0.297,0.771-2.208,0.531-2.698c-0.193-0.354-0.865-2.188-1.12-3.031c-0.135-0.505-0.276-0.583-0.906-0.641
		c-0.391-0.042-0.724-0.141-0.724-0.234c0-0.276-1.573-0.943-1.969-0.844c-0.255,0.078-0.391,0-0.391-0.177
		c0-0.406-1.141-1.698-1.812-2.031c-0.292-0.156-0.547-0.427-0.547-0.625c0-0.547-0.964-1.797-1.38-1.797
		c-0.234,0-0.432-0.177-0.51-0.469c-0.198-0.76-0.021-1.151,0.589-1.307c0.318-0.099,0.807-0.391,1.104-0.667
		c0.688-0.667,1.927-1.271,2.573-1.271c0.297,0,0.573-0.078,0.615-0.156c0.036-0.078,0.766-0.349,1.63-0.604
		c1.75-0.49,3.365-1.057,6.255-2.188c1.042-0.432,2.141-0.766,2.396-0.766c0.276,0,0.495-0.057,0.495-0.156
		c0-0.078,0.531-0.391,1.198-0.703c0.651-0.312,1.24-0.682,1.297-0.818c0.141-0.354,0.651-0.354,0.651,0
		c0,0.406-0.396,1.484-1.083,2.948c-0.354,0.745-0.708,1.583-0.786,1.859c-0.078,0.25-0.276,0.583-0.411,0.74
		c-0.156,0.135-0.276,0.411-0.276,0.604c0,0.177-0.078,0.411-0.177,0.51c-0.078,0.12-0.49,0.958-0.885,1.875
		c-0.609,1.448-0.708,1.896-0.708,3.167c0,1.172,0.099,1.641,0.432,2.229c0.234,0.411,0.531,0.802,0.651,0.88
		c0.115,0.078,0.469,0.526,0.786,1.016c0.292,0.469,0.724,0.896,0.964,0.958c0.234,0.057,0.943,0.312,1.594,0.583
		c0.865,0.354,1.729,0.526,3.203,0.625c1.104,0.078,2.005,0.214,2.005,0.292s0.552,0.198,1.24,0.255
		c0.667,0.042,2.083,0.276,3.167,0.51c1.062,0.234,2.615,0.469,3.443,0.505c0.823,0.042,1.75,0.156,2.042,0.276
		c0.318,0.115,0.771,0.214,1.047,0.214c0.255,0,0.469,0.078,0.469,0.198c0,0.115,0.906,0.193,2.323,0.193l2.297-0.021l0.354-0.74
		c0.453-0.979,0.438-2.5-0.078-3.833c-0.469-1.266-1.453-2.443-2.042-2.443c-0.219,0-0.63-0.115-0.906-0.271
		c-0.297-0.135-0.766-0.255-1.083-0.276c-0.292,0-0.589-0.094-0.63-0.214c-0.094-0.292-0.964-0.271-1.099,0.021
		c-0.099,0.193-0.135,0.193-0.234,0c-0.141-0.312-0.609-0.312-0.708,0c-0.062,0.177-0.177,0.156-0.432-0.078
		c-0.432-0.448-1.812-0.802-2.458-0.646c-0.849,0.198-1.594,0.526-1.594,0.703c0,0.099-0.354,0.177-0.786,0.177
		c-0.432,0-0.786-0.078-0.786-0.156c0-0.099-0.495-0.312-1.083-0.51c-0.589-0.172-1.078-0.406-1.078-0.505
		c0-0.12,0.901-1.703,2.021-3.557c1.125-1.859,2.302-3.849,2.599-4.417c0.312-0.589,0.823-1.271,1.141-1.526
		c0.552-0.448,0.646-0.469,3.974-0.469c1.865,0,3.438-0.078,3.479-0.172c0.135-0.396,8.182-1.76,10.344-1.781
		c0.667,0,1.219-0.078,1.219-0.193c0-0.12,0.573-0.198,1.339-0.198c0.844,0,1.865-0.177,2.891-0.49
		c0.865-0.271,1.786-0.49,2.062-0.49s0.75-0.135,1.042-0.292c0.318-0.156,1.24-0.391,2.068-0.505
		c0.823-0.12,2.005-0.276,2.594-0.375c0.594-0.094,1.417-0.172,1.828-0.172l0.729-0.021v0.974c0,1.333,1.927,6.099,2.87,7.135
		c0.219,0.234,0.672,0.974,1.005,1.661c0.354,0.703,1.219,1.875,1.927,2.62c0.708,0.74,1.276,1.422,1.276,1.5
		c0,0.099,0.12,0.177,0.255,0.177c0.24,0,1.714,1.25,1.714,1.469c0,0.271,1.26,1.661,1.516,1.661c0.135,0,0.255,0.094,0.255,0.214
		c0,0.115,0.375,0.547,0.823,0.938c0.453,0.391,0.984,0.839,1.161,1.036c0.177,0.177,0.51,0.37,0.729,0.427
		c0.375,0.12,3.188,2.797,3.797,3.615c0.177,0.234,0.432,0.786,0.589,1.255c0.135,0.448,0.312,0.859,0.375,0.917
		c0.057,0.057,0.271,0.604,0.448,1.229c0.354,1.115,0.318,2.151-0.078,2.385c-0.099,0.078-0.177,0.37-0.177,0.703
		c0,0.312-0.078,0.568-0.193,0.568c-0.099,0-0.198,0.099-0.198,0.214c0,0.234-1.182,2.016-1.417,2.094
		c-0.078,0.036-0.156,0.135-0.156,0.234c0,0.214-3.818,4.026-4.448,4.432c-0.37,0.234-1.078,0.354-2.651,0.411
		c-1.182,0.057-2.146,0.156-2.146,0.234c0,0.099-0.333,0.214-0.745,0.292c-0.531,0.078-1.083,0.432-1.969,1.255
		c-1.062,0.974-1.219,1.208-1.219,1.833c0,0.49-0.099,0.724-0.276,0.724c-0.333,0-1.297,1.094-1.297,1.484
		c0,0.156,0.156,0.354,0.354,0.411c0.177,0.078,0.453,0.292,0.589,0.469c0.141,0.198,0.63,0.411,1.104,0.469
		c2.536,0.391,12.448-0.135,13.49-0.703c1.099-0.604,1.432-1.073,1.339-1.896c-0.099-0.661-0.021-0.859,0.547-1.484
		c0.354-0.391,0.729-0.703,0.828-0.703c0.12,0,0.255-0.234,0.312-0.51c0.078-0.271,1.141-1.505,2.38-2.734
		c1.24-1.25,2.26-2.365,2.26-2.479c0-0.12,0.375-0.589,0.849-1.021c0.453-0.427,1.021-1.188,1.255-1.698
		c0.255-0.526,0.531-0.938,0.651-0.938c0.099,0,0.198-0.135,0.198-0.292c0-0.411,1.177-2.677,1.609-3.109
		c0.354-0.312,0.375-0.568,0.297-2.422l-0.099-2.094l-0.906-0.839c-0.49-0.469-0.901-0.917-0.901-1.036
		c0-0.099-0.354-0.547-0.786-0.974c-0.432-0.453-0.786-0.901-0.786-1s-0.297-0.448-0.651-0.802
		c-0.708-0.661-1.516-2.344-1.516-3.146c0-0.271-0.177-0.641-0.37-0.839c-0.219-0.198-0.552-0.88-0.771-1.526
		c-0.333-1.016-0.354-1.443-0.214-3.318c0.156-2.094,0.568-3.635,1.099-4.167c0.141-0.135,0.255-0.391,0.255-0.526
		c0-0.255,0.688-1.427,1.182-1.995c0.099-0.135,0.198-0.328,0.198-0.448c0-0.115,0.135-0.349,0.292-0.51
		c0.156-0.172,0.297-0.505,0.297-0.76c0-0.255,0.276-1.036,0.589-1.76c0.333-0.719,0.589-1.422,0.589-1.578s0.141-0.333,0.297-0.391
		c0.156-0.078,0.297-0.234,0.297-0.396c0-0.156,0.214-0.604,0.469-1.016c0.24-0.391,0.516-0.917,0.594-1.151
		c0.078-0.255,0.271-0.568,0.411-0.724c0.51-0.505,0.729-4.318,0.474-8.031c-0.12-1.839-0.297-3.38-0.396-3.438
		c-0.099-0.057-0.234-0.547-0.312-1.094c-0.099-0.859-0.062-1.057,0.312-1.349c0.219-0.198,0.411-0.469,0.411-0.589
		c0-0.135,0.297-0.469,0.672-0.76c0.37-0.292,1.099-0.917,1.63-1.391c0.51-0.469,1.062-0.859,1.198-0.859
		c0.12,0,0.24-0.078,0.24-0.172c0-0.156,1.984-1.818,3.068-2.562c0.234-0.156,0.807-0.781,1.276-1.37
		c0.943-1.188,1.495-1.734,3.302-3.318c0.693-0.589,1.615-1.427,2.068-1.88c0.474-0.448,0.984-0.875,1.141-0.974
		c0.177-0.099,0.589-0.51,0.906-0.917c0.943-1.177,3.323-3.208,4.323-3.677c0.51-0.255,1.042-0.568,1.182-0.703
		c0.135-0.135,0.391-0.255,0.552-0.255c0.271,0,2.005-0.88,3.714-1.875c0.865-0.49,1.474-1.292,1.474-1.932
		c0-0.198-0.193-0.297-0.625-0.297c-0.354,0-1.141-0.172-1.755-0.37c-1.12-0.37-2.375-0.312-3.417,0.156
		c-0.219,0.099-0.969,0.292-1.672,0.432c-1.26,0.234-3.562,1.151-4.13,1.641c-0.161,0.135-0.594,0.333-0.927,0.448
		c-0.688,0.234-1.964,1.115-2.339,1.604c-0.141,0.156-0.729,0.802-1.339,1.427c-0.609,0.641-1.099,1.271-1.099,1.427
		s-0.12,0.271-0.255,0.271c-0.141,0-0.573,0.312-0.948,0.703c-0.625,0.646-2.812,2.229-3.104,2.229
		c-0.177,0-0.865,0.781-1.281,1.406c-0.193,0.312-0.469,0.547-0.609,0.547c-0.156,0-0.568,0.292-0.943,0.625
		c-0.885,0.823-1.219,1.057-2.24,1.526c-1.24,0.583-4.781,1.562-5.667,1.562c-1.432-0.021-4.089-0.745-6.49-1.76
		c-5.031-2.188-10.365-3.536-15.828-4.062c-3.109-0.292-11.74-0.255-16.031,0.078c-4.719,0.37-6.193,0.271-7.885-0.51
		c-1.531-0.703-3.104-1.172-3.891-1.172c-0.651,0-3.562-1.036-4.052-1.443c-0.906-0.745-1.948-1.135-3.422-1.292
		c-2.5-0.276-3.302-0.469-4.151-1.036c-0.51-0.333-1.24-0.583-2.125-0.703c-0.901-0.12-1.729-0.411-2.552-0.88
		c-1.495-0.818-3.719-2.99-4.505-4.359c-0.552-0.974-1.141-1.62-4.328-4.865l-1.375-1.406l0.885-0.604
		c0.63-0.432,1.12-0.609,1.672-0.609c1.198,0,1.417-0.135,1.417-0.953c0-0.391-0.078-0.802-0.177-0.922
		c-0.198-0.214-0.609-2.266-0.609-3.104c0-0.354-0.161-0.766-0.354-0.938c-0.375-0.354-2.005-0.724-3.109-0.724
		c-0.411,0-0.745-0.135-0.906-0.354c-0.49-0.682-1.078-0.859-2.729-0.74c-0.87,0.057-1.734,0.193-1.948,0.312
		c-0.531,0.271-0.964,0.25-2.359-0.198c-1.474-0.469-2.557-0.49-3.344-0.099c-0.51,0.276-0.672,0.276-1.12,0.021
		C140.4,42.26,138.65,42.14,136.171,42.296z M174.541,76.848c-0.156,0.292-0.198,0.292-0.219,0.036c0-0.328,0.198-0.625,0.354-0.484
		C174.718,76.458,174.661,76.65,174.541,76.848z"/>
	<path fill="#D19500" d="M202.77,69.89l-3.557,0.349l-0.969-1.422l5.51-6.656c0.521,0.234,1.01,0.453,1.474,0.667L202.77,69.89z
		 M194.562,34.541c0,1.083-1.63,1.083-1.63,0C192.932,33.458,194.562,33.458,194.562,34.541z M229.708,67.973l-2.151-0.953
		c-0.083-0.036-8.156-3.708-13.104-12.62c-4.49-8.089-11.859-7.359-14.078-14.245c-1.224-3.786-0.453-4.385,3.24-7.229
		c-1.156-0.656-2.458-1.214-3.849-0.818c-2.724-3.26-6.74-2.385-9.26,0.328c-3.516,3.792-4.833,14.307-0.224,21.177
		c3.036,4.531,6.818,5.562,12.677,8.182l-5.516,6.661l-5.214,2.953c-0.38,0.219-0.229,0.802,0.208,0.802
		c0.177,0,4.99-2.771,5.146-2.865c2.422,3.578,2.484,3.917,2.953,3.599c0.448-0.307,0.042-0.698-0.781-1.906l3.188-0.318
		c3.062,2.599,3.245,2.948,3.609,2.51c0.37-0.443-0.01-0.568-2.974-3.083l2.427-6.969c3.245,1.484,5.661,2.625,7.302,3.609
		c-0.01-0.594,0.016-2-0.427-4.208c2.156,1.656,7.344,4.818,14.479,5.25L229.708,67.973"/>
</g>
</svg>
