<?xml version="1.0" encoding="utf-8"?>
<!-- Generator: Adobe Illustrator 24.3.0, SVG Export Plug-In . SVG Version: 6.00 Build 0)  -->
<svg version="1.1" id="Layer_1" xmlns="http://www.w3.org/2000/svg" xmlns:xlink="http://www.w3.org/1999/xlink" x="0px" y="0px"
	 viewBox="0 0 290.706 227.831" enable-background="new 0 0 290.706 227.831" xml:space="preserve">
<g>
	<linearGradient id="SVGID_1_" gradientUnits="userSpaceOnUse" x1="0" y1="126.3204" x2="290.7056" y2="126.3204">
		<stop  offset="0" style="stop-color:#EE9621"/>
		<stop  offset="1" style="stop-color:#C92035"/>
	</linearGradient>
	<path fill="url(#SVGID_1_)" d="M269.988,227.831H20.722C9.297,227.831,0,218.536,0,207.112V45.531
		c0-11.425,9.297-20.72,20.722-20.72h249.265c11.424,0,20.718,9.296,20.718,20.72v161.582
		C290.706,218.536,281.411,227.831,269.988,227.831z M20.722,34.127c-6.289,0-11.405,5.116-11.405,11.403v161.582
		c0,6.286,5.116,11.401,11.405,11.401h249.265c6.287,0,11.401-5.115,11.401-11.401V45.531c0-6.287-5.113-11.403-11.401-11.403
		H20.722z"/>
	<linearGradient id="SVGID_2_" gradientUnits="userSpaceOnUse" x1="50.2566" y1="126.3204" x2="240.449" y2="126.3204">
		<stop  offset="0" style="stop-color:#EE9621"/>
		<stop  offset="1" style="stop-color:#C92035"/>
	</linearGradient>
	<path fill="url(#SVGID_2_)" d="M145.353,71.408c-40.645,0-76.105,22.096-95.097,54.915c18.992,32.814,54.452,54.91,95.097,54.91
		c40.644,0,76.103-22.096,95.096-54.91C221.456,93.504,185.997,71.408,145.353,71.408z"/>
</g>
<g>
	<path fill="#F79421" d="M195.363,126.323c0,27.619-22.393,50.009-50.009,50.009c-27.624,0-50.011-22.39-50.011-50.009
		c0-27.622,22.387-50.015,50.011-50.015C172.97,76.308,195.363,98.701,195.363,126.323z"/>
	<rect x="221.382" y="17.616" fill="#F79421" width="42.2" height="23.709"/>
	<rect x="47.696" y="4.659" fill="#F79421" width="42.2" height="23.707"/>
	<rect x="33.238" y="17.702" fill="#F79421" width="71.114" height="29.801"/>
</g>
<g>
	<path fill="#04293D" d="M145.357,191.636c-42.759,0-82.651-23.031-104.112-60.107l-3.012-5.211l3.009-5.202
		c21.46-37.079,61.355-60.112,104.114-60.112c42.759,0,82.649,23.033,104.108,60.108v0.001l3.007,5.205l-3.003,5.202
		C228.005,168.603,188.113,191.636,145.357,191.636z M44.786,126.319l1.369,2.37c20.449,35.329,58.461,57.275,99.202,57.275
		c40.738,0,78.75-21.95,99.2-57.282l1.365-2.364l-1.368-2.366c-20.446-35.33-58.457-57.277-99.198-57.277
		c-40.744,0-78.756,21.948-99.204,57.281L44.786,126.319z"/>
	<path fill="#04293D" d="M145.353,178.915c-29,0-52.593-23.592-52.593-52.592c0-29.002,23.593-52.597,52.593-52.597
		c29,0,52.592,23.595,52.592,52.597C197.945,155.323,174.353,178.915,145.353,178.915z M145.353,78.891
		c-26.153,0-47.429,21.278-47.429,47.432c0,26.152,21.276,47.427,47.429,47.427c26.151,0,47.427-21.276,47.427-47.427
		C192.781,100.169,171.505,78.891,145.353,78.891z"/>
	<path fill="#04293D" d="M159.834,150.756h-28.299l-14.168-23.391l14.119-25.648h28.009l15.101,23.454L159.834,150.756z
		 M134.446,145.591h22.406l11.698-20.275l-11.871-18.436h-22.141l-11.207,20.36L134.446,145.591z"/>
	<rect x="133.907" y="145.591" fill="#04293D" width="56.717" height="5.164"/>
	<rect x="100.08" y="101.716" fill="#04293D" width="58.263" height="5.164"/>
	
		<rect x="143.928" y="120.634" transform="matrix(0.4996 -0.8663 0.8663 0.4996 -20.2953 211.2997)" fill="#04293D" width="57.625" height="5.164"/>
	
		<rect x="153.751" y="72.399" transform="matrix(0.8618 -0.5072 0.5072 0.8618 -29.7872 93.2979)" fill="#04293D" width="5.165" height="57.834"/>
	
		<rect x="89.803" y="126.665" transform="matrix(0.4999 -0.8661 0.8661 0.4999 -52.6226 167.3603)" fill="#04293D" width="57.615" height="5.165"/>
	
		<rect x="132.174" y="122.379" transform="matrix(0.8665 -0.4992 0.4992 0.8665 -57.5063 87.4592)" fill="#04293D" width="5.165" height="57.723"/>
	<path fill="#04293D" d="M268.241,45.983h-51.518V12.957h51.518V45.983z M226.04,36.666h32.883V22.274H226.04V36.666z"/>
	<rect x="221.454" y="47.503" fill="#04293D" width="42.055" height="15.6"/>
	<path fill="#04293D" d="M94.555,33.024H43.037V0h51.518V33.024z M52.355,23.707h32.883V9.317H52.355V23.707z"/>
	<path fill="#04293D" d="M109.011,52.162H28.58V13.043h80.431V52.162z M37.897,42.844h61.797V22.36H37.897V42.844z"/>
</g>
</svg>
