<?xml version="1.0" encoding="utf-8"?>
<!-- Generator: Adobe Illustrator 24.3.0, SVG Export Plug-In . SVG Version: 6.00 Build 0)  -->
<svg version="1.1" id="Layer_2_1_" xmlns="http://www.w3.org/2000/svg" xmlns:xlink="http://www.w3.org/1999/xlink" x="0px" y="0px"
	 viewBox="0 0 280.943 300.76" enable-background="new 0 0 280.943 300.76" xml:space="preserve">
<g>
	<path fill="#2E465B" d="M106.311,205.008h69.087c4.538,0,8.335-3.116,9.403-7.32H96.908
		C97.979,201.892,101.781,205.008,106.311,205.008z"/>
	<path fill="#2E465B" d="M179.043,139.462h-6.469v-11.778h0.202c0-22.977-24.404-40.367-48.643-27.602
		c-9.435,4.969-15.197,14.912-15.197,25.577v13.803h-6.271c-3.355,0-6.071,2.718-6.071,6.071v48.206h88.52v-48.206
		C185.114,142.181,182.398,139.462,179.043,139.462z M144.926,172.861v7.663h-8.14v-7.663c-3.493-2.152-5.191-6.931-2.132-11.635
		c0.3-0.459,0.699-0.862,1.158-1.163c6.241-4.111,12.837,0.263,12.837,6.18C148.649,169.052,147.151,171.489,144.926,172.861z
		 M158.65,139.462h-35.718V125.7c0-5.054,2.545-9.801,6.811-12.51c13.401-8.512,27.461,0.041,28.908,12.403v13.869H158.65z"/>
</g>
<g>
	<path fill="#20D0B2" d="M230.848,69.807c0,0-10.676,7.358-40.327,6.536c-35.336-0.981-49.667-15.361-49.667-15.361
		s-14.331,14.38-49.657,15.361c-29.651,0.822-40.337-6.536-40.337-6.536s-26.997,76.159,17.331,139.562
		c23.283,33.296,67.978,54.906,72.663,55.827c4.694-0.921,49.389-22.531,72.663-55.827
		C257.845,145.966,230.848,69.807,230.848,69.807z M204.286,203.496c-20.322,29.067-59.333,47.934-63.433,48.736
		c-4.09-0.802-43.11-19.669-63.433-48.736C38.718,148.135,62.288,81.652,62.288,81.652s9.329,6.427,35.207,5.714
		c30.85-0.862,43.358-13.419,43.358-13.419s12.518,12.558,43.358,13.419c25.888,0.713,35.207-5.714,35.207-5.714
		S242.99,148.135,204.286,203.496z"/>
</g>
<g>
	<path d="M129.665,290.157c-35.205-2.679-67.889-18.437-92.032-44.371C13.365,219.717,0,185.733,0,150.095
		c0-36.473,13.915-71.037,39.18-97.326l1.442,1.386C15.716,80.069,2,114.141,2,150.095c0,71.967,56.144,132.615,127.816,138.068
		L129.665,290.157z"/>
	<path d="M238.074,251.12l-1.391-1.438c27.252-26.335,42.26-61.702,42.26-99.587c0-72.539-56.627-133.221-128.917-138.147
		l0.137-1.995c35.448,2.416,68.401,18.065,92.787,44.067c24.5,26.123,37.993,60.243,37.993,96.075
		C280.943,188.527,265.719,224.405,238.074,251.12z"/>
	<ellipse cx="47.515" cy="45.723" rx="11.121" ry="11.121"/>
	<ellipse cx="139.26" cy="11.122" rx="11.121" ry="11.121"/>
	<ellipse cx="229.161" cy="257.617" rx="11.121" ry="11.121"/>
	<circle cx="140.594" cy="289.639" r="11.121"/>
</g>
</svg>
