<?xml version="1.0" encoding="utf-8"?>
<!-- Generator: Adobe Illustrator 24.3.0, SVG Export Plug-In . SVG Version: 6.00 Build 0)  -->
<svg version="1.1" id="Layer_1" xmlns="http://www.w3.org/2000/svg" xmlns:xlink="http://www.w3.org/1999/xlink" x="0px" y="0px"
	 viewBox="0 0 352.03 853.984" enable-background="new 0 0 352.03 853.984" xml:space="preserve">
<g>
	
		<linearGradient id="SVGID_1_" gradientUnits="userSpaceOnUse" x1="221.7615" y1="174.5657" x2="-145.2699" y2="708.5497" gradientTransform="matrix(0.7546 -0.6562 0.6562 0.7546 -191.4139 104.3759)">
		<stop  offset="0" style="stop-color:#FEE27A"/>
		<stop  offset="0.4671" style="stop-color:#F48F39"/>
		<stop  offset="1" style="stop-color:#DE393A"/>
	</linearGradient>
	<path fill="url(#SVGID_1_)" d="M155.54,0.004c-5.971-0.461-34.732,39.117-65.93,101.648c-3.477,6.968,8.019,58.478,4.51,65.993
		c-2.989,6.4-20.981-31.266-23.955-24.501c-11.804,26.847-23.357,56.452-33.573,87.899c-2.721,8.375,41.063,69.855,38.554,78.474
		c-2.5,8.583-51.294-35.697-53.545-26.906c-5.807,22.685-10.718,46.005-14.382,69.669c-1.374,8.875,61.601,80.158,60.596,89.113
		c-0.973,8.668-65.939-44.991-66.533-36.276c-2.103,30.884-1.719,61.978,1.893,92.659c1.008,8.569,81.309,95.37,82.838,103.861
		c1.91,10.609-74.802-57.117-72.024-46.677c19.448,73.082,60.943,141.37,135.294,195.788c0,0,106.553-18.85,123.973-151.049
		c1.147-8.706-48.651,40.606-48.333,30.89c0.372-11.361,50.698-81.94,49.771-94.762c-1.216-16.811-3.625-34.914-7.429-54.408
		c-1.861-9.538-86.308,48.704-88.015,39.194c-1.525-8.501,79.676-84.759,78.262-93.216c-6.095-36.467-11.203-72.434-15.777-107.091
		c-0.812-6.153-53.933,38.092-54.713,32.027c-0.731-5.677,21.443-42.605,50.169-67.263c-8.651-68.377-15.734-130.197-25.032-178.658
		c-1.815-9.461-54.174,57.914-56.186,49.522c-1.306-5.447,47.8-86.985,46.392-91.947C191.354,25.193,176.971,1.66,155.54,0.004z"/>
	
		<linearGradient id="SVGID_2_" gradientUnits="userSpaceOnUse" x1="178.6796" y1="431.5064" x2="-71.2552" y2="795.1297" gradientTransform="matrix(0.7546 -0.6562 0.6562 0.7546 -191.4139 104.3759)">
		<stop  offset="0" style="stop-color:#FEE27A"/>
		<stop  offset="0.4671" style="stop-color:#F48F39"/>
		<stop  offset="1" style="stop-color:#DE393A"/>
	</linearGradient>
	<path fill="url(#SVGID_2_)" d="M270.881,251.048c-4.066-0.314-23.652,26.637-44.896,69.219c-2.367,4.745,5.461,39.821,3.071,44.939
		c-2.035,4.358-14.287-21.291-16.312-16.684c-8.038,18.282-15.905,38.442-22.862,59.856c-1.853,5.703,27.963,47.569,26.254,53.438
		c-1.702,5.845-34.93-24.308-36.462-18.322c-3.955,15.447-7.298,31.328-9.793,47.442c-0.936,6.044,41.948,54.584,41.264,60.683
		c-0.662,5.903-44.902-30.637-45.306-24.702c-1.432,21.031-1.171,42.204,1.289,63.097c0.687,5.835,55.369,64.944,56.41,70.725
		c1.301,7.225-50.937-38.895-49.045-31.785c13.244,49.766,41.5,96.268,92.131,133.324c0,0,72.559-12.836,84.421-102.859
		c0.781-5.928-33.13,27.651-32.913,21.035c0.253-7.736,34.524-55.798,33.892-64.529c-0.828-11.448-2.468-23.775-5.059-37.05
		c-1.267-6.495-58.773,33.166-59.935,26.69c-1.039-5.789,54.256-57.718,53.294-63.477c-4.15-24.832-7.629-49.325-10.743-72.925
		c-0.553-4.19-36.726,25.939-37.258,21.809c-0.498-3.866,14.602-29.013,34.163-45.803c-5.891-46.562-10.715-88.659-17.046-121.66
		c-1.236-6.442-36.891,39.437-38.261,33.723c-0.889-3.709,32.55-59.233,31.591-62.612
		C295.269,268.201,285.475,252.176,270.881,251.048z"/>
</g>
<g>
	<g>
		<path fill="#FEE27A" d="M185.47,852.965c-7.517-15.847-13.926-32.016-19.975-48.368c-6.051-16.34-11.459-32.902-16.597-49.539
			c-10.122-33.325-18.654-67.12-25.647-101.227c-6.996-34.107-12.452-68.521-16.501-103.092c-0.99-8.646-2.086-17.281-2.779-25.957
			l-1.179-13l-0.589-6.5l-0.293-3.25l-0.211-3.256l-1.688-26.051c-0.336-4.339-0.405-8.692-0.598-13.038l-0.499-13.043
			c-0.153-4.348-0.356-8.694-0.463-13.043l-0.136-13.051l-0.136-13.051c-0.041-4.35-0.132-8.7-0.004-13.05l0.455-26.098
			c0.047-2.174,0.054-4.35,0.135-6.523l0.3-6.518l0.599-13.036c0.574-17.395,2.161-34.729,3.411-52.081
			c0.267-4.343,0.814-8.66,1.247-12.988l1.366-12.977c0.953-8.646,1.687-17.318,2.98-25.923
			c8.888-69.017,22.924-137.35,41.889-204.283c0.07-0.249,0.329-0.393,0.578-0.323s0.393,0.329,0.323,0.578
			c-18.699,66.961-32.461,135.281-41.076,204.241c-1.259,8.598-1.958,17.262-2.878,25.9l-1.315,12.964
			c-0.416,4.323-0.946,8.636-1.196,12.974c-1.182,17.333-2.701,34.644-3.208,52.014l-0.549,13.017l-0.275,6.508
			c-0.073,2.17-0.071,4.342-0.11,6.513l-0.355,26.054c-0.111,4.342-0.004,8.684,0.054,13.026l0.185,13.026l0.185,13.026
			c0.122,4.34,0.345,8.678,0.509,13.017l0.531,13.016c0.204,4.337,0.284,8.681,0.63,13.01l1.75,25.993l0.219,3.249l0.301,3.242
			l0.605,6.485l1.209,12.969c0.713,8.656,1.828,17.269,2.838,25.893c4.127,34.484,9.657,68.803,16.721,102.804
			c7.061,34,15.655,67.681,25.828,100.872c5.163,16.569,10.595,33.061,16.661,49.317c6.05,16.239,12.518,32.412,19.945,47.968
			l0.028,0.059c0.424,0.889,0.048,1.954-0.841,2.379c-0.889,0.424-1.954,0.048-2.379-0.841L185.47,852.965z"/>
	</g>
	<g>
		<path fill="#FEE27A" d="M290.752,832.137c-5.133-10.838-9.488-21.848-13.607-33.001c-4.118-11.14-7.797-22.429-11.292-33.769
			c-6.884-22.714-12.684-45.746-17.436-68.988c-4.753-23.242-8.457-46.692-11.202-70.248c-2.739-23.555-4.607-47.22-5.297-70.923
			c-0.102-2.962-0.238-5.924-0.308-8.886l-0.085-8.892l-0.085-8.891c-0.026-2.964-0.084-5.927,0.005-8.89l0.326-17.779
			c0.034-1.481,0.04-2.963,0.096-4.444l0.208-4.44l0.416-8.88c0.402-11.849,1.493-23.657,2.355-35.476
			c0.185-2.958,0.56-5.899,0.857-8.847l0.939-8.839c0.655-5.889,1.16-11.795,2.045-17.656
			c6.096-47.007,15.697-93.541,28.655-139.115c0.071-0.249,0.33-0.393,0.578-0.322c0.248,0.07,0.391,0.329,0.323,0.577
			c-12.691,45.602-22.019,92.124-27.842,139.074c-0.852,5.854-1.323,11.752-1.943,17.633l-0.888,8.826
			c-0.28,2.943-0.638,5.879-0.806,8.832c-0.794,11.8-1.818,23.585-2.152,35.409l-0.366,8.861l-0.183,4.43
			c-0.048,1.477-0.046,2.956-0.071,4.433l-0.226,17.735c-0.073,2.956,0.002,5.911,0.044,8.867l0.134,8.866l0.134,8.866
			c0.085,2.954,0.24,5.906,0.354,8.859c0.776,23.632,2.726,47.218,5.543,70.685c2.823,23.468,6.6,46.823,11.421,69.959
			c4.819,23.136,10.681,46.053,17.617,68.634c3.52,11.272,7.222,22.491,11.356,33.548c4.12,11.04,8.534,22.054,13.577,32.6
			l0.028,0.059c0.425,0.889,0.049,1.954-0.84,2.379c-0.889,0.425-1.954,0.049-2.379-0.84L290.752,832.137z"/>
	</g>
</g>
</svg>
