<?xml version="1.0" encoding="utf-8"?>
<!-- Generator: Adobe Illustrator 24.3.0, SVG Export Plug-In . SVG Version: 6.00 Build 0)  -->
<svg version="1.1" id="Layer_7" xmlns="http://www.w3.org/2000/svg" xmlns:xlink="http://www.w3.org/1999/xlink" x="0px" y="0px"
	 viewBox="0 0 241.231 252.871" enable-background="new 0 0 241.231 252.871" xml:space="preserve">
<g>
	<path fill="#2461A3" d="M127.789,56.919c-7.54,0-13.655,6.103-13.655,13.631c0,4.469,2.154,8.456,5.497,10.932
		c-1.671-1.907-2.686-4.395-2.686-7.131c0-5.98,4.841-10.82,10.845-10.82c5.992,0,10.833,4.841,10.833,10.82
		c0,2.736-1.015,5.224-2.686,7.131c3.343-2.476,5.497-6.463,5.497-10.932C141.432,63.023,135.316,56.919,127.789,56.919z
		 M171.949,121.482c2.191-0.817,4.407-1.684,6.648-2.575L171.949,121.482z M174.685,114.623
		c-12.937-32.325-68.71-47.85-103.177-0.607c22.829,7.143,52.789,8.518,79.382,6.203c-22.656-0.446-40.446-2.303-58.113-6.463
		C111.769,85.332,155.941,91.089,174.685,114.623z"/>
	<path fill-rule="evenodd" clip-rule="evenodd" fill="#2461A3" d="M168.429,32.157c29.3,23.765,46.397,55.67,46.397,90.745
		c0,70.717-69.415,128.533-157.013,129.968c84.921-7.03,151.129-64.11,151.129-133.489
		C208.942,86.079,193.677,55.609,168.429,32.157z"/>
	<path fill-rule="evenodd" clip-rule="evenodd" fill="#2461A3" d="M147.557,18.231c12.853,6.318,41.044,33.87,49.11,61.518
		C142.24,62.952,121.983,38.837,116.545,0c9.767,13.42,60.915-27.274,80.207,57.924C188.348,42.274,177.701,28.721,147.557,18.231z"
		/>
	<path fill-rule="evenodd" clip-rule="evenodd" fill="#2461A3" d="M213.56,28.902c3.051,8.573,3.702,33.604-4.895,49.798
		c-17.387-31.735-15.928-51.703-1.17-71.827c-1.507,10.442,39.91,14.469,10.9,61.903C221.506,57.912,222.664,47.024,213.56,28.902z"
		/>
	<path fill-rule="evenodd" clip-rule="evenodd" fill="#2461A3" d="M214.018,94.386c1.857-23.138,9.682-33.339,24.706-38.958
		c-3.4,3.846,7.705,14.361-0.736,25.863C231.912,89.575,221.47,90.082,214.018,94.386z"/>
	<path fill="#2461A3" d="M71.57,246.968c-3.343,0.508-25.553-17.568-31.359-29.762C15.426,195.12,36.299,159.824,0,126.645
		c11.724,1.919,20.836,1.609,28.45,0c0.47,7.354,12.516,43.962,22.012,36.15c-1.647,3.429-11.947,6.401-25.726-31.433
		c-2.389,0.644-5.262,1.003-9.607,0.508c16.367,21.344,10.895,55.538,20.824,70.097c-0.52-7.589,1.424-15.785,7.379-24.649
		c9.459-14.064,24.884-29.242,24.005-48.308l-0.557-4.717l-0.743-6.512c43.195,9.805,71.508,10.325,112.561,1.127l-6.648,2.575
		c2.191-0.817,4.407-1.684,6.648-2.575C178.597,118.907,214.797,220.771,71.57,246.968z"/>
	<path fill="#2461A3" d="M178.597,118.907c-2.241,0.891-4.457,1.758-6.648,2.575L178.597,118.907z"/>
</g>
</svg>
