<?xml version="1.0" encoding="utf-8"?>
<!-- Generator: Adobe Illustrator 24.3.0, SVG Export Plug-In . SVG Version: 6.00 Build 0)  -->
<svg version="1.1" id="Layer_2" xmlns="http://www.w3.org/2000/svg" xmlns:xlink="http://www.w3.org/1999/xlink" x="0px" y="0px"
	 viewBox="0 0 265.33 232.648" enable-background="new 0 0 265.33 232.648" xml:space="preserve">
<g>
	<path fill-rule="evenodd" clip-rule="evenodd" fill="#8C0085" d="M41.981,140.146C29.016,91.204,45.333,43.209,79.635,16.98
		l7.267,27.449c-26.935,25.609-38.909,67.064-27.734,109.26c7.566,28.561,24.397,52.402,45.883,68.419
		C75.478,205.827,51.637,176.602,41.981,140.146z"/>
	<path fill-rule="evenodd" clip-rule="evenodd" fill="#8C0085" d="M73.951,84.464C91.473,35.992,132.365,3.951,175.446,0
		l-9.827,27.185c-36.705,7.36-70.301,36.163-85.413,77.96c-10.226,28.29-10.177,57.515-1.826,82.589
		C63.582,158.117,60.894,120.571,73.951,84.464z"/>
	<path fill-rule="evenodd" clip-rule="evenodd" fill="#8C0085" d="M133.976,54.627c42.054-31.934,93.835-37.468,131.353-17.95
		l-23.584,17.914c-34.252-13.243-78.21-6.582-114.466,20.952c-24.539,18.634-41.205,43.523-48.7,69.289
		C83.401,111.778,102.662,78.41,133.976,54.627z"/>
	<path fill-rule="evenodd" clip-rule="evenodd" fill="#8C0085" d="M29.687,181.972C-3.567,142.507-8.509,92.986,12.978,56.459
		l18.656,22.136c-14.741,33.218-8.458,75.201,20.218,109.225c19.405,23.034,45.62,38.338,72.94,44.828
		C89.655,228.932,54.447,211.368,29.687,181.972z"/>
</g>
<g>
	<rect x="148.572" y="113.279" fill="#FF0098" width="70.4" height="35.197"/>
	<path fill="#FF0098" d="M131.3,195.304h10.665v-9.935c0-1.824,1.479-3.303,3.303-3.303h77.007c1.824,0,3.303,1.479,3.303,3.303
		v9.935h10.665v-21.189H131.3V195.304z"/>
	<path fill="#FF0098" d="M141.965,109.975c0-1.824,1.479-3.303,3.303-3.303h77.007c1.824,0,3.303,1.479,3.303,3.303v1.72h12.924
		v-22.27c0-5.765-4.69-10.455-10.455-10.455h-0.278c-5.765,0-10.455,4.69-10.455,10.455v3.843c0,1.824-1.479,3.303-3.303,3.303
		h-60.476c-1.824,0-3.303-1.479-3.303-3.303v-3.843c0-5.765-4.69-10.455-10.455-10.455h-0.278c-5.765,0-10.455,4.69-10.455,10.455
		v22.27h12.924L141.965,109.975L141.965,109.975z"/>
	<path fill="#FF0098" d="M148.572,223.869h70.4v-35.197h-70.4V223.869z M160.285,196.55h46.975c1.824,0,3.303,1.479,3.303,3.303
		s-1.479,3.303-3.303,3.303h-46.975c-1.824,0-3.303-1.479-3.303-3.303S158.46,196.55,160.285,196.55z M160.285,209.311h46.975
		c1.824,0,3.303,1.479,3.303,3.303s-1.479,3.303-3.303,3.303h-46.975c-1.824,0-3.303-1.479-3.303-3.303
		S158.46,209.311,160.285,209.311z"/>
	<path fill="#FF0098" d="M225.579,118.302v33.477c0,1.824-1.479,3.303-3.303,3.303h-77.007c-1.824,0-3.303-1.479-3.303-3.303
		v-33.477h-12.098h-21.999v77.001h16.826v-24.493c0-1.824,1.479-3.303,3.303-3.303h111.55c1.824,0,3.303,1.479,3.303,3.303v24.493
		h16.825v-77.001h-21.999H225.579z M131.847,148.592h-14.521c-1.824,0-3.303-1.479-3.303-3.303s1.479-3.303,3.303-3.303h14.521
		c1.824,0,3.303,1.479,3.303,3.303S133.671,148.592,131.847,148.592z M131.847,134.181h-14.521c-1.824,0-3.303-1.479-3.303-3.303
		s1.479-3.303,3.303-3.303h14.521c1.824,0,3.303,1.479,3.303,3.303S133.671,134.181,131.847,134.181z M243.948,127.574h5.721
		c1.824,0,3.303,1.479,3.303,3.303c0,1.824-1.479,3.303-3.303,3.303h-5.721c-1.824,0-3.303-1.479-3.303-3.303
		S242.123,127.574,243.948,127.574z M243.948,141.986h5.721c1.824,0,3.303,1.479,3.303,3.303s-1.479,3.303-3.303,3.303h-5.721
		c-1.824,0-3.303-1.479-3.303-3.303S242.123,141.986,243.948,141.986z"/>
</g>
</svg>
