<?xml version="1.0" encoding="utf-8"?>
<!-- Generator: Adobe Illustrator 24.3.0, SVG Export Plug-In . SVG Version: 6.00 Build 0)  -->
<svg version="1.1" id="Layer_2" xmlns="http://www.w3.org/2000/svg" xmlns:xlink="http://www.w3.org/1999/xlink" x="0px" y="0px"
	 viewBox="0 0 293.738 190.047" enable-background="new 0 0 293.738 190.047" xml:space="preserve">
<g>
	<path id="XMLID_4858_" fill="#60BD7C" d="M149.114,20.481c4.402-3.536,9.728-5.688,15.359-5.784
		c-5.09-21.503-37.896-18.651-39.038,3.595C132.96,15.498,142.356,16.411,149.114,20.481z M150.002,2.816
		c1.463-2.249,11.423,5.373,9.634,7.372C158.174,12.436,148.213,4.814,150.002,2.816z"/>
	<path id="XMLID_10_" fill="#60BD7C" d="M275.833,71.658c5.612,0.612,10.901,2.857,14.95,6.77
		c11.605-18.804-13.608-39.984-30.146-25.062C267.934,56.713,273.933,64.002,275.833,71.658z M288.952,59.795
		c2.624-0.556,4.278,11.877,1.6,12.025C287.929,72.376,286.275,59.943,288.952,59.795z"/>
	<path id="XMLID_31_" fill="#60BD7C" d="M33.1,53.366C16.562,38.444-8.651,59.624,2.954,78.429c4.049-3.914,9.337-6.158,14.95-6.77
		C19.805,64.002,25.803,56.713,33.1,53.366z M3.186,71.82c-2.678-0.148-1.025-12.581,1.6-12.025
		C7.463,59.943,5.809,72.376,3.186,71.82z"/>
</g>
<g>
	<path id="XMLID_75_" fill="#AE3A91" d="M163.364,44.287c6.763-3.183,14.494-5.313,21.525-3.277
		c1.902-16.519-18.662-27.725-31.541-17.556C159.285,28.509,163.123,35.953,163.364,44.287z M169.905,22.415
		c1.475-2.27,11.528,5.422,9.723,7.44C178.153,32.124,168.099,24.432,169.905,22.415z"/>
	<path id="XMLID_69_" fill="#AE3A91" d="M269.076,98.568c7.033,2.531,14.005,6.492,17.537,12.903
		c13.025-10.336,6.408-32.801-9.889-34.717C277.349,84.528,274.799,92.505,269.076,98.568z M289.168,87.728
		c2.648-0.562,4.317,11.985,1.615,12.136C288.135,100.425,286.464,87.877,289.168,87.728z"/>
	<path id="XMLID_11_" fill="#AE3A91" d="M16.607,79.305C3.281,80.872-2.13,99.241,8.521,107.693
		c2.888-5.243,8.589-8.481,14.34-10.551C18.182,92.184,16.097,85.661,16.607,79.305z M5.112,98.201
		c-2.21-0.123-0.845-10.383,1.32-9.924C8.643,88.399,7.277,98.66,5.112,98.201z"/>
</g>
<g>
	<path id="XMLID_4866_" fill="#573285" d="M137.569,51.389c7.437,0.017,14.345-1.659,20.861-4.808
		c1.389-31.118-44.868-33.661-47.008-2.706C119.163,48.756,128.177,51.402,137.569,51.389z M140.141,25.701
		c1.788-2.752,13.977,6.573,11.788,9.019C150.139,37.471,137.952,28.146,140.141,25.701z"/>
	<path id="XMLID_25_" fill="#573285" d="M245.815,85.35c5.247,5.271,11.316,8.97,18.15,11.351
		c22.986-21.021-7.924-55.529-31.326-35.153C234.661,70.473,239.165,78.718,245.815,85.35z M265.797,69.005
		c3.21-0.682,5.235,14.532,1.957,14.713C264.545,84.397,262.521,69.186,265.797,69.005z"/>
	<path id="XMLID_46_" fill="#573285" d="M61.099,61.549C37.696,41.173,6.786,75.68,29.772,96.701
		c6.834-2.381,12.903-6.08,18.15-11.351C54.573,78.718,59.076,70.473,61.099,61.549z M25.983,83.717
		c-3.278-0.181-1.253-15.394,1.957-14.713C31.217,69.186,29.193,84.397,25.983,83.717z"/>
</g>
<g>
	<path id="XMLID_5_" fill="#107BA2" d="M182.467,47.164c-11.523-3.31-21.382,6.203-32.174,8.481
		c-5.487,2.718-1.132,10.974-0.718,15.601c0.625,2.762,0.338,8.381-3.099,8.511c-4.099-1.264-2.89-8.415-3.336-11.978
		c0.256-1.78-1.892-4.032-2.275-1.118c0.544,2.767-2.059,8.308-4.554,4.42c-1.103-2.665,1.414-6.547,0.062-8.96
		c-0.867-1.547-2.738-0.887-3.524,0.747c-2.565,5.943,1.53,14.986-2.301,20.237c-2.757,1.413-4.218-2.239-4.789-4.749
		c-3.599-6.917,6.368-19.803-0.391-22.876c-4.653-1.187-9.136-3.02-13.255-5.481c-1.244,7.957,1.745,23.255,6.33,40.856
		c2.537,7.821,11.933-2.703,15.362-4.28c3.244-2.26,6.64,2.822,3.308,5.007c0,0-13.27,9.192-13.27,9.192
		c-1.365,0.945-1.982,2.651-1.529,4.248c2.875,5.013,3.97,28.268,12.258,23.625c0.001-0.001,24.654-17.079,24.654-17.079
		c3.229-2.276,6.652,2.834,3.308,5.007c-1.728,2.488-32.904,19.467-29.717,23.856c2.874,12.254,4.998,12.402,14.604,4.942
		c3.162-2.276,6.653,2.773,3.416,4.933c-2.153,2.182-13.579,7.027-11.776,11.348c1.178,4.193,7.913,28.39,7.913,28.39
		s22.983-69.759,33.538-101.485c1.178-3.542-2.831-6.543-5.899-4.417l-27.953,19.364c-3.137,2.255-6.666-2.753-3.416-4.932
		c0,0,39.848-27.604,39.848-27.604C191.518,65.496,194.18,50.488,182.467,47.164z"/>
	<path id="XMLID_3_" fill="#107BA2" d="M280.549,114.11c-5.808-10.489-19.506-10.733-28.748-16.753
		c-5.802-1.958-8.56,6.959-11.539,10.524c-1.511,2.395-5.687,6.165-8.21,3.827c-2.005-3.792,3.907-7.993,6.11-10.829
		c1.44-1.078,1.513-4.189-0.818-2.4c-1.572,2.341-7.331,4.419-6.346-0.094c1.104-2.664,5.629-3.63,6.38-6.292
		c0.481-1.707-1.308-2.563-3.02-1.963c-6.016,2.388-9.515,11.679-15.937,12.683c-2.949-0.95-1.399-4.566-0.028-6.745
		c2.346-7.436,18.505-9.5,15.9-16.452c-2.451-4.13-4.325-8.596-5.497-13.248c-6.507,4.747-15.21,17.678-24.414,33.365
		c-3.737,7.324,10.349,6.526,13.889,7.836c3.892,0.696,2.7,6.691-1.202,5.88c0,0-15.883-2.883-15.883-2.883
		c-1.633-0.296-3.276,0.473-4.085,1.923c-1.512,5.578-17.181,22.795-8.037,25.373c0.001,0,29.51,5.356,29.51,5.356
		c3.892,0.674,2.7,6.707-1.201,5.88c-2.982,0.537-37.032-9.502-37.882-4.144c-6.632,10.697-5.236,12.303,6.832,13.821
		c3.845,0.626,2.743,6.665-1.073,5.904c-3.066,0.021-14.571-4.633-16.351-0.302c-2.132,3.798-14.479,25.671-14.479,25.671
		s65.579-33.075,95.476-48.045c3.338-1.671,2.625-6.628-1.048-7.295l-33.457-6.073c-3.813-0.623-2.767-6.661,1.072-5.903
		c0,0,47.696,8.658,47.696,8.658C273.987,133.473,286.482,124.743,280.549,114.11z"/>
	<path id="XMLID_1_" fill="#107BA2" d="M13.188,114.11c5.808-10.489,19.506-10.733,28.748-16.753
		c5.802-1.958,8.56,6.959,11.539,10.524c1.511,2.395,5.687,6.165,8.21,3.827c2.005-3.792-3.907-7.993-6.11-10.829
		c-1.44-1.078-1.513-4.189,0.818-2.4c1.572,2.341,7.331,4.419,6.346-0.094c-1.104-2.664-5.629-3.63-6.38-6.292
		c-0.481-1.707,1.308-2.563,3.02-1.963c6.016,2.388,9.515,11.679,15.937,12.683c2.949-0.95,1.399-4.566,0.028-6.745
		c-2.346-7.436-18.505-9.5-15.9-16.452c2.451-4.13,4.325-8.596,5.497-13.248c6.507,4.747,15.21,17.678,24.414,33.365
		c3.737,7.324-10.349,6.526-13.889,7.836c-3.892,0.696-2.7,6.691,1.202,5.88c0,0,15.883-2.883,15.883-2.883
		c1.633-0.296,3.276,0.473,4.085,1.923c1.512,5.578,17.181,22.795,8.037,25.373c-0.001,0-29.51,5.356-29.51,5.356
		c-3.892,0.674-2.7,6.707,1.201,5.88c2.982,0.537,37.032-9.502,37.882-4.144c6.632,10.697,5.236,12.303-6.832,13.821
		c-3.845,0.626-2.743,6.665,1.073,5.904c3.066,0.021,14.571-4.633,16.351-0.302c2.132,3.798,14.479,25.671,14.479,25.671
		s-65.579-33.075-95.476-48.045c-3.338-1.671-2.625-6.628,1.048-7.295l33.457-6.073c3.813-0.623,2.767-6.661-1.072-5.903
		c0,0-47.696,8.658-47.696,8.658C19.75,133.473,7.255,124.743,13.188,114.11z"/>
</g>
</svg>
