<?xml version="1.0" encoding="utf-8"?>
<!-- Generator: Adobe Illustrator 24.3.0, SVG Export Plug-In . SVG Version: 6.00 Build 0)  -->
<svg version="1.1" id="Layer_5" xmlns="http://www.w3.org/2000/svg" xmlns:xlink="http://www.w3.org/1999/xlink" x="0px" y="0px"
	 viewBox="0 0 249.125 244.516" enable-background="new 0 0 249.125 244.516" xml:space="preserve">
<g>
	<path fill="#BF935B" d="M239.081,124.627c0.309,2.372,0.439,4.594,0.388,6.693c1.107,2.092,1.826,4.58,2.157,7.448l0.072,0.647
		l-0.173,0.625c-2.322,8.282-7.808,14.508-16.305,18.52c-7.168,3.386-16.356,5.104-27.298,5.104h-0.007
		c-16.464,0-36.558-4.069-53.755-10.877c-12.186-4.831-48.988-16.737-80.664-2.337c1.323,48.319,40.799,87.077,89.306,87.077
		c49.34,0,89.342-40.102,89.342-89.579C242.144,139.883,241.072,132.068,239.081,124.627"/>
</g>
<g>
	<path fill="#351F17" d="M11.266,151.156c-0.237-17.341,13.71-31.475,30.95-31.475c0.065,0,0.122,0,0.187,0
		c8.951,0.058,15.824,7.973,14.774,16.881c-0.41,3.508-0.633,7.074-0.661,10.683c-0.072,9.885,1.359,19.447,4.069,28.455
		c-5.076,3.76-11.338,6.003-18.117,6.061C25.522,181.897,11.496,168.144,11.266,151.156z M0,150.595
		c0,21.611,17.47,39.139,39.031,39.139c8.872,0,17.046-2.969,23.603-7.966c13.71,36.572,48.959,62.748,90.183,62.748
		c53.187,0,96.308-43.237,96.308-96.567c0-20.188-6.176-38.93-16.744-54.423c-2.444-3.58-7.908-2.739-9.253,1.388
		c-0.014,0.058-0.029,0.108-0.05,0.158c-0.51,1.567-0.28,3.278,0.647,4.637c9.325,13.753,14.774,30.361,14.774,48.24
		c0,47.45-38.355,85.912-85.682,85.912c-47.32,0-85.675-38.463-85.675-85.912c0-17.88,5.45-34.487,14.774-48.24
		c0.92-1.359,1.157-3.07,0.64-4.637c-0.014-0.05-0.029-0.101-0.05-0.158c-1.344-4.148-6.823-4.946-9.281-1.344
		c-5.14,7.556-9.238,15.881-12.092,24.767c-6.283-4.335-13.897-6.88-22.1-6.88C17.47,111.456,0,128.977,0,150.595"/>
	<path fill="#351F17" d="M186.355,51.628c0,0,25.973,3.371,4.281,34.623c-21.696,31.251-2.143,37.084-2.143,37.084
		s-18.627-2.155-8.091-28.199C190.938,69.092,203.062,60.1,186.355,51.628"/>
	<path fill="#351F17" d="M188.531,117.064c-3.533-4.649-5.808-14.606,11.107-33.059c11.433-12.476,12.774-20.753,10.738-26.101
		c3.806,5.051,4.732,13.998-9.088,29.076C187.36,102.176,186.446,111.612,188.531,117.064"/>
	<path fill="#351F17" d="M178.889,123.334c0,0-9.373-5.7-6.11-27.557c3.26-21.853-14.263-28.798-14.263-28.798
		s10.465,6.515,8.596,28.178C165.238,116.815,178.889,123.334,178.889,123.334"/>
	<path fill="#351F17" d="M114.79,0c0,0-45.142,5.859-7.441,60.175c37.708,54.315,3.724,64.452,3.724,64.452
		s32.374-3.746,14.062-49.01S85.753,14.724,114.79,0"/>
	<path fill="#351F17" d="M111.009,113.728c6.14-8.081,10.094-25.386-19.303-57.457C71.834,34.588,69.505,20.202,73.042,10.906
		c-6.614,8.778-8.225,24.329,15.795,50.534C113.043,87.854,114.632,104.252,111.009,113.728"/>
	<path fill="#351F17" d="M127.767,124.627c0,0,16.291-9.907,10.619-47.895c-5.665-37.981,24.789-50.052,24.789-50.052
		s-18.189,11.323-14.939,48.974C151.492,113.297,127.767,124.627,127.767,124.627"/>
</g>
<g>
	<path fill="#5A3114" d="M232.158,139.782c-9.418,23.653-50.34,18.477-78.817,6.837
		C182.479,154.944,219.663,157.144,232.158,139.782z M145.361,149.725c28.074,11.115,69.981,16.888,86.797,0.115
		c6.233-6.212,7.887-21.029-4.759-23.207c-16.629-2.861-49.29,12.632-80.772,12.797c-14.925,0.072-27.37,0.661-37.694,1.639
		C119.551,141.788,131.716,144.319,145.361,149.725"/>
</g>
</svg>
