<?xml version="1.0" encoding="utf-8"?>
<!-- Generator: Adobe Illustrator 24.3.0, SVG Export Plug-In . SVG Version: 6.00 Build 0)  -->
<svg version="1.1" id="Layer_1" xmlns="http://www.w3.org/2000/svg" xmlns:xlink="http://www.w3.org/1999/xlink" x="0px" y="0px"
	 viewBox="0 0 261.26 233.464" enable-background="new 0 0 261.26 233.464" xml:space="preserve">
<g>
	<polygon fill="#E0AF41" points="127.133,138.214 107.048,138.214 107.048,79.32 127.133,66.043 	"/>
	<polygon fill="#E0AF41" points="144.839,38.13 144.839,51.06 183.299,31.32 183.299,53.11 144.839,72.85 144.839,85.79 
		183.299,66.04 183.299,87.83 144.839,107.58 144.839,120.51 183.299,100.77 183.299,120.51 144.839,140.26 144.839,153.19 
		183.299,133.45 183.299,171.58 130.539,171.58 130.539,26.89 183.299,0 183.299,18.38 	"/>
	<polygon fill="#E0AF41" points="241.689,33.62 241.689,214.47 184.839,214.47 184.839,154.04 187.009,154.04 187.009,1.28 
		200.959,9.53 200.959,172.43 204.959,172.43 204.959,11.9 218.919,20.15 218.919,190.98 222.919,190.98 222.919,22.52 	"/>
	<rect x="73.346" y="179.746" fill="#E0AF41" width="13.617" height="13.617"/>
	<rect x="90.431" y="179.746" fill="#E0AF41" width="13.617" height="13.617"/>
	<rect x="73.346" y="196.852" fill="#E0AF41" width="13.617" height="13.617"/>
	<rect x="90.431" y="196.852" fill="#E0AF41" width="13.617" height="13.617"/>
</g>
<g>
	<polygon fill="#68401C" points="261.26,228.774 178.54,228.774 95.17,141.124 2.83,233.464 0,230.644 92.43,138.214 
		175.13,138.214 187.01,150.704 200.96,165.374 204.96,169.574 218.92,184.254 222.92,188.464 241.69,208.194 243.9,210.524 
		256.84,224.124 	"/>
</g>
</svg>
