<?xml version="1.0" encoding="utf-8"?>
<!-- Generator: Adobe Illustrator 24.3.0, SVG Export Plug-In . SVG Version: 6.00 Build 0)  -->
<svg version="1.1" id="Layer_1" xmlns="http://www.w3.org/2000/svg" xmlns:xlink="http://www.w3.org/1999/xlink" x="0px" y="0px"
	 viewBox="0 0 202.309 272.969" enable-background="new 0 0 202.309 272.969" xml:space="preserve">
<g>
	<path fill="#47A2DA" d="M38.299,146.535c-19.066,5.424-33.834-8.91-30.163-28.588c0.605-3.241,1.854-6.474,3.382-9.411
		c5.329-10.244,11.007-20.305,16.337-30.549c1.538-2.957,2.986-3.444,5.91-1.831c12.108,6.682,24.294,13.228,36.521,19.69
		c2.45,1.295,2.935,2.504,1.562,4.989c-6.039,10.931-11.795,22.018-17.907,32.906C50.317,140.199,44.639,144.392,38.299,146.535z
		 M17.548,131.203c-2.461-7.003-1.26-13.415,2.366-19.719c4.212-7.321,8.082-14.839,12.072-22.287
		c0.447-0.834,0.707-1.769,1.053-2.656c-1.098,0.265-1.666,0.797-2.019,1.447c-4.68,8.599-9.501,17.129-13.927,25.857
		C14.199,119.552,14.512,125.497,17.548,131.203z"/>
</g>
<g>
	<path fill="#54B948" d="M78.453,97.64c8.456-13.518,16.897-27.012,25.423-40.643c1.19,0.494,2.09,0.733,2.847,1.201
		c10.15,6.273,20.349,12.472,30.397,18.905c9.981,6.391,15.186,15.475,13.791,27.505c-1.295,11.172-11.353,18.95-24.139,18.313
		c-4.664-0.232-9.712-1.501-13.757-3.77c-11.231-6.301-22.028-13.375-32.988-20.157C79.585,98.72,79.226,98.312,78.453,97.64z
		 M107.684,66.515c-0.342,0.494-0.685,0.988-1.027,1.482c0.923,0.748,1.78,1.601,2.779,2.227
		c6.465,4.053,12.775,8.406,19.493,11.991c8.786,4.688,13.94,11.386,13.872,22.224c3.39-7.753-2.081-18.037-8.656-21.832
		c-5.331-3.077-10.479-6.468-15.733-9.68C114.857,70.754,111.261,68.65,107.684,66.515z"/>
</g>
<g>
	<linearGradient id="SVGID_1_" gradientUnits="userSpaceOnUse" x1="67.2835" y1="51.4995" x2="92.2184" y2="51.4995">
		<stop  offset="0" style="stop-color:#8DC63F"/>
		<stop  offset="1" style="stop-color:#009444"/>
	</linearGradient>
	<path fill="url(#SVGID_1_)" d="M76.075,57.714c0.069,5.768,0.138,11.535,0.215,18.06c-6.995-5.402-9.411-12.366-8.952-20.053
		c0.762-12.786,9.162-20.756,19.241-28.496c0.759,3.776,1.304,6.722,1.95,9.645c1.128,5.101,2.641,10.141,3.412,15.293
		c1.474,9.839-3.021,19.563-11.099,23.471c-0.855-3.09-1.833-6.008-2.444-9.002c-0.602-2.946-0.832-5.969-1.225-8.958
		C76.807,57.688,76.441,57.701,76.075,57.714z"/>
	<linearGradient id="SVGID_2_" gradientUnits="userSpaceOnUse" x1="47.8722" y1="21.9339" x2="70.3493" y2="21.9339">
		<stop  offset="0" style="stop-color:#8DC63F"/>
		<stop  offset="1" style="stop-color:#009444"/>
	</linearGradient>
	<path fill="url(#SVGID_2_)" d="M62.759,43.868c-2.034-6.081-3.792-11.336-5.549-16.59c-0.354,0.083-0.707,0.166-1.061,0.248
		c0.844,5.194,1.688,10.388,2.534,15.593c-4.819-0.879-8.915-6.598-10.548-14.635C46.456,20.226,53.062,5.747,61.667,0
		c1.936,9.645,8.705,17.359,8.683,27.43C70.336,33.545,68.794,39.047,62.759,43.868z"/>
	<linearGradient id="SVGID_3_" gradientUnits="userSpaceOnUse" x1="30.0407" y1="60.0735" x2="62.447" y2="60.0735">
		<stop  offset="0" style="stop-color:#8DC63F"/>
		<stop  offset="1" style="stop-color:#009444"/>
	</linearGradient>
	<path fill="url(#SVGID_3_)" d="M53.037,62.329c1,2.004,2.041,3.99,2.987,6.019c0.894,1.919,1.689,3.884,2.957,6.825
		c-2.614-0.023-4.554,0.276-6.344-0.113c-6.308-1.372-10.913-5.294-13.801-10.865c-3.119-6.017-5.653-12.336-8.796-19.31
		c10.415,0.229,19.84,1.276,26.869,8.828c4.627,4.971,6.671,11.129,4.912,19.089c-3.026-4.149-5.523-7.572-8.02-10.995
		C53.546,61.981,53.292,62.155,53.037,62.329z"/>
</g>
<g>
	<linearGradient id="SVGID_4_" gradientUnits="userSpaceOnUse" x1="0" y1="212.8439" x2="202.2682" y2="212.8439">
		<stop  offset="0" style="stop-color:#00AEEF"/>
		<stop  offset="1" style="stop-color:#2B3990"/>
	</linearGradient>
	<path fill="url(#SVGID_4_)" d="M149.983,252.301c2.22,4.103,4.996,8.35,6.883,12.96c2.009,4.907-0.111,7.661-5.439,7.67
		c-33.472,0.051-66.944,0.051-100.415,0.004c-5.638-0.008-7.648-2.733-5.437-8.021c1.917-4.585,4.716-8.801,7.338-13.567
		c-15.917-6.832-28.083-18.519-36.959-33.696c-10.052-17.188-14.982-35.898-15.91-55.694c-0.356-7.597,1.387-9.232,9.012-9.233
		c61.516-0.007,123.032-0.007,184.548,0.002c6.807,0.001,8.946,1.666,8.637,7.982c-1.406,28.679-9.548,54.869-30.574,75.454
		C165.213,242.479,157.09,247.092,149.983,252.301z"/>
	<linearGradient id="SVGID_5_" gradientUnits="userSpaceOnUse" x1="135.0625" y1="106.9402" x2="202.3093" y2="106.9402">
		<stop  offset="0" style="stop-color:#00AEEF"/>
		<stop  offset="1" style="stop-color:#2B3990"/>
	</linearGradient>
	<path fill="url(#SVGID_5_)" d="M135.062,143.38c2.126-3.445,3.681-5.996,5.266-8.527c8.055-12.856,16.193-25.662,24.101-38.608
		c1.21-1.98,1.928-4.601,1.922-6.924c-0.02-8.729,5.814-16.717,13.897-18.43c8.611-1.824,17.19,2.465,20.587,10.294
		c3.529,8.135,0.532,17.136-6.961,22.386c-2.337,1.637-4.476,4.098-5.719,6.66c-4.725,9.732-8.964,19.699-13.605,29.474
		c-0.715,1.505-2.556,3.481-3.919,3.515C159.15,143.501,147.66,143.38,135.062,143.38z"/>
</g>
</svg>
