<?xml version="1.0" encoding="utf-8"?>
<!-- Generator: Adobe Illustrator 24.3.0, SVG Export Plug-In . SVG Version: 6.00 Build 0)  -->
<svg version="1.1" id="Layer_1" xmlns="http://www.w3.org/2000/svg" xmlns:xlink="http://www.w3.org/1999/xlink" x="0px" y="0px"
	 viewBox="0 0 302.9 303" enable-background="new 0 0 302.9 303" xml:space="preserve">
<g>
	<linearGradient id="SVGID_1_" gradientUnits="userSpaceOnUse" x1="151.5468" y1="89.9492" x2="151.5468" y2="279.7913">
		<stop  offset="0" style="stop-color:#EE3B85"/>
		<stop  offset="0.5" style="stop-color:#755EA8"/>
		<stop  offset="1" style="stop-color:#2B144F"/>
	</linearGradient>
	<path fill="url(#SVGID_1_)" d="M227.483,193.739c0.124,13.432-8.259,25.473-20.812,30.252C171.541,245,142.541,253,93.531,223.04
		c-0.062-0.023-0.123-0.046-0.185-0.069c-10.737-4.033-17.731-14.462-17.736-25.931c0-0.827,0-1.653,0.001-2.48
		c0.01-11.81,8.61-20.76,20-20.87c11.38-0.11,20.19,8.7,20.41,20.53c0.11,6.11,0.01,12.23,0.03,18.34c0.01,1.05-0.23,2.3,0.25,3.1
		c0.63,1.04,1.85,2.36,2.84,2.39c0.99,0.02,2.31-1.23,2.92-2.26c0.53-0.88,0.33-2.25,0.33-3.4c0.02-12.12-0.01-24.24,0.01-36.36
		c0.03-16.19,13.01-29.36,28.97-29.43c16.19-0.08,29.24,13,29.31,29.43c0.05,11.81,0.01,23.61,0,35.42c0,0.84,0.03,1.68,0.01,2.52
		c-0.08,2.31,0.7,4.14,3.25,4.11c2.4-0.02,3.04-1.85,3.04-3.98c-0.02-6.01-0.05-12.02,0.02-18.02c0.02-1.89,0.17-3.8,0.49-5.66
		c1.74-10.34,11-17.61,21.21-16.74c10.64,0.91,18.67,9.32,18.78,19.85C227.481,193.6,227.482,193.67,227.483,193.739z"/>
	<linearGradient id="SVGID_2_" gradientUnits="userSpaceOnUse" x1="151.5367" y1="89.9492" x2="151.5367" y2="279.7913">
		<stop  offset="0" style="stop-color:#EE3B85"/>
		<stop  offset="0.5" style="stop-color:#755EA8"/>
		<stop  offset="1" style="stop-color:#2B144F"/>
	</linearGradient>
	<path fill="url(#SVGID_2_)" d="M151.435,139.624c-10.4,0.054-18.914-8.478-18.863-18.903c0.05-10.31,8.37-18.592,18.743-18.661
		c10.597-0.07,19.067,8.112,19.186,18.533C170.622,131.146,162.184,139.568,151.435,139.624z"/>
	<linearGradient id="SVGID_3_" gradientUnits="userSpaceOnUse" x1="207.3376" y1="89.9492" x2="207.3376" y2="279.7913">
		<stop  offset="0" style="stop-color:#EE3B85"/>
		<stop  offset="0.5" style="stop-color:#755EA8"/>
		<stop  offset="1" style="stop-color:#2B144F"/>
	</linearGradient>
	<path fill="url(#SVGID_3_)" d="M193.817,154.043c0.006-7.666,5.718-13.571,13.239-13.688c7.462-0.116,13.881,6.194,13.801,13.566
		c-0.084,7.798-5.934,13.585-13.685,13.538C199.469,167.412,193.811,161.729,193.817,154.043z"/>
	<linearGradient id="SVGID_4_" gradientUnits="userSpaceOnUse" x1="95.8325" y1="89.9492" x2="95.8325" y2="279.7913">
		<stop  offset="0" style="stop-color:#EE3B85"/>
		<stop  offset="0.5" style="stop-color:#755EA8"/>
		<stop  offset="1" style="stop-color:#2B144F"/>
	</linearGradient>
	<path fill="url(#SVGID_4_)" d="M82.468,153.763c0.033-7.75,5.55-13.126,13.462-13.12c7.712,0.006,13.306,5.654,13.266,13.394
		c-0.04,7.765-5.846,13.423-13.718,13.369C87.902,167.354,82.434,161.621,82.468,153.763z"/>
</g>
<g>
	<path fill="#4F4F4F" d="M286.044,274.246c-2.494,0.176-5.839-0.675-7.541-2.347c-14.906-14.495-29.459-29.313-44.218-43.925
		c-2.788-2.729-3.14-4.724-0.792-8.245c5.838-8.744,12.382-17.37,16.167-27.024c15.229-38.702,10.3-75.086-15.374-108.155
		c-3.287-4.254-2.729-6.69,0.85-10.211c15.053-14.788,29.782-29.929,44.805-44.776c1.115-1.115,3.55-0.88,5.37-1.291
		c4.019-0.88,8.744-0.675,11.884-2.817c6.191-4.196,7.247-12.206,3.638-18.192c-3.785-6.22-11.003-8.656-17.752-6.015
		c-6.308,2.494-9.8,9.507-8.803,16.754c0.235,1.79-0.44,4.343-1.673,5.575c-15.023,15.316-30.34,30.339-45.363,45.656
		c-3.022,3.081-5.076,2.875-8.098,0.323c-22.036-18.456-47.446-26.643-76.113-24.295c-21.977,1.79-41.724,9.331-58.684,23.561
		c-3.756,3.169-6.397,2.993-9.889-0.587C60.434,53.83,46.174,39.687,31.854,25.574c-2.787-2.729-4.196-5.34-3.374-9.419
		c0.499-2.318,0-5.164-0.88-7.453c-2.582-6.837-10.798-10.27-18.339-8.01C2.953,2.628-1.008,10.081,0.224,17.71
		c1.144,6.895,7.57,12.236,15.463,10.886c5.722-0.968,8.421,1.731,11.502,5.164c1.672,1.907,3.462,3.756,5.252,5.546
		c12.03,12.059,24.001,24.119,36.119,36.061c2.846,2.787,3.199,4.871,0.47,8.157c-3.668,4.431-6.778,9.389-9.771,14.319
		c-11.972,19.63-15.874,41.167-14.084,63.76c1.643,20.891,9.301,39.67,22.505,56.014c4.871,6.015,5.106,5.927-0.469,11.531
		c-14.436,14.466-28.96,28.843-43.309,43.397c-2.142,2.201-3.99,2.846-7.071,2.201c-9.067-1.907-16.872,4.665-16.784,13.732
		c0.117,8.979,6.748,15.111,15.522,14.407c8.187-0.675,13.732-8.01,12.969-16.52c-0.206-2.23,0.322-5.34,1.761-6.807
		c15.228-15.61,30.75-30.926,46.096-46.419c2.23-2.259,3.814-1.76,6.073-0.088c4.901,3.638,9.83,7.335,15.082,10.416
		c10.417,6.103,21.302,11.033,33.245,12.969c2.113,0.352,4.284,0.587,6.455,0.734c0.939,0.088,1.966,0.499,2.905,1.086
		c0.029,0.029,0.029,0.029,0.029,0.029c5.868,0.704,14.113,0.998,23.62-0.645c0.44-0.205,0.909-0.381,1.35-0.499
		c8.333-2.23,17.282-2.964,25.028-6.455c10.593-4.812,20.217-11.678,30.399-17.488c1.379-0.763,4.196-1.262,4.988-0.499
		c15.816,15.492,31.484,31.102,46.947,46.888c1.38,1.408,1.937,4.313,1.731,6.397c-0.969,9.096,4.724,16.52,13.439,16.989
		c8.656,0.499,15.199-5.751,15.052-14.348C302.592,279.381,295.521,273.542,286.044,274.246z M172.608,246.313
		c-0.352,0.088-0.705,0.147-1.057,0.205c-25.469,5.252-41.695-0.352-41.695-0.352c-35.914-6.573-75.967-40.639-76.23-93.924
		C53.333,98.136,94.5,54.006,151.687,53.859c52.492-0.147,96.389,40.873,97.444,96.594
		C250.1,201.801,211.428,238.948,172.608,246.313z"/>
</g>
<g>
	<linearGradient id="SVGID_5_" gradientUnits="userSpaceOnUse" x1="12.4102" y1="152.6396" x2="51.1251" y2="152.6396">
		<stop  offset="0" style="stop-color:#D81C53"/>
		<stop  offset="0.5" style="stop-color:#F4793B"/>
		<stop  offset="1" style="stop-color:#FABE13"/>
	</linearGradient>
	<path fill="url(#SVGID_5_)" d="M12.41,155.044c1.075-30.013,7.377-54.632,21.49-76.945c3.139-4.964,7.999-6.647,12.1-4.314
		c4.039,2.297,4.826,7.46,1.609,12.608c-13.285,21.258-19.492,44.459-18.815,69.434c0.58,21.386,6.961,41.142,17.863,59.485
		c1.216,2.046,2.646,3.999,3.599,6.161c1.879,4.266,0.668,8.232-3.238,10.007c-3.903,1.773-7.588,1.52-10.33-2.474
		c-9.952-14.494-17.05-30.242-20.292-47.544C14.523,171.462,13.342,161.332,12.41,155.044z"/>
	<linearGradient id="SVGID_6_" gradientUnits="userSpaceOnUse" x1="71.9952" y1="31.8524" x2="231.1991" y2="31.8524">
		<stop  offset="0" style="stop-color:#D81C53"/>
		<stop  offset="0.5" style="stop-color:#F4793B"/>
		<stop  offset="1" style="stop-color:#FABE13"/>
	</linearGradient>
	<path fill="url(#SVGID_6_)" d="M153.199,28.917c-25.618,0.206-47.71,6.596-67.93,19.319c-3.41,2.146-7.303,3.696-10.358,1.015
		c-2.004-1.759-2.892-5.594-2.915-8.51c-0.014-1.79,2.201-4.124,4.007-5.32c14.499-9.598,30.371-16.101,47.392-19.489
		c34.397-6.847,66.925-1.585,97.411,15.863c1.913,1.095,3.793,2.273,5.573,3.571c4.867,3.551,6.104,7.874,3.46,11.699
		c-2.736,3.956-6.69,4.244-12.214,1.243c-6.266-3.404-12.544-6.821-19.011-9.813C183.684,31.587,167.748,29.369,153.199,28.917z"/>
	<linearGradient id="SVGID_7_" gradientUnits="userSpaceOnUse" x1="251.4502" y1="152.9508" x2="289.6162" y2="152.9508">
		<stop  offset="0" style="stop-color:#D81C53"/>
		<stop  offset="0.5" style="stop-color:#F4793B"/>
		<stop  offset="1" style="stop-color:#FABE13"/>
	</linearGradient>
	<path fill="url(#SVGID_7_)" d="M289.584,150.872c0.381,27.585-6.991,51.997-21.064,74.486c-0.991,1.584-1.957,3.246-3.245,4.571
		c-2.988,3.075-6.593,3.57-10.189,1.269c-3.449-2.207-4.581-5.616-2.805-9.34c1.676-3.515,4.089-6.672,5.895-10.133
		c21.997-42.147,21.621-83.818-2.835-124.915c-2.125-3.572-3.765-7.538-0.648-10.812c1.766-1.856,5.419-3.01,7.986-2.674
		c2.182,0.286,4.602,2.802,5.929,4.943C282.553,100.775,290.174,125.14,289.584,150.872z"/>
	<linearGradient id="SVGID_8_" gradientUnits="userSpaceOnUse" x1="71.4921" y1="271.2586" x2="231.3633" y2="271.2586">
		<stop  offset="0" style="stop-color:#D81C53"/>
		<stop  offset="0.5" style="stop-color:#F4793B"/>
		<stop  offset="1" style="stop-color:#FABE13"/>
	</linearGradient>
	<path fill="url(#SVGID_8_)" d="M158.723,289.925c-34.218-0.068-58.506-7.254-80.814-21.27c-0.864-0.543-1.718-1.109-2.533-1.721
		c-3.854-2.896-4.999-7.656-2.712-11.179c2.109-3.248,6.717-3.946,11.004-1.741c7.705,3.963,15.134,8.687,23.201,11.686
		c38.105,14.166,74.752,10.743,109.63-10.346c0.873-0.528,1.696-1.146,2.595-1.624c4.012-2.135,8.726-1.198,10.907,2.132
		c2.284,3.486,1.787,8.44-2.186,10.798c-8.306,4.93-16.75,9.807-25.621,13.566C185.881,287.138,168.639,290.065,158.723,289.925z"/>
</g>
</svg>
