<?xml version="1.0" encoding="utf-8"?>
<!-- Generator: Adobe Illustrator 24.3.0, SVG Export Plug-In . SVG Version: 6.00 Build 0)  -->
<svg version="1.1" id="Layer_1" xmlns="http://www.w3.org/2000/svg" xmlns:xlink="http://www.w3.org/1999/xlink" x="0px" y="0px"
	 viewBox="0 0 308.481 249.466" enable-background="new 0 0 308.481 249.466" xml:space="preserve">
<g>
	<linearGradient id="SVGID_1_" gradientUnits="userSpaceOnUse" x1="101.9627" y1="93.6644" x2="308.4812" y2="93.6644">
		<stop  offset="0" style="stop-color:#5CC1A4"/>
		<stop  offset="0.4136" style="stop-color:#4DC1BC"/>
		<stop  offset="0.6077" style="stop-color:#7E8D96"/>
		<stop  offset="0.8004" style="stop-color:#935E7A"/>
		<stop  offset="0.9349" style="stop-color:#9C3669"/>
		<stop  offset="1" style="stop-color:#9E1F63"/>
	</linearGradient>
	<path fill="url(#SVGID_1_)" d="M101.963,70.449c2.609-3.266,5.022-2.632,7.382-2.15c5.418,1.107,9.438-0.995,12.381-5.438
		c1.237-1.868,2.289-3.858,3.429-5.791c2.997-5.077,2.484-9.779-1.228-14.355c-3.755-4.629-3.542-6.797,0.637-11.14
		c1.078-1.12,2.185-2.211,3.28-3.314c5.799-5.838,6.596-5.897,13.437-1.16c3.845,2.663,7.89,3.382,12.168,1.046
		c1.965-1.073,3.917-2.175,5.846-3.312c5.722-3.373,7.571-6.855,6.419-13.289c-0.902-5.036,0.842-8.008,5.763-9.21
		c2.179-0.532,4.339-1.139,6.522-1.653c6.424-1.513,7.773-0.814,10.256,5.171c2.132,5.137,5.819,7.998,11.553,7.878
		c1.899-0.04,3.799,0.022,5.699,0.001c6.544-0.072,9.953-2.19,12.183-8.331c1.677-4.619,4.502-6.255,9.175-4.959
		c1.661,0.461,3.373,0.74,5.031,1.211c8.33,2.367,8.55,2.688,7.916,11.459c-0.326,4.511,1.251,8.142,5.046,10.643
		c2.3,1.516,4.711,2.871,7.124,4.204c5.065,2.798,9.704,1.697,13.855-1.89c3.948-3.413,7.432-2.899,10.828,0.747
		c1.293,1.388,2.694,2.677,4.055,4.002c4.894,4.763,5.051,6.873,0.918,12.299c-3.248,4.264-3.818,8.772-1.13,13.518
		c1.273,2.248,2.611,4.462,3.991,6.646c2.697,4.268,6.635,5.811,11.546,5.102c1.191-0.172,2.432-0.716,3.556-0.527
		c8.026,1.352,6.517,8.762,8.372,13.857c1.379,3.788-0.023,6.941-4.267,8.643c-9.055,3.632-12.757,17.072-7.168,25.223
		c1.65,2.406,3.953,3.781,6.643,4.668c4.663,1.538,6.011,4.81,4.813,9.355c-0.659,2.502-1.397,4.984-2.078,7.481
		c-1.185,4.347-3.898,6.428-8.45,5.528c-6.418-1.27-10.887,1.031-14.256,6.662c-3.962,6.623-6.955,12.959-0.373,19.654
		c0.358,0.364,0.692,0.795,0.9,1.256c3.158,6.978-3.369,9.247-6.5,13.083c-2.535,3.106-6.124,5.874-9.74,2.566
		c-6.85-6.268-13.251-5.317-20.061-0.442c-0.802,0.574-1.817,0.849-3.718,1.707c0-7.237-0.054-13.835,0.029-20.432
		c0.029-2.276,2.275-2.872,3.68-4.003c27.733-22.301,36.052-59.978,19.926-90.463c-26.236-49.598-94.507-52.902-125.27-5.972
		c-2.037,3.108-4.026,4.42-7.793,4.32C123.808,70.267,113.317,70.449,101.963,70.449z"/>
	<linearGradient id="SVGID_2_" gradientUnits="userSpaceOnUse" x1="0" y1="246.8366" x2="273.8523" y2="246.8366">
		<stop  offset="0" style="stop-color:#5CC1A4"/>
		<stop  offset="0.4136" style="stop-color:#4DC1BC"/>
		<stop  offset="0.6077" style="stop-color:#7E8D96"/>
		<stop  offset="0.8004" style="stop-color:#935E7A"/>
		<stop  offset="0.9349" style="stop-color:#9C3669"/>
		<stop  offset="1" style="stop-color:#9E1F63"/>
	</linearGradient>
	<path fill="url(#SVGID_2_)" d="M273.852,246.803C182.559,250.35,91.28,250.364,0,246.779
		C91.283,243.355,182.573,243.337,273.852,246.803z"/>
</g>
<g>
	<path d="M185.773,208.583c-6.839,0.36-13.775,0.125-20.705-0.201c-14.897-0.692-29.793-1.772-43.811,1.8
		c1.038,21.978,19.251,21.722,33.905,25.841c-0.547,1.44-1.094,2.88-1.648,4.319H64.37c-0.568-1.765-1.135-3.53-1.703-5.296
		c15.72-2.056,31.753-3.703,35.2-25.702c-6.59-0.471-12.204-1.177-17.825-1.218c-19.292-0.159-38.592-0.194-57.891-0.048
		c-10.771,0.076-16.433-4.735-16.413-15.72c0.055-36.84-0.485-73.701,0.741-110.507c0.201-6.022,7.767-16.454,12.612-16.87
		c21.708-1.841,43.666-0.803,65.533-0.803c0.035,1.571,0.076,3.143,0.118,4.714c-18.192,0-36.432,0.838-54.554-0.249
		C14.46,67.701,9.815,74.028,10.231,89.056c0.879,31.559,1.163,63.18,0.028,94.717c-0.609,16.932,6.362,20.968,21.708,20.767
		c44.365-0.561,88.737-0.235,133.108-0.457c6.403-0.028,12.806-0.069,19.209-0.132C184.457,205.593,184.976,207.164,185.773,208.583
		z"/>
</g>
<g>
	<path fill="#2A2F2F" d="M214.113,113.809c-0.859,2.591-1.962,2.516-2.954,2.518c-9.784,0.022-19.568,0.026-29.351,0.013
		c-1.124-0.001-2.576,0.375-2.663-1.462c-0.041-0.875,0.775-1.05,1.413-1.051C191.616,113.802,202.674,113.809,214.113,113.809z"/>
	<path fill="#2A2F2F" d="M196.172,122.979c-4.981,0-9.963,0.03-14.943-0.027c-0.906-0.01-2.236,0.109-2.042-1.463
		c0.133-1.079,1.056-1.128,1.944-1.128c10.134-0.001,20.268-0.019,30.402-0.012c1.061,0.001,2.303,0.229,2.095,1.571
		c-0.195,1.255-1.549,1.055-2.512,1.061c-4.981,0.031-9.962,0.014-14.944,0.014C196.172,122.99,196.172,122.985,196.172,122.979z"/>
	<path fill="#2A2F2F" d="M213.781,128.148c-0.323,2.082-1.863,1.792-3.182,1.793c-9.45,0.009-18.9,0.013-28.35-0.039
		c-1.228-0.007-3.221,0.533-3.028-1.585c0.136-1.499,1.906-1.009,2.988-1.013c9.622-0.04,19.244-0.022,28.865-0.013
		C212.072,127.292,213.086,127.293,213.781,128.148z"/>
	<path fill="#2A2F2F" d="M227.666,163.36v-7.095c0-20.206,0.062-40.412-0.035-60.611c-0.049-9.435-4.769-13.99-14.177-14.018
		c-11.83-0.042-23.667-0.104-35.497,0.007c-8.051,0.083-12.827,4.929-12.841,13.014c-0.035,36.48-0.007,72.947-0.042,109.427
		c-0.007,1.433-0.007,2.866-0.007,4.299c-0.014,7.594-0.021,15.194-0.041,22.788c-0.007,3.212,0.574,4.361,4.112,4.326
		c18.019-0.201,36.037-0.235,54.056,0.007c4.105,0.055,4.576-1.454,4.555-4.984C227.597,208.133,227.673,185.747,227.666,163.36z
		 M187.24,93.694c3.247-0.042,6.486-0.014,9.733-0.014c2.7-0.014,5.406-0.028,8.106,0c0.935,0.007,1.848,0.187,1.848,1.405
		c-0.007,1.239-0.969,1.357-1.869,1.357c-5.939,0.007-11.885,0.007-17.832-0.042c-0.671-0.007-1.502-0.069-1.585-1.059
		C185.551,94.206,186.236,93.701,187.24,93.694z M173.88,143.265c-0.083-1.551,0.831-2.81,2.527-3.039
		c2.042-0.277,2.866,1.08,3.337,2.45c0.028,2.084-1.052,3.212-2.541,3.392C175.389,146.283,173.977,145.154,173.88,143.265z
		 M184.222,202.817c-0.042-6.645,5.427-12.301,11.955-12.342c5.503-0.042,10.273,3.78,11.754,8.937
		c0.291,1.004,0.457,2.063,0.478,3.157c0.014,0.63-0.028,1.246-0.118,1.855c-0.852,5.946-6.244,10.702-12.425,10.556
		c-4.223-0.097-8.058-2.72-10.093-6.396c-0.796-1.419-1.315-2.99-1.488-4.631C184.243,203.578,184.222,203.198,184.222,202.817z
		 M184.298,143.202c0.035-1.911,1.191-3.032,3.122-2.984c1.724,0.042,2.471,1.294,2.88,2.894c-0.443,1.661-1.398,3.08-3.274,2.97
		C185.509,145.999,184.263,144.919,184.298,143.202z M194.73,143.168c-0.076-1.585,0.955-2.741,2.596-2.935
		c2.028-0.235,2.831,1.121,3.17,2.305c0.09,2.34-1.018,3.364-2.534,3.51C196.101,146.227,194.82,145.023,194.73,143.168z
		 M210.831,146.179c-2.36-0.055-5.42-0.007-5.6-2.859c-0.215-3.427,3.06-2.707,5.303-2.852c0.54-0.035,1.087-0.007,2.035-0.007
		c2,0.471,6.105-1.218,5.967,2.804c-0.118,3.378-4.008,2.707-6.618,2.9C211.558,146.193,211.198,146.186,210.831,146.179z
		 M215.725,227.072c-6.708,0.028-13.422,0.007-20.13,0.007c-6.168-0.007-12.336,0.021-18.503-0.021
		c-1.703-0.007-3.849,0.575-3.766-2.423c0.069-2.61,1.945-2.153,3.489-2.153c13.062-0.007,26.118,0.028,39.18,0.035
		c1.689,0,3.316-0.138,3.212,2.402C219.103,227.536,217.269,227.066,215.725,227.072z M216.355,135.754
		c-6.721-0.18-13.457-0.055-20.178-0.055c-6.728,0.007-13.457-0.097-20.185,0.062c-2.637,0.062-3.461-0.817-3.413-3.427
		c0.131-7.815,0.125-15.631,0.007-23.453c-0.042-2.596,0.851-3.454,3.468-3.44c13.45,0.083,26.907,0.083,40.357-0.062
		c2.949-0.028,3.676,1.045,3.613,3.821c-0.159,7.628-0.18,15.271,0.014,22.906C220.114,135.006,219.186,135.837,216.355,135.754z"/>
</g>
</svg>
