<?xml version="1.0" encoding="utf-8"?>
<!-- Generator: Adobe Illustrator 24.3.0, SVG Export Plug-In . SVG Version: 6.00 Build 0)  -->
<svg version="1.1" id="Layer_1" xmlns="http://www.w3.org/2000/svg" xmlns:xlink="http://www.w3.org/1999/xlink" x="0px" y="0px"
	 viewBox="0 0 947.541 595.408" enable-background="new 0 0 947.541 595.408" xml:space="preserve">
<g>
	<path fill="#9ABBB5" d="M473.918,274.773c23.612,0,42.775,19.128,42.775,42.74c0,23.647-19.163,42.775-42.775,42.775
		c-23.612,0-42.775-19.128-42.775-42.775C431.143,293.901,450.306,274.773,473.918,274.773z"/>
	<path fill="#9ABBB5" d="M473.918,395.884c28.727,0,49.894,23.351,52.041,51.998c6.091,81.284-52.041,147.526-52.041,147.526
		s-56.843-81.204-52.041-147.526C423.952,419.23,445.191,395.884,473.918,395.884z"/>
</g>
<g>
	<path fill="#3EBB98" d="M296.041,0c-49.712,0-90.057,40.271-90.057,89.983c0,49.786,40.345,90.057,90.057,90.057
		s90.058-40.271,90.058-90.057C386.098,40.271,345.753,0,296.041,0z"/>
	<path fill="#3EBB98" d="M375.668,276.349c-39.097-37.995-96.426-60.694-150.206-66.812c-47.968-5.384-98.077,3.426-139.499,28.205
		C42.95,263.5,10.829,307.063,0.061,356.133L0,357.112c0.53,0.046,244.463,235.602,244.463,235.602
		c-40.151-75.854-61.198-179.176,6.329-238.416c29.98-26.309,72.32-31.326,109.642-20.558c28.695,8.321,59.103,26.248,69.749,55.127
		C427.185,346.405,406.199,306.146,375.668,276.349z"/>
</g>
<g>
	<path fill="#558F7A" d="M658.816,0c49.712,0,90.057,40.271,90.057,89.983c0,49.786-40.345,90.057-90.057,90.057
		c-49.712,0-90.057-40.271-90.057-90.057C568.759,40.271,609.103,0,658.816,0z"/>
	<path fill="#558F7A" d="M571.873,276.349c39.097-37.995,96.426-60.694,150.206-66.812c47.968-5.384,98.077,3.426,139.499,28.205
		c43.013,25.758,75.134,69.321,85.902,118.391l0.061,0.979c-0.529,0.046-244.463,235.602-244.463,235.602
		c40.151-75.854,61.198-179.176-6.329-238.416c-29.98-26.309-72.32-31.326-109.642-20.558
		c-28.695,8.321-59.103,26.248-69.749,55.127C520.357,346.405,541.342,306.146,571.873,276.349z"/>
</g>
</svg>
