<?xml version="1.0" encoding="utf-8"?>
<!-- Generator: Adobe Illustrator 24.3.0, SVG Export Plug-In . SVG Version: 6.00 Build 0)  -->
<svg version="1.1" id="Layer_4" xmlns="http://www.w3.org/2000/svg" xmlns:xlink="http://www.w3.org/1999/xlink" x="0px" y="0px"
	 viewBox="0 0 199.837 216.368" enable-background="new 0 0 199.837 216.368" xml:space="preserve">
<g>
	<radialGradient id="SVGID_1_" cx="120.4369" cy="216.5737" r="199.5347" gradientUnits="userSpaceOnUse">
		<stop  offset="0" style="stop-color:#1F003F"/>
		<stop  offset="1" style="stop-color:#29002A"/>
	</radialGradient>
	<path fill="url(#SVGID_1_)" d="M127.745,145.553c0.714,2.14,0.714,4.994,0.714,7.135c0,15.697-12.843,28.54-28.54,28.54
		s-28.54-12.843-28.54-28.54c0-2.14,0.714-4.994,0.714-7.135H33.563c0,2.14-0.713,4.994-0.713,7.135
		c0,4.994,0.713,9.989,2.14,15.697c0.713,3.567,4.281,5.708,7.848,4.994c4.281-0.714,8.562,1.427,11.416,5.708
		c2.854,4.281,2.14,8.562-0.713,12.129c-2.14,2.854-2.14,7.135,0.713,9.275c7.848,7.135,17.124,12.843,27.113,15.697
		c3.567,0.714,7.135-0.714,8.562-4.281c1.427-4.281,5.708-7.135,9.989-7.135c4.281,0,8.562,2.854,9.989,7.135
		c1.427,2.854,3.567,4.281,6.421,4.281c0.713,0,1.427,0,2.14,0c9.989-2.854,19.264-8.562,27.113-15.697
		c2.854-2.854,2.854-6.421,0.714-9.275c-2.854-3.567-2.854-8.562-0.714-12.129c2.14-3.567,6.421-6.421,11.416-5.708
		c3.567,0.714,7.135-2.14,7.848-5.708c1.427-4.994,2.14-10.702,2.14-15.697c0-2.14,0-4.994-0.714-7.135h-38.529V145.553z"/>
	<radialGradient id="SVGID_2_" cx="89.8603" cy="132.0858" r="303.3051" gradientUnits="userSpaceOnUse">
		<stop  offset="0" style="stop-color:#1F003F"/>
		<stop  offset="1" style="stop-color:#29002A"/>
	</radialGradient>
	<path fill="url(#SVGID_2_)" d="M197.667,119.154l-12.129-12.129V95.608c0-23.545-9.275-44.237-24.972-60.647l-10.702,47.804
		c-0.714,3.567-3.567,5.708-7.135,5.708c-0.714,0-0.714,0-1.427,0c-3.567-0.714-6.421-4.994-5.708-8.562l14.27-63.501
		c0-2.14-1.427-4.994-3.567-5.708c-28.54-14.27-63.501-14.27-92.041,0c-2.854,1.427-4.281,3.567-4.281,5.708l14.27,63.501
		c0.714,3.567-1.427,7.848-5.708,8.562c-0.714,0-0.714,0-1.427,0c-3.567,0-6.421-2.14-7.135-5.708L39.271,34.961
		c-15.697,16.41-24.972,37.102-24.972,60.647v11.416L2.169,119.154c-2.14,2.14-2.854,4.994-1.427,7.848
		c0.713,2.854,3.567,4.281,6.421,4.281h185.509c2.854,0,5.708-1.427,6.421-4.281C200.521,124.148,199.808,121.294,197.667,119.154z"
		/>
</g>
</svg>
