<?xml version="1.0" encoding="utf-8"?>
<!-- Generator: Adobe Illustrator 24.3.0, SVG Export Plug-In . SVG Version: 6.00 Build 0)  -->
<svg version="1.1" id="Layer_1" xmlns="http://www.w3.org/2000/svg" xmlns:xlink="http://www.w3.org/1999/xlink" x="0px" y="0px"
	 viewBox="0 0 298.246 262.372" enable-background="new 0 0 298.246 262.372" xml:space="preserve">
<g>
	<path fill="#2F255F" d="M150.183,108.725c-6.119,5.765-11.944,11.192-17.699,16.689c-10.913,10.423-22.117,20.572-32.535,31.47
		c-5.095,5.33-10.458,6.78-17.652,5.421c0.839-1.044,1.467-2.01,2.27-2.796c20.589-20.146,41.223-40.246,61.754-60.451
		c1.929-1.898,3.618-2.169,6.116-1.496c22.558,6.073,45.15,12.017,67.722,18.035c1.158,0.309,2.455,0.698,3.306,1.47
		c11.959,10.851,23.851,21.775,36.404,33.271c-3.475,0.795-6.21,1.546-8.991,2.038c-17.104,3.025-34.233,5.915-51.319,9.036
		c-3.891,0.711-6.457,0.001-9.086-3.321c-11.563-14.608-23.469-28.944-35.259-43.372C153.68,112.84,152.097,111.001,150.183,108.725
		z"/>
	<path fill="#2F255F" d="M262.029,161.957c-15.415,6.555-30.723,13.377-46.271,19.598c-18.962,7.588-38.489,13.47-58.642,16.969
		c-16.506,2.865-33.078,4.152-49.712,0.625c-22.353-4.74-37.124-17.807-43.707-39.758c-1.599-5.333-2.466-10.885-2.956-16.641
		c1.135,1.933,2.205,3.907,3.415,5.792c10.937,17.032,26.933,27.032,45.961,32.556c20.981,6.091,42.311,6.122,63.831,3.367
		c29.422-3.767,57.534-12.268,85.128-22.783c0.824-0.314,1.683-0.536,2.526-0.801C261.745,161.24,261.887,161.599,262.029,161.957z"
		/>
	<path fill="#2F255F" d="M179.793,175.603c-5.605,0.693-11.178,1.446-16.822,2.063c-6.882,0.753-13.92,1.127-21.117,0.978
		c-5.895-0.122-11.773-0.575-17.549-2.033c-7.762-1.959-12.636-5.319-14.394-10.171c-0.427-1.179-0.59-2.371-0.616-3.59
		c0.351,0.451,0.677,0.909,1.056,1.353c3.42,4.019,8.805,6.795,15.374,8.772c7.243,2.18,14.765,3.114,22.425,3.477
		c10.473,0.497,20.606-0.049,30.608-1.035c0.299-0.029,0.607-0.038,0.911-0.057C179.711,175.442,179.752,175.522,179.793,175.603z"
		/>
	<path fill="#2F255F" d="M133.773,106.078c-4.536,4.323-8.531,8.13-12.928,12.32c-4.805-6.297-9.5-12.45-14.545-19.061
		c-2.626,2.377-4.988,4.478-7.309,6.623c-10.51,9.715-21.16,19.286-31.432,29.246c-3.865,3.748-7.779,5.754-13.217,4.42
		c3.497-3.679,6.856-7.5,10.515-11.01c12.324-11.823,24.827-23.46,37.083-35.353c2.438-2.366,4.218-2.643,7.129-0.938
		C117.008,96.976,125.137,101.301,133.773,106.078z"/>
	<path fill="#2F255F" d="M117.547,144.34c10.397-9.753,20.794-19.507,31.691-29.729c6.392,7.736,12.556,15.196,18.72,22.656
		c-0.138,0.122-0.276,0.244-0.414,0.366c-5.246-5.546-10.588-11.006-15.69-16.681c-1.94-2.157-3.227-1.988-5.286-0.204
		c-9.406,8.149-18.937,16.154-28.423,24.211C117.945,144.753,117.746,144.547,117.547,144.34z"/>
	<path fill="#2F255F" d="M105.839,103.772c2.251,2.685,3.965,4.731,5.68,6.776c-0.134,0.124-0.267,0.248-0.401,0.373
		c-0.911-0.771-1.928-1.448-2.713-2.331c-2.024-2.278-3.863-1.775-5.94-0.015c-4.813,4.078-9.72,8.046-15.109,11.466
		C93.382,114.737,99.408,109.432,105.839,103.772z"/>
	<path fill="#2F255F" d="M103.529,124.272c0,2.133,0,3.761,0,5.689c-1.923,0-3.658,0-5.683,0c0-1.896,0-3.63,0-5.689
		C99.712,124.272,101.44,124.272,103.529,124.272z"/>
	<path fill="#2F255F" d="M155.448,153.24c0,2.041,0,3.684,0,5.661c-1.91,0-3.645,0-5.725,0c0-1.753,0-3.505,0-5.661
		C151.538,153.24,153.487,153.24,155.448,153.24z"/>
	<path fill="#2F255F" d="M141.091,153.054c2.1,0,3.858,0,5.902,0c0,1.96,0,3.709,0,5.823c-1.871,0-3.731,0-5.902,0
		C141.091,157.029,141.091,155.28,141.091,153.054z"/>
	<path fill="#2F255F" d="M155.336,150.664c-1.938,0-3.565,0-5.546,0c0-1.9,0-3.756,0-5.913c1.797,0,3.525,0,5.546,0
		C155.336,146.641,155.336,148.388,155.336,150.664z"/>
	<path fill="#2F255F" d="M146.98,150.648c-2.051,0-3.805,0-5.882,0c0-1.953,0-3.698,0-5.822c1.85,0,3.713,0,5.882,0
		C146.98,146.631,146.98,148.38,146.98,150.648z"/>
	<path fill="#2F255F" d="M97.908,132.533c1.864,0,3.501,0,5.113,0c1.102,4.939,0.276,5.922-5.113,5.815
		C97.908,136.605,97.908,134.85,97.908,132.533z"/>
	<path fill="#2F255F" d="M106.112,129.766c0-1.885,0-3.499,0-5.462c1.924,0,3.643,0,5.365,0
		C112.656,129.476,111.772,130.448,106.112,129.766z"/>
</g>
<g>
	<path fill="#6B0D0E" stroke="#FFFFFF" stroke-width="0.25" stroke-miterlimit="10" d="M238.802,225.039
		c0.023,2.785-0.934,4.429-3.187,5.972c-21.651,14.814-45.531,24.02-71.264,28.61c-25.918,4.622-51.565,3.372-76.349-5.586
		c-35.069-12.677-61.125-35.647-76.588-70.006C2.982,165.295-0.83,145.557,0.328,125.164c2.361-41.504,20.416-74.697,54.343-99.018
		c18.426-13.202,39.15-20.933,61.38-24.282c18.649-2.816,37.345-2.23,55.894,1.883c24.606,5.447,46.943,15.524,66.549,31.465v0
		c1.021,0.844,1.186,2.35,0.375,3.397c-4.444,5.742-8.649,11.176-13.407,17.32v0c-1.556,2.448-4.59,3.489-7.326,2.525
		c-5.693-2.006-11.997-3.793-18.268-5.349c2.053-7.33,8.248-12.006,16.458-12.291c0.764-0.031,1.512-0.448,2.268-0.687
		c-0.455-0.756-0.825-1.597-1.412-2.23c-0.432-0.463-1.119-0.772-1.752-0.941c-11.304-3.025-21.797-2.052-30.632,6.497
		c-1.775,1.721-3.495,3.495-5.223,5.262c-8.75-1.651-15.47-2.639-17.369-2.909c-0.038-0.008-0.077-0.015-0.108-0.015
		c-0.108-0.015-0.224-0.023-0.339-0.046c-0.023-0.008-0.046-0.008-0.062-0.008c-0.478-0.069-0.995-0.177-1.528-0.285
		c-28.649-5.802-55.045-0.71-78.031,17.685c-22.569,18.063-33.024,42.268-32.283,70.963c0.995,38.61,28.387,72.313,65.824,81.719
		c23.626,5.934,46.357,2.647,68.332-7.276c3.271-1.474,6.605-2.901,9.629-4.792C194.876,202.979,238.694,205.888,238.802,225.039z"
		/>
	<path fill="#7A1315" d="M298.246,141.237v0.586c-11.944,0-23.888-0.131-35.833,0.085c-3.441,0.062-5.802-0.941-8.217-3.387
		c-20.092-20.362-40.323-40.586-60.508-60.847c-0.949-0.949-1.867-1.929-2.87-2.816c-2.469-2.184-5.602-2.492-8.194-0.856
		c-2.593,1.643-3.943,4.745-2.855,7.731c0.617,1.698,0.224,2.577-0.918,3.688c-2.739,2.654-5.37,5.424-7.878,7.978
		c-6.042-6.042-11.913-11.906-18.14-18.14c2.739-2.662,5.44-5.625,8.534-8.109c1.049-0.841,3.063-0.594,4.645-0.633
		c3.966-0.085,5.077-0.949,4.822-4.907c-0.201-3.156,0.856-5.355,3.163-7.454c1.921-1.744,3.758-3.58,5.579-5.44
		c6.095,1.15,13.171,2.616,20.293,4.39c-0.201,0.718-0.363,1.458-0.486,2.23c-0.664,4.236,0.432,7.917,3.518,11.003
		c21.759,21.805,43.487,43.633,65.276,65.408c0.957,0.949,2.322,1.674,3.634,2.052C280.599,136.352,289.426,138.775,298.246,141.237
		z"/>
</g>
</svg>
