<?xml version="1.0" encoding="utf-8"?>
<!-- Generator: Adobe Illustrator 24.3.0, SVG Export Plug-In . SVG Version: 6.00 Build 0)  -->
<svg version="1.1" id="Layer_3" xmlns="http://www.w3.org/2000/svg" xmlns:xlink="http://www.w3.org/1999/xlink" x="0px" y="0px"
	 viewBox="0 0 255.103 258.426" enable-background="new 0 0 255.103 258.426" xml:space="preserve">
<g>
	<path fill="#3B5684" d="M238.298,73.047c0,29.321-16.505,51.502-42.171,75.605c-9.807,9.213-20.941,18.697-33.009,28.981
		l-0.306,0.272c-6.357,5.422-13.564,11.541-20.992,18.017l-5.609,4.895l-2.839,2.465l-5.83,5.065l-7.989-6.952l-0.68-0.578
		l-4.334-3.79l-1.275-1.105c-7.462-6.493-14.669-12.646-21.043-18.068l-0.17-0.153c-12.102-10.318-23.269-19.836-33.094-29.066
		C40.073,130.89,26.152,114.198,20.118,94.94c-2.159-6.918-3.314-14.159-3.314-21.893c0-7.819,1.156-15.298,3.314-22.233
		C28.584,23.567,52.295,4.411,80.97,4.411c2.77,0,5.524,0.204,8.261,0.595c7.343,1.037,14.482,3.484,20.958,7.19l-3.366,5.898
		c-5.473-3.128-11.286-5.201-17.337-6.187c-2.788-0.459-5.626-0.697-8.516-0.697c-32.176,0-57.366,27.162-57.366,61.837
		c0,26.006,14.771,46.522,38.006,68.704c10.182,9.74,21.961,19.802,34.862,30.782l0.17,0.153
		c6.374,5.439,13.598,11.592,21.094,18.102l4.266,3.722l2.89,2.516l0.119,0.102l2.533,2.21l1.819-1.581l3.722-3.246l4.283-3.722
		c7.445-6.493,14.669-12.629,21.026-18.051l0.323-0.272c12.85-10.946,24.629-20.992,34.777-30.697
		C216.73,119.57,231.5,99.071,231.5,73.048c0-34.675-25.207-61.837-57.366-61.837c-2.77,0-5.507,0.221-8.21,0.663
		c-2.533,0.391-5.031,0.986-7.479,1.751l-2.04-6.476c3.179-1.02,6.425-1.751,9.74-2.193c2.635-0.357,5.303-0.544,7.989-0.544
		C210.099,4.411,238.298,34.565,238.298,73.047z"/>
</g>
<g>
	<path fill="#2C4069" d="M121.22,22.496l-0.527,0.918c-1.7,2.941-5.473,3.96-8.431,2.261l-20.89-12.068
		c-0.765-0.442-1.394-1.02-1.887-1.7c-1.394-1.904-1.632-4.538-0.357-6.731l0.102-0.17l0.425-0.748
		c1.7-2.941,5.473-3.961,8.414-2.244l20.89,12.051C121.917,15.765,122.92,19.539,121.22,22.496z"/>
	<path fill="#2C4069" d="M193.949,142.226c-3.22-3.618-8.763-3.94-12.381-0.72l-54.02,48.08l-0.005-0.004l-1.343-1.19
		l-52.675-46.879c-1.666-1.496-3.756-2.227-5.83-2.227c-2.21,0-4.402,0.816-6.085,2.465c-0.17,0.136-0.323,0.306-0.476,0.476
		c-1.615,1.819-2.346,4.147-2.176,6.408c0.136,2.21,1.105,4.368,2.906,5.966l47.661,42.426l9.434,8.397l2.669,2.38
		c1.666,1.496,3.756,2.227,5.83,2.227h0.17c0.071-0.001,0.141-0.01,0.212-0.013c0.166-0.004,0.331-0.017,0.496-0.031
		c0.034-0.003,0.067-0.005,0.101-0.009c1.801-0.165,3.568-0.877,5.023-2.172l59.769-53.197
		C196.847,151.388,197.169,145.844,193.949,142.226z"/>
	<path fill="#2C4069" d="M143.571,25.404l19.973-11.531c3.203-1.85,4.301-5.946,2.452-9.149l0,0
		c-1.85-3.203-5.946-4.301-9.149-2.452l-19.973,11.531c-3.203,1.85-4.301,5.946-2.451,9.149l0,0
		C136.272,26.156,140.368,27.253,143.571,25.404z"/>
</g>
<g>
	<polygon fill="#FE5955" points="174.231,81.303 143.763,81.303 143.763,50.835 111.34,50.835 111.34,81.303 80.873,81.303 
		80.873,113.726 111.34,113.726 111.34,144.194 143.763,144.194 143.763,113.726 174.231,113.726 	"/>
	<path fill="#FE5955" d="M132.257,249.694c-1.031,2.568-2.353,5.416-0.178,7.719c2.151,2.276,4.739,0.099,6.978-0.564
		c15.727-4.654,31.355-9.652,47.123-14.158c19.004-5.431,34.698-15.484,46.792-31.273c7.631-9.962,14.769-20.177,20.389-31.424
		c1.747-3.495,3.17-7.156-0.855-9.61c-3.921-2.391-7.564-0.662-10.112,2.89c-7.34,10.239-16.046,19.163-25.567,27.374
		c-10.502,9.057-23.373,13.892-35.43,20.173c-0.775,0.404-2.443,0.061-3.134-0.559c-1.078-0.967,0.215-2.059,0.722-2.932
		c7.282-12.116,25.775-9.77,32.594-22.247c2.869-4.589,0.247-7.882-4.87-6.06c-11.943,4.253-34.18,10.67-39.296,12.388
		C149.959,207.273,134.389,245.599,132.257,249.694z"/>
	<path fill="#FE5955" d="M122.846,249.694c1.031,2.568,2.353,5.416,0.177,7.719c-2.151,2.276-4.739,0.099-6.978-0.564
		c-15.727-4.654-31.355-9.652-47.123-14.158c-19.004-5.431-34.698-15.484-46.792-31.273c-7.63-9.963-14.767-20.178-20.388-31.425
		c-1.747-3.495-3.17-7.156,0.855-9.61c3.921-2.391,7.564-0.662,10.112,2.89c7.34,10.239,16.046,19.163,25.567,27.374
		c10.502,9.057,23.373,13.892,35.43,20.173c0.775,0.404,2.443,0.061,3.134-0.559c1.078-0.967-0.215-2.059-0.722-2.932
		c-7.282-12.116-25.775-9.77-32.594-22.247c-2.869-4.589-0.247-7.882,4.87-6.06c11.943,4.253,34.18,10.67,39.296,12.388
		C105.144,207.273,120.714,245.599,122.846,249.694z"/>
</g>
</svg>
