<?xml version="1.0" encoding="utf-8"?>
<!-- Generator: Adobe Illustrator 24.3.0, SVG Export Plug-In . SVG Version: 6.00 Build 0)  -->
<svg version="1.1" id="Layer_4" xmlns="http://www.w3.org/2000/svg" xmlns:xlink="http://www.w3.org/1999/xlink" x="0px" y="0px"
	 viewBox="0 0 192.652 280.445" enable-background="new 0 0 192.652 280.445" xml:space="preserve">
<g>
	<path fill="#F3477D" d="M150.941,140.251c7.138-8.147,11.464-18.819,11.464-30.502c0-9.305-2.755-17.962-7.478-25.219l-8.53,11.02
		l-16.092-12.456l9.949-12.854c-7.032-4.308-15.302-6.795-24.154-6.795c-13.923,0-26.411,6.145-34.9,15.871"/>
</g>
<g>
	<path fill="#7F4B0D" d="M135.63,141.913v33.298c0,3.167-2.591,5.758-5.758,5.758h-0.259c-3.167,0-5.758-2.591-5.758-5.758v-33.298
		c-3.006,0-6.214,0-9.735,0v13.727c0,3.167-2.592,5.758-5.758,5.758h-0.259c-3.167,0-5.758-2.591-5.758-5.758v-13.727
		c-5.826,0-12.489,0-20.319,0c-10.131,0-17.516,0-23.453,0v26.736c0,2.957-2.419,5.376-5.376,5.376s-5.376-2.419-5.376-5.376
		v-26.736c-3.582,0-6.821,0-10.345,0v35.014c0,3.167-2.591,5.758-5.758,5.758h-0.259c-3.167,0-5.758-2.591-5.758-5.758v-35.014
		c-5.057,0-11.166,0-19.127,0c0,23.694,10.944,44.825,28.046,58.648l19.196,79.884h56.417l19.196-79.884
		c17.102-13.823,28.046-34.954,28.046-58.648C148.939,141.913,142.304,141.913,135.63,141.913z"/>
</g>
<g>
	<path d="M154.926,86.202c-0.375,0-0.752-0.125-1.063-0.382c-0.713-0.588-0.813-1.642-0.227-2.355l34.183-41.451
		c1.157-1.495,1.675-3.411,1.428-5.354c-0.248-1.943-1.23-3.668-2.766-4.857l-1.889-1.462c-1.536-1.189-3.454-1.705-5.396-1.459
		c-1.943,0.248-3.668,1.23-4.856,2.766l-32.796,39.659c-0.59,0.711-1.643,0.812-2.355,0.223c-0.712-0.589-0.812-1.643-0.223-2.355
		l32.762-39.617c1.702-2.201,4.216-3.634,7.046-3.995c2.834-0.365,5.624,0.396,7.865,2.132l1.889,1.462
		c4.646,3.596,5.5,10.3,1.905,14.945l-34.215,41.492C155.887,85.995,155.409,86.202,154.926,86.202z"/>
	<path d="M151.301,101.992c-0.364,0-0.73-0.118-1.038-0.362l-25.749-20.396c-0.724-0.573-0.846-1.625-0.272-2.35
		c0.573-0.725,1.627-0.845,2.351-0.272l25.749,20.396c0.724,0.573,0.846,1.625,0.272,2.35
		C152.284,101.775,151.795,101.992,151.301,101.992z"/>
	<path d="M87.383,203.507H43.487c-0.924,0-1.673-0.749-1.673-1.673s0.749-1.673,1.673-1.673h43.896c0.924,0,1.673,0.749,1.673,1.673
		S88.306,203.507,87.383,203.507z"/>
	<path d="M119.802,203.507h-24.96c-0.924,0-1.673-0.749-1.673-1.673s0.749-1.673,1.673-1.673h24.96c0.924,0,1.673,0.749,1.673,1.673
		S120.726,203.507,119.802,203.507z"/>
	<path d="M47.438,210.881c3.601,20.555,7.201,41.11,10.802,61.664"/>
	<path d="M58.239,273.383c-0.398,0-0.751-0.286-0.823-0.692l-10.802-61.665c-0.08-0.455,0.225-0.889,0.679-0.969
		c0.454-0.072,0.888,0.225,0.968,0.68l10.802,61.665c0.08,0.455-0.225,0.889-0.679,0.969
		C58.336,273.378,58.287,273.383,58.239,273.383z"/>
	<path d="M55.993,210.437c2.71,20.85,5.42,41.701,8.13,62.552"/>
	<path d="M64.122,273.826c-0.414,0-0.773-0.308-0.829-0.729l-8.13-62.552c-0.06-0.458,0.264-0.877,0.722-0.937
		c0.459-0.061,0.877,0.264,0.938,0.722l8.13,62.552c0.06,0.458-0.264,0.877-0.722,0.937
		C64.195,273.823,64.158,273.826,64.122,273.826z"/>
	<path d="M64.627,210.12c1.811,21.062,3.622,42.124,5.434,63.185"/>
	<path d="M70.06,274.142c-0.43,0-0.795-0.329-0.833-0.766l-5.434-63.185c-0.04-0.46,0.302-0.865,0.762-0.904
		c0.456-0.042,0.865,0.301,0.905,0.762l5.434,63.185c0.04,0.46-0.302,0.865-0.762,0.904C70.108,274.14,70.084,274.142,70.06,274.142
		z"/>
	<path d="M73.313,209.93c0.907,21.189,1.814,42.377,2.721,63.566"/>
	<path d="M76.033,274.332c-0.446,0-0.816-0.351-0.835-0.8l-2.721-63.565c-0.02-0.462,0.338-0.852,0.8-0.872
		c0.469-0.007,0.852,0.339,0.871,0.8l2.721,63.565c0.02,0.462-0.338,0.852-0.8,0.872C76.057,274.332,76.045,274.332,76.033,274.332z
		"/>
	<path d="M82.025,274.395c-0.462,0-0.836-0.374-0.836-0.836v-63.692c0-0.462,0.375-0.836,0.836-0.836s0.836,0.374,0.836,0.836
		v63.692C82.862,274.021,82.487,274.395,82.025,274.395z"/>
	<path d="M90.738,209.93c-0.907,21.189-1.814,42.377-2.721,63.566"/>
	<path d="M88.017,274.332c-0.012,0-0.024,0-0.036,0c-0.461-0.021-0.82-0.41-0.8-0.872l2.721-63.565
		c0.02-0.461,0.391-0.807,0.871-0.8c0.461,0.021,0.82,0.41,0.8,0.872l-2.721,63.565C88.833,273.981,88.463,274.332,88.017,274.332z"
		/>
	<path d="M99.424,210.12c-1.811,21.062-3.622,42.124-5.434,63.185"/>
	<path d="M93.991,274.142c-0.024,0-0.048-0.002-0.073-0.004c-0.46-0.039-0.801-0.444-0.762-0.904l5.434-63.185
		c0.04-0.461,0.442-0.803,0.905-0.762c0.46,0.039,0.801,0.444,0.761,0.904l-5.433,63.185
		C94.786,273.813,94.421,274.142,93.991,274.142z"/>
	<path d="M108.057,210.437c-2.71,20.85-5.42,41.701-8.13,62.552"/>
	<path d="M99.928,273.826c-0.036,0-0.072-0.003-0.109-0.008c-0.458-0.06-0.781-0.479-0.722-0.937l8.13-62.552
		c0.06-0.459,0.488-0.782,0.937-0.722c0.458,0.06,0.781,0.479,0.722,0.937l-8.13,62.552
		C100.702,273.518,100.343,273.826,99.928,273.826z"/>
	<path d="M116.612,210.881c-3.6,20.555-7.201,41.11-10.802,61.664"/>
	<path d="M105.811,273.383c-0.048,0-0.097-0.005-0.146-0.013c-0.455-0.08-0.759-0.514-0.68-0.969l10.802-61.665
		c0.08-0.455,0.517-0.75,0.969-0.68c0.455,0.08,0.759,0.514,0.68,0.969l-10.802,61.665
		C106.563,273.097,106.21,273.383,105.811,273.383z"/>
</g>
<g>
	<path fill="#FEBE26" d="M81.144,140.251c7.138-8.147,11.465-18.819,11.465-30.502c0-15.702-7.824-29.57-19.778-37.943V90.43
		c0,3.167-2.591,5.758-5.758,5.758h-0.259c-3.167,0-5.758-2.591-5.758-5.758V65.859c-2.842-0.955-5.806-1.64-8.864-2.028v13.538
		c0,3.167-2.591,5.758-5.758,5.758h-0.259c-3.167,0-5.758-2.591-5.758-5.758V63.83C17.626,66.725,0,86.172,0,109.749
		c0,11.718,4.353,22.42,11.53,30.576"/>
</g>
<g>
	<path fill="#621C04" d="M38.667,63.448c-2.048-5.244-3.171-10.95-3.171-16.918C35.495,20.832,56.327,0,82.025,0
		s46.53,20.832,46.53,46.53c0,5.969-1.124,11.674-3.171,16.918"/>
</g>
</svg>
