<?xml version="1.0" encoding="utf-8"?>
<!-- Generator: Adobe Illustrator 24.3.0, SVG Export Plug-In . SVG Version: 6.00 Build 0)  -->
<svg version="1.1" id="Layer_3" xmlns="http://www.w3.org/2000/svg" xmlns:xlink="http://www.w3.org/1999/xlink" x="0px" y="0px"
	 viewBox="0 0 224.848 188.477" enable-background="new 0 0 224.848 188.477" xml:space="preserve">
<g>
	<path fill="#FF1A51" d="M118.253,74.024c-5.922,6.918-4.901,14.895-2.855,22.653c6.172,23.412,27.922,37.994,52.065,35.566
		c15.572-1.566,31.094-1.878,45.768,5.003c4.465,2.094,8.718,4.519,11.617,9.495c-6.465-1.146-12.257-2.781-18.302-2.32
		c-7.181,0.548-9.555,4.118-7.183,10.889c4.74,13.53,2.154,17.579-12.366,16.653c-19.733-1.259-36.849-8.104-47.79-26.025
		c-3.42-5.601-6.99-11.166-11.054-16.302c-3.743-4.73-6.804-4.328-9.503,1.073c-2.3,4.603-3.644,9.675-5.785,14.369
		c-3.872,8.488-8.887,10.829-18.252,9.633c-17.177-2.193-34.066-6.655-51.52-6.629c-4.18,0.006-8.401-0.007-12.532,0.532
		C18.556,150.182,7.818,154.38,0,164.445c1.611-8.514,6.2-15.135,12.642-20.565c11.729-9.888,26.024-13.398,40.627-15.996
		c6.465-1.15,13.096-1.518,19.465-3.03c18.254-4.334,29.239-18.727,29.754-39.066c0.2-7.88-0.019-15.902-4.556-22.946
		c-2.566-4.958-4.743-10.011-3.815-15.812c0.034-0.653,0.068-1.305,0.102-1.958l-0.118,0.068c4.491,1.033,8.929-0.323,13.386-0.469
		c3.469-0.114,6.66,0.289,9.863,1.375c1.324,5.356,5.37,9.441,6.272,15.361c2.998-2.412,0.595-5.062,1.368-7.557
		c4.192,5.14,3.949,9.931-0.156,11.133c-0.545,0.16-1.751-2.206-1.561-0.404C123.757,69.169,119.618,70.76,118.253,74.024z"/>
	<path fill="#FF1A51" d="M1.064,165.472c-0.834,0.206,25.13-18.253,56.821-8.771c6.079,1.819,12.277,3.253,18.567,4.089
		c10.759,1.429,24.519,1.722,31.975-4.199c0,0-4.721,11.153-32.461,16.073c-14.621,2.593-29.62,0.717-43.412-4.786
		C24.673,164.732,13.646,162.363,1.064,165.472z"/>
	<path fill="#FF1A51" d="M125.844,133.204c0,0,15.098,47.07,69.273,42.63c0,0-30.372,28.785-54.822-0.51
		c-6.106-7.316-9.987-16.23-11.606-25.621L125.844,133.204z"/>
</g>
<g>
	<path fill="#141719" d="M118.253,74.024c1.365-3.263,5.504-4.855,5.02-9.446c-0.19-1.801,1.016,0.564,1.561,0.404
		c4.105-1.202,4.348-5.993,0.156-11.133c-0.774,2.495,1.63,5.145-1.368,7.557c-0.902-5.919-4.948-10.005-6.272-15.361
		c0.012-0.796-0.135-1.637,0.066-2.383c1.055-3.931-0.029-5.815-5.249-4.615c6.218-3.069,5.909-6.293,2.921-11.346
		c-3.737-6.32-6.381-13.283-12.148-18.202c-1.652-1.409-3.491-2.679-5.426-3.648c-1.569-0.785-3.539-1.349-5.009,0.24
		c-1.446,1.563-0.718,3.325,0.083,4.983c0.746,1.545,2.392,2.835,1.343,4.977c-1.952-1.101-3.074-2.951-4.17-4.755
		c-1.435-2.362-1.87-4.898-0.098-7.29c1.84-2.484,4.272-3.202,7.364-2.462c5.745,1.374,9.848,5.047,13.581,9.26
		c3.329,3.757,5.614,8.164,7.67,12.722c2.556,5.667,5.797,10.912,10.615,14.97c2.293,1.931,4.838,3.895,8.065,2.706
		c3.39-1.248,3.499-4.501,3.784-7.498c0.099-1.04,0.152-2.083,0.554-3.08c1.342,4.793,2.234,9.525-2.551,13.867
		c3.943,1.807,7.516,3.268,10.919,5.055c3.412,1.792,3.98,4.288,0.923,7.035c-5.177,4.653-9.988,9.665-14.89,14.592
		c-7.604,7.642-8.227,8.346-1.831,17.092c2.076,2.84,2.099,2.915,2.003,8.006c-3.022-7.651-12.143-9.194-15.848-16.518
		C119.007,77.75,118.559,76.023,118.253,74.024z"/>
	<path fill="#141719" d="M95.053,48.917c-0.928,5.801,1.249,10.854,3.815,15.812c-3.104,2.236,0.299,4.697-0.236,7.061
		c-0.633,2.79-1.024,5.634-2.14,8.416c1.197-9.431-1.939-18.051-4.152-26.833c-1.175-4.664-1.308-9.112,4.782-11.105
		c0.668,2.378-3.39,2.424-2.084,4.759C95.037,47.027,93.951,48.205,95.053,48.917z"/>
	<path fill="#141719" d="M130.928,9.489c-4.735-8.557-13.682-5.098-21.537-7.418C121.407-2.386,129.55,0.469,130.928,9.489z"/>
</g>
</svg>
