<?xml version="1.0" encoding="utf-8"?>
<!-- Generator: Adobe Illustrator 24.3.0, SVG Export Plug-In . SVG Version: 6.00 Build 0)  -->
<svg version="1.1" id="Layer_1" xmlns="http://www.w3.org/2000/svg" xmlns:xlink="http://www.w3.org/1999/xlink" x="0px" y="0px"
	 viewBox="0 0 426.616 261.406" enable-background="new 0 0 426.616 261.406" xml:space="preserve">
<g>
	<path fill="#0F81C2" d="M426.616,261.406c-0.946-4.014-1.831-7.515-2.591-11.044c-3.894-18.081-4.381-36.425-4.449-54.833
		c-0.07-18.986,0.094-38.01-1.035-56.946c-1.355-22.744-8.173-44.1-20.156-63.599c-10.143-16.505-23.095-30.636-37.684-43.3
		c-2.271-1.971-4.986-2.176-7.622-0.847c-3.044,1.535-4.657,4.18-4.662,7.596c-0.011,7.019,3.066,13.034,7.021,18.446
		c4.731,6.474,9.566,13.021,15.271,18.6c8.848,8.652,14.224,18.956,17.327,30.668c4.344,16.395,6.686,32.986,3.378,49.858
		c-0.766,3.906-2.479,7.768-4.452,11.257c-2.218,3.921-5.89,4.504-9.222,1.488c-2.396-2.169-4.584-4.956-5.855-7.903
		c-3.352-7.772-6.226-15.751-11.65-22.424c-3.716-4.572-7.951-8.374-14.307-8.462c-1.329-0.018-2.723,0.196-3.984,0.614
		c-5.675,1.884-6.013,2.679-3.813,8.201c6.449,16.184,9.595,33.27,13.874,50.059c2.699,10.591,5.716,21.193,9.744,31.331
		c6.149,15.476,17.641,26.396,33.009,32.533c9.047,3.613,18.717,5.671,28.124,8.37C423.916,261.365,425.059,261.277,426.616,261.406
		z"/>
</g>
<g>
	<path fill="#50B1DD" d="M380.668,93.261c-2.377-5.506-5.283-9.438-8.595-13.193c-6-6.802-11.749-13.825-17.725-20.649
		c-1.101-1.257-2.66-2.335-4.223-2.918c-3.022-1.126-6.199-1.832-9.309-2.726c-6.1-1.753-11.634,3.254-9.57,9.257
		c1.19,3.46,3.587,7.02,6.436,9.281c4.859,3.856,10.253,7.255,15.872,9.886C362.102,86.202,371.034,89.384,380.668,93.261z"/>
	<path fill="#50B1DD" d="M386.182,109.135c-1.459-3.978-2.799-7.896-4.374-11.718c-0.348-0.845-1.433-1.544-2.338-1.971
		c-2.921-1.378-5.903-2.629-8.886-3.873c-7.222-3.011-14.522-5.845-21.652-9.057c-2.584-1.164-3.786-0.414-4.462,1.853
		c-1.281,4.293,0.322,8.199,3.381,10.755c3.77,3.15,8.053,6.228,12.64,7.737C368.624,105.537,377.153,107.005,386.182,109.135z"/>
	<path fill="#50B1DD" d="M331.27,105.893c0-13.01-3.25-16.43-16.06-16.49c-18.46-0.08-36.91-0.02-55.7-0.02
		c-0.19-2.33-0.46-4.24-0.47-6.14c-0.15-16.98-0.18-33.97-0.39-50.95c-0.1-8.42-4.14-12.74-12.27-12.81
		c-16.33-0.16-32.66-0.17-48.99,0.01c-7.85,0.09-11.9,4.39-12.21,12.26c-0.11,2.61-0.03,5.23-0.03,7.84c-0.01,16.07,0,32.15,0,49.28
		h-8.15c-16.33-0.01-32.66-0.09-48.99-0.01c-8.31,0.05-13.03,4.25-13.13,12.09c-0.2,16.55-0.2,33.1,0.01,49.65
		c0.09,7.05,4.51,11.53,11.44,11.69c16.76,0.38,33.52,0.49,50.28,0.61c3.37,0.02,6.75-0.35,11.09-0.6c0,19.24-0.05,37.71,0.02,56.18
		c0.04,9.72,4.19,13.87,14,13.91c15.03,0.06,30.05-0.01,45.07-0.14c10.29-0.1,14.2-4.07,14.23-14.32
		c0.06-15.68,0.32-31.37-0.12-47.03c-0.18-6.46,1.47-8.77,8.27-8.59c16.1,0.45,32.23,0.14,48.34,0.02
		c9.92-0.07,13.69-3.94,13.74-13.98C331.31,134.203,331.27,120.053,331.27,105.893z M197.899,151.303
		c-0.54-21.22,25.15-47.39,50.98-51.53C247.749,123.143,220.739,150.173,197.899,151.303z"/>
</g>
<g>
	<path fill="#7DB041" d="M0,0.169c1.673,4.243,3.161,7.89,4.555,11.572c6.399,16.902,9.56,34.56,12.433,52.317
		c3.166,19.567,5.937,39.249,10.317,58.554c5.357,23.612,16.731,44.392,33.322,62.272c11.456,12.346,24.549,22.58,38.584,31.742
		c2.845,1.857,5.657,2.237,8.477,0.385c2.969-1.951,4.195-4.919,3.652-8.415c-1.095-7.046-5.175-12.553-9.987-17.38
		c-5.367-5.385-10.812-10.876-16.993-15.225c-10.288-7.238-17.452-16.63-22.437-27.948c-6.755-15.335-11.495-31.169-11.112-48.114
		c0.086-3.799,0.896-7.699,2.068-11.329c1.867-5.781,6.144-7.235,10.9-3.464c2.927,2.321,5.296,5.588,7.263,8.827
		c4.633,7.629,9.359,15.109,16.733,20.454c6.699,4.856,13.9,4.787,19.246-0.067c1.233-1.119,1.746-2.11,0.743-3.755
		C98.138,94.82,91.807,77.539,84.796,60.553c-3.697-8.957-7.621-17.899-12.369-26.326C61.932,15.601,45.394,5.364,24.509,2.059
		c-6.784-1.074-13.687-1.407-20.54-2.028C2.858-0.07,1.722,0.1,0,0.169z"/>
	<path fill="#7DB041" d="M196.064,182.61c-0.219-7.291-2.438-14.451,0.047-19.09c2.07-3.863,9.606-4.912,14.82-6.957
		c24.357-9.551,39.018-27.685,45.748-52.427c1.387-5.101,3.265-7.482,8.54-7.455c17.607,0.088,35.215,0.011,52.823-0.036
		c4.047-0.011,6.003,1.908,5.997,5.961c-0.023,15.661-0.033,31.322-0.009,46.983c0.008,5.195-3.358,5.889-7.453,5.874
		c-18.054-0.065-36.118,0.291-54.159-0.215c-24.446-0.686-45.034,7.905-62.712,24.335
		C198.802,180.423,197.808,181.166,196.064,182.61z"/>
</g>
<g>
	<path fill="#4370B7" d="M250.212,69.101c0.301,2.113,0.558,3.12,0.569,4.129c0.063,5.415,1.906,11.933-0.474,15.91
		c-2.042,3.412-8.933,3.933-13.689,5.71c-25.007,9.342-40.138,27.607-46.929,52.931c-1.327,4.947-3.182,6.909-8.148,6.863
		c-17.828-0.164-35.657-0.13-53.486-0.125c-3.908,0.001-5.399-1.992-5.388-5.702c0.043-15.453,0.076-30.906-0.012-46.358
		c-0.03-5.296,3.185-5.822,7.334-5.807c18.282,0.066,36.569-0.255,54.846,0.065c23.441,0.41,43.323-7.889,60.496-23.427
		C246.613,72.129,247.954,71.035,250.212,69.101z"/>
</g>
<g>
	<path fill="#D3E279" d="M71.197,160.649c3.379,3.413,6.601,7.004,10.172,10.202c6.902,6.181,13.962,12.187,21.058,18.146
		c1.205,1.012,2.849,1.736,4.4,2.05c3.158,0.639,6.398,0.865,9.592,1.338c3.362,0.498,5.98-0.694,7.796-3.474
		c1.759-2.694,1.947-5.746-0.016-8.227c-2.155-2.725-4.604-5.457-7.483-7.325c-9.08-5.894-19.512-8.268-29.926-10.527
		c-4.946-1.073-9.929-1.979-14.895-2.961C71.663,160.131,71.43,160.39,71.197,160.649z"/>
	<path fill="#D3E279" d="M63.824,144.723c1.751,8.323,6.439,12.699,14.854,14.399c8.37,1.692,16.662,3.79,24.951,5.861
		c3.403,0.85,5.148-0.374,4.803-3.946c-0.364-3.768-2.435-6.561-5.347-8.839c-5.877-4.598-12.855-5.761-19.979-6.323
		C76.726,145.37,70.328,145.102,63.824,144.723z"/>
	<path fill="#D3E279" d="M253.627,163.542c0,12.133,0.004,23.806-0.001,35.479c-0.003,6.514-0.071,13.029-0.013,19.542
		c0.035,3.926-1.514,6.214-5.696,6.197c-15.634-0.061-31.267-0.115-46.901-0.164c-3.78-0.012-5.492-1.882-5.447-5.665
		c0.08-6.73-0.049-13.463,0.079-20.192c0.027-1.428,0.405-3.142,1.26-4.217c13.634-17.163,30.793-28.46,52.91-31.315
		C250.649,163.099,251.527,163.344,253.627,163.542z"/>
</g>
<g>
	<path fill="#60C6F1" d="M192.966,88.318c0-7.879-0.001-15.652,0-23.424c0.001-10.226,0.151-20.454-0.058-30.675
		c-0.1-4.909,1.511-7.135,6.736-7.062c15.009,0.21,30.024,0.16,45.035,0.034c4.454-0.037,6.332,1.731,6.207,6.196
		c-0.175,6.305,0.112,12.624-0.15,18.923c-0.084,2.016-0.794,4.382-2.043,5.915c-13.592,16.683-30.796,27.261-52.327,30.273
		C195.545,88.612,194.681,88.419,192.966,88.318z"/>
</g>
</svg>
