<?xml version="1.0" encoding="utf-8"?>
<!-- Generator: Adobe Illustrator 24.3.0, SVG Export Plug-In . SVG Version: 6.00 Build 0)  -->
<svg version="1.1" id="Layer_4" xmlns="http://www.w3.org/2000/svg" xmlns:xlink="http://www.w3.org/1999/xlink" x="0px" y="0px"
	 viewBox="0 0 254.266 162.1" enable-background="new 0 0 254.266 162.1" xml:space="preserve">
<g>
	<path fill="#238E44" d="M230.041,155c-0.1-0.28-0.2-0.55-0.3-0.83H15.651c-4.26,0-6.61-2.87-7.39-5.55
		c-0.79-2.67-0.35-6.35,3.23-8.65l118.64-76.19l10.79,6.91l7.51-2.97c0.481-0.184,0.944-0.344,1.407-0.516l-8.915,3.493
		l26.778,18.876l6.906-5.378l-24.561-17.072l-0.01,0.004L134.111,56.89v-9.25c0-1.95,1.21-3.68,3.02-4.27
		c9.25-3.07,15.39-11.68,15.25-21.44c-0.17-11.92-10-21.76-21.88-21.93c-6.15,0.03-11.84,2.3-15.98,6.41
		c-3.65,3.59-5.88,8.2-6.48,13.19h8.02c0.54-2.84,1.93-5.46,4.03-7.54c2.66-2.63,6.2-4.14,9.72-4.14c0.21,0,0.42,0.01,0.53,0.01
		c7.54,0.12,14,6.56,14.1,14.12c0.09,6.27-3.86,11.82-9.81,13.78c-5.06,1.67-8.46,6.42-8.46,11.81v9.25l-118.97,76.4
		c-5.89,3.79-8.52,10.85-6.56,17.57c1.98,6.73,8.01,11.24,15.01,11.24h216.62C231.611,159.68,230.861,157.31,230.041,155z"/>
</g>
<g>
	<path fill="#FFC229" d="M251.395,104.743c-7.438,6.689-14.339,13.887-21.381,20.957c-10.931,10.988-11.822,11.992-2.63,24.549
		c1.57,2.135,2.319,3.182,2.659,4.751c-0.099-0.283-0.198-0.552-0.297-0.834h-4.879c-5.713-5.317-13.547-8.584-17.365-16.135
		c-1.456-2.871-2.107-5.36-2.545-8.23c1.966-4.681,7.905-6.972,7.212-13.561c-0.269-2.588,1.456,0.806,2.248,0.58
		c5.897-1.725,6.236-8.612,0.226-15.994c-1.117,3.592,2.333,7.396-1.966,10.86c-1.301-8.513-7.113-14.367-9.008-22.06
		c0.014-1.146-0.198-2.362,0.085-3.436c1.513-5.642-0.042-8.343-7.537-6.618c8.937-4.412,8.485-9.036,4.2-16.305
		c-5.374-9.079-9.164-19.076-17.45-26.133c-2.376-2.036-5.02-3.861-7.792-5.246c-2.263-1.131-5.091-1.937-7.198,0.339
		c-2.079,2.248-1.032,4.78,0.113,7.155c1.075,2.22,3.436,4.073,1.937,7.155c-2.8-1.584-4.412-4.242-5.996-6.83
		c-2.05-3.394-2.687-7.042-0.141-10.464c2.644-3.578,6.137-4.61,10.578-3.549c8.258,1.98,14.155,7.254,19.515,13.307
		c4.78,5.402,8.06,11.723,11.016,18.27c3.663,8.145,8.315,15.668,15.244,21.509c3.295,2.772,6.943,5.586,11.582,3.875
		c4.865-1.782,5.02-6.462,5.43-10.761c0.141-1.499,0.226-2.998,0.806-4.426c1.923,6.887,3.21,13.675-3.677,19.911
		c5.671,2.602,10.804,4.695,15.683,7.269C254.972,97.22,255.793,100.798,251.395,104.743z"/>
	<path fill="#FFC229" d="M171.638,93.744c-1.333,8.332,1.793,15.589,5.479,22.71c-4.458,3.212,0.43,6.746-0.34,10.141
		c-0.909,4.007-1.47,8.092-3.074,12.088c1.719-13.546-2.785-25.926-5.964-38.539c-1.688-6.699-1.878-13.087,6.868-15.95
		c0.959,3.415-4.869,3.481-2.993,6.835C171.614,91.03,170.054,92.722,171.638,93.744z"/>
	<path fill="#FFC229" d="M223.165,37.115c-6.801-12.29-19.651-7.322-30.933-10.654C209.489,20.06,221.184,24.16,223.165,37.115z"/>
</g>
</svg>
