<?xml version="1.0" encoding="utf-8"?>
<!-- Generator: Adobe Illustrator 24.3.0, SVG Export Plug-In . SVG Version: 6.00 Build 0)  -->
<svg version="1.1" id="Layer_8" xmlns="http://www.w3.org/2000/svg" xmlns:xlink="http://www.w3.org/1999/xlink" x="0px" y="0px"
	 viewBox="0 0 214.249 215.08" enable-background="new 0 0 214.249 215.08" xml:space="preserve">
<g>
	<path fill="#1E0808" d="M99.256,212.007l-0.205-0.093c-12.312-5.636-23.827-13.281-34.223-22.725
		c-9.683-8.828-18.595-19.369-26.509-31.341c-13.742-20.687-25.399-46.695-35.616-79.492L0,69.84l5.784-6.725
		c9.399-10.835,19.278-20.304,29.397-28.18c10.635-8.248,21.824-14.986,33.273-20.042c11.741-5.196,24.202-8.828,37.026-10.795
		c7.467-1.128,15.193-1.699,22.989-1.699c5.726,0,11.578,0.309,17.391,0.918c18.062,1.852,37.297,6.743,57.145,14.534l11.244,4.38
		l-1.566,12.32c-2.595,20.425-6.718,39.704-12.254,57.298c-5.473,17.452-12.498,33.767-20.879,48.48
		c-8.301,14.534-18.137,27.878-29.242,39.669c-10.775,11.449-23.192,21.805-36.904,30.777l-6.688,4.304L99.256,212.007z"/>
</g>
<g>
	<path fill="#890606" d="M175.512,84.081c0.084,0.168,10.637,20.253,2.678,42.985c-3.014,8.596-8.706,17.613-18.675,26.045
		l6.786-20.68c-0.715,1.72-1.468,3.356-2.262,4.908c-7.833,14.635-21.363,21.558-34.178,24.704
		c-16.497,4.024-31.743,1.799-31.743,1.799s20.48-7.002,22.237-7.838c0.126-0.042,0.168-0.084,0.084-0.084
		c-39.744,4.193-46.067-13.883-83.512,4.65c0.379-0.542,0.715-1.047,1.089-1.589c27.934-39.255,80.787-19.627,89.667-43.279
		c6.034-13.883-12.105-28.349-35.514-22.394c-1.341,2.978-1.967,5.45-1.468,6.96c2.515,8.012-51.596,7.339-48.498,29.228
		c0,0-12.478-6.707-12.021-9.516c-3.472-0.463-9.296-5.955-9.043-6.755v-0.247l0.168-2.183l0.836-11.405
		c0,0,22.615-12.457,29.691-28.055c0.168-0.379,0.379-0.715,0.589-1.094c5.445-8.89,26.635-23.778,48.035-34.888
		c31.58-16.397,34.136-24.199,35.851-27.387c0,6.46,0,13.672-17.713,28.476c5.276-0.463,11.179-0.337,17.586,0.8
		c9.469,1.631,20.064,5.45,31.411,12.704l-24.036-1.846c12.604,2.851,26.214,9.774,35.388,22.815
		c6.239,8.89,10.384,20.632,10.763,35.814c0,0-8.254-18.244-13.735-22.352C175.848,84.291,175.68,84.207,175.512,84.081z"/>
</g>
<g>
	<path fill="#FFFFFF" d="M64.192,73.68l2.804-1.846c0,0,1.384,1.678-0.205,4.487c-1.594,2.809-5.24,2.725-5.24,2.725L64.192,73.68z"
		/>
</g>
<g>
	<path fill="#DC0200" d="M44.863,135.669l-4.54-2.44c-0.1-0.06-2.04-1.11-4.39-2.55c2.7,5.27,5.5,10.25,8.38,14.95
		c1.47-1.28,3-2.5,4.6-3.63C47.533,139.939,46.183,137.829,44.863,135.669z"/>
	<path fill="#DC0200" d="M107.243,15.599c-11.77,1.8-23.2,5.12-34.09,9.94c-10.63,4.69-20.98,10.94-30.82,18.58
		c-9.59,7.46-18.89,16.39-27.73,26.58l-1.55,1.81l0.76,2.39c2.3,7.38,4.67,14.4,7.12,21.08c0.96-0.57,2.37-1.44,4.06-2.56
		c-2.46-6.68-4.81-13.65-7.08-20.91c30.13-34.82,58.65-51.17,96.51-49.66c3.08-1.86,5.83-3.66,8.23-5.4
		c1.58-1.16,3.01-2.3,4.32-3.41C120.243,14.099,113.653,14.629,107.243,15.599z"/>
	<path fill="#DC0200" d="M154.783,153.069c-6.77,5.86-14.23,9.61-21.7,11.9c-8.42,8.45-18.22,16.21-29.69,23.7
		c-17.57-8.04-31.73-18.83-43.5-32.33c-2.34,0.36-4.76,0.92-7.28,1.69c6.22,8.53,12.94,16.07,20.04,22.55
		c9.46,8.59,19.98,15.6,31.24,20.76l1.64,0.67l1.5-0.97c12.82-8.38,24.55-18.12,34.81-29.02c3.13-3.33,6.16-6.8,9.08-10.39
		c-1.88,0.68-3.01,0.96-3.01,0.96L154.783,153.069z"/>
	<path fill="#DC0200" d="M198.753,28.679c-18.8-7.38-36.98-12.03-54.11-13.79c-1.67-0.17-3.33-0.32-4.99-0.44
		c-0.97,3.14-2.7,6.7-5.6,10.61c14.42,2.59,30.2,7.36,47.82,14.27c-0.75,5.94-1.56,11.65-2.42,17.13c0,0.04-0.01,0.08-0.02,0.11
		c-0.28,1.84-0.58,3.64-0.88,5.43c6.26,6.7,9.94,14.54,12,22.36c4.71-15.82,8.28-33.07,10.59-51.27l0.42-3.31L198.753,28.679z"/>
	<path fill="#DC0200" d="M151.765,82.907c0,0,12.315,15.14,5.739,45.162c0,0,1.841-33-25.298-43.027c0,0,15.913,6.881,19.306,33.805
		c0,0-0.168,4.861-0.668,7.296c-0.589-5.871-4.482-10.779-8.17-13.883c0,0,3.393,15.808-11.81,26.419
		c0.042-0.126,4.066-8.049,3.772-13.125c-17.549,24.325-67.683,4.908-96.58,33.468c27.934-39.255,80.787-19.627,89.667-43.279
		c4.65-10.653-4.94-21.642-20.227-23.489c-3.435-0.121-7.039,0.084-10.847,0.758c1.715-3.314,4.482-7.928,9.006-14.383
		c6.576-9.395,13.483-17.907,14.277-18.833l5.24-6.413l-8.086,1.51c-9.422,1.215-19.391,8.259-20.017,8.428
		c0,0,2.972-5.245,5.318-8.259c2.678-3.483,7.328-7.97,13.567-12.499c11.642,1.889,25.84,6.707,33.715,15.477l-17.549-4.487
		c0,0,22.489,10.19,34.636,41.348L151.765,82.907z M167.636,50.029c-11.347-7.296-21.942-11.074-31.411-12.71l19.306,9.143
		l-11.931,1.72L167.636,50.029z M90.7,100.352c-2.509-7.97,25.382-41.938,25.593-42.19C104.73,65.71,83.582,95.906,83.582,95.906
		c-3.561,5.955-27.681,11.994-27.681,11.994l5.487-6.544l-18.933,8.307l-9.843,10.653l-2.262,0.542
		c1.594,2.851,6.955,5.997,11.894,8.68C39.104,107.69,93.214,108.364,90.7,100.352z M70.809,66.173l-5.318,3.567l0.794-6.46
		c-0.836,2.767-7.917,17.907-12.941,22.437c-0.542,0.505-8.001,5.745-8.001,5.745l18.723-10.695l1.005-8.049l6.997-4.277
		l3.725-5.708c6.45-12.578,14.661-15.64,14.661-15.64C82.241,47.598,70.809,66.173,70.809,66.173z M42.581,91.04
		c-5.987,4.235-11.184,8.848-11.184,8.848l-5.066,13.672l6.576-6.039C32.865,98.758,42.581,91.04,42.581,91.04z M65.449,87.979
		l-0.673,0.379C64.86,88.357,65.112,88.189,65.449,87.979z M76.086,79.635c0,0-8.207,6.707-10.637,8.343l13.067-7.086
		c-1.173-5.871,5.445-20.085,5.445-20.085C78.306,67.936,76.086,79.635,76.086,79.635z M54.054,70.913
		c4.024-7.591,25.172-21.516,25.172-21.516s18.933-11.531,30.07-17.486c21.153-11.279,25.798-19.917,27.055-23.904
		c-1.757,3.188-4.272,10.989-35.851,27.387c-21.4,11.11-42.59,25.998-48.035,34.888c-0.21,0.379-0.421,0.715-0.589,1.094
		c-7.118,15.598-29.691,28.055-29.691,28.055l-0.836,11.405l-0.168,2.183l0.084,0.584l2.346-13.883
		C40.529,90.788,50.035,78.504,54.054,70.913z M115.498,34.383C102.72,43.526,98.533,52.88,97.486,57.367
		c0.505-1.005,1.257-2.183,2.304-3.567c2.43-3.146,6.365-7.549,13.32-12.873c23.241-17.823,23.241-25.751,23.241-32.837
		C136.267,8.259,133,21.847,115.498,34.383z M165.416,143.21l0.884-10.779l-6.786,20.68c9.927-8.433,15.619-17.449,18.675-26.045
		C173.292,134.067,168.767,140.19,165.416,143.21z M176.017,84.459c5.482,4.151,13.735,22.352,13.735,22.352
		c-0.337-15.224-4.524-26.924-10.763-35.814c2.509,6.208,4.187,12.326,5.024,18.365l-8.038-4.945L176.017,84.459z"/>
</g>
</svg>
