<?xml version="1.0" encoding="utf-8"?>
<!-- Generator: Adobe Illustrator 24.3.0, SVG Export Plug-In . SVG Version: 6.00 Build 0)  -->
<svg version="1.1" id="Layer_8" xmlns="http://www.w3.org/2000/svg" xmlns:xlink="http://www.w3.org/1999/xlink" x="0px" y="0px"
	 viewBox="0 0 253.937 281.065" enable-background="new 0 0 253.937 281.065" xml:space="preserve">
<g>
	<path d="M38.918,66.659c3.69-4.97,7.56-9.64,14.77-9.51c-0.98,0.98-1.96,1.74-2.66,2.72c-0.76,1.05-1.24,2.29-1.86,3.44
		C47.028,67.319,42.908,68.659,38.918,66.659z"/>
	<path d="M253.938,34.829c0,0-17.67,192.89-124.49,246.24c-68.21-34.07-100.06-125.04-114.17-186.35c1.5-0.59,3.04-1.07,4.58-1.38
		c9.32-1.87,18.69-0.76,27.94,0.81c50.14,8.5,88.97,48.55,97.76,97.71c4.93,27.62,0.82,53.92-12.2,78.8
		c-0.56,1.07-1.14,2.13-1.55,3.29c21.67-16.15,36.62-37.02,43.98-63.06c7.32-25.86,6.33-51.53-3.12-77.16
		c14,2.87,27.09,1.88,39.82-5.77c-10.15-2.23-19.16-5.74-27.36-11.17c-8.23-5.45-15.19-12.15-20.81-20.9
		c14.03,1.03,26.82-1.29,38.16-10.85c-18.77-0.22-35.14-6.76-51.36-14.23c11.01-2.04,20.96-5.61,26.42-16.19
		c-4.01,0.21-8.03,0.99-11.9,0.5c-9.73-1.22-19.42-2.88-29.09-4.6c-15.76-2.8-31.46-5.99-47.25-8.61
		c-8.49-1.4-17.14-1.52-25.71-0.43c-9.61,1.23-17.83,5.43-24.91,11.97c-3.68,3.4-7.37,6.8-11.4,10.52c0.6,1.25,1.42,2.95,2.31,4.79
		c-3.03,0.43-6.07,0.77-9.07,1.31c-3.43,0.62-6.7,1.68-9.74,3.31c-4.4-23.22-5.81-38.55-5.81-38.55
		c78.3-21.8,124.48-34.83,124.48-34.83S175.638,13.029,253.938,34.829z"/>
</g>
<g>
	<path fill="#F2A408" d="M212.488,127.959c-10.15-2.23-19.16-5.74-27.36-11.17c-8.23-5.45-15.19-12.15-20.81-20.9
		c14.03,1.03,26.82-1.29,38.16-10.85c-18.77-0.22-35.14-6.76-51.36-14.23c11.01-2.04,20.96-5.61,26.42-16.19
		c-4.01,0.21-8.03,0.99-11.9,0.5c-9.73-1.22-19.42-2.88-29.09-4.6c-15.76-2.8-31.46-5.99-47.25-8.61
		c-8.49-1.4-17.14-1.52-25.71-0.43c-9.61,1.23-17.83,5.43-24.91,11.97c-3.68,3.4-7.37,6.8-11.4,10.52c0.6,1.25,1.42,2.95,2.31,4.79
		c-3.03,0.43-6.07,0.77-9.07,1.31c-3.43,0.62-6.7,1.68-9.74,3.31c-1.12,0.6-2.2,1.27-3.25,2.03c-9.09,6.59-11.37,20.35-4.88,29.48
		c0.52,0.73,1.18,1.37,2.09,2.41c0.14-4.37,1.54-7.88,4.92-9.82c1.79-1.03,3.68-1.99,5.62-2.76c1.5-0.59,3.04-1.07,4.58-1.38
		c9.32-1.87,18.69-0.76,27.94,0.81c50.14,8.5,88.97,48.55,97.76,97.71c4.93,27.62,0.82,53.92-12.2,78.8
		c-0.56,1.07-1.14,2.13-1.55,3.29c21.67-16.15,36.62-37.02,43.98-63.06c7.32-25.86,6.33-51.53-3.12-77.16
		C186.668,136.599,199.758,135.609,212.488,127.959z M51.028,59.869c-0.76,1.05-1.24,2.29-1.86,3.44
		c-2.14,4.01-6.26,5.35-10.25,3.35c3.69-4.97,7.56-9.64,14.77-9.51C52.708,58.129,51.728,58.889,51.028,59.869z"/>
</g>
</svg>
