<?xml version="1.0" encoding="utf-8"?>
<!-- Generator: Adobe Illustrator 24.3.0, SVG Export Plug-In . SVG Version: 6.00 Build 0)  -->
<svg version="1.1" id="Layer_4" xmlns="http://www.w3.org/2000/svg" xmlns:xlink="http://www.w3.org/1999/xlink" x="0px" y="0px"
	 viewBox="0 0 280.953 229.857" enable-background="new 0 0 280.953 229.857" xml:space="preserve">
<g>
	<circle fill="#EFD0D1" cx="187.572" cy="151.867" r="11.251"/>
	<circle fill="#EFD0D1" cx="217.222" cy="151.867" r="11.251"/>
	<circle fill="#EFD0D1" cx="245.018" cy="151.867" r="11.251"/>
	<polygon fill="#EFD0D1" points="60.251,105.473 60.251,103.11 60.251,7.289 25.037,7.289 25.037,107.082 54.146,107.082 
		57.569,107.082 	"/>
	<polygon fill="#EFD0D1" points="106.68,81.665 106.68,77.335 106.68,7.289 71.453,7.289 71.453,86.161 89.143,86.161 
		96.692,86.161 	"/>
	<path fill="#EFD0D1" d="M140.872,7.289v61.398c-6.667,2.171-13.284,4.534-19.849,7.051c-1.047,0.409-2.095,0.817-3.142,1.239V7.289
		H140.872z"/>
	<path fill="#EFD0D1" d="M255.916,7.289v43.095l-15.634,9.018v-6.054c-1.482-0.102-3.027-0.166-4.56-0.217
		c-0.281-0.013-0.575-0.013-0.856-0.025c-0.651-0.013-1.29-0.026-1.941-0.038V7.289H255.916z"/>
	<path fill="#EFD0D1" d="M187.288,7.289v49.903c-1.903,0.332-3.806,0.69-5.697,1.06c-9.337,1.839-18.597,4.074-27.755,6.706
		c-0.6,0.179-1.175,0.345-1.763,0.511V7.289H187.288z"/>
	<path fill="#EFD0D1" d="M221.723,7.289v45.982c-3.232,0.141-6.476,0.358-9.72,0.639c-3.73,0.319-7.447,0.715-11.151,1.201
		c-0.792,0.102-1.571,0.204-2.363,0.319V7.289H221.723z"/>
</g>
<g>
	<path fill="#AECAD8" d="M43.044,229.857v-45.761H17.398C7.805,184.097,0,175.427,0,164.77V19.327C0,8.67,7.805,0,17.398,0H263.54
		c9.602,0,17.412,8.67,17.412,19.327V164.77c0,10.657-7.811,19.327-17.412,19.327H88.819L43.044,229.857z M17.398,8
		C12.216,8,8,13.082,8,19.327V164.77c0,6.246,4.216,11.327,9.398,11.327h33.646v34.452l34.463-34.452h178.034
		c5.189,0,9.412-5.081,9.412-11.327V19.327c0-6.246-4.223-11.327-9.412-11.327H17.398z"/>
</g>
<g>
	<path fill="#183043" d="M258.036,49.162l-2.12,1.22l-15.63,9.02v-6.05c-1.49-0.11-3.03-0.17-4.56-0.22
		c-0.28-0.01-0.58-0.01-0.86-0.03c-0.65-0.01-1.29-0.02-1.94-0.03c-1.88-0.03-3.77-0.03-5.66,0.02c-0.96,0.03-1.93,0.05-2.89,0.08
		c-0.88,0.02-1.76,0.06-2.65,0.1c-3.23,0.14-6.48,0.36-9.72,0.64c-3.73,0.32-7.45,0.71-11.15,1.2c-0.8,0.1-1.57,0.2-2.37,0.32
		c-3,0.41-5.99,0.87-8.98,1.38c-0.74,0.13-1.48,0.25-2.22,0.38c-1.9,0.33-3.8,0.69-5.69,1.06c-9.34,1.84-18.6,4.08-27.76,6.71
		c-0.6,0.18-1.17,0.34-1.76,0.51c-0.14,0.04-0.28,0.09-0.42,0.13c-3.07,0.9-6.12,1.86-9.16,2.84c-6.76,2.2-13.46,4.59-20.11,7.14
		c-1.06,0.41-2.12,0.83-3.18,1.26c-3.8,1.53-7.58,3.1-11.35,4.75c-3.39,1.47-6.75,2.99-10.12,4.54c-1.25,0.59-2.5,1.18-3.75,1.78
		c-9.29,4.55-18.5,9.26-27.45,14.46c-1.9,1.11-3.81,2.21-5.7,3.33l-2.72,1.62c-14.95,9-29.43,18.84-43.36,29.42
		c12.78-10.46,26.09-20.3,39.9-29.42c0.13-0.07,0.24-0.16,0.37-0.24c1.73-1.15,3.48-2.27,5.23-3.4c0.19-0.12,0.39-0.25,0.58-0.38
		c1.51-0.97,3.03-1.93,4.55-2.86c8.03-5.07,16.28-9.76,24.66-14.28c0.02-0.01,0.04-0.01,0.05-0.03c0.8-0.42,1.56-0.84,2.35-1.26
		c4.72-2.45,9.44-4.83,14.23-7.12c0.4-0.19,0.78-0.37,1.18-0.56c3.32-1.57,6.65-3.09,10.03-4.57c0.43-0.2,0.88-0.4,1.32-0.59
		c0.49-0.21,0.99-0.43,1.47-0.64c6.66-2.83,13.39-5.53,20.2-8c0.53-0.21,1.08-0.41,1.62-0.6c2.46-0.9,4.95-1.77,7.44-2.6
		c0.72-0.24,1.44-0.47,2.14-0.7c0.59-0.19,1.17-0.38,1.76-0.58c8.67-2.77,17.45-5.21,26.33-7.3c2.36-0.55,4.73-1.09,7.12-1.56
		c0.74-0.18,1.48-0.32,2.22-0.47c2.98-0.61,5.97-1.18,8.98-1.68c0.78-0.14,1.57-0.26,2.37-0.39c3.42-0.58,6.87-1.06,10.32-1.47
		c3.48-0.45,7.01-0.8,10.55-1.09c0.88-0.06,1.77-0.12,2.65-0.19c0.86-0.05,1.73-0.1,2.58-0.15c1.98-0.13,3.98-0.2,5.97-0.24
		c0.66-0.02,1.33-0.03,1.99-0.04c0.27,0,0.54-0.01,0.81,0c1.52-0.01,3-0.01,4.56,0.04v-5.47l15.63,9.03L258.036,49.162z"/>
</g>
</svg>
