<?xml version="1.0" encoding="utf-8"?>
<!-- Generator: Adobe Illustrator 24.3.0, SVG Export Plug-In . SVG Version: 6.00 Build 0)  -->
<svg version="1.1" id="Layer_1" xmlns="http://www.w3.org/2000/svg" xmlns:xlink="http://www.w3.org/1999/xlink" x="0px" y="0px"
	 viewBox="0 0 439.783 253.782" enable-background="new 0 0 439.783 253.782" xml:space="preserve">
<g>
	<path fill="#5C2D0F" d="M85.867,231.284c34.553,10.591,69.328,9.953,104.307,3.123c-12.321,0-24.649,0.283-36.96-0.062
		c-22.152-0.62-44.111-2.841-65.273-10.004c-9.278-3.141-18.099-7.196-25.136-14.28c-1.716-1.728-3.082-3.804-4.408-5.954
		c43.949,18.937,89.883,19.03,136.22,15.66c-14.561-0.978-29.141-1.724-43.677-2.988c-23.963-2.084-47.908-4.654-70.785-12.62
		c-6.728-2.343-13.041-6.076-19.204-9.744c-2.61-1.554-4.776-4.32-6.391-6.991c-4.513-7.463-3.101-15.03,3.819-20.335
		c8.922-6.84,19.488-9.567,30.442-11.727c0.296,3.536-1.365,4.639-4.157,5.792c-5.607,2.315-11.319,4.8-16.225,8.287
		c-7.526,5.35-7.518,13.492,0.507,17.929c7.531,4.163,15.911,7.727,24.326,9.166c19.414,3.318,39.014,6.128,58.652,7.394
		c21.898,1.411,43.933,1.477,65.885,1.028c20.025-0.41,39.926-2.981,58.919-9.946c4.51-1.654,8.948-3.938,12.845-6.733
		c7.419-5.322,7.673-12.18,0.07-17.29c-6.246-4.198-13.305-7.526-20.434-9.997c-15.042-5.213-30.815-7.555-46.632-8.256
		c-21.654-0.959-43.355-0.932-65.038-1.062c-3.559-0.021-4.782-1.941-6.855-5.467c12.126,0,23.475-0.596,34.742,0.116
		c29.268,1.85,58.521,4.033,87.738,6.569c15.192,1.319,29.283-1.841,42.795-8.286c7.767-3.704,15.256-7.989,22.972-11.806
		c15.541-7.69,31.691-12.11,49.101-7.78c3.287,0.818,6.577,2.357,9.365,4.287c4.904,3.393,4.436,8.745-1.121,11.014
		c-4.033,1.647-8.543,2.514-12.91,2.871c-7.755,0.634-15.573,0.996-23.347,0.8c-22.509-0.568-37.884,10.012-47.172,29.921
		c-4.219,9.044-7.505,18.519-11.436,27.703c-10.384,24.268-30.033,37.077-54.584,43.6c-27.517,7.311-55.633,8.965-83.944,8.49
		c-19.139-0.321-37.977-2.619-56.027-9.398C99.039,241.371,91.626,237.656,85.867,231.284z"/>
</g>
<g>
	<path fill="#E06E26" d="M132.371,194.997c-2.647-0.949-5.02-1.251-6.698-2.492c-9.042-6.69-18.138-13.342-26.772-20.54
		c-7.451-6.213-7.636-11.393-1.835-19.128c4.396-5.862,4.287-7.589-0.789-12.732c-13.58-13.757-27.125-27.549-40.8-41.211
		c-1.042-1.041-3.024-1.103-4.523-1.73c-2.499-1.045-5.53-1.597-7.347-3.37C30.37,80.876,17.374,67.713,4.33,54.599
		c-0.972-0.978-1.844-2.102-2.558-3.282c-1.825-3.016-2.851-6.096,0.009-9.142c2.683-2.858,6.814-3.665,10.295-1.724
		c1.798,1.003,3.547,2.259,4.978,3.73c12.407,12.757,24.739,25.588,37.088,38.402c2.507,2.602,4.142,5.468,3.534,9.346
		c-0.15,0.956,0.64,2.346,1.415,3.118c14.479,14.427,29.03,28.782,43.541,43.177c2.37,2.351,4.788,2.51,7.437,0.56
		c1.23-0.906,2.49-1.773,3.744-2.646c6.089-4.241,9.861-4.846,15.374,0.028c9.14,8.08,17.775,16.777,26.147,25.662
		c3.856,4.092,3.574,9.29-0.132,13.684c-4.551,5.396-9.41,10.585-14.586,15.378C138.432,192.911,135.098,193.692,132.371,194.997z
		 M139.615,181.477c1.424-0.955,3.306-1.538,3.645-2.609c0.457-1.444,0.344-3.852-0.59-4.832
		c-8.143-8.542-16.458-16.923-24.881-25.191c-1.96-1.923-4.706-2.864-7.107-0.58c-2.617,2.49-0.693,4.794,0.798,6.984
		c0.31,0.455,0.7,0.865,1.092,1.255c7.189,7.153,14.337,14.348,21.618,21.406C135.625,179.302,137.575,180.161,139.615,181.477z
		 M134.566,186.227c-1.866-2.361-2.797-3.902-4.065-5.082c-6.822-6.347-13.72-12.613-20.612-18.884
		c-1.024-0.932-2.041-2.137-3.272-2.5c-1.268-0.374-3.403-0.392-4.056,0.374c-0.837,0.983-0.998,3.01-0.653,4.388
		c0.296,1.186,1.614,2.202,2.644,3.107c7.001,6.15,14.032,12.267,21.093,18.347c1.039,0.895,2.283,2.145,3.444,2.157
		C130.637,188.15,132.196,187.115,134.566,186.227z M124.527,138.578c-0.997,0.746-2.572,1.438-2.523,1.98
		c0.139,1.525,0.558,3.355,1.555,4.417c7.312,7.787,14.738,15.47,22.296,23.018c0.867,0.866,2.766,0.697,4.187,1.007
		c-0.125-1.61,0.382-3.781-0.473-4.743c-7.092-7.98-14.415-15.755-21.732-23.532C127.033,139.873,125.823,139.402,124.527,138.578z"
		/>
</g>
<g>
	<path fill="#7F7F7F" d="M201.142,37.253c-6.328,6.528-11.905,12.527-17.8,18.196c-1.543,1.484-4.052,2.598-6.157,2.667
		c-1.705,0.056-4.125-1.325-4.991-2.796c-0.637-1.082,0.266-3.688,1.273-5.017c5.844-7.715,11.922-15.252,17.922-22.849
		c-0.232-0.365-0.464-0.729-0.696-1.094c-4.255,0.8-8.487,1.789-12.775,2.323c-2.232,0.278-4.708,0.184-6.816-0.518
		c-2.684-0.894-4.025-3.502-2.916-6.065c0.643-1.486,2.818-2.811,4.544-3.236c6.674-1.646,13.445-2.901,20.179-4.302
		c0.068-0.531,0.135-1.062,0.203-1.593c-0.921-0.734-2.241-1.289-2.669-2.244c-0.619-1.381-1.157-3.283-0.651-4.522
		c0.364-0.891,2.456-1.351,3.834-1.509c9.234-1.061,18.296,0.197,27.368,1.917c1.73,0.328,4.093-0.799,5.678-1.934
		c5.025-3.596,10.187-3.318,15.916-2.036c13.433,3.007,26.895,7.181,40.495,7.853c22.989,1.136,46.085,4.311,69.116,1.137
		c17.642-2.431,35.119-6.045,52.743-8.626c10.289-1.507,20.724-2.022,31.094-2.976c2.737-0.252,3.674,1.128,3.67,3.738
		c-0.028,17.296-0.02,34.592,0.077,51.888c0.014,2.468-0.946,3.664-3.307,3.763c-13.615,0.574-27.309,2.318-40.83,1.428
		c-27.765-1.827-54.386-10.044-81.133-17.153c-6.868-1.826-13.661-2.676-20.618-2.036c-1.998,0.184-4.376,1.369-5.7,2.87
		c-5.755,6.526-12.92,10.036-21.181,12.6c-8.536,2.649-16.559,6.956-24.795,10.563c-6.733,2.949-13.455,5.922-20.17,8.912
		c-1.643,0.732-3.172,1.787-4.873,2.304c-1.946,0.591-4.864,1.72-5.853,0.868c-1.6-1.379-2.639-4.159-2.725-6.394
		c-0.201-5.238,0.826-10.547,0.397-15.748C208.393,50.326,204.5,44.106,201.142,37.253z M222.326,59.906
		c5.153-2.699,10.717-5.01,15.596-8.328c5.682-3.864,5.755-5.572,3.07-11.604c-0.339-0.762-0.62-1.552-0.889-2.342
		c-2.723-8.012-2.67-7.646-10.736-6.534c-5.535,0.763-7.113,5.747-10.781,8.427c-0.32,0.234-0.214,1.253-0.09,1.864
		C219.7,47.342,220.95,53.286,222.326,59.906z"/>
</g>
<g>
	<path fill="#ED1C24" d="M182.678,162.868c-1.489,1.032-2.622,2.352-3.276,2.147c-1.048-0.329-1.78-1.668-2.645-2.581
		c0.977-0.786,1.882-2.027,2.955-2.195C180.397,160.133,181.331,161.612,182.678,162.868z"/>
	<path fill="#ED1C24" d="M154.501,191.863c-1.743,1.137-2.787,2.332-3.822,2.325c-0.769-0.006-1.527-1.571-2.29-2.441
		c0.928-0.807,1.773-2.08,2.812-2.265C151.944,189.35,152.946,190.677,154.501,191.863z"/>
	<path fill="#ED1C24" d="M212.793,160.865c-1.347,1.232-2.28,2.695-2.989,2.593c-1.079-0.154-2.002-1.393-2.992-2.171
		c0.876-0.912,1.62-2.268,2.674-2.578C210.168,158.508,211.3,159.834,212.793,160.865z"/>
	<path fill="#ED1C24" d="M210.502,103.159c-1.561,1.085-2.721,2.4-3.301,2.181c-1.032-0.39-1.713-1.709-2.541-2.639
		c0.873-0.708,1.73-1.941,2.625-1.97C208.122,100.705,208.999,101.956,210.502,103.159z"/>
	<path fill="#ED1C24" d="M194.845,120.309c1.019,1.801,2.129,2.884,1.939,3.643c-0.25,1.003-1.518,1.752-2.348,2.61
		c-0.726-0.834-2.062-1.695-2.026-2.496C192.455,123.054,193.615,122.091,194.845,120.309z"/>
	<path fill="#ED1C24" d="M217.11,141.764c-1.795,0.961-2.884,2.004-3.898,1.935c-0.754-0.051-1.411-1.542-2.111-2.392
		c0.948-0.745,1.836-1.949,2.863-2.081C214.692,139.133,215.606,140.486,217.11,141.764z"/>
	<path fill="#ED1C24" d="M239.787,157.24c-1.488,1.195-2.337,2.408-3.165,2.395c-0.866-0.014-1.712-1.209-2.567-1.888
		c0.793-0.924,1.437-2.24,2.437-2.623C237.071,154.902,238.225,156.184,239.787,157.24z"/>
	<path fill="#ED1C24" d="M210.075,90.411c1.215,1.409,2.68,2.483,2.504,3.037c-0.327,1.033-1.499,2.171-2.538,2.452
		c-0.542,0.147-2.079-1.371-2.193-2.262C207.747,92.849,208.992,91.887,210.075,90.411z"/>
	<path fill="#ED1C24" d="M214.128,115.502c1.056,1.794,2.163,2.852,2.115,3.854c-0.038,0.794-1.492,1.52-2.318,2.277
		c-0.774-0.929-2.008-1.786-2.17-2.812C211.636,118.068,212.924,117.094,214.128,115.502z"/>
	<path fill="#ED1C24" d="M260.947,184.498c-1.562,1.151-2.638,2.479-3.281,2.294c-0.997-0.286-2.148-1.508-2.36-2.517
		c-0.13-0.619,1.403-2.258,2.129-2.222C258.424,182.102,259.355,183.312,260.947,184.498z"/>
</g>
</svg>
