<?xml version="1.0" encoding="utf-8"?>
<!-- Generator: Adobe Illustrator 24.3.0, SVG Export Plug-In . SVG Version: 6.00 Build 0)  -->
<svg version="1.1" id="Layer_1" xmlns="http://www.w3.org/2000/svg" xmlns:xlink="http://www.w3.org/1999/xlink" x="0px" y="0px"
	 viewBox="0 0 411.207 289.3" enable-background="new 0 0 411.207 289.3" xml:space="preserve">
<g>
	<path fill="#F6851F" d="M182.566,121.328c-18.076-11.48-37.15-16.268-57.493-13.652c-16.236,1.3-28.778,6.834-37.61,14.032
		c-0.285,0.222-0.571,0.46-0.856,0.698c-15.555,10.861-26.115,25.48-32.156,43.366c-3.441,10.179-4.741,20.708-4.043,31.458
		c0.032,0.476,0.032,0.951,0.063,1.522c-8.483-9.085-18.234-30.062-19.677-52.546c-1.221-19.265,2.093-37.768,9.149-56.288
		c0.587,4.059,0.888,7.595,1.649,11.036c1.538,6.977,4.313,13.335,10.386,17.679c4.503,3.203,9.498,4.503,14.984,3.472
		c7.976-1.522,12.605-9.482,9.625-17.457c-1.871-4.963-5.026-9.434-7.214-14.302c-2.093-4.693-4.36-9.466-5.312-14.445
		c-1.649-8.689,3.33-14.857,9.228-20.375c0.444,4.218,0.539,8.166,1.3,11.971c1.57,8.039,8.974,13.335,16.585,12.209
		c4.836-0.729,9.006-4.376,9.735-9.64c0.491-3.504,0.063-7.214-0.491-10.75c-0.412-2.505-1.554-4.947-2.648-7.278
		c-4.931-10.401-3.377-20.184,2.822-29.428c6.485-9.688,15.602-16.427,25.988-22.61c-1.269,2.6-2.331,4.598-3.251,6.659
		c-2.886,6.437-2.378,12.51,2.156,18.044c2.553,3.108,5.232,6.104,7.801,9.196c3.71,4.471,5.423,9.561,5.058,15.428
		c-0.476,7.246,0.856,14.159,4.884,20.327c4.122,6.279,10.163,6.437,13.747-0.127c2.283-4.186,3.155-9.149,4.63-13.763
		c0.159-0.523,0.159-1.094,0.301-2.029c5.502,4.757,8.562,10.544,10.354,17.14c2.22,8.166,2.394,16.395,1.538,24.783
		c-0.666,6.533,2.442,12.32,5.01,18.091C179.839,116.112,181.075,118.363,182.566,121.328z"/>
	<path fill="#F6851F" d="M204.497,133.817c1.033-5.802-0.734-10.818-3.874-15.476c-2.031-3.013-4.206-5.96-5.918-9.15
		c-3.736-6.964-5.769-14.427-4.976-22.389c1.157-11.613,9.909-21.409,22.042-24.578c-4.476,4.436-7.65,9.259-9.249,14.983
		c-2.277,8.153-1.301,16.17,1.539,23.961c2.503,6.868,5.162,13.706,4.725,21.143c-0.192,3.274-1.274,6.505-2.07,9.726
		c-0.181,0.733-0.849,1.345-1.292,2.013C205.116,133.971,204.807,133.894,204.497,133.817z"/>
	<path fill="#F6851F" d="M17.366,128.124c-4.465-7.575-5.432-15.653-4.994-23.954c0.216-4.1,0.967-8.173,1.512-12.253
		c0.96-7.179,0.942-14.258-2.171-21.066C21.721,79.263,26,89.813,23.671,102.679c-0.867,4.788-2.395,9.455-3.583,14.187
		C19.183,120.469,18.34,124.088,17.366,128.124z"/>
	<path fill="#F6851F" d="M0,164.109c10.788-2.719,22.784,2.783,25.999,15.546c2,7.938,5.192,15.59,8.108,23.273
		c0.713,1.878,2.442,3.371,4.121,5.593c-5.634-3.053-10.116-6.564-13.261-11.368c-3.501-5.348-6.692-10.927-9.65-16.597
		C11.784,173.781,7.337,167.975,0,164.109z"/>
</g>
<g>
	<path fill="#FCB116" d="M165.301,147.026c-3.484,2.097-7.335,2.162-11.084,2.695c-8.286,1.179-16.407,2.894-23.88,6.877
		c-0.213,0.114-0.431,0.218-0.644,0.331c-10.827,5.777-11.58,15.481-1.811,22.982c7.714,5.923,16.612,9.241,25.831,11.883
		c2.953,0.846,5.881,1.778,8.752,3.002c-4.804,1.152-9.522,0.39-14.209-0.221c-15.741-2.052-31.128-5.541-45.783-11.814
		c-5.6-2.397-10.73-5.509-14.822-10.137c-4.114-4.654-4.04-9.782,0.302-14.197c3.672-3.734,8.389-5.628,13.233-7.191
		c10.651-3.437,21.674-4.469,32.778-5.295c9.927-0.739,19.758-0.397,29.599,0.791C164.147,146.804,164.723,146.927,165.301,147.026z
		"/>
	<path fill="#FCB116" d="M138.149,264.7c2.516,0.021,4.259,0.916,6.038,1.557c18.135,6.539,36.951,8.945,56.104,9.555
		c20.454,0.651,40.651-2.238,60.93-4.081c7.439-0.676,14.839-1.892,22.336-1.83c1.02,0.008,2.561-0.514,2.916,0.685
		c0.424,1.434-1.217,1.899-2.207,2.421c-13.017,6.867-26.815,11.539-41.295,14.035c-27.88,4.805-55.015,1.923-81.327-8.476
		c-6.402-2.53-12.525-5.663-18.484-9.107C141.275,268.369,139.674,266.949,138.149,264.7z"/>
</g>
<g>
	<path fill="#AE1F23" d="M170.278,209.159c0.601,17.158,3.685,33.588,14.385,47.676c3.602,4.742,7.977,8.699,13.146,11.746
		c1.261,0.743,3.495,1.241,2.791,3.167c-0.62,1.694-2.765,1.168-4.252,1.043c-14.07-1.183-28.065-2.874-41.782-6.398
		c-8.429-2.166-16.627-4.911-24.594-8.472c-13.1-5.855-21.477-16.543-28.918-28.048c-8.974-13.877-14.345-29.169-16.173-45.644
		c-0.156-1.408-0.6-2.982,0.79-4.026c0.963-0.723,1.855,0.095,2.628,0.602c15.955,10.462,34.157,14.186,52.49,17.471
		c7.719,1.383,15.474,2.467,23.371,2.255c5.848-0.157,6.134,0.263,6.118,6.096C170.276,207.47,170.278,208.314,170.278,209.159z"/>
	<path fill="#AE1F23" d="M290.075,154.661c5.146-0.943,10.237-0.647,15.325,0.066c10.279,1.442,20.479,3.132,29.923,7.827
		c3.615,1.797,6.897,3.939,9.465,7.081c2.433,2.978,3.016,6.244,1.347,9.774c-1.641,3.471-4.191,5.329-8.273,5.16
		c-5.052-0.209-10.12,0.027-15.18-0.045c-3.661-0.052-4.056-0.762-2.575-4.044c2.134-4.728,1.487-8.504-2.07-12.246
		c-6.187-6.508-14.411-8.913-22.655-11.29C293.569,156.421,291.61,156.267,290.075,154.661z"/>
</g>
<g>
	<path fill="#D2D2D1" d="M235.494,209.799c7.242,0,14.483,0.035,21.724-0.033c1.306-0.012,3.515,0.554,3.47-1.426
		c-0.043-1.908-2.239-1.277-3.568-1.371c-14.546-1.026-29.143-1.269-43.654-2.833c-0.48-0.052-0.965-0.061-1.442-0.13
		c-1.26-0.183-2.501-0.542-2.441-2.108c0.058-1.526,1.337-1.866,2.566-2.047c0.831-0.122,1.683-0.12,2.527-0.147
		c14.107-0.438,28.212-0.895,42.331-0.728c1.545,0.018,4.282,0.715,4.289-1.301c0.008-2.452-2.799-1.482-4.396-1.534
		c-14.097-0.462-28.195-0.885-42.25-2.167c-0.601-0.055-1.219-0.034-1.799-0.172c-1.254-0.299-2.97-0.359-2.877-2.107
		c0.085-1.59,1.728-1.464,2.866-1.534c7.457-0.461,14.916-0.922,22.38-1.252c7.709-0.341,15.452,0.357,23.137-0.71
		c1.193-0.166,3.248,0.44,3.184-1.388c-0.068-1.953-2.173-1.46-3.509-1.486c-4.585-0.089-9.174,0.017-13.758-0.092
		c-9.403-0.223-18.806-0.461-28.202-0.877c-1.988-0.088-5.405,0.381-5.378-2.176c0.027-2.666,3.39-1.876,5.394-2.014
		c18.879-1.303,37.739-2.806,56.685-3.114c7.884-0.128,12.954,3.068,15.958,9.913c1.487,3.388,3.809,4.442,7.179,3.886
		c4.437-0.733,8.908-0.472,13.368-0.53c22.196-0.291,44.399-0.345,66.586-0.967c8.802-0.247,17.62-0.088,26.399-0.623
		c6.586-0.401,8.351,2.339,8.93,9.741c0.091,1.165-0.304,2.391-0.593,3.559c-1.435,5.795-3.142,7.255-9.088,7.039
		c-23.251-0.846-46.496-1.842-69.747-2.691c-11.087-0.405-22.222-0.137-33.257-1.084c-5.948-0.51-9.792,0.687-12.409,6.187
		c-2.808,5.901-8.628,6.27-14.045,6.158c-12.771-0.265-25.538-0.89-38.294-1.592c-6.493-0.357-12.96-1.19-19.439-1.814
		c-0.72-0.069-1.463-0.087-2.148-0.288c-1.205-0.354-3.033-0.276-2.929-2.048c0.096-1.63,1.785-1.744,3.082-1.916
		c1.071-0.142,2.168-0.115,3.253-0.117c6.638-0.009,13.276-0.004,19.914-0.004C235.494,209.841,235.494,209.82,235.494,209.799z"/>
	<path fill="#D2D2D1" d="M319.929,258.404c-1.204,0.078-2.413,0.103-3.609,0.245c-2.937,0.35-5.307-0.418-6.49-3.35
		c-2.65-6.566-6.619-9.171-14.39-8.048c-14.885,2.151-29.983,2.822-44.987,4.171c-11.523,1.036-23.032,2.231-34.557,3.231
		c-5.647,0.49-9.943-4.899-9.343-11.542c0.242-2.675,1.136-5.193,2.435-7.531c1.195-2.15,3.005-3.288,5.591-3.339
		c7.956-0.156,15.908-0.577,23.863-0.638c23.398-0.179,46.766-1.441,70.167-1.719c19.647-0.234,39.292-1.066,58.948-1.329
		c11.326-0.152,22.644-0.832,33.966-1.264c0.964-0.037,1.933-0.038,2.895,0.015c3.902,0.214,4.791,1.696,2.749,5.072
		c-4.063,6.718-10.516,10.514-17.457,13.509c-13.535,5.841-27.87,8.485-42.399,10.335
		C338.215,257.381,329.086,258.044,319.929,258.404z"/>
	<path fill="#D2D2D1" d="M240.879,72.981c3.82,4.272,6.358,9.295,8.658,14.453c2.606,5.845,4.209,12.004,4.267,18.364
		c0.064,7.014-1.336,13.586-6.484,19.124c-8.298,8.927-14.781,19.01-17.227,31.237c-0.158,0.789-0.25,1.592-0.354,2.391
		c-0.102,0.782,0.021,1.616-0.649,2.448c-1.395-3.697-0.919-7.331-0.408-10.947c1.538-10.866,5.715-20.641,11.882-29.703
		c8.187-12.03,8.811-24.938,3.723-38.326c-1.052-2.767-2.157-5.514-3.229-8.274C240.965,73.506,240.938,73.238,240.879,72.981z"/>
	<path fill="#D2D2D1" d="M265.11,115.537c-0.164,7.447-2.932,13.862-7.86,19.362c-1.748,1.951-3.784,3.644-5.521,5.603
		c-2.943,3.32-5.064,7.106-5.934,11.521c-0.105,0.534,0.054,1.414-0.798,1.389c-0.716-0.02-0.817-0.805-0.948-1.384
		c-0.537-2.385,0.076-4.683,0.681-6.946c1.607-6.013,5.139-10.899,9.278-15.391c4.402-4.777,7.852-10.059,9.137-16.553
		c0.137-0.69,0.189-1.726,1.121-1.641c0.921,0.084,0.772,1.12,0.83,1.822C265.157,114.054,265.11,114.797,265.11,115.537z"/>
</g>
</svg>
