<?xml version="1.0" encoding="utf-8"?>
<!-- Generator: Adobe Illustrator 24.3.0, SVG Export Plug-In . SVG Version: 6.00 Build 0)  -->
<svg version="1.1" id="Layer_6" xmlns="http://www.w3.org/2000/svg" xmlns:xlink="http://www.w3.org/1999/xlink" x="0px" y="0px"
	 viewBox="0 0 234.119 234.119" enable-background="new 0 0 234.119 234.119" xml:space="preserve">
<g>
	
		<rect x="34.286" y="34.286" transform="matrix(0.7071 -0.7071 0.7071 0.7071 -48.4876 117.0594)" fill="#025584" width="165.547" height="165.547"/>
</g>
<g>
	<path fill="#5FFFFF" d="M148.114,66.503l-7.155-7.186c-21.629-21.699-44.364-13.051-44.65-12.931c0,0,8.14,1.881,14.824,7.53
		c5.407,4.562,5.719,12.823,0.724,17.836l1.29,1.29l-43.024,43.176l10.853,10.891l43.024-43.176l1.29,1.296l5.357-5.376
		c0.801,0.807,1.531,1.519,2.135,2.103c0.998,0.966,2.586,0.953,3.565-0.032l11.768-11.812
		C149.112,69.115,149.112,67.501,148.114,66.503z"/>
	<path fill="#5FFFFF" d="M157.188,75.609l-3.527-3.539c-1.322-1.328-3.469-1.328-4.791,0l-10.414,10.446
		c-1.322,1.328-1.322,3.482,0,4.81l3.527,3.546c1.322,1.328,3.469,1.328,4.791,0l10.414-10.453
		C158.51,79.091,158.51,76.937,157.188,75.609z"/>
	<path fill="#5FFFFF" d="M109.78,142.632H98.095v-11.73h11.685V142.632L109.78,142.632z"/>
	<path fill="#5FFFFF" d="M126.993,142.632h-11.692v-11.73h11.692V142.632L126.993,142.632z"/>
	<path fill="#5FFFFF" d="M109.78,158.435H98.095v-11.73h11.685V158.435L109.78,158.435z"/>
	<path fill="#5FFFFF" d="M126.993,158.435h-11.692v-11.73h11.692V158.435L126.993,158.435z"/>
	<path fill="#5FFFFF" d="M117.059,17.473l-99.59,99.59l24.717,24.717l13.355,13.346l61.519,61.519l59.801-59.801l8.399-8.391
		l31.39-31.39L117.059,17.473z M182.803,145.989l-15.952-16.01v-16.185l3.162-2.274l-14.716-8.939v20.011l-1.403-1.411l-0.025-4.225
		l-30.087-30.203l-8.383,8.408l59.004,59.228l-57.344,57.344l-59.17-59.17l21.762-23.738l-11.238-11.28l-23.671,21.87
		l-22.352-22.352l94.668-94.668l94.668,94.668L182.803,145.989z"/>
</g>
</svg>
