<?xml version="1.0" encoding="utf-8"?>
<!-- Generator: Adobe Illustrator 24.3.0, SVG Export Plug-In . SVG Version: 6.00 Build 0)  -->
<svg version="1.1" id="Layer_1" xmlns="http://www.w3.org/2000/svg" xmlns:xlink="http://www.w3.org/1999/xlink" x="0px" y="0px"
	 viewBox="0 0 219.447 272.063" enable-background="new 0 0 219.447 272.063" xml:space="preserve">
<g>
	<path fill="#EE3367" d="M35.201,144.604c-4.703-23.465-18.726-52.87-23.425-76.335c-0.618-3.088-1.326-6.165-1.785-9.277
		c-0.425-2.88-1.514-4.537-4.7-5.304c-4.6-1.108-6.269-5.027-4.739-9.414c1.289-3.697,5.11-5.561,8.895-4.338
		c4.108,1.327,6.062,5.44,4.529,9.69c-0.409,1.134-1.055,2.183-1.577,3.241c6.496,7.848,17.67,8.455,25.52,1.249
		c7.602-6.978,11.304-16.285,14.73-25.696c0.777-2.133,1.265-4.37,1.989-6.525c1.255-3.74,2.247-6.789-2.455-9.625
		c-3.454-2.083-3.191-6.428-0.509-9.782c2.363-2.954,7.051-3.292,9.93-0.941c3.162,2.582,3.676,7.122,1.025,10.304
		c-0.987,1.185-2.305,2.094-3.813,3.432c3.497,7.267,7.968,13.819,14.59,18.664c6.381,4.668,13.468,4.962,19.538,0.26
		c5.665-4.387,10.244-10.176,15.615-15.669c-1.919-1.975-3.047-2.848-3.806-3.97c-2.459-3.639-1.527-8.535,2.16-10.51
		c3.661-1.96,7.194-1.474,9.833,1.926c2.538,3.269,1.753,8.865-2.143,10.416c-4.644,1.849-4.095,4.636-2.717,7.842
		c4.404,10.245,8.973,20.418,13.518,30.602c0.546,1.223,4.657,9.382,5.71,11.203C83.154,69.975,51.945,92.686,35.201,144.604z"/>
	<path fill="#EE3367" d="M137.703,190.429c-1.01,0.574-1.878,1.066-2.727,1.547c-0.702,0.398-0.996,1.26-0.687,2.006
		c0.15,0.363,0.299,0.719,0.447,1.072c0.182,0.435,0.162,0.926-0.054,1.345l-0.301,0.586c-0.011,0-0.023-0.011-0.034-0.011
		c-0.034,0.092-0.08,0.183-0.126,0.275c-0.046,0.103-0.092,0.195-0.137,0.298c-1.866,3.972-4.19,7.807-5.334,11.985
		c-2.083,7.589-6.96,10.336-14.56,8.081c-10.909-3.251-21.852-6.525-32.989-8.768c-10.6-2.141-21.245-0.778-31.478,2.93
		c-0.588,0.215-1.183,0.413-1.851,0.626c-1.425,0.454-2.646-1.125-1.844-2.388c7.399-11.651,16.093-20.74,27.058-27.645
		c5.792-3.64,11.836-6.925,17.903-10.096c17.422-9.111,31.41-22.012,42.707-37.98c0.01-0.014,0.019-0.027,0.029-0.041
		c0.957-1.348,3.064-0.499,2.875,1.144c-1.812,15.74,0.721,30.631,8.821,43.951c0.382,0.627,0.315,1.453-0.219,1.957
		c-2.729,2.579-9.458,1.049-6.845,7.099C138.679,189.152,138.413,190.026,137.703,190.429z"/>
	<path fill="#EE3367" d="M164.053,260.07c-0.016,0.012-0.016,0.012-0.032,0.023c-19.085,10.066-41.467,14.304-64.438,10.704
		c-10.591-1.66-20.552-4.881-29.712-9.366c52.358,19.886,98.732-11.486,120.254-49.158c7.355-12.863,11.818-26.451,12.624-38.994
		C204.807,204.082,193.153,236.8,164.053,260.07z"/>
	<path fill="#EE3367" d="M102.525,257.972c-23.707,4.728-57.168-7.958-72.967-29.628c-15.825-21.716-23.466-49.399-19.233-78.027
		c-4.196,30.373,18.706,60.262,40.706,76.721c6.88,5.144,13.663,8.978,19.512,11.105c29.016,10.553,62.879,7.962,74.29-26.53
		C143.055,239.424,123.648,253.755,102.525,257.972z"/>
</g>
<g>
	<path fill="#F89954" d="M41.667,203.975c-1.898-27.042,2.794-52.394,20.368-73.881c20.266-24.777,48.21-33.885,79.311-37.833
		c-0.384,13.088-4.242,24.214-11.052,34.357c-8.158,12.151-19.571,20.724-31.836,28.254c-9.908,6.083-20.056,11.779-29.896,17.968
		C56.542,180.401,46.418,189.728,41.667,203.975z"/>
	<path fill="#F89954" d="M218.181,184.332c-5.272,33.646-26.161,60.981-54.128,75.739c29.1-23.27,40.754-55.988,38.695-86.789
		c0.002-0.014,0.002-0.014,0.004-0.028c-0.935-14.133-4.766-27.875-11.112-40.093c-12.717-24.454-35.352-42.99-60.306-49.376
		c-15.362-3.925-31.613-3.264-46.953,3.451c26.863-14.201,60.807-17.042,93.118-1.057c1.596,0.78,3.169,1.613,4.749,2.491
		l0.028,0.004C209.225,111.292,224.024,147.038,218.181,184.332z"/>
	<path fill="#F89954" d="M51.029,227.034c-21.995-16.45-44.901-46.34-40.699-76.713c0.035-0.317,0.084-0.631,0.133-0.946
		c1.458-9.305,4.086-18.134,7.705-26.368C14.406,173.38,31.043,211.22,51.029,227.034z"/>
</g>
</svg>
