<?xml version="1.0" encoding="utf-8"?>
<!-- Generator: Adobe Illustrator 24.3.0, SVG Export Plug-In . SVG Version: 6.00 Build 0)  -->
<svg version="1.1" id="Layer_4" xmlns="http://www.w3.org/2000/svg" xmlns:xlink="http://www.w3.org/1999/xlink" x="0px" y="0px"
	 viewBox="0 0 231.976 202.755" enable-background="new 0 0 231.976 202.755" xml:space="preserve">
<g>
	<path fill="#AD00B2" d="M160.751,0c-16.962,0-32.53,5.939-44.763,15.838C103.755,5.939,88.187,0,71.225,0
		C31.889,0,0,31.888,0,71.225c0,55.325,61.179,107.248,94.671,131.53c0.432-2.282,0.697-4.683,0.697-7.262
		c0-21.758-17.625-46.526-33.332-70.801C43.838,96.565,27.19,70.362,27.19,70.362s65.555,75.882,102.267,70.452
		c39.392-5.827,60.603-83.613,60.603-83.613s7.558,68.467-23.135,121.75c31.148-27.494,65.051-66.812,65.051-107.727
		C231.976,31.888,200.087,0,160.751,0z M121.965,127.616c-14.62,0-26.472-11.852-26.472-26.472c0-14.62,11.852-26.472,26.472-26.472
		s26.472,11.852,26.472,26.472C148.436,115.765,136.585,127.616,121.965,127.616z"/>
</g>
</svg>
