<?xml version="1.0" encoding="utf-8"?>
<!-- Generator: Adobe Illustrator 24.3.0, SVG Export Plug-In . SVG Version: 6.00 Build 0)  -->
<svg version="1.1" id="Layer_7" xmlns="http://www.w3.org/2000/svg" xmlns:xlink="http://www.w3.org/1999/xlink" x="0px" y="0px"
	 viewBox="0 0 356.843 172.342" enable-background="new 0 0 356.843 172.342" xml:space="preserve">
<g>
	<path fill="#515151" d="M115.932,152.716c-4.676-6.605-7.036-49.663,2.668-67.185c5.293-9.557,10.548-13.267,18.357-20.944
		c4.983-4.899,9.482-12.838,9.979-19.958c0.519-7.431,0.638-13.638,1.971-20.944c3.136-17.183,10.462-23.139,24.886-23.654
		c16.276-0.582,25.509,7.179,30.061,23.408c5.667,20.205-7.392,35.728-29.503,44.592c4.109-2.714,7.767-4.77,11.038-7.356
		c10.902-8.618,16.95-19.739,15.2-34.38c-1.447-12.108-11.442-21.714-23.14-22.611c-12.067-0.925-21.498,6.034-24.322,19.065
		c-1.562,7.206-2.031,14.746-2.281,22.161c-0.34,10.059-3.731,18.239-11.565,24.294c-15.139,11.701-22.528,27.682-23.263,46.961
		C115.558,128.216,115.932,140.301,115.932,152.716z"/>
	<path fill="#515151" d="M188.742,94.401c12.933,30.936,31.432,43.201,63.078,50.43c0.972,0.222,7.063,0.713,8.35,1.418
		c-27.005,1.09-53.599-13.211-66.903-36.129c-6.457-11.123-12.315-22.603-18.444-33.921
		C175.515,75.544,186.378,88.747,188.742,94.401z"/>
	<path fill="#515151" d="M167.958,106.357c14.824,19.738,31.836,33.582,54.207,42.895
		C198.269,144.01,164.431,115.756,167.958,106.357z"/>
</g>
<g>
	<path fill="#A2F3F9" d="M0,170.185c8.669-0.481,24.917-1.325,33.592-1.659c24.196-0.932,47.256-5.05,68.161-16.942
		c11.826-6.727,24.663-5.376,37.37-1.324c8.436,2.69,16.816,5.841,25.53,7.44c17.151,3.148,33.475-0.66,49.261-6.665
		c5.037-1.916,9.975-4.078,15.115-5.736c22.814-7.358,52.266,2.046,63.634,21.484c-5.667-2.511-11.859-4.376-16.906-7.651
		c-17.551-11.389-35.443-11.821-54.329-3.039c-27.095,12.599-54.526,13.035-82.156,1.254c-14.052-5.991-27.64-5.237-40.423,2.81
		c-4.93,3.104-10.658,5.567-16.881,7.232c-6.603,1.767-13.349,2.256-20.286,2.967c-3.419,0.351-6.85,0.648-10.285,0.908
		c-8.788,0.665-17.638,1.104-26.483,1.077c-4.609-0.014-9.236-0.151-13.804-0.593C5.141,171.17-0.017,170.677,0,170.185z"/>
	<path fill="#A2F3F9" d="M356.758,162.896c-2.366-10.021-6.748-18.25-15.024-24.246c-11.962-8.667-22.218-6.907-30.26,5.238
		c-4.51,6.81-9.182,13.521-13.781,20.276c-0.938-0.293,9.339-21.185,13.591-26.368c8.378-10.213,9.56-10.553,20.698-9.124
		C346.557,130.541,357.942,146.308,356.758,162.896z"/>
	<path fill="#A2F3F9" d="M278.322,129.128c0.489,0.757,0.963,1.49,1.437,2.223c1.18,1.826,2.373,3.643,3.536,5.48
		c2.328,3.674,0.37,8.269-3.887,9.156c-3.238,0.674-6.465-1.582-6.982-4.88c-0.233-1.483-0.002-2.886,0.809-4.154
		c1.652-2.585,3.332-5.152,5.001-7.726C278.251,129.202,278.274,129.182,278.322,129.128z M278.302,131.142
		c-0.041,0.064-0.057,0.09-0.074,0.115c-1.384,2.14-2.813,4.254-4.14,6.429c-1.361,2.229-0.542,5.276,1.688,6.618
		c1.928,1.16,4.424,0.835,6.025-0.786c1.56-1.58,1.839-4.048,0.654-5.955c-0.616-0.992-1.256-1.969-1.891-2.949
		C279.825,133.472,279.08,132.335,278.302,131.142z"/>
	<path fill="#A2F3F9" d="M263.473,123.724c0.489,0.757,0.963,1.49,1.437,2.222c1.18,1.826,2.373,3.643,3.536,5.48
		c2.328,3.674,0.371,8.269-3.887,9.156c-3.238,0.674-6.465-1.582-6.982-4.88c-0.233-1.483-0.002-2.886,0.809-4.154
		c1.652-2.585,3.332-5.152,5.001-7.726C263.402,123.798,263.426,123.777,263.473,123.724z M263.454,125.738
		c-0.041,0.064-0.057,0.09-0.074,0.115c-1.384,2.14-2.813,4.254-4.14,6.429c-1.361,2.229-0.542,5.276,1.688,6.618
		c1.928,1.16,4.424,0.835,6.025-0.786c1.56-1.58,1.839-4.048,0.654-5.955c-0.616-0.992-1.256-1.969-1.891-2.949
		C264.976,128.068,264.231,126.93,263.454,125.738z"/>
	<path fill="#A2F3F9" d="M247.032,120.64c0.489,0.757,0.963,1.49,1.437,2.222c1.18,1.826,2.373,3.643,3.536,5.48
		c2.328,3.674,0.37,8.269-3.887,9.156c-3.238,0.674-6.465-1.582-6.982-4.88c-0.233-1.483-0.002-2.886,0.809-4.154
		c1.652-2.585,3.332-5.152,5.001-7.726C246.961,120.713,246.984,120.693,247.032,120.64z M247.012,122.654
		c-0.041,0.064-0.057,0.09-0.074,0.115c-1.384,2.14-2.813,4.254-4.14,6.429c-1.361,2.229-0.542,5.276,1.688,6.618
		c1.928,1.16,4.424,0.835,6.025-0.786c1.56-1.58,1.839-4.048,0.654-5.955c-0.616-0.992-1.256-1.969-1.891-2.949
		C248.535,124.984,247.79,123.846,247.012,122.654z"/>
</g>
</svg>
