<?xml version="1.0" encoding="utf-8"?>
<!-- Generator: Adobe Illustrator 24.3.0, SVG Export Plug-In . SVG Version: 6.00 Build 0)  -->
<svg version="1.1" id="Layer_6" xmlns="http://www.w3.org/2000/svg" xmlns:xlink="http://www.w3.org/1999/xlink" x="0px" y="0px"
	 viewBox="0 0 357.065 238.794" enable-background="new 0 0 357.065 238.794" xml:space="preserve">
<g>
	<path fill="#2E465B" d="M179.125,105.912c-21.296-0.186-38.959-1.651-56.477-4.718c-9.092-1.592-18.134-3.454-26.757-6.834
		c-2.622-1.028-5.119-2.51-7.444-4.117c-1.879-1.299-1.758-2.743-0.056-4.313c2.57-2.369,5.772-3.638,8.95-4.88
		c9.308-3.64,18.964-6.127,28.665-8.447c3.457-0.827,6.93-1.59,10.403-2.348c0.476-0.104,1.061-0.155,1.488,0.025
		c6.503,2.737,13.365,4.002,20.316,4.675c6.236,0.604,12.517,1.179,18.768,1.091c11.01-0.155,22.078-0.798,32.55-4.488
		c4.004-1.411,7.508-0.967,11.261-0.088c10.983,2.572,21.983,5.096,32.553,9.124c2.659,1.013,5.2,2.342,7.765,3.588
		c0.661,0.321,1.236,0.847,1.801,1.336c1.99,1.719,2.04,3.236-0.08,4.831c-1.556,1.171-3.267,2.205-5.042,3.004
		c-6.525,2.939-13.447,4.621-20.412,6.109c-12.789,2.732-25.717,4.523-38.762,5.405
		C190.958,105.387,183.285,105.694,179.125,105.912z"/>
	<path fill="#2E465B" d="M209.453,54.309c-5.085,1.749-10.234,2.672-15.437,3.297c-9.986,1.2-20.009,1.299-29.995,0.243
		c-8.038-0.85-16.023-2.192-24.037-3.274c-0.943-0.127-1.131-0.453-0.985-1.36c2.117-13.168,4.351-26.315,8.077-39.145
		c0.975-3.358,2.192-6.68,3.652-9.856c2.141-4.658,4.265-5.698,9.013-1.892c2.129,1.707,3.781,4.007,5.666,6.022
		c2.209,2.36,4.7,4.144,8.149,4.059c2.071-0.051,3.869-0.859,5.406-2.097c2.658-2.141,5.164-4.469,7.768-6.678
		c1.103-0.936,2.232-1.868,3.457-2.629c2.619-1.628,4.871-1.177,6.219,1.586c1.449,2.969,2.669,6.091,3.616,9.257
		c3.963,13.246,6.595,26.8,9.091,40.382C209.239,52.902,209.336,53.584,209.453,54.309z"/>
	<path fill="#2E465B" d="M174.444,201.664c0-2.976-0.21-5.969,0.036-8.925c1.05-12.608,6.008-23.777,12.958-34.159
		c7.633-11.402,17.268-20.924,27.896-29.5c0.546-0.441,1.049-0.961,1.653-1.299c2.44-1.366,3.456-3.551,4.071-6.18
		c1.006-4.298,1.968-8.574,1.564-13.122c3.521-0.469,6.945-0.927,10.371-1.38c2.227-0.295,4.467-0.514,6.677-0.905
		c1.029-0.182,1.784,0.07,2.597,0.639c9.707,6.795,19.43,13.568,29.151,20.345c1.304,0.909,2.613,1.81,4.172,2.89
		c-18.463,3.177-36.892,5.556-53.778,13.738c0.004,0.165,0.008,0.329,0.012,0.494c6.859,3.256,13.719,6.511,20.675,9.813
		c-29.408,6.324-52.924,20.674-67.575,47.605C174.764,201.699,174.604,201.681,174.444,201.664z"/>
	<path fill="#2E465B" d="M134.295,141.598c-16.426-4.651-32.269-9.983-49.198-11.029c2.554-2.207,5.084-4.404,7.624-6.588
		c6.607-5.679,13.209-11.362,19.847-17.004c0.434-0.369,1.18-0.637,1.727-0.562c4.823,0.664,9.638,1.388,14.441,2.181
		c0.558,0.092,1.292,0.599,1.502,1.099c6.825,16.212,16.557,30.484,28.685,43.163c4.964,5.19,10.338,9.927,16.106,14.206
		c0.766,0.568,0.944,1.036,0.676,1.97c-1.224,4.274-2.347,8.576-3.513,12.866c-0.046,0.17-0.151,0.325-0.235,0.502
		c-18.168-9.163-35.98-18.967-55.494-25.402C122.288,151.97,128.111,146.941,134.295,141.598z"/>
	<path fill="#2E465B" d="M138.567,108.933c2.973,0.56,5.79,1.332,8.653,1.58c6.055,0.524,12.13,0.926,18.205,1.095
		c7.113,0.199,14.234,0.095,21.351,0.126c8.681,0.038,17.309-0.411,25.9-2.917c0.692,4.213-0.115,7.959-2.792,11.193
		c-2.905,3.509-6.966,4.721-11.271,5.349c-3.502,0.511-6.89,0.281-10.132-1.332c-2.508-1.247-4.703-2.938-5.93-5.398
		c-2.628-5.267-10.922-5.327-13.846-0.005c-2.671,4.863-7.374,7.055-12.952,6.94c-4.511-0.093-8.886-0.902-12.534-3.82
		C139.089,118.443,137.994,113.997,138.567,108.933z"/>
</g>
<g>
	<path fill="#9E9E9E" d="M357.065,180.679c-18.679,16.992-42.039,30.091-63.628,40.981c19.563-24.013-6.242-32.59-14.107-48.208
		c17.419-8.782,33.924-20.038,48.997-33.757c0.947,10.944,1.156,22.148,0.589,33.538
		C337.14,175.354,351.107,179.892,357.065,180.679z"/>
	<path fill="#9E9E9E" d="M32.356,139.696c15.071,13.718,31.584,24.975,48.999,33.757c-7.865,15.618-32.939,23.388-15.528,49.042
		C44.253,211.606,18.677,198.091,0,181.096c7.779-0.587,22.794-5.507,31.716-7.796C31.166,161.888,31.39,150.658,32.356,139.696z"/>
</g>
<g>
	<path fill="#827E80" d="M69.854,150c67.955,40.291,153.013,40.291,220.975,0c9.947,16.8,19.898,33.605,29.848,50.413
		c-86.316,51.174-194.351,51.174-280.665,0C49.959,183.604,59.907,166.8,69.854,150z"/>
</g>
<g>
	
		<linearGradient id="SVGID_1_" gradientUnits="userSpaceOnUse" x1="293.437" y1="28.963" x2="320.676" y2="28.963" gradientTransform="matrix(1 0 0 -1 0 240)">
		<stop  offset="0" style="stop-color:#555658"/>
		<stop  offset="1" style="stop-color:#5E5F61"/>
	</linearGradient>
	<path fill="url(#SVGID_1_)" d="M298.788,212.08c0,0,16.882-7.641,21.888-11.667l-27.239,21.248L298.788,212.08z"/>
	
		<linearGradient id="SVGID_2_" gradientUnits="userSpaceOnUse" x1="40.012" y1="28.546" x2="65.827" y2="28.546" gradientTransform="matrix(1 0 0 -1 0 240)">
		<stop  offset="0" style="stop-color:#555658"/>
		<stop  offset="1" style="stop-color:#5E5F61"/>
	</linearGradient>
	<path fill="url(#SVGID_2_)" d="M61.898,212.08c0,0-16.876-7.641-21.886-11.667l25.815,22.082L61.898,212.08z"/>
</g>
</svg>
