<?xml version="1.0" encoding="utf-8"?>
<!-- Generator: Adobe Illustrator 24.3.0, SVG Export Plug-In . SVG Version: 6.00 Build 0)  -->
<svg version="1.1" id="Layer_8" xmlns="http://www.w3.org/2000/svg" xmlns:xlink="http://www.w3.org/1999/xlink" x="0px" y="0px"
	 viewBox="0 0 250.611 249.672" enable-background="new 0 0 250.611 249.672" xml:space="preserve">
<g>
	<path fill="#CB1C5C" d="M125.254,124.372l12.286,63.809c-3.989,0.771-8.079,1.157-12.235,1.157c-4.173,0-8.297-0.385-12.319-1.173
		L125.254,124.372z"/>
	<path fill="#CB1C5C" d="M196.984,124.375c0,19.936-8.14,37.973-21.289,50.962c-12.944,12.799-30.745,20.712-50.392,20.712
		c-19.648,0-37.448-7.912-50.392-20.704c-13.141-12.997-21.282-31.034-21.282-50.97H0.005c0,34.743,14.145,66.186,36.992,88.882
		c22.65,22.513,53.851,36.415,88.304,36.415s65.662-13.902,88.312-36.415c22.847-22.696,36.992-54.139,36.992-88.882
		L196.984,124.375L196.984,124.375z"/>
	<path fill="#CB1C5C" d="M53.627,125.297c0-19.936,8.14-37.973,21.289-50.962c12.944-12.799,30.745-20.712,50.392-20.712
		c19.648,0,37.448,7.912,50.392,20.704c13.141,12.997,21.282,31.034,21.282,50.97h53.623c0-34.743-14.145-66.186-36.992-88.882
		C190.963,13.902,159.762,0,125.309,0S59.646,13.902,36.996,36.415C14.149,59.111,0.004,90.554,0.004,125.297H53.627z"/>
</g>
<g>
	<path fill="#E23464" d="M221.505,124.375h-24.521c0,19.936-8.14,37.973-21.289,50.962c-12.944,12.799-30.745,20.712-50.392,20.712
		c-19.648,0-37.448-7.912-50.392-20.704c-13.141-12.997-21.282-31.034-21.282-50.97H29.004c-0.015,16.36,4.117,32.941,12.885,48.128
		c26.582,46.041,85.455,61.816,131.496,35.234C204.238,189.924,221.472,157.61,221.505,124.375z"/>
	<path fill="#E23464" d="M29.106,125.297h24.521c0-19.936,8.14-37.973,21.289-50.962c12.944-12.799,30.745-20.712,50.392-20.712
		c19.648,0,37.448,7.912,50.392,20.704c13.141,12.997,21.282,31.034,21.282,50.97h24.624c0.015-16.36-4.117-32.941-12.885-48.128
		C182.14,31.127,123.267,15.353,77.225,41.935C46.373,59.747,29.139,92.062,29.106,125.297z"/>
</g>
<g>
	<path fill="#3E65DF" d="M125.254,124.372l32.499,56.3c-6.269,3.62-13.074,6.168-20.214,7.509L125.254,124.372z"/>
	<path fill="#3E65DF" d="M89.436,186.42l-26.817,46.445c-9.386-5.414-17.984-12.018-25.627-19.61C14.146,190.56,0,159.117,0,124.372
		h53.635c0,19.946,8.129,37.98,21.27,50.97C79.246,179.632,84.123,183.353,89.436,186.42z"/>
	<path fill="#3E65DF" d="M161.174,63.251l26.817-46.445c9.386,5.414,17.984,12.018,25.627,19.61
		c22.845,22.694,36.991,54.138,36.991,88.883h-53.635c0-19.946-8.129-37.98-21.27-50.97
		C171.365,70.039,166.487,66.318,161.174,63.251z"/>
</g>
<g>
	<path fill="#E3711A" d="M196.991,124.372h53.618c0,34.745-14.146,66.189-36.991,88.883c-7.66,7.609-16.292,14.23-25.694,19.661
		l-26.817-46.445c5.33-3.084,10.224-6.822,14.582-11.129C188.845,162.352,196.991,144.317,196.991,124.372z"/>
	<path fill="#E3711A" d="M53.619,125.3H0.001c0-34.745,14.146-66.189,36.991-88.883c7.66-7.609,16.292-14.23,25.695-19.661
		l26.817,46.445c-5.33,3.084-10.224,6.822-14.582,11.129C61.765,87.32,53.619,105.355,53.619,125.3z"/>
</g>
<g>
	<path fill="#262730" d="M111.125,75.379v25.627l13.023,21.538V99.532c-1.928-0.486-3.352-2.246-3.352-4.324
		c0-2.447,2.011-4.458,4.475-4.458c2.447,0,4.458,2.011,4.458,4.458c0,2.078-1.425,3.838-3.352,4.341v22.962L139.4,100.99V75.379
		H111.125z"/>
</g>
<g>
	<path fill="#F5B709" d="M125.254,124.372l-12.269,63.792c-7.14-1.358-13.962-3.905-20.214-7.526L125.254,124.372z"/>
	<path fill="#F5B709" d="M221.504,124.371h-24.513c0,19.946-8.146,37.98-21.303,50.97c-4.358,4.307-9.252,8.045-14.582,11.129
		l12.279,21.266C204.239,189.924,221.473,157.608,221.504,124.371z"/>
	<path fill="#F5B709" d="M29.106,125.3h24.513c0-19.946,8.146-37.98,21.303-50.97c4.358-4.307,9.252-8.045,14.582-11.129
		L77.225,41.935C46.372,59.748,29.138,92.064,29.106,125.3z"/>
</g>
<g>
	<path fill="#10A1F7" d="M53.635,124.371H29.004c-0.016,16.361,4.116,32.944,12.885,48.132c8.77,15.189,21.066,27.059,35.244,35.226
		l12.304-21.309c-5.313-3.067-10.191-6.788-14.532-11.079C61.764,162.352,53.635,144.317,53.635,124.371z"/>
	<path fill="#10A1F7" d="M196.976,125.3h24.631c0.016-16.361-4.116-32.944-12.885-48.132c-8.77-15.189-21.066-27.059-35.244-35.226
		l-12.304,21.309c5.313,3.067,10.191,6.788,14.532,11.079C188.847,87.32,196.976,105.355,196.976,125.3z"/>
</g>
</svg>
