<?xml version="1.0" encoding="utf-8"?>
<!-- Generator: Adobe Illustrator 24.3.0, SVG Export Plug-In . SVG Version: 6.00 Build 0)  -->
<svg version="1.1" id="Layer_6" xmlns="http://www.w3.org/2000/svg" xmlns:xlink="http://www.w3.org/1999/xlink" x="0px" y="0px"
	 viewBox="0 0 205.05 205.04" enable-background="new 0 0 205.05 205.04" xml:space="preserve">
<g>
	<path fill="#22225B" d="M67.66,93.77l5.81,4.19l-2.28-3.63l6.5,6.11c0,0-3.44,2.01-7.65-0.25S67.66,93.77,67.66,93.77z"/>
	<path fill="#22225B" d="M128.48,26.96c2.69,23.39-20.15,18.36-20.15,18.36c-2.32-10.89,8.55-24.61,8.55-24.61L98.32,8.72
		L79.75,20.71c0,0,10.87,13.72,8.55,24.61c0,0-22.84,5.03-20.15-18.36l-17.66,7.22c0,0,6.18,9.55,8.62,22.66
		c0,0,20.16-10.17,39.21,4.28c19.05-14.45,39.2-4.29,39.2-4.29c2.44-13.1,8.62-22.65,8.62-22.65L128.48,26.96z M61.71,49.24
		l-4.2-11.57l5.2-2.75C64.55,46.12,61.71,49.24,61.71,49.24z M98.32,45.92c-1.3-4.45-5.59-18.2-9.87-22.11L98.32,16l9.86,7.81
		C103.9,27.71,99.62,41.47,98.32,45.92z M134.93,49.24c0,0-2.85-3.12-1.02-14.32l5.2,2.75L134.93,49.24z"/>
	<path fill="#22225B" d="M115.66,166.64l6.61,5.39c-0.27-0.49-0.53-0.98-0.77-1.48c-0.25-0.51-0.48-1.01-0.7-1.53
		c-0.22-0.51-0.42-1.03-0.62-1.55c-0.19-0.53-0.37-1.06-0.54-1.59c-0.08-0.26-0.16-0.53-0.24-0.8c-0.08-0.26-0.15-0.53-0.22-0.8
		c-0.07-0.27-0.14-0.54-0.2-0.82c-0.32-1.35-0.55-2.73-0.69-4.11c-2.88-2.04-6.76-3.83-10.69-5.15c-5.6-1.89-11.66-1.89-17.26,0
		c-3.93,1.32-7.8,3.11-10.68,5.15c-0.13,1.26-0.34,2.51-0.61,3.74c-0.63,2.85-1.63,5.62-2.98,8.2c-0.13,0.25-0.26,0.49-0.39,0.74
		l3.17-2.89c0.95-0.76,1.83-1.5,2.65-2.2c-0.96,2.89-4.12,5.94-5.67,8.5c0.79,1.87,1.68,3.66,2.71,5.37
		c1.14,1.93,2.45,3.77,3.93,5.52c-0.01-4.17,1.02-7.73,3.17-11.3c0.12,4.08,1.48,8.12,3.88,11.43c1.35,1.87,3.01,3.48,4.65,5.09
		c1.6,1.57,3.2,3.14,4.8,4.71c1.61-1.57,3.2-3.14,4.81-4.71c1.64-1.61,3.3-3.22,4.64-5.09c2.4-3.31,3.77-7.35,3.88-11.43
		c2.15,3.57,3.19,7.13,3.17,11.3c0.37-0.44,0.73-0.88,1.08-1.33c0.34-0.44,0.68-0.9,1-1.35c0.28-0.39,0.55-0.78,0.8-1.17
		c0.24-0.35,0.46-0.7,0.68-1.06c0.09-0.13,0.18-0.27,0.25-0.41c0.05-0.07,0.09-0.13,0.13-0.2l-0.01-0.01
		c1.03-1.71,1.93-3.49,2.72-5.36C120.51,172.8,116.5,169.61,115.66,166.64z M115.66,166.64l6.61,5.39
		c-0.27-0.49-0.53-0.98-0.77-1.48c-0.25-0.51-0.48-1.01-0.7-1.53c-0.22-0.51-0.42-1.03-0.62-1.55c-0.19-0.53-0.37-1.06-0.54-1.59
		c-0.08-0.26-0.16-0.53-0.24-0.8c-0.08-0.26-0.15-0.53-0.22-0.8c-0.07-0.27-0.14-0.54-0.2-0.82c-0.32-1.35-0.55-2.73-0.69-4.11
		c-2.88-2.04-6.76-3.83-10.69-5.15c-5.6-1.89-11.66-1.89-17.26,0c-3.93,1.32-7.8,3.11-10.68,5.15c-0.13,1.26-0.34,2.51-0.61,3.74
		c-0.63,2.85-1.63,5.62-2.98,8.2c-0.13,0.25-0.26,0.49-0.39,0.74l3.17-2.89c0.95-0.76,1.83-1.5,2.65-2.2
		c-0.96,2.89-4.12,5.94-5.67,8.5c0.79,1.87,1.68,3.66,2.71,5.37c1.14,1.93,2.45,3.77,3.93,5.52c-0.01-4.17,1.02-7.73,3.17-11.3
		c0.12,4.08,1.48,8.12,3.88,11.43c1.35,1.87,3.01,3.48,4.65,5.09c1.6,1.57,3.2,3.14,4.8,4.71c1.61-1.57,3.2-3.14,4.81-4.71
		c1.64-1.61,3.3-3.22,4.64-5.09c2.4-3.31,3.77-7.35,3.88-11.43c2.15,3.57,3.19,7.13,3.17,11.3c0.37-0.44,0.73-0.88,1.08-1.33
		c0.34-0.44,0.68-0.9,1-1.35c0.28-0.39,0.55-0.78,0.8-1.17c0.24-0.35,0.46-0.7,0.68-1.06c0.09-0.13,0.18-0.27,0.25-0.41
		c0.05-0.07,0.09-0.13,0.13-0.2l-0.01-0.01c1.03-1.71,1.93-3.49,2.72-5.36C120.51,172.8,116.5,169.61,115.66,166.64z M115.66,166.64
		l6.61,5.39c-0.27-0.49-0.53-0.98-0.77-1.48c-0.25-0.51-0.48-1.01-0.7-1.53c-0.22-0.51-0.42-1.03-0.62-1.55
		c-0.19-0.53-0.37-1.06-0.54-1.59c-0.08-0.26-0.16-0.53-0.24-0.8c-0.08-0.26-0.15-0.53-0.22-0.8c-0.07-0.27-0.14-0.54-0.2-0.82
		c-0.32-1.35-0.55-2.73-0.69-4.11c-2.88-2.04-6.76-3.83-10.69-5.15c-5.6-1.89-11.66-1.89-17.26,0c-3.93,1.32-7.8,3.11-10.68,5.15
		c-0.13,1.26-0.34,2.51-0.61,3.74c-0.63,2.85-1.63,5.62-2.98,8.2c-0.13,0.25-0.26,0.49-0.39,0.74l3.17-2.89
		c0.95-0.76,1.83-1.5,2.65-2.2c-0.96,2.89-4.12,5.94-5.67,8.5c0.79,1.87,1.68,3.66,2.71,5.37c1.14,1.93,2.45,3.77,3.93,5.52
		c-0.01-4.17,1.02-7.73,3.17-11.3c0.12,4.08,1.48,8.12,3.88,11.43c1.35,1.87,3.01,3.48,4.65,5.09c1.6,1.57,3.2,3.14,4.8,4.71
		c1.61-1.57,3.2-3.14,4.81-4.71c1.64-1.61,3.3-3.22,4.64-5.09c2.4-3.31,3.77-7.35,3.88-11.43c2.15,3.57,3.19,7.13,3.17,11.3
		c0.37-0.44,0.73-0.88,1.08-1.33c0.34-0.44,0.68-0.9,1-1.35c0.28-0.39,0.55-0.78,0.8-1.17c0.24-0.35,0.46-0.7,0.68-1.06
		c0.09-0.13,0.18-0.27,0.25-0.41c0.05-0.07,0.09-0.13,0.13-0.2l-0.01-0.01c1.03-1.71,1.93-3.49,2.72-5.36
		C120.51,172.8,116.5,169.61,115.66,166.64z M115.66,166.64l6.61,5.39c-0.27-0.49-0.53-0.98-0.77-1.48
		c-0.25-0.51-0.48-1.01-0.7-1.53c-0.22-0.51-0.42-1.03-0.62-1.55c-0.19-0.53-0.37-1.06-0.54-1.59c-0.08-0.26-0.16-0.53-0.24-0.8
		c-0.08-0.26-0.15-0.53-0.22-0.8c-0.07-0.27-0.14-0.54-0.2-0.82c-0.32-1.35-0.55-2.73-0.69-4.11c-2.88-2.04-6.76-3.83-10.69-5.15
		c-5.6-1.89-11.66-1.89-17.26,0c-3.93,1.32-7.8,3.11-10.68,5.15c-0.13,1.26-0.34,2.51-0.61,3.74c-0.63,2.85-1.63,5.62-2.98,8.2
		c-0.13,0.25-0.26,0.49-0.39,0.74l3.17-2.89c0.95-0.76,1.83-1.5,2.65-2.2c-0.96,2.89-4.12,5.94-5.67,8.5
		c0.79,1.87,1.68,3.66,2.71,5.37c1.14,1.93,2.45,3.77,3.93,5.52c-0.01-4.17,1.02-7.73,3.17-11.3c0.12,4.08,1.48,8.12,3.88,11.43
		c1.35,1.87,3.01,3.48,4.65,5.09c1.6,1.57,3.2,3.14,4.8,4.71c1.61-1.57,3.2-3.14,4.81-4.71c1.64-1.61,3.3-3.22,4.64-5.09
		c2.4-3.31,3.77-7.35,3.88-11.43c2.15,3.57,3.19,7.13,3.17,11.3c0.37-0.44,0.73-0.88,1.08-1.33c0.34-0.44,0.68-0.9,1-1.35
		c0.28-0.39,0.55-0.78,0.8-1.17c0.24-0.35,0.46-0.7,0.68-1.06c0.09-0.13,0.18-0.27,0.25-0.41c0.05-0.07,0.09-0.13,0.13-0.2
		l-0.01-0.01c1.03-1.71,1.93-3.49,2.72-5.36C120.51,172.8,116.5,169.61,115.66,166.64z M102.52,0C45.99,0,0,45.99,0,102.52
		c0,56.53,45.99,102.52,102.52,102.52c56.53,0,102.53-45.99,102.53-102.52C205.05,45.99,159.05,0,102.52,0z M123.24,195.75
		c-0.92,0.21-1.85,0.4-2.78,0.57c-5.81,1.11-11.81,1.69-17.94,1.69s-12.13-0.58-17.94-1.69c-3.08-0.58-6.11-1.31-9.07-2.19
		c-39.59-11.65-68.48-48.25-68.48-91.61c0-52.74,42.75-95.49,95.49-95.49c52.74,0,95.49,42.75,95.49,95.49
		C198.01,148.14,166.02,186.29,123.24,195.75z M121.5,170.55c-0.25-0.51-0.48-1.01-0.7-1.53c-0.22-0.51-0.42-1.03-0.62-1.55
		c-0.19-0.53-0.37-1.06-0.54-1.59c-0.08-0.26-0.16-0.53-0.24-0.8c-0.08-0.26-0.15-0.53-0.22-0.8c-0.07-0.27-0.14-0.54-0.2-0.82
		c-0.32-1.35-0.55-2.73-0.69-4.11c-2.88-2.04-6.76-3.83-10.69-5.15c-5.6-1.89-11.66-1.89-17.26,0c-3.93,1.32-7.8,3.11-10.68,5.15
		c-0.13,1.26-0.34,2.51-0.61,3.74c-0.63,2.85-1.63,5.62-2.98,8.2c-0.13,0.25-0.26,0.49-0.39,0.74l3.17-2.89
		c0.95-0.76,1.83-1.5,2.65-2.2c-0.96,2.89-4.12,5.94-5.67,8.5c0.79,1.87,1.68,3.66,2.71,5.37c1.14,1.93,2.45,3.77,3.93,5.52
		c-0.01-4.17,1.02-7.73,3.17-11.3c0.12,4.08,1.48,8.12,3.88,11.43c1.35,1.87,3.01,3.48,4.65,5.09c1.6,1.57,3.2,3.14,4.8,4.71
		c1.61-1.57,3.2-3.14,4.81-4.71c1.64-1.61,3.3-3.22,4.64-5.09c2.4-3.31,3.77-7.35,3.88-11.43c2.15,3.57,3.19,7.13,3.17,11.3
		c0.37-0.44,0.73-0.88,1.08-1.33c0.34-0.44,0.68-0.9,1-1.35c0.28-0.39,0.55-0.78,0.8-1.17c0.24-0.35,0.46-0.7,0.68-1.06
		c0.09-0.13,0.18-0.27,0.25-0.41c0.05-0.07,0.09-0.13,0.13-0.2l-0.01-0.01c1.03-1.71,1.93-3.49,2.72-5.36
		c-1.61-2.64-5.62-5.83-6.46-8.8l6.61,5.39C122,171.54,121.74,171.05,121.5,170.55z M115.66,166.64l6.61,5.39
		c-0.27-0.49-0.53-0.98-0.77-1.48c-0.25-0.51-0.48-1.01-0.7-1.53c-0.22-0.51-0.42-1.03-0.62-1.55c-0.19-0.53-0.37-1.06-0.54-1.59
		c-0.08-0.26-0.16-0.53-0.24-0.8c-0.08-0.26-0.15-0.53-0.22-0.8c-0.07-0.27-0.14-0.54-0.2-0.82c-0.32-1.35-0.55-2.73-0.69-4.11
		c-2.88-2.04-6.76-3.83-10.69-5.15c-5.6-1.89-11.66-1.89-17.26,0c-3.93,1.32-7.8,3.11-10.68,5.15c-0.13,1.26-0.34,2.51-0.61,3.74
		c-0.63,2.85-1.63,5.62-2.98,8.2c-0.13,0.25-0.26,0.49-0.39,0.74l3.17-2.89c0.95-0.76,1.83-1.5,2.65-2.2
		c-0.96,2.89-4.12,5.94-5.67,8.5c0.79,1.87,1.68,3.66,2.71,5.37c1.14,1.93,2.45,3.77,3.93,5.52c-0.01-4.17,1.02-7.73,3.17-11.3
		c0.12,4.08,1.48,8.12,3.88,11.43c1.35,1.87,3.01,3.48,4.65,5.09c1.6,1.57,3.2,3.14,4.8,4.71c1.61-1.57,3.2-3.14,4.81-4.71
		c1.64-1.61,3.3-3.22,4.64-5.09c2.4-3.31,3.77-7.35,3.88-11.43c2.15,3.57,3.19,7.13,3.17,11.3c0.37-0.44,0.73-0.88,1.08-1.33
		c0.34-0.44,0.68-0.9,1-1.35c0.28-0.39,0.55-0.78,0.8-1.17c0.24-0.35,0.46-0.7,0.68-1.06c0.09-0.13,0.18-0.27,0.25-0.41
		c0.05-0.07,0.09-0.13,0.13-0.2l-0.01-0.01c1.03-1.71,1.93-3.49,2.72-5.36C120.51,172.8,116.5,169.61,115.66,166.64z M115.66,166.64
		l6.61,5.39c-0.27-0.49-0.53-0.98-0.77-1.48c-0.25-0.51-0.48-1.01-0.7-1.53c-0.22-0.51-0.42-1.03-0.62-1.55
		c-0.19-0.53-0.37-1.06-0.54-1.59c-0.08-0.26-0.16-0.53-0.24-0.8c-0.08-0.26-0.15-0.53-0.22-0.8c-0.07-0.27-0.14-0.54-0.2-0.82
		c-0.32-1.35-0.55-2.73-0.69-4.11c-2.88-2.04-6.76-3.83-10.69-5.15c-5.6-1.89-11.66-1.89-17.26,0c-3.93,1.32-7.8,3.11-10.68,5.15
		c-0.13,1.26-0.34,2.51-0.61,3.74c-0.63,2.85-1.63,5.62-2.98,8.2c-0.13,0.25-0.26,0.49-0.39,0.74l3.17-2.89
		c0.95-0.76,1.83-1.5,2.65-2.2c-0.96,2.89-4.12,5.94-5.67,8.5c0.79,1.87,1.68,3.66,2.71,5.37c1.14,1.93,2.45,3.77,3.93,5.52
		c-0.01-4.17,1.02-7.73,3.17-11.3c0.12,4.08,1.48,8.12,3.88,11.43c1.35,1.87,3.01,3.48,4.65,5.09c1.6,1.57,3.2,3.14,4.8,4.71
		c1.61-1.57,3.2-3.14,4.81-4.71c1.64-1.61,3.3-3.22,4.64-5.09c2.4-3.31,3.77-7.35,3.88-11.43c2.15,3.57,3.19,7.13,3.17,11.3
		c0.37-0.44,0.73-0.88,1.08-1.33c0.34-0.44,0.68-0.9,1-1.35c0.28-0.39,0.55-0.78,0.8-1.17c0.24-0.35,0.46-0.7,0.68-1.06
		c0.09-0.13,0.18-0.27,0.25-0.41c0.05-0.07,0.09-0.13,0.13-0.2l-0.01-0.01c1.03-1.71,1.93-3.49,2.72-5.36
		C120.51,172.8,116.5,169.61,115.66,166.64z"/>
	<path fill="#22225B" d="M148.63,101.89c-1.11-1.44-1.93-3.05-2.49-4.69c-1.12-3.21-1.25-6.5-0.68-8.78c0,0-0.18-1.45-1.09-3.61
		h-0.01c-0.87-2.11-2.45-4.87-5.25-7.59l-0.03-0.03c-0.14-0.15-0.29-0.29-0.45-0.43c-0.65-0.61-1.36-1.21-2.15-1.8
		c-2.15-1.62-4.82-3.14-8.12-4.41l5.86-3.06c0,0-0.31-0.28-0.91-0.7c-0.24-0.16-0.52-0.35-0.85-0.56c-0.16-0.1-0.33-0.2-0.52-0.31
		c-0.01,0-0.01-0.01-0.02-0.01c-2.33-1.35-6.33-3.08-11.6-3.08c-5.93,0-13.46,2.19-22,9.56v47.13c7.2-0.86,14.77-4.66,14.77-4.66
		s6.47,5.51,0.86,9.31c-2.86,1.93-7.01,2.94-9.84,5.66c-2.73,2.63-4.23,6.85-2.13,15.03c0,0,1.82,0.2,4.5,0.91
		c2.28,0.6,5.17,1.57,8.12,3.1c1.87,0.97,3.76,2.18,5.51,3.65c0.11,0.08,0.21,0.17,0.31,0.26l0.25-0.26l10.26-10.72
		c0,0,1.92-10.31-2.51-18.81c-0.67-1.29-1.5-2.55-2.5-3.72h0.01c0.08,0,0.52,0.01,1.23,0.21c0.31,0.09,0.67,0.22,1.07,0.4
		c0.91,0.41,2.01,1.09,3.21,2.23c0.13,0.12,0.27,0.26,0.4,0.4c1.21,1.24,2.49,2.96,3.72,5.33c0,0,5.63-11.38,13.69-12.98
		c0,0,0.11-0.37,0.26-1C150.1,111.46,151.25,105.29,148.63,101.89z M135.11,95.81c0,0-4.03,11.47-13.29,10.73l1.02,5.97
		c0,0-6.42-3.86-7.79-10.47c0,0-9.3,0.36-10.67-7.95c-0.02-0.11-0.04-0.21-0.05-0.32c0,0,10.55,6.38,18.43-2.2
		c1.67-1.82,3.85-3.09,6.28-3.51c3.9-0.66,9.16,0.08,11.38,7.75H135.11z"/>
	<path fill="#22225B" d="M115.66,166.64c0.84,2.97,4.85,6.16,6.46,8.8c-0.79,1.87-1.69,3.65-2.72,5.36
		c-0.03,0.07-0.07,0.14-0.12,0.21c-0.07,0.14-0.16,0.28-0.25,0.41c-0.22,0.36-0.44,0.71-0.68,1.06c-0.25,0.39-0.52,0.78-0.8,1.17
		c-0.32,0.45-0.66,0.91-1,1.35c-0.35,0.45-0.71,0.89-1.08,1.33c0.02-4.17-1.02-7.73-3.17-11.3c-0.11,4.08-1.48,8.12-3.88,11.43
		c-1.34,1.87-3,3.48-4.64,5.09c-1.61,1.57-3.2,3.14-4.81,4.71c-1.6-1.57-3.2-3.14-4.8-4.71c-1.64-1.61-3.3-3.22-4.65-5.09
		c-2.4-3.31-3.76-7.35-3.88-11.43c-2.15,3.57-3.18,7.13-3.17,11.3c-1.48-1.75-2.79-3.59-3.93-5.52c-1.03-1.71-1.92-3.5-2.71-5.37
		c1.55-2.56,4.71-5.61,5.67-8.5c0.03-0.1,0.05-0.19,0.08-0.29l-2.73,2.49l-3.17,2.89c0.13-0.25,0.26-0.49,0.39-0.74
		c1.35-2.58,2.35-5.35,2.98-8.2c0.27-1.23,0.48-2.48,0.61-3.74c2.88-2.04,6.75-3.83,10.68-5.15c5.6-1.89,11.66-1.89,17.26,0
		c3.93,1.32,7.81,3.11,10.69,5.15c0.14,1.38,0.37,2.76,0.69,4.11c0.06,0.28,0.13,0.55,0.2,0.82c0.07,0.27,0.14,0.54,0.22,0.8
		c0.08,0.27,0.16,0.54,0.24,0.8c0.17,0.53,0.35,1.06,0.54,1.59c0.2,0.52,0.4,1.04,0.62,1.55c0.22,0.52,0.45,1.02,0.7,1.53
		c0.24,0.5,0.5,0.99,0.77,1.48L115.66,166.64z"/>
	<path fill="#22225B" d="M77.69,100.44c0,0-3.44,2.01-7.65-0.25s-2.38-6.42-2.38-6.42l5.81,4.19l-2.28-3.63L77.69,100.44z"/>
	<path fill="#22225B" d="M128.971,93.775c0,0,1.83,4.158-2.378,6.418c-4.215,2.26-7.65,0.243-7.65,0.243l6.503-6.107l-2.288,3.627
		L128.971,93.775z"/>
	<path fill="#22225B" d="M128.48,26.96c2.69,23.39-20.15,18.36-20.15,18.36c-2.32-10.89,8.55-24.61,8.55-24.61L98.32,8.72V16
		l9.86,7.81c-4.28,3.9-8.56,17.66-9.86,22.11v15.2c19.05-14.45,39.2-4.29,39.2-4.29c2.44-13.1,8.62-22.65,8.62-22.65L128.48,26.96z
		 M134.93,49.24c0,0-2.85-3.12-1.02-14.32l5.2,2.75L134.93,49.24z"/>
	<path fill="#22225B" d="M128.42,122.99l-2.5-3.72C126.92,120.44,127.75,121.7,128.42,122.99z"/>
</g>
<g>
	<path fill="#053977" d="M70.7,119.27c-0.26,0-5.24,0.11-9.64,8.57c0,0-5.61-11.38-13.67-12.98c0,0-0.12-0.37-0.27-1
		c1.47-1.8,3.94-3.39,7.99-3.01C55.11,110.85,62.95,119.05,70.7,119.27z"/>
	<path fill="#053977" d="M57.51,77.21c2.5-2.43,5.96-4.82,10.76-6.66l-5.86-3.06c0,0,0.79-0.71,2.28-1.58
		c15.9-1.14,23.12,8.49,23.12,8.49C74.25,69.13,63.02,73.89,57.51,77.21z"/>
	<path fill="#053977" d="M92.52,129.83c2.73,2.63,4.23,6.85,2.14,15.03c0,0-1.82,0.2-4.51,0.91c-4.72-2.06-10.49-1.58-15.28,0.43
		c0.26-0.31,4.67-5.37,13.43-5.13c0,0-4.03-4.29-13.43-1.35c0.18-0.13,7.05-5.81,12.82-5.21c0,0-8.98-3.18-16.48-0.67
		C71.43,133.66,80.16,126.67,92.52,129.83z"/>
	<path fill="#053977" d="M92.25,94.09c0.02-0.11,0.04-0.21,0.05-0.32c0,0-10.54,6.38-18.43-2.2c-1.67-1.82-3.85-3.09-6.28-3.51
		c-3.9-0.66-9.15,0.08-11.38,7.75h5.31c-4.28,0.12-8.08,0.73-11.03,1.39c1.12-3.21,1.25-6.5,0.68-8.78c0,0,0.18-1.45,1.09-3.61
		c12.57-9.37,21.44,0.18,21.99,0.18c16.08,0,19.18,5.15,19.18,5.15C93.14,91.83,92.71,93.12,92.25,94.09z"/>
	<path fill="#053977" d="M98.32,8.72L79.75,20.71c0,0,10.87,13.72,8.55,24.61c0,0-22.84,5.03-20.15-18.36l-17.66,7.22
		c0,0,6.18,9.55,8.62,22.66c0,0,20.16-10.17,39.21,4.28v-15.2c-1.3-4.45-5.59-18.2-9.87-22.11L98.32,16V8.72z M61.71,49.24
		l-4.2-11.57l5.2-2.75C64.55,46.12,61.71,49.24,61.71,49.24z"/>
	<path fill="#053977" d="M135.11,95.81h5.31c-2.22-7.67-7.48-8.41-11.38-7.75c-2.43,0.42-4.61,1.69-6.28,3.51
		c-7.88,8.58-18.43,2.2-18.43,2.2c0.01,0.11,0.03,0.21,0.05,0.32c-0.45-0.97-0.88-2.26-1.18-3.95c0,0,3.1-5.15,19.17-5.15
		c0.57,0,9.43-9.54,21.99-0.18h0.01c0.91,2.16,1.09,3.61,1.09,3.61c-0.57,2.28-0.44,5.57,0.68,8.78
		C143.19,96.54,139.39,95.93,135.11,95.81z"/>
	<path fill="#053977" d="M149.51,113.86c-0.15,0.63-0.26,1-0.26,1c-8.06,1.6-13.69,12.98-13.69,12.98
		c-1.23-2.37-2.51-4.09-3.72-5.33c-0.13-0.14-0.27-0.28-0.4-0.4c-1.2-1.14-2.3-1.83-3.21-2.23c-0.4-0.18-0.76-0.31-1.07-0.4
		c-0.71-0.2-1.15-0.21-1.23-0.21c7.75-0.22,15.59-8.42,15.59-8.42C145.57,110.47,148.04,112.06,149.51,113.86z"/>
	<path fill="#053977" d="M108.33,141.07c8.76-0.24,13.17,4.82,13.43,5.13c-4.79-2.01-10.56-2.49-15.28-0.43
		c-2.68-0.71-4.5-0.91-4.5-0.91c-2.1-8.18-0.6-12.4,2.13-15.03c12.36-3.16,21.09,3.83,21.31,4.01c-7.51-2.51-16.48,0.67-16.48,0.67
		c5.78-0.6,12.64,5.08,12.82,5.21C112.36,136.78,108.33,141.07,108.33,141.07z"/>
	<path fill="#053977" d="M139.08,77.19c-5.51-3.32-16.72-8.05-30.26-2.79c0,0,7.21-9.62,23.1-8.49c0.01,0,0.01,0,0.02,0
		c0.19,0.11,0.36,0.21,0.52,0.32c0.33,0.2,0.61,0.39,0.85,0.56c0.6,0.42,0.91,0.7,0.91,0.7l-5.86,3.06c3.3,1.27,5.97,2.79,8.12,4.41
		c0.79,0.59,1.5,1.19,2.15,1.8C138.79,76.9,138.94,77.04,139.08,77.19z"/>
	<path fill="#053977" d="M85.64,175.03c-2.15,3.57-3.18,7.13-3.17,11.3c-1.48-1.75-2.79-3.59-3.93-5.52
		C80.29,178.48,82.63,176.24,85.64,175.03z"/>
	<path fill="#053977" d="M89.54,158.85c0,0-2.55,3.33-8.04,8.09c-0.82,0.7-1.7,1.44-2.65,2.2c-0.87,0.7-1.8,1.42-2.78,2.15
		c1.35-2.58,2.35-5.35,2.98-8.2C82.19,161.92,89.54,158.85,89.54,158.85z"/>
	<path fill="#053977" d="M119.41,180.81c-0.04,0.07-0.08,0.13-0.13,0.2c-0.07,0.14-0.16,0.28-0.25,0.41
		c-0.22,0.36-0.44,0.71-0.68,1.06c-0.25,0.39-0.52,0.78-0.8,1.17c-0.32,0.45-0.66,0.91-1,1.35c-0.35,0.45-0.71,0.89-1.08,1.33
		c0.02-4.17-1.02-7.73-3.17-11.3c3.01,1.21,5.34,3.44,7.1,5.77L119.41,180.81z"/>
	<path fill="#053977" d="M121.87,171.29c-0.98-0.73-1.9-1.45-2.77-2.15c-0.95-0.76-1.84-1.5-2.65-2.2c-5.5-4.76-8.04-8.09-8.04-8.09
		s7.35,3.07,10.48,4.24c0.03,0.12,0.06,0.25,0.09,0.37c0.06,0.28,0.13,0.55,0.2,0.82c0.07,0.27,0.14,0.54,0.22,0.8
		c0.07,0.27,0.15,0.53,0.24,0.8c0.16,0.54,0.34,1.07,0.54,1.59c0.19,0.52,0.4,1.04,0.62,1.55c0.22,0.52,0.45,1.03,0.7,1.53
		C121.62,170.8,121.74,171.05,121.87,171.29z"/>
</g>
</svg>
