<?xml version="1.0" encoding="utf-8"?>
<!-- Generator: Adobe Illustrator 24.3.0, SVG Export Plug-In . SVG Version: 6.00 Build 0)  -->
<svg version="1.1" id="Layer_1" xmlns="http://www.w3.org/2000/svg" xmlns:xlink="http://www.w3.org/1999/xlink" x="0px" y="0px"
	 viewBox="0 0 366 309" enable-background="new 0 0 366 309" xml:space="preserve">
<g>
	<path fill="#919191" d="M277.502,291.138c-25.145,19.609-53.555,21.276-82.115,11.704c-20.896-7.003-40.298-18.37-60.616-27.218
		c-21.527-9.374-43.006-19.081-65.193-26.618c-10.445-3.548-22.501-2.354-33.03-3.241c13.884-5.973,29.97-8.213,45.295-3.538
		c25.979,7.926,51.217,18.267,76.824,27.434c21.204,7.591,42.234,15.829,63.82,22.142
		C240.545,297.085,259.171,295.263,277.502,291.138z"/>
	<path fill="#919191" d="M274.829,116.859c-0.457,0.691-0.915,1.383-1.372,2.074c-4.617-3.014-9.174-6.125-13.864-9.027
		c-23.223-14.363-46.585-28.506-69.64-43.135c-4.735-3.007-7.868-2.94-12.558,0.035c-25.604,16.252-51.464,32.107-77.253,48.066
		c-2.113,1.306-4.376,2.368-7.56,2.018c30.263-24.354,60.526-48.712,91.138-73.349C214.31,68.161,244.57,92.512,274.829,116.859z"/>
	<path fill="#919191" d="M191.33,239.376c1.94,1.964,3.864,3.945,5.825,5.889c2.048,2.03,4.182,3.976,6.189,6.047
		c2.669,2.754,2.873,5.53,0.707,7.883c-1.869,2.031-5.787,1.922-8.373-0.401c-4.019-3.609-7.912-7.358-11.935-10.962
		c-0.792-0.71-1.931-1.032-2.91-1.533c0.564,1.006,0.926,2.225,1.726,2.981c3.246,3.068,6.635,5.985,9.954,8.977
		c2.439,2.198,2.156,4.059-0.8,5.464c-2.319,1.102-3.975,0.793-6.619-1.238c2.364-6.963-0.42-10.537-7.561-9.943
		c-1.918-7.343-4.783-8.988-12.343-7.086c-3.114-6.856-8.407-9.01-13.885-6.259c-2.142-2.298-3.829-4.882-6.192-6.445
		c-2.861-1.893-5.926-0.771-8.094,1.182c-6.255-3.734-12.274-7.327-18.615-11.112c6.303-13.781,12.772-27.925,19.325-42.254
		c1.569,0.835,2.942,1.413,4.149,2.235c3.997,2.723,8.133,2.604,12.507,1.038c7.614-2.726,15.262-5.364,22.927-7.946
		c4.326-1.457,7.515-1.226,11.785,0.854c-6.338,2.496-12.097,4.998-18.023,7.01c-3.464,1.176-6.05,3.081-8.053,6.04
		c-2.346,3.465-4.744,6.897-7.201,10.284c-1.807,2.492-4.127,4.817-1.995,8.215c1.531,2.439,6.816,4.239,10.082,3.399
		c5.586-1.437,9.654-5.201,13.268-9.351c1.917-2.201,4.034-2.546,6.678-3.052c8.164-1.562,13.741,1.658,19.002,7.671
		c7.654,8.747,16.092,16.806,24.132,25.218c1.397,1.462,2.606,3.145,3.676,4.867c1.314,2.114,1.264,4.287-0.67,6.085
		c-1.928,1.792-4.173,3.177-6.785,1.726c-2.079-1.155-4.097-2.603-5.752-4.3c-4.547-4.664-8.887-9.528-13.313-14.31
		c-0.442-0.478-0.836-1.067-1.383-1.365c-0.78-0.425-1.681-0.628-2.531-0.926c0.311,0.792,0.427,1.762,0.963,2.348
		c4.841,5.289,9.789,10.48,14.637,15.762c2.887,3.146,3.198,6.601,0.983,9.008c-2.551,2.772-6.645,3.237-9.813,0.504
		c-4.361-3.762-8.347-7.957-12.546-11.912c-0.663-0.624-1.602-0.956-2.413-1.424C191.805,238.62,191.567,238.998,191.33,239.376z"/>
	<path fill="#919191" d="M243.256,179.172c1.261,5.682,2.529,11.27,3.738,16.87c1.725,7.985,3.392,15.982,5.121,23.966
		c0.302,1.395,0.555,2.696-1.4,2.861c-5.901,0.499-10.916,2.802-14.97,7.155c-0.311,0.334-0.802,0.497-1.12,0.826
		c-2.12,2.194-3.568,1.608-5.605-0.543c-10.103-10.67-20.457-21.102-30.643-31.695c-1.998-2.078-4.124-2.713-6.963-2.399
		c-3.592,0.397-7.255,0.136-10.857,0.475c-1.293,0.122-2.675,0.952-3.712,1.822c-3.542,2.97-6.84,6.239-10.468,9.093
		c-1.188,0.934-3.188,1.496-4.655,1.252c-1.951-0.325-4.14-1.246-5.407-2.65c-0.502-0.556,0.981-3.239,1.939-4.707
		c2.329-3.572,4.716-7.133,7.409-10.429c1.408-1.723,3.32-3.31,5.338-4.205c5.507-2.443,11.212-4.436,16.801-6.699
		c5.67-2.297,11.399-1.892,17.255-0.884c6.011,1.035,12.083,2.381,18.128,2.375c6.165-0.007,12.328-1.495,18.492-2.33
		C242.118,179.267,242.562,179.239,243.256,179.172z"/>
	<path fill="#919191" d="M153.825,254.806c-3.833-0.08-7.75-3.548-8.146-6.604c-0.069-0.532-0.047-1.12,0.108-1.629
		c1.447-4.75,9.567-7.943,13.951-5.51c3.534,1.961,4.171,4.608,1.594,7.73c-1.523,1.846-3.334,3.482-5.173,5.026
		C155.373,254.479,154.186,254.663,153.825,254.806z"/>
	<path fill="#919191" d="M175.395,252.756c-0.175,0.345-0.549,1.373-1.161,2.231c-1.072,1.502-2.237,2.946-3.456,4.334
		c-2.9,3.3-8.715,3.086-11.224-0.551c-0.649-0.941-0.894-2.515-0.649-3.652c0.683-3.161,6.949-8.324,10.125-8.663
		C172.871,246.045,175.325,248.18,175.395,252.756z"/>
	<path fill="#919191" d="M142.056,233.773c3.399,0.022,6.411,2.728,6.345,5.699c-0.051,2.285-4.206,6.275-6.593,6.331
		c-2.741,0.064-6.761-3.561-6.676-6.02C135.236,236.818,138.768,233.752,142.056,233.773z"/>
	<path fill="#919191" d="M184.137,257.197c0.07,4.113-1.818,6.912-4.79,8.248c-2.945,1.324-5.219-0.148-7.273-1.928
		c-0.499-0.432-0.731-1.998-0.359-2.465c1.663-2.091,3.37-4.28,5.507-5.809c1.156-0.827,3.333-0.825,4.818-0.395
		C183.112,255.158,183.801,256.789,184.137,257.197z"/>
</g>
<g>
	<path fill="#A26127" d="M71.54,162.705h0.918h21.86v58.406c-21.616-5.754-43.615-3.739-63.407,9.196
		c-0.588-1.011-1.169-2.015-1.757-3.026c9.962-5.906,20.506-10.999,30.012-17.427c9.255-6.269,6.553-12.182,6.395-20.698
		c-0.139-7.776-6.276-5.305-10.412-5.364c-16.793-0.238-33.593-0.099-53.062-0.099c8.469-7.029,16.899-14.019,25.309-20.988H71.54z"
		/>
	<path fill="#A26127" d="M339.843,162.5c8.482,7.029,17.011,14.091,25.58,21.193h-15.386c-13.503,0-27.02-0.337-40.497,0.291
		c-2.722,0.126-7.465,3.832-7.551,6.032c-0.654,16.139-0.357,32.318-0.357,50.03c20.149-5.886,33.329-18.669,44.764-34.161
		c-0.37,35.912-35.106,68.435-71.804,71.335l-0.945-49.574V162.5h22.798H339.843z"/>
	<path fill="#A26127" d="M202.125,97.14v4.957h-17.262V83.914h4.036C196.203,83.914,202.125,89.836,202.125,97.14z"/>
	<path fill="#A26127" d="M180.888,84.148v17.911h-17.485v-4.685c0-7.305,5.922-13.226,13.226-13.226H180.888z"/>
	<rect x="163.34" y="105.521" fill="#A26127" width="18.177" height="16.912"/>
	<rect x="184.668" y="105.27" fill="#A26127" width="17.454" height="17.021"/>
	<path fill="#A26127" d="M135.961,177.877c-7.186,15.721-14.339,31.374-21.57,47.19c-4.368-1.806-8.59-3.551-13.075-5.414
		l-0.386-0.157c-0.475-0.201-0.956-0.397-1.437-0.598c0,0.006,0,0.006,0,0.011l-0.252-0.101v-56.412l2.332,0.967l0.011,0.006
		c0.291,0.168,0.626,0.319,0.99,0.464c1.868,0.744,3.725,1.499,5.587,2.265C117.315,169.857,126.453,173.845,135.961,177.877z"/>
	<path fill="#A26127" d="M267.861,163.993v56.169c-0.823,0.502-1.65,1.004-2.473,1.505c-1.719,1.043-3.43,2.072-5.152,3.097
		c-0.335,0.201-0.644,0.398-0.903,0.606l-0.008,0.007l-2.145,1.312l-10.975-50.183l0.232-0.14c0,0.007,0,0.007,0.004,0.011
		c0.442-0.272,0.884-0.541,1.322-0.81l0.354-0.215c1.547-0.946,3.06-1.871,4.561-2.789l4.477-2.731l0,0
		c1.996-1.218,4.035-2.369,6.113-3.45L267.861,163.993z"/>
	<path fill="#A26127" d="M299.868,129.039h39.46C286.543,85.299,235.225,42.767,183.702,0.064
		C132.015,42.919,80.67,85.497,28.163,129.039h40.609l1.638-1.572c-0.013-0.026-0.026-0.053-0.04-0.079
		c0.41-0.35,0.813-0.694,1.222-1.044l0.026-0.026c4.915-4.215,9.771-8.509,14.811-12.572c30.468-24.549,60.917-49.118,91.636-73.35
		c2.292-1.804,7.961-2.629,9.863-1.13c35.707,28.229,71.084,56.88,106.5,85.479L299.868,129.039z"/>
</g>
</svg>
