<?xml version="1.0" encoding="utf-8"?>
<!-- Generator: Adobe Illustrator 24.3.0, SVG Export Plug-In . SVG Version: 6.00 Build 0)  -->
<svg version="1.1" id="Layer_1" xmlns="http://www.w3.org/2000/svg" xmlns:xlink="http://www.w3.org/1999/xlink" x="0px" y="0px"
	 viewBox="0 0 287.127 286.765" enable-background="new 0 0 287.127 286.765" xml:space="preserve">
<g>
	<linearGradient id="SVGID_1_" gradientUnits="userSpaceOnUse" x1="-9.4055" y1="9.1647" x2="292.9945" y2="274.0374">
		<stop  offset="0" style="stop-color:#00AEEF"/>
		<stop  offset="1" style="stop-color:#DA1C5C"/>
	</linearGradient>
	<path fill="url(#SVGID_1_)" d="M143.551,9.412c-44.39,44.42-89.21,89.26-133.68,133.75c44.47,44.48,89.3,89.32,133.57,133.61
		c44.55-44.48,89.5-89.35,133.87-133.66C232.841,98.662,188.001,53.832,143.551,9.412z M62.941,118.522
		c7.84-0.09,14.49,6.52,14.56,14.46c0.07,7.62-6.54,14.37-14.24,14.54c-7.95,0.17-14.68-6.53-14.7-14.65
		C48.531,125.232,55.181,118.602,62.941,118.522z M114.541,201.612c-32.76-9.42-59.83-30.36-73.71-47.66
		c5.41,1.67,10.61,3.47,15.91,4.84c5.01,1.29,10.14,1.42,15.22,0.17c8.94-2.2,14.05-8.36,16.85-16.68
		c3.03-9.03,3.29-18.37,2.57-27.77c-0.26-3.29-0.59-6.58-0.31-10.03c0.37,0.62,0.8,1.22,1.11,1.88
		c11.45,24.71,26.05,47.29,45.5,66.5c15.04,14.86,32.2,26.26,53.01,31.44c0.37,0.1,0.74,0.27,1.08,0.46
		c0.14,0.08,0.21,0.3,0.53,0.78C165.911,210.812,140.091,208.952,114.541,201.612z M224.591,167.082c-8-0.06-13.87-6.05-13.85-14.13
		c0.02-7.88,6.34-14.31,13.96-14.21c7.78,0.1,14.25,6.51,14.27,14.14C238.991,160.682,232.451,167.132,224.591,167.082z
		 M223.911,126.302c-14.79-1.26-23.1,8.13-26.15,20.9c-2.51,10.52-2.04,21.13-0.89,31.75c0.07,0.64,0.1,1.29-0.37,2.13
		c-0.56-1.1-1.14-2.18-1.66-3.3c-10.43-22.32-23.81-42.66-40.76-60.59c-14.36-15.21-30.79-27.32-50.87-33.95
		c-2.32-0.76-4.68-1.4-6.98-2.45c22.6-4.83,45.11-3.88,67.51,1.16c37.46,8.44,66.72,30.56,82.61,49.96
		c-2.51-0.98-4.6-2.11-6.83-2.62C234.351,128.102,229.161,126.752,223.911,126.302z"/>
	<linearGradient id="SVGID_2_" gradientUnits="userSpaceOnUse" x1="-95.4195" y1="107.3652" x2="206.9805" y2="372.2379">
		<stop  offset="0" style="stop-color:#00AEEF"/>
		<stop  offset="1" style="stop-color:#DA1C5C"/>
	</linearGradient>
	<path fill="url(#SVGID_2_)" d="M0.193,171.974c8.454,55.381,60.086,106.104,114.003,114.457c0.331-0.372,0.661-0.743,0.992-1.115
		C77.217,247.175,39.246,209.034,1.275,170.893C0.914,171.253,0.553,171.614,0.193,171.974z"/>
	<linearGradient id="SVGID_3_" gradientUnits="userSpaceOnUse" x1="-14.9536" y1="15.4989" x2="287.4464" y2="280.3716">
		<stop  offset="0" style="stop-color:#00AEEF"/>
		<stop  offset="1" style="stop-color:#DA1C5C"/>
	</linearGradient>
	<path fill="url(#SVGID_3_)" d="M173.563,286.765c31.973-6.549,58.82-22.785,80.575-47.493c17.491-19.865,33.898-54.6,32.629-65.64
		C249.53,210.846,211.543,248.81,173.563,286.765z"/>
	<linearGradient id="SVGID_4_" gradientUnits="userSpaceOnUse" x1="-4.272" y1="3.3039" x2="298.128" y2="268.1767">
		<stop  offset="0" style="stop-color:#00AEEF"/>
		<stop  offset="1" style="stop-color:#DA1C5C"/>
	</linearGradient>
	<path fill="url(#SVGID_4_)" d="M48.496,31.66C23.142,53.768,6.401,81.015,0,113.002C37.495,75.52,75.561,37.468,112.987,0.055
		C101.867-1.064,67.426,15.153,48.496,31.66z"/>
	<linearGradient id="SVGID_5_" gradientUnits="userSpaceOnUse" x1="76.4835" y1="-88.8931" x2="378.8835" y2="175.9796">
		<stop  offset="0" style="stop-color:#00AEEF"/>
		<stop  offset="1" style="stop-color:#DA1C5C"/>
	</linearGradient>
	<path fill="url(#SVGID_5_)" d="M287.127,114.118C276.254,52.008,219.868,6.221,171.878,0.939
		c37.94,38.203,75.88,76.405,113.82,114.608C286.175,115.071,286.651,114.594,287.127,114.118z"/>
</g>
</svg>
