<?xml version="1.0" encoding="utf-8"?>
<!-- Generator: Adobe Illustrator 24.3.0, SVG Export Plug-In . SVG Version: 6.00 Build 0)  -->
<svg version="1.1" id="Layer_1" xmlns="http://www.w3.org/2000/svg" xmlns:xlink="http://www.w3.org/1999/xlink" x="0px" y="0px"
	 viewBox="0 0 938.025 856.479" enable-background="new 0 0 938.025 856.479" xml:space="preserve">
<g>
	<path fill="#3A4E50" d="M727.228,501.405h-15.02v-19.017c-0.114-11.479-4.683-18.332-16.048-18.047H578.685h-21.759H439.45
		c-11.365-0.285-15.934,6.568-16.048,18.047v19.017h-15.02c-11.308-0.457-17.704,7.596-20.046,20.046v53.112h168.589h21.759h168.589
		v-53.112C744.932,509.001,738.536,500.948,727.228,501.405z"/>
	<path fill="#3A4E50" d="M487.353,152.891L380.255,259.282L490.8,369.87l107.098-106.435L487.353,152.891z M489.076,345.614
		l-85.625-85.625l85.625-85.625l85.625,85.625L489.076,345.614z"/>
	<path fill="#3A4E50" d="M347.682,242.202c6.473,6.473,16.989,6.486,23.487,0.03l101.32-100.671
		c6.427-6.386,6.447-16.752,0.045-23.154l-1.18-1.18c-5.955-5.955-14.706-5.374-22.069-1.261
		c-33.156,18.52-77.313,61.819-103.599,103.088c-4.581,7.192-4.983,16.168,1.047,22.198L347.682,242.202z"/>
	<path fill="#3A4E50" d="M633.628,279.494l-1.18-1.181c-6.402-6.402-16.802-6.415-23.229-0.029l-101.32,100.67
		c-6.498,6.456-6.519,16.938-0.045,23.411l0.949,0.948c6.03,6.03,15.037,5.658,22.268,1.115
		c41.487-26.07,85.067-69.945,103.754-102.934C638.972,294.169,639.583,285.448,633.628,279.494z"/>
	<path fill="#3A4E50" d="M405.155,311.568l-215.934,190.14c-8.138,7.344-12.906,17.688-13.19,28.624
		c-0.234,8.963,2.56,17.683,7.841,24.802c1.862,1.381,2.698,3.721,4.756,4.755c1.031,2.054,3.376,2.896,4.756,4.755
		c7.125,5.287,15.863,8.1,24.857,7.896c10.972-0.249,21.366-4.968,28.759-13.057l191.446-214.626l-16.38-16.909L405.155,311.568z"/>
	
		<rect x="435.82" y="206.733" transform="matrix(0.7071 -0.7071 0.7071 0.7071 -40.5928 421.9782)" fill="#3A4E50" width="106.512" height="106.512"/>
</g>
<g>
	<path fill="#676767" d="M289.77,20.253c0,0-5.356,2.135-13.227,5.719c-7.634,4.022-18.101,8.973-28.166,14.668
		c-9.788,6.119-20.03,11.69-27.052,16.823c-7.109,5.034-11.848,8.39-11.848,8.39c-0.091-4.898,2.196-12.871,7.31-21.465
		c5.366-8.189,13.821-16.721,24.916-22.815c26.744-13.622,62.568-12.164,63.673-8.717c1.251,3.731-20.046,30.115-41.097,45.604
		c-8.984,7.071-19.057,10.762-28.199,12.604c-8.841,2.211-16.93,2.269-21.691,0.985c0,0,4.359-3.686,10.897-9.217
		c6.469-5.646,16.016-11.942,25.189-18.843c9.446-6.472,19.372-12.257,26.641-16.924C284.621,22.837,289.77,20.253,289.77,20.253z"
		/>
	<path fill="#676767" d="M172.156,95.509c4.192-1.552,10.607-5.546,16.985-11.649c6.278-6.238,12.292-14.855,16.847-25
		c9.457-24.429,14.857-56.662,11.721-58.753c-1.524-0.863-9.954,3.554-20.139,11.063c-9.776,8.02-21.281,19.171-28.425,31.408
		c-6.068,10.648-8.468,21.386-8.625,30.296c0.113,9.216,2.292,16.508,4.779,20.286c0,0,1.927-5.122,5.287-12.63
		c3.702-7.442,8.638-17.364,13.574-27.286c5.479-9.667,11.421-19.316,15.935-26.722c2.212-3.76,4.292-6.636,5.742-8.674
		c1.451-2.049,2.28-3.221,2.28-3.221s-3.097,4.718-6.995,12.396c-3.911,7.672-8.919,17.78-13.606,27.66
		c-4.316,10.357-8.253,20.558-11.103,28.051c-1.479,3.698-2.503,6.929-3.173,9.224C172.55,94.217,172.156,95.509,172.156,95.509z"/>
	<path fill="#676767" d="M260.268,90.277c0,0-1.197,0.177-3.292,0.488c-2.106,0.305-5.151,0.719-8.606,1.574
		c-6.987,1.588-16.589,3.677-26.298,6.174c-9.571,3.062-19.142,6.123-26.32,8.419c-7.15,2.614-11.821,4.666-11.821,4.666
		c3.748,2.476,10.821,4.716,19.111,5.491c8.582,1.055,18.465,0.824,27.801-2.323c10.982-3.535,22.047-9.033,30.081-14.45
		c8.416-4.87,13.889-9.705,13.596-11.387c-0.315-1.669-7.353-5.457-17.727-8.51c-10.5-3.285-23.949-4.998-36.439-3.295
		c-10.961,1.149-19.973,6.217-26.69,11.738c-6.844,5.408-11.145,11.501-12.27,15.926c0,0,1.23-0.386,3.385-1.063
		c2.12-0.7,5.194-1.63,9.048-2.492c7.614-1.835,17.55-4.168,27.24-6.185c9.833-1.384,19.667-2.768,27.042-3.806
		C255.284,90.321,260.268,90.277,260.268,90.277z"/>
	<path fill="#676767" d="M119.606,158.877c8.449-4.249,21.523-20.637,26.234-42.424c2.223-13.15,3.371-27.226,3.092-39.02
		c-0.206-11.683-1.461-20.511-3.096-20.997c-3.23-1.234-29.912,24.247-39.344,51.144c-7.766,23.421-0.593,43.872,5.946,50.327
		c0,0,1.005-5.321,3.016-13.227c2.116-7.81,4.294-18.994,8.005-29.407c3.58-10.482,7.02-21.553,10.339-29.395
		c3.366-7.911,5.61-13.185,5.61-13.185s-1.795,5.399-4.487,13.496c-2.704,7.958-5.198,19.255-7.851,29.878
		c-2.808,10.54-4.176,21.71-5.513,29.617C120.386,153.6,119.606,158.877,119.606,158.877z"/>
	<path fill="#676767" d="M205.226,136.808c0,0-4.53,1.718-11.323,4.294c-6.874,2.615-15.371,6.981-24.487,11.247
		c-9.224,4.171-17.374,9.608-24.162,13.358c-6.677,3.836-10.967,6.678-10.967,6.678c8.206,3.224,29.771,3.786,46.708-5.925
		c20.252-11.049,38.955-30.569,37.794-33.901c-0.681-1.625-8.256-3.908-18.923-4.789c-10.545-0.813-24.802-0.553-36.399,3.822
		c-20.925,6.788-31.855,26.106-33.002,34.6c0,0,4.702-2.292,11.755-5.73c7.107-3.277,15.882-7.887,25.577-11.285
		c9.568-3.511,18.436-7.122,25.654-9.082C200.516,138.123,205.226,136.808,205.226,136.808z"/>
	<path fill="#676767" d="M80.711,231.436c3.557-2.916,7.871-9.102,11.018-17.37c3.642-8.048,6.362-18.085,6.12-29.523
		c0.159-13.013-1.888-27.326-4.513-38.887c-2.469-11.422-4.968-19.543-6.815-19.805c-1.761-0.234-8.278,6.776-14.277,17.97
		c-3.095,5.522-6.288,11.918-9.033,18.646c-2.367,6.948-4.311,14.212-5.393,21.187c-2.102,11.899,0.282,22.989,3.72,31.378
		c3.443,8.41,8.135,14.277,11.849,16.809c0,0,0.127-5.439,0.316-13.599c0.151-4.155,0.328-9.001,0.517-14.195
		c0.533-5.167,1.099-10.677,1.667-16.189c0.645-5.631,1.288-11.263,1.892-16.542c0.948-5.225,1.833-10.101,2.591-14.28
		c1.653-8.493,2.754-14.154,2.754-14.154s-0.64,5.695-1.599,14.236c-0.416,4.186-0.902,9.069-1.423,14.301
		c-0.174,5.266-0.359,10.883-0.546,16.501c-0.307,11.099-0.437,21.844,0.28,30.094C80.361,226.068,80.711,231.436,80.711,231.436z"
		/>
	<path fill="#676767" d="M160.119,193.025c0,0-4.03,2.611-10.074,6.526c-3.069,2.037-6.648,4.413-10.483,6.959
		c-3.635,2.802-7.512,5.792-11.388,8.781c-3.954,3.111-7.907,6.22-11.613,9.135c-3.487,3.158-6.742,6.105-9.531,8.631
		c-5.632,5.231-9.389,8.719-9.389,8.719c9.217,1.794,29.214-2.427,44.709-14.86c4.502-3.672,8.599-7.927,12.175-12.31
		c3.959-4.168,7.425-8.448,10.21-12.423c5.361-8.074,8.99-14.355,8.102-15.783c-0.832-1.36-9.146-2.433-19.777-1.233
		c-10.434,1.285-23.92,4.581-34.979,10.804c-9.102,5.55-15.944,13.446-20.265,20.999c-3.841,7.801-5.399,15.119-5.025,19.52
		c0,0,4.078-3.204,10.194-8.007c5.842-4.83,14.514-10.581,22.959-16.001c4.173-2.651,8.345-5.301,12.255-7.785
		c4.099-2.215,7.923-4.281,11.202-6.052C155.832,195.273,160.119,193.025,160.119,193.025z"/>
	<path fill="#676767" d="M56.606,310.127c5.324-7.346,12.181-27.252,7.708-49.302c-5.343-25.481-19.162-55.5-22.639-55.398
		c-1.663,0.158-6.644,8.35-10.695,20.355c-3.448,12.206-7.557,27.64-6.219,41.966c1.071,24.48,16.505,40.809,24.816,44.228
		c0,0-1.059-5.382-2.65-13.455c-1.32-8.096-2.445-18.964-3.717-30.216c-1.338-11.258-1.149-22.405-1.554-31.098
		c-0.099-4.345-0.181-7.965-0.239-10.499c0.081-2.508,0.128-3.941,0.128-3.941s0.066,1.42,0.184,3.903
		c0.257,2.508,0.625,6.089,1.065,10.387c1.042,8.576,1.938,19.606,3.993,30.579c2.117,11.014,4.366,21.654,6.096,29.457
		C55.116,304.913,56.606,310.127,56.606,310.127z"/>
	<path fill="#676767" d="M126.848,256.911c0,0-0.902,0.807-2.481,2.22c-1.466,1.485-3.559,3.607-6.071,6.153
		c-4.869,5.199-12.286,12.064-18.438,19.682c-6.204,7.577-12.797,15.415-17.345,21.548c-4.323,6.27-7.204,10.45-7.204,10.45
		c9.016-0.136,28.186-8.082,40.822-23.35c6.672-9.177,13.532-19.622,16.958-28.661c4.031-8.807,6.31-15.697,5.052-16.967
		c-2.221-2.581-32.765,3.08-51.749,20.085c-16.242,14.382-19.999,36.186-16.949,44.645c0,0,3.277-3.959,8.193-9.897
		c5.305-5.503,12.378-12.843,19.451-20.181c7.052-7.035,14.979-13.383,20.391-18.12c2.758-2.319,5.056-4.25,6.665-5.602
		C125.865,257.64,126.848,256.911,126.848,256.911z"/>
	<path fill="#676767" d="M48.096,392c4.734-8.219,6.305-29.123-1.758-49.842c-5.394-12.16-12.544-24.544-19.11-34.171
		c-6.601-9.598-12.504-16.245-14.192-15.752c-1.68,0.467-4.438,9.571-6.226,22.114c-2.076,12.482-1.008,28.657,1.816,42.298
		c6.659,23.771,23.976,36.783,32.919,38.522c0,0-8.013-19.981-14.521-41.558c-2.886-10.712-5.891-21.789-7.804-30.204
		c-1.54-8.446-2.566-14.075-2.566-14.075s1.471,5.483,3.676,13.71c2.487,8.169,6.407,18.909,10.144,29.222
		c3.453,10.321,8.702,20.37,11.914,27.682C45.812,387.179,48.096,392,48.096,392z"/>
	<path fill="#676767" d="M106.995,326.097c0,0-2.847,3.931-7.119,9.83c-3.945,6.035-8.87,14.344-14.04,22.962
		c-9.606,17.201-18.08,36.193-18.08,36.193c8.694-1.873,26.943-13.384,35.532-30.902c6.037-10.175,8.651-22.051,11.329-31.429
		c2.393-9.406,2.759-16.707,1.357-17.692c-1.411-0.96-9.017,1.331-18.432,6.504c-9.434,5.137-20.857,13.307-28.134,23.383
		c-13.752,17.258-11.912,39.411-8.215,47.106c0,0,2.635-4.518,6.589-11.296c4.158-6.667,8.714-15.402,14.955-23.604
		c5.965-8.24,11.614-16.132,16.212-21.813C103.777,329.794,106.995,326.097,106.995,326.097z"/>
	<path fill="#676767" d="M55.88,473.966c1.446-4.414,1.796-11.985,0.055-20.647c-1.802-8.673-5.785-18.451-11.386-27.915
		c-6.979-10.927-17.026-21.671-25.688-29.821c-8.302-8.119-14.963-13.479-16.623-12.672c-3.879,1.39-3.617,38.243,8.126,63.944
		c11.208,22.079,30.653,31.501,39.564,31.518c0,0-11.124-18.147-22.39-38.004c-9.548-19.847-18.66-41.429-18.66-41.429
		s10.837,20.706,21.712,39.453C43.283,457.168,55.88,473.966,55.88,473.966z"/>
	<path fill="#676767" d="M100.756,397.912c0,0-7.392,17.329-14.49,36.321c-5.392,18.633-10.641,38.979-10.641,38.979
		c8.365-3.568,24.112-18.378,29.08-37.182c7.103-22.109,5.394-49.177,2.941-50.705c-1.47-0.67-8.908,3.064-17.176,9.967
		c-7.903,6.869-16.892,17.078-22.748,28.403c-5.438,9.754-6.074,20.032-5.111,28.668c0.903,8.659,3.475,15.646,6.125,19.12
		c0,0,6.888-20.152,14.077-38.35C91.804,414.544,100.756,397.912,100.756,397.912z"/>
	<path fill="#676767" d="M79.383,552.867c0.545-4.609-0.611-12.097-4.033-20.243c-1.713-4.08-3.997-8.335-6.937-12.537
		c-2.772-4.256-5.692-8.62-9.643-12.634c-8.98-9.359-21.149-17.908-31.046-24.273c-9.382-6.433-17.144-10.376-18.554-9.273
		c-1.072,1.01-1.68,10.765,2.407,22.839c3.816,12.092,9.29,27.127,17.789,38.463c15.365,19.456,36.306,24.878,45.051,23.146
		c0,0-14.528-15.595-29.463-32.871c-13.102-17.668-26.467-37.052-26.467-37.052s14.766,18.224,29.182,34.483
		C63.563,538.92,79.383,552.867,79.383,552.867z"/>
	<path fill="#676767" d="M108.423,469.612c0,0-3.67,18.326-7.075,38.368c-1.645,19.318-2.744,40.273-2.744,40.273
		c7.499-5.138,20.015-22.735,21.164-42.114c1.02-11.489,0.603-23.891-1.478-33.335c-2.332-9.391-3.257-16.594-5.232-16.907
		c-1.633-0.358-8.022,4.692-15.135,13.125c-6.609,8.293-13.223,19.993-16.756,32.236c-1.437,5.224-2.318,10.549-2.103,15.474
		c0.382,4.873,1.35,9.501,2.648,13.649c2.6,8.307,6.506,14.649,9.793,17.532c0,0,2.631-21.054,6.354-40.367
		C102.967,487.596,108.423,469.612,108.423,469.612z"/>
	<path fill="#676767" d="M117.835,625.661c-0.361-4.63-2.946-11.752-7.882-19.081c-2.471-3.669-5.535-7.399-9.233-10.951
		c-3.619-3.594-7.289-7.326-11.966-10.481c-10.625-7.424-24.279-13.399-35.166-17.727c-10.477-4.467-18.873-6.813-20.037-5.455
		c-0.876,1.206,0.537,10.875,6.83,21.937c6.122,11.098,14.393,24.788,25.004,34.202c18.832,16.077,40.409,17.313,48.647,13.908
		c0,0-17.246-12.481-35.278-26.487c-16.338-14.739-33.226-31.129-33.226-31.129s18.049,14.969,35.371,28.086
		C99.659,615.036,117.835,625.661,117.835,625.661z"/>
	<path fill="#676767" d="M130.027,538.307c0,0-0.019,18.704,0.601,39.012c2.184,19.272,5.154,40.067,5.154,40.067
		c6.354-6.502,15.206-26.218,12.565-45.485c-1.312-11.442-4.113-23.546-8.018-32.397c-4.053-8.792-6.452-15.621-8.432-15.553
		c-1.673-0.03-6.941,6.167-12.25,15.822c-4.918,9.456-9.064,22.208-10.145,34.912c-0.368,5.397-0.237,10.817,1.004,15.569
		c1.321,4.709,3.168,9.063,5.245,12.882c4.162,7.647,9.223,13.109,13.005,15.299c0,0-1.471-21.198-1.651-40.852
		C128.204,557.018,130.027,538.307,130.027,538.307z"/>
	<path fill="#676767" d="M169.691,689.603c-1.241-4.481-5.141-10.984-11.382-17.236c-6.274-6.245-15.039-12.143-24.987-16.877
		c-11.879-5.205-26.29-8.5-37.95-10.52c-11.137-2.338-19.82-2.998-20.698-1.439c-2.489,3.336,17.929,34.079,42.187,48.772
		c21.551,12.133,42.857,9.255,50.369,4.228c0,0-19.314-8.917-39.685-19.174c-19.046-11.138-38.646-24.023-38.646-24.023
		s20.564,11.182,40.063,20.703C149.948,682.577,169.691,689.603,169.691,689.603z"/>
	<path fill="#676767" d="M164.733,601.452c0,0,3.491,18.482,8.214,38.154c5.86,18.516,12.786,38.36,12.786,38.36
		c4.885-7.521,9.84-28.675,3.533-47.105c-6.592-22.183-22.716-43.898-25.568-43.824c-1.646,0.295-5.605,7.411-8.933,17.925
		c-2.833,10.144-4.553,23.562-3.128,36.228c0.928,11.107,6.135,19.991,11.692,26.672c5.543,6.715,11.549,11.11,15.674,12.534
		c0,0-5.405-20.639-9.557-39.768C166.557,620.209,164.733,601.452,164.733,601.452z"/>
	<path fill="#676767" d="M232.954,742.303c-2.076-4.168-7.144-9.816-14.458-14.768c-7.256-5.047-17.186-8.914-27.814-11.683
		c-12.647-2.821-27.342-3.347-39.228-3.013c-11.493-0.013-20.027,0.917-20.619,2.648c-1.776,3.718,24.192,29.951,50.883,39.597
		c23.487,7.742,43.68,1.009,50.241-5.621c0,0-1.413-0.139-3.682-0.715c-2.287-0.587-5.553-1.423-9.473-2.428
		c-8.043-2.176-18.766-5.079-29.491-7.981c-10.706-3.322-20.991-7.69-29.101-10.728c-8.076-3.206-13.46-5.343-13.46-5.343
		s22.19,7.157,43.312,12.535C212.271,739.176,232.954,742.303,232.954,742.303z"/>
	<path fill="#676767" d="M211.099,656.675c0,0,1.819,4.409,4.548,11.024c2.868,6.573,6.433,15.975,10.904,24.813
		c4.868,8.756,9.734,17.513,13.385,24.081c1.927,3.368,3.533,6.174,4.657,8.138c1.137,1.978,1.921,2.931,1.921,2.931
		c3.169-8.079,4.085-30.014-5.657-46.878c-10.806-20.411-30.837-38.642-33.645-37.985c-1.526,0.577-4.138,8.436-5.244,19.279
		c-0.758,10.448,0.072,24.031,3.913,36.196c3.014,10.77,10.029,18.254,16.666,23.868c6.72,5.541,13.444,8.713,17.758,9.324
		c0,0-9.257-19.261-16.99-37.278C216.379,674.9,211.099,656.675,211.099,656.675z"/>
	<path fill="#676767" d="M305.289,781.678c-2.856-3.668-8.91-8.258-17.04-11.708c-8.033-3.664-18.651-5.3-29.58-6.014
		c-12.936-0.346-27.436,1.955-39.024,4.562c-11.433,2.439-19.49,4.81-19.776,6.681c-1.025,3.97,29.583,24.694,57.675,28.919
		c24.558,3.042,42.98-7.331,48.197-15.294c0,0-1.377,0.036-3.787,0.1c-2.354-0.135-5.718-0.327-9.754-0.559
		c-8.307-0.59-19.383-1.375-30.459-2.16c-11.265-0.974-22.092-3.466-30.658-4.845c-8.536-1.603-14.225-2.671-14.225-2.671
		s5.724,0.609,14.308,1.522c8.572,0.743,19.526,2.101,30.623,2.376C284.413,782.599,305.289,781.678,305.289,781.678z"/>
	<path fill="#676767" d="M267.267,701.867c0,0,2.629,3.986,6.573,9.964c4.101,5.858,9.307,14.59,15.518,22.181
		c6.462,7.664,12.926,15.327,17.773,21.075c2.541,2.937,4.658,5.385,6.141,7.098c1.585,1.538,2.49,2.417,2.49,2.417
		c1.455-8.364-1.848-30.223-14.659-44.867c-3.862-4.119-8.011-8.391-12.12-12.454c-4.184-3.922-8.501-7.321-12.502-10.064
		c-8.178-5.192-14.328-9.014-15.763-8.125c-1.346,0.802-2.518,9.215-1.354,19.838c1.266,10.416,4.693,23.609,10.801,34.832
		c5.012,10.039,13.474,15.789,21.009,20.13c7.661,4.143,14.857,5.982,19.212,5.723c0,0-12.812-17.131-23.873-33.331
		c-5.43-8.417-10.053-17.496-13.586-23.806C269.531,706.111,267.267,701.867,267.267,701.867z"/>
	<path fill="#676767" d="M383.953,806.1c-3.514-3.065-10.355-6.36-19.003-8.155c-8.582-2.06-19.348-1.482-30.195-0.079
		c-12.748,2.17-26.517,7.244-37.374,12.052c-10.811,4.785-18.193,8.532-18.126,10.467c0.076,1.848,8.192,6.937,20.413,10.493
		c6.04,1.926,12.966,3.753,20.12,5.113c3.577,0.68,7.21,1.242,10.817,1.644c3.688,0.133,7.367,0.054,10.923-0.188
		c24.682-1.814,40.725-15.64,44.264-24.411c0,0-1.341,0.294-3.686,0.81c-2.336,0.328-5.672,0.799-9.676,1.364
		c-8.262,1.049-19.279,2.45-30.297,3.849c-11.264,1.33-22.348,0.914-31.024,1.244c-8.686,0.083-14.477,0.138-14.477,0.138
		s5.733-0.513,14.332-1.281c8.559-0.955,19.547-1.682,30.508-3.658C363.666,811.087,383.953,806.1,383.953,806.1z"/>
	<path fill="#676767" d="M331.075,735.256c0,0,3.351,3.401,8.378,8.503c5.164,4.931,11.942,12.56,19.541,18.709
		c7.838,6.248,15.677,12.496,21.555,17.182c3.068,2.383,5.623,4.368,7.412,5.758c1.852,1.216,2.91,1.912,2.91,1.912
		c-0.203-8.547-7.734-29.293-23.158-41.153c-2.262-1.754-4.657-3.344-7.102-4.859c-2.36-1.783-4.784-3.437-7.215-4.956
		c-4.861-3.038-9.75-5.535-14.201-7.448c-9.014-3.521-15.848-5.908-17.047-4.838c-1.143,1.006-0.723,9.631,2.558,19.656
		c3.266,9.975,9.196,22.259,17.373,32.09c14.228,16.597,36.311,19.327,44.507,17.46c0,0-15.92-14.297-29.936-28.02
		c-6.993-7.116-13.269-15.196-17.966-20.683C334.119,738.981,331.075,735.256,331.075,735.256z"/>
	<path fill="#676767" d="M465.865,814.554c-4.042-2.302-11.393-4.163-20.226-4.194c-8.835-0.178-19.247,2.248-29.616,5.792
		c-12.079,4.65-24.589,12.347-34.29,19.206c-9.647,6.754-16.165,11.916-15.716,13.787c0.566,4.152,36.854,11.286,64.361,4.583
		c23.81-6.57,36.863-23.731,38.635-32.459c0,0-19.971,7.26-41.626,14.327c-10.748,3.258-21.726,5.242-30.16,7.221
		c-8.499,1.8-14.165,2.999-14.165,2.999s22.435-6.28,42.983-13.574C446.925,823.492,465.865,814.554,465.865,814.554z"/>
	<path fill="#676767" d="M400.136,755.534c0,0,3.958,2.668,9.892,6.671c6.032,3.869,14.197,9.804,22.836,14.598
		c17.232,9.031,36.148,18.255,36.148,18.255c-1.849-8.91-13.277-27.309-30.771-35.964c-10.316-4.7-21.846-9.755-31.382-11.392
		c-9.548-1.649-16.695-2.731-17.666-1.415c-0.926,1.224,1.182,9.556,6.355,18.804c5.165,9.127,13.393,19.989,23.341,28.001
		c8.482,7.338,18.488,9.54,27.123,10.533c8.667,0.852,16.022-0.266,19.95-2.165c0,0-18.398-10.823-34.855-21.461
		C414.62,767.843,400.136,755.534,400.136,755.534z"/>
	<path fill="#676767" d="M660.908,27.066c7.269,4.667,17.196,10.452,26.641,16.924c9.173,6.901,18.719,13.196,25.189,18.843
		c6.539,5.53,10.896,9.217,10.896,9.217c-4.759,1.283-12.849,1.225-21.691-0.985c-9.141-1.842-19.214-5.533-28.198-12.604
		c-21.051-15.489-42.348-41.873-41.097-45.604c1.104-3.447,36.929-4.905,63.673,8.717c11.095,6.094,19.549,14.626,24.914,22.815
		c5.116,8.594,7.402,16.567,7.311,21.465c0,0-4.738-3.356-11.848-8.39c-7.022-5.133-17.264-10.704-27.052-16.823
		c-10.067-5.695-20.533-10.646-28.166-14.668c-7.871-3.583-13.227-5.719-13.227-5.719S653.403,22.837,660.908,27.066z"/>
	<path fill="#676767" d="M764.782,91.957c-0.669-2.295-1.694-5.525-3.173-9.224c-2.848-7.494-6.786-17.694-11.102-28.051
		c-4.686-9.879-9.695-19.988-13.607-27.66c-3.897-7.678-6.994-12.396-6.994-12.396s0.829,1.171,2.28,3.221
		c1.45,2.038,3.53,4.914,5.742,8.674c4.514,7.405,10.455,17.055,15.935,26.722c4.936,9.922,9.871,19.845,13.573,27.286
		c3.361,7.509,5.288,12.63,5.288,12.63c2.487-3.778,4.666-11.071,4.778-20.286c-0.156-8.909-2.556-19.647-8.624-30.296
		c-7.143-12.237-18.648-23.388-28.425-31.408c-10.185-7.509-18.615-11.926-20.139-11.063c-3.136,2.091,2.265,34.324,11.721,58.753
		c4.555,10.145,10.569,18.761,16.846,25c6.379,6.103,12.795,10.098,16.986,11.649C765.869,95.509,765.474,94.217,764.782,91.957z"/>
	<path fill="#676767" d="M689.915,91.243c7.375,1.038,17.209,2.423,27.042,3.806c9.69,2.017,19.625,4.35,27.24,6.185
		c3.854,0.862,6.928,1.792,9.048,2.492c2.153,0.677,3.385,1.063,3.385,1.063c-1.125-4.425-5.426-10.518-12.27-15.926
		c-6.717-5.521-15.729-10.589-26.69-11.738c-12.489-1.703-25.939,0.01-36.439,3.295c-10.374,3.052-17.412,6.841-17.727,8.51
		c-0.293,1.682,5.18,6.517,13.596,11.387c8.034,5.416,19.099,10.914,30.08,14.45c9.337,3.147,19.22,3.378,27.801,2.323
		c8.289-0.775,15.364-3.015,19.112-5.491c0,0-4.67-2.052-11.821-4.666c-7.178-2.296-16.75-5.357-26.32-8.419
		c-9.71-2.497-19.312-4.586-26.298-6.174c-3.456-0.855-6.499-1.268-8.606-1.574c-2.095-0.31-3.292-0.488-3.292-0.488
		S682.741,90.321,689.915,91.243z"/>
	<path fill="#676767" d="M816.468,145.685c-1.338-7.907-2.706-19.077-5.514-29.617c-2.652-10.623-5.147-21.92-7.85-29.878
		c-2.692-8.097-4.487-13.496-4.487-13.496s2.244,5.274,5.609,13.185c3.32,7.842,6.76,18.913,10.339,29.395
		c3.712,10.413,5.89,21.597,8.006,29.407c2.011,7.906,3.016,13.227,3.016,13.227c6.538-6.454,13.711-26.906,5.945-50.327
		c-9.431-26.897-36.113-52.378-39.343-51.144c-1.635,0.486-2.89,9.314-3.096,20.997c-0.279,11.793,0.869,25.87,3.092,39.02
		c4.711,21.787,17.785,38.175,26.234,42.424C818.419,158.877,817.638,153.6,816.468,145.685z"/>
	<path fill="#676767" d="M744.571,140.095c7.217,1.96,16.086,5.571,25.654,9.082c9.694,3.398,18.47,8.008,25.576,11.285
		c7.053,3.438,11.756,5.73,11.756,5.73c-1.146-8.494-12.077-27.812-33.003-34.6c-11.595-4.375-25.853-4.635-36.398-3.822
		c-10.666,0.881-18.242,3.165-18.923,4.789c-1.161,3.332,17.542,22.852,37.794,33.901c16.937,9.711,38.502,9.148,46.708,5.925
		c0,0-4.29-2.841-10.968-6.678c-6.787-3.75-14.937-9.188-24.162-13.358c-9.116-4.266-17.612-8.632-24.486-11.247
		c-6.794-2.576-11.323-4.294-11.323-4.294S737.508,138.123,744.571,140.095z"/>
	<path fill="#676767" d="M858.189,218.015c0.717-8.25,0.587-18.996,0.279-30.094c-0.185-5.617-0.37-11.235-0.545-16.501
		c-0.521-5.232-1.006-10.116-1.423-14.301c-0.959-8.542-1.599-14.236-1.599-14.236s1.101,5.661,2.753,14.154
		c0.759,4.18,1.644,9.055,2.592,14.28c0.604,5.279,1.247,10.91,1.891,16.542c0.568,5.511,1.135,11.022,1.667,16.189
		c0.189,5.194,0.366,10.04,0.518,14.195c0.189,8.159,0.316,13.599,0.316,13.599c3.713-2.532,8.405-8.4,11.848-16.809
		c3.439-8.389,5.824-19.479,3.72-31.378c-1.081-6.975-3.026-14.239-5.392-21.187c-2.745-6.729-5.939-13.124-9.034-18.646
		c-5.998-11.194-12.515-18.204-14.276-17.97c-1.847,0.261-4.347,8.383-6.815,19.805c-2.625,11.561-4.673,25.875-4.513,38.887
		c-0.242,11.438,2.478,21.475,6.12,29.523c3.146,8.267,7.461,14.454,11.018,17.37C857.314,231.436,857.664,226.068,858.189,218.015z
		"/>
	<path fill="#676767" d="M788.623,198.645c3.278,1.771,7.103,3.837,11.201,6.052c3.911,2.484,8.083,5.134,12.256,7.785
		c8.446,5.42,17.117,11.172,22.959,16.001c6.116,4.803,10.194,8.007,10.194,8.007c0.374-4.401-1.184-11.719-5.026-19.52
		c-4.32-7.553-11.163-15.449-20.264-20.999c-11.059-6.223-24.546-9.519-34.979-10.804c-10.63-1.199-18.945-0.126-19.777,1.233
		c-0.888,1.428,2.741,7.709,8.101,15.783c2.784,3.976,6.252,8.255,10.211,12.423c3.576,4.383,7.672,8.638,12.174,12.31
		c15.496,12.433,35.494,16.654,44.71,14.86c0,0-3.756-3.488-9.389-8.719c-2.79-2.526-6.044-5.473-9.531-8.631
		c-3.706-2.915-7.66-6.025-11.613-9.135c-3.876-2.989-7.754-5.979-11.388-8.781c-3.835-2.546-7.414-4.922-10.483-6.959
		c-6.044-3.915-10.073-6.526-10.073-6.526S782.193,195.273,788.623,198.645z"/>
	<path fill="#676767" d="M885.143,297.093c1.73-7.803,3.978-18.443,6.095-29.457c2.055-10.973,2.95-22.003,3.994-30.579
		c0.44-4.298,0.808-7.879,1.065-10.387c0.117-2.484,0.184-3.903,0.184-3.903s0.046,1.433,0.128,3.941
		c-0.058,2.534-0.14,6.154-0.239,10.499c-0.404,8.693-0.217,19.84-1.555,31.098c-1.271,11.252-2.397,22.119-3.717,30.216
		c-1.59,8.073-2.65,13.455-2.65,13.455c8.312-3.419,23.746-19.748,24.817-44.228c1.337-14.326-2.771-29.76-6.219-41.966
		c-4.052-12.006-9.032-20.197-10.695-20.355c-3.477-0.101-17.296,29.917-22.639,55.398c-4.473,22.05,2.383,41.956,7.708,49.302
		C881.419,310.127,882.909,304.913,885.143,297.093z"/>
	<path fill="#676767" d="M813.881,258.915c1.609,1.353,3.908,3.284,6.665,5.602c5.413,4.736,13.34,11.085,20.391,18.12
		c7.074,7.338,14.147,14.678,19.452,20.181c4.916,5.939,8.193,9.897,8.193,9.897c3.049-8.459-0.708-30.263-16.949-44.645
		c-18.984-17.005-49.529-22.666-51.749-20.085c-1.258,1.27,1.021,8.16,5.052,16.967c3.426,9.038,10.287,19.484,16.958,28.661
		c12.635,15.267,31.804,23.214,40.822,23.35c0,0-2.882-4.18-7.204-10.45c-4.549-6.133-11.141-13.971-17.345-21.548
		c-6.152-7.619-13.57-14.484-18.438-19.682c-2.512-2.546-4.606-4.668-6.071-6.153c-1.579-1.413-2.481-2.22-2.481-2.22
		S812.16,257.64,813.881,258.915z"/>
	<path fill="#676767" d="M895.638,379.948c3.211-7.311,8.46-17.361,11.913-27.682c3.737-10.314,7.658-21.053,10.145-29.222
		c2.206-8.226,3.676-13.71,3.676-13.71s-1.026,5.629-2.566,14.075c-1.913,8.415-4.918,19.491-7.805,30.204
		c-6.506,21.577-14.52,41.558-14.52,41.558c8.942-1.739,26.26-14.751,32.919-38.522c2.824-13.642,3.892-29.816,1.816-42.298
		c-1.788-12.543-4.547-21.648-6.227-22.114c-1.687-0.493-7.591,6.154-14.191,15.752c-6.565,9.627-13.716,22.011-19.11,34.171
		c-8.063,20.719-6.493,41.623-1.759,49.842C889.928,392,892.212,387.179,895.638,379.948z"/>
	<path fill="#676767" d="M839.077,335.34c4.597,5.68,10.248,13.573,16.212,21.813c6.242,8.202,10.798,16.937,14.955,23.604
		c3.954,6.778,6.59,11.296,6.59,11.296c3.696-7.695,5.536-29.848-8.215-47.106c-7.277-10.076-18.7-18.246-28.134-23.383
		c-9.415-5.174-17.021-7.465-18.432-6.504c-1.403,0.985-1.037,8.286,1.357,17.692c2.677,9.378,5.292,21.254,11.329,31.429
		c8.589,17.518,26.838,29.029,35.532,30.902c0,0-8.474-18.993-18.08-36.193c-5.17-8.618-10.096-16.927-14.04-22.962
		c-4.272-5.899-7.12-9.83-7.12-9.83S834.248,329.794,839.077,335.34z"/>
	<path fill="#676767" d="M907.435,438.395c10.874-18.747,21.712-39.453,21.712-39.453s-9.112,21.583-18.66,41.429
		c-11.266,19.857-22.39,38.004-22.39,38.004c8.911-0.017,28.356-9.439,39.564-31.518c11.743-25.701,12.006-62.555,8.126-63.944
		c-1.66-0.808-8.32,4.552-16.623,12.672c-8.662,8.15-18.709,18.894-25.688,29.821c-5.601,9.464-9.584,19.242-11.387,27.915
		c-1.74,8.662-1.39,16.233,0.056,20.647C882.145,473.966,894.742,457.168,907.435,438.395z"/>
	<path fill="#676767" d="M855.209,433.133c7.189,18.198,14.078,38.35,14.078,38.35c2.65-3.474,5.221-10.461,6.125-19.12
		c0.963-8.636,0.327-18.914-5.111-28.668c-5.856-11.326-14.845-21.535-22.749-28.403c-8.266-6.904-15.705-10.637-17.175-9.967
		c-2.453,1.528-4.162,28.596,2.941,50.705c4.969,18.803,20.716,33.613,29.079,37.182c0,0-5.249-20.345-10.64-38.979
		c-7.098-18.992-14.49-36.321-14.49-36.321S846.221,414.544,855.209,433.133z"/>
	<path fill="#676767" d="M890.355,522.915c14.417-16.26,29.183-34.483,29.183-34.483s-13.365,19.384-26.467,37.052
		c-14.935,17.276-29.463,32.871-29.463,32.871c8.745,1.733,29.686-3.689,45.051-23.146c8.5-11.336,13.973-26.371,17.788-38.463
		c4.088-12.074,3.479-21.829,2.407-22.839c-1.41-1.103-9.171,2.839-18.553,9.273c-9.896,6.364-22.065,14.914-31.045,24.273
		c-3.952,4.015-6.871,8.379-9.644,12.634c-2.939,4.203-5.223,8.458-6.936,12.537c-3.422,8.146-4.577,15.634-4.034,20.243
		C858.641,552.867,874.461,538.92,890.355,522.915z"/>
	<path fill="#676767" d="M840.166,507.545c3.723,19.313,6.354,40.367,6.354,40.367c3.287-2.883,7.193-9.225,9.793-17.532
		c1.298-4.148,2.266-8.776,2.648-13.649c0.214-4.925-0.668-10.25-2.103-15.474c-3.533-12.243-10.148-23.942-16.756-32.236
		c-7.113-8.433-13.502-13.483-15.135-13.125c-1.976,0.313-2.901,7.517-5.232,16.907c-2.081,9.444-2.498,21.846-1.479,33.335
		c1.149,19.379,13.667,36.976,21.165,42.114c0,0-1.099-20.955-2.744-40.273c-3.406-20.042-7.075-38.368-7.075-38.368
		S835.058,487.596,840.166,507.545z"/>
	<path fill="#676767" d="M857.127,602.483c17.323-13.117,35.37-28.086,35.37-28.086s-16.887,16.39-33.225,31.129
		c-18.033,14.006-35.278,26.487-35.278,26.487c8.236,3.405,29.815,2.169,48.647-13.908c10.61-9.414,18.881-23.104,25.004-34.202
		c6.293-11.062,7.706-20.731,6.83-21.937c-1.165-1.358-9.56,0.988-20.037,5.455c-10.887,4.328-24.541,10.304-35.166,17.727
		c-4.676,3.155-8.348,6.887-11.966,10.481c-3.697,3.551-6.762,7.281-9.233,10.951c-4.936,7.328-7.522,14.451-7.882,19.081
		C820.19,625.661,838.365,615.036,857.127,602.483z"/>
	<path fill="#676767" d="M810.92,577.582c-0.181,19.653-1.651,40.852-1.651,40.852c3.782-2.19,8.842-7.652,13.004-15.299
		c2.078-3.818,3.926-8.172,5.246-12.882c1.24-4.751,1.373-10.172,1.003-15.569c-1.08-12.704-5.226-25.456-10.145-34.912
		c-5.308-9.655-10.576-15.852-12.249-15.822c-1.979-0.068-4.379,6.761-8.433,15.553c-3.905,8.851-6.705,20.955-8.017,32.397
		c-2.641,19.267,6.21,38.983,12.565,45.485c0,0,2.97-20.795,5.154-40.067c0.62-20.307,0.601-39.012,0.601-39.012
		S809.821,557.018,810.92,577.582z"/>
	<path fill="#676767" d="M809.063,674.036c19.5-9.521,40.064-20.703,40.064-20.703s-19.601,12.886-38.646,24.023
		c-20.371,10.257-39.685,19.174-39.685,19.174c7.512,5.027,28.818,7.905,50.368-4.228c24.26-14.693,44.676-45.436,42.188-48.772
		c-0.878-1.56-9.562-0.899-20.698,1.439c-11.66,2.02-26.073,5.315-37.95,10.52c-9.947,4.734-18.712,10.632-24.988,16.877
		c-6.24,6.252-10.14,12.755-11.381,17.236C768.334,689.603,788.077,682.577,809.063,674.036z"/>
	<path fill="#676767" d="M768.578,640.628c-4.153,19.13-9.558,39.768-9.558,39.768c4.126-1.425,10.131-5.82,15.675-12.534
		c5.557-6.682,10.763-15.566,11.691-26.672c1.427-12.667-0.293-26.085-3.127-36.228c-3.329-10.514-7.287-17.629-8.934-17.925
		c-2.852-0.074-18.976,21.641-25.567,43.824c-6.307,18.43-1.352,39.584,3.533,47.105c0,0,6.926-19.844,12.785-38.36
		c4.724-19.672,8.215-38.154,8.215-38.154S771.468,620.209,768.578,640.628z"/>
	<path fill="#676767" d="M747.96,734.803c21.121-5.378,43.311-12.535,43.311-12.535s-5.384,2.137-13.46,5.343
		c-8.109,3.039-18.394,7.406-29.1,10.728c-10.724,2.902-21.448,5.805-29.491,7.981c-3.92,1.005-7.186,1.841-9.473,2.428
		c-2.27,0.576-3.682,0.715-3.682,0.715c6.56,6.631,26.755,13.363,50.241,5.621c26.692-9.646,52.659-35.879,50.883-39.597
		c-0.592-1.731-9.125-2.661-20.619-2.648c-11.887-0.333-26.58,0.192-39.229,3.013c-10.627,2.769-20.557,6.637-27.813,11.683
		c-7.313,4.952-12.382,10.6-14.458,14.768C705.071,742.303,725.754,739.176,747.96,734.803z"/>
	<path fill="#676767" d="M714.708,694.189c-7.734,18.017-16.99,37.278-16.99,37.278c4.314-0.611,11.039-3.782,17.758-9.324
		c6.637-5.614,13.652-13.098,16.666-23.868c3.84-12.165,4.671-25.748,3.914-36.196c-1.106-10.843-3.718-18.702-5.244-19.279
		c-2.807-0.657-22.838,17.574-33.645,37.985c-9.742,16.863-8.827,38.798-5.657,46.878c0,0,0.783-0.953,1.921-2.931
		c1.124-1.964,2.73-4.77,4.657-8.138c3.65-6.568,8.518-15.325,13.385-24.081c4.471-8.838,8.036-18.24,10.904-24.813
		c2.729-6.615,4.549-11.024,4.549-11.024S721.646,674.9,714.708,694.189z"/>
	<path fill="#676767" d="M676.236,782.586c11.096-0.274,22.051-1.633,30.623-2.376c8.585-0.913,14.308-1.522,14.308-1.522
		s-5.69,1.068-14.225,2.671c-8.566,1.379-19.393,3.87-30.658,4.845c-11.077,0.786-22.152,1.571-30.46,2.16
		c-4.036,0.231-7.399,0.424-9.754,0.559c-2.41-0.064-3.786-0.1-3.786-0.1c5.217,7.963,23.639,18.337,48.196,15.294
		c28.093-4.225,58.7-24.95,57.676-28.919c-0.285-1.871-8.344-4.242-19.776-6.681c-11.587-2.607-26.089-4.909-39.024-4.562
		c-10.928,0.714-21.548,2.35-29.58,6.014c-8.13,3.45-14.184,8.04-17.041,11.708C632.736,781.678,653.611,782.599,676.236,782.586z"
		/>
	<path fill="#676767" d="M665.097,712.477c-3.532,6.31-8.155,15.39-13.585,23.806c-11.062,16.201-23.873,33.331-23.873,33.331
		c4.355,0.259,11.551-1.58,19.212-5.723c7.535-4.341,15.997-10.092,21.009-20.13c6.107-11.223,9.535-24.416,10.8-34.832
		c1.165-10.623-0.007-19.036-1.354-19.838c-1.434-0.889-7.584,2.933-15.762,8.125c-4.002,2.742-8.319,6.141-12.502,10.064
		c-4.109,4.064-8.258,8.336-12.12,12.454c-12.811,14.645-16.114,36.504-14.66,44.867c0,0,0.906-0.879,2.491-2.417
		c1.482-1.713,3.6-4.161,6.14-7.098c4.848-5.749,11.311-13.411,17.774-21.075c6.211-7.592,11.417-16.324,15.518-22.181
		c3.944-5.979,6.572-9.964,6.572-9.964S668.494,706.111,665.097,712.477z"/>
	<path fill="#676767" d="M596.55,815.501c10.961,1.976,21.949,2.703,30.508,3.658c8.599,0.769,14.332,1.281,14.332,1.281
		s-5.791-0.055-14.477-0.138c-8.677-0.33-19.762,0.085-31.025-1.244c-11.017-1.4-22.033-2.8-30.296-3.849
		c-4.004-0.565-7.34-1.035-9.676-1.364c-2.346-0.516-3.686-0.81-3.686-0.81c3.539,8.771,19.581,22.597,44.264,24.411
		c3.556,0.242,7.234,0.321,10.924,0.188c3.606-0.401,7.239-0.964,10.816-1.644c7.155-1.36,14.081-3.187,20.12-5.113
		c12.221-3.556,20.338-8.645,20.414-10.493c0.067-1.935-7.315-5.682-18.126-10.467c-10.856-4.807-24.626-9.881-37.375-12.052
		c-10.846-1.403-21.612-1.981-30.195,0.079c-8.647,1.795-15.488,5.09-19.002,8.155C554.072,806.1,574.359,811.087,596.55,815.501z"
		/>
	<path fill="#676767" d="M599.34,744.57c-4.695,5.486-10.972,13.567-17.965,20.683c-14.016,13.723-29.936,28.02-29.936,28.02
		c8.195,1.867,30.279-0.863,44.507-17.46c8.176-9.83,14.106-22.114,17.373-32.09c3.281-10.026,3.701-18.65,2.558-19.656
		c-1.198-1.07-8.032,1.316-17.047,4.838c-4.452,1.913-9.341,4.41-14.201,7.448c-2.431,1.519-4.856,3.173-7.216,4.956
		c-2.444,1.515-4.841,3.105-7.102,4.859c-15.423,11.861-22.953,32.606-23.156,41.153c0,0,1.058-0.696,2.91-1.912
		c1.789-1.39,4.345-3.375,7.411-5.758c5.879-4.685,13.717-10.933,21.556-17.182c7.6-6.149,14.376-13.779,19.541-18.709
		c5.026-5.102,8.378-8.503,8.378-8.503S603.906,738.981,599.34,744.57z"/>
	<path fill="#676767" d="M511.98,832.243c20.55,7.293,42.984,13.574,42.984,13.574s-5.666-1.199-14.165-2.999
		c-8.435-1.979-19.412-3.964-30.16-7.221c-21.655-7.067-41.626-14.327-41.626-14.327c1.772,8.728,14.825,25.89,38.634,32.459
		c27.508,6.703,63.796-0.431,64.362-4.583c0.449-1.871-6.07-7.033-15.716-13.787c-9.701-6.859-22.211-14.556-34.29-19.206
		c-10.369-3.544-20.781-5.97-29.616-5.792c-8.833,0.031-16.185,1.892-20.226,4.194C472.16,814.554,491.1,823.492,511.98,832.243z"/>
	<path fill="#676767" d="M506.918,779.998c-16.457,10.637-34.855,21.461-34.855,21.461c3.927,1.899,11.283,3.017,19.95,2.165
		c8.635-0.993,18.641-3.195,27.123-10.533c9.947-8.012,18.176-18.874,23.341-28.001c5.173-9.248,7.281-17.579,6.355-18.804
		c-0.971-1.317-8.118-0.234-17.667,1.415c-9.535,1.637-21.065,6.692-31.382,11.392c-17.494,8.655-28.921,27.054-30.77,35.964
		c0,0,18.916-9.224,36.148-18.255c8.639-4.794,16.804-10.728,22.836-14.598c5.935-4.003,9.891-6.671,9.891-6.671
		S523.405,767.843,506.918,779.998z"/>
</g>
</svg>
