<?xml version="1.0" encoding="utf-8"?>
<!-- Generator: Adobe Illustrator 24.3.0, SVG Export Plug-In . SVG Version: 6.00 Build 0)  -->
<svg version="1.1" id="Layer_10" xmlns="http://www.w3.org/2000/svg" xmlns:xlink="http://www.w3.org/1999/xlink" x="0px" y="0px"
	 viewBox="0 0 229.744 226.273" enable-background="new 0 0 229.744 226.273" xml:space="preserve">
<g>
	<polygon fill="#2E465B" points="62.946,23.989 62.946,18.558 1.751,29.421 1.751,29.421 1.751,34.852 1.751,96.976 7.225,96.976 
		7.225,33.881 	"/>
	<polygon fill="#2E465B" points="75.948,32.137 14.754,43 14.754,48.431 14.754,48.431 14.754,110.555 20.228,110.555 20.228,47.46 
		75.948,37.568 	"/>
	<polygon fill="#2E465B" points="166.799,18.558 166.799,23.989 222.519,33.881 222.519,96.976 227.993,96.976 227.993,34.852 
		227.993,29.421 227.993,29.421 	"/>
	<polygon fill="#2E465B" points="153.796,37.568 209.517,47.46 209.517,110.555 214.99,110.555 214.99,48.431 214.99,43 214.99,43 
		153.796,32.137 	"/>
	<polygon fill="#2E465B" points="35.499,21.257 35.499,175.663 114.872,226.273 194.246,175.663 194.246,21.257 	"/>
</g>
<g>
	<ellipse fill="#33F6C6" cx="17.491" cy="110.94" rx="4.488" ry="4.647"/>
	<ellipse fill="#33F6C6" cx="4.488" cy="97.361" rx="4.488" ry="4.647"/>
	<ellipse fill="#33F6C6" cx="212.254" cy="110.94" rx="4.488" ry="4.647"/>
	<ellipse fill="#33F6C6" cx="225.256" cy="97.361" rx="4.488" ry="4.647"/>
	<polygon fill="#33F6C6" points="28.087,0 28.087,159.627 114.872,214.964 201.658,159.627 201.657,0 	"/>
</g>
<g>
	<polygon fill="#20D0B2" points="114.873,214.964 201.658,159.627 201.658,0 114.873,0 	"/>
</g>
</svg>
