<?xml version="1.0" encoding="utf-8"?>
<!-- Generator: Adobe Illustrator 24.3.0, SVG Export Plug-In . SVG Version: 6.00 Build 0)  -->
<svg version="1.1" id="Layer_6" xmlns="http://www.w3.org/2000/svg" xmlns:xlink="http://www.w3.org/1999/xlink" x="0px" y="0px"
	 viewBox="0 0 301.997 196.218" enable-background="new 0 0 301.997 196.218" xml:space="preserve">
<g>
	<path fill="#667573" d="M151.545,58.394c-14.216-18.549-32.371-30.756-51.269-34.123c13.846,18.078,25.526,39.679,34.5,63.454
		c7.44,19.708,13.007,40.913,16.357,62.893c0.098,0.642,0.215,1.277,0.309,1.92l0.103-0.383l0.103,0.383
		c0.094-0.643,0.212-1.278,0.309-1.92c3.351-21.98,8.917-43.185,16.357-62.893c8.974-23.775,20.653-45.376,34.5-63.454
		C183.915,27.638,165.76,39.846,151.545,58.394z"/>
	<path fill="#667573" d="M163.244,17.114c0,9.452-5.238,17.114-11.699,17.114c-6.461,0-11.7-7.662-11.7-17.114
		c0-9.453,5.238-17.114,11.7-17.114C158.005,0,163.244,7.662,163.244,17.114z"/>
</g>
<g>
	<path fill="#FDB71E" d="M47.003,27.55c3.873,11.57,0.933,25.791-6.567,31.766c-7.501,5.975-16.721,1.44-20.594-10.13
		s-0.933-25.791,6.568-31.766C33.909,11.445,43.129,15.98,47.003,27.55z"/>
	<path fill="#FDB71E" d="M122.864,82.714c-2.022-5.19-4.182-10.302-6.473-15.273c-8.98-19.478-20.101-36.671-34.017-46.78
		c-9.832-7.141-20.618-10.447-31.279-13.69c-0.003-0.002-0.007-0.002-0.01-0.004C62.463,23.844,71.69,44.167,78.067,66.441
		C57.471,68.715,19.384,80.558,0,91.525c65.384,12.389,112.033,51.19,148.386,104.495c-0.514-5.333-1.048-10.662-1.677-15.958
		C142.632,145.758,134.511,112.606,122.864,82.714z"/>
	<path fill="#FDB71E" d="M254.994,27.747c-3.873,11.57-0.933,25.791,6.567,31.766c7.501,5.975,16.721,1.44,20.594-10.13
		s0.933-25.791-6.568-31.766C268.087,11.642,258.867,16.178,254.994,27.747z"/>
	<path fill="#FDB71E" d="M179.133,82.912c2.022-5.19,4.182-10.302,6.473-15.273c8.98-19.478,20.101-36.671,34.017-46.78
		c9.832-7.141,20.618-10.447,31.279-13.69c0.003-0.002,0.007-0.002,0.01-0.004c-11.379,16.876-20.606,37.199-26.983,59.474
		c20.596,2.274,58.683,14.117,78.067,25.084c-65.384,12.389-112.033,51.19-148.386,104.495c0.514-5.333,1.048-10.662,1.677-15.958
		C159.365,145.956,167.485,112.804,179.133,82.912z"/>
</g>
</svg>
