<?xml version="1.0" encoding="utf-8"?>
<!-- Generator: Adobe Illustrator 24.3.0, SVG Export Plug-In . SVG Version: 6.00 Build 0)  -->
<svg version="1.1" id="Layer_2_1_" xmlns="http://www.w3.org/2000/svg" xmlns:xlink="http://www.w3.org/1999/xlink" x="0px" y="0px"
	 viewBox="0 0 158.847 141.352" enable-background="new 0 0 158.847 141.352" xml:space="preserve">
<g>
	<path fill="#004907" d="M56.402,83.859c17.997-24.918-1.218-42.845-16.797-55.591c-10.277-8.408-16.759-16.67-16.759-16.67
		S-4.611,82.232,53.13,87.993c0,0-23.119-18.354-22.462-43.393C30.667,44.6,34.661,65.792,56.402,83.859"/>
	<path fill="#004907" d="M50.519,135.913c11.5-28.505-11.451-41.304-29.631-49.945C8.896,80.267,0.623,73.8,0.623,73.8
		s-9.729,75.156,47.71,66.91c0,0-26.844-12.278-32.207-36.745C16.125,103.965,25.082,123.583,50.519,135.913"/>
	<path fill="#004907" d="M85.34,120.905c26.877,5.569,34.373-16.772,38.991-34.226c3.049-11.515,7.375-19.866,7.375-19.866
		s-67.501,3.515-50.921,52.931c0,0,6.399-25.697,26.985-34.373C107.77,85.371,92.019,96.446,85.34,120.905"/>
	<path fill="#004907" d="M122.058,119.623c-14.108,8.536-29.889,12.178-45.284,11.438C67.56,101.6,71.207,69.518,86.778,42.794
		c4.352-6.316,18.225-23.923,38.991-26.36c0,0-20.793,7.043-35.802,31.26c27.824,14.265,43.069-7.426,53.615-24.752
		c6.959-11.426,14.337-19.062,14.337-19.062s-69.527-15.7-72.565,34.628C62.268,68.319,54.746,106.864,64.182,142.5
		c3.418,0.338,6.855,0.453,10.298,0.389l0.007,0.026c0.627-0.013,1.248-0.038,1.875-0.064c0.222-0.006,0.438-0.013,0.66-0.019
		c1.228-0.057,2.463-0.147,3.699-0.255c0.118-0.013,0.235-0.013,0.353-0.026v-0.013c12.736-1.187,25.399-5.174,37.031-12.21
		c24.57-14.858,38.861-39.846,40.742-66.072C155.737,86.36,142.949,106.985,122.058,119.623"/>
</g>
</svg>
