<?xml version="1.0" encoding="utf-8"?>
<!-- Generator: Adobe Illustrator 24.3.0, SVG Export Plug-In . SVG Version: 6.00 Build 0)  -->
<svg version="1.1" id="Layer_2" xmlns="http://www.w3.org/2000/svg" xmlns:xlink="http://www.w3.org/1999/xlink" x="0px" y="0px"
	 viewBox="0 0 201.596 222.373" enable-background="new 0 0 201.596 222.373" xml:space="preserve">
<g>
	<path fill="#603813" d="M92.588,123.445c0,0,0.448-0.36,1.228-1.083c0.194-0.183,0.411-0.383,0.642-0.613
		c0.235-0.225,0.487-0.475,0.755-0.747c0.533-0.55,1.139-1.182,1.783-1.918c0.645-0.733,1.336-1.56,2.049-2.482
		c0.714-0.922,1.436-1.95,2.178-3.054c0.721-1.121,1.455-2.324,2.151-3.627c0.18-0.321,0.336-0.663,0.511-0.996
		c0.085-0.168,0.171-0.336,0.258-0.506c0.087-0.169,0.162-0.347,0.244-0.521c0.161-0.349,0.324-0.702,0.489-1.058
		c0.151-0.362,0.304-0.728,0.459-1.097c0.075-0.185,0.16-0.367,0.227-0.558c0.071-0.189,0.141-0.379,0.213-0.57
		c0.072-0.19,0.143-0.381,0.216-0.573c0.073-0.191,0.146-0.384,0.207-0.582c0.129-0.392,0.259-0.789,0.391-1.188
		c0.07-0.197,0.126-0.402,0.183-0.606c0.058-0.204,0.116-0.408,0.174-0.614c0.058-0.205,0.117-0.41,0.176-0.617
		c0.06-0.206,0.102-0.419,0.156-0.628c0.102-0.42,0.204-0.843,0.308-1.27c0.084-0.431,0.168-0.864,0.254-1.301
		c0.042-0.218,0.091-0.435,0.128-0.656c0.033-0.221,0.066-0.444,0.1-0.667c0.064-0.446,0.141-0.891,0.197-1.344
		c0.049-0.453,0.098-0.909,0.148-1.368c0.06-0.456,0.078-0.922,0.107-1.387c0.015-0.233,0.031-0.466,0.047-0.7
		c0.014-0.234,0.038-0.467,0.036-0.704c0.008-0.472,0.017-0.946,0.026-1.423c0.02-0.475-0.001-0.956-0.011-1.438
		c-0.006-0.241-0.011-0.482-0.017-0.724l-0.008-0.363l-0.004-0.182c-0.001-0.063,0,0.035-0.001,0.006l-0.003-0.049l-0.006-0.098
		c-0.032-0.518-0.052-1.084-0.098-1.504l-0.029-0.34c-0.009-0.113-0.019-0.227-0.034-0.347c-0.027-0.237-0.054-0.475-0.08-0.714
		c-0.025-0.239-0.066-0.473-0.098-0.71l-0.049-0.355c-0.017-0.118-0.039-0.235-0.058-0.352c-0.146-0.942-0.351-1.868-0.592-2.779
		c-0.473-1.825-1.142-3.572-2.012-5.23c-0.439-0.828-0.919-1.641-1.457-2.433c-0.132-0.199-0.276-0.394-0.412-0.592
		c-0.141-0.196-0.288-0.39-0.432-0.586l-0.447-0.583l-0.467-0.579c-1.271-1.537-2.725-3.044-4.297-4.606
		c-1.563-1.574-3.248-3.202-4.875-5.064c-0.815-0.93-1.616-1.914-2.365-2.968c-0.75-1.052-1.456-2.171-2.066-3.352
		c-0.612-1.179-1.139-2.412-1.561-3.67c-0.417-1.26-0.729-2.541-0.943-3.813c-0.214-1.273-0.323-2.537-0.364-3.774
		c-0.006-0.309-0.017-0.618-0.017-0.924c0.005-0.305,0.01-0.61,0.015-0.914l0.003-0.179l0.005-0.1l0.011-0.2l0.022-0.399
		c0.01-0.242,0.039-0.588,0.064-0.903l0.039-0.477c0.014-0.157,0.034-0.302,0.051-0.453c0.038-0.299,0.064-0.598,0.115-0.895
		c0.048-0.297,0.095-0.593,0.142-0.889c0.057-0.295,0.114-0.588,0.17-0.881c0.127-0.584,0.259-1.164,0.417-1.735
		c0.074-0.286,0.162-0.569,0.25-0.85l0.13-0.421l0.143-0.416c0.755-2.217,1.781-4.27,2.956-6.097
		c1.173-1.833,2.484-3.449,3.821-4.885c1.34-1.435,2.703-2.698,4.026-3.844c2.651-2.288,5.126-4.143,7.17-5.886
		c1.023-0.869,1.942-1.706,2.74-2.52c0.804-0.812,1.462-1.617,2.018-2.379c0.139-0.191,0.262-0.383,0.389-0.568
		c0.115-0.19,0.234-0.373,0.339-0.556c0.099-0.184,0.211-0.359,0.299-0.536c0.088-0.177,0.183-0.346,0.258-0.515
		c0.318-0.672,0.53-1.279,0.678-1.782c0.036-0.127,0.071-0.246,0.103-0.357c0.027-0.113,0.053-0.219,0.076-0.317
		c0.024-0.099,0.046-0.189,0.066-0.272c0.016-0.084,0.03-0.159,0.043-0.227C112.44,0.14,112.467,0,112.467,0s0.02,0.142,0.059,0.417
		c0.009,0.069,0.019,0.147,0.03,0.233c0.007,0.086,0.015,0.181,0.023,0.284c0.008,0.104,0.016,0.215,0.026,0.335
		c0.002,0.12,0.005,0.249,0.007,0.385c0.011,0.275-0.008,0.58-0.021,0.92c-0.016,0.169-0.033,0.347-0.05,0.531
		c-0.02,0.185-0.053,0.376-0.082,0.576c-0.128,0.798-0.358,1.714-0.738,2.695c-0.74,1.975-2.088,4.186-3.84,6.44
		c-1.744,2.264-3.872,4.599-5.986,7.14c-1.055,1.271-2.102,2.598-3.077,3.995c-0.972,1.398-1.864,2.871-2.609,4.42
		c-0.369,0.776-0.71,1.567-0.999,2.381c-0.287,0.814-0.535,1.645-0.734,2.495l-0.075,0.319l-0.064,0.322
		c-0.043,0.215-0.089,0.429-0.121,0.647c-0.08,0.432-0.138,0.872-0.194,1.312c-0.023,0.221-0.045,0.443-0.068,0.666
		c-0.015,0.224-0.031,0.448-0.046,0.673c-0.019,0.224-0.019,0.452-0.03,0.678c-0.004,0.112-0.011,0.23-0.012,0.337l0,0.316
		c0,0.215-0.006,0.399,0.003,0.689l0.009,0.4l0.004,0.2l0.002,0.1c0,0.032,0.003-0.096,0.003-0.021l0.003,0.043
		c0.014,0.23,0.027,0.461,0.041,0.692c0.014,0.23,0.04,0.457,0.058,0.686c0.089,0.912,0.234,1.806,0.431,2.676
		c0.196,0.871,0.453,1.716,0.775,2.535c0.316,0.821,0.697,1.618,1.144,2.397c0.447,0.778,0.949,1.545,1.527,2.3
		c0.576,0.754,1.207,1.506,1.889,2.259c1.371,1.502,2.937,3.024,4.57,4.649c1.626,1.635,3.319,3.386,4.877,5.358l0.579,0.746
		l0.565,0.766c0.182,0.263,0.366,0.522,0.544,0.787c0.176,0.268,0.355,0.532,0.526,0.805c0.686,1.085,1.321,2.213,1.871,3.38
		c0.551,1.165,1.033,2.36,1.431,3.569c0.395,1.21,0.71,2.431,0.958,3.646c0.243,1.216,0.422,2.428,0.531,3.624
		c0.033,0.3,0.057,0.597,0.074,0.894c0.018,0.297,0.044,0.594,0.053,0.889c0.011,0.295,0.021,0.589,0.032,0.882
		c0.006,0.145,0.008,0.296,0.009,0.449l0.004,0.455c0.011,0.638-0.009,1.129-0.025,1.661l-0.007,0.252l-0.013,0.212l-0.027,0.423
		c-0.018,0.281-0.036,0.561-0.054,0.841c-0.047,1.118-0.207,2.224-0.331,3.314c-0.027,0.273-0.08,0.543-0.123,0.814
		c-0.045,0.27-0.09,0.539-0.134,0.807c-0.094,0.536-0.176,1.069-0.302,1.593c-0.117,0.524-0.232,1.046-0.347,1.563
		c-0.026,0.13-0.061,0.258-0.097,0.385l-0.106,0.382c-0.071,0.254-0.141,0.507-0.211,0.759c-0.07,0.252-0.14,0.502-0.21,0.752
		c-0.074,0.249-0.16,0.494-0.239,0.739c-0.161,0.49-0.325,0.975-0.488,1.454c-0.183,0.473-0.365,0.942-0.546,1.408
		c-0.093,0.231-0.174,0.465-0.278,0.691c-0.101,0.226-0.201,0.451-0.301,0.675c-0.778,1.798-1.686,3.46-2.625,4.998
		c-0.24,0.381-0.478,0.758-0.712,1.131c-0.251,0.362-0.498,0.72-0.743,1.074c-0.124,0.175-0.241,0.353-0.37,0.522
		c-0.128,0.169-0.255,0.337-0.381,0.505c-0.127,0.166-0.252,0.332-0.377,0.496c-0.125,0.164-0.249,0.327-0.381,0.483
		c-0.259,0.314-0.515,0.623-0.767,0.928c-0.124,0.154-0.255,0.3-0.386,0.445c-0.13,0.145-0.26,0.289-0.388,0.432
		c-0.504,0.578-1.036,1.103-1.535,1.618c-0.521,0.498-1.011,0.989-1.519,1.427c-0.252,0.221-0.492,0.443-0.739,0.651
		c-0.248,0.205-0.492,0.405-0.731,0.602c-0.236,0.199-0.479,0.38-0.711,0.562c-0.235,0.179-0.458,0.361-0.688,0.526
		c-0.454,0.336-0.892,0.646-1.316,0.928c-0.418,0.289-0.828,0.544-1.207,0.787c-0.19,0.122-0.382,0.229-0.563,0.338
		c-0.182,0.107-0.356,0.213-0.529,0.308c-0.682,0.392-1.278,0.694-1.764,0.929c-0.486,0.236-0.867,0.398-1.124,0.504
		C92.724,123.399,92.588,123.445,92.588,123.445z"/>
	<path fill="#603813" d="M82.177,126.353c0,0,0.077-0.059,0.221-0.176c0.144-0.117,0.354-0.296,0.626-0.529
		c0.27-0.235,0.6-0.528,0.979-0.878c0.189-0.176,0.393-0.364,0.604-0.571c0.214-0.203,0.44-0.42,0.672-0.656
		c0.935-0.936,2.031-2.101,3.195-3.501c1.165-1.397,2.394-3.032,3.584-4.894c0.289-0.471,0.604-0.937,0.887-1.436
		c0.145-0.246,0.292-0.495,0.44-0.746c0.145-0.252,0.279-0.514,0.421-0.773c0.14-0.26,0.281-0.522,0.424-0.786
		c0.135-0.268,0.27-0.538,0.407-0.81c0.283-0.538,0.528-1.106,0.786-1.674c1.012-2.282,1.901-4.754,2.552-7.376
		c0.655-2.62,1.094-5.379,1.296-8.207c0.019-0.354,0.038-0.709,0.057-1.064l0.031-0.533l0.016-0.267
		c0.004-0.089,0.002-0.179,0.004-0.268c0.008-0.705,0.016-1.412,0.023-2.12c-0.008-0.378-0.017-0.756-0.025-1.134
		c-0.017-0.343-0.033-0.686-0.05-1.03l-0.078-1.06l-0.11-1.052c-0.161-1.399-0.416-2.772-0.754-4.109
		c-0.165-0.67-0.371-1.324-0.579-1.975c-0.224-0.645-0.459-1.283-0.729-1.905c-0.526-1.249-1.158-2.443-1.861-3.592
		c-0.708-1.147-1.489-2.247-2.326-3.306c-1.666-2.122-3.535-4.087-5.3-6.058c-0.879-0.988-1.746-1.964-2.544-2.963
		c-0.796-0.999-1.544-1.999-2.193-3.014c-0.647-1.016-1.219-2.028-1.682-3.03c-0.46-1.003-0.834-1.981-1.106-2.92
		c-0.272-0.939-0.473-1.826-0.599-2.653c-0.118-0.828-0.205-1.585-0.225-2.271c-0.007-0.171-0.018-0.337-0.02-0.499
		c-0.002-0.162-0.003-0.318-0.004-0.47c-0.006-0.303,0.006-0.588,0.017-0.852c0.01-0.527,0.059-0.974,0.086-1.334
		c0.033-0.36,0.076-0.635,0.098-0.82c0.024-0.185,0.036-0.28,0.036-0.28s0.062,0.378,0.177,1.088
		c0.128,0.705,0.322,1.734,0.673,2.997c0.045,0.158,0.089,0.319,0.139,0.484c0.052,0.164,0.105,0.331,0.16,0.503
		c0.027,0.086,0.054,0.172,0.082,0.26c0.031,0.086,0.062,0.174,0.094,0.262c0.064,0.176,0.125,0.357,0.194,0.539
		c0.283,0.726,0.608,1.496,1.017,2.283c0.805,1.58,1.916,3.226,3.349,4.854c0.359,0.406,0.733,0.817,1.125,1.228
		c0.397,0.408,0.805,0.82,1.237,1.23c0.857,0.824,1.772,1.666,2.742,2.529c1.929,1.733,4.048,3.595,6.075,5.83
		c1.015,1.112,1.992,2.328,2.898,3.636c0.448,0.658,0.88,1.336,1.286,2.039c0.399,0.705,0.782,1.428,1.126,2.174
		c0.354,0.741,0.655,1.509,0.948,2.282c0.277,0.778,0.536,1.565,0.747,2.364c0.438,1.595,0.738,3.222,0.933,4.847l0.121,1.219
		l0.083,1.217c0.018,0.416,0.032,0.832,0.045,1.248c0.003,0.381,0.005,0.762,0.008,1.142l0,0.18l-0.004,0.15l-0.009,0.299
		l-0.019,0.597c-0.015,0.398-0.029,0.795-0.044,1.192c-0.004,0.099-0.006,0.198-0.013,0.297l-0.025,0.297l-0.049,0.593
		c-0.034,0.395-0.069,0.789-0.103,1.182c-0.329,3.143-0.983,6.207-1.917,9.07c-0.931,2.865-2.154,5.52-3.536,7.888
		c-0.352,0.589-0.689,1.174-1.062,1.725c-0.182,0.278-0.362,0.554-0.541,0.827c-0.183,0.271-0.379,0.53-0.566,0.791
		c-0.19,0.259-0.372,0.52-0.564,0.77c-0.194,0.248-0.387,0.494-0.578,0.737c-0.374,0.491-0.772,0.949-1.159,1.397
		c-0.097,0.112-0.193,0.223-0.289,0.334c-0.099,0.108-0.198,0.215-0.297,0.321c-0.196,0.212-0.391,0.422-0.583,0.63
		c-0.386,0.412-0.781,0.799-1.162,1.178c-0.392,0.369-0.774,0.726-1.148,1.067c-0.384,0.333-0.748,0.663-1.119,0.963
		c-1.47,1.215-2.829,2.163-3.982,2.881c-0.574,0.362-1.1,0.664-1.562,0.914c-0.46,0.254-0.861,0.453-1.187,0.61
		c-0.326,0.158-0.582,0.266-0.753,0.339C82.267,126.318,82.177,126.353,82.177,126.353z"/>
	<path fill="#603813" d="M55.336,127.017c0,0-0.315-0.254-0.865-0.763c-0.136-0.129-0.29-0.27-0.452-0.432
		c-0.165-0.159-0.343-0.335-0.532-0.526c-0.376-0.387-0.802-0.833-1.256-1.351c-0.455-0.516-0.941-1.099-1.444-1.748
		c-0.503-0.649-1.012-1.374-1.534-2.152c-0.508-0.79-1.025-1.637-1.515-2.555c-0.127-0.226-0.237-0.467-0.36-0.702
		c-0.06-0.118-0.121-0.237-0.182-0.357c-0.062-0.119-0.114-0.244-0.172-0.367c-0.114-0.246-0.229-0.494-0.345-0.746
		c-0.107-0.255-0.214-0.513-0.323-0.773c-0.053-0.131-0.113-0.258-0.16-0.393c-0.05-0.133-0.1-0.267-0.15-0.401
		c-0.05-0.134-0.101-0.269-0.152-0.404c-0.052-0.135-0.103-0.27-0.146-0.41c-0.091-0.276-0.183-0.556-0.275-0.837
		c-0.05-0.139-0.089-0.283-0.129-0.427c-0.041-0.144-0.082-0.288-0.123-0.432c-0.041-0.144-0.082-0.289-0.124-0.435
		c-0.043-0.145-0.072-0.295-0.11-0.443c-0.072-0.296-0.144-0.594-0.217-0.894c-0.059-0.303-0.119-0.609-0.179-0.917
		c-0.03-0.154-0.064-0.306-0.09-0.462c-0.023-0.156-0.047-0.313-0.07-0.47c-0.045-0.314-0.099-0.628-0.139-0.946
		c-0.034-0.319-0.069-0.64-0.104-0.964c-0.042-0.321-0.055-0.649-0.075-0.977c-0.011-0.164-0.022-0.328-0.033-0.493
		c-0.01-0.165-0.027-0.329-0.025-0.496c-0.006-0.332-0.012-0.667-0.018-1.002c-0.014-0.334,0.001-0.673,0.008-1.013
		c0.004-0.17,0.008-0.34,0.012-0.51l0.006-0.256l0.003-0.128c0-0.044,0,0.024,0.001,0.004l0.002-0.035l0.004-0.069
		c0.023-0.365,0.037-0.764,0.069-1.06l0.021-0.24c0.006-0.079,0.013-0.16,0.024-0.245c0.019-0.167,0.038-0.335,0.057-0.503
		c0.018-0.168,0.046-0.333,0.069-0.5l0.035-0.25c0.012-0.083,0.027-0.165,0.041-0.248c0.103-0.664,0.247-1.316,0.417-1.957
		c0.334-1.286,0.804-2.516,1.418-3.685c0.309-0.583,0.647-1.156,1.026-1.714c0.093-0.14,0.194-0.278,0.29-0.417
		c0.099-0.138,0.203-0.275,0.304-0.413l0.315-0.411l0.329-0.408c0.896-1.082,1.92-2.144,3.027-3.245
		c1.101-1.109,2.288-2.256,3.435-3.568c0.574-0.655,1.139-1.348,1.666-2.091c0.528-0.741,1.026-1.529,1.456-2.361
		c0.431-0.831,0.802-1.7,1.099-2.585c0.294-0.887,0.513-1.79,0.664-2.686c0.151-0.897,0.227-1.787,0.256-2.659
		c0.004-0.217,0.012-0.435,0.012-0.651c-0.003-0.215-0.007-0.429-0.01-0.644l-0.002-0.126l-0.004-0.07l-0.008-0.141l-0.015-0.281
		c-0.007-0.171-0.027-0.414-0.045-0.636l-0.028-0.336c-0.01-0.111-0.024-0.213-0.036-0.319c-0.027-0.211-0.045-0.421-0.081-0.631
		c-0.034-0.209-0.067-0.418-0.1-0.626c-0.04-0.207-0.08-0.414-0.12-0.621c-0.089-0.412-0.182-0.82-0.294-1.222
		c-0.052-0.202-0.114-0.401-0.176-0.599l-0.092-0.297l-0.101-0.293c-0.532-1.562-1.255-3.008-2.083-4.296
		c-0.826-1.291-1.75-2.43-2.692-3.442c-0.944-1.011-1.904-1.9-2.836-2.708c-1.868-1.612-3.611-2.919-5.051-4.146
		c-0.721-0.612-1.368-1.202-1.931-1.775c-0.566-0.572-1.03-1.139-1.421-1.676c-0.098-0.134-0.184-0.27-0.274-0.4
		c-0.081-0.134-0.165-0.263-0.239-0.391c-0.07-0.13-0.148-0.253-0.211-0.378c-0.062-0.125-0.129-0.244-0.182-0.363
		c-0.224-0.474-0.373-0.901-0.478-1.255c-0.026-0.089-0.05-0.173-0.072-0.252c-0.019-0.08-0.037-0.154-0.054-0.223
		c-0.017-0.069-0.032-0.133-0.047-0.192c-0.011-0.059-0.021-0.112-0.031-0.16c-0.037-0.192-0.056-0.291-0.056-0.291
		s-0.014,0.1-0.041,0.294c-0.006,0.049-0.013,0.104-0.021,0.164c-0.005,0.061-0.01,0.128-0.016,0.2
		c-0.006,0.073-0.012,0.152-0.018,0.236c-0.002,0.085-0.003,0.175-0.005,0.271c-0.008,0.194,0.006,0.408,0.015,0.648
		c0.011,0.119,0.023,0.244,0.035,0.374c0.014,0.13,0.037,0.265,0.057,0.406c0.09,0.562,0.252,1.207,0.52,1.899
		c0.522,1.392,1.471,2.949,2.705,4.537c1.228,1.595,2.728,3.24,4.217,5.03c0.743,0.895,1.481,1.83,2.167,2.814
		c0.685,0.985,1.313,2.023,1.838,3.114c0.26,0.547,0.5,1.104,0.704,1.677c0.202,0.574,0.377,1.159,0.517,1.758l0.053,0.224
		l0.045,0.227c0.031,0.151,0.062,0.302,0.085,0.456c0.056,0.305,0.097,0.614,0.137,0.925c0.016,0.156,0.032,0.312,0.048,0.469
		c0.011,0.158,0.022,0.315,0.033,0.474c0.013,0.158,0.013,0.318,0.021,0.478c0.003,0.079,0.008,0.162,0.009,0.237l0,0.223
		c0,0.151,0.004,0.281-0.002,0.486l-0.006,0.282l-0.003,0.141l-0.002,0.071c0,0.023-0.002-0.068-0.002-0.015l-0.002,0.03
		c-0.01,0.162-0.019,0.325-0.029,0.488c-0.01,0.162-0.028,0.322-0.041,0.484c-0.062,0.642-0.165,1.272-0.304,1.885
		c-0.138,0.613-0.319,1.209-0.546,1.786c-0.223,0.579-0.491,1.14-0.806,1.688c-0.315,0.548-0.669,1.089-1.076,1.62
		c-0.406,0.531-0.85,1.061-1.331,1.591c-0.966,1.058-2.069,2.13-3.22,3.275c-1.145,1.152-2.338,2.386-3.436,3.775l-0.408,0.526
		l-0.398,0.54c-0.128,0.185-0.258,0.368-0.383,0.555c-0.124,0.189-0.25,0.375-0.37,0.567c-0.484,0.764-0.931,1.559-1.318,2.381
		c-0.388,0.821-0.728,1.663-1.008,2.514c-0.278,0.853-0.5,1.713-0.675,2.569c-0.171,0.857-0.297,1.711-0.374,2.553
		c-0.023,0.211-0.04,0.421-0.052,0.63c-0.012,0.209-0.031,0.419-0.037,0.626c-0.008,0.208-0.015,0.415-0.022,0.621
		c-0.005,0.102-0.006,0.209-0.006,0.316l-0.003,0.32c-0.008,0.45,0.007,0.795,0.017,1.17l0.005,0.178l0.009,0.149l0.019,0.298
		c0.013,0.198,0.025,0.396,0.038,0.593c0.033,0.788,0.146,1.567,0.233,2.335c0.019,0.192,0.056,0.383,0.086,0.573
		c0.032,0.19,0.063,0.38,0.095,0.569c0.066,0.378,0.124,0.753,0.213,1.122c0.082,0.369,0.164,0.737,0.245,1.101
		c0.019,0.091,0.043,0.181,0.069,0.271l0.074,0.269c0.05,0.179,0.099,0.357,0.149,0.535c0.05,0.177,0.099,0.354,0.148,0.53
		c0.052,0.175,0.113,0.348,0.168,0.521c0.113,0.345,0.229,0.687,0.344,1.024c0.129,0.333,0.257,0.664,0.384,0.992
		c0.065,0.163,0.123,0.328,0.196,0.487c0.071,0.159,0.142,0.318,0.212,0.475c0.548,1.267,1.188,2.437,1.849,3.521
		c0.169,0.268,0.336,0.534,0.502,0.797c0.177,0.255,0.351,0.507,0.524,0.756c0.088,0.123,0.17,0.249,0.26,0.368
		c0.09,0.119,0.18,0.238,0.268,0.356c0.089,0.117,0.178,0.234,0.266,0.35c0.088,0.116,0.175,0.231,0.268,0.34
		c0.183,0.221,0.363,0.439,0.541,0.654c0.087,0.108,0.18,0.211,0.272,0.313c0.092,0.102,0.183,0.204,0.274,0.304
		c0.355,0.407,0.73,0.777,1.082,1.14c0.367,0.351,0.712,0.696,1.07,1.005c0.177,0.156,0.347,0.312,0.52,0.458
		c0.175,0.144,0.347,0.285,0.515,0.424c0.166,0.14,0.337,0.268,0.501,0.396c0.166,0.126,0.323,0.255,0.485,0.371
		c0.32,0.236,0.628,0.455,0.927,0.654c0.295,0.203,0.583,0.383,0.851,0.555c0.134,0.086,0.269,0.161,0.397,0.238
		c0.128,0.076,0.251,0.15,0.373,0.217c0.48,0.276,0.901,0.489,1.243,0.655c0.343,0.166,0.611,0.28,0.792,0.355
		C55.24,126.984,55.336,127.017,55.336,127.017z"/>
	<path fill="#603813" d="M62.67,129.065c0,0-0.054-0.041-0.155-0.124c-0.102-0.083-0.249-0.209-0.441-0.373
		c-0.19-0.166-0.422-0.372-0.69-0.618c-0.133-0.124-0.277-0.256-0.425-0.402c-0.151-0.143-0.31-0.296-0.474-0.462
		c-0.659-0.659-1.431-1.48-2.251-2.466c-0.821-0.984-1.687-2.136-2.525-3.448c-0.204-0.332-0.425-0.66-0.625-1.011
		c-0.102-0.173-0.206-0.349-0.31-0.525c-0.102-0.178-0.197-0.362-0.297-0.545c-0.099-0.183-0.198-0.368-0.299-0.554
		c-0.095-0.189-0.19-0.379-0.287-0.571c-0.199-0.379-0.372-0.779-0.554-1.179c-0.713-1.608-1.339-3.349-1.798-5.196
		c-0.462-1.846-0.77-3.79-0.913-5.782c-0.013-0.249-0.027-0.499-0.04-0.75l-0.022-0.376l-0.011-0.188
		c-0.003-0.063-0.002-0.126-0.003-0.189c-0.006-0.497-0.011-0.994-0.016-1.493c0.006-0.266,0.012-0.532,0.018-0.799
		c0.012-0.242,0.023-0.483,0.035-0.725l0.055-0.746l0.078-0.741c0.114-0.985,0.293-1.953,0.531-2.895
		c0.116-0.472,0.262-0.933,0.408-1.391c0.158-0.454,0.324-0.904,0.513-1.342c0.37-0.88,0.816-1.721,1.311-2.531
		c0.499-0.808,1.049-1.583,1.638-2.329c1.174-1.495,2.49-2.879,3.734-4.268c0.619-0.696,1.23-1.384,1.792-2.088
		c0.561-0.704,1.088-1.408,1.545-2.124c0.456-0.716,0.859-1.429,1.185-2.135c0.324-0.706,0.587-1.395,0.779-2.057
		c0.191-0.661,0.333-1.286,0.422-1.869c0.083-0.583,0.144-1.116,0.158-1.6c0.005-0.121,0.013-0.237,0.014-0.351
		c0.001-0.114,0.002-0.224,0.003-0.331c0.004-0.214-0.004-0.414-0.012-0.6c-0.007-0.371-0.042-0.686-0.061-0.939
		c-0.023-0.254-0.054-0.447-0.069-0.578c-0.017-0.13-0.025-0.197-0.025-0.197s-0.043,0.267-0.125,0.767
		c-0.09,0.496-0.227,1.222-0.474,2.111c-0.032,0.111-0.062,0.225-0.098,0.341c-0.037,0.115-0.074,0.233-0.113,0.354
		c-0.019,0.06-0.038,0.121-0.058,0.183c-0.022,0.061-0.044,0.122-0.066,0.185c-0.045,0.124-0.088,0.251-0.137,0.38
		c-0.2,0.511-0.428,1.054-0.716,1.609c-0.567,1.113-1.35,2.273-2.36,3.419c-0.253,0.286-0.516,0.576-0.792,0.865
		c-0.28,0.288-0.567,0.578-0.872,0.867c-0.604,0.581-1.248,1.174-1.932,1.781c-1.359,1.221-2.852,2.533-4.28,4.107
		c-0.715,0.783-1.404,1.64-2.042,2.561c-0.316,0.463-0.62,0.942-0.906,1.436c-0.281,0.497-0.551,1.006-0.793,1.531
		c-0.25,0.522-0.462,1.063-0.668,1.608c-0.195,0.548-0.378,1.103-0.526,1.665c-0.308,1.123-0.52,2.27-0.657,3.415l-0.085,0.859
		l-0.059,0.857c-0.013,0.293-0.023,0.586-0.032,0.879c-0.002,0.268-0.004,0.537-0.005,0.805l0,0.127l0.003,0.105l0.006,0.211
		l0.013,0.421c0.01,0.28,0.02,0.56,0.031,0.839c0.003,0.07,0.004,0.14,0.009,0.209l0.017,0.209l0.035,0.418
		c0.024,0.278,0.049,0.556,0.073,0.833c0.232,2.214,0.692,4.373,1.351,6.39c0.656,2.018,1.518,3.889,2.491,5.557
		c0.248,0.415,0.486,0.827,0.749,1.215c0.128,0.196,0.255,0.39,0.381,0.583c0.129,0.191,0.267,0.373,0.398,0.557
		c0.134,0.182,0.262,0.366,0.397,0.542c0.137,0.175,0.273,0.348,0.407,0.519c0.264,0.346,0.544,0.669,0.816,0.984
		c0.068,0.079,0.136,0.157,0.204,0.235c0.07,0.076,0.14,0.151,0.209,0.226c0.138,0.15,0.275,0.298,0.411,0.444
		c0.272,0.291,0.55,0.563,0.818,0.83c0.276,0.26,0.545,0.511,0.809,0.752c0.27,0.235,0.527,0.467,0.789,0.678
		c1.036,0.856,1.993,1.524,2.806,2.029c0.404,0.255,0.775,0.468,1.101,0.644c0.324,0.179,0.607,0.319,0.837,0.429
		c0.229,0.111,0.41,0.187,0.531,0.239C62.607,129.04,62.67,129.065,62.67,129.065z"/>
	<path fill="#603813" d="M112.069,118.139c-20.131,15.47-36.908,20.319-81.644,13.608c-3.631-0.544-7.21-0.722-10.722-0.592
		c6.039,30.018,32.554,52.625,64.35,52.625c35.494,0,64.408-28.172,65.602-63.376C135.815,113.54,123.052,109.699,112.069,118.139z"
		/>
</g>
<g>
	<path fill="#231F20" d="M201.564,116.844c-0.073-4.574-0.965-8.744-2.651-12.394c-1.582-3.424-3.861-6.401-6.775-8.847
		c-5.572-4.677-13.26-7.331-22.853-7.888c-3.74-0.217-7.048-0.057-9.294,0.135c-1.335-4.215-2.314-6.62-2.314-6.62h-12.686
		c6.533,10.764,10.295,23.396,10.295,36.908c0,39.341-31.892,71.233-71.233,71.233c-39.341,0-71.233-31.892-71.233-71.233
		c0-13.511,3.762-26.144,10.295-36.908H9.686c0,0-33.405,82.071,23.858,127.871c-0.013,0.191-0.022,0.384-0.022,0.579v4.305
		c0,4.613,3.775,8.388,8.388,8.388h82.885c4.613,0,8.388-3.775,8.388-8.388v-4.305c0-0.023-0.002-0.046-0.002-0.068
		c10.317-8.108,17.746-17.379,22.985-27.147c9.133-1.436,16.952-4.201,23.262-8.229c6.341-4.048,11.36-9.482,14.918-16.154
		C201.086,145.442,201.777,130.143,201.564,116.844z M181.833,151.41c-3.872,7.261-10.025,12.155-19.022,15.017
		c7.227-23.628,4.545-48.007,0.903-64.6c1.463-0.053,3.189-0.056,5.041,0.064c4.368,0.282,10.392,1.308,14.289,4.594
		c2.846,2.401,4.266,5.864,4.342,10.587C187.57,128.557,187.054,141.619,181.833,151.41z"/>
</g>
</svg>
