<?xml version="1.0" encoding="utf-8"?>
<!-- Generator: Adobe Illustrator 24.3.0, SVG Export Plug-In . SVG Version: 6.00 Build 0)  -->
<svg version="1.1" id="Layer_2" xmlns="http://www.w3.org/2000/svg" xmlns:xlink="http://www.w3.org/1999/xlink" x="0px" y="0px"
	 viewBox="0 0 181.588 331.458" enable-background="new 0 0 181.588 331.458" xml:space="preserve">
<g>
	<path id="XMLID_2777_" fill="#D51F31" d="M176.705,226.702c-3.808-28.533-18.101-57.065-33.323-81.01
		c-14.673-23.991-1.601-43.905,7.945-59.62c10.097-15.516,16.666-26.833,1.712-29.05c-2.022-0.363-3.888-0.571-5.627-0.647
		c-0.388-3.4-0.776-6.799-1.164-10.199c-0.174-1.52-1.365-2.582-2.653-2.392c-1.29,0.191-2.22,1.568-2.075,3.092
		c0.312,3.224,0.623,6.447,0.934,9.671c-17.7,1.904-22.125,22.832-32.184,16.785c-3.099-1.981-6.254-3.792-9.6-5.101
		c-4.39-1.707-10.175-3.947-15.602-5.559c0.544-5.271,1.088-10.542,1.631-15.814c0.153-1.523-0.766-2.908-2.057-3.111
		c-1.291-0.202-2.485,0.849-2.671,2.367c-0.616,5.1-1.231,10.2-1.847,15.3c-8.856-1.84-15.772-0.111-10.864,14.422
		c10.199,29.989,35.938,40.928,20.821,60.074c-6.6,4.391-23.346,16.526-40.654,36.945c-2.38,2.808-4.771,5.773-7.147,8.896
		c8.016,2.406,14.995,3.5,21.066,3.652c30.775,0.775,38.158-22.68,38.158-22.68c-8.052,10.366-19.535,13.188-31.331,12.93
		c8.999-12.127,19.078-22.933,30.134-31.219c9.14,7.048,22.67,18.604,35.014,33.496c10.472,13.171,20.07,29.646,22.56,50.913
		c2.265,21.22-2.577,47.231-26.182,78.39c-0.447,0.569-0.876,1.128-1.311,1.69c5.763-2.405,11.092-5.135,15.828-8.106
		C173.771,283.258,180.48,254.979,176.705,226.702z"/>
	<path id="XMLID_2776_" fill="#D51F31" d="M124.06,184.853c-5.674-14.15-12.549-21.499-12.549-21.499
		c21.546,38.699,10.715,83.565,10.715,83.565c-21.737-4.255-49.777-30.654-66.815-48.701c-6.64-7.033-11.606-12.792-13.879-15.482
		c-2.72,3.616-5.417,7.442-8.054,11.476C17.522,218.617,3.75,250.705,0.464,290.95c-8.788,107.625,110.146-36.106,113.661-11.11
		c0,0,5.116-15.431-15.977-7.099c-21.093,8.333-63.278,42.589-75.778,37.034c-7.88-3.502,2.456-53.425,26.764-100.132
		c24.994,23.151,59.372,50.082,72.687,61.689c3.301-8.32,6.635-19.306,8.137-32.198C132.121,220.576,130.139,202.448,124.06,184.853
		z"/>
	<path fill-rule="evenodd" clip-rule="evenodd" fill="#D51F31" d="M106.448,19.639c0-1.375,1.135-2.488,2.541-2.488
		c3.442,0,6.234-2.728,6.234-6.09c0-3.362-2.792-6.09-6.234-6.09c-4.63,0-7.704,4.832-5.541,8.903
		c0.645,1.215,0.155,2.712-1.092,3.335c-1.241,0.629-2.776,0.149-3.415-1.066C95.014,8.754,100.587,0,108.989,0
		c6.25,0,11.317,4.955,11.317,11.061c0,4.502-2.787,8.541-7.028,10.24v7.331c2.675,1.129,5.429,2.286,8.248,3.447
		c6.053,2.488,12.388,5.008,18.829,7.363c13.831,5.062,28.158,9.383,41.233,11.119c-1.241,7.507-3.98,12.681-11.269,12.579
		c-9.644-4.571-19.847-9.127-30.012-13.645c-10.736-4.769-21.434-9.5-31.387-14.167c-8.178,3.953-16.687,8.429-25.35,12.761
		C71.07,54.345,58.256,60.307,45.682,64.01c-3.181-3.639-4.838-10.496-1.79-14.636c13.57-3.101,27.093-6.591,39.656-10.752
		c6.085-2.009,11.945-4.183,17.476-6.543c2.536-1.082,5.003-2.206,7.39-3.373"/>
</g>
</svg>
