<?xml version="1.0" encoding="utf-8"?>
<!-- Generator: Adobe Illustrator 24.3.0, SVG Export Plug-In . SVG Version: 6.00 Build 0)  -->
<svg version="1.1" id="Layer_2" xmlns="http://www.w3.org/2000/svg" xmlns:xlink="http://www.w3.org/1999/xlink" x="0px" y="0px"
	 viewBox="0 0 160.137 235.136" enable-background="new 0 0 160.137 235.136" xml:space="preserve">
<g>
	<path fill="#211C1D" d="M121.436,140.163h-0.107v53.784l15.977-4.318v-38.096L121.436,140.163L121.436,140.163z"/>
	<path fill="#211C1D" d="M137.306,189.629L71.5,207.398v13.28l65.807-17.518l22.831-6.078L137.306,189.629L137.306,189.629z"/>
	<path fill="#211C1D" d="M70.108,19.067v113.841h20.568V19.067L80.393,0L70.108,19.067L70.108,19.067z"/>
	<path fill="#211C1D" d="M103.02,72.161h-0.138v60.747h20.568V97.227L103.02,72.161L103.02,72.161z"/>
	<path fill="#211C1D" d="M96.958,200.528l15.977-4.318v-56.069H96.958V200.528L96.958,200.528z"/>
	<path fill="#211C1D" d="M71.5,207.398l15.977-4.313v-62.944H71.5V207.398L71.5,207.398z"/>
</g>
<g>
	<path fill="#F68C14" d="M22.756,151.533v44.955l15.977,4.313v-60.638h-0.107L22.756,151.533L22.756,151.533z"/>
	<path fill="#F68C14" d="M0,204.241l63.105,16.662v-13.521l-40.349-10.894L0,204.241L0,204.241z"/>
	<path fill="#F68C14" d="M38.733,97.227v35.681h20.568V72.161h-0.138L38.733,97.227L38.733,97.227z"/>
	<path fill="#F68C14" d="M47.128,203.07l15.977,4.313v-67.241H47.128V203.07L47.128,203.07z"/>
	<path fill="#F68C14" d="M67.572,235.136L0,207.398l67.754,16.897l92.383-23.494L67.572,235.136L67.572,235.136z"/>
</g>
</svg>
