<?xml version="1.0" encoding="utf-8"?>
<!-- Generator: Adobe Illustrator 24.3.0, SVG Export Plug-In . SVG Version: 6.00 Build 0)  -->
<svg version="1.1" id="Layer_6" xmlns="http://www.w3.org/2000/svg" xmlns:xlink="http://www.w3.org/1999/xlink" x="0px" y="0px"
	 viewBox="0 0 228.586 176.911" enable-background="new 0 0 228.586 176.911" xml:space="preserve">
<g>
	<path fill-rule="evenodd" clip-rule="evenodd" fill="#603723" d="M227.293,85.198l-8.436,0.443h-0.389
		c-19.42-9.046-31.907-24.639-42.008-43.147c-12.652,49.168-84.683,69.577-174.805,16.11l-0.665-0.432l79.356-9.547l24.585,30.163
		L62.866,12.362L20.773,51.262l-10.098,1.304L60.036,7.782L59.73,7.41l44.701-1.097l-0.222,8.089l4.495,1.955l1.441-15.871
		L123.576,0l-2.054,1.872L120.8,2.665l-0.443,4.52L130.79,5.66l19.033,29.22l-25.583,1.387l57.16-0.514l-1.222,1.597l1.276-1.526
		c9.822,18.491,21.699,38.331,45.892,49.375H227.293z M59.204,29.552l-6.467,0.207l-0.636,6.424l6.493-0.224L59.204,29.552z
		 M58.343,38.22l-6.464,0.168l-0.668,6.395l6.492-0.236L58.343,38.22z M67.083,37.902l-6.435,0.179l-0.611,6.396l6.381-0.222
		L67.083,37.902z M68.026,29.245l-6.41,0.236l-0.747,6.396l6.435-0.193L68.026,29.245z M176.017,67.798l-8.99,0.168l-0.943,9.072
		l8.99-0.386L176.017,67.798z M174.795,79.814l-8.99,0.278l-0.943,8.879l8.99-0.278L174.795,79.814z M187.004,79.371l-9.044,0.275
		l-0.943,8.879l7.989-3.245L187.004,79.371z M188.226,67.355l-8.99,0.278l-1,8.961l9.047-0.304L188.226,67.355z"/>
	<path fill-rule="evenodd" clip-rule="evenodd" fill="#603723" d="M228.586,90.574c0,0-143.92,73.71-226.412-26.731L0,60.993v103.29
		C0,164.284,149.26,222.02,228.586,90.574z"/>
</g>
</svg>
