<?xml version="1.0" encoding="utf-8"?>
<!-- Generator: Adobe Illustrator 24.3.0, SVG Export Plug-In . SVG Version: 6.00 Build 0)  -->
<svg version="1.1" id="Layer_6" xmlns="http://www.w3.org/2000/svg" xmlns:xlink="http://www.w3.org/1999/xlink" x="0px" y="0px"
	 viewBox="0 0 255.776 208.302" enable-background="new 0 0 255.776 208.302" xml:space="preserve">
<g>
	<path fill="#07426B" d="M138.831,52.878c2.74-9.901,3.612-15.963,3.674-25.843c4.526-0.643,7.514-0.374,11.334-3.736
		c8.345-7.348,2.284-19.823-9.611-19.823c-6.954,0-13.472,4.836-13.472,11.666h-3.467c0-13.389,18.163-20.176,28.832-10.773
		c10.192,8.988,4.006,24.514-10.15,25.823c-0.063,7.286-1.516,15.173-3.529,22.667c6.497,0.249,12.102,2.055,16.647,5.75
		c0.394-3.3-0.021-5.397-0.623-8.594l1.91-0.187c7.306-0.644,16.958,3.114,26.466,8.469c13.742,7.722,27.317,18.827,32.651,24.452
		c0.104,0.062,0.478,0.249,0.519,0.291c3.861,2.138,8.947,6.497,13.43,11.666c6.601,7.618,16.191,22.418,6.746,30.576
		c-8.947,7.743-14.344,19.865-17.644,32.133c-1.868,6.891-30.97,15.775-31.157,16.627c-1.142,2.449-2.927,4.712-5.168,6.829
		c-6.269,5.833-16.253,10.316-25.615,12.87c-9.382,2.553-20.965,3.819-24.618-0.083c-12.891-13.824-41.577,1.765-47.556-2.926
		c-3.529-2.782-21.277-18.745-23.249-23.352c-4.068-6.829-12.849-10.4-19.491-13.119c-4.048-1.64-7.348-2.989-8.884-4.774
		C13.04,121.689,8.038,88.353,13.891,51.611c11.438-1.287,20.654-1.785,29.268-1.245c7.888,0.498,14.281,1.868,19.18,4.11
		c8.967,3.114,16.108,3.425,21.443,0.934c5.397-2.262,22.688-2.221,30.804-2.013c2.283,0.062,1.017-6.269,12.454-5.003l3.861,0.415
		c-2.74,2.47-3.84,3.301-6.518,6.456C129.718,53.853,134.513,53.065,138.831,52.878L138.831,52.878z"/>
	<path fill="#07426B" d="M154.289,208.302c-4.099,0-8.159-0.559-12.105-1.67c-3.217-0.905-5.691-2.971-8.084-4.969
		c-2.375-1.983-4.617-3.856-7.487-4.609c-4.444-1.165-9.425-1.247-13.322-0.216c-2.265,0.599-4.537,1.418-6.734,2.211
		c-6.163,2.223-12.533,4.521-19.58,2.308c-3.339-1.049-5.541-3.73-7.671-6.323c-1.461-1.78-2.842-3.46-4.532-4.595
		c-0.901-0.605-1.907-0.984-2.973-1.386c-1.275-0.481-2.595-0.979-3.811-1.903c-1.469-1.114-2.767-2.418-4.021-3.678
		c-0.52-0.522-1.039-1.044-1.57-1.552c-1.337-1.278-2.506-2.712-3.636-4.099c-1.879-2.306-3.654-4.483-6.117-5.97
		c-3.903-2.356-8.402-3.818-12.753-5.231l-0.264-0.085c-1.204-0.392-2.525-0.673-3.924-0.972c-2.062-0.44-4.192-0.895-6.021-1.744
		c-4.197-1.949-6.829-6.308-9.151-10.153c-0.573-0.948-1.133-1.876-1.699-2.74C1.618,124.664-4.355,88.069,3.244,55.418l1.947,0.453
		c-7.479,32.136-1.611,68.138,15.313,93.957c0.58,0.884,1.153,1.833,1.739,2.803c2.28,3.776,4.639,7.681,8.281,9.374
		c1.624,0.754,3.644,1.185,5.596,1.602c1.388,0.296,2.822,0.602,4.126,1.025l0.263,0.085c4.458,1.449,9.068,2.946,13.168,5.422
		c2.761,1.666,4.73,4.082,6.634,6.418c1.092,1.34,2.222,2.725,3.469,3.917c0.542,0.519,1.073,1.052,1.605,1.586
		c1.206,1.212,2.455,2.466,3.812,3.497c0.984,0.748,2.113,1.173,3.308,1.624c1.125,0.424,2.288,0.863,3.382,1.597
		c1.934,1.299,3.474,3.173,4.963,4.986c2.033,2.475,3.954,4.813,6.725,5.684c6.403,2.013,12.183-0.073,18.302-2.281
		c2.237-0.808,4.552-1.643,6.901-2.263c4.217-1.115,9.579-1.035,14.342,0.215c3.301,0.866,5.823,2.972,8.262,5.008
		c2.334,1.949,4.538,3.79,7.343,4.579c4.582,1.289,9.329,1.801,14.1,1.52c8.552-0.502,17.342-3.84,25.418-9.654
		c2.824-2.034,5.376-4.701,7.845-7.28c3.081-3.221,6.269-6.552,10.061-8.741c4.984-2.877,10.293-5.255,15.304-7.443
		c1.218-0.532,2.568-0.966,3.875-1.386c3.246-1.044,6.603-2.124,8.368-4.776c1.192-1.792,1.986-4.291,2.754-6.707
		c0.489-1.542,0.996-3.136,1.601-4.51c3.479-7.907,8.721-19.82,17.831-24.994c1.062-1.913,8.277-15.889-0.1-28.376l1.66-1.114
		c9.69,14.442,0.123,30.584,0.025,30.746l-0.139,0.229l-0.234,0.129c-8.67,4.77-13.812,16.454-17.214,24.186
		c-0.562,1.275-1.029,2.749-1.524,4.309c-0.81,2.549-1.646,5.184-2.996,7.21c-2.152,3.233-5.847,4.422-9.42,5.571
		c-1.317,0.424-2.562,0.824-3.687,1.315c-4.959,2.166-10.21,4.517-15.104,7.343c-3.545,2.046-6.494,5.128-9.616,8.392
		c-2.53,2.645-5.146,5.379-8.121,7.521c-8.385,6.036-17.537,9.503-26.469,10.028C156.057,208.276,155.172,208.302,154.289,208.302z"
		/>
</g>
</svg>
