<?xml version="1.0" encoding="utf-8"?>
<!-- Generator: Adobe Illustrator 24.3.0, SVG Export Plug-In . SVG Version: 6.00 Build 0)  -->
<svg version="1.1" id="Layer_3" xmlns="http://www.w3.org/2000/svg" xmlns:xlink="http://www.w3.org/1999/xlink" x="0px" y="0px"
	 viewBox="0 0 251.555 260.702" enable-background="new 0 0 251.555 260.702" xml:space="preserve">
<g>
	<g>
		<path d="M204.955,178.359c-4.332,1.881-8.971,2.98-13.613,3.852c-4.659,0.829-9.374,1.347-14.112,1.529
			c-4.737,0.206-9.5,0.092-14.256-0.621c-4.629-0.76-9.246-1.368-13.898-1.456c-4.645-0.145-9.291,0.175-13.905,0.835
			c-4.62,0.643-9.201,1.65-13.788,2.657l-6.874,1.58l-1.72,0.396l-0.86,0.198c-0.284,0.067-0.564,0.138-0.916,0.172
			c-1.336,0.161-2.548-0.138-3.706-0.469c-4.593-1.468-8.539-4.112-13.042-5.516c2.328,0.427,4.517,1.391,6.701,2.251
			c2.182,0.872,4.37,1.761,6.602,2.32c1.104,0.259,2.255,0.46,3.258,0.281c0.235-0.026,0.524-0.109,0.809-0.191l0.851-0.237
			l1.701-0.475c2.27-0.63,4.547-1.234,6.831-1.827c4.564-1.192,9.181-2.246,13.872-3.012c4.695-0.732,9.475-1.078,14.243-0.961
			c4.766,0.129,9.509,0.762,14.155,1.592c4.546,0.791,9.236,0.951,13.904,0.929c4.674-0.046,9.356-0.348,14.005-0.938
			c2.331-0.26,4.642-0.652,6.947-1.096C200.435,179.66,202.716,179.097,204.955,178.359z"/>
	</g>
	<g>
		<path d="M167.886,75.305c-0.951,0.783-2.17,1.183-3.378,1.403c-1.217,0.217-2.483,0.237-3.72-0.043
			c-0.312-0.056-0.607-0.195-0.913-0.292c-0.277-0.171-0.597-0.27-0.839-0.509c-0.559-0.377-0.904-1.026-1.08-1.676
			c-0.123-0.683-0.111-1.347,0.155-2.009c0.26-0.675,0.847-1.177,1.425-1.485c0.126-0.067,0.272-0.061,0.388,0.004l0.018,0.01
			c1.661,0.948,3.53,1.53,5.361,2.362c0.914,0.42,1.83,0.894,2.664,1.53c0.822,0.636,1.55,1.314,2.265,2.021
			c1.423,1.409,2.698,2.913,4.068,4.272c0.683,0.679,1.384,1.329,2.129,1.901c0.374,0.282,0.754,0.554,1.147,0.799l1.253,0.825
			c3.378,2.208,6.287,5.24,8.311,8.781c2.058,3.537,3.173,7.525,3.75,11.487c0.617,3.979,0.624,7.983,0.752,11.883
			c0.127,3.926,0.3,7.854,0.49,11.781l1.108,23.584v0.011c0.019,0.397-0.285,0.734-0.68,0.76c-2.576,0.164-5.178,0.45-7.773,0.737
			l-7.797,0.905c-5.205,0.563-10.414,1.21-15.652,1.401c2.604-0.28,5.191-0.665,7.779-1.043l7.752-1.235
			c2.582-0.433,5.169-0.83,7.76-1.225c2.594-0.389,5.187-0.768,7.831-0.998l-0.679,0.77c-0.568-7.849-1.11-15.703-1.566-23.568
			c-0.211-3.933-0.406-7.869-0.554-11.809c-0.171-3.959-0.121-7.856-0.705-11.67c-0.273-1.906-0.649-3.794-1.226-5.613
			c-0.569-1.818-1.254-3.603-2.197-5.249c-1.824-3.325-4.483-6.162-7.631-8.339l-1.191-0.831c-0.435-0.287-0.848-0.6-1.251-0.921
			c-0.8-0.649-1.526-1.361-2.219-2.087c-1.382-1.456-2.63-2.979-3.948-4.396c-0.658-0.702-1.351-1.391-2.064-1.986
			c-0.711-0.588-1.537-1.058-2.394-1.49c-1.722-0.853-3.608-1.543-5.323-2.643l0.405,0.014c-0.503,0.242-0.919,0.572-1.131,1.042
			c-0.227,0.471-0.272,1.069-0.2,1.592c0.17,1.08,1.183,1.875,2.32,2.163c1.137,0.327,2.366,0.354,3.566,0.233
			C165.667,76.325,166.885,76.019,167.886,75.305z"/>
	</g>
	<g>
		<path d="M153.398,39.526c-1.047,0.966-1.943,2.062-2.959,3.074c-1.005,1.002-2.124,2.03-3.624,2.499
			c-2.68,0.836-5.258,1.945-7.581,3.424c-2.302,1.506-4.331,3.386-5.884,5.619c-1.568,2.221-2.664,4.757-3.424,7.391l-0.188-0.897
			l1.628,1.785l0.874,0.802c0.287,0.274,0.577,0.544,0.898,0.748c1.207,0.982,2.616,1.596,3.939,1.538
			c1.317-0.115,2.562-0.962,3.593-2.123c1.058-1.153,1.859-2.572,2.867-3.986l0.018-0.025c0.253-0.356,0.747-0.438,1.103-0.185
			l0.018,0.013c2.593,1.96,5.17,3.941,7.731,5.944l3.815,3.041c1.276,1.008,2.54,2.033,3.789,3.078
			c-1.385-0.857-2.756-1.733-4.115-2.626l-4.089-2.662c-2.708-1.799-5.4-3.621-8.077-5.464l1.138-0.197
			c-0.854,1.357-1.682,2.884-2.839,4.247c-0.307,0.332-0.576,0.687-0.938,0.987l-0.517,0.465c-0.186,0.144-0.391,0.273-0.588,0.408
			c-0.377,0.292-0.846,0.473-1.3,0.67c-0.455,0.193-0.977,0.231-1.465,0.336c-2.048,0.116-3.882-0.789-5.262-1.871
			c-0.386-0.247-0.712-0.542-1.034-0.841l-0.976-0.89l-1.731-1.937c-0.22-0.247-0.283-0.579-0.195-0.874l0.007-0.023
			c0.842-2.802,2.034-5.564,3.842-7.924c0.863-1.206,1.912-2.267,2.996-3.265c1.116-0.97,2.33-1.811,3.594-2.552
			c2.543-1.462,5.321-2.409,8.123-3.034c1.281-0.256,2.442-1.092,3.52-1.984C151.183,41.332,152.228,40.342,153.398,39.526z"/>
	</g>
	<g>
		<path d="M72.176,173.013c-1.308,0.777-2.663,1.455-3.913,2.301c-1.239,0.864-2.504,1.681-3.611,2.705
			c-2.318,1.91-4.314,4.173-6.046,6.59c-1.729,2.424-3.167,5.053-4.241,7.823c-1.072,2.747-1.892,5.682-2.214,8.524l-1.122-0.965
			c5.445-1.434,10.78-3.425,15.993-5.68c5.228-2.231,10.347-4.728,15.411-7.328c5.049-2.632,10.044-5.381,14.899-8.362
			c4.823-3.014,9.695-6.047,13.744-10.099c-1.764,2.269-3.985,4.128-6.179,5.973l-3.405,2.637l-3.516,2.484
			c-4.739,3.241-9.666,6.196-14.704,8.942c-5.031,2.763-10.194,5.286-15.465,7.586l-3.991,1.642l-4.05,1.507
			c-1.361,0.476-2.743,0.902-4.113,1.354c-1.389,0.404-2.801,0.745-4.199,1.119l-0.021,0.006c-0.47,0.126-0.953-0.153-1.079-0.623
			c-0.031-0.116-0.037-0.237-0.022-0.348c0.438-3.176,1.319-6.122,2.561-8.975c1.228-2.841,2.796-5.54,4.725-7.95l0.706-0.916
			l0.78-0.855c0.531-0.559,1.014-1.161,1.582-1.681c1.143-1.033,2.261-2.085,3.532-2.952c1.195-0.962,2.538-1.706,3.844-2.49
			c0.635-0.423,1.353-0.7,2.041-1.023L72.176,173.013z"/>
	</g>
	<g>
		<path d="M158.034,107.785c-1.401,4.401-3.251,8.672-5.607,12.689c-0.593,1.002-1.226,1.985-1.925,2.929
			c-0.699,0.953-1.475,1.823-2.226,2.702c-1.53,1.742-3.088,3.462-4.702,5.121c-3.223,3.325-6.533,6.553-9.815,9.782
			c-3.279,3.23-6.486,6.524-9.339,10.049c-0.138,0.172-0.327,0.286-0.525,0.336c-4.096,1.013-8.195,2.093-12.392,2.901
			c-4.19,0.777-8.517,1.325-12.883,0.892c-4.357-0.445-8.621-2.138-12.071-4.816c-3.482-2.661-6.158-6.128-8.459-9.726l0.718,0.313
			c-4.485,0.752-8.81,2.461-12.805,4.722c-1.995,1.141-3.903,2.446-5.673,3.925c-1.76,1.487-3.415,3.12-4.804,4.985
			c1.249-1.959,2.79-3.738,4.503-5.325c1.71-1.593,3.574-3.022,5.543-4.293c1.967-1.276,4.052-2.377,6.225-3.286
			c2.171-0.908,4.428-1.645,6.757-2.108c0.279-0.055,0.552,0.067,0.702,0.288l0.016,0.024c2.33,3.45,5.028,6.665,8.312,9.095
			c3.269,2.451,7.171,3.895,11.228,4.287c4.07,0.383,8.222-0.152,12.316-0.937c4.105-0.785,8.193-1.822,12.304-2.819l-0.525,0.335
			c2.958-3.653,6.3-6.891,9.635-10.091c3.337-3.203,6.76-6.29,10.041-9.515c1.653-1.6,3.269-3.232,4.847-4.901
			c1.6-1.666,3.038-3.381,4.301-5.306C154.27,116.223,156.289,112.055,158.034,107.785z"/>
	</g>
	<g>
		<path d="M132.237,64.554c1.47,3.056,2.795,6.16,4.206,9.204c1.415,3.037,2.894,6.033,4.697,8.757
			c0.427,0.701,0.964,1.306,1.438,1.964c0.529,0.606,1.055,1.215,1.613,1.787c0.604,0.517,1.145,1.12,1.819,1.548l0.969,0.699
			l1.036,0.6c2.789,1.585,6.029,2.376,9.32,2.889l-0.482,0.214c1.459-1.719,2.93-3.428,4.48-5.079
			c-1.149,1.951-2.376,3.843-3.616,5.726c-0.095,0.145-0.255,0.221-0.416,0.216l-0.066-0.002c-3.402-0.111-6.912-0.708-10.088-2.326
			c-3.19-1.587-5.809-4.219-7.631-7.167c-1.882-2.932-3.217-6.102-4.388-9.288C133.996,71.093,133.032,67.85,132.237,64.554z"/>
	</g>
	<path fill="none" stroke="#000000" stroke-width="2" stroke-linecap="round" stroke-linejoin="round" stroke-miterlimit="10" d="
		M157.285,92.541c2.176,4.539,1.993,8.423,1.369,11.973c-0.999,5.689-2.217,11.338-0.877,17.861
		c-8.072,8.829-15.972,17.836-24.374,26.329c-1.55,1.567-6.71,1.208-9.355,1.656"/>
	<g>
		<path d="M68.758,130.608c-1.344,0.142-2.682,0.31-4,0.534c-1.316,0.234-2.612,0.561-3.812,1.07
			c-1.198,0.512-2.305,1.176-3.252,2.039c-0.95,0.857-1.761,1.871-2.498,2.95l0.126-0.289c-0.707,4.362-0.881,8.795-0.16,13.088
			c0.711,4.284,2.354,8.402,4.935,11.899c2.526,3.535,5.859,6.486,9.551,8.901c3.695,2.431,7.751,4.35,11.943,5.979
			c-4.37-1.049-8.663-2.602-12.638-4.839c-1.021-0.514-1.947-1.186-2.901-1.819c-0.975-0.604-1.844-1.358-2.737-2.082
			c-1.763-1.476-3.343-3.177-4.762-5.009c-0.717-0.91-1.271-1.938-1.912-2.905c-0.555-1.017-1.044-2.075-1.55-3.119
			c-0.384-1.095-0.814-2.18-1.122-3.296c-0.237-1.134-0.577-2.251-0.723-3.398c-0.71-4.581-0.366-9.245,0.621-13.688l0.008-0.034
			c0.021-0.095,0.064-0.183,0.118-0.256c0.837-1.105,1.785-2.164,2.914-3.028c1.121-0.867,2.395-1.547,3.733-1.947
			c1.336-0.411,2.702-0.606,4.058-0.707C66.053,130.545,67.408,130.558,68.758,130.608z"/>
	</g>
	<g>
		<path d="M82.126,131.66c-0.218-0.528-0.423-1.046-0.608-1.558l-0.73-1.447c-0.583-0.889-1.191-1.73-1.99-2.347
			c-0.765-0.646-1.646-1.13-2.598-1.436c-0.936-0.341-1.947-0.521-2.969-0.558c-1.009-0.074-2.084-0.017-3.023,0.167
			c-0.898,0.22-1.948,0.626-2.712,1.147c-1.627,1.012-2.217,3.325-3.228,5.329c0.092-1.13,0.205-2.23,0.456-3.367
			c0.259-1.112,0.81-2.342,1.792-3.176c0.464-0.437,0.991-0.778,1.53-1.053c0.27-0.133,0.54-0.277,0.815-0.384
			c0.272-0.115,0.535-0.234,0.886-0.333c1.228-0.307,2.394-0.371,3.599-0.326c2.361,0.137,4.878,1.011,6.526,2.867
			c0.438,0.429,0.764,0.944,1.079,1.456c0.309,0.513,0.493,1.087,0.729,1.618c0.128,0.575,0.281,1.133,0.369,1.697
			C82.092,130.531,82.115,131.101,82.126,131.66z"/>
	</g>
	<g>
		<path d="M177.204,110.944c-1.942,4.223-4.31,8.256-7.004,12.066c-2.682,3.822-5.726,7.387-8.961,10.745
			c-3.265,3.333-6.712,6.465-10.279,9.435c-3.561,2.979-7.209,5.835-10.969,8.568c3.212-3.361,6.579-6.549,9.929-9.732
			c3.341-3.194,6.694-6.356,9.885-9.663c3.216-3.282,6.261-6.717,9.154-10.289C171.846,118.495,174.543,114.756,177.204,110.944z"/>
	</g>
	<g>
		<path d="M153.398,39.526c3.152,0.95,6.053,2.906,8.242,5.483c2.221,2.566,3.72,5.695,4.642,8.928
			c0.888,3.251,1.228,6.627,1.013,9.957c-0.21,3.319-0.921,6.642-2.387,9.595c0.672-3.217,0.907-6.429,0.827-9.623
			c-0.106-3.188-0.515-6.358-1.378-9.39c-0.829-3.038-2.126-5.938-3.939-8.505C158.599,43.404,156.211,41.241,153.398,39.526z"/>
	</g>
	<g>
		<path d="M102.876,162.783c-1.491,1.267-3.006,2.496-4.514,3.737c-1.502,1.249-3.021,2.476-4.558,3.682
			c-3.069,2.418-6.2,4.771-9.455,6.968c-3.258,2.207-6.635,4.193-10.019,6.146c-3.389,1.944-6.807,3.821-10.197,5.724l-0.061,0.034
			c-0.405,0.228-0.919,0.084-1.146-0.322c-0.123-0.219-0.136-0.472-0.06-0.692c0.344-0.978,0.781-1.687,1.287-2.432
			c0.492-0.734,1.058-1.4,1.636-2.049c1.172-1.284,2.52-2.368,3.919-3.343c1.384-1.004,2.909-1.772,4.419-2.524
			c0.768-0.353,1.547-0.677,2.318-1.013l2.379-0.837l-2.232,1.154c-0.726,0.414-1.457,0.815-2.17,1.241
			c-1.406,0.889-2.777,1.822-4.042,2.87c-1.271,1.039-2.455,2.174-3.485,3.416c-0.5,0.631-0.987,1.272-1.389,1.955
			c-0.404,0.656-0.784,1.425-0.981,2.034l-1.268-0.979c3.331-2.058,6.715-4.002,10.083-5.957c3.371-1.948,6.729-3.907,10.006-5.962
			c3.273-2.076,6.496-4.255,9.727-6.436c1.613-1.094,3.232-2.185,4.87-3.25C99.576,164.879,101.204,163.799,102.876,162.783z"/>
	</g>
	<g>
		<path d="M165.154,109.074c-0.137,1.569-0.565,3.074-1.107,4.519c-0.544,1.446-1.205,2.842-1.966,4.174
			c-0.755,1.336-1.616,2.607-2.547,3.823c-0.932,1.217-1.939,2.373-3.102,3.431c0.462-1.506,1.104-2.899,1.778-4.257
			c0.677-1.358,1.386-2.686,2.134-3.987c0.741-1.305,1.517-2.585,2.306-3.866C163.439,111.628,164.241,110.354,165.154,109.074z"/>
	</g>
	<g>
		<path d="M81.011,143.604c0.433-0.578,0.897-1.188,1.596-1.564c0.66-0.408,1.594-0.547,2.404-0.246
			c1.587,0.653,2.553,2.001,3.312,3.285c1.523,2.634,2.351,5.499,3.017,8.359c0.616,2.876,1.011,5.787,1.125,8.716
			c0.115,2.917,0.039,5.887-0.664,8.738c-0.129-2.913-0.491-5.754-0.89-8.593c-0.222-1.415-0.416-2.832-0.69-4.235
			c-0.244-1.407-0.506-2.81-0.833-4.194c-0.603-2.773-1.328-5.539-2.442-8.068c-0.571-1.238-1.273-2.472-2.325-3.111
			C83.566,142.017,82.112,142.677,81.011,143.604z"/>
	</g>
	<g>
		<path d="M123.666,150.453c3.832-1.233,7.978-1.464,12.012-0.958c4.046,0.529,7.94,1.861,11.673,3.35
			c1.873,0.731,3.722,1.502,5.567,2.112c0.922,0.299,1.849,0.539,2.749,0.642c0.931,0.121,1.643-0.021,2.706-0.23
			c3.956-0.755,7.935-1.361,11.917-1.932c7.977-1.052,15.986-1.807,24.009-2.237c8.021-0.479,16.052-0.592,24.08-0.58l-23.964,2.136
			c-3.986,0.386-7.972,0.749-11.947,1.21c-3.979,0.419-7.948,0.911-11.909,1.451c-3.962,0.529-7.914,1.125-11.849,1.809
			c-0.504,0.078-0.944,0.169-1.568,0.229c-0.583,0.05-1.147,0.013-1.696-0.052c-1.091-0.152-2.107-0.449-3.083-0.789
			c-1.952-0.684-3.777-1.532-5.609-2.334c-3.653-1.6-7.342-3.081-11.233-3.824C131.647,149.648,127.604,149.66,123.666,150.453z"/>
	</g>
	<path fill="none" stroke="#000000" stroke-width="2" stroke-linecap="round" stroke-linejoin="round" stroke-miterlimit="10" d="
		M163.582,155.354c0,0,8.085-18.551-0.99-23.694"/>
</g>
<g>
	<path fill="#666363" d="M23.2,65.342c-0.018,0.018-0.035,0.035-0.053,0.07C8.561,85.6,0,110.28,0,136.933
		c0,68.35,56.318,123.769,125.777,123.769s125.777-55.42,125.777-123.769c0-34.862-14.674-66.341-38.244-88.837
		c17.863,20.452,28.732,47.281,28.732,76.682c0,64.087-51.509,116.053-115.067,116.053c-63.541,0-115.067-51.967-115.067-116.053
		c0-21.756,5.937-42.12,16.295-59.506c6.447-10.887,14.639-20.628,24.169-28.82c-4.862,3.453-9.46,7.223-13.776,11.309"/>
</g>
<g>
	<path fill="#5AE500" d="M32.377,51.995c0,0-0.647-72.672,75.358-46.186C89.784,18.572,86.351,83.007,35.807,58.608
		c0,0,5.738-16.66,33.962-33.263C69.769,25.344,51.017,33.538,32.377,51.995z"/>
</g>
</svg>
