<?xml version="1.0" encoding="utf-8"?>
<!-- Generator: Adobe Illustrator 26.0.1, SVG Export Plug-In . SVG Version: 6.00 Build 0)  -->
<svg version="1.1" id="Layer_6" xmlns="http://www.w3.org/2000/svg" xmlns:xlink="http://www.w3.org/1999/xlink" x="0px" y="0px"
	 viewBox="0 0 249.629 249.629" enable-background="new 0 0 249.629 249.629" xml:space="preserve">
<g>
	<path fill="#080809" d="M125.144,10.745c-62.82,0-113.74,50.92-113.74,113.74s50.92,113.74,113.74,113.74
		s113.74-50.92,113.74-113.74S187.964,10.745,125.144,10.745z M33.504,149.245l-1.58-6.46l-0.08,0.01l-0.2-1.16l-0.36-1.46
		l0.09-0.02l-0.69-3.93l-0.09,0.01l-0.16-1.43l-0.22-1.22l0.07-0.01l-0.45-3.91l-0.1,0.01l-0.08-1.6l-0.13-1.13l0.06-0.01
		l-0.21-3.96h-0.06l0.01-0.96l-0.09-1.69h0.1l0.03-4.02h-0.08l0.09-1.38l0.01-1.31h0.09l0.28-3.96l-0.09-0.01l0.19-1.43l0.09-1.25
		h0.08l0.87-6.6l2.97,0.4l-0.99,7.51l-0.5,6.93l-0.05,6.46l0.35,6.47l0.71,6.13l1.19,6.69l1.85,7.57L33.504,149.245z
		 M125.144,202.865c-43.29,0-78.38-35.09-78.38-78.38c0-43.29,35.09-78.38,78.38-78.38s78.38,35.09,78.38,78.38
		C203.524,167.775,168.434,202.865,125.144,202.865z M220.254,126.855l-0.14,1.48l-0.03,1.15h-0.07l-0.37,3.99l0.09,0.01l-0.22,1.41
		l-0.12,1.27h-0.07l-0.61,3.92l0.08,0.02l-0.28,1.27l-0.21,1.37l-0.08-0.01l-1.42,6.52l-2.92-0.65l1.64-7.54l0.99-6.44l0.61-6.63
		l0.17-6.43l-0.22-6.48l-0.65-6.72l-1.2-7.57l2.96-0.49l1.04,6.59l0.08-0.01l0.12,1.25l0.22,1.42l-0.08,0.01l0.38,3.97h0.1
		l0.04,1.45l0.12,1.21h-0.07l0.13,3.94h0.07l-0.03,1.26l0.05,1.48h-0.09l-0.11,3.97L220.254,126.855z"/>
	<path d="M124.815,52.62c-39.873,0-72.194,32.322-72.194,72.194s32.322,72.194,72.194,72.194s72.194-32.322,72.194-72.194
		S164.687,52.62,124.815,52.62L124.815,52.62z"/>
	<path fill="none" stroke="#000000" stroke-width="3" stroke-miterlimit="10" d="M124.815,1.5C56.708,1.5,1.5,56.708,1.5,124.815
		s55.208,123.315,123.315,123.315s123.315-55.208,123.315-123.315S192.921,1.5,124.815,1.5L124.815,1.5z"/>
	
		<rect x="47.968" y="50.911" transform="matrix(0.8284 -0.5602 0.5602 0.8284 -48.7595 90.9899)" fill="none" width="152.272" height="148.306"/>
</g>
<g>
	<path fill="#F8D72A" d="M160.582,187.764c-26.283,15.246-61.832,10.199-84.398-9.761c-22.686-21.174-30.364-57.098-16.969-85.228
		c8.484-18.295,25.709-31.517,44.582-37.742c23.665-7.167,50.423,0.314,68.895,16.362c16.899,14.87,27.37,37.647,24.503,60.308
		c-1.702,21.843-14.238,42.244-32.806,53.732c-1.247,0.81-2.52,1.582-3.808,2.326V187.764z M173.627,174.802
		c4.238-3.445,2.503-4.304-1.834-1.884c-8.282,3.532-16.213,8.84-21.595,16.11c8.27-1.181,16.006-7.551,22.359-13.16
		L173.627,174.802z M148.744,185.81c0.979-5.481-7.72-11.116-12.648-12.351c-8.468,1.02-16.911-0.971-25.35-1.066
		c-5.399,1.338-7.576,7.208-11.066,11.062c2.796,4.176,5.709,9.063,11.306,9.501c10.017,1.912,20.777,2.247,30.538-0.896
		c2.701-1.648,5.345-3.668,7.22-6.246V185.81z M183.288,162.691c7.361-11.574,12.214-25.461,11.392-39.336
		c0.19-4.283-1.632-10.323-6.039-4.932c-3.97,9.092-6.555,18.778-10.851,27.754c-1.987,6.353-1.892,13.185-1.896,19.782
		C178.658,167.743,181.727,164.797,183.288,162.691z M178.051,139.72c2.309-7.873,8.001-15.787,6.308-24.218
		c-2.251-6.006-5.771-11.421-8.815-17.039c-8.377-1.14-16.927,0.029-25.218,1.276c-5.857,4.692-7.117,13.619-9.587,20.521
		c-1.627,3.218,1.252,6.031,2.235,9.009c3.007,6.493,5.849,13.065,9.203,19.389c7.332,0.339,15.027-0.004,21.901-2.611
		C176.237,144.627,177.031,141.959,178.051,139.72z M141.304,165.9c3.507-5.031,8.856-10.653,7.658-17.225
		c-3.148-8.212-7.142-16.093-11.157-23.912c-7.766-1.326-16.019-2.685-23.793-0.863c-5.386,3.519-7.336,10.376-10.678,15.659
		c-5.205,6.06-3.466,13.408,0.343,19.637c2.164,7.241,8.468,11.925,16.077,11.578c7.059,0.31,16.865,1.793,21.546-4.874H141.304z
		 M95.933,184.381c-8.699-4.564-16.659-10.62-23.181-17.981c-3.284,3.346,6.535,10.413,10.182,13.544
		c5.3,3.97,11.268,6.882,17.27,9.616C99.428,187.293,98.449,185.178,95.933,184.381z M72.694,153.591
		c0.045-3.552,1.429-7.27,0.57-10.715c-3.875-9.562-6.431-19.596-7.332-29.881c-3.441-4.709-10.785-4.019-9.852,3.102
		c-0.938,14.99,1.223,31.025,9.525,43.872c1.941,5.023,7.836,5.642,6.518-0.962C72.318,157.201,72.508,155.396,72.694,153.591z
		 M174.593,93.407c0.343-6.436,1.376-14.499-3.676-19.48c-9.41-9.567-22.004-16.172-35.383-17.506
		c-3.276,0.632-10.624-0.219-9.843,4.754c0.805,6.84-2.474,16.043,4.143,20.765c6.229,4.87,12.103,10.393,19.009,14.276
		c8.265,0.591,16.75-0.343,24.924-1.813L174.593,93.407z M100.836,139.158c3.271-5.907,6.217-11.983,9.211-18.034
		c-2.259-6.873-4.011-13.9-5.932-20.868c-3.879-6.312-12.289-7.043-18.832-8.885c-7.46-3.338-10.517,5.159-13.499,10.244
		c-6.171,11.772-0.636,24.755,2.549,36.56c2.883,3.28,8.17,4.069,12.367,5.139C92.24,144.413,98.949,146.354,100.836,139.158z
		 M115.641,83.985c2.338-2.103,5.395-3.792,7.291-6.142c0.958-6.308,1.033-12.987-0.925-19.096
		c-5.279-3.928-12.83-2.235-18.807-0.748C95.863,60.3,88.721,63.823,82.876,68.83c-2.986,5.444-6.572,17.811,1.632,19.968
		c6.142,1.772,12.371,3.201,18.625,4.523C107.474,90.446,111.547,87.195,115.641,83.985z"/>
</g>
</svg>
