<?xml version="1.0" encoding="utf-8"?>
<!-- Generator: Adobe Illustrator 24.3.0, SVG Export Plug-In . SVG Version: 6.00 Build 0)  -->
<svg version="1.1" id="Layer_1" xmlns="http://www.w3.org/2000/svg" xmlns:xlink="http://www.w3.org/1999/xlink" x="0px" y="0px"
	 viewBox="0 0 315.067 304.908" enable-background="new 0 0 315.067 304.908" xml:space="preserve">
<g>
	<g>
		<path d="M72.478,184.475c9.54,0.648,17.354,1.137,25.161,1.722c6.438,0.482,9.329-2.445,8.85-8.848
			c-0.079-1.062,0.077-2.141,0.104-3.213c0.445-17.744,0.444-17.754-17.04-17.92c-6.075-0.058-12.303,0.806-18.199-0.236
			c-20.583-3.639-36.749,5.418-51.832,17.406c-2.654,2.109-3.554,6.424-5.265,9.719c0.586,1.079,1.173,2.157,1.759,3.236
			c12.999-1.064,25.997-2.127,40.243-3.293c-4.224,36.512-7.836,69.127-11.882,101.689c-0.954,7.679-1.091,15.969,6.549,18.444
			c7.185,2.328,16.324,2.295,23.515-0.046c7.826-2.548,6.975-11.024,6.3-18.535C77.835,252.259,75.358,219.879,72.478,184.475z"/>
	</g>
	<g>
		<path d="M242.695,184.42c-9.454,0.526-17.198,0.916-24.934,1.4c-6.38,0.399-9.282-2.538-8.886-8.881
			c0.066-1.052-0.102-2.124-0.142-3.187c-0.658-17.599-0.657-17.609,16.682-17.56c6.025,0.017,12.212,0.949,18.047-0.012
			c20.37-3.357,36.514,5.82,51.619,17.889c2.658,2.123,3.604,6.412,5.34,9.701c-0.568,1.062-1.137,2.125-1.705,3.187
			c-12.905-1.213-25.81-2.426-39.954-3.755c4.634,36.253,8.614,68.635,13.023,100.969c1.04,7.626,1.276,15.847-6.271,18.208
			c-7.098,2.221-16.162,2.077-23.323-0.332c-7.793-2.622-7.052-11.016-6.474-18.454C238.208,251.563,240.27,219.488,242.695,184.42z
			"/>
	</g>
	<path d="M157.562,22.673c-0.714,0.666-1.275,1.181-1.826,1.705C136.7,42.456,117.665,60.534,98.63,78.612
		c-26.015,24.706-52.032,49.411-78.048,74.116c-1.467,1.393-2.928,2.794-4.407,4.175c-1.973,1.842-4.304,2.723-7.017,2.635
		c-4.062-0.133-7.742-2.985-8.784-6.933c-0.961-3.641-0.065-6.83,2.592-9.477c1.936-1.93,3.954-3.778,5.937-5.661
		c9.042-8.586,18.085-17.172,27.128-25.757c1.461-1.387,1.265-1.041,1.265-2.966c0.005-23.08,0.003-46.16,0.003-69.24
		c0-0.602-0.007-1.203,0.011-1.805c0.007-0.259,0.068-0.517,0.105-0.772c0.237-0.068,0.389-0.15,0.541-0.15
		c15.368-0.006,30.737-0.006,46.105,0c0.151,0,0.302,0.083,0.563,0.159c0.15,1.12,0.06,2.26,0.074,3.393
		c0.015,1.203,0.003,2.406,0.003,3.61c0,1.149,0,2.297,0,3.446c0,1.203,0,2.406,0,3.61c0,1.149,0,2.297,0,3.446s0,2.297,0,3.446
		c0,1.203,0,2.406,0,3.61c0,1.146,0,2.292,0,3.405c0.561,0.286,0.758-0.15,1.01-0.388c3.618-3.418,7.229-6.843,10.838-10.27
		c17.173-16.306,34.344-32.614,51.516-48.921c0.833-0.791,1.696-1.553,2.491-2.381c3.834-3.99,10.056-3.838,13.97-0.046
		c8.327,8.067,16.792,15.991,25.2,23.975c15.15,14.386,30.299,28.773,45.448,43.159c25.461,24.178,50.92,48.357,76.389,72.526
		c1.5,1.424,2.68,3.008,3.193,5.049c1.616,6.44-3.328,11.898-9.008,11.94c-2.653,0.02-4.928-0.851-6.848-2.656
		c-2.351-2.21-4.686-4.438-7.025-6.66c-15.743-14.952-31.485-29.905-47.229-44.856c-27.682-26.287-55.365-52.572-83.047-78.858
		C160.293,25.276,158.991,24.034,157.562,22.673z"/>
</g>
<g>
	<rect x="127.851" y="132.865" fill="#B3B3B3" width="24.597" height="24.597"/>
	<rect x="163.386" y="132.865" fill="#B3B3B3" width="24.597" height="24.597"/>
	<rect x="127.851" y="98.02" fill="#B3B3B3" width="24.597" height="24.597"/>
	<rect x="163.386" y="98.02" fill="#B3B3B3" width="24.597" height="24.597"/>
</g>
</svg>
