<?xml version="1.0" encoding="utf-8"?>
<!-- Generator: Adobe Illustrator 24.3.0, SVG Export Plug-In . SVG Version: 6.00 Build 0)  -->
<svg version="1.1" id="Layer_1" xmlns="http://www.w3.org/2000/svg" xmlns:xlink="http://www.w3.org/1999/xlink" x="0px" y="0px"
	 viewBox="0 0 338.056 420.548" enable-background="new 0 0 338.056 420.548" xml:space="preserve">
<g>
	<path fill="#F15D22" d="M296.215,127.743c1.274-2.197,0.52-5.01-1.683-6.281l-1.117-0.643c-2.2-1.268-5.007-0.514-6.281,1.683
		l-31.022,53.733l-5.468-3.157l31.022-53.733c1.271-2.203,0.517-5.013-1.68-6.284c-0.726-0.419-1.514-0.612-2.296-0.612
		c-1.585,0-3.133,0.822-3.985,2.296l-31.022,53.733l-5.471-3.154l31.022-53.733c1.271-2.197,0.52-5.01-1.68-6.281
		c-0.726-0.419-1.514-0.619-2.296-0.619c-1.591,0-3.133,0.825-3.982,2.302l-31.025,53.736l-5.465-3.164l31.019-53.733
		c1.271-2.197,0.517-5.01-1.68-6.278l-0.994-0.569c-2.197-1.271-5.01-0.52-6.278,1.68l-51.379,88.993
		c-2.523,4.367-3.776,9.115-3.88,13.823h-39.233c6.312-13.075,5.475-30.342-6.315-50.763c-13.885-24.052-39.045-45.698-59.823-50.28
		c8.33-7.684,17.473-14.485,27.253-20.461c11.34-6.862,23.517-12.5,36.269-17.775c-13.78,0.856-27.416,4.533-40.236,10.251
		c-12.743,5.871-24.618,13.959-34.681,23.898c-1.471,1.443-2.899,2.92-4.296,4.434c-6.398,6.939-12.001,14.596-16.667,22.741
		c-1.302,2.271-2.533,4.582-3.684,6.927c-6.099,12.577-10.5,26.086-11.318,39.925c2.6-6.385,5.428-12.525,8.595-18.467
		c1.668-3.283,3.465-6.487,5.339-9.632c1.006,17.384,6.819,37.085,16.02,53.025c1.262,2.182,2.557,4.241,3.88,6.176H10.817
		c0-83.952,65.387-152.631,148.015-157.887c0.003,0,0.003,0,0.006,0c0,0.003,0,0.003,0,0.003s0,0,0.003-0.003
		c3.37-0.212,6.767-0.323,10.189-0.323c3.422,0,6.819,0.111,10.189,0.323c0.003,0.003,0.003,0.003,0.003,0.003
		c0.003,0,0.003-0.003,0.003-0.003c82.629,5.256,148.012,73.932,148.012,157.887h-73.594L296.215,127.743z"/>
	
		<ellipse transform="matrix(0.2298 -0.9732 0.9732 0.2298 107.8208 182.2127)" fill="#F15D22" cx="169.028" cy="22.988" rx="22.988" ry="22.988"/>
	<path fill="#F15D22" d="M0,140.631c2.534-14.212,8.179-27.82,15.39-40.448c3.58-6.354,7.815-12.328,12.328-18.087
		C32.3,76.388,37.357,71.057,42.7,66.026c5.479-4.889,11.307-9.384,17.425-13.436c6.211-3.912,12.66-7.437,19.389-10.305
		c13.469-5.687,27.813-9.096,42.186-9.832c-13.807,4.072-27.057,9.06-39.465,15.549c-12.325,6.629-23.821,14.594-34.07,24.014
		c-5.168,4.659-9.988,9.7-14.555,14.975c-4.638,5.223-8.825,10.84-12.891,16.566C12.771,115.138,5.734,127.459,0,140.631z"/>
	<path fill="#F15D22" d="M338.056,137.927c-5.733-13.172-12.771-25.493-20.718-37.074c-4.067-5.726-8.253-11.343-12.891-16.566
		c-4.567-5.275-9.388-10.316-14.556-14.976c-10.249-9.419-21.745-17.385-34.069-24.014c-12.408-6.488-25.659-11.477-39.465-15.549
		c14.373,0.736,28.717,4.145,42.186,9.832c6.729,2.868,13.178,6.393,19.389,10.305c6.118,4.052,11.946,8.547,17.424,13.436
		c5.344,5.032,10.401,10.362,14.983,16.071c4.512,5.759,8.748,11.733,12.327,18.087
		C329.877,110.106,335.523,123.714,338.056,137.927z"/>
	<path fill="#F15D22" d="M109.581,226.214c3.387,0.166,6.675,0.951,9.661,2.311H4.338c-0.902,0-1.635-0.732-1.635-1.635v-17.012
		c0-0.902,0.732-1.635,1.635-1.635H76.84C86.941,220.11,98.302,225.66,109.581,226.214z"/>
	<path fill="#F15D22" d="M191.679,210.039c1.744,6.178,1.264,12.748-1.491,18.485h-37.528l-1.635-2.834
		c-3.1-5.367-3.749-11.571-2.306-17.448h42.52C191.365,208.849,191.513,209.446,191.679,210.039z"/>
	<path fill="#F15D22" d="M335.352,209.878v17.012c0,0.902-0.732,1.635-1.635,1.635h-101.76c5.227-2.42,9.779-6.422,12.883-11.793
		l4.9-8.488h83.977C334.62,208.243,335.352,208.976,335.352,209.878z"/>
	<path fill="#F15D22" d="M202.801,263.495l-12.795,22.163l51.933,89.95c3.788,6.561,0.831,15.168-6.715,17.787
		c-5.61,1.945-11.811-0.757-14.78-5.902l-44.618-77.28l-46.507,80.555c-3.788,6.561-12.718,8.306-18.759,3.077
		c-4.493-3.884-5.247-10.607-2.277-15.747l53.367-92.439l-12.795-22.163H11.977c0,86.74,70.313,157.053,157.053,157.053
		c86.737,0,157.05-70.313,157.05-157.053H202.801z M296.246,284.027l-12.94,4.576l-7.702,2.702
		c5.016,0.68,10.035,1.369,15.048,2.102l0.031,0.003c0.64,0.092,1.086,0.689,0.991,1.329c-0.062,0.428-0.345,0.763-0.717,0.917
		c-5.031,2.062-10.106,4.019-15.165,6.01c3.16,1.056,6.308,2.163,9.454,3.271l0.028,0.009c0.206,0.071,0.311,0.292,0.24,0.492
		c-0.04,0.108-0.123,0.191-0.222,0.231c-2.727,1.099-5.459,2.179-8.216,3.222c2.308-1.182,4.619-2.336,6.942-3.471
		c-3.591-0.954-7.179-1.908-10.752-2.939c-0.412-0.117-0.649-0.554-0.532-0.966c0.068-0.228,0.228-0.4,0.434-0.492l0.025-0.012
		c4.296-1.914,8.577-3.871,12.875-5.779c-5.441-0.64-10.881-1.329-16.319-2.022c-0.729-0.092-1.246-0.757-1.154-1.486
		c0.065-0.52,0.425-0.932,0.892-1.096l13.002-4.404l6.705-2.253c-0.982-0.028-1.963-0.049-2.945-0.065l-9.617-0.228
		c-3.21-0.052-6.413-0.206-9.623-0.317c-3.203-0.12-6.413-0.246-9.617-0.425c3.204-0.178,6.413-0.302,9.617-0.418
		c3.21-0.114,6.413-0.271,9.623-0.323l9.617-0.221c3.21-0.062,6.413-0.188,9.623-0.188c0.637,0,1.151,0.514,1.151,1.151
		C297.022,283.439,296.689,283.867,296.246,284.027z"/>
</g>
</svg>
