<?xml version="1.0" encoding="utf-8"?>
<!-- Generator: Adobe Illustrator 24.3.0, SVG Export Plug-In . SVG Version: 6.00 Build 0)  -->
<svg version="1.1" id="Layer_3" xmlns="http://www.w3.org/2000/svg" xmlns:xlink="http://www.w3.org/1999/xlink" x="0px" y="0px"
	 viewBox="0 0 347.45 257.344" enable-background="new 0 0 347.45 257.344" xml:space="preserve">
<g>
	<path fill="#F7EC25" d="M144.38,103.298c0,0,32.702,39.431,82.456-8.462c0,0-82.416,91.385-50.939,148.755
		c0,0-24.369-29.7-26.948-45.185C141.24,152.113,159.611,147.383,144.38,103.298z"/>
	<circle fill="#F7EC25" cx="182.562" cy="90.46" r="15.521"/>
	<path fill="#F7EC25" d="M306.643,8.71l-10.504,16.848c0,0-456.209-88.483-230.199,198.152
		C65.941,223.709-190.02-51.903,306.643,8.71z"/>
	<polygon fill="#F7EC25" points="303.795,3.435 307.895,11.744 317.065,13.076 310.43,19.544 311.996,28.676 303.795,24.364 
		295.593,28.676 297.159,19.544 290.524,13.076 299.694,11.744 	"/>
</g>
<g>
	<path fill="#46BEA2" d="M70.894,140.828c0,0,48.201,19.872,67.557-47.393c0,0-26.032,122.314,30.077,158.987
		c0,0-36.077-15.094-46.07-27.845C92.584,186.457,106.212,173.327,70.894,140.828z"/>
	<circle fill="#46BEA2" cx="93.828" cy="110.357" r="15.521"/>
	<path fill="#46BEA2" d="M325.277,37.68l-10.504,16.848c0,0-464.122-104.919-224.947,187.63
		C89.826,242.158-195.618-47.494,325.277,37.68z"/>
</g>
<g>
	<path fill="#EC1C5A" d="M238.307,92.471c0,0,5.506,51.845,73.864,36.799c0,0-119.933,35.416-125.428,102.222
		c0,0-3.927-38.91,2.519-53.772C208.534,133.288,226.572,139.01,238.307,92.471z"/>
	<circle fill="#EC1C5A" cx="277.649" cy="103.071" r="15.521"/>
	<path fill="#EC1C5A" d="M336.286,64.689l-10.504,16.848c0,0-451.898-116.742-212.723,175.807
		C113.059,257.344-182.479-30.693,336.286,64.689z"/>
	<polygon fill="#EC1C5A" points="321.87,30.082 326.212,38.878 335.919,40.289 328.895,47.136 330.553,56.804 321.87,52.239 
		313.188,56.804 314.846,47.136 307.822,40.289 317.529,38.878 	"/>
	<polygon fill="#EC1C5A" points="333.402,58.21 337.743,67.006 347.45,68.416 340.426,75.263 342.084,84.931 333.402,80.367 
		324.719,84.931 326.378,75.263 319.353,68.416 329.061,67.006 	"/>
</g>
</svg>
