<?xml version="1.0" encoding="utf-8"?>
<!-- Generator: Adobe Illustrator 24.3.0, SVG Export Plug-In . SVG Version: 6.00 Build 0)  -->
<svg version="1.1" id="Layer_2" xmlns="http://www.w3.org/2000/svg" xmlns:xlink="http://www.w3.org/1999/xlink" x="0px" y="0px"
	 viewBox="0 0 295.185 165.115" enable-background="new 0 0 295.185 165.115" xml:space="preserve">
<g>
	<path fill="#00420B" d="M15.216,65.298c-0.961,10.145,4.19,14.611,7.054,16.287c0.358,0.21,0.752,0.31,1.143,0.31
		c0.678,0,1.345-0.304,1.791-0.869c0.899-1.14,0.522-2.831-0.788-3.456c-2.093-0.999-4.655-3.285-5.276-8.513
		c-1.09-9.189,4.539-15.721,12.853-22.224C31.993,46.834,16.534,51.38,15.216,65.298z"/>
	<path fill="#00420B" d="M53.17,19.255c0.999,1.412,0.856,3.387,0.856,3.387c6.518-3.85,0.324-11.447,0.324-11.447l-5.793,3.507
		C49.973,17.257,52.172,17.843,53.17,19.255z"/>
	<path fill="#00420B" d="M28.233,94.813c0.426-0.615,0.854-1.226,1.285-1.831l-0.041-0.11c-1.37-3.693-0.008-7.353,1.298-9.686
		c-1.959,2.32-4.002,4.846-6.062,7.506c1.263,1.574,2.291,2.728,3.064,3.541C27.95,94.413,28.1,94.609,28.233,94.813z"/>
	<path fill="#00420B" d="M25.621,30.274l6.307-3.458l6.285-3.496c0.188-0.111,0.461-0.208,0.711-0.286
		c0.256-0.077,0.518-0.136,0.778-0.171c0.521-0.069,1.038-0.041,1.497,0.114c0.462,0.15,0.864,0.424,1.196,0.794
		c0.329,0.374,0.592,0.831,0.792,1.331l0.272,0.681l0.648-0.311l0.07-0.033l0.045-0.024l0.078-0.046
		c0.048-0.031,0.093-0.062,0.135-0.095c0.085-0.065,0.161-0.134,0.232-0.207c0.141-0.146,0.258-0.307,0.354-0.475
		c0.192-0.336,0.292-0.694,0.342-1.038c0.047-0.344,0.048-0.679,0.017-0.999c-0.016-0.161-0.037-0.315-0.065-0.474l-0.046-0.236
		l-0.048-0.213c-0.018-0.108-0.048-0.211-0.056-0.323c-0.017-0.109-0.02-0.223-0.025-0.337c0-0.115,0-0.231,0.009-0.348
		c0.007-0.117,0.021-0.235,0.038-0.354c0.019-0.119,0.038-0.238,0.065-0.357c0.025-0.119,0.056-0.238,0.089-0.356
		c0.034-0.118,0.071-0.235,0.112-0.35c0.038-0.11,0.09-0.239,0.124-0.316l0.17-0.379l-0.219-0.356l-2.406-3.909l-0.303-0.493
		l-0.624,0.143l-0.114,0.026l-0.14,0.027c-0.095,0.017-0.193,0.03-0.29,0.042c-0.196,0.022-0.393,0.033-0.588,0.032
		c-0.39-0.003-0.773-0.052-1.126-0.156c-0.355-0.1-0.679-0.257-0.963-0.466c-0.037-0.025-0.07-0.055-0.104-0.084l1.67-0.948
		l1.293-0.734l0.646-0.367c0.143-0.081,0.274-0.128,0.434-0.161c0.315-0.063,0.699-0.035,1.096,0.063
		c0.398,0.098,0.809,0.26,1.211,0.457c0.402,0.199,0.801,0.43,1.189,0.683c0.194,0.127,0.385,0.26,0.572,0.397
		c0.183,0.134,0.38,0.286,0.534,0.416l0.489,0.411l0.533-0.323l4.303-2.602l0.975-0.59l-0.823-0.768
		c-0.129-0.12-0.223-0.197-0.334-0.29c-0.107-0.087-0.214-0.173-0.323-0.255c-0.216-0.166-0.437-0.321-0.66-0.473
		c-0.447-0.3-0.908-0.576-1.383-0.824c-0.95-0.497-1.947-0.909-2.985-1.187c-1.035-0.284-2.102-0.463-3.175-0.508
		c-1.073-0.049-2.149,0.022-3.201,0.204c-1.052,0.185-2.084,0.468-3.069,0.855c-0.249,0.091-0.497,0.207-0.745,0.309
		c-0.256,0.104-0.48,0.216-0.706,0.329l-0.34,0.169l-0.085,0.042l-0.06,0.03l-0.043,0.024l-0.172,0.096l-0.686,0.385
		c-0.898,0.54-1.757,1.138-2.578,1.78c-0.815,0.649-1.586,1.347-2.322,2.076c-0.731,0.734-1.42,1.506-2.072,2.305
		c-0.647,0.803-1.255,1.634-1.836,2.482c-0.573,0.853-1.114,1.724-1.627,2.611c-0.508,0.889-0.978,1.799-1.426,2.717
		c-0.441,0.922-0.856,1.855-1.245,2.797c-0.386,0.944-0.736,1.902-1.063,2.866c-0.325,0.965-0.623,1.938-0.884,2.92
		c-0.261,0.982-0.493,1.972-0.689,2.967c0.271-0.978,0.576-1.944,0.908-2.899c0.335-0.955,0.681-1.904,1.065-2.838
		c0.382-0.935,0.794-1.856,1.219-2.77c0.432-0.911,0.889-1.808,1.369-2.692c0.484-0.882,1.001-1.744,1.529-2.597
		c0.537-0.847,1.1-1.676,1.691-2.483c0.598-0.801,1.22-1.583,1.876-2.332c0.664-0.743,1.345-1.467,2.065-2.148
		c0.725-0.676,1.477-1.318,2.266-1.91c0.794-0.584,1.617-1.122,2.471-1.602l0.65-0.34l0.162-0.085l0.04-0.021l0.004-0.002
		l0.021-0.01l0.086-0.04l0.345-0.159c0.231-0.107,0.461-0.219,0.678-0.299c0.222-0.086,0.435-0.183,0.664-0.262
		c0.907-0.339,1.845-0.576,2.792-0.726c0.947-0.147,1.906-0.193,2.857-0.132c0.952,0.057,1.894,0.233,2.808,0.501
		c0.914,0.268,1.803,0.63,2.645,1.08c0.421,0.224,0.83,0.471,1.223,0.738c0.057,0.04,0.112,0.082,0.169,0.123L48.16,11.4
		c-0.045-0.034-0.09-0.068-0.136-0.103c-0.211-0.157-0.427-0.308-0.646-0.454c-0.44-0.292-0.898-0.563-1.387-0.798
		c-0.489-0.235-1.005-0.441-1.571-0.577c-0.563-0.132-1.19-0.201-1.851-0.068c-0.325,0.065-0.665,0.193-0.951,0.36l-0.644,0.371
		l-1.289,0.742l-2.577,1.483l-0.828,0.476l0.542,0.739c0.082,0.111,0.157,0.226,0.246,0.333c0.088,0.108,0.176,0.215,0.275,0.315
		c0.094,0.104,0.199,0.197,0.303,0.293c0.108,0.091,0.215,0.182,0.331,0.263c0.457,0.332,0.975,0.574,1.504,0.719
		c0.53,0.15,1.068,0.201,1.594,0.196c0.263-0.004,0.524-0.023,0.784-0.057c0.063-0.009,0.126-0.021,0.188-0.031l1.965,3.059
		c-0.005,0.015-0.01,0.03-0.016,0.046c-0.049,0.147-0.093,0.295-0.132,0.444c-0.039,0.149-0.075,0.299-0.104,0.452
		c-0.032,0.151-0.055,0.306-0.076,0.461c-0.02,0.156-0.035,0.313-0.042,0.472c-0.01,0.158-0.008,0.32-0.003,0.482
		c0.009,0.163,0.018,0.325,0.045,0.49c0.017,0.164,0.061,0.329,0.097,0.493l0.048,0.191l0.038,0.17
		c0.024,0.112,0.044,0.233,0.058,0.347c0.03,0.231,0.033,0.453,0.012,0.658c-0.007,0.057-0.02,0.108-0.031,0.162
		c-0.157-0.233-0.327-0.459-0.525-0.67c-0.245-0.251-0.515-0.486-0.821-0.676c-0.305-0.189-0.636-0.338-0.978-0.44
		c-0.686-0.206-1.398-0.214-2.06-0.108c-0.332,0.054-0.655,0.136-0.969,0.241c-0.317,0.111-0.613,0.219-0.937,0.42l-6.135,3.752
		l-6.113,3.79l-3.047,1.911l-3.035,1.931l3.174-1.693L25.621,30.274z"/>
	<path fill="#00420B" d="M22.622,98.805c0.571,0.709,1.402,1.078,2.243,1.088c0.011,0,0.022,0.002,0.033,0.002
		c0.673,0,1.349-0.231,1.901-0.706c1.005-0.864,1.269-2.255,0.762-3.397c-0.132-0.297-0.314-0.579-0.551-0.829
		c-0.787-0.828-1.779-1.945-2.962-3.409c-1.343-1.662-2.933-3.772-4.765-6.439c-5.568-8.108-6.06-16.88-6.06-16.88
		c-1.326,12.492,3.615,22.346,7.406,27.882C21.352,97.173,22.034,98.074,22.622,98.805z"/>
	<path fill="#00420B" d="M14.805,52.539C14.8,52.79,14.82,53.04,14.839,53.29l0.054,0.75l0.109,1.496l0.427,2.965l-0.158-2.983
		l0.004-1.49l0.002-0.744c-0.001-0.248-0.002-0.495,0.022-0.743l0.097-1.481c0.017-0.246,0.026-0.493,0.049-0.739l0.095-0.734
		l0.191-1.466l0.29-1.446c0.053-0.239,0.081-0.484,0.152-0.72l0.189-0.71c0.128-0.472,0.238-0.95,0.411-1.407l0.236-0.693
		c0.078-0.231,0.153-0.463,0.254-0.685l0.282-0.673c0.097-0.223,0.18-0.452,0.295-0.665l0.325-0.649l0.16-0.325
		c0.056-0.107,0.119-0.21,0.179-0.315l0.361-0.627c0.118-0.21,0.261-0.403,0.391-0.605c0.132-0.201,0.262-0.402,0.41-0.588
		c0.146-0.187,0.28-0.387,0.435-0.565c0.155-0.177,0.3-0.368,0.463-0.531c0.08-0.083,0.158-0.172,0.239-0.25
		c0.059-0.055,0.125-0.121,0.18-0.171l7.636-4.275l3.851-2.138c1.282-0.713,2.565-1.426,3.853-2.122
		c0.646-0.352,1.281-0.689,1.931-1.032l0.489-0.254c0.154-0.078,0.356-0.19,0.433-0.217c0.207-0.092,0.433-0.125,0.656-0.103
		c0.223,0.018,0.443,0.094,0.629,0.219c0.19,0.12,0.348,0.287,0.447,0.467l0.065,0.122l0,0.001l0.008,0.019l0.027,0.06l0.109,0.239
		l0.206,0.482c0.13,0.324,0.254,0.651,0.364,0.981c0.441,1.32,0.717,2.692,0.718,4.053c0.006,1.359-0.26,2.701-0.821,3.921
		c-0.13,0.31-0.302,0.6-0.464,0.895c-0.089,0.143-0.185,0.283-0.277,0.425c-0.088,0.144-0.191,0.279-0.296,0.413
		c-0.399,0.55-0.888,1.037-1.387,1.511c-1.031,0.923-2.225,1.684-3.488,2.331c-0.315,0.163-0.631,0.326-0.96,0.465
		c-0.326,0.143-0.65,0.301-0.981,0.423c-0.333,0.127-0.653,0.264-0.997,0.385l-1.043,0.357l-1.052,0.36
		c-0.355,0.124-0.703,0.27-1.054,0.404c-0.35,0.138-0.691,0.298-1.036,0.447c-0.342,0.156-0.675,0.331-1.013,0.495
		c-1.337,0.686-2.609,1.489-3.806,2.387c-1.198,0.896-2.313,1.895-3.339,2.974c-0.517,0.535-1.004,1.097-1.475,1.671
		c-0.466,0.578-0.908,1.174-1.328,1.783c-0.42,0.61-0.816,1.235-1.176,1.88c-0.36,0.644-0.701,1.3-0.984,1.98
		c0.694-1.298,1.555-2.492,2.461-3.637c0.915-1.139,1.914-2.205,2.978-3.195c1.06-0.994,2.214-1.879,3.405-2.695
		c1.196-0.81,2.455-1.522,3.765-2.117c0.656-0.295,1.321-0.567,1.994-0.817c0.34-0.116,0.675-0.244,1.018-0.35l1.046-0.318
		l1.055-0.32c0.353-0.11,0.716-0.248,1.074-0.371c0.363-0.12,0.707-0.273,1.059-0.413c0.353-0.136,0.696-0.298,1.04-0.46
		c1.372-0.651,2.691-1.461,3.877-2.473c0.578-0.523,1.146-1.068,1.626-1.699c0.125-0.153,0.248-0.308,0.356-0.475
		c0.112-0.164,0.227-0.326,0.335-0.493c0.201-0.344,0.409-0.684,0.574-1.049c0.71-1.436,1.019-3.051,1.026-4.627
		c0.009-1.583-0.297-3.133-0.776-4.601c-0.12-0.368-0.254-0.73-0.395-1.088l-0.223-0.533l-0.118-0.264l-0.029-0.066l-0.015-0.033
		l-0.036-0.072l-0.064-0.122c-0.501-0.933-1.455-1.535-2.479-1.612c-0.509-0.044-1.031,0.04-1.496,0.247
		c-0.262,0.115-0.377,0.19-0.551,0.278l-0.487,0.258c-0.648,0.347-1.309,0.704-1.951,1.06c-1.293,0.711-2.575,1.435-3.857,2.16
		c-1.281,0.726-2.55,1.472-3.82,2.214l-3.804,2.238c-1.269,0.745-2.525,1.508-3.785,2.271l-0.069,0.042l-0.034,0.031
		c-0.232,0.217-0.397,0.4-0.575,0.606c-0.182,0.197-0.332,0.409-0.498,0.613c-0.166,0.204-0.303,0.424-0.455,0.635
		c-0.154,0.21-0.288,0.432-0.422,0.652c-0.132,0.222-0.278,0.436-0.397,0.665l-0.361,0.682c-0.059,0.114-0.123,0.226-0.178,0.342
		l-0.157,0.351l-0.31,0.703c-0.11,0.231-0.187,0.476-0.277,0.715l-0.262,0.719c-0.094,0.238-0.161,0.483-0.231,0.728l-0.211,0.733
		c-0.155,0.485-0.246,0.985-0.355,1.48l-0.159,0.743c-0.06,0.246-0.079,0.5-0.119,0.749l-0.205,1.501l-0.103,1.509l-0.05,0.753
		c-0.008,0.251-0.002,0.503-0.004,0.754L14.805,52.539z"/>
	<path fill="#00420B" d="M44.819,12.54c-0.606,0.073-1.038,0.623-0.965,1.229c0.073,0.606,0.623,1.038,1.229,0.965
		c0.606-0.073,1.038-0.623,0.965-1.229C45.975,12.899,45.425,12.467,44.819,12.54z"/>
	<path fill="#00420B" d="M52.88,22.307c0,0,0.289-1.774-1.509-2.853c-1.797-1.079-2.989-2.949-2.989-2.949s-1.522,1.924-1.784,3.051
		c0,0-0.645,1.29,0.043,3.222c0.688,1.931-0.623,2.901-1.021,3.193C45.621,25.97,52.068,25.771,52.88,22.307z"/>
	<path fill="#00420B" d="M44.094,39.222c-0.117,0.194-0.242,0.403-0.376,0.626c-0.066,0.112-0.134,0.227-0.204,0.345
		c-0.08,0.112-0.161,0.228-0.245,0.346c-0.168,0.236-0.346,0.484-0.532,0.745c-0.197,0.251-0.424,0.498-0.649,0.763
		c-0.217,0.272-0.486,0.515-0.752,0.778c-0.135,0.129-0.266,0.267-0.41,0.396c-0.149,0.123-0.301,0.248-0.456,0.376
		c-1.233,1.022-2.808,1.929-4.56,2.918c-0.877,0.498-1.794,1.02-2.726,1.602c-0.464,0.295-0.94,0.589-1.401,0.923
		c-0.466,0.327-0.944,0.649-1.408,1.021c-0.467,0.362-0.957,0.725-1.394,1.113c-0.225,0.192-0.452,0.385-0.679,0.579l-0.171,0.146
		l-0.086,0.073l-0.043,0.037l-0.055,0.052l-0.337,0.323c-0.225,0.217-0.452,0.434-0.68,0.653c-0.223,0.224-0.427,0.47-0.642,0.706
		c-0.441,0.465-0.823,0.991-1.224,1.507c-0.757,1.067-1.457,2.213-1.998,3.46c-0.259,0.627-0.514,1.262-0.705,1.924
		c-0.048,0.165-0.106,0.328-0.145,0.496l-0.118,0.504l-0.117,0.506l-0.087,0.513c-0.232,1.369-0.297,2.776-0.198,4.178
		c0.025,0.349,0.069,0.723,0.112,1.065l0.076,0.496l0.019,0.124c0.008,0.049,0.008,0.037,0.012,0.059l0.01,0.041l0.02,0.082
		c0.027,0.109,0.053,0.218,0.085,0.326c0.15,0.429,0.382,0.832,0.685,1.176c0.313,0.335,0.688,0.606,1.1,0.794
		c0.827,0.365,1.811,0.395,2.655,0.025c0.105-0.049,0.206-0.09,0.313-0.15c0.109-0.067,0.218-0.138,0.323-0.211l0.079-0.055
		c0.022-0.017,0.033-0.028,0.051-0.043l0.095-0.082l0.095-0.082l0.024-0.021c-0.032,0.03,0.07-0.062,0.071-0.065l0.058-0.062
		c0.313-0.328,0.556-0.723,0.71-1.147c0.155-0.425,0.221-0.88,0.194-1.33c-0.007-0.113-0.018-0.225-0.038-0.336
		c-0.012-0.101-0.051-0.251-0.077-0.354l-0.151-0.489l-0.142-0.451l-0.117-0.455c-0.086-0.302-0.138-0.608-0.2-0.912
		c-0.057-0.305-0.093-0.611-0.133-0.915c-0.021-0.305-0.057-0.61-0.058-0.914c-0.03-0.609,0.016-1.212,0.09-1.806
		c0.079-0.595,0.223-1.175,0.395-1.743c0.189-0.563,0.411-1.113,0.678-1.64c1.085-2.105,2.715-3.855,4.428-5.306
		c0.858-0.729,1.745-1.384,2.62-2c0.438-0.308,0.875-0.601,1.306-0.883c0.22-0.141,0.438-0.281,0.654-0.42
		c0.216-0.15,0.431-0.298,0.643-0.444c1.71-1.169,3.044-2.555,4.009-3.916c0.975-1.36,1.578-2.695,1.966-3.815
		c0.391-1.123,0.55-2.044,0.635-2.669c0.082-0.627,0.08-0.963,0.08-0.963s-0.031,0.336-0.173,0.947
		c-0.141,0.61-0.403,1.494-0.866,2.559c-0.466,1.061-1.164,2.295-2.175,3.534c-1.012,1.237-2.362,2.455-4.027,3.48
		c-0.209,0.129-0.42,0.259-0.633,0.39c-0.223,0.127-0.449,0.255-0.676,0.385c-0.46,0.268-0.924,0.545-1.39,0.836
		c-0.933,0.583-1.87,1.236-2.8,1.962c-0.93,0.725-1.843,1.539-2.7,2.461c-0.219,0.226-0.419,0.473-0.63,0.712
		c-0.197,0.252-0.405,0.498-0.589,0.765c-0.388,0.519-0.731,1.084-1.053,1.667c-0.316,0.588-0.585,1.21-0.816,1.852
		c-0.214,0.649-0.395,1.317-0.503,2.003c-0.221,1.371-0.203,2.797,0.044,4.175c0.066,0.343,0.124,0.69,0.216,1.027l0.128,0.509
		l0.153,0.501l0.14,0.465c0.01,0.06,0.017,0.071,0.025,0.135c0.01,0.053,0.013,0.107,0.017,0.161
		c0.01,0.215-0.023,0.434-0.099,0.636c-0.076,0.202-0.192,0.388-0.343,0.543l-0.018,0.019l-0.01,0.008l-0.096,0.081L26.1,69.238
		c-0.015,0.012-0.034,0.03-0.046,0.038l-0.027,0.012c-0.036,0.017-0.069,0.037-0.1,0.059c-0.038,0.022-0.095,0.041-0.141,0.064
		c-0.388,0.17-0.854,0.151-1.252-0.025c-0.196-0.093-0.374-0.218-0.523-0.37c-0.139-0.161-0.247-0.345-0.325-0.547l-0.041-0.16
		l-0.011-0.04l-0.006-0.02c0,0.001-0.007-0.031-0.002-0.002l-0.02-0.124l-0.08-0.496c-0.042-0.321-0.077-0.612-0.103-0.929
		c-0.099-1.262-0.05-2.532,0.15-3.767c0.202-1.235,0.546-2.435,1.003-3.578c0.464-1.142,1.079-2.202,1.752-3.201
		c0.36-0.484,0.699-0.978,1.1-1.42c0.196-0.224,0.378-0.458,0.582-0.672c0.205-0.213,0.41-0.425,0.613-0.635l0.304-0.316l0.019-0.02
		c0-0.001,0.026-0.025,0.006-0.008l0.041-0.038l0.083-0.076l0.165-0.152c0.22-0.203,0.439-0.404,0.657-0.604
		c0.432-0.415,0.871-0.762,1.301-1.124c1.74-1.431,3.539-2.627,5.233-3.705c0.847-0.545,1.669-1.061,2.425-1.606
		c0.376-0.275,0.747-0.535,1.085-0.825c0.171-0.14,0.34-0.278,0.507-0.415c0.163-0.14,0.313-0.292,0.467-0.434
		c0.152-0.144,0.301-0.285,0.447-0.424c0.141-0.144,0.269-0.297,0.401-0.442c0.259-0.292,0.517-0.564,0.718-0.865
		c0.21-0.293,0.422-0.566,0.602-0.84c0.168-0.282,0.329-0.551,0.481-0.806c0.075-0.128,0.149-0.252,0.22-0.372
		c0.061-0.126,0.121-0.249,0.178-0.367c0.113-0.238,0.219-0.461,0.318-0.668c0.21-0.408,0.326-0.783,0.444-1.075
		c0.225-0.588,0.345-0.902,0.345-0.902s-0.15,0.3-0.432,0.863C44.491,38.482,44.341,38.839,44.094,39.222z"/>
	<path fill="#00420B" d="M41.058,48.867c0,0,3.247,14.359-4.753,28.072c-0.87,1.491-1.871,2.975-3.026,4.432
		c0,0-4.51,5.244-2.998,10.55c0.055,0.195,0.117,0.389,0.189,0.583c0,0,0.018-0.382,0.13-1.024c0.301-1.739,1.288-5.396,4.472-8.614
		c3.623-3.661,6.77-8.444,9.028-13.716c3.907-9.121,5.151-19.704,1.577-28.475C45.677,40.675,44.27,46.266,41.058,48.867z"/>
	<path fill="#00420B" d="M112.047,105.456l2.032,0.199l0.553-0.812l-3.147-3.802c-0.297,0.134-0.577,0.259-0.842,0.381
		L112.047,105.456z M116.735,85.265c0,0.619,0.931,0.619,0.931,0S116.735,84.646,116.735,85.265z M96.66,104.361l1.229-0.544
		c0.048-0.021,4.659-2.118,7.485-7.208c2.564-4.62,6.774-4.204,8.041-8.136c0.699-2.163,0.259-2.505-1.85-4.129
		c0.66-0.375,1.404-0.693,2.198-0.467c1.556-1.862,3.85-1.363,5.289,0.187c2.008,2.166,2.761,8.172,0.128,12.096
		c-1.734,2.588-3.894,3.177-7.241,4.674l3.15,3.805l2.978,1.687c0.217,0.125,0.131,0.458-0.119,0.458
		c-0.101,0-2.85-1.583-2.939-1.636c-1.383,2.044-1.419,2.237-1.687,2.056c-0.256-0.176-0.024-0.399,0.446-1.089l-1.821-0.181
		c-1.749,1.485-1.853,1.684-2.062,1.434c-0.211-0.253,0.006-0.324,1.699-1.761l-1.386-3.98c-1.853,0.848-3.234,1.499-4.171,2.062
		c0.006-0.339-0.009-1.142,0.244-2.404c-1.232,0.946-4.195,2.752-8.27,2.999L96.66,104.361"/>
</g>
<g>
	<path fill="#010101" d="M26.972,101.432l-0.789,1.356l-0.771,1.367c-0.503,0.917-1.005,1.836-1.483,2.767
		c-0.245,0.463-0.477,0.932-0.712,1.399c-0.237,0.467-0.465,0.938-0.692,1.41c-0.457,0.942-0.894,1.894-1.319,2.852
		c-0.425,0.958-0.832,1.924-1.222,2.898c-0.391,0.974-0.759,1.958-1.108,2.95c-0.346,1-0.672,1.983-0.95,3.04l-0.38,1.442
		l1.342-0.699c0.591-0.307,1.186-0.606,1.794-0.874c0.304-0.134,0.608-0.268,0.917-0.388c0.307-0.127,0.618-0.241,0.93-0.353
		c0.31-0.118,0.628-0.211,0.942-0.318c0.318-0.092,0.633-0.193,0.954-0.274c0.638-0.174,1.285-0.31,1.935-0.43
		c2.601-0.458,5.277-0.433,7.863,0.08c1.292,0.26,2.564,0.626,3.796,1.104c0.965,0.371,1.907,0.805,2.823,1.292
		c0.085-0.524,0.163-1.045,0.238-1.564c-0.824-0.414-1.667-0.791-2.532-1.118c-1.312-0.497-2.669-0.877-4.049-1.144
		c-2.762-0.526-5.626-0.531-8.386-0.022c-0.689,0.132-1.375,0.282-2.049,0.472c-0.339,0.089-0.672,0.198-1.007,0.298
		c-0.33,0.115-0.665,0.216-0.991,0.343c-0.328,0.121-0.655,0.243-0.976,0.38c-0.325,0.128-0.643,0.272-0.961,0.415
		c-0.169,0.076-0.335,0.159-0.502,0.239c0.154-0.499,0.318-1,0.485-1.493c0.334-0.974,0.687-1.943,1.065-2.904
		c0.377-0.961,0.77-1.917,1.183-2.865c0.412-0.948,0.836-1.892,1.281-2.826c0.22-0.468,0.442-0.936,0.673-1.399
		c0.228-0.464,0.455-0.93,0.693-1.389c0.467-0.924,0.952-1.839,1.441-2.752l0.749-1.361l0.768-1.351
		c0.254-0.452,0.519-0.897,0.784-1.342c0.267-0.444,0.523-0.895,0.798-1.334l0.815-1.324l0.645-1.015l-0.47-1.266
		c-0.083,0.126-0.169,0.251-0.251,0.378l-0.855,1.314l-0.836,1.327c-0.282,0.44-0.546,0.892-0.82,1.337
		C27.505,100.532,27.233,100.979,26.972,101.432z"/>
	<path fill="#361600" d="M116.68,23.27c-7.451-0.185-10.56-2.034-11.848-3.672c-1.711-2.178-4.05-3.769-6.767-4.306
		c-0.335-0.066-0.67-0.13-1-0.192c-2.47-0.46-4.938,0.812-6.004,3.086c-0.243,0.518-0.43,0.864-0.43,0.864
		c-0.088-4.057-2.029-9.525-3.792-11.554C85.074,5.468,82.869,0,82.869,0c-1.764,3.352-4.586,13.582-2.999,16.405
		c1.588,2.822,1.058,7.585,1.058,7.585s3.028,1.302,2.631,12.414c-0.283,7.932,2.848,11.453,4.664,12.819
		c-1.722-1.182-4.702-3.798-5.443-8.12c-1.058-6.174,0.122-11.378-3.379-15.17c0,0-1.208,2.822-4.03,5.645
		c-2.822,2.822-4.939,5.997-8.114,11.642c-3.175,5.645-5.115,9.702-6.35,13.053c-1.235,3.352-9.349,14.688-14.641,19.515
		c0,0,8.291,0.418,19.449-5.295c-2.802,1.624-5.702,3.076-8.688,4.32c-2.112,0.878-4.265,1.654-6.454,2.306
		c-1.094,0.326-2.197,0.621-3.308,0.876c-1.106,0.252-2.238,0.48-3.338,0.614l-0.165,0.02l-0.105,0.12l-2.062,2.356
		c-0.67,0.801-1.353,1.591-2.011,2.4c-0.655,0.813-1.326,1.613-1.964,2.44l-0.422,0.539c-0.329,0.942-0.564,1.786-0.723,2.56
		c0.007-0.009,0.014-0.019,0.021-0.029c0.31-0.416,0.614-0.836,0.928-1.249l0.947-1.235c0.625-0.829,1.283-1.631,1.926-2.446
		c0.647-0.812,1.317-1.604,1.975-2.408l1.042-1.225l0.642-1.189l-0.167,0.631l0.405-0.476c1.115-0.161,2.182-0.393,3.256-0.652
		c1.125-0.275,2.239-0.59,3.342-0.935c2.206-0.692,4.371-1.506,6.49-2.422c4.237-1.835,8.289-4.076,12.118-6.639
		c1.914-1.283,3.775-2.644,5.572-4.084c0.601-0.477,1.191-0.968,1.777-1.463c4.175-3.411,8.484-7.743,12.722-13.25v0
		c2.117-10.747,10.869-10.098,10.869-10.098c-1.455-3.043,0.794-6.879,0.794-6.879c-0.154,5.132,1.307,8.721,3.97,10.059
		c3.079,1.547,7.232-3.723,9.231-6.647c0.764-1.118,1.17-2.436,1.17-3.791v-2.013c1.744-1.35,2.376-3.956,2.604-5.667
		C118.224,24.066,117.559,23.292,116.68,23.27z M101.558,22.644c-0.606,0.073-1.156-0.359-1.229-0.965s0.359-1.156,0.965-1.229
		s1.156,0.359,1.229,0.965C102.596,22.021,102.164,22.571,101.558,22.644z"/>
	<path fill="#361600" d="M53.482,127.89c-2.716,1.235-4.568,1.588-4.568,1.588s1.021,2.44,0.334,6.247
		c-0.223,1.234,6.222-1.8,8.468-3.793l-1.04-6.953C56.675,124.979,56.198,126.655,53.482,127.89z"/>
	<path fill="#361600" d="M46.76,157.865H25.961c0-2.904,4.359-6.15,9.132-9.737c-0.19-0.126-0.357-0.29-0.491-0.491
		c-0.618-0.926-1.043-3.108,2.378-11.332c1.559-3.748,2.656-7.802,3.426-11.794c-11.911-6.725-27.941,3.187-27.941,3.187
		c2.314-9.564,6.66-18.572,11.773-26.807c-0.955-0.159-1.822-0.655-2.441-1.423c-0.554-0.688-1.176-1.509-1.829-2.445
		c-8.455,11.67-16.285,24.668-18.617,33.851c-4.234,16.671,2.832,34.242,2.832,34.242h49.749
		C53.976,161.124,50.752,157.865,46.76,157.865z"/>
	<path fill="#361600" d="M79.403,153.467l1.831-41.629c-1.908,2.108-4.839,3.183-4.839,3.183c-2.514-3.836-3.44-8.599-3.44-8.599
		v46.566c10.716,3.969,9.26,12.038,9.26,12.038h7.367C89.146,156.296,79.403,153.467,79.403,153.467z"/>
	<path fill="#361600" d="M89.791,85.961c-0.071,1.316-0.189,2.64-0.41,3.948c-0.213,1.332-0.504,2.655-0.882,3.948
		c-0.37,1.3-0.835,2.569-1.379,3.806c-1.095,2.482-2.521,4.799-4.145,6.95c-1.623,2.159-3.443,4.145-5.279,6.091L77.2,111.23
		l-0.276-0.67c-0.362-0.883-0.607-1.749-0.812-2.647c-0.197-0.898-0.331-1.812-0.394-2.734c-0.055-0.922-0.031-1.86,0.079-2.781
		c0.11-0.922,0.331-1.836,0.638-2.718c0.095-0.252,0.165-0.426,0.268-0.654c0.102-0.221,0.205-0.441,0.323-0.646
		c0.221-0.418,0.481-0.812,0.748-1.19c0.544-0.756,1.15-1.45,1.757-2.12c0.607-0.67,1.213-1.316,1.789-1.986
		c0.567-0.67,1.103-1.355,1.576-2.08c0.473-0.725,0.875-1.481,1.206-2.277c0.323-0.788,0.575-1.615,0.749-2.458
		c0.181-0.843,0.284-1.702,0.331-2.569l0.024-0.654l0.008-0.158V82.84l-0.008-0.079l-0.024-0.331
		c-0.024-0.441-0.063-0.882-0.095-1.324c-0.142-1.6-0.323-3.191-0.552-4.775c-0.079,0.819-0.173,1.639-0.292,2.45l-0.102,0.693
		l-0.055,0.355l-0.055,0.339c-0.039,0.221-0.095,0.465-0.134,0.701c-0.055,0.229-0.102,0.465-0.165,0.693
		c-0.449,1.844-1.135,3.632-2.064,5.303c-0.473,0.827-0.993,1.631-1.615,2.387c-0.622,0.756-1.308,1.418-2.001,2.049
		c-1.379,1.261-2.797,2.395-3.9,3.735c-1.103,1.308-1.804,2.915-2.246,4.617c-0.441,1.702-0.638,3.491-0.741,5.303
		c-0.047,0.898-0.079,1.812-0.11,2.734c-0.032,0.914-0.047,1.82-0.055,2.734c-0.008,1.828,0.024,3.656,0.071,5.484l0.039,1.379
		l0.008,0.339l0.008,0.173v3.648l-0.016,11.023l-0.047,21.432c0.102,0.039,0.197,0.071,0.299,0.11
		c0.299,0.118,0.591,0.229,0.882,0.355c0.575,0.252,1.15,0.52,1.71,0.819c1.111,0.599,2.183,1.292,3.168,2.135
		c0.977,0.843,1.875,1.828,2.537,2.994c0.662,1.166,1.064,2.514,1.103,3.869l0.031,0.906H64.175l-0.087-0.788
		c-0.236-2.293-0.504-4.602-0.788-6.894c-0.276-2.301-0.583-4.594-0.898-6.887l-0.489-3.435c-0.165-1.15-0.331-2.293-0.512-3.435
		c-0.165-1.143-0.347-2.293-0.536-3.435c-0.173-1.142-0.37-2.285-0.559-3.42c-0.189-1.143-0.386-2.285-0.591-3.42
		c-0.197-1.143-0.41-2.285-0.622-3.42l-0.638-3.42c-0.205-1.143-0.418-2.293-0.615-3.435c-0.197-1.143-0.386-2.293-0.575-3.443
		c-0.181-1.143-0.362-2.293-0.528-3.443c-0.032-0.244-0.071-0.481-0.102-0.717l-0.599,4.381l-0.189,1.347l-0.055,0.323l-0.095,0.402
		c-0.071,0.244-0.15,0.489-0.244,0.725c-0.378,0.938-0.993,1.789-1.765,2.443c-0.386,0.331-0.819,0.615-1.269,0.843l-0.347,0.158
		l-0.307,0.126l-0.623,0.26l-2.458,1.032l-0.512,0.221l-0.37-0.425c-0.197-0.213-0.433-0.465-0.662-0.686
		c-0.236-0.236-0.481-0.457-0.725-0.686c-0.284-0.252-0.575-0.504-0.875-0.749c0.071-0.607,0.126-1.206,0.181-1.812
		c0.039,0.024,0.071,0.055,0.11,0.079c0.552,0.433,1.095,0.875,1.615,1.347c0.26,0.228,0.512,0.473,0.764,0.717
		c0.126,0.118,0.244,0.244,0.37,0.362l1.962-0.835l0.615-0.26l0.299-0.126l0.26-0.126c0.339-0.173,0.662-0.386,0.953-0.63
		c0.575-0.496,1.032-1.135,1.316-1.844c0.071-0.181,0.126-0.362,0.181-0.544l0.055-0.252l0.055-0.331l0.173-1.292l1.41-10.59
		l0.922-6.918l0.709,6.957c0.118,1.127,0.26,2.277,0.41,3.42c0.158,1.143,0.315,2.285,0.489,3.428
		c0.173,1.15,0.355,2.285,0.544,3.428c0.181,1.143,0.378,2.285,0.575,3.42c0.197,1.143,0.41,2.277,0.615,3.412l0.646,3.42
		c0.213,1.143,0.425,2.285,0.63,3.428c0.205,1.15,0.41,2.293,0.599,3.435c0.189,1.15,0.386,2.293,0.567,3.443
		c0.189,1.143,0.37,2.293,0.544,3.443c0.181,1.143,0.347,2.293,0.52,3.443l0.489,3.451c0.323,2.301,0.63,4.602,0.914,6.91
		c0.252,2.041,0.496,4.089,0.717,6.138l13.166,0.008c-0.134-0.756-0.394-1.489-0.78-2.167c-0.536-0.946-1.284-1.797-2.143-2.537
		c-0.867-0.741-1.836-1.371-2.86-1.923c-0.512-0.276-1.04-0.528-1.576-0.756c-0.268-0.118-0.536-0.229-0.804-0.331
		c-0.268-0.102-0.559-0.205-0.804-0.276l-0.615-0.189v-0.638l0.087-22.054l0.055-11.031l0.008-2.758l0.008-0.686l-0.016-0.662
		l-0.032-1.387c-0.047-1.844-0.063-3.688-0.039-5.539c0.008-0.922,0.032-1.852,0.063-2.774c0.032-0.922,0.063-1.844,0.126-2.774
		c0.118-1.86,0.323-3.743,0.812-5.602c0.244-0.93,0.567-1.844,0.985-2.726c0.213-0.433,0.449-0.867,0.717-1.284l0.197-0.307
		l0.221-0.315c0.079-0.102,0.15-0.181,0.221-0.276l0.11-0.15l0.118-0.142c1.253-1.489,2.734-2.663,4.066-3.869
		c0.67-0.599,1.316-1.221,1.86-1.883c0.552-0.654,1.048-1.403,1.489-2.167c0.875-1.529,1.529-3.199,1.962-4.925
		c0.055-0.213,0.102-0.433,0.158-0.646c0.039-0.221,0.087-0.426,0.126-0.646l0.063-0.347l0.055-0.323l0.102-0.67
		c0.142-0.898,0.252-1.797,0.339-2.703c0.173-1.804,0.244-3.617,0.205-5.421l-0.142-6.209l1.458,6.02
		c0.213,0.882,0.418,1.773,0.583,2.663c0.173,0.89,0.307,1.789,0.441,2.679c0.26,1.789,0.457,3.585,0.599,5.39
		c0.032,0.449,0.063,0.898,0.087,1.347l0.024,0.347v0.087l0.008,0.039v0.079l-0.008,0.173l-0.032,0.693
		c-0.063,0.922-0.181,1.844-0.378,2.758c-0.197,0.906-0.473,1.804-0.835,2.663c-0.37,0.859-0.819,1.678-1.339,2.451
		c-0.512,0.78-1.087,1.497-1.686,2.19c-0.599,0.686-1.221,1.34-1.828,1.986c-0.607,0.654-1.19,1.308-1.702,2.001
		c-0.252,0.347-0.489,0.701-0.693,1.072c-0.102,0.189-0.189,0.37-0.284,0.552c-0.079,0.181-0.181,0.426-0.244,0.591
		c-0.292,0.804-0.504,1.639-0.615,2.498c-0.118,0.851-0.142,1.718-0.095,2.584c0.039,0.867,0.158,1.733,0.339,2.592
		c0.126,0.599,0.292,1.213,0.481,1.797c1.67-1.741,3.294-3.514,4.767-5.405c1.623-2.088,3.049-4.334,4.145-6.737
		c0.552-1.198,1.024-2.435,1.41-3.695c0.386-1.269,0.686-2.553,0.922-3.861c0.228-1.3,0.37-2.624,0.457-3.94
		c0.087-1.324,0.095-2.655,0.063-3.987c-0.055-1.332-0.134-2.647-0.292-3.979l-0.441-3.979c-0.071-0.67-0.118-1.332-0.181-2.001
		c-0.055-0.67-0.118-1.332-0.15-2.001l-0.118-2.001l-0.063-2.009c-0.024-0.67-0.024-1.34-0.024-2.001c0-0.67,0-1.34,0.024-2.009
		c0.024-1.34,0.087-2.671,0.189-4.011c0.055-0.662,0.102-1.332,0.181-1.993c0.063-0.67,0.158-1.332,0.252-1.993
		c0.205-1.316,0.425-2.64,0.788-3.924c-0.339,1.292-0.544,2.616-0.717,3.94c-0.079,0.662-0.165,1.324-0.213,1.986
		c-0.071,0.662-0.11,1.332-0.15,2.001c-0.079,1.332-0.118,2.663-0.126,3.995c-0.008,0.67,0,1.34,0.016,2.001
		c0.016,0.67,0.024,1.34,0.063,2.001l0.087,2.001l0.142,1.993c0.039,0.67,0.11,1.332,0.173,1.993
		c0.071,0.662,0.126,1.324,0.205,1.993l0.496,3.971c0.181,1.324,0.276,2.671,0.355,4.011c0.016,0.512,0.032,1.032,0.039,1.544
		c0,0.796-0.008,2.159-0.032,2.38C89.799,85.85,89.791,85.961,89.791,85.961z"/>
	<path fill="#361600" d="M36.247,111.219c0.241,0.998,1.085,1.518,1.932,1.518c0.752,0,1.505-0.409,1.842-1.256
		c0.769-1.935,1.362-4.54,1.195-7.838c-0.414-8.209-1.687-11.799-0.569-16.017c0,0-2.126,3.939-1.87,7.581
		c0.237,3.369,0.602,11.211-2.094,14.214C36.248,109.908,36.094,110.584,36.247,111.219z"/>
	<path fill="#361600" d="M41.294,142.544c-0.108,0.329-0.238,0.662-0.385,0.994c5.255-4.569,8.826-9.614,4.205-15.136
		c-0.926,5.775-2.409,10.056-3.335,12.723C41.592,141.663,41.43,142.128,41.294,142.544z"/>
	<path fill="#361600" d="M41.833,122.609c-0.138,0.827-0.289,1.66-0.455,2.496c-0.779,3.922-1.878,7.902-3.419,11.607
		c-3.321,7.984-3.129,10.647-1.904,10.647c0.022,0,0.045-0.003,0.067-0.004c0.639-0.048,1.532-0.767,2.356-1.813
		c0.735-0.933,1.415-2.124,1.811-3.328c0.886-2.698,2.848-7.571,3.909-14.803c0.139-0.95,0.263-1.939,0.367-2.971
		c0.058-0.577,0.109-1.168,0.154-1.771c0.455-6.139,0.181-13.618-1.654-22.52c0,0,0.68,9.694-0.981,20.869
		C42.006,121.546,41.922,122.076,41.833,122.609z"/>
	<path fill="#361600" d="M35.457,88.761c0.311-1.477,0.875-3.191,1.808-5.283c0,0-4.287,3.762-4.758,9.055
		c-0.01,0.115-0.019,0.225-0.027,0.336c-0.059,0.741-0.091,1.413-0.107,2.028c-0.042,1.662,0.028,2.908-0.037,3.974
		c-0.173,2.859,0.645,5.689,2.351,7.989c0,0,2.563-3.536,1.702-8.179c-0.524-2.826-1.417-4.855-1.226-7.83
		C35.205,90.205,35.298,89.514,35.457,88.761z"/>
	<path fill="#361600" d="M37.259,82.074l2.163-1.898c8.204-9.943,15.5-17.669,17.588-22.426
		c4.763-10.849,13.071-24.056,18.01-28.818c4.939-4.763,3.175-9.702,3.175-9.702c-0.706,2.293-1.235,2.47-2.646,4.939
		c-1.411,2.47-12.789,13.23-17.199,24.166C54.865,56.98,52.976,60.115,46,67.234C43.951,72.763,40.894,77.964,37.259,82.074z"/>
	<path fill="#361600" d="M170.676,101.938c-0.171-0.348-0.295-1.345-0.631-1.682c-0.867-0.33-1.599-0.944-2.502-1.233
		c-0.649-0.207-1.54-0.437-1.923-1.068c-0.525-0.856-0.106-1.876,0.637-2.165c-0.047-0.035-0.094-0.083-0.13-0.148
		c-0.519-0.944-0.372-2.708,0.974-2.779c0.065-0.006,0.124,0.006,0.177,0.024c0.047-0.018,0.106-0.029,0.171-0.024
		c0.366,0.018,0.496-0.608,0.684-0.873c0.248-0.348,0.572-0.437,0.985-0.49c0.59-0.071,1.416,0.059,1.947,0.454
		c0.035-0.012,0.071-0.018,0.112-0.024c1.392-0.1,3.068,0.755,3.587,2.077c0.018,0.059,0.029,0.106,0.029,0.153
		c0.649,1.227,1.735,2.449,2.549,3.54c1.038,1.392,2.071,2.749,2.95,4.254c0.867,1.487,1.481,3.104,2.236,4.649
		c0.254,0.525,0.566,1.027,0.891,1.522c0.466-0.425,1.015-1.87,1.18-2.189c0.36-0.708,0.767-1.664,1.51-2.059
		c0.024-0.012,0.053-0.024,0.077-0.035c0.507-1.198,1.569-2.065,2.531-2.891c0.708-0.602,1.274-1.375,1.888-2.059
		c0.684-0.767,1.493-1.345,2.112-2.177c1.363-1.835,1.575-3.67,1.168-5.871c-0.165-0.903-0.389-1.876-0.761-2.714
		c-0.283-0.649-0.684-1.204-0.891-1.888c-0.336-1.151,0.608-2.466,1.245-3.31c1.463-1.941,3.64-2.124,5.552-1.097
		c0.053-0.065,0.136-0.118,0.242-0.142c1.929-0.448,3.505-0.832,5.475-0.36c0.165,0.041,0.336,0.089,0.502,0.136
		c0.024-0.03,0.059-0.059,0.094-0.083c0.761-0.496,1.794-1.623,2.006-2.525c0.077-0.313,0.537-0.454,0.755-0.201
		c0.932,1.097,0.295,2.779,0.248,4.048c0,0.006,0,0.012,0,0.018c0.602,0.319,1.18,0.684,1.735,1.074
		c0.749-1.139,2.289-2.118,3.263-2.891c1.245-0.985,2.513-1.546,3.145,0.212c0.584,1.646-0.224,3.841-0.915,5.334
		c-0.136,0.295-0.295,0.578-0.466,0.85c0.071,0.071,0.118,0.171,0.118,0.301c0,2.307-0.006,4.62,0.03,6.933
		c0.029,2.077-1.009,3.729-1.587,5.658c-0.26,0.861-0.667,1.682-0.997,2.513c-0.443,1.103-0.46,2.272-0.395,3.44
		c0.018,0.443,0.089,0.879,0.177,1.31c0.035,0.047,0.065,0.106,0.077,0.183c0.148,0.861,1.575,1.428,2.272,1.794
		c0.938,0.49,1.876,0.92,2.749,1.522c2.395,1.628,4.938,2.944,7.405,4.472c4.579,2.838,9.311,6.207,12.556,10.573
		c3.304,4.437,5.027,9.706,6.903,14.845c1.08,2.962,2.224,5.593,4.39,7.942c0.891,0.962,1.988,1.699,3.145,2.301
		c0.938,0.49,2.23,0.974,3.428,1.198c0.071-0.077,0.177-0.124,0.319-0.112c5.682,0.413,11.216,0.065,16.503-2.177
		c2.366-1.003,4.708-1.87,6.974-3.098c0.985-0.531,1.929-1.003,2.98-1.381c1.328-0.478,2.395-1.446,3.658-2.053
		c2.478-1.186,8.774-3.098,9.346,1.269c0.195,1.51-1.068,3.068-2.065,4.042c-1.505,1.469-3.735,1.947-5.682,2.537
		c-0.147,0.041-0.271,0.012-0.366-0.053c-1.682,0.26-3.334,1.64-4.803,2.431c-1.906,1.038-3.829,2.053-5.8,2.962
		c-3.741,1.735-7.912,2.478-11.977,2.974c-4.166,0.507-8.638,0.838-12.803,0.23c-1.823-0.266-3.499-0.802-5.228-1.41
		c-1.009-0.354-2.047-0.755-2.814-1.493c-0.956,0.655-2.395,0.69-3.428,1.18c0.295,1.062,0.342,2.13-0.266,3.222
		c-0.814,1.44-2.702,1.658-4.177,1.682c-2.366,0.041-4.773-0.325-7.139-0.401c-0.985-0.029-1.923,0.1-2.85,0.148
		c-0.124,0.118-0.301,0.159-0.484,0.018c-0.596,0.012-1.186-0.035-1.776-0.189c-0.153,0.047-0.33,0.012-0.443-0.142
		c-0.212-0.083-0.425-0.171-0.637-0.289c-0.23-0.124-0.431-0.277-0.614-0.443c-0.089,0.089-0.224,0.124-0.389,0.059
		c-1.699-0.643-3.664,0.466-5.416,0.472c-1.693,0-2.549-1.505-2.508-3.056c0.035-1.398,1.103-2.018,2.484-2.254
		c-0.083-0.035-0.165-0.065-0.242-0.089c-0.944-0.325-1.882-0.466-2.791-0.915c-1.086-0.543-1.853-1.552-2.608-2.466
		c-1.298-1.575-2.608-3.505-2.602-5.611c0.006-1.038,0.372-2.095,1.221-2.513c-1.628-0.779-3.098-1.67-4.549-2.82
		c-1.328-1.056-2.785-2.047-3.758-3.446c-0.608,1.558-1.097,3.239-2.047,4.614c-0.631,0.915-1.245,1.835-1.859,2.761
		c-1.457,2.195-2.95,4.384-4.301,6.644c-0.962,1.611-0.49,4.691-2.384,5.658c0.537,0.968,0.732,2.13,0.313,3.192
		c-0.466,1.21-1.929,1.192-2.791,0.472c-0.012,0.03-0.029,0.053-0.041,0.083c-0.33,0.507-0.997,0.726-1.564,0.749
		c-0.861,0.035-1.581-0.49-1.982-1.198c-0.142,0.148-0.295,0.283-0.46,0.395c-0.991,0.661-1.829-0.236-2.183-1.103
		c-0.696-1.705,0.372-3.021,1.8-3.729c0.519-1.003,0.625-2.1,0.968-3.174c0.443-1.375,0.903-2.738,1.434-4.083
		c0.69-1.746,1.162-3.463,1.558-5.292c0.348-1.617,0.69-3.233,1.05-4.85c0.212-0.932,0.319-2.148,0.814-2.991
		c0.029-0.047,0.059-0.083,0.094-0.112c0.366-1.534,0.472-3.133,0.195-4.679c-0.301-1.705-1.322-3.239-1.853-4.885
		c-0.856,0.271-2.089,0.165-2.708,0.024c-3.511-0.808-4.82-4.036-6.178-7.009c-0.743-1.64-1.87-3.05-2.649-4.667
		c-0.802-1.664-1.038-3.729-1.345-5.534c-0.195-1.151-0.419-2.148-0.991-3.18c-0.478-0.873-1.086-1.658-1.558-2.543
		C171.52,103.773,171.124,102.841,170.676,101.938"/>
	<path fill="#361600" d="M95.345,147.06c0,0-2.406-17.63,11.381-34.406s25.798-8.488,25.798-8.488s4.811-6.825,3.373-10.566
		c-1.447-3.732-7.377-9.255-8.176-15.76c-0.799-6.498-4.492-15.105-0.959-15.273c3.525-0.16,10.094,20.476,10.094,20.476
		s-12.34-34.773,2.406-15.601c5.658,7.361,7.529,18.526,7.529,18.526s5.291,1.295,5.93,2.765c0.647,1.455,7.537,3.572,11.541,9.582
		c4.012,6.01,4.651,7.96,3.365,10.398c-1.279,2.438-6.25,8.128-9.934,6.825l-1.766,2.438c0,0,4.172,15.601-10.414,27.621
		c0,0-2.086,6.498-1.119,9.103c0.959,2.597,4.324,4.388,4.324,6.01s-3.684,3.253-7.377,2.438c-3.684-0.815-1.918,0.216-1.918,0.216
		s-11.381,0.112-12.819-0.703c-1.447-0.815-1.447-3.253-1.447-3.253s-2.406,3.093-3.205,2.765
		c-0.799-0.328-13.467,2.717-14.745,1.199c-1.279-1.526-4.324-0.711-4.324-0.711s-4.012-5.203-5.291-7.8
		c-1.287-2.597-1.966,3.74-7.217,0.488C85.123,152.095,84.604,140.235,95.345,147.06"/>
</g>
</svg>
