<?xml version="1.0" encoding="utf-8"?>
<!-- Generator: Adobe Illustrator 24.3.0, SVG Export Plug-In . SVG Version: 6.00 Build 0)  -->
<svg version="1.1" id="Layer_3" xmlns="http://www.w3.org/2000/svg" xmlns:xlink="http://www.w3.org/1999/xlink" x="0px" y="0px"
	 viewBox="0 0 282.551 282.551" enable-background="new 0 0 282.551 282.551" xml:space="preserve">
<g>
	
		<linearGradient id="SVGID_1_" gradientUnits="userSpaceOnUse" x1="0" y1="1.449" x2="282.551" y2="284" gradientTransform="matrix(1 0 0 -1 0 284)">
		<stop  offset="0" style="stop-color:#F58A84"/>
		<stop  offset="0.442" style="stop-color:#F59757"/>
		<stop  offset="1" style="stop-color:#F4A819"/>
	</linearGradient>
	<polygon fill="url(#SVGID_1_)" points="0,0 0,282.551 109.831,282.551 171.547,282.551 282.551,282.551 282.551,0 	"/>
</g>
<g>
	<path fill="#FFFFFF" d="M194.622,195.391l10.595-18.351c-3.394-0.512-6.941-0.789-10.595-0.789s-7.201,0.277-10.595,0.789
		L194.622,195.391z"/>
	<path fill="#FFFFFF" d="M237.397,103.522h-2.718c-10.686,0-19.349-8.663-19.349-19.349c0,10.686-8.663,19.349-19.349,19.349h-2.718
		c-10.686,0-19.349-8.663-19.349-19.349c0,10.686-8.663,19.349-19.349,19.349h-2.718c-5.196,0-9.903-2.059-13.379-5.392
		l18.361,31.803l23.648,40.959c4.562-0.605,9.285-0.945,14.144-0.945s9.582,0.34,14.144,0.945l23.648-40.96l18.361-31.803
		C247.3,101.463,242.593,103.522,237.397,103.522z"/>
	<path fill="#FFFFFF" d="M158.475,91.263h-16.027c-4.928,0-8.922-3.995-8.922-8.922V0h33.871v82.34
		C167.397,87.268,163.402,91.263,158.475,91.263z"/>
	<path fill="#FFFFFF" d="M202.654,91.263h-16.027c-4.928,0-8.922-3.995-8.922-8.922V0h33.871v82.34
		C211.576,87.268,207.581,91.263,202.654,91.263z"/>
	<path fill="#FFFFFF" d="M246.815,91.263h-16.027c-4.928,0-8.922-3.995-8.922-8.922V0h33.871v82.34
		C255.737,87.268,251.742,91.263,246.815,91.263z"/>
	<path fill="#FFFFFF" d="M120.309,250.216c0,3.816-3.119,6.908-6.968,6.908H50.708c-3.849,0-6.968-3.093-6.968-6.908v-1.439
		c0-3.816,3.12-6.909,6.968-6.909h62.633c3.849,0,6.968,3.093,6.968,6.909C120.309,248.777,120.309,250.216,120.309,250.216z"/>
	<path fill="#FFFFFF" d="M113.931,236.808H50.118c-66.076-49.809,41.821-142.696-19.73-188.915
		C131.765,64.944,155.794,202.929,113.931,236.808z"/>
	<rect x="47.207" y="262.185" fill="#FFFFFF" width="69.894" height="20.366"/>
</g>
</svg>
