<?xml version="1.0" encoding="utf-8"?>
<!-- Generator: Adobe Illustrator 24.3.0, SVG Export Plug-In . SVG Version: 6.00 Build 0)  -->
<svg version="1.1" id="Layer_3" xmlns="http://www.w3.org/2000/svg" xmlns:xlink="http://www.w3.org/1999/xlink" x="0px" y="0px"
	 viewBox="0 0 240.959 183.24" enable-background="new 0 0 240.959 183.24" xml:space="preserve">
<g>
	<path fill="#CA4638" d="M135.867,110.002c-2.622-1.993-7.867,2.308-7.867,2.308c4.091-1.469,7.867,0,7.867,0s3.776-1.469,7.868,0
		C143.735,112.31,138.49,108.009,135.867,110.002z"/>
	<path fill="#CA4638" d="M135.867,113.555c-3.56-1.568-7.906-0.82-7.868-0.757c2.575,4.217,7.867,3.298,7.867,3.298
		s5.293,0.919,7.868-3.298C143.773,112.734,139.427,111.987,135.867,113.555z"/>
	<path fill="#CA4638" d="M51.785,62.075c0,0-21.214-26.335,2.926-29.627c22.47-3.064,120.993,70.242,168.148,67.131
		c7.029-0.464,13.553-4.373,16.669-10.691c3.225-6.539,2.508-15.108-18.393-19.498c0,0,24.141,6.95,8.413,21.58
		C213.82,105.601,71.171,27.977,71.171,27.977s-27.545-13.529-33.285,6.299C33.862,48.176,51.785,62.075,51.785,62.075z"/>
	<path fill="#CA4638" d="M96.294,52.054c-2.82,4.605-5.158,7.445-11.092,8.364c-3.636,0.563-7.602,0.846-10.37,3.271
		c-2.678,2.347-3.528,6.1-4.231,9.592c-0.503,2.5-1.007,5.001-1.512,7.507c-1.256,6.233-4.418,8.758-10.758,8.739
		c-4.236-0.013-8.604,1.129-11.812,3.895c-3.208,2.767-5.018,7.33-3.841,11.399c0.807,2.791,2.843,5.035,4.864,7.122
		c4.086,4.221,8.636,8.796,9.094,14.652c0.292,3.739-1.301,7.579-4.155,10.013c-2.854,2.434-6.897,3.4-10.543,2.521
		c-3.673-0.886-7.33-3.864-10.082-5.794c-1.93-1.353-4.456-1.395-6.813-1.387c-5.592,0.02-12.181,2.681-14.553,8.316
		c-0.783,1.859-1.568,3.727-2.062,5.683c-1.043,4.132-0.067,7.081,1.409,10.894c1.427,3.684,4.389,5.72,5.896,9.259
		c1.052,2.469,0.672,5.77-1.572,7.242c-0.868,0.569-1.91,0.809-2.939,0.944c-2.45,0.323-5.154,0.032-7.002-1.608
		c-1.848-1.641-2.305-4.921-0.428-6.527c-4.287,2.22-4.935,8.725-1.977,12.541c2.957,3.815,8.33,5.087,13.1,4.346
		c3.572-0.555,7.063-2.155,9.433-4.884c2.37-2.729,3.47-6.657,2.373-10.101c-0.903-2.834-3.105-5.039-4.593-7.614
		c-1.488-2.576-2.111-6.177-0.02-8.293c0.66-0.668,1.522-1.104,2.411-1.404c4.194-1.412,8.301,0.188,10.793,3.877
		c2.706,4.006,5.309,8.016,8.082,12.041c1.944,2.821,4.472,4.504,7.486,6.071c4.942,2.569,11.011,3.055,16.485,2.101
		c9.887-1.723,12.862-8.969,15.689-17.167c2.018-5.852,7.912-7.905,13.618-8.161c9.172-0.412,19.033,2.645,27.35,6.365
		c4.24-4.877,4.331-14.495,3.645-21.8c-18.211-13.582-20.455-37.308-17.285-58.065c0.389-2.549,1.071-5.503,3.422-6.562
		c2.143-0.965,4.735,0.229,6.232,2.04c1.498,1.811,2.215,4.12,3.157,6.273c1.297,2.963,3.256,5.871,6.242,7.115
		c3.508,1.461,7.48,0.304,11.196-0.49c3.716-0.795,8.123-1.009,10.761,1.726c1.427,1.48,2.166,3.688,3.998,4.62
		c1.535,0.781,3.37,0.42,5.09,0.504c13.237,0.646,7.085,17.533,4.051,24.805c-3.126,7.491-8.275,14.036-15.198,18.349
		c-0.583,14.845,5.973,20.828,5.977,20.832c15.043-12.835,27.67-34.814,30.056-59.496C156.467,85.169,122.818,65.865,96.294,52.054z
		"/>
	<path fill="#CA4638" d="M111.918,34.337c0,0,35.95,30.889,77.127,34.279C189.046,68.616,142.388,52.746,111.918,34.337z"/>
	<path fill="#CA4638" d="M113.505,26.085c0,0,22.853-35.231,54.275-23.805c34.674,12.609,28.248,42.531,26.026,53.957
		c0,0-0.635-41.579-29.2-48.562C136.04,0.693,113.505,26.085,113.505,26.085z"/>
</g>
</svg>
