<?xml version="1.0" encoding="utf-8"?>
<!-- Generator: Adobe Illustrator 24.3.0, SVG Export Plug-In . SVG Version: 6.00 Build 0)  -->
<svg version="1.1" id="Layer_1" xmlns="http://www.w3.org/2000/svg" xmlns:xlink="http://www.w3.org/1999/xlink" x="0px" y="0px"
	 viewBox="0 0 228.18 269.001" enable-background="new 0 0 228.18 269.001" xml:space="preserve">
<g>
	<path fill="#2B134E" d="M217.141,51.058c-31.93-6.08-60.77-19.43-86.63-39.15c-5.52-4.22-10.9-11.83-16.43-11.91
		c-5.42-0.06-10.93,7.48-16.41,11.68c-1.2,0.93-2.43,1.84-3.67,2.73c-25.58,18.42-53.76,30.96-84.68,37.14
		c-5.24,1.05-9.7,2.46-9.3,8.92c1.37,21.56,2.79,43.11,4.36,64.66c0.4,5.41,3.84,8.3,9.21,8.01c8.85-0.47,11.98,4.38,13.9,12.26
		c5.08,20.87,12.1,41.23,26.59,57.54c11.26,12.66,24.01,24.01,36.34,35.69c1.43,1.35,4.62,1.8,6.61,1.26
		c1.51-0.41,3.72-3.48,3.35-4.6c-0.86-2.55-2.74-5.08-4.86-6.83c-11.12-9.22-23.73-17.02-33.41-27.54
		c-16.48-17.91-24.2-40.61-28.83-64.25c-1.23-6.34-3.42-11.19-10.88-10.88c-10.3,0.45-12.76-6.44-12.13-16.83
		c0.72-11.98,0.38-24.05-1.75-35.87c-1.74-9.63,1.35-13.04,8.98-15.53c17.59-5.77,35.32-11.59,52.07-19.36
		c13.6-6.32,25.87-15.51,40.09-24.27c0,9.39-0.32,18.1,0.11,26.78c0.35,7.25-2.13,12.54-8.64,15.62
		c-17.84,8.47-35.6,17.13-53.71,24.98c-5.61,2.43-8.54,4.86-7.77,11.22c1.11,9.05,1.31,18.24,2.58,27.27
		c5.58,39.83,19.95,74.93,55.73,97.24c9.29,5.78,13.29,12.62,12.04,23.14c-0.36,3.01-0.01,6.09-0.18,9.13
		c-0.46,8.38-2.39,9.85-9.24,5.48c-12.8-8.18-26.29-15.8-37.46-25.9c-24.24-21.89-42.09-47.86-44.67-81.99
		c-0.04-0.52-0.3-1.01-0.7-1.49c-3.01-3.6-9.21-2.17-10.13,2.43c-0.09,0.45-0.11,0.89-0.04,1.32c0.81,4.99,3.74,9.59,5.29,14.52
		c16.11,51.09,51.27,84.92,100.78,105.32c60.93-24.51,96.78-68.87,108.11-132.22c1.25-7.03-0.2-11.65-8.32-11.35
		c-6.6,0.24-8.33-2.8-7.77-9.01c1.14-12.73,1.48-25.52,2.55-38.26c0.56-6.71-2.17-9.7-8.54-11.53
		c-24.03-6.89-47.75-14.56-66.97-31.81c-1.54-1.38-5.37-1.45-7.46-0.55c-1.58,0.68-3.21,4.13-2.81,5.87
		c0.53,2.18,2.76,4.57,4.87,5.64c4.82,2.45,10.04,4.07,15.04,6.16c15.99,6.69,31.71,14.11,48,19.91
		c8.24,2.93,11.26,7.02,10.25,15.34c-1.44,11.79-2.21,23.64-3.65,35.42c-0.8,6.67,0.84,10.81,8.28,10.89
		c7.29,0.08,9,4.08,6.93,10.29c-4.7,14.13-8.3,28.8-14.61,42.18c-14.58,30.88-39.16,52.41-68.99,68.1
		c-2.41,1.28-8.59,0.28-9.65-1.59c-5.56-9.72,0.01-28.11,9.61-34.28c24-15.41,41.47-36.31,48.83-63.88
		c5.23-19.59,7.35-40,10.97-60.03c1.34-7.35-1.85-10.47-8.66-13.34c-17.92-7.51-35.4-16.08-52.84-24.69
		c-3.26-1.61-7.57-5.15-7.84-8.11c-0.94-10.72-0.36-21.59-0.36-33.49c2.72,0.91,3.72,0.99,4.37,1.5
		c26.65,20.72,56.52,34.5,89.25,42.55c2.94,0.73,6.99,5.79,6.85,8.67c-0.66,14.76-2.63,29.46-3.86,44.21
		c-0.2,2.44,0.27,5.59,1.72,7.3c1.15,1.34,4.94,2,6.39,1.11c1.92-1.2,3.76-4.19,3.82-6.45c0.48-16.38,0.19-32.79,0.8-49.16
		C228.281,56.178,225.501,52.658,217.141,51.058z M123.111,67.038c13.08,7.44,26.64,14.04,40.77,19.22
		c7.92,2.89,11.87,6.47,10.43,13.73c-4.01,20.21-6.68,40.91-13.04,60.37c-7.78,23.82-24.62,41.25-49.6,54.3v0.11
		c-0.03-0.02-0.07-0.04-0.1-0.05c-0.03-0.02-0.07-0.04-0.1-0.06c-0.78-0.4-1.56-0.82-2.32-1.24c-0.77-0.41-1.52-0.83-2.27-1.26
		c-0.75-0.42-1.49-0.85-2.22-1.29c-1.42-0.83-2.8-1.69-4.15-2.56c-2.44-1.57-4.79-3.2-7.03-4.89c-0.38-0.28-0.76-0.57-1.14-0.86
		c-1.27-0.97-2.5-1.97-3.71-2.99c-0.6-0.51-1.19-1.02-1.78-1.55c-2.93-2.59-5.65-5.31-8.16-8.17c-0.5-0.57-1-1.15-1.48-1.73
		c-2.12-2.53-4.07-5.17-5.86-7.92c-0.53-0.8-1.04-1.61-1.53-2.43c-0.32-0.52-0.63-1.05-0.92-1.58c-0.23-0.36-0.43-0.73-0.63-1.1
		c-0.37-0.65-0.73-1.32-1.07-1.99c-0.67-1.29-1.31-2.61-1.92-3.95c-0.06-0.14-0.13-0.28-0.19-0.42c-0.52-1.17-1.02-2.36-1.49-3.56
		c-0.62-1.57-1.2-3.18-1.73-4.81c-6.36-19.46-9.03-40.16-13.04-60.37c-1.45-7.26,2.5-10.84,10.42-13.73
		c14.14-5.18,27.7-11.78,40.78-19.22c1.73-0.99,3.15-1.71,4.65-2.41c0.4-0.18,0.8-0.36,1.21-0.55c1.56-0.7,3.29-1.43,5.58-2.45
		c0.03-0.01,0.07-0.03,0.1-0.05c0.03-0.01,0.07-0.02,0.1-0.04v0.09C116.871,63.938,119.201,64.808,123.111,67.038z"/>
</g>
<g>
	<path fill="#FAA51A" d="M19.773,93.943c-0.528-23.592-0.45-23.373,22.13-31.408c10.585-3.766,21.103-7.977,31.091-13.083
		c7.165-3.662,13.258-9.369,20.13-13.684c2.229-1.399,5.492-1.913,8.125-1.583c1.316,0.165,3.553,3.592,3.142,4.756
		c-0.899,2.545-2.752,5.673-5.039,6.665c-21.709,9.415-43.686,18.218-65.315,27.808c-3.075,1.363-6.69,6.039-6.624,9.108
		c0.202,9.324,2.237,18.595,3.221,27.922c0.291,2.758,0.156,6.022-1.124,8.301c-0.702,1.25-5.283,2.013-6.21,1.088
		c-1.866-1.863-3.164-4.973-3.378-7.673C19.444,106.123,19.773,100.02,19.773,93.943z"/>
	<path fill="#FAA51A" d="M133.765,240.204c-1.641,0.723-3.563,0.388-4.862-0.85c-1.325-1.263-2.543-2.498-2.472-3.654
		c0.152-2.46,2.119-6.068,4.241-6.956c27.208-11.386,42.384-33.673,53.64-59.235c2.97-6.743,3.305-14.611,5.29-21.842
		c0.718-2.616,2.317-5.345,4.324-7.092c0.923-0.804,4.95,0.033,5.546,1.179c1.231,2.366,2.146,5.769,1.383,8.171
		c-11.613,36.573-33.47,65.846-64.119,88.695C135.907,239.24,134.946,239.683,133.765,240.204z"/>
</g>
<g>
	<path fill="#686868" d="M96.226,117.483c9.062-4.252,18.239-5.522,27.858-2.921c18.18,4.916,30.093,22.361,28.062,41.274
		c-1.995,18.576-17.644,33.456-35.965,34.197c-19.389,0.784-36.029-12.019-39.741-30.667c-2.37-11.908,0.401-22.62,7.919-32.091
		c0.806-1.015,2.089-1.742,3.29-2.3c0.365-0.17,1.745,0.709,1.723,1.045c-0.077,1.149-0.265,2.52-0.954,3.362
		c-5.987,7.311-8.634,15.596-8.059,25.043c1.001,16.442,15.429,30.5,31.974,30.97c17.87,0.508,33.023-11.903,35.072-28.756
		c1.701-13.993-3.072-25.366-14.785-33.123c-11.715-7.757-24.045-7.679-36.272-0.687c-3.697,2.114-5.132,1.381-5.094-2.853
		c0.065-7.346-0.255-14.751,0.56-22.021c1.228-10.951,11.718-19.355,22.673-19.01c11.632,0.366,21.543,9.638,22.216,20.995
		c0.255,4.298,0.228,8.631-0.029,12.927c-0.067,1.113-1.486,2.145-2.284,3.214c-0.749-1.132-2.057-2.223-2.144-3.405
		c-0.28-3.784-0.038-7.604-0.124-11.407c-0.214-9.439-7.495-16.95-17.056-17.682c-9.053-0.692-17.676,5.983-18.712,15.299
		C95.684,104.885,96.226,111.018,96.226,117.483z"/>
	<path fill="#686868" d="M106.917,167.138c4.853,0,9.236,0,14.135,0c-0.939-4.432-1.817-8.57-2.694-12.709
		c-0.253,0.22-0.506,0.439-0.759,0.659c-1.483-1.198-4.303-2.524-4.204-3.572c0.32-3.371,3.492-1.734,5.514-2.049
		c2.113-0.329,3.247,0.739,3.684,2.855c1.1,5.326,2.342,10.623,3.489,15.94c0.509,2.361-0.414,3.688-2.924,3.687
		c-6.212-0.002-12.425,0.004-18.637-0.035c-2.361-0.015-3.121-1.398-2.666-3.538c0.553-2.599,1.212-5.174,1.804-7.765
		c0.966-4.229,2.03-8.092-0.88-12.479c-2.727-4.111-1.204-8.903,2.048-12.632c3.167-3.632,7.312-4.998,12.022-3.845
		c4.849,1.187,7.818,4.454,9.18,9.21c0.137,0.48,0.32,1.1,0.135,1.491c-0.57,1.205-1.308,2.33-1.98,3.486
		c-0.841-0.927-2.129-1.722-2.445-2.802c-1.392-4.753-3.373-6.865-7.171-7.068c-3.209-0.172-5.725,1.078-7.276,3.884
		c-1.622,2.936-1.583,6.113,0.72,8.494c2.098,2.168,2.251,4.164,1.525,6.832C108.513,158.951,107.844,162.818,106.917,167.138z"/>
	<path fill="#686868" d="M138.181,154.031c-2.61,0-5.247-0.174-7.852,0.044c-3.313,0.277-4.151-1.391-3.984-4.626
		c4.886,0,9.683-0.18,14.444,0.151c0.958,0.067,2.525,2.059,2.553,3.195c0.323,13.29-11.278,26.002-25.308,28.005
		c-13.575,1.938-27.912-6.816-31.61-19.482c-0.309-1.06,0.666-2.495,1.044-3.755c1.125,0.921,2.771,1.612,3.295,2.799
		c4.921,11.137,13.922,16.762,25.86,15.903C127.87,175.456,138.301,164.949,138.181,154.031z"/>
	<path fill="#686868" d="M89.757,148.998c3.751,1.616,9.364-2.268,10.926,4.94c-4.733,0-9.357,0.197-13.931-0.192
		c-0.772-0.066-1.941-2.686-1.887-4.086c0.453-11.824,8.633-22.237,20.099-25.95c11.416-3.696,24.141-0.109,31.541,9.19
		c2.017,2.535,3.565,5.526,4.858,8.511c0.486,1.121-0.362,2.819-0.601,4.255c-1.156-0.86-2.887-1.474-3.375-2.618
		c-3.722-8.726-10.06-14.052-19.393-15.883C104.432,124.503,89.633,135.876,89.757,148.998z"/>
</g>
</svg>
