<?xml version="1.0" encoding="utf-8"?>
<!-- Generator: Adobe Illustrator 24.3.0, SVG Export Plug-In . SVG Version: 6.00 Build 0)  -->
<svg version="1.1" id="Layer_2_1_" xmlns="http://www.w3.org/2000/svg" xmlns:xlink="http://www.w3.org/1999/xlink" x="0px" y="0px"
	 viewBox="0 0 239.04 239.048" enable-background="new 0 0 239.04 239.048" xml:space="preserve">
<g>
	<path fill="#F5A471" d="M149.905,159.686l-16.48,28.548h32.959l-5.982-10.363l77.336-40.884
		c-5.393,36.328-27.411,69.7-62.365,88.185c-57.55,30.418-128.676,9.154-160.199-47.424L226.156,65.592
		c9.774,19.311,13.804,40.058,12.708,60.278l-83.112,43.942L149.905,159.686z"/>
</g>
<g>
	<path fill="#009FB1" d="M221.651,57.46L10.949,169.45c-9.113-19.776-12.368-40.905-10.394-61.321l136.622-72.242l5.869,10.156
		l16.48-28.537h-32.959l5.962,10.322L2.218,96.743C8.882,62.502,30.425,31.465,63.663,13.88
		C119.89-15.846,189.085,3.775,221.651,57.46z"/>
</g>
</svg>
