<?xml version="1.0" encoding="utf-8"?>
<!-- Generator: Adobe Illustrator 24.3.0, SVG Export Plug-In . SVG Version: 6.00 Build 0)  -->
<svg version="1.1" id="Layer_3" xmlns="http://www.w3.org/2000/svg" xmlns:xlink="http://www.w3.org/1999/xlink" x="0px" y="0px"
	 viewBox="0 0 306.352 335.346" enable-background="new 0 0 306.352 335.346" xml:space="preserve">
<g>
	<path fill="#354458" d="M180.301,116.447l-27.277,15.748L62.152,80.901l112.831-65.04L147.695,0L6.928,81.17l146.247,82.553
		L270.923,95.83c9.298-5.361,9.322-18.772,0.044-24.167l-6.444-3.747l-56.689,32.63"/>
</g>
<g>
	<path fill="#FE5955" d="M117.233,258.047l-0.004,61.597l27.388,15.702V179.125L0,93.747v158.68l3.65,2.093
		c10.565,6.058,23.731-1.569,23.731-13.748v-99.065l89.859,53.051l-0.004,31.497"/>
	<polygon fill="#FE5955" points="62.455,245.279 75.632,252.861 75.632,238.26 62.455,230.652 	"/>
	<polygon fill="#FE5955" points="47.614,163.697 47.458,219.989 61.858,228.488 61.858,210.29 77.372,219.446 77.372,201.248 
		92.886,210.405 92.886,228.602 77.372,219.446 77.372,237.644 92.886,246.8 92.886,264.343 109.328,274.015 109.328,200.12 	"/>
</g>
<g>
	<path fill="#197AA0" d="M189.114,194.757l89.857-53.051v99.704c0,11.894,12.858,19.343,23.176,13.427l4.205-2.411V93.747
		l-144.619,85.378v156.222l27.388-15.702l-0.004-61.597"/>
	<polygon fill="#197AA0" points="250.374,193.201 250.374,197.543 257.558,185.152 250.374,181.056 250.374,185.167 
		197.129,216.412 197.129,224.446 	"/>
	<polygon fill="#197AA0" points="257.558,201.897 250.374,197.801 250.374,201.913 197.129,233.157 197.129,241.191 
		250.374,209.947 250.374,214.288 	"/>
	<polygon fill="#197AA0" points="250.374,226.692 250.374,231.034 257.558,218.642 250.374,214.547 250.374,218.658 
		197.129,249.903 197.129,257.936 	"/>
	<polygon fill="#197AA0" points="250.374,243.438 250.374,247.779 257.558,235.388 250.374,231.292 250.374,235.404 
		197.129,266.648 197.129,274.682 	"/>
</g>
</svg>
