<?xml version="1.0" encoding="utf-8"?>
<!-- Generator: Adobe Illustrator 24.3.0, SVG Export Plug-In . SVG Version: 6.00 Build 0)  -->
<svg version="1.1" id="Layer_2_1_" xmlns="http://www.w3.org/2000/svg" xmlns:xlink="http://www.w3.org/1999/xlink" x="0px" y="0px"
	 viewBox="0 0 182.56 182.55" enable-background="new 0 0 182.56 182.55" xml:space="preserve">
<g>
	<path fill="#4A720C" d="M15.541,50.836l7.692,5.81c1.887,0.014,5.648,0.361,8.258,2.71c3.618,3.247,3.67,9.09,3.67,9.09
		s-5.814,0.58-9.432-2.667c-2.615-2.349-3.366-6.047-3.585-7.92L15.541,50.836z M15.541,66.225l7.692,5.805
		c1.887,0.014,5.648,0.366,8.258,2.71c3.618,3.252,3.67,9.095,3.67,9.095s-5.814,0.575-9.432-2.672
		c-2.615-2.344-3.366-6.047-3.585-7.92L15.541,66.225z M15.541,81.61l7.692,5.81c1.887,0.014,5.648,0.361,8.258,2.71
		c3.618,3.247,3.67,9.09,3.67,9.09s-5.814,0.58-9.432-2.667c-2.615-2.349-3.366-6.047-3.585-7.92L15.541,81.61z M15.541,96.994
		l7.692,5.81c1.887,0.014,5.648,0.366,8.258,2.71c3.618,3.247,3.67,9.09,3.67,9.09s-5.814,0.58-9.432-2.667
		c-2.615-2.349-3.366-6.047-3.585-7.92L15.541,96.994z M32.956,52.286c0-3.513,2.249-6.542,3.499-7.958l0.813-9.603l0.818,9.603
		c1.25,1.417,3.499,4.445,3.499,7.958c0,4.859-4.317,8.8-4.317,8.8S32.956,57.145,32.956,52.286z M39.379,68.446
		c0,0,0.052-5.843,3.67-9.09c2.61-2.349,6.371-2.696,8.258-2.71l7.692-5.81l-6.604,7.022c-0.219,1.873-0.97,5.572-3.585,7.92
		C45.193,69.026,39.379,68.446,39.379,68.446z M39.379,83.835c0,0,0.052-5.843,3.67-9.095c2.61-2.344,6.371-2.696,8.258-2.71
		l7.692-5.805l-6.604,7.017c-0.219,1.873-0.97,5.577-3.585,7.92C45.193,84.41,39.379,83.835,39.379,83.835z M39.379,99.219
		c0,0,0.052-5.843,3.67-9.09c2.61-2.349,6.371-2.696,8.258-2.71l7.692-5.81l-6.604,7.022c-0.219,1.873-0.97,5.572-3.585,7.92
		C45.193,99.799,39.379,99.219,39.379,99.219z M39.379,114.604c0,0,0.052-5.843,3.67-9.09c2.61-2.344,6.371-2.696,8.258-2.71
		l7.692-5.81l-6.604,7.022c-0.219,1.873-0.97,5.572-3.585,7.92C45.193,115.184,39.379,114.604,39.379,114.604z M62.118,14.952
		l10.321,7.797c2.534,0.014,7.578,0.49,11.087,3.632c4.859,4.36,4.925,12.204,4.925,12.204s-7.806,0.78-12.66-3.58
		c-3.509-3.152-4.521-8.115-4.811-10.63L62.118,14.952z M62.118,35.604l10.321,7.797c2.534,0.019,7.578,0.485,11.087,3.632
		c4.859,4.36,4.925,12.204,4.925,12.204s-7.806,0.775-12.66-3.585c-3.509-3.147-4.521-8.111-4.811-10.626L62.118,35.604z
		 M62.118,56.256l10.321,7.792c2.534,0.019,7.578,0.49,11.087,3.637c4.859,4.36,4.925,12.204,4.925,12.204s-7.806,0.775-12.66-3.585
		c-3.509-3.147-4.521-8.111-4.811-10.626L62.118,56.256z M62.118,76.903L72.439,84.7c2.534,0.019,7.578,0.49,11.087,3.637
		c4.859,4.36,4.925,12.204,4.925,12.204s-7.806,0.775-12.66-3.585c-3.509-3.147-4.521-8.111-4.811-10.626L62.118,76.903z
		 M94.109,38.585c0,0,0.071-7.844,4.925-12.204c3.509-3.143,8.553-3.618,11.087-3.632l10.321-7.797l-8.862,9.423
		c-0.29,2.515-1.303,7.478-4.811,10.63C101.915,39.364,94.109,38.585,94.109,38.585z M94.109,59.237c0,0,0.071-7.844,4.925-12.204
		c3.509-3.147,8.553-3.613,11.087-3.632l10.321-7.797l-8.862,9.423c-0.29,2.515-1.303,7.478-4.811,10.626
		C101.915,60.012,94.109,59.237,94.109,59.237z M94.109,79.889c0,0,0.071-7.844,4.925-12.204c3.509-3.147,8.553-3.618,11.087-3.637
		l10.321-7.792l-8.862,9.423c-0.29,2.515-1.303,7.478-4.811,10.626C101.915,80.664,94.109,79.889,94.109,79.889z M94.109,100.541
		c0,0,0.071-7.844,4.925-12.204c3.509-3.147,8.553-3.618,11.087-3.637l10.321-7.797l-8.862,9.428
		c-0.29,2.515-1.303,7.478-4.811,10.626C101.915,101.316,94.109,100.541,94.109,100.541z M123.561,50.836l7.692,5.81
		c1.887,0.014,5.643,0.361,8.258,2.71c3.618,3.247,3.67,9.09,3.67,9.09s-5.814,0.58-9.432-2.667
		c-2.615-2.349-3.366-6.047-3.585-7.92L123.561,50.836z M123.561,66.225l7.692,5.805c1.887,0.014,5.643,0.366,8.258,2.71
		c3.618,3.252,3.67,9.095,3.67,9.095s-5.814,0.575-9.432-2.672c-2.615-2.344-3.366-6.047-3.585-7.92L123.561,66.225z M123.561,81.61
		l7.692,5.81c1.887,0.014,5.643,0.361,8.258,2.71c3.618,3.247,3.67,9.09,3.67,9.09s-5.814,0.58-9.432-2.667
		c-2.615-2.349-3.366-6.047-3.585-7.92L123.561,81.61z M123.561,96.994l7.692,5.81c1.887,0.014,5.643,0.366,8.258,2.71
		c3.618,3.247,3.67,9.09,3.67,9.09s-5.814,0.58-9.432-2.667c-2.615-2.349-3.366-6.047-3.585-7.92L123.561,96.994z M140.975,52.286
		c0-3.513,2.249-6.542,3.499-7.958l0.813-9.603l0.818,9.603c1.25,1.417,3.499,4.445,3.499,7.958c0,4.859-4.317,8.8-4.317,8.8
		S140.975,57.145,140.975,52.286z M147.398,68.446c0,0,0.052-5.843,3.67-9.09c2.615-2.349,6.371-2.696,8.258-2.71l7.692-5.81
		l-6.604,7.022c-0.219,1.873-0.97,5.572-3.585,7.92C153.212,69.026,147.398,68.446,147.398,68.446z M147.398,83.835
		c0,0,0.052-5.843,3.67-9.095c2.615-2.344,6.371-2.696,8.258-2.71l7.692-5.805l-6.604,7.017c-0.219,1.873-0.97,5.577-3.585,7.92
		C153.212,84.41,147.398,83.835,147.398,83.835z M147.398,99.219c0,0,0.052-5.843,3.67-9.09c2.615-2.349,6.371-2.696,8.258-2.71
		l7.692-5.81l-6.604,7.022c-0.219,1.873-0.97,5.572-3.585,7.92C153.212,99.799,147.398,99.219,147.398,99.219z M147.398,114.604
		c0,0,0.052-5.843,3.67-9.09c2.615-2.344,6.371-2.696,8.258-2.71l7.692-5.81l-6.604,7.022c-0.219,1.873-0.97,5.572-3.585,7.92
		C153.212,115.184,147.398,114.604,147.398,114.604z M0,91.27c0,17.8,5.101,34.406,13.911,48.445
		c3.623-1.331,7.497-2.548,11.591-3.642c5.952-1.593,10.136-6.936,10.302-13.093l1.464-54.687l1.488,55.372
		c0.133,4.916,4.493,8.634,9.37,7.987c9.185-1.212,18.983-1.868,29.162-1.868h0.114c6.361,0,11.562-5.058,11.733-11.415
		l2.144-79.994l2.192,81.691c0.157,5.795,4.559,10.568,10.317,11.253c10.54,1.25,20.319,3.233,29,5.8
		c5.329,1.578,10.716-2.292,10.868-7.854l1.631-60.972l1.669,62.023c0.181,6.913,3.765,13.326,9.641,16.972
		c1.55,0.96,2.995,1.954,4.331,2.971c13.488-15.907,21.631-36.498,21.631-58.99c0-50.223-40.563-90.966-90.714-91.27l0.528,6.218
		c1.678,1.897,4.697,5.962,4.697,10.673c0,6.527-5.791,11.819-5.791,11.819s-5.791-5.291-5.791-11.819
		c0-4.711,3.019-8.776,4.697-10.673L90.714,0C40.563,0.304,0,41.047,0,91.27"/>
</g>
<g>
	<path fill="#1B1C1B" d="M73.97,137.196c48.155,5.306,66.302,31.102,66.302,31.102c-14.158,9.023-30.964,14.253-48.992,14.253
		c-32.471,0-60.977-16.958-77.16-42.497C30.265,135.964,51.297,134.695,73.97,137.196"/>
	<path fill="#1B1C1B" d="M139.166,145.684C151.228,150.176,154.229,158,154.229,158c-4.233,1.406-8.903,1.663-13.547,0.493
		c-8.366-2.107-14.61-8.326-17.121-15.957C127.986,142.53,133.487,143.568,139.166,145.684"/>
</g>
</svg>
