<?xml version="1.0" encoding="utf-8"?>
<!-- Generator: Adobe Illustrator 24.3.0, SVG Export Plug-In . SVG Version: 6.00 Build 0)  -->
<svg version="1.1" id="Layer_1" xmlns="http://www.w3.org/2000/svg" xmlns:xlink="http://www.w3.org/1999/xlink" x="0px" y="0px"
	 viewBox="0 0 261.232 193.997" enable-background="new 0 0 261.232 193.997" xml:space="preserve">
<g>
	<path fill="#127D3F" d="M106.371,37.912c-7.33-0.282-16.253,0.052-16.029-10.452c0.205-9.606,8.805-9.728,15.918-9.698
		c7.112,0.029,15.566,0.184,15.696,9.93C122.086,37.473,113.879,37.679,106.371,37.912z"/>
</g>
<g>
	<path fill="#56B947" d="M61.2,53.347h-3.11c1.29,3.38,2.37,6.53,3.73,9.54c0.27,0.6,1.62,1.02,2.47,1.02
		c11.99,0.07,23.97,0.05,35.96,0.05h70.48v16.29c-33.04,0-66.08,0.01-99.12,0.01H68.5c1.08,2.74,1.84,5.12,2.98,7.3
		c0.36,0.68,1.74,1.15,2.65,1.16c18.71,0.07,37.42,0.07,56.12,0.07c13.49,0,26.99-0.01,40.48-0.02v16.32
		c-29.67,0-59.35-0.01-89.02-0.01h-3.48c1.3,3.49,2.41,6.71,3.74,9.83c0.2,0.47,1.4,0.73,2.14,0.73
		c18.11,0.04,36.21,0.04,54.31,0.04c10.77,0.01,21.54-0.01,32.31,0.02v16.02h4.49c-0.68,0.16-1.39,0.24-2.13,0.24
		c-31.64,0.02-63.28,0.08-94.92-0.06c-4.41-0.02-7.82-2.53-9.49-6.79c-5.85-14.93-11.65-29.89-17.46-44.85
		c-6.72-17.28-13.45-34.56-20.1-51.88c-0.61-1.59-1.42-1.99-3-1.97c-6.38,0.09-12.76,0.05-19.14,0.03C4,26.427-0.01,22.797,0,18.357
		c0.02-4.58,3.86-8.17,8.87-8.19c8.54-0.03,17.07-0.03,25.61-0.01c3.82,0.01,7.87,2.79,9.26,6.33c2.38,6.08,4.85,12.14,7.05,18.28
		c0.69,1.92,1.65,2.34,3.53,2.34c42.51-0.04,85.01-0.06,127.52-0.04c-1.42,0.49-3.18,0.68-5.22,0.64c-1.95-0.04-3.92-0.08-5.89-0.12
		v15.75h-2.46C132.58,53.347,96.89,53.347,61.2,53.347z"/>
</g>
<g>
	<path fill="#4592CF" d="M191.1,80.247h-20.37v8.52h12.03c2.54,0,4.77,0.76,6.43,2.06c-0.01-0.2-0.01-0.4-0.01-0.6
		C189.21,86.707,189.89,83.347,191.1,80.247z M261.23,47.047c0.06-6.52-2.01-10.11-8.9-9.38c-7.9,0.84-10.34-2.58-10.73-10.43
		c-0.83-17.13-12.48-27.72-28.75-27.22c-15.3,0.47-29.55,13.48-27.12,28.68c0.76,4.73-0.73,7.29-3.89,8.37c3.98,0,7.96,0,11.94,0.01
		c-3.24-1.36-4.2-4.71-3.99-9.72c0.58-14.69,11.2-23.97,26.54-22.6c13.68,1.21,22.75,12.99,19.94,26.8
		c-0.48,2.35-4.11,5.31-6.66,5.73c-5.31,0.89-10.89,0.27-16.36,0.27v0.06c-1.39,0-2.77-0.03-4.16-0.06c0.19,0.04,0.37,0.1,0.55,0.16
		c3.55,1.19,5.81,5.17,5.23,8.57c-0.68,3.98-4.03,7.01-8.06,7.03c-12.03,0.05-24.05,0.02-36.08,0.02v10.62h24.44
		c2.93,0,5.45,1.01,7.15,2.69c4.19-2.62,9.12-4.13,14.38-4.12c15.19,0.04,27.99,12.56,28.03,27.43
		c0.06,15.53-12.68,28.21-28.23,28.09c-11.68-0.08-21.4-7.11-25.37-17.22c-1.54,2.58-4.6,4.26-8.29,4.26h-12.11v10.61
		c0.78-0.01,1.57,0,2.35,0c4.86,0.02,8.69,3.56,8.76,8c0.06,3.88-2.72,7.14-6.62,8.02h17.66c19.39,0,38.78-0.24,58.16,0.11
		c7.46,0.13,10.28-2.43,10.19-10.05C260.92,96.867,260.99,71.957,261.23,47.047z M189.19,90.827c-0.01-0.2-0.01-0.4-0.01-0.6
		c0.03-3.52,0.71-6.88,1.92-9.98h-20.37v8.52h12.03C185.3,88.767,187.53,89.527,189.19,90.827z"/>
	<path fill="#4592CF" d="M209.09,37.557c-3.23-0.06-6.45-0.14-9.65,0.13c-2.39,0.2-4.24-0.01-5.66-0.61h10.29
		C205.74,37.077,207.49,37.127,209.09,37.557z"/>
</g>
<g>
	<path fill="#010101" d="M182.071,144.65c13.282,0.041,24.671,11.504,24.615,24.777c-0.056,13.32-11.438,24.769-24.786,24.568
		c-13.685-0.206-24.48-11.06-24.585-24.756C157.215,155.963,168.761,144.609,182.071,144.65z M182.005,177.754
		c4.87-0.001,8.417-3.559,8.408-8.434c-0.009-4.872-3.555-8.39-8.453-8.386c-4.935,0.005-8.393,3.475-8.393,8.422
		C173.568,174.211,177.129,177.755,182.005,177.754z"/>
	<path fill="#010101" d="M47.622,169.425c0.344-13.712,10.691-24.56,24.855-24.748c13.113-0.175,24.636,11.458,24.498,24.57
		c-0.141,13.389-10.443,24.667-24.578,24.707C58.345,193.994,48.082,183.092,47.622,169.425z M72.448,160.933
		c-4.987-0.015-8.517,3.42-8.551,8.32c-0.034,4.912,3.484,8.475,8.387,8.495c4.848,0.019,8.458-3.607,8.443-8.481
		C80.713,164.469,77.214,160.947,72.448,160.933z"/>
</g>
</svg>
