<?xml version="1.0" encoding="utf-8"?>
<!-- Generator: Adobe Illustrator 24.3.0, SVG Export Plug-In . SVG Version: 6.00 Build 0)  -->
<svg version="1.1" id="Layer_1" xmlns="http://www.w3.org/2000/svg" xmlns:xlink="http://www.w3.org/1999/xlink" x="0px" y="0px"
	 viewBox="0 0 379.349 244.152" enable-background="new 0 0 379.349 244.152" xml:space="preserve">
<g>
	<path fill="#147D3E" d="M283.418,142.648c-31.636,43.469-74.834,64.145-128.72,66.277c-39.077,1.574-73.875-9.014-104.424-31.264
		C18.709,154.639-1.981,123.174,0.151,82.409c0.429-8.728,11.661-19.388,20.547-24.654c15.196-8.986,53.557-16.054,85.236-16.813
		V40.8l54.959-0.673l26.342-0.315v0.029c6.425-0.129,13.364,0.157,20.189,0.801c0.358,0.186,0.715,0.358,1.073,0.515
		c-0.086,0.529-0.186,1.059-0.272,1.574c-1.803,0-3.62,0.057-5.423-0.029c-7.841-0.386-15.696-1.216-23.538-1.13
		c-12.892,0.143-24.854,3.305-35.771,9.572l-7.655,0.172l-29.876,0.672h-0.029c-22.321,3.076-44.7,5.938-66.749,10.431
		c-5.552,1.134-10.663,4.462-15.691,8.224c-6.056,4.532-6.002,13.626,0.133,18.051c4.993,3.601,10.08,6.875,15.658,8.523
		c46.732,13.865,94.923,16.398,143.186,12.334c27.401-2.304,54.516-8.199,81.731-12.792c4.264-0.73,8.657-2.604,12.22-5.037
		c0.218-0.149,0.434-0.301,0.649-0.454c7.267-5.203,8.079-15.823,1.596-21.975c-0.038-0.036-0.075-0.071-0.113-0.107
		c-2.561-2.475-5.394-4.636-8.585-7.34c14.581-6.825,30.334,3.577,31.107,19.717C302.162,103.815,296.438,124.806,283.418,142.648z"
		/>
</g>
<g>
	<path fill="#B7B7B7" d="M149.213,232.48c14.931,0.943,29.863,1.885,44.794,2.828c0.058,0.987,0.116,1.973,0.173,2.96
		c-3.368,0.314-6.731,0.761-10.107,0.908c-3.807,0.166-7.626,0.069-11.44,0.076c-3.756,0.007-7.512,0.002-12.316,0.002
		c2.664,1.603,4.355,2.621,6.046,3.638c-0.101,0.42-0.202,0.841-0.303,1.261c-13.214-0.878-26.428-1.756-39.642-2.635
		c-0.108-0.64-0.216-1.28-0.323-1.92c4.098-1.001,8.196-2.002,12.294-3.002c0.017-0.644,0.034-1.289,0.051-1.933
		c-14.926,0-29.852,0-44.778,0c0.019-0.949,0.038-1.898,0.057-2.846c21.336-1.47,42.672-2.94,64.007-4.41
		c-0.018-0.098-0.036-0.195-0.055-0.293c-32.309,0-64.618,0-96.928,0c-0.015-0.594-0.03-1.188-0.045-1.782
		c59.773-1.491,119.547-2.981,179.32-4.472c0.047,0.919,0.094,1.838,0.141,2.758c-30.321,2.517-60.643,5.035-90.964,7.552
		C149.202,231.606,149.208,232.043,149.213,232.48z"/>
	<path fill="#B7B7B7" d="M143.155,84.086c23.023,5.122,42.844-2.475,62.228-15.485C194.911,84.363,152.489,93.392,143.155,84.086z"
		/>
	<path fill="#B7B7B7" d="M197.309,48.727c-2.461,0.286-3.377,0.615-4.207,0.444c-10.016-2.032-19.502-1.259-28.574,1.502
		c-5.666,1.717-11.175,4.221-16.569,7.297c-1.989,1.145-3.334,3.434-4.965,5.194c-0.443,0.186-0.873,0.372-1.302,0.544
		c-2.447,2.232-4.893,4.45-7.34,6.682c-0.186-0.043-0.358-0.086-0.544-0.129c1.989-3.062,3.391-6.811,6.053-9.072
		c5.237-4.436,10.774-7.87,16.569-10.345c11.261-4.808,23.538-6.01,36.644-3.892C194.032,47.096,194.905,47.697,197.309,48.727z"/>
</g>
<g>
	<path fill="#4F270F" d="M372.861,1.609c-2.576-0.93-5.423-1.316-8.184-1.474c-14.581-0.873-28.474,2.59-41.996,7.526
		c-21.305,7.813-42.382,16.255-63.788,23.81c-10.502,3.706-21.463,6.167-32.309,8.814c-3.62,0.901-7.526,0.644-11.304,0.916
		c0.601,0.243,1.188,0.458,1.789,0.644c2.476,0.801,4.965,1.231,7.426,1.316c3.835,0.157,7.626-0.472,11.29-1.703
		c23.795-8.013,47.504-16.326,71.157-24.768c15.139-5.394,30.048-11.619,46.26-12.935c5.824-0.472,11.819,0.1,17.642,0.858
		c1.746,0.229,4.293,2.504,4.522,4.121c0.257,1.746-1.359,4.393-2.948,5.595c-2.432,1.846-5.423,3.377-8.399,4.049
		c-14.638,3.291-29.361,6.167-44.027,9.372c-17.872,3.892-35.958,7.126-53.5,12.205c-8.113,2.347-15.954,5.409-23.409,9.258
		c-3.134,1.603-6.196,3.348-9.186,5.237c-4.622,2.919-9.071,6.181-13.336,9.816c-7.54,6.425-15.968,11.933-24.482,17.042
		c-17.814,10.688-36.959,12.806-56.404,5.537c-17.814-6.668-18.201-17.643-5.108-29.748c0.386-0.343,0.844-0.615,1.259-0.93
		c2.49-1.86,5.051-3.534,7.669-5.022c10.917-6.267,22.879-9.429,35.771-9.572c7.841-0.086,15.696,0.744,23.538,1.13
		c1.803,0.086,3.62,0.029,5.423,0.029c0.086-0.515,0.186-1.044,0.272-1.574c-0.358-0.157-0.715-0.329-1.073-0.515
		c-0.658-0.329-1.331-0.658-2.032-0.787c-13.336-2.447-26.743-3.062-40.121-0.644c-1.474,0.272-2.933,0.572-4.378,0.916
		c-9.1,2.132-17.557,5.695-25.054,11.189c-1.917,1.402-3.763,2.933-5.552,4.593c-10.703,9.93-11.919,23.251-2.905,34.698
		c2.561,3.234,5.738,6.196,9.158,8.471c13.622,9.014,28.574,9.501,43.813,5.494c17.185-4.521,29.991-15.797,42.311-27.945
		c8.914-8.814,17.814-17.871,27.916-25.169c14.738-10.631,32.509-14.194,50.051-17.542c19.545-3.735,39.248-6.668,58.751-10.631
		c5.623-1.145,11.347-3.806,16.011-7.183C381.718,11.51,380.158,4.227,372.861,1.609z M176.747,101.268
		c-16.87,3.935-32.295,1.688-44.843-11.404c-1.889-1.975-3.277-4.436-5.666-7.741c20.862,13.493,41.81,15.053,62.529,5.466
		c12.52-5.781,23.509-14.881,35.113-22.593c4.049-2.69,7.913-5.652,12.849-9.215C214.722,79.633,201.129,95.602,176.747,101.268z"/>
</g>
</svg>
