<?xml version="1.0" encoding="utf-8"?>
<!-- Generator: Adobe Illustrator 24.3.0, SVG Export Plug-In . SVG Version: 6.00 Build 0)  -->
<svg version="1.1" id="Layer_3" xmlns="http://www.w3.org/2000/svg" xmlns:xlink="http://www.w3.org/1999/xlink" x="0px" y="0px"
	 viewBox="0 0 217.03 217.031" enable-background="new 0 0 217.03 217.031" xml:space="preserve">
<g>
	<path fill="#0087FF" d="M145.585,63.856c-5.711,0-10.864,2.312-14.611,6.059c-0.042,0.042-0.097,0.098-0.139,0.139
		c-14.583,14.485-30.196,14.444-44.779-0.139c-3.747-3.747-8.914-6.059-14.625-6.059c-11.407,0-20.669,9.262-20.669,20.683
		s9.262,20.669,20.669,20.669c5.711,0,10.892-2.312,14.625-6.059c0.042-0.042,0.098-0.098,0.139-0.125
		c14.485-14.388,30.001-14.443,44.5-0.139c0.098,0.084,0.181,0.167,0.278,0.265v-0.003c3.741,3.74,8.899,6.062,14.611,6.062
		c11.421,0,20.683-9.248,20.683-20.669S157.006,63.856,145.585,63.856z M71.438,94.07c-5.257,0-9.534-4.276-9.534-9.534
		c0-5.256,4.276-9.533,9.534-9.533c5.257,0,9.533,4.276,9.533,9.533C80.971,89.793,76.695,94.07,71.438,94.07z M145.589,94.07
		c-5.257,0-9.533-4.276-9.533-9.534c0-5.256,4.276-9.533,9.533-9.533c5.257,0,9.533,4.276,9.533,9.533
		C155.122,89.793,150.846,94.07,145.589,94.07z"/>
	<path fill="#0087FF" d="M104.804,181.491c-38.63-1.933-69.358-33.865-69.358-72.975c0-39.11,30.728-71.043,69.358-72.975V0h-0.859
		c-2.005,0-3.706,1.474-3.992,3.458l-0.588,4.086c-0.641,4.452-4.021,8.033-8.439,8.873c-4.528,0.861-8.94,2.048-13.212,3.536
		c-4.255,1.481-8.976,0.082-11.761-3.458l-2.551-3.243c-1.24-1.576-3.449-2.002-5.186-0.999l-7.916,4.57
		c-1.737,1.003-2.473,3.129-1.728,4.991l1.54,3.847c1.671,4.176,0.531,8.962-2.872,11.903c-3.455,2.986-6.689,6.22-9.675,9.675
		c-2.942,3.403-7.727,4.543-11.903,2.872l-3.848-1.54c-1.862-0.745-3.988-0.009-4.991,1.728l-4.57,7.916
		c-1.003,1.737-0.577,3.946,0.999,5.186l3.243,2.551c3.541,2.785,4.939,7.507,3.458,11.761c-1.487,4.272-2.675,8.684-3.536,13.211
		c-0.84,4.419-4.421,7.799-8.873,8.44l-4.086,0.588C1.473,100.239,0,101.939,0,103.945v9.141c0,2.005,1.473,3.706,3.458,3.992
		l4.086,0.588c4.452,0.641,8.033,4.021,8.873,8.439c0.861,4.527,2.048,8.939,3.535,13.21c1.481,4.255,0.083,8.976-3.458,11.761
		l-3.243,2.551c-1.576,1.24-2.002,3.449-0.999,5.186l4.57,7.916c1.003,1.737,3.129,2.473,4.991,1.728l3.847-1.54
		c4.176-1.671,8.962-0.531,11.903,2.872c2.986,3.455,6.22,6.689,9.676,9.676c3.403,2.941,4.543,7.727,2.872,11.903l-1.54,3.849
		c-0.745,1.862-0.009,3.988,1.728,4.991l7.916,4.571c1.737,1.003,3.946,0.577,5.186-0.999l2.552-3.244
		c2.785-3.541,7.507-4.94,11.761-3.458c4.272,1.487,8.683,2.674,13.211,3.535c4.419,0.84,7.799,4.421,8.439,8.873l0.588,4.087
		c0.286,1.985,1.986,3.459,3.992,3.459h0.859V181.491z"/>
</g>
<g>
	<path fill="#FF006F" d="M96.922,105.614c-1.444,7.686,3.62,15.08,11.296,16.522c1.256,0.236,2.497,0.295,3.708,0.202l-0.011,0.008
		c14.109-1.085,22.256,5.909,23.331,20.016c0.468,6.24,5.063,11.635,11.502,12.844c7.686,1.444,15.078-3.61,16.522-11.296
		c1.444-7.685-3.608-15.088-11.294-16.532c-1.247-0.234-2.486-0.302-3.689-0.198c-0.03,0.004-0.069,0.006-0.099,0.011
		c-13.992,1.029-22.093-5.897-23.227-19.85c-0.008-0.06-0.005-0.127-0.013-0.187c-0.468-6.24-5.062-11.635-11.502-12.844
		C105.77,92.867,98.366,97.928,96.922,105.614z M155.776,142.499c-0.665,3.538-4.083,5.875-7.62,5.21
		c-3.537-0.665-5.874-4.083-5.21-7.62c0.665-3.538,4.083-5.875,7.62-5.21C154.104,135.543,156.441,138.961,155.776,142.499z
		 M117.25,109.431c-0.665,3.538-4.083,5.875-7.62,5.21c-3.537-0.665-5.874-4.083-5.21-7.621c0.665-3.538,4.083-5.875,7.62-5.21
		S117.915,105.893,117.25,109.431z"/>
	<path fill="#FF006F" d="M213.572,99.953l-4.087-0.588c-4.452-0.641-8.033-4.021-8.873-8.439c-0.861-4.528-2.048-8.94-3.536-13.212
		c-1.481-4.255-0.083-8.976,3.458-11.761l3.243-2.55c1.576-1.24,2.002-3.45,0.999-5.186l-4.571-7.916
		c-1.003-1.737-3.129-2.473-4.991-1.728l-3.847,1.54c-4.176,1.671-8.962,0.531-11.903-2.872c-2.986-3.454-6.22-6.688-9.674-9.674
		c-3.403-2.942-4.543-7.727-2.872-11.903l1.54-3.848c0.745-1.862,0.009-3.988-1.728-4.991l-7.916-4.571
		c-1.737-1.003-3.946-0.577-5.186,0.999l-2.551,3.243c-2.785,3.541-7.507,4.94-11.761,3.458c-4.272-1.487-8.684-2.675-13.211-3.536
		c-4.419-0.84-7.799-4.421-8.439-8.873l-0.588-4.086C116.791,1.473,115.091,0,113.085,0h-0.859v35.54
		c38.63,1.933,69.358,33.865,69.358,72.975c0,39.11-30.728,71.043-69.358,72.975v35.54h0.859c2.005,0,3.706-1.474,3.992-3.458
		l0.588-4.087c0.641-4.452,4.021-8.033,8.439-8.873c4.528-0.861,8.94-2.049,13.213-3.536c4.255-1.481,8.976-0.083,11.761,3.458
		l2.551,3.243c1.24,1.576,3.449,2.002,5.186,0.999l7.917-4.571c1.737-1.003,2.473-3.129,1.728-4.991l-1.54-3.848
		c-1.671-4.176-0.531-8.962,2.872-11.903c3.454-2.986,6.688-6.22,9.674-9.674c2.941-3.403,7.727-4.543,11.903-2.872l3.848,1.54
		c1.862,0.745,3.988,0.009,4.991-1.728l4.57-7.916c1.003-1.737,0.577-3.946-0.999-5.186l-3.244-2.552
		c-3.541-2.785-4.94-7.507-3.458-11.761c1.487-4.272,2.674-8.683,3.535-13.21c0.84-4.419,4.421-7.799,8.873-8.44l4.087-0.588
		c1.985-0.286,3.458-1.987,3.458-3.992v-9.141C217.03,101.939,215.557,100.238,213.572,99.953z"/>
</g>
<g>
	<path fill="#2A3294" d="M113.857,128.789l0.014-0.014c-19.973-5.348-27.815-18.928-22.466-38.887c0.46-1.713,0.71-3.51,0.71-5.362
		c0-11.407-9.262-20.669-20.669-20.669c-11.421,0-20.683,9.262-20.683,20.669c0,9.569,6.49,17.619,15.321,19.973
		c0.07,0.014,0.125,0.042,0.195,0.056c19.792,5.376,27.578,18.886,22.299,38.734c-0.014,0.042-0.014,0.07-0.028,0.112
		c-0.473,1.699-0.71,3.496-0.71,5.348c0,11.421,9.262,20.669,20.669,20.669c11.421,0,20.683-9.248,20.683-20.669
		C129.192,139.179,122.687,131.129,113.857,128.789z M71.439,94.063c-5.257,0-9.534-4.276-9.534-9.533s4.276-9.533,9.534-9.533
		c5.257,0,9.533,4.276,9.533,9.533S76.696,94.063,71.439,94.063z M108.515,158.28c-5.257,0-9.534-4.276-9.534-9.533
		c0-5.256,4.276-9.533,9.534-9.533c5.257,0,9.533,4.276,9.533,9.533C118.048,154.004,113.772,158.28,108.515,158.28z"/>
</g>
</svg>
