<?xml version="1.0" encoding="utf-8"?>
<!-- Generator: Adobe Illustrator 24.3.0, SVG Export Plug-In . SVG Version: 6.00 Build 0)  -->
<svg version="1.1" id="Layer_5" xmlns="http://www.w3.org/2000/svg" xmlns:xlink="http://www.w3.org/1999/xlink" x="0px" y="0px"
	 viewBox="0 0 217.723 238.921" enable-background="new 0 0 217.723 238.921" xml:space="preserve">
<g>
	<path fill="#99BBB5" d="M169.344,194.581c-15.88,26.945-45.942,44.886-80.139,44.327c-50.058-0.818-89.99-40.983-89.194-89.714
		c0.593-36.278,23.571-67.057,55.924-80.093c-28.341,13.99-47.969,42.427-48.509,75.525c-0.779,47.636,38.257,86.899,87.19,87.699
		C125.608,232.832,153.131,217.793,169.344,194.581z"/>
</g>
<g>
	<path fill="#FC7F2B" d="M183.371,24.589c-12.621,9.194-22.37,19.73-29.89,30.866c-9.305,0.532-17.213,7.586-18.488,17.157
		c-0.677,5.024,0.599,9.86,3.238,13.741c-15.128,44.152-5.701,87.062-5.701,87.062c-28.215-14.03-35.668-39.394-35.668-39.394
		c-27.15,44.718-57.483,55.897-57.483,55.897c68.93-116.585-16.48-176.486-11.722-175.144c55.099,15.571,75.461,47.38,75.461,47.38
		C122.682,34.005,183.371,24.589,183.371,24.589z"/>
	<circle fill="#FC7F2B" cx="106.328" cy="22.328" r="22.325"/>
</g>
<g>
	<path fill="#E6D000" d="M91.705,69.053c-3.846-1.087,65.271,47.391,9.486,141.743c0,0,24.55-9.047,46.522-45.237
		c0,0,6.028,20.531,28.866,31.882c0,0-17.131-77.98,41.144-120.445c0,0-49.115,7.621-64.948,30.401
		C152.775,107.397,136.296,81.655,91.705,69.053z"/>
	<circle fill="#E6D000" cx="154.636" cy="75.237" r="17.459"/>
</g>
</svg>
