<?xml version="1.0" encoding="utf-8"?>
<!-- Generator: Adobe Illustrator 24.3.0, SVG Export Plug-In . SVG Version: 6.00 Build 0)  -->
<svg version="1.1" id="Layer_1" xmlns="http://www.w3.org/2000/svg" xmlns:xlink="http://www.w3.org/1999/xlink" x="0px" y="0px"
	 viewBox="0 0 201.327 184.998" enable-background="new 0 0 201.327 184.998" xml:space="preserve">
<g>
	<path fill="#FBF1C2" d="M179.819,136.177L149.32,172.34c-4.255,5.045-11.864,5.692-16.91,1.437L4.297,65.731
		c-5.045-4.255-5.692-11.864-1.437-16.91l30.499-36.163c4.255-5.045,11.864-5.692,16.91-1.437l128.114,108.046
		C183.427,123.523,184.074,131.132,179.819,136.177z"/>
</g>
<g>
	<path fill="#FFF8D3" d="M167.914,48.1L72.35,178.956c-4.795,6.557-14.086,8.009-20.655,3.216l-33.716-24.617
		c-6.558-4.807-8.01-14.098-3.216-20.655L110.327,6.043c4.795-6.557,14.098-8.01,20.655-3.216l1.197,0.873l32.52,23.744
		C171.255,32.239,172.709,41.543,167.914,48.1z"/>
</g>
<g>
	<path fill="#ECC995" d="M132.179,3.701c-2.175-0.235-15.561-4.276-22.475,6.958L17.486,137.366c0,0-8.448,9.192,0.492,20.188
		c-6.558-4.807-8.01-14.098-3.216-20.655L110.327,6.043c4.795-6.557,14.098-8.01,20.655-3.216L132.179,3.701z"/>
</g>
<g>
	<path fill="#EEC178" d="M147.084,51.568L147.084,51.568c0.341,0.243,0.814,0.163,1.057-0.178l2.265-3.182
		c0.243-0.341,0.163-0.814-0.178-1.057l0,0c-0.341-0.243-0.814-0.163-1.057,0.178l-2.265,3.182
		C146.663,50.851,146.743,51.325,147.084,51.568z"/>
	<path fill="#EEC178" d="M146.447,47.787L146.447,47.787c-0.243,0.341-0.163,0.814,0.178,1.057l3.182,2.265
		c0.341,0.243,0.814,0.163,1.057-0.178l0,0c0.243-0.341,0.163-0.814-0.178-1.057l-3.182-2.265
		C147.164,47.366,146.69,47.445,146.447,47.787z"/>
	<path fill="#EEC178" d="M154.742,40.18L154.742,40.18c0.309,0.283,0.788,0.262,1.071-0.046l2.64-2.879
		c0.283-0.309,0.262-0.788-0.046-1.071v0c-0.309-0.283-0.788-0.262-1.071,0.046l-2.64,2.879
		C154.413,39.418,154.433,39.897,154.742,40.18z"/>
	<path fill="#EEC178" d="M154.576,36.35L154.576,36.35c-0.283,0.309-0.262,0.788,0.046,1.071l2.879,2.64
		c0.309,0.283,0.788,0.262,1.071-0.046v0c0.283-0.309,0.262-0.788-0.046-1.071l-2.879-2.64
		C155.338,36.02,154.859,36.041,154.576,36.35z"/>
	<path fill="#EEC178" d="M130.997,73.698L130.997,73.698c0.309,0.283,0.788,0.262,1.071-0.046l2.64-2.879
		c0.283-0.309,0.262-0.788-0.046-1.071l0,0c-0.309-0.283-0.788-0.262-1.071,0.046l-2.64,2.879
		C130.668,72.936,130.689,73.415,130.997,73.698z"/>
	<path fill="#EEC178" d="M130.831,69.868L130.831,69.868c-0.283,0.309-0.262,0.788,0.046,1.071l2.879,2.64
		c0.309,0.283,0.788,0.262,1.071-0.046l0,0c0.283-0.309,0.262-0.788-0.046-1.071l-2.879-2.64
		C131.594,69.538,131.114,69.559,130.831,69.868z"/>
	<path fill="#EEC178" d="M138.906,62.534L138.906,62.534c0.309,0.283,0.788,0.262,1.071-0.046l2.64-2.879
		c0.283-0.309,0.262-0.788-0.046-1.071l0,0c-0.309-0.283-0.788-0.262-1.071,0.046l-2.64,2.879
		C138.577,61.771,138.598,62.251,138.906,62.534z"/>
	<path fill="#EEC178" d="M138.74,58.703L138.74,58.703c-0.283,0.309-0.262,0.788,0.046,1.071l2.879,2.64
		c0.309,0.283,0.788,0.262,1.071-0.046l0,0c0.283-0.309,0.262-0.788-0.046-1.071l-2.879-2.64
		C139.503,58.374,139.023,58.395,138.74,58.703z"/>
	<path fill="#EEC178" d="M115.179,96.027L115.179,96.027c0.309,0.283,0.788,0.262,1.071-0.046l2.64-2.879
		c0.283-0.309,0.262-0.788-0.046-1.071l0,0c-0.309-0.283-0.788-0.262-1.071,0.046l-2.64,2.879
		C114.85,95.264,114.871,95.744,115.179,96.027z"/>
	<path fill="#EEC178" d="M115.013,92.196L115.013,92.196c-0.283,0.309-0.262,0.788,0.046,1.071l2.879,2.64
		c0.309,0.283,0.788,0.262,1.071-0.046l0,0c0.283-0.309,0.262-0.788-0.046-1.071l-2.879-2.64
		C115.776,91.867,115.296,91.888,115.013,92.196z"/>
	<path fill="#EEC178" d="M91.452,129.52L91.452,129.52c0.309,0.283,0.788,0.262,1.071-0.046l2.64-2.879
		c0.283-0.309,0.262-0.788-0.046-1.071v0c-0.309-0.283-0.788-0.262-1.071,0.046l-2.64,2.879
		C91.123,128.757,91.144,129.237,91.452,129.52z"/>
	<path fill="#EEC178" d="M91.286,125.689L91.286,125.689c-0.283,0.309-0.262,0.788,0.046,1.071l2.879,2.64
		c0.309,0.283,0.788,0.262,1.071-0.046l0,0c0.283-0.309,0.262-0.788-0.046-1.071l-2.879-2.64
		C92.049,125.36,91.569,125.381,91.286,125.689z"/>
	<path fill="#EEC178" d="M123.088,84.862L123.088,84.862c0.309,0.283,0.788,0.262,1.071-0.046l2.64-2.879
		c0.283-0.309,0.262-0.788-0.046-1.071l0,0c-0.309-0.283-0.788-0.262-1.071,0.046l-2.64,2.879
		C122.759,84.1,122.78,84.579,123.088,84.862z"/>
	<path fill="#EEC178" d="M122.922,81.032L122.922,81.032c-0.283,0.309-0.262,0.788,0.046,1.071l2.879,2.64
		c0.309,0.283,0.788,0.262,1.071-0.046l0,0c0.283-0.309,0.262-0.788-0.046-1.071l-2.879-2.64
		C123.685,80.702,123.205,80.723,122.922,81.032z"/>
	<path fill="#EEC178" d="M99.361,118.355L99.361,118.355c0.309,0.283,0.788,0.262,1.071-0.046l2.64-2.879
		c0.283-0.309,0.262-0.788-0.046-1.071l0,0c-0.309-0.283-0.788-0.262-1.071,0.046l-2.64,2.879
		C99.032,117.593,99.053,118.072,99.361,118.355z"/>
	<path fill="#EEC178" d="M99.195,114.525L99.195,114.525c-0.283,0.309-0.262,0.788,0.046,1.071l2.879,2.64
		c0.309,0.283,0.788,0.262,1.071-0.046l0,0c0.283-0.309,0.262-0.788-0.046-1.071l-2.879-2.64
		C99.958,114.195,99.478,114.216,99.195,114.525z"/>
	<path fill="#EEC178" d="M75.634,151.848L75.634,151.848c0.309,0.283,0.788,0.262,1.071-0.046l2.64-2.879
		c0.283-0.309,0.262-0.788-0.046-1.071v0c-0.309-0.283-0.788-0.262-1.071,0.046l-2.64,2.879
		C75.305,151.086,75.326,151.565,75.634,151.848z"/>
	<path fill="#EEC178" d="M75.468,148.018L75.468,148.018c-0.283,0.309-0.262,0.788,0.046,1.071l2.879,2.64
		c0.309,0.283,0.788,0.262,1.071-0.046l0,0c0.283-0.309,0.262-0.788-0.046-1.071l-2.879-2.64
		C76.231,147.688,75.751,147.709,75.468,148.018z"/>
	<path fill="#EEC178" d="M59.816,174.177L59.816,174.177c0.309,0.283,0.788,0.262,1.071-0.046l2.64-2.879
		c0.283-0.309,0.262-0.788-0.046-1.071l0,0c-0.309-0.283-0.788-0.262-1.071,0.046l-2.64,2.879
		C59.487,173.415,59.508,173.894,59.816,174.177z"/>
	<path fill="#EEC178" d="M59.65,170.346L59.65,170.346c-0.283,0.309-0.262,0.788,0.046,1.071l2.879,2.64
		c0.309,0.283,0.788,0.262,1.071-0.046l0,0c0.283-0.309,0.262-0.788-0.046-1.071l-2.879-2.64
		C60.413,170.017,59.933,170.038,59.65,170.346z"/>
	<path fill="#EEC178" d="M107.27,107.191L107.27,107.191c0.309,0.283,0.788,0.262,1.071-0.046l2.64-2.879
		c0.283-0.309,0.262-0.788-0.046-1.071l0,0c-0.309-0.283-0.788-0.262-1.071,0.046l-2.64,2.879
		C106.941,106.429,106.962,106.908,107.27,107.191z"/>
	<path fill="#EEC178" d="M107.104,103.36L107.104,103.36c-0.283,0.309-0.262,0.788,0.046,1.071l2.879,2.64
		c0.309,0.283,0.788,0.262,1.071-0.046l0,0c0.283-0.309,0.262-0.788-0.046-1.071l-2.879-2.64
		C107.867,103.031,107.387,103.052,107.104,103.36z"/>
	<path fill="#EEC178" d="M83.543,140.684L83.543,140.684c0.309,0.283,0.788,0.262,1.071-0.046l2.64-2.879
		c0.283-0.309,0.262-0.788-0.046-1.071l0,0c-0.309-0.283-0.788-0.262-1.071,0.046l-2.64,2.879
		C83.214,139.922,83.235,140.401,83.543,140.684z"/>
	<path fill="#EEC178" d="M83.377,136.853L83.377,136.853c-0.283,0.309-0.262,0.788,0.046,1.071l2.879,2.64
		c0.309,0.283,0.788,0.262,1.071-0.046l0,0c0.283-0.309,0.262-0.788-0.046-1.071l-2.879-2.64
		C84.14,136.524,83.66,136.545,83.377,136.853z"/>
	<path fill="#EEC178" d="M67.725,163.013L67.725,163.013c0.309,0.283,0.788,0.262,1.071-0.046l2.64-2.879
		c0.283-0.309,0.262-0.788-0.046-1.071l0,0c-0.309-0.283-0.788-0.262-1.071,0.046l-2.64,2.879
		C67.396,162.25,67.417,162.73,67.725,163.013z"/>
	<path fill="#EEC178" d="M67.559,159.182L67.559,159.182c-0.283,0.309-0.262,0.788,0.046,1.071l2.879,2.64
		c0.309,0.283,0.788,0.262,1.071-0.046l0,0c0.283-0.309,0.262-0.788-0.046-1.071l-2.879-2.64
		C68.322,158.853,67.842,158.874,67.559,159.182z"/>
	<path fill="#EEC178" d="M135.171,42.068L135.171,42.068c0.341,0.243,0.814,0.163,1.057-0.178l2.265-3.182
		c0.243-0.341,0.163-0.814-0.178-1.057l0,0c-0.341-0.243-0.814-0.163-1.057,0.178l-2.265,3.182
		C134.75,41.352,134.83,41.825,135.171,42.068z"/>
	<path fill="#EEC178" d="M134.534,38.287L134.534,38.287c-0.243,0.341-0.163,0.814,0.178,1.057l3.182,2.265
		c0.341,0.243,0.814,0.163,1.057-0.178v0c0.243-0.341,0.163-0.814-0.178-1.057l-3.182-2.265
		C135.25,37.866,134.777,37.946,134.534,38.287z"/>
	<path fill="#EEC178" d="M142.829,30.681L142.829,30.681c0.309,0.283,0.788,0.262,1.071-0.046l2.64-2.879
		c0.283-0.309,0.262-0.788-0.046-1.071l0,0c-0.309-0.283-0.788-0.262-1.071,0.046l-2.64,2.879
		C142.499,29.918,142.52,30.398,142.829,30.681z"/>
	<path fill="#EEC178" d="M142.663,26.85L142.663,26.85c-0.283,0.309-0.262,0.788,0.046,1.071l2.879,2.64
		c0.309,0.283,0.788,0.262,1.071-0.046l0,0c0.283-0.309,0.262-0.788-0.046-1.071l-2.879-2.64
		C143.425,26.521,142.946,26.541,142.663,26.85z"/>
	<path fill="#EEC178" d="M119.084,64.199L119.084,64.199c0.309,0.283,0.788,0.262,1.071-0.046l2.64-2.879
		c0.283-0.309,0.262-0.788-0.046-1.071l0,0c-0.309-0.283-0.788-0.262-1.071,0.046l-2.64,2.879
		C118.755,63.436,118.775,63.916,119.084,64.199z"/>
	<path fill="#EEC178" d="M118.918,60.368L118.918,60.368c-0.283,0.309-0.262,0.788,0.046,1.071l2.879,2.64
		c0.309,0.283,0.788,0.262,1.071-0.046l0,0c0.283-0.309,0.262-0.788-0.046-1.071l-2.879-2.64
		C119.681,60.039,119.201,60.059,118.918,60.368z"/>
	<path fill="#EEC178" d="M126.993,53.034L126.993,53.034c0.309,0.283,0.788,0.262,1.071-0.046l2.64-2.879
		c0.283-0.309,0.262-0.788-0.046-1.071l0,0c-0.309-0.283-0.788-0.262-1.071,0.046l-2.64,2.879
		C126.664,52.272,126.684,52.751,126.993,53.034z"/>
	<path fill="#EEC178" d="M126.827,49.204L126.827,49.204c-0.283,0.309-0.262,0.788,0.046,1.071l2.879,2.64
		c0.309,0.283,0.788,0.262,1.071-0.046l0,0c0.283-0.309,0.262-0.788-0.046-1.071l-2.879-2.64
		C127.59,48.874,127.11,48.895,126.827,49.204z"/>
	<path fill="#EEC178" d="M103.266,86.527L103.266,86.527c0.309,0.283,0.788,0.262,1.071-0.046l2.64-2.879
		c0.283-0.309,0.262-0.788-0.046-1.071l0,0c-0.309-0.283-0.788-0.262-1.071,0.046l-2.64,2.879
		C102.937,85.765,102.957,86.244,103.266,86.527z"/>
	<path fill="#EEC178" d="M103.1,82.697L103.1,82.697c-0.283,0.309-0.262,0.788,0.046,1.071l2.879,2.64
		c0.309,0.283,0.788,0.262,1.071-0.046l0,0c0.283-0.309,0.262-0.788-0.046-1.071l-2.879-2.64
		C103.863,82.367,103.383,82.388,103.1,82.697z"/>
	<path fill="#EEC178" d="M79.539,120.02L79.539,120.02c0.309,0.283,0.788,0.262,1.071-0.046l2.64-2.879
		c0.283-0.309,0.262-0.788-0.046-1.071l0,0c-0.309-0.283-0.788-0.262-1.071,0.046l-2.64,2.879
		C79.21,119.258,79.23,119.737,79.539,120.02z"/>
	<path fill="#EEC178" d="M79.373,116.19L79.373,116.19c-0.283,0.309-0.262,0.788,0.046,1.071l2.879,2.64
		c0.309,0.283,0.788,0.262,1.071-0.046l0,0c0.283-0.309,0.262-0.788-0.046-1.071l-2.879-2.64
		C80.136,115.86,79.656,115.881,79.373,116.19z"/>
	<path fill="#EEC178" d="M111.175,75.363L111.175,75.363c0.309,0.283,0.788,0.262,1.071-0.046l2.64-2.879
		c0.283-0.309,0.262-0.788-0.046-1.071l0,0c-0.309-0.283-0.788-0.262-1.071,0.046l-2.64,2.879
		C110.846,74.6,110.866,75.08,111.175,75.363z"/>
	<path fill="#EEC178" d="M111.009,71.532L111.009,71.532c-0.283,0.309-0.262,0.788,0.046,1.071l2.879,2.64
		c0.309,0.283,0.788,0.262,1.071-0.046l0,0c0.283-0.309,0.262-0.788-0.046-1.071l-2.879-2.64
		C111.772,71.203,111.292,71.224,111.009,71.532z"/>
	<path fill="#EEC178" d="M87.448,108.856L87.448,108.856c0.309,0.283,0.788,0.262,1.071-0.046l2.64-2.879
		c0.283-0.309,0.262-0.788-0.046-1.071v0c-0.309-0.283-0.788-0.262-1.071,0.046l-2.64,2.879
		C87.119,108.093,87.139,108.573,87.448,108.856z"/>
	<path fill="#EEC178" d="M87.282,105.025L87.282,105.025c-0.283,0.309-0.262,0.788,0.046,1.071l2.879,2.64
		c0.309,0.283,0.788,0.262,1.071-0.046v0c0.283-0.309,0.262-0.788-0.046-1.071l-2.879-2.64
		C88.045,104.696,87.565,104.717,87.282,105.025z"/>
	<path fill="#EEC178" d="M63.721,142.349L63.721,142.349c0.309,0.283,0.788,0.262,1.071-0.046l2.64-2.879
		c0.283-0.309,0.262-0.788-0.046-1.071l0,0c-0.309-0.283-0.788-0.262-1.071,0.046l-2.64,2.879
		C63.392,141.586,63.412,142.066,63.721,142.349z"/>
	<path fill="#EEC178" d="M63.555,138.518L63.555,138.518c-0.283,0.309-0.262,0.788,0.046,1.071l2.879,2.64
		c0.309,0.283,0.788,0.262,1.071-0.046l0,0c0.283-0.309,0.262-0.788-0.046-1.071l-2.879-2.64
		C64.318,138.189,63.838,138.21,63.555,138.518z"/>
	<path fill="#EEC178" d="M47.903,164.677L47.903,164.677c0.309,0.283,0.788,0.262,1.071-0.046l2.64-2.879
		c0.283-0.309,0.262-0.788-0.046-1.071h0c-0.309-0.283-0.788-0.262-1.071,0.046l-2.64,2.879
		C47.574,163.915,47.594,164.395,47.903,164.677z"/>
	<path fill="#EEC178" d="M47.737,160.847L47.737,160.847c-0.283,0.309-0.262,0.788,0.046,1.071l2.879,2.64
		c0.309,0.283,0.788,0.262,1.071-0.046h0c0.283-0.309,0.262-0.788-0.046-1.071l-2.879-2.64
		C48.5,160.517,48.02,160.538,47.737,160.847z"/>
	<path fill="#EEC178" d="M95.357,97.692L95.357,97.692c0.309,0.283,0.788,0.262,1.071-0.046l2.64-2.879
		c0.283-0.309,0.262-0.788-0.046-1.071l0,0c-0.309-0.283-0.788-0.262-1.071,0.046l-2.64,2.879
		C95.028,96.929,95.048,97.409,95.357,97.692z"/>
	<path fill="#EEC178" d="M95.191,93.861L95.191,93.861c-0.283,0.309-0.262,0.788,0.046,1.071l2.879,2.64
		c0.309,0.283,0.788,0.262,1.071-0.046l0,0c0.283-0.309,0.262-0.788-0.046-1.071l-2.879-2.64
		C95.954,93.532,95.474,93.552,95.191,93.861z"/>
	<path fill="#EEC178" d="M71.63,131.185L71.63,131.185c0.309,0.283,0.788,0.262,1.071-0.046l2.64-2.879
		c0.283-0.309,0.262-0.788-0.046-1.071l0,0c-0.309-0.283-0.788-0.262-1.071,0.046l-2.64,2.879
		C71.301,130.422,71.321,130.902,71.63,131.185z"/>
	<path fill="#EEC178" d="M71.464,127.354L71.464,127.354c-0.283,0.309-0.262,0.788,0.046,1.071l2.879,2.64
		c0.309,0.283,0.788,0.262,1.071-0.046l0,0c0.283-0.309,0.262-0.788-0.046-1.071l-2.879-2.64
		C72.227,127.024,71.747,127.045,71.464,127.354z"/>
	<path fill="#EEC178" d="M55.812,153.513L55.812,153.513c0.309,0.283,0.788,0.262,1.071-0.046l2.64-2.879
		c0.283-0.309,0.262-0.788-0.046-1.071h0c-0.309-0.283-0.788-0.262-1.071,0.046l-2.64,2.879
		C55.483,152.751,55.503,153.23,55.812,153.513z"/>
	<path fill="#EEC178" d="M55.646,149.683L55.646,149.683c-0.283,0.309-0.262,0.788,0.046,1.071l2.879,2.64
		c0.309,0.283,0.788,0.262,1.071-0.046l0,0c0.283-0.309,0.262-0.788-0.046-1.071l-2.879-2.64
		C56.409,149.353,55.929,149.374,55.646,149.683z"/>
	<path fill="#EEC178" d="M123.447,33.971L123.447,33.971c0.341,0.243,0.814,0.163,1.057-0.178l2.265-3.182
		c0.243-0.341,0.163-0.814-0.178-1.057v0c-0.341-0.243-0.814-0.163-1.057,0.178l-2.265,3.182
		C123.026,33.255,123.106,33.728,123.447,33.971z"/>
	<path fill="#EEC178" d="M122.81,30.19L122.81,30.19c-0.243,0.341-0.163,0.814,0.178,1.057l3.182,2.265
		c0.341,0.243,0.814,0.163,1.057-0.178v0c0.243-0.341,0.163-0.814-0.178-1.057l-3.182-2.265
		C123.527,29.769,123.053,29.849,122.81,30.19z"/>
	<path fill="#EEC178" d="M131.105,22.584L131.105,22.584c0.309,0.283,0.788,0.262,1.071-0.046l2.64-2.879
		c0.283-0.309,0.262-0.788-0.046-1.071l0,0c-0.309-0.283-0.788-0.262-1.071,0.046l-2.64,2.879
		C130.775,21.821,130.796,22.301,131.105,22.584z"/>
	<path fill="#EEC178" d="M130.939,18.753L130.939,18.753c-0.283,0.309-0.262,0.788,0.046,1.071l2.879,2.64
		c0.309,0.283,0.788,0.262,1.071-0.046v0c0.283-0.309,0.262-0.788-0.046-1.071l-2.879-2.64
		C131.701,18.424,131.222,18.444,130.939,18.753z"/>
	<path fill="#EEC178" d="M107.36,56.102L107.36,56.102c0.309,0.283,0.788,0.262,1.071-0.046l2.64-2.879
		c0.283-0.309,0.262-0.788-0.046-1.071l0,0c-0.309-0.283-0.788-0.262-1.071,0.046l-2.64,2.879
		C107.031,55.339,107.052,55.819,107.36,56.102z"/>
	<path fill="#EEC178" d="M107.194,52.271L107.194,52.271c-0.283,0.309-0.262,0.788,0.046,1.071l2.879,2.64
		c0.309,0.283,0.788,0.262,1.071-0.046l0,0c0.283-0.309,0.262-0.788-0.046-1.071l-2.879-2.64
		C107.957,51.942,107.477,51.962,107.194,52.271z"/>
	<path fill="#EEC178" d="M115.269,44.937L115.269,44.937c0.309,0.283,0.788,0.262,1.071-0.046l2.64-2.879
		c0.283-0.309,0.262-0.788-0.046-1.071l0,0c-0.309-0.283-0.788-0.262-1.071,0.046l-2.64,2.879
		C114.94,44.175,114.961,44.654,115.269,44.937z"/>
	<path fill="#EEC178" d="M115.103,41.107L115.103,41.107c-0.283,0.309-0.262,0.788,0.046,1.071l2.879,2.64
		c0.309,0.283,0.788,0.262,1.071-0.046l0,0c0.283-0.309,0.262-0.788-0.046-1.071l-2.879-2.64
		C115.866,40.777,115.386,40.798,115.103,41.107z"/>
	<path fill="#EEC178" d="M91.542,78.43L91.542,78.43c0.309,0.283,0.788,0.262,1.071-0.046l2.64-2.879
		c0.283-0.309,0.262-0.788-0.046-1.071l0,0c-0.309-0.283-0.788-0.262-1.071,0.046l-2.64,2.879
		C91.213,77.668,91.234,78.147,91.542,78.43z"/>
	<path fill="#EEC178" d="M91.376,74.6L91.376,74.6c-0.283,0.309-0.262,0.788,0.046,1.071l2.879,2.64
		c0.309,0.283,0.788,0.262,1.071-0.046l0,0c0.283-0.309,0.262-0.788-0.046-1.071l-2.879-2.64
		C92.139,74.27,91.659,74.291,91.376,74.6z"/>
	<path fill="#EEC178" d="M67.815,111.923L67.815,111.923c0.309,0.283,0.788,0.262,1.071-0.046l2.64-2.879
		c0.283-0.309,0.262-0.788-0.046-1.071l0,0c-0.309-0.283-0.788-0.262-1.071,0.046l-2.64,2.879
		C67.486,111.161,67.507,111.64,67.815,111.923z"/>
	<path fill="#EEC178" d="M67.649,108.093L67.649,108.093c-0.283,0.309-0.262,0.788,0.046,1.071l2.879,2.64
		c0.309,0.283,0.788,0.262,1.071-0.046l0,0c0.283-0.309,0.262-0.788-0.046-1.071l-2.879-2.64
		C68.412,107.763,67.932,107.784,67.649,108.093z"/>
	<path fill="#EEC178" d="M99.451,67.266L99.451,67.266c0.309,0.283,0.788,0.262,1.071-0.046l2.64-2.879
		c0.283-0.309,0.262-0.788-0.046-1.071l0,0c-0.309-0.283-0.788-0.262-1.071,0.046l-2.64,2.879
		C99.122,66.503,99.143,66.983,99.451,67.266z"/>
	<path fill="#EEC178" d="M99.285,63.435L99.285,63.435c-0.283,0.309-0.262,0.788,0.046,1.071l2.879,2.64
		c0.309,0.283,0.788,0.262,1.071-0.046l0,0c0.283-0.309,0.262-0.788-0.046-1.071l-2.879-2.64
		C100.048,63.106,99.568,63.127,99.285,63.435z"/>
	<path fill="#EEC178" d="M75.724,100.759L75.724,100.759c0.309,0.283,0.788,0.262,1.071-0.046l2.64-2.879
		c0.283-0.309,0.262-0.788-0.046-1.071v0c-0.309-0.283-0.788-0.262-1.071,0.046l-2.64,2.879
		C75.395,99.996,75.416,100.476,75.724,100.759z"/>
	<path fill="#EEC178" d="M75.558,96.928L75.558,96.928c-0.283,0.309-0.262,0.788,0.046,1.071l2.879,2.64
		c0.309,0.283,0.788,0.262,1.071-0.046v0c0.283-0.309,0.262-0.788-0.046-1.071l-2.879-2.64
		C76.321,96.599,75.841,96.62,75.558,96.928z"/>
	<path fill="#EEC178" d="M51.997,134.252L51.997,134.252c0.309,0.283,0.788,0.262,1.071-0.046l2.64-2.879
		c0.283-0.309,0.262-0.788-0.046-1.071l0,0c-0.309-0.283-0.788-0.262-1.071,0.046l-2.64,2.879
		C51.668,133.489,51.689,133.969,51.997,134.252z"/>
	<path fill="#EEC178" d="M51.831,130.421L51.831,130.421c-0.283,0.309-0.262,0.788,0.046,1.071l2.879,2.64
		c0.309,0.283,0.788,0.262,1.071-0.046l0,0c0.283-0.309,0.262-0.788-0.046-1.071l-2.879-2.64
		C52.594,130.092,52.114,130.113,51.831,130.421z"/>
	<path fill="#EEC178" d="M36.179,156.58L36.179,156.58c0.309,0.283,0.788,0.262,1.071-0.046l2.64-2.879
		c0.283-0.309,0.262-0.788-0.046-1.071l0,0c-0.309-0.283-0.788-0.262-1.071,0.046l-2.64,2.879
		C35.85,155.818,35.871,156.297,36.179,156.58z"/>
	<path fill="#EEC178" d="M36.013,152.75L36.013,152.75c-0.283,0.309-0.262,0.788,0.046,1.071l2.879,2.64
		c0.309,0.283,0.788,0.262,1.071-0.046l0,0c0.283-0.309,0.262-0.788-0.046-1.071l-2.879-2.64
		C36.776,152.42,36.296,152.441,36.013,152.75z"/>
	<path fill="#EEC178" d="M83.633,89.594L83.633,89.594c0.309,0.283,0.788,0.262,1.071-0.046l2.64-2.879
		c0.283-0.309,0.262-0.788-0.046-1.071l0,0c-0.309-0.283-0.788-0.262-1.071,0.046l-2.64,2.879
		C83.304,88.832,83.325,89.312,83.633,89.594z"/>
	<path fill="#EEC178" d="M83.467,85.764L83.467,85.764c-0.283,0.309-0.262,0.788,0.046,1.071l2.879,2.64
		c0.309,0.283,0.788,0.262,1.071-0.046l0,0c0.283-0.309,0.262-0.788-0.046-1.071l-2.879-2.64
		C84.23,85.434,83.75,85.455,83.467,85.764z"/>
	<path fill="#EEC178" d="M59.906,123.087L59.906,123.087c0.309,0.283,0.788,0.262,1.071-0.046l2.64-2.879
		c0.283-0.309,0.262-0.788-0.046-1.071l0,0c-0.309-0.283-0.788-0.262-1.071,0.046l-2.64,2.879
		C59.577,122.325,59.598,122.804,59.906,123.087z"/>
	<path fill="#EEC178" d="M59.74,119.257L59.74,119.257c-0.283,0.309-0.262,0.788,0.046,1.071l2.879,2.64
		c0.309,0.283,0.788,0.262,1.071-0.046l0,0c0.283-0.309,0.262-0.788-0.046-1.071l-2.879-2.64
		C60.503,118.927,60.023,118.948,59.74,119.257z"/>
	<path fill="#EEC178" d="M44.088,145.416L44.088,145.416c0.309,0.283,0.788,0.262,1.071-0.046l2.64-2.879
		c0.283-0.309,0.262-0.788-0.046-1.071l0,0c-0.309-0.283-0.788-0.262-1.071,0.046l-2.64,2.879
		C43.759,144.654,43.78,145.133,44.088,145.416z"/>
	<path fill="#EEC178" d="M43.922,141.586L43.922,141.586c-0.283,0.309-0.262,0.788,0.046,1.071l2.879,2.64
		c0.309,0.283,0.788,0.262,1.071-0.046l0,0c0.283-0.309,0.262-0.788-0.046-1.071l-2.879-2.64
		C44.685,141.256,44.205,141.277,43.922,141.586z"/>
	<path fill="#EEC178" d="M111.534,24.471L111.534,24.471c0.341,0.243,0.814,0.163,1.057-0.178l2.265-3.182
		c0.243-0.341,0.163-0.814-0.178-1.057v0c-0.341-0.243-0.814-0.163-1.057,0.178l-2.265,3.182
		C111.113,23.755,111.193,24.229,111.534,24.471z"/>
	<path fill="#EEC178" d="M110.897,20.69L110.897,20.69c-0.243,0.341-0.163,0.814,0.178,1.057l3.182,2.265
		c0.341,0.243,0.814,0.163,1.057-0.178v0c0.243-0.341,0.163-0.814-0.178-1.057l-3.182-2.265
		C111.613,20.27,111.14,20.349,110.897,20.69z"/>
	<path fill="#EEC178" d="M119.192,13.084L119.192,13.084c0.309,0.283,0.788,0.262,1.071-0.046l2.64-2.879
		c0.283-0.309,0.262-0.788-0.046-1.071v0c-0.309-0.283-0.788-0.262-1.071,0.046l-2.64,2.879
		C118.862,12.321,118.883,12.801,119.192,13.084z"/>
	<path fill="#EEC178" d="M119.026,9.253L119.026,9.253c-0.283,0.309-0.262,0.788,0.046,1.071l2.879,2.64
		c0.309,0.283,0.788,0.262,1.071-0.046v0c0.283-0.309,0.262-0.788-0.046-1.071l-2.879-2.64
		C119.788,8.924,119.309,8.945,119.026,9.253z"/>
	<path fill="#EEC178" d="M95.447,46.602L95.447,46.602c0.309,0.283,0.788,0.262,1.071-0.046l2.64-2.879
		c0.283-0.309,0.262-0.788-0.046-1.071l0,0c-0.309-0.283-0.788-0.262-1.071,0.046l-2.64,2.879
		C95.118,45.839,95.138,46.319,95.447,46.602z"/>
	<path fill="#EEC178" d="M95.281,42.771L95.281,42.771c-0.283,0.309-0.262,0.788,0.046,1.071l2.879,2.64
		c0.309,0.283,0.788,0.262,1.071-0.046v0c0.283-0.309,0.262-0.788-0.046-1.071l-2.879-2.64
		C96.043,42.442,95.564,42.463,95.281,42.771z"/>
	<path fill="#EEC178" d="M103.356,35.438L103.356,35.438c0.309,0.283,0.788,0.262,1.071-0.046l2.64-2.879
		c0.283-0.309,0.262-0.788-0.046-1.071v0c-0.309-0.283-0.788-0.262-1.071,0.046l-2.64,2.879
		C103.027,34.675,103.047,35.155,103.356,35.438z"/>
	<path fill="#EEC178" d="M103.19,31.607L103.19,31.607c-0.283,0.309-0.262,0.788,0.046,1.071l2.879,2.64
		c0.309,0.283,0.788,0.262,1.071-0.046l0,0c0.283-0.309,0.262-0.788-0.046-1.071l-2.879-2.64
		C103.952,31.278,103.473,31.298,103.19,31.607z"/>
	<path fill="#EEC178" d="M79.629,68.931L79.629,68.931c0.309,0.283,0.788,0.262,1.071-0.046l2.64-2.879
		c0.283-0.309,0.262-0.788-0.046-1.071l0,0c-0.309-0.283-0.788-0.262-1.071,0.046l-2.64,2.879
		C79.3,68.168,79.32,68.648,79.629,68.931z"/>
	<path fill="#EEC178" d="M79.463,65.1L79.463,65.1c-0.283,0.309-0.262,0.788,0.046,1.071l2.879,2.64
		c0.309,0.283,0.788,0.262,1.071-0.046l0,0c0.283-0.309,0.262-0.788-0.046-1.071l-2.879-2.64
		C80.225,64.771,79.746,64.791,79.463,65.1z"/>
	<path fill="#EEC178" d="M55.902,102.424L55.902,102.424c0.309,0.283,0.788,0.262,1.071-0.046l2.64-2.879
		c0.283-0.309,0.262-0.788-0.046-1.071h0c-0.309-0.283-0.788-0.262-1.071,0.046l-2.64,2.879
		C55.573,101.661,55.593,102.141,55.902,102.424z"/>
	<path fill="#EEC178" d="M55.736,98.593L55.736,98.593c-0.283,0.309-0.262,0.788,0.046,1.071l2.879,2.64
		c0.309,0.283,0.788,0.262,1.071-0.046l0,0c0.283-0.309,0.262-0.788-0.046-1.071l-2.879-2.64
		C56.498,98.264,56.019,98.284,55.736,98.593z"/>
	<path fill="#EEC178" d="M87.538,57.766L87.538,57.766c0.309,0.283,0.788,0.262,1.071-0.046l2.64-2.879
		c0.283-0.309,0.262-0.788-0.046-1.071l0,0c-0.309-0.283-0.788-0.262-1.071,0.046l-2.64,2.879
		C87.209,57.004,87.229,57.483,87.538,57.766z"/>
	<path fill="#EEC178" d="M87.372,53.936L87.372,53.936c-0.283,0.309-0.262,0.788,0.046,1.071l2.879,2.64
		c0.309,0.283,0.788,0.262,1.071-0.046l0,0c0.283-0.309,0.262-0.788-0.046-1.071l-2.879-2.64
		C88.134,53.606,87.655,53.627,87.372,53.936z"/>
	<path fill="#EEC178" d="M63.811,91.259L63.811,91.259c0.309,0.283,0.788,0.262,1.071-0.046l2.64-2.879
		c0.283-0.309,0.262-0.788-0.046-1.071l0,0c-0.309-0.283-0.788-0.262-1.071,0.046l-2.64,2.879
		C63.482,90.497,63.502,90.976,63.811,91.259z"/>
	<path fill="#EEC178" d="M63.645,87.429L63.645,87.429c-0.283,0.309-0.262,0.788,0.046,1.071l2.879,2.64
		c0.309,0.283,0.788,0.262,1.071-0.046l0,0c0.283-0.309,0.262-0.788-0.046-1.071l-2.879-2.64
		C64.407,87.099,63.928,87.12,63.645,87.429z"/>
	<path fill="#EEC178" d="M40.084,124.752L40.084,124.752c0.309,0.283,0.788,0.262,1.071-0.046l2.64-2.879
		c0.283-0.309,0.262-0.788-0.046-1.071l0,0c-0.309-0.283-0.788-0.262-1.071,0.046l-2.64,2.879
		C39.755,123.99,39.775,124.469,40.084,124.752z"/>
	<path fill="#EEC178" d="M39.918,120.922L39.918,120.922c-0.283,0.309-0.262,0.788,0.046,1.071l2.879,2.64
		c0.309,0.283,0.788,0.262,1.071-0.046l0,0c0.283-0.309,0.262-0.788-0.046-1.071l-2.879-2.64
		C40.68,120.592,40.201,120.613,39.918,120.922z"/>
	<path fill="#EEC178" d="M24.266,147.081L24.266,147.081c0.309,0.283,0.788,0.262,1.071-0.046l2.64-2.879
		c0.283-0.309,0.262-0.788-0.046-1.071l0,0c-0.309-0.283-0.788-0.262-1.071,0.046l-2.64,2.879
		C23.937,146.318,23.957,146.798,24.266,147.081z"/>
	<path fill="#EEC178" d="M24.1,143.25L24.1,143.25c-0.283,0.309-0.262,0.788,0.046,1.071l2.879,2.64
		c0.309,0.283,0.788,0.262,1.071-0.046l0,0c0.283-0.309,0.262-0.788-0.046-1.071l-2.879-2.64
		C24.862,142.921,24.383,142.942,24.1,143.25z"/>
	<path fill="#EEC178" d="M71.72,80.095L71.72,80.095c0.309,0.283,0.788,0.262,1.071-0.046l2.64-2.879
		c0.283-0.309,0.262-0.788-0.046-1.071v0c-0.309-0.283-0.788-0.262-1.071,0.046l-2.64,2.879
		C71.391,79.332,71.411,79.812,71.72,80.095z"/>
	<path fill="#EEC178" d="M71.554,76.264L71.554,76.264c-0.283,0.309-0.262,0.788,0.046,1.071l2.879,2.64
		c0.309,0.283,0.788,0.262,1.071-0.046v0c0.283-0.309,0.262-0.788-0.046-1.071l-2.879-2.64
		C72.316,75.935,71.837,75.956,71.554,76.264z"/>
	<path fill="#EEC178" d="M47.993,113.588L47.993,113.588c0.309,0.283,0.788,0.262,1.071-0.046l2.64-2.879
		c0.283-0.309,0.262-0.788-0.046-1.071h0c-0.309-0.283-0.788-0.262-1.071,0.046l-2.64,2.879
		C47.664,112.825,47.684,113.305,47.993,113.588z"/>
	<path fill="#EEC178" d="M47.827,109.757L47.827,109.757c-0.283,0.309-0.262,0.788,0.046,1.071l2.879,2.64
		c0.309,0.283,0.788,0.262,1.071-0.046h0c0.283-0.309,0.262-0.788-0.046-1.071l-2.879-2.64
		C48.589,109.428,48.11,109.449,47.827,109.757z"/>
	<path fill="#EEC178" d="M32.175,135.917L32.175,135.917c0.309,0.283,0.788,0.262,1.071-0.046l2.64-2.879
		c0.283-0.309,0.262-0.788-0.046-1.071h0c-0.309-0.283-0.788-0.262-1.071,0.046l-2.64,2.879
		C31.846,135.154,31.866,135.634,32.175,135.917z"/>
	<path fill="#EEC178" d="M32.009,132.086L32.009,132.086c-0.283,0.309-0.262,0.788,0.046,1.071l2.879,2.64
		c0.309,0.283,0.788,0.262,1.071-0.046h0c0.283-0.309,0.262-0.788-0.046-1.071l-2.879-2.64
		C32.771,131.757,32.292,131.777,32.009,132.086z"/>
</g>
<g>
	<path fill="#3AB398" d="M47.886,132.483l17.93,13.096c5.786,4.226,13.978,2.95,18.204-2.837l49.205-67.371
		c4.226-5.786,2.95-13.978-2.837-18.204l-17.93-13.096c-5.786-4.226-13.978-2.95-18.204,2.837L45.05,114.279
		C40.824,120.065,42.1,128.257,47.886,132.483z"/>
</g>
<g>
	<path fill="#70C1AD" d="M23.869,81.472c-3.787,5.17-8.028,10.012-11.721,15.151c-1.84,2.618-3.779,5.153-5.332,7.803
		c-0.775,1.325-1.45,2.68-1.967,4.057c-0.531,1.386-0.851,2.783-0.869,4.064c-0.168,2.621,1.23,4.763,3.379,6.4
		c1.101,0.798,2.348,1.477,3.674,2.051c1.346,0.549,2.748,1.013,4.191,1.389c2.879,0.708,5.948,1.165,8.991,1.447
		c3.055,0.272,6.138,0.338,9.231,0.252c6.188-0.183,12.399-0.96,18.652-1.855c6.254-0.901,12.399-2.078,18.566-3.478
		c12.32-2.765,24.579-6.21,37.038-9.352l18.596-4.583c6.168-1.525,12.281-3.154,18.318-4.95c12.013-3.651,23.98-7.872,34.337-14.39
		c5.147-3.28,9.801-7.271,13.369-12.076c1.731-2.376,3.497-5.061,4.238-7.572c0.183-0.64,0.319-1.235,0.336-1.892
		c0.007-0.322,0.06-0.66,0.041-0.973l-0.067-0.935c-0.182-1.21-0.67-2.266-1.493-3.172c-1.664-1.841-4.609-2.844-7.557-3.362
		c-2.999-0.501-6.138-0.566-9.279-0.47c-3.145,0.107-6.305,0.439-9.446,0.919c-3.148,0.457-6.279,1.075-9.362,1.939
		c5.904-2.521,12.189-4.124,18.614-5.067c3.221-0.463,6.505-0.651,9.858-0.397c1.676,0.145,3.373,0.426,5.067,0.955
		c1.683,0.534,3.402,1.345,4.865,2.688c1.474,1.326,2.51,3.238,2.925,5.17l0.213,1.445c0.058,0.482,0.033,0.945,0.047,1.421
		c0.031,0.942-0.109,1.936-0.307,2.845c-0.88,3.706-2.592,6.532-4.384,9.444c-1.803,2.897-4.063,5.457-6.452,7.832
		c-2.384,2.398-5.023,4.479-7.729,6.43c-2.705,1.965-5.564,3.65-8.446,5.27c-2.897,1.596-5.875,2.986-8.864,4.328
		c-5.988,2.64-12.1,4.857-18.273,6.867c-6.171,1.994-12.398,3.711-18.611,5.358l-18.611,4.687
		c-12.336,3.068-24.723,6.465-37.42,8.985c-6.338,1.247-12.79,2.286-19.214,3.019c-6.414,0.773-12.948,1.286-19.548,1.142
		c-3.297-0.068-6.609-0.299-9.903-0.754c-3.298-0.469-6.552-1.093-9.815-2.159c-1.62-0.541-3.219-1.188-4.784-1.958
		c-1.558-0.802-3.078-1.753-4.485-2.936c-1.397-1.194-2.654-2.716-3.484-4.506c-0.447-0.885-0.67-1.862-0.881-2.825
		c-0.087-0.978-0.185-1.959-0.028-2.897c0.045-0.967,0.356-1.83,0.577-2.721c0.269-0.854,0.604-1.654,0.974-2.437
		c0.744-1.559,1.633-3.004,2.593-4.361c1.934-2.712,4.082-5.108,6.199-7.504C14.715,90.395,19.409,86.067,23.869,81.472z"/>
</g>
</svg>
