<?xml version="1.0" encoding="utf-8"?>
<!-- Generator: Adobe Illustrator 24.3.0, SVG Export Plug-In . SVG Version: 6.00 Build 0)  -->
<svg version="1.1" id="Layer_4" xmlns="http://www.w3.org/2000/svg" xmlns:xlink="http://www.w3.org/1999/xlink" x="0px" y="0px"
	 viewBox="0 0 289.556 171.851" enable-background="new 0 0 289.556 171.851" xml:space="preserve">
<g>
	<path fill="#2F007A" d="M125.376,112.518c0,0.831,0.021,1.662,0.062,2.483c-6.424,2.381-13.361,3.674-20.605,3.674
		c-9.133,0-17.794-2.063-25.521-5.757c-3.109-1.478-6.054-3.222-8.835-5.192C55.392,96.992,45.531,79.384,45.49,59.466v-0.133
		c0-3.438,0.287-6.803,0.852-10.087C51.133,21.282,75.494,0,104.832,0c31.944,0,57.988,25.233,59.281,56.849
		C141.497,65.223,125.376,86.987,125.376,112.518z"/>
</g>
<g>
	<path opacity="0.85" fill="#2F007A" enable-background="new    " d="M243.21,122.605c-4.782,27.963-29.143,49.245-58.491,49.245
		c-31.944,0-57.988-25.233-59.281-56.849c-0.041-0.821-0.062-1.652-0.062-2.483c0-25.531,16.121-47.296,38.737-55.669
		c6.424-2.381,13.361-3.674,20.605-3.674c9.143,0,17.804,2.063,25.521,5.757c-3.653,6.27-5.736,13.556-5.736,21.313
		C204.503,102.421,221.537,120.676,243.21,122.605z"/>
</g>
<g>
	<path fill="#8C0085" d="M64.012,115.679c2.842,2.062,5.849,3.92,8.999,5.552c-7.727,7.953-18.532,12.899-30.477,12.899
		C19.076,134.129,0,115.053,0,91.605c0-21.2,15.587-38.83,35.916-42.011c-0.452,3.181-0.688,6.434-0.688,9.738
		c0,0.277,0,0.554,0.01,0.831C35.505,82.965,46.793,103.17,64.012,115.679z"/>
	<path fill="#8C0085" d="M225.544,56.172c-2.842-2.062-5.849-3.92-8.999-5.552c7.727-7.953,18.532-12.899,30.477-12.899
		c23.458,0,42.534,19.076,42.534,42.524c0,21.2-15.587,38.83-35.916,42.011c0.452-3.181,0.688-6.434,0.688-9.738
		c0-0.277,0-0.554-0.01-0.831C254.051,88.886,242.763,68.681,225.544,56.172z"/>
	<path fill="#8C0085" d="M244.072,112.385v0.134c0,3.437-0.298,6.803-0.862,10.087c-21.672-1.929-38.707-20.185-38.707-42.36
		c0-7.758,2.083-15.044,5.736-21.313c3.12,1.478,6.065,3.222,8.845,5.192C234.159,74.858,244.031,92.467,244.072,112.385z"/>
</g>
<g>
	<path fill="#FF007A" d="M64.012,115.679c-5.705,5.09-13.227,8.189-21.477,8.189c-17.824,0-32.273-14.448-32.273-32.262
		c0-15.32,10.672-28.137,24.977-31.441C35.505,82.965,46.793,103.17,64.012,115.679z"/>
	<path fill="#FF007A" d="M225.544,56.172c5.705-5.09,13.227-8.189,21.477-8.189c17.824,0,32.273,14.448,32.273,32.262
		c0,15.32-10.672,28.137-24.977,31.441C254.051,88.886,242.763,68.681,225.544,56.172z"/>
	<path fill="#FF007A" d="M214.759,80.246c0-5.87,1.57-11.38,4.32-16.121c15.084,10.734,24.946,28.342,24.987,48.26
		C227.638,110.887,214.759,97.075,214.759,80.246z"/>
</g>
</svg>
