<?xml version="1.0" encoding="utf-8"?>
<!-- Generator: Adobe Illustrator 24.3.0, SVG Export Plug-In . SVG Version: 6.00 Build 0)  -->
<svg version="1.1" id="Layer_2" xmlns="http://www.w3.org/2000/svg" xmlns:xlink="http://www.w3.org/1999/xlink" x="0px" y="0px"
	 viewBox="0 0 190.1 216.328" enable-background="new 0 0 190.1 216.328" xml:space="preserve">
<g>
	<path fill="#3CBF52" d="M185.474,149.638c-3.89-2.239-8.8-1.301-11.663,2.027l-15.703-9.06c4.335-7.876,7.109-16.327,8.204-25.25
		c4.636-0.507,8.198-4.472,8.198-9.191s-3.561-8.643-8.198-9.149c-1.096-8.917-3.869-17.409-8.204-25.264l15.703-9.088
		c1.746,2.137,4.397,3.267,7.068,3.267c1.561,0,3.137-0.363,4.595-1.24c2.137-1.233,3.671-3.185,4.301-5.588
		c0.637-2.39,0.336-4.849-0.89-7.02c-1.233-2.13-3.239-3.65-5.636-4.287c-2.37-0.637-4.869-0.301-7.006,0.918
		c-2.157,1.24-3.698,3.239-4.335,5.595c-0.493,1.829-0.39,3.767,0.274,5.499l-15.738,9.088
		c-4.602-7.595-10.732-14.382-17.785-19.737c0.493-1.13,0.753-2.39,0.753-3.691c0-5.095-4.171-9.259-9.259-9.259
		c-3.034,0-5.705,1.459-7.41,3.719c-8.252-3.458-16.991-5.28-26.024-5.486V18.306c4.294-0.767,7.561-4.527,7.561-9.047
		c0-5.102-4.123-9.259-9.232-9.259c-5.102,0-9.232,4.157-9.232,9.259c0,4.52,3.274,8.28,7.568,9.047v18.135
		c-9.033,0.205-17.772,2.027-26.031,5.486c-1.705-2.26-4.369-3.719-7.403-3.719c-5.095,0-9.259,4.164-9.259,9.259
		c0,1.301,0.26,2.561,0.753,3.691c-7.054,5.356-13.19,12.142-17.785,19.737l-15.745-9.088c0.664-1.733,0.774-3.671,0.274-5.499
		c-0.637-2.356-2.171-4.356-4.335-5.595c-2.137-1.219-4.636-1.555-7.006-0.918c-2.39,0.637-4.397,2.157-5.636,4.287
		c-1.226,2.171-1.52,4.63-0.883,7.02c0.623,2.404,2.164,4.356,4.294,5.588c1.459,0.877,3.034,1.24,4.595,1.24
		c2.671,0,5.328-1.13,7.074-3.267l15.703,9.088c-4.335,7.855-7.109,16.347-8.204,25.264c-4.636,0.507-8.204,4.431-8.204,9.149
		s3.568,8.684,8.204,9.191c1.096,8.924,3.869,17.375,8.204,25.25l-15.703,9.06c-2.863-3.369-7.773-4.267-11.67-2.027
		c-2.13,1.233-3.671,3.226-4.294,5.629c-0.637,2.39-0.342,4.849,0.883,6.979c1.746,2.965,4.842,4.63,8.047,4.63
		c1.561,0,3.164-0.404,4.595-1.233c2.164-1.226,3.698-3.226,4.335-5.588c0.5-1.835,0.39-3.76-0.274-5.492l15.745-9.088
		c4.595,7.581,10.732,14.382,17.785,19.737c-0.493,1.13-0.753,2.356-0.753,3.691c0,5.095,4.164,9.218,9.259,9.218
		c3.034,0,5.698-1.431,7.403-3.691c8.259,3.431,16.998,5.294,26.031,5.486v18.148c-4.294,0.753-7.568,4.527-7.568,9.054
		c0,5.095,4.13,9.211,9.232,9.211c5.109,0,9.232-4.116,9.232-9.211c0-4.527-3.267-8.3-7.561-9.054v-18.148
		c9.033-0.192,17.772-2.055,26.024-5.486c1.705,2.26,4.376,3.691,7.41,3.691c5.088,0,9.259-4.123,9.259-9.218
		c0-1.335-0.26-2.561-0.753-3.691c7.054-5.355,13.183-12.156,17.785-19.737l15.738,9.088c-0.664,1.733-0.767,3.657-0.274,5.492
		c0.637,2.363,2.178,4.362,4.335,5.588c1.431,0.829,3.034,1.233,4.595,1.233c3.205,0,6.307-1.664,8.047-4.63
		c1.226-2.13,1.527-4.588,0.89-6.979C189.145,152.864,187.611,150.871,185.474,149.638z M175.153,57.178
		c0.404-1.534,1.39-2.794,2.76-3.602c0.897-0.493,1.897-0.753,2.924-0.753c0.514,0,1.048,0.062,1.541,0.192
		c1.534,0.404,2.801,1.37,3.602,2.733c0.794,1.363,1.007,2.965,0.603,4.486c-0.431,1.534-1.404,2.808-2.774,3.602
		c-2.828,1.623-6.431,0.637-8.061-2.157C174.941,60.307,174.749,58.712,175.153,57.178z M6.292,63.834
		c-1.37-0.794-2.349-2.068-2.774-3.602c-0.404-1.52-0.199-3.123,0.596-4.486c0.808-1.363,2.068-2.328,3.609-2.733
		c0.493-0.13,1.027-0.192,1.534-0.192c1.027,0,2.034,0.26,2.931,0.753c1.37,0.808,2.356,2.068,2.76,3.602
		c0.404,1.534,0.206,3.13-0.596,4.499C12.722,64.471,9.113,65.43,6.292,63.834z M14.948,159.192c-0.404,1.5-1.39,2.78-2.76,3.561
		c-2.801,1.63-6.431,0.651-8.074-2.171c-0.794-1.363-1-2.924-0.596-4.458c0.425-1.534,1.404-2.794,2.774-3.589
		c0.938-0.541,1.924-0.801,2.924-0.801c2.075,0,4.041,1.062,5.136,2.958C15.154,156.062,15.352,157.658,14.948,159.192z
		 M171.181,108.164c0,3.267-2.63,5.931-5.896,5.931c-3.274,0-5.938-2.664-5.938-5.931c0-3.226,2.664-5.89,5.938-5.89
		C168.552,102.274,171.181,104.939,171.181,108.164z M130.152,41.536c3.267,0,5.924,2.664,5.924,5.931
		c0,3.246-2.657,5.89-5.924,5.89c-3.239,0-5.896-2.643-5.896-5.89C124.256,44.2,126.913,41.536,130.152,41.536z M89.151,9.259
		c0-3.267,2.63-5.931,5.897-5.931c3.274,0,5.903,2.664,5.903,5.931c0,3.26-2.63,5.89-5.903,5.89
		C91.781,15.149,89.151,12.519,89.151,9.259z M59.949,41.536c3.267,0,5.896,2.664,5.896,5.931c0,3.246-2.63,5.89-5.896,5.89
		c-3.274,0-5.924-2.643-5.924-5.89C54.025,44.2,56.676,41.536,59.949,41.536z M18.92,108.164c0-3.226,2.63-5.89,5.896-5.89
		c3.267,0,5.938,2.664,5.938,5.89c0,3.267-2.671,5.931-5.938,5.931C21.55,114.095,18.92,111.431,18.92,108.164z M59.949,174.793
		c-3.274,0-5.924-2.623-5.924-5.89c0-3.26,2.65-5.924,5.924-5.924c3.267,0,5.896,2.664,5.896,5.924
		C65.846,172.17,63.216,174.793,59.949,174.793z M100.951,207.117c0,3.26-2.63,5.883-5.903,5.883c-3.267,0-5.897-2.623-5.897-5.883
		c0-3.267,2.63-5.89,5.897-5.89C98.321,201.227,100.951,203.85,100.951,207.117z M130.152,174.793c-3.239,0-5.896-2.623-5.896-5.89
		c0-3.26,2.657-5.924,5.896-5.924c3.267,0,5.924,2.664,5.924,5.924C136.076,172.17,133.419,174.793,130.152,174.793z
		 M136.754,162.445c-1.664-1.733-4.034-2.794-6.602-2.794c-1.109,0-2.137,0.206-3.109,0.534c-1.055,0.363-2.034,0.959-2.87,1.698
		c-1.993,1.664-3.253,4.198-3.253,7.02c0,0.87,0.13,1.705,0.329,2.5c-7.8,3.26-16.162,4.951-24.531,5.157
		c-1.109,0.027-2.226,0.027-3.335,0c-8.376-0.205-16.731-1.897-24.531-5.157c0.199-0.794,0.329-1.63,0.329-2.5
		c0-2.822-1.267-5.355-3.26-7.02c-0.829-0.74-1.808-1.335-2.863-1.698c-0.979-0.329-2.007-0.534-3.109-0.534
		c-2.568,0-4.938,1.062-6.602,2.794c-6.67-5.061-12.423-11.444-16.799-18.635c-0.301-0.466-0.596-0.931-0.856-1.404
		c-0.274-0.452-0.575-0.959-0.808-1.466c-4.102-7.451-6.691-15.43-7.8-23.819c3.479-0.87,6.198-3.732,6.835-7.294
		c0.103-0.534,0.171-1.103,0.171-1.664c0-0.555-0.068-1.13-0.171-1.664c-0.637-3.561-3.356-6.383-6.835-7.253
		c1.109-8.383,3.671-16.409,7.8-23.833c0.233-0.493,0.534-0.959,0.808-1.466c0.26-0.459,0.555-0.925,0.856-1.39
		c4.376-7.191,10.129-13.587,16.799-18.648c1.664,1.705,4.034,2.774,6.602,2.774c1.103,0,2.13-0.212,3.109-0.534
		c1.055-0.363,2.034-0.938,2.863-1.664c1.993-1.705,3.26-4.198,3.26-7.02c0-0.87-0.13-1.746-0.37-2.534
		c7.8-3.226,16.066-4.958,24.572-5.164c0.562-0.027,1.109-0.027,1.664-0.027c0.562,0,1.109,0,1.671,0.027
		c8.499,0.205,16.765,1.938,24.565,5.164c-0.233,0.788-0.363,1.664-0.363,2.534c0,2.822,1.26,5.314,3.253,7.02
		c0.836,0.726,1.815,1.301,2.87,1.664c0.972,0.322,2,0.534,3.109,0.534c2.568,0,4.938-1.068,6.602-2.774
		c6.664,5.061,12.423,11.457,16.799,18.648c0.294,0.466,0.596,0.931,0.856,1.39c0.274,0.507,0.575,0.972,0.808,1.466
		c4.13,7.424,6.691,15.45,7.8,23.833c-3.479,0.87-6.198,3.691-6.835,7.253c-0.11,0.534-0.171,1.109-0.171,1.664
		c0,0.562,0.062,1.13,0.171,1.664c0.637,3.561,3.356,6.424,6.835,7.294c-1.109,8.389-3.698,16.368-7.8,23.819
		c-0.233,0.507-0.534,1.014-0.808,1.466c-0.26,0.473-0.562,0.938-0.856,1.404C149.177,151.001,143.418,157.384,136.754,162.445z
		 M185.981,160.582c-1.637,2.822-5.273,3.801-8.067,2.171c-1.37-0.781-2.356-2.061-2.76-3.561c-0.404-1.534-0.212-3.13,0.596-4.499
		c1.096-1.897,3.061-2.958,5.129-2.958c1.007,0,1.993,0.26,2.931,0.801c1.37,0.794,2.342,2.055,2.774,3.589
		C186.988,157.658,186.775,159.219,185.981,160.582z"/>
</g>
<g>
	<path fill="#1FA338" d="M95.545,50.518c15.891,0,30.301,6.475,40.765,16.946c10.422,10.471,16.89,24.895,16.89,40.8
		c0,15.989-6.468,30.455-16.932,40.807c-10.457,10.471-24.874,16.946-40.765,16.946s-30.308-6.475-40.765-16.946
		c-10.464-10.352-16.932-24.776-16.932-40.807c0-15.905,6.468-30.329,16.932-40.8C65.194,56.993,79.654,50.518,95.545,50.518z
		 M129.562,115.458c4.631,1.683,8.228,5.281,9.982,9.793c2.116-5.274,3.234-10.988,3.234-17.023
		c0-13.034-5.267-24.783-13.851-33.417c-8.508-8.508-20.327-13.789-33.382-13.789c-13.062,0-24.881,5.281-33.382,13.789
		c-8.508,8.599-13.858,20.348-13.858,33.417c0,5.993,1.201,11.749,3.234,17.023c1.76-4.512,5.351-8.152,9.982-9.793
		c-3.15-1.956-5.19-5.476-5.19-9.353c0-6.112,4.911-11.106,10.981-11.106s11.099,4.994,11.099,11.106
		c0,3.877-2.116,7.397-5.19,9.353c3.793,1.404,6.95,4.079,8.864,7.593c-4.631,3.877-7.383,9.716-7.383,15.912v11.749
		c1.194,0.559,2.515,1.118,3.793,1.676v-13.425c0-7.313,4.631-13.509,11.176-15.912c-3.15-1.956-5.19-5.469-5.19-9.346
		c0-6.119,4.911-11.113,10.981-11.113s10.981,4.994,10.981,11.113c0,3.877-2.033,7.39-5.19,9.346
		c6.552,2.403,11.183,8.599,11.183,15.912v13.425c1.278-0.559,2.591-1.118,3.793-1.676v-11.749c0-6.196-2.759-12.035-7.39-15.912
		c1.956-3.514,5.071-6.189,8.864-7.593c-3.032-1.956-5.071-5.476-5.071-9.353c0-6.112,4.911-11.106,10.981-11.106
		c6.112,0,10.981,4.994,10.981,11.106C134.71,110.024,132.678,113.544,129.562,115.458z"/>
</g>
</svg>
