<?xml version="1.0" encoding="utf-8"?>
<!-- Generator: Adobe Illustrator 24.3.0, SVG Export Plug-In . SVG Version: 6.00 Build 0)  -->
<svg version="1.1" id="Layer_1" xmlns="http://www.w3.org/2000/svg" xmlns:xlink="http://www.w3.org/1999/xlink" x="0px" y="0px"
	 viewBox="0 0 219.321 192.016" enable-background="new 0 0 219.321 192.016" xml:space="preserve">
<g>
	<path fill="#383838" d="M115.16,71.103c-5.498-9.394-11.048-17.813-15.459-26.791c-2.892-5.887-0.336-11.286,6.018-13.267
		c6.562-2.046,10.663,1.595,12.367,7.843c2.331,8.544,8.046,13.607,16.027,16.745c10.438,4.104,12.283,10.523,6.008,20.115
		c-12.608,19.27-38.903,21.668-54.819,4.959c-2.097-2.201-3.964-4.621-6.702-7.838c-1.98,2.657-3.222,5.948-5.507,7.025
		c-3.833,1.806-9.455,4.196-12.233,2.631c-2.766-1.559-5.27-8.971-3.83-11.558c3.8-6.829,8.985-13.482,15.13-18.26
		c7.599-5.908,16.108-2.743,21.547,6.485c4.402,7.469,9.006,14.375,19.285,12.757C114.275,71.744,115.47,70.976,115.16,71.103z"/>
	<path fill="#383838" d="M148.038,52.243c-14.817,0.065-26.617-11.608-26.544-26.261c0.071-14.277,11.66-25.849,26.021-25.981
		c14.776-0.136,26.632,11.607,26.533,26.279C173.95,40.654,162.404,52.179,148.038,52.243z"/>
</g>
<g>
	<path fill="#489BD5" d="M160.76,192.016c-15.437,0-30.356,0-45.89,0c0-2.342,0-4.448,0-6.554
		c0.002-12.989-0.056-25.978,0.021-38.966c0.099-16.818,7.16-30.958,17.953-43.193c3.112-3.528,8.134-5.889,12.731-7.487
		c12.09-4.203,21.404-11.695,29.114-21.685c3.137-4.065,6.843-7.722,10.523-11.326c2.432-2.382,5.569-4.65,8.714-1.518
		c2.775,2.763,1.104,5.863-0.95,8.487c-5.948,7.597-11.936,15.162-17.894,22.751c-1.025,1.306-2.259,2.556-2.861,4.047
		c-0.392,0.972-0.233,2.809,0.436,3.396c0.737,0.646,2.533,0.732,3.518,0.287c1.287-0.581,2.357-1.817,3.303-2.952
		c7.461-8.95,15.554-17.484,22.002-27.117c3.162-4.724,3.767-11.444,4.543-17.389c0.57-4.368-0.601-8.941-0.74-13.431
		c-0.123-3.981-0.388-8.073,0.384-11.921c0.414-2.064,2.606-4.865,4.478-5.312c3.776-0.901,4.434,2.728,4.826,5.499
		c0.817,5.762,1.334,11.567,1.985,17.353c0.8,7.108,1.829,14.199,2.313,21.328c0.205,3.018-0.174,6.324-1.243,9.136
		c-3.484,9.16-7.646,18.062-11.083,27.238c-2.442,6.521-6.667,11.427-11.919,15.653c-12.445,10.014-24.851,20.08-37.425,29.93
		c-3.985,3.122-4.857,7.095-4.014,11.501c1.747,9.127,3.856,18.185,5.844,27.266C159.77,188.601,160.253,190.136,160.76,192.016z"/>
</g>
<g>
	<path fill="#71C05C" d="M104.268,191.973c-15.431,0-30.355,0-45.77,0c1.551-5.972,3.126-11.531,4.414-17.155
		c1.112-4.855,1.957-9.773,2.812-14.683c0.941-5.404-0.833-9.456-5.349-12.931c-11.744-9.037-23.145-18.518-34.756-27.73
		c-6.382-5.063-11.508-10.867-14.115-18.853c-1.955-5.988-4.492-11.828-7.24-17.506c-3.734-7.716-5.228-15.386-3.627-24.076
		c1.986-10.777,2.558-21.808,4.162-32.667c0.247-1.673,2.8-4.241,4.195-4.183c1.59,0.066,3.369,2.418,4.503,4.147
		c0.734,1.119,0.628,2.903,0.605,4.385c-0.067,4.327-0.246,8.654-0.448,12.978c-0.14,2.994-0.533,5.981-0.562,8.973
		c-0.077,7.846,1.522,14.998,7.118,21.14c6.497,7.132,12.404,14.801,18.58,22.227c0.957,1.151,1.784,2.638,3.026,3.263
		c1.401,0.704,3.204,0.609,4.832,0.861c-0.074-1.623,0.485-3.725-0.323-4.794c-6.024-7.964-12.348-15.702-18.506-23.566
		c-1.217-1.554-2.662-3.24-3.03-5.061c-0.368-1.822-0.172-4.721,0.976-5.623c1.232-0.969,3.9-0.389,5.862-0.038
		c1.016,0.181,1.951,1.237,2.766,2.054c2.465,2.475,5.127,4.82,7.225,7.585c9.261,12.203,20.364,21.746,35.313,26.417
		c6.594,2.06,11.369,6.817,14.963,12.651c7.793,12.65,13.363,25.811,12.525,41.288C103.692,164.516,104.268,178.028,104.268,191.973
		z"/>
</g>
</svg>
