<?xml version="1.0" encoding="utf-8"?>
<!-- Generator: Adobe Illustrator 24.3.0, SVG Export Plug-In . SVG Version: 6.00 Build 0)  -->
<svg version="1.1" id="Layer_1" xmlns="http://www.w3.org/2000/svg" xmlns:xlink="http://www.w3.org/1999/xlink" x="0px" y="0px"
	 viewBox="0 0 326.769 355.405" enable-background="new 0 0 326.769 355.405" xml:space="preserve">
<g>
	<path d="M326.769,254.903c-1.036,28.494-19.027,63.057-51.027,83.319v-16.704c0.093,2.018,0.186,4.036,0.279,6.055
		c0.013,0.345,0.345,0.677,0.531,1.022c10.769-4.302,12.587-7.542,13.105-18.722c0.77-16.266,2.085-32.518,3.439-48.757
		c0.505-6.148,0.518-11.539-3.944-16.876c-2.828-3.386-4.541-8.817-4.475-13.291c0.226-15.482,1.447-30.951,2.324-46.433
		c0.04-0.717,0.531-1.407,2.43-2.098v37.085c0.81,0.027,1.633,0.066,2.443,0.093c2.735-5.882,0.89-12.402,1.221-18.576
		c0.345-6.254,0.08-12.534,0.08-18.815c1.049-0.013,2.098-0.013,3.16-0.027v37.391c0.916,0,1.832,0.013,2.748,0.027
		c2.138-12.295-0.796-25.122,1.54-37.377c0.876,0.013,1.752,0.04,2.629,0.053v37.231c1.036,0.04,2.071,0.08,3.107,0.12
		c1.381-12.269-0.252-24.83,2.231-37.258c0.385,0.996,1.036,1.965,1.102,2.974c0.863,13.371,1.567,26.768,2.496,40.139
		c0.571,8.339-1.554,15.602-6.851,22.201c-1.607,1.992-2.35,5.391-2.098,8.02c1.341,14.114,3.133,28.176,4.727,42.011
		C314.115,292.705,320.781,277.701,326.769,254.903z"/>
</g>
<g>
	<path fill="#848484" d="M270.935,211.497c1.447,36.687,3.147,73.361,4.807,110.021v16.704
		c-16.677,10.582-37.152,17.261-61.025,17.182l0.518-12.8v3.877c4.886,1.846,6.998,0.717,6.559-4.05
		c-0.053-0.624-0.013-1.261-0.013-1.885c0.69-67.001,1.368-134.014,2.071-201.015c0.013-1.62,0.186-3.24,0.398-6.533
		c10.636,13.623,14.977,27.937,17.474,42.901c4.674,28.016,2.151,55.98-1.474,83.877c-0.345,2.669-2.363,5.285-4.09,7.568
		c-3.041,3.997-2.908,7.608-0.863,12.202c2.058,4.607,3.585,9.852,3.718,14.858c0.452,16.518,0.173,33.049,0.173,50.775
		c5.271-1.567,9.919-2.549,14.154-4.448c1.368-0.611,2.27-3.638,2.324-5.577c0.89-28.906,1.408-57.826,2.443-86.718
		c0.425-11.698,2.217-23.329,2.709-35.027c0.133-3.28-1.315-7.369-3.439-9.892c-10.755-12.734-13.212-33.819-5.032-48.332
		c3.027-5.364,6.971-9.52,13.703-9.48c6.719,0.027,10.649,4.209,13.663,9.547c8.484,15.057,5.922,35.744-5.643,48.65
		C272.33,205.854,270.842,208.988,270.935,211.497z"/>
</g>
<g>
	<path fill="#F26722" d="M215.234,335.009v7.595l-0.518,12.8c-0.425,0-0.85,0-1.275-0.013
		c-66.748-0.916-117.072-58.051-109.623-125.371c6.227-56.232,49.992-89.161,89.387-96.624c11.393-2.151,21.909,6.705,21.909,18.297
		c-15.296,0.704-29.264,4.063-41.693,10.383c-12.415,6.307-23.29,15.562-32.412,28.043c-12.827,17.553-18.47,37.457-17.089,59.14
		C126.67,292.4,161.326,333.044,215.234,335.009z"/>
	<path fill="#F26722" d="M143.184,23.099c3.551-2.652,6.792-5.554,10.464-7.726c11.558-6.838,24.035-9.731,37.443-7.604
		c10.395,1.649,18.965,6.703,26.265,14.193c5.959,6.115,10.2,13.152,12.122,21.481c3.342,14.487,0.459,27.858-7.882,39.997
		c-2.467,3.591-5.628,6.749-8.723,9.854c-3.609,3.619-5.313,7.869-5.145,12.89c0.162,4.834,1.971,9.215,4.164,13.418
		c2.648,5.076,5.467,10.063,8.379,15.394c-11.283-8.83-21.04-18.666-28.537-31.035c-3.073,6.421-7.224,11.511-12.742,15.392
		c-2.285,1.607-4.756,2.95-7.142,4.413c-0.08-0.106-0.16-0.212-0.239-0.318c1.642-2.501,3.378-4.946,4.909-7.514
		c4.965-8.329,8.371-17.159,8.405-27.035c0.027-7.74-2.149-14.86-6.059-21.475c-1.293-2.188-2.779-4.262-4.438-6.786
		c11.497,4.418,17.951,12.523,20.25,24.356c9.321-7.17,17.261-14.917,17.368-27.589c0.06-7.038-1.624-13.539-6.027-19.207
		c-5.569-7.17-12.558-11.628-21.889-11.809c-5.574-0.108-10.986,0.776-16.292,2.452c-9.914,3.131-18.812,8.03-26.458,15.117
		c-0.854,0.791-1.644,1.659-2.399,2.546c-0.754,0.886-1.425,1.842-2.17,2.817c-1.135-2.202-2.194-4.433-3.406-6.578
		c-4.034-7.139-9.61-12.811-16.71-16.889c-16.685-9.583-33.909-10.215-51.298-2.286c-14.472,6.598-25.689,17.006-33.392,30.957
		c-6.357,11.513-7.758,23.91-5.581,36.767c1.682,9.935,5.296,19.199,10.125,27.996c2.188,3.986,4.581,7.859,7.046,12.064
		c-6.192-1.362-11.294-4.352-16.25-8.613c-1.662,2.66-3.549,5.106-4.833,7.836c-4.657,9.895-5.205,19.963-0.269,29.937
		c4.178,8.444,11.232,13.405,20.238,15.638c10.378,2.573,20.086,0.649,28.884-5.224c2.384-1.591,4.025-4.296,6.007-6.489
		c0.244-0.271,0.49-0.54,0.743-0.82c12.47,8.167,22.94,18.331,31.741,30.562c1.603-1.691,3.115-3.347,4.692-4.939
		c7.46-7.531,15.574-14.259,24.369-20.197c8.213-5.545,16.805-10.359,25.986-14.081c15.405-6.245,31.292-9.282,47.95-6.909
		c0.412,0.059,0.842,0,1.263-0.005c-0.004,0.146-0.007,0.292-0.011,0.438c-1.751,0.219-3.503,0.429-5.252,0.659
		c-15.093,1.982-28.918,7.332-41.677,15.584c-11.992,7.756-22.602,17.142-32.023,27.793c-9.761,11.036-19.098,22.448-28.622,33.694
		c-0.13,0.153-0.282,0.287-0.596,0.604c-1.485-2.692-2.946-5.26-4.331-7.868c-3.986-7.504-7.8-15.12-13.724-21.371
		c-2.954-3.117-5.988-6.157-8.973-9.245c-0.586-0.606-1.085-0.516-1.799-0.134c-7.726,4.128-15.906,6.744-24.701,7.211
		c-14.722,0.781-27.83-3.344-38.398-13.768C2.763,170.556-1.488,156.788,0.453,141.198c1.574-12.644,7.18-23.423,16.003-32.551
		c0.646-0.668,0.651-1.169,0.305-1.935c-6.279-13.913-7.752-28.373-4.546-43.25c3.477-16.138,11.383-29.856,23.447-41.1
		C49.045,9.888,64.79,2.334,83.067,0.434c19.611-2.039,37.216,3.123,52.804,15.167c1.378,1.064,2.649,2.284,3.867,3.532
		C140.916,20.341,141.961,21.68,143.184,23.099z"/>
</g>
</svg>
