<?xml version="1.0" encoding="utf-8"?>
<!-- Generator: Adobe Illustrator 24.3.0, SVG Export Plug-In . SVG Version: 6.00 Build 0)  -->
<svg version="1.1" id="Layer_3" xmlns="http://www.w3.org/2000/svg" xmlns:xlink="http://www.w3.org/1999/xlink" x="0px" y="0px"
	 viewBox="0 0 241.287 200.37" enable-background="new 0 0 241.287 200.37" xml:space="preserve">
<g>
	<path fill-rule="evenodd" clip-rule="evenodd" fill="#E12222" d="M120.644,92.199C115.34,59.592,59.141,20.33,0,75.633
		c22.542,3.25,31.011,19.018,35.111,38.835c3.399,16.469,10.795,31.815,23.17,43.311c15.91,14.781,36.143,26.209,57.682,36.616
		c1.694-9.637-2.709-16.332-10.293-21.544c-7.157-4.921-13.88-10.082-20.147-15.494c-8.617-7.442-17.917-18.22-22.32-29.916
		C50.034,92.524,97.32,64.844,120.644,92.199z M77.059,0c10.51,0,19.035,8.514,19.035,19.012c0,10.504-8.525,19.018-19.035,19.018
		c-10.516,0-19.041-8.514-19.041-19.018C58.018,8.514,66.543,0,77.059,0z M56.552,171.91c8.314,8.639,17.484,16.321,27.441,23.135
		c4.528,3.096,1.163,7.202-2.732,4.38C70.159,191.373,60.607,182.71,56.552,171.91z M50.633,155.617
		c14.604,13.641,30.646,25.388,48.267,35.065c6.9,3.786,2.241,10.687-3.923,7.185C73.917,185.927,56.974,172.577,50.633,155.617z"/>
	<path fill-rule="evenodd" clip-rule="evenodd" fill="#E12222" d="M130.181,113.919c-4.323-4.227-2.444-10.894,2.816-5.447
		c24.887,25.539,16.154,44.971,6.292,52.769c-2.158,1.689-3.006,1.689-1.034-0.565c7.798-8.453,11.366-24.317-12.207-25.351
		c-4.978-0.469-3.944-4.506,0.845-4.037C135.532,132.225,152.627,133.728,130.181,113.919L130.181,113.919z M133.56,118.987
		c1.693,0.938,3.006,2.068,3.947,3.192c0.655,0.938,1.124,1.879,1.314,2.91c0.376,2.161,0,3.661-1.22,4.695
		c-1.317,0.848-3.006,0.848-5.354,0.096c-1.596-0.565-3.006-1.503-4.133-2.537c-0.376-0.469-0.845-1.034-1.314-1.689
		c-1.22-1.972-1.596-3.944-0.658-5.82c0.19-0.472,0.469-0.848,0.941-1.13C128.396,117.863,130.557,117.863,133.56,118.987
		L133.56,118.987z"/>
	<path fill-rule="evenodd" clip-rule="evenodd" fill="#E12222" d="M97.965,126.123c-3.006,5.258-9.86,5.164-5.916-1.313
		c18.127-30.61,39.259-27.228,49.305-19.716c2.255,1.689,2.351,2.534-0.279,1.124c-10.142-5.351-26.486-4.599-21.319,18.403
		c0.752,4.978-3.382,4.978-4.133,0.283C114.306,116.263,111.303,99.271,97.965,126.123L97.965,126.123z M102.006,121.617
		c0.469-1.972,1.22-3.475,2.065-4.695c0.751-0.845,1.503-1.596,2.444-1.972c1.972-1.031,3.565-0.938,4.881-0.093
		c1.127,1.034,1.596,2.627,1.503,5.164c-0.186,1.689-0.658,3.285-1.407,4.599c-0.379,0.565-0.751,1.127-1.316,1.689
		c-1.596,1.785-3.382,2.63-5.447,2.161c-0.469-0.093-0.938-0.189-1.317-0.658C102.288,126.875,101.723,124.716,102.006,121.617
		L102.006,121.617z"/>
	<path fill-rule="evenodd" clip-rule="evenodd" fill="#E12222" d="M127.782,143.744c5.54-2.441,11.083,1.6,4.133,4.606
		c-32.685,14.176-47.805-0.944-51.563-12.864c-0.842-2.723-0.469-3.475,0.848-0.751c5.164,10.23,18.781,19.249,28.079-2.441
		c2.254-4.503,5.637-2.062,3.568,2.158C108.811,142.241,101.392,157.734,127.782,143.744L127.782,143.744z M121.96,145.06
		c-1.596,1.317-3.006,2.158-4.509,2.537c-1.031,0.373-2.065,0.469-3.099,0.276c-2.255-0.373-3.475-1.31-3.944-2.813
		c-0.376-1.503,0.186-3.096,1.785-5.065c1.124-1.317,2.441-2.255,3.851-2.918c0.562-0.276,1.22-0.469,1.972-0.655
		c2.348-0.469,4.32,0,5.73,1.505c0.376,0.283,0.562,0.655,0.655,1.317C124.776,140.651,124.025,142.71,121.96,145.06L121.96,145.06z
		"/>
</g>
<g>
	<path fill-rule="evenodd" clip-rule="evenodd" fill="#545454" d="M241.287,75.633c-59.141-55.304-115.34-16.041-120.644,16.566
		c23.324-27.355,70.604,0.325,57.442,35.242c-4.408,11.696-13.709,22.468-22.32,29.916c-6.267,5.412-12.996,10.573-20.153,15.494
		c-7.579,5.212-11.981,11.907-10.287,21.544c21.539-10.413,41.766-21.835,57.676-36.616c12.38-11.496,19.771-26.842,23.175-43.311
		C210.271,94.646,218.745,78.884,241.287,75.633z"/>
	<path fill-rule="evenodd" clip-rule="evenodd" fill="#545454" d="M164.223,0c10.516,0,19.041,8.514,19.041,19.012
		c0,10.504-8.525,19.018-19.041,19.018c-10.51,0-19.035-8.514-19.035-19.018C145.187,8.514,153.713,0,164.223,0z"/>
	<path fill-rule="evenodd" clip-rule="evenodd" fill="#545454" d="M190.648,155.617c-14.599,13.641-30.646,25.388-48.267,35.065
		c-6.9,3.786-2.241,10.687,3.923,7.185C167.365,185.927,184.307,172.577,190.648,155.617z"/>
	<path fill-rule="evenodd" clip-rule="evenodd" fill="#545454" d="M184.729,171.91c-8.314,8.639-17.484,16.321-27.441,23.135
		c-4.522,3.096-1.163,7.202,2.732,4.38C171.123,191.373,180.675,182.71,184.729,171.91z"/>
</g>
</svg>
