<?xml version="1.0" encoding="utf-8"?>
<!-- Generator: Adobe Illustrator 24.3.0, SVG Export Plug-In . SVG Version: 6.00 Build 0)  -->
<svg version="1.1" id="Layer_1" xmlns="http://www.w3.org/2000/svg" xmlns:xlink="http://www.w3.org/1999/xlink" x="0px" y="0px"
	 viewBox="0 0 336.298 362.04" enable-background="new 0 0 336.298 362.04" xml:space="preserve">
<g>
	<rect x="164.661" y="238.479" fill="#FAA21B" width="2" height="110.987"/>
	
		<rect x="4.249" y="234.034" transform="matrix(0.9294 -0.369 0.369 0.9294 -80.8399 47.4132)" fill="#FAA21B" width="158.553" height="2.001"/>
	
		<rect x="253.641" y="159.936" transform="matrix(0.4676 -0.8839 0.8839 0.4676 -71.6569 349.886)" fill="#FAA21B" width="2" height="148.99"/>
	<path fill="#FAA21B" d="M167.501,231.672h-32.775c-1.412-1.03-2.109-2.599-2.284-4.534c-1.403-15.619-8.262-28.789-17.961-40.779
		c-6.037-7.465-10.878-15.627-13.278-25.052c-8.661-34.037,9.2-68.123,42.457-80.878c6.327-2.425,12.937-3.629,19.721-4.019
		c2.831-0.158,4.044,0.722,4.027,3.762c-0.083,25.982,0.332,51.973-0.174,77.938c-0.365,19.024,0.623,38.022,0.15,57.038
		c-0.125,4.907,0,9.823-0.116,14.731C167.251,230.618,167.251,231.241,167.501,231.672z"/>
	<path fill="#FAA21B" d="M162.985,232.503h32.775c1.412-1.035,2.109-2.613,2.284-4.558c1.403-15.703,8.262-28.943,17.961-40.997
		c6.037-7.505,10.878-15.711,13.278-25.186c8.661-34.219-9.2-68.487-42.457-81.31c-6.327-2.438-12.937-3.648-19.721-4.04
		c-2.831-0.159-4.044,0.726-4.027,3.782c0.083,26.121-0.332,52.25,0.174,78.354c0.365,19.125-0.623,38.226-0.15,57.343
		c0.125,4.934,0,9.876,0.116,14.809C163.234,231.443,163.234,232.069,162.985,232.503z"/>
	<path fill="#FAA21B" d="M165.243,316.031l-116.204-67.09V114.76l116.204-67.091l116.204,67.091v134.181L165.243,316.031z
		 M56.039,244.9l109.204,63.049L274.447,244.9V118.801L165.243,55.752L56.039,118.801V244.9z"/>
	<rect x="164.261" y="11.625" fill="#FAA21B" width="2" height="110.988"/>
	
		<rect x="77.543" y="64.933" transform="matrix(0.7063 -0.7079 0.7079 0.7063 -79.0212 97.9625)" fill="#FAA21B" width="2" height="158.553"/>
	
		<rect x="175.165" y="144.559" transform="matrix(0.7061 -0.7081 0.7081 0.7061 -29.7 219.5549)" fill="#FAA21B" width="148.989" height="2"/>
</g>
<g>
	<path d="M225.219,134.146c-0.282,2.956-2.682,4.941-5.871,4.442c-1.719-0.266-2.89,0.241-4.061,1.27
		c-0.805,0.706-1.711,1.304-2.45,2.076c-2.89,3.056-6.286,4.393-10.595,4.085c-4.252-0.307-4.426-0.008-4.492,4.135
		c-0.05,2.973-1.619,3.977-4.243,4.002c-5.032,0.033-10.056,0.083-15.088,0.008c-2.508-0.033-3.77,0.855-3.761,3.529
		c0.041,14.232,0.017,28.465,0.025,42.697c0,0.291,0.141,0.581,0.324,1.279c1.852-2.541,3.728-4.609,2.724-7.88
		c-0.257-0.83-0.199-2.267,0.324-2.757c3.961-3.695,1.677-8.163,1.661-12.306c-0.008-2.425-0.307-4.7-2.732-6.419
		c-2.026-1.42-1.819-4.808-0.191-6.66c1.868-2.109,4.741-2.35,6.9-0.581c1.935,1.578,2.773,4.982,0.947,6.576
		c-2.632,2.3-2.084,4.8-1.827,7.573c0.374,4.061-0.257,8.129,3.438,11.492c2.284,2.084,0.423,6.386-2.865,6.917
		c-3.18,0.515-4.11,2.815-5.223,5.04c-0.88,1.76-0.357,3.155,1.902,3.363c0.1,0.008,0.208,0.008,0.315,0.017
		c7.116,0.697,7.44,0.407,7.448-6.734c0-5.779,0.042-11.559-0.008-17.338c-0.025-2.466,0.839-2.964,3.114-1.993
		c3.737,1.603,4.343,1.212,5.123-2.707c0.548-2.732,1.021-5.472,1.603-8.187c0.548-2.599,1.179-4.949-0.897-7.482
		c-1.752-2.117-0.415-5.539,2.001-6.875c2.134-1.171,5.098-0.382,6.527,1.735c1.437,2.151,1.071,5.439-1.237,6.851
		c-4.517,2.757-3.479,7.465-4.218,11.451c-0.332,1.81,1.594,2.209,2.964,1.279c3.097-2.109,6.112-4.177,5.647-8.843
		c-0.415-4.235-0.125-8.553-0.108-12.829c0-0.847-0.174-2.151,0.282-2.474c3.097-2.184,4.393-5.68,6.601-8.495
		c1.304-1.661,3.405-1.719,5.256-0.473c1.968,1.312,2.906,3.155,2.184,5.522c-0.623,2.068-2.084,3.205-4.285,3.18
		c-0.839-0.008-1.694-0.166-2.524-0.332c-2.715-0.54-4.642,0.822-4.691,3.596c-0.083,4.816-0.091,9.641,0.05,14.448
		c0.066,2.367-0.739,4.077-2.516,5.572c-3.189,2.69-6.361,5.406-9.375,8.287c-1.868,1.785-3.679,2.441-6.012,1.071
		c-2.375-1.395-2.649-0.025-2.632,1.96c0.05,5.987,0.033,11.982,0.008,17.977c-0.008,4.31-0.423,4.7-4.849,4.733
		c-2.35,0.008-4.708,0.05-7.058,0c-1.993-0.042-3.006,0.83-3.006,2.848c0.008,5.995,0.025,11.99-0.008,17.977
		c0,0.889,0.191,1.503,0.581,1.902c0.465,0.498,1.212,0.689,2.225,0.673c4.492-0.05,8.985,0.008,13.485-0.017
		c1.752-0.008,3.305,0.158,3.172,2.491c-0.091,1.511,1.03,1.835,2.084,2.433c2.881,1.652,2.857,4.517,0.033,6.336
		c-2.815,1.81-2.823,2.582-0.042,4.285c2.848,1.744,2.865,4.617,0.042,6.336c-2.898,1.769-2.89,2.549,0.066,4.459
		c2.74,1.777,2.682,4.609-0.199,6.336c-0.922,0.556-1.877,0.855-2.018,2.192c-0.365,3.454-2.666,4.783-5.813,4.592
		c-2.674-0.158-3.911,0.814-4.866,3.371c-2.823,7.598-9.848,12.181-17.936,12.148c-7.864-0.033-14.83-4.667-17.604-12.165
		c-0.955-2.582-2.217-3.504-4.874-3.355c-3.155,0.183-5.422-1.163-5.804-4.609c-0.125-1.146-0.855-1.536-1.736-2.051
		c-3.28-1.918-3.313-4.658-0.158-6.618c2.516-1.561,2.524-2.715,0.025-4.16c-3.214-1.868-3.18-4.633,0.091-6.593
		c2.342-1.412,2.317-2.549-0.083-4.052c-3.205-2.009-3.23-4.824,0.066-6.593c1.046-0.556,1.835-0.963,1.71-2.3
		c-0.116-1.221-0.739-1.91-1.877-2.308c-0.614-0.216-1.154-0.498-1.611-0.83h32.775c0.241,0.44,0.723,0.697,1.677,0.681
		c0.963-0.008,1.702-0.183,2.142-0.681c0.332-0.365,0.498-0.913,0.473-1.702c-0.033-0.963,0.008-1.926,0.008-2.89
		c0-23.217-0.008-46.442,0-69.668c0-5.995,0.465-6.46,6.311-6.477c7.448-0.025,8.354-1.079,7.515-8.578
		c-0.191-1.702-1.221-2.599-2.616-3.363c-9.84-5.381-7.93-2.84-8.071-13.925c-0.116-8.445-0.041-16.906-0.008-25.359
		c0-1.868-0.174-3.371-1.926-4.716c-2.433-1.877-2.408-5.215-0.39-7.407c1.877-2.051,5.264-2.167,7.208-0.249
		c2.126,2.109,2.209,5.223-0.183,7.39c-1.545,1.403-1.885,2.906-1.877,4.816c0.05,9.2,0.017,18.401,0.017,27.61
		c0,6.352,0.515,7.025,7.307,9.109c-0.44-3.18-0.839-6.203-1.287-9.225c-0.166-1.088-1.204-1.42-1.943-2.009
		c-2.458-1.968-2.881-4.683-1.129-7.058c1.495-2.026,4.434-2.441,6.601-0.922c2.134,1.478,2.649,4.368,0.839,6.817
		c-1.304,1.752-1.32,3.404-1.03,5.406c0.847,5.921,1.852,11.841,1.511,17.869c-0.116,2.134,0.249,3.811,3.039,3.795
		c2.682-0.017,3.18-1.528,3.164-3.745c-0.042-5.887-0.042-11.775,0-17.654c0.033-3.554,0.789-4.301,4.401-4.343
		c4.384-0.05,8.777-0.017,13.161-0.025c1.835-0.008,3.811-0.274,3.363-2.682c-0.39-2.126,0.515-5.439-3.388-5.464
		c-6.427-0.033-12.846,0.008-19.264-0.033c-4.027-0.033-4.708-0.731-4.741-4.65c-0.025-2.566,0-5.14-0.008-7.706
		c-0.008-2.848,0.316-5.555-2.516-7.781c-2.117-1.669-1.528-5.14,0.465-6.842c2.167-1.86,4.957-1.727,6.909,0.316
		c2.117,2.209,2.325,4.692,0.042,6.776c-1.727,1.578-2.068,3.28-2.068,5.406c-0.008,11.235-0.033,11.235,11.069,11.235
		c1.71,0,3.421,0.017,5.132-0.042c1.179-0.033,2.607-0.066,2.649-1.652c0.05-1.611-0.996-2.524-2.624-2.649
		c-0.639-0.05-1.287,0.017-1.927-0.05c-2.773-0.291-4.816-2.541-4.7-5.14c0.116-2.607,2.416-4.866,5.015-4.924
		c2.724-0.058,5.489,2.275,5.115,5.032c-0.349,2.582,0.631,4.185,2.383,5.48c5.248,3.886,5.14,9.807,5.912,15.345
		c0.307,2.167-1.412,2.881-3.371,2.89c-4.708,0.008-9.416,0.091-14.125-0.017c-2.84-0.066-4.185,1.005-4.044,3.944
		c0.116,2.458,0.1,4.924,0.008,7.382c-0.116,2.782,1.254,3.454,3.861,3.836c6.112,0.905,9.317-3.371,13.12-6.668
		c0.839-0.722,0.515-1.769,0.573-2.715c0.183-3.089,2.583-5.381,5.364-5.206C223.351,128.757,225.485,131.331,225.219,134.146z"/>
	<circle cx="306.405" cy="87.819" r="12.871"/>
	<circle cx="323.428" cy="269.454" r="12.871"/>
	<circle cx="165.858" cy="349.169" r="12.871"/>
	<circle cx="12.871" cy="263.326" r="12.871"/>
	<circle cx="19.514" cy="84.482" r="12.871"/>
	<circle cx="165.458" cy="12.871" r="12.871"/>
</g>
</svg>
