<?xml version="1.0" encoding="utf-8"?>
<!-- Generator: Adobe Illustrator 24.3.0, SVG Export Plug-In . SVG Version: 6.00 Build 0)  -->
<svg version="1.1" id="Layer_1" xmlns="http://www.w3.org/2000/svg" xmlns:xlink="http://www.w3.org/1999/xlink" x="0px" y="0px"
	 viewBox="0 0 225.554 266.73" enable-background="new 0 0 225.554 266.73" xml:space="preserve">
<g>
	<path fill="#2C85C7" d="M151.264,99.743c0.707-4.363,2.112-5.108,7.209-4.873c2.593,0.12,5.196,0.168,7.786,0.001
		c4.591-0.296,6.333,1.05,6.343,5.141c0.001,0.386,0,0.772,0.241,0.919c1.949,1.631,4.075,3.096,5.808,4.932
		c2.758,2.923,4.018,6.569,4.022,10.596c0.016,13.066,0.074,26.133-0.017,39.198c-0.065,9.301-3.489,17.548-8.499,25.205
		c-5.949,9.09-13.6,16.593-22.114,23.239c-12.386,9.669-25.86,17.471-41.094,22.303c-16.018-5.216-30.16-13.543-43.036-23.981
		c-8.507-6.897-16.067-14.683-21.709-24.169c-4.649-7.815-7.121-16.175-6.978-25.368c0.186-11.95,0.043-23.905,0.046-35.859
		c0.002-6.749,3.019-11.759,8.829-15.091c0.799-0.458,1.08-0.932,1.009-1.81c-0.208-2.556,0.698-4.391,3.3-5.278
		c0.405-0.138,0.65-1.168,0.714-1.811c0.453-4.594,1.35-9.101,2.997-13.404c8.26-21.572,23.727-34.849,46.518-38.552
		c30.842-5.011,59.81,15.424,66.261,46.044c0.068,0.323,0.084,0.656,0.143,1.136c-3.549,0-7.024,0.007-10.499-0.004
		c-1.206-0.004-2.688,0.36-3.537-0.205c-0.758-0.504-0.786-2.07-1.188-3.148c-6.503-17.423-18.909-27.832-37.351-30.233
		c-23.559-3.067-45.683,14.079-49.104,37.52c-0.098,0.669-0.244,1.341-0.244,2.011c0,0.307,0.222,0.782,0.472,0.896
		c1.972,0.896,2.709,2.509,2.754,4.645H151.264z M111.001,113.166c-14.225,0-28.45,0.089-42.673-0.037
		c-7.556-0.067-14.682,6.178-13.751,14.941c0.811,7.641,0.818,15.32,0.095,22.97c-0.814,8.613,1.423,16.165,5.858,23.132
		c4.07,6.394,9.285,11.756,15.126,16.518c10.516,8.574,22.067,15.394,35.235,19.473c8.938-2.551,17.059-6.67,24.743-11.635
		c9.244-5.973,17.655-12.894,24.15-21.901c5.027-6.971,7.899-14.597,7.66-23.377c-0.246-9.02-0.038-18.053-0.062-27.08
		c-0.003-0.954-0.071-1.912-0.288-2.842c-1.403-5.993-6.715-10.14-13.129-10.153C139.644,113.147,125.322,113.167,111.001,113.166z"
		/>
</g>
<g>
	<path fill="#292E78" d="M0,72.877c6.8-0.968,12.636-1.004,17.926-2.721c10.377-3.369,18.992-16.023,16.942-26.905
		c-1.685-8.942,2.409-13.749,8.006-18.675C62.086,7.667,85.073,0.086,110.095,0.001c28.583-0.097,54.521,8.256,74.614,29.969
		c1.871,2.021,3.356,5.596,3.064,8.233c-2.289,20.641,9.516,34.027,30.287,33.776c1.045-0.013,2.089-0.002,3.415-0.002
		c0,13.031,1.169,25.813-0.263,38.296c-2.398,20.907-4.982,41.996-10.135,62.338c-9.263,36.567-34.579,60.338-67.045,77.417
		c-9.58,5.04-18.98,10.424-28.592,15.401c-1.86,0.963-4.923,1.804-6.416,0.943c-19.431-11.216-39.207-21.961-57.823-34.426
		c-18.568-12.433-30.029-30.965-37.46-51.841C1.362,145.329,0.398,109.104,0,72.877z M202.568,126.619
		c1.798-9.318,2.399-18.809,2.126-28.295c-0.019-0.674-0.02-1.298,0.002-1.839c0.161-3.974,0.871-7.338-4.781-9.372
		c-19.062-6.859-28.436-21.241-30.119-41.264c-0.299-3.556-2.085-7.943-4.694-10.201C137.03,11.354,84.593,11.71,56.791,36.35
		c-2.408,2.134-4.043,6.274-4.236,9.587c-1.16,19.915-10.756,33.761-29.202,40.936c-4.594,1.787-5.725,3.942-5.365,8.237
		c1.2,14.288,1.552,28.688,3.536,42.861c3.287,23.489,9.494,46.073,24.887,65.078c16.576,20.466,40.185,30.711,62.348,43.031
		c1.462,0.813,4.308,0.383,5.923-0.519c13.451-7.514,27.149-14.686,40.028-23.102c18.479-12.076,32.097-28.797,37.897-50.156
		C196.687,157.283,199.611,141.946,202.568,126.619z"/>
	<path fill="#292E78" d="M110.371,188.706c-2.293-0.012-4.594-0.022-6.886,0.035c-2.064,0.051-2.597-0.855-2.267-2.895
		c1.287-7.954,2.437-15.93,3.728-23.883c0.24-1.476-0.376-2.954-1.585-3.834c-5.25-3.823-6.971-10.174-4.434-15.835
		c2.569-5.733,8.481-8.858,14.55-7.691c6.12,1.176,10.646,6.441,10.672,12.808c0.018,4.422-1.83,8.16-5.508,10.693
		c-1.585,1.091-1.937,2.145-1.632,3.976c1.315,7.908,2.407,15.853,3.716,23.762c0.353,2.133-0.159,2.991-2.38,2.891
		C115.692,188.614,113.029,188.72,110.371,188.706z"/>
</g>
</svg>
