<?xml version="1.0" encoding="utf-8"?>
<!-- Generator: Adobe Illustrator 24.3.0, SVG Export Plug-In . SVG Version: 6.00 Build 0)  -->
<svg version="1.1" id="Layer_3" xmlns="http://www.w3.org/2000/svg" xmlns:xlink="http://www.w3.org/1999/xlink" x="0px" y="0px"
	 viewBox="0 0 245.665 247.637" enable-background="new 0 0 245.665 247.637" xml:space="preserve">
<g>
	<path fill="#99BBB5" d="M45.928,218.611c-19.762-15.498-34.342-37.585-41.299-61.973c-6.921-24.409-6.105-51.091,2.605-75.139
		c8.58-24.099,25.022-45.296,46.111-59.903c5.289-3.631,10.866-6.837,16.646-9.626c5.776-2.805,11.82-5.033,17.962-6.889
		c6.143-1.873,12.458-3.163,18.822-3.998c3.177-0.482,6.385-0.663,9.586-0.922c3.209-0.077,6.418-0.249,9.628-0.104
		c25.683,0.63,51.112,9.579,71.429,25.277C217.726,41,233.088,63,240.414,87.515c1.809,6.129,3.169,12.378,4.089,18.691
		c0.865,6.321,1.223,12.701,1.153,19.063l-0.183,4.76l-0.097,2.378l-0.215,2.372l-0.431,4.741c-0.194,1.575-0.444,3.143-0.664,4.714
		c-0.378,3.152-1.112,6.247-1.709,9.36c-0.307,1.555-0.768,3.078-1.144,4.617c-0.415,1.53-0.74,3.084-1.273,4.581l-1.467,4.523
		c-0.463,1.515-1.118,2.966-1.667,4.45c-1.076,2.981-2.46,5.835-3.77,8.713c-2.829,5.655-5.907,11.201-9.628,16.309
		c-7.167,10.41-16.393,19.271-26.621,26.495l3.637-2.978l1.814-1.489l1.717-1.601l3.423-3.204l3.216-3.408
		c0.528-0.574,1.089-1.117,1.601-1.706l1.506-1.791c0.994-1.201,2.028-2.369,2.988-3.595c1.827-2.527,3.785-4.952,5.403-7.618
		c3.484-5.161,6.312-10.726,8.886-16.366c1.183-2.872,2.438-5.709,3.385-8.667c0.485-1.473,1.075-2.908,1.473-4.408l1.275-4.47
		c0.461-1.479,0.745-3.006,1.111-4.51c0.328-1.513,0.741-3.007,1-4.534c0.502-3.056,1.143-6.086,1.429-9.173
		c0.174-1.538,0.379-3.071,0.529-4.61l0.299-4.632l0.15-2.314l0.033-2.32l0.058-4.638c-0.113-6.17-0.553-12.325-1.505-18.411
		c-1.003-6.075-2.427-12.071-4.275-17.934c-3.836-11.676-9.338-22.8-16.465-32.786c-1.736-2.53-3.674-4.908-5.582-7.306
		l-3.019-3.467c-0.995-1.165-2.103-2.228-3.148-3.347c-4.286-4.374-8.849-8.485-13.755-12.149
		c-4.913-3.651-10.057-6.984-15.432-9.904c-5.383-2.909-11.016-5.332-16.774-7.378c-5.754-2.072-11.703-3.567-17.711-4.667
		c-2.999-0.601-6.04-0.927-9.071-1.314c-3.048-0.222-6.092-0.527-9.151-0.538c-3.056-0.153-6.112,0.005-9.168,0.063
		c-3.047,0.239-6.103,0.396-9.128,0.846c-6.061,0.773-12.076,1.976-17.931,3.739c-5.854,1.747-11.62,3.843-17.133,6.497
		c-5.519,2.638-10.836,5.686-15.933,9.076C46.438,33.174,37.284,41.538,29.73,51.208c-3.797,4.812-7.268,9.897-10.261,15.257
		c-3.012,5.346-5.685,10.895-7.862,16.646C9.455,88.87,7.721,94.784,6.409,100.8c-1.247,6.031-2.018,12.155-2.433,18.309
		l-0.177,4.625c-0.077,1.542,0.02,3.085,0.021,4.629c-0.03,3.092,0.272,6.167,0.481,9.251c0.659,6.138,1.565,12.279,3.151,18.268
		l0.541,2.259c0.202,0.747,0.439,1.485,0.657,2.228l1.341,4.452c1.084,2.902,2.018,5.871,3.305,8.699
		c2.34,5.756,5.277,11.261,8.51,16.578l2.5,3.948l2.705,3.813c0.459,0.63,0.889,1.283,1.372,1.895l1.457,1.83
		c0.985,1.209,1.913,2.469,2.947,3.638C36.811,210.01,41.257,214.427,45.928,218.611z"/>
</g>
<g>
	<ellipse fill="#667573" cx="124.63" cy="107.699" rx="13.821" ry="11.665"/>
	<path fill="#667573" d="M105.41,115.105c-2.341-3.352-28.264,34.23-8.479,83.131c0,0,28.203-69.981,51.73-5.676
		c0.82-0.442,20.771-18.992-3.116-77.61C145.544,114.95,122.018,138.889,105.41,115.105z"/>
	<path fill="#667573" d="M49.306,221.651c2.323,2.177,70.836,54.427,143.906,4.359c-39.722-34.354-62.819-9.243-98.862-11.065
		c0,0-4.865,10.602,44.024,7.128C138.375,222.072,113.139,241.795,49.306,221.651z"/>
</g>
<g>
	<ellipse fill="#46BEA2" cx="71.462" cy="56.174" rx="18.075" ry="15.255"/>
	<ellipse fill="#46BEA2" cx="169.242" cy="56.174" rx="18.075" ry="15.255"/>
	<path fill="#46BEA2" d="M36.437,75.039c0,0,40.556,9.727,82.692-7.5c0,0-72.685,80.077-32.655,135.588
		c0,0-76.108-61.36-51.353-125.804L36.437,75.039z"/>
	<path fill="#46BEA2" d="M209.15,75.039c0,0-40.556,9.727-82.692-7.5c0,0,72.685,80.077,32.655,135.588
		c0,0,76.108-61.36,51.353-125.804L209.15,75.039z"/>
</g>
</svg>
