<?xml version="1.0" encoding="utf-8"?>
<!-- Generator: Adobe Illustrator 24.3.0, SVG Export Plug-In . SVG Version: 6.00 Build 0)  -->
<svg version="1.1" id="Layer_7" xmlns="http://www.w3.org/2000/svg" xmlns:xlink="http://www.w3.org/1999/xlink" x="0px" y="0px"
	 viewBox="0 0 201.266 198.385" enable-background="new 0 0 201.266 198.385" xml:space="preserve">
<g>
	<path fill="#1A827F" d="M153.943,182.609h-0.01c-1.62-0.06-3.32,0.3-4.8,0.75c-0.13,0.04-0.26,0.08-0.39,0.12
		c-1.58,0.5-3.44,0.91-5.5,1.25c0,0,0,0.01-0.01,0.01c-3.66,0.62-7.98,1-12.59,1.13c-18.19,0.55-40.96-2.72-46.45-10.59
		c0.14,0.04,0.29,0.08,0.45,0.12c0,0,0,0.01,0.01,0.01c1.47,0.4,3.89,1.02,6.88,1.67c0,0,0,0,0.01,0c4.36,0.97,9.91,2.02,15.4,2.59
		c0.38,0.04,0.75,0.08,1.13,0.11c8.02,0.7,15.34,0.18,17.27-6.54c0.15-0.54,0.27-1.12,0.35-1.75c0,0,0.01-0.01,0.01-0.02
		c0.07-0.54,0.12-1.11,0.13-1.72c-5.18,1.24-10.85,0.91-16.72-0.08c-6.83-1.14-13.93-3.17-20.88-4.62
		c-6.48-1.37-12.83-2.23-18.68-1.42c-8.29,1.25-13.39,1.91-17.64,1.42c-0.01,0-0.02,0-0.04-0.01c-2.83-0.32-5.28-1.16-8.04-2.68
		c-16.04-8.88-28.72-29.52-31.61-46.82c-1.73-10.73-0.23-21.69,4.39-31.49c8.19-17.3,26.29-30.45,45.79-29.64
		c-46.6-6-77.86,44.29-54.44,87.54c8.53,15.69,22.03,28.72,37.25,37.72c34.37,20.3,82.58,25.95,114.42,7.61
		C158.783,183.829,156.473,182.699,153.943,182.609z"/>
</g>
<g>
	<path fill="#2F1E54" d="M170.894,134.302c-13.34-19.4-38.02-27.53-25.8-52.44c0,0,3.46-1.39,3.92-4.27
		c0.47-2.88-1.84-7.27-3.34-12.34c-1.61-5.07-12-11.65-14.19-13.03c-2.19-1.5-12.45,3.11-12.45,3.11s-12-4.38-13.04-4.61
		c-1.03-0.23-4.38,3.34-6.22,10.26c-1.85,6.81,1.26,9.81,1.84,10.15c0.46,0.23,2.08,1.16,2.08,1.16l0.34,2.07
		c0,0,0.81-0.69,1.62-1.5c0.34,2.66,1.04,4.73,1.04,4.73s0.69-1.73,1.73-3.69l2.65,4.73c1.38,2.65,1.15,5.88,0,9.23
		c-1.73,4.96-3.69,7.84-5.54,10.84c-6.8,10.49-6.8,22.49-3,37.14c1.62,5.99,3.81,12.57,6.35,19.49c0,0,0.09,3.58,0.16,8.11
		c-7.11-1.54-13.89-4-21.04-5.61c0.31-3.12,1.23-5.67,2.31-8.73c3.57-9.69,5.07-18.45,3.11-27.1c-1.73-7.62-7.84-12.81-4.96-19.03
		c1.16-2.31,5.65-3.81,6.23-6c0.46-2.08-0.58-4.62-0.58-4.62s0.7-1.49-0.11-2.42c-0.81-0.8-4.5-1.61-4.5-1.61s-1.15-3.23-2.88-3.92
		c-1.16-0.47-6.58-1.5-10.15-2.2c-0.23-1.38-0.58-3.46-0.93-5.88c0,0-1.5,2.66-2.19,4.96l-4.03-5.3c-0.7,2.3-1.04,4.61-2.77,8.65
		c-2.08,5.07-2.89,11.18-1.5,20.76c1.84,12.68-3.23,12.11-10.61,17.18c-9.42,6.62-14.2,16.41-15.58,27.35
		c-19.33-17.35-26.84-52.43-9.22-73.25c14.76-17.42,42.56-21.69,62.97-4.04c-9.57-42.77,25.8-62.27,53.96-47.69
		c-0.14,0.53-0.21,1.09-0.21,1.67v13.15c0,3.8,3.12,6.8,6.92,6.8h7.04v7.04c0,3.8,3.11,6.92,6.92,6.92h6.69
		C181.254,82.972,177.974,109.452,170.894,134.302z"/>
	<path fill="#2F1E54" d="M161.304,9.142c-0.63,1.03-0.98,2.23-0.98,3.51v7.04h-5.78c-33.17-21.18-77.3,5.79-69.88,39.56
		c-21.69-18.22-59.75-10.96-76.24,12.8c6.8-26.41,40.02-38.17,65.85-30.68C82.994,2.052,129.124-10.478,161.304,9.142z"/>
	<path fill="#2F1E54" d="M161.594,180.932c15.86-35.53,32.26-81.76,20.71-120.68c2.88-0.84,5.01-3.51,5.01-6.65v-7.04h4.05
		c0.57,1.33,1.1,2.68,1.6,4.04c1.04,2.88,1.96,6,2.65,9C205.184,99.732,188.344,150.142,161.594,180.932z"/>
	<circle fill="#2F1E54" cx="75.333" cy="89.226" r="3.282"/>
	<circle fill="#2F1E54" cx="128.175" cy="59.776" r="3.282"/>
	<path fill="#2F1E54" d="M167.183,10.464h13.149c1.153,0,2.191,1.038,2.191,2.191V24.42h11.765c1.153,0,2.191,0.923,2.191,2.191
		V39.76c0,1.153-1.038,2.076-2.191,2.076h-11.765V53.6c0,1.269-1.038,2.191-2.191,2.191h-13.149c-1.153,0-2.191-0.923-2.191-2.191
		V41.836h-11.765c-1.153,0-2.076-0.923-2.076-2.076V26.611c0-1.269,0.923-2.191,2.076-2.191h11.765V12.655
		C164.992,11.502,166.03,10.464,167.183,10.464z"/>
</g>
</svg>
