<?xml version="1.0" encoding="utf-8"?>
<!-- Generator: Adobe Illustrator 24.3.0, SVG Export Plug-In . SVG Version: 6.00 Build 0)  -->
<svg version="1.1" id="Layer_6" xmlns="http://www.w3.org/2000/svg" xmlns:xlink="http://www.w3.org/1999/xlink" x="0px" y="0px"
	 viewBox="0 0 177.429 213.718" enable-background="new 0 0 177.429 213.718" xml:space="preserve">
<g>
	<path fill="#E73A3C" d="M162.597,202.952c6.503-50.164,3.77-101.511-8.021-150.702L66.241,71.66c0,0,9.184,75.185-1.93,124.373
		L162.597,202.952z"/>
	<path fill="#E73A3C" d="M57.435,178.218c3.314-25.564,1.921-51.73-4.087-76.797l-45.016,9.891c0,0,4.68,38.314-0.983,63.38
		L57.435,178.218z"/>
	<path fill="#E73A3C" d="M64.368,207.687c-0.085,0-0.171-0.011-0.257-0.036c-0.502-0.142-0.794-0.664-0.652-1.167l2.876-10.175
		c0.143-0.502,0.663-0.795,1.167-0.652c0.502,0.142,0.794,0.665,0.652,1.167l-2.876,10.175
		C65.159,207.415,64.78,207.687,64.368,207.687z"/>
	<path fill="#E73A3C" d="M70.946,207.748c-0.085,0-0.171-0.011-0.257-0.036c-0.502-0.142-0.794-0.665-0.652-1.167l2.796-9.88
		c0.143-0.501,0.665-0.791,1.167-0.652c0.502,0.142,0.795,0.665,0.652,1.167l-2.796,9.879
		C71.737,207.477,71.358,207.748,70.946,207.748z"/>
	<path fill="#E73A3C" d="M83.72,208.685c-0.055,0-0.111-0.005-0.167-0.015c-0.514-0.092-0.857-0.583-0.764-1.097l1.821-10.195
		c0.094-0.513,0.593-0.849,1.097-0.764c0.514,0.092,0.857,0.583,0.764,1.097l-1.821,10.194
		C84.568,208.363,84.169,208.685,83.72,208.685z"/>
	<path fill="#E73A3C" d="M97.692,209.896c-0.057,0-0.113-0.005-0.17-0.015c-0.513-0.093-0.854-0.585-0.762-1.098l1.968-10.862
		c0.095-0.514,0.598-0.854,1.099-0.761c0.513,0.093,0.854,0.585,0.762,1.098l-1.968,10.862
		C98.538,209.576,98.14,209.896,97.692,209.896z"/>
	<path fill="#E73A3C" d="M111.704,209.584c-0.021,0-0.042-0.001-0.063-0.002c-0.521-0.034-0.916-0.484-0.881-1.005l0.624-9.544
		c0.033-0.522,0.494-0.92,1.004-0.882c0.521,0.034,0.916,0.484,0.881,1.005l-0.624,9.544
		C112.614,209.2,112.198,209.584,111.704,209.584z"/>
	<path fill="#E73A3C" d="M123.22,209.909c-0.047,0-0.095-0.004-0.143-0.01c-0.516-0.078-0.871-0.56-0.793-1.076l1.298-8.584
		c0.078-0.516,0.559-0.865,1.076-0.793c0.516,0.078,0.871,0.56,0.793,1.076l-1.298,8.584
		C124.083,209.574,123.679,209.909,123.22,209.909z"/>
	<path fill="#E73A3C" d="M135.164,213.704c-0.05,0-0.102-0.004-0.154-0.012c-0.516-0.084-0.864-0.57-0.78-1.085l1.777-10.837
		c0.085-0.514,0.574-0.862,1.085-0.78c0.516,0.084,0.864,0.57,0.78,1.085l-1.777,10.837
		C136.02,213.374,135.618,213.704,135.164,213.704z"/>
	<path fill="#E73A3C" d="M149.864,213.391c-0.101,0-0.204-0.016-0.305-0.05c-0.495-0.169-0.758-0.706-0.59-1.2l3.478-10.186
		c0.169-0.495,0.705-0.758,1.2-0.59c0.495,0.169,0.758,0.706,0.59,1.2l-3.478,10.186
		C150.625,213.144,150.257,213.391,149.864,213.391z"/>
	<path fill="#E73A3C" d="M158.156,213.718c-0.039,0-0.079-0.002-0.118-0.007c-0.518-0.065-0.886-0.537-0.821-1.055l1.27-10.179
		c0.064-0.518,0.54-0.886,1.055-0.821c0.518,0.065,0.886,0.537,0.821,1.055l-1.27,10.179
		C159.033,213.368,158.626,213.718,158.156,213.718z"/>
	<path fill="#E73A3C" d="M7.378,180.616c-0.042,0-0.085-0.005-0.127-0.018c-0.248-0.07-0.392-0.328-0.322-0.576l1.466-5.185
		c0.07-0.248,0.328-0.393,0.576-0.322c0.248,0.07,0.392,0.328,0.322,0.576l-1.466,5.185C7.769,180.482,7.582,180.616,7.378,180.616z
		"/>
	<path fill="#E73A3C" d="M10.731,180.647c-0.042,0-0.085-0.005-0.127-0.018c-0.248-0.07-0.392-0.328-0.322-0.576l1.425-5.035
		c0.07-0.249,0.328-0.392,0.576-0.322c0.248,0.07,0.392,0.328,0.322,0.576l-1.425,5.035
		C11.121,180.513,10.934,180.647,10.731,180.647z"/>
	<path fill="#E73A3C" d="M17.24,181.124c-0.027,0-0.055-0.002-0.083-0.007c-0.254-0.045-0.423-0.288-0.377-0.542l0.928-5.195
		c0.046-0.254,0.291-0.419,0.542-0.377c0.254,0.045,0.423,0.288,0.377,0.542l-0.928,5.195
		C17.658,180.966,17.461,181.124,17.24,181.124z"/>
	<path fill="#E73A3C" d="M24.36,181.742c-0.028,0-0.056-0.002-0.084-0.008c-0.254-0.046-0.422-0.289-0.376-0.542l1.003-5.535
		c0.046-0.254,0.288-0.423,0.542-0.376c0.254,0.046,0.422,0.289,0.376,0.542l-1.003,5.535
		C24.778,181.584,24.581,181.742,24.36,181.742z"/>
	<path fill="#E73A3C" d="M31.5,181.582c-0.01,0-0.02,0-0.031-0.001c-0.257-0.017-0.452-0.239-0.435-0.496l0.318-4.863
		c0.017-0.257,0.232-0.451,0.496-0.435c0.257,0.017,0.452,0.239,0.435,0.496l-0.318,4.863
		C31.949,181.393,31.744,181.582,31.5,181.582z"/>
	<path fill="#E73A3C" d="M37.369,181.748c-0.023,0-0.047-0.002-0.071-0.005c-0.255-0.039-0.43-0.277-0.392-0.532l0.662-4.375
		c0.039-0.255,0.279-0.429,0.532-0.392c0.255,0.039,0.43,0.277,0.392,0.532l-0.662,4.375
		C37.795,181.583,37.596,181.748,37.369,181.748z"/>
	<path fill="#E73A3C" d="M43.456,183.682c-0.025,0-0.05-0.002-0.076-0.006c-0.255-0.042-0.427-0.282-0.385-0.536l0.906-5.522
		c0.042-0.255,0.281-0.427,0.536-0.385c0.254,0.042,0.427,0.282,0.385,0.536l-0.906,5.522
		C43.878,183.519,43.68,183.682,43.456,183.682z"/>
	<path fill="#E73A3C" d="M50.946,183.522c-0.05,0-0.101-0.008-0.151-0.025c-0.244-0.084-0.374-0.349-0.291-0.593l1.773-5.191
		c0.084-0.244,0.349-0.374,0.593-0.291c0.244,0.084,0.374,0.349,0.291,0.593l-1.773,5.191
		C51.322,183.401,51.141,183.522,50.946,183.522z"/>
	<path fill="#E73A3C" d="M55.172,183.69c-0.019,0-0.039-0.001-0.058-0.004c-0.256-0.032-0.437-0.265-0.405-0.521l0.647-5.187
		c0.032-0.256,0.271-0.435,0.521-0.405c0.256,0.032,0.437,0.265,0.405,0.521l-0.647,5.187
		C55.605,183.517,55.404,183.69,55.172,183.69z"/>
</g>
<g>
	<path fill="#FFFFFF" d="M109.479,179.678c-0.143,3.011,2.563,5.855,5.578,5.863s5.735-2.823,5.607-5.835L109.479,179.678z"/>
	<path fill="#FFFFFF" d="M30.367,166.357c-0.073,1.535,1.306,2.984,2.843,2.988c1.536,0.004,2.922-1.438,2.858-2.973L30.367,166.357
		z"/>
</g>
<g>
	<path fill="#060305" d="M107.37,33.825c-0.696,0-1.32-0.487-1.467-1.196l-0.948-4.575c-0.282-1.364-1.622-2.251-3.109-2.059
		c-4.7,0.597-9.491-1.359-12.205-4.99c-3.722-4.979-3.254-12.428,1.065-16.957c4.23-4.437,11.647-5.353,16.887-2.088
		c0.702,0.438,0.917,1.363,0.479,2.066c-0.438,0.704-1.363,0.917-2.066,0.479c-4.075-2.542-9.843-1.833-13.127,1.612
		c-3.283,3.442-3.657,9.314-0.835,13.091c2.046,2.737,5.83,4.266,9.424,3.811c3.061-0.393,5.822,1.512,6.426,4.425l0.948,4.576
		c0.168,0.811-0.354,1.605-1.164,1.773C107.574,33.814,107.471,33.825,107.37,33.825z"/>
	<path fill="#060305" d="M58.951,78.192c-2.998,0-5.79-1.534-7.42-4.187c-1.936-3.151-1.71-7.055,0.575-9.947
		c12.84-16.25,32.281-27.595,54.742-31.945c21.803-4.223,45.006-1.697,65.337,7.111c3.562,1.543,5.601,5.041,5.194,8.911
		c-0.408,3.885-3.141,6.896-6.962,7.669L60.727,78.013C60.133,78.133,59.538,78.192,58.951,78.192z M60.429,76.542h0.01H60.429z
		 M128.166,33.176c-29.073,0-57.004,11.604-73.706,32.742c-1.815,2.297-1.383,4.873-0.372,6.517c1.02,1.661,3.142,3.226,6.044,2.638
		l109.69-22.208c3.047-0.617,4.36-3.009,4.574-5.042c0.212-2.021-0.571-4.617-3.404-5.845
		C157.258,36.026,142.57,33.176,128.166,33.176z"/>
	<path fill="#060305" d="M151.647,120.308c-0.008,0-0.017,0-0.025,0c-0.413-0.014-0.738-0.36-0.725-0.774
		c0.686-20.583-0.766-41.305-4.312-61.59c-0.071-0.408,0.202-0.797,0.61-0.868c0.4-0.071,0.796,0.201,0.868,0.609
		c3.563,20.387,5.022,41.213,4.334,61.898C152.384,119.988,152.051,120.308,151.647,120.308z"/>
	<path fill="#060305" d="M140.554,92.956c-0.025,0-0.052-0.001-0.077-0.004c-0.412-0.042-0.712-0.411-0.67-0.823
		c1.046-10.188,0.357-20.401-2.049-30.358c-0.097-0.403,0.15-0.808,0.554-0.905c0.395-0.098,0.808,0.149,0.905,0.553
		c2.445,10.123,3.146,20.507,2.082,30.864C141.26,92.668,140.934,92.956,140.554,92.956z"/>
	<circle fill="#060305" cx="90.741" cy="175.943" r="2.704"/>
	<circle fill="#060305" cx="135.778" cy="179.641" r="2.704"/>
	<path fill="#060305" d="M84.116,166.169c-0.134,0-0.271-0.036-0.393-0.112c-0.353-0.218-0.462-0.68-0.244-1.032
		c1.082-1.753,3.033-2.892,5.092-2.971c2.079-0.078,4.094,0.905,5.307,2.569c0.244,0.334,0.171,0.804-0.163,1.048
		c-0.337,0.243-0.805,0.169-1.048-0.164c-0.91-1.247-2.515-2.024-4.037-1.954c-1.543,0.06-3.063,0.947-3.875,2.26
		C84.613,166.042,84.368,166.169,84.116,166.169z"/>
	<path fill="#060305" d="M141.311,168.024c-0.026,0-0.053-0.001-0.08-0.004l-9.537-1.007c-0.411-0.043-0.71-0.413-0.667-0.825
		c0.044-0.412,0.409-0.704,0.825-0.667l9.537,1.007c0.411,0.044,0.71,0.413,0.667,0.825
		C142.015,167.738,141.69,168.024,141.311,168.024z"/>
	<path fill="#060305" d="M29.292,92.2c-0.433,0-0.822-0.303-0.913-0.744l-0.484-2.332c-0.126-0.607-0.724-0.998-1.398-0.916
		c-2.456,0.316-4.958-0.711-6.377-2.609c-1.945-2.602-1.7-6.493,0.556-8.859c2.209-2.318,6.082-2.796,8.817-1.091
		c0.438,0.273,0.571,0.848,0.298,1.286c-0.273,0.438-0.848,0.571-1.286,0.298c-1.978-1.233-4.884-0.876-6.478,0.795
		c-1.618,1.697-1.803,4.592-0.412,6.453c1.007,1.347,2.876,2.104,4.645,1.875c1.647-0.209,3.136,0.817,3.462,2.389l0.484,2.332
		c0.105,0.505-0.22,0.999-0.724,1.104C29.419,92.194,29.355,92.2,29.292,92.2z"/>
	<path fill="#060305" d="M62.39,94.634c-10.027-4.353-21.434-5.704-32.249-3.853c-0.379,0.061-0.774,0.136-1.153,0.212
		c-0.228,0.046-0.44,0.091-0.667,0.137c-11.195,2.321-20.872,8.055-27.319,16.2c-1.213,1.532-1.335,3.595-0.303,5.264
		c0.85,1.411,2.336,2.215,3.914,2.215c0.319,0,0.637-0.03,0.94-0.091l3.079-0.622l36.178-7.327l0.91-0.182l3.716-0.758l0.925-0.182
		l3.792-0.774l7.296-1.471c2.033-0.41,3.474-2.002,3.686-4.065C65.348,97.289,64.271,95.438,62.39,94.634z M63.285,99.14
		c-0.106,0.986-0.743,2.139-2.199,2.427l-7.357,1.487l-3.883,0.789l-0.531,0.106l-40.88,8.282l-3.246,0.652
		c-1.396,0.288-2.412-0.47-2.897-1.259c-0.485-0.789-0.698-2.033,0.167-3.14c8.479-10.725,22.662-16.61,37.422-16.61
		c7.327,0,14.79,1.441,21.767,4.46C63.012,96.925,63.376,98.169,63.285,99.14z"/>
	<path fill="#060305" d="M51.856,136.188c-0.005,0-0.011,0-0.016,0c-0.258-0.009-0.459-0.224-0.451-0.482
		c0.349-10.483-0.391-21.037-2.197-31.369c-0.044-0.254,0.126-0.496,0.38-0.54c0.251-0.045,0.496,0.125,0.54,0.38
		c1.817,10.395,2.561,21.014,2.21,31.561C52.314,135.989,52.107,136.188,51.856,136.188z"/>
	<path fill="#060305" d="M46.203,122.249c-0.016,0-0.032-0.001-0.048-0.002c-0.256-0.026-0.443-0.256-0.417-0.512
		c0.532-5.183,0.181-10.378-1.042-15.442c-0.06-0.251,0.094-0.503,0.344-0.563c0.251-0.061,0.503,0.094,0.563,0.344
		c1.249,5.167,1.607,10.468,1.064,15.757C46.642,122.07,46.439,122.249,46.203,122.249z"/>
	<circle fill="#060305" cx="20.818" cy="164.454" r="1.378"/>
	<circle fill="#060305" cx="43.769" cy="166.339" r="1.378"/>
	<path fill="#060305" d="M17.442,159.558c-0.084,0-0.168-0.022-0.245-0.07c-0.219-0.136-0.287-0.423-0.152-0.642
		c0.566-0.917,1.587-1.512,2.664-1.554c1.08-0.039,2.14,0.473,2.776,1.344c0.152,0.208,0.106,0.501-0.102,0.652
		c-0.21,0.152-0.501,0.106-0.652-0.102c-0.447-0.614-1.221-0.988-1.986-0.962c-0.759,0.029-1.507,0.466-1.905,1.112
		C17.751,159.479,17.598,159.558,17.442,159.558z"/>
	<path fill="#060305" d="M46.589,160.503c-0.016,0-0.033-0.001-0.05-0.002l-4.86-0.513c-0.256-0.027-0.442-0.257-0.415-0.513
		c0.027-0.256,0.257-0.436,0.513-0.415l4.86,0.513c0.256,0.027,0.442,0.257,0.415,0.513
		C47.027,160.325,46.824,160.503,46.589,160.503z"/>
</g>
</svg>
