<?xml version="1.0" encoding="utf-8"?>
<!-- Generator: Adobe Illustrator 24.3.0, SVG Export Plug-In . SVG Version: 6.00 Build 0)  -->
<svg version="1.1" id="Layer_3" xmlns="http://www.w3.org/2000/svg" xmlns:xlink="http://www.w3.org/1999/xlink" x="0px" y="0px"
	 viewBox="0 0 256.336 209.058" enable-background="new 0 0 256.336 209.058" xml:space="preserve">
<g>
	<circle fill="#DD1C54" cx="159.639" cy="57.212" r="16.324"/>
	<circle fill="#DD1C54" cx="95.307" cy="56.205" r="16.324"/>
	<path fill="#DD1C54" d="M256.336,91.458c-5.484,65.857-60.668,117.6-127.939,117.6C57.48,209.058,0,151.57,0,80.662
		c0-6.375,0.466-12.635,1.365-18.757c5.525,40.252,39.818,95.934,74.733,90.654c5.157-0.776,9.554-2.91,13.592-6.22
		c22.925-18.79,31.923-18.209,47.06-20.293c15.659-2.166,38.184-3.792,38.184-3.792s3.735,22.157-16.109,25.54
		c-24.037,4.103-33.182,15.725-33.182,15.725s26.717,21.331,60.406,1.978C240.905,133.982,231.817,87.731,256.336,91.458z"/>
</g>
<g>
	<path fill-rule="evenodd" clip-rule="evenodd" fill="#231F20" d="M134.934,27.554c0,3.494-2.833,6.327-6.327,6.327
		c-3.494,0-6.327-2.833-6.327-6.327c0-3.494,2.833-6.327,6.327-6.327C132.101,21.227,134.934,24.059,134.934,27.554z"/>
	<path fill-rule="evenodd" clip-rule="evenodd" fill="#231F20" d="M163.114,0c0,0-1.65,8.143-10.073,17.43
		c-5.415,5.971-13.903,12.472-19.393,16.092c-1.453,0.958-2.885,1.885-5.305,1.885c-2.42,0-3.793-0.899-4.89-1.614
		c-5.47-3.56-14.254-10.24-19.808-16.363C95.223,8.143,93.573,0,93.573,0s-0.955,9.473,8.574,21.038
		c5.717,6.939,13.502,14.137,17.632,23.723c3.464,8.041,8.502,40.445,8.565,40.029c0.064,0.416,5.101-31.989,8.565-40.029
		c4.13-9.586,11.914-16.784,17.631-23.723C164.069,9.473,163.114,0,163.114,0z"/>
	<path fill-rule="evenodd" clip-rule="evenodd" fill="#231F20" d="M66.885,82.07c3.494,0,6.327,2.833,6.327,6.327
		c0,3.494-2.833,6.327-6.327,6.327c-3.494,0-6.327-2.833-6.327-6.327C60.558,84.903,63.391,82.07,66.885,82.07z"/>
	<path fill-rule="evenodd" clip-rule="evenodd" fill="#231F20" d="M39.331,53.89c0,0,8.143,1.65,17.43,10.073
		c5.971,5.415,12.472,13.902,16.092,19.393c0.958,1.453,1.885,2.885,1.885,5.305c0,2.42-0.899,3.793-1.614,4.891
		c-3.56,5.47-10.24,14.254-16.364,19.808c-9.287,8.422-17.43,10.073-17.43,10.073s9.473,0.955,21.038-8.574
		c6.939-5.717,14.137-13.501,23.723-17.631c8.041-3.464,40.445-8.502,40.029-8.565c0.416-0.064-31.989-5.101-40.029-8.565
		c-9.586-4.13-16.784-11.914-23.723-17.631C48.805,52.935,39.331,53.89,39.331,53.89z"/>
	<path fill-rule="evenodd" clip-rule="evenodd" fill="#231F20" d="M189.45,95.602c-3.494,0-6.327-2.833-6.327-6.327
		c0-3.494,2.833-6.327,6.327-6.327c3.494,0,6.327,2.833,6.327,6.327C195.778,92.769,192.945,95.602,189.45,95.602z"/>
	<path fill-rule="evenodd" clip-rule="evenodd" fill="#231F20" d="M217.004,123.783c0,0-8.144-1.65-17.431-10.073
		c-5.971-5.415-12.472-13.903-16.092-19.393c-0.958-1.453-1.885-2.885-1.885-5.305c0-2.42,0.899-3.793,1.614-4.89
		c3.56-5.47,10.24-14.254,16.363-19.808c9.287-8.422,17.43-10.072,17.43-10.072s-9.473-0.955-21.038,8.574
		c-6.939,5.718-14.137,13.502-23.723,17.632c-8.041,3.464-40.445,8.501-40.029,8.565c-0.416,0.064,31.989,5.101,40.029,8.565
		c9.586,4.13,16.784,11.914,23.723,17.631C207.531,124.738,217.004,123.783,217.004,123.783z"/>
</g>
</svg>
