<?xml version="1.0" encoding="utf-8"?>
<!-- Generator: Adobe Illustrator 24.3.0, SVG Export Plug-In . SVG Version: 6.00 Build 0)  -->
<svg version="1.1" id="Layer_2" xmlns="http://www.w3.org/2000/svg" xmlns:xlink="http://www.w3.org/1999/xlink" x="0px" y="0px"
	 viewBox="0 0 294.938 187.405" enable-background="new 0 0 294.938 187.405" xml:space="preserve">
<g>
	<path fill="#C7161A" d="M181.858,115.685c-2.54-1.45-5.12-2.9-7.85-3.91c-14.36-5.35-29.37-7.43-44.58-8.1
		c-3.17-0.13-4.87-1.25-5.63-4.18c-0.41-1.58-0.88-3.14-1.34-4.7c-5.42-18.47-12.81-35.93-25.86-50.49c-7.96-8.86-9.07-9-16.84,0.19
		c-7.87,9.31-12.1,19.56-7.54,32.05c2.23,6.1,4.03,12.46,5.05,18.85c1.73,10.81,2.88,21.71,4.23,32.97h3.65
		c0-0.08-0.01-0.16-0.01-0.25c-0.47-10.12-1.29-20.24-1.37-30.36c-0.04-7.31,3.95-9.53,10.64-6.46c7.78,3.57,13.23,9.4,16.24,17.46
		c2.16,5.79,4.01,11.73,6.58,17.33c4.94,10.78,13.27,15.3,25.04,13.31c15.01-2.53,27.71-10.25,39.78-19.06
		C184.128,118.825,184.168,117.005,181.858,115.685z M80.898,50.325c-0.74,0.92-1.48,1.84-2.14,2.81c-0.67,0.96-1.31,1.94-1.84,2.97
		c-0.52,1.04-0.96,2.12-1.26,3.3c-0.12-1.21,0.13-2.46,0.55-3.61c0.41-1.17,1.05-2.23,1.74-3.24c0.7-1,1.5-1.92,2.37-2.76
		c0.88-0.84,1.81-1.62,2.85-2.25L80.898,50.325z M170.988,114.275c-0.63-0.22-1.27-0.41-1.93-0.56c-1.33-0.33-2.68-0.59-4.07-1.04
		c1.43-0.34,2.89-0.25,4.31,0.07c0.7,0.18,1.4,0.43,2.04,0.84c0.62,0.38,1.25,1,1.33,1.76
		C172.208,114.775,171.608,114.515,170.988,114.275z"/>
	<path fill="#C7161A" d="M81.968,133.275c-0.167-1.315-0.324-2.619-0.471-3.924h3.649C85.254,131.617,85.372,133.971,81.968,133.275
		z"/>
	<path fill="#C7161A" d="M239.998,108.315c-2.01-9.59-7.07-17.37-14.83-23.49c-2.42-1.92-3.8-1.92-6.1,0.28
		c-10,9.51-17.42,20.76-22.66,33.38c-3.45,8.24-6.24,16.76-8.93,25.29c-1.18,3.72-2.58,5.52-6.94,5.7
		c-7.47,0.31-15.06,1.02-22.31,2.75c-9.59,2.29-18.97,5.57-28.32,8.76c-3.05,1.04-4.06,3.28-0.72,5.7
		c11.3,8.21,23.23,15.4,37.01,18.29c11.66,2.45,21.8-0.28,27.4-13.03c2.42-5.5,4.32-11.23,6.37-16.88c3-8.26,8.43-14.28,16.45-17.85
		c6.54-2.91,10.14-0.83,10.61,6.1c0.17,2.6-0.06,5.22-0.18,7.83c-0.4,7.43-0.84,14.85-1.21,22.28h4
		c0.84-19.08,4.31-37.7,10.17-55.93C240.708,114.685,240.618,111.255,239.998,108.315z M142.938,159.415
		c-1.12,0.4-2.24,0.8-3.49,1.01c0.44-0.46,0.94-0.83,1.47-1.15c0.53-0.32,1.09-0.58,1.67-0.8c0.59-0.2,1.19-0.38,1.81-0.46
		c0.62-0.08,1.27-0.09,1.89,0.08C145.118,158.575,144.058,158.995,142.938,159.415z M233.268,100.725
		c-0.61-0.99-1.28-1.95-1.96-2.89c-0.67-0.96-1.39-1.89-2.09-2.84c-0.71-0.94-1.42-1.88-2.11-2.86c0.99,0.69,1.87,1.5,2.7,2.36
		c0.84,0.86,1.61,1.78,2.31,2.75c0.69,0.99,1.34,2,1.84,3.11c0.5,1.1,0.9,2.26,1,3.47
		C234.458,102.725,233.878,101.715,233.268,100.725z"/>
	<path fill="#C7161A" d="M229.641,174.409c-0.049,1.187-0.098,2.374-0.128,3.571c-0.01,0.461-0.304,0.903-0.481,1.364
		c-3.787,0.687-3.551-1.903-3.434-4.218c0.01-0.235,0.02-0.481,0.039-0.716H229.641z"/>
</g>
<g>
	<path fill="#EEDEAC" d="M126.301,107.162c10.657-1.415,19.621-0.716,27.902,3.994c4.683,2.663,4.913,5.433,1.183,9.376
		c-6.272,6.631-15.151,6.763-20.893-0.207C131.453,116.633,129.36,112.161,126.301,107.162z"/>
	<path fill="#EEDEAC" d="M184.391,153.719c-3.411,5.065-6.051,9.957-9.607,14.055c-6.535,7.532-18.336,2.027-21.295-3.724
		c-1.439-2.796-0.3-4.554,1.915-6.223C161.524,153.213,175.46,150.874,184.391,153.719z"/>
</g>
<g>
	<path fill="#009FB1" d="M275.608,16.202c-2.856,5.156-5.181,10.708-8.674,15.389c-8.858,11.872-20.832,19.81-34.844,24.242
		c-10.72,3.391-21.675,6.16-32.67,8.532c-17.367,3.747-34.684,7.442-50.099,16.95c9.715-7.539,20.928-11.747,32.627-14.787
		c14.848-3.858,29.868-7.108,44.588-11.394c19.486-5.673,36.598-18.971,45.715-37.25"/>
	<path fill="#009FB1" d="M216.582,71.585c9.641-2.323,19.485-5.943,28.64-9.738c8.727-3.618,17.069-8.25,24.082-14.643
		c3.316-3.023,6.246-6.442,8.863-10.081c1.334-1.855,8.572-15.504,11.309-13.564c-2.518,4.606-4.505,9.616-7.648,13.746
		c-12.342,16.211-30.194,23.892-48.726,30.216C227.756,69.346,222.098,70.256,216.582,71.585z"/>
	<path fill="#009FB1" d="M217.755,46.679C236.286,34.11,251.307,17.991,264.48,0C255.022,21.675,237.338,35.128,217.755,46.679z"/>
	<path fill="#009FB1" d="M111.297,152.454c-10.923,10.032-24.015,12.966-38.327,11.885c-15.137-1.143-28.615-6.263-39.993-16.515
		C23.334,139.134,13.35,131.014,0,128.663c8.728,0.534,16.309,4.054,23.242,9.085c3.829,2.779,7.38,5.937,11.137,8.82
		c21.887,16.793,45.398,20.275,70.744,8.549C107.156,154.176,109.238,153.339,111.297,152.454z"/>
	<path fill="#009FB1" d="M30.552,158.468c14.663,11.89,32.459,12.07,49.926,13.445C62.188,173.417,44.75,171.755,30.552,158.468z"/>
	<g>
		<path fill="#009FB1" d="M41.258,137.719c2.02,1.433,4.053,2.75,6.126,3.968c2.084,1.196,4.207,2.286,6.408,3.164l1.657,0.638
			c0.559,0.191,1.132,0.33,1.694,0.515c0.558,0.205,1.136,0.32,1.713,0.445c0.579,0.104,1.149,0.306,1.737,0.36
			c2.345,0.445,4.723,0.42,7.215,0.373c-2.307,0.863-4.849,1.354-7.38,1.179c-2.524-0.146-5.039-0.703-7.379-1.655
			c-2.33-0.972-4.538-2.21-6.527-3.726C44.536,141.469,42.701,139.746,41.258,137.719z"/>
	</g>
</g>
<g>
	<path fill="#FAE900" d="M18.066,129.414c0,0-1.414,6.406-6.406,6.406c0,0,6.406,1.9,6.406,6.406c0,0,1.414-6.494,6.494-6.494
		C24.56,135.731,18.066,135.952,18.066,129.414z"/>
	<path fill="#FAE900" d="M66.658,165.482c0,0-1.414,6.406-6.406,6.406c0,0,6.406,1.9,6.406,6.406c0,0,1.414-6.494,6.494-6.494
		C73.152,171.799,66.658,172.02,66.658,165.482z"/>
	<path fill="#FAE900" d="M195.885,57.295c0,0-1.963,8.893-8.893,8.893c0,0,8.893,2.637,8.893,8.893c0,0,1.963-9.016,9.016-9.016
		C204.901,66.065,195.885,66.372,195.885,57.295z"/>
	<path fill="#FAE900" d="M238.476,22.334c0,0-1.608,7.285-7.285,7.285c0,0,7.285,2.16,7.285,7.285c0,0,1.608-7.385,7.385-7.385
		C245.862,29.518,238.476,29.769,238.476,22.334z"/>
	<path fill="#FAE900" d="M278.553,27.051c0,0-1.562,7.076-7.076,7.076c0,0,7.076,2.098,7.076,7.076c0,0,1.562-7.173,7.173-7.173
		C285.727,34.029,278.553,34.273,278.553,27.051z"/>
</g>
</svg>
