<?xml version="1.0" encoding="utf-8"?>
<!-- Generator: Adobe Illustrator 24.3.0, SVG Export Plug-In . SVG Version: 6.00 Build 0)  -->
<svg version="1.1" id="Layer_3" xmlns="http://www.w3.org/2000/svg" xmlns:xlink="http://www.w3.org/1999/xlink" x="0px" y="0px"
	 viewBox="0 0 208.12 208.126" enable-background="new 0 0 208.12 208.126" xml:space="preserve">
<g>
	<path fill="#89D329" d="M129.991,77.167c-14.964-14.535-38.875-14.191-53.406,0.772c-14.537,14.96-14.192,38.872,0.771,53.409
		c14.958,14.535,38.867,14.185,53.401-0.778C145.292,115.612,144.948,91.701,129.991,77.167z M124.039,124.041
		c-10.93,11.25-28.905,11.513-40.153,0.585c-11.248-10.93-11.509-28.91-0.581-40.159c10.93-11.251,28.908-11.509,40.158-0.58
		C134.709,94.815,134.968,112.794,124.039,124.041z"/>
	<path fill="#89D329" d="M159.675,48.197c-3.946-3.946-10.37-3.946-14.317,0.001c-3.944,3.946-3.944,10.369,0,14.316
		c3.946,3.947,10.37,3.947,14.317,0C163.623,58.567,163.623,52.144,159.675,48.197z"/>
	<path fill="#89D329" d="M149.811,95.191c4.047-7.133,4.688-15.903,1.627-23.572c-4.042-0.05-7.815-1.636-10.68-4.503
		c-2.868-2.867-4.451-6.638-4.503-10.682c-7.664-3.052-16.425-2.418-23.557,1.622c9.005,1.663,17.198,5.897,23.83,12.34
		c0.165,0.158,0.326,0.318,0.486,0.479C143.717,77.577,148.107,85.938,149.811,95.191z"/>
</g>
<g>
	<path fill="#008FB5" d="M159.678,159.372c3.946-3.945,3.946-10.37,0-14.316c-3.948-3.947-10.371-3.947-14.318-0.001
		c-3.946,3.947-3.946,10.37,0,14.317C149.308,163.319,155.731,163.319,159.678,159.372z"/>
	<path fill="#008FB5" d="M112.683,149.508c7.134,4.046,15.902,4.686,23.572,1.629c0.052-4.045,1.636-7.817,4.503-10.682
		c2.867-2.868,6.638-4.452,10.683-4.506c3.055-7.66,2.418-16.423-1.621-23.555c-1.665,9.006-5.898,17.199-12.341,23.833
		c-0.158,0.162-0.319,0.324-0.479,0.484C130.299,143.414,121.936,147.805,112.683,149.508z"/>
</g>
<g>
	<path fill="#C1001C" d="M48.503,159.378c3.946,3.947,10.369,3.947,14.316,0.001c3.946-3.947,3.946-10.37,0-14.317
		c-3.947-3.946-10.37-3.946-14.316,0.001C44.556,149.009,44.556,155.432,48.503,159.378z"/>
	<path fill="#C1001C" d="M58.368,112.386c-4.047,7.132-4.687,15.902-1.631,23.571c4.045,0.053,7.817,1.638,10.682,4.504
		c2.868,2.865,4.452,6.638,4.505,10.683c7.66,3.053,16.423,2.417,23.555-1.622c-9.006-1.662-17.199-5.897-23.832-12.341
		c-0.162-0.156-0.324-0.318-0.485-0.477C64.461,130.001,60.07,121.639,58.368,112.386z"/>
</g>
<g>
	<path fill="#FF8429" d="M48.443,48.147c-3.947,3.945-3.947,10.369,0,14.316c3.947,3.947,10.369,3.947,14.317,0
		c3.947-3.947,3.947-10.371,0-14.316C58.812,44.199,52.39,44.199,48.443,48.147z"/>
	<path fill="#FF8429" d="M95.437,58.011c-7.134-4.047-15.903-4.687-23.572-1.631c-0.052,4.045-1.637,7.817-4.503,10.685
		c-2.868,2.866-6.64,4.45-10.684,4.502c-3.053,7.661-2.418,16.425,1.621,23.555c1.664-9.004,5.898-17.198,12.342-23.83
		c0.157-0.163,0.319-0.326,0.478-0.487C77.82,64.105,86.183,59.713,95.437,58.011z"/>
	<path fill="#FF8429" d="M176.578,29.424C135.353-10.624,69.469-9.67,29.425,31.546C-10.627,72.767-9.669,138.659,31.551,178.7
		c41.223,40.053,107.096,39.097,147.144-2.128C218.74,135.356,217.794,69.47,176.578,29.424z M163.454,161.767
		c-31.869,32.804-84.295,33.572-117.097,1.698c-32.81-31.871-33.563-84.306-1.692-117.11c31.869-32.804,84.302-33.561,117.108-1.692
		C194.575,76.539,195.327,128.964,163.454,161.767z"/>
</g>
</svg>
