<?xml version="1.0" encoding="utf-8"?>
<!-- Generator: Adobe Illustrator 24.3.0, SVG Export Plug-In . SVG Version: 6.00 Build 0)  -->
<svg version="1.1" id="Layer_3" xmlns="http://www.w3.org/2000/svg" xmlns:xlink="http://www.w3.org/1999/xlink" x="0px" y="0px"
	 viewBox="0 0 115.356 223.683" enable-background="new 0 0 115.356 223.683" xml:space="preserve">
<g>
	<circle fill="#FF8F1F" cx="54.508" cy="21.781" r="21.781"/>
</g>
<g>
	<path fill="#54214E" d="M50.135,194.596c0.752-0.376,1.518-0.74,2.378-1.153c0.007-0.097,0.074-0.334,0.047-0.552
		c-0.383-3.61-1.189-4.241-5.051-3.216c-4.527,1.177-9.101,0.674-13.259-0.522c-3.95-1.141-7.422-3.677-11.016-5.752
		c-0.786-0.461-1.202-1.493-1.713-2.294c-1.028-1.663-2.935-2.518-4.225-1.996c-1.088-0.589-2.082-1.129-3.07-1.644
		c-2.781-1.475-4.447-5.243-2.996-7.615c0.564-0.91,2.19-1.299,3.298-1.972c0.927-0.564,1.8-1.183,2.882-1.905
		c0.558,0.37,1.538,1.025,2.586,1.735c0.148-0.334,0.269-0.57,0.369-0.771c2.895,1.996,6.394,1.996,9.766,2.421
		c1.397,2.451,4.48,2.13,7.046,3.416c-0.746,0.109-1.209,0.316-1.538,0.194c-1.975-0.643-4.178-0.843-5.622-2.567
		c-0.84-0.983-2.082-1.22-3.661-0.649c1.74,2.124,4.044,3.228,6.388,4.302c2.707,1.25,3.694,0.947,4.863-1.62
		c-0.47-0.558-0.961-1.11-1.431-1.65c0.571,0.243,1.142,0.492,1.827,0.783c0.376-2.002,0.732-3.944,1.095-5.898
		c0.128-0.042,0.242-0.091,0.376-0.127c0.584,1.559,1.471,3.076,1.699,4.678c0.336,2.257,1.196,3.823,3.647,4.417
		c3.889,0.934,7.778,1.286,11.519-0.74c1.874-1.019,3.936-1.772,6.227-2.785c-0.497-0.534-1.014-1.08-1.518-1.602
		c1.088-0.601,0.369-1.523-0.141-2.209c-0.396-0.504-1.37-1.141-1.847-1.001c-1.592,0.425-3.137,1.086-4.594,1.814
		c-2.747,1.39-5.588,1.917-8.598,0.989c-2.096-0.637-2.586-1.644-2.492-3.629c0.134-2.876-1.619-5.024-3.929-6.729
		c-2.384-1.772-3.909-1.232-6.401,0.346c-1.652,1.032-2.902,2.245-4.299,3.428c-0.43,0.37-1.961,0.085-2.693-0.346
		c-0.967-0.546-1.592-1.529-2.398-2.294c-2.304-2.191-3.076-2.294-5.669-0.801c-1.202-2.057-0.013-3.41,2.922-3.617
		c-0.316-1.699-0.645-3.434-0.994-5.303c1.76,0.589,3.11,1.038,4.46,1.481c0.107-0.188,0.202-0.376,0.309-0.576
		c-1.411-1.165-2.821-2.33-4.232-3.489c5.091,3.161,10.304,6.019,16.121,7.913c0.793-1.505,0.275-2.203-1.055-2.676
		c-1.471-0.522-2.902-1.159-4.178-2.087c1.733,0.583,3.432,1.274,5.199,1.681c0.719,0.164,1.726-0.121,2.405-0.473
		c1.115-0.607,2.069-1.432,3.083-2.166c0.437,0.722,0.699,1.129,0.94,1.529c0.302-0.443,0.611-0.886,1.021-1.505
		c2.411-0.2,5.044,0.261,6.999,1.893c2.284,1.899,4.715,1.547,7.288,1.165c0.772-0.115,1.531-0.285,2.29-0.425
		c-1.908,0.461-3.829,0.898-5.73,1.402c-0.598,0.158-1.128,0.492-1.686,0.74c0.544,0.328,1.041,0.728,1.632,0.947
		c0.383,0.127,0.913,0.103,1.337-0.006c2.949-0.74,6.22-0.376,8.88-2.275c1.055-0.765,2.539-1.056,3.835-1.553
		c-0.712-1.499-0.712-1.499-2.472-1.086c0.887-0.613,1.202-1.22,0.376-2.148c-0.349-0.388-0.249-1.117-0.369-1.742
		c-1.699-0.843-3.251-0.055-4.964,0.455c-2.27,0.661-4.675,1.032-7.053,1.274c-0.793,0.079-1.955-0.407-2.485-0.983
		c-2.687-2.907-6.139-2.658-9.672-2.106c-1.068,0.164-2.096,0.595-2.929,0.837c-0.114,1.117-0.215,2.1-0.329,3.258
		c-4.07-0.601-7.147-2.464-10.378-4.199c0.141-0.346,0.296-0.692,0.578-1.371c-0.537,0.297-0.88,0.376-0.987,0.57
		c-0.584,0.922-1.276,1.098-2.196,0.376c-2.62-2.039-5.232-4.072-8.168-6.359c0.759-0.133,0.913-0.206,0.967-0.158
		c2.801,2.53,6.092,3.902,10.156,3.665c2.337-0.127,4.688,0.012,7.033-0.067c0.846-0.036,1.679-0.358,2.519-0.54
		c0.007-0.206,0.007-0.407,0.013-0.613c-0.504-0.115-1.021-0.322-1.525-0.316c-2.976,0.067-5.944,0.231-8.913,0.249
		c-3.808,0.042-6.186-2.172-8.49-4.515c3.056,2.415,6.173,4.575,10.774,3.629c-1.82-1.044-3.466-2.13-5.232-2.961
		c-2.667-1.268-3.835-3.556-5.179-5.752c-0.558-0.904-1.115-1.893-1.928-2.573c-0.725-0.625-1.82-0.88-2.74-1.286
		c-0.114,0.127-0.228,0.279-0.343,0.407c-0.034-0.449-0.06-0.898-0.101-1.365c2.337-0.722,4.608-1.432,7.066-2.209
		c-0.537-0.959-1.021-1.826-1.505-2.676c0.114-0.085,0.235-0.152,0.356-0.231c0.551,0.795,1.29,1.523,1.625,2.391
		c1.807,4.703,3.983,9.169,8.9,11.99c2.519,1.438,4.997,2.937,7.751,4.581c0.336-3.92,0.652-7.712,0.967-11.474
		c3.352,1.39,6.892-0.079,10.458-0.218c-2.143,0.413-4.312,0.74-6.421,1.274c-1.102,0.273-3.063,0.212-1.82,2.251
		c0.255,0.407-0.094,1.141-0.202,1.717c-0.188,0.983-0.437,1.948-0.598,2.931c-0.007,0.079,0.463,0.225,0.705,0.34
		c-0.168,1.141-2.27,2.142-0.578,3.325c1.108,0.783,2.62,1.383,4.017,1.517c2.888,0.309,5.817,0.394,8.719,0.316
		c3.452-0.115,6.878-0.492,10.398-0.771c-0.208-2.027-2.761-1.365-4.715-2.348c1.686,0.243,2.848,0.4,4.057,0.57
		c-0.685-4.144-1.713-4.866-6.012-4.351c-0.128,0.012-0.249,0.042-0.376,0.061c-4.218,0.455-8.443,1.669-12.641-0.042
		c-0.107-0.042-0.255,0.012-0.39,0.018c2.801-0.807,5.602-1.626,8.403-2.421c0.981-0.285,2.062-0.382,2.908-0.85
		c1.525-0.856,2.969-1.839,4.332-2.907c0.793-0.631,1.948-1.268,1.296-2.567c-2.405,0.619-4.742,1.22-7.08,1.826
		c2.23-0.771,4.467-1.541,6.697-2.33c0.437-0.152,0.86-0.376,1.249-0.619c0.06-0.036-0.168-0.595-0.215-0.589
		c-0.517,0.055-1.014,0.164-1.659,0.297c-0.423-0.267-1.222-0.516-1.572-1.013c-2.129-3.04-5.038-2.615-8.181-1.711
		c-1.222,0.358-2.552,0.419-3.842,0.485c-0.369,0.018-0.739-0.437-1.149-0.619c-0.349-0.146-0.819-0.364-1.108-0.249
		c-1.968,0.722-3.217-0.03-3.13-1.99c0.349,0.121,0.685,0.225,1.269,0.413c-0.504-1.232-0.786-2.354-1.39-3.307
		c-0.591-0.922-2.908-0.977-3.916-0.218c-0.403,0.297-0.793,0.637-1.048,1.038c-1.72,2.633-4.198,2.998-7.187,2.106
		c-1.753-0.51-3.547-0.91-5.32-1.365c0.02-0.182,0.04-0.37,0.06-0.546c0.564,0.073,1.122,0.146,1.686,0.212
		c0.289,0.03,0.571,0.049,0.846,0.073c0-0.382,0-0.758,0-1.226c-0.013,0.012,0.074-0.121,0.188-0.127
		c4.89-0.977,3.849-4.284,3.728-7.379c-0.121-2.803,0.336-7.245,0.114-10.042c-0.423-5.491,1.028-9.187,1.787-14.551
		c0.074-0.528,0.336-1.025,0.558-1.669c-1.478-1.05-3.211-0.686-4.85-0.188c-2.176,0.661-4.198,0.473-6.22-0.461
		c-2.546-1.171-2.559-1.153-1.807-3.525c-1.652-0.279-1.652-0.279-2.908,3.422c-2.693-1.353-5.293-2.646-8.349-4.175
		c1.82-2.057,3.217-3.78,4.776-5.364c1.834-1.863,3.903-3.532,5.696-5.425c0.463-0.492,0.665-1.936,0.316-2.197
		c-1.552-1.153-0.678-2.524-0.309-3.513c1.034-2.822,5.521-24.581,5.924-26.426c0.652-3.058,3.58-5.255,7.066-5.528
		c1.283-0.103,7.039-1.996,8.705-2.342c4.064-0.831,5.555-9.921,7.402-9.921c1.847,0,9.834-0.127,11.875,0
		c1.639,0.291,2.23,8.568,5.018,9.454c1.236,0.388,6.912,2.518,8.141,2.9c1.538,0.479,3.251,1.341,4.648,1.062
		c2.042-0.407,3.123,0.479,4.097,1.505c0.981,1.044,6.69,26.905,7.489,29.205c0.692,1.96-0.316,5.067,0,6.038
		c0.316,0.971,1.431,1.141,2.257,1.559c0.497,0.249,1.155,0.364,1.538,0.71c1.861,1.748,3.741,3.507,5.454,5.37
		c0.719,0.783,0.564,1.638-0.45,2.439c-1.451,1.147-2.667,2.53-4.077,3.914c-0.652-0.394-1.155-0.698-1.619-0.971
		c-2.243,1.098-4.259,3.131-7.18,1.086c-0.638,0.716-0.994,2.342-2.485,0.801c-0.134-0.127-0.705,0.055-1.055,0.164
		c-2.391,0.746-3.358,0.237-3.862-2.051c-0.06-0.285-0.349-0.528-0.537-0.789c-0.161,0.055-0.356,0.115-0.524,0.17
		c0.416,1.402,0.813,2.816,1.263,4.211c0.772,2.421,1.881,4.806,2.297,7.288c0.383,2.178-0.443,4.915-0.034,5.874
		c0.416,0.959,1.31,1.608,1.142,4.066c-0.175,2.464-1.276,7.33-1.619,11.572c-0.087,1.104-0.195,2.221-0.168,3.325
		c0.047,1.493,1.364,1.523,2.519,1.517c1.733-0.006,3.466-0.055,5.179-0.249c1.323-0.14,2.673,1.056,3.95-0.091
		c0.343,0.388,0.92,0.777,0.967,1.195c0.296,3.113-0.222,5.989-3.6,8.234c0.84,0,1.162,0,1.498,0
		c0.094,0.133,0.161,0.291,0.249,0.431c-0.51,0.194-1.088,0.631-1.538,0.546c-1.679-0.34-3.701,0.17-4.44,1.541
		c-0.819,1.511-2.102,2.379-3.775,2.852c-1.088,0.316-1.693,0.837-1.928,1.911c-0.195,0.88-0.813,1.675-1.337,2.712
		c1.102-0.194,2.089-0.376,3.056-0.564c0.054,0.109,0.087,0.2,0.134,0.309c-1.384,0.4-2.767,0.825-4.252,1.262
		c0.484,1.644,1.753,1.644,3.056,1.371c3.513-0.734,6.193-2.633,8.45-5.085c0.907-0.989,1.901-1.899,2.861-2.846
		c-1.075,0.904-0.43,1.796,0.423,2.112c0.84,0.316,2.223,0.856,2.761-0.534c0.235-0.619,0.121-1.347,0.154-2.015
		c-0.84-0.006-1.666-0.012-2.505-0.03c0.826-0.14,1.652-0.309,2.485-0.449c0.141,0.825,0.699,1.905,0.336,2.427
		c-2.452,3.331-4.883,6.735-7.818,9.703c-1.538,1.553-4.131,2.203-6.22,3.325c-0.51,0.279-0.887,0.789-1.323,1.195
		c-0.168-0.734-0.188-1.529-0.537-2.191c-0.961-1.833-1.955-3.641-3.123-5.364c-0.497-0.716-1.693-1.784-2.136-1.644
		c-1.008,0.334-2.062,1.201-2.499,2.1c-0.363,0.698-0.161,1.917,0.302,2.652c0.981,1.511,0.45,2.306-1.001,3.125
		c-0.967,0.528-1.76,1.311-2.989,2.239c3.923,0.158,5.024-0.437,6.247-2.955c0.571-1.183,1.411-2.081,3.217-1.96
		c-0.437,0.558-0.799,0.995-1.155,1.426c0.202-0.049,0.416-0.091,0.618-0.127c0.799,1.481,1.572,2.949,2.505,4.678
		c0.289-0.91,0.443-1.468,0.618-2.033c0,1.195,0,2.391,0,3.586l0.027-0.042c0.853,2.791,1.511,3.313,4.319,2.093
		c2.626-1.141,4.903-2.913,7.348-4.411l-0.04-0.036c-0.376,2.112,0.853,3.447,3.096,3.914c1.377,0.285,2.613,1.104,3.923,1.644
		c0.88,0.376,1.773,0.692,2.875,1.11c-1.572,3.756-3.936,6.954-8.188,8.41c-4.339,1.493-8.685,1.796-11.687-2.403
		c-0.443,0.619-0.779,1.068-1.115,1.517c-0.121-0.085-0.222-0.152-0.343-0.243c-0.081,0.85-0.39,1.723-0.168,2.494
		c0.289,1.019,0.705,2.184,1.525,2.888c2.942,2.512,6.509,2.876,10.169,1.584c2.405-0.856,4.641-2.1,6.979-3.161
		c2.714,0.843,2.821,3.61,4.225,5.674c-0.416,0.516-1.048,1.341-1.693,2.16c0.094,0.109,0.181,0.206,0.275,0.322
		c0.551-0.267,1.115-0.528,1.82-0.868c-0.537,0.631-0.974,1.129-1.538,1.79c1.431,1.129,2.808,2.209,4.212,3.319
		c-4.366,2.379-8.423,5.419-13.803,6.05c-1.229,0.14-1.652,0.928-1.263,1.936c0.383,0.953,0.302,2.53,2.203,2.027
		c2.922-0.771,5.81-1.669,8.685-2.555c0.699-0.218,1.35-0.631,2.109-0.771c-2.317,1.79-5.078,2.743-7.96,3.453
		c-0.819,0.206-1.625,0.449-2.458,0.589c-1.484,0.225-1.82,0.904-1.115,2.209c7.254-0.437,13.441-3.313,19.103-7.379
		c0.141,0.206,0.289,0.425,0.423,0.637c-1.343,1.068-2.687,2.136-4.232,3.356c0.84,0.528,1.585,1.268,2.492,1.505
		c1.928,0.498,1.625,1.559,1.061,2.712c-0.249,0.522-0.692,0.995-1.142,1.39c-1.048,0.941-1.451,1.705-0.195,2.907
		c0.484,0.479,0.081,1.717,0.081,2.943c1.706-2.142,3.291-4.138,4.883-6.135c0.107,0.055,0.202,0.109,0.316,0.146
		c-1.431,2.148-2.882,4.29-4.319,6.438c0.249,0.127,0.47,0.237,0.705,0.37c1.35-1.468,2.693-2.919,4.037-4.387
		c0.128,0.091,0.242,0.158,0.376,0.249c-1.713,1.978-3.426,3.95-5.326,6.159c-1.034-1.942-2.317-1.286-3.358-0.334
		c-3.58,3.283-7.805,5.352-12.856,6.195c-1.175,0.2-2.378,1.135-3.177,2.008c-0.699,0.758-0.282,1.608,1.075,1.541
		c5.232-0.231,10.418-0.607,14.576-4.035c0.846-0.686,1.847-1.214,2.929-1.657c-2.505,2.002-4.722,4.43-8.148,5.182
		c-2.835,0.619-5.736,0.928-8.591,1.456c-0.712,0.127-1.377,0.546-1.894,1.141c8.846,0.947,16.235-1.899,22.636-7.348
		c0.141,0.212,0.302,0.413,0.457,0.631c-0.591,0.607-1.075,1.329-1.773,1.808c-6.334,4.326-13.514,6.317-21.46,6.171
		c-4.218-0.079-8.436,0.036-12.668,0.042c-1.055,0-2.371-0.886-2.942,0.868c3.647,2.233,7.886,1.153,11.936,1.353
		c-0.107,0.279-0.141,0.461-0.181,0.461c-3.909,0.413-7.832,1.068-11.546-0.819c-1.975-1.007-3.963-1.972-5.978-2.9
		c-0.39-0.164-1.162-0.267-1.357-0.073c-2.378,2.312-5.716,2.633-8.745,3.623c-3.271,1.086-6.502,2.275-9.746,3.416l0.013,0.024
		c0.363-0.303,0.672-0.704,1.095-0.868c3.782-1.39,7.617-2.676,11.372-4.126c1.827-0.698,3.627-1.541,5.286-2.524
		c1.746-1.025,1.202-2.907,1.538-4.424c0.034-0.127-0.719-0.467-1.169-0.619c-1.337-0.394-2.714-0.758-4.541-1.262
		c-0.349,0.249-1.088,0.922-1.981,1.371c-1.518,0.746-3.11,1.377-4.702,1.978c-1.464,0.583-2.935,1.177-4.467,1.559
		c-1.995,0.492-4.05,1.062-6.072,1.092c-3.882,0.049-7.778-0.2-11.661-0.431c-4.332-0.255-7.664-2.397-10.747-4.903
		c-1.787-1.45-3.533-2.943-5.461-4.557c-0.699,0.886-3.036,1.274-2.391,3.143c0.463,1.359,1.84,2.439,2.539,3.95
		c-0.658-0.576-1.377-1.104-1.955-1.742c-0.625-0.71-1.108-1.529-1.713-2.385c-1.337,1.007-1.175,2.1-0.329,2.998
		c0.86,0.898,2.008,1.572,2.996,2.379c0.282,0.231,0.443,0.595,0.658,0.886l0.047-0.036c-3.191-0.922-6.495-1.638-9.538-2.864
		c-2.693-1.092-5.112-2.743-7.617-4.181c-0.275-0.146-0.343-0.57-0.416-0.953c3.721,2.9,7.852,4.897,12.856,5.479
		c0.087-1.632-1.229-1.76-2.19-2.263c-2.74-1.438-5.434-2.949-8.127-4.46c-0.222-0.127-0.336-0.4-0.396-0.467
		c2.808,1.341,5.689,2.725,8.571,4.102c1.209,0.583,2.089,0.206,2.814-0.765c0.88-1.153,0.759-1.996-0.672-2.731
		c-2.143-1.098-4.265-2.251-6.307-3.495c-1.511-0.91-1.619-1.893-0.269-3.01c1.008-0.837,2.337-1.371,3.506-2.051
		c0.208-0.121,0.544-0.309,0.531-0.449c-0.148-2.737,2.68-3.853,3.869-5.85c0.349-0.583,0.578-1.208,0.88-1.887
		c10.163,10.364,22.737,14.357,38.011,9.508c0.275-2.172,0.081-2.318-2.922-1.881v0.024H50.135z M76.472,161.186
		c-0.423,0.079-1.182,0.079-1.236,0.243c-0.571,2.027-2.526,2.415-4.279,2.9c-2.546,0.704-2.861,1.044-2.284,3.738
		c2.002,0.085,4.057,0.194,6.112,0.231c2.821,0.049,3.291-0.607,2.378-3.089c0.101,0.049,0.202,0.109,0.309,0.146
		c0.034,0.012,0.141-0.061,0.141-0.073c-0.141-1.268-0.289-2.53-0.423-3.78c-0.296,0.012-0.584,0.036-0.873,0.067
		c0.074,0.619,0.141,1.238,0.195,1.869c-0.605-0.734-1.599-1.462-0.081-2.251c0.88-1.82,2.008-0.2,3.204-0.067
		c-0.121-1.098-0.242-2.063-0.316-3.04c-0.067-1.05-0.766-1.59-1.773-1.335c-0.699,0.17-1.726,0.85-1.773,1.359
		C75.72,159.117,76.21,160.161,76.472,161.186z M76.915,132.376c-0.51,0.243-1.471,0.498-1.471,0.74
		c0.047,1.396,0.309,2.797,0.517,4.46c2.23-2.324,2.378-3.149,1.196-4.958c0.208-0.152,0.625-0.376,0.605-0.473
		c-0.43-1.311-0.853-2.633-1.444-3.89c-0.504-1.123-1.263-1.899-2.814-1.032c-0.927,0.522-1.981,0.868-3.009,1.201
		c-3.526,1.177-3.533,1.159-3.049,4.539c0.06,0.358,0.235,0.746,0.114,1.044c-0.329,0.752-0.665,1.942-1.236,2.087
		c-2.519,0.589-2.29,1.875-1.605,3.556c0.356,0.886,0.517,1.778,1.908,1.371c1.149-0.346,2.593-0.522,1.78-2.178
		c0.222,0.291,0.443,0.583,0.678,0.874c0.128-0.042,0.235-0.091,0.363-0.127c-0.208-1.286-0.396-2.585-0.591-3.871
		c-0.249,0.018-0.51,0.036-0.759,0.061c0.074,0.856,0.141,1.693,0.222,2.555c-1.317-1.11-1.102-2.451,0.067-3.204
		c1.955-1.262,4.185-2.215,6.374-3.125C75.296,131.769,76.183,132.218,76.915,132.376z M83.78,190.1
		c-1.941,0.437-3.882,0.904-5.824,1.299c-2.149,0.425-2.324,0.661-1.471,2.597c4.749-0.637,9.511-1.28,14.273-1.911
		c-0.175-2.16-0.396-2.379-2.794-2.288c-1.417,0.061-2.821,0.225-4.238,0.352c2.096-0.37,4.198-0.728,6.536-1.141
		c-0.269-1.123-0.497-2.445-0.947-3.695c-0.148-0.431-0.893-1.032-1.323-1.001c-3.479,0.188-6.939,0.455-10.391,0.856
		c-0.564,0.067-1.337,0.862-1.417,1.39c-0.188,1.42-0.067,2.882-0.067,4.484C78.829,190.695,81.315,190.403,83.78,190.1z
		 M33.779,60.792c-0.134-0.024-0.262-0.055-0.39-0.085c-0.154,0.589-0.282,1.177-0.443,1.766c-0.611,2.13-0.913,4.399-1.961,6.341
		c-0.725,1.329-0.188,1.93,0.598,2.652c0.477,0.443,1.317,0.57,1.8,1.013c0.484,0.443,0.725,1.11,1.263,1.954
		c0.242-0.309,0.853-0.734,0.88-1.189c0.128-1.857,0.02-3.72,0.101-5.576c0.054-1.007-0.087-2.579,0.517-2.907
		c3.049-2.251,31.999-2.627,36.997-0.813c0.235,0.085,0.537,0.498,0.605,0.795c0.141,0.68,0.181,1.383,0.249,2.081
		c0.208,2.245,0.416,4.484,0.678,7.178c1.518-1.529,1.646-3.519,3.929-3.422c0.094,0.006,0.309-0.291,0.275-0.419
		c-0.242-1.189-0.107-2.725-0.893-3.507c-1.834-1.839-2.196-3.999-1.746-6.068c0.336-1.456-0.107-2.615-0.396-4.333
		c-0.638,2.542-1.182,4.684-1.726,6.881c-6.354-2.373-36.251-1.08-39.045,0.771C34.599,62.746,34.196,61.769,33.779,60.792z
		 M69.768,207.084c-0.107,0.655-0.208,1.444-0.329,2.233c-0.141,1.068-0.134,1.735,1.545,1.705c1.31-0.024,2.673,0.437,3.594,1.699
		c0.537,0.746,1.693,1.432,2.653,1.566c2.693,0.358,5.434,0.437,8.148,0.552c0.416,0.018,1.209-0.358,1.209-0.57
		c0.094-1.517,0.235-3.089-0.141-4.539c-0.134-0.479-1.74-0.789-2.7-0.91c-2.008-0.249-4.05-1.025-6.018,0.237
		c-0.369,0.231-1.135,0.079-1.673-0.079C74.06,208.425,72.099,207.788,69.768,207.084z M64.811,189.214
		c-0.04-0.206-0.074-0.407-0.121-0.631c-0.114-0.631-0.154-1.274-0.363-1.893c-0.43-1.341-1.686-2.039-2.633-1.432
		c-2.351,1.529-4.554,3.174-7.61,3.616c-1.37,0.182-1.444,1.541-1.122,2.743c0.39,1.438,1.431,0.941,2.27,0.68
		C58.45,191.314,61.627,190.252,64.811,189.214z M69.493,189.93c0.349-1.669-0.141-2.409-1.793-2.136
		c-1.055,0.176-1.921,1.147-2.949,1.59c-3.11,1.292-6.267,2.445-9.377,3.732c-0.558,0.231-0.967,0.777-1.437,1.177
		c0.625,0.218,1.357,0.746,1.847,0.607c2.942-0.862,5.871-1.796,8.725-2.87c0.772-0.291,1.276-1.147,1.908-1.754
		c-0.114-0.164-0.235-0.334-0.363-0.498C67.223,189.833,68.365,189.888,69.493,189.93z M65.785,159.961
		c-0.188,0.067-0.376,0.127-0.564,0.188c-0.893,0-1.8,0.115-2.653-0.024c-1.639-0.261-2.337,0.352-2.351,1.76
		c-0.02,0.734-0.007,1.468-0.007,1.833c2.573,0.467,4.809,0.874,7.368,1.341C66.961,163.28,66.376,161.623,65.785,159.961z
		 M69.856,187.315c0.101-1.032,0.242-1.954,0.269-2.888c0.074-2.039-0.302-2.403-2.559-2.166c-0.558,0.067-1.39,0.631-1.518,1.092
		c-0.356,1.268-0.403,2.603-0.578,3.962C67.035,187.315,68.318,187.315,69.856,187.315z M68.445,170.264
		c5.575,1.062,9.444,0.376,9.35-1.347c-2.586-0.115-5.132-0.2-7.684-0.328C68.768,168.541,67.941,168.844,68.445,170.264z
		 M64.341,200.331c-0.961,2.542-0.779,3.161,1.189,4.411C67.364,202.97,66.86,200.925,64.341,200.331z M67.72,167.37
		c-0.463-2.3-4.742-3.592-7.295-1.954C62.951,166.089,65.275,166.72,67.72,167.37z M74.974,148.674
		c-2.579-1.365-4.339,0.655-6.724,0.595C70.333,150.992,72.26,150.78,74.974,148.674z M69.144,140.932
		c-1.142,0.316-2.284,0.631-3.533,0.971c0.114,0.601,0.202,1.141,0.296,1.657C68.882,143.389,69.6,142.782,69.144,140.932z
		 M65.893,168.535c0.047-0.255,0.087-0.516,0.128-0.771c-1.061-0.279-2.109-0.613-3.191-0.801c-0.309-0.049-0.699,0.328-1.061,0.51
		c0.275,0.358,0.497,0.971,0.819,1.019C63.669,168.607,64.791,168.535,65.893,168.535z M36.735,139.936
		c0.02-0.17,0.034-0.346,0.047-0.522c-1.733-0.928-3.305-0.2-4.883,0.522C33.504,139.936,35.123,139.936,36.735,139.936z"/>
	<path fill="#54214E" d="M17.437,212.818c3.372,2.973,7.516,4.769,11.862,6.189c1.74,0.564,3.647,0.801,5.494,0.904
		c3.177,0.194,6.368,0.225,9.551,0.212c0.86-0.006,1.76-0.291,2.552-0.625c3.412-1.42,6.69-3.155,10.203-4.333
		c3.399-1.141,6.892-1.966,9.41-4.593c-0.504,1.45-3.815,3.58-6.119,4.43c-4.554,1.699-9.021,3.574-13.541,5.334
		c-0.631,0.249-1.364,0.364-2.055,0.364c-3.567-0.012-7.174,0.133-10.72-0.176c-5.971-0.546-11.231-2.761-15.684-6.444
		c-0.41-0.34-0.618-0.868-0.913-1.311L17.437,212.818z"/>
	<path fill="#54214E" d="M49.127,221.277c-1.854,1.541-3.721,2.785-6.583,2.3c-2.183-0.376-4.507-0.358-6.75-0.188
		c-4.668,0.34-8.564-1.511-12.493-3.319c-2.069-0.953-4.084-2.002-5.971-3.204c-0.94-0.607-1.525-1.644-2.102-2.658
		c3.923,4.551,9.84,5.983,15.315,7.998c1.666,0.625,3.701,0.437,5.575,0.522c2.788,0.127,5.575,0.2,8.369,0.2
		c0.692,0,1.397-0.37,2.089-0.613c0.866-0.322,1.713-0.686,2.573-1.025L49.127,221.277z"/>
	<path fill="#54214E" d="M50.088,194.566c-2.942,1.62-6.3,1.256-9.504,1.493c-6.522,0.473-12.023-1.899-17.068-5.37
		c2.022,0.916,4.044,1.851,6.065,2.773c6.206,2.834,12.668,2.53,19.197,1.201c0.437-0.091,0.893-0.061,1.343-0.085
		C50.135,194.596,50.088,194.566,50.088,194.566z"/>
	<path fill="#54214E" d="M42.82,171.119c5.864,2.809,10.975,1.766,15.953-1.038C54.118,173.905,46.414,174.481,42.82,171.119z"/>
	<path fill="#54214E" d="M94.574,165.228c-3.654,2.1-7.342,4.15-11.614,2.197c1.874,0,4.003,0.279,5.965-0.091
		C90.873,166.981,92.686,165.962,94.574,165.228z"/>
	<path fill="#54214E" d="M79.28,150.889l-0.027,0.036c3.701,0.856,6.166-1.42,8.96-2.9c-1.773,2.021-4.057,3.234-6.858,3.538
		C80.71,151.635,79.978,151.132,79.28,150.889z"/>
	<path fill="#54214E" d="M95.246,140.938c-0.054,0.655-0.128,1.311-0.175,1.972c-1.39,1.875-2.774,3.756-4.151,5.637
		c-0.007,0,0.034,0.036,0.034,0.036C92.391,146.023,93.828,143.48,95.246,140.938z"/>
	<path fill="#54214E" d="M26.176,166.071c0.141,0.655,0.316,1.529,0.531,2.646c-0.719-0.777-1.202-1.541-1.921-2.008
		c-0.772-0.522-1.773-0.765-2.546-1.383C23.529,165.567,24.826,165.81,26.176,166.071z"/>
</g>
</svg>
