<?xml version="1.0" encoding="utf-8"?>
<!-- Generator: Adobe Illustrator 24.3.0, SVG Export Plug-In . SVG Version: 6.00 Build 0)  -->
<svg version="1.1" id="Layer_3" xmlns="http://www.w3.org/2000/svg" xmlns:xlink="http://www.w3.org/1999/xlink" x="0px" y="0px"
	 viewBox="0 0 210.567 210.569" enable-background="new 0 0 210.567 210.569" xml:space="preserve">
<g>
	<path fill="#F21C73" d="M98.636,166.275c4.988-5.608,2.546-15.415-6.199-19.196c-8.785-3.802-19.352-1.057-23.9-1.407
		c-5.323-0.413-8.037-3.946-7.335-7.96c0.556-3.18,2.669-10.27,3.146-13.68c0.547-3.951-2.181-6.005-1.795-8.936
		c0.244-1.835,1.926-2.835,3.931-3.305c-2.062-1.02-3.409-2.524-2.845-5.107c0.789-3.55,5.144-7.341,5.663-10.657
		c0.875-5.585-4.911-8.698-3.716-12.984c1.249-4.451,13.091-5.05,22.131-10.009c9.467-5.182,4.772-21.369,17.076-34.747
		c-5.989,13.104-4.863,28.717,3.522,47.588c3.998,8.962,13.5,23.854,15.856,35.507C127.575,138.12,121.416,158.43,98.636,166.275z"
		/>
	<path fill="#F21C73" d="M138.621,172.54c37.168-65.29-38.915-92.517-22.607-139.873c1.125,19.418,25.669,38.686,40.076,61.012
		C176.854,125.845,169.849,154.242,138.621,172.54z"/>
	<path fill="#F21C73" d="M209.283,121.574c-5.348,34.131-26.538,61.858-54.907,76.829c29.518-23.605,41.341-56.794,39.251-88.038
		c0.002-0.014,0.002-0.014,0.004-0.028C192.684,96,188.798,82.06,182.36,69.666c-12.9-24.806-35.861-43.608-61.174-50.087
		c-15.583-3.981-32.068-3.311-47.628,3.501c27.249-14.405,61.682-17.288,94.458-1.072c1.619,0.791,3.214,1.636,4.817,2.527
		l0.028,0.004C200.198,47.484,215.21,83.744,209.283,121.574z"/>
	<path fill="#F21C73" d="M154.376,198.403c-0.016,0.012-0.016,0.012-0.033,0.024c-19.36,10.21-42.063,14.509-65.365,10.858
		c-10.744-1.683-20.847-4.951-30.14-9.5c53.111,20.172,100.153-11.652,121.984-49.865c7.461-13.048,11.988-26.831,12.805-39.555
		C195.717,141.609,183.894,174.798,154.376,198.403z"/>
	<path fill="#F21C73" d="M172.834,24.535c-34.2-18.995-70.696-16.566-99.276-1.455c-11.717,6.195-22.113,14.528-30.469,24.386
		c-29.189,34.476-33.593,87.516-1.581,118.526C19.696,149.68-3.018,120.039,1.149,89.92c0.035-0.314,0.083-0.626,0.132-0.938
		c1.446-9.227,4.052-17.982,7.64-26.148C27.674,20.175,73.364-6.269,121.57,1.284C141.172,4.356,158.665,12.644,172.834,24.535z"/>
	<path fill="#F21C73" d="M92.574,196.672c-23.509,4.688-56.69-7.891-72.357-29.38C4.523,145.757-3.054,118.305,1.144,89.916
		c-4.161,30.119,18.55,59.759,40.366,76.081c6.823,5.101,13.549,8.904,19.349,11.012c28.773,10.464,62.354,7.896,73.669-26.308
		C132.766,178.28,113.521,192.491,92.574,196.672z"/>
</g>
<g>
	<path fill="#CC1550" d="M98.636,166.275c17.237-13.734,16.08-37.37,6.769-61.442c-8.923-23.07-13.161-51.625-0.612-66.547
		c-5.989,13.104-4.863,28.717,3.522,47.588c3.998,8.962,13.5,23.854,15.856,35.507C127.575,138.12,121.416,158.43,98.636,166.275z"
		/>
	<path fill="#CC1550" d="M138.621,172.54c37.168-65.29-38.915-92.517-22.607-139.873C107.301,67.882,197.896,120.749,138.621,172.54
		z"/>
	<path fill="#CC1550" d="M168.016,22.009c-10.973-4.667-29.433-6.688-46.83-2.429c-15.583-3.981-32.068-3.311-47.628,3.501
		C100.807,8.675,135.24,5.793,168.016,22.009z"/>
	<path fill="#CC1550" d="M154.376,198.403c9.849-8.085,21.343-27.776,26.446-48.483c7.461-13.048,11.988-26.831,12.805-39.555
		C195.717,141.609,183.894,174.798,154.376,198.403z"/>
	<path fill="#CC1550" d="M41.508,165.993C19.696,149.68-3.018,120.039,1.149,89.92c0.035-0.314,0.083-0.626,0.132-0.938
		c1.446-9.227,4.052-17.982,7.64-26.148C5.19,112.787,21.689,150.311,41.508,165.993z"/>
</g>
</svg>
