<?xml version="1.0" encoding="utf-8"?>
<!-- Generator: Adobe Illustrator 24.3.0, SVG Export Plug-In . SVG Version: 6.00 Build 0)  -->
<svg version="1.1" id="Layer_1" xmlns="http://www.w3.org/2000/svg" xmlns:xlink="http://www.w3.org/1999/xlink" x="0px" y="0px"
	 viewBox="0 0 346.693 327.859" enable-background="new 0 0 346.693 327.859" xml:space="preserve">
<g>
	<g>
		<path fill="#09713A" d="M346.412,152.028c-0.007,4.789,0.009,9.578-0.009,14.367c-0.081,20.702-0.085,20.702-20.753,20.695
			c-20.261-0.007-20.018-0.026-20.407-21.209c-0.878-47.773,7.344-32.956-32.267-60.086c-28.838-19.751-58.318-38.566-87.122-58.364
			c-8.635-5.935-15.33-6.773-24.438-0.532c-35.943,24.629-72.274,48.701-108.763,72.518c-8.1,5.287-12.106,11.305-11.579,21.099
			c0.59,10.981-0.161,22.028,0.149,33.033c0.273,9.705-3.817,13.395-13.649,13.698c-27.565,0.849-27.558,1.199-27.573-27.002
			c-0.004-8.62,0.126-17.241,0.006-25.86c-0.27-19.281,7.519-33.902,23.817-44.601c39.226-25.751,78.426-51.558,117.111-78.109
			c21.582-14.812,42.058-16.107,63.645-0.575c12.811,9.217,26.613,17.051,39.506,26.162c9.524,6.73,12.673,5.405,12.727-6.623
			c0.092-20.45,3.162-23.443,20.03-23.644c17.712-0.211,20.695,2.742,20.96,20.773c0.035,2.394,0.33,4.839-0.035,7.176
			c-4.075,26.077,2.946,45.282,28.566,58.119c19.456,9.748,21.202,30.366,20.107,50.344
			C346.284,146.274,346.419,149.155,346.412,152.028z"/>
	</g>
</g>
<g>
	<path d="M261.48,327.744c-13.406,0.004-26.816-0.191-40.217,0.07c-9.623,0.187-13.722-2.823-12.468-13.583
		c3.168-27.194,2.708-27.247,30.042-27.252c14.364-0.003,28.728,0.02,43.092-0.018c23.39-0.063,23.505-0.179,23.561-22.911
		c0.042-16.758,0.584-33.537-0.086-50.267c-0.696-17.39,10.944-15.629,22.162-15.98c11.307-0.354,19.665,0.823,19.099,15.763
		c-0.851,22.471,0.099,45.004-0.299,67.5c-0.484,27.298-18.949,45.837-46.105,46.611C287.344,328.045,274.408,327.74,261.48,327.744
		z"/>
	<path d="M85.212,327.744c13.406,0.004,26.816-0.191,40.217,0.07c9.623,0.187,13.722-2.823,12.468-13.583
		c-3.168-27.194-2.708-27.247-30.042-27.252c-14.364-0.003-28.728,0.02-43.092-0.018c-23.39-0.063-23.505-0.179-23.561-22.911
		c-0.042-16.758-0.584-33.537,0.086-50.267c0.696-17.39-10.944-15.629-22.162-15.98c-11.307-0.354-19.665,0.823-19.099,15.763
		c0.851,22.471-0.099,45.004,0.299,67.5c0.484,27.298,18.949,45.837,46.105,46.611C59.348,328.045,72.285,327.74,85.212,327.744z"/>
</g>
<g>
	<g>
		<path fill="#461B0D" d="M89.723,147.923c0-16.861,0-32.121,0-48.953c20.909,0,41.552-0.367,62.164,0.269
			c4.889,0.151,9.531,4.7,14.541,5.392c8.361,1.155,15.781-2.527,23.784-5.202c14.466-4.836,30.282-3.746,43.123,7.771
			c18.029,16.17,25.395,36.397,23.769,60.284c-0.756,0-1.742,0.221-1.884-0.031c-13.112-23.379-35.443-27.989-58.083-23.069
			c-11.53,2.506-22.691,6.471-34.637,5.714c-3.346-0.212-7.391-2.358-9.604-4.922c-5.54-6.418-12.849-9.199-18.75-3.969
			c-9.158,8.116-19.25,6.577-29.52,6.706C99.933,147.972,95.24,147.923,89.723,147.923z M94.157,118.472c14.517,0,28.476,0,43.402,0
			c-0.213-4.172-0.388-7.604-0.548-10.752c-15.015,0-28.752,0-42.854,0C94.157,111.584,94.157,114.778,94.157,118.472z"/>
	</g>
</g>
<g>
	<g>
		<path fill="#E2B28F" d="M155.683,158.524c10.748,0,20.23,0,31.166,0c4.544,55.106,9.085,110.186,13.689,166.021
			c-18.197,0-35.377,0-54.056,0C149.543,269.311,152.584,214.451,155.683,158.524z M161.591,209.765
			c-0.587,0.007-1.175,0.013-1.762,0.02c-2.151,34.329-4.302,68.659-6.452,102.984c5.515,0,9.715,0,14.819,0
			C165.96,277.912,163.775,243.838,161.591,209.765z"/>
	</g>
</g>
</svg>
