<?xml version="1.0" encoding="utf-8"?>
<!-- Generator: Adobe Illustrator 24.3.0, SVG Export Plug-In . SVG Version: 6.00 Build 0)  -->
<svg version="1.1" id="Layer_1" xmlns="http://www.w3.org/2000/svg" xmlns:xlink="http://www.w3.org/1999/xlink" x="0px" y="0px"
	 viewBox="0 0 310.876 228.31" enable-background="new 0 0 310.876 228.31" xml:space="preserve">
<g>
	<path fill="#AEBE38" d="M43.899,90.339c-2.915,0.271-5.036,1.381-6.567,2.26c-2.393-0.375-5.724,0.411-7.585,0.871
		c-10.966,2.488-18.215,12.715-20.702,22.03c-2.875,9.637,3.748,21.098,6.272,22.348c1.463,1.611,6.642,3.244,7.368,2.926
		c-0.099-0.05-0.206-0.101-0.315-0.156c-0.354-1.341-0.128-2.524,0.131-4.347c0.456-1.638,0.923-3.32,3.29-6.404
		c4.217-5.503,10.478-9.264,14.462-14.676c6.691-10.209,0.43-19.098-0.231-20.075c-2.283,1.276-9.556,4.112-14.031,11.858
		c-5.265,9.112-7.623,23.225-7.623,23.225s1.021-12.351,4.873-21.139c3.851-8.787,11.403-12.694,13.859-14.122
		c0.16-0.096,0.605-0.386,1.252-0.767l0.007,0.004c0,0,9.078-3.446,16.369-0.893L54.6,90.091
		C54.6,90.091,49.76,89.151,43.899,90.339z"/>
	<path fill="#AEBE38" d="M43.367,84.535c3.312,1.345,10.723,4.151,14.813,4.151l1.578-3.045c0.4-0.194,0.64-0.441,0.679-0.75
		c-0.398,0.19-6.245-0.185-10.246-1.303c-4.75-1.322-9.193-3.554-10.334-4.148c-4.051-2.093-7.812-4.541-11.275-7.36
		c-5.081-4.094-9.475-8.979-13.331-14.528c0,0,0.511,0.454,1.355,1.275c0.427,0.409,0.939,0.903,1.51,1.483
		c0.574,0.583,1.22,1.234,1.951,1.918c0.733,0.685,1.516,1.434,2.32,2.241c0.813,0.797,1.745,1.566,2.637,2.425
		c0.461,0.415,0.905,0.867,1.397,1.272c0.492,0.404,0.985,0.821,1.473,1.246c0.494,0.424,0.989,0.852,1.488,1.28
		c0.514,0.404,1.032,0.816,1.547,1.219c0.516,0.41,1.011,0.85,1.542,1.231c0.532,0.382,1.06,0.763,1.581,1.146
		c1.036,0.784,2.111,1.452,3.128,2.151c0.512,0.348,1.048,0.622,1.547,0.948c0.505,0.309,0.991,0.631,1.494,0.89
		c0.498,0.269,0.981,0.533,1.445,0.788c0.467,0.254,0.935,0.469,1.376,0.693c0.442,0.231,0.875,0.418,1.288,0.595
		c0.414,0.182,0.8,0.377,1.175,0.521c0.618,0.235,1.154,0.446,1.638,0.614c0.943-17.721,6.725-35.291-20.937-40.957
		c-8.599-1.763-18.16-8.048-23.353-17.451C-5.26,65.476,2.644,93.241,43.367,84.535z"/>
	<path fill="#AEBE38" d="M266.977,73.554c2.916-0.269,5.038-1.38,6.568-2.26c2.391,0.376,5.724-0.412,7.583-0.87
		c10.968-2.487,18.216-12.715,20.704-22.031c2.875-9.637-3.747-21.097-6.273-22.346c-1.46-1.612-6.64-3.245-7.368-2.927
		c0.1,0.05,0.205,0.101,0.318,0.156c0.351,1.34,0.128,2.525-0.133,4.345c-0.454,1.638-0.923,3.321-3.29,6.404
		c-4.217,5.505-10.478,9.264-14.459,14.677c-6.692,10.208-0.43,19.098,0.229,20.076c2.285-1.279,9.557-4.113,14.032-11.86
		c5.263-9.112,7.622-23.225,7.622-23.225s-1.02,12.351-4.872,21.137c-3.851,8.789-11.403,12.698-13.859,14.124
		c-0.161,0.096-0.602,0.384-1.254,0.765l-0.004-0.002c0,0-9.079,3.446-16.371,0.892l0.128,3.193
		C256.278,73.803,261.117,74.741,266.977,73.554z"/>
	<path fill="#AEBE38" d="M267.511,79.358c-3.314-1.342-10.725-4.151-14.814-4.151l-1.58,3.045c-0.398,0.195-0.639,0.442-0.677,0.751
		c0.398-0.189,6.247,0.186,10.247,1.302c4.75,1.323,9.192,3.553,10.331,4.149c4.051,2.091,7.813,4.54,11.275,7.359
		c5.082,4.095,9.475,8.98,13.331,14.528c0,0-0.509-0.455-1.354-1.275c-0.428-0.409-0.94-0.904-1.51-1.484
		c-0.573-0.584-1.221-1.235-1.951-1.918c-0.731-0.684-1.516-1.434-2.321-2.24c-0.811-0.797-1.745-1.569-2.636-2.425
		c-0.461-0.416-0.903-0.869-1.397-1.272c-0.491-0.404-0.984-0.822-1.473-1.246c-0.493-0.425-0.99-0.854-1.488-1.28
		c-0.513-0.404-1.03-0.816-1.547-1.22c-0.517-0.409-1.013-0.848-1.543-1.233c-0.531-0.382-1.059-0.762-1.582-1.144
		c-1.034-0.784-2.11-1.452-3.126-2.152c-0.513-0.347-1.05-0.622-1.548-0.946c-0.505-0.309-0.991-0.632-1.494-0.89
		c-0.496-0.268-0.98-0.534-1.445-0.789c-0.467-0.254-0.933-0.468-1.374-0.692c-0.442-0.229-0.875-0.42-1.289-0.596
		c-0.412-0.18-0.801-0.377-1.176-0.519c-0.618-0.237-1.154-0.446-1.638-0.615c-0.941,17.721-6.725,35.29,20.938,40.956
		c8.6,1.764,18.16,8.048,23.353,17.451C316.137,98.419,308.233,70.654,267.511,79.358z"/>
</g>
<g>
	<path fill="#E01F26" d="M266.159,118.37v0.72c0,2.18-3.54,3.95-7.9,3.95H52.619c-4.36,0-7.9-1.77-7.9-3.95v-0.72
		c0-2.19,3.54-3.95,7.9-3.95h13.37c0-22.08,7.99-42.29,21.24-57.89c5.55-6.54,12.02-12.28,19.22-16.99
		c10.77-7.08,23.17-11.89,36.5-13.75c-0.04-0.55-0.07-1.1-0.07-1.66c0-9.11,6.32-16.49,14.13-16.49c7.79,0,14.1,7.38,14.1,16.49
		c0,0.72-0.03,1.45-0.11,2.15c8.6,1.51,16.78,4.25,24.34,8.04c8.17,4.07,15.62,9.37,22.13,15.64c0.46,0.44,0.91,0.88,1.35,1.33
		c1.41,1.41,2.77,2.87,4.09,4.38c0.04,0.05,0.09,0.1,0.13,0.16c0.26,0.3,0.52,0.59,0.76,0.89c13.16,15.58,21.09,35.71,21.09,57.7
		h13.37C262.619,114.42,266.159,116.18,266.159,118.37z"/>
	<path fill="#E01F26" d="M300.439,153.19c0,3.7-3,6.7-6.69,6.7h-14.59c-9.8,38.81-61.45,68.42-123.72,68.42
		s-113.92-29.61-123.72-68.42h-14.58c-3.7,0-6.7-3-6.7-6.7s3-6.71,6.7-6.71h276.61C297.439,146.48,300.439,149.49,300.439,153.19z"
		/>
	<path fill="#E01F26" d="M262.369,14.55l-44.9,35.41c-6.51-6.27-13.96-11.57-22.13-15.64C210.089,25.37,252.209,0,252.209,0
		l0.25,0.18l0.08,0.29l-45.3,35.33c0,0-0.71,0.57-0.21,1.27c0.49,0.71,1.25,0.22,1.25,0.22l48.83-30.25l0.27,0.2l0.08,0.31
		L212.299,43c0,0-0.73,0.56-0.26,1.23c0.46,0.67,1.23,0.15,1.23,0.15l48.74-30.33l0.28,0.18L262.369,14.55z"/>
	<path fill="#E01F26" d="M110.539,123.04c-10.75,8.64-20.82,16.82-28.87,23.44h-28.43c3.17-3.09,9.28-6.64,9.68-6.87
		c-0.19,0.05-1.87,0.58-6,2.95c-1.7,0.97-3.45,2.28-5.06,3.92h-2.76c1.82-2.18,3.91-3.88,5.94-5.05
		c5.92-3.4,17.36-10.13,31.13-18.39H110.539z"/>
	<path fill="#E01F26" d="M267.309,21.57c0,0-26.9,21.76-43.51,35.15c-0.24-0.3-0.5-0.59-0.76-0.89c0.81-0.67,1.64-1.36,2.5-2.06
		c-0.94,0.68-1.82,1.31-2.63,1.9c-1.32-1.51-2.68-2.97-4.09-4.38l48.16-30.2l0.24,0.18L267.309,21.57z"/>
	<path fill="#E01F26" d="M250.009,138.8c-4.12-2.37-5.81-2.9-6-2.95c0.43,0.25,7.32,4.26,10.26,7.46c0.91,0.93,1.78,1.94,2.63,3.17
		h-27.42c-8.3-6.68-18.99-15.04-30.02-23.44h28.12c11.51,7.19,20.3,12.53,24.51,14.95c3,1.72,6.12,4.6,8.35,8.49h-2.36
		C255.829,143,252.839,140.42,250.009,138.8z"/>
	<path fill="#E01F26" d="M57.139,5.93c-7.64-6.13-13.36-0.48-7.23,12.13c5.04,10.36,19.66,25.29,37.32,38.47
		c5.55-6.54,12.02-12.28,19.22-16.99C81.999,22.4,61.569,9.49,57.139,5.93z M52.019,18.91c-4.12-7.76-4.05-12.57-1.42-14.15
		c-1.8,2.32-1.28,5.69-0.14,9.08c1.51,4.5,4.15,8.86,4.31,9.13C54.639,22.86,53.589,21.85,52.019,18.91z"/>
</g>
</svg>
