<?xml version="1.0" encoding="utf-8"?>
<!-- Generator: Adobe Illustrator 24.3.0, SVG Export Plug-In . SVG Version: 6.00 Build 0)  -->
<svg version="1.1" id="Layer_1" xmlns="http://www.w3.org/2000/svg" xmlns:xlink="http://www.w3.org/1999/xlink" x="0px" y="0px"
	 viewBox="0 0 914.754 340.691" enable-background="new 0 0 914.754 340.691" xml:space="preserve">
<g>
	<path fill="#285D80" d="M0,76.164c305.66,52.758,610.207,105.324,914.754,157.89c-0.053,0.379-0.106,0.759-0.159,1.138
		c-11.407-1.551-22.816-3.09-34.221-4.655c-71.044-9.749-142.063-19.674-213.138-29.211c-73.706-9.89-147.419-19.749-221.215-28.978
		c-58.47-7.312-117.023-14.062-175.628-20.272c-35.775-3.791-71.714-6.154-107.593-8.985c-5.511-0.435-11.113-0.137-16.652,0.177
		c-8.943,0.508-12.15,3.961-12.366,12.917c-0.338,13.987,6.045,25.988,12.762,37.609c18.293,31.65,41.759,59.663,66.602,86.604
		c1.871,2.029,5.808,3.161,8.802,3.193c92.124,0.976,184.249,1.759,276.375,2.578c109.287,0.972,218.574,1.983,327.862,2.898
		c22.474,0.188,44.952,0.027,67.428,0.027c0.007,0.596,0.014,1.192,0.021,1.788c-23.785,1.656-47.568,3.328-71.354,4.965
		c-52.542,3.616-105.082,7.25-157.628,10.81c-44.846,3.038-89.702,5.947-134.549,8.975c-78.367,5.291-156.732,10.613-235.095,15.955
		c-43.403,2.959-86.803,5.954-130.197,9.03c-4.385,0.311-7.34-0.212-9.927-4.558C104.028,250.632,52.954,165.327,1.932,79.992
		C1.459,79.201,1.097,78.348,0,76.164z"/>
</g>
<g>
	<path fill="#4BB7BB" d="M246.797,16.497c11.815-1.131,23.203-2.261,34.599-3.304c48.533-4.441,97.06-8.946,145.616-13.123
		c4.162-0.358,8.921,0.68,12.723,2.495c53.248,25.416,106.379,51.076,159.529,76.696c1.87,0.902,3.646,1.999,5.108,3.97
		c-28.697-8.835-57.395-17.665-86.09-26.508c-28.809-8.878-57.613-17.77-87.291-26.924c-2.055,28.69-4.057,56.627-6.088,84.978
		c58.602,13.087,116.328,25.979,174.054,38.871c-0.043,0.382-0.086,0.764-0.129,1.145c-8.64-0.507-17.288-0.918-25.92-1.539
		c-44.878-3.228-89.8-5.982-134.602-10.056c-15.977-1.453-31.694-5.988-47.467-9.405c-29.51-6.393-58.95-13.112-88.467-19.472
		c-18.499-3.986-37.077-7.605-55.64-11.288c-3.273-0.649-5.615-1.326-5.31-5.628C243.32,70.608,245.008,43.796,246.797,16.497z"/>
	<path fill="#4BB7BB" d="M631.251,117.882c27.29-2.571,54.017-5.09,80.744-7.604c0.933-0.088,1.908,0.017,2.799-0.215
		c18.381-4.775,34.487,0.617,50.746,9.313c22.478,12.022,45.856,22.36,68.837,33.444c0.965,0.466,1.812,1.178,2.293,2.81
		c-32.108-9.869-64.217-19.737-97.381-29.93c-1.102,15.972-2.301,31.455-2.996,46.96c-0.057,1.261,3.154,3.446,5.145,3.905
		c28.727,6.614,57.505,13.001,86.268,19.457c2.487,0.558,4.949,1.223,7.762,1.923c-24.825,4.496-169.721-16.957-207.745-30.759
		C628.874,151.1,630.038,134.84,631.251,117.882z"/>
	<path fill="#4BB7BB" d="M188.647,208.424c-12.573-0.207-22.748-10.58-22.562-22.998c0.195-12.988,10.506-22.745,23.724-22.447
		c12.611,0.284,22.462,10.645,22.166,23.313C211.68,198.918,201.438,208.635,188.647,208.424z"/>
</g>
<g>
	<path d="M464.322,231.778c-1.456,3.784-2.655,9.156-5.398,13.569c-6.157,9.908-18.468,9.127-23.612-1.307
		c-4.301-8.723-4.157-17.698,0.369-26.351c2.995-5.726,7.476-9.981,14.443-9.16c6.856,0.808,10.5,5.762,12.313,11.987
		C463.342,223.622,463.541,226.933,464.322,231.778z"/>
	<path d="M374.29,225.714c-1.97,5.121-3.593,12.39-7.304,18.361c-8.331,13.407-24.99,12.351-31.952-1.768
		c-5.82-11.804-5.625-23.949,0.5-35.658c4.053-7.749,10.116-13.506,19.544-12.395c9.277,1.093,14.209,7.797,16.662,16.22
		C372.963,214.678,373.234,219.159,374.29,225.714z"/>
	<path d="M540.747,236.785c0.003,10.517-6.986,19.732-14.449,19.05c-7.319-0.669-12.498-10.041-11.326-20.497
		c1.087-9.699,7.242-17.063,13.908-16.638C535.821,219.142,540.744,226.644,540.747,236.785z"/>
	<path d="M607.352,242.804c-0.05,0.465-0.119,0.928-0.152,1.395c-0.633,9.021-5.171,15.287-10.82,14.936
		c-5.954-0.37-10.412-8.791-9.206-17.401c0.065-0.462,0.161-0.921,0.258-1.378c1.521-7.185,6.211-12.118,11.072-11.65
		C603.675,229.204,607.524,235.337,607.352,242.804z"/>
	<path d="M661.981,247.774c-0.043,0.394-0.101,0.786-0.129,1.181c-0.538,7.64-4.396,12.946-9.199,12.649
		c-5.062-0.313-8.852-7.444-7.827-14.736c0.055-0.392,0.137-0.78,0.219-1.167c1.293-6.085,5.281-10.262,9.413-9.866
		C658.856,236.256,662.128,241.45,661.981,247.774z"/>
	<path d="M711.017,252.067c-0.253,8.123-3.723,13.128-8.279,12.777c-4.418-0.34-7.191-5.953-6.295-13.097
		c0.229-1.822,0.478-4.068,1.618-5.253c1.91-1.985,4.778-4.768,6.81-4.45c2.191,0.343,4.154,3.691,5.681,6.071
		C711.334,249.335,710.95,251.302,711.017,252.067z"/>
	<path d="M751.546,255.726c-0.206,6.606-3.028,10.677-6.734,10.391c-3.593-0.277-5.849-4.841-5.12-10.651
		c0.186-1.482,0.388-3.309,1.316-4.272c1.554-1.614,3.886-3.878,5.538-3.619c1.782,0.279,3.378,3.002,4.621,4.937
		C751.803,253.504,751.491,255.104,751.546,255.726z"/>
	<rect x="546.006" y="-0.015" transform="matrix(0.0244 -0.9997 0.9997 0.0244 260.9084 815.9382)" width="5" height="548.611"/>
	<path d="M784.422,259.453c-0.167,5.356-2.455,8.656-5.459,8.424c-2.913-0.224-4.742-3.925-4.151-8.635
		c0.151-1.201,0.315-2.682,1.067-3.464c1.259-1.309,3.151-3.144,4.49-2.934c1.445,0.226,2.739,2.434,3.746,4.003
		C784.631,257.652,784.378,258.949,784.422,259.453z"/>
</g>
</svg>
