<?xml version="1.0" encoding="utf-8"?>
<!-- Generator: Adobe Illustrator 24.3.0, SVG Export Plug-In . SVG Version: 6.00 Build 0)  -->
<svg version="1.1" id="Layer_2_1_" xmlns="http://www.w3.org/2000/svg" xmlns:xlink="http://www.w3.org/1999/xlink" x="0px" y="0px"
	 viewBox="0 0 267.842 221.235" enable-background="new 0 0 267.842 221.235" xml:space="preserve">
<g>
	<path fill-rule="evenodd" clip-rule="evenodd" fill="#FE5955" d="M226.58,90.748c0-21.01-10.136-23.231-26.691-26.691h-0.244
		c-0.994-1.978-2.962-3.461-5.446-3.461c-3.706,0-6.422,2.72-6.422,6.18c0.009,3.215,2.716,5.69,6.422,5.69
		c1.243,0,2.724-0.497,3.719-1.248c16.304,3.461,20.758,4.454,20.758,19.529c0,11.858-6.189,27.926-15.33,39.541
		c-1.733,0-3.206,0.741-4.2,1.972c-4.94,4.949-12.354,11.125-21.495,11.125c-8.897,0-16.557-6.176-21.255-11.125
		c-0.992-1.23-2.726-1.727-4.199-1.972c-9.149-11.615-15.326-27.682-15.326-39.541c0-15.075,4.208-16.068,20.514-19.529
		c1.243,0.751,2.472,1.248,3.956,1.248c3.456,0,6.408-2.475,6.408-5.69c0-3.46-2.952-6.18-6.408-6.18
		c-2.469,0-4.699,1.483-5.691,3.461c-16.8,3.46-26.936,5.681-26.936,26.691c0,13.592,6.676,31.387,17.297,44.483
		c-0.244,1.237,0.252,2.961,1.245,4.201c8.149,8.65,16.802,13.593,25.945,14.821l-0.248,26.445
		c0,18.291-15.822,33.122-35.341,33.122c-19.527,0-35.579-14.831-35.579-33.122v-23.231c11.364-1.725,20.014-10.866,20.014-21.993
		c0-12.11-10.874-22.236-23.98-22.236c-13.087,0-23.961,10.127-23.961,22.236c0,11.126,8.65,20.267,20.014,21.993v23.231
		c0,22.492,19.521,40.537,43.491,40.537s43.496-18.038,43.496-40.537v-26.445h0.49c9.393-1.227,18.29-6.17,26.443-14.821
		c1.243-1.241,1.731-2.965,1.482-4.446C220.15,122.135,226.58,104.34,226.58,90.748z M82.254,135.475
		c0-8.147,6.918-14.829,15.814-14.823c8.653,0,15.826,6.675,15.826,14.823c0,8.408-7.173,15.076-15.826,15.076
		C89.172,150.551,82.254,143.883,82.254,135.475z"/>
</g>
<g>
	<path fill="#1FD0CE" d="M69.498,172.362c-11.16-6.287-21.817-13.621-31.548-22.232c-4.887-4.283-9.431-8.986-13.681-13.989
		c-4.23-5.017-8.126-10.384-11.49-16.123l-2.388-4.385l-2.14-4.444c-1.352-3.066-2.651-6.348-3.669-9.504
		C2.493,95.279,1.065,88.629,0.384,81.85C-0.892,68.324,0.931,54.144,6.87,41.27l2.412-4.732l2.802-4.537l0.177-0.283l0.332-0.453
		l0.353-0.484l0.707-0.968l1.414-1.935c1.214-1.414,2.441-2.881,3.689-4.228c4.903-5.174,10.574-9.558,16.701-13.086
		c6.125-3.544,12.741-6.163,19.566-7.948c6.83-1.766,13.898-2.69,21.005-2.613c1.776,0.029,3.553,0.157,5.33,0.24L86.4,0.808
		c1.809,0.311,3.683,0.592,5.438,0.961c1.71,0.414,3.447,0.75,5.134,1.242c6.79,1.853,13.322,4.515,19.449,7.857
		c12.258,6.679,23.05,15.849,31.562,26.851l-12.295-0.9c4.72-4.45,9.909-8.347,15.435-11.656c5.527-3.303,11.395-6.036,17.52-8.014
		c12.212-3.96,25.377-5.531,38.273-3.484c1.617,0.164,3.203,0.587,4.801,0.894c1.603,0.292,3.176,0.728,4.74,1.2l2.35,0.684
		l0.293,0.086l0.147,0.043l0.434,0.15l0.512,0.195l1.025,0.39l2.05,0.781l1.023,0.395l1.164,0.54
		c1.551,0.741,3.149,1.47,4.637,2.254l4.219,2.467c2.712,1.791,5.39,3.63,7.847,5.738c9.968,8.239,17.65,19.106,21.948,31.281
		c2.155,6.077,3.456,12.483,3.733,18.961l-0.044,4.862l-0.008,0.606l-0.027,0.465l-0.025,0.273l-0.103,1.092l-0.228,2.193
		c-0.484,3.368-1.079,6.492-1.971,9.52c-1.731,6.091-4.212,11.887-7.324,17.235c-3.106,5.351-6.69,10.361-10.756,14.898
		c-8.165,9.063-17.684,16.515-27.761,22.74c-10.048,6.287-20.55,11.54-31.114,16.624c9.683-6.614,19.474-13.065,28.561-20.253
		c9.049-7.19,17.541-15.02,24.205-24.089c3.295-4.549,6.284-9.277,8.668-14.254c2.418-4.958,4.176-10.161,5.258-15.419
		c0.578-2.637,0.847-5.309,1.044-7.747l0.065-2.183l0.039-1.096l0.01-0.274l0.005-0.137c0.009-0.185-0.009,0.175-0.009,0.116
		l-0.003-0.061l-0.024-0.49l-0.17-3.909c-0.511-5.201-1.839-10.313-3.853-15.152c-2.023-4.834-4.684-9.427-7.949-13.556
		c-3.288-4.109-7.057-7.816-11.182-11.02c-2.044-1.634-4.26-3.013-6.471-4.372l-3.427-1.834l-3.304-1.468l-0.831-0.369l-1.037-0.358
		l-2.07-0.725l-1.035-0.362l-0.518-0.181l-0.065-0.022c-0.291-0.101,0.324,0.11,0.24,0.084l-0.118-0.03l-0.235-0.06l-1.878-0.484
		c-1.245-0.344-2.497-0.662-3.783-0.849c-1.28-0.201-2.534-0.528-3.836-0.609c-10.303-1.327-20.973,0.127-30.914,3.503
		c-4.992,1.678-9.731,4.053-14.233,6.742c-4.489,2.723-8.683,5.91-12.461,9.503l-6.614,6.29l-5.681-7.191
		c-7.217-9.135-16.21-16.957-26.377-22.54c-5.082-2.782-10.426-5.045-15.935-6.659c-1.371-0.431-2.776-0.71-4.162-1.081
		c-1.365-0.309-2.653-0.512-3.982-0.792l-4.472-0.582c-1.413-0.077-2.822-0.211-4.239-0.258
		c-11.344-0.356-22.915,2.306-32.999,7.643c-5.047,2.656-9.717,5.997-13.762,9.951l-2.748,2.87l-2.832,3.492l-2.427,3.493
		l-2.141,3.701c-2.672,5.056-4.595,10.575-5.776,16.311c-1.193,5.738-1.608,11.685-1.431,17.649
		c0.157,5.969,0.983,11.967,2.429,17.837c0.735,2.99,1.592,5.728,2.597,8.598l1.704,4.334l1.896,4.187
		c2.638,5.545,5.765,10.906,9.326,16.013c3.543,5.125,7.554,9.951,11.76,14.642C49.78,156.07,59.41,164.471,69.498,172.362z"/>
</g>
</svg>
