<?xml version="1.0" encoding="utf-8"?>
<!-- Generator: Adobe Illustrator 24.3.0, SVG Export Plug-In . SVG Version: 6.00 Build 0)  -->
<svg version="1.1" id="Layer_1" xmlns="http://www.w3.org/2000/svg" xmlns:xlink="http://www.w3.org/1999/xlink" x="0px" y="0px"
	 viewBox="0 0 809.836 559.994" enable-background="new 0 0 809.836 559.994" xml:space="preserve">
<g>
	<path fill="#1C2C34" d="M798.947,222.648C681.238,138.561,556.681,66.196,425.955,4.565c-5.861-2.776-13.511-4.38-21.037-4.565
		c-7.526,0.185-15.176,1.789-21.037,4.565C253.155,66.196,128.598,138.561,10.889,222.648c-4.997,3.578-13.017,12.709-10.364,16.102
		c33.376,10.796,66.751,21.592,97.474,31.463c13.141-11.105,23.135-22.024,35.288-29.489
		c90.379-55.277,180.944-81.804,271.631-80.447c90.688-1.357,181.252,25.17,271.631,80.447
		c12.154,7.465,22.148,18.384,35.288,29.489c30.723-9.871,64.098-20.667,97.474-31.463
		C811.964,235.357,803.944,226.226,798.947,222.648z"/>
	<path fill="#1C2C34" d="M132.618,378.996c-3.587-34.356-7.932-64.877-9.207-95.534c-0.343-8.253,6.579-20.267,13.649-24.906
		c176.88-116.054,371.8-103.806,537.258,7.174c5.982,4.013,12.419,13.575,12.108,20.226c-1.431,30.586-5.185,61.056-8.338,94.004
		c-45.784-13.102-88.878-24.809-131.453-38.267c-6.645-2.1-11.747-11.621-16.169-18.644c-60.484-96.053-187.031-98.254-248.992-3.28
		c-10.331,15.835-21.631,23.56-39.485,27.712C206.626,355.705,172.024,367.41,132.618,378.996z"/>
	<polygon fill="#1C2C34" points="786.026,243.917 770.17,460.438 756.87,460.438 771.448,249.63 	"/>
	<circle fill="#1C2C34" cx="404.918" cy="394.42" r="125.407"/>
</g>
<g>
	<path fill="#4D4D4D" d="M774.332,473.793l-22.453-1.258c-0.505-0.028-0.895-0.465-0.867-0.97l3.111-55.515
		c0.028-0.505,0.465-0.895,0.97-0.867l22.453,1.258c0.505,0.028,0.895,0.465,0.867,0.97l-3.111,55.515
		C775.274,473.431,774.838,473.821,774.332,473.793z"/>
	<path fill="#4D4D4D" d="M643.203,436.565l81.372,93.258c0,0-158.172-9.143-197.487,30.172c0,0,23.772-56.686,153.601-49.372
		C680.689,510.622,696.232,522.508,643.203,436.565z"/>
	<path fill="#4D4D4D" d="M166.633,436.565l-81.372,93.258c0,0,158.172-9.143,197.487,30.172c0,0-23.772-56.686-153.601-49.372
		C129.147,510.622,113.604,522.508,166.633,436.565z"/>
</g>
</svg>
