<?xml version="1.0" encoding="utf-8"?>
<!-- Generator: Adobe Illustrator 24.3.0, SVG Export Plug-In . SVG Version: 6.00 Build 0)  -->
<svg version="1.1" id="Layer_7" xmlns="http://www.w3.org/2000/svg" xmlns:xlink="http://www.w3.org/1999/xlink" x="0px" y="0px"
	 viewBox="0 0 208.031 208.031" enable-background="new 0 0 208.031 208.031" xml:space="preserve">
<g>
	<circle fill="#232323" cx="104.016" cy="104.016" r="104.016"/>
</g>
<g>
	<path fill-rule="evenodd" clip-rule="evenodd" fill="#C49A7A" d="M30.572,111.797c4.671,6.164,4.355,10.867,0.768,14.717
		C26.533,122.959,27.02,116.293,30.572,111.797"/>
	<path fill-rule="evenodd" clip-rule="evenodd" fill="#C49A7A" d="M20.684,65.287c7.412,2.214,9.938,6.192,9.321,11.419
		C24.021,76.681,20.476,71.009,20.684,65.287"/>
	<path fill-rule="evenodd" clip-rule="evenodd" fill="#C49A7A" d="M83.483,46.398c4.829,6.045,4.636,10.753,1.14,14.692
		C79.723,57.659,80.046,50.983,83.483,46.398"/>
	<path fill-rule="evenodd" clip-rule="evenodd" fill="#C49A7A" d="M136.818,16.932c1.809,7.523-0.366,11.703-5.202,13.787
		C128.638,25.535,131.766,19.627,136.818,16.932"/>
	<path fill-rule="evenodd" clip-rule="evenodd" fill="#C49A7A" d="M179.87,80.563c-2.324,7.38-6.343,9.838-11.566,9.134
		C168.426,83.721,174.151,80.266,179.87,80.563"/>
	<path fill-rule="evenodd" clip-rule="evenodd" fill="#C49A7A" d="M156.212,133.363c7.147,2.949,9.257,7.165,8.116,12.303
		C158.372,145.034,155.423,139.035,156.212,133.363"/>
	<path fill-rule="evenodd" clip-rule="evenodd" fill="#C49A7A" d="M113.167,67.131c7.599-1.442,11.667,0.936,13.519,5.858
		C121.362,75.72,115.615,72.312,113.167,67.131"/>
	<path fill-rule="evenodd" clip-rule="evenodd" fill="#C49A7A" d="M43.294,121.545c6.86,7.372,7.067,13.504,2.921,18.964
		C39.513,136.531,39.283,127.831,43.294,121.545"/>
	<path fill-rule="evenodd" clip-rule="evenodd" fill="#C49A7A" d="M85.492,75.982c3.078,10.088,0.46,15.958-5.948,19.197
		C75.059,88.363,78.834,80.061,85.492,75.982"/>
	<path fill-rule="evenodd" clip-rule="evenodd" fill="#C49A7A" d="M51.912,30.142c9.457,4.671,11.939,10.602,9.902,17.486
		C53.778,46.222,50.319,37.787,51.912,30.142"/>
	<path fill-rule="evenodd" clip-rule="evenodd" fill="#C49A7A" d="M136.459,42.067c3.079,10.089,0.46,15.958-5.949,19.198
		C126.026,54.445,129.794,46.147,136.459,42.067"/>
	<path fill-rule="evenodd" clip-rule="evenodd" fill="#C49A7A" d="M146.326,86.487c0.423,9.245,4.312,13.328,10.561,14.121
		C158.587,93.654,153.034,87.904,146.326,86.487"/>
	<path fill-rule="evenodd" clip-rule="evenodd" fill="#C49A7A" d="M174.525,111.694c5.166,5.754,5.245,10.465,1.988,14.602
		C171.425,123.152,171.36,116.465,174.525,111.694"/>
	<path fill-rule="evenodd" clip-rule="evenodd" fill="#C49A7A" d="M85.291,25.962c10.319,2.189,14.186,7.319,13.92,14.494
		C91.081,41.084,85.636,33.765,85.291,25.962"/>
	<path fill-rule="evenodd" clip-rule="evenodd" fill="#C49A7A" d="M121.262,19.289c2.891,12.04-0.596,18.728-8.324,22.072
		C108.166,33.055,113.167,23.598,121.262,19.289"/>
	<path fill-rule="evenodd" clip-rule="evenodd" fill="#C49A7A" d="M120.515,80.735c7.922,6.964,8.783,13.335,5.037,19.46
		C118.154,96.754,116.992,87.71,120.515,80.735"/>
	<path fill-rule="evenodd" clip-rule="evenodd" fill="#C49A7A" d="M25.292,144.442c4.95-3.351,8.574-2.913,11.401,0.014
		C33.744,148.026,28.614,147.373,25.292,144.442"/>
	<path fill-rule="evenodd" clip-rule="evenodd" fill="#C49A7A" d="M43.861,72.681c5.546,2.242,7.204,5.489,6.343,9.471
		C45.604,81.697,43.287,77.076,43.861,72.681"/>
	<path fill-rule="evenodd" clip-rule="evenodd" fill="#C49A7A" d="M45.999,101.767c5.461-9.023,11.581-10.985,18.269-8.374
		C62.18,101.282,53.476,104.009,45.999,101.767"/>
	<path fill-rule="evenodd" clip-rule="evenodd" fill="#C49A7A" d="M21.696,122.743c1.744,7.538-0.459,11.696-5.31,13.748
		C13.452,131.282,16.616,125.398,21.696,122.743"/>
	<path fill-rule="evenodd" clip-rule="evenodd" fill="#C49A7A" d="M188.904,140.549c-3.193,7.046-7.484,9.001-12.578,7.681
		C177.165,142.307,183.264,139.566,188.904,140.549"/>
	<path fill-rule="evenodd" clip-rule="evenodd" fill="#C49A7A" d="M169.867,73.722c-7.735-0.018-11.28-3.118-12.17-8.305
		C163.438,63.74,168.447,68.175,169.867,73.722"/>
	<path fill-rule="evenodd" clip-rule="evenodd" fill="#C49A7A" d="M152.238,31.089c5.819,5.392,6.343,10.2,3.401,14.731
		C150.142,43.09,149.453,36.266,152.238,31.089"/>
	<path fill-rule="evenodd" clip-rule="evenodd" fill="#C49A7A" d="M75.97,59.407c-2.884,7.175-7.081,9.321-12.226,8.219
		C64.318,61.67,70.295,58.671,75.97,59.407"/>
	<path fill-rule="evenodd" clip-rule="evenodd" fill="#C49A7A" d="M42.656,57.559c1.47,0,2.669,1.195,2.669,2.673
		c0,1.475-1.199,2.669-2.669,2.669c-1.479,0-2.67-1.195-2.67-2.669C39.986,58.754,41.177,57.559,42.656,57.559"/>
	<path fill-rule="evenodd" clip-rule="evenodd" fill="#C49A7A" d="M77.872,69.556c1.478,0,2.67,1.195,2.67,2.669
		s-1.192,2.669-2.67,2.669c-1.471,0-2.67-1.195-2.67-2.669S76.401,69.556,77.872,69.556"/>
	<path fill-rule="evenodd" clip-rule="evenodd" fill="#C49A7A" d="M119.144,53.813c1.478,0,2.67,1.195,2.67,2.669
		c0,1.475-1.192,2.673-2.67,2.673c-1.47,0-2.669-1.199-2.669-2.673C116.476,55.008,117.674,53.813,119.144,53.813"/>
	<path fill-rule="evenodd" clip-rule="evenodd" fill="#C49A7A" d="M183.788,72.175c1.478,0,2.67,1.195,2.67,2.669
		c0,1.475-1.192,2.669-2.67,2.669c-1.471,0-2.67-1.195-2.67-2.669C181.118,73.37,182.316,72.175,183.788,72.175"/>
	<path fill-rule="evenodd" clip-rule="evenodd" fill="#C49A7A" d="M172.544,48.755c1.478,0,2.677,1.195,2.677,2.669
		c0,1.475-1.199,2.669-2.677,2.669c-1.471,0-2.67-1.195-2.67-2.669C169.874,49.95,171.073,48.755,172.544,48.755"/>
	<path fill-rule="evenodd" clip-rule="evenodd" fill="#C49A7A" d="M190.346,111.288c1.47,0,2.669,1.195,2.669,2.669
		c0,1.478-1.199,2.673-2.669,2.673c-1.471,0-2.67-1.195-2.67-2.673C187.676,112.483,188.875,111.288,190.346,111.288"/>
	<path fill-rule="evenodd" clip-rule="evenodd" fill="#C49A7A" d="M19.106,107.578c1.471,0,2.669,1.199,2.669,2.673
		c0,1.474-1.198,2.669-2.669,2.669c-1.478,0-2.677-1.195-2.677-2.669C16.429,108.777,17.628,107.578,19.106,107.578"/>
	<path fill-rule="evenodd" clip-rule="evenodd" fill="#C49A7A" d="M79.042,33.206c1.478,0,2.676,1.195,2.676,2.669
		s-1.198,2.669-2.676,2.669c-1.472,0-2.67-1.195-2.67-2.669S77.57,33.206,79.042,33.206"/>
	<path fill-rule="evenodd" clip-rule="evenodd" fill="#C49A7A" d="M154.741,76.674c1.478,0,2.67,1.195,2.67,2.669
		s-1.192,2.669-2.67,2.669c-1.478,0-2.669-1.195-2.669-2.669S153.263,76.674,154.741,76.674"/>
	<path fill-rule="evenodd" clip-rule="evenodd" fill="#C49A7A" d="M57.308,105.856c1.478,0,2.67,1.199,2.67,2.673
		c0,1.474-1.192,2.669-2.67,2.669c-1.471,0-2.67-1.195-2.67-2.669C54.638,107.055,55.837,105.856,57.308,105.856"/>
	<path fill-rule="evenodd" clip-rule="evenodd" fill="#C49A7A" d="M147.595,187.669c-13.497,6.993-28.386,10.58-43.584,10.58
		c-15.19,0-30.086-3.588-43.576-10.58l-0.553-0.283v-66.232l44.129-25.483l44.137,25.483v66.232L147.595,187.669z M55.93,156.274
		v28.928l-1.558-0.958c-6.335-3.896-12.198-8.528-17.457-13.787c-3.875-3.878-7.42-8.09-10.577-12.579l-1.127-1.603H55.93z
		 M181.685,157.877c-3.149,4.488-6.694,8.7-10.569,12.579c-5.26,5.259-11.122,9.891-17.457,13.787l-1.558,0.958v-28.928h30.717
		L181.685,157.877z M144.323,31.47l-1.988-3.394l-36.343,21.346V8.48l1.054,0.036c22.151,0.696,43.196,9.051,59.801,23.729
		l0.624,0.553l-29.168,50.514l-10.799-23.226l-3.581,1.65l11.976,25.749l-9.549,16.532l-20.357-11.753V53.982L144.323,31.47z
		 M156.557,59.579l13.862-24.016l0.941,0.947c6.365,6.412,11.803,13.712,16.109,21.655l0.825,1.51L156.557,59.579z M166.222,86.228
		l-3.889-0.631l-4.606,27.769l-7.592,4.384l-20.371-11.764l24.525-42.482l35.92,0.108l0.273,0.599
		c3.631,8.018,6.129,16.51,7.412,25.221l0.1,0.685l-35.855,20.697L166.222,86.228z M28.641,127.3l-2.741,2.823l22.775,22.193h-25.96
		l-0.301-0.495c-8.747-14.699-13.289-31.364-13.289-48.462c0-2.465,0.093-4.93,0.279-7.383l0.129-1.618l46.396,26.786v31.173h-1.615
		L28.641,127.3z M45.999,83.939l-0.423,3.918l23.701,2.547l8.99,15.581l-20.371,11.764l-22.955-13.257l2.427-41.889l-3.932-0.216
		l-2.311,39.902L10.037,90.117l0.1-0.685C13.086,69.387,22.4,50.882,36.671,36.51l0.94-0.947l29.218,50.615L45.999,83.939z
		 M90.3,9.452c3.545-0.513,7.111-0.825,10.684-0.936l1.055-0.036v12.108L87.896,9.8L90.3,9.452z M81.676,61.689l-2.125,3.318
		l22.487,14.415v12.84l-20.357,11.753l-20.04-34.71l12.033-40.577l-3.782-1.112l-10.97,36.989L40.56,32.797l0.632-0.553
		c11.732-10.379,25.853-17.709,41.115-21.282l0.473-0.108l19.259,14.688V74.74L81.676,61.689z M185.969,121.746l-3.501-1.787
		l-7.333,14.3l-21.275-14.128l44.637-25.774l0.129,1.618c0.187,2.454,0.279,4.919,0.279,7.383c0,17.099-4.541,33.764-13.289,48.462
		l-0.301,0.495h-15.024L185.969,121.746z M173.326,137.79l-7.448,14.527h-13.777v-28.619L173.326,137.79z M104.012,4.512
		c-26.305,0-51.296,10.351-69.895,28.949C15.518,52.063,5.172,77.051,5.172,103.359c0,26.305,10.354,51.297,28.945,69.895
		c18.598,18.598,43.59,28.949,69.895,28.949c26.312,0,51.297-10.351,69.895-28.949c18.606-18.598,28.961-43.59,28.961-69.895
		c0-26.305-10.354-51.296-28.961-69.898C155.308,14.862,130.324,4.512,104.012,4.512z"/>
	<rect x="107.671" y="121.793" fill-rule="evenodd" clip-rule="evenodd" fill="#C49A7A" width="19.101" height="19.101"/>
	<rect x="107.671" y="150.436" fill-rule="evenodd" clip-rule="evenodd" fill="#C49A7A" width="19.101" height="19.102"/>
	<rect x="79.027" y="150.436" fill-rule="evenodd" clip-rule="evenodd" fill="#C49A7A" width="19.086" height="19.102"/>
	<rect x="79.012" y="121.793" fill-rule="evenodd" clip-rule="evenodd" fill="#C49A7A" width="19.101" height="19.101"/>
</g>
</svg>
