<?xml version="1.0" encoding="utf-8"?>
<!-- Generator: Adobe Illustrator 24.3.0, SVG Export Plug-In . SVG Version: 6.00 Build 0)  -->
<svg version="1.1" id="Layer_1" xmlns="http://www.w3.org/2000/svg" xmlns:xlink="http://www.w3.org/1999/xlink" x="0px" y="0px"
	 viewBox="0 0 273.98 274" enable-background="new 0 0 273.98 274" xml:space="preserve">
<g>
	<path fill="#050505" d="M0,145.88c2.563,11.701,3.841,23.872,7.911,35.023c18.411,50.443,54.418,80.633,107.269,90.582
		c2.678,0.504,5.352,1.027,8.018,2.193c-3.023,0-6.046,0-9.069,0c-35.938,0-71.876-0.006-107.813,0.013
		C4.21,273.692,2.105,273.892,0,274C0,231.293,0,188.586,0,145.88z"/>
	<path fill="#050505" d="M273.98,274c-29.549-0.108-59.099-0.227-88.648-0.317c-11.543-0.035-23.087-0.006-34.692-0.375
		c25.927-3.277,49.57-12.199,70.071-28.426c30.221-23.92,48.041-54.926,52.093-93.525c0.194-1.847,0.776-3.652,1.177-5.477
		C273.98,188.586,273.98,231.293,273.98,274z"/>
	<path fill="#050505" d="M128.111,0c-9.076,1.733-18.301,2.907-27.202,5.291C46.764,19.791,7.267,66.25,1.27,122.014
		c-0.221,2.057-0.838,4.072-1.27,6.107C0,85.519,0,42.918,0,0C42.703,0,85.407,0,128.111,0z"/>
	<path fill="#050505" d="M273.98,128.12c-1.716-9.069-2.849-18.296-5.243-27.183c-14.661-54.42-61.925-94.402-117.363-99.704
		c-1.857-0.178-3.671-0.812-5.505-1.233c42.704,0,85.407,0,128.111,0C273.98,42.707,273.98,85.414,273.98,128.12z"/>
</g>
<g>
	<path fill="#2D2D2D" d="M85.951,100.025c10.596-5.081,20.334-9.694,30.016-14.421c4.158-2.03,7.751-1.674,10.166,2.444
		c2.513,4.284,0.511,7.536-3.206,9.94c-15.558,10.065-27.879,23.488-39.111,37.969c-7.312,9.427-16.073,15.535-28.5,15.999
		c-9.885,0.369-19.735,1.682-30.903,2.694c0-11.81-0.114-23.209,0.217-34.594c0.027-0.911,3.194-2.586,4.787-2.46
		c12.204,0.967,19.898-5.026,25.599-15.155c4.186-7.437,9.052-14.496,13.715-21.657c7.304-11.217,17.153-17.355,31.089-17.345
		c22.186,0.016,44.382-0.976,66.024,5.407c2.21,0.652,5.1,0.416,6.584,1.779c2.248,2.065,5.132,5.406,4.784,7.77
		c-0.338,2.302-4.24,5.451-6.861,5.75c-4.937,0.564-10.068-0.856-15.135-1.079c-7.151-0.315-14.317-0.281-21.476-0.421
		c-2.067-0.04-4.244,0.233-6.179-0.313C115.075,78.807,93.34,87.574,85.951,100.025z"/>
	<path fill="#2D2D2D" d="M186.952,174.133c-9.31,4.47-18.656,8.869-27.916,13.44c-4.481,2.212-8.639,2.73-11.331-2.254
		c-2.568-4.754,0.763-7.358,4.087-10.353c11.295-10.178,23.421-19.755,33.061-31.363c10.926-13.157,22.24-23.075,40.464-22.615
		c7.719,0.195,15.484-1.406,24.228-2.291c0,12.022,0.154,23.052-0.223,34.064c-0.041,1.187-3.297,3.401-4.838,3.221
		c-13.186-1.54-20.465,5.878-26.381,16.171c-4.26,7.412-8.973,14.578-13.752,21.673c-6.717,9.972-15.557,15.654-28.269,15.808
		c-24.08,0.291-48.094,1.145-71.589-5.794c-4.94-1.459-9.153-3.134-8.021-9.103c1.063-5.609,5.532-5.75,10.325-5.442
		c11.987,0.771,23.997,1.192,35.998,1.747c0.461,0.021,1.009-0.199,1.375-0.019c13.889,6.865,24.051-3.828,35.553-7.784
		c3.483-1.198,6.253-4.47,9.349-6.791C188.365,175.676,187.658,174.904,186.952,174.133z"/>
</g>
<g>
	<path fill="#FEBC12" d="M142.687,166.029c-2.258,2.284-5.256,3.608-8.555,4.314c-5.631,1.205-11.295,1.322-16.961,0.305
		c-2.999-0.538-5.577-1.866-7.293-4.515c-1.213-1.874-1.451-3.899-0.803-6.023c0.511-1.675,1.732-2.593,3.686-2.507
		c1.631,0.072,3.246,0.442,4.875,0.621c2.018,0.221,4.048,0.577,6.062,0.519c2.607-0.076,3.935-1.295,4.43-3.869
		c0.372-1.937,0.65-3.929,0.64-5.895c-0.023-4.324,3.265-6.395,6.504-6.477c4.914-0.125,8.474,2.173,10.681,6.476
		C148.974,154.865,147.765,161.151,142.687,166.029z M127.981,168.459c6.767,1.437,12.665-1.811,15.434-6.896
		C139.061,166.193,133.865,168.186,127.981,168.459z M144.538,151.931c-1.249-4.531-5.179-7.751-9.198-7.374
		C139.555,145.821,142.561,148.251,144.538,151.931z M111.687,166.591c-0.267-0.986-0.696-2.214-0.913-3.478
		c-0.225-1.31,0.217-2.529,1.051-3.675c-1.451,0.812-2.101,2.146-1.857,3.666C110.201,164.554,111.045,165.685,111.687,166.591z"/>
	<path fill="#FEBC12" d="M113.482,121.34c4.512-4.387,9.224-5.716,14.721-4.097c5,1.473,8.429,5.541,8.776,10.611
		c0.161,2.353-0.44,4.482-2.217,6.178c-1.107,1.055-2.412,1.509-3.922,1.548c-2.006,0.052-4.024,0.044-6.011,0.283
		c-3.12,0.375-4.461,1.89-4.635,5.051c-0.065,1.18-0.001,2.378,0.119,3.556c0.188,1.857,0.474,3.704,0.715,5.556
		c0.025,0.196,0.038,0.395,0.036,0.593c-0.045,3.484-2.619,5.275-6.229,4.254c-3.709-1.048-5.575-3.822-6.42-7.35
		c-0.839-3.502-0.719-7.085-0.49-10.648c0.247-3.833,0.916-7.583,2.502-11.123C111.26,123.888,112.425,122.273,113.482,121.34z
		 M110.751,135.366c0.648-5.989,2.99-11.108,7.804-15.122C113.328,122.726,109.586,128.477,110.751,135.366z M134.952,129.185
		c0.543-3.959-3.422-9.228-7.078-9.418C131.57,121.931,133.892,125.074,134.952,129.185z M119.115,152.169
		c-2.525,1.628-4.911,0.807-7.279-0.395C114.222,153.992,117.145,155.03,119.115,152.169z"/>
	<path fill="#FEBC12" d="M145.927,140.348c-1.735,1.781-4.647,2.085-6.423,0.67c-2.002-1.595-2.375-4.561-0.858-6.817
		c1.411-2.098,3.963-3.019,6.061-2.189c2.968,1.175,3.868,5.071,1.776,7.694C146.307,139.927,146.113,140.134,145.927,140.348z"/>
	<path fill="#FEBC12" d="M146.503,125.301c-1.518,1.43-3.175,2.022-5.089,1.639c-2.683-0.537-4.157-3.168-3.345-5.863
		c0.813-2.698,3.899-4.424,6.606-3.671c1.694,0.471,2.818,1.557,3.202,3.284C148.284,122.522,147.712,124.089,146.503,125.301z"/>
	<path fill="#FEBC12" d="M151.467,146.041c-1.334,1.279-3.275,1.323-4.406,0.1c-1.149-1.243-1.006-3.31,0.318-4.596
		c1.344-1.305,3.22-1.363,4.397-0.136C153,142.684,152.865,144.701,151.467,146.041z"/>
	<path fill="#FEBC12" d="M138.322,117.314c-1.357,1.208-3.531,1.192-4.615-0.034c-1.058-1.198-0.913-3.19,0.314-4.297
		c1.477-1.333,3.542-1.337,4.721-0.009C139.824,114.191,139.634,116.145,138.322,117.314z"/>
	<path fill="#FEBC12" d="M149.037,153.153c-1.037-1.061-1.002-2.644,0.082-3.721c1.331-1.323,3.808-1.339,5.093-0.034
		c1.034,1.049,0.991,2.657-0.098,3.723C152.744,154.461,150.332,154.476,149.037,153.153z"/>
	<path fill="#FEBC12" d="M127.113,110.131c1.172-1.099,2.674-1.056,3.754,0.109c1.166,1.258,0.973,3.646-0.397,4.911
		c-1.105,1.02-2.64,1.002-3.637-0.043C125.594,113.809,125.727,111.43,127.113,110.131z"/>
	<path fill="#FEBC12" d="M153.57,160.346c-1.154,1.103-3.221,0.991-4.367-0.237c-1.028-1.102-1.016-2.762,0.028-3.741
		c1.156-1.084,3.234-0.967,4.382,0.247C154.641,157.702,154.622,159.34,153.57,160.346z"/>
	<path fill="#FEBC12" d="M123.563,114.812c-1.043,1.018-2.552,0.977-3.641-0.098c-1.212-1.198-1.215-3.274-0.006-4.435
		c0.934-0.898,2.65-0.815,3.613,0.174C124.719,111.675,124.734,113.668,123.563,114.812z"/>
	<path fill="#FEBC12" d="M150.588,167.004c-1.004,0.973-2.739,0.903-3.752-0.15c-1.04-1.081-1.065-2.71-0.057-3.662
		c1.023-0.966,2.827-0.893,3.851,0.155C151.647,164.387,151.628,165.996,150.588,167.004z"/>
	<path fill="#FEBC12" d="M116.674,116.977c-1.042,1.024-2.463,0.971-3.535-0.133c-1.073-1.104-1.081-2.796-0.018-3.81
		c0.968-0.923,2.625-0.84,3.604,0.182C117.724,114.259,117.701,115.967,116.674,116.977z"/>
	<path fill="#FEBC12" d="M144.538,151.931c-1.977-3.68-4.984-6.11-9.198-7.374C139.359,144.18,143.289,147.4,144.538,151.931z"/>
	<path fill="#FEBC12" d="M110.751,135.366c-1.165-6.889,2.578-12.64,7.804-15.122C113.74,124.258,111.398,129.377,110.751,135.366z"
		/>
	<path fill="#FEBC12" d="M134.952,129.185c-1.06-4.111-3.382-7.253-7.078-9.418C131.53,119.956,135.495,125.225,134.952,129.185z"/>
</g>
</svg>
