<?xml version="1.0" encoding="utf-8"?>
<!-- Generator: Adobe Illustrator 24.3.0, SVG Export Plug-In . SVG Version: 6.00 Build 0)  -->
<svg version="1.1" id="Layer_1" xmlns="http://www.w3.org/2000/svg" xmlns:xlink="http://www.w3.org/1999/xlink" x="0px" y="0px"
	 viewBox="0 0 289.296 250.538" enable-background="new 0 0 289.296 250.538" xml:space="preserve">
<g>
	<linearGradient id="SVGID_1_" gradientUnits="userSpaceOnUse" x1="-12.1858" y1="41.4686" x2="281.4869" y2="287.1414">
		<stop  offset="0" style="stop-color:#F7941D"/>
		<stop  offset="1" style="stop-color:#EE2A7B"/>
	</linearGradient>
	<path fill="url(#SVGID_1_)" d="M195.37,206.049c-4.35,0.82-7.87,4.34-8.7,8.7c-1.48,7.8,5.24,14.52,13.04,13.04
		c4.36-0.83,7.87-4.35,8.7-8.71C209.89,211.279,203.18,204.569,195.37,206.049z"/>
	<linearGradient id="SVGID_2_" gradientUnits="userSpaceOnUse" x1="51.4442" y1="-34.5935" x2="345.1169" y2="211.0792">
		<stop  offset="0" style="stop-color:#F7941D"/>
		<stop  offset="1" style="stop-color:#EE2A7B"/>
	</linearGradient>
	<path fill="url(#SVGID_2_)" d="M233.95,127.109c4.35-0.83,7.86-4.34,8.68-8.69c1.48-7.81-5.25-14.52-13.05-13.03
		c-4.36,0.84-7.87,4.36-8.69,8.72C219.42,121.909,226.15,128.599,233.95,127.109z"/>
	<linearGradient id="SVGID_3_" gradientUnits="userSpaceOnUse" x1="33.9669" y1="-13.7014" x2="327.6396" y2="231.9713">
		<stop  offset="0" style="stop-color:#F7941D"/>
		<stop  offset="1" style="stop-color:#EE2A7B"/>
	</linearGradient>
	<path fill="url(#SVGID_3_)" d="M89.68,23.849c-4.36,0.83-7.87,4.34-8.7,8.7c-1.48,7.8,5.23,14.52,13.04,13.04
		c4.35-0.83,7.87-4.34,8.7-8.7C104.2,29.089,97.48,22.369,89.68,23.849z"/>
	<linearGradient id="SVGID_4_" gradientUnits="userSpaceOnUse" x1="-51.6542" y1="88.6484" x2="242.0186" y2="334.3212">
		<stop  offset="0" style="stop-color:#F7941D"/>
		<stop  offset="1" style="stop-color:#EE2A7B"/>
	</linearGradient>
	<path fill="url(#SVGID_4_)" d="M32.24,153.669c1.48-7.8-5.21-14.52-13.02-13.04c-3.1,0.58-5.78,2.54-7.36,5.19l9.67,16.74
		c0.66-0.01,1.33-0.08,2.02-0.21C27.91,161.529,31.42,158.019,32.24,153.669z"/>
	<linearGradient id="SVGID_5_" gradientUnits="userSpaceOnUse" x1="74.1206" y1="-61.7005" x2="367.7934" y2="183.9722">
		<stop  offset="0" style="stop-color:#F7941D"/>
		<stop  offset="1" style="stop-color:#EE2A7B"/>
	</linearGradient>
	<path fill="url(#SVGID_5_)" d="M258.15,96.979c-1.48,7.8,5.24,14.52,13.04,13.04c2.77-0.53,5.19-2.13,6.8-4.35l-10.13-17.54
		c-0.33,0.04-0.67,0.09-1.01,0.15C262.49,89.109,258.98,92.619,258.15,96.979z"/>
	<linearGradient id="SVGID_6_" gradientUnits="userSpaceOnUse" x1="11.1401" y1="13.5853" x2="304.8128" y2="259.258">
		<stop  offset="0" style="stop-color:#F7941D"/>
		<stop  offset="1" style="stop-color:#EE2A7B"/>
	</linearGradient>
	<path fill="url(#SVGID_6_)" d="M279.63,108.519c-2.05,2.21-4.82,4.03-8.14,5.35c-5.12,2-10.66,5.65-13.49,10.14
		c-10.53,16.71-20.17,34-29.8,51.28c-3.33,6-7.56,8.57-14.48,8.23c-10.04-0.46-20.12-0.1-30.17-0.1v0.02
		c-8.05,0-16.11,0.14-24.14-0.02c-8.08-0.17-15.16-0.26-20.73,8.15c-4.77,7.17-15.47,6.1-21.26-0.17c-5.32-5.74-4.9-15.48,0.86-20.9
		c6.38-5.98,16.24-6.19,21.22,1.23c4.64,6.88,10.28,7.3,17.19,7.23c18.11-0.19,36.22-0.35,54.32,0.06c7.35,0.16,11.54-2.61,15.04-9
		c9.03-16.46,18.73-32.52,28.16-48.73c2.93-5.01,4.96-9.29,1.22-15.6c-4.8-8.03-0.37-17.47,7.94-20.6c0.77-0.29,1.56-0.51,2.35-0.66
		l-48.75-84.43H72.32L0,125.269l9.81,16.99c2.13-2.18,5.04-3.94,8.55-5.19c4.8-1.71,10.01-5.25,12.63-9.45
		c10.65-17.06,20.57-34.57,30.29-52.18c3.15-5.68,6.85-8.3,13.48-8.01c10.39,0.47,20.79,0.13,31.21,0.13
		c7.71,0.02,15.42-0.1,23.13,0.03c8.36,0.19,16,0.72,21.69-8.29c4.1-6.42,15.36-5.27,20.66,0.29c5.58,5.84,5.46,15.39-0.26,20.91
		c-6,5.81-16.86,6.1-21.33-0.97c-4.47-6.96-9.94-7.65-16.95-7.55c-18.43,0.27-36.89,0.32-55.34,0.03c-6.37-0.1-10.51,1.71-13.72,7.6
		c-9.54,17.3-20,34.16-29.32,51.58c-1.94,3.62-1.83,9.39-0.49,13.46c3.21,9.79,0.22,18.39-8.73,21.41
		c-0.51,0.17-1.01,0.31-1.52,0.42l48.53,84.06h144.65l72.33-125.27L279.63,108.519z M175.26,36.639
		c-9.95-1.06-20.09-0.33-30.16-0.33c-7.37,0.02-14.76,0.06-22.15,0c-7.97-0.08-15.37-0.82-20.66,8.2
		c-3.87,6.65-14.89,6.04-20.63,0.68c-5.76-5.35-6.13-15.18-0.79-20.92c5.83-6.24,16.6-7.27,21.32-0.25
		c5.4,8.07,12.2,7.96,20.02,7.89c17.45-0.16,34.9,0.4,52.34-0.23c8.84-0.3,14.14,2.56,18.36,10.49
		c9.16,17.16,18.99,33.97,29.25,50.47c2.49,3.95,7.4,7.36,11.91,8.84c9.63,3.16,15,10.87,12.07,19.68
		c-2.53,7.65-11.13,12.04-18.58,9.49c-8.91-3.01-13.2-12.42-8.41-21.11c2.98-5.38,2.07-9.14-0.66-13.77
		c-10.21-17.33-19.84-35.04-30.57-52.02C185.6,40.059,179.76,37.119,175.26,36.639z M98.98,124.149c0.79-0.78,1.6-1.36,2.51-1.63
		c3.48-1.02,8.03,0.71,11.92,1.89c4.77,1.45,9.24,4.86,13.99,5.16c12.02,0.76,24.12,0.3,36.18,0.22c8.17-0.04,16.35,1.33,23.13-6.34
		c1.77-1.99,10.69-0.57,13.51,2.17c2.32,2.26,2.34,10.85,0.02,12.93c-2.98,2.7-11.63,4-13.73,1.87c-6.74-6.8-14.39-6.04-22.31-6.06
		c-11.37-0.06-22.83-0.68-34.14,0.2c-5.78,0.46-11.25,3.97-17.03,5.5c-3.93,1.04-8.6,2.35-12.08,1.13c-0.86-0.3-1.62-0.88-2.33-1.65
		C94.6,135.219,94.81,128.319,98.98,124.149z M207.41,227.739c-6.32,5.67-16.71,5.72-21.39-1.48c-4.25-6.54-9.39-7.34-16.09-7.26
		c-17.79,0.19-35.6-0.52-53.36,0.19c-10.27,0.43-16.53-2.59-21.42-12.13c-8.86-17.29-18.97-33.98-29.2-50.53
		c-2.05-3.32-6.68-6-10.61-7.04c-9.36-2.38-14.83-9.53-12.65-18.31c2.05-8.25,10.61-13.13,18.76-10.7
		c8.51,2.56,13.81,12.23,9.02,20.05c-4.36,7.14-1.75,11.63,1.57,17.25c9.49,16.21,18.94,32.45,28.04,48.88
		c3.14,5.66,7.03,8.22,13.65,7.9c9.7-0.47,19.45-0.14,29.19-0.11c8.06,0.02,16.11-0.14,24.16,0.06c7.85,0.21,14.58,0.06,19.95-7.99
		c4.74-7.08,15.58-6.01,21.29,0.28C213.59,212.599,213.15,222.599,207.41,227.739z"/>
	<linearGradient id="SVGID_7_" gradientUnits="userSpaceOnUse" x1="45.3035" y1="-27.253" x2="338.9762" y2="218.4197">
		<stop  offset="0" style="stop-color:#F7941D"/>
		<stop  offset="1" style="stop-color:#EE2A7B"/>
	</linearGradient>
	<path fill="url(#SVGID_7_)" d="M162.49,79.809c4.35-0.83,7.86-4.34,8.68-8.7c1.48-7.8-5.25-14.51-13.05-13.02
		c-4.36,0.83-7.87,4.35-8.69,8.72C147.96,74.609,154.69,81.289,162.49,79.809z"/>
	<linearGradient id="SVGID_8_" gradientUnits="userSpaceOnUse" x1="-23.4456" y1="54.9284" x2="270.2272" y2="300.6011">
		<stop  offset="0" style="stop-color:#F7941D"/>
		<stop  offset="1" style="stop-color:#EE2A7B"/>
	</linearGradient>
	<path fill="url(#SVGID_8_)" d="M125.92,170.829c-4.36,0.82-7.88,4.34-8.7,8.7c-1.48,7.8,5.23,14.51,13.04,13.03
		c4.35-0.82,7.87-4.34,8.7-8.7C140.44,176.059,133.72,169.349,125.92,170.829z"/>
	<linearGradient id="SVGID_9_" gradientUnits="userSpaceOnUse" x1="-29.5398" y1="62.2133" x2="264.133" y2="307.886">
		<stop  offset="0" style="stop-color:#F7941D"/>
		<stop  offset="1" style="stop-color:#EE2A7B"/>
	</linearGradient>
	<path fill="url(#SVGID_9_)" d="M54.998,123.526c-4.519,0.85-8.177,4.488-9.038,9.007c-1.544,8.084,5.41,15.049,13.494,13.525
		c4.519-0.85,8.157-4.488,9.017-8.996C70.016,128.978,63.083,122.003,54.998,123.526z"/>
</g>
</svg>
