<?xml version="1.0" encoding="utf-8"?>
<!-- Generator: Adobe Illustrator 24.3.0, SVG Export Plug-In . SVG Version: 6.00 Build 0)  -->
<svg version="1.1" id="Layer_4" xmlns="http://www.w3.org/2000/svg" xmlns:xlink="http://www.w3.org/1999/xlink" x="0px" y="0px"
	 viewBox="0 0 206.122 206.118" enable-background="new 0 0 206.122 206.118" xml:space="preserve">
<g>
	<path fill="#D38200" d="M206.122,78.846c0,24.235,0.001,48.471-0.001,72.706c-0.001,9.27-5.412,14.66-14.712,14.661
		c-22.091,0.002-44.182,0.019-66.272-0.038c-1.64-0.004-2.285,0.245-2.177,2.073c0.18,3.036,0.149,6.095,0.009,9.135
		c-0.077,1.658,0.267,2.211,2.078,2.176c6.715-0.128,13.434-0.009,20.15-0.079c1.82-0.019,3.138,0.56,4.299,1.972
		c5.095,6.205,10.254,12.358,15.407,18.515c1.031,1.233,1.771,2.491,1.009,4.142c-0.793,1.718-2.253,2.007-3.961,2.007
		c-39.265-0.018-78.529-0.018-117.794,0c-1.711,0.001-3.166-0.297-3.953-2.018c-0.757-1.655-0.007-2.902,1.026-4.135
		c5.154-6.156,10.31-12.312,15.403-18.518c1.161-1.414,2.482-1.985,4.301-1.966c6.647,0.07,13.297-0.029,19.943,0.067
		c1.701,0.025,2.433-0.216,2.291-2.176c-0.21-2.893-0.184-5.82-0.008-8.718c0.116-1.923-0.306-2.507-2.391-2.499
		c-22.021,0.093-44.043,0.058-66.064,0.057c-9.276-0.001-14.702-5.413-14.703-14.666C0,112.562,0,73.578,0.001,34.594
		c0-9.265,5.41-14.647,14.717-14.648c16.62-0.001,33.24-0.02,49.86,0.033c1.469,0.005,2.009-0.225,1.96-1.867
		c-0.136-4.566-0.052-9.139-0.045-13.709c0.005-3.299,1.073-4.4,4.304-4.401c43.697-0.004,87.393-0.004,131.09,0.001
		c3.106,0,4.232,1.137,4.233,4.267C206.124,29.129,206.122,53.987,206.122,78.846z M77.849,106.608
		c1.923,1.836,3.779,3.491,5.485,5.287c0.848,0.893,1.719,1.152,2.902,1.151c37.12-0.027,74.241-0.033,111.361,0.016
		c1.55,0.002,1.916-0.357,1.912-1.91c-0.055-25.345-0.055-50.69,0-76.035c0.003-1.549-0.355-1.927-1.911-1.914
		c-10.041,0.08-20.084,0.011-30.125,0.069c-1.701,0.01-3.037-0.478-4.343-1.547c-4.497-3.682-9.078-7.263-13.595-10.922
		c-0.74-0.6-1.463-0.876-2.425-0.875c-24.101,0.023-48.201,0.03-72.302-0.012c-1.347-0.002-1.712,0.329-1.702,1.692
		c0.064,9.14,0.033,18.281,0.033,27.422c0,2.839,0.051,5.68-0.025,8.517c-0.03,1.105,0.683,1.628,1.349,2.169
		c0.723,0.588,1.087-0.295,1.528-0.613c5.319-3.83,12.173-3.382,16.69,1.12c4.51,4.495,5.035,11.411,1.09,16.644
		c-0.876,1.162-0.595,1.668,0.258,2.5c3.024,2.949,6.009,5.939,8.971,8.95c4.185,4.254,4.528,10.113,0.889,14.422
		c-3.615,4.28-9.466,4.841-14.361,1.33c-0.602-0.432-1.118-0.725-1.873-0.54C84.439,104.318,81.227,105.117,77.849,106.608z
		 M65.938,51.697c0.184-0.135,0.368-0.27,0.553-0.406c0-3.178-0.099-6.361,0.042-9.533c0.07-1.578-0.388-1.911-1.923-1.904
		c-14.194,0.065-28.388,0.073-42.581-0.006c-1.728-0.01-2.126,0.401-2.123,2.125c0.058,34.062,0.057,68.125,0.003,102.188
		c-0.003,1.678,0.319,2.16,2.094,2.153c19.525-0.075,39.05-0.047,58.576-0.047c34.481,0,68.962-0.019,103.442,0.051
		c1.891,0.004,2.221-0.517,2.197-2.266c-0.103-7.406-0.123-14.817,0.011-22.222c0.034-1.893-0.519-2.2-2.268-2.197
		c-30.188,0.057-60.376,0.041-90.564,0.041c-0.727,0-1.454,0-2.213,0c0.06,0.309,0.056,0.447,0.112,0.553
		c3.409,6.45,1.813,12.271-4.696,17.109c-4.907,3.647-10.846,2.936-15.684-1.889c-4.265-4.253-8.555-8.483-12.76-12.795
		c-1.126-1.156-1.731-1.465-3.254-0.254c-5.641,4.486-11.994,5.278-18.474,2.113c-6.472-3.16-9.757-8.628-9.797-15.846
		c-0.029-5.115,2.176-9.314,5.812-12.858c8.483-8.269,14.094-18.166,16.751-29.736c0.271-1.178,0.168-2.021-0.57-3.024
		c-3.266-4.435-2.632-10.278,1.395-13.869c4.025-3.589,9.885-3.545,13.962,0.164C64.728,50.023,65.29,50.907,65.938,51.697z
		 M103.005,159.564c29.642,0,59.285,0.002,88.927-0.002c4.928-0.001,7.533-2.624,7.537-7.576c0.008-9.141,0.002-18.283,0.002-27.424
		c0-4.921-0.001-4.856-4.883-4.927c-1.468-0.021-1.813,0.364-1.801,1.814c0.073,8.933,0.039,17.867,0.036,26.8
		c-0.001,3.679-0.99,4.667-4.672,4.667c-56.722,0.001-113.445,0.001-170.167,0c-3.693,0-4.684-0.983-4.684-4.651
		c-0.001-36.773-0.001-73.546,0-110.319c0-3.71,0.975-4.702,4.629-4.702c14.613-0.002,29.227-0.001,43.84-0.001
		c4.732,0,4.622-0.004,4.776-4.631c0.062-1.857-0.591-2.059-2.2-2.053c-16.552,0.06-33.105,0.036-49.658,0.037
		c-5.646,0-8.035,2.41-8.035,8.105c-0.001,38.92-0.001,77.839,0,116.759c0,5.653,2.433,8.103,8.05,8.103
		C44.136,159.564,73.571,159.564,103.005,159.564z M155.732,199.372c-3.643-4.373-7.063-8.442-10.429-12.555
		c-0.534-0.652-1.13-0.66-1.824-0.66c-26.929,0.003-53.858,0.002-80.788,0.009c-0.597,0-1.205-0.135-1.702,0.468
		c-3.446,4.183-6.922,8.341-10.581,12.739C85.629,199.372,120.475,199.372,155.732,199.372z M136.305,6.65
		c-19.529,0-39.059,0-58.588,0c-4.583,0-4.49,0.003-4.623,4.569c-0.051,1.74,0.412,2.126,2.131,2.121
		c24.308-0.064,48.616-0.028,72.923-0.074c1.848-0.004,3.3,0.502,4.719,1.67c4.434,3.65,8.966,7.182,13.427,10.799
		c0.741,0.601,1.463,0.88,2.425,0.877c9.695-0.031,19.391-0.047,29.086,0.014c1.355,0.008,1.719-0.34,1.699-1.698
		c-0.081-5.4-0.115-10.804,0.014-16.202c0.042-1.741-0.414-2.126-2.132-2.12C177.026,6.674,156.666,6.65,136.305,6.65z
		 M54.994,70.246c-1.021,3.809-2.382,7.491-4.075,11.048c-1.695,3.561-3.639,6.982-6.02,10.129c-0.697,0.921-0.572,1.42,0.212,2.191
		c4.781,4.707,9.528,9.45,14.23,14.236c0.802,0.817,1.319,0.81,2.198,0.146c3.092-2.338,6.456-4.238,9.944-5.926
		c3.634-1.759,7.442-3.066,11.124-4.175C73.393,88.668,64.236,79.5,54.994,70.246z M99.697,96.69
		c0.086-2.169-0.881-3.151-1.874-4.144c-12.485-12.473-24.962-24.955-37.445-37.43c-0.487-0.487-0.97-1.012-1.548-1.369
		c-2.3-1.42-5.327,0.103-5.611,2.785c-0.173,1.629,0.754,2.708,1.813,3.765c12.537,12.519,25.062,25.05,37.594,37.574
		c0.439,0.439,0.869,0.915,1.385,1.244c1.196,0.762,2.48,0.845,3.741,0.15C98.994,98.581,99.645,97.493,99.697,96.69z
		 M103.065,179.509c3.946,0,7.894-0.046,11.839,0.028c1.179,0.022,1.508-0.316,1.482-1.488c-0.077-3.46-0.043-6.923-0.017-10.384
		c0.007-0.912,0.012-1.497-1.265-1.486c-8.031,0.068-16.063,0.052-24.094,0.013c-1.001-0.005-1.285,0.279-1.269,1.274
		c0.057,3.53,0.072,7.062-0.006,10.591c-0.026,1.184,0.323,1.501,1.49,1.479C95.171,179.465,99.119,179.509,103.065,179.509z
		 M86.457,126.612c-0.07-1.711-0.64-2.85-1.609-3.817c-4.112-4.104-8.246-8.186-12.306-12.342c-0.807-0.826-1.381-0.789-2.283-0.247
		c-2.667,1.605-5.223,3.357-7.688,5.258c-0.972,0.75-1.149,1.163-0.151,2.132c4.515,4.385,8.926,8.875,13.385,13.317
		c2.001,1.992,4.009,2.652,5.933,1.516C84.066,131.056,86.15,129.31,86.457,126.612z M44.149,119.646
		c0.471-0.058,1.018-0.124,1.564-0.194c3.218-0.414,5.359-2.528,7.666-4.553c1.711-1.501,1.501-2.291-0.012-3.706
		c-3.376-3.158-6.576-6.504-9.846-9.776c-3.877-3.879-3.918-3.916-7.523,0.34c-2.887,3.408-3.53,7.3-1.723,11.393
		C36.124,117.338,39.567,119.334,44.149,119.646z M83.643,63.167c-0.99-0.006-1.882,0.319-2.774,0.726
		c-1.248,0.568-1.282,1.097-0.273,2.045c2.215,2.084,4.379,4.229,6.452,6.454c1.076,1.155,1.492,0.623,2.024-0.415
		C91.141,67.941,88.185,63.127,83.643,63.167z"/>
	<path fill="#D38200" d="M159.448,79.783c-9.551,0-19.102,0.003-28.653-0.002c-3.401-0.002-4.46-1.057-4.462-4.452
		c-0.005-10.381-0.006-20.761,0.001-31.142c0.002-3.145,1.118-4.293,4.197-4.294c19.379-0.007,38.757-0.007,58.136,0
		c2.979,0.001,4.149,1.165,4.152,4.134c0.011,10.519,0.01,21.038,0.001,31.557c-0.003,3.07-1.161,4.193-4.304,4.195
		C178.827,79.788,169.138,79.783,159.448,79.783z M159.788,46.541c-8.379,0-16.758,0.032-25.137-0.032
		c-1.349-0.01-1.714,0.332-1.702,1.694c0.069,7.755,0.068,15.51,0.001,23.265c-0.012,1.354,0.341,1.702,1.697,1.698
		c16.62-0.049,33.239-0.048,49.859-0.001c1.348,0.004,1.714-0.331,1.701-1.693c-0.069-7.755-0.068-15.51-0.001-23.265
		c0.012-1.354-0.34-1.71-1.697-1.699C176.269,46.574,168.028,46.541,159.788,46.541z"/>
	<path fill="#D38200" d="M153.138,99.728c12.604,0,25.209,0.031,37.812-0.04c1.551-0.009,1.948,0.354,1.917,1.912
		c-0.096,4.776-0.021,4.777-4.827,4.777c-24.308,0-48.616-0.021-72.924,0.044c-1.724,0.005-2.179-0.389-2.128-2.124
		c0.132-4.566,0.04-4.569,4.623-4.569C129.453,99.728,141.295,99.728,153.138,99.728z"/>
	<path fill="#D38200" d="M149.602,86.431c7.202,0,14.404,0.036,21.605-0.032c1.348-0.013,1.714,0.33,1.705,1.693
		c-0.032,4.988,0.024,4.989-5.024,4.989c-13.227,0-26.453-0.029-39.68,0.039c-1.544,0.008-1.952-0.344-1.92-1.909
		c0.097-4.779,0.021-4.78,4.824-4.78C137.276,86.431,143.439,86.431,149.602,86.431z"/>
	<path fill="#D38200" d="M107.368,40.969c0.406,0.377,0.762,0.694,1.104,1.025c3.647,3.524,3.647,3.525,0.105,7.065
		c-2.888,2.887-5.806,5.746-8.648,8.678c-0.815,0.84-1.35,1.19-2.253,0.098c-1.054-1.275-3.085-2.321-3.217-3.618
		c-0.139-1.358,1.993-2.416,3.142-3.591c2.854-2.921,5.764-5.787,8.657-8.669C106.594,41.622,106.967,41.324,107.368,40.969z"/>
	<path fill="#D38200" d="M83.114,41.445c0-2.354,0.041-4.709-0.02-7.061c-0.024-0.92,0.277-1.12,1.169-1.168
		c5.503-0.293,5.502-0.319,5.502,5.124c0,3.392-0.046,6.785,0.026,10.176c0.023,1.099-0.308,1.356-1.382,1.378
		c-5.295,0.109-5.294,0.144-5.294-5.127C83.113,43.66,83.113,42.553,83.114,41.445z"/>
	<path fill="#D38200" d="M111.364,69.811c-2.354,0-4.709-0.049-7.061,0.023c-1.011,0.031-1.234-0.299-1.271-1.278
		c-0.2-5.396-0.23-5.395,5.232-5.395c3.323,0,6.648,0.053,9.969-0.028c1.187-0.029,1.468,0.333,1.481,1.492
		c0.057,5.187,0.097,5.186-5.027,5.186C113.58,69.811,112.472,69.811,111.364,69.811z"/>
	<path fill="#D38200" d="M186.173,93.08c-0.554,0-1.108,0-1.661,0c-5.498,0-5.475,0.002-5.012-5.612
		c0.066-0.797,0.26-1.06,1.068-1.053c3.738,0.035,7.477,0.036,11.215,0c0.811-0.008,1.156,0.248,1.042,1.057
		c-0.01,0.068-0.004,0.138-0.001,0.207c0.263,5.4,0.263,5.4-5.197,5.4C187.142,93.08,186.658,93.08,186.173,93.08z"/>
	<path fill="#D38200" d="M179.526,19.947c-3.947,0-7.894-0.045-11.84,0.027c-1.171,0.021-1.478-0.308-1.492-1.481
		c-0.059-5.196-0.101-5.196,5.02-5.196c6.647,0,13.295,0.039,19.941-0.033c1.351-0.015,1.712,0.335,1.704,1.695
		c-0.032,4.987,0.023,4.988-5.024,4.988C185.066,19.947,182.296,19.947,179.526,19.947z"/>
</g>
</svg>
