<?xml version="1.0" encoding="utf-8"?>
<!-- Generator: Adobe Illustrator 24.3.0, SVG Export Plug-In . SVG Version: 6.00 Build 0)  -->
<svg version="1.1" id="Layer_1" xmlns="http://www.w3.org/2000/svg" xmlns:xlink="http://www.w3.org/1999/xlink" x="0px" y="0px"
	 viewBox="0 0 185.835 374" enable-background="new 0 0 185.835 374" xml:space="preserve">
<g>
	<linearGradient id="SVGID_1_" gradientUnits="userSpaceOnUse" x1="-2.9858" y1="25.4843" x2="201.6296" y2="354.715">
		<stop  offset="0" style="stop-color:#27AAE1"/>
		<stop  offset="1" style="stop-color:#262262"/>
	</linearGradient>
	<path fill="url(#SVGID_1_)" d="M138.867,91.907c0.02-1.892-1.506-3.457-3.398-3.477l-1.437-0.02
		c-1.892-0.02-3.457,1.506-3.477,3.398l-0.02,1.1l-7.004-0.089l0.277-23.658l7.014,0.079v0.347c-0.03,1.892,1.496,3.448,3.388,3.467
		l1.446,0.02c1.892,0.03,3.448-1.496,3.477-3.388l0.079-7.113c0.02-1.892-1.506-3.458-3.388-3.477l-1.456-0.02
		c-1.882-0.02-3.448,1.506-3.467,3.398l-0.01,1.1l-7.014-0.089l0.277-23.658l7.014,0.079v0.347c-0.03,1.892,1.496,3.448,3.388,3.467
		l1.456,0.02c1.872,0.03,3.438-1.496,3.467-3.388l0.079-7.113c0.02-1.892-1.496-3.458-3.388-3.477l-1.456-0.02
		c-1.882-0.02-3.438,1.506-3.467,3.388l-0.01,1.1l-7.014-0.079l0.277-23.42c0.04-3.2-3.012-5.578-6.103-4.716
		c-2.843,0.793-5.687,1.793-8.52,1.981c-0.733,0.059-1.466-0.099-2.15-0.376C102.063,5.211,93.374-0.03,82.536,0
		c-9.639,0.02-17.575,4.676-23.014,6.915c-0.852,0.347-1.783,0.436-2.685,0.277L44.82,5.003c-2.932-0.525-5.647,1.714-5.687,4.706
		l-0.268,23.39l-6.667-0.079l0.01-1.1c0.03-1.892-1.496-3.458-3.388-3.477l-1.456-0.02c-1.882-0.02-3.438,1.506-3.467,3.388
		l-0.079,7.123c-0.02,1.892,1.506,3.448,3.388,3.467l1.446,0.02c1.882,0.03,3.448-1.496,3.477-3.388v-0.347l6.657,0.079
		l-0.268,23.668l-6.667-0.079l0.01-1.1c0.02-1.892-1.506-3.458-3.388-3.477l-1.456-0.02c-1.882-0.02-3.438,1.506-3.467,3.398
		l-0.079,7.113c-0.03,1.892,1.496,3.448,3.388,3.467l1.456,0.02c1.872,0.03,3.438-1.496,3.467-3.388v-0.347L38.44,68.1
		l-0.277,23.668l-6.657-0.079l0.01-1.1c0.02-1.892-1.506-3.458-3.388-3.477l-1.456-0.02c-1.882-0.02-3.448,1.506-3.467,3.398
		l-0.079,7.113c-0.03,1.892,1.496,3.448,3.388,3.467l1.446,0.02c1.892,0.03,3.448-1.496,3.477-3.388v-0.347l6.667,0.079
		l-0.317,26.204c-0.02,2.655,2.12,4.825,4.775,4.825c10.749,0,19.447,8.728,19.447,19.447v0.238l-0.258,21.756l0.04,37.646
		c0,0.376,0.297,0.684,0.684,0.684h3.646c0.367,0,0.674-0.307,0.674-0.684v-37.587l10.462,0.119v0.317
		c-0.129,0.03-0.248,0.069-0.367,0.119c-3.259,1.268-5.578,4.428-5.578,8.143v186.419c0,4.765,3.745,8.797,8.5,8.916
		c4.934,0.129,8.966-3.824,8.966-8.728v-42.342c0-3.784,3.061-6.846,6.846-6.846c1.892,0,3.596,0.763,4.835,2.001
		c1.238,1.238,2.011,2.952,2.011,4.844v14.137c0,4.072,3.299,7.371,7.371,7.371h2.714c4.072,0,7.371-3.299,7.371-7.371V206.867
		c0-4.072-3.299-7.371-7.371-7.371h-2.714c-4.072,0-7.371,3.299-7.371,7.371v14.137c0,3.784-3.071,6.846-6.846,6.846
		c-1.892,0-3.606-0.763-4.845-2.001c-1.238-1.238-2.001-2.952-2.001-4.844V178.86c0-4.052-2.705-7.579-6.439-8.619
		c-0.03-0.01-0.05-0.01-0.079-0.02v-0.069l10.838,0.119v37.28c0,0.376,0.297,0.684,0.674,0.684h3.656
		c0.367,0,0.674-0.307,0.674-0.684v-37.22l0.258-21.29c0.129-10.908,9.005-19.685,19.913-19.685h0.05
		c2.645,0,4.805-2.13,4.835-4.775l0.317-26.085l7.004,0.079v0.347c-0.03,1.892,1.496,3.448,3.388,3.467l1.446,0.02
		c1.892,0.03,3.448-1.496,3.467-3.388L138.867,91.907z M53.776,100.238c-3.487-0.049-6.301-2.913-6.251-6.41
		c0.03-3.497,2.903-6.301,6.4-6.251c3.507,0.04,6.301,2.913,6.261,6.4C60.146,97.475,57.273,100.268,53.776,100.238z M54.123,71.429
		c-3.497-0.049-6.301-2.913-6.261-6.41c0.04-3.497,2.913-6.291,6.4-6.261c3.507,0.05,6.301,2.923,6.261,6.41
		C60.483,68.665,57.62,71.469,54.123,71.429z M54.46,42.61c-3.497-0.03-6.301-2.903-6.251-6.4c0.03-3.497,2.903-6.291,6.4-6.261
		c3.497,0.05,6.301,2.913,6.251,6.41C60.83,39.856,57.957,42.659,54.46,42.61z M91.393,246.752c0-3.349,2.705-6.053,6.053-6.053
		c1.674,0,3.18,0.674,4.28,1.773c1.1,1.09,1.773,2.606,1.773,4.28v48.296c0,3.349-2.715,6.053-6.053,6.053
		c-1.674,0-3.19-0.674-4.28-1.773c-1.1-1.09-1.773-2.606-1.773-4.28V246.752z M108.126,100.873c-3.497-0.04-6.291-2.913-6.251-6.4
		c0.04-3.497,2.913-6.291,6.4-6.261c3.497,0.05,6.301,2.913,6.261,6.41C114.486,98.118,111.623,100.922,108.126,100.873z
		 M108.462,72.063c-3.487-0.03-6.301-2.903-6.251-6.41c0.05-3.487,2.913-6.281,6.41-6.251c3.497,0.05,6.291,2.913,6.251,6.41
		C114.832,69.309,111.96,72.113,108.462,72.063z M108.809,43.254c-3.497-0.03-6.301-2.903-6.261-6.4
		c0.049-3.497,2.913-6.301,6.41-6.251c3.497,0.03,6.291,2.903,6.261,6.4C115.169,40.5,112.306,43.303,108.809,43.254z"/>
	<linearGradient id="SVGID_2_" gradientUnits="userSpaceOnUse" x1="-4.9674" y1="26.7158" x2="199.648" y2="355.9466">
		<stop  offset="0" style="stop-color:#27AAE1"/>
		<stop  offset="1" style="stop-color:#262262"/>
	</linearGradient>
	<path fill="url(#SVGID_2_)" d="M147.455,245.003c-4.822,0-8.731,3.909-8.731,8.731v36.466c0,4.822,3.909,8.731,8.731,8.731
		c4.822,0,8.731-3.909,8.731-8.731v-36.466C156.185,248.911,152.277,245.003,147.455,245.003z"/>
	<linearGradient id="SVGID_3_" gradientUnits="userSpaceOnUse" x1="-78.6113" y1="72.4852" x2="126.0041" y2="401.7159">
		<stop  offset="0" style="stop-color:#27AAE1"/>
		<stop  offset="1" style="stop-color:#262262"/>
	</linearGradient>
	<path fill="url(#SVGID_3_)" d="M45.365,229.341c-4.822,0-8.731,3.909-8.731,8.731v67.789c0,4.822,3.909,8.731,8.731,8.731
		c4.822,0,8.731-3.909,8.731-8.731v-67.789C54.096,233.25,50.187,229.341,45.365,229.341z"/>
	<linearGradient id="SVGID_4_" gradientUnits="userSpaceOnUse" x1="-105.0383" y1="88.9094" x2="99.5771" y2="418.1402">
		<stop  offset="0" style="stop-color:#27AAE1"/>
		<stop  offset="1" style="stop-color:#262262"/>
	</linearGradient>
	<path fill="url(#SVGID_4_)" d="M13.551,253.831H3.91c-2.16,0-3.91,1.751-3.91,3.91v28.45c0,2.16,1.751,3.91,3.91,3.91h9.641
		c2.16,0,3.91-1.751,3.91-3.91v-28.45C17.461,255.582,15.711,253.831,13.551,253.831z"/>
	<linearGradient id="SVGID_5_" gradientUnits="userSpaceOnUse" x1="16.8184" y1="13.1761" x2="221.4338" y2="342.4068">
		<stop  offset="0" style="stop-color:#27AAE1"/>
		<stop  offset="1" style="stop-color:#262262"/>
	</linearGradient>
	<circle fill="url(#SVGID_5_)" cx="177.655" cy="271.966" r="8.179"/>
</g>
</svg>
