<?xml version="1.0" encoding="utf-8"?>
<!-- Generator: Adobe Illustrator 24.3.0, SVG Export Plug-In . SVG Version: 6.00 Build 0)  -->
<svg version="1.1" id="Layer_5" xmlns="http://www.w3.org/2000/svg" xmlns:xlink="http://www.w3.org/1999/xlink" x="0px" y="0px"
	 viewBox="0 0 265.446 245.769" enable-background="new 0 0 265.446 245.769" xml:space="preserve">
<g>
	<path fill="#20D0B2" d="M176.832,49.823H88.614c-10.728,0-19.425,8.697-19.425,19.424v157.096c0,10.728,8.698,19.425,19.425,19.425
		h88.219c10.728,0,19.425-8.697,19.425-19.425V69.247C196.257,58.519,187.56,49.823,176.832,49.823z M132.724,239.191
		c-3.688,0-6.677-2.989-6.677-6.677c0-3.688,2.989-6.678,6.677-6.678c3.687,0,6.677,2.99,6.677,6.678
		C139.401,236.202,136.411,239.191,132.724,239.191z M185.656,213.153c0,4.407-3.573,7.979-7.979,7.979H87.769
		c-4.407,0-7.979-3.572-7.979-7.979V68.706c0-4.407,3.572-7.979,7.979-7.979h89.908c4.407,0,7.979,3.573,7.979,7.979V213.153z"/>
	<path fill="#20D0B2" d="M146.967,155.585c-1.136,1.02-2.191,1.939-3.213,2.895c-0.786,0.735-0.871,1.373-0.242,2.272
		c0.501,0.716,1.123,1.346,1.679,2.024c1.324,1.616,2.636,3.241,3.963,4.854c0.301,0.366,0.617,0.726,0.967,1.043
		c1.105,0.999,2.299,1.121,3.486,0.225c0.729-0.55,1.372-1.243,1.954-1.953c3.177-3.872,6.323-7.769,9.481-11.657
		c0.132-0.163,0.28-0.313,0.427-0.477c2.865,4.969,2.615,14.003-4.218,19.581c-6.961,5.683-17.157,4.665-22.821-2.228
		c-5.696-6.932-4.748-17.043,2.187-22.812c6.691-5.566,16.017-4.451,21.076,0.424c-3.171,3.822-6.345,7.646-9.582,11.547
		C150.366,159.376,148.694,157.511,146.967,155.585z"/>
</g>
<g>
	<path fill="#11676D" d="M158.219,14.732C152.97,5.645,143.191,0,132.697,0c-10.494,0-20.272,5.645-25.523,14.734L90.219,44.101h0
		c8.177,0,15.732-4.362,19.821-11.443l7.045-12.202c3.221-5.577,9.17-9.011,15.612-9.011c6.443,0,12.391,3.434,15.612,9.011
		l7.045,12.202c4.089,7.081,11.644,11.444,19.821,11.444L158.219,14.732z"/>
	<path fill="#11676D" d="M260.725,192.281L201.973,90.517v0.001c0,14.993,3.947,29.722,11.443,42.707l37.564,65.064
		c2.803,4.191,3.882,9.617,2.268,15.296c-2.165,7.619-9.352,12.718-17.273,12.718h-0.043H217.06c-7.626,0-14.405,4.501-17.78,11.34
		c-0.017,0.035-0.035,0.07-0.052,0.104h36.065c16.015,0,29.619-12.491,30.138-28.497
		C265.626,203.197,263.99,197.317,260.725,192.281z"/>
	<path fill="#11676D" d="M48.373,226.303H29.817c-4.931,0-9.755-1.839-13.201-5.366c-5.816-5.954-6.739-14.798-2.769-21.672
		l38.169-66.108c7.497-12.985,11.444-27.715,11.444-42.709L3.937,193.541c-6.605,11.439-4.899,26.366,5.119,35.999
		c5.617,5.401,13.244,8.206,21.037,8.206h36.112c-0.018-0.034-0.035-0.069-0.052-0.104
		C62.777,230.803,55.999,226.303,48.373,226.303z"/>
	<path fill="#11676D" d="M160.505,143.73c-1.53-0.585-3.007-1.15-4.498-1.72c0.146-1.268,0.332-2.555,0.433-3.849
		c0.082-1.063,0.061-2.133,0.09-3.2c0.01-0.376-0.101-0.595-0.522-0.699c-7.34-1.806-11.301-7.584-11.732-14.643
		c-0.004-0.07-0.024-0.139-0.052-0.294c-4.748-0.936-9.486-2.08-14.452-1.99c0,20.274,0,40.468,0,60.893
		c1.959-1.1,3.802-2.135,5.646-3.17c1.145,1.066,2.318,2.159,3.555,3.31c-0.95,0.621-1.888,1.306-2.891,1.875
		c-1.831,1.038-3.691,2.03-5.566,2.985c-0.315,0.161-0.835,0.174-1.155,0.028c-1.691-0.774-3.423-1.499-5.005-2.464
		c-10.811-6.59-18.374-15.819-22.69-27.765c-1.711-4.735-2.545-9.603-3.127-14.552c-0.094-0.801-0.132-1.608-0.229-2.409
		c-0.172-1.414,0.061-2.79,0.364-4.158c0.191-0.86,0.759-1.41,1.583-1.68c0.945-0.309,1.9-0.591,2.853-0.877
		c4.579-1.376,7.682-5.536,7.692-10.315c0.001-0.641-0.017-1.283,0.011-1.923c0.05-1.127,0.596-1.684,1.695-1.941
		c1.728-0.404,3.423-0.981,5.167-1.277c3.503-0.595,7.023-1.105,10.549-1.546c2.614-0.327,5.214,0.093,7.789,0.524
		c3.576,0.598,7.139,1.274,10.708,1.912c1.319,0.236,2.246,1.279,2.238,2.623c-0.01,1.737-0.016,3.471,0.581,5.133
		c1.299,3.615,3.804,5.926,7.519,6.934c1.003,0.272,2.001,0.574,2.98,0.921c0.789,0.279,1.121,0.97,1.146,1.739
		c0.123,3.823,0.107,7.642-0.593,11.423C160.576,143.624,160.528,143.684,160.505,143.73z"/>
</g>
</svg>
