<?xml version="1.0" encoding="utf-8"?>
<!-- Generator: Adobe Illustrator 24.3.0, SVG Export Plug-In . SVG Version: 6.00 Build 0)  -->
<svg version="1.1" id="Layer_2" xmlns="http://www.w3.org/2000/svg" xmlns:xlink="http://www.w3.org/1999/xlink" x="0px" y="0px"
	 viewBox="0 0 231.064 230.668" enable-background="new 0 0 231.064 230.668" xml:space="preserve">
<g>
	<path fill="#22225B" d="M220.195,66.597c-10.108-21.706-26.163-38.805-45.275-50.247C100.865-6.966,48.53,69.533,62.589,91.523
		c8.661,13.484,35.272,38.298,55.055,56.009c9.168,8.825,6.388,16.436,0.999,19.544c-21.393,12.433-60.332,13.484-78.393-8.825
		C-1.91,106.065,51.028,11.244,128.422,0.756c-20.446-2.333-41.668,0.663-61.667,9.988C8.92,37.668-16.133,106.341,10.866,164.079
		c10.108,21.706,26.163,38.798,45.275,50.24c74.055,23.316,126.389-53.184,112.331-75.166
		c-8.661-13.492-35.272-38.306-55.055-56.016c-9.161-8.825-6.388-16.436-0.999-19.544c21.393-12.433,60.332-13.484,78.393,8.833
		c42.167,52.178-10.778,146.999-88.173,157.487c20.446,2.333,41.668-0.663,61.667-9.988
		C222.14,193.001,247.201,124.327,220.195,66.597z"/>
	<path fill="#22225B" d="M180.085,98.127c-2.669,0.775-5.501-0.723-6.336-3.392c-0.827-2.661,0.723-5.494,3.392-6.328
		c2.669-0.775,5.501,0.723,6.336,3.392C184.312,94.519,182.806,97.352,180.085,98.127z"/>
	<path fill="#22225B" d="M164.365,97.568c-0.775-2.661-3.615-4.219-6.336-3.384c-2.669,0.775-4.219,3.608-3.384,6.328
		c0.775,2.669,3.608,4.219,6.328,3.384C163.642,103.069,165.14,100.236,164.365,97.568z"/>
	<path fill="#22225B" d="M164.752,81.691c-2.669,0.783-4.219,3.608-3.392,6.328c0.783,2.669,3.615,4.219,6.336,3.392
		c2.669-0.783,4.219-3.608,3.392-6.328C170.253,82.414,167.421,80.916,164.752,81.691z"/>
	<path fill="#22225B" d="M170.477,100.847c-2.669,0.775-4.226,3.608-3.392,6.328c0.775,2.661,3.615,4.219,6.336,3.384
		c2.661-0.775,4.219-3.608,3.384-6.328C175.978,101.623,173.138,100.065,170.477,100.847z"/>
	<path fill="#22225B" d="M47.532,138.818c0.775,2.661,3.608,4.219,6.336,3.384c2.721-0.835,4.219-3.608,3.384-6.328
		c-0.775-2.661-3.608-4.219-6.336-3.384C48.195,133.324,46.756,136.149,47.532,138.818z"/>
	<path fill="#22225B" d="M66.696,133.101c0.783,2.661,3.615,4.219,6.336,3.384c2.721-0.835,4.219-3.608,3.384-6.328
		c-0.775-2.661-3.608-4.219-6.328-3.384C67.367,127.6,65.921,130.432,66.696,133.101z"/>
	<path fill="#22225B" d="M66.308,148.978c2.669-0.775,4.219-3.608,3.392-6.328c-0.783-2.669-3.615-4.219-6.336-3.392
		c-2.721,0.835-4.219,3.615-3.392,6.328C60.807,148.255,63.64,149.753,66.308,148.978z"/>
	<path fill="#22225B" d="M60.583,129.821c2.669-0.775,4.226-3.608,3.392-6.328c-0.775-2.661-3.608-4.219-6.336-3.384
		c-2.661,0.775-4.219,3.608-3.384,6.328C55.082,129.158,57.922,130.604,60.583,129.821z"/>
</g>
</svg>
