<?xml version="1.0" encoding="utf-8"?>
<!-- Generator: Adobe Illustrator 24.3.0, SVG Export Plug-In . SVG Version: 6.00 Build 0)  -->
<svg version="1.1" id="Layer_5" xmlns="http://www.w3.org/2000/svg" xmlns:xlink="http://www.w3.org/1999/xlink" x="0px" y="0px"
	 viewBox="0 0 222.63 242.08" enable-background="new 0 0 222.63 242.08" xml:space="preserve">
<g>
	<path fill="#04072B" d="M162.381,182.736l15.563,4.132l0.605-2.28c0.835-3.146-1.038-6.373-4.184-7.208l-4.171-1.107
		c-3.146-0.835-6.373,1.038-7.208,4.184L162.381,182.736z"/>
	<polygon fill="#04072B" points="123.338,181.151 113.457,218.374 130.72,222.957 136.965,206.497 134.802,224.04 145.232,226.809 
		154.18,200.171 149.315,227.893 173.646,234.352 183.178,207.869 177.734,235.438 188.159,238.205 194.988,221.9 192.247,239.29 
		202.753,242.08 212.635,204.857 	"/>
	<path fill="#04072B" d="M108.509,69.361c-2.863,0-5.65,0.319-8.337,0.906c-4.786-11.604-16.205-19.773-29.536-19.773
		c-9.097,0-17.3,3.809-23.117,9.912C25.093,60.823,7.038,79.121,7.038,101.647c0,22.788,18.473,41.261,41.261,41.261
		c11.231,0,21.408-4.493,28.849-11.773c7.068,9.654,18.48,15.927,31.362,15.927c21.457,0,38.851-17.394,38.851-38.851
		C147.36,86.755,129.966,69.361,108.509,69.361z"/>
</g>
<g>
	<path fill="#00ABB8" d="M167.619,176.734l8.754,2.324L222.494,5.329c0.573-2.157-0.712-4.37-2.869-4.942l-0.943-0.25
		c-2.157-0.572-4.37,0.712-4.942,2.869L167.619,176.734z"/>
	<path fill="#00ABB8" d="M121.879,180.765l92.211,24.48l0,0c1.203-4.53-1.495-9.178-6.025-10.381L132.26,174.74
		C127.73,173.537,123.082,176.235,121.879,180.765L121.879,180.765z"/>
	<path fill="#00ABB8" d="M119.85,238.475H36c-4.151,0-7.691-3.007-8.362-7.103l-20.6-125.691H149.77l-21.569,125.753
		C127.504,235.502,123.977,238.475,119.85,238.475z"/>
</g>
<g>
	<path fill="#008484" d="M150.444,114.376H6.365c-3.515,0-6.365-2.849-6.365-6.365l0,0c0-3.515,2.849-6.365,6.365-6.365h144.079
		c3.515,0,6.365,2.85,6.365,6.365l0,0C156.808,111.527,153.959,114.376,150.444,114.376z"/>
</g>
</svg>
