<?xml version="1.0" encoding="utf-8"?>
<!-- Generator: Adobe Illustrator 24.3.0, SVG Export Plug-In . SVG Version: 6.00 Build 0)  -->
<svg version="1.1" id="Layer_1" xmlns="http://www.w3.org/2000/svg" xmlns:xlink="http://www.w3.org/1999/xlink" x="0px" y="0px"
	 viewBox="0 0 335.548 277.377" enable-background="new 0 0 335.548 277.377" xml:space="preserve">
<g>
	<g>
		<path d="M228.821,49.856c4.882-36.198,4.882-36.198,30.059-30.953c0,12.833-0.901,26.161,0.397,39.272
			c0.61,6.159,3.97,15.121,8.636,17.269c19.698,9.069,24.602,23.952,22.212,43.762c-1.028,8.521-0.172,17.27-1.673,26.518
			c-9.994-11.786-29.661-15.429-27.615-36.42c0.235-2.406-3.674-5.945-6.438-7.804c-34.988-23.526-70.118-46.84-105.53-70.419
			c-35.645,23.689-70.908,46.771-105.608,70.67c-3.98,2.741-6.701,10.012-6.8,15.243c-0.606,31.906-0.285,63.829-0.274,95.746
			c0.002,5.498,0,10.996,0,16.319c-27.754,2.14-28.793,1.265-28.803-22.663c-0.013-33.462,0.298-66.928-0.191-100.382
			C7.043,95.755,9.87,88.882,18.861,83.042C58.559,57.256,97.973,31.023,137.104,4.383c8.608-5.86,15.011-5.845,23.475,0.049
			C182.401,19.627,204.817,33.967,228.821,49.856z"/>
	</g>
</g>
<g>
	<g>
		<path fill="#461B0D" d="M320.508,259.666c-1.94,0.83-3.82,1.91-5.85,2.37c-5.38,1.21-14.38,4.56-15.6,2.76
			c-4.49-6.63-8.75-14.99-8.76-22.7c-0.01-12.04-9.19-20.59-21.02-16.1c-23.04,8.73-45.8,18.21-68.98,26.51
			c-1.38,0.5-2.76,0.99-4.15,1.48c-22,7.72-44.24,14.38-66.88,18.59c-22.63,4.22-45.65,5.99-69.21,3.96
			c-13.65-1.18-27.65-4.14-40.34-9.18c-18.9-7.51-24.46-23.37-15.61-41.29c10.71-21.68,29.09-35.62,48.52-48.23
			c0.82,3.22,1.71,6.42,2.7,9.62c0.38,1.21,0.76,2.41,1.16,3.6c-0.57,1.44-1.21,2.85-1.95,4.2c-3.99,7.32-10.29,13.46-13.77,20.95
			c-6.51,14.01-2.15,25.56,12.44,30.34c10.99,3.6,23.06,5.77,34.6,5.55c2.25-0.04,4.49-0.11,6.73-0.2
			c46.12-1.85,89.63-13.75,131.55-31.28c11.62-4.85,23.11-10.14,34.5-15.77c3.22-1.59,4.32-7.34,6.55-11.07
			c1.87-3.14,3.25-7.69,6.04-8.94c9.16-4.12,9.31-9.68,4.47-16.96c-3.72-5.59-7.04-11.54-11.42-16.54
			c-4.03-4.6-9.25-8.15-15.71-13.68c17.48-1.38,30.41,4.86,38.2,16.27c11.52,16.86,20.15,35.7,29.73,53.85
			c1,1.89,0.99,5.3-0.07,7.12c-3.97,6.88-0.92,9.66,5.28,12.29c2.64,1.12,4.74,4.5,6.17,7.32
			C338.628,251.926,338.548,251.976,320.508,259.666z"/>
	</g>
</g>
<g>
	<g>
		<path fill="#FDB614" d="M94.538,251.896c9.81,8.6,21.3,15.57,34.73,20.68c3.24,1.24,6.6,2.37,10.08,3.38
			c5.58,1.63,12.47,1.55,18.05-0.13c16.57-4.96,30.84-12.81,42.9-23.32c10.14-8.8,18.71-19.49,25.79-31.89
			C184.168,238.146,140.658,250.046,94.538,251.896z"/>
	</g>
	<g>
		<path fill="#FDB614" d="M236.948,108.136l-5.87-3.86l-25.77-16.96c-0.02,0.15-0.04,0.3-0.05,0.45
			c-5.81-3.87-11.47-7.6-17.03-11.26l0.3,0.13c-11.05-7.36-21.71-14.45-32.17-21.83c-6.09-4.29-10.7-4.31-16.9-0.03
			c-10.01,6.9-20.04,13.76-30.1,20.58l-0.01,0.01l-0.31,0.13c-18.22,12.45-36.53,24.78-54.94,36.98c-5.09,3.36-7.43,7.19-8.1,12.31
			c0.28,17.94,2.23,35.65,6.63,53.04v0.01c0.82,3.22,1.71,6.42,2.7,9.62c0.38,1.21,0.76,2.41,1.16,3.6
			c2.92,8.84,6.37,17.2,10.42,24.98c7.2,13.87,16.28,25.95,27.63,35.86c46.12-1.85,89.63-13.75,131.55-31.28
			c0.77-1.34,1.52-2.7,2.25-4.08c7.57-14.31,12.66-29.24,15.93-44.56c1.14-5.27,2.06-10.56,2.79-15.9c1.37-9.88,2.1-19.91,2.42-30
			C248.278,118.636,244.508,112.596,236.948,108.136z M134.978,184.636c-6.71-0.13-10.54-1.59-10.45-9.34
			c0.11-7,1.57-11.21,9.8-11.14c7.21,0.07,11.68,1.79,10.51,10.08C146.128,181.946,142.688,184.776,134.978,184.636z
			 M135.058,210.776c-6.61-0.15-10.55-1.5-10.43-9.3c0.09-7.02,1.59-11.16,9.79-11.03c7.13,0.09,11.73,1.6,10.47,9.97
			C146.218,208.156,142.758,210.956,135.058,210.776z M160.368,184.516c-7.66,0.25-9.4-3.35-9.52-10.18
			c-0.16-7.83,3.1-10.23,10.57-10.29c8.09-0.08,10.6,3.57,9.62,10.93C172.478,183.686,167.108,184.306,160.368,184.516z
			 M160.918,210.686c-7.09,0.06-10-2.32-9.98-9.67c0.01-7.34,2.2-10.82,10.1-10.7c7.38,0.11,11.55,2.17,10.02,10.01
			C172.548,208.896,168.128,210.626,160.918,210.686z M225.478,173.476c-3.73-4.28-7.13-8.94-11.32-12.65l-0.04-0.01
			c-0.5-0.47-1.03-0.9-1.57-1.32c-10.93-8.54-22.55-16.16-33.91-24.15c-3.5-2.23-7-4.44-10.5-6.65c-3.78-2.06-7.97-3.63-11.24-6.33
			c-6.27-5.13-11.86-5.02-18.24-0.18c-4.38,3.32-9.51,5.61-14.32,8.37c-1.82,1.22-3.63,2.44-5.46,3.66
			c-10.28,7.35-20.3,15.08-30.88,21.97c-2.55,1.66-5.14,3.28-7.46,5.02l-0.02-0.18l-9.19,5.75l-4.63,2.9
			c-0.03-10.83-0.01-21.67,0.16-32.49c0.04-3.13,1.37-7.28,3.42-9.77c0-2.6,0.47-4.76,1.56-6.51c-0.98,1.71-1.41,3.78-1.42,6.25
			c0.44-0.52,0.93-0.99,1.43-1.34c6.93-4.82,13.89-9.61,20.87-14.38l0.19-0.08c18.06-12.4,36.31-24.63,54.72-37.11
			c18.39,12.32,36.68,24.54,54.88,36.79l19.92,10.909c1.695,0.928,2.844,2.654,2.929,4.585c0.001,0.012,0.001,0.024,0.002,0.036
			c0.06,0.79,0.04,1.59,0.01,2.45l0.11,33.81V173.476z"/>
	</g>
</g>
</svg>
