<?xml version="1.0" encoding="utf-8"?>
<!-- Generator: Adobe Illustrator 24.3.0, SVG Export Plug-In . SVG Version: 6.00 Build 0)  -->
<svg version="1.1" id="Layer_1" xmlns="http://www.w3.org/2000/svg" xmlns:xlink="http://www.w3.org/1999/xlink" x="0px" y="0px"
	 viewBox="0 0 642.63 945.609" enable-background="new 0 0 642.63 945.609" xml:space="preserve">
<g>
	<path fill="#676767" d="M302.77,931.58l-0.602-0.189c-0.754-0.237-76.24-24.238-150.742-64.934
		c-43.828-23.938-78.768-48.897-103.851-74.183C16.007,760.452,0,727.975,0,695.747V304.549h2
		c64.939,0,103.744-43.596,103.744-85.745v-2h394.054v2c0,42.148,38.806,85.745,103.744,85.745h2v391.198
		c0,32.229-16.007,64.705-47.576,96.527c-25.083,25.285-60.023,50.244-103.851,74.183c-74.503,40.695-149.99,64.696-150.743,64.934
		L302.77,931.58z M4,308.535v387.212c0,31.129,15.61,62.651,46.396,93.691c24.803,25.007,59.422,49.729,102.897,73.481
		c70.646,38.596,142.2,62.114,149.477,64.463c7.277-2.349,78.83-25.867,149.477-64.463c43.476-23.752,78.096-48.475,102.898-73.481
		c30.786-31.04,46.396-62.562,46.396-93.691V308.535c-30.125-0.417-57.353-10.27-76.853-27.85
		c-17.823-16.069-28.268-37.793-28.864-59.881H109.717c-0.597,22.088-11.042,43.813-28.866,59.881
		C61.352,298.265,34.124,308.118,4,308.535z"/>
	<path fill="#676767" d="M277.996,380.727H112.582c-22.89,0-41.691,13.902-41.691,49.785v150.677
		c0,16.978-8.635,25.909-16.973,30.575c-1.061,0.593-1.586,1.828-1.279,3.003c0.307,1.176,1.37,1.993,2.583,1.993h152.994
		c22.891,0,41.796-3.789,41.796-39.672V443.19h38.797l-0.173-0.377c2.377,0.037,4.761,0.081,7.497-0.695
		c12.131-3.438,19.279-13.108,19.279-26.586C315.411,396.309,299.607,380.727,277.996,380.727z M245.624,577.094
		c0,32.7-16.211,35.283-37.399,35.283H60.96c7.901-6.15,14.309-16.06,14.309-31.182V430.512c0-29.283,13.243-45.408,37.313-45.408
		h148.142c-13.199,8.245-15.1,26.591-15.1,41.307V577.094z M250.011,426.411c0-5.913,0.375-11.259,1.161-16.07h24.598
		c-9.4,7.224-8.044,21.377,0.996,28.516h-26.755V426.411z M294.206,438.267c-20.801,5.781-31.352-23.936-6.821-27.926l-0.553-4.333
		h-34.703c3.229-13.114,10.701-20.904,25.867-20.904c18.652,0,33.047,13.649,33.047,30.436
		C311.043,427.524,305.052,435.25,294.206,438.267z"/>
</g>
<g>
	<path fill="#278C8C" d="M618.48,0.011c-15.377-0.862-83.092,49.843-146.396,128.036c-3.965,23.759-6.065,49.904-5.794,81.167
		c-4.323-27.266-6.665-46.969-7.298-64.493c-8.756,11.49-17.334,23.5-25.605,35.942c0.022,23.863,3.746,49.731,12.758,80.149
		c-13.087-23.114-21.911-40.643-27.876-56.264c-14.376,23.883-27.265,49.132-37.822,75.313c3.311,22.301,9.344,46.134,19.192,72.969
		c-12.023-18.951-21.183-34.478-28.316-48.385c-22.757,67.76-28.215,140.737-0.283,212.219c0,0,71.194-21.173,111.92-88.678
		c13.54-22.44,25.235-45.224,35.592-67.703c-30.6,18.208-62.305,40.526-96.89,69.049c48.191-54.708,78.157-83.769,114.087-108.851
		c11.815-29.015,21.775-56.769,30.946-81.834c-19.153,8.655-39.242,18.345-61.003,29.662c25.94-16.772,46.378-29.442,64.792-39.963
		c6.546-17.699,12.775-33.886,19.092-47.866C621.172,110.588,673.743,3.096,618.48,0.011z"/>
	<path fill="#278C8C" d="M368.275,845.125c0,0-26.504-182.076,5.96-345.737C416.048,288.578,567.371,80.568,575.98,75.783
		c8.609-4.79-143.938,193.177-188.077,413.786c-38.464,192.247-10.432,326.485-10.432,326.485L368.275,845.125z"/>
	<path fill="#278C8C" d="M454.651,671.862H277.63c-0.116,0-0.21-0.094-0.21-0.21v-39.09c0-0.116,0.094-0.21,0.21-0.21h177.021
		c0.116,0,0.21,0.094,0.21,0.21v39.089C454.861,671.768,454.767,671.862,454.651,671.862z"/>
	<polygon fill="#278C8C" points="513.134,744.64 219.144,744.64 171.909,876.752 192.508,945.609 539.769,945.609 560.369,876.752 	
		"/>
	<path fill="#278C8C" d="M432.417,671.862h-66.276h-66.28c-16.221,39.505-35.175,51.152-80.717,72.778h146.997h146.993
		C467.592,723.014,448.638,711.367,432.417,671.862z"/>
	<rect x="123.935" y="431.805" fill="#278C8C" width="105.253" height="14.409"/>
	<rect x="92.495" y="468.741" fill="#278C8C" width="136.693" height="14.411"/>
	<rect x="92.495" y="505.678" fill="#278C8C" width="136.693" height="14.411"/>
	<rect x="92.495" y="542.616" fill="#278C8C" width="136.693" height="14.409"/>
</g>
</svg>
