<?xml version="1.0" encoding="utf-8"?>
<!-- Generator: Adobe Illustrator 24.3.0, SVG Export Plug-In . SVG Version: 6.00 Build 0)  -->
<svg version="1.1" id="Layer_3" xmlns="http://www.w3.org/2000/svg" xmlns:xlink="http://www.w3.org/1999/xlink" x="0px" y="0px"
	 viewBox="0 0 261.299 173.154" enable-background="new 0 0 261.299 173.154" xml:space="preserve">
<g>
	<path fill="#FE5955" d="M184.002,46.099c-2.54-0.41-5.09-0.63-7.63-0.63c-22.65,0-38.95,15.52-45.71,23.3
		c-6.75-7.78-23.05-23.3-45.7-23.3c-2.54,0-5.08,0.22-7.62,0.62c-0.61,17.64-0.29,59.06,14.85,78.55
		c20.78,26.75,38.3,36.54,38.51,36.54c0.22,0,17.92-9.65,38.53-36.57C184.212,105.029,184.592,63.729,184.002,46.099z
		 M191.402,32.619c0,0-32.62-32.62-60.74-32.62s-60.74,32.62-60.74,32.62l3.03,14.28c-0.4,21.31,1.03,61.87,16.16,81.73
		c22.42,29.43,41.35,38.41,41.62,38.41c0.26,0,19.35-8.83,41.58-38.44c14.99-19.96,16.45-60.44,16.07-81.73L191.402,32.619z
		 M114.372,26.059h12.22v-12.22h8.23v12.22h12.22v8.23h-12.22v12.23h-8.23v-12.23h-12.22
		C114.372,34.289,114.372,26.059,114.372,26.059z"/>
</g>
<g>
	<ellipse fill="#135873" cx="23.127" cy="68.768" rx="20.667" ry="20.667"/>
	<ellipse fill="#135873" cx="236.957" cy="68.764" rx="20.667" ry="20.667"/>
	<path fill="#135873" d="M216.586,101.215c-1.355-11.227-18.122-63.435-18.122-63.435c10.479,96.292-57.754,135.375-57.754,135.375
		c103.652-5.63,120.588-82.259,120.588-82.259S217.534,109.066,216.586,101.215z"/>
	<path fill="#135873" d="M120.588,173.154c0,0-67.947-30.784-57.277-135.375c0,0-17.243,52.209-18.598,63.435
		C43.765,109.066,0,90.895,0,90.895S16.937,167.525,120.588,173.154z"/>
	<path fill-rule="evenodd" clip-rule="evenodd" fill="#135873" d="M133.918,152.861V133.8c6.692-1.118,13.938-4.699,18.266-10.506
		c0.586-0.796,0.699-1.743,0.421-2.577c6.198-9.739,7.977-22.737,7.977-29.491c0-4.102-1.439-7.257-4.235-9.388
		c-2.611-2.008-5.941-2.69-8.686-2.889c-0.946-0.853-2.508-1.421-4.266-1.421c-2.909,0-5.263,1.506-5.263,3.344
		c0,1.866,2.354,3.382,5.263,3.382c1.799,0,3.413-0.606,4.369-1.516c1.984,0.171,4.286,0.682,5.972,1.999
		c1.85,1.393,2.765,3.515,2.765,6.489c0,6.328-1.429,15.963-5.448,24.034c-0.586,1.232-1.233,2.368-1.902,3.42
		c-0.874,0.114-1.706,0.54-2.251,1.269c-4.112,5.514-9.426,8.318-15.737,8.318c-6.024-0.199-11.081-3.003-15.059-8.318
		c-0.535-0.729-1.367-1.156-2.241-1.251c-0.678-1.071-1.316-2.179-1.902-3.41c-4.019-8.071-5.438-17.716-5.438-24.044
		c0-2.965,0.894-5.087,2.734-6.499c1.706-1.326,3.988-1.838,6.003-2.008c0.925,0.909,2.529,1.516,4.369,1.516
		c2.888,0,5.242-1.497,5.242-3.354c0-1.866-2.354-3.344-5.242-3.344c-1.758,0-3.351,0.54-4.297,1.421
		c-2.734,0.171-6.054,0.872-8.665,2.861c-2.806,2.141-4.225,5.286-4.225,9.407c0,6.736,1.778,19.733,7.977,29.472
		c-0.298,0.843-0.175,1.781,0.401,2.577c4.389,5.893,10.115,9.474,16.745,10.544v19.023l3.139,1.759L133.918,152.861z"/>
</g>
</svg>
