<?xml version="1.0" encoding="utf-8"?>
<!-- Generator: Adobe Illustrator 24.3.0, SVG Export Plug-In . SVG Version: 6.00 Build 0)  -->
<svg version="1.1" id="Layer_7" xmlns="http://www.w3.org/2000/svg" xmlns:xlink="http://www.w3.org/1999/xlink" x="0px" y="0px"
	 viewBox="0 0 247.115 251.046" enable-background="new 0 0 247.115 251.046" xml:space="preserve">
<g>
	<path fill="#1A237E" d="M130.533,17.843c26.185-0.429,50.113,17.614,57.478,43.132c0.616,2.134,1.624,3.654,3.405,5.067
		c21.01,16.671,18.813,48.497-4.275,62.081c-1.598,0.94-2.375,2.123-2.975,3.723c-13.537,36.098-27.097,72.187-40.656,108.278
		c-3.033,8.073-9.402,11.796-16.757,9.776c-4.46-1.225-7.17-4.202-8.769-8.481c-7.33-19.614-14.737-39.199-22.106-58.798
		c-6.361-16.917-12.732-33.83-19.027-50.772c-0.688-1.852-1.777-3.037-3.447-4.05c-23.249-14.097-24.787-46.374-2.993-62.657
		c1.199-0.896,1.75-1.94,2.18-3.32c7.451-23.902,23.533-38.297,48.006-43.367c1.531-0.317,3.104-0.498,4.666-0.587
		C127.015,17.766,128.776,17.843,130.533,17.843z"/>
	<path fill="#1A237E" d="M132.613,2.49c-0.244,1.835-1.672,1.963-3.253,1.988c-10.016,0.163-19.61,2.265-28.698,6.492
		c-18.746,8.718-31.75,22.816-39.206,42.07c-0.2,0.516-0.392,1.037-0.554,1.566c-0.459,1.5-1.322,2.598-3.011,2.048
		c-1.913-0.622-1.656-2.105-1.119-3.647c4.305-12.373,11.231-23.058,20.848-31.931C92.196,7.627,109.414,0.53,129.288,0.038
		C131.64-0.021,132.69,0.768,132.613,2.49z"/>
	<path fill="#1A237E" d="M26.108,133.168c0-35.164,13.23-8.358,1.804,3.655c11.426-12.014,41.008-7.715,4.034,0.586
		c36.974-8.301,15.568,12.565-2.919,2.845c18.487,9.719,23.54,39.182,0.689,4.018c22.851,35.164-3.608,21.254-3.608-1.897
		c0,23.151-26.459,37.061-3.608,1.897c-22.851,35.164-17.798,5.702,0.689-4.018c-18.487,9.719-39.893-11.147-2.919-2.845
		c-36.974-8.301-7.392-12.6,4.034-0.586C12.878,124.81,26.108,98.004,26.108,133.168z"/>
	<path fill="#1A237E" d="M218.379,24.383c0-35.164,13.23-8.358,1.804,3.655c11.426-12.014,41.008-7.715,4.034,0.586
		c36.974-8.301,15.568,12.565-2.919,2.845c18.487,9.719,23.54,39.182,0.689,4.018c22.851,35.164-3.608,21.254-3.608-1.897
		c0,23.151-26.459,37.061-3.608,1.897c-22.851,35.164-17.798,5.702,0.689-4.018c-18.487,9.719-39.893-11.147-2.919-2.845
		c-36.974-8.301-7.392-12.6,4.034-0.586C205.15,16.025,218.379-10.781,218.379,24.383z"/>
</g>
<g>
	<path fill="#1FB4E8" d="M208.242,225.183c4.393-8.624,8.537-16.757,12.86-25.243c3.19,6.08,6.238,11.862,9.262,17.656
		c5.345,10.243,10.642,20.511,16.042,30.725c1.032,1.952,1.246,2.712-1.499,2.703c-26.273-0.082-52.547-0.044-78.82-0.067
		c-1.184-0.001-2.995,0.723-2.092-1.966c8.596-25.6,17.028-51.002,25.433-76.213c0.114-0.342,0.319-0.654,0.688-1.397
		C196.177,189.372,202.119,207.009,208.242,225.183z"/>
	<path fill="#1FB4E8" d="M13.028,250.975c8.961-17.178,17.666-33.863,26.626-51.037c4.48,8.469,8.789,16.614,13.35,25.238
		c5.945-18.118,11.718-35.713,17.521-53.398c1.069,0.72,1.069,1.806,1.365,2.69c8.202,24.509,16.372,49.029,24.544,73.548
		c0.982,2.947,0.973,2.958-2.172,2.959c-26.072,0.002-52.145,0.001-78.217,0.001C15.218,250.975,14.391,250.975,13.028,250.975z"/>
	<path fill="#1FB4E8" d="M182.922,60.878c-9.352-3.772-18.46-4.19-27.666-0.955c-14.649,5.149-25.267,19.797-25.112,34.61
		c0.016,1.501,0.172,2.985,1.967,3.102c1.93,0.126,2.401-1.36,2.481-2.983c0.009-0.185,0.011-0.37,0.017-0.555
		c0.247-7.903,3.041-14.821,8.379-20.604c8.969-9.717,20.05-13.506,32.899-10.172c12.75,3.308,20.982,11.768,24.253,24.535
		c3.444,13.443-2.146,27.238-13.682,35.191c-1.353,0.933-2.708,1.366-4.368,1.364c-34.605-0.036-69.21-0.03-103.816-0.015
		c-1.227,0.001-2.32-0.168-3.416-0.833c-18.194-11.038-20.728-38.342-4.834-52.406c0.124-0.11,0.315-0.144,0.866-0.385
		c-0.146,2.052-0.299,3.916-0.405,5.781c-0.091,1.598,0.205,3.175,2.107,3.309c2.003,0.141,2.257-1.431,2.327-3.039
		c0.684-15.57,6.423-28.901,17.862-39.588c9.209-8.604,20.138-13.257,32.726-14.658C150.232,19.825,175.85,36.569,182.922,60.878z"
		/>
</g>
<g>
	<path fill="#FE9F00" d="M145.376,222.434c-8.93-8.758-17.744-17.329-26.473-25.985c-6.502-6.447-12.89-13.008-19.341-19.506
		c-0.984-0.991-1.848-2.015-2.354-3.365c-5.374-14.345-10.783-28.678-16.171-43.018c-0.186-0.494-0.249-1.035-0.41-1.733
		c2.562,0,4.961,0.051,7.356-0.023c1.071-0.033,1.697,0.536,2.36,1.2c21.248,21.263,42.5,42.523,63.759,63.775
		c0.806,0.806,1.553,1.512,1.039,2.855C151.852,205.245,148.61,213.875,145.376,222.434z"/>
	<path fill="#FE9F00" d="M96.053,128.827c12.235,0,24.331,0.013,36.427-0.022c1.084-0.003,1.681,0.602,2.334,1.255
		c10.524,10.533,21.047,21.067,31.578,31.592c0.742,0.742,1.378,1.387,0.905,2.624c-3.321,8.692-6.587,17.405-9.819,25.975
		C137.019,169.793,116.638,149.412,96.053,128.827z"/>
	<path fill="#FE9F00" d="M102.145,186.648c9.759,9.572,19.663,19.259,29.531,28.983c3.422,3.372,6.709,6.881,10.154,10.228
		c1.212,1.178,1.6,2.157,0.877,3.83c-1.461,3.381-2.593,6.902-3.956,10.327c-1.56,3.917-4.557,5.968-8.467,5.949
		c-3.881-0.019-6.557-1.929-8.08-5.967C115.472,222.154,108.777,204.298,102.145,186.648z"/>
	<path fill="#FE9F00" d="M140.966,128.924c12.8,0,25.982,0,39.565,0c-3.681,9.817-7.294,19.454-10.798,28.799
		C160.139,148.118,150.513,138.481,140.966,128.924z"/>
</g>
</svg>
