<?xml version="1.0" encoding="utf-8"?>
<!-- Generator: Adobe Illustrator 24.3.0, SVG Export Plug-In . SVG Version: 6.00 Build 0)  -->
<svg version="1.1" id="Layer_4" xmlns="http://www.w3.org/2000/svg" xmlns:xlink="http://www.w3.org/1999/xlink" x="0px" y="0px"
	 viewBox="0 0 200.844 220.247" enable-background="new 0 0 200.844 220.247" xml:space="preserve">
<g>
	<path fill="#ED1C24" d="M104.704,130.315c-0.742-6.512,1.795-12.46,4.572-20.152c0.875,4.718,2.34,8.072,3.614,7.926
		c1.541-0.178,2.213-5.428,1.496-11.731c-1.744-15.415-3.075-27.666,5.644-34.99c0,0-4.299,8.256,1.82,22.568
		c5.91,13.805,27.171,32.118,11.769,56.074c17.933-6.138,29.695-21.915,14.902-64.336c-0.805,7.622-12.638,25.51-12.467-14.026
		c0.165-38.287-36.29-50.469-36.29-50.469c22.568,23.069,1.706,21.078,1.706,46.943c0,9.797-1.103,12.067-5.219,12.549
		c-2.511,0.285-5.079-2.403-6.95-6.76c-3.9,9.176-3.126,20.691,2.429,34.806c8.434,21.471-7.064,15.339-13.158,10.494
		c2.536,28.605,41.394,36.67,41.394,36.67C114.545,151.862,106.207,143.632,104.704,130.315"/>
	<path fill="#ED1C24" d="M142.161,153.092c0,0,26.322-8.199,22.302-47.888c-3.006-29.67-7.698-63.721,31.94-51.908
		c0,0-25.713,0.913-24.299,44.064C173.251,132.18,164.817,149.922,142.161,153.092"/>
	<path fill="#ED1C24" d="M169.227,144.427c0,0,15.343-4.779,12.999-27.913c-1.752-17.294-4.487-37.142,18.617-30.256
		c0,0-14.988,0.532-14.163,25.684C187.349,132.237,182.434,142.579,169.227,144.427"/>
	<path fill="#ED1C24" d="M151.197,6.931c0,0-15.041,11.046-6.145,32.91s0.127,28.281,0.127,28.281s1.452-8.89-7.026-23.139
		C129.669,30.741,130.62,14.045,151.197,6.931"/>
	<path fill="#ED1C24" d="M166.596,0c0,0-8.675,6.371-3.544,18.982s0.073,16.312,0.073,16.312s0.838-5.128-4.052-13.346
		C154.179,13.734,154.728,4.104,166.596,0"/>
	<path fill="#ED1C24" d="M182.918,3.921c0,0-5.802,4.261-2.37,12.695c3.432,8.434,0.049,10.909,0.049,10.909s0.56-3.429-2.71-8.926
		C174.614,13.106,174.98,6.666,182.918,3.921"/>
	<path fill="#ED1C24" d="M69.067,68.122c0,0-2.93,11.775,9.499,25.567c12.435,13.785,5.498,21.896,5.498,21.896
		s-0.063-10.716-10.843-17.026C60.862,91.33,58.091,79.339,69.067,68.122"/>
	<path fill="#ED1C24" d="M84.316,30.304c0,0-3.541,7.651,3.133,18.69c6.68,11.035,0.884,15.661,0.884,15.661
		s1.36-7.321-5.169-13.038C75.678,45.065,75.357,36.52,84.316,30.304"/>
</g>
<g>
	<path fill="#110F10" d="M38.028,81.971c13.107,15.193,23.411,44.831,39.885,62.732c14.527,15.789,50.69,28.554,91.368,6.17
		c0,0-3.652,46.455-47.336,46.455c-19.822,0-40.786-13.919-46.575-45.244c0,0-64.99-87.031-71.407-33.411
		c0,0-7.216-19.879-2.175-33.589C8.593,66.594,27.876,70.202,38.028,81.971"/>
	<path fill="#110F10" d="M153.3,208.516c-35.817,10.992-73.586-6.288-89.399-39.121c0.413,3.277,1.111,6.566,2.112,9.829
		c9.396,30.616,41.777,47.84,72.316,38.468c7.659-2.351,14.478-6.153,20.242-11.014C156.855,207.349,155.092,207.966,153.3,208.516"
		/>
	<path fill="#110F10" d="M19.442,60.519c12.708,0,23.608,8.053,28.288,19.537c-1.167-13.38-11.94-23.868-25.06-23.868
		c-7.413,0-14.077,3.354-18.687,8.681C8.529,62.104,13.805,60.519,19.442,60.519"/>
</g>
</svg>
