<?xml version="1.0" encoding="utf-8"?>
<!-- Generator: Adobe Illustrator 24.3.0, SVG Export Plug-In . SVG Version: 6.00 Build 0)  -->
<svg version="1.1" id="Layer_2" xmlns="http://www.w3.org/2000/svg" xmlns:xlink="http://www.w3.org/1999/xlink" x="0px" y="0px"
	 viewBox="0 0 260.703 219.092" enable-background="new 0 0 260.703 219.092" xml:space="preserve">
<g>
	<path fill="#D5FC77" d="M125.577,219.092c-9.532,0-19.491-3.694-30.42-11.282c-9.338-6.481-17.639-14.579-25.217-22.365
		c-19.654-20.187-37.654-60.522-43.103-76.446c-1.918,1.04-4.188,1.115-6.45,0.198c-3.329-1.345-6.512-4.682-9.465-9.915
		C7.35,92.96,4.216,83.984,1.602,72.605c-4.157-18.08,0.824-21.915,3.161-22.722c2.103-0.727,4.673-0.088,7.239,1.816
		c2.539,1.874,4.85,4.832,6.507,8.324c0.992,2.315,2.306,3.32,3.038,3.095c1.005-0.3,1.768-2.852,0.622-9.042
		c-0.516-2.799-0.458-4.488,0.19-5.312c0.282-0.357,0.661-0.551,1.129-0.582c1.164-0.071,2.363,1.129,4.175,2.945
		c3.655,3.655,9.179,9.183,19.081,9.077l1.803-0.022l-1.605,0.824c-0.04,0.022-2.945,1.534-5.154,3.567
		c2.288-1.649,4.554-2.588,7.186-2.403l1.362,0.093l-1.173,0.697c-0.128,0.079-0.265,0.159-0.406,0.242
		c-1.684,0.992-3.699,2.173-4.523,4.268c1.975-2.288,4.735-3.743,7.213-3.677l1.715,0.044l-1.534,0.763
		c-1.561,0.78-2.711,2.491-3.161,4.087c2.015-2.786,5.163-4.334,7.609-4.457l2.747-0.137l-2.57,0.965
		c-1.583,0.591-2.685,2.601-3.042,4.611c1.636-2.601,3.236-4.215,6.591-4.673l2.019-0.273l-1.737,1.062
		c-0.882,0.538-1.944,2.447-2.442,4.272c1.353-2.306,3.346-4.104,5.396-4.757l1.517-0.481l-1.071,1.177
		c-0.595,0.652-1.177,2.187-1.446,3.664c0.97-2.121,2.557-4.056,4.766-4.479l1.464-0.282l-1.093,1.014
		c-1.12,1.036-1.622,3.02-1.331,4.885c1.252-2.945,2.35-5.22,4.532-5.828l1.036-0.287l-0.56,0.921
		c-0.882,1.455-1.702,3.465-1.085,5.317c0.869-3.117,2.112-6.119,4.422-6.82l1.252-0.384l-0.785,1.049
		c-1.19,1.583-1.314,2.619-0.864,3.571c0.525-2.755,1.794-4.268,4.201-5.105l1.204-0.419l-0.705,1.058
		c-0.564,0.851-0.71,2.085-0.428,3.39c0.009-0.026,0.018-0.053,0.031-0.079c0.705-2.024,1.512-4.316,4.334-4.841l0.895-0.163
		l-0.441,0.794c-0.705,1.27-1.221,2.345-1.098,3.633c0.013-0.035,0.022-0.066,0.031-0.097c0.833-2.711,1.292-4.206,5.092-4.929
		l1.644-0.313l-1.292,1.062c-0.921,0.754-1.331,1.499-1.481,2.394c1.499-1.86,3.91-3.333,6.52-3.906
		c2.2-0.485,4.281-0.282,5.996,0.569c-1.913-3.972-4.841-6.274-9.122-7.199c-4.365-0.939-9.668-0.432-15.805,0.154
		c-12.979,1.239-29.124,2.782-45.043-9.188l-1.199-0.899l1.499,0.132c6.163,0.56,17.383-3.284,25.116-6.75
		c6.335-2.835,12.728-4.184,19.001-4.016c5.7,0.154,11.11,1.605,15.651,4.197c6.538,3.73,10.823,9.532,11.886,16.03
		c1.177-1.746,2.262-4.836,2.381-8.601c0.11-3.496-0.582-8.694-4.492-13.583c-6.141-7.68-16.338-12.741-27.973-13.887
		c-6.855-0.675-14.134-0.013-21.642,1.957c-8.394,2.209-17.066,6.071-25.773,11.476l-0.829,0.516l0.181-0.957
		c1.309-6.93,6.234-12.481,14.646-16.484c6.661-3.179,15.483-5.255,24.834-5.855c12.128-0.78,23.357,0.908,32.474,4.889
		c8.354,3.646,14.646,9.152,17.718,15.505c4.519,9.342,4.651,31.769,4.722,43.822c0.009,1.287,0.018,2.464,0.026,3.5
		c0.212,18.865-5.709,28.696-9.249,34.573c-0.304,0.507-0.591,0.988-0.86,1.442c-2.98,5.092-3.02,9.567-0.097,11.969
		c2.204,1.808,3.426,0.943,4.841-0.057c1.049-0.745,2.24-1.583,3.791-0.983c1.027,0.392,1.966,1.071,2.954,1.794
		c2.773,2.019,5.392,3.924,10.03-0.163c1.781-1.569,3.183-2.226,4.545-2.143c1.856,0.123,3.527,1.622,5.467,3.84l0.503,0.573
		l-0.749,0.128c-5.603,0.961-9.492,3.381-11.564,7.195c-2.5,4.594-1.711,10.105-0.278,13.429l-0.785,0.335
		c-1.512-3.496-2.337-9.307,0.309-14.169c2.107-3.88,5.947-6.401,11.418-7.49c-1.856-2.032-3.148-2.905-4.378-2.985
		c-1.12-0.071-2.328,0.52-3.924,1.927c-5.154,4.541-8.31,2.244-11.101,0.212c-0.939-0.683-1.83-1.331-2.755-1.689
		c-1.124-0.432-1.984,0.176-2.989,0.886c-1.411,1.001-3.174,2.244-5.881,0.018c-3.271-2.689-3.306-7.574-0.093-13.058
		c0.269-0.459,0.555-0.939,0.864-1.45c3.492-5.797,9.333-15.501,9.126-34.123c-0.009-1.036-0.018-2.213-0.026-3.505
		c-0.071-11.983-0.203-34.291-4.638-43.456c-2.98-6.172-9.122-11.529-17.291-15.095c-8.989-3.924-20.081-5.59-32.073-4.819
		C52.42,9.875,43.709,11.925,37.14,15.05c-7.746,3.694-12.441,8.707-13.962,14.91c8.495-5.18,16.951-8.897,25.156-11.052
		c7.605-2.002,14.985-2.667,21.942-1.984c11.864,1.168,22.273,6.344,28.559,14.205c4.074,5.092,4.792,10.501,4.678,14.143
		c-0.128,4.065-1.384,7.962-3.205,9.924l-0.635,0.688l-0.106-0.93c-0.736-6.631-4.969-12.609-11.599-16.391
		c-4.422-2.522-9.695-3.937-15.25-4.087c-6.146-0.172-12.415,1.159-18.627,3.941c-2.676,1.199-15.796,6.873-24.12,6.882
		c15.285,10.872,30.79,9.39,43.315,8.191c12.291-1.177,22.004-2.103,26.342,8.822l0.573,1.437l-1.23-0.943
		c-1.689-1.292-3.994-1.702-6.494-1.155c-2.958,0.652-5.634,2.531-6.811,4.788l-0.741,1.415l-0.066-1.596
		c-0.057-1.345,0.079-2.46,0.816-3.492c-2.019,0.657-2.35,1.737-3.042,3.994c-0.141,0.45-0.295,0.961-0.481,1.512l-0.366,1.089
		l-0.436-1.062c-0.785-1.909-0.414-3.373,0.3-4.832c-1.596,0.705-2.16,2.31-2.755,3.999c-0.145,0.423-0.3,0.864-0.472,1.287
		l-0.401,0.979l-0.392-0.979c-0.617-1.525-0.727-3.046-0.353-4.281c-1.697,0.904-2.509,2.42-2.804,5.083l-0.11,1.018l-0.648-0.798
		c-1.045-1.292-1.292-2.495-0.714-3.888c-1.305,1.428-2.116,4.043-2.703,6.353l-0.238,0.935l-0.529-0.807
		c-1.318-1.984-0.891-4.201-0.057-5.991c-1.252,0.983-2.076,2.936-3.13,5.436l-0.626,1.481l-0.375-1.018
		c-0.701-1.913-0.542-4.14,0.313-5.744c-1.83,1.089-3.117,3.558-3.65,5.868l-0.388,1.675l-0.441-1.662
		c-0.406-1.517,0.123-4.082,0.908-5.758c-1.997,1.129-3.796,3.39-4.704,5.996l-0.578,1.644l-0.251-1.719
		c-0.265-1.772,0.736-4.744,1.997-6.441c-2.663,0.78-3.884,2.676-5.515,5.498l-0.723,1.252l-0.075-1.446
		c-0.101-2.024,0.63-4.484,2.019-5.996c-2.266,0.727-4.708,2.539-6.013,5.286l-0.626,1.336l-0.185-1.468
		c-0.207-1.728,0.71-4.197,2.407-5.771c-2.279,0.551-4.611,2.319-6.044,4.708l-0.86,1.428l0.062-1.666
		c0.128-3.232,2.328-4.991,4.334-6.229c-2.738,0.339-5.163,2.068-7.839,4.523l-1.393,1.279l0.705-1.75
		c1.04-2.575,4.444-4.924,6.379-6.088c-9.307-0.472-14.782-5.952-18.12-9.298c-1.534-1.534-2.742-2.742-3.527-2.698
		c-0.22,0.018-0.375,0.093-0.503,0.256c-0.326,0.414-0.595,1.556-0.022,4.629c1.076,5.811,0.635,9.461-1.217,10.021
		c-1.34,0.406-2.98-1.027-4.065-3.567C14.51,53.6,8.938,49.341,5.04,50.69c-4.404,1.53-5.379,9.651-2.606,21.726
		c2.703,11.776,8.676,32.104,18.274,35.988c2.182,0.886,4.36,0.745,6.128-0.401l0.463-0.3l0.176,0.525
		c5.22,15.501,23.313,56.325,43.077,76.622c7.552,7.755,15.818,15.818,25.094,22.264c11.048,7.667,21.069,11.308,30.627,11.119
		c9.999-0.194,20.02-4.29,30.64-12.521c9.113-7.058,17.141-16.021,23.586-23.225l0.344-0.379
		c7.847-8.716,15.779-19.932,22.938-32.448c6.507-11.366,12.26-23.538,16.647-35.225c-0.833-0.961-4.532-5.343-7.98-11.335
		c-3.602-6.26-7.671-15.62-6.56-24.618l0.846,0.101c-1.08,8.764,2.91,17.93,6.445,24.076c3.853,6.692,8.015,11.352,8.059,11.401
		l0.172,0.19l-0.093,0.242c-4.413,11.802-10.219,24.111-16.793,35.595c-7.191,12.56-15.161,23.829-23.048,32.589l-0.339,0.379
		c-6.472,7.23-14.527,16.228-23.701,23.331c-10.77,8.346-20.963,12.503-31.147,12.697
		C126.053,219.092,125.815,219.092,125.577,219.092"/>
	<path fill="#D5FC77" d="M110.597,161.854l0.198-0.198l0.234,0.154c6.684,4.426,14.042,5.802,19.685,3.686
		c4.078-1.53,7.318-2.539,11.815-1.543c2.764,0.613,9.796,1.358,14.456-0.979c-1.887,0.573-3.924,0.763-5.762,0.763
		c-0.622,0-1.217-0.022-1.786-0.057c-3.88-0.238-8.244-1.265-11.388-2.685c-3.734-1.684-7.349-2.434-10.647-2.632
		c-0.238,1.054-0.719,1.944-1.53,2.504c-4.642,3.214-10.144,2.213-13.746,0.212l-0.586-0.326l0.613-0.282
		c2.046-0.943,7.609-3.113,14.698-2.822c0.494-3.531-1.415-8.866-1.755-9.774c-1.574,0.119-3.187-0.648-4.889-1.459
		c-2.182-1.04-4.435-2.116-6.952-1.53c-3.179,0.745-7.005,4.052-8.509,5.436c-3.174,2.941-12.847,11.33-15.893,12.357l-0.71,0.238
		c1.979,0.45,6.393,1.045,10.801,1.146C104.887,164.204,109.027,163.419,110.597,161.854"/>
	<path fill="#D5FC77" d="M113.083,160.805c3.408,1.675,8.271,2.354,12.397-0.498c0.639-0.441,1.027-1.137,1.243-1.979
		C120.472,158.089,115.451,159.8,113.083,160.805"/>
	<path fill="#D5FC77" d="M127.521,157.684c3.351,0.212,7.019,0.983,10.81,2.689c5.921,2.667,16.66,4.206,21.757,0.309
		c-0.278-0.004-0.22,0.044-0.71-0.031c-2.134-0.3-4.867-2.993-8.028-6.102c-4.647-4.576-10.418-10.255-16.775-10.255
		c-0.079,0-0.163,0-0.247,0.004c-2.389,0.057-4.016,1.08-5.454,1.988c-1.001,0.635-1.953,1.234-3.086,1.486
		C126.256,149.034,128.002,154.069,127.521,157.684"/>
	<path fill="#D5FC77" d="M160.013,161.576c-1.962,2.156-5.18,3.373-9.567,3.628c-3.408,0.198-6.675-0.273-8.068-0.582
		c-4.312-0.957-7.455,0.022-11.427,1.512c-1.816,0.683-3.805,1.018-5.881,1.018c-4.541,0-9.527-1.592-14.196-4.625
		c-4.193,3.642-18.86,1.997-22.956,1.036c0.229,0.273,0.529,0.613,0.763,0.833c2.253,2.156,7.521,7.204,14.438,11.696
		c8.39,5.445,16.303,8.205,23.538,8.205c0.238,0,0.476-0.004,0.71-0.013c9.695-0.242,17.912-6.177,23.101-11.119
		c4.647-4.422,8.262-9.633,9.558-11.599C160.022,161.568,160.018,161.572,160.013,161.576"/>
	<path fill="#D5FC77" d="M188.837,55.473l0.304,0.798c-9.386,3.531-18.574,10.572-23.979,18.375l-0.701-0.489
		C169.955,66.222,179.297,59.062,188.837,55.473z M175.633,85.977l-0.816-0.251c2.288-7.429,8.138-19.129,13.967-25.852l0.648,0.56
		C183.675,67.068,177.895,78.632,175.633,85.977z M157.328,70.286c0.19,2.059,2.204,7.587,5.506,12.635
		c2.874,4.395,7.574,9.77,13.636,10.413c4.369,0.463,8.081-4.237,10.426-8.266c2.751-4.726,4.841-10.629,5.687-14.377
		c1.071-4.744,1.931-11.59,1.146-16.572c-0.472-2.993-1.481-2.963-4.184-2.888c-0.441,0.013-0.943,0.026-1.481,0.026
		c-0.789,0-3.902,0.198-8.072,0.719c-5.573,1.882-11.044,3.888-15.161,6.397C159.281,61.751,156.901,65.538,157.328,70.286"/>
	<path fill="#D5FC77" d="M237.729,74.157l-0.705,0.489c-5.401-7.803-14.584-14.844-23.974-18.375l0.304-0.798
		C222.894,59.062,232.231,66.222,237.729,74.157z M226.553,85.977c-2.262-7.345-8.041-18.909-13.795-25.544l0.644-0.56
		c5.833,6.723,11.683,18.424,13.971,25.852L226.553,85.977z M212.683,51.232c-0.392-0.013-0.749-0.022-1.076-0.022
		c-1.909,0-2.707,0.348-3.108,2.91c-0.785,4.982,0.079,11.824,1.151,16.572c0.846,3.747,2.932,9.651,5.687,14.377
		c2.345,4.03,6.053,8.729,10.422,8.266c6.066-0.644,10.766-6.018,13.64-10.413c3.302-5.048,5.317-10.576,5.502-12.635
		c0.432-4.748-1.953-8.535-7.504-11.912c-4.118-2.509-9.589-4.514-15.161-6.397c-4.171-0.52-7.283-0.719-8.072-0.719
		C213.631,51.259,213.129,51.246,212.683,51.232"/>
	<path fill="#D5FC77" d="M201.208,45.871c-0.525,0-1.014-0.19-1.42-0.511c-1.398,5.114-2.112,14.734-1.816,24.636
		c0.295,9.88,1.49,17.577,3.143,20.355c1.292-2.169,2.306-7.34,2.83-14.209c0.084-0.899,0.251-4.052,0.313-6.146
		c0.295-9.831-0.406-19.38-1.786-24.521C202.103,45.726,201.671,45.871,201.208,45.871"/>
	<path fill="#D5FC77" d="M189.296,38.782l-0.613,0.595c-9.298-9.448-20.752-17.084-27.263-19.742l0.326-0.789
		c5.145,2.099,10.739,5.899,14.527,8.716C180.968,31.054,185.716,35.141,189.296,38.782z M188.947,43.059
		c-12.256-5.061-23.807-4.845-28.198-4.514c-0.216,0.018-0.309,0.026-0.366,0.026v-0.86c0.044,0,0.145-0.004,0.3-0.018
		c4.457-0.335,16.162-0.555,28.59,4.581L188.947,43.059z M172.635,16.69c-9.038-6.948-14.28-7.799-16.294-7.799
		c-0.075,0-0.15,0-0.216,0.004c-1.393,0.044-2.389,0.489-2.896,1.283c-1.415,2.235,0.071,4.788,1.79,7.742
		c0.846,1.455,1.719,2.958,2.288,4.523c2.42,6.666,0.688,9.849-0.988,12.926c-0.476,0.873-0.965,1.772-1.345,2.738
		c-1.067,2.703-0.913,4.854,0.45,6.397c2.469,2.791,9.025,3.827,18.953,2.989c7.614-0.639,15.906-2.27,21.325-3.633
		c-0.529-1.151-2.054-4.378-4.369-8.584C184.953,27.602,178.6,21.28,172.635,16.69"/>
	<path fill="#D5FC77" d="M225.914,27.562c3.791-2.817,9.382-6.617,14.531-8.716l0.322,0.789
		c-6.507,2.658-17.965,10.294-27.263,19.742l-0.608-0.595C216.475,35.141,221.223,31.054,225.914,27.562z M241.803,37.711v0.86
		c-0.057,0-0.145-0.009-0.362-0.026c-4.395-0.331-15.942-0.547-28.198,4.514l-0.326-0.785c12.424-5.136,24.133-4.916,28.59-4.581
		C241.662,37.707,241.763,37.711,241.803,37.711z M227.854,47.494c9.933,0.838,16.484-0.198,18.953-2.989
		c1.367-1.543,1.517-3.694,0.45-6.397c-0.379-0.965-0.868-1.865-1.345-2.738c-1.671-3.077-3.403-6.26-0.983-12.926
		c0.564-1.565,1.437-3.068,2.284-4.523c1.724-2.954,3.205-5.506,1.794-7.742c-0.507-0.794-1.508-1.239-2.896-1.283
		c-1.843-0.062-7.129,0.578-16.515,7.795c-5.965,4.589-12.318,10.911-18.697,18.587c-2.315,4.206-3.836,7.433-4.369,8.584
		C211.952,45.223,220.24,46.854,227.854,47.494"/>
	<path fill="#D5FC77" d="M205.114,70.022c-0.062,2.112-0.163,4.113-0.304,5.991c1.186,2.941,9.893,23.974,17.37,26.558
		c2.689,0.926,6.701-0.265,11.295-3.351c4.422-2.971,8.989-7.481,12.538-12.375c3.342-4.611,5.608-9.28,6.551-13.499
		c1.067-4.788,0.419-8.782-1.935-11.873c-2.482-3.262-9.166-6.044-19.332-8.05c-1.596-0.313-3.165-0.586-4.669-0.824
		c4.14,1.495,8.059,3.121,11.216,5.048c5.78,3.518,8.368,7.68,7.909,12.719c-0.379,4.184-7.953,22.55-19.901,23.82
		c-0.229,0.022-0.454,0.035-0.683,0.035c-3.597,0-7.235-2.998-10.572-8.72c-2.799-4.81-4.92-10.81-5.78-14.624
		c-1.089-4.823-1.966-11.789-1.159-16.89c0.586-3.739,2.266-3.69,5.052-3.611c0.458,0.013,0.935,0.026,1.455,0.026
		c0.578,0,2.085,0.088,4.197,0.287c-2.998-0.992-6.08-2.019-8.95-3.099l-3.611-1.362l3.822,0.538
		c3.783,0.533,7.23,1.089,10.572,1.631c8.055,1.301,15.007,2.425,22.101,2.425c7.16,0,11.537-1.86,13.01-5.528
		c1.481-3.677,0.348-7.38-0.749-10.96c-0.419-1.362-0.846-2.773-1.133-4.166c-1.204-5.934-0.242-10.105,3.302-14.399
		c3.201-3.866,4.479-7.204,3.8-9.915c-0.723-2.892-3.531-4.179-4.091-4.413c-5.969-2.46-12.305-1.768-18.825,2.059
		c-5.264,3.09-10.66,8.213-16.039,15.227c-3.245,4.223-6.088,8.645-8.416,12.591c5.436-6.199,10.814-11.379,15.92-15.302
		c6.763-5.202,12.979-8.112,17.061-7.975c1.689,0.053,2.927,0.639,3.589,1.684c1.693,2.672,0.009,5.564-1.772,8.628
		c-0.824,1.42-1.68,2.888-2.222,4.382c-2.288,6.304-0.723,9.183,0.935,12.23c0.485,0.895,0.988,1.816,1.389,2.83
		c1.19,3.024,0.988,5.471-0.604,7.274c-2.694,3.046-9.311,4.149-19.667,3.276c-7.9-0.661-16.524-2.389-21.96-3.778l-0.489-0.123
		l0.203-0.463c0.022-0.053,0.921-2.072,2.539-5.224c-1.609,2.037-3.218,4.153-4.814,6.348
		C204.708,50.355,205.418,59.869,205.114,70.022"/>
	<path fill="#D5FC77" d="M201.208,45.188c1.04,0,1.882-1.062,1.882-2.363c0-1.305-0.842-2.367-1.882-2.367
		c-1.036,0-1.882,1.062-1.882,2.367C199.325,44.126,200.172,45.188,201.208,45.188"/>
	<path fill="#D5FC77" d="M196.698,43.98l0.203,0.463l-0.489,0.123c-5.436,1.389-14.059,3.117-21.964,3.778
		c-10.356,0.873-16.973-0.229-19.663-3.276c-1.596-1.803-1.799-4.25-0.608-7.274c0.401-1.014,0.904-1.935,1.389-2.83
		c1.658-3.046,3.227-5.925,0.939-12.23c-0.547-1.495-1.398-2.963-2.226-4.382c-1.781-3.064-3.465-5.956-1.772-8.628
		c0.661-1.045,1.905-1.631,3.593-1.684c4.078-0.132,10.294,2.773,17.061,7.975c5.101,3.924,10.484,9.104,15.92,15.302
		c-2.332-3.955-5.18-8.372-8.425-12.604c-5.379-7.01-10.775-12.128-16.039-15.214c-6.516-3.827-12.847-4.519-18.821-2.059
		c-0.555,0.234-3.368,1.521-4.091,4.413c-0.679,2.711,0.6,6.049,3.8,9.915c3.549,4.294,4.506,8.465,3.302,14.399
		c-0.282,1.393-0.719,2.804-1.133,4.166c-2.231,7.283-1.477,9.152-0.749,10.96c1.473,3.668,5.85,5.528,13.014,5.528
		c7.089,0,14.046-1.124,22.096-2.425c3.337-0.542,6.794-1.098,10.572-1.631l3.822-0.538l-3.611,1.362
		c-2.87,1.08-5.947,2.107-8.945,3.099c2.107-0.198,3.619-0.287,4.193-0.287c0.525,0,1.001-0.013,1.459-0.026
		c2.782-0.079,4.466-0.128,5.052,3.611c0.802,5.101-0.071,12.066-1.159,16.89c-0.864,3.813-2.985,9.814-5.784,14.624
		c-3.545,6.088-7.437,9.091-11.255,8.685c-11.943-1.27-19.522-19.636-19.901-23.82c-0.458-5.039,2.129-9.201,7.909-12.719
		c3.161-1.927,7.076-3.553,11.22-5.048c-1.503,0.238-3.077,0.511-4.673,0.824c-10.162,2.006-16.85,4.788-19.332,8.05
		c-2.425,3.187-3.038,7.349-1.812,12.362c1.076,4.409,3.531,9.249,7.107,13.997c3.567,4.739,8.05,9.038,12.296,11.802
		c4.426,2.883,8.284,3.928,10.85,2.941c5.983-2.31,15.827-21.867,17.361-26.787c-0.128-1.812-0.225-3.739-0.287-5.767
		c-0.3-10.153,0.406-19.667,1.852-24.918c-1.6-2.196-3.205-4.312-4.814-6.344C195.772,41.908,196.676,43.927,196.698,43.98"/>
	<path fill="#D5FC77" d="M199.118,38.712c-0.829-6.093-2.588-15.272-5.044-22.766c-2.138-6.516-5.603-14.169-10.003-13.632
		l-0.106-0.846c3.99-0.494,7.667,4.29,10.92,14.214c2.473,7.548,4.246,16.788,5.079,22.916L199.118,38.712"/>
	<path fill="#D5FC77" d="M202.83,38.712l-0.846-0.115c0.833-6.128,2.601-15.369,5.074-22.916
		c3.254-9.924,6.926-14.707,10.925-14.214l-0.106,0.846c-4.4-0.542-7.869,7.116-10.003,13.632
		C205.418,23.44,203.655,32.619,202.83,38.712"/>
</g>
</svg>
