<?xml version="1.0" encoding="utf-8"?>
<!-- Generator: Adobe Illustrator 24.3.0, SVG Export Plug-In . SVG Version: 6.00 Build 0)  -->
<svg version="1.1" id="Layer_2" xmlns="http://www.w3.org/2000/svg" xmlns:xlink="http://www.w3.org/1999/xlink" x="0px" y="0px"
	 viewBox="0 0 257.198 202.522" enable-background="new 0 0 257.198 202.522" xml:space="preserve">
<g>
	<polygon fill="#06D0FF" points="230.819,43.22 230.819,4.807 177.979,4.807 177.979,20.879 128.599,0 0,54.373 0,162.003 
		17.405,162.003 17.405,65.91 128.599,18.896 195.384,47.135 195.384,22.212 213.415,22.212 213.415,54.758 239.793,65.911 
		239.793,162.003 257.198,162.003 257.198,54.373 	"/>
	<path fill="#06D0FF" d="M217.123,83.545l-13.902,11.207c-1.9-0.152-3.02-0.242-4.92-0.394l-4.268-4.746
		c0.109-1.983,0.169-3.092,0.278-5.075l15.556-13.896c0,0-29.588-13.092-35.527,18.085l-3.073,16.133l-35.265,51.719v-67.78l0.029,0
		l-0.029-5.957v-0.006l-0.007-1.377c0.117-2.267,3.867-4.09,8.429-4.09c2.191,0,7.859,1.621,8.144,3.735l0.037,7.654l17.244-0.082
		l-0.181-38.035l0,0l0-0.009l-7.658,0.036l0,0.009l-9.586,0.046l0.036,7.654c-0.265,2.117-5.918,3.776-8.108,3.776
		c-4.336,0-8.329-1.784-8.468-4.049l-0.035-7.34l-16.827,0.22C99.255,51.076,83.306,67.177,83.4,86.944l7.474-0.036
		c0-22.41,24.958-20.131,24.958-11.72v7.644v6.221v63.298l-10.819-17.879l2.199-1.325l-5.153-8.695l-12.281,7.399L59.789,82.076
		l-0.643-11.059l-13.696-5.293l-5.276,3.18l-1.273,14.837L48.1,89.1l29.997,49.792l-12.247,7.38l5.152,8.695l2.198-1.324
		l5.064,8.361h43.408v0h10.63l0,0h26.14l0.002,0l28.174-46.144l26.757-4.336l-4.537-5.835
		C208.838,105.689,222.262,93.335,217.123,83.545z"/>
	<rect y="167.165" fill="#06D0FF" width="257.198" height="35.357"/>
</g>
</svg>
