<?xml version="1.0" encoding="utf-8"?>
<!-- Generator: Adobe Illustrator 24.3.0, SVG Export Plug-In . SVG Version: 6.00 Build 0)  -->
<svg version="1.1" id="Layer_1" xmlns="http://www.w3.org/2000/svg" xmlns:xlink="http://www.w3.org/1999/xlink" x="0px" y="0px"
	 viewBox="0 0 299.845 313.558" enable-background="new 0 0 299.845 313.558" xml:space="preserve">
<g>
	<path fill="#3E63AE" d="M208.137,183.922c-2.039,5.114-5.093,9.817-7.286,14.91c0.103-0.082,0.195-0.174,0.287-0.256
		c-5.032,7.009-12.666,16.427-21.725,23.693c-2.736-2.142-5.995-4.058-8.659-6.19c-0.769-0.625-1.968-0.707-3.454-1.209
		c5.483-4.468,10.811-8.28,15.505-12.769c14.921-14.255,20.905-31.881,17.36-52.13c-4.673-26.685-31.911-44.711-58.893-39.659
		c-28.786,5.39-46.35,29.78-41.923,57.94c2.685,17.062,11.723,30.026,25.209,40.263c2.47,1.865,5.021,3.638,8.311,6.015
		c-3.505,1.394-6.323,2.306-8.956,3.607c-1.179,0.574-2.234,1.199-3.187,1.855l-13.793-14.726l-5.985-6.384l-0.041-0.051
		c-1.506-1.773-3.013-3.587-4.201-5.564c-11.498-19.235-12.861-40.417-11.631-62.05c0.154-2.849,0.861-5.698,0.769-8.526
		c-0.297-8.649,1.517-14.224,11.723-17.042c13.527-3.74,18.251-15.699,16.407-36.871c3.576,1.855,7.03,2.459,8.106,4.386
		c12.154,21.787,43.112,22.852,55.993-0.389c0.82-1.465,3.392-1.968,5.155-2.91c0.84,1.824,2.449,3.669,2.418,5.483
		c-0.318,19.573,4.068,25.773,23.047,32.526c1.773,0.635,4.089,2.685,4.294,4.324C216.079,136.404,217.483,160.588,208.137,183.922z
		"/>
	<path fill="#3E63AE" d="M170.482,61.358c0.038,11.825-8.55,20.62-20.229,20.717c-11.985,0.1-21.068-9.029-20.925-21.028
		c0.136-11.352,9.459-20.499,20.819-20.425C161.709,40.697,170.444,49.604,170.482,61.358z"/>
</g>
<g>
	<path fill="#F57F43" d="M128.982,251.019c-23.21-3.25-42.47-12.48-53.96-33.92c-11.03-20.58-9.08-42.48-6.36-65.19
		c-5.76,7.47-11.52,14.94-17.45,22.63c-5.9-20.33,3.26-55.26,18-69.88c5.7,2.16,11.35,4.3,17.75,6.72
		c-2.67,33.44-7.55,67.94,23.01,93.3l13.46,14.37c-7.97,5.51-7.66,13.55,1.18,20.22
		C130.042,243.359,130.042,243.359,128.982,251.019z"/>
	<linearGradient id="SVGID_1_" gradientUnits="userSpaceOnUse" x1="89.3935" y1="326.3893" x2="89.3935" y2="-15.3056">
		<stop  offset="0" style="stop-color:#F9ED32"/>
		<stop  offset="0.9832" style="stop-color:#EF4136"/>
	</linearGradient>
	<path fill="url(#SVGID_1_)" d="M74.38,83.068c0.018-8.541,6.029-14.79,14.417-14.991c8.223-0.197,15.642,7.003,15.609,15.148
		c-0.034,8.357-7.098,14.975-15.781,14.784C79.907,97.817,74.361,92.001,74.38,83.068z"/>
</g>
<g>
	<path fill="#00AAA1" d="M170.95,252.019c23.21-3.25,42.47-12.48,53.96-33.92c11.03-20.58,9.08-42.48,6.36-65.19
		c5.76,7.47,11.52,14.94,17.45,22.63c5.9-20.33-3.26-55.26-18-69.88c-5.7,2.16-11.35,4.3-17.75,6.72
		c2.67,33.44,7.55,67.94-23.01,93.3l-13.46,14.37c7.97,5.51,7.66,13.55-1.18,20.22C169.89,244.359,169.89,244.359,170.95,252.019z"
		/>
	<path fill="#00AAA1" d="M210.398,97.96c-8.433-0.16-14.581-6.409-14.586-14.824c-0.005-8.328,7.157-15.234,15.556-15.002
		c8.204,0.226,14.616,6.893,14.512,15.089C225.769,92.143,219.476,98.132,210.398,97.96z"/>
</g>
<g>
	<path fill="#18164D" d="M299.845,147.737c-0.012,5.228-0.058,10.456-0.128,15.673c-0.047,3.602-1.882,5.519-5.507,5.635
		c-1.743,0.046-3.485,0.081-5.228,0.093c-13.338,0.058-13.384-0.86-12.42-14.104c1.406-19.112-2.277-37.829-10.189-55.163
		c-17.613-38.584-47.333-63.365-88.844-72.718c-36.063-8.121-70.22-1.685-100.078,19.937c-31.741,22.992-49.702,54.559-52.642,94.42
		c-0.987,13.396,0.743,26.141,3.253,39.072c0,0,0.012,0.012,0.012,0.023c0.372,1.975,0.93,3.567,1.766,4.798
		c2.149,5.67,6.309,15.743,12.768,26.942c-6.343,0-12.676,0.047-19.007,0.186c-6.936,0.151-10.398-2.149-13.105-9.004
		c-13.477-34.192-14.023-68.814-1.359-102.704C29.967,45.125,70.038,11.049,129.43,1.883c42.871-6.622,82.105,4.299,115.24,31.613
		C280.082,62.669,299.903,100.753,299.845,147.737z"/>
	<path fill="#18164D" d="M274.76,233.35c-4.345,6.054-5.043,11.78-3.205,18.846c4.567,17.553,8.525,35.272,12.63,52.945
		c2.124,9.153,1.681,9.628-7.68,7.098c-21.834-5.925-43.64-11.933-65.39-18.149c-6.146-1.741-11.813-2.078-18.172-0.245
		c-47.597,13.734-91.477,4.798-131.713-23.178c-12.057-8.377-22.388-18.892-30.866-31.01c-1.247-1.764-3.339-3.588-2.29-5.948
		c1.113-2.521,3.856-1.755,6.008-1.833c3.228-0.129,6.493,0.231,9.688-0.092c7.25-0.757,12.51,1.972,17.751,7.13
		c2.244,2.207,4.521,4.322,6.821,6.331c0.162,0.152,0.337,0.305,0.499,0.443c3.219,2.798,6.484,5.412,9.795,7.818
		c32.82,23.921,70.299,29.024,111.884,16.371c5.237-1.602,9.933-1.755,15.207-0.199c13.826,4.078,27.777,7.726,41.742,11.319
		c6.913,1.764,8.091,0.485,6.53-6.599c-2.355-10.69-4.401-21.46-7.481-31.938c-0.799-2.757-0.988-5.08-0.559-7.264l2.946-6.11
		l13.66-28.336h0.005l3.736-12.214c6.853-0.009,13.72,0,20.587,0.028c7.887,0.023,8.308,0.707,5.948,8.165
		C288.679,209.858,282.768,222.197,274.76,233.35z"/>
</g>
</svg>
