<?xml version="1.0" encoding="utf-8"?>
<!-- Generator: Adobe Illustrator 24.3.0, SVG Export Plug-In . SVG Version: 6.00 Build 0)  -->
<svg version="1.1" id="Layer_6" xmlns="http://www.w3.org/2000/svg" xmlns:xlink="http://www.w3.org/1999/xlink" x="0px" y="0px"
	 viewBox="0 0 208.79 227.662" enable-background="new 0 0 208.79 227.662" xml:space="preserve">
<g>
	<path fill="#0B6B9B" d="M168.058,135.006h-21.68c-0.996-11.749-10.871-21.007-22.873-21.007h-15.559V5.118
		c0-2.827-2.292-5.118-5.118-5.118C100,0,97.709,2.291,97.709,5.118v108.881h-15.56c-12.002,0-21.876,9.258-22.873,21.007h-21.68
		C16.865,135.006,0,151.872,0,172.602v2.684c0,2.827,2.292,5.118,5.118,5.118h12.65v42.139c0,2.827,2.292,5.118,5.118,5.118
		c2.827,0,5.118-2.291,5.118-5.118v-42.139h88.036v17.421c0,2.827,2.292,5.118,5.118,5.118c2.827,0,5.118-2.291,5.118-5.118v-17.421
		h51.371v42.139c0,2.827,2.292,5.118,5.118,5.118c2.827,0,5.118-2.291,5.118-5.118v-42.139h12.65c2.827,0,5.118-2.291,5.118-5.118
		v-2.684C205.654,151.872,188.788,135.006,168.058,135.006z M82.149,124.236h41.356c6.352,0,11.632,4.678,12.575,10.77H69.574
		C70.517,128.914,75.797,124.236,82.149,124.236z M10.344,170.168c1.236-13.95,12.987-24.925,27.252-24.925h26.709h77.043h26.709
		c14.266,0,26.016,10.975,27.252,24.925H10.344z"/>
	<path fill="#0B6B9B" d="M192.301,79.069h-9.508c-0.437,5.153-4.768,9.213-10.032,9.213h-6.824v47.753
		c0,1.24-1.005,2.245-2.245,2.245s-2.245-1.005-2.245-2.245V88.282h-6.824c-5.264,0-9.595-4.06-10.032-9.213h-9.508
		c-9.092,0-16.489-7.397-16.489-16.489v-1.177c0-1.24,1.005-2.245,2.245-2.245h5.548V40.677c0-1.24,1.005-2.245,2.245-2.245
		c1.24,0,2.245,1.005,2.245,2.245v18.481h38.611v-7.641c0-1.24,1.005-2.245,2.245-2.245c1.24,0,2.245,1.005,2.245,2.245v7.641h22.53
		V40.677c0-1.24,1.005-2.245,2.245-2.245c1.24,0,2.245,1.005,2.245,2.245v18.481h5.548c1.24,0,2.245,1.005,2.245,2.245v1.177
		C208.79,71.672,201.393,79.069,192.301,79.069z M154.623,83.793h18.138c2.786,0,5.102-2.052,5.515-4.723h-29.168
		C149.521,81.741,151.837,83.793,154.623,83.793z M123.131,63.648c0.542,6.118,5.696,10.932,11.952,10.932h11.714h33.79h11.714
		c6.257,0,11.41-4.813,11.952-10.932C204.253,63.648,123.131,63.648,123.131,63.648z"/>
	<path fill="#0B6B9B" d="M87.199,185.731c-2.827,0-5.118,2.291-5.118,5.118v31.694c0,2.827,2.292,5.118,5.118,5.118
		c2.827,0,5.118-2.291,5.118-5.118v-31.694C92.318,188.022,90.026,185.731,87.199,185.731z"/>
	<path fill="#0B6B9B" d="M55.043,194.886c-2.827,0-5.118,2.291-5.118,5.118v22.539c0,2.827,2.292,5.118,5.118,5.118
		c2.827,0,5.118-2.291,5.118-5.118v-22.539C60.161,197.177,57.87,194.886,55.043,194.886z"/>
	<path fill="#0B6B9B" d="M149.108,194.886c-2.827,0-5.118,2.291-5.118,5.118v22.539c0,2.827,2.292,5.118,5.118,5.118
		c2.827,0,5.118-2.291,5.118-5.118v-22.539C154.226,197.177,151.934,194.886,149.108,194.886z"/>
</g>
</svg>
