<?xml version="1.0" encoding="utf-8"?>
<!-- Generator: Adobe Illustrator 24.3.0, SVG Export Plug-In . SVG Version: 6.00 Build 0)  -->
<svg version="1.1" id="Layer_5" xmlns="http://www.w3.org/2000/svg" xmlns:xlink="http://www.w3.org/1999/xlink" x="0px" y="0px"
	 viewBox="0 0 195.28 302.966" enable-background="new 0 0 195.28 302.966" xml:space="preserve">
<g>
	<path fill="#1ECCD3" d="M45.798,236.054c-0.237-11.384,2.767-19.293,2.767-19.293c-4.969,51.582,34.358,86.205,34.358,86.205
		l1.224-1.441c18.259-21.496,18.059-33.454-0.93-55.63l-0.059-0.069l-0.057-0.07c-1.47-1.804-3.247-3.876-5.128-6.07
		c-2.977-3.471-6.054-7.059-8.4-10.155c-9.181-11.83-15.653-28.435-14.295-48.973c-11.882,14.937-19.525,33.015-20.884,51.013
		c-1.847,24.457,10.582,47.11,31.072,61.736C50.602,273.945,46.122,251.606,45.798,236.054z"/>
	<path fill="#1ECCD3" d="M42.414,287.524c-35.234-20.161-52.533-54.95-36.246-92.266c8.022-19.382,20.658-34.954,33.529-51.107
		c12.153-16.591,27.116-34.746,26.625-55.425c-0.431-9.897-5.561-19.238-10.903-28.439c5.98,1.751,11.719,4.325,16.892,8.157
		c29.838,21.754,17.542,62.565-2.383,86.354c-6.012,7.649-15.911,17.801-22.025,25.539
		C19.971,215.695,17.595,241.156,42.414,287.524L42.414,287.524z"/>
</g>
<g>
	<path fill="#079B97" d="M102.351,244.644c-35.107-8.234-51.35-60.522-34.193-100.35c8.473-20.697,21.479-37.174,34.733-54.272
		c12.545-17.588,27.94-36.792,27.918-59.097C130.604,20.245,125.68,10.05,120.541,0c5.948,2.034,11.636,4.95,16.728,9.207
		c29.381,24.182,16.141,67.875-4.35,93.031c-6.194,8.098-16.094,19.023-22.633,26.992C74.63,170.86,72.625,199.489,102.351,244.644
		L102.351,244.644z"/>
</g>
<g>
	<ellipse fill="#AED354" cx="95.244" cy="32.359" rx="24.264" ry="24.264"/>
	<ellipse fill="#AED354" cx="35.008" cy="93.532" rx="21.613" ry="21.613"/>
	<path fill="#AED354" d="M177.016,121.587c1.706-20.357-2.037-34.929-2.037-34.929c1.67,93.058-63.566,149.751-63.566,149.751
		l-1.735-2.747c-25.873-40.97-24.157-62.36,7.982-99.511l0.1-0.115l0.097-0.117c2.498-3.033,5.505-6.503,8.689-10.178
		c5.037-5.813,10.245-11.824,14.257-17.051c15.669-19.946,28.358-49.002,22.883-76.353c19.667,22.732,31.594,52.347,31.594,84.765
		c0,44.055-21.993,82.945-55.58,106.369C165.092,188.803,174.684,149.399,177.016,121.587z"/>
</g>
</svg>
