<?xml version="1.0" encoding="utf-8"?>
<!-- Generator: Adobe Illustrator 24.3.0, SVG Export Plug-In . SVG Version: 6.00 Build 0)  -->
<svg version="1.1" id="Layer_2" xmlns="http://www.w3.org/2000/svg" xmlns:xlink="http://www.w3.org/1999/xlink" x="0px" y="0px"
	 viewBox="0 0 273.971 262.857" enable-background="new 0 0 273.971 262.857" xml:space="preserve">
<g>
	
		<rect x="65.66" y="84.345" transform="matrix(0.8089 -0.5879 0.5879 0.8089 -32.177 72.6842)" fill="#FBBF1D" width="60.148" height="3"/>
	<circle fill="#FBBF1D" cx="19.086" cy="104.023" r="19.08"/>
	<polygon fill="#FBBF1D" points="73.746,114.865 107.299,107.854 92.352,153.3 69.509,127.747 35.952,134.751 50.899,89.305 	"/>
</g>
<g>
	
		<rect x="72.135" y="132.1" transform="matrix(0.9511 -0.309 0.309 0.9511 -46.7796 30.7287)" fill="#A34091" width="3.001" height="61.941"/>
	<circle fill="#A34091" cx="63.34" cy="243.037" r="19.08"/>
	<polygon fill="#A34091" points="90.499,194.378 94.169,160.297 132.797,188.521 101.448,202.378 97.77,236.461 59.142,208.236 	"/>
</g>
<g>
	<rect x="108.797" y="205.481" fill="#81B629" width="55.071" height="3"/>
	<circle fill="#81B629" cx="209.226" cy="243.775" r="19.08"/>
	<polygon fill="#81B629" points="171.305,202.943 140.013,188.949 178.768,160.898 182.29,194.992 213.58,208.994 174.825,237.045 	
		"/>
</g>
<g>
	
		<rect x="171.099" y="162.565" transform="matrix(0.3092 -0.951 0.951 0.3092 -17.8466 303.5612)" fill="#27B2E5" width="57.851" height="3.001"/>
	<circle fill="#27B2E5" cx="254.885" cy="105.217" r="19.08"/>
	<polygon fill="#27B2E5" points="204.355,128.709 181.399,154.166 166.656,108.653 200.176,115.809 223.139,90.356 237.882,135.869 
			"/>
</g>
<g>
	
		<rect x="177.112" y="56.06" transform="matrix(0.5878 -0.809 0.809 0.5878 3.9539 180.0083)" fill="#E63127" width="3" height="60.129"/>
	<circle fill="#E63127" cx="137.141" cy="19.08" r="19.08"/>
	<polygon fill="#E63127" points="143.918,74.392 161.061,104.075 113.22,104.075 130.358,74.392 113.22,44.703 161.061,44.703 	"/>
</g>
</svg>
