<?xml version="1.0" encoding="utf-8"?>
<!-- Generator: Adobe Illustrator 24.3.0, SVG Export Plug-In . SVG Version: 6.00 Build 0)  -->
<svg version="1.1" id="Layer_5" xmlns="http://www.w3.org/2000/svg" xmlns:xlink="http://www.w3.org/1999/xlink" x="0px" y="0px"
	 viewBox="0 0 262.927 262.03" enable-background="new 0 0 262.927 262.03" xml:space="preserve">
<g>
	<path fill="#5AE500" d="M49.023,123.082c0,0-10.432-24.37,18.873-26.138c-4.248,6.819,3.653,28.99-16.789,27.882
		c0,0-0.41-6.414,6.756-15.97C57.864,108.856,52.703,114.25,49.023,123.082z"/>
	<path fill="#5AE500" d="M11.827,141.395c0,0-11.388-11.637,5-19.16c-0.918,4.848,8.533,15.788-3.419,19.695
		c0,0-1.66-3.582,0.32-10.646C13.728,131.285,11.972,135.52,11.827,141.395z"/>
	<path fill="#5AE500" d="M212.709,147.32c0,0-12.605,3.814-11.87-10.753c3.134,2.472,14.514-0.213,12.846,9.819
		c0,0-3.19-0.149-7.515-4.212C206.169,142.175,208.549,145.019,212.709,147.32z"/>
	<path fill="#5AE500" d="M203.732,119.163c0,0-16.103-2.409-7.573-18.296c2.194,4.42,16.331,7.442,9.157,17.769
		c0,0-3.485-1.855-6.168-8.683C199.148,109.953,200.303,114.39,203.732,119.163z"/>
	<path fill="#5AE500" d="M212.739,116.794c0,0-9.211-9.412,4.044-15.497c-0.742,3.922,6.902,12.77-2.765,15.931
		c0,0-1.343-2.897,0.259-8.611C214.276,108.617,212.856,112.042,212.739,116.794z"/>
	<path fill="#5AE500" d="M249.597,159.355c0,0,9.154-9.468-4.138-15.473c0.766,3.917-6.824,12.812,2.862,15.913
		c0,0,1.325-2.905-0.311-8.609C248.009,151.187,249.451,154.604,249.597,159.355z"/>
</g>
<g>
	<path d="M48.659,124.944c0.285,0.169-18.503,63.583-16.153,78.994c0.3,1.971,1.658,3.867,2.813,5.607
		c9.199,13.851,21.373,24.429,35.445,33.209c11.778,7.348,23.631,14.348,36.917,18.617c0.295,0.095,0.538,0.349,0.999,0.658
		C56.459,250.861,4.837,204.516,0.326,139.609C-4.513,69.965,45.163,15.276,103.667,0C59.034,17.978,26.701,47.787,11.715,94.627
		c-0.099,0.274-0.149,0.274-0.71,2.114c-6.875,22.994-5.637,45.865,1.229,68.812c-0.975-52.287,0.611-5.181,11.749,15.777
		C28.332,180.35,46.446,128.744,48.659,124.944z"/>
	<path d="M155.825,262.03c7.376-3.319,16.65-6.911,25.39-11.548c17.086-9.065,32.171-20.799,43.724-36.812
		c2.845-3.943,4.866-8.008,5.366-13.093c1.39-14.158,1.213-28.151-2.212-42.027c-0.638-2.583-1.847-3.954-4.345-5.021
		c-4.101-1.752-7.895-4.251-11.439-7.07c4.05,1.638,8.1,3.276,12.15,4.914c0.26-0.395,0.52-0.791,0.781-1.186
		c-4.408-12.575-12.166-22.83-21.513-32.2c2.862,2.389,5.725,4.777,9.199,7.676c0-3.564,0-6.437,0-9.309
		c0.226-0.03,0.453-0.06,0.679-0.091c0.331,2.83,0.587,5.672,1.021,8.486c0.24,1.554,0.337,3.452,1.253,4.526
		c6.882,8.077,12.006,17.128,15.301,27.275c0.105,0.324,6.927,24.418,6.927,28.034c4.966-6.288,13.835-47.07,11.032-16.54
		c10.969-14.587,8.849-67.644-3.767-96.94C231.874,39.762,209.741,16.512,180.522,0c45.974,18.743,88.344,71.269,81.717,139.912
		C256.311,201.314,212.67,250.906,155.825,262.03z"/>
	<path d="M129.232,245.747c1.87-7.011,3.889-13.986,5.572-21.041c2.239-9.381,3.576-18.877,3.009-28.586
		c-0.341-5.844-1.622-11.386-4.528-16.472c-6.694-11.718-6.527-23.29,0.325-34.906c2.297-3.894,4.32-7.967,6.217-12.074
		c1.991-4.31,2.089-8.742,0.085-13.168c-1.502-3.319-3.088-6.627-4.242-10.072c-2.927-8.731,0.797-15.741,6.237-22.163
		c3.068-3.622,6.569-6.91,9.374-10.717c9.981-13.551,10.629-27.649,1.859-42.097c-0.229-0.377-0.43-0.772-0.621-1.169
		c-0.027-0.055,0.079-0.174,0.124-0.263c10.14,10.044,12.497,27.032,5.085,40.806c-2.795,5.194-6.694,9.824-10.324,14.529
		c-3.807,4.935-8.138,9.683-7.009,16.506c0.511,3.09,1.797,6.17,3.289,8.956c4.644,8.674,4.372,17.141-0.373,25.612
		c-1.998,3.567-3.996,7.134-5.975,10.711c-4.255,7.691-5.017,15.864-0.948,23.547c7.581,14.312,6.977,29.021,3.053,43.861
		c-2.551,9.646-6.188,19.004-9.339,28.491C129.811,245.942,129.521,245.845,129.232,245.747z"/>
	<path d="M148.536,53.703c-0.561-3.508-0.813-6.885-1.668-10.102c-2.876-10.825-12.702-17.166-23.913-15.66
		c-9.823,1.319-16.949,10.115-17.03,20.993c-0.075,10.181,4.239,19.01,8.205,28.052c3.832,8.736,7.928,17.577,10.03,26.8
		c3.116,13.672-1.33,25.991-10.272,36.676c2-5.721,4.445-11.29,5.875-17.109c2.762-11.235-0.438-21.677-5.345-31.749
		c-4.088-8.391-8.423-16.684-12.037-25.278c-3.281-7.805-4.531-16.101-2.286-24.512c3.746-14.034,16.822-21.907,30.736-18.65
		C144.403,26.34,151.534,38.502,148.536,53.703z"/>
	<path d="M110.769,255.945c-4.838-4.865-9.959-9.485-14.448-14.653c-6.738-7.757-12.241-16.293-14.597-26.563
		c-2.386-10.4,0.31-19.613,6.731-27.652c3.577-4.479,3.881-9.221,2.488-14.026c-2.212-7.627-4.943-15.127-7.857-22.522
		c-7.958-20.198,2.007-34.017,16.27-42.648c2.325-1.407,4.824-2.526,7.574-3.361c-1.753,1.395-3.612,2.678-5.238,4.208
		c-3.438,3.236-7.082,6.333-10.057,9.966c-7.37,9.001-8.113,19.053-4.376,29.903c2.504,7.269,4.372,14.766,6.298,22.22
		c0.577,2.234,0.39,4.666,0.552,6.994c7.259-5.453,11.283-22.508,4.284-35.582c2.729,2.308,4.887,7.713,5.464,13.075
		c0.994,9.236-1.446,17.505-6.733,25.031c-2.147,3.056-4.219,6.167-6.442,9.167c-7.759,10.475-8.054,21.577-2.96,33.189
		c4.93,11.237,12.713,20.458,20.768,29.492c0.954,1.07,1.894,2.152,2.841,3.228C111.144,255.588,110.956,255.766,110.769,255.945z"
		/>
	<path d="M154.33,255.255c3.774-4.865,7.769-9.485,11.271-14.653c5.256-7.757,9.549-16.293,11.387-26.563
		c1.861-10.4-0.242-19.613-5.251-27.652c-2.791-4.479-3.028-9.221-1.941-14.026c1.725-7.627,3.856-15.127,6.13-22.522
		c6.208-20.198-1.566-34.017-12.693-42.648c-1.814-1.407-3.763-2.526-5.908-3.361c1.368,1.395,2.818,2.678,4.086,4.208
		c2.682,3.236,5.525,6.333,7.845,9.966c5.749,9.001,6.33,19.053,3.414,29.903c-1.953,7.269-3.411,14.766-4.913,22.22
		c-0.45,2.234-0.304,4.666-0.43,6.994c-5.663-5.453-8.803-22.508-3.342-35.582c-2.129,2.308-3.813,7.713-4.263,13.075
		c-0.775,9.236,1.128,17.505,5.253,25.031c1.675,3.056,3.292,6.167,5.025,9.167c6.053,10.475,6.283,21.577,2.309,33.189
		c-3.846,11.237-9.918,20.458-16.202,29.492c-0.744,1.07-1.478,2.152-2.216,3.228C154.037,254.898,154.183,255.076,154.33,255.255z"
		/>
</g>
</svg>
