<?xml version="1.0" encoding="utf-8"?>
<!-- Generator: Adobe Illustrator 24.3.0, SVG Export Plug-In . SVG Version: 6.00 Build 0)  -->
<svg version="1.1" id="Layer_2" xmlns="http://www.w3.org/2000/svg" xmlns:xlink="http://www.w3.org/1999/xlink" x="0px" y="0px"
	 viewBox="0 0 192.836 206.271" enable-background="new 0 0 192.836 206.271" xml:space="preserve">
<g>
	<path fill="#11537F" d="M156.261,132.416c0-8.256,6.709-14.971,14.955-14.971c8.251,0,14.96,6.715,14.96,14.971
		c0,8.251-6.709,14.971-14.96,14.971C162.97,147.387,156.261,140.667,156.261,132.416z M0,117.558
		c0,48.914,39.755,88.712,88.626,88.712c18.307,0,35.877-5.544,50.816-16.024c13.182-9.245,23.485-21.712,30.022-36.264
		c0.58,0.043,1.16,0.075,1.751,0.075c11.925,0,21.621-9.712,21.621-21.642c0-11.936-9.696-21.642-21.621-21.642
		c-11.92,0-21.621,9.707-21.621,21.642c0,8.971,5.479,16.684,13.268,19.961c-13.381,28.475-42.49,47.222-74.236,47.222
		c-45.197,0-81.966-36.801-81.966-82.041c0-44.182,35.077-80.311,78.818-81.976c1.703,16.152,15.39,28.781,31.967,28.781
		c4.48,0,8.815-0.908,12.892-2.691h-0.005c1.998-0.827,3.4-2.788,3.4-5.082c0-3.035-2.455-5.495-5.49-5.495
		c-3.03,0-5.49,2.46-5.49,5.495c0,0.183,0.011,0.36,0.027,0.543c-1.735,0.371-3.518,0.559-5.334,0.559
		c-14.052,0-25.483-11.442-25.483-25.51c0-14.063,11.431-25.51,25.483-25.51c2.347,0,4.679,0.338,6.924,0.967
		c-0.048,0.285-0.075,0.575-0.075,0.87c0,3.035,2.455,5.501,5.49,5.501c3.035,0,5.49-2.466,5.49-5.501
		c0-1.934-0.999-3.626-2.509-4.609l0.005-0.011c-0.064-0.038-0.129-0.07-0.199-0.107c-0.167-0.102-0.349-0.193-0.526-0.274
		C127.549,1.214,122.521,0,117.445,0c-16.62,0-30.339,12.699-31.983,28.91C38.053,30.586,0,69.702,0,117.558"/>
	<path fill="#11537F" d="M117.713,89.242c-0.062-0.334-0.17-0.667-0.249-1.001c-0.09-0.334-0.226-0.656-0.328-0.99
		c-0.119-0.328-0.266-0.639-0.396-0.967c-0.141-0.317-0.317-0.611-0.464-0.927c-0.65-1.216-1.521-2.29-2.567-3.223
		c-1.046-0.927-2.285-1.696-3.659-2.29c-1.363-0.605-2.85-1.046-4.405-1.436c1.572-0.317,3.212-0.351,4.852-0.102
		c1.634,0.249,3.268,0.837,4.733,1.776c1.465,0.927,2.743,2.211,3.693,3.681c0.939,1.476,1.606,3.093,1.974,4.812
		c0.164,0.86,0.277,1.73,0.294,2.596c-0.006,0.435,0.011,0.871-0.034,1.301c-0.034,0.424-0.057,0.86-0.136,1.272
		c-0.249,1.691-0.729,3.285-1.34,4.79c-1.233,3.014-2.878,5.717-4.756,8.301c0.645-3.144,1.651-6.124,2.324-9.076
		C117.95,94.812,118.295,91.934,117.713,89.242z M74.414,84.922l-9.036-1.713l-2.251-0.407l-2.245-0.379
		c-0.746-0.102-1.493-0.238-2.228-0.322l-1.097-0.13l-1.052-0.068c-1.482-0.068-2.98-0.074-4.405,0.045
		c-1.436,0.107-2.822,0.351-4.111,0.792c-1.295,0.435-2.46,1.114-3.517,1.985c-0.532,0.43-1.018,0.927-1.482,1.453
		c-0.237,0.254-0.418,0.526-0.633,0.792c-0.198,0.271-0.356,0.577-0.543,0.865c-0.679,1.199-1.154,2.562-1.459,3.975
		c-0.3,1.414-0.435,2.89-0.424,4.371c-0.011,1.493,0.187,2.986,0.492,4.462l0.113,0.56l0.147,0.549
		c0.102,0.368,0.192,0.735,0.322,1.097c0.124,0.356,0.226,0.729,0.373,1.086c0.147,0.356,0.288,0.713,0.435,1.074
		c-0.226-0.317-0.447-0.633-0.662-0.961c-0.221-0.322-0.396-0.667-0.599-1.007c-0.204-0.334-0.351-0.696-0.526-1.052l-0.249-0.532
		l-0.215-0.549c-0.582-1.47-0.995-3.014-1.221-4.603c-0.221-1.583-0.271-3.206-0.096-4.835c0.175-1.623,0.571-3.257,1.289-4.801
		c0.204-0.379,0.373-0.775,0.605-1.137c0.237-0.362,0.469-0.746,0.724-1.08c0.515-0.662,1.074-1.301,1.702-1.883
		c1.244-1.171,2.754-2.115,4.354-2.731c1.606-0.616,3.274-0.927,4.897-1.097c1.634-0.147,3.229-0.153,4.818-0.096l1.25,0.096
		l1.193,0.153c0.797,0.096,1.561,0.238,2.341,0.362c1.532,0.294,3.059,0.594,4.569,0.939c3.025,0.673,6.017,1.431,8.997,2.239
		c5.954,1.617,11.841,3.421,17.705,5.4C86.532,87.167,80.459,86.041,74.414,84.922z M122.825,85.549
		c-2.771-6.876-8.799-9.347-15.064-9.466c-6.266-0.124-14.883,1.323-17.23,2.047c-2.352,0.724-3.619,1.204-1.928,2.109
		c1.685,0.905,9.698,4.648,9.698,4.648c-12.469-2.714-35.128-8.578-42.173-8.816c-7.052-0.232-12.712,0.549-17.049,6.039
		c-4.343,5.491-4.19,15.619,0,22.766c4.185,7.148,6.356,11.96,6.175,18.78c-0.181,6.82,0.028,26.719,3.642,37.576
		c3.619,10.852,6.085,16.099,9.036,19.356c2.957,3.257,4.705-2.053,4.942-8.018c0.243-5.971-0.452-14.686,0.09-18.757
		c0.543-4.071,5.423-11.123,10.484-13.752c5.061-2.618,13.735-3.432,17.264,7.691c3.523,11.129,5.146,30.943,6.413,33.29
		c1.267,2.352,6.78,7.232,10.665,0.537c3.885-6.684,4.071-10.309,4.071-10.309c2.347-10.218,3.704-24.236,3.704-29.394
		c0-5.157-1.176-10.795-1.357-16.224s1.329-9.709,5.123-18.214S125.595,92.426,122.825,85.549"/>
	<path fill="#11537F" d="M143.679,142.384c-0.017-0.092-0.047-0.183-0.068-0.275c-0.025-0.092-0.062-0.18-0.09-0.272
		c-0.033-0.09-0.073-0.176-0.109-0.266c-0.039-0.087-0.087-0.168-0.127-0.255c-0.179-0.334-0.418-0.629-0.706-0.886
		c-0.287-0.255-0.628-0.466-1.005-0.629c-0.375-0.166-0.783-0.287-1.211-0.395c0.432-0.087,0.883-0.096,1.333-0.028
		c0.449,0.068,0.898,0.23,1.301,0.488c0.402,0.255,0.754,0.608,1.015,1.012c0.258,0.406,0.441,0.85,0.542,1.322
		c0.045,0.236,0.076,0.476,0.081,0.713c-0.002,0.12,0.003,0.239-0.009,0.357c-0.009,0.117-0.016,0.236-0.037,0.35
		c-0.068,0.465-0.2,0.903-0.368,1.316c-0.339,0.828-0.791,1.571-1.307,2.281c0.177-0.864,0.454-1.683,0.639-2.494
		C143.744,143.915,143.839,143.124,143.679,142.384z M131.78,141.197l-2.483-0.471l-0.618-0.112l-0.617-0.104
		c-0.205-0.028-0.41-0.065-0.612-0.089l-0.301-0.036l-0.289-0.019c-0.407-0.019-0.819-0.02-1.211,0.012
		c-0.395,0.03-0.775,0.096-1.13,0.218c-0.356,0.12-0.676,0.306-0.967,0.545c-0.146,0.118-0.28,0.255-0.407,0.399
		c-0.065,0.07-0.115,0.145-0.174,0.218c-0.054,0.075-0.098,0.159-0.149,0.238c-0.186,0.329-0.317,0.704-0.401,1.092
		c-0.082,0.389-0.12,0.794-0.117,1.201c-0.003,0.41,0.051,0.82,0.135,1.226l0.031,0.154l0.04,0.151
		c0.028,0.101,0.053,0.202,0.089,0.301c0.034,0.098,0.062,0.2,0.103,0.298c0.04,0.098,0.079,0.196,0.12,0.295
		c-0.062-0.087-0.123-0.174-0.182-0.264c-0.061-0.089-0.109-0.183-0.165-0.277c-0.056-0.092-0.096-0.191-0.145-0.289l-0.068-0.146
		l-0.059-0.151c-0.16-0.404-0.273-0.828-0.336-1.265c-0.061-0.435-0.075-0.881-0.026-1.329c0.048-0.446,0.157-0.895,0.354-1.319
		c0.056-0.104,0.103-0.213,0.166-0.312c0.065-0.099,0.129-0.205,0.199-0.297c0.141-0.182,0.295-0.357,0.468-0.517
		c0.342-0.322,0.757-0.581,1.197-0.751c0.441-0.169,0.9-0.255,1.346-0.301c0.449-0.04,0.887-0.042,1.324-0.026l0.343,0.026
		l0.328,0.042c0.219,0.026,0.429,0.065,0.643,0.099c0.421,0.081,0.841,0.163,1.256,0.258c0.831,0.185,1.653,0.393,2.472,0.615
		c1.636,0.444,3.254,0.94,4.865,1.484C135.111,141.814,133.442,141.505,131.78,141.197z M145.084,141.369
		c-0.761-1.89-2.418-2.569-4.14-2.601c-1.722-0.034-4.09,0.364-4.735,0.563c-0.646,0.199-0.995,0.331-0.53,0.58
		c0.463,0.249,2.665,1.277,2.665,1.277c-3.426-0.746-9.653-2.357-11.589-2.423c-1.938-0.064-3.493,0.151-4.685,1.66
		c-1.193,1.509-1.151,4.292,0,6.256c1.15,1.964,1.747,3.287,1.697,5.161c-0.05,1.874,0.008,7.342,1.001,10.326
		c0.995,2.982,1.672,4.424,2.483,5.319c0.813,0.895,1.293-0.564,1.358-2.204c0.067-1.641-0.124-4.036,0.025-5.154
		c0.149-1.119,1.49-3.057,2.881-3.779c1.391-0.719,3.775-0.943,4.744,2.113c0.968,3.058,1.414,8.503,1.762,9.148
		c0.348,0.646,1.863,1.988,2.931,0.148c1.068-1.837,1.119-2.833,1.119-2.833c0.645-2.808,1.018-6.66,1.018-8.077
		c0-1.417-0.323-2.967-0.373-4.458s0.365-2.668,1.408-5.005C145.166,145.048,145.845,143.259,145.084,141.369"/>
</g>
</svg>
