<?xml version="1.0" encoding="utf-8"?>
<!-- Generator: Adobe Illustrator 24.3.0, SVG Export Plug-In . SVG Version: 6.00 Build 0)  -->
<svg version="1.1" id="Layer_2_1_" xmlns="http://www.w3.org/2000/svg" xmlns:xlink="http://www.w3.org/1999/xlink" x="0px" y="0px"
	 viewBox="0 0 143.411 241.409" enable-background="new 0 0 143.411 241.409" xml:space="preserve">
<g>
	<path fill="#2C3443" d="M27.307,110.576c0,0-27.627,0.223-17.488-16.703c9.437-15.754,106.362-41.351,128.292-72.749
		c3.269-4.68,4.075-10.768,1.61-15.906c-2.552-5.318-8.403-9.16-21.817,1.865c0,0,16.697-11.792,18.088,5.494
		c1.39,17.286-120.685,68.64-120.685,68.64s-22.639,10.649-12.853,24.22C9.314,114.95,27.307,110.576,27.307,110.576z"/>
	<path fill="#2C3443" d="M45.13,59.147c0,0,31.682-6.054,50.899-26.351C96.03,32.795,67.836,50.769,45.13,59.147z"/>
	<path fill="#2C3443" d="M35.571,55.79c0,0-12.952-33.84,10.306-47.996c25.665-15.621,43.55,5.164,49.74,12.298
		c0,0-21.267-17.979-44.363-3.584C30.934,29.173,35.571,55.79,35.571,55.79z"/>
	<path fill="#2C3443" d="M110.965,45.971c0,0-32.43,20.631-63.593,31.272c0,0,6.996,15.713-4.264,30.335
		s-35.709,16.848-24.771,57.218c0,0-7.077-34.967,20.267-41.006C65.949,117.751,113.967,97.125,110.965,45.971z"/>
</g>
<g>
	<path fill="#2CABE1" d="M110.195,198.877c0,0-19.631-11.639,6.552-31.739c4.067-3.122,7.257-7.67,7.574-13.104
		c0.033-0.562,0.043-1.144,0.026-1.746c-8.366-9.977-20.498-15.788-29.449-17.444c-4.301,7.695-13.577-0.48-19.243,12.179
		c0,0-4.39,1.712-10.845-14.347c-18.411,0.733-28.342,14.629-28.342,14.629s-4.139,12.516,3.92,31.935
		c8.06,19.419-2.566,62.169-2.566,62.169l105.588-2.096C143.411,239.313,142.844,223.086,110.195,198.877z"/>
</g>
</svg>
