<?xml version="1.0" encoding="utf-8"?>
<!-- Generator: Adobe Illustrator 24.3.0, SVG Export Plug-In . SVG Version: 6.00 Build 0)  -->
<svg version="1.1" id="Layer_1" xmlns="http://www.w3.org/2000/svg" xmlns:xlink="http://www.w3.org/1999/xlink" x="0px" y="0px"
	 viewBox="0 0 911.475 401.785" enable-background="new 0 0 911.475 401.785" xml:space="preserve">
<g>
	<path fill="#D7BE28" d="M319.17-0.005l-280.5,259.99l139.64,141.8l129.1-0.19h406.01L319.17-0.005z M314.56,233.645h-42.18v-42.19
		h42.18V233.645z M314.56,182.495h-42.18v-42.18h42.18V182.495z M365.71,233.645h-42.18v-42.19h42.18V233.645z M323.53,182.495
		v-42.18h42.18v42.18H323.53z"/>
</g>
<g>
	<polygon fill="#353635" points="236.089,77.014 195.013,116.004 192.653,31.318 236.089,31.318 	"/>
	<polygon fill="#353635" points="814.794,401.821 737.795,401.785 480.156,139.237 562.178,139.237 	"/>
	<polygon fill="#353635" points="911.261,401.777 836.82,401.785 579.181,139.237 661.203,139.237 	"/>
	<polygon fill="#353635" points="0,295.306 63.421,237.153 186.146,361.446 65.104,361.362 	"/>
</g>
</svg>
