<?xml version="1.0" encoding="utf-8"?>
<!-- Generator: Adobe Illustrator 26.0.1, SVG Export Plug-In . SVG Version: 6.00 Build 0)  -->
<svg version="1.1" id="Layer_3" xmlns="http://www.w3.org/2000/svg" xmlns:xlink="http://www.w3.org/1999/xlink" x="0px" y="0px"
	 viewBox="0 0 140.172 266.128" enable-background="new 0 0 140.172 266.128" xml:space="preserve">
<g>
	<path fill="#753E72" d="M118.07,118.212c-1.48,0.126-2.544-1.167-3.723-1.834c-2.935-1.666-6.447-2.201-9.755-1.546
		c-3.115,0.625-5.16,2.304-7.073,4.727c-0.313,0.391-0.674,0.776-0.752,1.269c0.439,0.09,0.782-0.361,1.034-0.734
		c1.317-1.913,3.416-3.103,5.678-3.494c-0.12,0.138-0.235,0.295-0.313,0.469c-0.331,0.722-0.138,1.57,0.162,2.304
		c0.331,0.794,0.818,1.57,1.582,1.967c0.271,0.138,0.565,0.223,0.866,0.271c1.389,0.204,2.869-0.589,3.464-1.858
		c0.319-0.674,0.403-1.702,0.132-2.538c0.926,0.325,1.822,0.746,2.67,1.233c0.956,0.541,1.907,1.185,3.001,1.293
		c0.866,0.084,1.702-0.186,2.466-0.583c0.644-0.331,1.083-0.926,1.714-1.221C118.804,117.875,118.479,118.182,118.07,118.212z"/>
	<path fill="#753E72" d="M115.599,105.606c-1.834-0.86-3.885-0.638-5.744-0.012c-3.254,1.083-6.453,2.219-9.809,2.917
		c-1.955,0.421-4.192,1.257-4.92,3.302c-0.12,0.325-0.451,3.043-0.505,3.067c0.68-0.319,1.389-0.217,2.093-0.355
		c0.836-0.168,1.69-0.595,2.484-0.902c3.446-1.311,6.76-2.851,10.285-3.976c1.78-0.571,3.627-1.335,5.527-1.01
		c1.419,0.241,2.712,0.974,3.813,1.895c1.107,0.92,2.033,2.027,2.959,3.121c-0.728-0.86-1.215-2.057-1.846-3.001
		C118.654,108.757,117.794,106.634,115.599,105.606"/>
	<path fill="#753E72" d="M95.192,154.461c-0.529,0.042-1.101-0.204-1.624-0.271c-0.632-0.084-1.251-0.132-1.882-0.096
		c-1.407,0.078-2.779,0.463-4.144,0.8c-0.403,0.102-0.812,0.198-1.233,0.186c-0.511-0.012-1.004-0.198-1.492-0.361
		c-1.804-0.589-3.693-0.908-5.593-0.938c-0.217-0.006-0.439,0-0.656,0.006c0.18-0.072,0.361-0.144,0.529-0.229
		c0.938-0.451,1.834-1.107,2.869-1.131c0.824-0.018,1.594,0.367,2.382,0.583c1.371,0.379,2.881,0.229,4.15-0.415
		c0.235-0.114,0.469-0.253,0.728-0.271c0.241-0.024,0.481,0.054,0.71,0.138c1.582,0.559,3.14,1.215,4.769,1.618
		c0.138,0.03,0.517,0.138,0.998,0.247C95.535,154.389,95.366,154.443,95.192,154.461z M98.662,153.559
		c-1.744-1.54-3.579-3.494-5.599-4.643c-1.113-0.638-2.358-1.197-3.633-1.071c-0.577,0.054-1.137,0.253-1.684,0.445
		c-1.468,0.517-2.123,0.752-3.548,0.054c-1.305-0.638-2.911-0.343-4.192,0.349s-2.322,1.738-3.416,2.694
		c-0.692,0.607-1.407,1.131-2.207,1.594c-0.349,0.204-0.686,0.409-0.782,0.595c-0.024,0-0.048,0-0.072-0.006
		c0.012,0.036,0.03,0.072,0.042,0.114c0,0.048,0.018,0.096,0.066,0.144c0.211,0.499,0.409,1.034,0.728,1.462
		c0.277,0.367,0.656,0.68,0.932,1.059c0.583,0.812,1.209,1.6,1.919,2.31c1.197,1.191,2.664,2.165,4.312,2.52
		c0.824,0.168,1.672,0.186,2.508,0.241c1.997,0.138,4.018,0.529,5.984,0.126c1.588-0.331,3.043-1.167,4.282-2.219
		c1.233-1.053,2.273-2.316,3.254-3.603c0.241-0.313,0.71-0.776,0.854-1.155c0.373-0.096,0.583-0.307,0.481-0.704
		C98.861,153.739,98.758,153.643,98.662,153.559"/>
	<path fill="#753E72" d="M90.218,141.59c0.632,0.03,1.383,0,1.883-0.427c0.511-0.439,0.433-0.968,0.054-1.257
		c-0.186-0.144-0.451-0.235-0.746-0.223c-1.413,0.054-2.568,1.221-3.272,2.346C88.817,141.674,89.478,141.554,90.218,141.59z"/>
	<path fill="#753E72" d="M81.195,141.457c0.398,0.066,0.785,0.198,1.166,0.33c0.405,0.144,0.817,0.287,1.222,0.431
		c0-0.006,0-0.012,0-0.012c-0.511-1.08-2.159-3.628-3.599-2.677c-0.458,0.308-0.621,1.027-0.259,1.448
		C80.069,141.373,80.67,141.369,81.195,141.457z"/>
	<path fill="#753E72" d="M71.267,61.779c-3.627,2.412-6.652,6.73-6.616,11.163c0.036,4.992-1.161,12.835-3.188,17.694
		c-1.486,3.555-2.111,4.83-4.324,7.704c-3.976,5.172-11.602,7.229-17.676,9.04c-10.639,3.17-18.458,13.737-16.281,25.351
		c-1.678-8.943,19.637-17.67,25.543-19.054c6.447-1.51,13.556-3.434,17.087-9.022c3.374-5.341,4.499-11.59,4.288-17.845
		c-0.144-4.108-0.884-8.18-0.848-12.287c0.03-3.867,0.734-8.799,3.909-11.367c2.881-2.334,7.031-4.391,10.85-3.494
		C79.723,58.537,74.959,59.319,71.267,61.779z"/>
	<path fill="#753E72" d="M131.627,183.835c-1.732-1.66-3.771-3.254-5.323-5.196c1.852,1.979,4.018,3.645,5.87,5.629
		c0.229,0.247,0.451,0.499,0.662,0.758C132.439,184.623,132.03,184.226,131.627,183.835z M110.246,79.076
		c-0.096,0.162-0.265,0.313-0.463,0.427c-2.706,0.198-5.184-0.854-7.548-2.189c-2.424-1.828-4.697-4.15-7.392-5.539
		c-4.824-2.496-13.37-1.822-16.383,3.374c-1.107,1.901-1.371,4.042-1.125,6.213c0.006,1.113,0.156,2.237,0.457,3.344
		c1.221,4.487,4.144,8.27,5.527,12.696c0.83,2.664,1.251,5.503,1.179,8.318c-0.878-5.443-3.362-10.285-5.714-15.295
		c-2.622-5.605-5.323-12.805-1.606-18.566c2.682-4.15,8.282-6.477,13.123-5.545c6.171,1.179,9.551,7.193,14.459,10.477
		C106.451,77.916,108.285,78.77,110.246,79.076z M125.829,136.923c-0.98,0.601-2.159,0.752-3.158,1.305
		c-0.042,0.024-0.084,0.048-0.126,0.078c1.997-8.204,2.55-16.78,2.7-25.176c0.012-0.343-0.343-0.325-0.361,0.006
		c-0.505,9.683-1.672,19.775-4.661,29.037c-2.875,8.901-7.945,16.882-14.621,23.438c-5.81,5.702-14.014,12.029-22.704,10.453
		c-6.02-1.095-11.379-5.094-15.77-9.322c-0.824-0.992-1.738-1.919-2.646-2.827c-0.391-0.391-0.788-0.782-1.173-1.185
		c-1.275-1.462-2.472-2.989-3.561-4.583c-0.048-0.084-0.09-0.162-0.132-0.247c-0.98-1.979-1.143-3.933-0.668-5.954
		c0.211-0.102,0.427-0.211,0.644-0.319c0.812-0.403,1.648-0.812,2.442-1.311c2.454-1.528,3.837-3.645,3.789-5.792
		c-0.036-1.702-0.92-3.127-1.78-4.511c-0.848-1.371-1.648-2.664-1.389-3.969c0.391-1.973,2.622-2.634,4.222-3.278
		c1.028-0.421,2.081-0.956,3.061-1.6c4.902-1.179,9.094-4.042,11.674-8.444c1.768-3.007,2.761-6.429,3.097-9.906
		c1.943-6.201,1.275-13.286-1.01-19.24c-0.469-1.209-1.095-2.43-1.738-3.663c-0.054-1.582,0.006-3.17,0.361-4.709
		c0.565-2.43,1.991-4.787,4.252-5.864c2.015-0.962,4.366-0.794,6.592-0.601c2.502,0.211,5.01,0.427,7.512,0.644
		c2.364,0.204,4.757,0.319,7.109,0.607c1.889,0.229,3.723,1.065,5.064,2.424c0.632,0.644,1.089,1.461,1.552,2.231
		c0.349,0.589,0.932,1.504,0.68,2.225c1.552-4.433,3.109-8.985,2.959-13.677c-0.066-2.171-0.499-4.318-1.083-6.411
		c-1.762-6.393-4.944-12.456-9.575-17.219c2.821,2.983,4.403,6.88,5.834,10.718c1.01,2.731,2.015,5.587,1.955,8.534
		c-0.048,2.58-1.323,4.288-3.103,6.087c-0.974,0.986-2.364,1.558-3.759,1.546c-2.285-0.018-3.879-1.792-5.575-3.097
		c-2.063-1.594-3.621-3.813-5.533-5.575c-3.927-3.615-9.052-5.281-14.266-3.603c-5.172,1.66-8.715,6.002-9.533,11.331
		c-1.034,6.796,1.864,13.208,4.751,19.168c2.58,5.329,4.805,10.615,4.481,16.648c-0.078,1.407-0.283,2.803-0.625,4.18
		c-1.365,2.478-3.296,4.589-5.822,6.044c-3.494,2.015-7.56,2.773-11.56,2.935c-4.162,0.162-8.318-0.403-12.474-0.499
		c-4.24-0.09-8.546,0.156-12.618,1.389c-6.255,1.901-11.584,6.754-13.039,12.985c-2.472,4.156-3.482,9.238-2.304,13.965
		c0.692,2.773,2.111,5.196,4.204,7.151c2.171,2.033,4.83,3.464,7.037,5.449c3.982,3.567,4.793,9.413,1.726,13.863
		c-3.097,4.493-9.154,5.287-14.128,6.099c-4.884,0.8-10.387,1.75-13.767,5.726c-2.935,3.458-3.669,8.456-2.52,12.769
		c0.217,0.812,0.499,1.606,0.836,2.37c1.552,1.353,3.296,2.52,4.968,3.747c-1.275-0.932-2.592-1.834-3.831-2.809
		c-0.391-0.307-0.77-0.613-1.137-0.938c-0.138-0.12-0.271-0.241-0.403-0.361c-4.517-4.138-5.72-10.423-4.108-16.179
		c0.818-2.911,2.243-5.629,3.969-8.101c1.588-2.267,3.591-4.234,5.064-6.574c2.887-4.577,2.105-9.659-0.926-13.947
		c-3.146-4.445-8.901-7.993-10.026-13.629c-1.113-5.545,5.184-9.25,8.631-12.456c2.057-1.919,3.867-4.09,5.371-6.459
		c1.443-2.273,2.893-4.83,3.555-7.458c0.523-2.069,0.361-4.192-0.595-6.117c-2.297-4.631-5.154-8.258-1.51-13.316
		c2.075-2.887,5.347-4.673,8.643-6.032c3.296-1.353,6.754-2.4,9.791-4.258c4.054-2.472,7.199-6.375,8.751-10.85
		c1.985-5.702,1.389-12.017,3.055-17.821c3.5-12.161,18.025-19.438,29.308-22.945c8.089-2.514,17.249-3.506,24.406,0.65
		c4.036,2.352,5.503,2.941,9.491,6.604c6.85,6.285,14.056,17.309,12.618,26.03c-0.547,3.314-1.486,6.544-3.17,9.473
		c-1.449,2.52-2.743,4.89-2.664,7.849c0.114,4.246,1.642,7.885,4.036,11.319c4.312,6.195,9.695,12.119,10.658,19.854
		c-0.012,0.15-0.024,0.301-0.048,0.451c-0.325,2.243-1.101,4.397-1.54,6.634c-0.439,2.255-0.794,4.577-2.003,6.58
		C127.399,135.57,126.713,136.37,125.829,136.923z M132.782,147.791c0.012,0.325-0.06,0.704-0.343,0.866
		c-0.253,0.144-0.589,0.048-0.806-0.144c-0.223-0.198-0.343-0.475-0.457-0.746c-0.613-1.474-1.137-3.097-2.382-4.102
		c-0.018,0.03-0.024,0.066-0.03,0.096c-0.084-0.072-0.168-0.138-0.259-0.204c0.156-0.132,0.295-0.277,0.421-0.445
		C130.797,143.869,132.704,145.692,132.782,147.791z M127.862,143.954c1.299,0.824,2.382,2.159,2.382,3.765
		c-0.006,1.72-1.389,3.326-3.14,3.422c-1.353,0.078-3.308-0.944-3.687-2.358c-0.289-1.071,0.289-2.37,0.836-3.284
		c0.373-0.625,0.86-1.065,1.377-1.552c0.343,0.156,0.722,0.247,1.125,0.247C127.152,144.194,127.525,144.104,127.862,143.954z
		 M59.581,171.079c-0.198-0.198-0.403-0.397-0.607-0.595c-1.492-1.455-2.929-2.863-4.018-4.427
		C56.429,167.789,58.071,169.382,59.581,171.079z M60.627,195.99c-2.195,1.714-4.896,2.508-7.759,3.344
		c-1.419,0.421-2.887,0.854-4.294,1.407c-4.643,1.834-8.811,6.129-7.807,10.802c0.65,3.001,3.055,4.896,5.383,6.73
		c2.051,1.612,3.982,3.133,4.703,5.293c0.788,2.364-0.198,5.389-2.4,7.35c-1.666,1.48-3.982,2.484-6.899,2.989
		c0.728-0.385,1.389-0.86,1.955-1.486c1.594-1.756,1.991-4.481,0.968-6.616c-1.329-2.785-4.541-4.144-6.399-6.604
		c-2.574-3.422-2.015-8.426,0.241-12.059c1.377-2.219,3.278-4.048,5.323-5.641c1.028-0.8,2.105-1.66,3.242-2.31
		c1.113-0.632,2.183-1.083,3.049-2.081c1.281-1.486,1.738-3.969,0.74-5.726c-0.006,3.939-3.855,6.73-7.494,8.282
		c-3.633,1.564-7.777,2.815-9.924,6.129c-2.815,4.336-0.914,10.074,1.323,14.735c1.034,2.159,2.051,4.968,0.409,6.712
		c-1.269,1.347-3.404,1.209-5.202,1.642c-3.735,0.896-6.345,4.721-6.393,8.54c-0.054,3.825,2.129,7.464,5.178,9.785
		c2.165,1.642,4.818,2.791,6.646,4.715c0.385,1.179,0.541,2.412,0.301,3.627c0,2.55-2.947,4.974-4.95,6.05
		c-1.72,0.92-3.422,1.299-5.196,1.401c0.126-0.77,0.806-1.449,1.504-2.141c1.149-1.131,1.702-2.761,1.702-4.372
		c0.042-2.785-1.305-5.449-3.212-7.416c-2.249-2.316-5.293-3.633-7.975-5.353c-2.34-1.516-5.118-3.801-5.347-6.796
		c-0.211-2.719,2.171-4.799,4.156-6.267c4.258-3.14,10.609-6.153,10.086-12.456c-0.307-3.639-2.821-5.425-5.738-6.67
		c-0.018-0.03-0.042-0.054-0.072-0.072c-3.476-2.171-7.097-6.315-6.207-10.718c0.98-4.878,6.574-6.616,10.85-7.229
		c4.312-0.619,8.613-0.866,12.462-3.097c2.821-1.642,5.19-3.988,6.917-6.748c3.41-5.449,4.312-12.57,1.684-18.524
		c-3.35-7.596-11.806-10.212-16.582-16.588c-1.6-2.135-2.291-4.589-2.213-7.079c1.552-3.079,4.066-5.714,7.007-7.488
		c9.094-5.473,19.781-1.81,29.819-2.105c-0.12,0.06-0.241,0.126-0.355,0.192c-1.425,0.788-2.664,1.967-2.989,3.621
		c-0.397,2.003,0.632,3.663,1.63,5.269c0.764,1.233,1.486,2.394,1.51,3.603c0.03,1.474-1.065,3.049-2.935,4.216
		c-0.722,0.451-1.48,0.824-2.285,1.221c-1.113,0.547-2.261,1.113-3.302,1.895c-3.5,2.628-5.07,7.38-3.819,11.566
		c1.016,3.41,3.567,5.9,6.038,8.312c0.98,0.962,1.997,1.949,2.881,2.971c2.809,3.254,4.439,7.109,4.577,10.856
		C65.318,189.711,63.58,193.693,60.627,195.99z M32.768,247.503c-1.913-1.606-3.921-3.236-4.096-5.533
		c-0.108-1.383,0.487-2.58,1.443-3.555c-0.108,0.223-0.211,0.463-0.295,0.71C28.739,242.247,30.916,244.977,32.768,247.503z
		 M19.17,223.47c0.782-2.291,0.601-4.799-0.343-7.013c-0.535-1.257-1.257-2.34-2.099-3.308c1.901,0.601,3.891,1.161,5.533,2.273
		c2.364,1.612,2.58,4.006,0.992,6.303c-1.498,2.165-3.711,3.591-5.906,5.022c0,0,0,0.006-0.006,0.006
		C18.111,225.755,18.761,224.679,19.17,223.47z M131.068,127.973c-0.03-0.716,0.217-1.449,0.505-2.153
		c-0.054,0.337-0.12,0.674-0.204,1.004c-0.156,0.613-0.241,1.215-0.295,1.822C131.074,128.419,131.074,128.196,131.068,127.973z
		 M137.744,193.645c-0.289-3.909-1.738-7.747-4.258-10.7c-1.846-2.159-4.072-3.945-6.002-6.02c-1.437-1.546-2.929-3.573-3.392-5.732
		c0.481-2.893,2.352-5.569,4.451-7.867c1.371-0.884,2.839-1.63,4.066-2.37c3.687-2.207,6.965-5.01,7.35-9.569
		c0.204-2.454-0.391-4.956-1.678-7.055c-1.245-2.027-3.212-3.398-4.932-4.974c-1.6-1.462-3.164-3.374-2.093-5.611
		c0.896-1.876,2.833-3.073,4.366-4.384c1.786-1.522,3.416-3.14,4.096-5.455c0.788-2.658,0.493-5.551-0.415-8.137
		c-2.105-6.026-7.801-9.641-12.726-13.22c-2.484-1.798-4.896-3.759-6.484-6.429c-0.481-0.806-0.866-1.654-1.161-2.526
		c-0.03-0.385-0.036-0.764-0.012-1.149c0.168-2.797,1.774-5.425,3.103-7.825c2.105-3.807,5.539-7.271,6.935-11.409
		c0.788-2.322,0.048-4.517-0.956-6.646c-1.81-3.831-3.825-7.668-6.88-10.67c-2.135-2.111-10.802-10.501-13.496-12.684
		c-3.795-3.067-8.396-5.623-13.178-6.748c-10.609-2.484-23.637-0.054-33.422,4.36c-9.761,4.403-19.402,12.119-22.355,22.819
		c-0.686,2.496-0.938,5.1-0.716,7.68c0.271,3.14,2.015,6.429,1.492,9.587c-0.752,4.499-5.93,6.056-9.695,7.127
		c-4.667,1.323-9.641,2.839-13.159,6.357c-3.518,3.524-4.625,9.034-3.416,13.773c0.638,2.514,2.117,4.517,3.482,6.676
		c0.583,0.926,1.221,1.961,1.323,3.079c0.138,1.546-0.704,3.127-1.353,4.487c-1.305,2.743-2.965,5.311-4.968,7.608
		c-1.876,2.147-4.096,3.879-6.213,5.768c-3.759,3.35-6.435,7.518-5.094,12.732c1.48,5.738,6.706,9.178,10.056,13.731
		c1.762,2.394,3.254,5.341,2.153,8.336c-1.004,2.737-3.266,4.842-5.01,7.109c-3.44,4.469-5.942,9.791-6.207,15.487
		c-0.247,5.485,1.564,10.88,5.714,14.591c2.201,1.961,4.775,3.434,7.043,5.311c1.191,0.992,2.31,2.111,3.176,3.398
		c0.986,1.474,1.371,2.857,1.022,4.625c-0.469,2.4-2.039,4.409-3.548,6.333c-0.776,0.992-1.564,2.015-2.195,3.109
		c-0.559,0.638-1.059,1.347-1.468,2.147c-2.845,5.642,1.317,10.922,5.996,13.803c2.682,1.654,5.822,3.001,7.867,5.479
		c1.768,2.141,2.737,5.293,0.349,7.374c-1.678,1.462-3.982,2.027-6.141,2.316c-1.053,0.138-2.231,0.018-1.437,1.311
		c0.583,0.956,1.84,1.642,2.839,2.057c1.377,0.565,2.857,0.806,4.324,1.04c0.241,0.036,0.505,0.066,0.746,0.018
		c1.101,0.084,2.213,0.012,3.29-0.235c3.927-0.896,7.295-3.975,9.244-7.44c2.237-3.988-0.289-8.288-3.103-11.163
		c-2.111-2.153-4.415-4.956-3.524-7.542c0.986-2.857,4.944-3.338,8.432-3.765c0.253-0.03,0.493-0.054,0.734-0.09
		c3.801-0.475,6.82-1.684,8.961-3.597c2.773-2.466,3.939-6.189,2.911-9.268c-0.89-2.676-3.127-4.439-5.293-6.141
		c-2.177-1.708-4.228-3.326-4.739-5.69c-0.794-3.687,2.773-7.187,6.7-8.739c1.329-0.523,2.755-0.944,4.138-1.353
		c2.899-0.848,5.9-1.726,8.366-3.657c1.431-1.113,2.61-2.568,3.488-4.222c2.304-2.081,3.933-4.896,4.799-7.891
		c1.04-3.615,1.022-7.47,0.385-11.181c-0.211-1.197-0.481-2.394-0.926-3.524c3.127,2.622,6.586,4.836,10.345,6.201
		c3.915,1.419,8.059,1.431,11.987,0.042c4.108-1.455,7.861-4.144,11.187-6.911c7.332-6.117,13.244-14.158,16.798-23.005
		c0.583-1.443,1.101-2.911,1.564-4.391c0.373-0.427,0.674-0.914,1.089-1.293c0.523-0.487,1.185-0.752,1.864-0.986
		c-0.186,0.367-0.295,0.776-0.295,1.221c0,0.361,0.072,0.704,0.198,1.022c-1.179,0.758-2.34,2.105-2.809,2.989
		c-0.782,1.462-1.299,3.416-0.818,5.016c0.92,3.067,4.439,6.056,7.957,5.275c3.049-0.68,5.178-3.645,5.323-6.682
		c0.144-3.055-1.714-5.75-4.511-6.862c0.072-0.241,0.108-0.493,0.108-0.758c0-1.323-0.95-2.424-2.207-2.664
		c0.914-0.776,1.618-1.75,2.171-2.809c0.547,4.403,5.263,6.327,7.53,9.761c1.486,2.243,1.919,5.275,0.698,7.735
		c-0.878,1.774-2.484,3.097-4.102,4.174c-1.101,0.734-2.285,1.389-3.47,2.063c-0.613,0.319-1.221,0.656-1.81,1.034
		c-0.445,0.289-0.884,0.589-1.317,0.92c-0.625,0.445-1.221,0.932-1.768,1.462c-5.233,4.781-8.901,12.311-5.329,19.162
		c2.827,5.419,9.316,7.903,11.927,13.442c1.858,3.945,1.293,8.456-0.421,12.588c0.174-0.162,0.343-0.331,0.511-0.493
		c0.06,0.144,0.168,0.223,0.325,0.09c2.628-2.231,4.294-5.22,5.07-8.468C137.846,197.614,138.044,195.647,137.744,193.645z"/>
	<path fill="#753E72" d="M94.699,52.084c-2.021-1.137-4.18-2.033-6.405-2.712c-2.231-0.656-4.541-1.083-6.874-1.239
		c-4.655-0.331-9.431,0.457-13.725,2.4c-4.288,1.943-8.035,4.974-10.982,8.607c-2.923,3.657-5.058,7.945-6.135,12.504
		c-0.144,0.565-0.235,1.143-0.349,1.72c-0.084,0.577-0.192,1.155-0.241,1.738c-0.144,1.161-0.186,2.334-0.174,3.5l0.018,0.878
		c0.018,0.289,0.042,0.583,0.06,0.878c0.036,0.583,0.108,1.155,0.18,1.732c0.15,1.143,0.331,2.267,0.463,3.386
		c0.132,1.113,0.211,2.225,0.162,3.32c-0.048,1.095-0.253,2.165-0.607,3.2c-0.722,2.063-2.123,3.861-3.843,5.287
		c-1.708,1.449-3.711,2.568-5.774,3.524c-2.069,0.956-4.222,1.744-6.393,2.472c1.113-0.289,2.213-0.595,3.314-0.932
		c1.095-0.343,2.183-0.722,3.254-1.143c1.071-0.421,2.123-0.908,3.14-1.455c1.022-0.541,2.015-1.161,2.941-1.876
		c1.852-1.413,3.44-3.284,4.324-5.521c0.433-1.113,0.686-2.304,0.764-3.488c0.084-1.185,0.03-2.358-0.072-3.512
		c-0.108-1.155-0.259-2.291-0.373-3.41c-0.054-0.565-0.12-1.125-0.144-1.678c-0.012-0.277-0.03-0.553-0.042-0.83l-0.006-0.836
		c0.006-1.113,0.066-2.225,0.217-3.332c0.054-0.553,0.168-1.101,0.259-1.648c0.114-0.541,0.211-1.095,0.361-1.63
		c1.065-4.324,3.109-8.408,5.912-11.878c2.785-3.482,6.339-6.357,10.381-8.252c1.016-0.463,2.051-0.878,3.109-1.221
		c1.071-0.325,2.147-0.625,3.248-0.818c1.095-0.204,2.207-0.355,3.326-0.427c0.559-0.048,1.119-0.054,1.678-0.078
		c0.565,0.006,1.125-0.006,1.684,0.03c4.487,0.192,8.955,1.353,12.985,3.41c4.042,2.033,7.65,4.974,10.399,8.637
		C102.271,57.527,98.734,54.351,94.699,52.084z"/>
	<path fill="#753E72" d="M115.498,20.502c-7.834,8.221-12.862,5.011-13.293-8.347C96.843,24.411,89.088,18.84,86.296,0
		c-4.019,18.64-12.085,23.677-16.673,11.105c-1.265,13.291-6.501,16.171-13.796,7.473c3.57,10.526,2.18,19.123-2.5,21.849
		c9.507-5.051,20.392-7.763,31.913-7.375c11.488,0.358,22.198,3.766,31.337,9.42C112.091,39.453,111.222,30.788,115.498,20.502z
		 M71.774,28.507c-1.099-0.035-1.932-0.962-1.894-2.03c0.037-1.067,0.931-1.93,2.03-1.894c1.067,0.037,1.93,0.931,1.894,2.03
		C73.767,27.68,72.841,28.544,71.774,28.507z M85.365,28.941c-0.494-3.389-1.66-4.674-4.494-5.526
		c2.879-0.655,4.131-1.85,4.83-5.209c0.494,3.389,1.66,4.674,4.494,5.526C87.316,24.387,86.063,25.582,85.365,28.941z
		 M98.957,29.375c-1.099-0.035-1.931-0.962-1.894-2.03c0.037-1.067,0.931-1.93,1.999-1.893c1.099,0.035,1.93,0.931,1.894,2.03
		C100.918,28.549,100.024,29.412,98.957,29.375z"/>
</g>
</svg>
