<?xml version="1.0" encoding="utf-8"?>
<!-- Generator: Adobe Illustrator 24.3.0, SVG Export Plug-In . SVG Version: 6.00 Build 0)  -->
<svg version="1.1" id="Layer_7" xmlns="http://www.w3.org/2000/svg" xmlns:xlink="http://www.w3.org/1999/xlink" x="0px" y="0px"
	 viewBox="0 0 291.277 207.299" enable-background="new 0 0 291.277 207.299" xml:space="preserve">
<g>
	<path fill="#06E4EF" d="M271.498,59.86c-0.392-3.274-1.024-6.523-1.896-9.696c-0.86-3.198-1.959-6.296-3.274-9.33
		c-1.315-3.034-2.844-5.942-4.589-8.748c-1.745-2.806-3.691-5.474-5.815-7.99c-2.124-2.516-4.437-4.88-6.902-7.067
		c-2.478-2.187-5.095-4.184-7.863-5.979c-2.769-1.808-5.638-3.401-8.634-4.791c-3.009-1.391-6.093-2.541-9.254-3.476
		c-3.16-0.935-6.384-1.631-9.645-2.098c-3.274-0.48-6.548-0.708-9.861-0.683c-3.299,0.013-6.574,0.265-9.835,0.746
		c-3.262,0.493-6.485,1.214-9.646,2.174c-3.148,0.973-6.22,2.149-9.216,3.552c-2.983,1.416-5.853,3.021-8.596,4.854
		c-2.756,1.82-5.36,3.843-7.825,6.043l-10.518,9.443l-10.455-9.418c-1.327-1.188-2.705-2.326-4.121-3.413
		c-1.416-1.075-2.87-2.111-4.361-3.072c-1.504-0.973-3.034-1.884-4.602-2.731c-1.568-0.847-3.173-1.631-4.804-2.351
		c-1.618-0.721-3.287-1.378-4.955-1.972c-1.694-0.594-3.388-1.112-5.107-1.58c-1.732-0.455-3.464-0.834-5.221-1.163
		c-1.757-0.316-3.514-0.569-5.284-0.759c-1.783-0.177-3.552-0.291-5.335-0.329c-1.782-0.051-3.565-0.013-5.347,0.076
		c-1.783,0.101-3.552,0.266-5.322,0.506c-1.757,0.24-3.514,0.544-5.259,0.923c-1.745,0.379-3.464,0.822-5.17,1.327
		c-1.707,0.506-3.401,1.087-5.069,1.732c-1.656,0.645-3.287,1.353-4.892,2.124c-1.618,0.771-3.186,1.618-4.728,2.503
		c3.047,2.731,6.068,5.765,9.14,8.849c6.574,6.612,13.375,13.4,20.631,17.875c0.569-0.822,1.188-1.618,1.846-2.377
		c0.657-0.759,1.365-1.466,2.098-2.149c0.746-0.67,1.517-1.302,2.326-1.896c0.822-0.582,1.656-1.125,2.528-1.618
		c0.885-0.493,1.782-0.936,2.705-1.327c0.923-0.392,1.858-0.733,2.819-1.024c0.961-0.278,1.934-0.506,2.92-0.683
		c0.999-0.177,1.985-0.291,2.996-0.354c0.999-0.063,1.997-0.076,2.996-0.013c0.999,0.038,1.997,0.152,2.983,0.316
		c0.999,0.164,1.972,0.379,2.933,0.657c0.973,0.278,1.909,0.607,2.844,0.986c0.923,0.379,1.833,0.809,2.705,1.302
		c0.885,0.48,1.732,1.011,2.541,1.593c0.822,0.582,1.606,1.201,2.351,1.871c0.746,0.67,1.454,1.378,2.124,2.124
		c0.67,0.746,1.289,1.542,1.871,2.364c0.581,0.809,1.112,1.656,1.593,2.541c0.48,0.885,0.923,1.783,1.289,2.718
		c0.392,0.923,0.721,1.871,0.986,2.832c0.278,0.973,0.493,1.947,0.657,2.933c0.164,0.999,0.266,1.997,0.316,2.996
		c0.051,0.999,0.051,1.997-0.013,3.009c-0.063,0.999-0.19,1.997-0.354,2.971c-0.177,0.999-0.417,1.972-0.695,2.933
		c-0.278,0.961-0.619,1.909-1.024,2.832c-0.379,0.923-0.834,1.82-1.315,2.693c-0.506,0.872-1.049,1.719-1.631,2.528
		c-0.594,0.809-1.226,1.593-1.896,2.326c-0.683,0.746-1.391,1.441-2.149,2.111c-0.758,0.657-1.555,1.264-2.377,1.833
		c-0.822,0.569-1.681,1.1-2.566,1.568c-0.885,0.48-1.783,0.898-2.718,1.264c-0.935,0.367-1.884,0.683-2.857,0.948
		c-0.973,0.266-1.947,0.468-2.933,0.619c-0.986,0.164-1.985,0.253-2.996,0.291c-0.999,0.038-1.997,0.025-2.996-0.051
		c-0.999-0.076-1.997-0.202-2.983-0.392c-0.986-0.19-1.959-0.43-2.908-0.733c-0.961-0.291-1.909-0.645-2.819-1.037
		c-0.923-0.405-1.808-0.86-2.68-1.365c-0.86-0.506-1.707-1.062-2.503-1.656c-0.809-0.594-1.58-1.239-2.313-1.922
		c-0.733-0.683-1.416-1.416-2.073-2.174c-0.645-0.771-1.252-1.568-1.808-2.402c-0.569-0.834-1.075-1.694-1.542-2.579
		c-0.455-0.898-0.872-1.808-1.226-2.743c-0.367-0.936-0.67-1.884-0.923-2.857c-12.882-5.777-23.261-16.207-31.781-24.765
		c-3.426-3.552-7.016-6.928-10.796-10.113c-1.871,2.111-3.615,4.349-5.221,6.675c-1.618,2.351-3.059,4.766-4.361,7.294
		c-1.302,2.516-2.452,5.107-3.426,7.775c-0.973,2.667-1.783,5.373-2.415,8.141c-0.645,2.756-1.112,5.562-1.403,8.381
		c-0.278,2.819-0.392,5.651-0.329,8.483c0.063,2.832,0.303,5.651,0.733,8.47c0.417,2.806,0.999,5.562,1.77,8.306
		c8.571,7.37,22.237,8.988,32.577,8.988c12.68-0.164,25.081-2.048,37.23-5.651c9.19-2.693,16.978-3.982,23.779-3.982
		c20.34,0,28.191,11.858,34.499,21.402c4.134,6.245,7.699,11.656,14.765,15.499c4.943,2.806,10.278,4.26,15.966,4.349
		c2.415-0.013,4.791-0.316,7.13-0.91c-0.089-0.695-0.114-1.391-0.076-2.086c0.025-0.708,0.126-1.391,0.278-2.073
		c0.164-0.683,0.379-1.353,0.645-1.997c0.265-0.645,0.594-1.264,0.961-1.858c0.379-0.581,0.809-1.138,1.277-1.656
		c0.468-0.518,0.973-0.986,1.53-1.416c0.556-0.43,1.15-0.809,1.757-1.138c0.619-0.329,1.264-0.594,1.921-0.809l2.301-0.746
		c0.291-4.627,1.416-9.039,3.388-13.236c6.953-14.424,37.672-31.844,52.399-32.413h0.847c4.273,0.025,8.268,1.037,12.022,3.059
		C272.054,66.421,271.89,63.134,271.498,59.86z M237.758,30.999c-0.367,2.617-3.135,7.218-6.169,10.568
		c-1.681,1.871-3.438,3.363-4.918,3.881c-1.808,0.645-3.717,0.607-5.297,0.354L220.3,48.23c-0.126,0.278-0.316,0.506-0.594,0.683
		c-0.253,0.164-0.544,0.24-0.86,0.24c-0.19,0.607-0.404,1.201-0.67,1.77c-0.619,1.416-1.454,2.705-2.49,3.856
		c-0.898,0.973-1.896,1.833-3.009,2.554c-1.112,0.721-2.301,1.289-3.565,1.719c-3.628,1.264-6.713,0.809-9.431,0.392
		c-4.779-0.721-8.23-1.239-12.768,8.154c-2.503,5.17-5.777,9.873-9.228,13.261c-4.071,3.969-8.343,6.093-12.389,6.144
		c-5.979,0.088-11.238-4.134-15.6-12.515c-2.958-5.676-3.691-9.431-2.326-11.82c1.681-2.92,5.954-3.135,10.91-3.375
		c4.184-0.202,8.748-0.43,12.389-2.25c-0.152-0.228-0.278-0.455-0.392-0.708c-0.126-0.24-0.228-0.48-0.303-0.733
		c-0.089-0.253-0.164-0.506-0.215-0.771c-0.051-0.265-0.089-0.531-0.114-0.796c-0.025-0.266-0.025-0.531-0.013-0.796
		s0.038-0.531,0.089-0.796c0.038-0.266,0.101-0.518,0.177-0.771c0.076-0.266,0.177-0.518,0.278-0.759
		c0.114-0.24,0.24-0.48,0.379-0.708c0.139-0.228,0.278-0.442,0.442-0.657c0.177-0.215,0.354-0.405,0.544-0.594
		c0.19-0.19,0.392-0.367,0.594-0.531c0.215-0.164,0.43-0.316,0.67-0.443c0.228-0.139,0.468-0.265,0.708-0.367
		c0.24-0.101,0.493-0.202,0.759-0.266c0.253-0.076,0.506-0.139,0.771-0.177c0.265-0.051,0.531-0.076,0.796-0.089
		c0.265,0,0.531,0,0.796,0.025c0.278,0.025,0.531,0.063,0.796,0.126c0.265,0.051,0.518,0.126,0.771,0.215
		c0.253,0.088,0.493,0.19,0.733,0.303c0.24,0.126,0.48,0.253,0.695,0.405c0.228,0.139,0.442,0.303,0.645,0.48
		c0.202,0.177,0.392,0.354,0.569,0.556c0.177,0.202,0.354,0.405,0.506,0.619c0.152,0.228,0.291,0.455,0.417,0.683
		c0.126,0.24,0.24,0.48,0.329,0.733c0.101,0.253,0.177,0.506,0.24,0.759c0.063,0.265,0.114,0.518,0.152,0.784
		c0.025,0.265,0.038,0.544,0.038,0.809c0,0.265-0.013,0.531-0.051,0.796c-0.038,0.266-0.089,0.518-0.152,0.784
		c-0.076,0.253-0.152,0.506-0.253,0.758c-0.101,0.253-0.215,0.493-0.341,0.721c-0.126,0.24-0.265,0.455-0.43,0.683
		c-0.152,0.215-0.329,0.417-0.506,0.607c-0.177,0.202-0.379,0.379-0.582,0.556c-0.202,0.177-0.417,0.329-0.645,0.48
		c-0.228,0.139-0.455,0.265-0.695,0.379c-0.24,0.114-0.493,0.215-0.746,0.303c-0.253,0.089-0.506,0.152-0.771,0.202
		c-0.253,0.063-0.518,0.089-0.784,0.114c-0.278,0.025-0.544,0.025-0.809,0.013c-0.266-0.013-0.531-0.038-0.796-0.089
		c-0.253-0.051-0.518-0.114-0.771-0.19c-0.253-0.076-0.506-0.164-0.746-0.278c-0.253-0.114-0.48-0.24-0.708-0.367
		c-0.24-0.139-0.455-0.291-0.67-0.468c-4.134,2.275-9.292,2.516-13.691,2.743c-4.387,0.215-8.103,0.392-9.228,2.351
		c-0.961,1.681-0.164,4.993,2.364,9.86c3.982,7.648,8.622,11.504,13.779,11.428c8.167-0.126,15.764-9.911,19.797-18.28
		c5.183-10.733,9.898-10.025,14.892-9.266c2.604,0.392,5.297,0.796,8.47-0.316c5.575-1.947,7.699-5.916,8.508-8.672l-1.517-0.683
		c-0.19-0.076-0.354-0.202-0.493-0.354c-0.152-0.139-0.253-0.316-0.329-0.506c-0.076-0.202-0.114-0.392-0.101-0.607
		c0-0.202,0.051-0.405,0.139-0.594l1.075-2.415c-1.239-1.011-2.541-2.402-3.262-4.184c-1.681-4.033,0.67-14.728,3.325-17.875
		c1.479-1.77,3.691-2.263,5.512-2.313c0.101-0.215,0.228-0.43,0.379-0.619c0.152-0.202,0.316-0.379,0.506-0.531
		c0.202-0.152,0.405-0.278,0.619-0.392c0.228-0.101,0.455-0.177,0.695-0.228c0.24-0.051,0.48-0.076,0.733-0.076
		c0.24,0,0.48,0.038,0.721,0.101c0.24,0.063,0.468,0.152,0.683,0.265c0.215,0.114,0.417,0.253,0.607,0.417
		c0.177,0.164,0.341,0.341,0.48,0.544c0.139,0.202,0.265,0.417,0.354,0.645c0.089,0.228,0.152,0.468,0.19,0.708
		c0.038,0.24,0.038,0.493,0.013,0.733c-0.013,0.24-0.063,0.48-0.152,0.721c-0.076,0.228-0.177,0.455-0.303,0.657
		c-0.126,0.215-0.291,0.405-0.455,0.569c-0.177,0.177-0.367,0.329-0.582,0.455c-0.215,0.126-0.43,0.228-0.67,0.303
		c-0.228,0.076-0.468,0.114-0.708,0.139c-0.253,0.013-0.493,0.013-0.733-0.025c-0.24-0.038-0.48-0.114-0.708-0.202
		c-0.228-0.101-0.442-0.215-0.645-0.354c-0.19-0.152-0.379-0.316-0.531-0.493c-0.164-0.19-0.303-0.392-0.417-0.607
		c-0.114-0.228-0.19-0.455-0.253-0.695c-1.302,0.076-2.743,0.417-3.704,1.479l-0.089,0.101c-1.049,1.239-2.162,4.273-2.832,7.724
		c-0.683,3.451-0.758,6.662-0.164,8.103c1.049,2.579,3.818,4.273,4.829,4.816c1.075,0.379,4.197,1.315,6.814,0.379
		c1.454-0.518,3.767-2.693,5.904-5.537c2.136-2.844,3.616-5.663,3.843-7.282c0.215-1.466-0.518-2.832-1.353-3.868
		c-0.228,0.114-0.455,0.202-0.683,0.265c-0.24,0.051-0.48,0.089-0.721,0.089c-0.253,0.013-0.493-0.013-0.733-0.063
		c-0.24-0.051-0.468-0.139-0.683-0.24c-0.228-0.114-0.43-0.24-0.619-0.392c-0.19-0.152-0.354-0.329-0.506-0.518
		c-0.152-0.202-0.278-0.405-0.379-0.632c-0.101-0.228-0.164-0.455-0.215-0.695c-0.051-0.24-0.063-0.48-0.051-0.721
		c0.013-0.253,0.051-0.493,0.126-0.721c0.063-0.24,0.152-0.468,0.278-0.683c0.114-0.202,0.265-0.405,0.43-0.581
		c0.164-0.177,0.354-0.341,0.556-0.468c0.202-0.139,0.417-0.253,0.645-0.329c0.228-0.089,0.468-0.152,0.708-0.177
		c0.24-0.025,0.493-0.025,0.733,0c0.24,0.025,0.48,0.089,0.708,0.164c0.228,0.089,0.442,0.19,0.657,0.329
		c0.202,0.139,0.392,0.291,0.556,0.468c0.164,0.177,0.303,0.379,0.43,0.582c0.126,0.215,0.215,0.442,0.291,0.67
		c0.063,0.24,0.114,0.48,0.126,0.721c0.013,0.24-0.013,0.493-0.051,0.733c-0.038,0.24-0.114,0.468-0.215,0.695
		C236.949,26.739,238.074,28.711,237.758,30.999z"/>
</g>
<g>
	<path fill="#0E4689" d="M45.516,114.086c2.264,0.137,4.623,0.209,7.007,0.209c14.634-0.149,28.958-2.318,42.984-6.505
		c7.263-2.126,13.291-3.208,17.848-3.208c8.96,0,11.451,3.763,16.892,12c4.725,7.144,10.609,16.026,22.262,22.388
		c3.972,2.228,8.159,3.93,12.562,5.101c4.402,1.171,8.876,1.774,13.434,1.81c5.376,0,10.62-0.836,15.734-2.509
		c0.753-0.245,1.517-0.514,2.276-0.794c2.604,0.92,5.221,0.956,7.849,0.096l2.288-0.771c1.051,1.26,2.186,2.449,3.393,3.56
		l-68.92,61.835L39.871,116.446l-0.544-0.49c-1.027-0.908-2.007-1.905-2.969-2.897C39.316,113.525,42.32,113.865,45.516,114.086z"/>
	<path fill="#0E4689" d="M6.555,34.67C13.167,16.941,19.941,7.885,27.873,6.171c9.748-2.109,18.672,6.857,29.054,17.257
		c8.733,8.781,18.248,18.338,29.466,22.716c0.203-0.765,0.454-1.511,0.753-2.246c0.299-0.729,0.639-1.44,1.027-2.132
		c0.382-0.687,0.806-1.35,1.278-1.989c0.466-0.633,0.974-1.242,1.517-1.816c0.538-0.573,1.117-1.111,1.726-1.613
		s1.248-0.968,1.917-1.386c0.663-0.424,1.356-0.806,2.067-1.141c0.717-0.34,1.451-0.627,2.198-0.872
		c0.753-0.251,1.517-0.448,2.288-0.597c0.777-0.149,1.559-0.257,2.347-0.311c0.788-0.054,1.577-0.054,2.365-0.012
		c0.788,0.042,1.571,0.137,2.347,0.275c0.777,0.143,1.541,0.335,2.294,0.567c0.753,0.239,1.487,0.52,2.21,0.848
		c0.717,0.329,1.41,0.699,2.085,1.117c0.669,0.412,1.314,0.866,1.929,1.362c0.615,0.496,1.201,1.027,1.75,1.589
		c0.55,0.567,1.063,1.171,1.541,1.798c0.472,0.633,0.908,1.29,1.302,1.977c0.394,0.681,0.741,1.392,1.051,2.121
		c0.305,0.723,0.561,1.469,0.777,2.228c0.215,0.765,0.382,1.535,0.496,2.318c0.119,0.777,0.191,1.565,0.209,2.353
		c0.024,0.788-0.006,1.577-0.084,2.365s-0.203,1.565-0.376,2.336c-0.173,0.771-0.394,1.529-0.663,2.27
		c-0.269,0.747-0.585,1.469-0.938,2.174c-0.358,0.705-0.759,1.38-1.201,2.037c-0.442,0.657-0.926,1.278-1.446,1.876
		c-0.52,0.591-1.075,1.153-1.667,1.678c-0.585,0.526-1.207,1.015-1.858,1.463c-0.651,0.448-1.326,0.854-2.025,1.219
		c-0.699,0.364-1.422,0.687-2.162,0.962c-0.741,0.275-1.493,0.502-2.264,0.687c-0.765,0.179-1.541,0.311-2.33,0.394
		c-0.782,0.09-1.571,0.125-2.359,0.108c-0.788-0.012-1.577-0.072-2.359-0.185c-0.782-0.108-1.553-0.269-2.318-0.472
		c-0.759-0.209-1.505-0.46-2.234-0.759c-0.735-0.305-1.44-0.645-2.132-1.033c-0.687-0.388-1.35-0.818-1.983-1.284
		c-0.633-0.472-1.236-0.98-1.81-1.523c-0.573-0.55-1.105-1.123-1.607-1.738c-0.502-0.609-0.962-1.248-1.38-1.917
		c-0.424-0.669-0.8-1.362-1.135-2.079c-0.335-0.717-0.621-1.451-0.866-2.198c-0.245-0.753-0.436-1.517-0.585-2.294
		s-0.251-1.559-0.305-2.347c-13.177-4.605-23.929-15.447-33.128-24.646c-9.193-9.205-16.94-17.018-23.469-15.602
		c-5.579,1.213-11.283,9.521-16.946,24.711C3.323,60.707,4.07,78.501,14.445,89.671c16.444,17.693,53.013,14.987,79.343,7.263
		c33.845-9.892,41.622,1.876,49.859,14.33c4.295,6.505,8.745,13.219,17.442,17.962c15.351,8.369,28.271,5.185,35.923,1.505
		l-1.523-4.689c-0.191-0.579-0.263-1.177-0.215-1.786c0.048-0.609,0.209-1.189,0.49-1.732c0.275-0.544,0.651-1.015,1.111-1.416
		c0.466-0.394,0.992-0.687,1.571-0.878l7.443-2.425c-0.233-4.707,0.239-10.346,2.724-15.447
		c5.525-11.654,33.665-27.71,45.833-28.134c6.81-0.239,12.275,3.632,15.996,7.556c0.693-0.221,1.398-0.358,2.121-0.418
		c0.723-0.054,1.446-0.03,2.162,0.084s1.41,0.311,2.085,0.585c0.669,0.275,1.302,0.627,1.888,1.051
		c0.591,0.424,1.123,0.908,1.595,1.457c0.478,0.55,0.884,1.147,1.219,1.792s0.585,1.32,0.765,2.025
		c0.173,0.705,0.263,1.422,0.275,2.15c0.006,0.723-0.072,1.44-0.233,2.15c-0.161,0.711-0.4,1.386-0.723,2.037
		c-0.323,0.657-0.711,1.26-1.177,1.822c-0.46,0.556-0.986,1.057-1.565,1.493c-0.579,0.436-1.201,0.8-1.87,1.087
		c-0.663,0.293-1.356,0.502-2.067,0.627c-0.717,0.125-1.44,0.167-2.162,0.125c-0.723-0.042-1.434-0.167-2.126-0.37
		c-0.699-0.209-1.362-0.496-1.989-0.866c-0.627-0.364-1.201-0.794-1.732-1.296c-0.526-0.502-0.986-1.051-1.38-1.661
		c-0.394-0.609-0.717-1.254-0.962-1.941c-0.245-0.687-0.406-1.386-0.484-2.109c-0.078-0.723-0.072-1.446,0.018-2.168
		c0.096-0.717,0.269-1.416,0.52-2.097c0.257-0.681,0.585-1.32,0.992-1.923c-2.724-2.73-6.356-5.215-10.591-5.215h-0.364
		c-4.814,0.173-13.685,3.733-22.591,9.085c-8.906,5.352-16.116,11.552-18.111,15.698c-3.578,7.401-1.816,16.851-0.992,20.148
		c1.29,3.13,5.448,11.815,12.657,15.698c4.026,2.156,13.386,2.939,23.863,2.001c10.477-0.938,19.598-3.279,23.6-5.979
		c3.632-2.461,5.179-6.774,5.794-10.662c-0.681-0.251-1.32-0.573-1.923-0.974c-0.603-0.4-1.153-0.86-1.649-1.392
		c-0.49-0.526-0.92-1.105-1.278-1.732c-0.358-0.627-0.639-1.29-0.842-1.983c-0.203-0.693-0.323-1.404-0.358-2.126
		c-0.042-0.723,0.006-1.44,0.137-2.15c0.131-0.711,0.346-1.398,0.639-2.061c0.293-0.663,0.657-1.278,1.093-1.858
		c0.436-0.573,0.938-1.093,1.493-1.547c0.561-0.46,1.165-0.848,1.816-1.165c0.651-0.317,1.326-0.556,2.037-0.711
		c0.705-0.155,1.416-0.233,2.138-0.221c0.723,0.012,1.44,0.108,2.138,0.287c0.699,0.173,1.374,0.43,2.013,0.771
		c0.639,0.335,1.23,0.741,1.774,1.213c0.55,0.478,1.033,1.009,1.451,1.601c0.418,0.585,0.765,1.219,1.039,1.888
		c0.275,0.669,0.466,1.362,0.573,2.079c0.108,0.711,0.137,1.434,0.078,2.15c-0.06,0.723-0.203,1.428-0.424,2.115
		c-0.227,0.687-0.526,1.344-0.902,1.959c-0.376,0.615-0.824,1.183-1.332,1.696s-1.069,0.956-1.684,1.338
		c-0.615,0.382-1.266,0.687-1.953,0.914c-0.729,5.322-2.843,11.708-8.488,15.536c-6.481,4.384-22.053,7.431-35.41,7.431
		c-7.437,0-14.181-0.908-18.266-3.136c-4.994-2.67-8.697-6.947-11.278-10.901l-7.437,2.425c-0.878,0.287-1.768,0.311-2.664,0.06
		c-0.896-0.245-1.643-0.723-2.252-1.422c-1.696,0.8-3.435,1.487-5.215,2.061c-4.349,1.434-8.817,2.15-13.398,2.162
		c-3.924-0.03-7.783-0.55-11.576-1.565c-3.793-1.009-7.395-2.485-10.812-4.414c-9.987-5.448-15.088-13.141-19.574-19.921
		c-7.885-11.917-13.577-20.524-43.163-11.875c-16.343,4.761-33.146,6.899-47.398,6.009c-16.761-1.057-29.908-6.236-38.044-14.987
		C-2.059,80.777-3.212,60.868,6.555,34.67z"/>
</g>
</svg>
