<?xml version="1.0" encoding="utf-8"?>
<!-- Generator: Adobe Illustrator 24.3.0, SVG Export Plug-In . SVG Version: 6.00 Build 0)  -->
<svg version="1.1" id="Layer_1" xmlns="http://www.w3.org/2000/svg" xmlns:xlink="http://www.w3.org/1999/xlink" x="0px" y="0px"
	 viewBox="0 0 291.104 312.362" enable-background="new 0 0 291.104 312.362" xml:space="preserve">
<g>
	<path fill="#AAD049" d="M205.643,135.9h-24.44v-24.42c0-2.97-2.4-5.37-5.37-5.37h-19.78v2.41c0,0.47-0.38,0.86-0.86,0.86h-3.92
		v3.92c0,0.47-0.39,0.86-0.86,0.86h-9.72c-0.48,0-0.86-0.39-0.86-0.86v-3.92h-3.92c-0.48,0-0.87-0.39-0.87-0.86v-2.41h-19.78
		c-2.97,0-5.38,2.4-5.38,5.37v24.42h-24.42c-2.97,0-5.38,2.4-5.38,5.37v60.58c0,2.97,2.41,5.38,5.38,5.38h24.42v24.41
		c0,2.97,2.41,5.38,5.38,5.38h60.57c2.97,0,5.37-2.41,5.37-5.38v-24.41h24.44c2.97,0,5.38-2.41,5.38-5.38v-60.58
		C211.023,138.3,208.613,135.9,205.643,135.9z M183.303,185.09l-32.84,32.84c-0.47,0.47-1.1,0.73-1.76,0.73
		c-0.67,0-1.3-0.26-1.77-0.73l-32.84-32.84c-0.98-0.98-0.98-2.56,0-3.54c0.98-0.97,2.56-0.97,3.54,0l31.07,31.07l31.06-31.07
		c0.98-0.97,2.56-0.97,3.54,0C184.283,182.53,184.283,184.11,183.303,185.09z"/>
</g>
<g>
	<path fill="#D51F26" d="M133.57,175.373l5.982-13.751l5.444,23.323l3.514-17.888l3.891,9.977l4.848-14.278l2.882,12.617h11.56
		c1.234-4.592,0.053-9.697-3.55-13.301c-5.369-5.369-14.073-5.369-19.441,0c-5.369-5.369-14.073-5.369-19.441,0
		c-3.604,3.604-4.784,8.709-3.55,13.301H133.57z"/>
	<path fill="#D51F26" d="M159.005,176.783l-2.023-8.857l-4.49,13.225l-3.533-9.062l-3.845,19.567l-5.968-25.566l-4.652,10.694
		h-8.327c0.67,1.723,1.698,3.339,3.089,4.73l19.441,19.441l19.441-19.441c1.391-1.391,2.419-3.007,3.089-4.73H159.005z"/>
</g>
<g>
	<path fill="#232020" d="M160.6,146.835l-1.953,0.591c-0.522,0.158-1.073-0.137-1.231-0.66l-0.982-3.248
		c-0.158-0.522,0.137-1.073,0.66-1.231l1.953-0.591c0.522-0.158,1.073,0.137,1.231,0.66l0.982,3.248
		C161.417,146.126,161.122,146.677,160.6,146.835z"/>
	<path fill="#232020" d="M136.797,146.835l1.953,0.591c0.522,0.158,1.073-0.137,1.231-0.66l0.982-3.248
		c0.158-0.522-0.137-1.073-0.66-1.231l-1.953-0.591c-0.522-0.158-1.073,0.137-1.231,0.66l-0.982,3.248
		C135.979,146.126,136.275,146.677,136.797,146.835z"/>
	<path fill="#232020" d="M114.804,184.383c-4.672-4.669-7.245-10.876-7.245-17.48c0-6.604,2.573-12.811,7.245-17.479
		c6.305-6.304,15.56-8.729,24.149-6.326l-0.808,2.889c-7.55-2.11-15.681,0.019-21.221,5.559c-4.105,4.102-6.365,9.556-6.365,15.358
		c0,5.803,2.26,11.256,6.365,15.357L114.804,184.383z"/>
	<path fill="#232020" d="M182.599,184.382l-2.121-2.121c8.468-8.469,8.468-22.247,0-30.716c-5.544-5.543-13.678-7.672-21.227-5.552
		l-0.811-2.889c8.597-2.413,17.85,0.011,24.158,6.32C192.237,159.061,192.237,174.744,182.599,184.382z"/>
	<path fill="#232020" d="M173.268,235.811h-56.461v-3h56.461c2.579,0,4.677-2.098,4.677-4.677s-2.098-4.677-4.677-4.677h-21.196
		c-2.688,0-4.874-2.187-4.874-4.873v-2.424h3v2.424c0,1.033,0.841,1.873,1.874,1.873h21.196c4.233,0,7.677,3.443,7.677,7.677
		S177.502,235.811,173.268,235.811z"/>
	<path fill="#232020" d="M112.884,238.061c-2.715,0-4.924-2.209-4.924-4.925c0-2.715,2.209-4.924,4.924-4.924
		c2.715,0,4.924,2.209,4.924,4.924C117.807,235.852,115.598,238.061,112.884,238.061z M112.884,230.212
		c-1.612,0-2.924,1.312-2.924,2.924s1.312,2.925,2.924,2.925s2.924-1.312,2.924-2.925S114.496,230.212,112.884,230.212z"/>
	<path fill="#232020" d="M145.563,88.42c-27.79,0-50.42-1.88-51.34-4.21l8.57,38.89c2.36,0.48,4.73,0.92,7.09,1.31
		c23.77,4.02,47.55,4.02,71.32,0.01c2.37-0.4,4.74-0.84,7.11-1.32l8.57-38.89C195.963,86.54,173.333,88.42,145.563,88.42z
		 M156.053,108.52c0,0.47-0.38,0.86-0.86,0.86h-3.92v3.92c0,0.47-0.39,0.86-0.86,0.86h-9.72c-0.48,0-0.86-0.39-0.86-0.86v-3.92
		h-3.92c-0.48,0-0.87-0.39-0.87-0.86v-9.73c0-0.47,0.39-0.86,0.87-0.86h3.92v-3.92c0-0.47,0.38-0.86,0.86-0.86h9.72
		c0.47,0,0.86,0.39,0.86,0.86v3.92h3.92c0.48,0,0.86,0.39,0.86,0.86V108.52z"/>
	<path fill="#232020" d="M187.712,79.046v3.743h-1.414l0.793,1.313c6.19-0.71,9.834-1.594,9.834-2.559
		C196.925,80.612,193.515,79.755,187.712,79.046z"/>
	<path fill="#232020" d="M103.392,79.046v3.743h1.414l-0.793,1.313c-6.19-0.71-9.834-1.594-9.834-2.559
		C94.179,80.612,97.589,79.755,103.392,79.046z"/>
	<path fill="#232020" d="M187.091,84.102c-9.338,1.085-24.464,1.795-41.533,1.795s-32.208-0.71-41.546-1.795l3.309-5.48l4.831-7.976
		c1.792-2.958,4.999-4.765,8.458-4.765h49.884c3.459,0,6.666,1.807,8.458,4.765l4.831,7.976L187.091,84.102z"/>
</g>
<g>
	<path fill="#6EC068" d="M291.023,101.448c0.719,55.694-13.98,106.325-50.089,149.71c-23.192,27.866-52.924,46.336-86.241,59.574
		c-6.637,2.637-13.076,1.865-19.606-0.816C56.667,277.724,13.703,218.628,2.46,135.405c-2.998-22.191-3.483-44.338-0.186-66.603
		C3.915,57.714,8.89,50.139,19.5,46.134C58.44,31.433,97.347,16.643,136.224,1.776c9.429-3.606,18.056-1.145,26.887,2.266
		c32.946,12.727,65.919,25.389,98.988,37.79c24.442,9.166,27.96,13.579,28.888,39.432
		C291.228,87.983,291.023,94.719,291.023,101.448z M46.114,107.082c0,3.362-0.243,6.746,0.05,10.082
		c0.626,7.11,1.201,14.25,2.373,21.282c9.235,55.409,37.158,97.372,88.344,122.652c6.224,3.074,11.834,2.854,18.071,0.258
		c57.757-24.039,101.958-105.505,91.049-167.582c-1.231-7.004-4.199-11.129-10.99-13.636c-26.017-9.603-51.936-19.486-77.739-29.65
		c-7.578-2.985-14.403-2.738-21.899,0.198c-22.69,8.885-45.599,17.209-68.353,25.933C45.845,84.737,45.884,84.839,46.114,107.082z
		 M277.035,103.482c0-6.298,0.342-12.622-0.125-18.885c-0.291-3.902,0.436-10.179-4.339-10.491
		c-4.811-0.314-8.937,4.341-10.959,9.113c-1.088,2.569-0.894,5.757-0.955,8.672c-0.176,8.399,0.317,16.841-0.344,25.195
		c-5.432,68.695-33.971,123.085-97.106,155.895c-2.962,1.539-6.152,3.029-8.48,5.312c-3.73,3.659-3.585,8.877-1.518,12.937
		c2.494,4.9,6.735,1.497,9.856,0.019c25.707-12.177,48.64-28.096,67.2-49.959C264.04,201.505,275.562,154.16,277.035,103.482z
		 M15.837,103.473c0.06,0,0.119,0,0.179,0c0,7.975-0.332,15.968,0.11,23.918c0.325,5.839,1.559,11.64,2.568,17.426
		c11.612,66.629,46.588,115.886,108.266,145.131c3.365,1.595,7.971,6.145,10.957,0.917c2.748-4.813,2.175-10.88-3.082-14.681
		c-3.373-2.439-7.285-4.138-10.98-6.123c-27.628-14.836-50.085-35.088-65.505-62.667c-20.197-36.121-28.781-74.934-26.35-116.156
		c0.358-6.075-1.104-10.65-6.004-14.192c-2.32-1.677-4.219-4.964-7.384-3.932c-3.465,1.129-2.648,4.905-2.713,7.692
		C15.721,88.357,15.837,95.917,15.837,103.473z M146.414,31.99c4.07,1.304,7.708,2.301,11.224,3.623
		c27.897,10.491,55.773,21.037,83.648,31.585c3.919,1.483,7.808,3.622,12.109,1.993c3.955-1.498,8.577-3.597,9.242-7.784
		c0.771-4.849-4.696-5.124-7.952-6.374c-31.735-12.185-63.569-24.112-95.28-36.358c-8.211-3.171-16.057-3.883-24.424-0.658
		C102.478,30.545,69.886,42.843,37.355,55.3c-2.994,1.146-7.455,1.684-7.124,5.886c0.312,3.97,4.065,6.233,7.511,7.828
		c4.65,2.152,9.004,0.029,13.33-1.61c25.513-9.669,51.018-19.358,76.559-28.949C133.89,36.103,140.278,34.092,146.414,31.99z"/>
</g>
</svg>
