<?xml version="1.0" encoding="utf-8"?>
<!-- Generator: Adobe Illustrator 24.3.0, SVG Export Plug-In . SVG Version: 6.00 Build 0)  -->
<svg version="1.1" id="Layer_7" xmlns="http://www.w3.org/2000/svg" xmlns:xlink="http://www.w3.org/1999/xlink" x="0px" y="0px"
	 viewBox="0 0 235.549 209.429" enable-background="new 0 0 235.549 209.429" xml:space="preserve">
<g>
	<path fill="#FE5955" d="M155.852,56.556c-29.89-26.57-54.82,5.54-54.82,5.54s-24.92-32.11-54.82-5.54
		c-29.89,26.57-2.76,74.09,54.82,106.85C161.362,126.566,185.752,83.126,155.852,56.556z M126.962,113.406h-17.24v17.24h-17.38
		v-17.24h-17.24v-17.38h17.24v-17.24h17.38v17.24h17.24V113.406z"/>
	<path fill-rule="evenodd" clip-rule="evenodd" fill="#FD5855" d="M235.549,98.494c-0.228,6.957-1.116,13.827-2.618,20.521
		c-3.233,14.495-9.329,28.199-17.842,40.34c-15.321,21.892-38.46,38.741-66.799,46.137C85.462,221.885,20.876,185.586,4.045,124.401
		c-10.41-37.809-0.141-76.269,24.07-104.003c5.35-6.149,11.394-11.763,18.053-16.726C47.863,2.398,49.594,1.177,51.368,0
		c-3.514,3.101-6.817,6.413-9.874,9.909C18.522,36.096,8.745,72.5,18.592,108.289c15.883,57.733,76.831,92.003,136.128,76.524
		c26.864-7.001,48.782-23.016,63.233-43.809C226.799,128.301,232.852,113.806,235.549,98.494z"/>
</g>
<g>
	<path fill-rule="evenodd" clip-rule="evenodd" fill="#B73434" d="M45.717,4.628c-1.634,2.029-3.198,4.111-4.673,6.237
		c-22.972,26.187-32.749,62.591-22.902,98.38c15.883,57.733,76.831,92.003,136.128,76.524c26.864-7.001,48.782-23.016,63.233-43.809
		c5.903-6.72,10.937-14.108,14.978-21.988l-17.842,40.34c-14.952,17.139-35.218,30.176-59.209,36.439
		c-62.828,16.392-127.414-19.906-144.245-81.092C1.943,82.074,9.006,47.98,27.664,21.354L45.717,4.628z"/>
	<path fill="#B73434" d="M101.036,151.719c-38.259-21.766-63.049-50.045-66.625-74.369c-4.258,26.486,22.046,60.691,66.625,86.053
		c46.225-28.229,71.312-60.325,67.081-85.745C164.474,100.804,140.421,127.667,101.036,151.719z"/>
	<path fill="#B73434" d="M112.862,92.886v-16.61h-23.65v16.61h-16.62v23.66h16.62v16.61h23.65v-16.61h16.62v-23.66H112.862z
		 M126.962,113.406h-17.24v17.24h-17.38v-17.24h-17.24v-17.38h17.24v-17.24h17.38v17.24h17.24V113.406z"/>
</g>
<g>
	<path fill="#176982" d="M178.909,106.598c6.635-19.477,5.648-40.136-1.297-58.092c7.934,6.186,16.069,8.279,22.235,4.733
		c10.771-6.195,11.707-27.382,2.617-48.611c20.624,24.062,28.399,59.516,17.323,92.029c-13.037,38.27-48.027,60.253-83.738,55.696
		C155.198,145.095,171.282,128.988,178.909,106.598z"/>
	<path fill="#176982" d="M180.663,32.089c3.543,8.083,10.544,12.533,15.638,9.939c5.094-2.594,6.351-11.25,2.808-19.333
		c-3.543-8.083-10.544-12.533-15.638-9.939C178.377,15.349,177.12,24.005,180.663,32.089z"/>
</g>
</svg>
