<?xml version="1.0" encoding="utf-8"?>
<!-- Generator: Adobe Illustrator 26.0.1, SVG Export Plug-In . SVG Version: 6.00 Build 0)  -->
<svg version="1.1" id="Layer_7" xmlns="http://www.w3.org/2000/svg" xmlns:xlink="http://www.w3.org/1999/xlink" x="0px" y="0px"
	 viewBox="0 0 288.227 158.276" enable-background="new 0 0 288.227 158.276" xml:space="preserve">
<g>
	<path fill="#E80A0A" d="M198.553,32.276C198.553,14.45,184.102,0,166.276,0c-9.197,0-17.497,3.847-23.376,10.02
		C137.021,3.847,128.722,0,119.524,0c-17.826,0-32.276,14.45-32.276,32.276c0,2.307,0.242,4.558,0.703,6.729h-0.062
		c5.723,33.175,55.099,67.464,55.099,67.464s45.443-31.799,53.848-63.777C197.949,39.422,198.553,35.921,198.553,32.276z"/>
	<path fill-rule="evenodd" clip-rule="evenodd" fill="#E80A0A" d="M146.961,114.54c0,2.155-1.747,3.902-3.902,3.902
		c-2.155,0-3.902-1.747-3.902-3.902c0-2.155,1.747-3.902,3.902-3.902C145.214,110.638,146.961,112.385,146.961,114.54z"/>
	<path fill-rule="evenodd" clip-rule="evenodd" fill="#E80A0A" d="M169.519,93.364c0,0-1.263,6.234-7.711,13.343
		c-4.146,4.571-10.643,9.547-14.846,12.319c-1.112,0.733-2.209,1.443-4.061,1.443c-1.852,0-2.903-0.688-3.744-1.235
		c-4.187-2.725-10.912-7.839-15.164-12.527c-6.448-7.109-7.711-13.343-7.711-13.343s-0.731,7.252,6.564,16.105
		c4.377,5.312,10.336,10.822,13.498,18.161c2.652,6.155,6.508,30.962,6.557,30.644c0.049,0.318,3.905-24.488,6.557-30.644
		c3.161-7.338,9.121-12.849,13.498-18.161C170.25,100.616,169.519,93.364,169.519,93.364z"/>
</g>
<g>
	<path opacity="0.71" fill="#E80A0A" d="M99.763,30.195c-9.277-15.221-29.137-20.039-44.358-10.762
		c-7.854,4.787-12.939,12.391-14.746,20.723c-8.233-2.213-17.323-1.178-25.176,3.608C0.261,53.042-4.557,72.903,4.721,88.124
		c1.2,1.971,2.58,3.767,4.102,5.38L8.77,93.536c22.152,25.349,82.159,28.931,82.159,28.931s22.254-50.803,12.787-82.486
		C102.967,36.612,101.66,33.308,99.763,30.195z"/>
	<path opacity="0.71" fill="#E80A0A" d="M188.463,30.195c9.278-15.221,29.138-20.039,44.359-10.762
		c7.854,4.787,12.938,12.391,14.746,20.723c8.233-2.213,17.321-1.178,25.175,3.608c15.222,9.278,20.04,29.138,10.763,44.359
		c-1.201,1.971-2.58,3.767-4.102,5.38l0.053,0.033c-22.152,25.349-82.16,28.931-82.16,28.931s-22.254-50.803-12.788-82.486
		C185.259,36.612,186.567,33.308,188.463,30.195z"/>
</g>
</svg>
