<?xml version="1.0" encoding="utf-8"?>
<!-- Generator: Adobe Illustrator 24.3.0, SVG Export Plug-In . SVG Version: 6.00 Build 0)  -->
<svg version="1.1" id="Layer_1" xmlns="http://www.w3.org/2000/svg" xmlns:xlink="http://www.w3.org/1999/xlink" x="0px" y="0px"
	 viewBox="0 0 757.377 692.431" enable-background="new 0 0 757.377 692.431" xml:space="preserve">
<g>
	<path fill-rule="evenodd" clip-rule="evenodd" fill="#505050" d="M732.477,143.875c-67.688,0-122.747-53.668-122.747-119.604V0
		H147.646v24.271c0,65.935-55.058,119.604-122.701,119.604H0v202.1C0,437.977,24.226,526.3,69.756,604.108
		c18.338,31.325,40.091,60.897,65.126,88.323h24.315c-26.428-27.206-49.35-56.823-68.632-88.323
		c-47.328-77.239-72.587-165.78-72.587-258.09V161.399h6.967c77.531,0,140.635-61.511,140.635-137.128V17.48h426.218v6.791
		c0,75.617,63.104,137.128,140.68,137.128h6.922v184.575c0,92.353-25.259,180.895-72.587,258.134
		c-19.282,31.5-42.249,61.116-68.632,88.323h24.27c25.08-27.425,46.878-56.998,65.171-88.323
		c45.53-77.764,69.756-166.131,69.756-258.09V143.875H732.477z"/>
</g>
<g>
	<path fill="#333333" d="M122.106,199.94c-13.755,20.614-24.72,43.464-32.29,68.105c13.089,16.804,39.006,52.875,90.291,78.344
		c-46.471-10.092-75.617-25.551-96.933-48.857c-3.715,28.394-3.607,57.627,0.727,87.127c1.819,12.382,4.292,24.406,7.475,36.18
		l0.031,0.212c4.88,33.216,60.911,53.799,134.718,53.532c-43.945,5.887-91.141,6.424-121.944-15.797
		c6.261,15.345,13.654,29.982,22.049,43.957l28.284,39.244c59.294,26.013,112.288,2.229,171.44-24.92l17.169-115.278
		C260.03,369.447,162.901,291.37,122.106,199.94z"/>
	<path fill="#333333" d="M631.99,198.294c14.145,20.349,25.543,42.986,33.581,67.478c-12.766,17.051-37.993,53.608-88.783,80.049
		c46.27-10.975,75.117-26.986,95.985-50.693c4.255,28.318,4.703,57.548,0.932,87.125c-1.583,12.414-3.826,24.483-6.785,36.316
		l-0.027,0.213c-4.247,33.303-59.876,54.948-133.674,56.087c44.05,5.049,91.247,4.688,121.622-18.116
		c-5.967,15.461-13.081,30.236-21.209,44.368l-27.532,39.775c-58.788,27.137-112.226,4.366-171.883-21.651l-19.361-114.93
		C497.318,370.396,592.943,290.484,631.99,198.294z"/>
	<path fill="#333333" d="M408.816,165.657c-2.336-4.578-24.342-47.091-60.457-48.773c-22.94-1.028-41.675,14.903-59.663,30.273
		c-14.717,12.52-24.762,25.414-30.976,34.431c4.111,20.696,8.27,41.439,12.381,62.135c1.448-25.087,15.324-45.877,34.34-52.184
		c15.278-5.092,28.874,0.888,33.452,3.13c-29.668,41.252-59.336,82.503-89.004,123.755c92.753,81.501,179.59,73.464,259.583,0
		C475.253,267.502,442.035,216.58,408.816,165.657z M312.377,167.283l-17.976-4.376l22.353-13.599L312.377,167.283z"/>
	<path fill="#333333" d="M31.371,601.818v16.39c0,40.99,33.23,74.22,74.23,74.22h549.59c39.14,0,70.86-31.72,70.86-70.85v-19.76
		H31.371z M216.481,673.018l-16.82-8.85l-16.83,8.85l3.21-18.74l-13.61-13.26l18.81-2.74l8.42-17.04l8.41,17.04l18.81,2.74
		l-13.61,13.26L216.481,673.018z M301.161,673.018l-16.83-8.85l-16.82,8.85l3.21-18.74l-13.61-13.26l18.81-2.74l8.41-17.04
		l8.41,17.04l18.81,2.74l-13.61,13.26L301.161,673.018z M398.751,682.158l-22.76-11.97l-22.76,11.97l4.34-25.35l-18.41-17.95
		l25.45-3.7l11.38-23.06l11.38,23.06l25.45,3.7l-18.41,17.95L398.751,682.158z M487.701,673.018l-16.82-8.85l-16.83,8.85l3.22-18.74
		l-13.61-13.26l18.8-2.74l8.42-17.04l8.41,17.04l18.81,2.74l-13.61,13.26L487.701,673.018z M572.381,673.018l-16.83-8.85
		l-16.82,8.85l3.21-18.74l-13.61-13.26l18.81-2.74l8.41-17.04l8.42,17.04l18.8,2.74l-13.61,13.26L572.381,673.018z"/>
</g>
</svg>
