<?xml version="1.0" encoding="utf-8"?>
<!-- Generator: Adobe Illustrator 24.3.0, SVG Export Plug-In . SVG Version: 6.00 Build 0)  -->
<svg version="1.1" id="Layer_11" xmlns="http://www.w3.org/2000/svg" xmlns:xlink="http://www.w3.org/1999/xlink" x="0px" y="0px"
	 viewBox="0 0 253.093 217.009" enable-background="new 0 0 253.093 217.009" xml:space="preserve">
<g>
	<path fill="#49CEAE" d="M18.759,109.266l10.323,10.309l90.353-90.483l-10.323-10.309C84.125-6.167,43.644-6.138,18.694,18.849l0,0
		C-6.257,43.835-6.227,84.316,18.759,109.266z"/>
</g>
<g>
	<path fill="#FF244E" d="M234.336,18.693c-12.48-12.46-28.83-18.69-45.18-18.69c-16.37,0-32.75,6.25-45.24,18.76l-107.74,107.89
		l90.48,90.36l107.74-107.9C259.346,84.123,259.316,43.643,234.336,18.693z M172.616,52.233c-2.92,2.93-7.65,2.93-10.58,0.01
		c-2.92-2.92-2.92-7.65,0-10.58c2.91-2.92,7.65-2.92,10.57,0C175.526,44.583,175.536,49.313,172.616,52.233z M192.036,71.633
		c-2.91,2.92-7.65,2.93-10.57,0.01c-2.93-2.92-2.93-7.66-0.01-10.58c2.92-2.92,7.65-2.93,10.58-0.01
		C194.956,63.973,194.956,68.713,192.036,71.633z M195.126,29.693c-2.92,2.92-7.65,2.92-10.57,0.01c-2.93-2.92-2.93-7.66-0.01-10.58
		s7.65-2.93,10.57-0.01C198.046,22.033,198.046,26.773,195.126,29.693z M211.466,91.033c-2.92,2.92-7.66,2.92-10.58,0
		c-2.92-2.91-2.93-7.65-0.01-10.57c2.92-2.93,7.66-2.93,10.58-0.01C214.376,83.373,214.386,88.103,211.466,91.033z M214.556,49.083
		c-2.92,2.93-7.66,2.93-10.58,0.01s-2.93-7.65-0.01-10.57c2.92-2.93,7.66-2.93,10.58-0.01
		C217.466,41.433,217.466,46.163,214.556,49.083z M233.976,68.483c-2.92,2.92-7.65,2.93-10.58,0.01c-2.92-2.92-2.92-7.66,0-10.58
		c2.91-2.92,7.65-2.92,10.57-0.01C236.896,60.823,236.896,65.563,233.976,68.483z"/>
</g>
<g>
	<path fill="#227761" d="M119.435,29.092l-10.323-10.309C84.125-6.167,43.644-6.138,18.694,18.849l0,0
		C9.953,27.602,4.29,38.258,1.68,49.481c3.105-8.191,7.931-15.879,14.521-22.479l0,0c24.95-24.986,65.432-25.015,90.418-0.065
		l7.495,7.484L119.435,29.092z"/>
</g>
<g>
	<path fill="#092A6B" d="M36.432,75.815c2.646-2.65,6.939-2.653,9.589-0.007s2.653,6.939,0.007,9.589
		c-2.646,2.65-6.939,2.653-9.588,0.007C33.789,82.757,33.786,78.464,36.432,75.815z"/>
	<path fill="#092A6B" d="M54.017,58.205c2.646-2.65,6.939-2.653,9.589-0.007c2.65,2.646,2.653,6.939,0.007,9.588
		c-2.646,2.65-6.939,2.653-9.589,0.007C51.374,65.148,51.371,60.855,54.017,58.205z"/>
	<path fill="#092A6B" d="M71.601,40.595c2.646-2.65,6.939-2.653,9.589-0.007c2.65,2.646,2.653,6.939,0.007,9.589
		c-2.646,2.65-6.939,2.653-9.588,0.007C68.958,47.538,68.955,43.245,71.601,40.595z"/>
	<path fill="#092A6B" d="M15.993,55.405c2.646-2.65,6.939-2.653,9.589-0.007s2.653,6.939,0.007,9.589s-6.939,2.653-9.588,0.007
		C13.35,62.347,13.347,58.054,15.993,55.405z"/>
	<path fill="#092A6B" d="M33.577,37.795c2.646-2.65,6.939-2.653,9.589-0.007s2.653,6.939,0.007,9.588
		c-2.646,2.65-6.939,2.653-9.589,0.007C30.935,44.738,30.932,40.445,33.577,37.795z"/>
	<path fill="#092A6B" d="M51.162,20.185c2.646-2.65,6.939-2.653,9.589-0.007s2.653,6.939,0.007,9.589
		c-2.646,2.65-6.939,2.653-9.588,0.007C48.519,27.128,48.516,22.835,51.162,20.185z"/>
</g>
<g>
	<path fill="#B2042E" d="M203.588,1.655c8.248,3.103,15.989,7.951,22.63,14.583l0,0c24.986,24.95,25.015,65.432,0.065,90.418
		L121.364,211.725l5.292,5.284l107.743-107.898c24.95-24.986,24.921-65.467-0.065-90.418C225.551,9.924,214.852,4.253,203.588,1.655
		z"/>
</g>
</svg>
