<?xml version="1.0" encoding="utf-8"?>
<!-- Generator: Adobe Illustrator 24.3.0, SVG Export Plug-In . SVG Version: 6.00 Build 0)  -->
<svg version="1.1" id="Layer_1" xmlns="http://www.w3.org/2000/svg" xmlns:xlink="http://www.w3.org/1999/xlink" x="0px" y="0px"
	 viewBox="0 0 365.971 215" enable-background="new 0 0 365.971 215" xml:space="preserve">
<g>
	<path fill="#FCD432" d="M278.228,132.122c-0.32-0.86-0.64-1.72-0.98-2.58c-0.59-1.52-1.21-3.03-1.86-4.52
		c-0.17-0.4-0.35-0.79-0.52-1.19c-0.54-1.24-1.1-2.46-1.69-3.67c-0.19-0.41-0.39-0.82-0.59-1.22c-0.4-0.82-0.81-1.63-1.23-2.43
		c-0.35-0.69-0.72-1.38-1.09-2.06c-0.43-0.81-0.87-1.6-1.32-2.39c-0.36-0.63-0.72-1.26-1.09-1.88c-0.35-0.6-0.72-1.2-1.08-1.8
		c-0.27-0.46-0.55-0.91-0.84-1.36c-0.72-1.15-1.46-2.29-2.22-3.41c-0.21-0.32-0.42-0.64-0.64-0.95c-0.84-1.23-1.71-2.45-2.6-3.65
		c-0.29-0.41-0.6-0.82-0.91-1.22c-0.64-0.87-1.31-1.73-2-2.59c-0.31-0.4-0.63-0.8-0.95-1.19c-0.84-1.04-1.7-2.06-2.58-3.07
		c-0.21-0.26-0.43-0.51-0.66-0.76c-0.91-1.04-1.83-2.06-2.78-3.06c-0.36-0.4-0.73-0.79-1.11-1.18c-0.15-0.16-0.31-0.32-0.47-0.48
		c-0.46-0.48-0.92-0.95-1.39-1.41c-0.33-0.34-0.67-0.68-1.01-1c-0.34-0.34-0.68-0.67-1.02-0.99c-0.82-0.8-1.66-1.58-2.5-2.34
		c-0.56-0.51-1.12-1.01-1.69-1.51c-0.18-0.17-0.36-0.33-0.55-0.48c-0.63-0.55-1.26-1.09-1.9-1.62c-0.35-0.3-0.7-0.59-1.06-0.88
		c-0.36-0.3-0.72-0.59-1.08-0.88c-0.25-0.21-0.51-0.41-0.77-0.61c-1.25-1-2.52-1.97-3.81-2.91c-0.68-0.5-1.35-0.99-2.04-1.47
		c-0.02-0.02-0.05-0.04-0.08-0.05c-0.71-0.5-1.42-1-2.14-1.48c-1.35-0.92-2.72-1.8-4.1-2.67c-0.17-0.11-0.33-0.21-0.5-0.31
		c-0.4-0.25-0.81-0.5-1.21-0.74c-0.46-0.28-0.93-0.56-1.39-0.83c-0.66-0.39-1.33-0.78-2-1.15c-1.92-1.09-3.87-2.14-5.85-3.13
		c-0.49-0.25-0.98-0.49-1.47-0.73c-0.53-0.26-1.05-0.52-1.59-0.77c-0.76-0.36-1.53-0.72-2.3-1.06c-0.73-0.34-1.48-0.66-2.22-0.98
		c-0.74-0.32-1.49-0.64-2.24-0.94c-0.75-0.31-1.5-0.62-2.26-0.91c-0.61-0.24-1.23-0.47-1.84-0.7s-1.22-0.46-1.84-0.67
		c-0.31-0.12-0.62-0.23-0.93-0.33c-0.31-0.11-0.62-0.22-0.93-0.32c-0.55-0.2-1.11-0.38-1.68-0.56c-0.45-0.15-0.9-0.3-1.36-0.44
		c-0.86-0.28-1.72-0.55-2.59-0.8c0.87,1.19,1.56,2.42,1.82,3.74c1.05,5.26-2.61,9.67-7.96,8.68c-3.33-0.61-8.1-4.8-8.35-7.71
		c-0.2-2.34,1.89-4.88,3.9-7.41c-0.61-0.13-1.22-0.26-1.84-0.38c-1.23-0.25-2.46-0.48-3.7-0.69c-0.55-0.1-1.12-0.19-1.67-0.28
		c-0.53-0.09-1.07-0.17-1.6-0.25c-0.54-0.08-1.07-0.16-1.61-0.23c-0.53-0.08-1.07-0.15-1.61-0.21c-0.53-0.08-1.07-0.14-1.61-0.2
		c-0.29-0.04-0.59-0.07-0.89-0.1c-0.6-0.07-1.2-0.13-1.8-0.18c-0.4-0.04-0.8-0.08-1.21-0.11c-0.76-0.07-1.52-0.13-2.29-0.18
		c-1.41-0.11-2.82-0.19-4.23-0.24c-0.89-0.04-1.77-0.07-2.66-0.09c-0.36-0.01-0.72-0.02-1.08-0.02c-12.99-0.2-26.14,1.36-39.09,4.79
		c-13.71,14.8-24.03,35.56-27.37,63.53c-1.14-22.61,6.01-43.83,18.75-60.95c-14.39,4.78-28.42,11.96-41.54,21.69
		c-2.96,2.21-4.91,6.38-9.71,5.17c0.11,0.05,0.48,0.25,0.48,0.25c0.21,2.17-0.95,3.26-2.92,3.72
		c-8.68,14.13-13.14,29.61-14.71,46.01c43.78,5.97,87.78,10.67,131.17,18.71c12.53,2.33,22.07,4.26,35.32,0.48
		c25-7.13,51.6-8.63,77.53-12.47C278.888,133.942,278.558,133.032,278.228,132.122z M193.198,100.392h13.39v14.31h-13.39V100.392z
		 M206.608,131.632h-13.57v-14.17h13.57V131.632z M210.218,100.472h13.19v14.1h-13.19V100.472z M223.858,131.662h-13.65v-14.24
		h13.65V131.662z"/>
</g>
<g>
	<path fill="#FBAC1C" d="M328.749,128.504C319.632,64.381,269.546,11.628,200.498,1.302c-57.55-8.6-126.2,26.23-148.2,76.85
		c0.01,0,0.02,0.01,0.03,0.01c4.8,1.21,6.75-2.96,9.71-5.17c13.12-9.73,27.15-16.91,41.54-21.69
		c18.66-25.13,49.34-41.43,83.43-40.29c64.39,2.16,96.99,60.29,94.07,95.23c-9.4-61.24-57.13-88.59-98.77-88.18
		c-23.17,0.23-50.21,9.17-70.11,30.66c12.95-3.43,26.1-4.99,39.09-4.79c0.36,0,0.72,0.01,1.08,0.02c0.89,0.02,1.77,0.05,2.66,0.09
		c1.41,0.05,2.82,0.13,4.23,0.24c0.77,0.05,1.53,0.11,2.29,0.18c0.41,0.03,0.81,0.06,1.21,0.11c0.6,0.05,1.2,0.11,1.8,0.18
		c0.3,0.03,0.6,0.06,0.89,0.1c0.54,0.06,1.08,0.12,1.61,0.2c0.54,0.06,1.08,0.13,1.61,0.21c0.54,0.07,1.07,0.14,1.61,0.23
		c0.53,0.08,1.07,0.16,1.6,0.25c0.56,0.08,1.11,0.18,1.67,0.28c1.24,0.21,2.47,0.44,3.7,0.69c0.62,0.12,1.23,0.25,1.84,0.38
		c0.78-0.97,1.54-1.95,2.16-2.91c1.23-0.02,2.46-0.04,3.69-0.07c1.41,1.93,3.32,3.75,4.74,5.68c0.87,0.25,1.73,0.52,2.59,0.8
		c0.46,0.13,0.91,0.28,1.36,0.44c0.57,0.18,1.13,0.36,1.68,0.56c0.31,0.1,0.62,0.21,0.93,0.32c0.31,0.1,0.62,0.21,0.93,0.33
		c0.62,0.21,1.23,0.44,1.84,0.67s1.23,0.46,1.84,0.7c0.76,0.29,1.51,0.6,2.26,0.91c0.75,0.3,1.5,0.62,2.24,0.94
		c0.74,0.32,1.49,0.64,2.22,0.98c0.77,0.34,1.54,0.7,2.3,1.06c0.54,0.25,1.06,0.51,1.59,0.77c0.49,0.24,0.98,0.48,1.47,0.73
		c1.98,0.99,3.93,2.04,5.85,3.13c0.67,0.37,1.34,0.76,2,1.15c0.46,0.27,0.93,0.55,1.39,0.83c0.4,0.24,0.81,0.49,1.21,0.74
		c0.17,0.1,0.33,0.2,0.5,0.31c1.38,0.87,2.75,1.75,4.1,2.67c0.72,0.48,1.43,0.98,2.14,1.48c0.03,0.01,0.06,0.03,0.08,0.05
		c0.69,0.48,1.36,0.97,2.04,1.47c1.29,0.94,2.56,1.91,3.81,2.91c0.26,0.2,0.52,0.4,0.77,0.61c0.36,0.29,0.72,0.58,1.08,0.88
		c0.35,0.28,0.71,0.57,1.06,0.88c0.64,0.52,1.27,1.07,1.9,1.62c0.19,0.15,0.37,0.31,0.55,0.48c0.57,0.49,1.13,1,1.69,1.51
		c0.84,0.76,1.68,1.54,2.5,2.34c0.34,0.32,0.68,0.65,1.02,0.99c0.34,0.32,0.68,0.66,1.01,1c0.47,0.46,0.94,0.93,1.39,1.41
		c0.16,0.16,0.32,0.32,0.47,0.48c0.38,0.39,0.75,0.78,1.11,1.18c0.95,1,1.87,2.02,2.78,3.06c0.23,0.25,0.45,0.5,0.66,0.76
		c0.88,1.01,1.74,2.03,2.58,3.07c0.32,0.39,0.64,0.79,0.95,1.19c0.69,0.86,1.36,1.72,2,2.59c0.32,0.4,0.62,0.81,0.91,1.22
		c0.89,1.2,1.76,2.42,2.6,3.65c0.22,0.31,0.43,0.63,0.64,0.95c0.76,1.12,1.5,2.26,2.22,3.41c0.29,0.45,0.57,0.9,0.84,1.36
		c0.37,0.59,0.73,1.2,1.08,1.8c0.37,0.62,0.73,1.25,1.09,1.88c0.45,0.79,0.89,1.58,1.32,2.39c0.37,0.68,0.74,1.37,1.09,2.06
		c0.42,0.8,0.83,1.61,1.23,2.43c0.2,0.4,0.4,0.81,0.59,1.22c0.59,1.21,1.15,2.43,1.69,3.67c0.18,0.4,0.36,0.79,0.52,1.19
		c0.492,1.127,0.95,2.273,1.407,3.419l-240.613-0.294v21.321h293.606v-20.962L328.749,128.504z"/>
</g>
<g>
	<path d="M9.87,170.999c12.003-3.086,23.873-6.896,36.031-9.139c65.084-12.004,130.722-13.235,196.587-9.302
		c32.577,1.945,64.947,5.358,96.605,13.706c5.539,1.461,10.932,3.475,16.303,5.453C240.264,155.957,125.239,155.995,9.87,170.999z"
		/>
	<path d="M305.389,96.029c-2.989,3.2-5.475,5.861-7.961,8.522c-0.432-0.251-0.864-0.501-1.296-0.752
		c0.191-2.506,0.382-5.012,0.582-7.627c-3.742-0.441-7.627-0.899-11.511-1.357c-0.103-0.366-0.206-0.731-0.309-1.097
		c3.692-1.176,7.385-2.351,10.974-3.494c-1-1.729-2.354-4.067-3.707-6.406c0.281-0.345,0.562-0.69,0.843-1.035
		c3.165,1.359,6.329,2.719,10.259,4.407c-1.158-5.233-2.235-10.1-3.312-14.968c0.498-0.199,0.996-0.397,1.494-0.596
		c1.98,4.619,3.959,9.237,5.715,13.332c3.414-2.718,7.483-5.958,11.552-9.197c0.337,0.432,0.674,0.865,1.01,1.297
		c-2.758,3.357-5.517,6.714-9.059,11.025c4.564-1.639,8.041-2.888,11.518-4.137c0.234,0.394,0.469,0.788,0.703,1.182
		c-2.308,1.995-4.617,3.989-6.607,5.708c3.449,2.047,7.08,4.203,10.711,6.358c-0.229,0.448-0.459,0.895-0.688,1.343
		c-3.989-0.676-7.978-1.352-11.061-1.874c2.287,4.216,4.838,8.918,7.389,13.62c-0.428,0.22-0.856,0.44-1.283,0.66
		c-3.515-3.427-7.029-6.854-11.226-10.945c2.071,17.788,3.979,34.182,6.076,52.19c13.005-27.518,18.616-55.316,18.518-85.085
		c-1.639,1.95-3.145,4.037-4.958,5.808c-1.64,1.602-3.616,2.859-5.444,4.268c-0.44-0.302-0.881-0.605-1.321-0.907
		c0.921-3.825,1.842-7.651,2.661-11.056c-5.379-0.712-10.916-1.445-17.206-2.278c5.734-4.455,11.608-5.629,18.05-4.43
		c-0.626-3.484-6.818-3.118-5.604-8.781c-0.437-0.265-1.756-1.063-3.074-1.861c0.244-0.507,0.487-1.014,0.731-1.52
		c5.226,2.438,10.451,4.875,16.114,7.517c-1.133-6.646-2.354-13.809-3.725-21.849c6.885,5.974,7.374,13.805,8.89,22.333
		c4.405-8.28,9.724-13.509,18.488-13.379c-4.254,4.53-8.488,9.039-13.561,14.442c6.857-1.946,12.542-3.56,18.227-5.174
		c0.177,0.438,0.353,0.875,0.53,1.313c-4.206,2.841-8.412,5.683-12.975,8.765c6.029,2.297,13.185,3.515,15.435,12.376
		c-2.631-1.713-5.486-4.418-6.239-3.923c-4.614,3.032-7.37-2.275-12.209-1.97c6.752,6.029,10.882,12.689,10.119,22.541
		c-1.243-2.824-2.078-4.722-3.062-6.958c-0.967,0.564-1.823,1.062-3.011,1.755c-1.262-3.454-2.505-6.856-3.935-10.772
		c-1.014,0.696-1.768,1.214-2.791,1.915c-1.142-2.951-2.304-5.957-3.467-8.962c-0.307,31.569-5.028,62.324-13.216,92.976
		c-6.882-1.283-13.397-2.499-20.377-3.8C309.629,135.662,308.96,116.097,305.389,96.029z"/>
	<path d="M43.513,108.57c2.513-4.103,5.026-8.205,7.407-12.093c-3.551,0.664-7.513,1.405-11.474,2.146
		c-0.286-0.342-0.573-0.684-0.859-1.025c3.589-2.302,7.178-4.605,10.835-6.95c-2.297-1.819-5.042-3.993-7.787-6.166
		c0.1-0.28,0.199-0.559,0.299-0.839c3.951,1.262,7.902,2.524,12.749,4.072c-3.218-3.984-5.921-7.332-8.801-10.897
		c6.496,0.359,9.829,4.642,12.348,9.576c1.933-4.907,3.775-9.583,5.617-14.259c0.58,0.193,1.16,0.386,1.74,0.579
		c-1.02,4.763-2.04,9.527-3.106,14.503c4.025-1.713,7.549-3.213,11.073-4.712c0.246,0.314,0.492,0.628,0.738,0.942
		c-1.6,2.364-3.199,4.728-4.598,6.794c3.475,1.063,7.321,2.24,11.166,3.417c-0.1,0.403-0.199,0.805-0.299,1.208
		c-3.887,0.422-7.774,0.844-11.569,1.256c0.324,2.632,0.629,5.117,0.935,7.602c-0.462,0.28-0.924,0.56-1.387,0.84
		c-2.496-2.612-4.992-5.223-8.079-8.452c-3.708,19.931-4.401,39.416-2.47,59.33c-6.691,1.306-13.034,2.545-20.272,3.958
		c-8.262-30.277-12.963-60.965-13.16-92.767c-1.263,2.899-2.525,5.797-3.835,8.804c-0.554-0.668-1.075-1.295-2.179-2.627
		c-1.554,3.976-2.927,7.487-4.386,11.219c-0.938-0.553-1.817-1.072-2.88-1.699c-0.823,1.82-1.624,3.594-2.426,5.367
		c-1.087-8.707,2.679-15.238,8.684-21.201c-1.488,0.518-2.953,1.125-4.471,1.531c-1.85,0.495-3.57,4.258-5.667,0.312
		C5.043,69.642,2.687,70.944,0,72.429c1.777-8.466,8.758-9.885,15.509-12.01c-4.471-2.962-8.758-5.802-13.045-8.641
		c0.117-0.468,0.234-0.935,0.352-1.402c5.732,1.598,11.464,3.195,18.299,5.101c-4.786-5.133-9.027-9.682-13.556-14.539
		c8.792,0.19,14.176,5.034,18.286,13.821c1.587-8.651,2.033-16.316,8.879-22.695c-1.366,8.381-2.517,15.448-3.57,21.908
		c5.452-2.619,10.732-5.154,16.012-7.69c0.255,0.512,0.511,1.025,0.766,1.537c-1.347,0.82-2.694,1.64-3.78,2.301
		c3.09,5.717-4.808,4.521-4.635,6.921c6.413,1.663,12.619,3.273,18.825,4.883c-0.14,0.437-0.28,0.874-0.42,1.31
		c-5.994,0.617-11.989,1.235-17.881,1.842c0.849,3.437,1.796,7.271,2.743,11.105c-0.549,0.425-1.099,0.849-1.648,1.274
		c-3.51-3.227-7.02-6.454-11.214-10.309c0.905,29.52,6.651,57.369,19.667,85.113c2.084-17.966,3.983-34.338,5.883-50.709
		c-0.279-0.302-0.558-0.604-0.836-0.905c-1.452,1.548-2.852,3.15-4.371,4.629c-1.611,1.569-3.336,3.021-5.011,4.524
		C44.673,109.387,44.093,108.978,43.513,108.57z"/>
	<path d="M180.576,149.443c0-22.363,0-44.267,0-66.682c-12.929,0-25.177,0-38.229,0c0,22.293,0,44.204,0,66.694
		c-14.871,0-28.954,0-43.037,0c-0.038-0.249-0.076-0.499-0.114-0.748c10.222-1.401,20.444-2.803,31.086-4.261
		c0-20.596,0-40.948,0-61.584c-2.475-0.364-4.945-0.728-9.325-1.372c21.382-18.192,41.651-35.437,62.381-53.074
		c20.665,17.528,40.915,34.706,62.201,52.761c-3.6,0.715-5.928,1.177-8.819,1.751c0,20.178,0,40.472,0,61.53
		c10.259,1.376,20.627,2.767,30.996,4.157c-0.009,0.276-0.017,0.552-0.026,0.828C239.048,149.443,210.405,149.443,180.576,149.443z
		 M184.942,44.114c-1.233,0.022-2.465,0.045-3.698,0.067c-2.209,3.455-6.333,7.074-6.057,10.317c0.248,2.914,5.019,7.103,8.35,7.716
		c5.355,0.986,9.016-3.42,7.964-8.682C190.813,50.093,187.229,47.234,184.942,44.114z M193.197,100.395c0,5.257,0,9.716,0,14.308
		c4.873,0,9.101,0,13.39,0c0-5.048,0-9.531,0-14.308C201.978,100.395,197.941,100.395,193.197,100.395z M210.218,100.475
		c0,5.399,0,9.852,0,14.101c5.005,0,9.215,0,13.194,0c0-5.151,0-9.618,0-14.101C218.649,100.475,214.607,100.475,210.218,100.475z
		 M193.034,131.629c4.87,0,9.258,0,13.576,0c0-5.143,0-9.626,0-14.17c-4.793,0-9.027,0-13.576,0
		C193.034,122.387,193.034,126.856,193.034,131.629z M223.855,117.426c-5.067,0-9.308,0-13.651,0c0,5.084,0,9.717,0,14.233
		c4.98,0,9.185,0,13.651,0C223.855,126.733,223.855,122.43,223.855,117.426z"/>
	<path d="M160.611,149.552c-8.425,0-16.036,0-24.15,0c0-21.152,0-41.968,0-63.582c7.22,2.313,14.114,4.317,20.818,6.828
		c1.459,0.547,3.17,2.896,3.19,4.435C160.693,114.51,160.611,131.79,160.611,149.552z"/>
</g>
<g>
	<path fill="#6EAE45" d="M141.715,176.677c-3.152,3.389-2.999,4.744,1.89,6.965c6.052,2.75,12.479,5.117,18.599,7.802
		c3.286,1.442,7.549,2.884,7.137,5.964c-0.437,3.266-5.17,4.156-9.001,5.112c-15.52,3.871-31.915,4.877-48.068,6.773
		c-22.984,2.698-42.968-2.832-62.71-9.471c-2.83-0.952-5.25-2.364-7.295-4.019c-4.727-3.826-4.486-7.196,0.745-11
		c7.808-1.287,15.563-2.76,23.437-3.82c13.059-1.758,26.166-3.236,39.531-3.765c6.024-0.238,12.127-0.503,18.179-0.987
		C129.904,175.772,135.945,175.25,141.715,176.677z"/>
	<path fill="#6EAE45" d="M186.682,177.371c14.634-0.308,28.843,1.788,43.103,3.549c10.074,1.244,19.926,3.085,29.354,5.815
		c4.073,1.179,7.981,2.569,11.432,4.589c8.199,4.8,4.046,9.696-2.339,12.351c-10.211,4.247-21.317,7.015-33.229,8.238
		c-2.596,0.266-5.114,0.88-7.666,1.334c-2.316,0.071-4.68,1.473-6.938-0.113c5.145-1.79,10.492-3.348,15.028-5.851
		c6.445-3.557,6.375-6.784-0.452-9.972c-7.56-3.53-16.265-5.486-24.636-7.892c-6.854-1.97-13.9-3.699-20.181-6.45
		C187.346,181.739,183.932,180.342,186.682,177.371z"/>
</g>
<g>
	<path fill="#84C043" d="M185.682,177.371c2.429-3.006,6.921-4.108,11.148-5.298c14.915-4.202,30.035-6.29,46.523-4.395
		c19.81,2.277,39.675,4.124,58.607,8.939c5.923,1.507,11.667,3.273,16.715,5.913c9.791,5.119,9.907,10.652,0.096,15.711
		c-9.852,5.081-21.519,7.443-33.249,9.544c-19.308,3.458-38.998,5.38-58.906,6.321c-0.093-0.286-0.187-0.571-0.28-0.857
		c2.554-0.454,5.072-1.068,7.667-1.334c11.911-1.223,23.018-3.991,33.229-8.238c6.385-2.656,10.538-7.552,2.339-12.351
		c-3.451-2.02-7.359-3.41-11.432-4.589c-9.428-2.73-19.281-4.572-29.354-5.815C214.525,179.159,200.316,177.064,185.682,177.371z"/>
	<path fill="#86C145" d="M141.715,176.677c-5.77-1.427-11.811-0.905-17.555-0.446c-6.052,0.484-12.156,0.748-18.179,0.987
		c-13.364,0.529-26.471,2.007-39.531,3.765c-7.875,1.06-15.629,2.533-23.437,3.82c3.742-3.371,9.206-5.081,14.633-6.702
		c16.671-4.98,34.378-7.385,52.255-9.243c24.273-2.523,48.733-3.386,73.364-3.321C169.116,168.764,154.163,170.604,141.715,176.677z
		"/>
</g>
</svg>
