<?xml version="1.0" encoding="utf-8"?>
<!-- Generator: Adobe Illustrator 24.3.0, SVG Export Plug-In . SVG Version: 6.00 Build 0)  -->
<svg version="1.1" id="Layer_3" xmlns="http://www.w3.org/2000/svg" xmlns:xlink="http://www.w3.org/1999/xlink" x="0px" y="0px"
	 viewBox="0 0 160.081 229.063" enable-background="new 0 0 160.081 229.063" xml:space="preserve">
<g>
	<circle fill="#261E44" cx="58.298" cy="183.512" r="3.319"/>
	<circle fill="#261E44" cx="67.517" cy="192.362" r="3.319"/>
	<circle fill="#261E44" cx="80.055" cy="196.05" r="3.319"/>
	<circle fill="#261E44" cx="101.813" cy="183.512" r="3.319"/>
	<circle fill="#261E44" cx="92.593" cy="192.362" r="3.319"/>
	<path fill="#261E44" d="M61.804,26.785c0-0.294,0-0.591,0.029-0.885c-0.294-2.567-1.711-4.486-3.244-4.368
		c-1.593,0.147-2.685,2.449-2.477,5.163c0.029,0.383,0.087,0.737,0.176,1.092c-0.355,0-0.737,0-1.121,0.029
		c-2.714,0.207-4.809,1.683-4.691,3.276c0.147,1.564,2.449,2.685,5.163,2.449c0.383-0.029,0.737-0.089,1.092-0.147
		c0,0.205,0,0.441,0.029,0.677c1.712-0.942,3.541-1.797,5.489-2.535C61.951,29.972,61.804,28.407,61.804,26.785z"/>
	<path fill="#261E44" d="M158.096,194.953c-0.029-0.057-0.072-0.129-0.115-0.187c-5.249-7.88-13.244-12.238-20.765-15.07
		c-3.753-1.424-7.435-2.488-10.685-3.365c-3.25-0.892-6.083-1.625-7.967-2.33c-3.308-1.237-6.788-2.833-9.232-4.544
		c-1.208-0.863-2.157-1.711-2.718-2.488c-0.532-0.733-0.705-1.265-0.705-1.74v-12.381c4.242-4.717,10.325-12.036,12.827-23.598
		c0.863-0.388,1.74-0.863,2.574-1.424c2.056-1.438,3.825-3.509,5.306-6.342c1.51-2.833,2.833-6.457,4.257-11.418
		c0.705-2.502,1.05-4.688,1.05-6.629c0-2.243-0.46-4.199-1.323-5.752c-0.618-1.194-1.438-2.128-2.301-2.804
		c0.259-14.668,1.913-35.936-10.886-50.604c-0.36-0.173-0.733-0.388-1.093-0.647c-0.288-0.201-0.561-0.417-0.791-0.647
		c-0.158,0.288-0.331,0.59-0.561,0.877c-1.452,2.1-3.667,3.077-4.875,2.215c-1.208-0.848-0.992-3.236,0.475-5.335
		c0.201-0.302,0.446-0.561,0.647-0.791c-0.288-0.158-0.59-0.331-0.877-0.532c-2.071-1.481-3.077-3.696-2.215-4.904
		c0.877-1.208,3.236-1.007,5.335,0.475c0.173,0.115,0.36,0.259,0.503,0.388c0.92-2.689,1.409-5.58,1.409-8.585
		c0-12.036-7.909-22.203-18.809-25.582h-0.014C94.032,0.417,91.358,0,88.597,0c-0.935,0-1.869,0.043-2.775,0.144
		c-13.23,1.352-23.569,12.295-23.986,25.755c0,0.115,0.029,0.201,0.029,0.331c0.029,0.374,0.029,0.762,0.029,1.122
		c0.331-0.101,0.705-0.158,1.093-0.187c2.718-0.201,5.019,0.892,5.134,2.488c0.144,1.582-1.941,3.034-4.688,3.264
		c-0.36,0.029-0.748,0.029-1.093,0c0.086,0.36,0.115,0.748,0.144,1.122c0.244,2.718-0.892,5.019-2.445,5.134
		c-1.596,0.158-3.063-1.941-3.279-4.688c0-0.144-0.029-0.259,0-0.417c-28.445,15.256-26.82,53.191-26.044,61.92
		c-0.446,0.503-0.892,1.035-1.222,1.682c-0.848,1.567-1.323,3.509-1.294,5.766c0,1.941,0.331,4.127,1.035,6.629
		c1.884,6.615,3.595,10.886,5.838,14.021c1.093,1.524,2.358,2.79,3.724,3.739c0.848,0.561,1.711,1.035,2.56,1.424
		c2.517,11.562,8.585,18.881,12.842,23.598v12.381c0,0.388-0.158,0.949-0.777,1.783c-0.877,1.179-2.732,2.646-4.918,3.854
		c-2.186,1.265-4.688,2.33-6.902,3.106c-2.603,0.906-6.759,1.884-11.418,3.207c-6.989,2.042-15.286,4.961-22.045,10.742
		c-2.301,1.984-4.415,4.3-6.155,7.018L0,197.024c1.596,1.51,3.293,3.034,5.047,4.53c20.909,17.731,47.555,27.509,75.007,27.509
		c27.466,0,54.113-9.779,75.022-27.524c1.826-1.553,3.451-3.034,5.004-4.501L158.096,194.953z M91.818,40.825
		c-2.488-0.604-4.228-2.272-3.883-3.725c0.345-1.452,2.66-2.157,5.163-1.553c0.345,0.086,0.676,0.201,0.992,0.316
		c0.029-0.331,0.086-0.676,0.173-1.035c0.604-2.488,2.272-4.228,3.725-3.883c1.467,0.345,2.157,2.66,1.553,5.162
		c-0.086,0.345-0.187,0.676-0.316,0.992c0.345,0.029,0.69,0.086,1.035,0.173c2.488,0.604,4.242,2.272,3.883,3.725
		c-0.345,1.467-2.66,2.157-5.148,1.553c-0.36-0.086-0.69-0.187-1.007-0.302c-0.029,0.331-0.086,0.676-0.173,1.021
		c-0.604,2.502-2.272,4.242-3.724,3.883c-1.452-0.345-2.157-2.66-1.553-5.148c0.086-0.36,0.187-0.69,0.316-1.007
		C92.522,40.969,92.177,40.912,91.818,40.825z M71.887,34.124c0.302-0.201,0.604-0.36,0.92-0.503
		c-0.216-0.259-0.417-0.532-0.618-0.834c-1.366-2.171-1.452-4.587-0.187-5.393c1.265-0.791,3.408,0.316,4.774,2.488
		c0.201,0.302,0.36,0.618,0.503,0.92c0.259-0.216,0.532-0.417,0.834-0.618c2.171-1.366,4.587-1.452,5.393-0.173
		c0.791,1.265-0.316,3.394-2.488,4.774c-0.302,0.187-0.618,0.345-0.92,0.489c0.216,0.259,0.417,0.546,0.618,0.848
		c1.366,2.171,1.438,4.587,0.173,5.378c-1.265,0.805-3.394-0.316-4.774-2.488c-0.187-0.302-0.36-0.604-0.489-0.92
		c-0.259,0.216-0.546,0.431-0.848,0.618c-2.171,1.366-4.587,1.452-5.378,0.187C68.594,37.633,69.715,35.49,71.887,34.124z
		 M151.352,197.167c-19.873,16.854-45.183,26.143-71.297,26.143c-26.1,0-51.409-9.29-71.297-26.158l-0.259-0.216
		c4.127-5.436,10.253-8.887,16.638-11.289c3.451-1.294,6.931-2.272,10.109-3.12c3.192-0.863,6.083-1.596,8.499-2.43
		c3.336-1.179,7.233-2.89,10.512-5.191c1.654-1.15,3.149-2.416,4.328-3.983c1.179-1.553,2.1-3.48,2.1-5.695V150.33l-0.834-0.906
		c-4.415-4.932-10.411-11.475-12.511-23.095l-0.316-1.869l-1.769-0.647c-1.122-0.388-2.013-0.791-2.747-1.323
		c-1.122-0.776-2.128-1.869-3.307-4.041c-1.15-2.186-2.387-5.436-3.71-10.152c-0.59-2.071-0.791-3.653-0.791-4.861
		c0-1.395,0.259-2.186,0.518-2.689c0.417-0.777,0.92-1.064,1.539-1.323c0.618-0.245,1.294-0.273,1.395-0.273l1.179,0.057
		l3.379,10.411c0,0,1.956-7.837,1.956-13.747C78.114,85.044,91.862,55.55,91.862,55.55s13.934,10.124,20.65,11.806
		c3.955,0.963,2.962,43.27,2.962,43.27l4.947-11.389l1.539-0.086c0.115-0.029,1.265,0.086,1.97,0.561
		c0.388,0.23,0.69,0.503,0.949,1.035c0.302,0.503,0.561,1.294,0.561,2.689c0,1.208-0.201,2.79-0.791,4.861
		c-1.798,6.313-3.394,9.965-4.875,12.007c-0.733,1.035-1.409,1.654-2.186,2.186c-0.733,0.532-1.596,0.935-2.732,1.323l-1.783,0.647
		l-0.316,1.869c-2.071,11.619-8.053,18.162-12.482,23.095l-0.848,0.906v14.898c0,2.157,0.82,4.07,1.97,5.608
		c1.74,2.301,4.127,4.012,6.73,5.522c2.617,1.496,5.479,2.718,8.168,3.71c3.221,1.222,7.319,2.128,11.806,3.451
		c6.687,1.927,14.093,4.674,19.615,9.39c1.424,1.208,2.732,2.545,3.868,4.055C151.51,197.038,151.424,197.095,151.352,197.167z"/>
	<path fill="#261E44" d="M117.413,44.279c1.772,0.855,3.541,0.827,4.249-0.176c0.856-1.21-0.118-3.394-2.212-4.869
		c-0.294-0.205-0.591-0.383-0.885-0.53c0.236-0.265,0.441-0.53,0.648-0.827c1.475-2.066,1.683-4.454,0.473-5.339
		c-1.21-0.855-3.394,0.147-4.869,2.242c-0.204,0.265-0.383,0.561-0.53,0.856c-0.118-0.089-0.207-0.176-0.325-0.265
		c-0.441,1.386-1.032,2.714-1.712,3.982C114.198,40.888,115.938,42.538,117.413,44.279z"/>
</g>
<g>
	<path fill="#FF2468" d="M105.566,15.348c-4.408,4.197-7.016,2.348-6.899-4.814c-3.189,6.422-7.196,3.238-8.201-6.921
		c-2.636,9.875-7.086,12.361-9.215,5.512c-1.023,7.083-3.901,8.488-7.58,3.642c1.637,5.728,0.67,10.295-1.907,11.632
		c5.221-2.457,11.119-3.626,17.277-3.118c6.141,0.491,11.786,2.594,16.532,5.858C103.249,25.406,103.009,20.744,105.566,15.348z
		 M81.949,18.497c-0.587-0.048-1.009-0.565-0.961-1.136c0.048-0.57,0.549-1.009,1.136-0.961c0.571,0.048,1.009,0.549,0.961,1.136
		C83.037,18.106,82.52,18.545,81.949,18.497z M89.214,19.083c-0.177-1.827-0.767-2.546-2.262-3.075
		c1.558-0.276,2.26-0.883,2.721-2.663c0.176,1.827,0.767,2.546,2.262,3.075C90.377,16.696,89.675,17.303,89.214,19.083z
		 M96.479,19.669c-0.587-0.048-1.009-0.565-0.961-1.136c0.048-0.571,0.549-1.009,1.119-0.961c0.587,0.047,1.009,0.549,0.961,1.136
		C97.551,19.278,97.05,19.716,96.479,19.669z"/>
</g>
</svg>
