<?xml version="1.0" encoding="utf-8"?>
<!-- Generator: Adobe Illustrator 24.3.0, SVG Export Plug-In . SVG Version: 6.00 Build 0)  -->
<svg version="1.1" id="Layer_1" xmlns="http://www.w3.org/2000/svg" xmlns:xlink="http://www.w3.org/1999/xlink" x="0px" y="0px"
	 viewBox="0 0 261.344 240.282" enable-background="new 0 0 261.344 240.282" xml:space="preserve">
<g>
	<path fill="#191919" d="M128.686,204.316c-1.72,0.905-2.715,2.972-3.244,6.502c-1.478,9.972-7.905,15.946-17.726,18.194
		c-9.655,2.218-18.088-0.769-23.006-8.871c-3.108-5.129-3.334-12.099-4.405-18.315c-0.317-1.886,0.573-3.953,1.147-6.487
		C97.231,198.161,112.966,201.239,128.686,204.316z"/>
	<path fill="#191919" d="M205.626,214.877c-1.72,0.905-2.715,2.972-3.244,6.502c-1.478,9.972-7.905,15.946-17.726,18.194
		c-9.655,2.218-18.088-0.769-23.006-8.871c-3.108-5.129-3.334-12.099-4.405-18.315c-0.317-1.886,0.573-3.953,1.147-6.487
		C174.171,208.722,189.906,211.799,205.626,214.877z"/>
</g>
<path fill="#ED1C2A" d="M235.677,223.069l-0.226,0.769c-0.362-0.06-0.724-0.121-1.086-0.181c0.181-0.06,0.347-0.121,0.513-0.181
	C235.165,223.355,235.436,223.219,235.677,223.069z"/>
<g>
	<path fill="#F47B20" d="M245.133,153.551c-15.056,2.806-30.067,5.914-45.183,8.448c-2.776,0.468-6.819-0.287-8.765-2.097
		c-29.524-27.608-58.881-55.442-88.013-83.472c-2.097-2.022-3.319-6.185-3.032-9.188c0.769-8.478,2.595-16.866,3.907-25.3
		c1.584-10.198,3.078-20.412,4.873-32.45c-3.41,2.338-5.084,3.334-6.578,4.541c-9.7,7.769-19.114,15.946-28.935,23.504
		c-0.468,0.377-0.95,0.754-1.433,1.116c-0.03-0.377-0.045-0.739-0.075-1.116c0-0.106-0.015-0.211-0.015-0.317
		c-0.196-2.716-0.392-5.416-0.573-8.116c-0.558-7.92-3.636-14.151-11.737-16.685C46.854,8.437,34.152,4.379,21.329,0.773
		c-9.625-2.7-18.541,1.916-20.713,10.078c-2.429,9.112,2.459,16.927,12.461,19.959c9.866,3.002,19.854,5.642,29.524,9.187
		c2.565,0.935,5.552,4.42,5.929,7.075c1.494,10.425,2.233,20.985,2.897,31.5c2.203,34.864,4.315,69.744,6.261,104.623
		c0.287,5.175,2.519,7.724,7.377,8.569c0.045,0.015,0.091,0.015,0.136,0.03c0.664,0.121,1.343,0.226,2.006,0.347
		c0,0,0.015,0,0.015,0.015c1.539,0.83,3.47,1.388,5.869,1.81c2.097,0.362,4.194,0.739,6.276,1.116
		c0.483,0.075,0.966,0.166,1.448,0.257c15.433,2.761,30.821,5.763,46.194,8.78c0.347,0.06,0.694,0.121,1.041,0.196
		c5.869,1.147,11.722,2.293,17.576,3.425c26.627,5.175,53.269,10.289,79.836,15.765c2.776,0.573,5.009,0.679,6.759,0.151
		c0.181-0.06,0.347-0.121,0.513-0.181c0.287-0.121,0.558-0.256,0.8-0.407c0.211-0.106,0.407-0.241,0.588-0.392
		c1.599-1.252,2.625-3.455,3.228-6.894c0.754-4.405,1.856-8.75,3.062-13.065c0.151-0.573,0.317-1.131,0.468-1.705
		c0.996-3.591,2.067-7.181,3.017-10.756c3.183-12.024,6.382-24.047,9.897-37.338C249.9,153.189,247.471,153.114,245.133,153.551z
		 M74.742,46.711c-0.4,0.407-0.775,0.845-1.139,1.282l-0.085,0.106c-10.247,12.476-6.165,29.675-7.715,45.379
		c-0.254-3.877-0.533-7.754-0.799-11.616c0.012,3.907-0.036,7.8-0.412,11.616c-0.715-10.938-1.635-21.86-1.986-32.813
		c-0.085-2.504,1.284-5.733,2.81-7.543c2.338-2.731,5.014-5.024,8.067-7.151c0.908-0.664,1.865-1.282,2.846-1.916
		c-1.017,0.845-1.95,1.72-2.798,2.64v0.106c0.388-0.287,0.763-0.558,1.163-0.83c0.921-0.664,1.865-1.282,2.846-1.916
		C76.522,44.9,75.59,45.79,74.742,46.711z"/>
</g>
<g>
	<path fill="#F2BA57" d="M115.038,5.928c11.141,8.575,20.462,15.673,29.703,22.875c36.827,28.7,73.536,57.553,110.535,86.029
		c5.837,4.492,6.848,8.549,5.592,15.841c-2.114,12.282-7.559,18.151-20.271,19.314c-12.432,1.137-24.603,4.913-37.007,6.714
		c-3.393,0.493-8.153-0.907-10.69-3.203c-28.282-25.591-56.298-51.478-84.204-77.48c-1.926-1.795-3.696-5.325-3.356-7.741
		C108.16,48.215,111.495,28.225,115.038,5.928z"/>
</g>
<g>
	<path fill="#B7B7B8" d="M236.265,93.465c-8.59-7.238-19.336-11.21-23.301-23.249C209,58.179,200.135,50.959,187.185,50.584
		c-10.917-0.316-16.05-8.76-24.108-13.77c12.767-11.07,36.364-11.29,51.351,0.014C232.49,50.453,242.992,75.992,236.265,93.465z"/>
</g>
</svg>
