<?xml version="1.0" encoding="utf-8"?>
<!-- Generator: Adobe Illustrator 24.3.0, SVG Export Plug-In . SVG Version: 6.00 Build 0)  -->
<svg version="1.1" id="Layer_4" xmlns="http://www.w3.org/2000/svg" xmlns:xlink="http://www.w3.org/1999/xlink" x="0px" y="0px"
	 viewBox="0 0 278.66 283.195" enable-background="new 0 0 278.66 283.195" xml:space="preserve">
<g>
	<rect x="118.729" y="36.02" fill="#197531" width="2.654" height="44.089"/>
	<rect x="124.266" y="36.02" fill="#197531" width="2.654" height="44.089"/>
	<rect x="129.806" y="36.02" fill="#197531" width="2.651" height="44.089"/>
	<rect x="135.342" y="36.02" fill="#197531" width="2.658" height="44.089"/>
	<rect x="140.882" y="36.02" fill="#197531" width="2.654" height="44.089"/>
	<rect x="146.421" y="36.02" fill="#197531" width="2.654" height="44.089"/>
	<rect x="151.954" y="36.02" fill="#197531" width="2.658" height="44.089"/>
	<rect x="157.497" y="36.02" fill="#197531" width="2.651" height="44.089"/>
	<rect x="100.093" y="85.82" fill="#197531" width="3.619" height="74.714"/>
	<rect x="108.481" y="85.834" fill="#197531" width="3.619" height="74.71"/>
	<rect x="116.869" y="85.84" fill="#197531" width="3.623" height="74.714"/>
	<rect x="125.261" y="85.854" fill="#197531" width="3.619" height="74.714"/>
	<rect x="133.653" y="85.867" fill="#197531" width="3.619" height="74.714"/>
	<rect x="142.045" y="85.877" fill="#197531" width="3.616" height="74.71"/>
	<rect x="150.433" y="85.887" fill="#197531" width="3.619" height="74.714"/>
	<rect x="158.824" y="85.901" fill="#197531" width="3.619" height="74.714"/>
	<rect x="167.212" y="85.911" fill="#197531" width="3.619" height="74.711"/>
	<rect x="175.601" y="85.921" fill="#197531" width="3.623" height="74.714"/>
	<rect x="71.905" y="167.572" fill="#197531" width="3.619" height="84.687"/>
	<rect x="80.092" y="167.605" fill="#197531" width="3.623" height="84.654"/>
	<rect x="88.283" y="167.639" fill="#197531" width="3.619" height="84.62"/>
	<rect x="96.474" y="167.672" fill="#197531" width="3.619" height="84.587"/>
	<rect x="104.664" y="167.706" fill="#197531" width="3.616" height="84.553"/>
	<rect x="112.851" y="167.74" fill="#197531" width="3.619" height="84.52"/>
	<rect x="121.039" y="167.773" fill="#197531" width="3.619" height="84.486"/>
	<rect x="129.229" y="167.806" fill="#197531" width="3.619" height="84.453"/>
	<rect x="137.42" y="167.84" fill="#197531" width="3.619" height="84.419"/>
	<rect x="145.607" y="167.873" fill="#197531" width="3.619" height="84.386"/>
	<rect x="153.798" y="167.907" fill="#197531" width="3.616" height="84.352"/>
	<rect x="161.985" y="167.941" fill="#197531" width="3.619" height="84.318"/>
	<rect x="170.175" y="167.974" fill="#197531" width="3.619" height="84.285"/>
	<rect x="178.362" y="168.008" fill="#197531" width="3.623" height="84.252"/>
	<rect x="186.553" y="168.041" fill="#197531" width="3.619" height="84.218"/>
	<rect x="194.74" y="167.538" fill="#197531" width="3.623" height="84.721"/>
	<rect x="202.934" y="168.074" fill="#197531" width="3.616" height="84.185"/>
	<path fill="#197531" d="M278.66,278.744c0,0-4.269-1.451-11.659-4.166c-3.653-1.495-8.281-2.668-13.439-4.343
		c-5.121-1.75-11.116-3.144-17.568-4.849c-1.612-0.419-3.257-0.855-4.937-1.29c-1.702-0.345-3.438-0.697-5.201-1.052
		c-3.515-0.744-7.148-1.515-10.882-2.302c-3.743-0.741-7.641-1.237-11.589-1.887c-3.961-0.597-7.973-1.374-12.125-1.73
		c-4.129-0.469-8.325-0.952-12.574-1.438c-4.256-0.395-8.589-0.58-12.936-0.922c-2.175-0.147-4.357-0.301-6.548-0.456
		c-2.192-0.094-4.397-0.09-6.602-0.161c-4.41-0.101-8.84-0.205-13.271-0.309c-4.444,0.107-8.891,0.208-13.318,0.315
		c-2.229,0.067-4.477,0.074-6.676,0.167c-2.175,0.154-4.344,0.302-6.502,0.456c-4.323,0.342-8.613,0.529-12.859,0.918
		c-4.25,0.489-8.445,0.972-12.574,1.441c-4.152,0.352-8.164,1.132-12.122,1.729c-3.948,0.65-7.849,1.146-11.592,1.887
		c-3.733,0.788-7.366,1.558-10.882,2.302c-1.763,0.355-3.496,0.71-5.201,1.052c-1.679,0.439-3.324,0.868-4.936,1.287
		c-6.451,1.709-12.443,3.103-17.588,4.853c-5.171,1.682-9.809,2.862-13.436,4.34C4.29,277.286,0,278.744,0,278.744
		s3.907-2.202,10.898-5.908c3.445-1.964,7.876-3.797,12.919-6.026c1.267-0.556,2.57-1.126,3.914-1.716
		c0.674-0.291,1.357-0.59,2.048-0.892c0.704-0.261,1.421-0.526,2.145-0.798c2.919-1.039,5.982-2.138,9.183-3.281
		c1.605-0.57,3.241-1.15,4.909-1.743c1.699-0.5,3.425-1.009,5.181-1.532c3.532-0.992,7.185-2.021,10.942-3.077
		c3.774-0.992,7.708-1.749,11.706-2.668c4.001-0.898,8.1-1.796,12.32-2.369c4.212-0.637,8.495-1.287,12.832-1.94
		c4.363-0.563,8.827-0.878,13.311-1.294c2.242-0.198,4.498-0.395,6.756-0.59c2.242-0.154,4.461-0.168,6.696-0.248
		c4.511-0.134,9.042-0.265,13.569-0.395c4.545,0.134,9.089,0.265,13.616,0.399c2.262,0.077,4.524,0.104,6.77,0.255
		c2.245,0.198,4.484,0.395,6.712,0.593c4.454,0.416,8.884,0.737,13.234,1.287c4.336,0.657,8.619,1.307,12.832,1.947
		c4.219,0.567,8.315,1.478,12.32,2.376c3.995,0.911,7.929,1.669,11.706,2.661c3.75,1.056,7.406,2.084,10.939,3.08
		c1.759,0.519,3.485,1.029,5.181,1.528c1.669,0.593,3.307,1.173,4.909,1.739c3.201,1.146,6.264,2.242,9.179,3.284
		c0.728,0.268,1.444,0.533,2.152,0.794c0.69,0.305,1.377,0.6,2.051,0.895c1.35,0.59,2.658,1.166,3.928,1.716
		c5.057,2.232,9.498,4.075,12.916,6.026C274.732,276.536,278.66,278.744,278.66,278.744z"/>
	<path fill="#197531" d="M0,283.195c0,0,141.621-52.864,278.66,0C278.66,283.195,186.012,254.431,0,283.195z"/>
	<path fill-rule="evenodd" clip-rule="evenodd" fill="#197531" d="M140.083,10.109h1.896V8.214h-1.896V10.109z M140.083,11.057
		v1.896h1.896v-1.896H140.083z M139.135,11.057h-1.895v1.896h1.895V11.057z M139.135,10.109V8.214h-1.896v1.894H139.135z
		 M124.58,11.569l7.312-7.312l-3.714-3.715l-9.805,8.853L124.58,11.569z M131.69,0l2.229,2.229L136.148,0H131.69z M143.071,0
		l2.229,2.229L147.529,0H143.071z M151.042,0.543l-3.714,3.714l7.312,7.312l6.206-2.174L151.042,0.543z M158.469,13.259
		l-11.712,4.103l-3.903,12.31L158.469,13.259z M136.366,29.672l-3.904-12.309l-11.712-4.103L136.366,29.672z M127.582,12.621
		l7.18,2.517l4.846,15.278l4.846-15.278l7.181-2.517L139.61,0.593L127.582,12.621z"/>
</g>
</svg>
