<?xml version="1.0" encoding="utf-8"?>
<!-- Generator: Adobe Illustrator 24.3.0, SVG Export Plug-In . SVG Version: 6.00 Build 0)  -->
<svg version="1.1" id="Layer_12" xmlns="http://www.w3.org/2000/svg" xmlns:xlink="http://www.w3.org/1999/xlink" x="0px" y="0px"
	 viewBox="0 0 312.527 284.629" enable-background="new 0 0 312.527 284.629" xml:space="preserve">
<g>
	<path opacity="0.39" fill="#46BEA2" d="M280.856,155.337l-43.122,43.813l-51.442,52.267l-20.945,21.28l-11.742,11.931
		l-56.904-57.817l-49.444-50.238l-20.902-21.237c-35.141-35.705-35.141-93.587,0-129.292C61.497-9.66,132.183-8.17,167.325,27.535
		c35.141-35.705,88.039-34.928,123.18,0.777S315.997,119.632,280.856,155.337z"/>
</g>
<g>
	
		<ellipse transform="matrix(0.9254 -0.3789 0.3789 0.9254 -18.3296 48.6873)" fill="#FDB71E" cx="114.545" cy="70.918" rx="47.306" ry="47.306"/>
	<path fill="#FDB71E" d="M186.293,203.2v48.743l-20.945,20.944l-11.742,11.742l-56.904-56.904l-49.444-49.444
		c10.116-27.341,36.416-46.83,67.286-46.83c22.018,0,41.719,9.914,54.864,25.524C179.949,169.45,186.293,185.581,186.293,203.2z"/>
</g>
<g>
	<circle fill="#EC1C5A" cx="186.289" cy="103.861" r="39.843"/>
	<path fill="#EC1C5A" d="M237.734,200.5l-51.442,51.442l-20.945,20.944l-11.742,11.742l-34.557-34.557v-33.515
		c0-1.19,0.032-2.37,0.106-3.539v-0.096c1.254-21.115,13.357-39.317,30.816-49.104c5.929-3.326,12.475-5.685,19.435-6.843
		c3.273-0.553,6.631-0.84,10.063-0.84C207.29,156.136,230.71,174.923,237.734,200.5z"/>
</g>
<g>
	
		<ellipse transform="matrix(0.2308 -0.973 0.973 0.2308 -80.9096 265.376)" fill="#8E56A1" cx="127.387" cy="183.861" rx="30.209" ry="30.21"/>
	<path fill="#8E56A1" d="M165.348,250.083v22.804l-11.742,11.742l-56.904-56.904c5.366-7.332,13.283-12.677,22.453-14.707
		l0.191-0.032c2.593-0.563,5.281-0.861,8.044-0.861c2.763,0,5.451,0.298,8.044,0.861
		C152.533,216.674,165.348,231.88,165.348,250.083z"/>
</g>
<g>
	<path fill="#99BBB5" d="M237.734,23.619c-1.806-1.457,62.185,17.642,52.622,88.673C290.356,112.291,289.166,65.122,237.734,23.619z
		"/>
</g>
</svg>
