<?xml version="1.0" encoding="utf-8"?>
<!-- Generator: Adobe Illustrator 24.3.0, SVG Export Plug-In . SVG Version: 6.00 Build 0)  -->
<svg version="1.1" id="Layer_3" xmlns="http://www.w3.org/2000/svg" xmlns:xlink="http://www.w3.org/1999/xlink" x="0px" y="0px"
	 viewBox="0 0 242.499 169.09" enable-background="new 0 0 242.499 169.09" xml:space="preserve">
<g>
	<path fill="#E82671" d="M145.133,114.583c0,4.694-3.805,8.499-8.499,8.499s-8.499-3.805-8.499-8.499s3.805-8.498,8.499-8.498
		S145.133,109.889,145.133,114.583z"/>
	<path fill="#E82671" d="M97.366,54.507c0-4.694,3.805-8.498,8.499-8.498s8.499,3.805,8.499,8.498s-3.805,8.499-8.499,8.499
		S97.366,59.201,97.366,54.507z"/>
	<path fill="#E82671" d="M225.79,52.16c-6.65,0-12.37,3.9-15.06,9.53h-89.8c-2.69,5.62-8.41,9.52-15.07,9.52
		c-9.22,0-16.7-7.48-16.7-16.7c0-9.23,7.48-16.71,16.7-16.71c6.65,0,12.38,3.9,15.07,9.53h71.78C180.41,19.46,152.57,0,120.15,0
		C79.36,0,44.91,30.77,42.57,76.05h168.16c2.69,5.62,8.41,9.52,15.06,9.52c9.23,0,16.71-7.48,16.71-16.7
		C242.5,59.64,235.02,52.16,225.79,52.16z M153.68,17.73c2.21,0.04,3.98,1.83,3.98,4.05v2.9h-3.98V17.73z M136.66,17.72h2.97v4.01
		h-7.02C132.63,19.51,134.44,17.72,136.66,17.72z M132.6,35.52h5.3c0.35,0,0.63-0.28,0.63-0.63v-2.64h5.29
		c0.25,0.44,0.72,0.74,1.26,0.74c0.8,0,1.44-0.65,1.44-1.44c0-0.8-0.64-1.45-1.44-1.45c-0.6,0-1.11,0.36-1.33,0.88h-5.85
		c-0.35,0-0.64,0.28-0.64,0.63v2.65h-4.66v-3.13h2.94c0.35,0,0.63-0.28,0.63-0.63v-4.29h4.12c0.24,0.47,0.72,0.79,1.28,0.79
		c0.8,0,1.44-0.65,1.44-1.44c0-0.8-0.64-1.45-1.44-1.45c-0.57,0-1.07,0.34-1.3,0.83h-4.73c-0.35,0-0.64,0.29-0.64,0.64v4.28h-2.3V23
		h7.66c0.35,0,0.63-0.29,0.63-0.64v-4.64h2.28v3.14c0,0.35,0.28,0.63,0.63,0.63h3.96v4.02c-0.46,0.25-0.77,0.72-0.77,1.27
		c0,0.8,0.65,1.44,1.44,1.44c0.8,0,1.45-0.64,1.45-1.44c0-0.59-0.35-1.09-0.86-1.31v-4.61c0-0.35-0.28-0.64-0.63-0.64h-3.96v-2.5
		h7.98v7.6c0,0.35,0.29,0.63,0.64,0.63h4.61v2.67h-2.87c-0.23-0.47-0.71-0.79-1.27-0.79c-0.8,0-1.45,0.64-1.45,1.44
		s0.65,1.44,1.45,1.44c0.57,0,1.07-0.34,1.3-0.83h2.84v2.87h-8.48c-0.35,0-0.64,0.28-0.64,0.63v3.69h-4.09
		c-0.23-0.5-0.73-0.85-1.32-0.85c-0.79,0-1.44,0.65-1.44,1.44c0,0.8,0.65,1.45,1.44,1.45c0.55,0,1.03-0.31,1.27-0.77h4.78
		c0.35,0,0.63-0.28,0.63-0.63v-3.7h7.85v1.89h-5.73c-0.35,0-0.63,0.28-0.63,0.63v6.23h1.27v-5.6h5.09v1.57
		c0,2.24-1.81,4.06-4.05,4.06h-14.29v-5.28c0-0.35-0.28-0.63-0.64-0.63h-6.08V35.52z M132.6,38.15h5.45v4.64h-1.39
		c-2.24,0-4.06-1.82-4.06-4.06V38.15z M225.79,77.36c-4.69,0-8.49-3.8-8.49-8.49c0-4.7,3.8-8.5,8.49-8.5c4.7,0,8.5,3.8,8.5,8.5
		C234.29,73.56,230.49,77.36,225.79,77.36z"/>
	<path fill="#E82671" d="M31.77,93.04c-2.69-5.62-8.41-9.52-15.07-9.52C7.48,83.52,0,91,0,100.22c0,9.23,7.48,16.71,16.7,16.71
		c6.65,0,12.38-3.9,15.07-9.53h89.8c2.69-5.62,8.41-9.52,15.06-9.52c9.23,0,16.71,7.48,16.71,16.7c0,9.23-7.48,16.71-16.71,16.71
		c-6.65,0-12.37-3.9-15.06-9.53H49.79c12.3,27.87,40.14,47.33,72.56,47.33c40.79,0,75.24-30.77,77.58-76.05H31.77z M16.7,108.72
		c-4.69,0-8.49-3.8-8.49-8.5c0-4.69,3.8-8.5,8.49-8.5c4.7,0,8.5,3.81,8.5,8.5C25.2,104.92,21.4,108.72,16.7,108.72z M92.85,126.48
		h2.97v4.01H88.8C88.82,128.27,90.63,126.48,92.85,126.48z M94.24,151.55h-1.39c-2.24,0-4.06-1.82-4.06-4.06v-0.58h5.45V151.55z
		 M113.86,137.38h-2.87c-0.24-0.47-0.72-0.79-1.28-0.79c-0.8,0-1.44,0.65-1.44,1.44c0,0.8,0.64,1.45,1.44,1.45
		c0.58,0,1.07-0.35,1.3-0.84h2.85v2.87h-8.49c-0.35,0-0.63,0.28-0.63,0.63v3.7h-4.1c-0.23-0.51-0.73-0.86-1.31-0.86
		c-0.8,0-1.45,0.65-1.45,1.45c0,0.79,0.65,1.44,1.45,1.44c0.55,0,1.02-0.31,1.26-0.77h4.78c0.35,0,0.63-0.28,0.63-0.63v-3.69h7.86
		v1.88h-5.74c-0.35,0-0.63,0.28-0.63,0.63v6.23h1.27v-5.6h5.1v1.57c0,2.24-1.82,4.06-4.06,4.06H95.51v-5.28
		c0-0.35-0.28-0.63-0.63-0.63H88.8v-1.36h5.29c0.35,0,0.64-0.28,0.64-0.63v-2.64h5.29c0.24,0.44,0.71,0.74,1.25,0.74
		c0.8,0,1.44-0.65,1.44-1.44c0-0.8-0.64-1.45-1.44-1.45c-0.59,0-1.1,0.36-1.32,0.88h-5.86c-0.35,0-0.63,0.28-0.63,0.63v2.65H88.8
		v-3.13h2.93c0.35,0,0.64-0.28,0.64-0.63v-4.29h4.12c0.24,0.47,0.72,0.79,1.27,0.79c0.8,0,1.45-0.65,1.45-1.44
		c0-0.8-0.65-1.45-1.45-1.45c-0.57,0-1.07,0.35-1.3,0.83h-4.73c-0.35,0-0.63,0.29-0.63,0.64v4.28h-2.31v-6.86h7.66
		c0.35,0,0.63-0.28,0.63-0.63v-4.65h2.28v3.14c0,0.35,0.28,0.63,0.63,0.63h3.96v4.02c-0.45,0.25-0.77,0.72-0.77,1.27
		c0,0.8,0.65,1.44,1.45,1.44c0.79,0,1.44-0.64,1.44-1.44c0-0.59-0.35-1.09-0.85-1.31v-4.61c0-0.35-0.29-0.64-0.64-0.64h-3.95v-2.5
		h7.97v7.6c0,0.35,0.29,0.63,0.64,0.63h4.62V137.38z M113.86,133.44h-3.99v-6.95c2.21,0.04,3.99,1.83,3.99,4.05V133.44z"/>
</g>
</svg>
