<?xml version="1.0" encoding="utf-8"?>
<!-- Generator: Adobe Illustrator 24.3.0, SVG Export Plug-In . SVG Version: 6.00 Build 0)  -->
<svg version="1.1" id="Layer_4" xmlns="http://www.w3.org/2000/svg" xmlns:xlink="http://www.w3.org/1999/xlink" x="0px" y="0px"
	 viewBox="0 0 242.713 176.854" enable-background="new 0 0 242.713 176.854" xml:space="preserve">
<g>
	<path fill-rule="evenodd" clip-rule="evenodd" fill="#FDB71E" d="M133.278,40.539c0,6.117-4.959,11.075-11.076,11.075
		c-6.117,0-11.076-4.959-11.076-11.075c0-6.117,4.959-11.076,11.076-11.076C128.319,29.463,133.278,34.422,133.278,40.539z"/>
	<path fill-rule="evenodd" clip-rule="evenodd" fill="#FDB71E" d="M169.23,17.231c-0.216,0.959-0.483,1.899-0.795,2.817
		c-7.198,27.386-46.113,54.617-46.113,54.617S80.245,45.444,75.175,17.1c0.008-0.138,0.016-0.209,0.016-0.209
		s20.192,37.304,47.053,37.304s46.964-37.304,46.964-37.304S169.22,17.008,169.23,17.231z"/>
</g>
<g>
	<path fill-rule="evenodd" clip-rule="evenodd" fill="#2A3A3A" d="M104.108,84.623c-0.173,1.1-0.46,2.156-0.841,3.155
		c-2.573,6.749-9.595,11.011-17.02,9.847c-8.517-1.344-14.339-9.344-12.995-17.861c1.157-7.346,7.267-12.693,14.39-13.16
		c0.963-0.065,1.948-0.036,2.94,0.086c0.18,0.022,0.352,0.043,0.532,0.072c6.922,1.093,12.068,6.584,13.024,13.182
		C104.359,81.461,104.359,83.035,104.108,84.623z"/>
	<path fill-rule="evenodd" clip-rule="evenodd" fill="#2A3A3A" d="M130.702,97.137c-2.875,2.494-5.815,4.873-8.754,7.137
		c-20.204,15.532-40.595,25.487-40.595,25.487S29.148,79.822,28.307,39.219c0.043-0.194,0.065-0.288,0.065-0.288
		s19.946,56.401,57.364,62.295c9.416,1.488,18.752-0.417,27.457-4.09c3.004-1.265,5.923-2.746,8.754-4.363
		C124.779,94.391,127.697,95.872,130.702,97.137z"/>
	<path fill-rule="evenodd" clip-rule="evenodd" fill="#2A3A3A" d="M139.785,83.393c1.343,8.522,9.34,14.341,17.861,12.999
		c8.522-1.343,14.341-9.339,12.999-17.861c-1.343-8.522-9.339-14.342-17.861-12.999C144.263,66.875,138.443,74.871,139.785,83.393z"
		/>
	<path fill-rule="evenodd" clip-rule="evenodd" fill="#2A3A3A" d="M215.587,39.219c-0.841,40.603-53.044,90.542-53.044,90.542
		s-20.391-9.955-40.595-25.487c-2.94-2.264-5.879-4.643-8.754-7.137c3.004-1.265,5.923-2.746,8.754-4.363
		c2.832,1.617,5.75,3.098,8.754,4.363c8.704,3.673,18.041,5.578,27.457,4.09c37.419-5.894,57.364-62.295,57.364-62.295
		S215.544,39.025,215.587,39.219z"/>
</g>
<g>
	<path fill-rule="evenodd" clip-rule="evenodd" fill="#99BBB5" d="M13.4,0C-9.506,44.56-3.151,100.548,33.273,138.977
		c46.108,48.648,122.913,50.705,171.564,4.604c39.749-37.676,48.392-95.847,25.077-142.401
		c13.92,41.035,3.843,88.234-29.674,119.996c-45.91,43.514-118.405,41.573-161.919-4.336C7.755,84.588-0.381,39.224,13.4,0L13.4,0z"
		/>
</g>
</svg>
