<?xml version="1.0" encoding="utf-8"?>
<!-- Generator: Adobe Illustrator 24.3.0, SVG Export Plug-In . SVG Version: 6.00 Build 0)  -->
<svg version="1.1" id="Layer_1" xmlns="http://www.w3.org/2000/svg" xmlns:xlink="http://www.w3.org/1999/xlink" x="0px" y="0px"
	 viewBox="0 0 289.92 229.044" enable-background="new 0 0 289.92 229.044" xml:space="preserve">
<g>
	<path d="M179.368,163.027c1.339,4.775-1.241,9.856-3.627,14.811c-8.536,17.727-23.055,29.298-40.259,37.727
		c-27.691,13.568-56.518,17.693-86.467,8.682c-12.073-3.632-22.296-10.207-28.462-20.033
		C78.92,212.196,131.235,197.129,179.368,163.027z"/>
	<path d="M25.071,174.133c0.933,11.77,4.293,14.902,16.494,16.34c14.691,1.732,29.147-0.064,43.527-2.863
		c22.578-4.394,44.336-11.125,64.07-23.298c3.702-2.284,7.274-4.943,10.409-7.947c7.27-6.964,7.016-11.33-1.739-18.774
		c7.475,1.098,13.88,1.733,16.809,8.011c2.665,5.711-1.177,10.288-5.046,14.159c-7.333,7.337-16.288,12.293-25.598,16.604
		c-31.293,14.489-64.018,22.906-98.676,22.987c-5.63,0.013-11.202-0.651-16.614-2.156c-5.242-1.458-10.859-3.29-11.556-9.611
		C16.511,181.783,20.678,178.059,25.071,174.133z"/>
	<path d="M289.92,105.044c-0.381,4.914-3.167,8.257-6.559,11.17c-6.538,5.615-14.072,9.58-21.996,12.819
		c-13.068,5.34-26.161,10.619-39.26,15.882c-13.76,5.529-26.61,12.234-34.317,25.809c-0.688,1.212-1.571,3.009-3.255,2.014
		c-1.729-1.021-1.155-3.236-0.623-4.646c3.669-9.715,9.909-17.226,19.556-21.541c11.108-4.968,22.348-9.652,33.36-14.822
		c13.366-6.275,25.683-13.901,33.64-27.086c2.743-4.545,7.06-7.426,12.868-6.752C287.653,98.392,289.807,100.886,289.92,105.044z"/>
	<path d="M85.026,60.448c-3.233,7.089-6.483,14.17-9.693,21.269c-3.416,7.553-3.902,7.827-12.154,5.943
		c-2.975-0.679-5.946-1.404-8.868-2.279c-5.011-1.5-7.604,1.409-9.348,5.29c-2.622,5.835-4.31,12.164-7.459,17.674
		c-8.125,14.215-16.689,28.189-25.508,41.984c-1.012,1.583-4.946,2.327-7.185,1.853c-3.342-0.708-5.523-3.406-4.597-7.348
		c0.257-1.092,0.795-2.155,1.376-3.129c11.018-18.462,22.243-36.803,33.048-55.388c9.971-17.151,19.171-34.754,29.325-51.792
		C71.778,21.415,80.827,9.119,94.345,0C88.19,29.393,75.189,55.706,63.64,82.716c3.902,2.939,6.551,3.137,8.39-1.837
		c8.466-22.893,17.033-45.748,25.617-68.596c0.927-2.467,2.205-4.801,4.342-7.006c-0.575,3.501-0.678,7.164-1.81,10.475
		c-4.379,12.813-9.118,25.503-13.639,38.269c-0.754,2.13-1.09,4.409-1.62,6.62L85.026,60.448z"/>
	<path d="M87.422,61.199c0.968-1.354,1.937-2.708,2.997-4.19c1.359,0.678,2.407,1.108,3.362,1.691
		c15.609,9.539,31.256,19.017,46.785,28.685c8.234,5.127,16.273,10.57,24.369,15.916c3.786,2.5,4.058,5.753,1.664,9.364
		c-2.393,3.61-5.195,4.442-9.186,1.969c-14.899-9.232-30.012-18.119-44.851-27.443c-3.947-2.48-7.326-5.928-10.743-9.168
		c-3.361-3.188-7.368-3.478-11.148-0.296c-3.824,3.22-7.586,6.514-11.376,9.775c-0.36-0.345-0.719-0.69-1.079-1.035
		c3.103-8.489,6.206-16.978,9.31-25.464C87.526,61.007,87.422,61.199,87.422,61.199z"/>
	<path d="M7.49,18.95c17.48,1.989,33.595,8.785,48.979,17.672c2.608,1.507,2.811,3.232,1.274,5.614
		c-2.066,3.201-3.757,6.688-6.145,9.615c-0.851,1.043-4.105,1.709-4.842,1.022c-10.125-9.438-19.872-19.283-30.029-28.685
		C14.128,21.781,10.425,20.567,7.49,18.95z"/>
	<path d="M43.961,63.108C27.749,49.894,12.366,35.864,0.734,18.328C15.673,32.633,30.698,47.02,45.722,61.407
		C45.135,61.974,44.548,62.541,43.961,63.108z"/>
</g>
<g>
	<path fill="#FAC120" d="M127.57,120.976c-5.493-5.658-12.642-9.811-11.756-19.556c-4.056,4.972-3.447,9.64-0.792,14.196
		c2.075,3.569,4.572,6.903,6.673,10.469c1.969,3.344,3.263,6.887,0.89,11.025c-2.424-3.95-3.873-8.135-8.487-11.177
		c1.004,5.109,2.038,9.357,0.667,13.587c-0.957,2.94-2.059,5.883-5.557,6.669c-3.562,0.807-5.803-1.382-7.719-3.835
		c-5.672-7.274-6.568-15.024-1.829-23.127c2.85-4.895,6.192-9.544,8.679-14.607c3.878-7.909,1.577-13.484-6.545-16.716
		c-3.646-1.454-7.53-2.246-11.246-3.52c-7.267-2.476-8.404-4.598-6.821-12.155c0.87-4.118,1.619-8.247-0.978-12.428
		c-1.177,7.086-4.502,13.093-7.711,19.193c-2.992,5.704-1.748,7.946,4.663,9.995c3.321,1.057,6.652,2.087,9.871,3.394
		c2.872,1.163,4.418,3.396,4.253,6.664c-0.191,3.72-4.917,11.492-9.256,15.864l-0.011,0.015l-2.61,3.585
		c-1.168,4.496-2.349,8.994-3.517,13.491c-0.673-0.105-1.331-0.198-1.99-0.304c-0.298-4.942,1.53-9.333,3.768-13.6l1.02-2.855
		c0.052-0.231,0.143-0.466,0.246-0.703c0.264-0.665,0.609-1.314,0.821-1.973c2.84-9.304,0.944-12.92-8.597-14.98
		c-7.02-1.515-14.163-2.394-21.049-4.559c-0.904-0.275-1.98-1.217-2.827,0.099c-1.133,1.799,0.679,2.269,1.573,2.903
		c4.716,3.347,10.338,4.54,15.653,6.482c4.088,1.507,4.964,3.872,2.071,7.412c-2.768,3.366-5.506,6.769-8.112,10.275
		c-5.803,7.821-7.524,16.661-5.714,26.428c-7.807-7.125-8.486-16.155-7.818-26.521c-9.847,11.788-11.409,24.954-5.201,36.284
		l-0.008-0.065c-0.266-2.9-0.769-5.798-1.032-8.777c-0.066-0.666-0.106-1.334-0.146-2.003c-0.028-0.683-0.042-1.355-0.045-2.041
		c0.007-1.717,0.157-3.452,0.525-5.239c0.152-0.718,0.332-1.426,0.548-2.165c0.116-0.357,0.23-0.727,0.359-1.086
		c0.268-0.745,0.576-1.481,0.922-2.236l0.747,6.275c0.206,1.732,0.451,3.459,0.605,5.196c0.957,11.704,7.899,18.879,17.946,23.638
		c1.231,0.58,2.794,1.952,4.099,0.384c0.983-1.173-0.246-2.4-0.678-3.59c-4.3-11.94-6.458-23.857,1.02-36.248
		c-0.222,17.099,5.449,29.8,23.574,34.311c0.021-3.924-2.875-5.402-4.052-7.863c-6.921-14.44-1.872-26.925,5.845-39.08
		c1.513-2.372,3.142-4.665,4.713-6.992c0.54-4.673,3.737-8.764,3.42-13.757c3.242,4.605,1.898,9.07-0.637,13.505
		c-3.042,6.172-6.211,12.267-9.073,18.51c-6.029,13.13,2.381,27.657,16.676,28.939c3.817,0.338,6.028-2.276,7.787-5.02
		c1.549-2.403,2.603-4.641,5.687-1.694c2.798,2.651,4.099-0.62,5.904-1.759l1.629-13.266c1.173,4.865,3.386,9.698,0.009,14.497
		c1.232,4.911-3.964,7.853-3.788,12.44C135.745,150.715,137.439,131.117,127.57,120.976z"/>
</g>
<g>
	<path fill="#F9A11C" d="M128.62,148.764c1.232,4.911-3.964,7.853-3.788,12.44l-0.017-0.143c-0.417,0.604-0.832,1.221-1.261,1.827
		c-18.087,20.546-54.374,22.41-74.298,3.787c-2.065-1.933-4.038-3.969-5.113-6.68c-0.185-1.444-0.248-2.968-1.876-3.672
		c-0.688-7.444-2.901-14.945,1.132-23.546l0.747,6.275c0.206,1.732,0.451,3.459,0.605,5.196
		c0.957,11.704,7.899,18.879,17.946,23.638c1.231,0.58,2.794,1.952,4.099,0.384c0.983-1.173-0.246-2.4-0.678-3.59
		c-4.3-11.94-6.458-23.857,1.02-36.248c-0.222,17.099,5.449,29.8,23.574,34.311c0.021-3.924-2.875-5.402-4.052-7.863
		c-6.921-14.44-1.872-26.925,5.845-39.08c1.513-2.372,3.142-4.665,4.713-6.992c0.54-4.673,3.737-8.764,3.42-13.757
		c3.242,4.605,1.898,9.07-0.637,13.505c-3.042,6.172-6.211,12.267-9.073,18.51c-6.029,13.13,2.381,27.657,16.676,28.939
		c3.817,0.338,6.028-2.276,7.787-5.02c1.549-2.403,2.603-4.641,5.687-1.694c2.798,2.651,4.099-0.62,5.904-1.759l1.629-13.266
		C129.784,139.132,131.996,143.965,128.62,148.764z"/>
</g>
</svg>
