<?xml version="1.0" encoding="utf-8"?>
<!-- Generator: Adobe Illustrator 24.3.0, SVG Export Plug-In . SVG Version: 6.00 Build 0)  -->
<svg version="1.1" id="Layer_5" xmlns="http://www.w3.org/2000/svg" xmlns:xlink="http://www.w3.org/1999/xlink" x="0px" y="0px"
	 viewBox="0 0 203.961 206.959" enable-background="new 0 0 203.961 206.959" xml:space="preserve">
<g>
	<path fill="#A7A9AC" d="M192.812,96.616v60.659c0,8.535-6.942,15.432-15.507,15.432h-30.457c-2.855,0-5.169-2.299-5.169-5.139
		c0-0.947,0-1.758-0.135-2.705c-1.352-13.418-12.637-23.831-26.505-23.831H93.686c-14.275,0-25.98,11.224-26.521,25.319v1.082
		c0,2.84-2.299,5.139-5.154,5.139H26.641c-8.565,0-15.492-6.897-15.492-15.432V96.481c0-1.698,0.256-3.276,0.766-4.718
		c0.015-0.045,0.03-0.105,0.045-0.15c2.044-6.1,7.889-10.563,14.68-10.563H177.44c6.807,0,12.652,4.463,14.695,10.563
		C192.541,93.25,192.812,94.858,192.812,96.616z"/>
</g>
<g>
	<path d="M117.755,125.459h-7.483c-2.314,0-4.211-1.897-4.211-4.192c0-2.304,1.897-4.201,4.211-4.201h7.483
		c2.304,0,4.211,1.897,4.211,4.201C121.966,123.562,120.059,125.459,117.755,125.459z"/>
	<path d="M93.68,125.459h-7.473c-2.314,0-4.221-1.897-4.221-4.192c0-2.304,1.907-4.201,4.221-4.201h7.473
		c2.314,0,4.221,1.897,4.221,4.201C97.901,123.562,95.994,125.459,93.68,125.459z"/>
	<path d="M152.972,121.267c0,4.327-3.533,7.986-8.025,7.986c-4.346,0-8.025-3.524-8.025-7.986c0-4.472,3.533-7.986,8.025-7.986
		C149.303,113.281,152.972,116.795,152.972,121.267z"/>
	<path d="M182.342,121.267c0,4.327-3.533,7.986-8.025,7.986c-4.346,0-8.025-3.524-8.025-7.986c0-4.472,3.543-7.986,8.025-7.986
		C178.808,113.281,182.342,116.795,182.342,121.267z"/>
	<path d="M159.632,114.491c-4.346,0-8.025-3.514-8.025-7.986c0-4.327,3.543-7.986,8.025-7.986c4.356,0,8.025,3.524,8.025,7.986
		C167.657,110.977,164.123,114.491,159.632,114.491z"/>
	<path d="M159.632,143.871c-4.346,0-8.025-3.514-8.025-7.986c0-4.327,3.543-7.986,8.025-7.986c4.356,0,8.025,3.524,8.025,7.986
		C167.657,140.357,164.123,143.871,159.632,143.871z"/>
	<path d="M36.034,133.581v8.131c0,1.21,0.949,2.159,2.168,2.159h12.11c1.22,0,2.168-0.949,2.168-2.159v-8.131
		c0-0.678-0.271-1.22-0.813-1.617l-6.118-5.15c-0.813-0.678-2.043-0.678-2.856,0l-6.118,5.15
		C36.305,132.235,36.034,132.903,36.034,133.581z"/>
	<path d="M36.034,108.944v-8.122c0-1.22,0.949-2.168,2.168-2.168h12.11c1.22,0,2.168,0.949,2.168,2.168v8.122
		c0,0.678-0.271,1.22-0.813,1.626l-6.118,5.14c-0.813,0.678-2.043,0.678-2.856,0l-6.118-5.14
		C36.305,110.164,36.034,109.622,36.034,108.944z"/>
	<path d="M31.949,113.01h-8.16c-1.22,0-2.168,0.939-2.168,2.159v12.052c0,1.22,0.949,2.168,2.168,2.168h8.16
		c0.678,0,1.229-0.271,1.636-0.813l5.169-6.089c0.678-0.813,0.678-2.033,0-2.846l-5.169-6.099
		C33.178,113.281,32.627,113.01,31.949,113.01z"/>
	<path d="M56.701,113.01h8.16c1.22,0,2.168,0.939,2.168,2.159v12.052c0,1.22-0.949,2.168-2.168,2.168h-8.16
		c-0.687,0-1.229-0.271-1.636-0.813l-5.169-6.089c-0.678-0.813-0.678-2.033,0-2.846l5.169-6.099
		C55.336,113.281,56.014,113.01,56.701,113.01z"/>
	<path d="M177.305,70.081h-32.306c1.968-0.947,3.516-2.043,4.763-3.125l1.172-7.979l0.661-5.484l3.336-24.071
		c4.342-0.841,8.174-4.989,8.174-9.977c0-5.65-4.508-10.142-10.173-10.142c-5.665,0-10.188,4.493-10.188,10.142
		c0,2.825,1.172,5.319,3.005,7.152L131.07,49.18l-0.496,0.842l-0.661,1.157c-1.337,2.164-4.673,1.998-5.845-0.331l-1.007-1.998
		l-0.165-0.496l-14.019-29.916c2.51-1.818,4.177-4.808,4.177-8.294c0-5.65-4.508-10.142-10.188-10.142
		c-5.665,0-10.172,4.493-10.172,10.142c0,3.321,1.668,6.311,4.177,8.294L82.852,48.353l-0.165,0.496l-1.007,1.998
		c-1.172,2.329-4.343,2.645-5.83,0.331l-0.841-1.157l-0.676-0.842L59.818,26.596c1.848-1.833,3.005-4.327,3.005-7.152
		c0-5.65-4.493-10.142-10.173-10.142c-5.665,0-10.188,4.493-10.188,10.142c0,4.989,3.681,9.136,8.52,9.977l3.336,24.071l0.676,5.484
		l1.157,7.979c1.247,1.082,2.78,2.179,4.763,3.125H26.641C11.961,70.081,0,82.011,0,96.616v60.659
		c0,14.62,11.961,26.536,26.641,26.536h35.371c8.97,0,16.168-7.303,16.168-16.108c0-8.535,6.927-15.447,15.507-15.447h21.487
		c8.565,0,15.492,6.912,15.492,15.447c0,8.94,7.348,16.108,16.183,16.108h30.457c14.695,0,26.656-11.915,26.656-26.536V96.616
		C203.961,82.011,192,70.081,177.305,70.081z M192.812,157.275c0,8.535-6.942,15.432-15.507,15.432h-30.457
		c-2.855,0-5.169-2.299-5.169-5.139c0-14.62-11.961-26.536-26.641-26.536H93.686c-14.695,0-26.656,11.916-26.656,26.536
		c0,2.84-2.314,5.139-5.169,5.139H26.506c-8.565,0-15.492-6.897-15.492-15.432V96.616c0-8.52,6.927-15.431,15.492-15.431h150.799
		c8.565,0,15.507,6.912,15.507,15.431V157.275z"/>
</g>
</svg>
