<?xml version="1.0" encoding="utf-8"?>
<!-- Generator: Adobe Illustrator 24.3.0, SVG Export Plug-In . SVG Version: 6.00 Build 0)  -->
<svg version="1.1" id="Layer_2" xmlns="http://www.w3.org/2000/svg" xmlns:xlink="http://www.w3.org/1999/xlink" x="0px" y="0px"
	 viewBox="0 0 248.999 232.872" enable-background="new 0 0 248.999 232.872" xml:space="preserve">
<g>
	<path fill="#F08200" d="M202.462,38.611c-20.683-23.084-49.116-36.729-80.064-38.431C91.449-1.523,61.695,8.933,38.611,29.603
		C15.527,50.286,1.882,78.719,0.179,109.668c-1.702,30.948,8.754,60.703,29.437,83.787c20.67,23.084,49.103,36.729,80.052,38.431
		c2.185,0.127,4.345,0.178,6.517,0.178c28.585,0,55.811-10.38,77.27-29.602c0.127-0.114,0.267-0.241,0.394-0.368
		c6.86-6.187,12.87-13.073,17.977-20.505c3.354-4.879,6.314-9.999,8.868-15.309c6.505-13.569,10.342-28.408,11.193-43.882
		C233.589,91.449,223.146,61.695,202.462,38.611z M219.207,121.699c-1.118,20.264-7.978,39.334-19.73,55.316
		c-3.519,4.815-7.496,9.351-11.879,13.543c-0.851,0.839-1.728,1.639-2.617,2.439c-20.556,18.409-47.058,27.721-74.614,26.21
		c-27.556-1.524-52.877-13.67-71.298-34.226c-18.409-20.556-27.721-47.058-26.197-74.614C14.383,82.81,26.529,57.49,47.098,39.068
		c19.108-17.113,43.348-26.362,68.808-26.362c1.931,0,3.862,0.051,5.793,0.152c27.569,1.525,52.877,13.67,71.298,34.226
		C211.407,67.641,220.719,94.143,219.207,121.699z"/>
	<path fill="#F08200" d="M245.941,227.881c-4.739,5.806-13.365,6.67-19.159,1.944l-29.907-24.406
		c6.86-6.187,12.87-13.073,17.977-20.505l29.157,23.796C249.816,213.448,250.68,222.075,245.941,227.881z"/>
</g>
<g>
	<path fill="#285A33" d="M107.686,120.964l4.482,6.378l-0.129,2.844l-2.036,46.986H55.785c0.527-9.07,3.066-17.601,7.162-25.161
		C71.899,135.51,88.329,123.644,107.686,120.964z"/>
	<circle fill="#285A33" cx="118.567" cy="78.27" r="33.238"/>
	<path fill="#285A33" d="M176.286,177.172h-52.662l-1.791-49.678v-0.164l4.307-6.097c3.815,0.644,7.513,1.65,11.059,2.972
		c0,0,0,0,0.012,0c8.157,3.054,15.459,7.817,21.498,13.868C168.855,148.219,175.397,161.935,176.286,177.172z"/>
</g>
</svg>
