<?xml version="1.0" encoding="utf-8"?>
<!-- Generator: Adobe Illustrator 24.3.0, SVG Export Plug-In . SVG Version: 6.00 Build 0)  -->
<svg version="1.1" id="Layer_1" xmlns="http://www.w3.org/2000/svg" xmlns:xlink="http://www.w3.org/1999/xlink" x="0px" y="0px"
	 viewBox="0 0 742.48 781.116" enable-background="new 0 0 742.48 781.116" xml:space="preserve">
<g>
	<linearGradient id="SVGID_1_" gradientUnits="userSpaceOnUse" x1="183.9579" y1="726.3524" x2="572.7031" y2="53.0261">
		<stop  offset="0" style="stop-color:#BECDD5"/>
		<stop  offset="0.245" style="stop-color:#86C4E0"/>
		<stop  offset="0.44" style="stop-color:#57BEE8"/>
		<stop  offset="0.5456" style="stop-color:#3CBCED"/>
		<stop  offset="0.9913" style="stop-color:#6CA3B8"/>
	</linearGradient>
	<path fill="url(#SVGID_1_)" d="M633.297,486.559c-39.765,116.939-139.031,184.246-255.97,184.246
		c-73.934,0-141.24-32.009-189.793-82.771c-48.553-50.762-79.432-119.148-79.432-196.371c0-79.433,30.879-147.868,79.432-198.581
		c48.553-50.762,115.859-82.771,189.793-82.771c113.601,0,208.498,58.47,249.343,174.329h110.312
		c-7.217-28.376-16.888-55.082-28.867-79.874c-37.998-78.745-98.922-138.344-174.771-172.365C486.461,11.292,433.833,0,377.327,0
		C274.772,0,181.693,43.3,114.681,110.312c-1.473,1.473-2.946,2.946-4.37,4.418C44.134,185.326,0,282.431,0,391.663
		c0,107.022,44.134,204.128,110.311,274.723c67.307,70.595,162.203,114.73,267.016,114.73
		c179.827,0,321.067-119.148,365.153-294.557H633.297z"/>
	
		<linearGradient id="SVGID_2_" gradientUnits="userSpaceOnUse" x1="369.4726" y1="584.0436" x2="593.6835" y2="195.6984" gradientTransform="matrix(1 0.0031 -0.0031 1 -98.8653 -1.3163)">
		<stop  offset="0" style="stop-color:#BECDD5"/>
		<stop  offset="0.245" style="stop-color:#86C4E0"/>
		<stop  offset="0.44" style="stop-color:#57BEE8"/>
		<stop  offset="0.5456" style="stop-color:#3CBCED"/>
		<stop  offset="0.9913" style="stop-color:#6CA3B8"/>
	</linearGradient>
	<path fill="url(#SVGID_2_)" d="M527.595,448.564c-23.612,66.024-80.462,103.835-147.177,103.622
		c-42.651-0.133-81.419-18.719-109.313-48.075c-27.92-29.356-45.602-68.869-45.469-113.408
		c0.133-45.815,18.081-85.222,46.161-114.391c28.106-29.169,66.981-47.517,109.632-47.384
		c65.492,0.213,120.082,34.062,143.455,100.884l59.802-13.428c-2.978-9.652-6.488-18.959-10.53-27.84
		c-0.691-1.516-1.409-3.031-2.127-4.547c-21.777-45.496-56.797-79.957-100.485-99.74c-26.989-12.258-57.329-18.852-89.928-18.959
		c-59.137-0.186-112.902,24.623-151.671,63.152c-0.851,0.851-1.702,1.702-2.526,2.553c-38.317,40.577-63.923,96.523-64.136,159.515
		c-0.186,61.716,25.101,117.822,63.125,158.638c38.715,40.843,93.358,66.476,153.798,66.662
		c98.411,0.319,176.958-61.291,206.739-153.931L527.595,448.564z"/>
</g>
<g>
	<linearGradient id="SVGID_3_" gradientUnits="userSpaceOnUse" x1="189.4806" y1="17.0114" x2="187.0628" y2="708.6093">
		<stop  offset="0" style="stop-color:#495A68"/>
		<stop  offset="0.9964" style="stop-color:#FFFFFF;stop-opacity:0"/>
	</linearGradient>
	<path fill="url(#SVGID_3_)" d="M157.539,550.806c-30.878-45.11-49.437-99.546-49.437-159.32
		c0-79.433,30.879-147.868,79.432-198.581c48.553-50.762,115.859-82.771,189.793-82.771h-76.26
		c-142.336,0-267.631,98.522-296.2,237.961C1.769,363.217,0,377.831,0,391.485c0,89.289,30.788,171.612,79.4,237.459
		L157.539,550.806z"/>
	
		<linearGradient id="SVGID_4_" gradientUnits="userSpaceOnUse" x1="372.6565" y1="175.0325" x2="371.2621" y2="573.9194" gradientTransform="matrix(1 0.0031 -0.0031 1 -98.8653 -1.3163)">
		<stop  offset="0" style="stop-color:#495A68"/>
		<stop  offset="0.9964" style="stop-color:#FFFFFF;stop-opacity:0"/>
	</linearGradient>
	<path fill="url(#SVGID_4_)" d="M253.864,482.692c-17.728-26.073-28.334-57.503-28.227-91.979
		c0.143-45.814,18.076-85.229,46.17-114.391c28.094-29.19,66.972-47.531,109.614-47.398l-43.984-0.137
		c-82.094-0.256-154.536,56.343-171.265,136.714c-1.814,8.717-2.861,17.142-2.885,25.017c-0.16,51.499,17.449,99.034,45.368,137.1
		L253.864,482.692z"/>
</g>
</svg>
