<?xml version="1.0" encoding="utf-8"?>
<!-- Generator: Adobe Illustrator 24.3.0, SVG Export Plug-In . SVG Version: 6.00 Build 0)  -->
<svg version="1.1" id="Layer_7" xmlns="http://www.w3.org/2000/svg" xmlns:xlink="http://www.w3.org/1999/xlink" x="0px" y="0px"
	 viewBox="0 0 154.534 216.74" enable-background="new 0 0 154.534 216.74" xml:space="preserve">
<g>
	<path fill="#FF8F1F" d="M80.626,82.359v23.516h26.55c1.67-7.774,3.171-17.462,3.648-23.516H80.626z"/>
	<path fill="#FF8F1F" d="M108.56,118.891c-1.707-1.703-2.634-3.951-2.661-6.295H48.633c-0.027,2.345-0.954,4.592-2.661,6.295
		c-0.131,0.131-0.285,0.289-0.42,0.423h63.424C108.842,119.18,108.691,119.022,108.56,118.891z"/>
	<path fill="#FF8F1F" d="M73.907,105.876V82.36H43.709c0.477,6.054,1.979,15.742,3.648,23.516H73.907z"/>
	<path fill="#FF8F1F" d="M116.27,75.641c19.717-18.991,16.287-30.054,15.776-31.357c-0.044-0.114-0.094-0.222-0.151-0.329
		c-0.92-1.76-2.298-3.363-4.095-4.757c-4.649-3.608-9.826-4.834-15.034-5.459l-2.53,3.541c-0.128,0.178-0.269,0.339-0.423,0.491
		c-7.69,7.277-14.493,24.232-15.501,37.871L116.27,75.641L116.27,75.641z"/>
	<path fill="#FF8F1F" d="M38.264,75.641h21.958c-1.008-13.639-7.811-30.595-15.501-37.871c-0.181-0.175-0.346-0.37-0.484-0.578
		l-2.315-3.47c-5.261,0.622-10.492,1.834-15.188,5.476c-1.797,1.394-3.178,2.997-4.099,4.757c-0.054,0.107-0.104,0.215-0.148,0.329
		C21.977,45.587,18.547,56.649,38.264,75.641z"/>
	<path fill="#FF8F1F" d="M105.026,33.014l-0.076,0.103C95.275,42.49,88.555,61.689,87.585,75.64H66.947
		c-0.97-13.931-7.67-33.098-17.325-42.483l-0.098-0.149c2.255-0.207,4.452-0.448,6.531-0.927c2.711-0.625,7.332-2.381,7.788-7.156
		c0.01-0.254,0.013-1.146,0.008-2.184c-0.003-1.857-0.02-4.185-0.02-4.188c0-0.098,0.003-0.194,0.01-0.29
		c2.877-0.95,5.649-1.978,8.264-3.094H81.8c2.862,1.177,5.858,2.368,8.904,3.482c-0.005,0.524-0.023,3.021-0.023,4.754
		c0,0.768,0.003,1.388,0.013,1.618c0.451,4.676,5.069,6.433,7.781,7.057C100.561,32.561,102.766,32.805,105.026,33.014z"/>
	<path fill="#FF8F1F" d="M154.5,199.466c-2.721-19.035-10.115-37.078-21.383-52.176c-6.319-8.466-12.491-15.625-17.701-21.255h-76.3
		c-5.207,5.631-11.382,12.789-17.698,21.255c-11.271,15.098-18.665,33.141-21.383,52.176c-0.161,1.122,0.255,2.251,1.109,3
		c3.551,3.118,14.782,7.552,20.56,7.552c11.335,0,17.627-1.623,21.316-2.866c3.437,3.034,11.893,9.588,20.809,9.588
		c6.991,0,11.093-1.297,13.438-2.587c2.348,1.29,6.447,2.587,13.438,2.587c8.913,0,17.368-6.551,20.808-9.585
		c3.524,1.199,9.833,2.862,21.319,2.862c5.775,0,17.009-4.435,20.56-7.552C154.245,201.716,154.661,200.588,154.5,199.466z"/>
</g>
<g>
	<path fill-rule="evenodd" clip-rule="evenodd" fill="#FFCF06" d="M110.204,23.911c-0.587,3.55-1.882,5.997-5.329,5.949
		c-4.56-2.162-9.386-4.316-14.193-6.453c-5.077-2.255-10.136-4.492-14.843-6.7c-3.868,1.87-7.891,3.986-11.988,6.034
		c-5.911,2.959-11.971,5.778-17.917,7.53c-1.504-1.721-2.288-4.964-0.847-6.921c6.417-1.466,12.812-3.117,18.753-5.085
		c2.877-0.95,5.649-1.978,8.264-3.094c1.199-0.511,2.366-1.043,3.495-1.595v-3.144c-0.534-0.121-0.93-0.587-0.93-1.144
		c0-0.65,0.537-1.177,1.202-1.177c1.628,0,2.948-1.29,2.948-2.88s-1.32-2.88-2.948-2.88c-2.19,0-3.643,2.285-2.62,4.21
		c0.305,0.574,0.073,1.282-0.517,1.577c-0.587,0.297-1.313,0.071-1.615-0.504C69.263,4.14,71.898,0,75.872,0
		c2.956,0,5.352,2.343,5.352,5.231c0,2.129-1.318,4.039-3.323,4.843v3.467c1.265,0.534,2.567,1.081,3.9,1.63
		c2.862,1.177,5.858,2.368,8.904,3.482C97.246,21.046,104.021,23.09,110.204,23.911z"/>
</g>
</svg>
