<?xml version="1.0" encoding="utf-8"?>
<!-- Generator: Adobe Illustrator 24.3.0, SVG Export Plug-In . SVG Version: 6.00 Build 0)  -->
<svg version="1.1" id="Layer_9" xmlns="http://www.w3.org/2000/svg" xmlns:xlink="http://www.w3.org/1999/xlink" x="0px" y="0px"
	 viewBox="0 0 304.083 197.261" enable-background="new 0 0 304.083 197.261" xml:space="preserve">
<g>
	<path fill="#FF2765" d="M145.331,197.261l-36.957-34.004c-3.895-3.599-7.338-6.879-10.533-10.035
		c-0.483-0.493-0.907-0.914-1.332-1.335c-0.641-0.633-1.287-1.287-1.92-1.94c-0.572-0.561-1.205-1.216-1.839-1.872
		c-0.939-0.949-1.903-1.954-2.853-2.959c-1.151-1.217-2.29-2.423-3.401-3.643c-1.105-1.198-2.202-2.403-3.285-3.622
		c-1.066-1.186-2.136-2.406-3.177-3.612c-2.662-3.078-4.956-5.831-7.012-8.415c-0.885-1.097-1.777-2.234-2.654-3.372
		c-0.687-0.889-1.36-1.766-2.021-2.642c-1.039-1.384-2.058-2.763-3.035-4.141c-0.79-1.081-1.592-2.215-2.379-3.366
		c-0.632-0.901-1.281-1.847-1.9-2.792c-0.036-0.052-0.074-0.106-0.11-0.159l-0.212-0.225l-0.19-0.373
		c-0.732-1.1-1.45-2.201-2.144-3.302c-0.972-1.504-1.906-3.012-2.749-4.439c-0.31-0.513-0.643-1.065-0.962-1.617
		c-5.58-9.561-8.345-16.418-9.495-19.652c-10.73-30.494,4.06-64.576,32.964-75.989C84.456,1.263,91.074,0,97.813,0
		c18.738,0,36.158,9.734,46.599,26.039l0.92,1.436l0.921-1.437C156.688,9.735,174.102,0,192.836,0
		c6.763,0,13.388,1.264,19.689,3.756c14.029,5.523,25.197,16.497,31.441,30.898c6.182,14.296,6.73,30.302,1.543,45.073l-0.008,0.021
		c-1.135,3.182-3.299,8.459-7.162,15.523l-0.073,0.131c-0.145,0.265-0.29,0.528-0.435,0.779l-0.561,1.006
		c-0.24,0.434-0.476,0.857-0.72,1.271c-0.554,0.972-1.128,1.946-1.705,2.89c-0.62,1.036-1.315,2.16-2.051,3.329l-0.191,0.294
		l-0.001-0.001c-0.116,0.203-0.243,0.404-0.381,0.601c-1.635,2.572-3.473,5.302-5.465,8.113c-0.677,0.963-1.393,1.959-2.123,2.969
		c-0.439,0.605-0.885,1.196-1.343,1.803c-2.623,3.518-5.458,7.13-8.408,10.717c-0.428,0.525-0.888,1.073-1.363,1.636
		c-0.685,0.825-1.42,1.681-2.168,2.551l-0.646,0.75c-0.934,1.093-1.913,2.2-2.905,3.323c-2.098,2.371-4.289,4.764-6.569,7.174
		c-0.725,0.768-1.444,1.528-2.177,2.274c-0.424,0.45-0.921,0.962-1.425,1.482l-0.697,0.719c-0.749,0.779-1.515,1.545-2.296,2.325
		l-0.583,0.585c-0.585,0.588-1.176,1.181-1.781,1.765c-0.734,0.737-1.541,1.529-2.361,2.322c-0.677,0.657-1.368,1.314-2.068,1.981
		l-0.325,0.309c-0.15,0.155-0.305,0.305-0.468,0.448l-0.026,0.026c-0.701,0.67-1.415,1.352-2.139,2.019
		c-0.82,0.768-1.698,1.58-2.576,2.392L145.331,197.261z M68.141,103.597l0.092,0.097l0.441,0.693
		c0.622,0.947,1.217,1.813,1.825,2.68c0.763,1.115,1.509,2.172,2.282,3.229c0.969,1.366,1.939,2.676,2.923,3.987
		c0.633,0.841,1.285,1.689,1.95,2.551c0.838,1.086,1.687,2.169,2.549,3.239c1.996,2.508,4.211,5.166,6.792,8.15
		c1.005,1.163,2.035,2.339,3.078,3.5c1.063,1.197,2.121,2.359,3.206,3.536c1.091,1.198,2.191,2.361,3.304,3.539
		c0.902,0.954,1.817,1.908,2.745,2.846c0.62,0.641,1.203,1.244,1.798,1.831c0.66,0.682,1.257,1.283,1.854,1.874
		c0.464,0.459,0.925,0.916,1.384,1.387c3.063,3.025,6.433,6.236,10.246,9.758l30.723,28.269l30.743-28.276
		c0.854-0.789,1.717-1.585,2.551-2.367c0.713-0.657,1.382-1.298,2.041-1.927l0.833-0.797c0.683-0.649,1.355-1.29,2.018-1.93
		c0.785-0.759,1.553-1.516,2.309-2.27c0.618-0.598,1.164-1.148,1.707-1.693l0.6-0.601c0.739-0.74,1.464-1.465,2.177-2.204
		l0.719-0.742c0.474-0.49,0.943-0.972,1.405-1.461c0.756-0.769,1.429-1.483,2.092-2.184c2.233-2.362,4.356-4.679,6.331-6.911
		c1.011-1.144,1.958-2.217,2.866-3.277l0.656-0.762c0.712-0.829,1.413-1.642,2.089-2.456c0.462-0.548,0.886-1.051,1.296-1.556
		c2.876-3.495,5.619-6.991,8.172-10.414c0.44-0.584,0.852-1.132,1.251-1.68c0.696-0.965,1.39-1.927,2.056-2.875
		c1.941-2.739,3.713-5.372,5.281-7.843l0.437-0.682c0.751-1.19,1.41-2.257,2.017-3.268c0.547-0.897,1.077-1.794,1.619-2.746
		c0.238-0.404,0.431-0.755,0.63-1.113l0.366-0.657c0.092-0.165,0.183-0.331,0.28-0.496c0.109-0.189,0.222-0.396,0.337-0.605
		l0.068-0.124c3.753-6.862,5.72-11.828,6.56-14.181c4.413-12.578,3.948-26.199-1.309-38.356
		c-5.264-12.139-14.632-21.373-26.377-25.997c-5.227-2.067-10.713-3.114-16.313-3.114c-15.581,0-30.101,8.15-38.838,21.8
		l-8.667,13.529l-8.666-13.528c-8.742-13.652-23.266-21.802-38.853-21.802c-5.578,0-11.061,1.047-16.297,3.113
		c-24.36,9.619-36.773,38.493-27.67,64.365c1.038,2.917,3.565,9.169,8.778,18.102c0.3,0.518,0.602,1.018,0.904,1.518
		c0.804,1.361,1.673,2.763,2.606,4.207C66.8,101.56,67.465,102.58,68.141,103.597z"/>
</g>
<g>
	<path fill-rule="evenodd" clip-rule="evenodd" fill="#494849" d="M297.563,52.984c0.228,0.733,0.139,1.58-0.341,2.287
		c-3.538,5.143-9.465,8.328-14.937,9.313v25.312c0,3.134-3.88,6.255-6.875,6.255h-52.396c-0.607,0-1.163-0.202-1.605-0.556
		c-0.468-0.366-0.809-0.847-0.935-1.441l-3.766-15.708l-3.045,15.594c-0.126,0.619-0.455,1.15-0.897,1.516
		c-0.468,0.366-1.024,0.594-1.643,0.594h-11.917c-0.645,0-1.251-0.24-1.706-0.632c-0.455-0.417-0.783-0.973-0.859-1.605h-0.025
		l-5.194-36.445l-10.463,70.375c-0.088,0.644-0.404,1.188-0.872,1.592c-0.468,0.392-1.049,0.619-1.706,0.619h-0.076
		c-0.67-0.013-1.238-0.291-1.719-0.708c-0.442-0.43-0.733-1.011-0.783-1.655l-2.78-31.542h-0.758v0.076h-22.023
		c0.72-1.769,2.36-3.538,3.042-5.345h18.981v0.063h3.147c0.682,0,1.302,0.265,1.769,0.695c0.455,0.43,0.771,1.011,0.834,1.681
		l1.049,11.917l9.832-66.205c0.101-0.645,0.43-1.213,0.872-1.592c0.468-0.392,1.074-0.644,1.719-0.644
		c0.632,0,1.238,0.253,1.706,0.644c0.455,0.404,0.771,0.973,0.872,1.605l7.405,51.9h7.494l4.954-25.249
		c0.114-0.607,0.442-1.137,0.872-1.504c0.442-0.379,1.024-0.594,1.63-0.594h0.038c0.645,0.013,1.201,0.19,1.63,0.543
		c0.468,0.341,0.783,0.834,0.91,1.441l6.078,25.362h46.507c4.789,0.253,5.586-2.856,5.51-6.142V64.623
		c-5.421-0.948-10.097-4.132-13.686-9.351c-0.468-0.708-0.569-1.542-0.329-2.287c-5.067-8.644-6.521-20.169-6.521-26.146
		c0-3.652,1.163-6.445,3.45-8.34c2.136-1.769,4.853-2.388,7.089-2.54c0.771-0.783,2.072-1.264,3.513-1.264
		c2.363,0,4.284,1.314,4.284,2.97c0,1.643-1.921,2.97-4.284,2.97c-1.504,0-2.818-0.531-3.576-1.34
		c-1.643,0.152-3.513,0.607-4.903,1.782c-1.504,1.251-2.237,3.134-2.237,5.762c0,5.611,1.163,14.166,4.448,21.331
		c0.48,1.087,0.998,2.072,1.554,3.02c0.708,0.088,1.39,0.468,1.832,1.112c3.248,4.714,7.38,7.203,12.308,7.38
		c5.156,0,9.503-2.489,12.864-7.38c0.442-0.644,1.125-1.024,1.845-1.125c0.543-0.935,1.074-1.946,1.554-3.033
		c3.286-7.165,4.448-15.708,4.448-21.319c0-2.641-0.746-4.524-2.262-5.762c-1.377-1.163-3.26-1.617-4.878-1.769
		c-0.783,0.809-2.098,1.34-3.576,1.34c-2.376,0-4.297-1.34-4.297-2.995c0-1.63,1.921-2.97,4.297-2.97
		c1.441,0,2.717,0.506,3.488,1.264c2.249,0.177,4.966,0.783,7.102,2.565c2.287,1.883,3.463,4.688,3.463,8.328
		C304.083,32.816,302.63,44.341,297.563,52.984z"/>
	<path fill-rule="evenodd" clip-rule="evenodd" fill="#494849" d="M138.451,76.899H123.61l-7.393,51.774
		c-0.101,0.632-0.404,1.201-0.872,1.592c-0.468,0.404-1.049,0.632-1.706,0.632c-0.644,0-1.251-0.227-1.693-0.619
		c-0.468-0.404-0.796-0.973-0.897-1.592l-9.832-66.23l-1.049,11.929c-0.063,0.67-0.366,1.264-0.834,1.693
		c-0.468,0.43-1.087,0.682-1.769,0.682h-6.091l-4.878,30.531c-0.088,0.619-0.404,1.163-0.847,1.542
		c-0.442,0.392-1.036,0.619-1.655,0.645h-0.013c-0.607,0-1.188-0.215-1.668-0.581c-0.455-0.354-0.796-0.872-0.935-1.479
		L75.223,77.96H26.487c-1.201,6.129-6.609,10.754-13.117,10.754C5.99,88.714,0,82.737,0,75.344c0-7.38,5.99-13.383,13.37-13.383
		c6.508,0,11.917,4.65,13.117,10.779h50.859c0.594,0,1.188,0.215,1.63,0.581c0.455,0.366,0.796,0.872,0.91,1.466l3.778,17.818
		l2.995-18.867c0.114-0.632,0.43-1.175,0.885-1.567c0.48-0.404,1.049-0.644,1.693-0.644h5.939l2.78-31.504
		c0.063-0.657,0.341-1.251,0.809-1.681c0.442-0.417,1.049-0.695,1.693-0.708h0.101c0.632,0,1.238,0.227,1.681,0.632
		c0.468,0.392,0.771,0.96,0.872,1.592l10.463,70.375l5.219-36.445c0.076-0.644,0.404-1.213,0.872-1.592
		c0.455-0.404,1.049-0.645,1.706-0.645h17.71C139.765,73.348,137.743,75.129,138.451,76.899z"/>
	<path fill-rule="evenodd" clip-rule="evenodd" fill="#494849" d="M13.374,84.811c-5.223,0-9.475-4.231-9.475-9.468
		c0-5.223,4.252-9.475,9.475-9.475c5.237,0,9.468,4.252,9.468,9.475C22.841,80.58,18.61,84.811,13.374,84.811z"/>
	<path fill-rule="evenodd" clip-rule="evenodd" fill="#494849" d="M153.539,90.883c-0.418-2.846-0.836-5.692-1.255-8.538
		c-0.813-5.529-1.625-11.059-2.438-16.588c-0.533-3.629-0.942-7.277-1.601-10.887c-0.449-2.458-3.024-3.069-4.957-1.732
		c-0.766,0.529-1.261,1.399-1.459,2.308l-4.668,21.453h4.777l2.742-12.23l5.56,31.56L153.539,90.883z"/>
</g>
</svg>
