<?xml version="1.0" encoding="utf-8"?>
<!-- Generator: Adobe Illustrator 24.3.0, SVG Export Plug-In . SVG Version: 6.00 Build 0)  -->
<svg version="1.1" id="Layer_1" xmlns="http://www.w3.org/2000/svg" xmlns:xlink="http://www.w3.org/1999/xlink" x="0px" y="0px"
	 viewBox="0 0 306.581 159.935" enable-background="new 0 0 306.581 159.935" xml:space="preserve">
<g>
	<path fill="#F9165D" d="M303.594,74.388c-24.12,1.274-18.672,33.424-24.049,49.431c-1.853,5.517-5.19,9.957-11.36,10.539
		c-6.434,0.607-10.956-2.706-13.41-8.376c-4.456-10.298-3.541-22.28-6.023-33.086c-2.152-9.368-7.268-17.621-17.654-18.436
		c-9.395-0.737-16.685,3.748-20.133,12.508c-4.02,10.214-3.44,21.634-5.775,32.244c-1.034,4.697-2.569,10.136-6.684,13.088
		c-5.204,3.734-13.26,2.609-17.148-2.449c-11.11-14.453,0.346-47.917-21.463-54.607c-8.555-2.624-18.539-0.215-23.354,7.63
		c-5.408,8.811-5.231,20.349-6.672,30.264c-0.748,5.143-1.605,10.795-4.355,15.309c-3.438,5.645-10.911,7.834-16.897,4.601
		c-9.103-4.916-8.978-20.366-10.082-29.152c-1.154-9.183-2.346-21.242-10.958-26.759c-7.032-4.505-18.079-3.717-23.988,2.304
		c-7.127,7.263-7.514,19.291-8.67,28.771c-1.163,9.54-2.293,25.705-15.009,26.203c-13.7,0.537-15.14-15.651-16.388-25.794
		c-1.176-9.555-1.502-21.567-8.544-28.985c-3.224-3.396-7.416-4.834-11.992-5.221c-3.985-0.337-3.962,5.879,0,6.214
		c11.91,1.007,12.844,15.813,13.968,25.036c1.185,9.726,1.627,21.805,8.714,29.394c7.329,7.849,21.082,7.333,27.844-0.943
		c6.501-7.958,6.827-19.646,8.04-29.376c1.133-9.09,2.272-23.201,13.928-24.107c11.921-0.926,14.833,9.721,16.322,19.447
		c1.594,10.409,1.309,22.472,7.017,31.725c5.632,9.129,18.746,11.913,27.393,5.155c7.958-6.22,9.129-17.719,10.293-27.012
		c1.051-8.387,0.881-23.846,9.934-28.211c3.759-1.813,9.977-1.75,13.63,0.296c4.424,2.479,6.051,7.897,7.109,12.516
		c2.451,10.707,1.846,22.168,5.786,32.533c4.017,10.567,14.626,16.67,25.763,12.152c9.226-3.742,11.975-14.437,13.36-23.313
		c1.505-9.652,0.633-23.522,7.287-31.442c6.672-7.941,18.68-3.526,21.94,5.032c6.128,16.087,0.257,53.902,27.674,50.96
		c24.163-2.593,16.617-36.828,23.813-52.42c2.141-4.638,5.656-7.177,10.794-7.448C307.572,80.392,307.597,74.177,303.594,74.388
		L303.594,74.388z"/>
	<path fill="#F9165D" d="M153.96,0C109.8,0,74,35.8,74,79.97c0,44.16,35.8,79.96,79.96,79.96c44.17,0,79.97-35.8,79.97-79.96
		C233.93,35.8,198.13,0,153.96,0z M98.96,40.26c-0.03,0.8-0.05,1.62-0.06,2.43c-0.02,5.69-0.06,13.2-0.07,20.75
		c-0.01,0.91,0.01,1.83,0.03,2.73c0.02,0.98,0.04,1.99,0.03,2.99c-0.02,4.18-2.67,7.44-6.75,8.31l-0.76,0.16h-1.51l-0.22-0.1
		c-0.02,0-0.03-0.01-0.04-0.02c-2.08-0.41-3.12-1.43-3.59-3.48C86.01,74,86,73.98,86,73.96l-0.09-0.21l0.02-1.39
		c0.28-1.52,0.88-2.83,1.8-3.92c1.66-1.94,3.52-3,5.7-3.24c0.74-0.08,1.46-0.03,2.14,0.15V34.54l26.01-5.46l-0.02,28.67
		c0,2.09,0,4.17,0.01,6.25c0.02,3.49-1.43,6.17-4.31,7.97c-1.42,0.89-2.92,1.24-4.45,1.02c-1.34-0.19-2.49-0.86-3.25-1.89
		c-0.77-1.04-1.07-2.34-0.86-3.68c0.6-3.69,4.13-6.83,7.87-6.99c0.57-0.03,1.14,0.03,1.69,0.17V36.07l-19.29,4.01
		C98.97,40.14,98.96,40.2,98.96,40.26z M191.74,105.93c0.04,8.22-3.37,14.54-10.15,18.78c-3.34,2.09-6.87,2.9-10.49,2.39
		c-3.14-0.44-5.86-2.02-7.66-4.46s-2.52-5.51-2.01-8.66c1.41-8.7,9.72-16.09,18.53-16.47c1.36-0.06,2.68,0.08,3.98,0.41V40.14
		l-45.44,9.43c-0.01,0.14-0.01,0.29-0.02,0.44c-0.06,1.87-0.12,3.82-0.13,5.72c-0.07,13.41-0.15,31.08-0.19,48.88
		c0,2.13,0.04,4.32,0.08,6.43c0.05,2.3,0.1,4.67,0.08,7.03c-0.05,9.86-6.29,17.54-15.9,19.59l-1.78,0.38h-3.57l-0.53-0.24
		c-0.03-0.01-0.06-0.02-0.09-0.04c-4.88-0.98-7.35-3.38-8.44-8.21c-0.03-0.06-0.05-0.11-0.07-0.16l-0.2-0.5l0.04-3.28
		c0.66-3.57,2.09-6.67,4.26-9.21c3.9-4.58,8.29-7.08,13.42-7.65c1.75-0.19,3.43-0.07,5.04,0.37V36.53l61.27-12.87l-0.05,67.54
		C191.72,96.11,191.71,101.02,191.74,105.93z M222.22,99.36c-1.07,0.67-2.21,0.93-3.37,0.77c-1.01-0.14-1.89-0.65-2.47-1.43
		c-0.58-0.79-0.81-1.78-0.64-2.79c0.45-2.8,3.12-5.18,5.96-5.3c0.43-0.02,0.86,0.02,1.28,0.13V72.15l-14.62,3.03
		c0,0.05-0.01,0.1-0.01,0.15c-0.02,0.6-0.04,1.22-0.04,1.84c-0.02,4.31-0.05,9.99-0.06,15.72c0,0.69,0.01,1.39,0.03,2.07
		c0.01,0.74,0.03,1.5,0.02,2.26c-0.02,3.17-2.02,5.65-5.11,6.3l-0.58,0.13h-1.15l-0.17-0.08c-0.01,0-0.02-0.01-0.03-0.01
		c-1.57-0.32-2.36-1.09-2.71-2.65c-0.01-0.01-0.02-0.03-0.02-0.05l-0.07-0.16l0.02-1.05c0.21-1.15,0.67-2.15,1.37-2.97
		c1.25-1.47,2.66-2.27,4.31-2.46c0.57-0.06,1.11-0.02,1.63,0.12V70.99l19.71-4.14l-0.02,21.73c0,1.58,0,3.16,0.01,4.74
		C225.5,95.96,224.4,97.99,222.22,99.36z"/>
</g>
<g>
	<path fill="#050505" d="M138.164,104.614c0.017-7.929,0.042-15.829,0.071-23.34c-2.866,0.753-5.494,2.118-7.734,3.98v23.863
		c-1.609-0.438-3.296-0.562-5.042-0.368c-5.133,0.572-9.523,3.073-13.421,7.647c-2.167,2.544-3.6,5.643-4.258,9.211l-0.045,3.283
		l0.207,0.502c0.02,0.049,0.041,0.098,0.067,0.153c1.09,4.831,3.558,7.236,8.439,8.217c0.03,0.015,0.061,0.029,0.091,0.042
		l0.532,0.237h3.564l1.789-0.383c9.605-2.044,15.846-9.733,15.9-19.588c0.013-2.356-0.034-4.735-0.08-7.035
		C138.203,108.926,138.16,106.744,138.164,104.614z"/>
	<path fill="#050505" d="M191.733,74.481c-2.654,0.88-5.237,2.017-7.793,3.234v20.206c-1.297-0.335-2.625-0.476-3.98-0.416
		c-8.813,0.383-17.125,7.775-18.529,16.479c-0.507,3.143,0.206,6.218,2.007,8.659c1.797,2.435,4.517,4.018,7.66,4.459
		c3.62,0.508,7.151-0.298,10.495-2.393c6.775-4.242,10.187-10.56,10.142-18.777c-0.027-4.91-0.02-9.819-0.013-14.729L191.733,74.481
		z"/>
	<path fill="#050505" d="M98.824,63.443c0.007-3.366,0.018-6.72,0.03-9.908c-1.217,0.32-2.332,0.899-3.283,1.689v10.13
		c-0.683-0.186-1.399-0.239-2.14-0.156c-2.179,0.243-4.043,1.305-5.697,3.246c-0.92,1.08-1.528,2.395-1.807,3.91l-0.019,1.394
		l0.088,0.213c0.008,0.021,0.018,0.041,0.028,0.065c0.463,2.051,1.51,3.072,3.582,3.488c0.013,0.006,0.026,0.012,0.039,0.018
		l0.226,0.101h1.513l0.759-0.162c4.077-0.868,6.727-4.132,6.75-8.315c0.006-1-0.015-2.01-0.034-2.986
		C98.84,65.273,98.822,64.347,98.824,63.443z"/>
	<path fill="#050505" d="M121.565,50.652c-1.126,0.374-2.223,0.856-3.308,1.373v8.578c-0.551-0.142-1.115-0.202-1.689-0.176
		c-3.741,0.162-7.27,3.301-7.866,6.995c-0.215,1.334,0.087,2.64,0.852,3.676c0.763,1.034,1.918,1.706,3.252,1.893
		c1.537,0.215,3.036-0.126,4.455-1.016c2.876-1.801,4.325-4.483,4.305-7.971c-0.011-2.084-0.008-4.168-0.005-6.252L121.565,50.652z"
		/>
	<path fill="#050505" d="M208.251,92.894c0.005-2.551,0.013-5.093,0.023-7.509c-0.922,0.242-1.768,0.681-2.488,1.28v7.678
		c-0.518-0.141-1.06-0.181-1.622-0.118c-1.652,0.184-3.064,0.989-4.318,2.46c-0.697,0.818-1.158,1.815-1.37,2.963l-0.015,1.056
		l0.067,0.161c0.006,0.016,0.013,0.031,0.021,0.049c0.351,1.554,1.145,2.328,2.715,2.644c0.01,0.005,0.02,0.009,0.029,0.014
		l0.171,0.076h1.147l0.576-0.123c3.09-0.658,5.098-3.131,5.116-6.302c0.004-0.758-0.011-1.523-0.026-2.263
		C208.263,94.281,208.249,93.579,208.251,92.894z"/>
	<path fill="#050505" d="M225.486,83.199c-0.854,0.283-1.685,0.649-2.507,1.041v6.501c-0.417-0.108-0.845-0.153-1.28-0.134
		c-2.836,0.123-5.51,2.502-5.962,5.302c-0.163,1.011,0.066,2.001,0.646,2.786c0.578,0.783,1.453,1.293,2.464,1.434
		c1.165,0.163,2.301-0.096,3.377-0.77c2.18-1.365,3.278-3.397,3.263-6.041c-0.009-1.58-0.006-3.159-0.004-4.739L225.486,83.199z"/>
</g>
</svg>
