<?xml version="1.0" encoding="utf-8"?>
<!-- Generator: Adobe Illustrator 24.3.0, SVG Export Plug-In . SVG Version: 6.00 Build 0)  -->
<svg version="1.1" id="Layer_3" xmlns="http://www.w3.org/2000/svg" xmlns:xlink="http://www.w3.org/1999/xlink" x="0px" y="0px"
	 viewBox="0 0 244.841 215.055" enable-background="new 0 0 244.841 215.055" xml:space="preserve">
<g>
	<path fill="#1A243F" d="M160.526,14.638L125.83,93.247l-11.927-39.305c0,0-47.166,31.444-55.298,66.411s8.132,58.55,23.583,61.803
		v-54.891h31.308v61.397h23.176v-74.814h23.854v60.583h20.872V93.925h27.649v56.924c0,0,36.594-9.352,35.781-49.199
		S210.403,25.616,160.526,14.638z"/>
</g>
<g>
	<g>
		<path fill="#FE6142" d="M189.825,73.766c0,0-21.048,14.88-27.632,0c-6.806-15.381,19.737-27.087,19.737-27.087h-19.737
			l3.403,3.131c0,0-14.292,11.298-9.937,22.868C160.016,84.247,174.308,87.241,189.825,73.766z"/>
	</g>
	<path fill="#FE6142" d="M209.047,161.827c0,0-125.745,88.897-165.08,0C3.308,69.935,161.882,0,161.882,0H43.968l20.33,18.704
		c0,0-85.386,67.496-59.364,136.618S116.342,242.334,209.047,161.827z"/>
</g>
</svg>
