<?xml version="1.0" encoding="utf-8"?>
<!-- Generator: Adobe Illustrator 24.3.0, SVG Export Plug-In . SVG Version: 6.00 Build 0)  -->
<svg version="1.1" id="Layer_5" xmlns="http://www.w3.org/2000/svg" xmlns:xlink="http://www.w3.org/1999/xlink" x="0px" y="0px"
	 viewBox="0 0 292.381 233.989" enable-background="new 0 0 292.381 233.989" xml:space="preserve">
<g>
	<path fill="#1B4358" d="M135.735,114.153l-32.27,29.06c-11.41,10.13-22.76,20.33-34.23,30.4l-17.18,15.13l-17.26,15.04
		c-11.55,9.98-23.09,19.97-34.79,29.78c10.93-10.66,22.03-21.14,33.11-31.64l9.69-9.09v-67.44h39.77v30.51
		c5.89-5.41,11.79-10.82,17.68-16.24l33.89-30.78l1.76-1.6l1.67,1.68c10.23,10.32,20.52,20.57,30.71,30.93
		c9.22,9.38,18.47,18.73,27.64,28.16c0.97,0.98,1.92,1.97,2.88,2.95c0.6,0.62,1.21,1.24,1.81,1.86v1.71c0,0.98,0.8,1.79,1.79,1.79
		h1.62c4.19,4.3,8.36,8.61,12.52,12.92c-0.92,0.06-1.66,0.84-1.66,1.78v0.89c-6.28-6.06-12.55-12.14-18.79-18.24l-0.17-0.17
		c-10.37-10.05-20.65-20.22-30.94-30.35C155.185,133.553,145.485,123.833,135.735,114.153L135.735,114.153z"/>
</g>
<g>
	<path fill="#A5A5A5" d="M50.456,0c1.093,0.102,1.363,0.049,1.436,0.145c5.242,6.949,6.091,21.784,1.216,28.497
		c-2.702,3.721-0.461,4.949,2.313,6.519c5.486-3.423,9.987-10.731,17.747-6.416c2.713,1.509,4.005,5.577,5.418,8.842
		c10.719,4.234,12.452,14.772,3.215,23.848c-0.808,0.794-1.739,1.464-2.629,2.172c-9.499,7.554-9.622,8.096-4.184,18.616
		c3.344,6.468,2.47,8.865-4.09,11.723c-1.138,0.496-2.758,1.329-2.974,2.275c-2.031,8.914-9.912,15.886-8.603,25.902
		c0.086,0.656-0.456,1.43-0.808,2.096c-0.24,0.454-0.658,0.815-1.341,1.627c-0.805-1.272-1.956-2.269-2.022-3.332
		c-0.35-5.655-0.335-11.332-0.632-16.991c-0.206-3.929-0.379-7.922-1.288-11.713c-0.276-1.152-2.868-2.045-4.55-2.513
		c-10.07-2.796-11.09-6.013-10.228-16.442c0.685-8.289,3.44-14.314,9.613-19.46c3.156-2.63,2.57-5.573-0.907-7.91
		c-2.038-1.369-4.118-2.765-5.853-4.479c-6.248-6.171-6.067-13.017,0.757-18.484c6.126-4.908,7.031-11.792,8.002-18.75
		C50.32,3.938,50.323,2.07,50.456,0z"/>
</g>
<g>
	<path fill="#D3514C" d="M238.748,139.055v89.423c0,0,0.433,2.729,6.055,2.605c5.623-0.124,15.787,1.612,15.787,1.612h-25.086
		v-92.276L238.748,139.055z"/>
</g>
<g>
	<path fill="#EF7A6F" d="M235.721,140.217v92.478h24.654v-106.4L235.721,140.217z M246.155,220.639h-7.461v-3.388h7.461V220.639z
		 M246.155,214.629h-7.461v-3.388h7.461V214.629z M246.155,208.618h-7.461v-3.388h7.461V208.618z M246.155,202.608h-7.461v-3.388
		h7.461V202.608z M246.155,196.598h-7.461v-3.388h7.461V196.598z M246.155,190.588h-7.461V187.2h7.461V190.588z M246.155,184.578
		h-7.461v-3.388h7.461V184.578z M246.155,178.567h-7.461v-3.388h7.461V178.567z M246.155,172.557h-7.461v-3.388h7.461V172.557z
		 M246.155,166.547h-7.461v-3.388h7.461V166.547z M246.155,160.537h-7.461v-3.388h7.461V160.537z M246.155,154.526h-7.461v-3.388
		h7.461V154.526z M246.155,148.516h-7.461v-3.388h7.461V148.516z M257.401,220.639h-7.461v-3.388h7.461V220.639z M257.401,214.629
		h-7.461v-3.388h7.461V214.629z M257.401,208.618h-7.461v-3.388h7.461V208.618z M257.401,202.608h-7.461v-3.388h7.461V202.608z
		 M257.401,196.598h-7.461v-3.388h7.461V196.598z M257.401,190.588h-7.461V187.2h7.461V190.588z M257.401,184.578h-7.461v-3.388
		h7.461V184.578z M257.401,178.567h-7.461v-3.388h7.461V178.567z M257.401,172.557h-7.461v-3.388h7.461V172.557z M257.401,166.547
		h-7.461v-3.388h7.461V166.547z M257.401,160.537h-7.461v-3.388h7.461V160.537z M257.401,154.526h-7.461v-3.388h7.461V154.526z
		 M257.401,148.516h-7.461v-3.388h7.461V148.516z"/>
	<path fill="#EF7A6F" d="M195.925,71.803v160.89h34.17V47.573L195.925,71.803z M214.885,77.243c0-0.98,0.81-1.79,1.79-1.79h6.95
		c0.98,0,1.79,0.81,1.79,1.79v2.48c0,0.99-0.81,1.79-1.79,1.79h-6.95c-0.98,0-1.79-0.8-1.79-1.79V77.243z M214.885,86.733
		c0-0.99,0.81-1.79,1.79-1.79h6.95c0.98,0,1.79,0.8,1.79,1.79v2.48c0,0.98-0.81,1.78-1.79,1.78h-6.95c-0.98,0-1.79-0.8-1.79-1.78
		V86.733z M214.885,105.703c0-0.99,0.81-1.79,1.79-1.79h6.95c0.98,0,1.79,0.8,1.79,1.79v2.48c0,0.98-0.81,1.78-1.79,1.78h-6.95
		c-0.98,0-1.79-0.8-1.79-1.78V105.703z M214.885,115.183c0-0.98,0.81-1.79,1.79-1.79h6.95c0.98,0,1.79,0.81,1.79,1.79v2.48
		c0,0.98-0.81,1.79-1.79,1.79h-6.95c-0.98,0-1.79-0.81-1.79-1.79V115.183z M214.885,124.673c0-0.99,0.81-1.79,1.79-1.79h6.95
		c0.98,0,1.79,0.8,1.79,1.79v2.48c0,0.98-0.81,1.78-1.79,1.78h-6.95c-0.98,0-1.79-0.8-1.79-1.78V124.673z M214.885,134.153
		c0-0.98,0.81-1.79,1.79-1.79h6.95c0.98,0,1.79,0.81,1.79,1.79v2.48c0,0.98-0.81,1.79-1.79,1.79h-6.95c-0.98,0-1.79-0.81-1.79-1.79
		V134.153z M214.885,143.643c0-0.99,0.81-1.79,1.79-1.79h6.95c0.98,0,1.79,0.8,1.79,1.79v2.48c0,0.98-0.81,1.78-1.79,1.78h-6.95
		c-0.98,0-1.79-0.8-1.79-1.78V143.643z M214.885,153.123c0-0.98,0.81-1.79,1.79-1.79h6.95c0.98,0,1.79,0.81,1.79,1.79v2.48
		c0,0.98-0.81,1.79-1.79,1.79h-6.95c-0.98,0-1.79-0.81-1.79-1.79V153.123z M214.885,162.613c0-0.99,0.81-1.79,1.79-1.79h6.95
		c0.98,0,1.79,0.8,1.79,1.79v2.48c0,0.98-0.81,1.78-1.79,1.78h-6.95c-0.98,0-1.79-0.8-1.79-1.78V162.613z M214.885,172.093
		c0-0.98,0.81-1.79,1.79-1.79h6.95c0.98,0,1.79,0.81,1.79,1.79v2.48c0,0.98-0.81,1.79-1.79,1.79h-6.95c-0.98,0-1.79-0.81-1.79-1.79
		V172.093z M214.885,181.583c0-0.99,0.81-1.79,1.79-1.79h6.95c0.98,0,1.79,0.8,1.79,1.79v2.48c0,0.98-0.81,1.78-1.79,1.78h-6.95
		c-0.98,0-1.79-0.8-1.79-1.78V181.583z M200.615,77.243c0-0.98,0.8-1.79,1.79-1.79h6.95c0.98,0,1.78,0.81,1.78,1.79v2.48
		c0,0.99-0.8,1.79-1.78,1.79h-6.95c-0.99,0-1.79-0.8-1.79-1.79V77.243z M200.615,86.733c0-0.99,0.8-1.79,1.79-1.79h6.95
		c0.98,0,1.78,0.8,1.78,1.79v2.48c0,0.98-0.8,1.78-1.78,1.78h-6.95c-0.99,0-1.79-0.8-1.79-1.78V86.733z M200.615,96.213
		c0-0.98,0.8-1.79,1.79-1.79h6.95c0.98,0,1.78,0.81,1.78,1.79v2.48c0,0.98-0.8,1.79-1.78,1.79h-6.95c-0.99,0-1.79-0.81-1.79-1.79
		V96.213z M200.615,105.703c0-0.99,0.8-1.79,1.79-1.79h6.95c0.98,0,1.78,0.8,1.78,1.79v2.48c0,0.98-0.8,1.78-1.78,1.78h-6.95
		c-0.99,0-1.79-0.8-1.79-1.78V105.703z M200.615,115.183c0-0.98,0.8-1.79,1.79-1.79h6.95c0.98,0,1.78,0.81,1.78,1.79v2.48
		c0,0.98-0.8,1.79-1.78,1.79h-6.95c-0.99,0-1.79-0.81-1.79-1.79V115.183z M200.615,124.673c0-0.99,0.8-1.79,1.79-1.79h6.95
		c0.98,0,1.78,0.8,1.78,1.79v2.48c0,0.98-0.8,1.78-1.78,1.78h-6.95c-0.99,0-1.79-0.8-1.79-1.78V124.673z M200.615,143.643
		c0-0.99,0.8-1.79,1.79-1.79h6.95c0.98,0,1.78,0.8,1.78,1.79v2.48c0,0.98-0.8,1.78-1.78,1.78h-6.95c-0.99,0-1.79-0.8-1.79-1.78
		V143.643z M200.615,153.123c0-0.98,0.8-1.79,1.79-1.79h6.95c0.98,0,1.78,0.81,1.78,1.79v2.48c0,0.98-0.8,1.79-1.78,1.79h-6.95
		c-0.99,0-1.79-0.81-1.79-1.79V153.123z M200.615,162.613c0-0.99,0.8-1.79,1.79-1.79h6.95c0.98,0,1.78,0.8,1.78,1.79v2.48
		c0,0.98-0.8,1.78-1.78,1.78h-6.95c-0.99,0-1.79-0.8-1.79-1.78V162.613z M200.615,172.093c0-0.98,0.8-1.79,1.79-1.79h6.95
		c0.98,0,1.78,0.81,1.78,1.79v2.48c0,0.98-0.8,1.79-1.78,1.79h-6.95c-0.99,0-1.79-0.81-1.79-1.79V172.093z M211.135,203.033
		c0,0.98-0.8,1.78-1.78,1.78h-6.95c-0.99,0-1.79-0.8-1.79-1.78v-2.48c0-0.99,0.8-1.79,1.79-1.79h6.95c0.98,0,1.78,0.8,1.78,1.79
		V203.033z M211.135,193.543c0,0.98-0.8,1.79-1.78,1.79h-6.95c-0.99,0-1.79-0.81-1.79-1.79v-2.48c0-0.98,0.8-1.79,1.79-1.79h6.95
		c0.98,0,1.78,0.81,1.78,1.79V193.543z M216.675,195.333c-0.98,0-1.79-0.81-1.79-1.79v-2.48c0-0.94,0.74-1.72,1.66-1.78
		c0.04-0.01,0.09-0.01,0.13-0.01h6.95c0.98,0,1.79,0.81,1.79,1.79v2.48c0,0.98-0.81,1.79-1.79,1.79H216.675z"/>
	<path fill="#EF7A6F" d="M265.997,97.749v134.946h26.384v-117.29L265.997,97.749z M277.031,205.935c0,0.623-0.51,1.133-1.133,1.133
		h-5.804c-0.623,0-1.133-0.51-1.133-1.133v-2.377c0-0.623,0.51-1.133,1.133-1.133h5.804c0.623,0,1.133,0.51,1.133,1.133V205.935z
		 M277.031,198.664c0,0.623-0.51,1.133-1.133,1.133h-5.804c-0.623,0-1.133-0.51-1.133-1.133v-2.377c0-0.623,0.51-1.133,1.133-1.133
		h5.804c0.623,0,1.133,0.51,1.133,1.133V198.664z M277.031,191.392c0,0.623-0.51,1.133-1.133,1.133h-5.804
		c-0.623,0-1.133-0.51-1.133-1.133v-2.377c0-0.623,0.51-1.133,1.133-1.133h5.804c0.623,0,1.133,0.51,1.133,1.133V191.392z
		 M277.031,177.065c0,0.623-0.51,1.133-1.133,1.133h-5.804c-0.623,0-1.133-0.51-1.133-1.133v-2.377c0-0.623,0.51-1.133,1.133-1.133
		h5.804c0.623,0,1.133,0.51,1.133,1.133V177.065z M277.031,169.793c0,0.623-0.51,1.133-1.133,1.133h-5.804
		c-0.623,0-1.133-0.51-1.133-1.133v-2.377c0-0.623,0.51-1.133,1.133-1.133h5.804c0.623,0,1.133,0.51,1.133,1.133V169.793z
		 M277.031,155.25c0,0.623-0.51,1.133-1.133,1.133h-5.804c-0.623,0-1.133-0.51-1.133-1.133v-2.377c0-0.623,0.51-1.133,1.133-1.133
		h5.804c0.623,0,1.133,0.51,1.133,1.133V155.25z M277.031,147.978c0,0.623-0.51,1.133-1.133,1.133h-5.804
		c-0.623,0-1.133-0.51-1.133-1.133v-2.377c0-0.623,0.51-1.133,1.133-1.133h5.804c0.623,0,1.133,0.51,1.133,1.133V147.978z
		 M277.031,140.706c0,0.623-0.51,1.133-1.133,1.133h-5.804c-0.623,0-1.133-0.51-1.133-1.133v-2.377c0-0.623,0.51-1.133,1.133-1.133
		h5.804c0.623,0,1.133,0.51,1.133,1.133V140.706z M277.031,133.434c0,0.623-0.51,1.133-1.133,1.133h-5.804
		c-0.623,0-1.133-0.51-1.133-1.133v-2.377c0-0.623,0.51-1.133,1.133-1.133h5.804c0.623,0,1.133,0.51,1.133,1.133V133.434z
		 M287.974,205.935c0,0.623-0.51,1.133-1.133,1.133h-5.804c-0.623,0-1.133-0.51-1.133-1.133v-2.377c0-0.623,0.51-1.133,1.133-1.133
		h5.804c0.623,0,1.133,0.51,1.133,1.133V205.935z M287.974,198.664c0,0.623-0.51,1.133-1.133,1.133h-5.804
		c-0.623,0-1.133-0.51-1.133-1.133v-2.377c0-0.623,0.51-1.133,1.133-1.133h5.804c0.623,0,1.133,0.51,1.133,1.133V198.664z
		 M287.974,191.392c0,0.623-0.51,1.133-1.133,1.133h-5.804c-0.623,0-1.133-0.51-1.133-1.133v-2.377c0-0.623,0.51-1.133,1.133-1.133
		h5.804c0.623,0,1.133,0.51,1.133,1.133V191.392z M287.974,184.12c0,0.623-0.51,1.133-1.133,1.133h-5.804
		c-0.623,0-1.133-0.51-1.133-1.133v-2.377c0-0.623,0.51-1.133,1.133-1.133h5.804c0.623,0,1.133,0.51,1.133,1.133V184.12z
		 M287.974,169.793c0,0.623-0.51,1.133-1.133,1.133h-5.804c-0.623,0-1.133-0.51-1.133-1.133v-2.377c0-0.623,0.51-1.133,1.133-1.133
		h5.804c0.623,0,1.133,0.51,1.133,1.133V169.793z M287.974,162.522c0,0.623-0.51,1.133-1.133,1.133h-5.804
		c-0.623,0-1.133-0.51-1.133-1.133v-2.377c0-0.623,0.51-1.133,1.133-1.133h5.804c0.623,0,1.133,0.51,1.133,1.133V162.522z
		 M287.974,155.25c0,0.623-0.51,1.133-1.133,1.133h-5.804c-0.623,0-1.133-0.51-1.133-1.133v-2.377c0-0.623,0.51-1.133,1.133-1.133
		h5.804c0.623,0,1.133,0.51,1.133,1.133V155.25z M287.974,147.978c0,0.623-0.51,1.133-1.133,1.133h-5.804
		c-0.623,0-1.133-0.51-1.133-1.133v-2.377c0-0.623,0.51-1.133,1.133-1.133h5.804c0.623,0,1.133,0.51,1.133,1.133V147.978z
		 M287.974,140.706c0,0.623-0.51,1.133-1.133,1.133h-5.804c-0.623,0-1.133-0.51-1.133-1.133v-2.377c0-0.623,0.51-1.133,1.133-1.133
		h5.804c0.623,0,1.133,0.51,1.133,1.133V140.706z M287.974,133.434c0,0.623-0.51,1.133-1.133,1.133h-5.804
		c-0.623,0-1.133-0.51-1.133-1.133v-2.377c0-0.623,0.51-1.133,1.133-1.133h5.804c0.623,0,1.133,0.51,1.133,1.133V133.434z
		 M287.974,126.162c0,0.623-0.51,1.133-1.133,1.133h-5.804c-0.623,0-1.133-0.51-1.133-1.133v-2.377c0-0.623,0.51-1.133,1.133-1.133
		h5.804c0.623,0,1.133,0.51,1.133,1.133V126.162z"/>
</g>
<g>
	<path fill="#F3E119" d="M153.705,125.183c-5.37-5.41-10.76-10.8-16.13-16.22l-1.67-1.68l-1.76,1.6l-33.89,30.78
		c-5.89,5.42-11.79,10.83-17.68,16.24v-30.51h-33.75c0.2-7.97,2.19-15.49,5.56-22.19c4.54-9.01,11.6-16.53,20.26-21.64
		c7.8-4.61,16.91-7.25,26.63-7.25C129.715,74.313,152.865,96.943,153.705,125.183z"/>
	<path fill="#F3E119" d="M131.417,166.35v12.614c0,1.566-1.28,2.858-2.858,2.858h-12.614c-0.646,0-1.243-0.224-1.728-0.597
		c-0.684-0.522-1.118-1.342-1.118-2.262V166.35c0-1.578,1.28-2.858,2.846-2.858h12.614
		C130.137,163.492,131.417,164.772,131.417,166.35z"/>
	<path fill="#F3E119" d="M154.707,166.35v12.614c0,1.566-1.28,2.858-2.858,2.858h-12.614c-1.566,0-2.846-1.293-2.846-2.858V166.35
		c0-1.578,1.28-2.858,2.846-2.858h12.614C153.427,163.492,154.707,164.772,154.707,166.35z"/>
	<path fill="#F3E119" d="M152.411,204.344h-13.73c-1.264,0-2.298-1.034-2.298-2.298v-13.73c0-1.264,1.034-2.298,2.298-2.298h13.73
		c1.264,0,2.298,1.034,2.298,2.298v13.73C154.709,203.31,153.674,204.344,152.411,204.344z"/>
	<path fill="#F3E119" d="M129.121,204.344h-13.73c-1.264,0-2.298-1.034-2.298-2.298v-13.73c0-1.264,1.034-2.298,2.298-2.298h13.73
		c1.264,0,2.298,1.034,2.298,2.298v13.73C131.419,203.31,130.385,204.344,129.121,204.344z"/>
	<path fill="#F3E119" d="M202.402,132.366h6.95c0.983,0,1.787,0.804,1.787,1.787v2.481c0,0.983-0.804,1.787-1.787,1.787h-6.95
		c-0.983,0-1.787-0.804-1.787-1.787v-2.481C200.615,133.17,201.419,132.366,202.402,132.366z"/>
	<path fill="#F3E119" d="M202.402,179.791h6.95c0.983,0,1.787,0.804,1.787,1.787v2.481c0,0.983-0.804,1.787-1.787,1.787h-6.95
		c-0.983,0-1.787-0.804-1.787-1.787v-2.481C200.615,180.595,201.419,179.791,202.402,179.791z"/>
	<path fill="#F3E119" d="M216.675,94.426h6.95c0.983,0,1.787,0.804,1.787,1.787v2.481c0,0.983-0.804,1.787-1.787,1.787h-6.95
		c-0.983,0-1.787-0.804-1.787-1.787v-2.481C214.888,95.231,215.692,94.426,216.675,94.426z"/>
	<path fill="#F3E119" d="M216.675,198.761h6.95c0.983,0,1.787,0.804,1.787,1.787v2.481c0,0.983-0.804,1.787-1.787,1.787h-6.95
		c-0.983,0-1.787-0.804-1.787-1.787v-2.481C214.888,199.565,215.692,198.761,216.675,198.761z"/>
	<path fill="#F3E119" d="M270.095,122.652h5.804c0.623,0,1.133,0.51,1.133,1.133v2.377c0,0.623-0.51,1.133-1.133,1.133h-5.804
		c-0.623,0-1.133-0.51-1.133-1.133v-2.377C268.962,123.162,269.472,122.652,270.095,122.652z"/>
	<path fill="#F3E119" d="M270.095,159.012h5.804c0.623,0,1.133,0.51,1.133,1.133v2.377c0,0.623-0.51,1.133-1.133,1.133h-5.804
		c-0.623,0-1.133-0.51-1.133-1.133v-2.377C268.962,159.521,269.472,159.012,270.095,159.012z"/>
	<path fill="#F3E119" d="M281.038,173.555h5.804c0.623,0,1.133,0.51,1.133,1.133v2.377c0,0.623-0.51,1.133-1.133,1.133h-5.804
		c-0.623,0-1.133-0.51-1.133-1.133v-2.377C279.905,174.065,280.415,173.555,281.038,173.555z"/>
	<path fill="#F3E119" d="M270.095,180.61h5.804c0.623,0,1.133,0.51,1.133,1.133v2.377c0,0.623-0.51,1.133-1.133,1.133h-5.804
		c-0.623,0-1.133-0.51-1.133-1.133v-2.377C268.962,181.12,269.472,180.61,270.095,180.61z"/>
</g>
<g>
	<path fill="#D3514C" d="M199.173,69.419v155.923c0,0,0.433,4.758,6.055,4.541c5.623-0.216,15.787,2.811,15.787,2.811h-25.086
		V71.798L199.173,69.419z"/>
	<path fill="#D3514C" d="M238.748,139.055v89.423c0,0,0.433,2.729,6.055,2.605c5.623-0.124,15.787,1.612,15.787,1.612h-25.086
		v-92.276L238.748,139.055z"/>
	<path fill="#D3514C" d="M268.808,99.696v126.728c0,0,0,3.46,4.109,3.893s9.515,2.163,9.515,2.163l-16.436,0.216V97.749
		L268.808,99.696z"/>
</g>
</svg>
