<?xml version="1.0" encoding="utf-8"?>
<!-- Generator: Adobe Illustrator 24.3.0, SVG Export Plug-In . SVG Version: 6.00 Build 0)  -->
<svg version="1.1" id="Layer_2" xmlns="http://www.w3.org/2000/svg" xmlns:xlink="http://www.w3.org/1999/xlink" x="0px" y="0px"
	 viewBox="0 0 302.714 230.668" enable-background="new 0 0 302.714 230.668" xml:space="preserve">
<g>
	<path fill="#2E562F" d="M302.591,116.429c-0.507-1.126-2.405-1.715-4.109-1.035c-1.228,0.487-2.415,1.177-3.46,1.989
		c-2.659,2.06-5.845,2.313-8.98,2.851c0.72-0.66,1.634-1.045,2.283-1.684c0.893-0.873,1.837-1.837,2.324-2.953
		c0.568-1.329-0.761-2.638-2.08-2.039c-0.933,0.426-1.786,1.39-2.293,2.324c-0.609,1.116-0.761,2.466-1.197,3.683
		c-0.183,0.507-0.497,1.126-0.933,1.35c-2.537,1.278-5.134,2.445-8.047,3.815c0.751-0.761,1.329-1.207,1.705-1.776
		c0.812-1.228,1.674-2.455,2.222-3.795c0.578-1.38-0.051-2.689-1.177-3.146c-1.157-0.477-2.232-0.071-2.79,1.481
		c-0.731,2.06-1.258,4.211-1.664,6.352c-0.284,1.552-0.863,2.851-2.1,3.795c-1.167,0.893-2.415,1.684-3.825,2.669
		c0.69-1.441,1.4-2.587,1.796-3.825c0.507-1.593-0.223-3.024-1.512-3.44c-1.177-0.386-2.354,0.436-2.983,2.06
		c-0.741,1.887-0.71,3.815-0.416,5.794c0.111,0.71,0.152,1.644-0.213,2.182c-0.863,1.279-1.989,2.374-3.004,3.551
		c-0.152-0.071-0.304-0.142-0.457-0.203c0.751-2.608,1.552-5.195,2.242-7.813c1.045-3.927,1.948-7.884,3.064-11.79
		c0.589-2.06,1.522-2.506,3.622-2.557c0.933-0.02,1.918-0.183,2.79-0.507c1.492-0.538,2.11-1.735,1.603-2.74
		c-0.497-0.974-1.684-1.238-3.034-0.457c-1.045,0.609-1.948,1.461-2.922,2.202c0.609-1.076,1.38-2.039,2.111-3.024
		c1.38-1.847,2.871-3.024,5.418-1.897c0.852,0.375,2.182,0.061,3.146-0.325c0.974-0.396,1.268-1.431,0.741-2.445
		c-0.558-1.076-1.492-0.913-2.354-0.457c-0.548,0.284-0.984,0.761-1.512,1.086c-0.507,0.304-1.055,0.528-1.593,0.791
		c-0.061-0.132-0.132-0.254-0.193-0.375c0.913-0.842,1.826-1.674,2.729-2.527c1.035-0.984,2.151-1.248,3.551-0.761
		c0.731,0.244,1.634,0.274,2.385,0.102c0.883-0.203,1.847-0.741,1.532-1.867c-0.315-1.157-1.37-1.228-2.364-0.964
		c-0.741,0.203-1.431,0.568-2.141,0.852c0.802-0.964,1.725-1.705,2.638-2.466c1.055-0.883,2.08-0.903,3.298-0.233
		c0.913,0.497,1.948,0.802,2.963,1.055c1.268,0.304,2.253-0.264,2.374-1.218c0.142-1.045-0.7-1.847-2.04-1.877
		c-0.872-0.02-1.755,0.041-2.628,0.071c1.41-0.964,2.892-1.613,4.383-2.242c0.832-0.355,1.735-0.599,2.506-1.055
		c0.893-0.517,1.766-1.329,1.116-2.435c-0.619-1.096-1.796-1.015-2.801-0.497c-0.578,0.294-1.086,0.781-1.522,1.278
		c-0.659,0.751-1.167,1.654-1.867,2.354c-0.822,0.822-1.776,1.502-2.679,2.242c0.294-1.197,0.863-2.08,1.289-3.034
		c0.396-0.903,0.619-1.918-0.528-2.496c-0.883-0.457-2.08,0.244-2.334,1.481c-0.183,0.964-0.02,1.999-0.112,2.993
		c-0.061,0.68-0.061,1.552-0.477,1.968c-0.954,0.974-2.131,1.715-3.399,2.669c0.477-1.076,0.913-1.928,1.238-2.821
		c0.345-0.954,0.203-1.918-0.801-2.324c-1.126-0.436-1.654,0.467-1.999,1.339c-0.172,0.426-0.243,0.934-0.233,1.4
		c0.051,3.186-0.72,5.946-3.551,7.346c0.172-0.599,0.507-1.441,0.639-2.313c0.162-1.035-0.335-1.796-1.39-1.999
		c-1.146-0.223-1.573,0.578-1.705,1.481c-0.102,0.751-0.193,1.603,0.061,2.273c1.015,2.598-0.751,3.805-2.405,5.114
		c0.061-0.67,0.436-1.319,0.365-1.918c-0.071-0.599-0.457-1.481-0.924-1.654c-0.497-0.172-1.359,0.183-1.847,0.578
		c-0.386,0.315-0.578,1.025-0.599,1.563c-0.03,1.187,0.061,2.385,0.162,3.572c0.173,2.07-0.548,4.363-1.451,5.215
		c-0.203-4.982-0.335-10.279-0.67-15.575c-0.223-3.592,1.005-5.723,4.353-6.991c0.883-0.335,1.796-0.751,2.486-1.35
		c0.385-0.345,0.649-1.471,0.426-1.694c-0.396-0.406-1.441-0.731-1.816-0.487c-1.096,0.7-2.029,1.684-2.973,2.608
		c-0.335,0.325-0.538,0.791-0.802,1.187c-0.223,0.355-0.457,0.7-0.69,1.055c-0.172-0.081-0.335-0.162-0.507-0.244
		c0.791-2.242,1.573-4.475,2.385-6.707c0.294-0.842,0.923-0.923,1.745-0.812c1.025,0.122,2.141,0.294,3.085,0.01
		c0.741-0.223,1.36-1.055,1.867-1.735c0.152-0.203-0.264-1.187-0.436-1.187c-0.852-0.02-1.786,0-2.547,0.325
		c-0.974,0.416-1.816,1.147-2.719,1.745c-0.122-0.091-0.233-0.183-0.355-0.274c0.863-1.603,1.705-3.217,2.598-4.81
		c1.106-1.968,1.157-1.837,3.419-1.451c1.35,0.233,2.821,0.02,4.17-0.284c0.416-0.091,0.974-1.197,0.852-1.694
		c-0.122-0.497-0.944-1.035-1.542-1.177c-0.588-0.142-1.329,0.102-1.948,0.325c-0.903,0.315-1.755,0.771-2.892,1.289
		c1.745-2.415,3.714-4.079,6.2-5.124c1.603-0.66,2.953-1.684,3.45-3.419c0.162-0.568,0.101-1.552-0.254-1.816
		c-0.447-0.335-1.563-0.426-1.928-0.101c-0.944,0.822-1.958,1.816-2.334,2.943c-1.015,3.064-3.48,4.82-5.52,7.022
		c0.284-0.974,0.659-1.847,0.761-2.76c0.112-0.974-0.041-2.009-1.329-2.161c-0.923-0.112-1.766,0.903-1.633,2.08
		c0.132,1.126,0.538,2.222,0.72,3.348c0.091,0.578,0.142,1.289-0.102,1.766c-1.086,2.1-2.293,4.13-3.511,6.281
		c-0.01-0.416,0.01-0.781-0.041-1.136c-0.162-1.035-0.233-2.1-0.568-3.085c-0.406-1.218-1.705-1.867-2.597-1.451
		c-1.228,0.568-1.106,1.634-0.65,2.577c0.7,1.451,1.624,2.811,2.374,4.241c0.274,0.507,0.568,1.187,0.446,1.684
		c-0.659,2.608-1.451,5.185-2.121,7.488c-0.01-0.061-0.061-0.315-0.122-0.558c-1.329-5.094-2.496-10.238-4.069-15.251
		c-0.639-2.07-0.731-3.977-0.467-6.027c0.132-0.974,0.619-1.258,1.552-1.258c0.741,0.01,1.593-0.041,2.202-0.396
		c0.578-0.335,0.984-1.076,1.299-1.715c0.081-0.152-0.446-0.903-0.67-0.893c-0.66,0.041-1.411,0.193-1.938,0.558
		c-0.751,0.517-1.339,1.278-2.1,2.029c-0.061-0.396-0.152-0.589-0.112-0.761c0.183-1.035,0.416-2.07,0.619-3.105
		c0.426-2.212,0.436-2.111,2.638-2.334c1.137-0.112,2.253-0.609,3.298-1.106c0.294-0.142,0.528-1.025,0.355-1.339
		c-0.213-0.406-0.852-0.791-1.319-0.812c-0.568-0.02-1.218,0.264-1.715,0.589c-0.781,0.497-1.471,1.136-2.324,1.816
		c0.812-2.212,1.979-3.937,3.582-5.449c0.751-0.7,1.278-1.786,1.542-2.79c0.142-0.548-0.467-1.299-0.751-1.958
		c-0.68,0.325-1.674,0.457-1.989,0.994c-0.447,0.761-0.578,1.826-0.528,2.74c0.132,2.08-0.903,3.622-1.969,5.428
		c-0.061-1.197,0.01-2.171-0.203-3.074c-0.213-0.893-0.872-1.613-1.918-1.167c-1.116,0.477-0.842,1.41-0.386,2.182
		c0.436,0.731,1.076,1.349,1.573,2.05c0.233,0.335,0.558,0.802,0.487,1.126c-0.345,1.492-0.812,2.953-1.238,4.414
		c-0.254-0.335-0.244-0.649-0.365-0.893c-0.487-1.005-0.893-2.111-1.613-2.932c-0.294-0.345-1.279-0.081-1.958-0.091
		c0,0.568-0.213,1.258,0.03,1.684c0.578,0.984,1.319,1.877,2.08,2.729c1.35,1.481,1.715,3.643,0.832,5.581
		c-0.873-1.786-1.532-3.673-2.618-5.276c-2.121-3.125-2.141-6.656-2.445-10.167c-0.102-1.147,0.385-1.826,1.481-2.303
		c1.126-0.487,2.202-1.167,3.146-1.948c0.731-0.599,1.086-1.552,0.314-2.405c-0.781-0.883-1.766-0.66-2.597-0.081
		c-0.487,0.345-0.883,0.893-1.177,1.421c-0.487,0.883-0.862,1.837-1.279,2.76c-0.345-0.548-0.396-1.055-0.416-1.563
		c-0.081-2.354,1.35-3.988,2.587-5.763c0.385-0.548,0.315-1.502,0.243-2.253c-0.02-0.213-0.944-0.629-1.126-0.497
		c-0.578,0.406-1.248,0.954-1.431,1.583c-0.406,1.451-0.558,2.973-0.852,4.718c-0.152-0.66-0.254-1.106-0.365-1.552
		c-0.254-1.035-0.832-1.644-1.958-1.35c-0.893,0.223-1.441,1.421-1.005,2.354c0.254,0.538,0.761,0.954,1.177,1.4
		c0.538,0.599,1.248,1.086,1.623,1.766c1.583,2.79,1.339,5.926,1.481,9.031c-2.131-3.44-3.988-7.011-5.936-10.512
		c-1.096-1.979-1.745-3.917-0.69-6.108c0.142-0.294,0.233-0.68,0.162-0.984c-0.112-0.497-0.375-0.964-0.568-1.451
		c-0.497,0.233-1.035,0.406-1.471,0.72c-0.223,0.172-0.264,0.589-0.385,0.883c-0.183-0.528-0.071-1.045-0.163-1.522
		c-0.244-1.38-0.385-2.841-0.933-4.109c-0.487-1.126-1.887-1.207-2.993-0.436c-1.116,0.771-0.66,1.674-0.122,2.496
		c0.335,0.517,0.842,0.913,1.218,1.41c1.35,1.755,2.669,3.531,3.998,5.307c-0.152,0.112-0.304,0.233-0.467,0.345
		c-0.294-0.457-0.548-0.933-0.893-1.35c-0.568-0.7-1.126-1.431-1.816-1.989c-0.365-0.284-1.005-0.223-1.522-0.325
		c0,0.589-0.223,1.421,0.071,1.705c0.832,0.812,1.857,1.421,2.841,2.05c0.751,0.487,1.887,0.7,2.263,1.36
		c1.522,2.74,2.821,5.601,4.211,8.422c-0.264-0.01-0.385-0.132-0.497-0.254c-2.405-2.79-4.799-5.581-7.194-8.381
		c-0.68-0.791-1.289-1.654-1.999-2.415c-0.771-0.832-1.552-1.684-2.476-2.313c-0.335-0.223-1.086,0.162-1.654,0.264
		c0.152,0.548,0.142,1.319,0.497,1.593c0.7,0.528,1.593,0.873,2.445,1.126c1.806,0.538,2.74,1.999,3.886,3.257
		c-0.7-0.01-1.35-0.315-1.908-0.203c-0.649,0.122-1.228,0.619-1.837,0.954c0.578,0.365,1.137,0.994,1.735,1.045
		c0.873,0.071,1.776-0.284,2.679-0.416c0.294-0.051,0.741-0.101,0.883,0.061c1.867,2.232,3.703,4.485,5.54,6.748
		c-0.102,0.081-0.203,0.162-0.294,0.254c-1.573-1.309-3.186-2.577-4.698-3.937c-1.37-1.238-2.983-1.796-4.749-1.603
		c-0.528,0.051-1.238,0.862-1.38,1.441c-0.223,0.913,0.548,1.39,1.41,1.38c0.599-0.01,1.218-0.213,1.796-0.416
		c2.192-0.761,3.318-0.396,4.891,1.664c-0.507-0.091-1.025-0.355-1.411-0.223c-0.589,0.213-1.076,0.7-1.613,1.076
		c0.507,0.335,0.994,0.883,1.542,0.964c0.72,0.102,1.502-0.233,2.252-0.254c0.538-0.02,1.258-0.03,1.583,0.284
		c1.218,1.136,2.638,2.253,3.379,3.683c2.334,4.495,4.394,9.142,6.555,13.728c0.051,0.122,0,0.294,0,0.071
		c-2.689-2.851-5.459-5.885-8.361-8.787c-0.781-0.781-1.441-1.339-1.106-2.557c0.163-0.568,0.132-1.278-0.061-1.837
		c-0.223-0.629-0.69-1.187-1.126-1.705c-0.091-0.102-0.812,0.101-0.822,0.203c-0.071,0.67-0.172,1.41,0.041,2.019
		c0.223,0.639,0.791,1.157,1.207,1.725c-0.142,0.102-0.274,0.203-0.406,0.304c-0.325-0.173-0.639-0.325-0.954-0.507
		c-2.638-1.542-5.266-3.115-7.935-4.617c-0.913-0.507-1.887-0.984-2.892-1.238c-0.964-0.244-1.867,0.223-2.161,1.218
		c-0.325,1.055,0.152,1.968,1.167,2.324c0.781,0.274,1.745,0.477,2.516,0.274c2.892-0.781,5.367,0.132,7.742,1.634
		c0.923,0.578,1.837,1.157,2.841,1.796c-1.278,0.101-2.374-0.01-3.328,0.325c-0.619,0.213-1.451,1.096-1.411,1.623
		c0.071,1.065,1.167,1.187,2.029,0.954c1.045-0.274,2.019-0.842,3.074-1.147c0.568-0.172,1.492-0.335,1.806-0.041
		c4.647,4.465,9.223,9.01,10.451,15.758c0.264,1.441,0.619,2.872,0.944,4.404c-1.877-1.999-3.45-4.038-5.388-5.631
		c-1.928-1.603-4.251-2.729-6.352-4.14c-0.517-0.345-0.913-0.944-1.248-1.502c-0.741-1.228-1.248-2.638-2.172-3.704
		c-0.69-0.781-1.837-1.268-2.882-1.593c-0.426-0.132-1.329,0.365-1.593,0.822c-0.213,0.375,0.03,1.268,0.385,1.644
		c0.67,0.72,1.522,1.299,2.374,1.806c0.994,0.599,2.08,1.055,3.45,1.745c-0.558,0.071-0.751,0.142-0.913,0.102
		c-3.47-0.66-6.951-1.339-10.421-1.999c-1.634-0.315-3.288-0.457-4.647,0.731c-0.446,0.386-0.842,1.136-0.791,1.684
		c0.041,0.436,0.731,0.964,1.238,1.167c0.741,0.274,1.624,0.507,2.374,0.386c1.583-0.274,3.217-0.609,4.678-1.258
		c2.922-1.278,7.387-0.71,9.223,0.315c-1.431,0.325-3.135,0.558-4.718,1.116c-1.492,0.517-1.979,1.654-1.552,2.79
		c0.396,1.086,1.583,1.563,3.054,0.812c1.37-0.7,2.598-1.745,3.754-2.78c0.903-0.812,1.766-1.218,2.79-0.416
		c1.837,1.441,3.653,2.932,5.418,4.475c0.487,0.426,0.781,1.096,1.238,1.755c-1.786-0.517-3.318-1.035-4.891-1.39
		c-0.974-0.213-2.05-0.071-2.273,1.157c-0.233,1.258,0.599,1.968,1.715,2.283c1.481,0.426,2.922,0.304,4.292-0.507
		c0.7-0.416,1.451-0.852,2.202-0.041c1.146,1.238,2.222,2.506,2.374,4.312c0.142,1.573,0.467,3.125,0.548,4.698
		c0.183,3.693,0.264,7.387,0.386,11.08c-1.745-1.999-2.385-4.018-1.37-6.534c0.487-1.218,0.203-2.8,0.041-4.191
		c-0.051-0.457-0.781-1.136-1.238-1.177c-0.528-0.03-1.248,0.406-1.634,0.863c-0.365,0.416-0.598,1.136-0.548,1.694
		c0.111,1.157,0.467,2.293,0.72,3.48c-2.141-1.41-3.694-3.064-3.815-5.926c-0.071-1.705-0.761-3.419-1.39-5.043
		c-0.183-0.477-1.167-0.994-1.674-0.903c-0.538,0.091-1.268,0.863-1.329,1.4c-0.112,0.883,0.061,1.918,0.467,2.719
		c0.548,1.096,1.411,2.05,2.303,3.298c-0.964-0.426-1.644-0.883-2.374-1.005c-2.831-0.477-4.718-1.908-5.56-4.759
		c-0.345-1.157-1.37-1.938-2.679-1.684c-0.457,0.091-1.076,0.751-1.157,1.238c-0.213,1.329,0.741,2.09,1.816,2.628
		c0.863,0.426,1.776,0.761,2.659,1.136c-0.02,0.183-0.051,0.365-0.071,0.548c-2.385-0.132-4.779-0.264-7.164-0.396
		c-0.944-0.051-1.918-0.284-2.821-0.102c-1.208,0.233-1.867,1.218-1.725,2.455c0.142,1.228,1.177,1.776,2.202,1.552
		c1.207-0.264,2.466-0.781,3.44-1.522c2.222-1.694,4.637-1.979,7.64-1.573c-0.802,0.264-1.268,0.365-1.694,0.558
		c-1.4,0.649-2.872,1.339-3.288,2.973c-0.173,0.68,0.223,1.502,0.365,2.263c0.68-0.203,1.593-0.193,1.999-0.639
		c1.005-1.126,1.755-2.476,2.689-3.683c0.335-0.436,1.005-1.076,1.359-0.984c2.212,0.558,4.312,1.421,6.21,3.277
		c-1.228,0.112-2.172,0.122-3.085,0.304c-0.68,0.142-1.522,0.345-1.907,0.822c-0.426,0.538-0.396,1.41-0.568,2.141
		c0.639,0.142,1.451,0.589,1.897,0.355c1.065-0.568,1.938-1.481,2.933-2.202c0.467-0.335,1.268-0.883,1.512-0.72
		c2.05,1.38,3.724,3.125,4.789,5.733c-1.207-0.69-2.121-1.299-3.105-1.766c-1.512-0.731-3.115-0.507-3.795,0.538
		c-0.274,0.426-0.477,1.167-0.284,1.552c0.173,0.375,0.923,0.71,1.39,0.67c0.984-0.071,1.958-0.426,2.932-0.619
		c2.659-0.517,4.789,1.41,4.536,4.069c-0.842,8.787-3.014,17.27-5.956,25.56c-0.406,1.136-0.903,2.232-1.451,3.572
		c-0.304-1.918-0.406-3.592-0.842-5.175c-0.517-1.857-0.03-3.196,1.289-4.525c0.893-0.893,1.593-2.029,2.151-3.176
		c0.589-1.187,0.102-2.425-0.862-2.821c-1.106-0.446-2.587,0.051-3.034,1.207c-0.345,0.913-0.477,1.938-0.558,2.922
		c-0.071,0.832,0.061,1.684,0.111,2.527c-0.731-1.329-1.035-2.78-1.745-3.998c-1.278-2.151-1.167-4.16-0.325-6.433
		c0.568-1.522,0.649-3.257,0.71-4.911c0.04-0.964-0.639-1.776-1.735-1.735c-1.055,0.051-1.806,0.69-2.009,1.745
		c-0.101,0.548-0.02,1.147,0.051,1.705c0.213,1.471,0.467,2.932,0.67,4.251c-1.228-1.492-2.435-3.085-3.795-4.556
		c-0.67-0.71-0.924-1.329-0.68-2.283c0.365-1.431,0.741-2.892,0.802-4.353c0.061-1.725-1.177-2.811-2.577-2.577
		c-1.289,0.213-1.907,1.38-1.359,3.054c0.517,1.573,1.268,3.085,1.877,4.546c-2.527-0.802-4.17-2.729-5.631-4.901
		c-0.842-1.268-1.918-2.293-3.592-2.334c-1.167-0.02-2.131,0.386-2.344,1.634c-0.203,1.187,0.345,2.07,1.542,2.405
		c1.025,0.274,2.06,0.477,3.085,0.71c2.09,0.467,4.008,1.299,5.652,2.608c-1.938,0.051-3.805-0.02-5.631,0.193
		c-1.248,0.142-2.232,1.471-1.908,2.313c0.467,1.177,1.583,0.984,2.476,0.781c1.826-0.406,3.602-0.994,5.408-1.451
		c0.578-0.142,1.268-0.284,1.806-0.112c1.664,0.558,4.241,4.028,4.525,6.047c-0.72-0.649-1.309-1.268-1.979-1.776
		c-1.106-0.832-2.293-1.451-3.724-0.842c-1.289,0.548-1.552,1.816-0.385,2.537c0.923,0.568,2.151,1.005,3.196,0.903
		c2.902-0.254,4.515,1.116,5.469,3.633c0.375,0.984,0.761,1.968,1.096,2.963c0.091,0.264,0.01,0.589,0.01,0.883
		c-0.122,0.071-0.233,0.142-0.355,0.223c-0.802-0.771-1.552-1.613-2.425-2.293c-1.218-0.964-2.486-1.897-3.856-2.648
		c-0.406-0.223-1.38,0.061-1.725,0.446c-0.284,0.315-0.234,1.228,0.02,1.684c0.913,1.674,2.222,2.882,4.302,2.871
		c0.436,0,0.863,0.01,1.299,0.03c2.74,0.142,4.109,1.218,4.373,3.977c0.203,2.161,0.01,4.373-0.071,6.565
		c-0.01,0.497-0.264,0.984-0.406,1.481c-0.132-0.03-0.264-0.071-0.396-0.101c0.01-0.558,0.01-1.126,0.03-1.684
		c0.081-1.887-0.304-3.632-1.593-5.073c-0.995-1.116-2.669-1.349-3.633-0.578c-0.944,0.761-0.994,1.999,0.081,3.318
		c0.781,0.954,1.705,1.806,2.679,2.567c2.212,1.705,2.435,2.516,1.146,4.952c-0.964,1.816-1.918,3.643-2.922,5.439
		c-0.294,0.528-0.619,1.136-1.106,1.451c-1.613,1.086-2.212,2.75-3.004,4.414c-0.923,1.968-2.313,3.714-3.511,5.56
		c-0.132-0.071-0.274-0.142-0.406-0.213c2.253-4.495,2.801-9.173,1.218-13.942c-0.7-2.1-0.233-3.612,1.207-5.215
		c0.954-1.055,1.583-2.486,2.05-3.856c0.203-0.589-0.162-1.715-0.659-2.1c-0.507-0.396-1.563-0.416-2.253-0.203
		c-1.278,0.406-1.776,1.583-1.847,2.831c-0.061,0.944,0.102,1.908,0.162,2.861c0.02,0.457,0.041,0.913,0.061,1.38
		c-0.903-1.593-1.471-3.247-2.334-4.718c-1.045-1.796-1.136-3.47-0.548-5.479c0.568-1.877,0.71-3.937,0.731-5.916
		c0.02-1.086-0.792-2.029-2.111-1.826c-1.228,0.193-1.918,1.045-1.948,2.303c-0.02,0.568,0.111,1.147,0.223,1.705
		c0.284,1.421,0.599,2.841,0.893,4.191c-1.42-1.542-2.77-3.145-4.282-4.596c-0.781-0.761-1.086-1.441-0.852-2.516
		c0.325-1.441,0.609-2.912,0.69-4.383c0.051-1.136-0.375-2.303-1.613-2.608c-0.7-0.172-1.705-0.071-2.242,0.335
		c-0.964,0.72-0.731,1.897-0.335,2.912c0.355,0.933,0.802,1.837,1.258,2.74c0.315,0.619,0.71,1.207,1.147,1.948
		c-1.613-0.162-2.669-0.903-3.47-2.019c-0.761-1.045-1.41-2.171-2.161-3.227c-0.994-1.37-2.303-2.303-4.008-2.587
		c-1.776-0.304-3.348,0.781-3.592,2.456c-0.213,1.461,0.751,2.273,2.74,2.608c1.979,0.325,3.957,0.731,5.875,1.299
		c1.146,0.345,2.192,1.065,3.257,1.603c-2.212,0.172-4.312,0.203-6.362,0.548c-1.136,0.193-2.06,1.177-1.745,2.425
		c0.335,1.319,1.603,0.954,2.557,0.802c0.893-0.142,1.776-0.426,2.638-0.71c1.177-0.396,2.313-0.954,3.521-1.238
		c0.67-0.162,1.583-0.132,2.141,0.213c2.253,1.39,3.775,3.44,5.002,6.21c-1.187-0.923-2.029-1.684-2.973-2.303
		c-1.248-0.812-2.608-1.279-4.018-0.335c-1.015,0.68-1.187,1.735-0.183,2.344c0.994,0.599,2.334,1.177,3.419,1.025
		c3.359-0.487,5.297,0.984,6.464,3.917c0.355,0.893,0.791,1.745,1.136,2.638c0.112,0.315,0.081,0.68,0.112,1.025
		c-0.132,0.091-0.264,0.183-0.406,0.264c-0.609-0.588-1.278-1.136-1.806-1.796c-0.568-0.7-0.852-1.735-1.542-2.212
		c-0.771-0.538-1.928-0.944-2.811-0.791c-0.629,0.112-1.37,1.167-1.563,1.918c-0.304,1.228,0.802,1.826,1.715,2.364
		c0.325,0.193,0.71,0.315,1.076,0.386c1.644,0.325,3.298,0.589,4.941,0.944c0.457,0.101,1.096,0.355,1.258,0.71
		c1.644,3.734,1.908,7.58,0.741,11.517c-0.203-0.761-0.243-1.542-0.274-2.324c-0.101-2.182-0.659-4.17-2.547-5.53
		c-1.035-0.751-2.537-0.71-3.328,0.071c-1.025,1.005-0.832,2.192-0.03,3.105c0.994,1.136,2.151,2.182,3.379,3.064
		c2.334,1.684,2.76,3.206,1.471,5.753c-2.527,5.053-6.494,8.858-10.786,12.338c-3.298,2.658-6.808,5.043-10.218,7.559
		c1.075-2.415,2.466-4.495,3.379-6.758c1.218-3.034,2.821-5.733,5.144-8.026c0.548-0.528,1.015-1.167,1.39-1.826
		c0.883-1.522,1.512-3.206,0.822-4.921c-0.314-0.771-1.167-1.583-1.948-1.816c-0.426-0.122-1.39,0.812-1.766,1.471
		c-0.467,0.791-0.589,1.796-0.832,2.719c-0.152,0.609-0.254,1.228-0.385,1.847c-0.497-1.634-0.65-3.267-1.137-4.789
		c-0.69-2.151-0.406-3.988,0.954-5.794c1.086-1.451,1.573-3.166,1.421-5.002c-0.122-1.552-1.015-2.547-2.232-2.547
		c-1.116,0-2.09,0.994-2.141,2.455c-0.041,1.187,0.142,2.374,0.264,3.562c0.081,0.781,0.233,1.552,0.426,2.719
		c-1.248-2.486-2.202-4.617-3.358-6.636c-0.893-1.573-1.147-3.166-1.116-4.952c0.02-1.938-0.142-3.917-0.517-5.814
		c-0.183-0.954-0.933-1.867-1.624-2.608c-0.314-0.355-1.238-0.528-1.654-0.315c-0.102,0.051-0.203,0.122-0.294,0.203
		c-0.386,0.345-0.71,0.903-0.72,1.329c-0.03,0.812,0.274,1.684,0.588,2.466c0.254,0.619,0.528,1.228,0.812,1.837
		c0.447,0.984,0.913,1.968,1.38,2.983c-0.416-0.355-0.822-0.71-1.228-1.065c0.03,0.335,0.051,0.67,0.071,1.005
		c0.558,0.71,1.055,1.471,1.492,2.283c-0.507-0.284-0.954-0.639-1.421-0.974c0.041,0.771,0.071,1.532,0.081,2.303
		c0.477-0.03,0.944-0.041,1.38,0.081c2.019,0.568,5.337,6.332,4.911,8.746c-0.802-0.731-1.492-1.563-2.141-2.425
		c-0.66-0.873-1.187-1.867-1.938-2.638c-0.598-0.619-1.42-0.923-2.212-0.548c-0.02,1.431-0.081,2.861-0.183,4.282
		c0.274,0.284,0.588,0.517,0.913,0.66c1.654,0.71,3.409,1.258,5.175,1.623c1.055,0.213,1.583,0.619,1.918,1.603
		c1.025,3.095,1.339,6.26,1.035,9.487c-0.112,1.116-0.396,2.222-0.599,3.328c-0.142-0.02-0.284-0.041-0.426-0.061
		c0.02-0.791,0.03-1.583,0.071-2.374c0.111-2.06-0.243-4.018-1.309-5.804c-0.822-1.38-2.303-2.009-3.369-1.481
		c-1.076,0.518-1.573,2.1-0.781,3.541c0.791,1.441,1.776,2.841,2.922,4.028c2.171,2.242,2.628,4.079,1.045,6.819
		c-1.116,1.938-2.405,3.795-3.775,5.581c-0.609,0.791-1.502,1.461-2.415,1.918c-1.715,0.852-3.531,1.471-5.286,2.263
		c-0.294,0.132-0.446,0.609-0.659,0.923c0.355,0.101,0.71,0.264,1.075,0.274c0.264,0.01,0.528-0.193,0.802-0.294
		c6.403-2.395,12.115-5.956,17.473-10.157c0.538-0.416,1.36-0.649,2.06-0.66c2.922-0.061,4.738,1.664,6.19,3.998
		c0.619,0.994,1.39,1.979,2.313,2.669c0.507,0.375,1.664,0.416,2.181,0.081c0.872-0.558,0.822-1.674,0.142-2.415
		c-0.822-0.893-1.776-1.755-2.831-2.344c-1.411-0.781-2.983-1.289-4.485-1.908c1.005-0.294,1.958-0.396,2.902-0.315
		c1.806,0.152,3.622,0.335,5.408,0.66c2.242,0.406,2.212,0.467,2.232,2.831c0.01,1.806,0.578,3.389,2.11,4.505
		c0.822,0.599,1.826,0.791,2.446-0.03c0.375-0.507,0.446-1.593,0.162-2.182c-0.436-0.913-1.258-1.654-1.979-2.425
		c-0.599-0.639-1.278-1.207-1.918-1.806c0.842-0.193,1.552-0.173,2.212,0.01c1.766,0.477,3.511,1.005,5.256,1.532
		c2.009,0.599,2.192,0.984,2.222,3.064c0.02,1.451,0.091,2.993,0.548,4.343c0.67,1.948,2.151,2.679,3.348,2.039
		c1.228-0.66,1.451-2.171,0.406-3.927c-0.802-1.339-1.796-2.557-2.76-3.917c0.396,0.172,0.751,0.304,1.076,0.477
		c2.719,1.39,5.002,3.257,6.91,5.702c1.035,1.339,2.557,2.445,4.089,3.196c1.573,0.771,3.084,0.223,3.46-0.71
		c0.457-1.096-0.416-2.729-1.928-3.48c-0.588-0.294-1.238-0.528-1.887-0.68c-0.974-0.244-1.968-0.396-2.963-0.578
		c-2.811-0.518-4.84-2.415-7.082-3.977c0.69-0.01,1.329,0.152,1.968,0.264c0.842,0.142,1.705,0.335,2.557,0.325
		c1.674-0.03,2.8-1.035,2.628-2.192c-0.193-1.299-1.542-1.958-3.186-1.552c-0.457,0.122-0.913,0.304-1.339,0.517
		c-0.933,0.477-1.826,1.045-2.79,1.481c-0.487,0.223-1.146,0.467-1.613,0.315c-2.567-0.822-5.104-1.766-8.026-2.79
		c0.639-0.061,0.893-0.061,1.147-0.101c1.766-0.345,3.602-0.497,5.276-1.106c1.35-0.477,1.826-2.08,1.258-3.095
		c-0.731-1.279-1.938-1.248-3.024-0.72c-1.664,0.812-3.318,1.715-4.83,2.79c-2.547,1.806-5.814,2.1-8.543,0.609
		c1.177-0.426,2.486-0.751,3.643-1.36c1.258-0.67,1.664-2.151,1.137-3.206c-0.487-0.994-1.766-1.339-3.166-0.812
		c-1.806,0.69-3.155,1.918-4.282,3.48c-0.477,0.66-1.167,1.451-1.877,1.603c-1.553,0.345-3.176,0.315-5.134,0.467
		c0.517-0.497,0.761-0.71,0.984-0.944c3.318-3.45,6.676-6.859,9.934-10.36c1.573-1.705,2.963-1.918,4.779-0.396
		c0.619,0.528,1.146,1.167,1.776,1.674c0.71,0.578,1.542,1.238,2.394,0.345c0.852-0.893,0.619-2.09-0.203-2.689
		c-0.933-0.68-2.181-1.065-3.359-1.289c-0.964-0.183-2.009,0.051-3.348,0.122c2.07-1.674,4.119-2.496,6.392-2.861
		c1.969-0.315,1.958-0.203,2.527,1.674c0.396,1.329,1.106,2.608,1.887,3.764c0.243,0.355,1.36,0.528,1.735,0.284
		c0.467-0.315,0.944-1.278,0.771-1.735c-0.304-0.883-0.974-1.705-1.664-2.385c-0.72-0.69-1.634-1.177-2.669-1.908
		c2.527-0.731,4.739-0.122,6.951,0.071c1.289,0.122,1.847,0.832,1.867,2.08c0.01,1.005-0.041,2.029,0.162,2.993
		c0.213,0.964,0.568,1.948,1.116,2.76c0.781,1.177,2.029,1.136,2.587-0.142c0.345-0.812,0.386-2.019,0.03-2.811
		c-0.629-1.421-1.664-2.648-2.577-4.028c2.527,1.076,4.82,2.303,6.423,4.667c0.923,1.36,2.192,2.527,3.46,3.592
		c0.65,0.538,1.634,0.802,2.496,0.913c1.238,0.152,2.293-0.294,2.638-1.674c0.365-1.39-0.223-2.415-1.471-2.892
		c-1.603-0.609-3.257-1.228-4.931-1.451c-2.821-0.375-5.033-1.816-7.234-3.389c0.791-0.03,1.563,0.223,2.283,0.112
		c1.187-0.183,2.384-0.467,3.46-0.984c0.345-0.162,0.558-1.248,0.376-1.735c-0.193-0.487-0.934-0.994-1.481-1.055
		c-0.65-0.081-1.421,0.183-2.009,0.538c-0.984,0.578-1.847,1.36-2.801,2.009c-0.375,0.264-0.872,0.619-1.248,0.558
		c-2.354-0.375-4.688-0.852-7.285-1.36c0.528-0.132,0.822-0.162,1.065-0.284c1.573-0.781,3.227-1.431,4.647-2.425
		c0.933-0.66,1.157-1.938,0.385-2.973c-0.812-1.086-1.968-0.832-2.821-0.132c-1.36,1.106-2.841,2.232-3.764,3.673
		c-1.786,2.8-4.485,3.176-7.59,3.541c0.822-0.639,1.461-1.076,2.029-1.583c1.776-1.583,1.948-2.709,0.791-4.83
		c-0.091-0.172-0.163-0.477-0.071-0.619c0.7-1.238,1.289-2.516,2.669-3.267c2.212-1.207,4.241-0.639,6.332,0.264
		c0.731,0.315,1.562,0.619,2.313,0.568c0.568-0.041,1.441-0.599,1.552-1.055c0.112-0.497-0.396-1.512-0.862-1.684
		c-1.035-0.375-2.222-0.568-3.328-0.487c-1.289,0.081-2.557,0.538-3.846,0.832c-0.061-0.152-0.132-0.294-0.203-0.446
		c2.1-1.076,4.211-2.131,6.301-3.217c1.329-0.69,2.06-0.274,2.872,1.005c0.69,1.096,1.887,1.979,3.034,2.648
		c0.426,0.243,1.623-0.223,1.989-0.72c0.254-0.355-0.122-1.421-0.517-1.938c-0.375-0.467-1.126-0.69-1.745-0.923
		c-0.883-0.315-1.796-0.528-2.699-0.791c0.568-0.487,1.157-0.781,1.776-0.863c1.563-0.223,3.135-0.396,4.718-0.517
		c1.918-0.142,2.11,0.142,2.699,1.979c0.467,1.421,1.116,2.831,1.928,4.089c0.284,0.446,1.532,0.791,1.907,0.538
		c0.548-0.365,0.923-1.319,0.934-2.029c0-0.619-0.487-1.339-0.944-1.867c-0.7-0.812-1.542-1.492-2.476-2.364
		c3.014,0.7,5.459,1.897,7.062,4.485c0.994,1.624,2.172,3.105,4.181,3.47c0.69,0.112,1.979,0.01,2.05-0.264
		c0.223-0.771,0.294-1.999-0.173-2.466c-0.923-0.944-2.181-1.664-3.419-2.182c-2.75-1.147-5.56-2.111-8.351-3.145
		c1.664-0.294,3.257-0.152,4.789-0.386c0.68-0.102,1.664-0.873,1.766-1.471c0.183-1.086-0.822-1.735-1.847-1.755
		c-0.913-0.02-1.897,0.183-2.74,0.548c-0.903,0.406-1.654,1.126-2.496,1.684c-0.396,0.254-0.832,0.629-1.248,0.629
		c-2.395,0.02-4.789-0.071-6.961-0.112c1.177-0.71,2.587-1.431,3.846-2.354c1.248-0.923,1.461-2.121,0.791-2.983
		c-0.71-0.913-2.131-1.167-3.216-0.213c-1.268,1.106-2.608,2.354-3.338,3.825c-1.411,2.861-3.825,3.917-6.585,4.617
		c0.69-0.863,1.461-1.654,1.999-2.577c0.568-0.984,0.568-2.1-0.477-2.821c-1.096-0.761-2.09-0.294-2.963,0.528
		c-0.345,0.325-0.67,0.66-1.015,0.994c0.589-1.593,1.167-3.196,1.786-4.769c0.609-1.542,0.984-3.288,1.979-4.546
		c2.029-2.608,4.891-3.105,8.057-2.313c1.136,0.284,2.354,0.406,3.531,0.365c1.005-0.03,1.938-0.558,1.887-1.755
		c-0.051-1.116-0.913-1.776-1.928-1.776c-1.319,0-2.689,0.132-3.937,0.507c-1.532,0.457-2.973,1.228-4.444,1.867
		c0.325-0.68,0.731-1.258,1.258-1.705c1.674-1.41,3.348-2.861,5.124-4.15c1.999-1.451,2.039-1.37,3.785,0.365
		c1.319,1.309,2.912,2.161,4.779,1.725c0.72-0.172,1.593-0.964,1.816-1.664c0.345-1.025-0.568-1.664-1.522-1.877
		c-0.883-0.193-1.796-0.233-2.699-0.254c-1.086-0.03-2.171,0.041-3.247,0.061c0.558-0.781,1.197-1.35,1.928-1.755
		c1.755-0.984,3.572-1.857,5.317-2.851c1.116-0.649,1.968-0.436,2.811,0.457c0.751,0.802,1.461,1.715,2.374,2.273
		c1.015,0.629,2.222,1.065,3.399,1.309c0.984,0.213,1.907-0.223,2.202-1.36c0.294-1.147-0.193-2.019-1.167-2.527
		c-0.802-0.406-1.684-0.71-2.567-0.873c-1.319-0.254-2.659-0.335-4.12-0.507c3.754-1.37,7.397-1.968,11.273-1.319
		c1.471,0.244,3.166-0.102,4.596-0.619C302.216,118.955,303.048,117.443,302.591,116.429z"/>
	<path fill="#2E562F" d="M89.265,137.907c0.079-0.3,0.142-0.616,0.221-0.916c-1.752,1.326-3.363,2.841-5.099,4.325
		c0.758-1.642,1.515-3.22,2.178-4.815c0.331-0.789,0.631-1.658,0.6-2.463c-0.016-0.537-0.521-1.279-1.011-1.531
		c-0.094-0.047-0.237-0.079-0.395-0.095c-0.442-0.032-1.026,0.126-1.278,0.395c-0.679,0.742-1.421,1.658-1.61,2.62
		c-0.379,1.894-0.537,3.868-0.521,5.809c0.032,1.784-0.221,3.378-1.121,4.957c-0.805,1.405-1.515,2.857-2.289,4.452
		c-0.331,0.695-0.679,1.421-1.058,2.178c0.19-1.168,0.347-1.942,0.426-2.715c0.126-1.184,0.3-2.384,0.253-3.568
		c-0.048-1.452-1.011-2.447-2.147-2.447c-1.2,0-2.1,0.995-2.226,2.542c-0.158,1.831,0.347,3.552,1.436,5.004
		c1.358,1.8,1.642,3.647,0.947,5.793c-0.489,1.516-0.631,3.157-1.137,4.783c-0.126-0.616-0.237-1.231-0.395-1.847
		c-0.237-0.916-0.363-1.926-0.821-2.715c-0.395-0.663-1.358-1.594-1.784-1.468c-0.758,0.237-1.61,1.042-1.926,1.815
		c-0.694,1.705-0.063,3.394,0.821,4.925c0.363,0.647,0.837,1.294,1.373,1.815c2.336,2.305,3.947,5.004,5.162,8.035
		c0.9,2.257,2.305,4.341,3.378,6.756c-3.426-2.526-6.93-4.909-10.23-7.561c-4.278-3.489-8.256-7.293-10.782-12.345
		c-1.279-2.542-0.868-4.057,1.468-5.746c1.231-0.884,2.384-1.926,3.378-3.062c0.805-0.916,0.994-2.1-0.032-3.11
		c-0.789-0.774-2.289-0.821-3.331-0.063c-1.878,1.358-2.431,3.347-2.542,5.525c-0.031,0.773-0.063,1.563-0.284,2.321
		c-1.152-3.931-0.9-7.783,0.758-11.508c0.158-0.363,0.805-0.616,1.263-0.71c1.626-0.363,3.284-0.631,4.925-0.947
		c0.379-0.079,0.758-0.189,1.089-0.395c0.916-0.537,2.021-1.137,1.705-2.352c-0.19-0.758-0.932-1.815-1.563-1.926
		c-0.884-0.158-2.036,0.253-2.81,0.789c-0.694,0.474-0.963,1.515-1.532,2.21c-0.536,0.663-1.215,1.216-1.815,1.8
		c-0.142-0.079-0.268-0.174-0.41-0.268c0.032-0.332,0-0.71,0.126-1.026c0.331-0.884,0.773-1.736,1.137-2.636
		c1.168-2.92,3.094-4.404,6.457-3.915c1.073,0.158,2.415-0.426,3.425-1.026c0.995-0.6,0.821-1.658-0.189-2.336
		c-1.421-0.947-2.763-0.474-4.026,0.332c-0.932,0.616-1.784,1.373-2.968,2.305c1.231-2.763,2.747-4.815,4.989-6.204
		c0.568-0.347,1.484-0.379,2.162-0.221c1.2,0.284,2.336,0.837,3.52,1.247c0.853,0.284,1.737,0.568,2.62,0.71
		c0.963,0.142,2.226,0.505,2.558-0.805c0.331-1.247-0.6-2.242-1.737-2.431c-2.052-0.347-4.152-0.379-6.361-0.553
		c1.073-0.537,2.099-1.247,3.267-1.594c1.91-0.568,3.883-0.979,5.872-1.294c1.989-0.347,2.952-1.152,2.731-2.621
		c-0.237-1.673-1.816-2.747-3.6-2.447c-1.689,0.284-3.015,1.216-3.994,2.589c-0.758,1.058-1.405,2.178-2.163,3.22
		c-0.805,1.121-1.863,1.863-3.489,2.021c0.458-0.742,0.853-1.326,1.168-1.942c0.458-0.916,0.884-1.815,1.247-2.747
		c0.41-1.01,0.631-2.194-0.331-2.905c-0.537-0.41-1.531-0.521-2.242-0.347c-1.231,0.316-1.673,1.484-1.61,2.621
		c0.079,1.468,0.363,2.936,0.695,4.373c0.237,1.073-0.079,1.752-0.868,2.526c-1.5,1.452-2.857,3.047-4.278,4.594
		c0.284-1.358,0.615-2.778,0.9-4.199c0.111-0.553,0.237-1.137,0.221-1.705c-0.032-1.247-0.71-2.1-1.942-2.289
		c-1.326-0.205-2.131,0.726-2.131,1.815c0.032,1.989,0.174,4.041,0.742,5.92c0.6,2.005,0.505,3.678-0.552,5.478
		c-0.853,1.468-1.437,3.126-2.32,4.72c0.016-0.474,0.031-0.931,0.063-1.373c0.063-0.963,0.205-1.926,0.158-2.873
		c-0.079-1.247-0.568-2.415-1.847-2.826c-0.694-0.221-1.752-0.189-2.258,0.205c-0.489,0.379-0.852,1.515-0.663,2.1
		c0.474,1.373,1.105,2.794,2.052,3.852c1.452,1.61,1.91,3.11,1.216,5.209c-1.579,4.783-1.042,9.456,1.216,13.955
		c-0.142,0.063-0.269,0.142-0.41,0.205c-1.2-1.847-2.589-3.583-3.52-5.557c-0.773-1.673-1.374-3.331-3-4.42
		c-0.474-0.316-0.805-0.916-1.105-1.452c-0.994-1.784-1.957-3.615-2.921-5.43c-1.294-2.431-1.058-3.252,1.137-4.957
		c0.979-0.758,1.91-1.61,2.684-2.557c1.089-1.326,1.042-2.557,0.095-3.331c-0.963-0.758-2.637-0.537-3.631,0.584
		c-1.31,1.437-1.673,3.189-1.594,5.067c0.016,0.568,0.016,1.137,0.032,1.689c-0.142,0.032-0.269,0.079-0.395,0.111
		c-0.142-0.505-0.395-0.995-0.426-1.484c-0.063-2.194-0.252-4.404-0.047-6.567c0.252-2.763,1.61-3.836,4.373-3.978
		c0.426-0.016,0.853-0.032,1.279-0.032c2.083,0.016,3.394-1.2,4.31-2.873c0.252-0.458,0.316-1.373,0.016-1.689
		c-0.347-0.379-1.326-0.663-1.721-0.442c-1.357,0.758-2.636,1.689-3.867,2.652c-0.868,0.679-1.61,1.515-2.415,2.289
		c-0.111-0.079-0.237-0.158-0.347-0.221c0-0.3-0.079-0.616,0-0.884c0.331-0.995,0.726-1.973,1.089-2.968
		c0.963-2.51,2.589-3.883,5.494-3.631c1.026,0.11,2.257-0.332,3.173-0.9c1.168-0.726,0.916-1.989-0.363-2.542
		c-1.436-0.6-2.636,0.016-3.725,0.853c-0.679,0.505-1.263,1.121-1.989,1.768c0.284-2.021,2.857-5.493,4.531-6.046
		c0.537-0.174,1.216-0.032,1.8,0.111c1.815,0.458,3.583,1.042,5.399,1.452c0.916,0.205,2.021,0.395,2.478-0.773
		c0.332-0.852-0.647-2.178-1.894-2.321c-1.831-0.221-3.694-0.142-5.635-0.189c1.641-1.31,3.552-2.147,5.651-2.605
		c1.026-0.237,2.068-0.442,3.079-0.71c1.216-0.347,1.752-1.231,1.547-2.415c-0.205-1.247-1.169-1.658-2.336-1.626
		c-1.673,0.032-2.747,1.058-3.599,2.336c-1.453,2.163-3.11,4.089-5.636,4.894c0.615-1.468,1.357-2.968,1.878-4.546
		c0.553-1.673-0.063-2.841-1.357-3.047c-1.389-0.237-2.637,0.852-2.573,2.573c0.063,1.452,0.442,2.92,0.789,4.357
		c0.252,0.947,0,1.563-0.663,2.273c-1.358,1.468-2.573,3.062-3.804,4.562c0.205-1.326,0.457-2.778,0.663-4.246
		c0.079-0.568,0.158-1.168,0.047-1.705c-0.19-1.058-0.932-1.705-1.989-1.752c-1.105-0.047-1.784,0.774-1.752,1.737
		c0.079,1.658,0.158,3.394,0.726,4.909c0.837,2.273,0.947,4.278-0.331,6.441c-0.71,1.215-1.01,2.668-1.736,3.994
		c0.032-0.852,0.173-1.705,0.11-2.526c-0.095-0.995-0.221-2.021-0.568-2.92c-0.442-1.168-1.926-1.658-3.031-1.215
		c-0.963,0.395-1.452,1.642-0.868,2.826c0.568,1.137,1.263,2.273,2.147,3.173c1.342,1.326,1.816,2.668,1.31,4.531
		c-0.458,1.579-0.553,3.252-0.853,5.162c-0.537-1.326-1.058-2.431-1.452-3.568c-2.952-8.288-5.115-16.765-5.951-25.558
		c-0.253-2.652,1.878-4.578,4.53-4.073c0.979,0.205,1.942,0.553,2.936,0.631c0.474,0.032,1.216-0.3,1.389-0.679
		c0.19-0.379,0-1.121-0.284-1.547c-0.679-1.042-2.273-1.279-3.788-0.537c-0.995,0.458-1.895,1.073-3.11,1.768
		c1.058-2.621,2.747-4.357,4.783-5.746c0.237-0.158,1.058,0.395,1.516,0.726c0.994,0.726,1.863,1.642,2.936,2.21
		c0.442,0.221,1.263-0.221,1.894-0.363c-0.173-0.726-0.142-1.61-0.568-2.147c-0.379-0.474-1.231-0.679-1.91-0.821
		c-0.9-0.174-1.847-0.189-3.094-0.3c1.91-1.863,4.01-2.715,6.22-3.284c0.363-0.079,1.026,0.553,1.357,0.995
		c0.947,1.2,1.689,2.557,2.699,3.678c0.395,0.442,1.31,0.442,1.989,0.647c0.142-0.774,0.537-1.594,0.379-2.273
		c-0.426-1.626-1.894-2.321-3.299-2.968c-0.426-0.189-0.884-0.3-1.689-0.553c2.999-0.41,5.414-0.126,7.625,1.563
		c0.994,0.742,2.241,1.263,3.441,1.531c1.026,0.221,2.068-0.332,2.21-1.563c0.142-1.231-0.505-2.21-1.72-2.447
		c-0.9-0.19-1.879,0.047-2.826,0.095c-2.384,0.142-4.767,0.268-7.151,0.395c-0.032-0.174-0.063-0.363-0.095-0.537
		c0.9-0.379,1.816-0.71,2.668-1.137c1.09-0.553,2.021-1.31,1.816-2.636c-0.079-0.489-0.694-1.152-1.152-1.231
		c-1.31-0.253-2.336,0.521-2.684,1.673c-0.837,2.857-2.716,4.294-5.557,4.767c-0.742,0.126-1.405,0.568-2.368,0.995
		c0.884-1.247,1.752-2.194,2.305-3.283c0.395-0.805,0.568-1.847,0.458-2.731c-0.047-0.537-0.789-1.31-1.326-1.389
		c-0.521-0.095-1.484,0.426-1.673,0.9c-0.631,1.626-1.326,3.331-1.405,5.036c-0.111,2.857-1.658,4.515-3.805,5.936
		c0.253-1.2,0.6-2.336,0.726-3.489c0.047-0.552-0.19-1.279-0.553-1.689c-0.395-0.458-1.105-0.9-1.642-0.868
		c-0.458,0.047-1.184,0.726-1.231,1.184c-0.158,1.389-0.442,2.968,0.047,4.183c1.011,2.526,0.363,4.531-1.373,6.535
		c0.11-3.694,0.205-7.388,0.395-11.082c0.063-1.563,0.395-3.126,0.536-4.688c0.158-1.815,1.216-3.078,2.384-4.325
		c0.742-0.805,1.5-0.363,2.194,0.047c1.357,0.805,2.81,0.931,4.294,0.505c1.105-0.316,1.942-1.026,1.72-2.273
		c-0.221-1.231-1.31-1.373-2.273-1.168c-1.579,0.363-3.11,0.884-4.893,1.389c0.457-0.647,0.742-1.326,1.231-1.752
		c1.768-1.547,3.583-3.031,5.43-4.467c1.01-0.805,1.878-0.395,2.778,0.41c1.168,1.042,2.384,2.084,3.757,2.778
		c1.468,0.758,2.652,0.268,3.063-0.805c0.426-1.137-0.063-2.273-1.563-2.794c-1.594-0.553-3.283-0.789-4.72-1.121
		c1.847-1.026,6.314-1.594,9.235-0.316c1.452,0.647,3.078,0.995,4.673,1.263c0.758,0.126,1.642-0.111,2.368-0.379
		c0.521-0.205,1.2-0.742,1.247-1.168c0.032-0.552-0.363-1.31-0.789-1.689c-1.358-1.184-3.015-1.042-4.657-0.726
		c-3.473,0.647-6.946,1.342-10.419,1.989c-0.173,0.047-0.347-0.032-0.916-0.095c1.374-0.695,2.447-1.152,3.457-1.752
		c0.852-0.505,1.705-1.073,2.368-1.8c0.363-0.379,0.6-1.263,0.395-1.642c-0.269-0.458-1.168-0.963-1.61-0.821
		c-1.026,0.316-2.194,0.805-2.873,1.594c-0.931,1.058-1.421,2.463-2.163,3.694c-0.347,0.568-0.742,1.168-1.247,1.5
		c-2.1,1.421-4.436,2.542-6.362,4.152c-1.926,1.594-3.52,3.631-5.399,5.62c0.347-1.531,0.694-2.952,0.947-4.404
		c1.231-6.741,5.809-11.287,10.451-15.754c0.316-0.284,1.247-0.126,1.815,0.047c1.042,0.3,2.021,0.868,3.078,1.137
		c0.868,0.237,1.957,0.111,2.036-0.947c0.032-0.521-0.805-1.405-1.421-1.626c-0.947-0.332-2.052-0.221-3.331-0.316
		c1.01-0.647,1.926-1.231,2.842-1.8c2.384-1.5,4.846-2.415,7.751-1.642c0.758,0.205,1.721,0,2.51-0.268
		c1.01-0.363,1.484-1.263,1.168-2.321c-0.3-0.995-1.2-1.468-2.162-1.215c-1.011,0.253-1.973,0.726-2.889,1.231
		c-2.668,1.5-5.304,3.078-7.94,4.625c-0.316,0.174-0.632,0.332-0.947,0.505c-0.126-0.111-0.268-0.205-0.41-0.316
		c0.426-0.568,0.995-1.073,1.216-1.721c0.205-0.6,0.095-1.342,0.032-2.021c0-0.095-0.726-0.3-0.821-0.205
		c-0.442,0.521-0.916,1.074-1.121,1.705c-0.19,0.568-0.221,1.279-0.079,1.847c0.347,1.216-0.316,1.768-1.105,2.557
		c-2.904,2.889-5.667,5.935-8.351,8.777c0,0.221-0.063,0.047,0-0.063c2.163-4.594,4.231-9.235,6.567-13.734
		c0.726-1.436,2.147-2.542,3.362-3.678c0.331-0.316,1.058-0.316,1.579-0.284c0.758,0.016,1.531,0.347,2.273,0.253
		c0.537-0.079,1.011-0.631,1.532-0.963c-0.537-0.379-1.026-0.868-1.626-1.073c-0.363-0.142-0.9,0.126-1.389,0.221
		c1.563-2.068,2.699-2.431,4.894-1.673c0.568,0.205,1.184,0.41,1.784,0.426c0.853,0,1.642-0.474,1.421-1.389
		c-0.142-0.568-0.868-1.389-1.389-1.436c-1.768-0.189-3.378,0.363-4.752,1.61c-1.515,1.358-3.126,2.621-4.688,3.931
		c-0.111-0.095-0.205-0.174-0.3-0.253c1.847-2.257,3.662-4.515,5.541-6.756c0.126-0.158,0.584-0.111,0.884-0.047
		c0.9,0.126,1.8,0.474,2.684,0.41c0.6-0.047,1.152-0.679,1.736-1.042c-0.615-0.331-1.2-0.837-1.847-0.963
		c-0.568-0.111-1.2,0.205-1.91,0.205c1.137-1.247,2.084-2.715,3.883-3.252c0.868-0.253,1.752-0.6,2.463-1.121
		c0.347-0.284,0.331-1.058,0.474-1.594c-0.553-0.111-1.31-0.489-1.642-0.268c-0.916,0.631-1.705,1.484-2.479,2.305
		c-0.71,0.773-1.31,1.626-1.989,2.415c-2.4,2.81-4.799,5.604-7.199,8.382c-0.11,0.126-0.237,0.253-0.489,0.253
		c1.374-2.81,2.684-5.683,4.199-8.414c0.363-0.663,1.515-0.868,2.257-1.358c0.979-0.631,2.021-1.247,2.857-2.052
		c0.284-0.284,0.063-1.121,0.063-1.705c-0.521,0.095-1.152,0.047-1.516,0.332c-0.71,0.552-1.247,1.279-1.815,1.989
		c-0.347,0.41-0.6,0.884-0.916,1.342c-0.142-0.111-0.3-0.237-0.442-0.347c1.326-1.768,2.636-3.552,3.978-5.304
		c0.378-0.489,0.9-0.9,1.231-1.405c0.537-0.821,0.979-1.736-0.126-2.494c-1.105-0.773-2.51-0.695-3,0.426
		c-0.536,1.279-0.679,2.731-0.931,4.104c-0.079,0.489,0.032,0.995-0.158,1.531c-0.126-0.3-0.158-0.71-0.395-0.884
		c-0.426-0.316-0.963-0.489-1.452-0.726c-0.205,0.489-0.458,0.963-0.568,1.452c-0.079,0.316,0.016,0.695,0.158,0.995
		c1.058,2.178,0.41,4.12-0.695,6.109c-1.957,3.489-3.804,7.072-5.935,10.498c0.142-3.094-0.095-6.235,1.468-9.03
		c0.395-0.679,1.089-1.168,1.642-1.752c0.41-0.458,0.915-0.868,1.168-1.405c0.442-0.931-0.111-2.131-0.995-2.352
		c-1.137-0.3-1.72,0.316-1.973,1.342c-0.094,0.458-0.205,0.9-0.363,1.563c-0.3-1.752-0.442-3.268-0.853-4.72
		c-0.173-0.631-0.852-1.184-1.421-1.594c-0.189-0.126-1.105,0.284-1.121,0.505c-0.079,0.742-0.158,1.705,0.237,2.257
		c1.231,1.768,2.668,3.41,2.573,5.762c-0.016,0.505-0.063,1.01-0.395,1.563c-0.426-0.931-0.805-1.879-1.295-2.763
		c-0.284-0.537-0.679-1.073-1.168-1.421c-0.837-0.584-1.831-0.805-2.605,0.079c-0.758,0.852-0.426,1.8,0.316,2.399
		c0.947,0.789,2.021,1.468,3.141,1.958c1.105,0.474,1.594,1.152,1.484,2.305c-0.3,3.505-0.316,7.041-2.431,10.166
		c-1.089,1.594-1.752,3.489-2.62,5.273c-0.9-1.942-0.521-4.104,0.821-5.588c0.773-0.852,1.515-1.736,2.084-2.715
		c0.252-0.426,0.031-1.121,0.031-1.689c-0.679,0-1.673-0.253-1.973,0.095c-0.71,0.821-1.105,1.926-1.61,2.92
		c-0.111,0.253-0.095,0.568-0.348,0.9c-0.426-1.468-0.9-2.92-1.247-4.42c-0.079-0.316,0.253-0.789,0.489-1.121
		c0.489-0.695,1.137-1.326,1.563-2.052c0.474-0.773,0.742-1.705-0.379-2.178c-1.042-0.442-1.705,0.268-1.91,1.168
		c-0.221,0.9-0.142,1.879-0.205,3.078c-1.058-1.815-2.115-3.347-1.973-5.43c0.063-0.916-0.079-1.989-0.521-2.747
		c-0.316-0.537-1.31-0.663-2.005-0.995c-0.268,0.663-0.884,1.421-0.742,1.958c0.252,1.01,0.805,2.099,1.531,2.794
		c1.626,1.515,2.794,3.236,3.583,5.446c-0.837-0.679-1.531-1.31-2.305-1.815c-0.505-0.316-1.152-0.6-1.721-0.584
		c-0.458,0.016-1.105,0.41-1.326,0.805c-0.158,0.316,0.063,1.2,0.348,1.342c1.058,0.505,2.178,0.994,3.315,1.105
		c2.194,0.221,2.194,0.126,2.637,2.336c0.205,1.042,0.426,2.068,0.615,3.11c0.032,0.174-0.047,0.363-0.111,0.758
		c-0.758-0.758-1.342-1.515-2.1-2.036c-0.536-0.363-1.278-0.505-1.942-0.552c-0.221-0.016-0.758,0.742-0.679,0.9
		c0.331,0.631,0.726,1.373,1.31,1.705c0.615,0.363,1.452,0.41,2.21,0.395c0.932,0,1.421,0.284,1.531,1.263
		c0.284,2.052,0.19,3.962-0.458,6.03c-1.562,5.004-2.746,10.15-4.073,15.249c-0.063,0.237-0.111,0.489-0.126,0.552
		c-0.647-2.305-1.436-4.878-2.099-7.483c-0.142-0.505,0.173-1.184,0.426-1.689c0.773-1.421,1.673-2.794,2.383-4.246
		c0.458-0.931,0.584-2.005-0.647-2.573c-0.9-0.41-2.194,0.237-2.589,1.452c-0.331,0.979-0.41,2.052-0.568,3.094
		c-0.063,0.347-0.032,0.71-0.047,1.137c-1.216-2.163-2.415-4.183-3.504-6.283c-0.252-0.489-0.189-1.2-0.111-1.768
		c0.19-1.137,0.584-2.226,0.726-3.347c0.126-1.184-0.726-2.194-1.626-2.084c-1.295,0.158-1.453,1.184-1.342,2.163
		c0.095,0.916,0.489,1.784,0.758,2.763c-2.036-2.21-4.515-3.962-5.509-7.025c-0.379-1.121-1.405-2.115-2.336-2.952
		c-0.379-0.316-1.484-0.221-1.926,0.11c-0.363,0.268-0.41,1.247-0.253,1.815c0.489,1.736,1.847,2.763,3.442,3.426
		c2.494,1.042,4.468,2.699,6.204,5.115c-1.137-0.521-1.989-0.979-2.889-1.279c-0.615-0.237-1.357-0.474-1.957-0.331
		c-0.6,0.142-1.421,0.679-1.531,1.184c-0.126,0.489,0.426,1.594,0.853,1.689c1.342,0.3,2.81,0.521,4.152,0.284
		c2.273-0.395,2.336-0.521,3.441,1.452c0.884,1.594,1.721,3.205,2.589,4.799c-0.126,0.095-0.237,0.19-0.347,0.284
		c-0.915-0.6-1.752-1.326-2.731-1.752c-0.758-0.316-1.689-0.347-2.557-0.316c-0.158,0-0.568,0.979-0.426,1.184
		c0.521,0.679,1.137,1.515,1.878,1.736c0.931,0.284,2.052,0.111,3.078-0.016c0.821-0.111,1.436-0.032,1.752,0.821
		c0.789,2.226,1.579,4.452,2.368,6.693c-0.158,0.095-0.331,0.174-0.489,0.253c-0.237-0.363-0.474-0.695-0.71-1.058
		c-0.269-0.395-0.458-0.868-0.789-1.184c-0.947-0.931-1.879-1.91-2.968-2.605c-0.395-0.253-1.421,0.079-1.815,0.474
		c-0.237,0.237,0.032,1.358,0.41,1.705c0.694,0.6,1.61,1.01,2.479,1.342c3.362,1.279,4.594,3.41,4.372,6.993
		c-0.331,5.304-0.474,10.592-0.679,15.581c-0.9-0.852-1.61-3.141-1.436-5.225c0.094-1.184,0.189-2.384,0.142-3.568
		c0-0.537-0.205-1.247-0.584-1.563c-0.489-0.395-1.358-0.742-1.863-0.568c-0.457,0.158-0.852,1.042-0.915,1.642
		s0.316,1.247,0.379,1.926c-1.658-1.31-3.441-2.526-2.415-5.115c0.252-0.679,0.158-1.531,0.047-2.273
		c-0.111-0.9-0.553-1.705-1.689-1.484c-1.058,0.205-1.563,0.963-1.405,2.005c0.142,0.868,0.489,1.705,0.663,2.305
		c-2.842-1.405-3.615-4.152-3.552-7.341c0-0.474-0.063-0.979-0.237-1.405c-0.363-0.868-0.884-1.768-2.005-1.342
		c-1.011,0.41-1.137,1.373-0.805,2.321c0.331,0.9,0.758,1.752,1.231,2.826c-1.263-0.947-2.447-1.689-3.394-2.668
		c-0.41-0.41-0.41-1.294-0.474-1.973c-0.094-0.995,0.079-2.021-0.11-2.984c-0.253-1.247-1.452-1.942-2.336-1.484
		c-1.137,0.584-0.932,1.594-0.521,2.494c0.426,0.963,0.994,1.831,1.279,3.031c-0.9-0.742-1.863-1.421-2.668-2.242
		c-0.695-0.695-1.216-1.594-1.879-2.352c-0.442-0.489-0.931-0.979-1.515-1.279c-1.01-0.521-2.178-0.6-2.81,0.505
		c-0.631,1.105,0.237,1.91,1.121,2.431c0.774,0.458,1.673,0.695,2.51,1.058c1.484,0.631,2.983,1.279,4.373,2.242
		c-0.868-0.032-1.737-0.095-2.62-0.079c-1.342,0.032-2.179,0.837-2.036,1.879c0.126,0.963,1.105,1.531,2.384,1.216
		c1.01-0.253,2.036-0.552,2.952-1.058c1.216-0.663,2.241-0.647,3.299,0.237c0.9,0.758,1.847,1.5,2.636,2.463
		c-0.71-0.284-1.405-0.647-2.131-0.852c-0.995-0.253-2.052-0.189-2.384,0.979c-0.3,1.121,0.663,1.658,1.531,1.863
		c0.774,0.174,1.657,0.142,2.384-0.111c1.421-0.474,2.526-0.221,3.568,0.773c0.9,0.853,1.815,1.673,2.731,2.526
		c-0.079,0.111-0.126,0.237-0.205,0.363c-0.521-0.253-1.089-0.474-1.579-0.789c-0.536-0.316-0.963-0.805-1.515-1.089
		c-0.868-0.442-1.799-0.616-2.368,0.458c-0.505,1.026-0.221,2.052,0.758,2.447c0.947,0.395,2.289,0.71,3.141,0.331
		c2.542-1.121,4.041,0.047,5.415,1.894c0.742,0.979,1.5,1.942,2.115,3.031c-0.979-0.742-1.878-1.594-2.936-2.21
		c-1.342-0.773-2.526-0.521-3.015,0.458c-0.505,1.01,0.095,2.21,1.594,2.747c0.884,0.316,1.847,0.474,2.794,0.505
		c2.1,0.047,3.031,0.489,3.631,2.557c1.105,3.899,2.005,7.861,3.047,11.792c0.695,2.605,1.484,5.194,2.242,7.814
		c-0.142,0.047-0.3,0.126-0.442,0.189c-1.026-1.168-2.147-2.273-3-3.552c-0.379-0.537-0.331-1.468-0.237-2.178
		c0.316-1.973,0.331-3.899-0.395-5.793c-0.631-1.626-1.815-2.447-2.999-2.052c-1.279,0.41-2.021,1.847-1.5,3.441
		c0.395,1.231,1.105,2.384,1.8,3.82c-1.421-0.979-2.668-1.784-3.836-2.668c-1.231-0.947-1.815-2.242-2.099-3.789
		c-0.41-2.147-0.932-4.294-1.673-6.362c-0.537-1.547-1.626-1.958-2.794-1.484c-1.105,0.458-1.736,1.768-1.168,3.157
		c0.553,1.326,1.421,2.557,2.226,3.789c0.379,0.568,0.963,1.01,1.705,1.768c-2.92-1.358-5.509-2.526-8.051-3.804
		c-0.426-0.221-0.742-0.852-0.932-1.358c-0.442-1.216-0.584-2.557-1.184-3.678c-0.521-0.931-1.374-1.894-2.305-2.321
		c-1.31-0.6-2.652,0.71-2.068,2.036c0.474,1.121,1.421,2.084,2.305,2.952c0.663,0.631,1.563,1.026,2.289,1.689
		c-3.126-0.537-6.314-0.789-8.966-2.857c-1.058-0.805-2.241-1.5-3.473-1.989c-1.705-0.679-3.599-0.095-4.12,1.042
		c-0.458,1.01,0.395,2.526,2.242,3.173c1.436,0.521,3.126,0.868,4.594,0.631c3.883-0.647,7.53-0.063,11.287,1.31
		c-1.468,0.174-2.81,0.253-4.12,0.505c-0.884,0.174-1.768,0.474-2.573,0.884c-0.979,0.505-1.452,1.373-1.168,2.526
		c0.284,1.137,1.216,1.563,2.21,1.358c1.168-0.253,2.368-0.679,3.394-1.31c0.916-0.552,1.626-1.468,2.368-2.273
		c0.837-0.9,1.689-1.105,2.826-0.458c1.737,0.995,3.552,1.863,5.304,2.857c0.742,0.395,1.358,0.963,1.926,1.752
		c-1.074-0.016-2.163-0.095-3.236-0.063c-0.9,0.016-1.831,0.063-2.7,0.253c-0.963,0.221-1.863,0.853-1.531,1.879
		c0.237,0.695,1.105,1.484,1.815,1.658c1.878,0.442,3.457-0.41,4.783-1.721c1.752-1.736,1.784-1.815,3.788-0.363
		c1.768,1.294,3.441,2.747,5.13,4.152c0.521,0.442,0.932,1.026,1.247,1.705c-1.484-0.647-2.905-1.405-4.436-1.863
		c-1.263-0.379-2.62-0.521-3.947-0.521c-1.01,0-1.878,0.663-1.926,1.784c-0.047,1.2,0.884,1.721,1.894,1.752
		c1.168,0.047,2.384-0.079,3.52-0.363c3.173-0.789,6.03-0.3,8.067,2.321c0.979,1.247,1.357,2.999,1.973,4.531
		c0.615,1.579,1.2,3.189,1.784,4.783c-0.347-0.347-0.663-0.679-1.01-0.995c-0.868-0.821-1.878-1.294-2.968-0.537
		c-1.058,0.726-1.058,1.847-0.473,2.826c0.536,0.916,1.31,1.705,2.005,2.573c-2.778-0.695-5.178-1.752-6.583-4.609
		c-0.742-1.484-2.084-2.731-3.346-3.836c-1.089-0.947-2.51-0.695-3.22,0.221c-0.663,0.852-0.458,2.052,0.789,2.983
		c1.247,0.916,2.668,1.642,3.836,2.352c-2.147,0.047-4.546,0.126-6.961,0.111c-0.41,0-0.853-0.379-1.231-0.631
		c-0.837-0.553-1.61-1.279-2.51-1.689c-0.821-0.363-1.815-0.568-2.731-0.537c-1.026,0.016-2.021,0.663-1.847,1.752
		c0.111,0.6,1.089,1.373,1.768,1.468c1.531,0.237,3.126,0.095,4.799,0.395c-2.794,1.026-5.62,1.989-8.35,3.141
		c-1.247,0.521-2.494,1.231-3.426,2.178c-0.474,0.474-0.395,1.689-0.189,2.463c0.094,0.284,1.373,0.379,2.052,0.268
		c2.021-0.363,3.205-1.847,4.199-3.473c1.594-2.589,4.041-3.789,7.041-4.483c-0.916,0.868-1.768,1.547-2.463,2.368
		c-0.458,0.521-0.947,1.247-0.947,1.863c0.016,0.71,0.395,1.658,0.932,2.036c0.379,0.253,1.626-0.095,1.91-0.537
		c0.821-1.263,1.468-2.684,1.926-4.104c0.6-1.831,0.789-2.115,2.716-1.973c1.563,0.126,3.141,0.3,4.704,0.521
		c0.615,0.079,1.2,0.379,1.768,0.868c-0.884,0.253-1.815,0.474-2.699,0.789c-0.615,0.221-1.358,0.458-1.736,0.916
		c-0.395,0.521-0.758,1.579-0.505,1.942c0.363,0.489,1.563,0.963,1.973,0.726c1.152-0.679,2.336-1.563,3.047-2.652
		c0.805-1.279,1.531-1.705,2.873-1.01c2.084,1.089,4.183,2.147,6.283,3.22c-0.063,0.158-0.126,0.3-0.205,0.442
		c-1.279-0.284-2.541-0.742-3.836-0.821c-1.105-0.095-2.305,0.111-3.315,0.474c-0.474,0.174-0.979,1.2-0.868,1.689
		c0.094,0.458,0.979,1.01,1.547,1.058c0.758,0.047,1.594-0.253,2.305-0.568c2.099-0.9,4.136-1.468,6.346-0.268
		c1.373,0.758,1.973,2.036,2.668,3.268c0.079,0.142,0.016,0.442-0.079,0.616c-1.152,2.131-0.994,3.252,0.805,4.831
		c0.568,0.521,1.2,0.947,2.021,1.594c-3.11-0.379-5.809-0.742-7.593-3.552c-0.915-1.437-2.415-2.557-3.757-3.662
		c-0.853-0.71-2.005-0.963-2.826,0.126c-0.774,1.042-0.553,2.321,0.395,2.968c1.405,0.995,3.062,1.642,4.625,2.431
		c0.253,0.126,0.537,0.158,1.09,0.284c-2.605,0.505-4.941,0.979-7.293,1.358c-0.379,0.063-0.884-0.3-1.263-0.552
		c-0.932-0.647-1.799-1.437-2.778-2.021c-0.6-0.347-1.373-0.616-2.021-0.537c-0.536,0.063-1.278,0.568-1.484,1.058
		c-0.174,0.489,0.032,1.579,0.379,1.736c1.074,0.521,2.273,0.805,3.457,0.979c0.726,0.126,1.5-0.142,2.289-0.111
		c-2.21,1.579-4.42,3.015-7.23,3.394c-1.689,0.221-3.347,0.837-4.941,1.452c-1.247,0.474-1.831,1.5-1.468,2.889
		c0.347,1.389,1.405,1.831,2.636,1.673c0.868-0.111,1.847-0.379,2.494-0.916c1.279-1.058,2.542-2.226,3.473-3.583
		c1.594-2.368,3.884-3.599,6.409-4.673c-0.915,1.389-1.957,2.605-2.573,4.025c-0.363,0.805-0.316,2.005,0.031,2.81
		c0.553,1.279,1.8,1.326,2.589,0.142c0.553-0.805,0.9-1.784,1.121-2.747c0.205-0.963,0.142-1.989,0.158-2.999
		c0.016-1.247,0.568-1.958,1.863-2.084c2.21-0.189,4.436-0.805,6.961-0.063c-1.042,0.726-1.957,1.216-2.668,1.91
		c-0.694,0.679-1.373,1.5-1.689,2.384c-0.158,0.458,0.316,1.421,0.789,1.736c0.378,0.237,1.484,0.063,1.736-0.284
		c0.773-1.168,1.484-2.447,1.878-3.773c0.568-1.879,0.568-1.989,2.526-1.673c2.273,0.363,4.325,1.184,6.393,2.857
		c-1.326-0.063-2.384-0.3-3.347-0.111c-1.168,0.221-2.415,0.6-3.362,1.279c-0.821,0.6-1.042,1.8-0.19,2.699
		c0.853,0.884,1.673,0.221,2.384-0.347c0.632-0.505,1.168-1.152,1.784-1.673c1.815-1.531,3.189-1.31,4.783,0.395
		c3.252,3.489,6.615,6.898,9.929,10.356c0.221,0.237,0.458,0.442,0.979,0.947c-1.957-0.158-3.583-0.126-5.13-0.474
		c-0.726-0.158-1.405-0.947-1.878-1.594c-1.121-1.563-2.479-2.794-4.278-3.489c-1.405-0.521-2.684-0.174-3.173,0.821
		c-0.536,1.042-0.11,2.526,1.137,3.205c1.168,0.6,2.462,0.931,3.646,1.358c-2.731,1.484-5.999,1.2-8.556-0.616
		c-1.515-1.073-3.157-1.973-4.831-2.794c-1.073-0.521-2.273-0.552-3.015,0.726c-0.568,1.01-0.079,2.62,1.263,3.094
		c1.673,0.616,3.504,0.758,5.272,1.105c0.253,0.047,0.505,0.047,1.153,0.111c-2.921,1.026-5.462,1.957-8.035,2.778
		c-0.458,0.158-1.121-0.079-1.61-0.316c-0.963-0.426-1.847-0.995-2.794-1.468c-0.426-0.221-0.868-0.395-1.326-0.521
		c-1.657-0.41-2.999,0.253-3.189,1.547c-0.173,1.152,0.947,2.163,2.621,2.194c0.853,0.016,1.705-0.19,2.557-0.332
		c0.647-0.111,1.279-0.268,1.973-0.253c-2.257,1.563-4.278,3.457-7.088,3.978c-0.994,0.174-1.989,0.332-2.968,0.568
		c-0.647,0.158-1.295,0.395-1.895,0.679c-1.5,0.758-2.368,2.384-1.925,3.489c0.395,0.931,1.894,1.484,3.473,0.71
		c1.531-0.758,3.062-1.863,4.088-3.205c1.91-2.447,4.184-4.31,6.899-5.699c0.331-0.174,0.679-0.3,1.073-0.474
		c-0.963,1.358-1.942,2.573-2.747,3.915c-1.058,1.752-0.837,3.268,0.41,3.931c1.2,0.631,2.684-0.095,3.331-2.036
		c0.474-1.358,0.537-2.905,0.568-4.357c0.032-2.068,0.205-2.463,2.21-3.062c1.752-0.521,3.504-1.042,5.256-1.531
		c0.663-0.174,1.374-0.205,2.226,0c-0.647,0.6-1.326,1.168-1.925,1.8c-0.726,0.773-1.547,1.515-1.973,2.431
		c-0.284,0.584-0.221,1.673,0.158,2.178c0.615,0.821,1.626,0.631,2.447,0.032c1.531-1.121,2.083-2.699,2.115-4.515
		c0.016-2.352-0.032-2.415,2.226-2.826c1.784-0.316,3.599-0.505,5.414-0.663c0.932-0.079,1.878,0.032,2.889,0.316
		c-1.5,0.616-3.063,1.137-4.483,1.91c-1.058,0.584-2.005,1.452-2.842,2.352c-0.663,0.742-0.71,1.847,0.158,2.415
		c0.521,0.331,1.673,0.284,2.179-0.095c0.931-0.679,1.705-1.673,2.32-2.668c1.453-2.321,3.252-4.057,6.188-3.994
		c0.694,0.016,1.515,0.253,2.052,0.663c3.189,2.494,6.488,4.767,9.992,6.677c1.768,0.995,3.583,1.879,5.462,2.668
		c-0.237-0.568-0.442-1.121-0.647-1.705c-0.474-0.205-0.947-0.41-1.405-0.647c-0.9-0.458-1.8-1.137-2.415-1.926
		c-0.758-0.995-1.5-2.021-2.194-3.062c-0.552-0.821-1.089-1.658-1.579-2.51c-1.326-2.305-1.216-3.962,0.142-5.778
		c0.268-0.331,0.568-0.679,0.916-1.042c1.089-1.121,2.036-2.463,2.794-3.82c0.047-0.063,0.094-0.142,0.126-0.205
		c0.647-1.184,0.426-2.447-0.252-3.157c-0.158-0.158-0.331-0.3-0.537-0.395c-1.073-0.521-2.541,0.11-3.378,1.484
		c-0.047,0.079-0.095,0.158-0.126,0.237c-0.963,1.721-1.295,3.599-1.184,5.573c0.047,0.789,0.047,1.579,0.079,2.368
		c-0.142,0.032-0.284,0.047-0.426,0.063c-0.19-1.105-0.474-2.21-0.6-3.331c-0.3-3.22,0-6.393,1.042-9.487
		c0.237-0.679,0.568-1.089,1.105-1.342c0.221-0.111,0.489-0.19,0.805-0.253c1.105-0.221,2.21-0.521,3.284-0.9
		c0.647-0.221,1.278-0.458,1.894-0.726c0.758-0.332,1.421-1.152,1.847-1.91c0.568-1.026,0.221-2.084-0.71-2.794
		c-0.932-0.71-1.926-0.41-2.62,0.316l-0.016,0.016c-0.742,0.758-1.263,1.736-1.91,2.62c-0.647,0.852-1.358,1.689-2.163,2.415
		c-0.379-2.242,2.447-7.356,4.468-8.524c0.158-0.111,0.316-0.174,0.458-0.221c0.884-0.253,1.894,0.063,2.842-0.063
		c0.363-0.047,0.726-0.079,1.105-0.142c0.205-1.294,0.442-2.589,0.694-3.868c-0.868,0.316-1.689,0.758-2.494,1.231
		c-0.726,0.442-1.357,1.01-2.099,1.437C85.335,141.19,87.008,139.217,89.265,137.907z"/>
</g>
<g>
	<path fill="#618C44" d="M221.505,125.862c-6.046-23.553-16.623-45.701-29.267-66.364c-6.314-10.34-13.149-20.38-20.206-30.23
		c-3.536-4.925-7.135-9.803-10.75-14.665l-5.462-7.262c-1.831-2.478-3.868-4.973-5.746-7.34c-0.047,0.205-0.126,0.505-0.11,0.773
		c0.015,0.253,0,0.379,0,0.584c-0.016,0.363-0.032,0.726-0.111,1.089c-0.126,0.726-0.331,1.436-0.616,2.131
		c-0.568,1.373-1.357,2.652-2.226,3.883l-5.32,7.356c-3.536,4.925-7.088,9.85-10.529,14.823
		c-6.946,9.945-13.576,20.111-19.733,30.562c-6.141,10.45-11.697,21.264-16.512,32.409c-2.336,5.588-4.609,11.224-6.567,16.954
		c-2.036,5.73-3.82,11.524-5.367,17.396c-1.894,7.435-3.394,15.028-4.041,22.684c-0.11,1.421-0.205,2.841-0.268,4.262
		c-0.079,2.052-0.079,4.104-0.016,6.156c0.032,0.995,0.079,1.989,0.142,2.968c0.032,1.31,0.158,2.621,0.316,3.931
		c0.205,1.705,0.489,3.426,0.742,5.13c0.142,1.073,0.426,2.115,0.694,3.157c0.111,0.426,0.221,0.853,0.316,1.294
		c0.284,1.137,0.536,2.273,0.884,3.378c0.111,0.347,0.221,0.679,0.363,1.026l1.531,4.31c0.568,1.405,1.279,2.763,1.926,4.136
		l0.979,2.068c0.316,0.695,0.773,1.31,1.152,1.973l2.4,3.899c0.821,1.279,1.816,2.431,2.731,3.662l1.389,1.815l0.694,0.9
		l0.789,0.821l3.141,3.315c0.537,0.552,1.026,1.137,1.594,1.642l1.705,1.531c4.562,4.041,9.645,7.483,15.075,10.261
		c10.845,5.541,23.032,8.493,35.234,8.382c12.203-0.063,24.374-3.315,34.935-9.408c10.577-6.062,19.638-14.713,26.252-24.942
		c6.614-10.245,10.592-22.164,11.445-34.303C226.083,149.841,224.425,137.638,221.505,125.862z M221.015,161.68
		c-0.9,11.555-4.704,22.653-10.987,32.298c-6.299,9.614-14.918,17.728-24.879,23.347c-9.961,5.667-21.28,8.619-32.724,8.619
		c-11.429,0.142-22.921-2.557-33.151-7.704c-5.115-2.573-9.898-5.778-14.192-9.535l-1.61-1.405c-0.536-0.489-0.994-1.042-1.5-1.547
		l-2.983-3.11l-0.758-0.773l-0.663-0.853l-1.31-1.689c-0.853-1.137-1.816-2.21-2.589-3.41c-2.589-3.868-4.767-8.004-6.456-12.329
		c-0.237-0.568-0.442-1.121-0.647-1.705c-2.083-5.778-3.346-11.871-3.678-18.107c-0.015-0.221-0.047-0.458-0.063-0.679
		c-0.095-1.121-0.126-2.242-0.126-3.362c-0.016-1.547,0.016-3.11,0.016-4.673c0-0.442,0.016-0.868,0.047-1.31
		c0.063-1.01,0.189-2.036,0.237-3.047c0.063-0.679,0.111-1.373,0.158-2.052c0.063-0.773,0.142-1.547,0.252-2.336l0.142-1.152
		l0.41-3.22c0.189-1.452,0.505-2.905,0.758-4.357c0.268-1.736,0.631-3.457,1.042-5.178c0.252-1.168,0.521-2.352,0.789-3.52
		c1.436-5.778,3.094-11.524,5.004-17.207c1.847-5.699,3.994-11.287,6.22-16.859c4.578-11.082,9.929-21.864,15.818-32.361
		c5.841-10.545,12.187-20.822,18.864-30.925c3.299-5.067,6.725-10.056,10.119-15.076l5.083-7.546
		c0.837-1.294,1.61-2.636,2.163-4.104c0.268-0.742,0.474-1.5,0.584-2.273c0.063-0.395,0.079-0.789,0.079-1.168
		c-0.016-0.189,0-0.442-0.032-0.553c-0.016-0.111-0.126-0.189-0.205-0.379c1.815,2.589,3.268,5.02,4.957,7.356l5.194,7.451
		c3.489,4.957,6.962,9.929,10.356,14.934c6.804,10.008,13.339,20.174,19.354,30.625c12.187,20.727,22.305,42.78,27.831,65.954
		c1.326,5.778,2.352,11.603,2.889,17.444C221.347,150.046,221.552,155.903,221.015,161.68z M79.083,153.693
		c0.805-0.726,1.515-1.563,2.163-2.415c0.647-0.884,1.168-1.863,1.91-2.62c0.063-0.773,0.142-1.547,0.252-2.336l0.142-1.152
		C81.53,146.336,78.705,151.451,79.083,153.693z M78.673,154.908c-0.079,2.052-0.079,4.104-0.016,6.156
		c0.032-0.079,0.079-0.158,0.126-0.237c0.837-1.373,2.305-2.005,3.378-1.484c0.205,0.095,0.379,0.237,0.537,0.395
		c-0.016-1.547,0.016-3.11,0.016-4.673c0-0.442,0.016-0.868,0.047-1.31c-1.073,0.379-2.179,0.679-3.284,0.9
		C79.162,154.719,78.894,154.798,78.673,154.908z"/>
</g>
<g>
	<path fill="#AEC074" d="M217.257,152.714c-0.02-0.44-0.04-0.87-0.07-1.31c-0.02-0.33-0.04-0.67-0.07-1
		c-0.04-0.64-0.09-1.28-0.15-1.92c-0.18-1.88-0.4-3.77-0.68-5.63c-0.74-5.04-1.83-10.02-3.17-14.92l-0.43,0.27
		c0,0-3.88,2.34-6.73,0.79c-2.85-1.56-9.06-9.08-15.55-9.59c-6.47-0.52-14.76,10.88-24.6,7.25c-9.85-3.62-16.58-25.64-39.12-11.39
		c-22.54,14.24-32.39,9.84-32.39,9.84l-1.44-0.52c-1.29,4.12-2.43,8.26-3.38,12.4l-0.21,0.93c-0.21,0.98-0.43,1.97-0.62,2.96
		c-0.25,1.29-0.49,2.58-0.7,3.86c-2.21,13.39-1.98,26.63,2.72,38.94c0.09,0.26,0.19,0.52,0.3,0.79c3.05,7.68,7.86,14.98,14.91,21.73
		c16.64,15.9,41.98,22.06,64.06,15.58c22.08-6.49,40.06-25.36,45.45-47.73c0.93-3.81,1.5-7.65,1.77-11.53
		c0.1-1.42,0.16-2.85,0.18-4.28c0.02-1.08,0.02-2.15,0-3.22C217.327,154.244,217.297,153.484,217.257,152.714z M97.337,181.044
		l18.54,23.78C100.967,199.184,97.337,181.044,97.337,181.044z"/>
</g>
</svg>
