<?xml version="1.0" encoding="utf-8"?>
<!-- Generator: Adobe Illustrator 24.3.0, SVG Export Plug-In . SVG Version: 6.00 Build 0)  -->
<svg version="1.1" id="Layer_1" xmlns="http://www.w3.org/2000/svg" xmlns:xlink="http://www.w3.org/1999/xlink" x="0px" y="0px"
	 viewBox="0 0 730.482 777.04" enable-background="new 0 0 730.482 777.04" xml:space="preserve">
<g>
	<path fill="#CFCDCC" d="M87.684,342.893l82.684-83.824l149.414,106.933L620.637,54.891l-15.385-16.018L701.676,0L662.17,91.358
		l-18.044-13.612L327.507,412.599L174.863,304.843l-86.989,89.142C85.725,375.252,85.214,357.855,87.684,342.893z"/>
</g>
<g>
	<path fill="#C2C1C0" d="M98.51,455.967l86.483-87.623l149.351,106.933l300.918-311.111l-15.385-15.954l96.423-38.936
		l-39.506,91.358l-18.107-13.549L342.131,521.937L189.488,414.118l-78.316,80.279C105.713,482.319,101.579,469.458,98.51,455.967z"
		/>
</g>
<g>
	<path fill="#A5A3A4" d="M133.711,540.994l65.464-66.35l149.414,106.933l300.855-311.111l-15.385-15.954l96.423-38.936
		l-39.506,91.358l-18.044-13.549L356.313,628.237L203.67,520.418l-49.952,51.219C145.243,561.064,138.472,550.961,133.711,540.994z"
		/>
</g>
<g>
	<path fill="#45B8BB" d="M341.088,715.542C153.824,672.655,36.784,486.08,79.671,298.816
		C115.708,141.463,253.205,33.734,407.308,28.765C223.785,12.614,51.831,133.805,9.542,318.459
		C-36.671,520.244,89.445,721.287,291.231,767.5c177.273,40.599,353.933-51.832,425.581-211.701
		C641.386,681.211,491.495,749.988,341.088,715.542z"/>
</g>
</svg>
