<?xml version="1.0" encoding="utf-8"?>
<!-- Generator: Adobe Illustrator 24.3.0, SVG Export Plug-In . SVG Version: 6.00 Build 0)  -->
<svg version="1.1" id="Layer_1" xmlns="http://www.w3.org/2000/svg" xmlns:xlink="http://www.w3.org/1999/xlink" x="0px" y="0px"
	 viewBox="0 0 182.691 243" enable-background="new 0 0 182.691 243" xml:space="preserve">
<g>
	<path fill-rule="evenodd" clip-rule="evenodd" fill="#228BB8" d="M141.594,119.403c-52.841-9.931,11.831-22.752,19.563-24.288
		l-0.205-0.011c-0.006-37.232-29.156-67.648-65.882-69.688c5.266-1.67,9.08-6.588,9.08-12.403C104.151,5.826,98.325,0,91.139,0
		C83.956,0,78.13,5.826,78.13,13.012c0,5.815,3.815,10.733,9.078,12.403c-34.945,1.94-63.031,29.577-65.674,64.331l42.961,1.758
		c-17.484,1.331-43.169,3.454-38.902,7.049c3.337,2.822,116.723,11.698,57.364,22.784c-48.349,9.032,22.784,12.608,7.561,24.823
		c-3.576,2.868-14.705,6.577-32.146,7.635c13.22,0.375,22.274,1.758,37.337-2.273c16.955-4.537,20.664-8.802,12.79-11.097
		c-10.315-3.007-14.019-6.694-13.35-10.645C95.907,125.306,153.479,121.639,141.594,119.403z M86.878,32.544
		c-3.934,0-7.778,0.39-11.498,1.118c5.502-1.684,11.348-2.592,17.401-2.592c32.814,0,59.413,26.598,59.413,59.41h-5.923
		C145.485,58.349,119.194,32.544,86.878,32.544z"/>
</g>
<g>
	<path fill-rule="evenodd" clip-rule="evenodd" fill="#414142" d="M148.097,18.724c18.734,16.023,30.61,39.83,30.61,66.414
		c0,48.249-39.113,87.362-87.361,87.362c-48.249,0-87.361-39.113-87.361-87.362c0-26.584,11.876-50.391,30.61-66.414
		C13.518,35.457,0,61.299,0,90.301c0,48.575,37.916,88.288,85.767,91.171L85.601,230.8c-6.029,8.495-36.638,6.068-35.89,12.2h41.317
		h41.316c0.75-6.132-29.863-3.705-35.891-12.2l-0.07-49.293c48.106-2.615,86.308-42.448,86.308-91.206
		C182.691,61.299,169.173,35.457,148.097,18.724z"/>
</g>
</svg>
