<?xml version="1.0" encoding="utf-8"?>
<!-- Generator: Adobe Illustrator 24.3.0, SVG Export Plug-In . SVG Version: 6.00 Build 0)  -->
<svg version="1.1" id="Layer_1" xmlns="http://www.w3.org/2000/svg" xmlns:xlink="http://www.w3.org/1999/xlink" x="0px" y="0px"
	 viewBox="0 0 253.698 359.983" enable-background="new 0 0 253.698 359.983" xml:space="preserve">
<g>
	<path fill="#25274D" d="M124.118,332.576c-11.08,0.015-22.27,0.898-33.18-0.462c-3.842-0.479-10.365-7.289-9.756-9.737
		c1.2-4.818,6.371-12.077,10.184-12.256c23.699-1.11,47.494-0.967,71.211-0.051c3.501,0.135,9.959,7.214,9.412,9.955
		c-0.928,4.65-5.965,11.472-9.947,11.967C149.569,333.541,136.783,332.562,124.118,332.576z"/>
	<g>
		<g>
			<path fill="#25274D" d="M222.175,42.73c-45.67-51.48-122.81-57.18-177.1-13.11c-49.93,40.59-60.2,118.4-21.63,170.87
				c13.6,18.53,28.01,36.47,41.79,53.59c6.19,7.69,12.85,14.99,19.94,21.84c7.08,6.86,14.59,13.28,22.5,19.2l0.29,0.25
				c11.14,8.36,26.35,8.73,37.89,0.94l3.4-2.3c6.84-4.63,13.22-9.87,19.04-15.69c-2.34-2.33-4.39-5.36-6.12-9.22
				c-3.59-7.95-9.73-14.72-14.45-22.2c-2.11-3.36-4.39-5.07-8.59-5.53c-12.71-1.42-21.13-13.24-18-24.57
				c0.49-1.81,0.73-4.16,2.87-4.65c2.38-0.56,3.03,1.91,4.1,3.39c1.82,2.46,3.51,5.05,5.16,7.64c2.77,4.37,7.03,4.47,10.57,2.26
				c3.55-2.23,4.22-6.21,1.58-10.13c-2.03-3.04-4-6.1-5.92-9.22c-0.68-1.09-1.79-2.26-0.96-3.66c0.94-1.58,2.62-1.32,4.17-1.22
				c11.66,0.82,20.85,12.96,17.56,24.33c-1.65,5.75-0.42,9.82,2.81,14.33c5.7,7.98,10.91,16.3,16.42,24.42
				c0.15,0.22,0.32,0.44,0.53,0.64c0.88-1.15,1.75-2.35,2.6-3.54c11.33-15.99,21.92-31.15,34.51-44.46
				C263.415,168.01,266.495,92.65,222.175,42.73z M86.185,88.73c-4.71-2.26-8.39-6.69-15.04-4.45c-4.73,1.6-7.84,2.45-5.2,8.65
				c-0.17,7.12-4.42,12.86-9.21,18.11c-2.07,2.28-5.18,1.14-7.67-0.26c-5.99-3.36-11.91-6.83-17.88-10.22
				c-4.13-2.36-5.2-5.63-2.51-9.6c3.7-5.47,5.03-13.12,13.31-14.54c1.63-0.28,2.41-1.86,2.45-3.8
				c0.64-24.89,27.84-55.52,52.14-58.75c1.89-0.25,3.83-0.34,5.74-0.24c1.61,0.08,3.73,0.2,4.23,1.94c0.73,2.53-1.75,3.18-3.41,3.78
				c-10.4,3.81-17.1,11.62-22.59,20.72c-1.25,2.06-3.24,5.04-0.61,6.65c9.21,5.62,12.98,17.24,24,20.92
				c4.33,1.44,8.14,4.49,12.18,6.84c3.37,1.97,3.46,4.01,0.02,6c-6.17,3.58-12.34,7.17-18.56,10.68
				C93.105,93.68,89.835,90.47,86.185,88.73z M114.105,144.3c7.46-0.03,10.89,2.38,9.63,10.02c1.36,7.98-2.79,9.63-9.9,9.71
				c-7.48,0.09-10.18-2.66-10.21-10.01C103.585,146.36,106.925,144.33,114.105,144.3z M113.055,186.33
				c-8.23,1.13-9.19-3.84-9.41-10.51c-0.29-8.67,4.45-9.53,11.42-9.7c8.59-0.2,8.74,4.74,8.94,11.11
				C124.255,185.44,119.885,187.07,113.055,186.33z M136.665,144.28c7.7-0.15,10.02,2.98,10.02,10.17
				c0.01,7.72-3.44,10.42-10.7,9.23c-7.98,1.46-9.58-2.77-9.77-9.84C126.005,145.83,129.675,144.41,136.665,144.28z M136.135,186.63
				c-8.5,0.17-9.8-4.08-9.91-11.26c-0.13-8.31,4.12-9.83,10.89-8.97c8.27-1.16,9.42,3.73,9.6,10.46
				C146.925,184.71,143.175,186.49,136.135,186.63z"/>
		</g>
	</g>
</g>
<g>
	<path fill="#F0B81C" d="M96.289,341.46c0,24.697,62.926,24.697,62.926,0H96.289z"/>
	<path fill="#F0B81C" d="M189.253,175.075c5.771-20.854-4.572-31.975-22.562-40.001c-12.209-5.447-23.435-13.146-34.941-20.102
		c-4.517-2.731-8.394-2.823-12.993-0.108c-17.015,10.045-34.128,19.93-51.355,29.606c-4.708,2.644-6.391,6.104-6.297,11.334
		c0.226,12.624-0.154,25.259,0.131,37.88c0.161,7.155-2.857,9.575-9.844,9.613c-17.51,0.095-17.509,0.333-17.51-17.287
		c0-3.569,0.033-7.138-0.009-10.706c-0.053-4.439,0.221-7.603-5.476-10.731c-6.263-3.439-9.263-11.986-11.658-19.273
		c-1.183-3.599,3.07-4.722,5.534-6.155c26.576-15.449,53.198-30.816,79.812-46.199c12.832-7.417,25.515-15.114,38.575-22.103
		c6.403-3.426,9.428-7.829,10.682-15.098c3.563-20.659,24.781-32.606,43.573-25.246c2.524,0.988,5.736,1.701,5.913,4.954
		c0.154,2.827-2.724,3.841-4.828,5.078c-4.733,2.782-9.527,5.46-14.226,8.298c-6.595,3.984-9.32,12.695-5.753,18.067
		c3.574,5.382,11.433,6.514,18.359,2.578c4.534-2.576,8.951-5.364,13.545-7.825c2.288-1.226,4.843-3.788,7.465-1.539
		c2.323,1.992,1.204,5.17,0.774,7.824c-3.196,19.733-24.951,31.899-44.187,24.74c-1.797-0.669-3.488-1.623-5.283-2.3
		c-4.666-1.76-8.969,0.62-10.75,3.881c-2.229,4.083,3.092,4.739,5.547,6.185c22.229,13.082,44.468,26.153,66.9,38.88
		c5.779,3.278,6.467,6.676,2.848,11.806c-3.858,5.469-5.258,12.727-12.373,15.832c-2.205,0.962-1.44,3.94-1.465,6.072
		c-0.081,6.862-0.181,13.729-0.017,20.587c0.153,6.371-2.198,9.444-9.094,9.629c-19.041,0.512-19.035,0.732-19.04-18.287
		C189.252,181.663,189.253,178.369,189.253,175.075z"/>
</g>
</svg>
