<?xml version="1.0" encoding="utf-8"?>
<!-- Generator: Adobe Illustrator 24.3.0, SVG Export Plug-In . SVG Version: 6.00 Build 0)  -->
<svg version="1.1" id="Layer_5" xmlns="http://www.w3.org/2000/svg" xmlns:xlink="http://www.w3.org/1999/xlink" x="0px" y="0px"
	 viewBox="0 0 227.946 216.309" enable-background="new 0 0 227.946 216.309" xml:space="preserve">
<g>
	<path fill="#FF3162" d="M96.454,116.95c-5.545,5.584-17.507,8.509-14.779,23.018c2.777,14.789,23.259,10.976,33.939,10.65
		c5.678-0.173,29.036,4.183,33.648-7.552c4.025-10.261-2.624-17.132-12.698-25.218c-8.998-7.222-11.553-19.219-21.982-19.116
		C104.821,98.831,99.843,113.526,96.454,116.95"/>
	<path fill="#FF3162" d="M77.512,94.933c5.722,6.447,6.808,14.617,2.427,18.252c-4.385,3.631-12.569,1.347-18.292-5.101
		c-5.722-6.443-6.808-14.617-2.427-18.247S71.789,88.486,77.512,94.933"/>
	<path fill="#FF3162" d="M105.403,74.609c2.738,9.279,0.158,18.129-5.762,19.772c-5.925,1.643-12.954-4.553-15.697-13.832
		c-2.743-9.279-0.163-18.134,5.762-19.777C95.631,59.134,102.655,65.33,105.403,74.609"/>
	<path fill="#FF3162" d="M141.236,78.615c-2.753,9.087-9.649,15.169-15.401,13.591c-5.752-1.579-8.189-10.226-5.436-19.313
		s9.644-15.169,15.401-13.591C141.552,60.881,143.989,69.528,141.236,78.615"/>
	<path fill="#FF3162" d="M166.079,107.769c-6.013,6.951-14.661,9.526-19.328,5.757c-4.657-3.769-3.567-12.461,2.442-19.411
		c6.013-6.946,14.666-9.521,19.333-5.752C173.188,92.131,172.093,100.819,166.079,107.769"/>
</g>
<g>
	<path fill="#6E0089" d="M227.936,101.653c-0.012-2.183-0.112-4.278-0.26-6.396c-0.307-4.213-0.891-8.355-1.705-12.385
		c-3.198-16.168-10.261-30.335-18.758-41.558c-4.254-5.635-8.839-10.609-13.56-14.899c-4.715-4.302-9.524-7.984-14.274-11.046
		c-9.488-6.184-18.664-9.954-26.364-12.22c-3.853-1.151-7.376-1.859-10.45-2.325c-3.074-0.472-5.712-0.679-7.842-0.767
		c-2.13-0.1-3.771-0.041-4.862-0.006c-1.092,0.059-1.658,0.089-1.658,0.089s0.561,0.047,1.652,0.136
		c1.092,0.106,2.702,0.295,4.78,0.631c4.16,0.649,10.19,2.118,17.401,5.045c7.211,2.921,15.531,7.523,23.992,14.114
		c8.432,6.609,16.982,15.318,24.069,26.234c3.523,5.464,6.703,11.441,9.229,17.903c2.502,6.467,4.408,13.389,5.47,20.623
		c2.059,14.421,0.867,30.259-4.018,45.364c-2.437,7.559-5.806,14.94-10.084,21.874c-4.231,6.957-9.376,13.465-15.271,19.295
		c-2.944,2.915-6.095,5.635-9.37,8.214c-3.298,2.549-6.756,4.909-10.35,7.045c-7.199,4.272-14.946,7.63-22.983,10.019
		c-16.062,4.78-33.362,5.352-49.506,2.012c-16.156-3.369-31.167-10.704-43.352-20.723c-3.045-2.508-5.948-5.134-8.656-7.913
		c-2.702-2.779-5.228-5.688-7.559-8.692c-4.662-6.013-8.526-12.433-11.66-18.988c-3.104-6.567-5.405-13.3-6.98-19.974
		c-1.599-6.668-2.461-13.288-2.72-19.679c-0.024-0.767-0.047-1.534-0.077-2.295c-0.012-0.838-0.03-1.67-0.047-2.502l-0.03-1.239
		l0.006-1.145c0.006-0.761,0.012-1.516,0.012-2.266c0.024-1.505,0.124-3.045,0.177-4.549c0.136-1.493,0.218-2.986,0.384-4.443
		c0.572-5.853,1.646-11.353,2.98-16.457c2.649-9.984,8.839-28.317,8.361-30.111c-0.566,0.631-1.139,1.286-1.717,1.965
		c-5.169,6.249-10.745,14.657-14.976,25.379c-2.142,5.34-3.894,11.247-5.216,17.596c-0.325,1.587-0.572,3.21-0.867,4.85
		c-0.212,1.652-0.472,3.304-0.655,5.027c-0.083,0.867-0.165,1.741-0.254,2.62l-0.118,1.316l-0.077,1.239
		c-0.041,0.832-0.089,1.664-0.136,2.502l-0.018,0.313l-0.006,0.437l-0.006,0.667L0,102.922c0.006,7.152,0.684,14.628,2.195,22.234
		c1.54,7.594,3.924,15.306,7.222,22.883c6.591,15.141,17.059,29.68,30.902,41.369c6.927,5.824,14.663,10.946,23.024,15.094
		c8.355,4.166,17.36,7.281,26.683,9.27c4.656,1.009,9.406,1.688,14.179,2.107c1.198,0.118,2.396,0.171,3.588,0.254
		c1.21,0.059,2.52,0.112,3.676,0.142l1.682,0.024l0.95,0.012l0.903-0.018c1.204-0.006,2.402-0.035,3.611-0.094
		c4.809-0.189,9.624-0.69,14.392-1.499c4.774-0.791,9.494-1.894,14.126-3.298c18.558-5.582,35.546-16.056,48.739-29.704
		c6.609-6.815,12.321-14.38,16.976-22.417c4.638-8.043,8.208-16.551,10.71-25.196c2.514-8.639,3.883-17.431,4.266-26.04
		C227.93,105.949,227.966,103.571,227.936,101.653"/>
	<path fill="#6E0089" d="M200.176,104.812c-0.009,1.651-0.085,3.236-0.196,4.838c-0.232,3.187-0.674,6.32-1.29,9.368
		c-2.419,12.229-7.762,22.946-14.189,31.435c-3.218,4.262-6.686,8.025-10.257,11.27c-3.566,3.254-7.204,6.039-10.797,8.355
		c-7.177,4.678-14.117,7.53-19.942,9.243c-2.915,0.87-5.579,1.406-7.904,1.759c-2.325,0.357-4.32,0.513-5.932,0.58
		c-1.611,0.076-2.852,0.031-3.678,0.004c-0.826-0.045-1.254-0.067-1.254-0.067s0.424-0.036,1.25-0.103
		c0.826-0.08,2.044-0.223,3.615-0.478c3.147-0.491,7.708-1.602,13.162-3.816c5.454-2.209,11.747-5.691,18.148-10.676
		c6.378-4.999,12.845-11.587,18.206-19.844c2.665-4.133,5.07-8.654,6.981-13.542c1.892-4.892,3.334-10.127,4.137-15.599
		c1.558-10.908,0.656-22.888-3.04-34.314c-1.843-5.717-4.392-11.301-7.628-16.545c-3.2-5.262-7.092-10.185-11.551-14.595
		c-2.227-2.205-4.611-4.262-7.088-6.213c-2.495-1.928-5.11-3.713-7.829-5.329c-5.445-3.231-11.306-5.771-17.385-7.579
		c-12.149-3.615-25.235-4.048-37.447-1.522c-12.22,2.549-23.575,8.096-32.792,15.675c-2.303,1.897-4.499,3.883-6.548,5.985
		c-2.044,2.102-3.954,4.303-5.717,6.574c-3.526,4.548-6.449,9.404-8.819,14.363c-2.348,4.968-4.088,10.06-5.28,15.108
		c-1.21,5.044-1.861,10.051-2.058,14.885c-0.018,0.58-0.036,1.16-0.058,1.736c-0.009,0.634-0.022,1.263-0.036,1.892l-0.022,0.937
		l0.004,0.866c0.004,0.576,0.009,1.147,0.009,1.714c0.018,1.138,0.094,2.303,0.134,3.441c0.103,1.129,0.165,2.258,0.29,3.361
		c0.433,4.428,1.245,8.587,2.254,12.448c2.004,7.552,6.686,21.419,6.324,22.776c-0.428-0.478-0.861-0.973-1.299-1.486
		c-3.91-4.727-8.128-11.087-11.328-19.197c-1.62-4.039-2.946-8.507-3.946-13.31c-0.245-1.201-0.433-2.428-0.656-3.669
		c-0.161-1.25-0.357-2.499-0.495-3.803c-0.062-0.656-0.125-1.317-0.192-1.982l-0.089-0.995l-0.058-0.937
		c-0.031-0.629-0.067-1.259-0.103-1.892l-0.013-0.237l-0.004-0.33l-0.004-0.504l-0.004-1.013c0.004-5.41,0.518-11.065,1.66-16.818
		c1.165-5.744,2.968-11.578,5.463-17.309c4.986-11.453,12.903-22.45,23.374-31.292c5.24-4.405,11.091-8.279,17.416-11.417
		c6.32-3.151,13.131-5.508,20.183-7.012c3.522-0.763,7.114-1.277,10.725-1.593c0.906-0.089,1.812-0.129,2.714-0.192
		c0.915-0.045,1.906-0.085,2.781-0.107l1.272-0.018l0.719-0.009l0.683,0.013c0.911,0.004,1.817,0.027,2.732,0.071
		c3.638,0.143,7.28,0.522,10.886,1.134c3.611,0.598,7.181,1.433,10.685,2.495c14.037,4.222,26.887,12.145,36.867,22.468
		c4.999,5.155,9.319,10.877,12.841,16.956c3.508,6.083,6.208,12.52,8.101,19.058c1.901,6.534,2.937,13.185,3.227,19.697
		C200.171,101.563,200.198,103.362,200.176,104.812"/>
</g>
</svg>
