<?xml version="1.0" encoding="utf-8"?>
<!-- Generator: Adobe Illustrator 24.3.0, SVG Export Plug-In . SVG Version: 6.00 Build 0)  -->
<svg version="1.1" id="Layer_3" xmlns="http://www.w3.org/2000/svg" xmlns:xlink="http://www.w3.org/1999/xlink" x="0px" y="0px"
	 viewBox="0 0 228.89 192.536" enable-background="new 0 0 228.89 192.536" xml:space="preserve">
<g>
	<path fill="#F70600" d="M108.29,49.426c41.542-16.521,86.973-3.475,107.603,16.503c4.469,4.328,8.266,8.719,11.519,13.083
		c1.855-10.246,2.005-20.455,0.22-30.325c-6.517-36.04-40.519-56.459-71.002-45.912c-30.345,10.499-42.18,30.906-42.18,30.906
		S102.615,13.274,72.269,2.775C41.785-7.772,7.784,12.647,1.266,48.687c-4.81,26.598,4.298,55.637,23.628,81.297
		c4.072,1.367,8.339,2.394,12.858,2.989c27.078,3.561,36.811-3.682,48.251-8.529c7.596-3.218,13.309,0.434,13.031,2.995
		c-0.43,3.967-15.402,10.747-12.191,12.172c12.675,5.623,28.285,5.67,40.05-4.375c14.619-12.482,20.086-3.949,20.086-3.949
		s-7.26,18.518-29.12,27.713c-18.238,7.673-37.349,9.562-54.813,7.597c15.062,10.646,32.358,19.57,51.402,25.94
		c54.452-18.214,94.675-57.232,108.857-98.028c-9.608-9.478-21.39-15.354-35.436-17.483c-27.003-4.093-36.876,2.956-48.41,7.577
		c-7.658,3.068-13.298-0.696-12.97-3.251c0.508-3.958,15.611-10.442,12.428-11.929c-12.562-5.872-28.167-6.226-40.128,3.586
		c-14.861,12.191-20.16,3.553-20.16,3.553S86.254,58.19,108.29,49.426z M97.956,100.188h10.491V89.697h12.005v10.491h10.491v12.005
		h-10.491v10.491h-12.005v-10.491H97.956V100.188z"/>
</g>
<g>
	<path fill="#020202" d="M97.956,100.188h10.491V89.697h12.005v10.491h10.491v12.005h-10.411
		c15.468,7.816,43.875,19.443,78.011,24.618c11.234-13.29,19.68-27.679,24.764-42.303c-9.608-9.478-21.39-15.354-35.436-17.483
		c-27.003-4.093-36.876,2.956-48.41,7.577c-7.658,3.068-13.298-0.696-12.97-3.251c0.508-3.958,15.611-10.442,12.428-11.929
		c-12.562-5.872-28.167-6.226-40.128,3.586c-14.861,12.191-20.16,3.553-20.16,3.553s7.624-18.371,29.66-27.135
		c41.542-16.521,86.973-3.475,107.603,16.503c4.469,4.328,8.266,8.719,11.519,13.083c1.855-10.246,2.005-20.455,0.22-30.325
		c-6.517-36.04-40.519-56.459-71.002-45.912c-30.345,10.499-42.18,30.906-42.18,30.906S102.615,13.274,72.269,2.775
		c-17.411-6.024-35.961-1.933-49.891,9.387c6.543,14.01,14.209,27.101,36.042,53.429C76.172,86.997,97.956,100.188,97.956,100.188z"
		/>
</g>
</svg>
