<?xml version="1.0" encoding="utf-8"?>
<!-- Generator: Adobe Illustrator 24.3.0, SVG Export Plug-In . SVG Version: 6.00 Build 0)  -->
<svg version="1.1" id="Layer_1" xmlns="http://www.w3.org/2000/svg" xmlns:xlink="http://www.w3.org/1999/xlink" x="0px" y="0px"
	 viewBox="0 0 196.476 213.302" enable-background="new 0 0 196.476 213.302" xml:space="preserve">
<g>
	<path fill="#FF2400" d="M170.502,49.478c-1.284-6.497-4.699-9.141-10.153-9.73c-5.001-0.559-10.591,0.529-14.565,1.33
		c-4.382,0.891-8.37,1.843-12.298,2.765c-10.123,2.402-19.913,4.714-30.64,4.986c-7.071,0.181-12.45-0.287-16.136-1.254
		c-2.085-0.544-3.566-1.224-4.457-1.994c-0.604-0.544-0.861-1.118-0.771-1.707c0.03-0.302,0.151-0.619,0.347-0.982
		c1.571-2.916,7.464-4.608,12.782-4.638c-3.46-1.722-13.371-1.541-15.879,2.976c-0.393,0.71-0.635,1.435-0.74,2.145
		c-0.257,1.828,0.378,3.475,1.949,4.85c1.299,1.133,3.248,2.07,5.877,2.75c4.004,1.043,9.7,1.556,17.118,1.375
		c11.135-0.287,21.077-2.644,31.335-5.077c2.584-0.604,20.004-6.678,25.655-2.629c-6.754-1.36-11.785,0.091-15.622,1.375
		c8.914,1.889,18.115,1.934,18.312,1.994C166.165,48.95,167.329,50.113,170.502,49.478L170.502,49.478z"/>
	<path fill="#FF2400" d="M85.092,48.421l0.71,0.937c1.783,0.574,4.064,1.012,6.995,1.269c12.57-1.586,33.572-7.162,40.748-9.518
		c-17.677,1.043-33.995,9.367-47.728,7.162c13.311-2.629,31.592-7.675,37.47-9.609c-13.598,0.801-29.099,6.754-41.791,8.461
		c0.589,0.529,1.375,1.058,2.402,1.526C84.291,48.572,84.699,48.496,85.092,48.421L85.092,48.421z M80.303,45.565
		c10.546-2.538,21.107-5.515,25.307-6.905c-8.234,0.483-17.179,2.856-25.76,5.031C79.849,44.281,79.985,44.916,80.303,45.565
		L80.303,45.565z"/>
	<path fill-rule="evenodd" clip-rule="evenodd" fill="#FF2400" d="M96.892,32.678l-0.937,4.563
		c11.709-1.677,23.041-0.529,34.282,1.42c11.513,1.994,20.593,2.946,27.377,1.39c-0.846-2.523-1.919-4.774-3.309-6.648
		c-10.697,1.738-21.515,1.602-32.227,0C111.336,31.786,109.009,31.167,96.892,32.678L96.892,32.678z"/>
	<path fill-rule="evenodd" clip-rule="evenodd" fill="#FF2400" d="M154.305,33.403c-0.227-6.557-1.043-12.933-2.523-19.128
		c-2.417-9.518-13.976-13.9-24.99-14.247c-18.825-0.589-29.024,8.189-28.903,27.875c0.468-2.553,1.103-4.91,1.919-7.086
		c0.483-1.269,18.146-12.873,35.868-2.251c-2.13-7.932-17.722-12.298-31.184-5.923c4.85-5.741,12.072-8.657,21.636-8.264
		c14.247,0.574,19.717,17.375,18.992,24.431c-12.767-7.056-34.433-10.244-45.568,0.227c11.044,0.771,21.636-1.919,31.063,6.859
		c11.513,2.765,21.167,0,21.167,0L154.305,33.403z"/>
	<path fill-rule="evenodd" clip-rule="evenodd" fill="#FF2400" d="M121.897,66.899c-2.961,0.272-7.509-0.378-10.546,0.302
		c-0.574,0.136-0.982,0.393-1.496-0.121c-0.816-0.831,1.133-1.632,1.707-1.662c0.438-0.015,0.831,0.166,1.178,0.332
		c0.891,0.468,1.42-0.348,2.297-0.393C116.02,65.312,120.673,66.642,121.897,66.899L121.897,66.899z"/>
	<path fill-rule="evenodd" clip-rule="evenodd" fill="#FF2400" d="M122.214,67.292c-3.581,0.272-7.146,1.073-10.712,0.846
		c-0.876-0.045-0.952,0.272-0.68,0.71c0.196,0.332,0.559,0.725,0.937,1.073c1.375,1.314,5.303,1.088,7.101,0.363
		C119.993,69.83,121.429,68.954,122.214,67.292L122.214,67.292z"/>
	<path fill-rule="evenodd" clip-rule="evenodd" fill="#FF2400" d="M100.352,50.627c3.384,15.109,7.856,22.044,12.933,28.147
		c3.415,4.094,3.158,5.892,0.861,8.687c-0.574-4.442-2.765-6.905-6.089-7.932c-4.034,2.644-7.826-1.058-12.102,6.814
		c0.997-13.734-12.087-14.519-3.158-36.185L100.352,50.627z"/>
	<path fill-rule="evenodd" clip-rule="evenodd" fill="#FF2400" d="M146.449,46.034c0.589,7.736-2.221,15.743-5.787,21.349
		c-5.303,8.34-6.149,17.858,1.496,27.573c-0.483-3.974,0.907-6.497,4.291-7.494c10.682,1.828,15.894,5.908,5.832,16.317
		c3.037,4.246,7.69,3.475,9.926,0.076c2.206,7.161-1.163,9.67-10.773,6.995c4.925,6.633,11.332,4.835,16.423,2.916
		c5.53-2.085,7.811-8.325,5.077-20.865c-0.378-6.164-4.351-9.881-10.908-13.764c-2.372-1.405-0.695-5.001,0.166-6.995
		c3.807-8.718,0.997-16.468-3.671-25.186C158.52,46.955,149.244,46.034,146.449,46.034L146.449,46.034z"/>
	<path fill="#FF2400" d="M143.759,69.724c-1.118,2.145-6.149,9.624-2.115,16.499c-1.269-5.847,1.103-10.773,3.671-15.683
		c3.082-5.908,6.421-10.032,3.989-22.527C149.198,56.685,147.551,62.457,143.759,69.724L143.759,69.724z"/>
	<path fill="#FF2400" d="M149.425,67.79c-0.861,1.964-4.986,8.959-0.196,14.232c-1.934-4.759-0.151-9.262,1.828-13.764
		c2.372-5.394,5.212-9.337,1.345-19.551C153.308,56.036,152.341,61.142,149.425,67.79L149.425,67.79z"/>
	<path fill="#FF2400" d="M158.158,70.359c-0.363,1.209-0.68,2.176-0.952,3.037c-2.055,6.331-2.342,7.237,3.853,11.83
		c0.952,0.71,1.768,1.662,2.13,3.445c0.393,1.949,0.272,4.835-0.695,9.307c2.916-1.979,4.094-10.833-0.393-14.157
		c-5.182-3.853-4.941-4.608-3.218-9.896c0.287-0.922,0.635-1.979,0.967-3.067c0.907-3.037,1.662-5.862,1.632-8.899
		c-0.045-3.067-1.617-8.068-3.868-11.8C160.137,57.939,160.515,62.532,158.158,70.359L158.158,70.359z"/>
	<path fill="#FF2400" d="M155.045,50.581c2.387,6.905,0.106,13.84-1.964,19.883c-0.71,2.025-5.046,12.555-0.242,14.429
		c-1.481-4.034,0.136-8.748,1.904-13.87C155.635,68.455,160.485,57.259,155.045,50.581L155.045,50.581z"/>
	<path fill-rule="evenodd" clip-rule="evenodd" fill="#FF2400" d="M166.619,86.223c0,0,11.679,17.315-1.541,26.546
		C172.919,103.281,166.619,86.223,166.619,86.223L166.619,86.223z"/>
	<path fill="#FF2400" d="M102.8,71.598c2.236,1.511,4.457,3.807,6.149,6.179c-0.438-3.173-2.901-6.104-5.152-7.63
		c-4.412-2.976-8.808-5.968-9.231-16.181C87.948,60.13,98.403,68.621,102.8,71.598L102.8,71.598z"/>
	<path fill="#FF2400" d="M101.394,74.725c1.798,0.71,3.732,1.979,5.303,3.384c-0.816-2.176-3.007-3.838-4.85-4.563
		c-3.566-1.405-7.494-3.158-9.413-10.274C91.906,72.323,97.814,73.32,101.394,74.725L101.394,74.725z"/>
	<path fill="#FF2400" d="M108.284,74.65c0.876,0.997,1.677,1.828,2.523,2.553c6.572,5.741,16.453,2.266,22.965-1.964
		c5.953-3.868,10.546-9.7,11.452-18.085c-2.629,10.032-6.874,12.797-14.837,17.42c-3.475,2.025-5.847,3.807-10.032,4.034
		c-4.004-0.196-5.061,0.166-8.4-2.735c-0.771-0.665-1.707-1.269-2.538-2.206L108.284,74.65z"/>
	<path fill-rule="evenodd" clip-rule="evenodd" fill="#FF2400" d="M112.409,61.807c-1.722-0.604-2.976-1.118-3.656-2.13
		c-1.194-1.768-0.468-3.717,1.148-6.844C109.251,56.912,108.193,58.831,112.409,61.807L112.409,61.807z M117.636,54.419
		c1.783,1.904,1.722,3.566,0.574,4.805c-0.831,0.891-1.828,1.39-2.84,0.559c-0.03-0.03-0.06-0.06-0.106-0.091
		c-0.317-0.242-0.74-0.453-1.179-0.483c-0.483-0.045-0.982,0.106-1.375,0.589l-0.06,0.076c-0.151,0.196-0.106,0.468,0.091,0.619
		c0.181,0.136,0.468,0.106,0.604-0.091l0.045-0.045c0.181-0.212,0.408-0.287,0.619-0.272c0.257,0.015,0.514,0.151,0.725,0.317
		c0.03,0.015,0.045,0.03,0.076,0.045c0.574,0.483,1.027,0.755,1.662,0.65c0.544-0.091,1.163-0.499,2.04-1.345
		c0.015-0.015,0.03-0.03,0.045-0.045C121.262,56.625,117.651,54.434,117.636,54.419L117.636,54.419z"/>
	<path fill="#FF2400" d="M110.006,197.967l-21.787,9.156l-12.329-1.662l-14.414,1.496c-0.695-14.671,0.03-26.229,1.526-42.44
		c5.741-14.58,15.517-44.858,15.668-46.399c-4.2,11.724-16.786,40.778-17.058,42.078c-2.599,11.996-4.699,23.645-7.373,35.354
		c-1.163,5.092-2.432,10.198-3.913,15.35l9.398-0.227l16.121-1.677l12.842,1.738l22.678-9.534l-0.68-16.121L110.006,197.967z"/>
	<path fill="#FF2400" d="M75.151,103.522c2.251,1.586,4.714,2.81,7.237,3.898l-6.361,18.327c-0.106,7.267-1.133,83.914,0.922,81.36
		c1.919-2.387,5.424-77.447,6.965-93.039c0.257,6.406,0.529,19.46,0.801,25.851c0.997,23.056,1.239,46.112,1.239,69.017l5.575-1.314
		c0-22.708-2.312-44.616-3.294-67.838c-0.499-11.588-1.209-23.388-1.571-34.871c-2.448,0.06-4.88,0.151-7.343-0.212
		c-0.423-0.453-0.423-0.952,0.015-1.496C77.704,103.099,76.314,103.205,75.151,103.522L75.151,103.522z"/>
	<path fill="#FF2400" d="M61.266,96.149c-18.251,30.384-33.859,60.631-50.795,91.574l-9.216,22.512L0,213.302l3.233-0.68
		l47.154-1.783l2.75-6.376l4.2-23.449l-13.114,24.31l-19.188,1.949c14.625-29.658,26.773-61.296,34.69-96.257
		c-12.238,32.363-25.609,63.698-40.038,94.082l-11.407-2.75l5.379-13.114l47.336-86.482c6.633,5.122,13.447,6.059,20.336,4.835
		C73.534,106.332,65.798,103.099,61.266,96.149L61.266,96.149z"/>
	<path fill="#FF2400" d="M112.197,85.573c0.363,0.015,0.635,0.317,0.619,0.68c-0.015,0.363-0.332,0.65-0.695,0.635
		c-0.045,0-16.786-1.073-32.408,18.508c-0.227,0.287-0.65,0.332-0.937,0.106c-0.272-0.227-0.332-0.635-0.106-0.922
		C94.731,84.455,112.137,85.573,112.197,85.573L112.197,85.573z"/>
	<path fill="#FF2400" d="M108.042,81.887c0.363-0.076,0.695,0.166,0.771,0.514c0.06,0.363-0.166,0.71-0.529,0.771
		c-0.045,0.015-15.199,2.704-25.73,22.95c-0.181,0.317-0.574,0.453-0.891,0.272c-0.332-0.166-0.453-0.559-0.287-0.891
		C92.208,84.697,107.997,81.887,108.042,81.887L108.042,81.887z"/>
	<path fill="#FF2400" d="M110.716,83.488c0.363-0.03,0.695,0.227,0.725,0.589c0.045,0.363-0.227,0.695-0.589,0.725
		c-0.06,0-20.684,2.04-26.667,22.452c-0.106,0.348-0.468,0.544-0.816,0.453c-0.347-0.106-0.559-0.468-0.453-0.816
		C89.156,85.618,110.656,83.503,110.716,83.488L110.716,83.488z"/>
	<path fill="#FF2400" d="M145.119,113.101c-0.151,4.578-0.635,11.105-0.755,13.16c-0.317,5.726-0.771,11.301-1.33,16.831
		c-0.997,9.73-2.04,16.801-3.551,23.781c-1.511,7.026-3.49,13.915-6.346,23.313c-0.438,1.45-0.922,2.81-1.798,3.611
		c-0.619,0.589-7.116,1.042-9.443-1.843c-3.052-2.357-5.212-4.623-6.028-6.104c2.704,0.68,3.687,0.483,6.935-0.65
		c-6.013-0.302-8.159-3.656-8.944-4.88c-8.31-12.918-23.146-65.481-23.917-85.122l-4.684,4.125
		c0.755,9.231,1.889,18.221,3.581,27.271c1.692,9.05,3.928,18.13,6.874,27.543c3.989,12.737,8.37,19.551,14.595,29.205
		c1.299,2.025,2.689,4.185,4.064,6.376c1.224,1.949,2.72,3.822,4.669,5.348c1.994,1.541,4.442,2.674,7.524,3.067
		c3.43,0.438,5.636-0.332,7.177-1.753c1.481-1.375,2.176-3.233,2.765-5.167c2.901-9.564,4.91-16.559,6.421-23.6
		c1.541-7.071,2.584-14.248,3.596-24.174c0.574-5.605,1.043-11.226,1.36-16.982c0.287-5.258,1.496-21.877-1.904-26.123
		c-1.632-2.025-10.501-5.424-13.477-6.164C136.552,99.67,145.633,96.149,145.119,113.101L145.119,113.101z"/>
	<path fill="#FF2400" d="M115.853,121.169c0.076,8.128,1.133,19.112,6.905,35.777l1.511-3.52c-5.62-16.242-5.696-24.37-5.772-32.272
		c-0.121-12.389,0.423-13.976-6.844-23.645C115.083,106.876,115.763,110.971,115.853,121.169L115.853,121.169z"/>
	<path fill-rule="evenodd" clip-rule="evenodd" fill="#FF2400" d="M111.276,86.223c1.088,2.614,3.384,4.276,6.527,5.59
		c0.604,0.151,1.088,0.091,1.39-0.332c-0.166-2.13-0.332-4.366,0.363-6.587c0.453-1.39,1.647-1.617,3.097-0.982l4.004,1.753
		c1.012-0.801,2.659-0.997,4.019-0.317l3.566,1.647c1.073,0.484,1.858,1.39,2.312,2.433l1.707,3.943l-3.777-4.623l-5.152-2.538
		c-0.967-0.317-1.919,0.151-2.886,0.922l-2.689,7.63l0.091,4.14c-1.692-1.254-2.825-2.735-1.194-5.333
		c0.876-2.448,1.738-4.91,2.009-7.479l-2.448-1.194c-0.846-0.393-1.677-0.06-1.677,0.876l0.015,6.708
		c-0.03,4.563,0.499,7.947,1.345,10.682l-1.118-1.299c-1.647-1.254-2.312-4.155-2.236-8.264c-3.43-1.345-6.512-3.445-8.884-7.086
		L111.276,86.223z"/>
	<path fill="#FF2400" d="M135.676,93.566c-0.468-0.347-1.632-2.372-2.055-3.294c-0.181-0.423,0.015-0.725,0.136-1.194
		c-0.725,0.635-0.816,0.801-1.858,0.574c-0.363-0.091-0.574-0.151-0.876-0.347l-0.393-1.39l-0.287,1.36
		c-0.363,0.196-0.559,0.378-0.816,0.695c-0.257,0.317-0.423,0.71-0.483,1.178l-0.015,0.151l0.076,0.121
		c1.073,1.873,1.33,2.75,2.402,4.382c-0.166-1.632-1.269-4.14-1.571-4.684c0.06-0.242,0.151-0.438,0.287-0.604
		c0.121-0.151,0.272-0.287,0.438-0.408c0.332,0.196,0.68,0.317,1.043,0.408c0.348,0.06,0.71,0.091,1.088,0.076
		C133.727,92.342,134.226,93.112,135.676,93.566L135.676,93.566z"/>
	<path fill="#FF2400" d="M105.247,87.144c0.922,5.923,4.608,8.793,7.751,11.226c2.07,1.617,4.533,4.049,4.956,5.968
		c1.027-3.203-2.916-6.059-4.14-7.01c-2.961-2.297-6.421-4.986-7.267-10.38L105.247,87.144z"/>
	<path fill="#FF2400" d="M131.899,123.828c-2.735,11.483-7.222,21.847-11.785,32.393c-2.629,6.059-3.671,11.135-2.614,15.275
		c1.949-4.925,3.898-9.428,5.832-13.885c4.638-10.727,9.216-21.258,11.996-32.967c0.635-2.644,1.073-5.273,1.133-7.63
		c0.06-2.946,4.563-7.388,1.798-11.196c-6.119-8.431-10.259-2.523-14.55-11.06c-0.363-0.181-1.33-1.103-1.692,0.121
		c-0.212,0.755-0.045,3.143,0.196,4.623c-1.36-1.375-1.481-2.478-1.647-4.956c-0.091-1.586-2.735,0.06-2.025,5.379
		c0.196,1.42-4.079-1.828-4.064-1.058c2.312,2.115,2.568,4.291,4.971,5.862C125.689,108.78,135.963,106.771,131.899,123.828
		L131.899,123.828z"/>
	<path fill-rule="evenodd" clip-rule="evenodd" fill="#FF2400" d="M171.771,88.202l-0.393,4.699
		c11.15,5.077,11.845,24.234,17.768,36.351l-1.314-26.214c0.529-5.772-2.13-9.745-7.569-12.117L171.771,88.202z"/>
	<path fill-rule="evenodd" clip-rule="evenodd" fill="#FF2400" d="M183.571,118.117c3.369,8.627,9.851,18.312,11.498,26.606
		c0.604,3.037,1.768,18.825,1.299,26.365c-2.992-0.876-6.406,1.511-7.947,2.009c-2.009,0.922-4.653,0.151-6.195-0.665
		c-4.2-2.191-7.479-4.82-10.229-7.872c-2.976-3.324-5.333-7.177-7.539-11.573c-5.802-11.573-11.664-23.237-17.511-34.871
		l-1.828-14.958c0.695,1.375,1.39,2.735,2.085,4.11l0.574-1.662c0,0,10.41,13.447,15.169,11.619l3.913,11.15l7.222,15.758
		l7.237,18.236l-7.736-11.15l3.732,12.737h-2.75c2.614,2.508,5.348,3.279,8.959,4.759l8.536-1.768c1.043-0.227,1.043-1.934,0-2.251
		c-2.901-0.876-8.249,0.106-9.337-3.037c-5.364-15.547-12.45-28.903-17.481-44.087C175.91,121.592,178.071,113.736,183.571,118.117
		L183.571,118.117z M146.947,126.14c0,0,10.803,13.296,14.459,24.385c3.203,9.715,2.599,19.188,7.509,25.685
		c4.306,5.681,11.241,10.501,16.363,17.315c-2.478,1.118-4.653,2.553-6.149,4.729l-5.046-1.466c0.619-7.282-6.421-8.99-8.37-14.368
		c-0.831,3.505-2.856,3.339-4.669,2.387c-3.717-1.994-4.714-34.146-5.152-39.781c0,0-4.789,25.367-0.574,35.808
		c-6.98-11.936-11.543-26.108-11.543-26.108L146.947,126.14z M154.879,123.013c4.457,9.413,8.778,19.067,12.963,28.994
		c1.707,4.064,2.568,6.467,4.215,8.884l-2.538-9.111c0,0-5.379-20.185-10.395-24.552
		C157.72,126.019,156.254,124.523,154.879,123.013L154.879,123.013z"/>
</g>
</svg>
