<?xml version="1.0" encoding="utf-8"?>
<!-- Generator: Adobe Illustrator 24.3.0, SVG Export Plug-In . SVG Version: 6.00 Build 0)  -->
<svg version="1.1" id="Layer_2" xmlns="http://www.w3.org/2000/svg" xmlns:xlink="http://www.w3.org/1999/xlink" x="0px" y="0px"
	 viewBox="0 0 217.393 214.028" enable-background="new 0 0 217.393 214.028" xml:space="preserve">
<g>
	<path fill="#F90D56" d="M37.291,100.96c0-36.451,29.553-66.004,66.004-66.004c16.668,0,31.887,6.179,43.503,16.372
		c-12.637-19.59-34.65-32.563-59.693-32.563c-39.202,0-70.985,31.783-70.985,70.985c0,34.062,23.989,62.516,55.997,69.398
		C51.383,148.016,37.291,126.136,37.291,100.96"/>
</g>
<g>
	<path fill="#231E51" d="M173.747,0.102c-1.33-0.499-1.913,0.908-2.137,2.785c-0.437,3.66,1.13,7.237,3.893,9.678
		c28.523,25.201,22.946,86.567,4.232,82.9c-12.304-2.41,0.801-38.983-9.461-40.23c-6.812-0.829-12.866,16.128-12.432,38.483
		c0.245,12.789,4.352,23.346,7.964,32.506c5.226,13.273,0.423,28.465-11.598,36.14c-38.26,24.414-89.642,19.917-123.061-13.506
		C13.495,131.204,3.912,108.532,2.403,85.431c-7.385,34.209,2.248,71.35,28.905,97.89c33.596,33.457,87.238,40.419,128.298,16.712
		c38.972-22.511,55.272-68.823,57.593-111.886C220.149,33.375,188.711,5.739,173.747,0.102z M168.377,30.075
		c14.898,13.089,20.53,36.023,19.867,54.488c2.337-5.726,3.606-14.113,3.317-23.09c-0.209-6.454-1.131-12.687-2.682-18.487
		c-2.855-10.679-10.097-19.775-20.123-24.431c-0.709-0.329-1.392-0.617-2.043-0.862c-1.352-0.506-1.931,0.946-2.148,2.866
		C164.164,24.159,165.655,27.682,168.377,30.075"/>
	<path fill="#231E51" d="M45.722,92.67c0,29.499,52.94,65.476,52.94,65.476s52.703-36.233,52.94-65.476
		c0-15.096-12.304-27.395-27.401-27.395c-11.605,0-21.598,7.426-25.54,17.638c-3.941-10.212-13.935-17.638-25.54-17.638
		C58.026,65.276,45.722,77.574,45.722,92.67"/>
	<path fill="#231E51" d="M181.233,60.031c0,0-6.508-21.992-18.423-29.982c0,0-4.067,4.414-1.157,8.271
		C161.654,38.32,174.432,49.035,181.233,60.031z"/>
</g>
</svg>
