<?xml version="1.0" encoding="utf-8"?>
<!-- Generator: Adobe Illustrator 24.3.0, SVG Export Plug-In . SVG Version: 6.00 Build 0)  -->
<svg version="1.1" id="Layer_1" xmlns="http://www.w3.org/2000/svg" xmlns:xlink="http://www.w3.org/1999/xlink" x="0px" y="0px"
	 viewBox="0 0 865.574 742.027" enable-background="new 0 0 865.574 742.027" xml:space="preserve">
<g>
	<path fill-rule="evenodd" clip-rule="evenodd" fill="#505050" d="M573.419,37.678l-274.88-0.01
		c-15.9,58.04-62.43,104.56-120.46,120.47v117.1c0,104.85,40.83,203.4,114.95,277.53l142.94,142.95l142.95-142.95
		c74.14-74.14,114.97-172.69,114.97-277.53v-117.1C635.849,142.228,589.329,95.708,573.419,37.678z M564.709,536.148l-128.73,128.72
		v-319.8h-226.79c-4.02-21.69-6.15-43.9-6.15-66.43v-102.21c52.09-17.49,93.92-59.32,111.38-111.41h121.56v280.05h229.52
		C652.129,417.038,617.559,483.258,564.709,536.148z"/>
</g>
<g>
	<path fill="#333436" d="M1.211,20.684L114.94,141.128c1.682,1.782,4.491,1.862,6.272,0.18l3.226-3.046l112.343,118.976l-1.68,0.738
		c-2.641,1.159-3.524,3.59-1.842,5.372l16.806,17.799c-2.457,6.21-1.308,13.545,3.58,18.721l14.933,15.815l0.605-0.571
		c0.258-0.244,0.665-0.232,0.909,0.026l4.321,4.577c0.244,0.258,0.232,0.665-0.026,0.909l-0.605,0.571l5.712,6.049l0.605-0.571
		c0.258-0.244,0.665-0.232,0.909,0.026l4.321,4.577c0.244,0.258,0.232,0.665-0.026,0.909l-0.605,0.571l5.712,6.049l0.605-0.571
		c0.258-0.244,0.665-0.232,0.909,0.026l4.321,4.577c0.244,0.258,0.232,0.665-0.026,0.909l-0.605,0.571l5.712,6.049l0.605-0.571
		c0.258-0.244,0.665-0.232,0.909,0.026l4.321,4.577c0.244,0.258,0.232,0.665-0.026,0.909l-0.605,0.571l5.712,6.049l0.605-0.571
		c0.258-0.244,0.665-0.232,0.909,0.026l4.321,4.577c0.244,0.258,0.232,0.665-0.026,0.909l-0.605,0.571l5.712,6.049l0.605-0.571
		c0.258-0.244,0.665-0.232,0.909,0.026l4.321,4.577c0.244,0.258,0.232,0.665-0.026,0.909l-0.605,0.571l5.712,6.049l0.605-0.571
		c0.258-0.244,0.665-0.232,0.909,0.026l4.321,4.577c0.244,0.258,0.232,0.665-0.026,0.909l-0.605,0.571l5.712,6.049l0.605-0.571
		c0.258-0.244,0.665-0.232,0.909,0.026l4.321,4.577c0.244,0.258,0.232,0.665-0.026,0.909l-0.605,0.571l5.712,6.049l0.605-0.571
		c0.258-0.244,0.665-0.232,0.909,0.026l4.321,4.577c0.244,0.258,0.232,0.665-0.026,0.909l-0.605,0.571l5.712,6.049l0.605-0.571
		c0.258-0.244,0.665-0.232,0.909,0.026l4.321,4.577c0.244,0.258,0.232,0.665-0.026,0.909l-0.605,0.571l5.712,6.049l0.605-0.571
		c0.258-0.244,0.665-0.232,0.909,0.026l4.321,4.577c0.244,0.258,0.232,0.665-0.026,0.909l-0.605,0.571l5.712,6.049l0.605-0.571
		c0.258-0.244,0.665-0.232,0.909,0.026l4.321,4.577c0.244,0.258,0.232,0.665-0.026,0.909l-0.605,0.571l30.986,32.816l-12.885,12.167
		c-8.471-13.262-36.282-56.691-39.13-59.707l-24.878-26.347c-3.365-3.564-8.981-3.725-12.545-0.36l-19.357,18.278
		c-3.564,3.365-3.725,8.981-0.36,12.545l24.878,26.347c2.74,2.902,42.13,31.047,56.665,41.4c0.288,0.353,0.581,0.709,0.884,1.066
		c-0.475,0.838-0.383,1.917,0.313,2.653l12.121,12.837c0.667,0.706,1.679,0.879,2.523,0.518l2.657,2.814
		c-0.335,1.762-0.433,3.559-0.281,5.344l-18.128,17.117c-0.905,0.855-0.946,2.281-0.091,3.186l12.121,12.837
		c0.855,0.905,2.281,0.946,3.186,0.092l17.033-16.084c2.588,0.738,5.295,0.937,7.954,0.588l4.195,4.443
		c-0.409,0.822-0.295,1.842,0.372,2.549l12.122,12.837c0.667,0.706,1.679,0.879,2.523,0.518l18.469,19.559
		c-2.566,3.393-2.394,8.237,0.624,11.433l34.525,36.563c3.365,3.564,8.982,3.724,12.545,0.359l11.829-11.17
		c3.564-3.365,3.725-8.982,0.36-12.545l-34.525-36.563c-3.018-3.196-7.843-3.646-11.379-1.278l-18.369-19.454l12.908-12.188
		l9.891,10.475c6.73,7.127,17.963,7.449,25.09,0.719l1.61-1.52l12.449,13.184c2.804,2.97,7.485,3.104,10.454,0.3l8.603-8.124
		l52.295,55.383c0.124,0.131,0.265,0.234,0.4,0.347c0.286,0.485,0.848,0.865,1.676,1.065l16.751,4.046
		c3.633,3.848,47.454,50.016,55.541,58.58l-60.699-54.228c-10.977-0.315-15.607-0.73-21.342,4.685
		c-5.735,5.416,8.601,25.441,15.303,32.539c6.701,7.097,42.646,45.164,48.129,50.971c2.974,3.15,5.784,3.779,11.748,3.993
		l52.515-50.086c0,0-31.83,40.882-41.899,50.39l14.4,15.25c2.005,2.123,5.125,2.534,6.907,0.851l63.875-60.314
		c1.782-1.683,0.585-3.909-2.575-4.941l-28.181-9.202c-2.208-0.721-5.113-0.196-6.544,1.155l-2.696,2.546l-8.727-9.242
		c0.21-2.063-0.413-4.199-1.948-5.825l-43.156-45.704c-2.804-2.97-7.484-3.104-10.454-0.3l-3.226,3.046
		c-2.97,2.804-3.104,7.484-0.3,10.454l38.285,40.546l-5.409,5.107l-50.201-53.165c-0.752-0.796-1.731-1.233-2.74-1.344
		l-16.577-4.004c0.292-1.377-0.07-2.869-1.11-3.97l-25.147-26.632c2.447-3.165,7.414-8.182,15.333-9.995
		c18.777-4.298,52.779-9.54,52.779-9.54s-7.412-30.61-16.76-41.932c-9.348-11.322-4.261,4.023-28.008,13.014
		c-12.313,4.662-24.962,9.293-34.975,12.376c0.584-7.258-1.756-14.724-7.137-20.422l-22.594-23.928l31.724-29.955
		c1.782-1.682,1.7-4.338-0.182-5.931l-48.854-41.341c-1.882-1.593-4.853-1.521-6.635,0.162l-24.669,23.294l40.595,44.989
		l-43.949-41.822c-2.538-0.91-5.475-0.424-7.57,1.553l-7.259,6.854l-23.609-25.003c-2.804-2.97-10.203-5.983-16.527-6.731
		l-4.122-0.488l-20.862,19.699c-3.564,3.365-9.18,3.204-12.545-0.36l-143.063-151.51l143.769,145.254
		c3.493,3.442,9.213,3.505,12.777,0.141l16.413-15.498L295.884,259.983c-4.414-4.675-10.764-6.402-16.624-5.151l-8.92-9.447
		c-1.063-1.125-2.853-1.63-4.036-1.11l-18.018,7.911L133.042,130.138l2.151-2.031c1.782-1.682,1.862-4.491,0.18-6.272L21.643,1.391
		c-1.682-1.782-4.491-1.862-6.272-0.18L1.391,14.412C-0.391,16.094-0.471,18.902,1.211,20.684z M428.39,534.937
		c-2.877-3.047-2.739-7.848,0.308-10.725s7.848-2.739,10.725,0.307c2.877,3.047,2.739,7.849-0.308,10.725
		S431.267,537.984,428.39,534.937z M455.601,539.604l-2.641-2.797c2.995-6.965,1.787-15.342-3.749-21.205
		c-5.536-5.863-13.83-7.549-20.955-4.958l-1.102-1.167l12.908-12.188l28.447,30.127L455.601,539.604z M565.135,504.801
		l13.708,14.518c4.346,4.603,4.138,11.858-0.465,16.204c-0.533,0.504-2.763,1.566-3.359,1.948l18.241,29.431l-23.367-24.746
		c4.125-6.142,5.797-13.783,4.336-21.276c-0.469-2.405-1.436-2.289-2.155,0.053c-1.632,5.318-4.811,10.133-9.25,13.737
		l-16.582-17.561c-1.797-4.278-0.885-9.399,2.688-12.773C553.534,499.99,560.788,500.198,565.135,504.801z M325.842,354.506
		l182.305,193.069c0.822,0.87,0.783,2.242-0.088,3.064c-0.87,0.822-2.242,0.782-3.064-0.088L322.69,357.482
		c-0.822-0.87-0.782-2.242,0.088-3.064C323.649,353.596,325.02,353.635,325.842,354.506z"/>
	<path fill="#333436" d="M864.363,29.322L750.633,149.766c-1.682,1.782-4.49,1.862-6.272,0.18l-3.226-3.046L628.792,265.876
		l1.68,0.738c2.641,1.159,3.524,3.59,1.842,5.372l-16.806,17.799c2.457,6.21,1.308,13.545-3.58,18.721l-14.933,15.815l-0.605-0.571
		c-0.258-0.244-0.665-0.232-0.909,0.026l-4.321,4.577c-0.244,0.258-0.232,0.665,0.026,0.909l0.605,0.571l-5.712,6.049l-0.605-0.571
		c-0.258-0.244-0.665-0.232-0.909,0.026l-4.321,4.577c-0.244,0.258-0.232,0.665,0.026,0.909l0.605,0.571l-5.712,6.049l-0.605-0.571
		c-0.258-0.244-0.665-0.232-0.909,0.026l-4.321,4.577c-0.244,0.258-0.232,0.665,0.026,0.909l0.605,0.571l-5.712,6.049l-0.605-0.571
		c-0.258-0.244-0.665-0.232-0.909,0.026l-4.321,4.577c-0.244,0.258-0.232,0.665,0.026,0.909l0.605,0.571l-5.712,6.049l-0.605-0.571
		c-0.258-0.244-0.665-0.232-0.909,0.026l-4.321,4.577c-0.244,0.258-0.232,0.665,0.026,0.909l0.605,0.571l-5.712,6.049l-0.605-0.571
		c-0.258-0.244-0.665-0.232-0.909,0.026l-4.321,4.577c-0.244,0.258-0.232,0.665,0.026,0.909l0.605,0.571l-5.712,6.049l-0.605-0.571
		c-0.258-0.244-0.665-0.232-0.909,0.026l-4.321,4.577c-0.244,0.258-0.232,0.665,0.026,0.909l0.605,0.571l-5.712,6.049l-0.605-0.571
		c-0.258-0.244-0.665-0.232-0.909,0.026l-4.321,4.577c-0.244,0.258-0.232,0.665,0.026,0.909l0.605,0.571l-5.712,6.049l-0.605-0.571
		c-0.258-0.244-0.665-0.232-0.909,0.026l-4.321,4.577c-0.244,0.258-0.232,0.665,0.026,0.909l0.605,0.571l-5.712,6.049l-0.605-0.571
		c-0.258-0.244-0.665-0.232-0.909,0.026l-4.321,4.577c-0.244,0.258-0.232,0.665,0.026,0.909l0.605,0.571l-5.712,6.049l-0.605-0.571
		c-0.258-0.244-0.665-0.232-0.909,0.026L482,443.956c-0.244,0.258-0.232,0.665,0.026,0.909l0.605,0.571l-5.712,6.049l-0.605-0.571
		c-0.258-0.244-0.665-0.232-0.909,0.026l-4.321,4.577c-0.244,0.258-0.232,0.665,0.026,0.909l0.605,0.571l-30.986,32.816
		l12.885,12.167c8.471-13.262,36.282-56.691,39.13-59.707l24.878-26.347c3.365-3.564,8.981-3.725,12.545-0.36l19.357,18.278
		c3.564,3.365,3.725,8.981,0.36,12.545l-24.878,26.347c-2.74,2.902-42.13,31.047-56.665,41.4c-0.288,0.353-0.581,0.709-0.884,1.066
		c0.475,0.838,0.383,1.917-0.313,2.653l-12.122,12.837c-0.667,0.706-1.679,0.879-2.523,0.518l-2.657,2.814
		c0.335,1.762,0.433,3.559,0.281,5.344l18.128,17.118c0.905,0.855,0.946,2.281,0.091,3.186l-12.121,12.837
		c-0.855,0.905-2.281,0.946-3.186,0.092l-17.033-16.083c-2.588,0.738-5.295,0.937-7.954,0.588l-4.195,4.443
		c0.409,0.822,0.295,1.842-0.372,2.549l-12.121,12.837c-0.667,0.706-1.679,0.879-2.523,0.518l-18.469,19.56
		c2.566,3.393,2.394,8.237-0.624,11.433l-34.525,36.563c-3.365,3.564-8.982,3.724-12.545,0.359l-11.829-11.17
		c-3.564-3.365-3.725-8.982-0.36-12.545l34.525-36.563c3.018-3.196,7.843-3.646,11.379-1.278l18.369-19.454l-12.908-12.188
		l-9.891,10.475c-6.73,7.127-17.963,7.449-25.09,0.719l-1.61-1.52l-12.449,13.184c-2.804,2.97-7.485,3.104-10.454,0.3l-8.603-8.124
		l-52.295,55.383c-0.124,0.131-0.265,0.234-0.4,0.347c-0.286,0.485-0.848,0.865-1.676,1.065l-16.751,4.046
		c-3.633,3.848-47.454,50.016-55.54,58.58l60.699-54.228c10.977-0.315,15.607-0.73,21.343,4.685s-8.601,25.441-15.303,32.539
		c-6.701,7.097-42.646,45.164-48.129,50.971c-2.974,3.15-5.784,3.779-11.748,3.993l-52.515-50.086c0,0,31.83,40.882,41.899,50.39
		l-14.4,15.25c-2.005,2.123-5.125,2.534-6.907,0.851l-63.875-60.314c-1.782-1.683-0.585-3.909,2.575-4.941l28.181-9.202
		c2.208-0.721,5.113-0.196,6.544,1.155l2.696,2.546l8.727-9.242c-0.21-2.063,0.413-4.199,1.948-5.826l43.156-45.704
		c2.804-2.97,7.484-3.104,10.454-0.3l3.226,3.046c2.97,2.804,3.104,7.484,0.3,10.454l-38.285,40.546l5.409,5.107l50.201-53.165
		c0.752-0.796,1.731-1.233,2.74-1.344l16.577-4.004c-0.292-1.377,0.07-2.869,1.11-3.97l25.147-26.632
		c-2.447-3.165-7.414-8.182-15.333-9.995c-18.777-4.298-52.779-9.54-52.779-9.54s7.412-30.61,16.76-41.932
		c9.348-11.322,4.261,4.023,28.008,13.014c12.313,4.662,24.962,9.293,34.975,12.376c-0.584-7.258,1.756-14.724,7.137-20.422
		l22.594-23.928l-31.724-29.955c-1.782-1.682-1.7-4.338,0.182-5.931l48.854-41.341c1.882-1.593,4.853-1.521,6.635,0.162
		l24.669,23.294l-40.595,44.989l43.949-41.822c2.538-0.91,5.475-0.424,7.57,1.553l7.259,6.854l23.609-25.003
		c2.804-2.97,10.203-5.983,16.527-6.731l4.122-0.488l20.862,19.699c3.564,3.365,9.18,3.204,12.545-0.36l143.063-151.51
		L453.977,437.437c-3.493,3.442-9.213,3.505-12.777,0.141l-16.413-15.498L569.69,268.622c4.414-4.675,10.764-6.402,16.624-5.151
		l8.92-9.447c1.063-1.125,2.853-1.63,4.036-1.11l18.018,7.911l115.244-122.048l-2.151-2.031c-1.782-1.682-1.862-4.491-0.18-6.272
		L843.93,10.029c1.682-1.782,4.491-1.862,6.272-0.18l13.98,13.201C865.965,24.732,866.045,27.541,864.363,29.322z M437.184,543.575
		c2.877-3.046,2.739-7.848-0.308-10.725c-3.046-2.877-7.848-2.739-10.725,0.307c-2.877,3.047-2.739,7.849,0.308,10.725
		C429.506,546.76,434.307,546.622,437.184,543.575z M409.973,548.242l2.641-2.797c-2.995-6.965-1.787-15.342,3.749-21.205
		s13.83-7.549,20.955-4.958l1.102-1.167l-12.908-12.188l-28.447,30.127L409.973,548.242z M300.439,513.44l-13.708,14.518
		c-4.346,4.603-4.138,11.858,0.465,16.204c0.533,0.504,2.763,1.567,3.359,1.948l-18.241,29.431l23.367-24.746
		c-4.125-6.142-5.797-13.783-4.336-21.276c0.469-2.405,1.436-2.289,2.155,0.053c1.632,5.318,4.811,10.133,9.25,13.737l16.582-17.561
		c1.797-4.278,0.885-9.399-2.688-12.772C312.04,508.629,304.785,508.837,300.439,513.44z M539.731,363.144L357.426,556.213
		c-0.822,0.87-0.783,2.242,0.088,3.064c0.87,0.822,2.242,0.782,3.064-0.088L542.883,366.12c0.822-0.87,0.782-2.242-0.088-3.064
		C541.925,362.234,540.553,362.273,539.731,363.144z"/>
</g>
</svg>
