<?xml version="1.0" encoding="utf-8"?>
<!-- Generator: Adobe Illustrator 24.3.0, SVG Export Plug-In . SVG Version: 6.00 Build 0)  -->
<svg version="1.1" id="Layer_2" xmlns="http://www.w3.org/2000/svg" xmlns:xlink="http://www.w3.org/1999/xlink" x="0px" y="0px"
	 viewBox="0 0 238.536 187.627" enable-background="new 0 0 238.536 187.627" xml:space="preserve">
<g>
	<polygon fill="#18AA91" points="33.825,156.069 31.297,156.595 31.297,155.499 	"/>
	<path fill="#18AA91" d="M55.052,187.579h1.622v-0.047C56.105,187.532,55.579,187.579,55.052,187.579z"/>
	<path fill="#18AA91" d="M135.107,156.357c-4.914,8.625-8.443,26.311,8.443,24.357L135.107,156.357z"/>
	<polygon fill="#18AA91" points="162.775,151.97 164.065,146.011 170.028,144.725 164.065,143.435 162.775,137.477 161.489,143.435 
		155.527,144.725 161.489,146.011 	"/>
	<path fill="#18AA91" d="M185.197,133.045v1.143c0.194-0.19,0.384-0.38,0.621-0.57C185.581,133.425,185.391,133.235,185.197,133.045
		z"/>
	<polygon fill="#18AA91" points="31.297,155.546 31.297,156.642 33.825,156.116 	"/>
	<polygon fill="#18AA91" points="33.825,156.069 31.297,156.595 31.297,155.499 	"/>
	<path fill="#18AA91" d="M217.207,126.663c1.1-2.44,1.67-5.11,1.67-7.92c0-2.62-0.52-5.2-1.48-7.48
		c8.45-6.54,13.89-16.78,13.89-28.27c0-19.74-16.03-35.76-35.78-35.76c-4.77,0-9.35,0.96-13.55,2.68
		c-4.53-8.73-13.69-14.69-24.19-14.69h-0.24c0.14-1.28,0.24-2.62,0.24-4c0-17.26-13.98-31.22-31.25-31.22
		c-16.6,0-30.15,12.92-31.2,29.26c-2.38-0.76-4.91-1.14-7.54-1.14c-12.21,0-22.42,8.63-24.66,20.16c-2.58-0.71-5.25-1.05-8.02-1.05
		c-17.26,0-31.24,13.97-31.24,31.23c0,9.25,4,17.54,10.4,23.26c-6.45,5.77-10.45,14.07-10.45,23.31v0.91
		c-13.69,3.38-23.81,15.68-23.81,30.36c0,17.26,14.03,31.28,31.3,31.32h23.71c0.52,0,1.1-0.04,1.62-0.04v-76.13
		c0-0.62-0.19-1.15-0.43-1.67c-0.57-1.15-1.76-1.91-3.15-1.91h-3.15c-3.34,0-4.86-4.19-2.29-6.34l9.07-7.63l20.84-17.54l7.59-6.39
		l19.51-16.39l7.59-6.39l6.34-5.34c1.34-1.1,3.3-1.1,4.63,0l10.16,8.53l9.16,7.68l18.47,15.49l12.88,10.82l18.55,15.59l1.77,1.48
		c2.58,2.14,1.05,6.33-2.29,6.33h-3.15c-1.96,0-3.58,1.58-3.58,3.58v21.69c0.24,0.19,0.43,0.38,0.62,0.58
		c-0.23,0.19-0.42,0.38-0.62,0.57v53.39h22.09c17.32,0,31.3-14.02,31.3-31.28C238.537,142.533,229.617,130.853,217.207,126.663z
		 M31.297,156.593l-5.92,1.29l-1,4.58l-0.86,3.9l-1.81-8.48l-8.49-1.81l8.49-1.82l1.81-8.48l0.91,4.15l0.95,4.33l5.92,1.29
		l2.53,0.53L31.297,156.593z M50.427,71.163l-2.67,12.54l-2.68-12.54l-12.54-2.66l12.54-2.67l2.68-12.49l2.67,12.49l12.5,2.67
		L50.427,71.163z M210.577,80.943l1.15,5.29l5.29,1.14l-5.29,1.15l-1.15,5.29l-1.14-5.29l-5.3-1.15l5.3-1.14L210.577,80.943z
		 M195.457,82.233l-2.43-11.3l-8.88-1.91l-2.43-0.52l2.72-0.58l8.63-1.86l2.44-11.29l2.43,11.29l11.3,2.44l-11.3,2.43
		L195.457,82.233z M218.927,158.303l-2.58,12.02l-2.57-12.02l-6.54-1.38l-5.49-1.19l5.49-1.19l6.54-1.38l2.57-12.02l2.58,12.02
		l12.02,2.57L218.927,158.303z"/>
	<polygon fill="#18AA91" points="86.302,106.112 87.592,100.154 93.554,98.864 87.592,97.578 86.302,91.619 85.016,97.578 
		79.049,98.864 85.016,100.154 	"/>
	<polygon fill="#18AA91" points="152.14,122.414 153.999,113.689 162.728,111.834 153.999,109.974 152.14,101.25 150.276,109.974 
		141.548,111.834 150.276,113.689 	"/>
	<polygon fill="#18AA91" points="161.489,143.435 155.527,144.725 161.489,146.011 162.775,151.97 164.065,146.011 170.028,144.725 
		164.065,143.435 162.775,137.477 	"/>
	<polygon fill="#18AA91" points="31.297,155.546 31.297,156.642 33.825,156.116 	"/>
	<polygon fill="#18AA91" points="185.007,1.143 183.148,9.868 174.415,11.723 183.148,13.583 185.007,22.307 186.867,13.583 
		195.599,11.723 186.867,9.868 	"/>
	<polygon fill="#18AA91" points="53.193,21.211 52.002,26.885 46.324,28.124 52.002,29.315 53.193,34.988 54.388,29.315 
		60.061,28.124 54.388,26.933 	"/>
	<path fill="#18AA91" d="M142.118,187.579h29.2c-3.292-4.479-8.59-7.387-14.6-7.387c-2.243,0-4.435,0.427-6.441,1.191
		l-10.972-32.179l-7.442-3.098c0.095-0.047-10.497-7.34-12.594-11.775c-2.006-4.099-2.96-11.917-3.434-16.064
		c0.764,0.19,1.527,0.285,2.338,0.285c5.104,0,9.255-4.147,9.255-9.247s-4.15-9.247-9.255-9.247c-5.108,0-9.258,4.147-9.258,9.247
		c0,1.67,0.431,3.24,1.242,4.578c-5.535,1.001-10.877,6.101-15.791,13.203c-3.628,5.243-7.015,11.585-10.066,18.161
		c-6.968,15.015-12.119,31.273-14.268,38.423c-0.712,2.386-1.096,3.767-1.096,3.767h9.591l14.596-24.931l-2.671-12.444
		c2.433,6.817,24.044,37.374,24.044,37.374h11.688c0,0-17.124-32.417-18.177-46.957c-1.286-2.002-2.623-5.1-3.003-8.578
		c0.38,1.476,1.428,3.672,3.051,5.816c0,0,8.97,8.341,18.319,8.962l10.734,4.479l10.687,31.273
		C145.603,183.765,143.645,185.482,142.118,187.579z"/>
</g>
</svg>
