<?xml version="1.0" encoding="utf-8"?>
<!-- Generator: Adobe Illustrator 24.3.0, SVG Export Plug-In . SVG Version: 6.00 Build 0)  -->
<svg version="1.1" id="Layer_24" xmlns="http://www.w3.org/2000/svg" xmlns:xlink="http://www.w3.org/1999/xlink" x="0px" y="0px"
	 viewBox="0 0 214.13 264.172" enable-background="new 0 0 214.13 264.172" xml:space="preserve">
<g>
	<path fill="#609F31" d="M138.159,112.006c0,4.411-2.638,8.216-6.427,9.899c-0.121,0.061-0.227,0.106-0.349,0.152h-0.015
		c-0.121,0.061-0.227,0.106-0.349,0.121c-1.152,0.44-2.395,0.667-3.699,0.667c-5.972,0-10.838-4.851-10.838-10.838
		c0-4.29,2.501-8.004,6.124-9.747c0.106-0.061,0.212-0.121,0.333-0.152c0,0,0-0.015,0.015-0.015
		c0.106-0.061,0.212-0.106,0.334-0.152c1.243-0.5,2.607-0.773,4.032-0.773C133.308,101.167,138.159,106.018,138.159,112.006z"/>
</g>
<g>
	<circle fill="#E77D26" cx="164.18" cy="81.048" r="14.865"/>
</g>
<g>
	<circle fill="#589387" cx="203.948" cy="62.172" r="10.182"/>
</g>
<g>
	<path fill="#FFF5B2" d="M67.615,133.536v91.83c0,10.72,4.35,20.42,11.37,27.44c7.02,7.02,16.72,11.37,27.44,11.37
		c21.43,0,38.81-17.38,38.81-38.81v-91.83H67.615z M117.665,255.326c-1.67,0.99-3.18-1.6-1.52-2.59c4.5-2.67,9.19-5.52,12.39-9.77
		c3.27-4.36,4.55-10,3.49-15.34c-0.37-1.89,2.52-2.69,2.89-0.8c1.19,5.97,0.01,12.34-3.55,17.33
		C127.865,249.046,122.745,252.306,117.665,255.326z M126.175,229.546c-0.07-1.28,1.93-1.28,2,0c0.21,4.04-1.22,8.02-3.86,11.07
		c-0.84,0.97-2.25-0.45-1.41-1.42C125.205,236.546,126.355,233.046,126.175,229.546z"/>
</g>
<g>
	<path fill="#F4E56E" d="M67.395,134.046v85.88c0,1.4,0.07,2.79,0.22,4.15c0.96,9.06,5.04,17.19,11.15,23.29
		c7.02,7.02,16.72,11.36,27.44,11.36c21.43,0,38.8-17.37,38.8-38.8v-85.88H67.395z M122.905,239.196c2.3-2.65,3.45-6.15,3.27-9.65
		c-0.07-1.28,1.93-1.28,2,0c0.21,4.04-1.22,8.02-3.86,11.07C123.475,241.586,122.065,240.166,122.905,239.196z M131.365,244.156
		c-3.5,4.89-8.62,8.15-13.7,11.17c-1.67,0.99-3.18-1.6-1.52-2.59c4.5-2.67,9.19-5.52,12.39-9.77c3.27-4.36,4.55-10,3.49-15.34
		c-0.37-1.89,2.52-2.69,2.89-0.8C136.105,232.796,134.925,239.166,131.365,244.156z"/>
</g>
<g>
	<path fill="#CEADD2" d="M68.625,13.976c-7.67-9.22-18.71-13.97-29.84-13.97c-8.75,0-17.56,2.94-24.81,8.98
		c-15.34,12.78-18.33,34.87-7.59,51.15c0.79,1.21,1.66,2.38,2.6,3.51l58.34,70.04l0.31,0.38l59.64-49.67L68.625,13.976z
		 M21.485,46.286c-1.29,0-1.28-2,0-2C22.775,44.286,22.775,46.286,21.485,46.286z M16.015,46.056c0.4,1.22-1.53,1.75-1.93,0.53
		c-1.25-3.85-0.91-8.06,0.85-11.7c0.24-0.49,0.93-0.61,1.37-0.36c0.49,0.29,0.59,0.89,0.36,1.37
		C15.135,39.056,14.935,42.726,16.015,46.056z M14.435,62.696c-3.53-4.79-7.1-9.9-8.26-15.86c-1.13-5.8,0.12-11.9,3.43-16.79
		c1.08-1.59,3.67-0.09,2.59,1.51c-3.03,4.47-4.19,10.03-2.95,15.31c1.27,5.37,4.57,9.95,7.78,14.32
		C18.175,62.746,15.575,64.236,14.435,62.696z M17.905,49.116c-0.65,0-0.65-1,0-1C18.545,48.116,18.545,49.116,17.905,49.116z
		 M21.745,52.546c-1.93,0-1.93-3,0-3S23.675,52.546,21.745,52.546z"/>
</g>
<g>
	<circle fill="#2D9151" cx="161.779" cy="113.923" r="4.995"/>
</g>
<g>
	<path fill="#79C3B4" d="M213.632,62.573c0,5.493-4.334,9.962-9.782,10.158c-0.015,0-0.045,0.015-0.06,0
		c-0.12,0.03-0.226,0.03-0.346,0.03c-0.105,0-0.211,0-0.316-0.015c-0.015,0.015-0.03,0-0.03,0h-0.06
		c-0.226,0-0.436-0.015-0.662-0.045c-5.132-0.527-9.12-4.861-9.12-10.128c0-5.252,3.988-9.586,9.12-10.113
		c0.211-0.03,0.436-0.045,0.662-0.045h0.105c0.09-0.015,0.196-0.015,0.301-0.015c0.12,0,0.226,0,0.346,0.03
		c0.03-0.015,0.075,0,0.105,0C209.313,52.656,213.632,57.11,213.632,62.573z"/>
</g>
<g>
	<path fill="#C4E3DF" d="M203.79,52.43v20.301c-0.12,0.03-0.226,0.03-0.346,0.03c-0.105,0-0.211,0-0.316-0.015
		c-0.015,0.015-0.03,0-0.03,0h-0.06V52.415h0.105L203.79,52.43z"/>
</g>
<g>
	<path fill="#B98CBF" d="M71.365,18.866c-7.67-9.22-18.72-13.98-29.84-13.98c-8.75,0-17.56,2.95-24.81,8.99
		c-13.85,11.54-17.63,30.67-10.33,46.26c1.38,2.95,3.16,5.77,5.34,8.39l54.81,65.82l0.79-0.66l58.85-49.01L71.365,18.866z
		 M21.485,44.286c1.29,0,1.29,2,0,2C20.195,46.286,20.205,44.286,21.485,44.286z M21.745,49.546c1.93,0,1.93,3,0,3
		S19.815,49.546,21.745,49.546z M17.905,48.116c0.64,0,0.64,1,0,1C17.255,49.116,17.255,48.116,17.905,48.116z M14.935,34.886
		c0.24-0.49,0.93-0.61,1.37-0.36c0.49,0.29,0.59,0.89,0.36,1.37c-1.53,3.16-1.73,6.83-0.65,10.16c0.4,1.22-1.53,1.75-1.93,0.53
		C12.835,42.736,13.175,38.526,14.935,34.886z M6.175,46.836c-1.13-5.8,0.12-11.9,3.43-16.79c1.08-1.59,3.67-0.09,2.59,1.51
		c-3.03,4.47-4.19,10.03-2.95,15.31c1.27,5.37,4.57,9.95,7.78,14.32c1.15,1.56-1.45,3.05-2.59,1.51
		C10.905,57.906,7.335,52.796,6.175,46.836z"/>
</g>
<g>
	<circle fill="#E54244" cx="198.656" cy="105.71" r="6.724"/>
</g>
<g>
	<path fill="#ED6A6D" d="M205.175,106.004c0,3.612-2.859,6.561-6.441,6.697c-0.09,0.015-0.196,0.015-0.286,0.015
		c-0.15,0-0.316,0-0.467-0.015c-0.105-0.015-0.211-0.015-0.316-0.03c-0.135-0.015-0.271-0.03-0.406-0.06
		c-3.145-0.557-5.538-3.311-5.538-6.606c0-3.311,2.393-6.065,5.538-6.621l0.406-0.06c0.12-0.015,0.241-0.03,0.361-0.03
		c0.135-0.015,0.286-0.015,0.421-0.015c0.105,0,0.226,0,0.331,0.015C202.346,99.458,205.175,102.393,205.175,106.004z"/>
</g>
<g>
	<polyline fill="#ED8688" points="198.779,99.293 198.734,112.701 198.734,112.746 197.981,112.746 197.981,112.701 
		197.981,112.671 198.012,103.536 198.027,99.293 	"/>
</g>
<g>
	<path fill="#59B469" d="M166.364,113.875c0,2.754-2.227,4.996-4.996,4.996c-0.166,0-0.316-0.015-0.482-0.03
		c-0.166-0.015-0.316-0.03-0.482-0.075c-2.287-0.436-4.033-2.468-4.033-4.891s1.746-4.455,4.033-4.891l0.482-0.075
		c0.166-0.015,0.316-0.03,0.482-0.03C164.136,108.879,166.364,111.121,166.364,113.875z"/>
</g>
<g>
	<path fill="#92C255" d="M138.313,111.572c0,4.379-2.619,8.157-6.381,9.827c-0.12,0.06-0.226,0.105-0.346,0.15h-0.015
		c-0.12,0.06-0.226,0.105-0.361,0.12c-1.144,0.436-2.363,0.662-3.657,0.662c-5.929,0-10.76-4.816-10.76-10.76
		c0-4.184,2.393-7.81,5.884-9.571c0.06-0.045,0.135-0.075,0.196-0.105c0.015-0.015,0.045-0.015,0.06-0.03
		c0.015-0.015,0.03-0.03,0.06-0.045c0.06-0.03,0.135-0.06,0.211-0.075c0,0,0-0.015,0.015-0.015c0.015-0.015,0.03-0.015,0.045-0.03
		c0.09-0.045,0.181-0.075,0.286-0.12c1.234-0.497,2.588-0.767,4.003-0.767C133.497,100.813,138.313,105.628,138.313,111.572z"/>
</g>
<g>
	<path fill="#B9D47F" d="M131.917,121.309c-0.135,0.06-0.241,0.105-0.361,0.15l-1.851-4.214l-6.772-15.38l-0.045-0.09
		c0.015-0.015,0.045-0.03,0.075-0.03l0.03,0.075c0.06-0.03,0.135-0.06,0.211-0.075c0,0,0-0.015,0.015-0.015
		c0.015-0.015,0.03-0.015,0.045-0.03L131.917,121.309z"/>
</g>
<g>
	<circle fill="#F49736" cx="163.796" cy="81.336" r="14.409"/>
</g>
<g>
	
		<rect x="163.473" y="67.078" transform="matrix(0.977 -0.2132 0.2132 0.977 -13.6083 36.8192)" fill="#F2A765" width="0.827" height="28.838"/>
</g>
<g>
	<path fill="#9CCD9D" d="M161.367,118.871v-9.992c-0.166,0-0.316,0.015-0.482,0.03v9.932L161.367,118.871z"/>
</g>
</svg>
