<?xml version="1.0" encoding="utf-8"?>
<!-- Generator: Adobe Illustrator 24.3.0, SVG Export Plug-In . SVG Version: 6.00 Build 0)  -->
<svg version="1.1" id="Layer_1" xmlns="http://www.w3.org/2000/svg" xmlns:xlink="http://www.w3.org/1999/xlink" x="0px" y="0px"
	 viewBox="0 0 208.913 259.889" enable-background="new 0 0 208.913 259.889" xml:space="preserve">
<g>
	<path fill="#ED2224" d="M183.057,78.94c0.787-1.358,0.321-3.096-1.04-3.881l-0.69-0.397c-1.36-0.783-3.094-0.318-3.881,1.04
		l-19.171,33.206l-3.379-1.951l19.171-33.206c0.785-1.362,0.319-3.098-1.038-3.883c-0.449-0.259-0.936-0.378-1.419-0.378
		c-0.979,0-1.936,0.508-2.463,1.419l-19.171,33.206l-3.381-1.949l19.171-33.206c0.785-1.358,0.321-3.096-1.038-3.881
		c-0.449-0.259-0.936-0.382-1.419-0.382c-0.983,0-1.936,0.51-2.461,1.422l-19.173,33.208l-3.377-1.955l19.169-33.206
		c0.785-1.358,0.319-3.096-1.038-3.88l-0.614-0.352c-1.358-0.785-3.096-0.321-3.88,1.038l-31.751,54.996
		c-1.559,2.699-2.333,5.633-2.398,8.543H93.539c3.9-8.08,3.383-18.751-3.902-31.371c-8.581-14.864-24.129-28.241-36.97-31.072
		c5.148-4.749,10.798-8.951,16.842-12.645c7.008-4.241,14.533-7.725,22.414-10.984c-8.516,0.529-16.943,2.801-24.865,6.335
		C59.182,48.4,51.843,53.398,45.625,59.54c-0.909,0.892-1.791,1.805-2.655,2.74c-3.954,4.288-7.417,9.02-10.3,14.054
		c-0.804,1.403-1.565,2.832-2.276,4.281c-3.769,7.772-6.489,16.121-6.995,24.673c1.607-3.946,3.355-7.74,5.312-11.412
		c1.031-2.029,2.141-4.009,3.3-5.952c0.622,10.743,4.214,22.918,9.9,32.769c0.78,1.348,1.58,2.621,2.398,3.817H6.685
		c0-51.881,40.408-94.324,91.471-97.572c0.002,0,0.002,0,0.004,0c0,0.002,0,0.002,0,0.002s0,0,0.002-0.002
		c2.082-0.131,4.182-0.2,6.297-0.2c2.115,0,4.214,0.068,6.297,0.2c0.002,0.002,0.002,0.002,0.002,0.002
		c0.002,0,0.002-0.002,0.002-0.002c51.063,3.248,91.469,45.689,91.469,97.572h-45.48L183.057,78.94z"/>
	<path fill="#ED2224" d="M0,86.905c1.566-8.783,5.055-17.193,9.511-24.996c2.212-3.926,4.83-7.619,7.619-11.178
		c2.832-3.528,5.957-6.822,9.259-9.932c3.386-3.021,6.987-5.799,10.768-8.303c3.838-2.417,7.823-4.596,11.982-6.368
		c8.324-3.514,17.188-5.621,26.071-6.076c-8.533,2.516-16.721,5.599-24.389,9.609c-7.616,4.096-14.721,9.019-21.055,14.84
		c-3.194,2.879-6.173,5.995-8.995,9.255c-2.866,3.228-5.454,6.699-7.967,10.238C7.892,71.15,3.544,78.764,0,86.905z"/>
	<path fill="#ED2224" d="M208.913,85.233c-3.543-8.14-7.892-15.754-12.804-22.911c-2.513-3.539-5.1-7.01-7.967-10.238
		c-2.823-3.26-5.802-6.375-8.995-9.255c-6.334-5.821-13.438-10.744-21.054-14.84c-7.668-4.01-15.857-7.093-24.389-9.609
		c8.882,0.455,17.747,2.562,26.071,6.076c4.158,1.772,8.144,3.951,11.982,6.368c3.781,2.504,7.383,5.282,10.768,8.303
		c3.302,3.109,6.428,6.403,9.259,9.932c2.789,3.559,5.406,7.251,7.618,11.178C203.859,68.041,207.348,76.45,208.913,85.233z"/>
	<path fill="#ED2224" d="M67.719,139.793c2.093,0.102,4.125,0.587,5.97,1.428H2.681c-0.558,0-1.01-0.453-1.01-1.01v-10.513
		c0-0.558,0.453-1.01,1.01-1.01h44.805C53.728,136.021,60.749,139.451,67.719,139.793z"/>
	<path fill="#ED2224" d="M118.455,129.798c1.078,3.818,0.781,7.878-0.921,11.424H94.341l-1.01-1.751
		c-1.916-3.317-2.317-7.15-1.425-10.782h26.277C118.26,129.062,118.352,129.431,118.455,129.798z"/>
	<path fill="#ED2224" d="M207.243,129.698v10.513c0,0.558-0.453,1.01-1.01,1.01h-62.886c3.23-1.495,6.043-3.969,7.961-7.288
		l3.028-5.246h51.896C206.79,128.688,207.243,129.14,207.243,129.698z"/>
</g>
<g>
	<path fill="#010101" d="M125.328,162.833l-7.907,13.696l32.094,55.588c2.341,4.054,0.513,9.374-4.15,10.992
		c-3.467,1.202-7.299-0.468-9.134-3.647l-27.573-47.758l-28.741,49.782c-2.341,4.055-7.86,5.133-11.593,1.902
		c-2.777-2.4-3.242-6.555-1.407-9.731l32.98-57.126l-7.907-13.696H7.402c0,53.604,43.453,97.057,97.057,97.057
		c53.602,0,97.055-43.453,97.055-97.057H125.328z M183.076,175.521l-7.997,2.828l-4.76,1.67c3.1,0.42,6.202,0.846,9.299,1.299
		l0.019,0.002c0.396,0.057,0.671,0.426,0.612,0.822c-0.038,0.264-0.213,0.472-0.443,0.567c-3.109,1.274-6.245,2.484-9.372,3.714
		c1.953,0.652,3.899,1.337,5.842,2.022l0.017,0.006c0.127,0.044,0.192,0.181,0.148,0.304c-0.025,0.067-0.076,0.118-0.137,0.143
		c-1.685,0.679-3.374,1.346-5.078,1.991c1.426-0.73,2.855-1.443,4.29-2.145c-2.219-0.59-4.437-1.179-6.645-1.816
		c-0.255-0.072-0.401-0.342-0.329-0.597c0.042-0.141,0.141-0.247,0.268-0.304l0.015-0.008c2.655-1.183,5.3-2.392,7.957-3.571
		c-3.362-0.396-6.725-0.822-10.085-1.249c-0.451-0.057-0.77-0.468-0.713-0.919c0.04-0.321,0.262-0.576,0.551-0.677l8.035-2.721
		l4.144-1.392c-0.607-0.017-1.213-0.03-1.82-0.04l-5.943-0.141c-1.983-0.032-3.963-0.127-5.947-0.196
		c-1.98-0.074-3.963-0.152-5.943-0.262c1.98-0.11,3.963-0.186,5.943-0.259c1.984-0.07,3.963-0.167,5.947-0.2l5.943-0.137
		c1.984-0.038,3.963-0.116,5.947-0.116c0.394,0,0.711,0.318,0.711,0.711C183.555,175.158,183.35,175.422,183.076,175.521z"/>
</g>
</svg>
