<?xml version="1.0" encoding="utf-8"?>
<!-- Generator: Adobe Illustrator 24.3.0, SVG Export Plug-In . SVG Version: 6.00 Build 0)  -->
<svg version="1.1" id="Layer_2" xmlns="http://www.w3.org/2000/svg" xmlns:xlink="http://www.w3.org/1999/xlink" x="0px" y="0px"
	 viewBox="0 0 240.243 261.285" enable-background="new 0 0 240.243 261.285" xml:space="preserve">
<g>
	<path fill="#93631C" d="M157.881,154.79c-3.555,0-6.756-1.399-9.003-3.635c2.526-6.447,3.915-13.126,4.678-18.466
		c1.345-0.471,2.801-0.73,4.325-0.73c6.793,0,12.302,5.108,12.302,11.414S164.674,154.79,157.881,154.79z M160.34,125.011
		c-0.854-0.05-1.695-0.03-2.516,0.05c-1.806,0.175-3.353-1.281-3.339-3.101c0,0-5.979,6.803-15.641,11.434
		c-5.33,2.552-12.386,5.35-17.528,8.586c0.686,0.515,1.325,1.043,1.897,1.584c3.575,3.37,6.464,7.234,9.016,10.644
		c0.104,0.141,0.209,0.282,0.313,0.42c5.038-4.153,8.162-7.792,8.162-7.792s-2.633,4.015-7.409,8.794
		c3.027,4.015,5.737,7.308,8.599,7.974c2.6-3.228,4.661-6.931,6.299-10.772c2.902,2.815,6.854,4.55,11.212,4.55
		c9.137,0,16.502-7.617,16.129-16.869C175.204,132.245,168.575,125.482,160.34,125.011"/>
	<path fill="#93631C" d="M118.158,130.12c0,0-6.06-5.767-0.787-19.29c5.085-13.052,2.132-20.622-1.93-27.129
		c0,0,10.129,8.616,7.51,21.056C121.003,114.004,115.441,118.958,118.158,130.12"/>
	<path fill="#93631C" d="M121.706,132.955c0,0-4.786-6.867,3.087-19.055c7.594-11.76,6.218-19.774,3.538-26.964
		c0,0,8.199,10.479,3.144,22.138C127.715,117.74,121.275,121.473,121.706,132.955"/>
</g>
<g>
	<path fill="#426D2C" d="M84.864,121.961c0,0,0.461,68.194,51.928,49.284c-23.258-1.688-38.146-24.408-38.146-24.408
		s21.832,25.417,43.144,18.644c-6.655-1.217-11.199-12.413-19.845-20.561c-4.802-4.53-14.562-8.233-21.439-11.525
		C90.844,128.764,84.864,121.961,84.864,121.961"/>
	<path fill="#426D2C" d="M177.118,52.706l-2.2-1.655l-2.287-1.554c-0.378-0.254-0.755-0.53-1.147-0.77l-1.176-0.719
		c-0.784-0.472-1.561-0.966-2.367-1.423c-1.619-0.864-3.217-1.801-4.886-2.556c-0.835-0.392-1.655-0.813-2.505-1.176L158,41.793
		c-6.818-2.817-14.064-4.603-21.419-5.438c-7.362-0.879-14.834-0.595-22.153,0.566c-0.922,0.116-1.822,0.327-2.737,0.508
		c-0.908,0.189-1.822,0.349-2.723,0.574c-1.786,0.472-3.609,0.879-5.366,1.474c-0.879,0.283-1.772,0.545-2.65,0.842
		c-0.61,0.225-1.263,0.334-1.917,0.312C57.7,39.629,23.088,83.157,37.348,134.288c0.218,0.791,1.314,0.9,1.67,0.152
		c5.968-12.452,21.085-16.62,36.703-25.188c16.547-9.076,33.654-23.097,41.023-57.15c0.029-0.138,0.051-0.269,0.08-0.407
		c0.24-1.438-1.263-2.549-2.556-1.859c-1.358,0.726-2.708,1.474-4.044,2.236c-3.376,1.924-6.702,3.964-9.969,6.085
		c-1.641,1.06-3.267,2.142-4.879,3.238c-1.612,1.104-3.209,2.222-4.799,3.362c-3.173,2.28-6.288,4.64-9.352,7.079
		c-3.057,2.44-6.041,4.966-8.945,7.595c-2.904,2.621-5.714,5.351-8.357,8.241c-1.329,1.438-2.607,2.919-3.826,4.458
		c-0.675,0.857-1.329,1.728-1.96,2.621c-0.073,0.109-0.232,0-0.167-0.109c0.559-0.944,1.147-1.866,1.764-2.781
		c1.096-1.634,2.273-3.224,3.492-4.778c2.44-3.108,5.061-6.077,7.776-8.953c2.723-2.868,5.54-5.649,8.437-8.35
		c2.897-2.701,5.859-5.322,8.894-7.878c1.518-1.278,3.042-2.541,4.596-3.783c1.547-1.234,3.108-2.461,4.69-3.667
		c2.142-1.634,4.32-3.231,6.535-4.792l0.225-0.094c0.762-0.283,1.539-0.537,2.309-0.813c1.525-0.574,3.115-0.966,4.683-1.438
		c0.784-0.232,1.59-0.385,2.382-0.581c0.799-0.174,1.59-0.399,2.403-0.523c6.433-1.213,13.048-1.67,19.611-1.082
		c6.556,0.545,13.084,1.939,19.292,4.284l2.323,0.886c0.77,0.305,1.518,0.661,2.28,0.995c1.539,0.632,2.991,1.438,4.48,2.171
		c0.733,0.385,1.445,0.813,2.171,1.22l1.082,0.617c0.363,0.203,0.704,0.443,1.053,0.661l2.106,1.336l2.04,1.445
		c10.79,7.776,19.423,18.602,24.621,30.953c5.206,12.343,6.963,26.146,4.923,39.455l-0.407,2.49l-0.53,2.469l-0.261,1.227
		l-0.334,1.227L199.946,139l-0.784,2.411c-0.131,0.399-0.254,0.806-0.392,1.198l-0.45,1.184l-0.908,2.36l-1.031,2.316l-0.516,1.162
		l-0.574,1.133l-1.14,2.258l-1.256,2.2c-0.218,0.363-0.414,0.741-0.639,1.096l-0.683,1.067c-1.772,2.89-3.834,5.584-5.997,8.197
		c-4.618,5.489-10.078,10.274-16.126,14.195c1.329,0.399,2.636,0.799,3.928,1.213c5.547-3.623,10.637-7.965,15.066-12.917
		c2.352-2.679,4.618-5.453,6.578-8.437l0.755-1.104c0.247-0.37,0.472-0.762,0.704-1.14l1.401-2.287l1.285-2.352l0.639-1.176
		l0.581-1.205l1.162-2.425l1.038-2.469l0.516-1.242c0.16-0.414,0.305-0.842,0.457-1.263l0.908-2.527l0.784-2.578l0.392-1.285
		l0.319-1.307l0.646-2.614l0.516-2.65c2.614-14.144,1.198-29.065-4.052-42.628C197.847,73.82,188.786,61.651,177.118,52.706z
		 M240.061,198.858c-39.978,70.429-124.428,80.188-167.913,34.721c-0.69-0.719-1.503-1.307-2.411-1.721
		c-1.271-0.624-2.519-1.292-3.776-1.939c-0.45-0.218-0.9-0.45-1.343-0.683c-2.048-1.096-4.03-2.331-6.041-3.492
		c-1.213-0.719-2.374-1.532-3.558-2.302c-1.169-0.784-2.374-1.525-3.492-2.389c-0.501-0.356-0.987-0.719-1.481-1.082
		c-8.575-6.368-16.417-13.73-23.024-22.095c-7.021-8.8-12.902-18.508-17.215-28.862l-1.605-3.885c-0.508-1.3-0.944-2.636-1.416-3.95
		c-0.987-2.621-1.699-5.344-2.512-8.016c-0.37-1.343-0.668-2.716-1.009-4.073l-0.486-2.04c-0.167-0.683-0.276-1.372-0.407-2.055
		l-0.784-4.124l-0.581-4.153c-2.897-22.182,0.501-45.024,9.555-65.26c9.025-20.25,23.648-37.865,41.778-50.31l3.427-2.294
		l3.521-2.127l1.764-1.06l1.815-0.973l3.63-1.931l3.718-1.75c0.617-0.29,1.234-0.595,1.859-0.871l1.902-0.784l3.797-1.547
		l3.87-1.365l1.939-0.675l1.96-0.581l3.935-1.162l3.986-0.958c0.661-0.16,1.321-0.334,1.989-0.472l2.011-0.378
		c5.351-1.111,10.79-1.677,16.221-2.033c21.782-1.256,43.724,3.805,62.74,14.071c19.03,10.245,35.186,25.718,45.888,44.349
		c0.712,1.133,1.321,2.331,1.953,3.514c0.617,1.191,1.292,2.352,1.859,3.565c1.125,2.432,2.323,4.828,3.289,7.333
		c1.031,2.469,1.997,4.966,2.824,7.508c0.85,2.541,1.619,5.104,2.287,7.689c2.701,10.347,3.964,21.042,3.754,31.686
		c-0.102-10.644-1.692-21.252-4.683-31.425c-0.733-2.549-1.576-5.061-2.49-7.551c-0.893-2.49-1.931-4.93-3.02-7.333
		c-1.024-2.447-2.28-4.778-3.456-7.137c-0.595-1.184-1.3-2.302-1.939-3.456c-0.661-1.14-1.292-2.302-2.026-3.405
		c-11.073-17.992-27.315-32.565-46.012-41.924C155.96,8.306,134.759,4.131,114.087,5.953c-5.155,0.494-10.303,1.176-15.335,2.389
		l-1.895,0.421c-0.632,0.145-1.249,0.334-1.873,0.501l-3.739,1.024l-3.681,1.205l-1.844,0.61l-1.808,0.69l-3.609,1.394l-3.543,1.576
		l-1.764,0.784c-0.581,0.283-1.154,0.581-1.728,0.879l-3.449,1.743l-3.347,1.924l-1.677,0.958l-1.626,1.046l-3.238,2.098
		l-3.137,2.244c-16.605,12.147-29.646,28.92-37.4,47.819c-7.769,18.893-10.187,39.84-6.963,59.814l0.632,3.739l0.82,3.703
		c0.145,0.61,0.261,1.234,0.421,1.844l0.501,1.83c0.349,1.213,0.646,2.44,1.024,3.645c0.813,2.389,1.51,4.821,2.476,7.152
		c0.472,1.169,0.886,2.367,1.387,3.521l1.547,3.449c4.153,9.192,9.686,17.695,16.162,25.333c4.378,5.22,9.301,9.947,14.594,14.188
		c2.505,2.004,5.083,3.906,7.733,5.7c1.009,0.741,2.098,1.35,3.151,2.018c0.182,0.102,0.356,0.211,0.53,0.319
		c0.886,0.545,1.757,1.111,2.665,1.619c2.207,1.169,4.342,2.454,6.615,3.471c1.125,0.53,2.236,1.096,3.369,1.605l0.349,0.145
		c4.073,0.69,8.147,1.307,12.234,1.844c3.006,0.399,6.019,0.755,9.032,1.082s6.026,0.61,9.047,0.864
		c6.034,0.501,12.075,0.857,18.123,1.053c6.041,0.203,12.096,0.232,18.137,0.058c6.041-0.182,12.082-0.566,18.072-1.3
		c2.999-0.363,5.983-0.82,8.945-1.401c1.648-0.327,3.289-0.69,4.908-1.096c0.196-0.051,0.138-0.334-0.058-0.305
		c-1.648,0.29-3.304,0.523-4.959,0.719c-2.977,0.349-5.961,0.574-8.953,0.704c-5.976,0.269-11.966,0.189-17.934-0.094
		c-5.968-0.283-11.929-0.77-17.869-1.423c-5.939-0.653-11.857-1.459-17.745-2.411c-2.948-0.472-5.888-0.98-8.822-1.525
		c-2.926-0.545-5.852-1.125-8.764-1.743c-5.823-1.227-11.617-2.599-17.331-4.146c-2.273-0.617-4.538-1.263-6.789-1.939
		c-0.392-0.109-0.719-0.305-0.987-0.537c-1.227-1.067-1.242-3.144,0.247-4.204c0.08-0.058,0.16-0.116,0.24-0.167
		c0.094-0.065,0.189-0.131,0.283-0.189c8.466-5.438,16.526-9.729,24.222-13.069c0.283-0.123,0.552-0.24,0.835-0.356
		c32.688-13.919,58.798-10.557,81.059-4.139c0.603,0.174,1.205,0.356,1.808,0.537c1.438,0.428,2.853,0.864,4.255,1.314
		c23.314,7.413,42.432,16.874,60.794,10.405C239.619,196.476,240.679,197.761,240.061,198.858"/>
</g>
</svg>
