<?xml version="1.0" encoding="utf-8"?>
<!-- Generator: Adobe Illustrator 24.3.0, SVG Export Plug-In . SVG Version: 6.00 Build 0)  -->
<svg version="1.1" id="Layer_3" xmlns="http://www.w3.org/2000/svg" xmlns:xlink="http://www.w3.org/1999/xlink" x="0px" y="0px"
	 viewBox="0 0 197.501 218.334" enable-background="new 0 0 197.501 218.334" xml:space="preserve">
<g>
	<path fill-rule="evenodd" clip-rule="evenodd" fill="#D64C9E" d="M160.37,23.182l-3.229,3.031l0.474,2.078
		c-15.495,17.266-25.729,25.427-28.719,21.078c-2.385-8.26-1.193-16.427,2.562-24.531l3.188-1.5l0.62-7.104l-4.901,5.156l1,3.458
		c-4.052,6.833-8.406,12.885-13.38,17.307c-5.245,4.656-6.844,5.312-10.234-2.016c-2.51-5.422-3.37-12.693-5.062-19.042l4.297-5.036
		L101.375,0L95.76,16.062l4.292,5.036c-1.688,6.344-2.547,13.62-5.057,19.042c-3.391,7.328-4.99,6.672-10.234,2.016
		c-4.979-4.422-9.333-10.474-13.38-17.307l1-3.453l-4.901-5.161l0.615,7.104l3.193,1.505c3.755,8.099,4.948,16.266,2.562,24.526
		c-2.99,4.349-13.224-3.812-28.724-21.078l0.479-2.078l-3.234-3.031l0.641,4.396l1.917,0.771l22.078,38.635l-6.781-18.771
		c0.135,0.115,0.276,0.224,0.411,0.339c3.458,2.781,9.516,7.286,14.104,4.604c0.781-0.458,1.432-1.078,1.943-1.823l0.312-0.464
		l0.156-0.536c0.927-3.203,1.359-6.391,1.365-9.542c1.26,1.401,2.583,2.724,3.969,3.958c2.333,2.073,5.292,4.802,8.661,4.302
		c3.646-0.536,5.578-4.448,6.969-7.453c1.542-3.328,2.464-7.042,3.26-10.682c0.792,3.641,1.714,7.354,3.255,10.682
		c1.391,3.005,3.323,6.917,6.969,7.453c3.375,0.5,6.328-2.229,8.661-4.302c1.385-1.234,2.708-2.557,3.969-3.958
		c0.005,3.151,0.438,6.339,1.365,9.542l0.156,0.536l0.312,0.464c0.516,0.745,1.161,1.365,1.943,1.823
		c4.594,2.682,10.646-1.823,14.104-4.604c0.135-0.115,0.276-0.224,0.411-0.339l-5.948,17.38l21.25-37.245l1.911-0.771L160.37,23.182
		z"/>
	<path fill-rule="evenodd" clip-rule="evenodd" fill="#D64C9E" d="M89.781,37.521c0.396,1.812,0.844,3.651,1.448,5.406
		c0.401-0.531,0.948-1.422,1.672-2.911c-1.099-4.078-1.703-8.708-3.12-12.438c-1.526,4.026-2.109,9.115-3.391,13.411
		c0.568,0.505,1.318,1.151,2.031,1.693C88.984,41,89.406,39.25,89.781,37.521z"/>
	<path fill-rule="evenodd" clip-rule="evenodd" fill="#D64C9E" d="M112.927,37.521c0.38,1.734,0.802,3.495,1.37,5.182
		c0.708-0.536,1.458-1.182,2.031-1.688c-1.286-4.302-1.87-9.401-3.401-13.438c-1.411,3.714-2.01,8.323-3.104,12.391
		c0.719,1.49,1.266,2.385,1.672,2.927C112.093,41.151,112.531,39.323,112.927,37.521z"/>
	<path fill-rule="evenodd" clip-rule="evenodd" fill="#D64C9E" d="M133.385,47.938c0.417-2.76,1.135-5.661,1.203-8.255
		c-1.62,1.724-3.042,4.016-4.526,6.12c0.135,0.766,0.307,1.526,0.505,2.292c0.453-0.594,0.885-1.203,1.307-1.807
		c-0.135,0.745-0.26,1.5-0.354,2.26C131.984,48.484,132.588,48.312,133.385,47.938z"/>
	<path fill-rule="evenodd" clip-rule="evenodd" fill="#D64C9E" d="M72.682,45.802c-1.49-2.104-2.906-4.396-4.531-6.12
		c0.073,2.589,0.786,5.495,1.208,8.255c0.792,0.37,1.401,0.547,1.865,0.604c-0.099-0.755-0.224-1.51-0.354-2.26
		c0.422,0.609,0.854,1.219,1.307,1.807C72.375,47.333,72.547,46.568,72.682,45.802z"/>
	<path fill="#D64C9E" d="M195.302,158.557c-0.333,0.229-2.099,1.224-3.922,2.208c-1.823,0.984-4.219,2.354-5.323,3.047
		c-1.109,0.693-2.677,1.495-3.49,1.786c-0.812,0.286-1.568,0.672-1.682,0.859c-0.115,0.188-0.505,1.214-0.87,2.281
		c-1.594,4.661-3.318,8.188-6.969,14.214c-3.786,6.255-5.359,8.406-9.542,12.984c-8.146,8.922-18.271,16.005-29.031,20.292
		c-2.901,1.156-3.531,1.38-5.26,1.833c-0.979,0.26-1.406,0.349-0.938,0.198c1.87-0.604,8.552-3.589,11.474-5.12
		c17.458-9.177,30.932-24.141,38.042-42.245c0.401-1.021,0.724-2.094,0.714-2.38c-0.016-0.396-0.62-1.115-2.547-3.016
		c-1.385-1.37-2.589-2.479-2.672-2.458c-0.078,0.016-0.516,1.333-0.974,2.922c-0.99,3.427-2.573,7.672-4.266,11.406
		c-1.521,3.365-6.417,11.552-8.625,14.432c-4.677,6.089-10.135,11.516-16.146,16.057c-1.594,1.198-6.786,4.51-6.938,4.417
		c-0.052-0.031,0.188-0.255,0.531-0.505c0.349-0.245,1.682-1.188,2.964-2.099c12.094-8.568,21.88-20.589,27.557-33.849
		c2.281-5.318,4.828-13.552,4.474-14.448c-0.068-0.177-1.12-1.812-2.333-3.646c-2.344-3.521-2.677-4.224-2.198-4.599
		c0.464-0.354,1.568-0.031,3.646,1.068c1.042,0.552,1.974,0.964,2.068,0.917c0.094-0.052,0.26-0.786,0.365-1.635l0.188-1.547
		l-0.953-0.885c-3.021-2.802-5.135-6.792-5.344-10.083c-0.125-2.005,0.922-1.953,4.375,0.234c1.469,0.932,2.026,1.203,2.13,1.031
		c0.234-0.391-0.036-4.302-0.594-8.62c-0.328-2.51-0.344-2.547-1.443-3.766c-2.557-2.833-4.505-6.599-5.74-11.099
		c-0.484-1.766-0.568-2.469-0.349-2.828c0.406-0.661,1.219-0.771,2.042-0.271c0.932,0.562,1.068,0.203,0.469-1.245
		c-7.005-17-19.156-30.844-34.797-39.641c-7.354-4.141-13.818-6.62-22.125-8.49c-14.573-3.286-30.104-2.297-44.198,2.807
		c-3.812,1.38-5.151,2.01-7.865,3.714c-8.391,5.266-16.13,12.505-22,20.578c-2.318,3.193-7.12,11.469-8.562,14.76
		c-1.776,4.052-3.318,8.542-4.438,12.917l-0.474,1.854l1.182,0.542c2.385,1.104,4.453,3.12,7.391,7.203
		c0.802,1.115,1.922,2.568,2.484,3.224c1.021,1.193,1.198,1.797,0.568,1.948c-0.422,0.104-5.104-1.901-6.755-2.891
		c-2.078-1.24-2.87-2.344-4.542-6.328c-0.25-0.583-0.542-1.083-0.656-1.109c-0.37-0.073-1.552,8.167-1.25,8.75
		c0.068,0.141,0.88,0.401,1.797,0.578c2.094,0.401,4.797,1.917,5.974,3.344c2.37,2.875,8.057,10.604,8.01,10.88
		c-0.115,0.625-0.833,0.505-4.031-0.651c-6.714-2.432-9.229-4.802-11.484-10.828c-0.146-0.391-0.349-0.693-0.453-0.667
		c-0.37,0.089-0.208,9.385,0.214,12.016l0.146,0.943l1.755,0.766c1.292,0.568,2.167,1.089,3.297,1.979
		c3.542,2.781,4.635,4.609,8.359,13.995c2.25,5.672,2.344,6.422,0.75,6.078c-1.203-0.255-5.177-3.865-7.151-6.495
		c-2.75-3.667-4.516-7.052-5.771-11.073c-0.323-1.036-0.635-1.807-0.693-1.719c-0.188,0.312,0.802,5.281,1.714,8.615
		c1.016,3.714,3.161,9.74,3.547,9.974c0.141,0.083,1.052,0.406,2.036,0.724c2.141,0.688,3.901,1.714,5.172,3.021
		c1.828,1.875,5.63,7.172,5.536,7.708c-0.167,0.922-1.052,0.839-3.776-0.354c-1.698-0.745-3.542-2.026-5.016-3.484l-0.401-0.396
		l0.203,0.646c0.266,0.833,3.333,5.745,5.292,8.464c4.573,6.354,10.776,12.62,17.469,17.651c4.406,3.312,11.484,7.307,17.047,9.625
		c1.964,0.818,2.13,0.917,2.24,1.38c0.286,1.208-1.578,0.635-8.276-2.557c-3.052-1.448-12.141-7.208-14.807-9.37
		c-10.24-8.328-17.906-18.073-23.318-29.635c-0.63-1.339-1.219-2.484-1.312-2.542s-0.646,0.672-1.229,1.62
		c-0.583,0.943-1.406,2.083-1.833,2.526c-0.938,0.974-0.927,1.021,0.797,4.26c1.234,2.318,1.458,2.583,1.76,2.078
		c0.323-0.542,0.87-2.604,0.807-3.036c-0.073-0.469,0.391-0.896,0.74-0.688c0.495,0.302,1.896,2.672,2.229,3.771
		c0.427,1.422,0.286,3.391-0.318,4.396c-0.25,0.417-0.453,0.901-0.448,1.078c0.01,0.427,2.552,3.885,4.818,6.557
		c5.891,6.943,11.953,12.099,20.146,17.125c3.234,1.99,4.297,2.714,3.891,2.661c-0.984-0.135-10.682-6.146-13.464-8.354
		c-5.255-4.167-10.26-9.182-14.193-14.229c-0.964-1.229-1.833-2.292-1.938-2.354c-0.109-0.062-0.328-0.016-0.49,0.109
		c-0.406,0.312-1.38,1.99-1.766,3.031c-0.599,1.63-1.583,1.542-1.891-0.167c-0.276-1.573-0.005-3.542,0.927-6.635
		c0.25-0.823,0.198-1.052-0.568-2.365c-0.458-0.797-1.24-2.193-1.729-3.099s-0.995-1.714-1.125-1.792
		c-0.146-0.089-0.677,0.318-1.349,1.031c-1.714,1.823-1.911,2.057-3.24,3.823c-0.688,0.906-1.365,1.677-1.51,1.708
		c-0.615,0.151-0.703-0.609-0.271-2.339c0.984-3.917,1.479-5.307,2.693-7.542l1.229-2.26l-1.255-3.594
		c-0.693-1.979-1.583-4.771-1.974-6.208c-0.453-1.656-0.823-2.594-1.005-2.547c-0.464,0.109-3.776,2.719-6.781,5.333
		c-1.531,1.339-2.969,2.458-3.193,2.49c-1.594,0.234-1.021-3.385,1.062-6.755c1.13-1.823,3.151-3.943,6.161-6.458
		c0.724-0.604,1.406-1.245,1.521-1.432c0.109-0.182,0.062-1.828-0.109-3.656s-0.328-4.281-0.349-5.448
		c-0.021-1.167-0.12-2.177-0.229-2.245c-0.406-0.26-8.422,1.693-10.255,2.5c-1.052,0.458-2.005,0.839-2.125,0.839
		s-0.276-0.219-0.339-0.495c-0.094-0.375,0.016-0.661,0.464-1.188c2.474-2.927,5.964-5.177,10.552-6.807
		c0.969-0.344,1.833-0.75,1.927-0.901c0.094-0.156,0.297-1.51,0.458-3.016c0.156-1.505,0.422-3.484,0.583-4.406
		c0.161-0.922,0.229-1.714,0.146-1.76c-0.188-0.115-2.526,0.677-4.932,1.667c-2.526,1.047-3.161,0.729-2.083-1.026
		c0.885-1.443,3.37-3.146,6.302-4.318c0.849-0.339,1.62-0.74,1.714-0.896c0.094-0.151,0.641-1.818,1.208-3.698
		c6.422-21.12,20.943-38.599,40.328-48.542c1.255-0.646,4.068-2.089,6.245-3.208c10.724-5.516,20.474-8.453,31.516-9.5
		c20.547-1.948,41.359,3.99,57.776,16.479c8.646,6.573,16.328,15.245,21.521,24.281c0.693,1.208,1.339,2.182,1.432,2.161
		c0.089-0.026,0.255-0.417,0.365-0.88c1.266-5.302,1.849-6.661,2.708-6.292c0.646,0.276,1.51,2.526,1.865,4.859
		c0.401,2.656,0.667,9.031,0.51,12.13c-0.125,2.438-0.068,2.833,0.87,5.927c0.552,1.823,1.172,4.062,1.375,4.974
		c0.203,0.917,0.427,1.651,0.5,1.63c0.073-0.016,0.385-0.745,0.693-1.62c0.443-1.24,1.328-2.849,4.016-7.281
		c1.896-3.13,3.651-5.849,3.896-6.042c0.995-0.771,1.755,0.068,2.208,2.443c0.786,4.125-0.562,7.339-5.885,14.005
		c-1.464,1.833-2.948,3.807-3.297,4.385c-0.599,0.995-0.63,1.182-0.438,3.094c0.245,2.526,0.448,7.312,0.385,9.234
		c-0.026,0.792,0.01,1.474,0.078,1.516c0.073,0.042,0.51-0.318,0.979-0.792c0.469-0.479,2.135-1.766,3.714-2.854
		c1.573-1.094,3.615-2.651,4.542-3.458c2.458-2.156,2.49-2.177,2.932-1.818c0.781,0.641-0.042,3.927-1.656,6.609
		c-1.552,2.578-2.776,3.583-6.359,5.214c-1.589,0.724-3.214,1.406-3.62,1.521c-0.406,0.109-0.786,0.286-0.849,0.385
		s-0.266,1.484-0.458,3.078c-0.193,1.594-0.682,4.422-1.094,6.286c-0.411,1.865-0.682,3.427-0.604,3.474s0.625-0.302,1.219-0.776
		c0.589-0.469,1.75-1.172,2.578-1.557c2.797-1.302,9.047-2.542,9.729-1.932C196.468,157.224,196.104,157.995,195.302,158.557z
		 M180.484,162.677c0.859-3.177,1.448-5.958,1.318-6.214c-0.047-0.099-0.953-0.531-2.005-0.953
		c-1.057-0.427-2.531-1.146-3.276-1.599c-1.615-0.979-1.661-0.943-1.865,1.422l-0.135,1.578l1.615,2.667
		c0.891,1.469,1.974,3.417,2.401,4.328c0.432,0.911,0.833,1.693,0.901,1.729C179.63,165.75,179.734,165.458,180.484,162.677z
		 M183.073,147.672c0.37-4.609,0.38-10.859,0.026-11.323c-0.089-0.115-0.573-0.302-1.073-0.411
		c-1.401-0.302-3.354-1.151-5.151-2.234c-0.891-0.547-1.703-0.948-1.802-0.896c-0.099,0.047-0.078,1.062,0.042,2.26
		c0.208,2.031,0.406,5.776,0.438,8.214c0.016,0.922,0.156,1.229,1.036,2.26c1.542,1.807,3.104,4.047,4.307,6.182
		c0.599,1.057,1.172,1.974,1.276,2.036C182.442,153.927,182.734,151.969,183.073,147.672z M182.37,128.734
		c-0.51-3.068-1.203-6.219-2.016-9.161l-0.604-2.172l-1.359-0.974c-2.885-2.062-4.146-5.495-3.781-10.323
		c0.115-1.458-0.359-2.458-3.656-7.75c-5.094-8.172-11.302-15.005-19.505-21.474c-2.667-2.104-12.146-7.776-15.505-9.276
		c-13.979-6.245-29.073-8.521-43.875-6.62c-3.12,0.401-6.984,1.12-7.453,1.385c-0.453,0.255-0.328,0.255,2.755,0.016
		c14.214-1.12,27.286,1.208,41.036,7.302c3.354,1.484,12.135,6.729,14.667,8.755c8.792,7.047,14.635,13.385,19.698,21.37
		c3.859,6.094,6.438,11.531,8.76,18.495c0.167,0.49,1.042,1.693,2.188,3.005c1.052,1.208,3.401,4.068,5.219,6.365
		c1.818,2.292,3.417,4.24,3.557,4.323C182.87,132.229,182.849,131.635,182.37,128.734z M24.354,167.672
		c-1.12-3.198-2.198-7.094-2.854-10.276c-0.333-1.63-0.646-3.016-0.693-3.078c-0.047-0.068-0.641,0.781-1.312,1.885
		c-0.797,1.302-1.573,2.328-2.224,2.932l-0.995,0.927l1.047,4.078c1.094,4.276,2.375,8.078,2.807,8.344
		c0.141,0.083,0.516-0.062,0.828-0.328c0.318-0.266,1.328-0.885,2.255-1.38c0.922-0.495,1.714-0.948,1.755-1.005
		C25.015,169.708,24.734,168.766,24.354,167.672z M19.984,147.042c-0.115-1.505-0.229-4.01-0.25-5.562
		c-0.016-1.557-0.042-2.891-0.057-2.964c-0.047-0.281-0.651,0.203-1.312,1.047c-0.375,0.479-1.38,1.333-2.234,1.901l-1.552,1.031
		l0.026,2.333c0.031,2.927,0.432,8.036,0.651,8.286c0.161,0.182,4.495-2.62,4.797-3.099
		C20.135,149.88,20.104,148.542,19.984,147.042z M20.099,132.693c0.109-1.302,0.312-3.099,0.453-3.995
		c0.141-0.901,0.245-1.781,0.224-1.969c-0.021-0.245-0.635-0.188-2.255,0.214c-1.224,0.297-2.255,0.594-2.292,0.661
		c-0.25,0.406-1.349,8.521-1.234,9.078c0.052,0.255,4.469-0.974,4.693-1.302C19.807,135.203,19.989,133.995,20.099,132.693z
		 M21.724,122.375c2.609-12.453,9.375-25.839,18.172-35.943c0.911-1.047,1.651-1.953,1.635-2.01
		c-0.078-0.328-3.182,2.547-5.865,5.438c-6.75,7.276-12.417,16.479-15.969,25.938c-1.188,3.172-2.401,7-2.323,7.339
		c0.062,0.286,3.917,0.755,4.073,0.5C21.458,123.625,21.578,123.057,21.724,122.375z"/>
	<path fill="#D64C9E" d="M86.499,207.399c4.673-5.254,2.385-14.441-5.807-17.983c-8.23-3.561-18.128-0.99-22.39-1.318
		c-4.986-0.387-7.529-3.696-6.872-7.457c0.521-2.979,2.501-9.621,2.947-12.816c0.512-3.702-2.043-5.626-1.681-8.371
		c0.228-1.719,1.804-2.656,3.682-3.096c-1.932-0.956-3.194-2.364-2.665-4.784c0.739-3.326,4.819-6.877,5.305-9.984
		c0.82-5.232-4.6-8.149-3.481-12.163c1.17-4.17,12.264-4.731,20.732-9.376c8.869-4.855,4.47-20.018,15.997-32.551
		c-5.61,12.276-4.555,26.902,3.299,44.58c3.745,8.395,12.646,22.347,14.854,33.263C113.609,181.025,107.839,200.05,86.499,207.399z"
		/>
	<path fill="#D64C9E" d="M123.956,213.268c34.819-61.163-36.455-86.669-21.178-131.032c1.054,18.19,24.046,36.24,37.542,57.156
		C159.773,169.525,153.211,196.127,123.956,213.268z"/>
</g>
</svg>
