<?xml version="1.0" encoding="utf-8"?>
<!-- Generator: Adobe Illustrator 24.3.0, SVG Export Plug-In . SVG Version: 6.00 Build 0)  -->
<svg version="1.1" id="Layer_2" xmlns="http://www.w3.org/2000/svg" xmlns:xlink="http://www.w3.org/1999/xlink" x="0px" y="0px"
	 viewBox="0 0 204.924 268.781" enable-background="new 0 0 204.924 268.781" xml:space="preserve">
<g>
	<path fill="#845729" d="M40.075,211.607c0.151-0.064,0.252-0.169,0.311-0.32c0.055-0.151,0.055-0.297-0.014-0.444
		c-2.795-5.932-11.577-7.666-19.604-3.86c-6.82,3.229-10.909,9.404-10.292,14.824c0.027,0.247,0.16,0.416,0.393,0.503
		c0.229,0.087,0.439,0.05,0.622-0.119C21.253,213.556,31.823,215.043,40.075,211.607z"/>
	<path fill="#845729" d="M11.359,224.287c-0.123,0.087-0.151,0.197-0.082,0.334c2.795,5.978,11.559,7.652,19.65,3.847
		c7.19-3.426,11.398-10.168,10.113-15.812c-0.037-0.156-0.123-0.265-0.27-0.329s-0.288-0.059-0.425,0.023
		C32.034,216.803,17.607,219.671,11.359,224.287z"/>
	<path fill="#845729" d="M143.714,235.738c-0.33,0.149-0.614,0.355-0.854,0.626c-0.241,0.267-0.414,0.572-0.524,0.917
		c-0.109,0.345-0.147,0.696-0.108,1.058c0.042,0.356,0.149,0.692,0.331,1.004c0.429,0.733,0.922,1.417,1.48,2.052
		c6.598,7.774,20.463,6.809,30.962-2.154c6.822-5.817,10.54-13.625,10.524-20.455c-0.006-0.247-0.075-0.47-0.212-0.678
		c-0.135-0.203-0.32-0.354-0.546-0.449c-0.227-0.095-0.462-0.123-0.704-0.076c-0.241,0.047-0.454,0.157-0.63,0.326
		C170.396,230.465,155.37,230.509,143.714,235.738z"/>
	<path fill="#845729" d="M181.7,215.588c0.455-0.309,0.834-0.692,1.132-1.157c0.3-0.461,0.496-0.965,0.594-1.506
		c0.093-0.544,0.078-1.086-0.046-1.621c-0.126-0.539-0.345-1.029-0.671-1.477c-0.211-0.287-0.438-0.577-0.667-0.858
		c-6.597-7.76-20.463-6.795-30.965,2.16c-7.008,5.985-10.741,13.999-10.501,20.994c0.009,0.192,0.041,0.381,0.096,0.565
		c0.059,0.183,0.136,0.359,0.236,0.522c0.102,0.167,0.225,0.311,0.364,0.444c0.139,0.133,0.294,0.246,0.461,0.339
		c0.167,0.093,0.345,0.163,0.534,0.209c0.184,0.048,0.373,0.069,0.569,0.069c0.189-0.003,0.379-0.031,0.566-0.082
		c0.186-0.051,0.36-0.121,0.528-0.219C155.172,227.488,172.203,222.016,181.7,215.588z"/>
	<path fill="#845729" d="M56.02,234.574c0.11-0.233,0.119-0.467,0.032-0.709c-0.091-0.238-0.256-0.407-0.489-0.508
		c-0.27-0.11-0.544-0.192-0.828-0.252c-3.403-0.677-6.93,2.529-7.854,7.209c-0.316,1.34-0.338,2.685-0.078,4.03
		c0.261,1.349,0.787,2.584,1.578,3.71c0.119,0.142,0.265,0.188,0.444,0.137s0.279-0.165,0.311-0.348
		C49.973,241.677,53.998,238.466,56.02,234.574z"/>
	<path fill="#845729" d="M50.078,248.09c-0.064,0.178-0.087,0.361-0.078,0.553c0.014,0.188,0.059,0.37,0.146,0.54
		c0.082,0.169,0.201,0.316,0.343,0.439c0.146,0.123,0.306,0.215,0.489,0.27c0.123,0,0.242,0.064,0.366,0.082
		c3.408,0.682,6.934-2.525,7.849-7.213c0.329-1.372,0.352-2.744,0.069-4.121c-0.284-1.381-0.846-2.635-1.688-3.76
		c-0.087-0.105-0.192-0.178-0.316-0.224c-0.128-0.046-0.256-0.059-0.389-0.037c-0.133,0.023-0.247,0.073-0.352,0.16
		c-0.105,0.087-0.178,0.192-0.229,0.316C54.689,239.234,51.277,244.339,50.078,248.09z"/>
	<path fill="#845729" d="M127.1,99.864c-0.677,1.4-1.555,2.658-2.63,3.778c-1.075,1.121-2.296,2.049-3.664,2.786
		c1.903-2.378,3.362-5.004,4.386-7.876c1.02-2.868,1.551-5.827,1.583-8.878c0.165-16.306-17.788-22.321-18.63-35.458
		c-0.444-6.998,1.605-9.83,2.776-13.859c-3.49,0.901-15.172,8.306-14.957,23.442c0.279,19.097,16.357,21.539,18.022,31.556
		c0.183,1.144,0.297,2.296,0.343,3.453c-4.766-0.261-9.743-0.407-14.87-0.407h-2.031c0.174,1.967-0.663,5.169-1.798,7.565
		c0.192-3.449-0.334-6.783-1.583-10.008c-2.9-6.015-9.66-9.194-10.9-17.221c-0.691-4.505,1.052-6.463,1.843-9.111
		c-2.301,0.585-10.003,5.471-9.889,15.451c0.11,7.213,3.65,10.818,6.856,13.859c-25.514,1.702-44.139,7.049-44.139,13.379
		c0,7.698,27.595,13.946,61.639,13.946c34.049,0,61.635-6.248,61.635-13.946C161.113,106.849,147.262,102.128,127.1,99.864z"/>
</g>
<g>
	<path fill="#5D382C" d="M114.473,255.72c-0.119,0.027-0.205,0.092-0.265,0.195c-0.059,0.097-0.076,0.205-0.043,0.319
		c1.313,4.573,7.432,6.832,13.593,5.027c5.248-1.508,8.88-5.464,9.059-9.405c0.011-0.178-0.065-0.319-0.216-0.411
		c-0.157-0.092-0.308-0.086-0.465,0.005C128.164,256.499,120.748,254.234,114.473,255.72z"/>
	<path fill="#5D382C" d="M136.477,249.97c0.092-0.049,0.124-0.124,0.097-0.222c-1.319-4.573-7.437-6.832-13.583-5.032
		c-5.578,1.611-9.329,5.956-9.064,10.145c0.011,0.113,0.059,0.2,0.157,0.265c0.092,0.065,0.195,0.076,0.303,0.043
		C120.824,252.932,131.477,252.548,136.477,249.97z"/>
	<path fill="#5D382C" d="M22.506,178.556c0.014-0.114-0.014-0.215-0.082-0.306c-0.073-0.091-0.165-0.142-0.279-0.151
		c-4.629-0.389-8.81,4.405-9.34,10.717c-0.439,5.347,1.889,10.063,5.393,11.604c0.165,0.078,0.316,0.055,0.453-0.055
		c0.142-0.114,0.188-0.256,0.151-0.43C17.013,190.855,21.697,184.84,22.506,178.556z"/>
	<path fill="#5D382C" d="M20.068,200.753c0.009,0.11,0.069,0.169,0.178,0.178c4.629,0.38,8.8-4.414,9.331-10.717
		c0.467-5.681-2.182-10.639-6.093-11.856c-0.11-0.032-0.206-0.018-0.297,0.046c-0.091,0.069-0.142,0.156-0.146,0.27
		C22.836,185.353,19.464,195.274,20.068,200.753z"/>
	<path fill="#5D382C" d="M61.289,226.99c-0.064-0.069-0.146-0.101-0.238-0.101c-0.096,0-0.174,0.032-0.238,0.101
		c-2.529,2.822-1.487,7.89,2.328,11.334c3.234,2.914,7.424,3.714,10.163,2.173c0.123-0.064,0.188-0.169,0.188-0.311
		c0-0.142-0.064-0.247-0.188-0.311C66.526,236.572,64.948,230.599,61.289,226.99z"/>
	<path fill="#5D382C" d="M74.421,239.459c0.064,0.059,0.133,0.059,0.197,0c2.525-2.813,1.482-7.89-2.328-11.325
		c-3.435-3.092-7.945-3.81-10.653-1.866c-0.069,0.059-0.105,0.133-0.105,0.224c0,0.091,0.037,0.165,0.105,0.22
		C65.836,230.091,70.584,237.153,74.421,239.459z"/>
	<path fill="#5D382C" d="M99.139,91.288c-1.683,0-3.353,0-5.009,0c1.052,1.244,1.926,2.598,2.625,4.066h2.694
		c3.97,0,7.844,0.078,11.632,0.224c-0.531-1.601-1.409-2.978-2.63-4.135C105.41,91.334,102.291,91.288,99.139,91.288z"/>
</g>
<g>
	<path fill="#391C10" d="M204.46,149.03c-1.798-12.533-11.028-21.315-23.007-23.282c0-1.029,0.046-2.045,0.046-3.083
		c0-4.4-0.732-13.004-0.732-13.013c-0.878-7.726-21.878-14.298-51.33-17.002c-0.142,1.409-0.393,2.799-0.746,4.171
		c24.009,2.571,40.654,8.215,40.654,14.76c0,9.015-31.3,16.229-69.895,16.229c-38.591,0-69.863-7.213-69.863-16.229
		c0-7.03,19.156-13.018,45.983-15.328c-0.892-1.253-1.605-2.603-2.136-4.048c-32.512,2.534-55.991,9.605-55.991,17.953v12.505
		c0,37.351,17.358,69.918,42.877,86.664c0.393,11.883,17.761,21.448,39.149,21.448c21.393,0,38.751-9.564,39.154-21.448
		c7.007-4.647,13.201-10.209,18.58-16.681c1.798,0.16,3.559,0.242,5.274,0.242c13.978,0,26.264-5.201,34.159-14.811
		c1.637-2.008,3.051-4.162,4.236-6.468c1.18-2.305,2.113-4.711,2.786-7.218c0.677-2.502,1.079-5.05,1.217-7.639
		C205.009,154.167,204.872,151.587,204.46,149.03z M187.5,167.23c-4.492,5.411-11.458,8.837-19.655,9.875
		c6.184-11.302,10.255-23.323,12.213-36.066c6.834,1.18,11.028,5.736,11.755,10.685c0.22,1.372,0.284,2.749,0.206,4.139
		c-0.082,1.386-0.306,2.749-0.677,4.085c-0.375,1.336-0.883,2.621-1.532,3.847C189.165,165.026,188.392,166.169,187.5,167.23z"/>
	<path fill="#391C10" d="M101.216,266.308c0.101,0.133,0.238,0.21,0.403,0.224c0.169,0.018,0.316-0.032,0.439-0.142
		c5.123-4.505,4.341-13.804-1.743-20.789c-5.169-5.914-12.492-8.27-17.724-6.097c-0.242,0.096-0.375,0.274-0.398,0.535
		c-0.023,0.256,0.078,0.457,0.297,0.59C93.897,247.971,95.434,259.045,101.216,266.308z"/>
	<path fill="#391C10" d="M80.363,241.101c-0.123-0.101-0.247-0.101-0.37,0c-5.123,4.51-4.341,13.804,1.743,20.784
		c5.493,6.308,13.402,8.544,18.671,5.64c0.142-0.078,0.224-0.201,0.247-0.361c0.023-0.16-0.018-0.302-0.133-0.421
		C93.737,259.726,86.753,246.05,80.363,241.101z"/>
	<path fill="#391C10" d="M57.378,216.657c0.064,0,0.114-0.027,0.156-0.078c0.041-0.046,0.055-0.101,0.041-0.165
		c-0.348-2.534-3.408-4.204-6.829-3.723c-2.904,0.407-5.141,2.218-5.539,4.309c-0.018,0.096,0.009,0.174,0.087,0.238
		c0.078,0.059,0.16,0.069,0.247,0.023C50.161,215.198,53.925,216.982,57.378,216.657z"/>
	<path fill="#391C10" d="M45.253,218.02c-0.059,0.014-0.087,0.055-0.073,0.114c0.352,2.525,3.408,4.194,6.834,3.719
		c3.083-0.425,5.393-2.447,5.58-4.688c0.009-0.064-0.009-0.114-0.055-0.156c-0.046-0.041-0.101-0.059-0.16-0.046
		C53.792,217.659,48.102,217.073,45.253,218.02z"/>
	<path fill="#391C10" d="M4.196,207.363c-0.023,0.082-0.014,0.156,0.027,0.229c0.046,0.073,0.105,0.119,0.188,0.142
		c3.353,0.8,6.948-2.237,8.037-6.802c0.897-3.865-0.261-7.579-2.699-9.102c-0.11-0.069-0.22-0.073-0.334-0.005
		c-0.11,0.064-0.165,0.16-0.16,0.293C9.589,198.969,5.491,202.844,4.196,207.363z"/>
	<path fill="#391C10" d="M8.455,191.367c0-0.078-0.041-0.124-0.114-0.142c-3.344-0.805-6.939,2.241-8.027,6.797
		c-0.979,4.112,0.412,8.041,3.138,9.368c0.073,0.037,0.146,0.037,0.224,0c0.073-0.037,0.119-0.101,0.133-0.183
		C4.718,202.34,8.295,195.434,8.455,191.367z"/>
	<path fill="#391C10" d="M60.946,258.285c-0.059,0.059-0.091,0.133-0.091,0.215c0,0.087,0.032,0.16,0.091,0.22
		c2.475,2.479,7.19,1.802,10.561-1.605c2.859-2.859,3.801-6.71,2.516-9.322c-0.059-0.119-0.16-0.174-0.293-0.174
		c-0.128,0-0.229,0.055-0.288,0.174C70.071,253.894,64.468,255.065,60.946,258.285z"/>
	<path fill="#391C10" d="M73.173,246.708c0.05-0.059,0.05-0.119,0-0.178c-2.475-2.488-7.19-1.807-10.561,1.596
		c-3.033,3.037-3.911,7.209-2.25,9.788c0.05,0.069,0.119,0.105,0.206,0.105c0.082,0,0.151-0.037,0.201-0.105
		C64.057,254.21,70.808,250.153,73.173,246.708z"/>
	<path fill="#391C10" d="M29.445,244.769c-0.069,0.055-0.11,0.123-0.119,0.206c-0.009,0.087,0.014,0.165,0.073,0.229
		c2.255,2.703,7.026,2.36,10.657-0.723c3.074-2.612,4.341-6.362,3.275-9.079c-0.046-0.124-0.137-0.192-0.27-0.21
		c-0.133-0.014-0.233,0.037-0.306,0.146C38.899,241.156,33.219,241.851,29.445,244.769z"/>
	<path fill="#391C10" d="M42.531,234.203c0.05-0.059,0.05-0.119,0-0.178c-2.255-2.708-7.03-2.365-10.662,0.718
		c-3.261,2.767-4.492,6.834-3.046,9.569c0.041,0.073,0.101,0.119,0.183,0.133c0.087,0.014,0.16-0.005,0.22-0.064
		C32.885,240.963,39.915,237.487,42.531,234.203z"/>
	<path fill="#391C10" d="M104.683,238.187c-0.215-0.059-0.421-0.032-0.613,0.087c-0.192,0.123-0.311,0.293-0.348,0.517
		c-0.046,0.252-0.064,0.503-0.064,0.759c0,3.065,3.398,5.525,7.552,5.507c1.208,0.032,2.365-0.188,3.476-0.659
		c1.111-0.476,2.077-1.153,2.895-2.045c0.105-0.128,0.119-0.261,0.041-0.407c-0.073-0.146-0.192-0.21-0.357-0.197
		C111.818,242.148,108.388,239.244,104.683,238.187z"/>
	<path fill="#391C10" d="M117.33,240.922c0.165,0.014,0.325,0,0.485-0.05c0.156-0.05,0.297-0.128,0.425-0.233
		c0.128-0.105,0.229-0.233,0.302-0.38c0.078-0.146,0.123-0.302,0.137-0.467c0-0.105,0-0.224,0-0.334
		c0-3.065-3.398-5.525-7.552-5.507c-1.23-0.041-2.415,0.188-3.545,0.677c-1.134,0.485-2.109,1.194-2.927,2.118
		c-0.073,0.091-0.119,0.197-0.137,0.316c-0.014,0.114-0.005,0.229,0.041,0.338c0.041,0.11,0.105,0.201,0.197,0.279
		c0.096,0.073,0.197,0.119,0.316,0.137C108.918,238.503,113.904,240.515,117.33,240.922z"/>
	<path fill="#391C10" d="M37.216,195.324c-0.059-0.169-0.174-0.288-0.338-0.361c-0.165-0.073-0.329-0.069-0.494,0.005
		c-0.183,0.078-0.357,0.178-0.521,0.288c-2.017,1.377-2.131,4.725-0.261,7.456c0.512,0.814,1.166,1.487,1.967,2.017
		c0.8,0.531,1.679,0.869,2.625,1.02c0.128,0.014,0.224-0.041,0.284-0.156c0.064-0.11,0.055-0.22-0.023-0.32
		C37.829,201.846,38.2,198.247,37.216,195.324z"/>
	<path fill="#391C10" d="M41.081,204.929c0.133,0.242,0.325,0.403,0.59,0.476c0.261,0.078,0.512,0.046,0.75-0.091l0.224-0.142
		c2.013-1.381,2.131-4.716,0.261-7.456c-0.521-0.832-1.198-1.514-2.026-2.045c-0.828-0.535-1.729-0.864-2.699-0.997
		c-0.096-0.005-0.183,0.014-0.265,0.055c-0.087,0.037-0.156,0.096-0.21,0.174c-0.05,0.078-0.082,0.16-0.091,0.256
		c-0.009,0.091,0.005,0.178,0.046,0.265C38.918,198.274,39.796,202.491,41.081,204.929z"/>
	<path fill="#391C10" d="M45.753,0c0,0-32.886,4.268-5.421,43.837c27.47,39.569,2.713,46.953,2.713,46.953
		s23.584-2.729,10.244-35.703S24.599,10.726,45.753,0"/>
	<path fill="#391C10" d="M42.998,82.851c4.473-5.887,7.353-18.493-14.062-41.857C14.459,25.197,12.762,14.717,15.339,7.945
		c-4.818,6.395-5.992,17.723,11.507,36.814C44.48,64.001,45.637,75.948,42.998,82.851"/>
	<path fill="#391C10" d="M55.206,90.79c0,0,11.868-7.217,7.736-34.892C58.815,28.23,81,19.436,81,19.436S67.75,27.685,70.117,55.113
		C72.49,82.536,55.206,90.79,55.206,90.79"/>
	<path fill="#391C10" d="M146.379,38.872c0,0-18.806,2.441-3.1,25.068c15.709,22.627,1.551,26.85,1.551,26.85
		s13.487-1.56,5.858-20.417C143.06,51.517,134.282,45.006,146.379,38.872"/>
	<path fill="#391C10" d="M144.803,86.25c2.558-3.366,4.205-10.575-8.042-23.936c-8.278-9.033-9.249-15.026-7.775-18.898
		c-2.755,3.657-3.426,10.135,6.58,21.052C145.651,75.471,146.313,82.303,144.803,86.25"/>
	<path fill="#391C10" d="M151.785,90.79c0,0,6.787-4.127,4.424-19.953c-2.36-15.823,10.327-20.851,10.327-20.851
		s-7.577,4.717-6.224,20.402C161.668,86.07,151.785,90.79,151.785,90.79"/>
</g>
</svg>
