<?xml version="1.0" encoding="utf-8"?>
<!-- Generator: Adobe Illustrator 24.3.0, SVG Export Plug-In . SVG Version: 6.00 Build 0)  -->
<svg version="1.1" id="Layer_4" xmlns="http://www.w3.org/2000/svg" xmlns:xlink="http://www.w3.org/1999/xlink" x="0px" y="0px"
	 viewBox="0 0 220.56 220.327" enable-background="new 0 0 220.56 220.327" xml:space="preserve">
<g>
	<path fill="#8C7831" d="M102.603,55.164c-5.316-6.264-5.464-13.146-0.418-17.822c4.753-4.405,11.883-4.271,16.441,0.31
		c4.818,4.842,4.57,11.731-0.623,17.304c8.142,6.359,20.172,9.361,30.239,7.713c7.427-1.215,14.799-2.67,22.107-4.46
		c0.375-0.092,0.773-0.091,1.285,0.136c-2.794,1.564-5.579,3.144-8.384,4.689c-6.474,3.567-13.09,6.826-19.964,9.572
		c-4.823,1.926-9.588,2.07-14.46,0.306c-3.095-1.121-6.243-2.097-9.333-3.232c-0.942-0.346-1.348-0.073-2.114,0.533
		c-2.021,1.599-2.157,3.598-2.144,5.912c0.074,13.095,0.147,26.191,0.008,39.285c-0.157,14.811,4.121,28.064,13.194,39.791
		c2.654,3.431,5.126,7.003,7.83,10.716c-17.41,0-34.548,0-51.963,0c2.916-4.009,5.701-7.901,8.551-11.746
		c8.252-11.13,12.408-23.632,12.472-37.464c0.066-14.285,0.017-28.571,0.018-42.857c0-0.787-2.375-4.43-3.045-4.484
		c-0.486-0.039-1.004,0.245-1.499,0.413c-3.305,1.121-6.606,2.254-9.91,3.376c-4.571,1.552-9.038,1.259-13.522-0.507
		c-8.866-3.491-17.263-7.906-25.515-12.626c-0.951-0.544-1.898-1.096-2.716-1.99c2.593,0.576,5.189,1.14,7.779,1.731
		c6.501,1.486,13.057,2.652,19.678,3.459c4.496,0.548,8.764-0.063,12.951-1.884C93.965,59.417,98.37,57.494,102.603,55.164z"/>
	<path fill="#87732A" d="M174.634,171.257c-32.769,34.792-92.417,37.575-128.531,0.246
		C47.531,170.973,168.762,170.721,174.634,171.257z"/>
	<path fill="#8C7831" d="M175.941,74.509c4.043,12.403,8.084,24.807,12.133,37.209c0.204,0.625,0.549,1.238,0.38,1.908
		c-1.873,7.444-4.926,14.147-12.117,17.949c-5.337,2.823-10.409,1.804-14.964-1.828c-5.084-4.054-7.57-9.704-9.118-15.837
		c-0.121-0.479-0.043-1.067,0.114-1.548c4.729-14.513,9.48-29.019,14.499-43.449c-1.623,5.971-3.236,11.945-4.87,17.913
		c-2.263,8.264-4.545,16.522-6.813,24.784c-0.216,0.785-0.764,1.643,0.848,1.635c9.787-0.051,19.574-0.036,29.361-0.048
		c0.118,0,0.235-0.075,0.478-0.157c-3.523-12.827-7.048-25.659-10.572-38.489C175.514,74.54,175.727,74.524,175.941,74.509z"/>
	<path fill="#8C7831" d="M45.118,74.813c-3.233,11.884-6.467,23.769-9.701,35.652c-0.069,0.254-0.137,0.511-0.24,0.753
		c-0.653,1.531-0.371,2.074,1.495,2.052c9.054-0.103,18.11-0.044,27.166-0.043c0.586,0,1.172,0,1.967,0
		C61.747,98.4,57.737,83.746,53.728,69.091c0.095-0.03,0.189-0.061,0.284-0.091c1.371,4.165,2.747,8.328,4.111,12.495
		c3.278,10.015,6.54,20.036,9.842,30.044c0.386,1.168,0.465,2.247,0.102,3.445c-1.57,5.174-3.758,9.964-7.754,13.787
		c-5.977,5.717-14.07,5.768-20.073,0.11c-4.341-4.091-6.625-9.257-8.101-14.899c-0.231-0.884,0.116-1.561,0.35-2.282
		c4.068-12.527,8.16-25.045,12.247-37.563C44.862,74.364,44.99,74.589,45.118,74.813z"/>
</g>
<g>
	<path fill="#381E05" d="M110.617,220.327C48.088,220.349-1.719,169.013,0.045,107.039C1.775,46.313,52.1-1.575,113.357,0.04
		c58.375,1.539,107.651,49.419,107.199,110.798C220.1,172.913,169.547,220.272,110.617,220.327z M110.097,206.605
		c51.325,0.236,96.414-40.74,96.778-96.077c0.347-52.845-42.487-96.691-96.2-96.914c-51.651-0.215-96.389,40.761-96.955,95.711
		C13.163,163.345,56.909,206.515,110.097,206.605z"/>
	<circle fill="#381E05" cx="110.018" cy="45.893" r="12.003"/>
</g>
</svg>
