<?xml version="1.0" encoding="utf-8"?>
<!-- Generator: Adobe Illustrator 24.3.0, SVG Export Plug-In . SVG Version: 6.00 Build 0)  -->
<svg version="1.1" id="Layer_3" xmlns="http://www.w3.org/2000/svg" xmlns:xlink="http://www.w3.org/1999/xlink" x="0px" y="0px"
	 viewBox="0 0 269.005 251.968" enable-background="new 0 0 269.005 251.968" xml:space="preserve">
<g>
	<polygon fill="#425462" points="255.297,170.162 216.417,164.64 216.417,164.64 252.945,147.507 	"/>
	<polygon fill="#425462" points="4.51,106.015 39.976,89.15 39.976,89.15 0,83.688 	"/>
</g>
<g>
	<polygon fill="#E25205" points="265.126,40.56 269.005,83.067 46.299,187.528 39.13,146.565 	"/>
</g>
<g>
	<polygon fill="#AE1585" points="230.503,0 234.382,42.506 11.676,146.968 4.507,106.005 	"/>
</g>
<g>
	<polygon fill="#CFB500" points="249.066,105 252.945,147.507 30.239,251.968 23.07,211.005 	"/>
</g>
<g>
	<path opacity="0.19" fill="#F9F8F7" enable-background="new    " d="M9.311,133.587c-0.362-2.045-4.915-27.805-4.915-27.805
		l181.748-85.26L9.311,133.587z"/>
	<path opacity="0.19" fill="#F9F8F7" enable-background="new    " d="M265.992,55.005c0.367,2.044,2.981,28.146,2.981,28.146
		L86.995,168.44L265.992,55.005z"/>
	<path opacity="0.19" fill="#F9F8F7" enable-background="new    " d="M27.925,238.878c-0.362-2.045-4.915-27.805-4.915-27.805
		l181.748-85.26L27.925,238.878z"/>
</g>
</svg>
