<?xml version="1.0" encoding="utf-8"?>
<!-- Generator: Adobe Illustrator 24.3.0, SVG Export Plug-In . SVG Version: 6.00 Build 0)  -->
<svg version="1.1" id="Layer_1" xmlns="http://www.w3.org/2000/svg" xmlns:xlink="http://www.w3.org/1999/xlink" x="0px" y="0px"
	 viewBox="0 0 908.197 466.423" enable-background="new 0 0 908.197 466.423" xml:space="preserve">
<g>
	<path fill="#427D6B" d="M873.825,138.98l-138.311,70.182c-15.782,8.008-26.406,23.494-28.198,41.101l-5.139,50.504l92.334-36.464
		c39.923-15.766,72.008-46.656,89.277-85.953l24.409-55.545l-29.984,14.08L873.825,138.98z"/>
	<path fill="#427D6B" d="M34.372,138.98l138.311,70.182c15.782,8.008,26.407,23.494,28.198,41.101l5.139,50.504l-92.334-36.464
		c-39.923-15.766-72.008-46.656-89.277-85.953L0,122.807l29.984,14.08L34.372,138.98z"/>
	<path fill="#427D6B" d="M487.381,129.532c-134.256-25.39-229.122,115.666-165.647,225.059
		c36.59,62.128,100.256,88.108,165.647,75.749C651.385,391.076,649.238,168.27,487.381,129.532z M335.419,346.969
		c-23.727-40.738-22.19-95.981,0-134.067c74.549-125.73,256.176-72.36,258.512,67.034
		C591.573,420.55,409.442,471.815,335.419,346.969z"/>
	<path fill="#427D6B" d="M497.318,267.493c-0.168-0.61-1.474-4.231-2.253-5.705c-0.505-0.905-0.779-1.874-1.326-2.737
		c-0.568-0.842-1.095-1.684-1.579-2.569c-8.611-12.042-18.295-18.485-34.633-19.621c-1.895-0.147-1.179-0.168-3.074,0
		c-1.221,0.084-3.011,0.126-3.011,0.126c-2.442,0.463-7.263,0.526-15.727,4.842c-0.084,0.042-4.042,2.463-4.211,2.611
		c-2.99,2.611-4.99,2.253-13.263,14.611c-0.295,0.463-1.958,3.832-2.526,5.537c-0.295,0.989-0.8,1.895-1.074,2.905
		c-10.337,34.991,25.79,68.823,61.602,50.549c0.716-0.379,1.368-0.884,2.084-1.284c0.674-0.484,1.495-0.758,2.147-1.348
		c1.305-1.137,2.905-1.958,4.148-3.347c2.884-2.295,5.221-5.474,7.537-8.695c0.484-0.863,1.011-1.726,1.579-2.568
		c0.547-0.842,0.821-1.832,1.326-2.716l0.716-1.368l0.484-1.453c0.295-0.968,0.779-1.895,1.053-2.884
		C499.571,284.757,499.739,275.62,497.318,267.493z M456.075,311.474c-17.411,0-31.538-14.106-31.538-31.517
		c0-17.411,14.127-31.538,31.538-31.538c17.411,0,31.517,14.127,31.517,31.538C487.591,297.368,473.486,311.474,456.075,311.474z"/>
</g>
<g>
	<path fill="#231F20" d="M645.482,184.187l-13.31,149.695c-1.568,17.636-9.821,34.006-23.068,45.754l-97.857,86.787
		c19.352,0,38.256-5.824,54.253-16.716l88.775-60.443c13.479-9.177,22.171-23.882,23.711-40.116l10.634-112.035
		c1.674-17.632,12.208-33.199,27.954-41.309l81.398-41.921c42.463-21.869,75.186-58.86,91.71-103.674L908.197,0L645.482,184.187z
		 M846.728,104.614"/>
	<path fill="#231F20" d="M262.715,184.187l13.31,149.695c1.568,17.636,9.821,34.006,23.068,45.754l97.857,86.787
		c-19.352,0-38.256-5.824-54.252-16.716l-88.775-60.443c-13.479-9.177-22.171-23.882-23.712-40.116l-10.634-112.035
		c-1.674-17.632-12.208-33.2-27.954-41.309l-81.398-41.921c-42.463-21.869-75.185-58.86-91.71-103.674L0,0L262.715,184.187z
		 M846.728,104.614"/>
	<path fill="#231F20" d="M698.187,365.661l86.996-27.835c13.935-4.459,25.5-14.319,32.105-27.375l24.044-47.521l-101.115,43.124
		c-23.97,10.223-40.189,33.018-41.989,59.014L698.187,365.661z"/>
	<path fill="#231F20" d="M210.009,365.661l-86.996-27.835c-13.935-4.459-25.5-14.32-32.106-27.375L66.864,262.93l101.115,43.124
		c23.97,10.223,40.189,33.018,41.989,59.014L210.009,365.661z"/>
	<path fill="#231F20" d="M448.158,149.764h12.971v68.771h-12.971V149.764z M394.502,288.119h-69.567v-12.971h69.567V288.119z
		 M461.129,410.107h-12.971v-68.56h12.971V410.107z M586.205,288.157h-68.818v-12.971h68.818V288.157z"/>
</g>
</svg>
