<?xml version="1.0" encoding="utf-8"?>
<!-- Generator: Adobe Illustrator 24.3.0, SVG Export Plug-In . SVG Version: 6.00 Build 0)  -->
<svg version="1.1" id="Layer_2" xmlns="http://www.w3.org/2000/svg" xmlns:xlink="http://www.w3.org/1999/xlink" x="0px" y="0px"
	 viewBox="0 0 188.066 188.066" enable-background="new 0 0 188.066 188.066" xml:space="preserve">
<g>
	<path fill="#0F9880" d="M91.126,141.99H56.302c-7.636,0-13.848-6.212-13.848-13.848V97.775c0-7.636,6.212-13.848,13.848-13.848
		h34.824v8.146H56.302c-3.144,0-5.702,2.558-5.702,5.702v30.367c0,3.144,2.558,5.702,5.702,5.702h34.824V141.99z"/>
	<path fill="#0F9880" d="M131.764,104.139H96.94v-8.146h34.824c3.144,0,5.702-2.558,5.702-5.702V59.923
		c0-3.144-2.558-5.702-5.702-5.702H96.94v-8.146h34.824c7.636,0,13.848,6.212,13.848,13.848v30.368
		C145.612,97.927,139.4,104.139,131.764,104.139z"/>
</g>
<g>
	<circle fill="#FFE497" cx="61.087" cy="64.707" r="14.559"/>
	<circle fill="#FFE497" cx="119.239" cy="123.359" r="14.559"/>
</g>
<g>
	<path fill="#4F496C" d="M188.066,188.066H0V0h188.066V188.066z M17.106,170.959h153.853V17.106H17.106V170.959z"/>
</g>
</svg>
