<?xml version="1.0" encoding="utf-8"?>
<!-- Generator: Adobe Illustrator 24.3.0, SVG Export Plug-In . SVG Version: 6.00 Build 0)  -->
<svg version="1.1" id="Layer_1" xmlns="http://www.w3.org/2000/svg" xmlns:xlink="http://www.w3.org/1999/xlink" x="0px" y="0px"
	 viewBox="0 0 225.962 208.92" enable-background="new 0 0 225.962 208.92" xml:space="preserve">
<g>
	<path fill="#2A0B3D" d="M133.284,208.92H24.579l0-150.677c0.031-4.26,2.372-8.177,6.11-10.222l85.208-46.575
		c2.751-1.505,5.925-1.849,8.938-0.967c3.012,0.882,5.5,2.883,7.007,5.637c0.949,1.735,1.447,3.696,1.442,5.672V208.92z
		 M38.679,194.821h80.506V15.717L38.679,59.722V194.821z M119.184,11.768c0,0.004,0,0.008,0,0.011V11.768z"/>
	<path fill="#2A0B3D" d="M199.314,208.92h-79.66V43.369l74.138,42.41c3.466,2.166,5.53,5.9,5.522,9.987V208.92z M133.754,194.821
		h51.462V97.109l-51.462-29.434V194.821z M185.215,95.751c0,0.003,0,0.006,0,0.01V95.751z"/>
	<path fill="#2A0B3D" d="M94.652,77.94H61.566c-3.893,0-7.05-3.156-7.05-7.05s3.156-7.05,7.05-7.05h33.086
		c3.893,0,7.05,3.156,7.05,7.05S98.545,77.94,94.652,77.94z"/>
	<path fill="#2A0B3D" d="M167.779,113.422h-16.543c-3.893,0-7.05-3.156-7.05-7.05s3.156-7.05,7.05-7.05h16.543
		c3.893,0,7.05,3.156,7.05,7.05S171.673,113.422,167.779,113.422z"/>
	<path fill="#2A0B3D" d="M167.779,134.524h-16.543c-3.893,0-7.05-3.156-7.05-7.05s3.156-7.05,7.05-7.05h16.543
		c3.893,0,7.05,3.156,7.05,7.05S171.673,134.524,167.779,134.524z"/>
	<path fill="#2A0B3D" d="M167.779,157.13h-16.543c-3.893,0-7.05-3.156-7.05-7.05c0-3.893,3.156-7.05,7.05-7.05h16.543
		c3.893,0,7.05,3.156,7.05,7.05C174.829,153.973,171.673,157.13,167.779,157.13z"/>
	<path fill="#2A0B3D" d="M167.779,178.184h-16.543c-3.893,0-7.05-3.156-7.05-7.05s3.156-7.05,7.05-7.05h16.543
		c3.893,0,7.05,3.156,7.05,7.05S171.673,178.184,167.779,178.184z"/>
	<path fill="#2A0B3D" d="M94.652,104.164H61.566c-3.893,0-7.05-3.156-7.05-7.05s3.156-7.05,7.05-7.05h33.086
		c3.893,0,7.05,3.156,7.05,7.05S98.545,104.164,94.652,104.164z"/>
	<path fill="#2A0B3D" d="M94.652,130.012H61.566c-3.893,0-7.05-3.156-7.05-7.05s3.156-7.05,7.05-7.05h33.086
		c3.893,0,7.05,3.156,7.05,7.05S98.545,130.012,94.652,130.012z"/>
	<path fill="#2A0B3D" d="M94.652,155.861H61.566c-3.893,0-7.05-3.156-7.05-7.05c0-3.893,3.156-7.05,7.05-7.05h33.086
		c3.893,0,7.05,3.156,7.05,7.05C101.702,152.704,98.545,155.861,94.652,155.861z"/>
	<path fill="#2A0B3D" d="M94.652,181.709H61.566c-3.893,0-7.05-3.156-7.05-7.05c0-3.893,3.156-7.05,7.05-7.05h33.086
		c3.893,0,7.05,3.156,7.05,7.05C101.702,178.553,98.545,181.709,94.652,181.709z"/>
	<path fill="#2A0B3D" d="M218.912,208.92H7.05c-3.893,0-7.05-3.156-7.05-7.05c0-3.893,3.156-7.05,7.05-7.05h211.863
		c3.893,0,7.05,3.156,7.05,7.05C225.962,205.764,222.806,208.92,218.912,208.92z"/>
</g>
</svg>
