<?xml version="1.0" encoding="utf-8"?>
<!-- Generator: Adobe Illustrator 26.0.1, SVG Export Plug-In . SVG Version: 6.00 Build 0)  -->
<svg version="1.1" id="Layer_4" xmlns="http://www.w3.org/2000/svg" xmlns:xlink="http://www.w3.org/1999/xlink" x="0px" y="0px"
	 viewBox="0 0 237.295 171.8" enable-background="new 0 0 237.295 171.8" xml:space="preserve">
<g>
	<path d="M37.578,133.443c0,6.805,13.105,12.322,22.621,12.322c6.756,0,12.603-2.781,15.427-6.829
		c1.54-2.208,4.041-3.545,6.729-3.412l119.006,2.723c2.577,0.128,4.934-1.704,5.216-4.269c0.306-2.784-1.794-5.212-4.551-5.348
		c-0.158-0.008-0.322-0.007-0.477,0l-119.194,2.732c-2.689,0.133-5.189-1.204-6.729-3.412c-2.824-4.048-8.671-6.828-15.427-6.828
		C50.683,121.122,37.578,126.638,37.578,133.443z"/>
	<path d="M205.649,116.727c1.562-0.617,1.1-2.949-0.579-2.949h-22.529c-0.697,0-1.262-0.565-1.262-1.262
		c0-0.697,0.565-1.262,1.262-1.262h22.508c0.499,0,0.966-0.241,1.255-0.648l0.016-0.022c0.72-1.016-0.005-2.42-1.25-2.42h-22.529
		c-0.697,0-1.262-0.565-1.262-1.262c0-0.697,0.565-1.262,1.262-1.262h22.53c1.245,0,1.97-1.405,1.25-2.42l-0.021-0.03
		c-0.285-0.402-0.748-0.641-1.241-0.641h-22.518c-0.697,0-1.262-0.565-1.262-1.262c0-0.697,0.565-1.262,1.262-1.262h22.529
		c1.679,0,2.141-2.331,0.579-2.949c-3.961-1.566-17.761-2.495-21.665-2.495c-6.754,0-12.605,2.781-15.428,6.829
		c-1.54,2.209-4.038,3.546-6.727,3.412l-119.007-2.722c-2.577-0.128-4.931,1.7-5.214,4.267c-0.305,2.787,1.791,5.209,4.551,5.348
		c0.155,0.005,0.321,0.005,0.476,0l119.195-2.733c2.69-0.134,5.187,1.203,6.727,3.412c2.824,4.049,8.674,6.829,15.428,6.829
		C187.889,119.222,201.688,118.293,205.649,116.727z"/>
</g>
<g>
	<path fill="#FCAE00" d="M236.31,160.705H0.985c-1.225,0-1.349,2.015-0.135,2.199c78.175,11.861,157.42,11.861,235.596,0
		C237.659,162.72,237.534,160.705,236.31,160.705z"/>
	<path fill="#FCAE00" d="M129.265,8.871c0.096-0.408,0.158-0.825,0.158-1.252c0-4.208-4.825-7.619-10.776-7.619
		s-10.776,3.411-10.776,7.619c0,0.427,0.062,0.844,0.158,1.252C58.546,12.533,18.148,41.528,6.964,79.639h223.367
		C219.146,41.528,178.749,12.533,129.265,8.871z"/>
</g>
</svg>
