<?xml version="1.0" encoding="utf-8"?>
<!-- Generator: Adobe Illustrator 24.3.0, SVG Export Plug-In . SVG Version: 6.00 Build 0)  -->
<svg version="1.1" id="Layer_3" xmlns="http://www.w3.org/2000/svg" xmlns:xlink="http://www.w3.org/1999/xlink" x="0px" y="0px"
	 viewBox="0 0 228.261 210.519" enable-background="new 0 0 228.261 210.519" xml:space="preserve">
<g>
	<path fill="#22225B" d="M122.956,0C64.826,0.067,17.72,47.173,17.653,105.303c0,0.665,0.06,1.323,0.072,1.986
		c-5.452-3.098-8.827-8.878-8.848-15.149V43.876c0-2.423-1.964-4.388-4.388-4.388s-4.388,1.964-4.388,4.388V92.14
		c0.015,11.436,7.402,21.558,18.288,25.061c0.603,5.373,1.621,10.69,3.045,15.906C5.276,138.222-3.676,155.47,1.44,171.629
		s22.363,25.112,38.523,19.996c4.869-1.542,9.276-4.274,12.823-7.949c43.308,38.779,109.853,35.108,148.633-8.2
		s35.108-109.853-8.2-148.633C173.902,9.547,148.883-0.011,122.956,0z M39.591,166.73h-4.388v4.388c0,2.423-1.964,4.388-4.388,4.388
		s-4.388-1.964-4.388-4.388v-4.388h-4.388c-2.423,0-4.388-1.964-4.388-4.388c0-2.423,1.964-4.388,4.388-4.388h4.388v-4.388
		c0-2.423,1.964-4.388,4.388-4.388s4.388,1.964,4.388,4.388v4.388h4.388c2.423,0,4.388,1.964,4.388,4.388
		C43.979,164.765,42.014,166.73,39.591,166.73z M30.816,131.629c-0.234,0-0.46,0.03-0.693,0.036
		c-1.232-4.329-2.158-8.739-2.77-13.198h16.626c7.981,0.024,14.938,5.434,16.927,13.163H30.816z M122.956,201.831
		c-24.072,0.02-47.273-9.003-65.006-25.281c0.186-0.355,0.418-0.68,0.591-1.044h14.753c7.275,15.317,25.59,21.837,40.907,14.562
		s21.837-25.59,14.562-40.907c-5.087-10.711-15.887-17.535-27.744-17.531H69.91c-2.147-12.652-13.098-21.917-25.931-21.938h-17.39
		c-0.065-1.461-0.161-2.92-0.161-4.388c0-53.311,43.217-96.528,96.528-96.528s96.528,43.217,96.528,96.528
		S176.267,201.831,122.956,201.831z M92.243,166.73c0-2.423,1.964-4.388,4.388-4.388c2.423,0,4.388,1.964,4.388,4.388
		c0,2.423-1.964,4.388-4.388,4.388C94.207,171.117,92.243,169.153,92.243,166.73z M105.406,157.954c0-2.423,1.964-4.388,4.388-4.388
		c2.423,0,4.388,1.964,4.388,4.388c0,2.423-1.964,4.388-4.388,4.388C107.37,162.342,105.406,160.378,105.406,157.954z"/>
	<path fill="#22225B" d="M138.485,75.716c0.467,0.447,1.09,0.675,1.703,0.675c0.613,0,1.226-0.228,1.703-0.675l9.659-9.254
		c0.488-0.467,0.758-1.111,0.758-1.786V42.077c0-1.361-1.101-2.472-2.461-2.472h-19.328c-1.361,0-2.461,1.111-2.461,2.472v22.599
		c0,0.675,0.27,1.319,0.758,1.786L138.485,75.716z"/>
	<path fill="#22225B" d="M133.978,83.994l-9.243-9.7c-0.467-0.488-1.101-0.758-1.786-0.758h-22.547
		c-1.361,0-2.472,1.101-2.472,2.461v19.369c0,1.361,1.111,2.472,2.472,2.472h22.547c0.675,0,1.319-0.28,1.786-0.769l9.243-9.669
		C134.892,86.445,134.892,84.949,133.978,83.994z"/>
	<path fill="#22225B" d="M141.985,95.584c-0.955-0.914-2.451-0.914-3.407,0l-9.659,9.254c-0.488,0.457-0.769,1.111-0.769,1.786
		v22.568c0,1.361,1.111,2.472,2.472,2.472h19.328c1.361,0,2.461-1.111,2.461-2.472v-22.568c0-0.675-0.27-1.319-0.758-1.786
		L141.985,95.584z"/>
	<path fill="#22225B" d="M180.07,73.463h-22.558c-0.675,0-1.319,0.27-1.776,0.758l-9.243,9.669c-0.914,0.955-0.914,2.461,0,3.417
		l9.243,9.669c0.457,0.488,1.101,0.758,1.776,0.758h22.558c1.361,0,2.461-1.101,2.461-2.461V75.924
		C182.531,74.563,181.43,73.463,180.07,73.463z"/>
</g>
</svg>
