<?xml version="1.0" encoding="utf-8"?>
<!-- Generator: Adobe Illustrator 24.3.0, SVG Export Plug-In . SVG Version: 6.00 Build 0)  -->
<svg version="1.1" id="Layer_1" xmlns="http://www.w3.org/2000/svg" xmlns:xlink="http://www.w3.org/1999/xlink" x="0px" y="0px"
	 viewBox="0 0 306.602 344.271" enable-background="new 0 0 306.602 344.271" xml:space="preserve">
<g>
	<path fill="#24346B" d="M52.77,55.395H35.341C63.458,21.545,105.875,0,153.311,0c47.436,0,89.853,21.545,117.971,55.395h-9.785
		c-2.247,0-4.284,0.819-5.271,2.121l-12.074,15.791l-24.442-40.359c-0.966-1.596-3.423-2.562-6.006-2.415
		c-2.604,0.147-4.746,1.407-5.25,3.066l-14.006,45.987l-21.104-58.754c-0.609-1.743-3.003-2.961-5.712-2.961h-0.231
		c-2.814,0.063-5.166,1.428-5.586,3.234l-14.51,60.245l-13.838-51.195c-0.483-1.806-2.898-3.15-5.733-3.15h-0.063
		c-2.814,0-5.229,1.281-5.775,3.087l-13.649,45.315L93.381,41.997c-0.714-1.596-2.919-2.709-5.46-2.751
		c-2.541-0.063-4.851,0.945-5.733,2.499L66.923,69.191l-8.861-11.675C57.054,56.214,55.017,55.395,52.77,55.395z"/>
	<path fill="#24346B" d="M288.564,81.096c-3.36-6.3-7.16-12.35-11.36-18.08h-12.05l-16.34,21.4c-1.03,1.34-3.21,2.2-5.52,2.12
		c-2.33-0.06-4.39-1.01-5.23-2.42l-21.97-36.26l-15.41,50.61c-0.55,1.76-2.9,3.04-5.67,3.06h-0.1c-2.73,0-5.11-1.22-5.74-2.96
		l-20.41-56.86l-15.31,63.56c-0.44,1.85-2.87,3.21-5.75,3.23h-0.06c-2.86,0-5.29-1.32-5.78-3.15l-14.49-53.58l-12.24,40.61
		c-0.5,1.72-2.79,3-5.5,3.08c-2.71,0.09-5.17-1.07-5.92-2.75l-16.61-37.31l-13.82,24.82c-0.8,1.45-2.85,2.43-5.21,2.52
		c-2.37,0.08-4.55-0.76-5.6-2.12l-13.36-17.6h-19.72c-2.85,3.91-5.52,7.94-7.98,12.12c-13.6,22.86-21.41,49.6-21.41,78.15
		c0,84.67,68.64,153.32,153.31,153.32c84.66,0,153.29-68.65,153.29-153.32C306.604,127.186,300.074,102.596,288.564,81.096z
		 M153.304,165.786c-6.9,0-12.48-5.59-12.48-12.48s5.58-12.48,12.48-12.48c6.89,0,12.48,5.59,12.48,12.48
		S160.194,165.786,153.304,165.786z"/>
</g>
<g>
	<path fill="#F3745C" d="M153.304,109.086c-24.43,0-44.23,19.8-44.23,44.22c0,24.43,19.8,44.23,44.23,44.23
		c24.42,0,44.22-19.8,44.22-44.23C197.524,128.886,177.724,109.086,153.304,109.086z M153.304,165.786
		c-6.9,0-12.48-5.59-12.48-12.48s5.58-12.48,12.48-12.48c6.89,0,12.48,5.59,12.48,12.48S160.194,165.786,153.304,165.786z"/>
</g>
<g>
	<g>
		<rect x="60.303" y="288.318" fill="#B7479A" width="20.18" height="7.083"/>
		<rect x="60.303" y="278.087" fill="#B7479A" width="20.18" height="7.083"/>
		<rect x="84.588" y="288.318" fill="#B7479A" width="20.18" height="7.083"/>
		<rect x="84.588" y="278.087" fill="#B7479A" width="20.18" height="7.083"/>
		<rect x="84.588" y="267.857" fill="#B7479A" width="20.18" height="7.083"/>
		<rect x="84.588" y="257.626" fill="#B7479A" width="20.18" height="7.083"/>
		<rect x="84.588" y="247.396" fill="#B7479A" width="20.18" height="7.083"/>
		<rect x="108.873" y="288.318" fill="#B7479A" width="20.181" height="7.083"/>
		<rect x="108.873" y="278.087" fill="#B7479A" width="20.181" height="7.083"/>
		<rect x="108.873" y="267.857" fill="#B7479A" width="20.181" height="7.083"/>
		<rect x="133.158" y="288.318" fill="#B7479A" width="20.18" height="7.083"/>
		<rect x="133.158" y="278.087" fill="#B7479A" width="20.18" height="7.083"/>
		<rect x="133.158" y="267.857" fill="#B7479A" width="20.18" height="7.083"/>
		<rect x="133.158" y="257.626" fill="#B7479A" width="20.18" height="7.083"/>
		<rect x="133.158" y="247.396" fill="#B7479A" width="20.18" height="7.083"/>
		<rect x="133.158" y="237.165" fill="#B7479A" width="20.18" height="7.083"/>
		<rect x="133.158" y="226.935" fill="#B7479A" width="20.18" height="7.083"/>
		<rect x="157.443" y="288.318" fill="#B7479A" width="20.18" height="7.083"/>
		<rect x="157.443" y="278.087" fill="#B7479A" width="20.18" height="7.083"/>
		<rect x="157.443" y="267.857" fill="#B7479A" width="20.18" height="7.083"/>
		<rect x="157.443" y="257.626" fill="#B7479A" width="20.18" height="7.083"/>
		<rect x="157.443" y="247.396" fill="#B7479A" width="20.18" height="7.083"/>
		<rect x="181.728" y="288.318" fill="#B7479A" width="20.18" height="7.083"/>
		<rect x="181.728" y="278.087" fill="#B7479A" width="20.18" height="7.083"/>
		<rect x="206.012" y="288.318" fill="#B7479A" width="20.18" height="7.083"/>
		<rect x="206.012" y="278.087" fill="#B7479A" width="20.18" height="7.083"/>
		<rect x="206.012" y="267.857" fill="#B7479A" width="20.18" height="7.083"/>
		<rect x="206.012" y="257.626" fill="#B7479A" width="20.18" height="7.083"/>
		<rect x="230.297" y="288.318" fill="#B7479A" width="20.18" height="7.083"/>
		<rect x="230.297" y="278.087" fill="#B7479A" width="20.18" height="7.083"/>
	</g>
</g>
<g>
	<polygon fill="#55C7F3" points="300.906,344.271 249.773,344.271 249.773,307.927 300.906,307.927 289.392,326.099 	"/>
	<polygon fill="#55C7F3" points="9.874,307.927 61.008,307.927 61.008,344.271 9.874,344.271 21.389,326.099 	"/>
</g>
<g>
	<rect x="27.004" y="300.251" fill="#1774A5" width="256.773" height="36.344"/>
</g>
</svg>
