<?xml version="1.0" encoding="utf-8"?>
<!-- Generator: Adobe Illustrator 24.3.0, SVG Export Plug-In . SVG Version: 6.00 Build 0)  -->
<svg version="1.1" id="Layer_3" xmlns="http://www.w3.org/2000/svg" xmlns:xlink="http://www.w3.org/1999/xlink" x="0px" y="0px"
	 viewBox="0 0 304.312 188.328" enable-background="new 0 0 304.312 188.328" xml:space="preserve">
<g>
	
		<ellipse transform="matrix(0.4584 -0.8888 0.8888 0.4584 44.8692 277.8022)" fill="#F8C459" cx="250.353" cy="102.089" rx="26.131" ry="26.131"/>
	<path fill="#F8C459" d="M274.147,168.555c-1.18-1.398-3.002-3.167-3.002-3.167s4.646,2.265,6.852,2.912
		c2.199,0.645,2.52-1.499,1.056-2.554c-1.447-1.042-5.675-3.603-5.675-3.603s6.898,1.629,9.035,1.736
		c2.137,0.107,3.025-2.515,0.331-3.411c-2.651-0.882-8.779-2.937-8.779-2.937s5.461,0.737,8.538,0.604
		c3.077-0.132,2.58-3.049,0.461-3.511c-2.119-0.463-10.146-1.292-10.146-1.292c4.245-0.645,4.807-3.33,3.483-3.968
		c-1.325-0.637-7.253,2.209-10.545,0.973c-7.819-5.335-15.639-10.671-23.458-16.006c-4.409-3.008-9.381-5.238-13.442-8.728
		c-5.844-5.024-10.356-12.107-10.661-19.964c-0.269-6.951,2.509-13.535,5.563-19.627c3.483-6.946,6.693-14.039,10.002-21.074
		c1.317-2.8,2.635-5.601,3.952-8.401c2.115-2.809,8.645-3.588,9.421-4.836c0.776-1.249-1.139-3.213-5.068-1.48
		c0,0,6.329-5.006,7.869-6.534c1.54-1.527,0.395-4.255-2.273-2.716c-2.668,1.539-6.881,5.091-6.881,5.091s4.068-5.022,5.833-7.189
		c1.793-2.202-0.363-3.937-2.109-2.701c-1.746,1.236-6.693,6.313-6.693,6.313s2.194-4.43,2.856-6.086
		c0.67-1.676-0.751-3.313-2.261-1.589c-1.515,1.73-4.22,6.134-4.22,6.134s0.588-2.47,0.834-4.283c0.262-1.93-1.13-2.367-2.04-0.937
		c-0.909,1.43-4.651,8.056-8.252,12.965l-50.672,60.266c-9.228,11.539-3.811,28.75,10.362,32.924l74.188,21.847
		c0.124,0.07,0.253,0.138,0.402,0.196c5.673,2.211,12.385,5.795,13.92,6.514C274.463,171.16,275.403,170.043,274.147,168.555z"/>
</g>
<g>
	
		<ellipse transform="matrix(0.6959 -0.7181 0.7181 0.6959 -62.6917 66.6931)" fill="#F06D3D" cx="47.404" cy="107.371" rx="25.32" ry="25.32"/>
	<path fill="#F06D3D" d="M62.898,40.743c0.228,1.758,0.783,4.154,0.783,4.154s-2.596-4.283-4.054-5.968
		c-1.453-1.68-2.84-0.102-2.2,1.526c0.632,1.608,2.732,5.913,2.732,5.913s-4.764-4.947-6.449-6.155
		c-1.685-1.208-3.784,0.461-2.059,2.605c1.697,2.11,5.61,6.999,5.61,6.999s-4.062-3.466-6.638-4.973
		c-2.576-1.507-3.701,1.13-2.218,2.619c1.483,1.489,7.587,6.376,7.587,6.376c-3.797-1.702-5.664,0.19-4.919,1.405
		c0.745,1.214,7.067,2.006,9.101,4.74c3.57,8.449,7.14,16.898,10.71,25.347c2.013,4.764,4.894,9.189,6.37,14.163
		c2.125,7.159,2.084,15.296-1.791,21.856c-3.428,5.804-9.146,9.709-14.83,13.069c-6.482,3.831-12.819,7.924-19.206,11.918
		c-2.542,1.59-5.085,3.18-7.627,4.77c-3.197,1.178-8.924-1.614-10.212-1.004c-1.287,0.61-0.758,3.215,3.352,3.865
		c0,0-7.783,0.757-9.839,1.193c-2.056,0.436-2.554,3.259,0.426,3.405c2.981,0.146,8.277-0.537,8.277-0.537s-5.949,1.956-8.523,2.795
		c-2.616,0.853-1.77,3.398,0.301,3.307c2.071-0.091,8.765-1.63,8.765-1.63s-4.112,2.458-5.52,3.459
		c-1.425,1.014-1.126,3.093,1.008,2.48c2.142-0.615,6.656-2.783,6.656-2.783s-1.775,1.704-2.927,3.051
		c-1.226,1.435-0.321,2.521,1.17,1.833c1.491-0.688,8.015-4.122,13.525-6.231l72.9-22.504c13.572-4.557,18.19-21.42,8.835-32.257
		l-48.97-56.724c-0.064-0.122-0.134-0.245-0.225-0.37c-3.461-4.778-7.048-11.219-7.921-12.61
		C64.007,38.455,62.656,38.871,62.898,40.743z"/>
</g>
<g>
	
		<ellipse transform="matrix(0.7195 -0.6945 0.6945 0.7195 22.0572 108.7356)" fill="#78C0A8" cx="145.629" cy="27.064" rx="27.064" ry="27.063"/>
	<path fill="#78C0A8" d="M218.643,23.188c-1.737,0.756-4.033,2.038-4.033,2.038s3.626-3.937,4.924-5.934
		c1.293-1.99-0.739-2.946-2.22-1.805c-1.463,1.126-5.26,4.561-5.26,4.561s3.665-6.361,4.405-8.449
		c0.74-2.089-1.597-3.748-3.286-1.341c-1.662,2.369-5.521,7.839-5.521,7.839s2.352-5.2,3.135-8.292
		c0.783-3.092-2.259-3.465-3.347-1.5c-1.088,1.965-4.294,9.684-4.294,9.684c0.62-4.404-1.877-5.759-2.903-4.633
		c-1.026,1.125,0.038,7.852-2.165,10.752c-7.615,6.175-15.231,12.349-22.846,18.524c-4.294,3.481-7.982,7.753-12.651,10.746
		c-6.72,4.308-15.087,6.681-22.973,4.651c-6.977-1.796-12.685-6.508-17.823-11.347c-5.858-5.518-11.943-10.809-17.94-16.181
		c-2.387-2.138-4.775-4.277-7.162-6.415c-2.159-2.933-0.993-9.643-2.002-10.783s-3.526,0.177-2.973,4.589
		c0,0-3.088-7.766-4.147-9.748c-1.058-1.981-4.105-1.655-3.37,1.449c0.735,3.104,3.009,8.339,3.009,8.339s-3.775-5.527-5.401-7.921
		c-1.652-2.432-4.015-0.809-3.306,1.291c0.708,2.099,4.276,8.515,4.276,8.515s-3.744-3.492-5.191-4.641
		c-1.464-1.163-3.51-0.238-2.247,1.772c1.267,2.017,4.834,6.008,4.834,6.008s-2.276-1.317-4.002-2.099
		c-1.837-0.833-2.685,0.419-1.535,1.746c1.149,1.327,6.612,7.006,10.414,12.037l44.754,68.169
		c8.709,12.582,27.395,12.317,35.744-0.507l43.702-67.125c0.106-0.102,0.212-0.21,0.313-0.34
		c3.878-4.973,9.427-10.568,10.596-11.878C221.32,23.648,220.492,22.384,218.643,23.188z"/>
	<path fill="#78C0A8" d="M0,188.328c93.666-34.131,194.906-34.996,304.312,0c0,0-88.597-38.125-155.083-42.083
		C97.629,143.174,0,188.328,0,188.328z"/>
</g>
</svg>
