<?xml version="1.0" encoding="utf-8"?>
<!-- Generator: Adobe Illustrator 24.3.0, SVG Export Plug-In . SVG Version: 6.00 Build 0)  -->
<svg version="1.1" id="Layer_2" xmlns="http://www.w3.org/2000/svg" xmlns:xlink="http://www.w3.org/1999/xlink" x="0px" y="0px"
	 viewBox="0 0 369.268 311.107" enable-background="new 0 0 369.268 311.107" xml:space="preserve">
<g>
	<path fill="#4B2314" d="M330.524,63.603c-10.09-15.52-27.83-23.46-45.08-19.54c-7.04,1.6-13.8,4.4-20.63,6.84
		c-2.27,0.81-3.99,0.56-5.73-1.04c-4.43-4.11-9.13-7.94-13.36-12.24c-7.62-7.76-14.72-16.05-22.51-23.64
		c-8.87-8.64-19.46-13.91-32.24-13.98c-3,0.32-6.03,0.51-9,1c-23.97,3.92-38.48,18.42-41.97,41.87c-0.34,2.25,0.08,5.29-1.22,6.53
		c-1.36,1.31-4.38,0.83-6.66,1.24c-17.55,3.13-31.58,11.57-38.73,28.39c-9.61,22.62-5.99,44.07,8.46,63.59
		c6.97,9.42,16.6,14.87,28.6,15.28c2.32,0.08,2.51,1.3,2.65,3.08c0.75,9.74,1.55,19.48,2.36,29.22c0.34,4.14,2.47,6.01,6.53,5.71
		c3.21-0.24,6.42-0.47,9.62-0.83c23.365-2.642,46.78-3.811,70.225-3.401c-28.31,9.697-44.8,40.953-44.8,40.953
		c55.808-19.56,114.903,7.702,114.903,7.702c-2.953-26.979-19.394-40.441-31.712-46.544c8.443,0.749,16.879,1.601,25.325,2.34
		c4.09,0.36,6.26-1.29,6.86-5.37c0.14-1,0.26-2,0.33-3.01c0.82-11.46,1.58-22.92,2.52-34.37c0.08-0.97,1.15-2.41,2.03-2.67
		c12.76-3.7,22.36-11.56,30.25-22C342.274,109.213,343.524,83.613,330.524,63.603z M325.854,108.923
		c-3.3,8.53-8.58,15.71-15.33,21.81c-5.53,5.01-12.19,7.38-19.55,7.79c-3.75,0.21-5.15-1.35-4.15-5c0.66-2.44,1.88-4.91,3.45-6.89
		c5.19-6.54,8.54-13.8,10.04-22.87c-14.25,22.97-33.59,31.35-58.74,22.72c-18.94-6.5-28.44-21.5-31.39-46.67
		c-2.76,6.97-3.38,14.18-2.36,21.62c1.01,7.4,3.92,14.07,8.24,21.06c-5.97,0.35-11.35,0.92-16.74,0.95
		c-13.18,0.06-25.86-2.21-37.6-8.61c-7.13-3.88-12.87-9.16-17.19-16.09c1.4,15.92,11.19,26.6,22.74,36.39
		c-10.42,5.23-20.62,11.04-32.71,11.45c-9.54,0.32-17.87-2.75-23.76-10.35c-11.55-14.88-15.04-31.62-8.81-49.55
		c5.29-15.24,17.27-22.71,32.76-25.09c2.68-0.41,5.43-0.4,8.12-0.74c2.18-0.28,3.21,0.59,4.01,2.61c2.8,7.12,6.94,13.35,13.24,18.18
		c-0.38-0.94-0.79-1.88-1.14-2.83c-2.62-7.29-5.79-14.45-7.74-21.92c-3.39-13,1.22-32.42,18.98-40.43
		c19.18-8.65,32.98-6.32,46.72,6.71c3.28,3.11,6.4,6.43,9.44,9.78c9.16,10.08,18.11,20.32,29.31,28.3
		c11.43,8.14,23.73,13.64,38.03,13.7c1.06,0.01,2.12,0,3.67,0c-1.85-2.09-3.46-3.59-4.7-5.36c-2.7-3.81-1.92-7.29,2.5-8.55
		c4.48-1.28,9.26-1.6,13.93-2.03c1.1-0.1,2.42,0.88,3.45,1.62C327.124,71.133,332.674,91.323,325.854,108.923z"/>
</g>
<g>
	<path fill="#E8A123" d="M216.063,122.492c-5.969,0.356-11.352,0.922-16.737,0.948c-13.178,0.065-25.867-2.206-37.605-8.604
		c-7.122-3.882-12.87-9.162-17.183-16.095c1.391,15.926,11.186,26.605,22.736,36.394c-10.417,5.225-20.623,11.035-32.713,11.446
		c-9.532,0.324-17.868-2.746-23.762-10.344c-11.543-14.882-15.037-31.627-8.81-49.553c5.295-15.242,17.275-22.713,32.764-25.089
		c2.682-0.411,5.427-0.398,8.122-0.741c2.177-0.277,3.212,0.593,4.005,2.611c2.798,7.121,6.942,13.354,13.247,18.179
		c-0.381-0.944-0.794-1.876-1.139-2.833c-2.629-7.291-5.793-14.444-7.743-21.914c-3.393-12.998,1.216-32.425,18.979-40.433
		c19.179-8.646,32.983-6.32,46.718,6.707c3.287,3.118,6.398,6.433,9.447,9.787c9.152,10.071,18.102,20.314,29.305,28.292
		c11.43,8.14,23.727,13.641,38.026,13.706c1.063,0.005,2.127,0.001,3.672,0.001c-1.852-2.088-3.454-3.597-4.7-5.358
		c-2.7-3.815-1.922-7.296,2.502-8.559c4.477-1.278,9.256-1.591,13.93-2.021c1.099-0.101,2.424,0.872,3.455,1.616
		c14.544,10.497,20.092,30.691,13.279,48.286c-3.304,8.532-8.581,15.71-15.333,21.816c-5.535,5.006-12.19,7.379-19.546,7.786
		c-3.751,0.208-5.15-1.353-4.158-5.002c0.663-2.441,1.886-4.91,3.458-6.891c5.187-6.539,8.539-13.794,10.034-22.863
		c-14.245,22.967-33.591,31.346-58.742,22.718c-18.94-6.497-28.441-21.503-31.388-46.676c-2.762,6.972-3.377,14.186-2.363,21.623
		C208.83,108.836,211.742,115.506,216.063,122.492z"/>
	<path fill="#E8A123" d="M234.094,157.333c-1.58-0.28-3.14-0.6-4.7-0.97c-4.93-1.15-10.02-1.53-15.08-1.13
		c-48.44,3.77-83.4,40.79-99.04,97.86c68.73-10.62,135.84-10.63,201.16,1.22C303.264,209.543,285.654,166.703,234.094,157.333z
		 M177.034,232.633c0,0,25.34-48.04,67.13-43.49c0.94,0.11,1.88,0.19,2.82,0.24c5.49,0.34,40.51,10.34,44.96,50.95
		C291.944,240.333,232.844,213.073,177.034,232.633z"/>
</g>
<g>
	<path fill="#2D2925" d="M369.264,252.793c0,0-218.41,0.8-277.64,0.04c-0.02-7.02-0.34-17.87-1.82-29.22
		c-2.67-20.51-4.46-21.4-5.54-21.93l-2.66-1.32l-0.26,0.88c-5.5-1-20.97-0.12-34.63,0.17c-23.29,0.51-46.71,0.84-46.71,0.84
		l10.01,28.36l-9.18,29.19l40.61,0.4v32.13c0,0,2.5,18.77,45.04,18.77c50.38,0,282.78,0,282.78,0l-15.01-29.61L369.264,252.793z
		 M84.844,224.263c1.44,11.05,1.76,21.61,1.78,28.46c-8.62-0.37-15.9-2.02-21.92-4.22c-5.08-1.85-9.26-4.1-12.61-6.31
		c-3.21-2.11-5.65-4.18-7.38-5.85c-0.05-2.46,0.97-12.53,20.5-15.78c9.31-1.55,14.56-6.32,17.38-10.24
		C83.194,213.123,83.954,217.493,84.844,224.263z"/>
</g>
<g>
	<path fill="#A3A3A2" d="M206.199,156.418c0.717-7.79,5.206-17.231,12.022-27.689c8.708,10.202,10.691,18.905,12.137,28.172
		C220.102,154.422,213.361,155.048,206.199,156.418z"/>
	<path fill="#A3A3A2" d="M324.642,255.923c0,0,8.36-67.012-48.925-105.666c-0.71-0.479-1.643-0.451-2.32,0.074
		c-1.348,1.044-3.988,2.554-7.737,2.262c-1.327-0.103-2.59-0.618-3.615-1.467l-15.571-12.91c-0.35-0.29-0.552-0.721-0.552-1.175
		v-2.476c0-1.313,1.547-2.013,2.534-1.147l13.921,12.218l2.801-2.801l-15.994-14.852c-0.634-0.589-0.653-1.586-0.041-2.198
		l1.083-1.083c0.579-0.579,1.51-0.598,2.113-0.045l16.253,14.938l2.713-2.713l-14.286-13.146c-0.911-0.838-0.498-2.355,0.712-2.616
		l1.995-0.43c0.507-0.109,1.034,0.046,1.401,0.413l15.646,15.646c0.784,0.784,1.265,1.822,1.345,2.928
		c0.07,0.967,0.014,2.306-0.361,4.09c-0.181,0.859,0.234,1.733,1.01,2.142c8.659,4.568,55.68,32.975,58.495,112.481L324.642,255.923
		z"/>
	<path fill="#A3A3A2" d="M103.092,255.221c2.261-28.08,6.552-54.096,37.46-83.268c0.613-0.749,1.539-1.158,2.494-1.004
		c19.63,3.177,30.639-11.438,32.534-23.81c1.415-9.24-6.119-17.562-15.43-16.729c-13.124,1.173-22.883,16.077-22.47,34.225
		c0.009,0.415-0.049,0.824-0.169,1.213c-0.222,0.717-0.687,1.336-1.274,1.805c-23.614,18.858-38.188,41.46-45.133,89.916
		L103.092,255.221z"/>
</g>
</svg>
