<?xml version="1.0" encoding="utf-8"?>
<!-- Generator: Adobe Illustrator 24.3.0, SVG Export Plug-In . SVG Version: 6.00 Build 0)  -->
<svg version="1.1" id="Layer_2" xmlns="http://www.w3.org/2000/svg" xmlns:xlink="http://www.w3.org/1999/xlink" x="0px" y="0px"
	 viewBox="0 0 363 196.71" enable-background="new 0 0 363 196.71" xml:space="preserve">
<g>
	<path fill="#C18F2A" d="M146.779,154.272l-2-1.99l-0.03-68.89l-4.16-0.99l-23.03-5.54l0.02,86.63c-0.33,0.15-0.66,0.29-1,0.44
		c-0.04,0.02-0.09,0.04-0.13,0.06c-0.29,0.13-0.58,0.26-0.87,0.39v-0.34c-0.26,0.11-0.53,0.23-0.79,0.35
		c-5.24,2.32-11.31,4.82-18.26,7.41v-90.36l18.24-6.73l0.79-0.29v-0.1l0.89,0.22l24.14,5.8l6.16,1.49v0.79L146.779,154.272z"/>
	<path fill="#C18F2A" d="M269.169,61.322v111.48c-8.94-3.26-16.52-6.4-22.81-9.24c-0.37-0.17-0.73-0.33-1.09-0.49V52.962l0.56,0.2
		L269.169,61.322z"/>
	<path fill="#C18F2A" d="M245.286,53.554v-0.55l-29.211,7.428l-3.374,0.854l-2.039,0.52l-0.431,100.473l2.697-2.934l0.449-95.214
		l2.697-0.687l26.523-6.732l0.46,103.82c0.442,0.226,0.893,0.451,1.353,0.687c0.126,0.059,0.244,0.118,0.37,0.186
		c0.325,0.157,0.649,0.314,0.983,0.481L245.286,53.554z"/>
	<path fill="#C18F2A" d="M170.76,0v179.04l-24.77-24.78l-2-2l-2.28-2.28c0,0-0.62,0.46-1.91,1.31V11.62L170.76,0z"/>
	<rect x="129.21" y="169.33" fill="#C18F2A" width="6.93" height="6.93"/>
	<rect x="138.96" y="169.33" fill="#C18F2A" width="6.93" height="6.93"/>
	<rect x="129.21" y="178.31" fill="#C18F2A" width="6.93" height="6.93"/>
	<rect x="138.96" y="178.31" fill="#C18F2A" width="6.93" height="6.93"/>
	<rect x="213.94" y="169.33" fill="#C18F2A" width="6.92" height="6.93"/>
	<rect x="223.69" y="169.33" fill="#C18F2A" width="6.93" height="6.93"/>
	<rect x="213.94" y="178.31" fill="#C18F2A" width="6.92" height="6.93"/>
	<rect x="223.69" y="178.31" fill="#C18F2A" width="6.93" height="6.93"/>
</g>
<g>
	<polygon fill="#E53D17" points="213.45,11.72 213.45,157.83 209.71,161.57 209.71,9.55 	"/>
	<polygon fill="#E53D17" points="181.47,189.82 181.51,189.78 181.54,189.82 	"/>
	<polygon fill="#E53D17" points="182.83,188.46 181.51,189.78 179.1,187.38 179.1,3.2 182.83,5.36 	"/>
	<polygon fill="#E53D17" points="193.04,7.39 193.04,178.25 189.3,181.99 189.3,5.23 	"/>
	<polygon fill="#E53D17" points="203.24,9.43 203.24,168.04 199.51,171.78 199.51,7.27 	"/>
	<path fill="#E53D17" d="M0,196.71c12.226-2.721,24.407-5.526,36.512-8.592c12.097-3.094,24.118-6.439,36.002-10.184
		c5.931-1.908,11.854-3.829,17.709-5.941c5.854-2.111,11.667-4.326,17.421-6.679c5.754-2.352,11.408-4.926,16.99-7.63
		c2.784-1.363,5.543-2.776,8.247-4.275c2.689-1.49,5.399-3.084,7.848-4.751l1.203-0.819l0.942,0.978l9.769,10.132l9.704,10.196
		l9.634,10.266c3.197,3.436,6.369,6.897,9.531,10.369v0l0.028,0.041l-0.032-0.039v0c-3.491-3.142-6.938-6.328-10.379-9.521
		l-10.262-9.638l-10.192-9.708l-10.129-9.771l2.145,0.158c-2.644,1.97-5.33,3.56-8.066,5.177c-2.733,1.595-5.512,3.095-8.314,4.544
		c-5.603,2.902-11.36,5.474-17.157,7.923c-2.902,1.217-5.819,2.395-8.753,3.526c-2.94,1.115-5.899,2.184-8.865,3.224
		c-5.938,2.062-11.9,4.05-17.933,5.799c-6.03,1.757-12.081,3.428-18.171,4.942c-6.095,1.491-12.208,2.901-18.349,4.165
		C24.798,193.114,12.43,195.18,0,196.71z"/>
	<path fill="#E53D17" d="M363,196.71c-12.428-1.54-24.799-3.584-37.08-6.114c-12.28-2.534-24.475-5.534-36.518-9.102
		c-6.033-1.748-11.997-3.727-17.936-5.789c-5.944-2.056-11.816-4.31-17.615-6.757c-2.906-1.219-5.773-2.476-8.661-3.793
		c-2.836-1.296-5.703-2.688-8.494-4.131c-2.804-1.445-5.579-2.952-8.312-4.546c-2.74-1.62-5.412-3.208-8.068-5.177l2.147-0.156
		l-10.14,9.778l-10.2,9.716l-10.271,9.647c-3.441,3.198-6.898,6.38-10.383,9.534c3.154-3.484,6.336-6.942,9.534-10.383l9.641-10.275
		l9.712-10.206l9.778-10.139l0.939-0.974l1.208,0.818c2.444,1.655,5.161,3.261,7.846,4.748c2.704,1.498,5.459,2.918,8.246,4.277
		c2.804,1.352,5.577,2.668,8.435,3.959c2.812,1.258,5.683,2.493,8.553,3.672c2.874,1.185,5.768,2.322,8.673,3.43
		c2.899,1.127,5.813,2.212,8.743,3.256c5.854,2.112,11.781,4.024,17.711,5.931c11.881,3.756,23.904,7.092,36.001,10.179
		C338.592,191.196,350.777,193.979,363,196.71z"/>
</g>
</svg>
