<?xml version="1.0" encoding="utf-8"?>
<!-- Generator: Adobe Illustrator 24.3.0, SVG Export Plug-In . SVG Version: 6.00 Build 0)  -->
<svg version="1.1" id="Layer_2_1_" xmlns="http://www.w3.org/2000/svg" xmlns:xlink="http://www.w3.org/1999/xlink" x="0px" y="0px"
	 viewBox="0 0 296.866 213.4" enable-background="new 0 0 296.866 213.4" xml:space="preserve">
<g>
	<polygon fill-rule="evenodd" clip-rule="evenodd" fill="#7A7A7A" points="120.666,3.635 143.389,77.319 133.809,0.984 
		147.11,76.937 147.18,0 150.852,77.024 160.57,0.701 154.553,77.58 173.766,3.071 158.155,78.594 186.559,7.077 161.604,80.051 
		198.748,12.652 164.839,81.93 210.144,19.711 167.814,84.197 220.561,28.142 170.481,86.82 229.839,37.813 172.797,89.756 
		237.832,48.57 174.728,92.96 244.411,60.244 176.243,96.381 249.476,72.649 177.314,99.963 252.945,85.591 177.93,103.654 
		254.76,98.869 178.076,107.392 254.901,112.267 177.754,111.117 253.356,125.579 176.964,114.775 250.157,138.593 175.726,118.306 
		245.349,151.105 174.053,121.651 239.012,162.914 171.974,124.762 231.243,173.839 169.522,127.588 222.167,183.705 
		166.734,130.085 211.924,192.355 163.656,132.213 200.679,199.656 160.333,133.939 188.607,205.49 156.821,135.235 
		175.898,209.765 153.176,136.082 162.753,212.417 149.453,136.463 149.382,213.4 145.71,136.376 135.994,212.702 142.01,135.823 
		122.798,210.33 138.406,134.806 110.004,206.324 134.961,133.35 97.815,200.749 131.726,131.473 86.422,193.69 128.749,129.203 
		76.002,185.258 126.082,126.58 66.724,175.588 123.766,123.644 58.731,164.83 121.835,120.44 52.152,153.157 120.322,117.02 
		47.087,140.751 119.249,113.436 43.621,127.808 118.635,109.747 41.802,114.534 118.486,106.008 41.664,101.132 118.811,102.282 
		43.207,87.822 119.598,98.625 46.407,74.807 120.838,95.095 51.214,62.295 122.511,91.748 57.552,50.486 124.591,88.638 
		65.321,39.561 127.044,85.811 74.398,29.696 129.832,83.314 84.639,21.045 132.91,81.187 95.886,13.745 136.23,79.462 
		107.957,7.91 139.741,78.165 	"/>
</g>
<g>
	<path fill-rule="evenodd" clip-rule="evenodd" fill="#191919" d="M130.417,80.783l-11.285-3.048
		c0.227-6.013-0.459-12.034-2.022-17.877c-7.733-28.855-35.856-48.224-65.538-42.943c-8.114,1.035-15.593,2.626-22.759,6.751
		c-10.203,5.87-18.51,14.251-23.587,24.929C-0.737,61.136-1.482,75.42,2.405,88.697c9.447,32.257,41.75,51.428,74.834,42.564
		c15.304-4.101,27.806-14.395,35.084-28.129l9.361,2.809c-5.631,30.712,4.63,64.637,31.267,82.686
		c10.219,6.924,22.857,12.099,34.879,14.782c34.528,7.709,68.613-8.289,86.47-38.508c2.024-3.426,3.832-6.977,5.402-10.63
		c5.219,0.615,10.103-1.57,13.368-5.816c1.394-1.81,2.415-3.899,3.047-6.091c0.617-2.145,0.868-4.416,0.698-6.645
		c-0.443-5.849-3.755-10.939-9.374-13.012l-0.466-0.165l-0.151-0.039c0.21-6.357-0.276-12.722-1.419-18.998
		c-6.478-35.472-28.601-58.242-64.321-64.149c-7.604-1.258-32.373,0.051-39.833,2.05c-14.527,3.893-27.883,11.457-38.381,22.267
		C137.921,68.767,133.762,74.545,130.417,80.783z"/>
</g>
<g>
	<path fill-rule="evenodd" clip-rule="evenodd" fill="#B70016" d="M279.154,144.33c-0.747-0.223-1.305-2.483-0.77-5.022
		c0.132-0.628-23.37-6.465-23.091-7.101c0.285-0.645,24.353,3.91,24.816,3.311c-23.346-5.003-36.351-7.275-38.331-8.13
		c-0.363,0.498-1.144,6.291,1.786,8.022C250.046,136.456,275.893,143.281,279.154,144.33L279.154,144.33z M72.121,106.191
		c-0.507-4.314-10.871-8.519-3.095-11.544c-10.762,2.968-19.509-0.959-26.243-11.786c-8.792-1.78-0.547,14.507-12.654,7.078
		c9.989,16.997,23.58,23.314,40.774,18.949c-16.705,0.978-27.339-3.036-31.905-12.047C45.152,106.023,59.828,108.72,72.121,106.191
		L72.121,106.191z M53.319,40.236c7.403-1.354,25.897-3.117,34.257,14.226C80.258,43.501,70,39.285,52.769,41.899
		c0.796,4.241,10.08,9.6,2.425,12.577c10.761-2.968,19.508,0.961,26.243,11.786c8.792,1.779,0.548-14.507,12.654-7.077
		C84.103,42.19,71.459,35.424,53.319,40.236L53.319,40.236z M38.492,29.495C18.688,40.185,8.161,63.988,14.426,87.371
		c2.514,9.384,7.407,17.474,13.814,23.756c-2.327-0.972-4.429-2.245-6.607-4.861c-5.031-6.05-8.652-12.957-10.717-20.003
		c-3.323-11.348-2.678-23.328,2.326-33.847C19.24,39.803,27.381,33.059,38.492,29.495L38.492,29.495z M131.651,93.214
		c-1.502,2.602-2.252,3.902-2.252,3.902C64.848,77.473,65.599,76.173,131.651,93.214L131.651,93.214z M134.545,89.855
		c3.359-7.697,7.972-14.798,13.834-20.832c9.334-9.609,21.374-16.586,34.859-20.199c6.207-1.663,30.716-2.864,36.592-1.893
		c31.966,5.287,52.013,25.06,58.017,57.952c1.446,7.91,1.716,15.789,0.859,23.507l6.057,1.514l0.021,0.008
		c2.793,1.029,4.158,3.576,4.371,6.387c0.1,1.298-0.051,2.656-0.42,3.94c-0.371,1.285-0.965,2.505-1.753,3.532
		c-1.64,2.133-4.108,3.416-7.165,2.737l-0.019-0.004c-0.013-0.004-1.665-0.433-4.85-1.271c-1.838,5.412-4.263,10.683-7.263,15.76
		c-16.326,27.632-47.093,41.859-78.182,34.919c-12.167-2.719-23.831-7.946-32.244-13.645c-25.936-17.571-34.52-52.139-26.504-81.625
		l-22.64-6.794c-5.47,14.327-17.25,25.808-32.865,29.992c-7.502,2.012-15.079,2.118-22.248,0.615
		c-0.573-0.068-1.173-0.147-1.802-0.238c-3.411-0.494-9.303-1.591-12.414-2.789c-7.195-3.658-13.258-8.673-18.064-14.455
		c-5.137-6.178-8.837-13.235-10.946-20.436C6.375,74.925,7.04,62.663,12.161,51.89c4.02-8.455,10.785-15.99,20.481-21.572
		c6.187-3.56,12.728-4.88,20.048-5.805l0.029-0.004c25.062-4.564,50.041,11.47,56.97,37.333c1.956,7.304,2.275,14.647,1.184,21.618
		L134.545,89.855L134.545,89.855z M99.124,80.29l-18.583-5.018c0.033-1.789-0.182-3.615-0.67-5.436
		c-2.724-10.17-12.908-16.276-22.746-13.639c-9.839,2.635-15.605,13.017-12.881,23.184c2.725,10.168,12.911,16.275,22.746,13.64
		c4.717-1.265,8.498-4.31,10.855-8.256l18.571,5.574c-4.319,10.283-13.004,18.454-24.38,21.503
		c-19.897,5.331-40.493-7.017-46.003-27.583c-5.509-20.563,6.153-41.555,26.048-46.887c19.896-5.329,40.491,7.019,46.001,27.583
		C99.468,70.126,99.767,75.322,99.124,80.29L99.124,80.29z M72.881,73.202l-4.163-1.124c-3.202-0.864-7.377-2.46-9.435,1.438
		c-2.921,5.532,4.084,6.904,7.559,7.947l3.201,0.961c-1.328,1.443-3.053,2.531-5.069,3.073c-5.817,1.556-11.839-2.054-13.451-8.067
		c-1.611-6.013,1.798-12.15,7.617-13.711c5.818-1.559,11.839,2.051,13.452,8.065C72.719,72.259,72.815,72.732,72.881,73.202
		L72.881,73.202z M141.019,130.781c-1.367-12.486,1.576-31.627,9.106-43.651c-4.634,2.862-7.15,2.921-7.55,0.176
		c-7.611,10.014-12.783,28.142-10.465,43.843C134.494,120.998,139.241,121.953,141.019,130.781L141.019,130.781z M196.389,132.481
		c-1.29-11.796,1.62-23.375,8.733-34.737c-3.907,2.412-6.219,2.716-6.94,0.91c6.482-9.656,17.007-16.651,31.664-17.828
		c12.321-3.074,18.52,0.448,25.369,4.494c-7.712-4.03-16.714-5.256-25.789-2.825c-21.436,5.744-35.144,29.715-30.619,53.539
		c3.482,18.327,16.736,31.229,32.426,33.595c-0.859-0.034-1.7-0.098-2.523-0.185c-4.908-0.522-14.465-4.34-21.304-9.893
		c-5.199-2.337,0.596,4.847-3.066,1.25c-7.552-7.417-12.069-17.435-13.503-27.873C192.948,124.724,194.798,124.573,196.389,132.481
		L196.389,132.481z M168.265,131.797c-1.29-11.796,2.776-28.852,9.89-40.214c-4.377,2.705-6.755,2.76-7.133,0.165
		c-7.191,9.462-12.272,26.109-10.08,40.945C163.195,123.103,166.587,123.455,168.265,131.797L168.265,131.797z M224.949,116.694
		c-2.39,4.177-3.381,9.329-2.406,14.462c0.1,0.523,0.215,1.024,0.344,1.504c1.205,4.503,3.825,8.144,7.202,10.462
		c7.575,5.202,16.825,2.78,22.179-3.934c4.841,1.303,9.083,2.436,12.694,3.397c-4.063,7.883-10.92,13.987-19.401,16.26
		c-15.974,4.279-31.657-6.645-35.031-24.402c-3.372-17.756,6.844-35.621,22.819-39.901c15.974-4.279,31.658,6.645,35.029,24.402
		c0.446,2.349,0.654,4.698,0.643,7.019l-11.264-2.819l0,0h-0.002l-1.286-0.323c-0.031-0.197-0.066-0.392-0.104-0.587
		c-0.1-0.523-0.215-1.024-0.342-1.504c-1.207-4.503-3.828-8.143-7.203-10.462C240.369,104.466,229.835,108.149,224.949,116.694
		L224.949,116.694z M248.885,137.447c-0.29-0.104-0.564-0.114-0.824-0.056h-0.002c-3.512-0.171-2.665,3.635-5.117,3.731
		c-0.196,0.008-0.376-0.053-0.546-0.165c2.037-1.024,0.132-4.885-1.36-4.367c0.017,0.346-1.536,0.753-1.258,0.857
		c1.15,0.431,1.615,1.642,1.804,2.565c-0.119-0.184-0.233-0.379-0.35-0.574c-0.485-0.819-0.974-1.645-1.757-2.071
		c-0.719-0.39-1.808-0.087-3.009,0.246c-1.284,0.356-2.724,0.756-3.399,0.238c-1.172-0.902-0.779-1.853-0.299-3.009
		c0.411-0.991,0.872-2.101,0.769-3.483c-0.113-1.484-0.828-2.372-1.536-3.253c-0.758-0.944-1.506-1.875-1.14-3.662
		c0.548-2.661,1.624-3.015,2.705-3.369c0.877-0.289,1.757-0.577,2.511-1.642c0.664-0.938,0.758-1.872,0.85-2.794
		c0.277-2.754,2.273-4.74,4.093-1.997c0.576,0.865,1.172,1.765,2.169,2.105c0.876,0.296,1.827-0.139,2.799-0.643
		c-0.318,1.196-1.534,1.99-1.534,1.99c2.283,1.873,4.108-1.534,3.215-2.788c0.403-0.134,0.757-0.174,1.021-0.03
		c0.658,0.361,0.624,1.214,0.58,2.196c-0.052,1.271-0.112,2.707,0.89,3.983c-1.536-0.348-3.216-0.731-4.945-1.131
		c-2.281,0.993-3.093,3.151-3.535,5.992c2.018-3.482,6.397-4.174,11.637-3.051l1.933,0.484c2.769,0.865,5.283,1.498,5.733,1.436l0,0
		l23.411,5.86c1.263,0.471,2.169,1.337,2.756,2.417c-0.542-0.499-1.26-0.683-2.102-0.459c-2.285,0.613-4.617,4.005-5.206,7.579
		c-0.369,2.234,0.03,4.01,0.938,4.878c-0.221-0.026-0.446-0.062-0.676-0.113C275.503,144.158,257.901,138.199,248.885,137.447
		L248.885,137.447z M231.957,125.935c0.913,1.029,3.178,1.458,4.245,0.706c-3.861-0.36-1.614-4.126-3.545-4.288
		C231.713,123.453,231.78,124.857,231.957,125.935L231.957,125.935z M237.431,119.035c3.134,0.136,2.259-4.561,0.547-4.318
		C237.613,117.597,237.431,119.035,237.431,119.035L237.431,119.035z M234.541,131.237c0,0-0.399,1.386-1.192,4.157
		C234.795,136.427,237.42,132.604,234.541,131.237L234.541,131.237z M241.971,119.691l0.999,0.66
		c-1.401,2.131-2.27,4.273-2.608,6.431c-0.339,2.154-0.15,4.328,0.563,6.522l-1.137,0.369c-0.772-2.378-0.976-4.736-0.609-7.072
		C239.544,124.269,240.476,121.966,241.971,119.691L241.971,119.691z M263.635,111.005c-3.937-9.34-11.635-15.263-23.188-15.225
		c8.018,1.437-3.388,5.478-4.188,10.434c8.918-1.383,14.228-0.025,19.74,8.873C260.39,114.508,257.924,103.496,263.635,111.005
		L263.635,111.005z M239.315,158.007c-9.261-1.795,0.808-6.357-0.615-10.549c-10.422-1.001-13.991-5.162-16.698-13.768
		c-4.091,2.911-2.66,14.926-7.499,8.375C219.583,152.44,229.199,158.612,239.315,158.007L239.315,158.007z M238.753,111.186
		c-7.878,2.11-12.915,10.92-11.252,19.676c1.602,8.436,8.842,13.745,16.414,12.232c-4.267,1.596-8.896,1.092-12.743-1.549
		c-3.007-2.067-5.347-5.33-6.433-9.38c-0.123-0.458-0.227-0.917-0.314-1.37c-0.887-4.67,0.013-9.353,2.182-13.149
		c4.329-7.568,13.62-10.956,21.128-5.798c0.201,0.139,0.399,0.283,0.594,0.431C245.474,110.755,242.126,110.281,238.753,111.186
		L238.753,111.186z M164.911,70.249c9.556-10.023,21.665-17.2,35.216-20.207c-3.963,0.021-16.338,4.22-19.473,5.06
		c-13.078,3.506-21.533,6.293-30.559,15.586c-28.715,29.559-24.417,85.239-0.411,100.931c-1.784-3.459,0.745-3.904,4.124-0.465
		c6.745,6.859,19.921,20.705,30.3,20.895c-3.662-1.547-7.178-3.448-10.501-5.671C134.796,160.406,134.144,102.514,164.911,70.249
		L164.911,70.249z M178.513,92.83c7.922-13.877,23.319-24.891,39.084-28.364c-4.097,0.055-13.834,4.389-16.832,5.191
		c-26.87,7.201-34.738,21.686-39.391,38.952c-11.457,42.503,23.462,74.813,18.58,64.548c-4.407-9.27,4.897-0.844,10.371,2.383
		c7.905,4.661,15.664,7.78,20.228,8.446c-5.627-1.462-10.958-3.924-15.8-7.256c-19.757-13.589-28-38.785-24.082-61.88
		C172.006,106.993,174.696,99.52,178.513,92.83z"/>
</g>
</svg>
