<?xml version="1.0" encoding="utf-8"?>
<!-- Generator: Adobe Illustrator 24.3.0, SVG Export Plug-In . SVG Version: 6.00 Build 0)  -->
<svg version="1.1" id="Layer_1" xmlns="http://www.w3.org/2000/svg" xmlns:xlink="http://www.w3.org/1999/xlink" x="0px" y="0px"
	 viewBox="0 0 296 296" enable-background="new 0 0 296 296" xml:space="preserve">
<g>
	<linearGradient id="SVGID_1_" gradientUnits="userSpaceOnUse" x1="290.6604" y1="205.9735" x2="67.7105" y2="115.3724">
		<stop  offset="0" style="stop-color:#BDD852"/>
		<stop  offset="0.5112" style="stop-color:#66BC46"/>
		<stop  offset="1" style="stop-color:#1B6332"/>
	</linearGradient>
	<path fill="url(#SVGID_1_)" d="M148,15.043C74.573,15.043,15.043,74.573,15.043,148S74.573,280.957,148,280.957
		S280.957,221.427,280.957,148S221.427,15.043,148,15.043z M148,255.725c-59.491,0-107.725-48.233-107.725-107.725
		S88.509,40.275,148,40.275S255.725,88.509,255.725,148S207.491,255.725,148,255.725z"/>
</g>
<g>
	<linearGradient id="SVGID_2_" gradientUnits="userSpaceOnUse" x1="0" y1="148" x2="296" y2="148">
		<stop  offset="0" style="stop-color:#BDD852"/>
		<stop  offset="0.5112" style="stop-color:#66BC46"/>
		<stop  offset="1" style="stop-color:#1B6332"/>
	</linearGradient>
	<path fill="url(#SVGID_2_)" d="M148,0C66.265,0,0,66.265,0,148s66.265,148,148,148s148-66.265,148-148S229.735,0,148,0z
		 M147.515,280.957c-73.427,0-132.957-59.53-132.957-132.957S74.087,15.043,147.515,15.043S280.472,74.573,280.472,148
		S220.942,280.957,147.515,280.957z"/>
</g>
<g>
	<path fill="#1A6333" d="M241.101,116.646c-4.927-3.711-11.778-1.144-13.214,4.887c-0.241,1.012-0.699,2.295-1.479,2.8
		c-3.185,2.064-6.56,3.832-9.808,5.803c-1.169,0.71-2.051,0.7-3.266-0.006c-13.542-7.874-27.138-15.654-40.675-23.536
		c-1.415-0.824-2.443-0.8-3.82,0.007c-6.325,3.71-12.717,7.304-19.069,10.967c-2.929,1.689-5.821,3.442-9.157,5.42
		c1.978,1.313,3.575,2.265,5.047,3.384c1.299,0.988,2.402,0.993,3.815,0.154c5.56-3.3,11.179-6.5,16.786-9.722
		c4.583-2.633,4.557-2.57,9.156,0.097c12.627,7.324,25.292,14.582,37.912,21.919c1.2,0.698,2.131,0.705,3.3,0.016
		c4.248-2.506,8.562-4.902,12.805-7.416c1.285-0.761,2.35-1.023,3.873-0.402c3.761,1.534,8.256-0.278,10.102-3.807
		C245.329,123.538,244.36,119.101,241.101,116.646z M235.98,126.282c-1.442-0.045-3.037-1.78-2.956-3.216
		c0.078-1.39,1.7-2.889,3.088-2.855c1.424,0.035,2.993,1.617,2.948,2.973C239.008,124.733,237.424,126.327,235.98,126.282z"/>
	<path fill="#1A6333" d="M82.218,165.702c3.238,1.714,6.401,3.573,9.575,5.408c10.618,6.138,21.239,12.272,31.834,18.451
		c1.264,0.737,2.246,0.638,3.487-0.096c5.622-3.327,11.305-6.549,16.964-9.813c3.627-2.092,7.249-4.192,11.32-6.547
		c-2.013-1.388-3.632-2.419-5.152-3.578c-1.312-1-2.432-0.882-3.818-0.058c-6.246,3.71-12.59,7.258-18.809,11.011
		c-1.734,1.047-3.051,0.957-4.738-0.028c-13.412-7.831-26.858-15.606-40.342-23.311c-0.74-0.423-2.114-0.431-2.864-0.024
		c-4.334,2.352-8.587,4.856-12.828,7.376c-1.338,0.795-2.498,1.081-4.094,0.482c-3.474-1.304-6.629-0.377-9.067,2.364
		c-2.29,2.575-2.618,5.635-1.309,8.786c1.436,3.458,4.781,5.237,8.799,4.836c3.26-0.325,6.129-2.918,6.906-6.327
		c0.297-1.306,0.459-2.541,1.868-3.303c3.341-1.806,6.574-3.812,9.921-5.607C80.494,165.388,81.596,165.373,82.218,165.702z
		 M59.84,175.646c-1.605-0.059-2.893-1.374-2.876-2.938c0.017-1.634,1.468-2.964,3.152-2.89c1.606,0.071,2.902,1.409,2.87,2.964
		C62.952,174.445,61.563,175.709,59.84,175.646z"/>
	<path fill="#1A6333" d="M173.337,156.774c0-0.655-0.066-1.31-0.131-2.513c-1.911,0.927-3.398,1.805-4.993,2.382
		c-1.903,0.688-2.355,1.913-2.328,3.826c0.101,7.332,0.001,14.667,0.072,22c0.015,1.531-0.482,2.39-1.826,3.158
		c-13.479,7.707-26.902,15.51-40.384,23.21c-1.599,0.913-2.238,1.964-2.193,3.8c0.113,4.597,0,9.2,0.057,13.799
		c0.02,1.615-0.313,2.806-1.669,3.971c-3.818,3.279-3.776,8.838-0.133,12.384c3.095,3.013,8.871,2.768,11.723-0.498
		c3.274-3.749,2.817-9.131-0.904-12.297c-0.697-0.593-1.255-1.722-1.303-2.634c-0.161-3.058,0.145-6.149-0.124-9.192
		c-0.248-2.816,0.888-4.328,3.25-5.669c13.038-7.404,25.985-14.969,39.003-22.409c1.411-0.806,1.929-1.718,1.919-3.319
		C173.311,176.775,173.344,166.775,173.337,156.774z M125.319,239.571c-1.586-0.05-2.84-1.407-2.81-3.039
		c0.03-1.596,1.389-2.848,3.026-2.79c1.627,0.058,2.854,1.378,2.81,3.022C128.303,238.351,126.933,239.622,125.319,239.571z"/>
	<path fill="#1A6333" d="M122.684,139.848c0,0.582,0,1.164,0,2.1c2.123-1.087,3.803-2.041,5.562-2.818
		c1.419-0.626,1.916-1.537,1.899-3.096c-0.077-7.069,0.092-14.143-0.1-21.207c-0.07-2.572,0.833-3.895,3.021-5.137
		c13.221-7.501,26.34-15.181,39.529-22.739c1.425-0.816,1.89-1.815,1.868-3.379c-0.068-4.868-0.102-9.74,0.041-14.604
		c0.031-1.038,0.644-2.261,1.374-3.036c1.612-1.713,2.838-3.541,3.015-5.922c0.294-3.952-2.101-7.436-5.826-8.559
		c-3.635-1.096-7.742,0.406-9.632,3.524c-2.025,3.339-1.455,7.913,1.614,10.594c1.372,1.199,1.825,2.422,1.76,4.141
		c-0.104,2.731-0.218,5.485,0.026,8.198c0.243,2.7-0.765,4.174-3.116,5.502c-13.059,7.381-26.006,14.96-39.03,22.403
		c-1.523,0.871-2.07,1.837-2.052,3.623C122.738,119.572,122.685,129.71,122.684,139.848z M170.645,56.477
		c1.621,0.02,2.908,1.315,2.882,2.901c-0.028,1.693-1.382,2.983-3.084,2.936c-1.599-0.043-2.806-1.361-2.756-3.007
		C167.738,57.69,169.026,56.457,170.645,56.477z"/>
	<path fill="#1A6333" d="M85.163,91.981c1.57-0.579,2.701-0.419,4.071,0.424c2.722,1.675,5.537,3.203,8.36,4.704
		c1.632,0.868,2.353,1.979,2.343,3.948c-0.084,15.338-0.016,30.678-0.085,46.016c-0.008,1.835,0.564,2.931,2.158,3.829
		c7.201,4.059,14.346,8.215,21.513,12.335c2.004,1.152,4.013,2.297,6.418,3.673c0.201-2.362,0.316-4.278,0.54-6.181
		c0.178-1.515-0.346-2.442-1.717-3.215c-6.388-3.599-12.685-7.361-19.087-10.933c-1.715-0.957-2.43-2.007-2.417-4.051
		c0.094-15.272,0.007-30.544,0.101-45.816c0.013-2.048-0.724-3.136-2.421-4.071c-4.085-2.251-8.064-4.696-12.134-6.976
		c-1.197-0.671-1.829-1.405-2.065-2.859c-0.824-5.07-5.677-8.013-10.642-6.641c-4.339,1.199-6.841,6.015-5.463,10.517
		C75.98,91.084,80.778,93.598,85.163,91.981z M82.432,81.268c1.642-0.076,3.005,1.153,3.051,2.752
		c0.047,1.632-1.184,3.002-2.764,3.079c-1.623,0.079-3.031-1.189-3.056-2.752C79.638,82.719,80.878,81.34,82.432,81.268z"/>
	<path fill="#1A6333" d="M210.659,204.076c-1.419,0.511-2.468,0.42-3.71-0.338c-2.902-1.769-5.836-3.495-8.839-5.083
		c-1.592-0.842-2.012-1.966-2.005-3.692c0.06-15.406,0.015-30.812,0.064-46.218c0.005-1.667-0.524-2.664-2.005-3.501
		c-6.384-3.607-12.694-7.346-19.042-11.017c-2.863-1.655-5.754-3.263-9.034-5.119c-0.202,2.309-0.29,4.099-0.533,5.867
		c-0.243,1.767,0.431,2.793,1.988,3.671c6.386,3.604,12.669,7.39,19.064,10.978c1.628,0.914,2.158,1.985,2.151,3.805
		c-0.065,15.406-0.016,30.812-0.066,46.218c-0.005,1.583,0.448,2.604,1.859,3.382c4.028,2.22,7.992,4.557,11.999,6.818
		c1.499,0.846,2.478,1.828,2.881,3.721c1.016,4.781,5.384,7.457,9.894,6.42c4.642-1.068,7.407-5.666,6.174-10.267
		C220.216,204.946,215.417,202.364,210.659,204.076z M213.352,214.784c-1.481-0.01-2.725-1.25-2.79-2.783
		c-0.072-1.696,1.237-3.059,2.929-3.051c1.688,0.008,2.857,1.168,2.89,2.863C216.412,213.482,215.073,214.796,213.352,214.784z"/>
	<path fill="#1A6333" d="M168.083,227.116c-0.147-4.792-0.111-9.592-0.04-14.388c0.023-1.535-0.543-2.477-1.879-3.184
		c-2.412-1.277-4.745-2.703-7.152-3.989c-0.598-0.319-1.519-0.68-2.01-0.442c-2.178,1.056-4.254,2.324-6.77,3.742
		c3.19,1.872,5.884,3.546,8.671,5.049c1.361,0.734,1.903,1.687,1.879,3.187c-0.053,3.33-0.057,6.663,0.005,9.993
		c0.025,1.325-0.421,2.194-1.505,3.012c-2.472,1.865-3.555,4.478-3.148,7.542c0.527,3.959,3.309,6.624,7.237,7.181
		c3.22,0.456,7.03-1.663,8.374-4.657c1.512-3.37,0.505-7.403-2.254-10.04C168.735,229.397,168.115,228.145,168.083,227.116z
		 M164.281,239.631c-1.64,0.03-3.067-1.39-3.029-3.016c0.036-1.546,1.572-3.088,3.076-3.088c1.619,0,2.91,1.429,2.878,3.182
		C167.177,238.278,165.851,239.602,164.281,239.631z"/>
	<path fill="#1A6333" d="M126.509,65.714c1.241,0.978,1.529,1.996,1.518,3.399c-0.037,4.728-0.077,9.458,0.044,14.184
		c0.024,0.919,0.52,2.189,1.224,2.662c2.536,1.703,5.233,3.173,7.922,4.635c0.57,0.31,1.513,0.517,2.021,0.257
		c2.055-1.055,4.008-2.31,6.513-3.796c-3.176-1.829-5.845-3.436-8.583-4.912c-1.398-0.753-2.004-1.712-1.938-3.335
		c0.116-2.859,0.088-5.728,0.015-8.589c-0.052-2.019,0.427-3.537,2.099-4.997c3.643-3.181,3.557-8.451,0.143-11.68
		c-3.489-3.3-8.748-3.139-11.945,0.365C122.574,57.157,122.946,62.906,126.509,65.714z M131.709,56.439
		c1.725-0.022,3.065,1.268,3.071,2.953c0.006,1.7-1.331,3.021-3.029,2.994c-1.696-0.027-2.961-1.367-2.923-3.096
		C128.866,57.527,129.943,56.462,131.709,56.439z"/>
	<path fill="#1A6333" d="M102.904,184.246c-1.915-1.284-3.963-2.37-6.539-3.865c0,3.821,0.099,7.006-0.064,10.178
		c-0.046,0.888-0.646,2.072-1.368,2.543c-2.671,1.741-5.529,3.193-8.259,4.848c-1.622,0.983-3.072,1.259-5.021,0.608
		c-4.539-1.516-9.108,1.297-10.273,5.981c-1.106,4.448,1.702,8.916,6.188,9.845c4.734,0.98,9.211-1.918,9.91-6.634
		c0.228-1.54,0.947-2.343,2.168-3.04c4.165-2.377,8.339-4.743,12.416-7.263c0.746-0.461,1.441-1.603,1.496-2.472
		c0.185-2.92,0.112-5.86,0.039-8.791C103.58,185.516,103.369,184.558,102.904,184.246z M79.499,209.509
		c-1.715,0.037-3.112-1.409-3.093-3.198c0.017-1.573,1.312-2.898,2.885-2.953c1.644-0.057,3.056,1.305,3.07,2.964
		C82.378,208.115,81.157,209.474,79.499,209.509z"/>
	<path fill="#1A6333" d="M66.003,125.394c1.522-0.592,2.596-0.319,3.877,0.443c4.064,2.418,8.156,4.792,12.306,7.059
		c0.763,0.417,2.038,0.645,2.74,0.291c2.851-1.439,5.587-3.112,8.323-4.767c0.453-0.274,0.996-0.892,0.991-1.345
		c-0.028-2.307-0.223-4.612-0.389-7.406c-3.062,1.727-5.762,3.154-8.355,4.754c-1.266,0.781-2.298,0.728-3.51,0
		c-2.684-1.613-5.374-3.222-8.133-4.699c-1.631-0.873-2.792-1.831-2.782-3.902c0.004-0.858-0.503-1.811-1.01-2.563
		c-2.381-3.534-7.25-4.763-10.815-2.811c-3.856,2.111-5.408,6.889-3.537,10.888C57.464,125.088,61.959,126.967,66.003,125.394z
		 M63.279,114.666c1.559,0.063,2.965,1.585,2.949,3.191c-0.017,1.687-1.363,2.961-3.102,2.937c-1.723-0.024-3.08-1.347-3.065-2.988
		C60.076,116.157,61.671,114.601,63.279,114.666z"/>
	<path fill="#1A6333" d="M229.856,170.643c-1.244,0.484-2.2,0.433-3.355-0.263c-4.166-2.51-8.377-4.948-12.628-7.311
		c-0.716-0.398-1.907-0.682-2.542-0.358c-2.905,1.48-5.706,3.168-8.501,4.853c-0.447,0.269-0.937,0.892-0.958,1.371
		c-0.099,2.313-0.045,4.632-0.045,6.949c0.221,0.087,0.443,0.175,0.664,0.263c2.761-1.565,5.564-3.064,8.265-4.728
		c1.146-0.706,2.027-0.64,3.116,0.017c2.964,1.791,5.936,3.578,8.988,5.212c1.261,0.675,1.796,1.476,1.999,2.892
		c0.475,3.309,2.332,5.622,5.633,6.558c3.711,1.052,7.253-0.262,9.272-3.361c1.875-2.879,1.772-6.85-0.244-9.381
		C237.099,170.314,233.47,169.236,229.856,170.643z M232.889,181.243c-1.735-0.037-3.173-1.52-3.113-3.212
		c0.053-1.522,1.42-2.744,3.075-2.747c1.655-0.004,3.028,1.211,3.086,2.731C236.004,179.745,234.556,181.278,232.889,181.243z"/>
	<path fill="#1A6333" d="M193.184,111.888c1.953,1.221,4.008,2.278,6.333,3.564c0.061-0.985,0.132-1.619,0.135-2.254
		c0.014-2.532,0.059-5.066-0.013-7.596c-0.039-1.364,0.464-2.253,1.645-2.914c3.081-1.723,6.149-3.472,9.177-5.286
		c1.067-0.639,1.943-0.652,3.151-0.235c2.816,0.972,5.682,0.962,8.126-1.062c3.091-2.559,3.96-6.396,2.388-9.912
		c-1.425-3.188-4.873-5.158-8.268-4.726c-4.119,0.525-6.659,3.075-7.468,7.184c-0.174,0.883-0.899,1.911-1.67,2.38
		c-4.209,2.561-8.542,4.92-12.753,7.477c-0.717,0.435-1.449,1.478-1.493,2.277c-0.171,3.122-0.106,6.261-0.034,9.391
		C192.456,110.768,192.742,111.612,193.184,111.888z M216.686,86.523c1.642,0.025,2.94,1.418,2.922,3.138
		c-0.018,1.735-1.378,3.124-2.987,3.05c-1.718-0.08-2.964-1.406-2.937-3.129C213.711,87.86,215.048,86.498,216.686,86.523z"/>
</g>
</svg>
