<?xml version="1.0" encoding="utf-8"?>
<!-- Generator: Adobe Illustrator 24.3.0, SVG Export Plug-In . SVG Version: 6.00 Build 0)  -->
<svg version="1.1" id="Layer_3" xmlns="http://www.w3.org/2000/svg" xmlns:xlink="http://www.w3.org/1999/xlink" x="0px" y="0px"
	 viewBox="0 0 174.56 218.571" enable-background="new 0 0 174.56 218.571" xml:space="preserve">
<g>
	<path fill-rule="evenodd" clip-rule="evenodd" fill="#FF5C61" d="M112.658,9.704c-5.451,5.734-11.461,13.522-10.467,21.845
		c0.631,5.278,3.878,10.363,6.979,14.54c4.776,6.435,10.419,12.483,15.611,18.606c16.009,18.883,7.07,42.617-5.941,60.302
		c-0.425,0.576-1.107,1.479-1.892,2.561c-2.455,4.264-5.682,9.055-4.834,12.639c0.863,1.292,2.266,2.56,3.119,3.307
		c4.32,3.774,9.661,7.244,14.398,10.492c6.616,4.536,13.227,10.022,18.504,16.267c7.488,6.915,8.424,7.455,14.905,22.485
		c2.867-28.015-13.451-29.775-20.89-53.821c-12.554-40.591,22.047-38.494,31.262-47.866c4.325-4.401-4.783-12.47-7.479-20.306
		c0,0,1.456-2.388,1.802-5.081c0.343-2.694-3.53-2.806-3.53-2.806s0.341-1.818,1.592-3.465c1.251-1.647-1.003-2.429-4.436-3.854
		c-3.431-1.425,2.824-8.784,3.473-12.589c0.651-3.804-6.53-2.039-13.462-4.351c-6.932-2.31-7.837-5.11-11.85-14.823
		c-4.015-9.714-18.285-11.68-26.271-14.447C113.928,10.649,113.672,10.249,112.658,9.704z"/>
	<path fill-rule="evenodd" clip-rule="evenodd" fill="#FF5C61" d="M98.835,216.581c0,0,47.643,9.802,54.046-14.105
		c5.197-19.395-11.547-34.586-25.987-44.487c-23.907-16.393-25.272-17.76-11.952-35.861c13.32-18.1,19.467-38.593,6.147-54.302
		C101.038,44.177,85.144,31.174,109.791,5.7c1.478-1.526,2.116-2.862,1.04-3.656c-5.41-3.987-20.824-1.727-34.046,3.191
		c-38.842,14.449-64.527,57-52.348,98.109c7.66,25.856,29.643,34.111,27.461,50.975c0.356-0.705,0.677-1.459,0.961-2.259
		l0.037-0.091c1.158-3.299,1.689-7.328,1.485-11.876c-1.416-31.131-35.527-37.732-19.019-79.811
		c4.659-11.878,12.842-20.648,16.45-23.201L51.938,37c0.133-0.097,0.056-0.049,0.144-0.109c0.956-0.638,2.249-0.38,2.888,0.577
		c0.637,0.956,0.379,2.248-0.578,2.886L54.26,40.44l-0.056,0.04c-3.247,2.296-10.651,10.298-14.973,21.314
		c-14.807,37.75,17.842,46.122,19.294,78.12c0.233,5.098-0.379,9.659-1.709,13.436l-0.036,0.109
		c-1.385,3.885-3.548,6.969-6.354,9.005l-0.144,0.113c-0.717,0.505-1.47,0.942-2.262,1.305c-8.223,9.859-23.938-2.475-17.094-11.701
		c7.855-10.587-10.587-2.732-9.562,14.344c0.491,8.198,8.511,16.787,19.004,18.581c9.157,1.565,20.099-1.708,27.441-7.496
		c0.078,0.21,0.153,0.418,0.221,0.622c6.397,18.974-14.345,17.07-18.997,9.413c1.66,25.722,37.966,30.503,51.74,15.873
		c19.217-20.414-19.106-41.107-18.026-60.505c0.146-2.649,0.613-4.764,0.971-5.684c2.025-5.193,5.343-10.555,8.745-16.051
		c3.889-6.282,7.891-12.747,9.938-19.025c0.5-1.532,0.817-3.045,0.967-4.539c-2.025,0.543-4.403,0.475-6.618,0.001
		c-4.859-1.038-9.714-4.032-13.714-8.48c-4.247-4.722-6.713-10.586-5.403-15.521c0.996-3.758,4.049-5.953,7.837-6.082
		c-1.532-1.247-3.119-2.473-4.75-3.678c-1.069-0.794-1.293-2.305-0.5-3.376c0.793-1.07,2.304-1.295,3.375-0.502
		c8.07,5.964,15.193,12.488,19.688,19.608c4.683,7.419,6.527,15.433,3.712,24.062c-2.214,6.797-6.381,13.526-10.429,20.064
		c-3.282,5.303-6.485,10.476-8.346,15.256c-0.228,0.584-0.534,2.1-0.649,4.209c0.044,11.855,21.138,28.116,26.421,44.649
		C117.1,197.665,115.445,207.498,98.835,216.581z"/>
	<path fill-rule="evenodd" clip-rule="evenodd" fill="#FF5C61" d="M87.499,71.934c-6.323-0.304-9.281,6.974-2.189,14.856
		c7.089,7.884,15.748,8.187,18.285,5.458C106.133,89.52,90.688,71.328,87.499,71.934z"/>
	<path fill-rule="evenodd" clip-rule="evenodd" fill="#FF5C61" d="M15.654,59.974c0,0-13.324,47.502,20.854,76.466
		c0,0-28.602,14.066-35.185-2.094c-1.897-4.656,0.4-10.142,5.204-11.623c2.157-0.665,4.698-0.517,7.388,1.552
		C13.916,124.276-18.524,90.098,15.654,59.974z"/>
	<path fill-rule="evenodd" clip-rule="evenodd" fill="#FF5C61" d="M170.325,97.256c0,0-46.276,17.958-16.476,55.322
		c0,0,13,15.062,13.29,26.068c0,0,7.82-19.406-8.4-40.695C158.739,137.951,144.836,116.373,170.325,97.256z"/>
</g>
</svg>
