<?xml version="1.0" encoding="utf-8"?>
<!-- Generator: Adobe Illustrator 24.3.0, SVG Export Plug-In . SVG Version: 6.00 Build 0)  -->
<svg version="1.1" id="Layer_1" xmlns="http://www.w3.org/2000/svg" xmlns:xlink="http://www.w3.org/1999/xlink" x="0px" y="0px"
	 viewBox="0 0 811.6 719.648" enable-background="new 0 0 811.6 719.648" xml:space="preserve">
<g>
	<path fill="#F6CF71" d="M61.346,168.933V635.03h51.278l119.034-76.265V168.933H61.346z M193.744,387.687H99.263V209.269h94.481
		V387.687z"/>
	<rect x="118.063" y="231.946" fill="#F6CF71" width="56.881" height="14.626"/>
	<rect x="118.063" y="262.824" fill="#F6CF71" width="56.881" height="14.626"/>
	<path fill="#F6CF71" d="M261.321,86.229v453.527l110.22-70.593l60.092,61.319V86.229H261.321z M393.725,298.478h-94.481V120.06
		h94.481L393.725,298.478L393.725,298.478z"/>
	<rect x="318.044" y="142.737" fill="#F6CF71" width="56.881" height="14.626"/>
	<rect x="318.044" y="173.615" fill="#F6CF71" width="56.881" height="14.626"/>
	<path fill="#F6CF71" d="M461.297,0v560.758l8.048,8.201l162.341-115.356V0H461.297z M593.706,209.269h-94.481V30.851h94.481
		V209.269z"/>
	<rect x="518.025" y="53.528" fill="#F6CF71" width="56.881" height="14.626"/>
	<rect x="518.025" y="84.406" fill="#F6CF71" width="56.881" height="14.626"/>
</g>
<g>
	<polygon fill="#D9A02E" points="811.6,309.97 775.285,444.62 753.71,367.077 609.304,469.685 458.49,576.85 451.014,569.231 
		423.456,541.104 367.631,484.14 265.236,549.72 237.68,567.379 127.097,638.229 0,719.648 0.775,675.793 79.46,624.06 
		237.68,522.591 265.236,504.932 375.606,434.153 423.456,482.217 451.014,509.916 469.455,528.43 609.304,430.023 730.995,344.362 
		665.13,309.97 	"/>
</g>
</svg>
