<?xml version="1.0" encoding="utf-8"?>
<!-- Generator: Adobe Illustrator 24.3.0, SVG Export Plug-In . SVG Version: 6.00 Build 0)  -->
<svg version="1.1" id="Layer_6" xmlns="http://www.w3.org/2000/svg" xmlns:xlink="http://www.w3.org/1999/xlink" x="0px" y="0px"
	 viewBox="0 0 292.829 349.79" enable-background="new 0 0 292.829 349.79" xml:space="preserve">
<g>
	<path fill="#F77952" d="M179.113,282.543v0.58c-57.74,0-109.103-27.327-141.835-69.768C24.428,196.746,14.44,177.799,8.08,157.28
		C2.824,140.446,0,122.565,0,104.01c19.21,0,37.708,3.03,55.047,8.641c27.327,8.791,51.774,23.998,71.6,43.824
		c17.881,17.863,32.003,39.504,41.075,63.632c0.692,1.852,1.347,3.703,1.983,5.574C175.747,243.526,179.057,262.661,179.113,282.543
		z"/>
</g>
<g>
	<path fill="#C94F3A" d="M179.113,282.543v0.58c-57.74,0-109.103-27.327-141.835-69.768C24.428,196.746,14.44,177.799,8.08,157.28
		c22.801,32.452,72.723,81.065,159.642,62.828c0.692,1.852,1.347,3.703,1.983,5.574
		C175.747,243.526,179.057,262.661,179.113,282.543z"/>
</g>
<g>
	<path fill="#1697B5" d="M231.56,156.476c0,21.884-3.965,43.768-11.952,64.474c-8.641,22.502-22.015,43.581-40.084,61.762
		l-0.411,0.412c-56.095-56.095-67.205-140.189-33.275-207.357c8.342-16.572,19.434-32.097,33.275-45.938
		c13.579,13.579,24.522,28.805,32.808,45.022C225.033,100.4,231.56,128.438,231.56,156.476z"/>
</g>
<g>
	<path fill="#ED5D40" d="M179.111,282.545c-75.528-24.391-123.879-94.364-124.066-169.892c27.327,8.791,51.774,23.998,71.601,43.824
		C158.929,188.743,178.962,233.297,179.111,282.545z"/>
	<path fill="#ED5D40" d="M292.829,0.243c-3.13,2.507-5.888,5.344-6.903,9.35c-0.513,2.025-0.71,4.166-0.773,6.263
		c-0.141,4.746-0.851,9.333-3.414,13.42c-1.738,2.772-3.671,5.42-5.713,8.09c-0.262-1.397-0.615-2.535-2.081-2.905
		c-1.296-0.327-2.391,0.092-3.681,1.029c0.077-2.469,0.006-4.692,0.244-6.882c0.44-4.045,1.426-7.967,3.082-11.711
		c1.421-3.214,3.289-6.157,5.636-8.735c3.411-3.747,7.619-6.338,12.476-7.844c0.277-0.086,0.542-0.212,0.812-0.319
		C292.619,0.081,292.724,0.162,292.829,0.243z"/>
</g>
<g>
	<path fill="#1E1E1E" d="M202.436,289.068c1.091-3.289,1.982-6.643,2.978-10.033c0.013,0,0.026,0,0.04-0.002l1.971-6.712
		c-0.008,0.001-0.018,0.001-0.027,0.002c0.382-1.298,0.763-2.6,1.145-3.898c5.048-17.174,10.091-34.333,15.15-51.534l1.968-6.702
		l5.912-20.149c0.011-0.07,0.023-0.138,0.037-0.205c0.009-0.041,0.019-0.081,0.03-0.12c1.455-4.979,2.915-9.955,4.375-14.934
		c2.354-8.025,4.72-16.047,7.044-24.083c0.059-0.207,0.126-0.396,0.204-0.572l9.192-31.315l0.001-0.004
		c0.079-0.309,0.162-0.618,0.251-0.924c0.813-2.755,1.63-5.51,2.445-8.264l0.039-0.129c0.829-2.799,1.656-5.596,2.479-8.394
		c1.049-3.565,2.085-7.132,3.124-10.7c0.557-1.911,1.114-3.822,1.674-5.733c1.51-5.165,3.033-10.327,4.545-15.49
		c1.457-4.979,2.908-9.958,4.358-14.94c1.113-3.83,2.509-7.593,2.892-11.606c0.144-1.499,0.273-2.998-0.385-4.434
		c-0.351-0.769-0.947-0.959-1.572-0.497c-0.724,0.534-1.514,1.125-1.945,1.88c-1.096,1.911-2.165,3.867-2.952,5.918
		c-1.285,3.358-2.347,6.802-3.484,10.216c-1.638,4.923-3.246,9.856-4.891,14.773c-2.138,6.397-4.309,12.781-6.447,19.175
		c-1.583,4.736-3.122,9.486-4.711,14.22c-1.783,5.317-3.596,10.626-5.377,15.943l-0.16,0.478l-1.21,3.64l-0.173,0.516
		l-53.583,160.998c-0.018,0.102-0.036,0.204-0.05,0.306c-0.351,2.48,0.518,4.851,1.45,7.142c0.08,0.197,0.38,0.356,0.61,0.433
		c1.757,0.574,3.51,1.156,5.287,1.662c0.655,0.188,1.538,0.479,2.024,0.204C199.228,293.772,201.484,291.946,202.436,289.068z"/>
	<path fill="#1E1E1E" d="M174.017,300.468c1.188-3.255,2.178-6.581,3.273-9.94c0.013,0,0.026,0,0.04-0.001l2.168-6.651
		c-0.008,0.001-0.018,0-0.027,0.001c0.42-1.287,0.84-2.576,1.26-3.863c5.554-17.017,11.103-34.02,16.669-51.063l2.165-6.641
		l6.506-19.965c0.013-0.069,0.027-0.137,0.043-0.204c0.01-0.041,0.022-0.08,0.033-0.119c1.601-4.933,3.209-9.864,4.816-14.798
		c2.59-7.952,5.193-15.901,7.754-23.864c0.065-0.205,0.138-0.392,0.221-0.566l10.115-31.029l0.001-0.004
		c0.089-0.306,0.18-0.613,0.279-0.916c0.894-2.73,1.793-5.459,2.688-8.188l0.043-0.127c0.911-2.773,1.821-5.544,2.727-8.317
		c1.154-3.532,2.296-7.067,3.44-10.602c0.613-1.894,1.227-3.787,1.843-5.681c1.662-5.118,3.338-10.233,5.002-15.349
		c1.604-4.934,3.201-9.868,4.798-14.805c1.226-3.796,2.733-7.516,3.234-11.515c0.189-1.494,0.361-2.989-0.253-4.443
		c-0.328-0.779-0.918-0.986-1.557-0.543c-0.739,0.513-1.547,1.08-2,1.822c-1.152,1.878-2.279,3.801-3.125,5.828
		c-1.384,3.318-2.547,6.73-3.785,10.109c-1.783,4.872-3.537,9.755-5.326,14.622c-2.326,6.331-4.685,12.648-7.012,18.976
		c-1.722,4.688-3.402,9.389-5.13,14.075c-1.94,5.261-3.909,10.515-5.847,15.777l-0.174,0.473l-1.317,3.602l-0.189,0.51
		L159.068,296.41c-0.021,0.101-0.042,0.202-0.059,0.305c-0.424,2.468,0.375,4.864,1.238,7.182c0.074,0.199,0.369,0.367,0.597,0.45
		c1.739,0.626,3.475,1.259,5.235,1.818c0.649,0.207,1.524,0.524,2.017,0.264C170.671,305.075,172.98,303.316,174.017,300.468z"/>
</g>
<g>
	<path fill="#0D7C8E" d="M201.478,204.485c-10.6,30.19-20.6,57.8-26.6,74.25c-2.26-2.41-4.44-4.87-6.53-7.38
		c-46.63-55.64-54.14-132.97-22.51-195.59c2.98,35.94,14.57,82.5,49.52,122.1C197.318,200.095,199.358,202.295,201.478,204.485z"/>
	<path fill="#0D7C8E" d="M217.918,219.575c-2.13,6.58-4.18,12.89-6.11,18.81c-5.19,10.11-11.42,19.82-18.66,28.98l17.93-53.65
		C213.278,215.695,215.568,217.645,217.918,219.575z"/>
	<path fill="#0D7C8E" d="M163.108,304.505c2.87,1.083,5.709,2.155,8.636,3.26c-0.608,2.393-0.875,4.99-0.441,7.593
		c0.427,2.566,0.999,5.107,1.509,7.669c-7.251,7.936-12.681,17.242-17.793,26.762c-0.085-0.044-0.17-0.088-0.255-0.132
		c0.495-1.462,0.992-2.923,1.483-4.387c1.866-5.563,3.729-11.126,5.593-16.689c0.206-0.615,0.342-1.265,0.63-1.839
		c0.551-1.1,0.742-2.132-0.238-3.091c-0.914,0.235-1.427,0.749-1.74,1.823c-2.083,7.163-4.29,14.291-6.454,21.431
		c-0.156,0.513-0.291,1.033-0.633,1.522c0.044-0.873,0.087-1.747,0.131-2.62c0.218-4.355,0.521-8.708,0.63-13.066
		c0.108-4.278,0.028-8.561,0.011-12.842c-0.004-0.953,0.005-1.922-0.162-2.854c-0.148-0.826,0.251-1.181,0.795-1.655
		c1.669-1.453,3.435-2.845,4.848-4.526c1.433-1.704,2.587-3.672,3.234-5.866C162.936,304.848,163.018,304.708,163.108,304.505z"/>
	<path fill="#0D7C8E" d="M245.148,62.415c-0.51,15.82-23.21,83.76-43.67,142.07c-10.6,30.19-20.6,57.8-26.6,74.25
		c-3.6,9.85-5.76,15.7-5.76,15.7s-8.93-0.86-3.4-15.93l2.63-7.15l27.01-73.49L245.148,62.415z"/>
	<path fill="#0D7C8E" d="M265.338,51.395c-0.04,18.13-27.17,105.48-47.42,168.18c-2.13,6.58-4.18,12.89-6.11,18.81
		c-9.06,27.75-15.6,47.18-15.6,47.18s-8.94-0.59-3.86-15.82l0.8-2.38l17.93-53.65L265.338,51.395z"/>
</g>
</svg>
