<?xml version="1.0" encoding="utf-8"?>
<!-- Generator: Adobe Illustrator 24.3.0, SVG Export Plug-In . SVG Version: 6.00 Build 0)  -->
<svg version="1.1" id="Layer_5" xmlns="http://www.w3.org/2000/svg" xmlns:xlink="http://www.w3.org/1999/xlink" x="0px" y="0px"
	 viewBox="0 0 305.952 286.799" enable-background="new 0 0 305.952 286.799" xml:space="preserve">
<g>
	<path fill="#5F5F5F" d="M179.423,13.411c-16.71,76.034-132.1,15.815-102.647,152.069C11.684,40.901,127.991,63.56,179.423,13.411z"
		/>
</g>
<g>
	<path fill="#3D3D3D" d="M204.06,29.263c-16.71,76.034-132.1,15.815-102.647,152.069C36.321,56.753,152.627,79.413,204.06,29.263z"
		/>
</g>
<g>
	<path fill="#2B2B2B" d="M220.135,20.733c2.248,16.371,2.288,30.985-4.195,44.724c-2.437,5.164-2.569,9.685-0.705,14.718
		c2.755,7.438,5.622,14.843,8.078,22.381c2.485,7.626,0.41,11.221-7.504,12.255c-6.584,0.861-10.266,2.966-9.71,10.571
		c0.196,2.684-2.509,5.83-4.416,8.369c-4.634,6.171-11.871,7.472-10.252,20.275c1.468,11.615-10.942,15.536-21.648,10.48
		c-6.106-2.884-11.667-6.943-17.829-9.671c-2.761-1.222-6.884-1.599-9.552-0.437c-14.73,6.415-18.709,24.875-7.798,37.628
		c4.934,5.767,35.971,29.566,43.152,38.699c4.439,5.645,10.656,16.196,7.708,26.903c-20.495-34.932-57.467-43.26-71.518-69.968
		c-8.772-16.732-10.316-42.707-5.97-61.241c4.744-20.228,16.96-33.875,36.93-40.301c7.553-2.43,15.219-4.57,22.626-7.387
		c23.561-8.959,40.07-25.12,48.958-48.848C217.45,27.317,218.515,24.789,220.135,20.733z"/>
</g>
<g>
	<path fill="#46BEA2" d="M110.996,0C23.948,34.288-9.269,139.84,37.473,211.066c39.32,59.916,135.252,94.071,223.814,24.729
		c-20.344,30.023-84.293,62.729-150.301,46.856C40.501,265.701-4.755,204.335,0.399,132.452C5.329,63.686,60.028,11.294,110.996,0z"
		/>
</g>
<g>
	<path fill="#54CE05" d="M260.569,241.492c0,0,67.853-6.799,37.625-72.581c-10.605,17.468-70.477,27.107-44.044,70.163
		c0,0,15.128-6.861,28.572-33.975C282.722,205.098,276.438,222.824,260.569,241.492z"/>
</g>
</svg>
