<?xml version="1.0" encoding="utf-8"?>
<!-- Generator: Adobe Illustrator 24.3.0, SVG Export Plug-In . SVG Version: 6.00 Build 0)  -->
<svg version="1.1" id="Layer_2" xmlns="http://www.w3.org/2000/svg" xmlns:xlink="http://www.w3.org/1999/xlink" x="0px" y="0px"
	 viewBox="0 0 238.547 239.549" enable-background="new 0 0 238.547 239.549" xml:space="preserve">
<g>
	<path fill="#22225B" d="M110.967,169.91l8.149-8.149l8.141,8.149l-8.141,8.141L110.967,169.91z M119.116,116.48l-30.38-30.38
		l-0.948-0.956l-1.865-1.865v11.268H28.845l12.69,12.706h50.392l27.189,27.189l27.181-27.189h50.392l12.698-12.706h-57.07v-11.26
		l-1.865,1.873l-0.948,0.94L119.116,116.48z M129.211,92.98l8.977-8.985l-19.072-19.08l-19.072,19.08l8.977,8.985l10.094-10.094
		L129.211,92.98z M88.713,113.386H47.676l12.69,12.698h23.09l26.675,26.691l-17.119,17.127l26.104,26.112l26.104-26.112
		l-17.127-17.127l26.683-26.691h23.082l12.698-12.698h-41.045l-30.396,30.404L88.713,113.386z"/>
	<path fill="#22225B" d="M238.547,70.268L201.008,190.27l-81.618,49.279l-86.805-42.012L0,70.271L115.381,0 M38.921,192.357
		l80.078,38.756l75.763-45.743l34.916-111.615L115.505,8.617L8.555,73.753L38.921,192.357z"/>
</g>
</svg>
