<?xml version="1.0" encoding="utf-8"?>
<!-- Generator: Adobe Illustrator 24.3.0, SVG Export Plug-In . SVG Version: 6.00 Build 0)  -->
<svg version="1.1" id="Layer_4" xmlns="http://www.w3.org/2000/svg" xmlns:xlink="http://www.w3.org/1999/xlink" x="0px" y="0px"
	 viewBox="0 0 229.255 227.866" enable-background="new 0 0 229.255 227.866" xml:space="preserve">
<g>
	<path fill-rule="evenodd" clip-rule="evenodd" fill="#210328" d="M93.714,32.305c15.153-3.465,30.215-7.659,42.216-13.522v-4.35
		c-0.738-0.167-1.288-0.812-1.288-1.584c0-0.898,0.745-1.626,1.664-1.626c2.252,0,4.078-1.785,4.078-3.986
		c0-2.201-1.826-3.985-4.078-3.985c-3.028,0-5.039,3.163-3.624,5.825c0.42,0.796,0.1,1.775-0.715,2.185
		c-0.815,0.41-1.816,0.098-2.236-0.699C127.164,5.728,130.809,0,136.306,0c4.088,0,7.405,3.242,7.405,7.237
		c0,2.945-1.825,5.587-4.599,6.699v4.799c13.604,5.744,30.305,12.438,44.694,14.348c-0.811,4.91-2.605,8.295-7.375,8.23
		c-12.962-6.148-27.489-12.249-40.17-18.198c-13.074,6.323-27.449,14.665-41.377,18.767C92.806,39.499,91.72,35.013,93.714,32.305
		L93.714,32.305z"/>
</g>
<g>
	<path fill-rule="evenodd" clip-rule="evenodd" fill="#F20F77" d="M62.081,131.349c23.937,1.817,56.862,5.798,76.292-10.532
		c-0.017,0.019-7.822,5.484-23.636,7.457c0.544-0.513,1.006-1.073,1.385-1.686c4.521-7.307-6.26-17.503-0.522-31.778
		c5.738-14.274,14.259-6.967,15.824-17.673c1.564-10.705-17.871-31.793-17.871-31.793c1.695-12.494,18.787-6.583,25.737-3.043
		c8.56-6.909,20.02-5.163,21.155,1.638c0,2.548-14.328,19.516-11.025,25.973c0.682,1.333,3.404,3.855,4.989,5.005
		c-0.31,7.99,2.522,14.293,6.095,19.557c-2.833-6.159-3.67-11.992-3.35-18.041c5.722,4.153,12.056,10.475,10.523,26.105
		c-2.434,24.809-33.036,41.122-22.603,77.147c10.433,36.026,42.427,47.241,42.427,47.241c-48.41,1.536-84.097-13.058-92.156-63.893
		c-3.893,25.818,6.555,41.165,18.518,51.8c-35.257-7.097-57.382-20.509-48.425-59.277c0,0-10.433-10.196-29.908-4.758
		c-19.474,5.437-27.473,18.692-27.473,18.692C5.042,150.51,14.341,127.723,62.081,131.349L62.081,131.349z"/>
	<path fill-rule="evenodd" clip-rule="evenodd" fill="#F20F77" d="M147.887,26.388h3.371v22.477h-3.371V26.388z M125.207,26.388
		h3.372v22.477h-3.372V26.388z"/>
</g>
<g>
	<path fill-rule="evenodd" clip-rule="evenodd" fill="#D8006C" d="M165.564,123.152c-30.341,33.982-11.634,90.575,30.34,102.292
		c10.618,2.965,27.002,2.373,27.002,2.373c6.425-5.165,10.74-7.994-1.116-17.546C199.495,192.311,147.399,161.335,165.564,123.152"
		/>
	<path fill-rule="evenodd" clip-rule="evenodd" fill="#D8006C" d="M77.851,129.875c-28.439-2.918-73.58-6.972-72.811,32.839
		c-4.224-11.784-8.953-23.221,0.268-30.043C23.597,119.132,58.768,122.851,77.851,129.875z"/>
	<path fill-rule="evenodd" clip-rule="evenodd" fill="#D8006C" d="M62.081,131.349c21.425,1.627,50.052,4.984,69.755-6.041
		c10.14-3.668,21.4-10.199,35.728-21.804c-3.116,24.271-32.786,40.625-22.49,76.18c10.433,36.027,42.428,47.241,42.428,47.241
		c-48.41,1.536-84.096-13.058-92.156-63.893c-3.894,25.818,6.554,41.164,18.518,51.8c-35.258-7.097-57.382-20.509-48.426-59.277
		c0,0-10.433-10.197-29.907-4.759c-19.474,5.437-27.473,18.692-27.473,18.692C5.041,150.511,14.341,127.722,62.081,131.349z"/>
	<path fill-rule="evenodd" clip-rule="evenodd" fill="#D8006C" d="M169.76,123.152c-0.031,0.283,0.006,0.597-0.036,0.886
		c-0.1,0.688-0.251,1.353-0.405,2.03c-1.391,6.094-1.537,12.407-0.869,18.623c1.551,14.447,8.835,27.358,22.017,34.149
		c4.427,2.281,9.525,4.072,14.626,4.223c4.552,0.135,12.058-1.394,13.532-6.501c1.563-5.418-4.409-9.174-8.55-11.078
		c-8.811-4.051-18.851-6.662-26.342-13.269C175.089,144.592,172.441,133.84,169.76,123.152z"/>
</g>
</svg>
