<?xml version="1.0" encoding="utf-8"?>
<!-- Generator: Adobe Illustrator 24.3.0, SVG Export Plug-In . SVG Version: 6.00 Build 0)  -->
<svg version="1.1" id="Layer_1" xmlns="http://www.w3.org/2000/svg" xmlns:xlink="http://www.w3.org/1999/xlink" x="0px" y="0px"
	 viewBox="0 0 266.942 190.8" enable-background="new 0 0 266.942 190.8" xml:space="preserve">
<g>
	<path fill="#757575" d="M184.4,69.39V79.5c-21.55,5.11-37.56,22.8-40.78,44.42h-16.74v50c0,5.49-4.46,9.94-9.95,9.94h-3
		c-0.92,0-1.86-0.06-2.68-0.06c-1.12,0.01-2.24,0.01-3.36,0.01c-11.2,0.06-22.41,0.06-33.61,0.01c-10.26-0.05-15.75-5.33-15.9-15.64
		c-0.17-12.15-0.18-24.31,0.04-36.46c0.06-3.81-0.87-5.17-4.93-5.07c-11.48,0.28-22.99-0.25-34.46,0.21
		c-8.94,0.35-15.55-2.3-19.03-10.94V68.95c0.17,0.06,0.34,0.08,0.5,0.05c0.07-9.75,6.09-12.78,15.04-13.33
		c10.13-0.62,20.3-0.13,30.46-0.19c9.09-0.05,10.44-1.37,10.48-10.39c0.04-9.65-0.03-19.3,0.02-28.96C56.57,4.92,58.35,2.65,68.95,0
		h46.97c8.29,3.11,11.32,9.22,11.07,17.88c-0.34,11.8,0.02,23.61-0.16,35.42c0,0.18-0.01,0.36-0.01,0.54
		c-0.01,0.53,0.01,1,0.06,1.43c0.23,2.33,1.35,3.13,4.36,3.09c12.98-0.2,25.97-0.15,38.96-0.05
		C178.07,58.37,182.65,62.07,184.4,69.39z"/>
</g>
<g>
	<path fill="#F27281" d="M255.79,131.99c0,3.75-0.35,7.42-1.03,10.98c-0.35,1.84-0.78,3.65-1.3,5.42
		c-7.11,24.48-29.74,42.41-56.48,42.41c-26.7,0-49.31-17.89-56.46-42.31c-0.51-1.74-0.94-3.52-1.29-5.32
		c-0.7-3.62-1.07-7.36-1.07-11.18c0-2.73,0.19-5.43,0.55-8.07c3.31-24.27,21.39-44.13,45.69-49.4c0.82-0.17,1.65-0.34,2.48-0.48
		c1.32-0.23,2.57,0.65,2.8,1.97c0.23,1.32-0.65,2.58-1.97,2.81c-1.12,0.19-2.22,0.42-3.31,0.68c-21.55,5.11-37.56,22.8-40.78,44.42
		c-0.4,2.63-0.6,5.33-0.6,8.07c0,29.75,24.2,53.96,53.96,53.96c29.75,0,53.96-24.21,53.96-53.96c0-29.73-24.16-53.92-53.86-53.97
		h-0.1c-0.07,0-0.14,0-0.21-0.01c-0.03,0.01-0.05,0.01-0.07-0.01c-0.4-0.04-0.76-0.18-1.08-0.39c-0.31-0.2-0.57-0.48-0.75-0.81
		c-0.04-0.07-0.07-0.13-0.1-0.2c-0.09-0.19-0.16-0.4-0.19-0.63c-0.01-0.06-0.02-0.12-0.02-0.18c-0.01-0.06-0.01-0.13-0.01-0.19
		c0-1.34,1.09-2.43,2.43-2.43c0.74,0,1.47,0.01,2.2,0.05C230.59,74.37,255.79,100.3,255.79,131.99z"/>
</g>
<g>
	<path fill="#F69DA8" d="M251.685,148.629c-1.231,0-2.284-0.931-2.412-2.181c-0.135-1.334,0.836-2.524,2.169-2.659
		c6.07-0.616,10.647-5.69,10.647-11.802c0-3.787-1.833-7.38-4.902-9.609c-1.085-0.787-1.326-2.305-0.538-3.389
		c0.789-1.083,2.306-1.325,3.389-0.537c4.324,3.139,6.904,8.199,6.904,13.536c0,8.612-6.453,15.762-15.01,16.631
		C251.85,148.624,251.767,148.629,251.685,148.629z"/>
	<path fill="#F69DA8" d="M142.187,148.669c-0.055,0-0.11-0.002-0.165-0.005c-8.736-0.589-15.579-7.915-15.579-16.679
		c0-5.337,2.581-10.396,6.905-13.536c1.085-0.786,2.603-0.546,3.389,0.537c0.788,1.085,0.547,2.602-0.537,3.389
		c-3.07,2.23-4.904,5.822-4.904,9.609c0,6.219,4.854,11.419,11.052,11.836c1.337,0.09,2.348,1.247,2.258,2.584
		C144.52,147.688,143.453,148.669,142.187,148.669z"/>
	<path fill="#F69DA8" d="M231.785,136.62c-0.726,0-1.444-0.325-1.922-0.944c-1.628-2.11-5.255-3.473-9.24-3.473
		c-3.985,0-7.61,1.363-9.237,3.472c-0.82,1.061-2.343,1.257-3.404,0.439c-1.06-0.819-1.257-2.343-0.44-3.404
		c2.551-3.307,7.563-5.361,13.081-5.361c5.517,0,10.529,2.054,13.081,5.36c0.819,1.061,0.623,2.585-0.438,3.404
		C232.825,136.455,232.303,136.62,231.785,136.62z"/>
	<path fill="#F69DA8" d="M184.49,136.62c-0.726,0-1.445-0.325-1.923-0.944c-1.627-2.109-5.254-3.472-9.238-3.472
		s-7.611,1.363-9.238,3.472c-0.82,1.061-2.344,1.257-3.403,0.439c-1.061-0.819-1.258-2.343-0.439-3.404
		c2.552-3.307,7.564-5.361,13.081-5.361s10.529,2.054,13.081,5.361c0.819,1.061,0.622,2.585-0.439,3.404
		C185.529,136.455,185.008,136.62,184.49,136.62z"/>
</g>
<g>
	<path fill="#F8AF6B" d="M203.954,162.011c-0.4,3.32-3.06,5.94-6.4,6.29c0.72,0.46,1.57,0.73,2.48,0.73c2.55,0,4.61-2.07,4.61-4.62
		C204.644,163.531,204.394,162.711,203.954,162.011z M196.794,147.331c-11.42,0-20.67,6.17-20.67,13.78
		c0,7.61,9.25,13.78,20.67,13.78s20.67-6.17,20.67-13.78C217.464,153.501,208.214,147.331,196.794,147.331z M200.034,170.541
		c-1.97,0-3.73-0.94-4.83-2.39c-0.81-1.04-1.29-2.33-1.29-3.74c0-0.41,0.33-0.75,0.75-0.75s0.76,0.34,0.76,0.75
		c0,1.63,0.85,3.07,2.13,3.89c0.72,0.46,1.57,0.73,2.48,0.73c2.55,0,4.61-2.07,4.61-4.62c0-0.88-0.25-1.7-0.69-2.4
		c-0.79-1.32-2.25-2.21-3.92-2.21c-0.42,0-0.76-0.34-0.76-0.76c0-0.41,0.34-0.75,0.76-0.75c1.45,0,2.79,0.51,3.84,1.36
		c1.4,1.12,2.29,2.84,2.29,4.76C206.164,167.791,203.414,170.541,200.034,170.541z"/>
</g>
<g>
	<path fill="#C66369" d="M212.544,59.241c-1.02-2.26-3.52-3.96-6.22-4.23c-3.49-0.35-6.49,0.54-8.69,2.57
		c-0.06,0.06-0.12,0.12-0.18,0.17c-1.63-1.86-2.73-3.93-3.13-6.03c-0.26-1.32-1.53-2.18-2.85-1.92c-1.31,0.25-2.17,1.52-1.92,2.84
		c0.67,3.45,2.51,6.69,5.31,9.45c-0.4,1.29-0.59,2.72-0.55,4.22c0.02,0.94,0,1.91-0.01,2.89c-0.03,2.17-0.06,4.41,0.26,6.59
		c0,0.06,0.01,0.12,0.02,0.18c0.03,0.23,0.1,0.44,0.19,0.63c0.03,0.07,0.06,0.13,0.1,0.2c0.18,0.33,0.44,0.61,0.75,0.81
		c0.32,0.22,0.68,0.36,1.08,0.39c0.02,0.02,0.04,0.02,0.07,0.01c0.06,0.02,0.13,0.02,0.2,0.02c0.04,0,0.08,0,0.11-0.01
		c0.09,0,0.18-0.01,0.26-0.02c1.33-0.21,2.24-1.44,2.04-2.77c-0.1-0.64-0.16-1.32-0.2-2.01c-0.07-1.28-0.05-2.63-0.03-3.95
		c0.02-1.04,0.03-2.07,0.01-3.07c-0.01-0.25-0.01-0.5,0.01-0.74c3.51,2.16,9.86,3.46,12.71-0.53
		C213.144,63.181,213.384,61.101,212.544,59.241z M207.944,62.111c-0.76,1.05-4.36,0.41-6.32-0.83c-0.16-0.11-0.32-0.21-0.48-0.32
		c1.14-0.93,2.75-1.31,4.69-1.12c1.07,0.11,2.02,0.81,2.29,1.39C208.194,61.391,208.294,61.621,207.944,62.111z"/>
	<path fill="#C66369" d="M203.954,162.011c-0.4,3.32-3.06,5.94-6.4,6.29c-1.28-0.82-2.13-2.26-2.13-3.89c0-0.41-0.34-0.75-0.76-0.75
		s-0.75,0.34-0.75,0.75c0,1.41,0.48,2.7,1.29,3.74c-3.23-0.72-5.64-3.6-5.64-7.04c0-4,3.24-7.23,7.23-7.23
		c3.49,0,6.41,2.47,7.08,5.77c-1.05-0.85-2.39-1.36-3.84-1.36c-0.42,0-0.76,0.34-0.76,0.75c0,0.42,0.34,0.76,0.76,0.76
		C201.704,159.801,203.164,160.691,203.954,162.011z"/>
</g>
</svg>
