<?xml version="1.0" encoding="utf-8"?>
<!-- Generator: Adobe Illustrator 24.3.0, SVG Export Plug-In . SVG Version: 6.00 Build 0)  -->
<svg version="1.1" id="Layer_1" xmlns="http://www.w3.org/2000/svg" xmlns:xlink="http://www.w3.org/1999/xlink" x="0px" y="0px"
	 viewBox="0 0 227.307 226.466" enable-background="new 0 0 227.307 226.466" xml:space="preserve">
<g>
	<path fill="#E79C43" d="M200.84,125.966c-1.984-13.888-3.608-27.812-5.555-41.7c-1.972-14.061-2.902-28.271-5.977-42.171
		c-0.124-0.818-0.26-1.649-0.384-2.468c-2.418-9.833-9.746-15.611-20.348-15.921c-5.307-0.161-10.626-0.124-15.934-0.174
		l-0.471,0.062c3.249,4.476,2.306,10.279,4.972,15.152c2.009,3.645-2.901,3.112-4.786,4.389c-0.372-0.372-0.744-0.744-1.116-1.116
		c-0.062-1.662-0.112-3.311-0.161-4.972c0.012-2.071,0.025-4.129,0.037-6.2c0.012,0.012,0.012,0.012,0.025,0.025
		c-0.335-2.356-0.67-4.712-0.992-7.08h-0.012c-0.037-0.025-0.062-0.05-0.099-0.062c-0.062-0.05-0.136-0.074-0.198-0.099
		c-0.099-0.037-0.223-0.062-0.335-0.087c-9.87-0.037-19.728-0.062-29.598-0.087c-0.347-0.037-0.682,0.012-1.004,0.136
		c-0.161,2.393,0.422,4.836-0.967,7.13c-0.893,1.476-2.344,3.1-0.955,4.985c4.278,5.791-0.124,6.522-4.253,7.452
		c-0.384-0.372-0.769-0.769-1.153-1.141l-0.012-0.025c-0.025-1.637-0.05-3.274-0.074-4.898c-0.012,0-0.012,0.012-0.025,0.012
		c0-0.012,0-0.012,0-0.025c0.012,0,0.012-0.012,0.025-0.012c0,0.012,0,0.012,0,0.025c3.348-1.624,2.207-4.774,2.517-7.427
		c-0.012,0.012-0.012,0.012-0.025,0.025v-0.012c0.012-0.012,0.012-0.012,0.025-0.012c2.033-1.612,0.868-3.844,1.104-5.803
		c-5.133-0.037-10.279-0.36-15.375-0.037c-9.597,0.62-16.219,6.398-18.674,15.797c-0.124,0.818-0.236,1.637-0.36,2.468
		c-0.409,1.786-0.98,3.546-1.215,5.357c-3.435,26.386-6.77,52.773-10.267,79.147c-1.414,10.713,2.678,19.765,11.197,23.931h20.497
		c2.666-1.252,5.133-2.988,7.229-5.195v-0.062c-0.025-0.868,0.384-1.265,1.265-1.166l0.087-0.037
		c-0.099-0.88,0.298-1.277,1.178-1.203l-0.223-0.211l0.273,0.149c-0.112-0.868,0.285-1.277,1.141-1.29
		c0.012,0,0.05,0.012,0.05,0.012c7.316-7.465,9.052-20.571,3.559-27.006c0.037-0.285-0.074-0.484-0.335-0.608
		c-0.409-1.922-1.612-3.199-3.323-4.067c0,0.012,0,0.037-0.012,0.05c-0.781-0.05-1.203-0.446-1.24-1.228l-0.099,0.136
		c0.025-0.074,0.062-0.161,0.074-0.198c-0.806-0.062-1.178-0.496-1.104-1.314c0-0.012,0.025-0.037,0.025-0.037
		c-2.492-5.419-7.812-8.407-11.222-13.032c-2.368-3.187-2.976-6.497,0.223-9.411c3.212-2.939,6.857-3.769,10.577-0.694
		c1.575,1.302,3.038,2.728,4.563,4.092l0.012-0.05c0.409,0.422,0.818,0.831,1.228,1.252h0.05v0.05l-0.087-0.062
		c0.174,1.004,0.608,1.81,1.662,2.133l0.025,0.025c1.24,3.15,3.608,5.344,6.2,7.353l0.05,0.05
		c5.381,8.767,12.573,10.254,20.05,4.179l-0.012-0.012c0.037-0.843,0.446-1.252,1.314-1.153l0.062,0.012
		c1.624-0.372,2.889-1.166,3.274-2.926h-0.012v-0.012h0.012v0.012c1.364-0.285,2.17-1.153,2.455-2.505
		c3.881-2.468,6.46-6.262,9.424-9.61c3.546-4.005,7.365-5.741,12.486-3.621v-0.012c0-0.012-0.012-0.025-0.025-0.037
		c0.025,0.012,0.05,0.025,0.074,0.037c0,0.012,0.012,0.025,0.012,0.037c-0.012,0-0.012-0.012-0.025-0.012
		c-0.012,0-0.025-0.012-0.037-0.012c2.629,3.881,2.021,7.799,0.136,11.718v0.05c-0.012,0.012-0.037,0.025-0.05,0.037
		c0.012-0.025,0.025-0.05,0.037-0.074c-2.492,1.389-4.34,3.286-5.133,6.101c0.025-0.012,0.05-0.012,0.074-0.025
		c-0.409,0.422-0.806,0.843-1.203,1.265l0.025,0.025l0.198,0.26l-0.223-0.223c-0.025,0.781-0.434,1.203-1.203,1.302
		c-0.397,0.409-0.806,0.831-1.215,1.24v-0.05c-2.864,1.81-5.195,4.08-6.336,7.378c0.012-0.012,0.037-0.012,0.05-0.025h0.012
		c0,0.818-0.422,1.252-1.252,1.265c-0.012,0-0.05-0.037-0.05-0.037c-8.444,7.006-7.093,21.03,2.914,30.069h0.012
		c1.116,0.062,2.058,0.335,2.071,1.736l-0.05,0.025c2.083,2.182,4.588,3.918,7.328,5.158h21.699
		C198.336,146.289,202.415,137.039,200.84,125.966z"/>
</g>
<g>
	<path fill="#4D4D4D" d="M152.358,43.137v-0.012c-0.372-0.36-0.744-0.732-1.116-1.104c-0.062-1.662-0.112-3.311-0.161-4.972
		c0.012-2.071,0.025-4.129,0.037-6.2c0.012,0.012,0.012,0.012,0.025,0.025c-0.335-2.356-0.67-4.712-0.992-7.08v-0.012
		c-0.037-0.025-0.074-0.037-0.112-0.05c-0.062-0.05-0.136-0.074-0.198-0.099c-0.099-0.037-0.223-0.062-0.335-0.087
		c-1.451-4.985-3.77-9.56-6.795-13.726c-6.001-8.258-10.961-8.134-16.615,0.26c-2.79,4.129-4.39,8.804-6.187,13.379
		c-0.347-0.037-0.682,0.012-1.004,0.136c-0.161,2.393,0.422,4.836-0.967,7.13c-0.893,1.476-2.344,3.1-0.955,4.985
		c4.278,5.791-0.124,6.522-4.253,7.452c-0.384-0.372-0.769-0.769-1.153-1.141l-0.012-0.025c-0.025-1.637-0.05-3.274-0.074-4.898
		c3.348-1.624,2.207-4.774,2.517-7.427c2.033-1.612,0.868-3.844,1.104-5.803c0.384-0.174,0.769-0.347,1.166-0.521
		c2.244-6.82,4.774-13.528,9.771-18.897c5.27-5.654,10.701-5.977,16.07-0.645c5.468,5.443,9.337,11.916,10.527,19.728l-0.471,0.062
		c3.249,4.476,2.306,10.279,4.972,15.152C159.153,42.393,154.243,41.86,152.358,43.137z"/>
</g>
<g>
	<path d="M220.83,168.314c-5.86-6.31-16.93-10.57-25.76-10.82c-40.83-1.13-81.7-0.78-122.55-0.35
		c-10.97,0.12-14.91-3.63-14.72-14.69c0.52-30.98,0.41-61.98,0.11-92.97c-0.41-42.2,5.82-36.15-36.57-36.28
		c-7.84-0.02-21.4-4.72-21.34,8.33c0.06,12.16,13.3,8.68,21.58,8.98c18.25,0.67,18.68,0.74,18.71,19.43
		c0.07,36.62,0.24,73.25-0.07,109.88c-0.1,10.72,3.82,15.28,14.86,15.05c23-0.48,46.01-0.14,69.02-0.14v0.15
		c24.42,0,48.85-0.35,73.25,0.36c0.63,0.02,1.25,0.18,1.88,0.43c6.16,2.53,6.89,10.99,1.82,15.31c-1.23,1.05-2.45,1.73-3.64,1.68
		c-6.14-0.27-13.17-3.32-17.95-7.4c-11.57-9.88-24.05-10.82-35.38-0.92c-14.96,13.07-46.31,13.19-60.95,0.24
		c-11.29-9.98-25.49-9.73-35.25,0.62c-8.84,9.37-9.02,23.61-0.44,33.26c9.01,10.14,24.32,10.71,35.46,1.31
		c14.33-12.09,46.22-12.29,60.45-0.47c10.22,8.49,20.66,9.06,32.44,2.31c8.08-4.64,17.01-8.77,26.06-10.54
		C223.99,206.724,235.32,183.904,220.83,168.314z M65.75,213.874c-6.23,0-11.28-5.05-11.28-11.27c0-6.23,5.05-11.28,11.28-11.28
		c6.23,0,11.28,5.05,11.28,11.28C77.03,208.824,71.98,213.874,65.75,213.874z M161.6,213.874c-6.23,0-11.27-5.05-11.27-11.27
		c0-6.23,5.04-11.28,11.27-11.28c6.23,0,11.28,5.05,11.28,11.28C172.88,208.824,167.83,213.874,161.6,213.874z"/>
</g>
</svg>
