<?xml version="1.0" encoding="utf-8"?>
<!-- Generator: Adobe Illustrator 24.3.0, SVG Export Plug-In . SVG Version: 6.00 Build 0)  -->
<svg version="1.1" id="Layer_5" xmlns="http://www.w3.org/2000/svg" xmlns:xlink="http://www.w3.org/1999/xlink" x="0px" y="0px"
	 viewBox="0 0 292.107 229.1" enable-background="new 0 0 292.107 229.1" xml:space="preserve">
<g>
	<path fill-rule="evenodd" clip-rule="evenodd" fill="#C97339" d="M184.247,87.257c2.508,0.702,4.243,2.983,4.254,5.586
		c0.065,0.166,0.066,0.265,0.066,0.265s-0.028,22.291-26.422,42.812c-9.813,7.628-18.435,19.618-21.704,31.308
		c-0.64,2.26-2.564,3.918-4.891,4.224c-2.328,0.303-4.614-0.805-5.814-2.823c-6.745-11.73-12.464-30.884,0.386-53.167
		C142.647,93.745,165.518,82.389,184.247,87.257z"/>
	<path fill-rule="evenodd" clip-rule="evenodd" fill="#C97339" d="M149.774,186.197c-2.583-0.711-4.379-3.057-4.39-5.738
		c-0.067-0.094-0.068-0.148-0.068-0.148s0.028-22.291,26.422-42.812c9.905-7.7,18.596-19.845,21.795-31.639
		c0.606-2.201,2.462-3.829,4.725-4.141c2.26-0.312,4.489,0.751,5.667,2.706c6.844,11.689,12.823,31.013-0.164,53.532
		C191.266,179.621,168.477,190.975,149.774,186.197z"/>
	<path fill-rule="evenodd" clip-rule="evenodd" fill="#C97339" d="M116.794,185.77c2.574-0.033,4.814-1.769,5.491-4.252
		c0.113-0.172,0.142-0.281,0.142-0.281s5.743-21.542-14.441-48.19c-7.479-9.876-12.692-23.631-12.858-35.74
		c-0.044-2.37-1.491-4.485-3.686-5.385c-2.192-0.899-4.71-0.408-6.406,1.249c-9.518,9.607-19.897,26.592-13.275,51.347
		C78.243,168.758,97.424,185.655,116.794,185.77z M130.223,172.82c2.293,1.314,4.178,1.864,6.891,1.402
		c-1.145,2.737-2.84,4.76-4.462,6.198c-0.74,0.583-1.76,0.663-2.58,0.201c-0.823-0.459-1.287-1.37-1.175-2.305
		C128.972,176.826,129.33,175.054,130.223,172.82z M140.43,97.127c-21.367,15.669-21.533,38.669-22.4,37.524
		C97.847,108,103.226,85.81,103.226,85.81s0.033-0.121,0.086-0.32c0.678-2.482,2.9-4.234,5.474-4.308
		C120.261,81.319,131.679,87.257,140.43,97.127z"/>
</g>
<g>
	<path fill="#49301A" d="M50.697,121.91c-1.347,7.371-1.961,14.057-1.985,20.153c-0.024,6.095,0.543,11.577,1.607,16.514
		c0.851,3.473,1.985,6.875,3.402,10.159c1.37,3.213,3.024,6.308,4.961,9.261c3.237,4.938,7.253,9.45,12.12,13.443
		c4.583,3.757,9.899,7.017,16.018,9.663l0.402-0.024h111.774c7.631-2.977,14.152-7.064,19.586-11.978
		c5.812-5.245,10.395-11.459,13.774-18.239c2.268-4.536,3.993-9.356,5.221-14.317c1.252-5.08,1.937-10.348,2.126-15.64
		c0.165-5.292-0.189-10.632-1.04-15.924c-0.851-5.269-2.244-10.514-4.111-15.569c-3.331-9.025-8.222-17.53-14.601-24.902
		c-5.977-6.875-13.23-12.758-21.759-17.152L88.452,68.184c-0.165,0.047-0.354,0.095-0.52,0.118l-0.425,0.047
		c-7.253,4.938-13.585,10.892-18.948,17.507c-5.647,6.97-10.183,14.695-13.538,22.775c-0.898,2.15-1.701,4.324-2.41,6.521
		c-0.709,2.197-1.347,4.394-1.89,6.615L50.697,121.91L50.697,121.91z M205.518,207.979v7.324c0,1.866-0.378,3.638-1.04,5.269
		c-0.709,1.677-1.725,3.213-3,4.489l-0.047,0.047c-1.252,1.252-2.764,2.268-4.418,2.953c-1.63,0.685-3.402,1.04-5.269,1.04H95.516
		c-1.725,0-3.355-0.354-4.867-0.969c-1.559-0.638-2.977-1.607-4.135-2.764l-0.213-0.236c-1.11-1.158-2.008-2.528-2.599-4.064
		c-0.591-1.465-0.921-3.048-0.921-4.702v-7.324c-2.221-0.992-4.347-2.032-6.355-3.142c-2.15-1.181-4.205-2.457-6.166-3.78
		l-0.236-0.024c-4.867-0.449-9.781-1.37-14.577-2.835c-4.536-1.37-8.978-3.237-13.16-5.599c-3.993-2.268-7.773-5.009-11.199-8.245
		c-3.237-3.071-6.166-6.592-8.718-10.608c-6.214-9.828-9.379-17.436-11.081-24.831c-1.677-7.395-1.89-14.53-2.126-23.437
		l-0.118-4.347c-0.047-1.488-0.095-3.095-0.189-4.843c-0.165-4.064-0.449-8.104-0.851-12.096c-0.402-4.04-0.921-7.986-1.607-11.931
		c-0.685-3.875-1.512-7.702-2.504-11.435c-1.016-3.757-2.197-7.419-3.591-10.986c-0.449-1.134-0.378-2.363,0.071-3.402
		c0.449-1.04,1.323-1.89,2.457-2.339c0.307-0.118,0.614-0.189,0.921-0.236c0.307-0.047,0.638-0.071,0.945-0.047l20.035,0.354
		c0.921,0.024,1.748,0.307,2.457,0.78c0.709,0.496,1.276,1.205,1.607,2.032l16.916,40.07l0.142-0.354
		c0.307-0.78,0.638-1.63,0.992-2.504c3.709-8.954,8.765-17.507,15.05-25.232c5.93-7.277,12.947-13.821,20.956-19.231v-7.938
		c0-1.418,0.284-2.764,0.803-4.016c0.543-1.299,1.323-2.457,2.292-3.426l0.047-0.047c0.969-0.945,2.103-1.725,3.355-2.244
		c1.252-0.52,2.599-0.803,4.016-0.803h1.985c1.229-1.985,2.552-3.851,3.993-5.599c1.536-1.89,3.213-3.638,5.009-5.245
		c2.055-1.843,4.276-3.497,6.663-4.985c2.386-1.465,4.961-2.741,7.726-3.78c1.181-0.449,2.41-0.874,3.662-1.229
		c1.276-0.378,2.646-0.709,4.04-0.992l1.725-0.331c-0.213-0.614-0.378-1.229-0.52-1.89c-0.213-0.992-0.307-2.032-0.307-3.048
		c0-2.055,0.402-4.016,1.158-5.812c0.78-1.866,1.914-3.544,3.308-4.938c1.394-1.394,3.071-2.528,4.938-3.308
		C138.515,0.402,140.476,0,142.531,0c2.055,0,4.016,0.402,5.812,1.158c1.866,0.78,3.544,1.914,4.938,3.308s2.528,3.071,3.308,4.938
		c0.732,1.796,1.158,3.757,1.158,5.812c0,0.969-0.095,1.914-0.284,2.859c-0.118,0.567-0.26,1.134-0.425,1.677
		c1.11,0.165,2.197,0.354,3.308,0.591c1.087,0.213,2.126,0.473,3.119,0.732c3.308,0.874,6.403,2.032,9.285,3.473
		c2.906,1.441,5.623,3.166,8.104,5.127c2.221,1.748,4.253,3.733,6.143,5.906c1.772,2.055,3.402,4.3,4.891,6.733h1.866
		c1.418,0,2.764,0.284,4.016,0.803c1.299,0.543,2.457,1.323,3.426,2.292l0.047,0.047c0.945,0.969,1.725,2.103,2.244,3.379
		c0.52,1.252,0.803,2.599,0.803,4.016v7.702c3.213,1.772,6.261,3.757,9.143,5.883c2.93,2.174,5.67,4.513,8.245,7.017
		c10.017-4.583,19.373-5.954,27.784-4.843c9.474,1.252,17.767,5.623,24.476,12.049c3.78,3.615,7.041,7.867,9.687,12.569
		c2.717,4.772,4.82,10.017,6.261,15.522c1.441,5.505,2.197,11.293,2.221,17.129c0.024,5.647-0.662,11.364-2.126,16.916
		c-3.142,12.049-9.828,23.437-20.696,32.226c-9.521,7.678-22.256,13.372-38.605,15.711h-0.024c-0.284,0.047-0.567,0.047-0.851,0.024
		l-0.307-0.024c-3.237,3.591-6.899,6.899-11.01,9.828C214.59,203.372,210.243,205.876,205.518,207.979L205.518,207.979z
		 M91.665,210.176v6.166c0,0.496,0.095,0.969,0.26,1.394c0.165,0.449,0.425,0.851,0.756,1.205l0.118,0.118
		c0.709,0.709,1.654,1.134,2.717,1.134h96.228c0.662,0,1.299-0.142,1.866-0.378c0.591-0.236,1.134-0.614,1.583-1.063
		c0.449-0.449,0.827-0.992,1.063-1.583c0.236-0.567,0.378-1.205,0.378-1.866v-5.127L91.665,210.176L91.665,210.176z M195.406,58.498
		v-5.647c0-0.213-0.047-0.425-0.118-0.614c-0.094-0.189-0.213-0.378-0.354-0.543c-0.142-0.142-0.331-0.284-0.52-0.354
		s-0.402-0.118-0.614-0.118H93.389c-0.213,0-0.425,0.047-0.614,0.118c-0.189,0.095-0.378,0.213-0.543,0.354
		c-0.284,0.307-0.473,0.709-0.473,1.134v6.45L195.406,58.498L195.406,58.498z M106.242,42.314h74.847
		c-0.685-0.827-1.37-1.63-2.103-2.386c-1.134-1.181-2.339-2.292-3.615-3.308c-2.008-1.607-4.205-2.977-6.568-4.135
		c-2.363-1.158-4.891-2.103-7.608-2.835c-0.851-0.236-1.701-0.425-2.599-0.614h-0.024c-0.874-0.189-1.843-0.354-2.859-0.496
		c-1.063-0.165-2.126-0.307-3.166-0.402c-1.063-0.118-2.15-0.213-3.26-0.26h-0.047c-0.567-0.047-1.134-0.189-1.654-0.449
		c-0.52-0.26-0.992-0.614-1.394-1.087c-0.803-0.921-1.134-2.103-1.063-3.237c0.095-1.134,0.614-2.244,1.536-3.024
		c0.354-0.307,0.685-0.638,0.945-0.992c0.284-0.354,0.52-0.756,0.709-1.181c0.189-0.402,0.331-0.827,0.425-1.276
		c0.094-0.425,0.142-0.898,0.142-1.37c0-0.874-0.165-1.677-0.473-2.433c-0.307-0.78-0.78-1.465-1.37-2.055
		c-0.591-0.591-1.276-1.063-2.055-1.37c-0.732-0.307-1.559-0.473-2.433-0.473c-0.851,0-1.677,0.165-2.41,0.473
		c-0.78,0.331-1.465,0.803-2.055,1.37c-0.591,0.591-1.063,1.276-1.37,2.055l-0.024,0.047c-0.284,0.732-0.449,1.536-0.449,2.386
		c0,0.496,0.047,0.992,0.142,1.418c0.095,0.449,0.26,0.898,0.449,1.299l0.024,0.071c0.165,0.378,0.402,0.756,0.685,1.087
		c0.307,0.378,0.638,0.709,0.992,1.016l0.071,0.071c0.425,0.354,0.78,0.803,1.04,1.299c0.284,0.52,0.449,1.087,0.496,1.701
		c0.095,1.229-0.284,2.363-1.016,3.237l-0.047,0.047c-0.732,0.827-1.772,1.418-2.953,1.512h-0.071
		c-1.323,0.118-2.67,0.284-3.993,0.473c-1.323,0.189-2.599,0.425-3.851,0.685c-1.181,0.236-2.315,0.52-3.402,0.827
		c-1.063,0.307-2.032,0.614-2.93,0.969l-0.047,0.024c-2.197,0.851-4.253,1.866-6.166,3.048c-1.937,1.181-3.733,2.528-5.387,4.04
		c-0.945,0.851-1.843,1.748-2.717,2.693C107.116,41.274,106.667,41.794,106.242,42.314L106.242,42.314z M237.176,180.478
		c11.789-2.764,21.074-7.608,28.115-13.75c8.411-7.324,13.632-16.514,16.136-26.177c1.252-4.82,1.843-9.781,1.843-14.695
		c-0.024-5.08-0.685-10.088-1.937-14.908c-1.229-4.725-3.024-9.238-5.339-13.301l-0.024-0.071c-2.244-3.969-4.985-7.56-8.127-10.561
		c-5.174-4.938-11.529-8.364-18.83-9.474c-6.332-0.969-13.372-0.189-20.956,2.811c3.048,3.686,5.765,7.631,8.127,11.742
		c2.646,4.56,4.867,9.332,6.686,14.246c2.055,5.576,3.568,11.364,4.513,17.2c0.945,5.859,1.347,11.766,1.158,17.649
		c-0.189,5.954-0.969,11.837-2.363,17.554c-1.37,5.576-3.308,10.986-5.859,16.089c-0.638,1.276-1.323,2.552-2.055,3.827
		C237.909,179.25,237.555,179.864,237.176,180.478L237.176,180.478z M41.696,160.68c-0.614-2.504-1.087-5.032-1.441-7.584
		c-0.354-2.599-0.614-5.221-0.732-7.867c-0.165-3.969-0.071-7.962,0.307-11.978c0.378-3.946,0.992-7.915,1.89-11.837l-20.035-47.37
		l-10.939-0.189c0.898,2.741,1.677,5.505,2.363,8.269c0.803,3.213,1.465,6.426,2.032,9.687c0.709,4.064,1.252,8.198,1.677,12.404
		c0.425,4.182,0.709,8.434,0.898,12.711l0,0c0.071,1.583,0.118,3.189,0.165,4.772l0.142,4.583
		c0.213,8.198,0.402,14.766,1.914,21.452c1.512,6.662,4.371,13.514,9.923,22.326c2.126,3.379,4.607,6.332,7.324,8.907
		c2.882,2.741,6.072,5.032,9.45,6.97c1.937,1.087,3.922,2.055,5.977,2.906c1.11,0.449,2.221,0.874,3.355,1.276
		c-1.654-1.961-3.26-4.064-4.749-6.332c-2.15-3.26-4.111-6.899-5.765-10.892c-0.756-1.843-1.465-3.804-2.103-5.812
		C42.712,165.003,42.168,162.9,41.696,160.68L41.696,160.68L41.696,160.68z"/>
</g>
</svg>
