<?xml version="1.0" encoding="utf-8"?>
<!-- Generator: Adobe Illustrator 24.3.0, SVG Export Plug-In . SVG Version: 6.00 Build 0)  -->
<svg version="1.1" id="Layer_5" xmlns="http://www.w3.org/2000/svg" xmlns:xlink="http://www.w3.org/1999/xlink" x="0px" y="0px"
	 viewBox="0 0 146.798 233.534" enable-background="new 0 0 146.798 233.534" xml:space="preserve">
<g>
	<path fill="#BF935B" d="M135.032,71.237l-5.153,55.224H97.869c-6.076-6.583-14.794-10.713-24.475-10.713
		s-18.398,4.13-24.475,10.713H16.919l-5.163-55.224H135.032"/>
	<path fill="#BF935B" d="M125.659,171.548l-4.557,48.85c-0.695,7.447-6.95,13.136-14.437,13.136H40.132
		c-7.486,0-13.742-5.689-14.437-13.136l-4.567-48.85h27.791c6.076,6.593,14.794,10.713,24.475,10.713h0.149
		c9.621-0.04,18.279-4.16,24.326-10.713H125.659"/>
	<path fill="#BF935B" d="M146.798,53.961c0,5.808-4.716,10.515-10.525,10.515c0,0-0.209,0-0.606,0H11.13c-0.397,0-0.606,0-0.606,0
		C4.706,64.476,0,59.77,0,53.961s4.706-10.525,10.525-10.525h0.606c0,0,19.183,0,42.486,0h48.87c17.902,0,33.182,0,33.182,0h0.606
		C142.082,43.437,146.798,48.153,146.798,53.961"/>
	<path fill="#BF935B" d="M134.556,36.675H12.232c1.052-3.098,2.8-5.858,5.064-8.112c3.813-3.813,9.075-6.166,14.893-6.166h82.419
		C123.862,22.397,131.736,28.375,134.556,36.675"/>
	<path fill="#BF935B" d="M109.339,17.166h-71.89c0.619-1.821,1.646-3.443,2.976-4.767c2.241-2.241,5.333-3.624,8.753-3.624h48.438
		C103.055,8.775,107.682,12.288,109.339,17.166"/>
	<path fill="#BF935B" d="M94.884,5.305H49.436c0.391-1.151,1.04-2.177,1.881-3.014C52.734,0.874,54.689,0,56.85,0h30.622
		C90.911,0,93.836,2.221,94.884,5.305"/>
	<path fill="#BF935B" d="M92.15,135.01c-0.199-0.089-0.397-0.169-0.596-0.238c-1.46,1.529-2.651,3.574-3.425,5.987
		c-1.003,3.068-1.301,6.285-1.618,9.681c-0.089,0.923-0.169,1.857-0.278,2.78c-0.447,4.15-1.291,8.916-4.081,12.798
		c-1.251,1.747-2.84,3.247-4.379,4.696c-0.109,0.099-0.209,0.199-0.318,0.298c6.801,1.906,15.161-3.366,19.312-12.49
		C101.234,148.732,99.159,138.207,92.15,135.01"/>
	<path fill="#BF935B" d="M79.977,164.459c2.423-3.386,3.177-7.725,3.594-11.527c0.099-0.913,0.189-1.827,0.268-2.74
		c0.318-3.396,0.645-6.901,1.738-10.257c0.715-2.224,1.738-4.19,3.008-5.808c-6.345-0.447-13.473,4.637-17.217,12.848
		c-4.2,9.204-2.611,19.073,3.435,22.856c0.367-0.357,0.745-0.715,1.132-1.072C77.375,167.398,78.875,165.998,79.977,164.459"/>
	<path fill="#BF935B" d="M62.949,149.149c0.089,0.913,0.169,1.837,0.268,2.74c0.427,3.803,1.182,8.152,3.604,11.527
		c0.109,0.159,0.228,0.318,0.348,0.467c-2.254-4.776-2.145-11.517,0.784-17.951c1.023-2.234,2.294-4.24,3.733-5.967
		c-3.833-4.597-8.866-7.198-13.473-6.881c1.261,1.628,2.284,3.594,3.008,5.808C62.303,142.248,62.631,145.763,62.949,149.149"/>
	<path fill="#BF935B" d="M64.637,164.986c-2.79-3.892-3.624-8.658-4.081-12.798c-0.099-0.923-0.189-1.857-0.278-2.79
		c-0.318-3.396-0.616-6.603-1.608-9.671c-0.784-2.423-1.966-4.468-3.435-5.997c-0.199,0.079-0.397,0.159-0.596,0.248
		c-7.01,3.187-9.075,13.712-4.617,23.512c4.16,9.125,12.52,14.387,19.312,12.481c-0.099-0.099-0.209-0.199-0.308-0.298
		C67.486,168.232,65.888,166.733,64.637,164.986"/>
</g>
</svg>
