<?xml version="1.0" encoding="utf-8"?>
<!-- Generator: Adobe Illustrator 24.3.0, SVG Export Plug-In . SVG Version: 6.00 Build 0)  -->
<svg version="1.1" id="Layer_5" xmlns="http://www.w3.org/2000/svg" xmlns:xlink="http://www.w3.org/1999/xlink" x="0px" y="0px"
	 viewBox="0 0 201.461 181.689" enable-background="new 0 0 201.461 181.689" xml:space="preserve">
<g>
	<path fill-rule="evenodd" clip-rule="evenodd" fill="#00D378" d="M52.518,76.08c-8.741,15.287-28.669,15.016-17.202-3.819
		c52.706-89.002,114.15-79.169,143.36-57.327c6.556,4.912,6.836,7.368-0.812,3.268C148.374,2.644,100.852,4.83,115.877,71.71
		c2.186,14.475-9.833,14.475-12.018,0.822C100.03,47.412,91.299-1.996,52.518,76.08L52.518,76.08z"/>
	<path fill-rule="evenodd" clip-rule="evenodd" fill="#00D378" d="M64.265,62.979c1.364-5.734,3.549-10.104,6.004-13.652
		c2.185-2.457,4.37-4.642,7.107-5.734c5.734-2.998,10.366-2.727,14.193-0.271c3.278,3.006,4.642,7.638,4.371,15.016
		c-0.542,4.911-1.914,9.553-4.091,13.372c-1.102,1.644-2.185,3.278-3.828,4.912c-4.642,5.191-9.834,7.648-15.838,6.284
		c-1.364-0.271-2.727-0.551-3.829-1.914C65.086,78.266,63.443,71.99,64.265,62.979L64.265,62.979z"/>
</g>
<g>
	<path fill-rule="evenodd" clip-rule="evenodd" fill="#232323" d="M146.189,40.595c-12.57-12.289-7.107-31.675,8.189-15.838
		c72.362,74.258,46.971,130.759,18.294,153.432c-6.276,4.911-8.741,4.911-3.007-1.644c22.673-24.578,33.048-70.705-35.494-73.711
		c-14.474-1.364-11.467-13.101,2.457-11.739C161.746,93.823,211.454,98.193,146.189,40.595L146.189,40.595z"/>
	<path fill-rule="evenodd" clip-rule="evenodd" fill="#232323" d="M156.013,55.331c4.922,2.727,8.741,6.014,11.477,9.282
		c1.905,2.727,3.268,5.463,3.819,8.461c1.093,6.284,0,10.646-3.549,13.652c-3.829,2.465-8.74,2.465-15.566,0.28
		c-4.642-1.644-8.741-4.37-12.018-7.377c-1.093-1.363-2.457-3.006-3.82-4.911c-3.549-5.735-4.641-11.468-1.914-16.921
		c0.552-1.372,1.363-2.465,2.737-3.287C140.997,52.062,147.281,52.062,156.013,55.331L156.013,55.331z"/>
</g>
<g>
	<path fill-rule="evenodd" clip-rule="evenodd" fill="#2874CE" d="M139.213,127.314c16.108-7.096,32.226,4.651,12.018,13.391
		C56.196,181.924,12.233,137.96,1.307,103.301c-2.447-7.919-1.364-10.104,2.465-2.185c15.016,29.746,54.609,55.968,81.644-7.097
		c6.555-13.092,16.389-5.995,10.375,6.276C84.052,122.944,62.482,167.992,139.213,127.314L139.213,127.314z"/>
	<path fill-rule="evenodd" clip-rule="evenodd" fill="#2874CE" d="M122.283,131.143c-4.642,3.829-8.741,6.276-13.111,7.377
		c-2.998,1.083-6.005,1.364-9.012,0.803c-6.556-1.083-10.104-3.81-11.467-8.181c-1.093-4.37,0.541-9.002,5.191-14.726
		c3.268-3.829,7.097-6.556,11.197-8.484c1.634-0.803,3.549-1.364,5.734-1.905c6.827-1.364,12.56,0,16.659,4.375
		c1.093,0.821,1.634,1.905,1.906,3.829C130.473,118.322,128.288,124.308,122.283,131.143L122.283,131.143z"/>
</g>
</svg>
