<?xml version="1.0" encoding="utf-8"?>
<!-- Generator: Adobe Illustrator 24.3.0, SVG Export Plug-In . SVG Version: 6.00 Build 0)  -->
<svg version="1.1" id="Layer_1" xmlns="http://www.w3.org/2000/svg" xmlns:xlink="http://www.w3.org/1999/xlink" x="0px" y="0px"
	 viewBox="0 0 340.087 311.79" enable-background="new 0 0 340.087 311.79" xml:space="preserve">
<g>
	<path fill="#F15E24" d="M219.653,134.13c12.255,5.083,15.144,14.737,12.126,33.118c-1.987,12.101-11.178,9.259-18.514,9.319
		c-32.191,0.261-64.385,0.157-96.578,0.089c-18.832-0.04-19.312-0.52-19.232-20.003c0.04-9.745-3.224-21.568,12.932-23.58
		c-5.517-2.022-11.13-3.819-16.534-6.106c-18.533-7.845-31.11-26.581-29.865-46.465c1.271-20.314,11.69-34.745,30.666-43.036
		c8.987-3.927,16.211-5.121,19.431,8.775c8.211-27.4,21.804-46.174,51.657-46.24c30.16-0.067,42.345,20.515,51.684,48.108
		c0.548-1.683,1.024-3.148,1.447-4.448c1.744-5.359,7.316-8.405,12.803-7.115c18.714,4.399,31.002,18.06,35.007,39.034
		C271.23,99.395,258.399,115.722,219.653,134.13z M127.657,127.831c1.465-0.893,2.929-1.785,4.394-2.678
		c-4.903-7.905-9.807-15.809-14.711-23.714c-1.382,0.856-2.764,1.713-4.146,2.569C118.015,111.949,122.836,119.89,127.657,127.831z"
		/>
</g>
<g>
	<path fill="#AFAFAF" d="M329.301,214.84c0.65,27.96,1.82,55.91,1.73,83.86c0,0.5-0.06,0.99-0.15,1.49
		c-1.63,8.29-13.72,8.48-15.86,0.31c-0.18-0.67-0.28-1.35-0.28-2.03c0-27.95,1.75-55.89,1.87-83.85c0.03-6.92-3.77-13.86-5.76-20.81
		c-1.64-5.72-4.52-11.46-4.54-17.21c-0.05-13.76,1.24-27.53,2.01-41.3h3.53v27.98c2.4,0.07,1.31,0.04,3.71,0.11
		c0.58-9.36,1.16-18.73,1.73-28.09h2.49l1.36,28.04c2.22,0,1.26,0,3.49,0c0.41-9.35,0.83-18.69,1.24-28.04h4.28
		c0.6,8.92,1.18,17.84,1.78,26.76c1.46-0.05,0.8-0.03,2.26-0.08V135.3h3.93c0.69,1.74,1.37,3.47,1.27,5.15
		c-1.24,21.38,6.11,43.97-9.24,63.48C328.271,206.319,329.221,211.15,329.301,214.84z"/>
	<path fill="#AFAFAF" d="M0.708,132.812c0,8.33,0.016,13.823-0.003,19.316C0.549,199.73,0.383,247.33,0.234,294.931
		c-0.012,3.732-0.706,7.71,0.353,11.129c0.143,0.463,0.318,0.917,0.517,1.363c2.354,5.262,9.763,5.971,12.717,1.02
		c0.377-0.631,0.628-1.276,0.705-1.942c1.106-9.675,0.486-19.551,0.477-29.348c-0.012-12.6-0.123-25.2-0.114-37.8
		c0.003-3.258-0.861-7.229,0.637-9.663c13.26-21.541,2.978-44.511,4.03-66.702C20.089,151.754,16.406,140.058,0.708,132.812z"/>
</g>
<g>
	<path fill="#85B741" d="M304.151,288.908h0.308c-3.362,18.381-14.318,21.911-27.263,21.967
		c-35.865,0.196-71.757,0.084-107.622,0.084c-38.19,0-76.408-0.056-114.599,0.028c-13.449,0.056-23.144-4.959-29-22.247h278.484
		L304.151,288.908z"/>
	<path fill="#85B741" d="M299.808,260.609c-5.156-12.693-11.516-25.89-20.679-35.809c-21.547-23.284-49.146-34.099-79.294-38.302
		c-1.485-0.224-2.998-0.42-4.511-0.616c-1.429-0.14-2.83-0.28-4.231-0.42c-2.045-0.224-4.091-0.392-6.136-0.532
		c-0.561-0.028-1.093-0.084-1.597-0.112c-12.244-0.869-23.873-0.981-34.464,0.196h-0.14c-0.308,0.056-0.616,0.112-0.952,0.168
		c-2.802,0.42-5.604,0.869-8.434,1.317h-0.056c-15.075,2.41-30.205,5.24-44.607,10.031c-30.961,10.283-52.088,31.942-63.239,62.763
		c-5.212,14.402-2.774,17.848,12.076,18.129c10.255,0.168,20.538-0.336,30.793,0.14c2.578,0.112,4.959,0.028,7.145-0.364h174.841
		c5.043,1.401,10.871,0.224,16.335,0.224c5.127,0,10.283,0.112,15.411,0C302.582,277.056,305.412,274.338,299.808,260.609z
		 M68.424,233.879c0.953-13.589,26.394-29.308,48.894-28.047C98.881,216.422,83.891,225.024,68.424,233.879z"/>
</g>
</svg>
