<?xml version="1.0" encoding="utf-8"?>
<!-- Generator: Adobe Illustrator 24.3.0, SVG Export Plug-In . SVG Version: 6.00 Build 0)  -->
<svg version="1.1" id="Layer_2_1_" xmlns="http://www.w3.org/2000/svg" xmlns:xlink="http://www.w3.org/1999/xlink" x="0px" y="0px"
	 viewBox="0 0 200 179.201" enable-background="new 0 0 200 179.201" xml:space="preserve">
<g>
	<path fill="#E5A70C" d="M53.358,33.733c0,0,9.818,3.401,24.202,7.411c-0.081,0.55-0.14,1.107-0.172,1.671
		c-2.341,0.156-4.567,0.32-6.659,0.486c1.809,0.322,3.679,0.594,5.586,0.874c7.565,1.105,15.384,2.249,21.746,6.835
		c1.441,1.038,2.746,2.22,3.925,3.544c0.516-9.178,12.494-20.3,13.381-20.904c2.253-2.266,4.402-4.453,6.195-6.726
		c-3.097,1.659-6.681,3.622-10.599,5.841c-0.336-0.453-0.694-0.886-1.064-1.303c9.814-11.253,16.145-19.487,16.145-19.487
		s-7.837,6.816-18.475,17.29c-0.438-0.348-0.893-0.678-1.359-0.985c6.57-13.42,10.556-23.022,10.556-23.022
		s-5.805,8.618-13.373,21.5c-0.512-0.223-1.035-0.423-1.566-0.598c2.875-14.673,4.243-24.986,4.243-24.986s-3.379,9.832-7.356,24.24
		c-0.551-0.083-1.108-0.142-1.669-0.175C96.032,10.317,94.69,0,94.69,0s-0.723,10.378-0.844,25.335
		c-0.551,0.064-1.101,0.151-1.654,0.267C87.36,11.444,83.401,1.82,83.401,1.82s1.983,10.216,5.729,24.702
		c-0.523,0.206-1.034,0.435-1.527,0.684C79.278,14.777,72.967,6.505,72.967,6.505s4.554,9.355,11.91,22.376
		c-0.45,0.336-0.883,0.69-1.296,1.062c-11.245-9.849-19.475-16.205-19.475-16.205S70.92,21.6,81.389,32.276
		c-0.348,0.438-0.676,0.892-0.98,1.36c-13.404-6.602-22.994-10.612-22.994-10.612s8.612,5.831,21.478,13.431
		c-0.222,0.514-0.42,1.037-0.595,1.569C63.653,35.122,53.358,33.733,53.358,33.733"/>
</g>
<g>
	<path fill="#33D1C1" d="M23.99,84.659c30.276,13.104,54.568,53.063,69.823,88.682c1.708-4.865,3.141-9.469,4.307-13.823
		c20.74-77.417-41.104-77.339-72.964-104.474C19.333,50.08,13.781,43.127,10.562,35.58C3.807,49.081,0,64.326,0,80.461
		c0,49.422,35.672,90.484,82.609,98.74C73.953,149.258,57.115,112.3,23.99,84.659"/>
	<path fill="#33D1C1" d="M200,80.461c0-13.193-2.547-25.792-7.172-37.333c-2.854,7.443-9.042,14.188-14.729,19.031
		c-29.312,24.969-86.224,24.901-67.141,96.135c1.078,4.005,2.391,8.245,3.969,12.719c14.031-32.776,36.385-69.542,64.25-81.599
		c-30.995,25.859-46.292,60.339-54.135,88.13c0-0.005,0.005-0.005,0.005-0.005C168.151,166.393,200,127.159,200,80.461"/>
	<path fill="#33D1C1" d="M69.143,57.012c12.786,1.531,26.324,13.776,35.997,25.403c0.097-2.01,0.121-3.892,0.072-5.651
		c-0.861-31.273-23.99-24.357-38.93-30.962c-2.731-1.209-5.583-3.192-7.627-5.657c-1.024,5.803-0.751,11.93,1.046,17.967
		c5.503,18.49,23.421,29.88,41.901,27.742C95.029,75.617,84.614,63.665,69.143,57.012"/>
	<path fill="#33D1C1" d="M159.318,29.837c0-7.414-1.431-14.494-4.03-20.98c-1.604,4.183-5.081,7.973-8.277,10.695
		c-16.473,14.031-48.455,13.993-37.73,54.024c0.606,2.251,1.343,4.633,2.23,7.147c7.885-18.419,20.447-39.08,36.106-45.856
		c-17.418,14.532-26.014,33.908-30.422,49.526c0-0.003,0.003-0.003,0.003-0.003C141.42,78.128,159.318,56.08,159.318,29.837"/>
</g>
</svg>
