<?xml version="1.0" encoding="utf-8"?>
<!-- Generator: Adobe Illustrator 24.3.0, SVG Export Plug-In . SVG Version: 6.00 Build 0)  -->
<svg version="1.1" id="Layer_7" xmlns="http://www.w3.org/2000/svg" xmlns:xlink="http://www.w3.org/1999/xlink" x="0px" y="0px"
	 viewBox="0 0 180.93 223.464" enable-background="new 0 0 180.93 223.464" xml:space="preserve">
<g>
	<path fill="#3B5289" d="M157.181,78.212v-7.989h-53.743V63.8l-17.2,6.423l-9.5,3.545L49.677,83.88v28.77h-19V15.221l-20.331,1.385
		c0,0.18,0.018,0.342,0.018,0.522c0,2.609-2.123,4.732-4.732,4.732c-0.936,0-1.799-0.27-2.537-0.738v201.441h154.086V85.661h-6.621
		v-7.449H157.181z"/>
</g>
<g>
	<path fill="#67E5E8" d="M64.646,185.968v16.085h-7.089v-16.085c0-1.853,1.493-3.365,3.365-3.365h0.36
		C63.135,182.603,64.646,184.115,64.646,185.968z"/>
	<path fill="#67E5E8" d="M80.282,185.968v16.085h-7.089v-16.085c0-1.853,1.511-3.365,3.383-3.365h0.342
		C78.788,182.603,80.282,184.115,80.282,185.968z"/>
	<path fill="#67E5E8" d="M95.935,185.968v16.085h-7.089v-16.085c0-1.853,1.511-3.365,3.364-3.365h0.36
		C94.423,182.603,95.935,184.115,95.935,185.968z"/>
	<path fill="#67E5E8" d="M64.646,154.553v16.085h-7.089v-16.085c0-1.853,1.493-3.365,3.365-3.365h0.36
		C63.135,151.189,64.646,152.7,64.646,154.553z"/>
	<path fill="#67E5E8" d="M80.282,154.553v16.085h-7.089v-16.085c0-1.853,1.511-3.365,3.383-3.365h0.342
		C78.788,151.189,80.282,152.7,80.282,154.553z"/>
	<path fill="#67E5E8" d="M95.935,154.553v16.085h-7.089v-16.085c0-1.853,1.511-3.365,3.364-3.365h0.36
		C94.423,151.189,95.935,152.7,95.935,154.553z"/>
	<path fill="#67E5E8" d="M64.646,123.787v16.085h-7.089v-16.085c0-1.853,1.493-3.365,3.365-3.365h0.36
		C63.135,120.422,64.646,121.933,64.646,123.787z"/>
	<path fill="#67E5E8" d="M80.282,123.787v16.085h-7.089v-16.085c0-1.853,1.511-3.365,3.383-3.365h0.342
		C78.788,120.422,80.282,121.933,80.282,123.787z"/>
	<path fill="#67E5E8" d="M95.935,123.787v16.085h-7.089v-16.085c0-1.853,1.511-3.365,3.364-3.365h0.36
		C94.423,120.422,95.935,121.933,95.935,123.787z"/>
	<path fill="#67E5E8" d="M64.646,93.02v16.085h-7.089V93.02c0-1.853,1.493-3.365,3.365-3.365h0.36
		C63.135,89.655,64.646,91.167,64.646,93.02z"/>
	<path fill="#67E5E8" d="M80.282,93.02v16.085h-7.089V93.02c0-1.853,1.511-3.365,3.383-3.365h0.342
		C78.788,89.655,80.282,91.167,80.282,93.02z"/>
	<path fill="#67E5E8" d="M95.935,93.02v16.085h-7.089V93.02c0-1.853,1.511-3.365,3.364-3.365h0.36
		C94.423,89.655,95.935,91.167,95.935,93.02z"/>
	<rect x="103.437" y="78.212" fill="#67E5E8" width="6.477" height="8.42"/>
	<path fill="#67E5E8" d="M115.852,94.01v107.702c0,0.954-0.774,1.727-1.745,1.727h-0.18c-0.954,0-1.727-0.774-1.727-1.727V94.01
		c0-0.954,0.774-1.727,1.727-1.727h0.18C115.078,92.282,115.852,93.056,115.852,94.01z"/>
	<path fill="#67E5E8" d="M125.532,94.01v107.702c0,0.954-0.774,1.727-1.745,1.727h-0.18c-0.954,0-1.727-0.774-1.727-1.727V94.01
		c0-0.954,0.774-1.727,1.727-1.727h0.18C124.758,92.282,125.532,93.056,125.532,94.01z"/>
	<path fill="#67E5E8" d="M136.165,94.01v107.702c0,0.954-0.774,1.727-1.727,1.727h-0.18c-0.972,0-1.745-0.774-1.745-1.727V94.01
		c0-0.954,0.774-1.727,1.745-1.727h0.18C135.392,92.282,136.165,93.056,136.165,94.01z"/>
	<path fill="#67E5E8" d="M146.097,94.01v107.702c0,0.954-0.774,1.727-1.727,1.727h-0.18c-0.972,0-1.745-0.774-1.745-1.727V94.01
		c0-0.954,0.774-1.727,1.745-1.727h0.18C145.324,92.282,146.097,93.056,146.097,94.01z"/>
	<path fill="#67E5E8" d="M13.116,123.373v78.806c0,0.702-0.774,1.259-1.745,1.259h-0.18c-0.953,0-1.727-0.558-1.727-1.259v-78.806
		c0-0.702,0.774-1.277,1.727-1.277h0.18C12.343,122.095,13.116,122.671,13.116,123.373z"/>
	<path fill="#67E5E8" d="M22.796,123.373v78.806c0,0.702-0.774,1.259-1.745,1.259h-0.18c-0.954,0-1.727-0.558-1.727-1.259v-78.806
		c0-0.702,0.774-1.277,1.727-1.277h0.18C22.023,122.095,22.796,122.671,22.796,123.373z"/>
	<path fill="#67E5E8" d="M33.43,123.373v78.806c0,0.702-0.774,1.259-1.727,1.259h-0.18c-0.972,0-1.745-0.558-1.745-1.259v-78.806
		c0-0.702,0.774-1.277,1.745-1.277h0.18C32.656,122.095,33.43,122.671,33.43,123.373z"/>
	<path fill="#67E5E8" d="M43.362,123.373v78.806c0,0.702-0.774,1.259-1.727,1.259h-0.18c-0.972,0-1.745-0.558-1.745-1.259v-78.806
		c0-0.702,0.774-1.277,1.745-1.277h0.18C42.588,122.095,43.362,122.671,43.362,123.373z"/>
	<path fill="#67E5E8" d="M149.688,16.693c0-2.028-1.644-3.671-3.672-3.671c-2.028,0-3.671,1.644-3.671,3.671
		s1.644,3.671,3.671,3.671C148.044,20.364,149.688,18.721,149.688,16.693z"/>
	<path fill="#67E5E8" d="M173.32,79.112v-8.888l-0.126-0.45c1.727-0.792,2.933-2.519,2.933-4.534c0-2.771-2.249-5.002-5.002-5.002
		c-0.288,0-0.558,0.036-0.846,0.09l-4.696-19.45l3.167-8.222c0.396,0.162,0.828,0.27,1.295,0.27c1.907,0,3.455-1.547,3.455-3.454
		c0-1.907-1.547-3.455-3.455-3.455c-0.306,0-0.63,0.036-0.918,0.126L155.273,6.909c0.396-0.684,0.63-1.493,0.63-2.339
		c0-2.519-2.033-4.57-4.552-4.57c-1.727,0-3.239,0.953-4.012,2.375L30.821,14.304l-0.234,0.018l-0.486,0.036l-19.036,1.295
		c-0.666-2.411-2.861-4.156-5.434-4.156c-0.288,0-0.576,0.018-0.756,0.054c-0.27,0.018-0.522,0.09-0.792,0.162
		c-0.486,0.144-0.99,0.36-1.475,0.666C0.972,13.422,0,15.203,0,17.129c0,1.673,0.756,3.275,2.051,4.354
		c0.054,0.036,0.108,0.09,0.144,0.108v90.681v1.277v109.915H158.08V84.761h-6.621v-5.65h6.621v-9.788h-53.743v-6.819L48.777,83.25
		v28.5H31.576v-78.05l87.299-8.474l0.882-0.09l15.06-1.457l0.918-0.09l6.423-0.63l21.681,18.334l4.696,19.468l0.882-0.216
		c-1.925,0.702-3.293,2.537-3.293,4.696c0,2.753,2.249,4.984,5.002,4.984c0.414,0,0.828-0.054,1.223-0.162
		c0.162-0.036,0.306-0.09,0.45-0.144l-0.558,0.306h-0.72v10.202h1.116v0.414c3.58,0,6.495,2.915,6.495,6.495
		c0,3.58-2.915,6.495-6.495,6.495c-3.581,0-6.495-2.915-6.495-6.495h-1.799c0,4.588,3.724,8.294,8.294,8.294
		c4.57,0,8.294-3.706,8.294-8.294C180.93,82.998,177.566,79.472,173.32,79.112z M29.777,35.211v24.02H5.739L29.76,35.21
		L29.777,35.211z M8.618,35.786h0.234c1.367,0,2.663-0.468,3.742-1.295l14.713,0.616L3.994,58.421V33.466
		c0.09,0.108,0.18,0.234,0.288,0.342C5.416,35.031,6.963,35.733,8.618,35.786z M27.428,87.056L3.994,110.472V87.056H27.428z
		 M3.994,85.257V61.839l23.418,23.417H3.994z M29.777,87.244v24.505H5.272L29.777,87.244z M5.74,61.03h24.037v24.055L5.74,61.03z
		 M29.022,33.358L14.16,32.764c0.522-0.882,0.864-1.889,0.9-2.951c0.018-0.486-0.036-0.954-0.126-1.403
		c2.357-1.673,10.382-7.989,14.088-10.921V33.358z M10.831,19.288c0.054-0.144,0.108-0.288,0.162-0.432
		c0.072-0.216,0.126-0.45,0.18-0.684c0.036-0.234,0.072-0.468,0.09-0.72l16.319-1.115c-4.822,3.796-11.047,8.672-13.278,10.31
		c-1.007-1.889-2.933-3.203-5.218-3.293c-2.033-0.09-3.904,0.864-5.092,2.375v-3.221c0.27,0.09,0.54,0.144,0.81,0.18
		c0.27,0.054,0.558,0.072,0.828,0.072C7.971,22.76,9.986,21.321,10.831,19.288z M3.526,20.331c-0.036-0.036-0.09-0.054-0.144-0.09
		c-0.036-0.036-0.108-0.072-0.162-0.126c-0.9-0.756-1.421-1.835-1.421-2.987c0-1.313,0.666-2.519,1.763-3.221
		c0.342-0.216,0.684-0.378,1.008-0.468c0.144-0.036,0.288-0.072,0.522-0.108c0.18-0.018,0.36-0.036,0.54-0.036
		c1.961,0,3.598,1.475,3.814,3.311l0.018,0.522c0,2.105-1.727,3.832-3.832,3.832c-0.18,0-0.36-0.018-0.54-0.036
		c-0.18-0.018-0.36-0.072-0.54-0.126c-0.072-0.018-0.144-0.036-0.234-0.072c-0.234-0.072-0.45-0.18-0.648-0.306
		C3.616,20.385,3.58,20.367,3.526,20.331z M50.576,113.549V84.51l51.961-19.414v6.027h53.743v6.189h-6.621v9.248h6.621v135.104
		H3.994V113.549h25.783h0.9H50.576z M31.576,16.031L146.817,4.246c0,0.108-0.036,0.216-0.036,0.324c0,2.519,2.033,4.57,4.57,4.57
		c1.007,0,1.943-0.324,2.699-0.882l13.512,18.784l0.36-0.252c-0.81,0.612-1.331,1.583-1.331,2.681c0,0.756,0.252,1.475,0.683,2.033
		l-0.414,1.061l-13.944-16.247c-0.198-3.653-3.203-6.567-6.909-6.567c-0.63,0-1.242,0.108-1.817,0.27v-0.018l-19.522,1.637
		l-0.018-0.018l-0.108-0.09l-0.054,0.108l-92.912,7.737V16.031z M140.861,12.091l-0.576,0.054l0.126-0.342l0.144,0.288
		C140.628,12.019,140.861,11.857,140.861,12.091z M31.576,31.882V22.49l11.749,8.24L31.576,31.882z M32.746,21.105l19.558-1.637
		l-7.97,9.77L32.746,21.105z M45.593,30.515l8.384-10.255l9.356,8.528L45.593,30.515z M55.506,19.198l10.939-0.918v0.018
		l-2.447,8.672L55.506,19.198z M65.402,28.59l2.483-8.816l9.95,7.611L65.402,28.59z M68.676,18.1l17.686-1.475l-0.018,0.018
		l-7.161,9.518L68.676,18.1z M80.731,27.096l6.909-9.194l9.914,7.575L80.731,27.096z M88.702,16.445l-0.018-0.018l18.406-1.529
		l-0.018,0.018l-7.88,9.536L88.702,16.445z M100.955,25.135l7.143-8.654l8.78,7.107L100.955,25.135z M118.857,22.886l-10.022-8.133
		l14.7-1.223L118.857,22.886z M120.71,23.228l4.372-8.726l7.988,7.521L120.71,23.228z M134.834,21.213l-8.421-7.917l12.451-1.043
		L134.834,21.213z M136.579,21.681l2.555-5.668c-0.018,0.234-0.072,0.45-0.072,0.684c0,1.763,0.684,3.347,1.763,4.57L136.579,21.681
		z M140.861,16.697c0-2.843,2.321-5.146,5.146-5.146c2.843,0,5.164,2.303,5.164,5.146s-2.321,5.146-5.164,5.146
		C143.183,21.842,140.861,19.54,140.861,16.697z M145.719,23.606c0.09,0,0.198,0.036,0.288,0.036c3.131,0,5.74-2.087,6.621-4.912
		l13.494,15.761l-1.853,4.822L145.719,23.606z"/>
</g>
</svg>
