<?xml version="1.0" encoding="utf-8"?>
<!-- Generator: Adobe Illustrator 24.3.0, SVG Export Plug-In . SVG Version: 6.00 Build 0)  -->
<svg version="1.1" id="Layer_3" xmlns="http://www.w3.org/2000/svg" xmlns:xlink="http://www.w3.org/1999/xlink" x="0px" y="0px"
	 viewBox="0 0 299.78 226.539" enable-background="new 0 0 299.78 226.539" xml:space="preserve">
<g>
	<path fill="#642B68" d="M65.366,172.061c0,0.61-0.496,1.104-1.108,1.104H48.775c-0.612,0-1.108-0.493-1.108-1.104v-15.485
		c0-0.609,0.496-1.11,1.108-1.11h15.483c0.612,0,1.108,0.5,1.108,1.11V172.061z"/>
	<path fill="#642B68" d="M87.609,172.061c0,0.61-0.498,1.104-1.107,1.104H71.019c-0.609,0-1.105-0.493-1.105-1.104v-15.485
		c0-0.609,0.496-1.11,1.105-1.11h15.484c0.609,0,1.107,0.5,1.107,1.11V172.061z"/>
	<path fill="#642B68" d="M229.873,172.061c0,0.61-0.499,1.104-1.109,1.104h-15.485c-0.608,0-1.102-0.493-1.102-1.104v-15.485
		c0-0.609,0.493-1.11,1.102-1.11h15.485c0.61,0,1.109,0.5,1.109,1.11V172.061z"/>
	<path fill="#642B68" d="M252.114,172.061c0,0.61-0.495,1.104-1.105,1.104h-15.485c-0.607,0-1.105-0.493-1.105-1.104v-15.485
		c0-0.609,0.499-1.11,1.105-1.11h15.485c0.61,0,1.105,0.5,1.105,1.11V172.061z"/>
	<path fill="#642B68" d="M287.335,157.49l-19.355-19.36c0-0.004,0.002-0.006,0.002-0.006v-13.701c0-0.767-0.627-1.39-1.392-1.39
		h-6.096c-0.764,0-1.39,0.623-1.39,1.39v4.832l-25.629-25.633c-0.732-0.729-1.928-0.729-2.66,0l-2.66,2.662
		c-0.732,0.732-1.928,1.93-2.661,2.66l-23.187,23.186L156.54,86.365c-0.73-0.736-1.926-1.931-2.66-2.664l-2.66-2.657
		c-0.73-0.734-1.928-0.734-2.66,0l-25.628,25.626v-4.83c0-0.76-0.625-1.39-1.392-1.39h-6.095c-0.765,0-1.392,0.63-1.392,1.39v13.698
		c0,0.004,0.004,0.007,0.004,0.011L97.474,132.13l-23.184-23.186c-0.732-0.73-1.931-1.928-2.66-2.66l-2.664-2.662
		c-0.729-0.729-1.925-0.729-2.657,0L40.68,129.255v-4.832c0-0.767-0.626-1.39-1.392-1.39h-6.093c-0.769,0-1.394,0.623-1.394,1.39
		v13.701c0,0,0.003,0.002,0.003,0.006l-19.358,19.36c-0.729,0.729-0.729,1.925,0.003,2.655l2.659,2.662
		c0.73,0.729,1.928,0.729,2.662,0l48.539-48.544c0.732-0.734,1.928-0.734,2.657,0l48.544,48.544c0.732,0.729,1.928,0.729,2.66,0
		l2.659-2.662c0.734-0.729,0.734-1.925,0-2.655l-20.035-20.042l45.768-45.766c0.732-0.732,1.93-0.732,2.66,0l45.767,45.766
		l-20.035,20.042c-0.732,0.729-0.732,1.925,0,2.655l2.66,2.662c0.734,0.729,1.931,0.729,2.661,0l48.542-48.544
		c0.733-0.734,1.928-0.734,2.66,0l48.54,48.544c0.73,0.729,1.928,0.729,2.661,0l2.658-2.662
		C288.066,159.415,288.068,158.219,287.335,157.49z"/>
	<path fill="#642B68" d="M70.033,119.282c-0.283-0.285-0.74-0.738-1.021-1.018l-1.02-1.023c-0.28-0.278-0.739-0.278-1.019,0
		l-20.631,20.636c-0.283,0.278-0.283,0.738,0,1.018l1.018,1.019c0.28,0.282,0.739,0.282,1.019,0l18.594-18.599
		c0.28-0.278,0.739-0.278,1.019,0l18.598,18.599c0.28,0.282,0.739,0.282,1.019,0l1.018-1.019c0.28-0.28,0.28-0.74,0-1.018
		L70.033,119.282z"/>
	<path fill="#642B68" d="M152.439,96.502c-0.279-0.28-0.739-0.739-1.02-1.019l-1.018-1.018c-0.279-0.283-0.742-0.283-1.02,0
		l-20.634,20.634c-0.283,0.282-0.28,0.736,0,1.016l1.018,1.023c0.28,0.278,0.739,0.278,1.019,0l18.597-18.597
		c0.278-0.278,0.74-0.278,1.02,0l18.596,18.597c0.279,0.28,0.737,0.28,1.018,0l1.021-1.023c0.278-0.28,0.278-0.734,0-1.016
		L152.439,96.502z"/>
	<path fill="#642B68" d="M234.693,119.282c-0.283-0.285-0.74-0.738-1.021-1.018l-1.02-1.023c-0.281-0.278-0.739-0.278-1.02,0
		l-20.634,20.636c-0.281,0.278-0.281,0.738,0,1.018l1.021,1.019c0.279,0.282,0.739,0.282,1.018,0l18.594-18.599
		c0.281-0.278,0.739-0.278,1.02,0l18.596,18.599c0.283,0.282,0.74,0.282,1.021,0l1.018-1.019c0.281-0.28,0.281-0.74,0-1.018
		L234.693,119.282z"/>
	<path fill="#642B68" d="M65.366,185.979v-8.349c0-0.608-0.496-1.104-1.108-1.104H48.775c-0.612,0-1.108,0.496-1.108,1.104v13.153
		C53.202,189.034,59.111,187.424,65.366,185.979z"/>
	<path fill="#642B68" d="M87.609,181.716v-4.086c0-0.608-0.498-1.104-1.107-1.104H71.019c-0.609,0-1.105,0.496-1.105,1.104v7.333
		C75.57,183.751,81.478,182.668,87.609,181.716z"/>
	<path fill="#642B68" d="M229.873,184.963v-7.333c0-0.608-0.499-1.104-1.109-1.104h-15.485c-0.608,0-1.102,0.496-1.102,1.104v4.086
		C218.305,182.668,224.212,183.751,229.873,184.963z"/>
	<path fill="#642B68" d="M252.114,190.783V177.63c0-0.608-0.495-1.104-1.105-1.104h-15.485c-0.607,0-1.105,0.496-1.105,1.104v8.349
		C240.673,187.424,246.582,189.034,252.114,190.783z"/>
	<path fill="#642B68" d="M147.614,152.068c0,0.609-0.495,1.107-1.104,1.107h-15.486c-0.609,0-1.105-0.498-1.105-1.107v-15.491
		c0-0.605,0.496-1.103,1.105-1.103h15.486c0.608,0,1.104,0.498,1.104,1.103V152.068z"/>
	<path fill="#642B68" d="M169.859,152.068c0,0.609-0.495,1.107-1.105,1.107h-15.485c-0.608,0-1.105-0.498-1.105-1.107v-15.491
		c0-0.605,0.497-1.103,1.105-1.103h15.485c0.61,0,1.105,0.498,1.105,1.103V152.068z"/>
	<path fill="#642B68" d="M147.614,173.121c0,0.612-0.495,1.108-1.104,1.108h-15.486c-0.609,0-1.105-0.496-1.105-1.108v-15.485
		c0-0.605,0.496-1.103,1.105-1.103h15.486c0.608,0,1.104,0.498,1.104,1.103V173.121z"/>
	<path fill="#642B68" d="M169.859,173.121c0,0.612-0.495,1.108-1.105,1.108h-15.485c-0.608,0-1.105-0.496-1.105-1.108v-15.485
		c0-0.605,0.497-1.103,1.105-1.103h15.485c0.61,0,1.105,0.498,1.105,1.103V173.121z"/>
	<path fill="#642B68" d="M149.89,192.499c65.648,0,122.459,13.865,149.889,34.04c-8.207-25.79-72.178-45.877-149.889-45.877
		c-77.713,0-141.685,20.087-149.89,45.877C27.432,206.364,84.243,192.499,149.89,192.499z"/>
	<path fill="#642B68" d="M294.247,105.587c-0.331-0.035-0.822-0.092-1.46-0.174c-1.279-0.162-3.148-0.427-5.513-0.826
		c-2.367-0.396-5.227-0.939-8.486-1.64c-1.627-0.359-3.356-0.744-5.169-1.191c-0.907-0.215-1.834-0.457-2.782-0.694
		c-0.474-0.125-0.953-0.25-1.436-0.378c-0.484-0.127-0.972-0.255-1.465-0.393c-0.493-0.136-0.99-0.271-1.492-0.41
		c-0.501-0.143-1.007-0.287-1.518-0.433c-1.022-0.287-2.057-0.604-3.11-0.917c-2.101-0.644-4.266-1.326-6.473-2.078
		c-2.21-0.738-4.459-1.55-6.746-2.398c-0.569-0.217-1.142-0.436-1.718-0.655c-0.287-0.11-0.575-0.221-0.864-0.331
		c-0.287-0.113-0.575-0.228-0.864-0.343c-0.578-0.228-1.158-0.458-1.741-0.69c-0.579-0.24-1.161-0.48-1.745-0.721
		c-4.67-1.929-9.401-4.107-14.097-6.489c-0.294-0.148-0.588-0.297-0.882-0.446c-0.292-0.152-0.584-0.304-0.876-0.458
		c-0.584-0.306-1.169-0.614-1.755-0.922c-0.294-0.151-0.583-0.312-0.873-0.471c-0.291-0.159-0.582-0.317-0.872-0.476
		c-0.29-0.159-0.58-0.318-0.872-0.477c-0.289-0.16-0.582-0.317-0.868-0.483c-0.575-0.328-1.152-0.656-1.729-0.985l-0.864-0.493
		l-0.856-0.508c-0.57-0.34-1.14-0.678-1.71-1.017c-0.57-0.339-1.13-0.695-1.694-1.042l-0.844-0.523
		c-0.281-0.175-0.565-0.345-0.841-0.527c-0.555-0.358-1.11-0.716-1.666-1.074l-0.831-0.536c-0.276-0.181-0.548-0.367-0.822-0.55
		c-0.546-0.367-1.091-0.734-1.636-1.102c-0.549-0.36-1.079-0.747-1.616-1.12c-0.535-0.376-1.069-0.751-1.603-1.125
		c-0.525-0.384-1.05-0.768-1.574-1.151c-0.261-0.192-0.523-0.384-0.783-0.575c-0.262-0.191-0.524-0.379-0.778-0.578
		c-4.125-3.105-8.018-6.335-11.615-9.607c-3.599-3.272-6.903-6.586-9.886-9.838c-0.369-0.409-0.736-0.816-1.1-1.219
		c-0.182-0.202-0.364-0.402-0.544-0.603c-0.181-0.201-0.363-0.396-0.535-0.602c-0.695-0.811-1.38-1.61-2.054-2.394
		c-0.171-0.194-0.332-0.394-0.493-0.593c-0.161-0.199-0.322-0.397-0.482-0.593c-0.321-0.392-0.638-0.783-0.953-1.168
		c-0.637-0.762-1.223-1.545-1.808-2.299c-1.184-1.496-2.241-2.991-3.268-4.384c-0.13-0.172-0.249-0.353-0.372-0.529
		c-0.122-0.177-0.243-0.35-0.363-0.525c-0.239-0.347-0.476-0.69-0.71-1.026c-0.233-0.337-0.463-0.669-0.69-0.996
		c-0.057-0.082-0.113-0.162-0.168-0.244c-0.055-0.083-0.109-0.165-0.161-0.247c-0.107-0.165-0.214-0.328-0.32-0.489
		c-0.837-1.295-1.645-2.485-2.327-3.63c-0.348-0.566-0.682-1.11-1.002-1.628c-0.081-0.13-0.159-0.258-0.237-0.385
		c-0.04-0.063-0.078-0.126-0.116-0.188c-0.038-0.062-0.07-0.122-0.105-0.183c-0.138-0.241-0.271-0.475-0.402-0.704
		c-0.522-0.91-0.99-1.722-1.396-2.429c-0.452-0.819-0.836-1.515-1.148-2.079c-0.624-1.13-0.957-1.732-0.957-1.732L147.614,0
		l-9.892,17.875c0,0-0.333,0.602-0.957,1.732c-0.312,0.564-0.696,1.26-1.148,2.079c-0.407,0.707-0.874,1.519-1.396,2.429
		c-0.131,0.228-0.265,0.463-0.402,0.704c-0.035,0.06-0.068,0.12-0.105,0.183c-0.039,0.062-0.077,0.125-0.116,0.188
		c-0.078,0.127-0.157,0.255-0.237,0.385c-0.319,0.518-0.653,1.062-1.001,1.628c-0.683,1.145-1.49,2.335-2.328,3.63
		c-0.105,0.161-0.212,0.324-0.319,0.489c-0.054,0.082-0.107,0.164-0.161,0.247c-0.056,0.082-0.112,0.162-0.169,0.244
		c-0.226,0.327-0.456,0.658-0.689,0.996c-0.233,0.337-0.47,0.679-0.71,1.026c-0.12,0.174-0.241,0.348-0.363,0.525
		c-0.123,0.176-0.242,0.356-0.372,0.529c-1.028,1.393-2.084,2.888-3.269,4.384c-0.585,0.754-1.171,1.536-1.808,2.299
		c-0.315,0.386-0.631,0.776-0.952,1.168c-0.16,0.197-0.321,0.394-0.482,0.593c-0.162,0.199-0.324,0.399-0.494,0.593
		c-0.673,0.785-1.358,1.584-2.053,2.394c-0.172,0.206-0.355,0.401-0.535,0.602c-0.181,0.201-0.362,0.401-0.544,0.603
		c-0.364,0.403-0.73,0.81-1.1,1.219c-2.983,3.252-6.287,6.566-9.886,9.838c-3.597,3.272-7.49,6.501-11.615,9.607
		c-0.254,0.199-0.517,0.387-0.777,0.578c-0.261,0.191-0.523,0.383-0.784,0.575c-0.525,0.383-1.049,0.767-1.574,1.151
		c-0.534,0.375-1.069,0.75-1.604,1.125c-0.537,0.373-1.067,0.76-1.615,1.12c-0.545,0.367-1.09,0.734-1.636,1.102
		c-0.274,0.183-0.547,0.37-0.822,0.55l-0.831,0.536c-0.556,0.358-1.11,0.716-1.666,1.074c-0.277,0.183-0.56,0.352-0.841,0.527
		l-0.844,0.523c-0.565,0.346-1.124,0.703-1.694,1.042c-0.57,0.338-1.14,0.677-1.71,1.017l-0.856,0.508l-0.865,0.493
		c-0.576,0.329-1.153,0.657-1.728,0.985c-0.287,0.166-0.579,0.323-0.869,0.483c-0.291,0.159-0.582,0.318-0.872,0.477
		c-0.29,0.159-0.581,0.318-0.872,0.476c-0.291,0.159-0.58,0.32-0.874,0.471c-0.586,0.308-1.17,0.615-1.754,0.922
		c-0.293,0.154-0.585,0.306-0.877,0.458c-0.295,0.148-0.589,0.297-0.882,0.446c-4.695,2.381-9.427,4.56-14.097,6.489
		c-0.584,0.241-1.166,0.481-1.745,0.721c-0.583,0.231-1.163,0.461-1.74,0.69c-0.289,0.115-0.576,0.23-0.865,0.343
		c-0.289,0.11-0.577,0.222-0.864,0.331c-0.575,0.22-1.149,0.438-1.718,0.655c-2.286,0.848-4.537,1.66-6.746,2.398
		c-2.206,0.752-4.371,1.433-6.473,2.078c-1.053,0.313-2.088,0.629-3.11,0.917c-0.51,0.146-1.017,0.29-1.518,0.433
		c-0.502,0.139-1,0.274-1.492,0.41c-0.493,0.139-0.981,0.266-1.465,0.393c-0.484,0.128-0.963,0.253-1.437,0.378
		c-0.949,0.237-1.875,0.479-2.782,0.694c-1.813,0.447-3.542,0.832-5.169,1.191c-3.258,0.701-6.119,1.244-8.485,1.64
		c-2.365,0.399-4.235,0.664-5.513,0.826c-0.638,0.082-1.129,0.139-1.46,0.174c-0.331,0.035-0.503,0.053-0.503,0.053
		s0.172,0.01,0.505,0.029c0.333,0.018,0.828,0.04,1.474,0.061c1.29,0.044,3.187,0.083,5.603,0.067
		c2.417-0.012,5.353-0.09,8.724-0.263c1.684-0.094,3.479-0.2,5.368-0.353c0.946-0.069,1.914-0.162,2.907-0.245
		c0.497-0.049,0.998-0.097,1.505-0.145c0.508-0.049,1.021-0.099,1.538-0.156c0.519-0.056,1.042-0.112,1.571-0.169
		c0.528-0.062,1.062-0.125,1.601-0.188c1.079-0.123,2.174-0.273,3.291-0.417c2.23-0.307,4.538-0.642,6.903-1.042
		c2.369-0.387,4.794-0.842,7.274-1.33c0.619-0.127,1.241-0.256,1.866-0.385c0.313-0.065,0.627-0.129,0.941-0.195
		c0.313-0.069,0.628-0.139,0.943-0.209c0.631-0.139,1.264-0.278,1.9-0.419c0.635-0.149,1.273-0.299,1.913-0.449
		c5.127-1.206,10.391-2.664,15.698-4.356c0.332-0.104,0.664-0.21,0.997-0.315c0.331-0.11,0.663-0.22,0.995-0.33
		c0.663-0.223,1.328-0.446,1.994-0.669c0.334-0.109,0.665-0.227,0.997-0.345c0.332-0.117,0.664-0.235,0.996-0.352
		c0.333-0.118,0.665-0.235,0.999-0.353c0.332-0.118,0.667-0.234,0.997-0.359c0.663-0.248,1.327-0.496,1.991-0.744l0.997-0.373
		l0.993-0.39c0.662-0.26,1.325-0.522,1.987-0.782c0.662-0.263,1.317-0.543,1.978-0.814l0.988-0.41
		c0.329-0.139,0.661-0.271,0.987-0.416c0.655-0.287,1.31-0.572,1.963-0.858l0.983-0.43c0.326-0.145,0.649-0.296,0.974-0.445
		c0.649-0.3,1.298-0.598,1.947-0.896c0.652-0.293,1.289-0.614,1.932-0.922c0.643-0.311,1.284-0.623,1.925-0.932
		c0.634-0.323,1.27-0.645,1.902-0.968c0.317-0.162,0.634-0.323,0.951-0.484c0.316-0.161,0.633-0.32,0.944-0.49
		c5.021-2.64,9.864-5.485,14.438-8.459c4.574-2.974,8.877-6.079,12.841-9.201c0.491-0.394,0.981-0.786,1.468-1.175
		c0.243-0.194,0.485-0.389,0.726-0.582c0.241-0.195,0.484-0.384,0.716-0.585c0.94-0.792,1.866-1.572,2.776-2.34
		c0.23-0.19,0.452-0.388,0.673-0.584c0.221-0.197,0.441-0.391,0.661-0.586c0.438-0.389,0.874-0.775,1.304-1.157
		c0.87-0.757,1.687-1.538,2.5-2.295c1.638-1.498,3.133-3.012,4.583-4.432c0.183-0.177,0.355-0.361,0.529-0.54
		c0.174-0.181,0.346-0.359,0.518-0.537c0.153-0.159,0.306-0.317,0.458-0.475c0.152,0.158,0.305,0.316,0.458,0.475
		c0.172,0.178,0.344,0.356,0.518,0.537c0.175,0.179,0.346,0.363,0.528,0.54c1.451,1.42,2.946,2.934,4.584,4.432
		c0.813,0.756,1.63,1.537,2.5,2.295c0.43,0.382,0.866,0.767,1.304,1.157c0.22,0.194,0.44,0.389,0.661,0.586
		c0.221,0.196,0.442,0.393,0.672,0.584c0.911,0.767,1.836,1.548,2.777,2.34c0.232,0.201,0.476,0.389,0.716,0.585
		c0.242,0.193,0.484,0.388,0.727,0.582c0.485,0.389,0.976,0.781,1.467,1.175c3.965,3.123,8.267,6.227,12.842,9.201
		c4.573,2.975,9.416,5.819,14.437,8.459c0.311,0.17,0.628,0.329,0.944,0.49c0.316,0.161,0.633,0.322,0.95,0.484
		c0.633,0.323,1.267,0.645,1.903,0.968c0.641,0.309,1.282,0.621,1.925,0.932c0.643,0.308,1.281,0.63,1.932,0.922
		c0.649,0.298,1.298,0.596,1.947,0.896c0.325,0.148,0.648,0.3,0.974,0.445l0.983,0.43c0.654,0.286,1.309,0.572,1.963,0.858
		c0.326,0.145,0.658,0.278,0.987,0.416l0.989,0.41c0.66,0.271,1.315,0.551,1.978,0.814c0.663,0.26,1.326,0.522,1.987,0.782
		l0.993,0.39l0.997,0.373c0.665,0.248,1.328,0.496,1.991,0.744c0.331,0.125,0.666,0.241,0.999,0.359
		c0.333,0.118,0.665,0.235,0.998,0.353c0.332,0.118,0.665,0.235,0.997,0.352c0.331,0.117,0.663,0.235,0.997,0.345
		c0.666,0.223,1.331,0.446,1.994,0.669c0.331,0.11,0.664,0.221,0.995,0.33c0.333,0.105,0.666,0.211,0.998,0.315
		c5.307,1.692,10.571,3.15,15.698,4.356c0.64,0.151,1.278,0.3,1.913,0.449c0.637,0.141,1.271,0.28,1.902,0.419
		c0.314,0.07,0.629,0.14,0.942,0.209c0.314,0.065,0.629,0.13,0.941,0.195c0.626,0.129,1.247,0.258,1.866,0.385
		c2.48,0.488,4.905,0.943,7.273,1.33c2.365,0.4,4.673,0.735,6.903,1.042c1.118,0.144,2.213,0.294,3.292,0.417
		c0.539,0.063,1.072,0.126,1.601,0.188c0.529,0.057,1.052,0.114,1.572,0.169c0.517,0.058,1.031,0.107,1.538,0.156
		c0.507,0.049,1.008,0.097,1.505,0.145c0.993,0.083,1.961,0.176,2.907,0.245c1.89,0.153,3.685,0.259,5.368,0.353
		c3.371,0.173,6.307,0.251,8.724,0.263c2.417,0.017,4.312-0.022,5.603-0.067c0.646-0.022,1.14-0.044,1.474-0.061
		c0.332-0.019,0.505-0.029,0.505-0.029S294.578,105.622,294.247,105.587z"/>
</g>
</svg>
