<?xml version="1.0" encoding="utf-8"?>
<!-- Generator: Adobe Illustrator 24.3.0, SVG Export Plug-In . SVG Version: 6.00 Build 0)  -->
<svg version="1.1" id="Layer_10" xmlns="http://www.w3.org/2000/svg" xmlns:xlink="http://www.w3.org/1999/xlink" x="0px" y="0px"
	 viewBox="0 0 280.087 196.794" enable-background="new 0 0 280.087 196.794" xml:space="preserve">
<g>
	<path fill-rule="evenodd" clip-rule="evenodd" fill="#B70016" d="M229.733,74.411c0,5.456,5.904,4.095,18.99,4.095
		c2.254,0,4.088-1.837,4.088-4.095c0-3.314-11.389-2.726-13.883-3.242c-0.685-0.132-0.72-1.154,0-1.321
		c6.941-1.429,13.883,0.373,13.883-5.811c0-7.475-14.411-3.685-14.411-6.34c0-2.625,14.411,1.379,14.411-6.688
		c0-6.991-14.411-3.596-14.411-6.124c0-2.404,14.411,0.468,14.411-5.716c0-7.192-5.887-4.791-13.883-6.436
		c-0.715-0.165-0.69-1.188,0-1.321c7.037-1.453,13.883,0.336,13.883-5.692c0-6.172-6.954-4.371-13.883-5.8
		c-0.715-0.165-0.69-1.188,0-1.321c2.614-0.54,13.883-0.324,13.883-3.242c0-2.257-1.834-4.095-4.088-4.095
		c-13.129,0-18.99-1.346-18.99,4.095C229.733,115.826,229.733,45.034,229.733,74.411z"/>
	<path fill-rule="evenodd" clip-rule="evenodd" fill="#B70016" d="M202.47,59.57c0,25.826-1.348,30.14,4.184,30.14
		c15.536,0,16.822,0.611,18.367-2.174c1.804-3.247-13.896-2.609-13.896-4.215c0-2.488,14.411,0.723,14.411-5.908
		c0-6.893-6.199-4.659-13.872-6.244c-0.693-0.134-0.741-1.15,0-1.321c7.05-1.453,13.872,0.42,13.872-5.883
		c0-7.301-14.411-3.668-14.411-6.268c0-2.523,14.411,0.843,14.411-6.052c0-6.652-6.45-4.563-13.872-6.1
		c-0.715-0.138-0.717-1.183,0-1.321c7.541-1.561,13.872,0.6,13.872-6.172c0-6.767-14.411-3.484-14.411-5.98
		c0-2.641,14.411,1.256,14.411-6.484c0-7.434-14.411-3.715-14.411-6.328c0-2.591,14.411,1.147,14.411-6.424
		c0-7.525-14.411-3.776-14.411-6.388c0-1.824,16.954-0.403,13.524-4.779c-1.691-2.144-2.401-1.609-17.995-1.609
		c-5.579,0-4.184,4.461-4.184,30.14c0,7.272,0.24,5.811-32.67,5.811v17.748C202.806,53.758,202.47,52.369,202.47,59.57z"/>
	<path fill-rule="evenodd" clip-rule="evenodd" fill="#B70016" d="M257.008,64.613c0,4.649,4.523,3.494,19.578,3.494
		c1.918,0,3.501-1.573,3.501-3.494c0-7.366-14.423-3.741-14.423-6.412c0-2.735,14.423,1.171,14.423-6.64
		c0-6.34-6.774-4.455-13.883-5.992c-0.736-0.17-0.698-1.235,0-1.369c7.973-1.717,13.883,0.648,13.883-6.508
		c0-8.258-14.423-3.251-14.423-6.124c0-2.644,14.423,0.937,14.423-6.412c0-1.921-1.583-3.494-3.501-3.494
		c-15.145,0-19.578-1.126-19.578,3.494C257.008,72.423,257.008,48.947,257.008,64.613z"/>
	<path fill-rule="evenodd" clip-rule="evenodd" fill="#B70016" d="M50.342,74.411c0,5.46-5.879,4.095-18.991,4.095
		c-2.242,0-4.076-1.837-4.076-4.095c0-3.314,11.377-2.726,13.871-3.242c0.702-0.13,0.736-1.157,0-1.321
		c-6.93-1.429-13.871,0.373-13.871-5.811c0-7.474,14.411-3.689,14.411-6.34c0-2.683-14.411,1.463-14.411-6.688
		c0-6.993,14.411-3.593,14.411-6.124c0-2.413-14.411,0.479-14.411-5.716c0-7.192,5.875-4.791,13.871-6.436
		c0.734-0.163,0.703-1.19,0-1.321c-7.038-1.453-13.871,0.336-13.871-5.692c0-6.172,6.954-4.371,13.871-5.8
		c0.734-0.163,0.703-1.19,0-1.321c-2.614-0.54-13.871-0.324-13.871-3.242c0-2.257,1.835-4.095,4.076-4.095
		c13.163,0,18.991-1.347,18.991,4.095C50.342,115.826,50.342,45.034,50.342,74.411z"/>
	<path fill-rule="evenodd" clip-rule="evenodd" fill="#B70016" d="M77.617,59.57c0,25.865,1.343,30.14-4.196,30.14
		c-15.52,0-16.81,0.612-18.355-2.174c-1.805-3.247,13.895-2.609,13.895-4.215c0-2.488-14.423,0.723-14.423-5.908
		c0-6.893,6.21-4.659,13.884-6.244c0.693-0.134,0.741-1.15,0-1.321c-7.05-1.453-13.884,0.42-13.884-5.883
		c0-7.301,14.423-3.666,14.423-6.268c0-2.524-14.423,0.843-14.423-6.052c0-6.652,6.462-4.563,13.884-6.1
		c0.715-0.138,0.717-1.183,0-1.321c-7.541-1.561-13.884,0.6-13.884-6.172c0-6.765,14.423-3.485,14.423-5.98
		c0-2.639-14.423,1.243-14.423-6.484c0-7.434,14.423-3.713,14.423-6.328c0-2.591-14.423,1.147-14.423-6.424
		c0-7.525,14.423-3.772,14.423-6.388c0-1.824-16.954-0.403-13.524-4.779C57.129-0.476,57.851,0.06,73.42,0.06
		c5.595,0,4.196,4.445,4.196,30.14c0,7.282-0.723,5.811,35.847,5.811l-3.177,17.748C77.212,53.758,77.617,52.369,77.617,59.57z"/>
	<path fill-rule="evenodd" clip-rule="evenodd" fill="#B70016" d="M23.079,64.613c0,4.641-4.523,3.494-19.578,3.494
		C1.571,68.108,0,66.534,0,64.613c0-7.364,14.411-3.742,14.411-6.412c0-2.64-14.411,1.141-14.411-6.64
		c0-6.34,6.762-4.455,13.883-5.992c0.718-0.166,0.685-1.237,0-1.369C5.899,42.483,0,44.848,0,37.692
		c0-8.263,14.411-3.243,14.411-6.124C14.411,28.932,0,32.509,0,25.156c0-1.921,1.571-3.494,3.501-3.494
		c15.645,0,19.578-0.951,19.578,3.494C23.079,72.423,23.079,48.947,23.079,64.613z"/>
</g>
<g>
	<path fill-rule="evenodd" clip-rule="evenodd" fill="#1A3556" d="M191.359,193.836c-24.514,5.792-50.663,3.106-73.927-8.292
		c-33.914-6.839-41.777-27.78-20.261-95.87c12.568-39.751,5.93-65.146,37.945-68.948c3.728-0.432,23.966-0.925,27.167-0.048
		c11.114,3.05,15.046,16.967,16.281,29.503c1.677,12.986-19.611,21.786-32.526,21.11c-4.808-1.285-7.769,1.513-7.445,5.271
		c0.803,9.39,4.004,20.558,7.277,30.092c5.172,15.074,11.486-7.723,36.542-4.779c5.143,0.612,5.815,1.105,9.891,3.938
		c8.653,6.002,12.409,0.519,20.789-1.285c25.357-5.428,31.324,4.198,7.601,18.432c-5.023,3.014-9.987,6.148-15.358,8.514
		c-30.668,13.497-25.944-37.14-49.658,1.957c-4.833,7.95-5.472,20.637-24.098,26.561c-22.633,7.217-33.912-3.333-30.752-9.126
		c2.893-5.317,14.131-0.796,20.861-23.956c4.213-14.421,5.566-25.98,2.05-40.706c-2.25-9.319-2.504-1.91-5.395,0.901
		c-1.403,1.357-3.788,1.825-5.323,0.432c-3.831-3.427,4.211-26.705,6.006-31.544c4.585-12.381,6.901-5.48,13.188-2.618
		c2.158,0.973,4.232,0.432,5.922,1.153c1.295,0.564,2.662,2.582,3.153,2.738c0.827,0.263,1.655-8.343,3.752-10.591
		c4.57-4.877,3.128,14.838,5.875,14.373c3.168-0.529-1.616-20.071-1.151-22.046c0.963-4.069,6.087-5.999,8.284-1.921
		c1.616,2.971-0.599,14.827,2.254,20.101c1.696,2.995-0.287-14.154,0.204-20.557c0.563-7.289-2.41-9.798-9.112-10.411
		c-40.043-3.662-38.725,22.707-45.966,53.711c-2.123,9.058,1.882,8.782,16.149,9.798c0.718,0.051,1.064,0.956,0.516,1.453
		c-5.479,5.187-36.375,2.846-12.78,6.16c6.499,0.934,11.803,0.33,9.651,2.282c-5.91,5.596-36.027,3.338-11.833,6.736
		c6.848,0.98,11.639,0.305,9.663,2.281c-4.084,3.859-42.752,4.828-2.841,7.673c0.749,0.052,1.051,0.929,0.528,1.453
		c-5.119,4.839-37.418,4.215-11.965,7.793c6.873,0.96,11.662,0.365,9.651,2.281c-3.902,3.679-43.326,6.524-2.002,9.294
		c2.598,0.186-1.523,5.241-10.538,5.512c-17.036,0.516-5.755,37.764,31.627,26.369c15.464-4.705,21.938-15.264,26.591-19.909
		c9.523-9.501,14.107-4.134,19.53-1.081c13.836-7.956,22.98-4.844,28.962,2.154C219.383,165.431,210.895,189.22,191.359,193.836z"/>
</g>
</svg>
