<?xml version="1.0" encoding="utf-8"?>
<!-- Generator: Adobe Illustrator 24.3.0, SVG Export Plug-In . SVG Version: 6.00 Build 0)  -->
<svg version="1.1" id="Layer_1" xmlns="http://www.w3.org/2000/svg" xmlns:xlink="http://www.w3.org/1999/xlink" x="0px" y="0px"
	 viewBox="0 0 247.838 173.486" enable-background="new 0 0 247.838 173.486" xml:space="preserve">
<g>
	<path fill="#007D8E" d="M173.484,59.478h-19.83v-19.82h-9.91v19.82h-34.7V9.918c0-5.43-4.49-9.92-9.91-9.92h-64.44
		c-5.42,0-9.91,4.49-9.91,9.92v49.56h-0.93l-0.93,0.47c-0.74,0.31-17.97,7.67-17.97,29.12v16.57c7.9-7.1,18.32-11.46,29.74-11.46
		h118.96c14,0,26.51,6.45,34.7,16.57v-36.4C188.354,66.158,181.674,59.478,173.484,59.478z M99.134,69.398h-64.44V9.918h64.44
		V69.398z"/>
	<path fill="#007D8E" d="M246.594,159.388c-0.31-0.33-30.92-34.17-37.64-90.61l-0.46-4.34h-10.22v69.39h-10.38
		c-2.42-16.78-16.79-29.74-34.24-29.74H34.694c-19.13,0-34.69,15.57-34.69,34.7s15.56,34.7,34.69,34.7h118.96
		c17.45,0,31.82-12.95,34.24-29.74h10.38v24.78h49.56v-7.74L246.594,159.388z M34.694,148.698c-5.48,0-9.91-4.43-9.91-9.91
		c0-5.48,4.43-9.91,9.91-9.91c5.48,0,9.92,4.43,9.92,9.91C44.614,144.268,40.174,148.698,34.694,148.698z M74.354,148.698
		c-5.48,0-9.92-4.43-9.92-9.91c0-5.48,4.44-9.91,9.92-9.91c5.48,0,9.91,4.43,9.91,9.91
		C84.264,144.268,79.834,148.698,74.354,148.698z M114.004,148.698c-5.48,0-9.91-4.43-9.91-9.91c0-5.48,4.43-9.91,9.91-9.91
		s9.91,4.43,9.91,9.91C123.914,144.268,119.484,148.698,114.004,148.698z M153.654,148.698c-5.47,0-9.91-4.43-9.91-9.91
		c0-5.48,4.44-9.91,9.91-9.91c5.48,0,9.92,4.43,9.92,9.91C163.574,144.268,159.134,148.698,153.654,148.698z"/>
</g>
</svg>
