<?xml version="1.0" encoding="utf-8"?>
<!-- Generator: Adobe Illustrator 24.3.0, SVG Export Plug-In . SVG Version: 6.00 Build 0)  -->
<svg version="1.1" id="Layer_1" xmlns="http://www.w3.org/2000/svg" xmlns:xlink="http://www.w3.org/1999/xlink" x="0px" y="0px"
	 viewBox="0 0 239.126 221.293" enable-background="new 0 0 239.126 221.293" xml:space="preserve">
<g>
	<path fill="#FFF287" d="M234.968,83.202l-82.362,85.976l55.988,14.625c18.386-19.272,29.67-45.363,29.67-74.09
		C238.263,100.566,237.115,91.68,234.968,83.202z"/>
	<path fill="#FFF287" d="M28.88,143.042c10.932,33.499,37.897,59.749,71.84,69.681L70.016,100.611L28.88,143.042z"/>
	<path fill="#FFF287" d="M69.459,94.657l0.648-0.182l-0.011-0.057l41.908-43.215l-0.33-0.08L52.721,36.215
		c-18.068,19.204-29.125,45.056-29.125,73.499c0,9.807,1.318,19.318,3.784,28.34L68.618,95.52L69.459,94.657z"/>
	<path fill="#FFF287" d="M90.334,157.61l15.466,56.465c8.057,1.943,16.466,2.966,25.125,2.966c28.647,0,54.681-11.227,73.931-29.522
		L90.334,157.61z"/>
	<path fill="#FFF287" d="M155.776,5.283c-7.977-1.898-16.295-2.898-24.852-2.898c-28.943,0-55.204,11.454-74.499,30.079
		l114.93,29.056L155.776,5.283z"/>
	<path fill="#FFF287" d="M160.867,6.624l31.659,114.305l41.011-42.806C222.956,43.703,195.525,16.658,160.867,6.624z"/>
	<polygon fill="#FFF287" points="192.525,120.929 191.037,122.475 191.582,124.384 193.343,123.895 	"/>
</g>
<g>
	<path fill="#B5E0F5" d="M35.405,114.825c-4.732,4.177-9.464,8.353-14.412,12.721c-0.338-2.632-0.679-5.29-1.013-7.891
		c7.301-2.027,13.716-8.817,14.25-15.058c-5.768,1.435-10.56,4.173-14.309,9.546c0-3.858,0-6.891,0-9.868
		c9.324-1.507,15.273-7.326,14.074-14.531c-4.601,3.121-8.91,6.043-13.577,9.209c0.371-2.475,0.717-4.788,1.05-7.01
		c7.507-1.217,11.153-6.504,15.132-12.522c-5.557,0.296-9.296,2.925-13.078,5.786c0.707-5.226,2.155-8.184,5.316-11.231
		c4.755-4.585,7.897-10.152,9.893-16.447c-9.31,3.015-13.978,9.58-14.838,19.163c-0.988-5.354-1.976-10.708-3.036-16.454
		c-4.204,4.452-5.222,14.895-1.434,20.433c2.692,3.935,1.694,7.131,0.284,11.328c-2.341-6.051-4.88-11.425-10.75-14.587
		c-0.687,6.961,2.828,14.506,8.034,18.096c0.808,0.557,1.928,1.517,1.91,2.267c-0.068,2.89-0.539,5.77-0.944,9.417
		c-3.875-6.093-8.073-10.706-13.749-14.419c-0.72,8.093,5.14,16.033,13.775,19.326c0.177,3.038,0.357,6.132,0.583,10.015
		c-5.731-4.441-10.802-8.371-16.032-12.423c-1.391,8.899,5.521,15.392,16.433,15.721c0.599,3.16,1.208,6.375,1.931,10.185
		c-6.442-4.159-12.762-6.87-20.9-6.6c1.42,1.624,2.151,2.743,3.14,3.542c4.76,3.848,10.086,6.353,16.315,6.724
		c0.948,0.056,2.403,0.501,2.69,1.168c1.071,2.492,1.754,5.151,2.744,8.253c-6.039-3.248-11.765-4.397-17.99-2.291
		c3.095,5.333,9.852,7.476,19.739,6.386c1.022,2.163,2.084,4.411,3.312,7.011c-4.228-0.704-8.078-1.558-12.424,0.446
		c4.609,4.047,9.091,5.441,14.385,3.125c1.622,2.69,3.147,5.218,4.891,8.111c-2.658,0-4.876,0-7.251,0
		c1.566,3.257,4.984,5.474,7.866,4.592c2.353-0.72,3.063,0.523,4.295,1.845c5.509,5.906,11.116,11.722,16.727,17.532
		c0.691,0.715,1.619,1.2,2.438,1.791c0.278-0.287,0.557-0.573,0.835-0.86c-9.754-8.18-18.195-17.455-24.941-28.172
		c3.715-3.221,4.705-7.071,4.576-11.311c-0.339-0.218-0.679-0.437-1.018-0.655c-1.985,2.584-3.971,5.168-6.043,7.866
		c-0.551-0.931-1.193-1.936-1.753-2.984c-0.875-1.638-1.695-3.306-2.519-4.924c8.285-5.896,10.577-9.435,9.038-14.09
		c-5.048,1.855-7.784,6.048-10.458,11.086c-1.114-2.845-1.9-4.851-2.711-6.923c7.069-2.924,12.065-7.313,14.219-14.943
		c-7.945-0.053-12.1,4.554-15.45,11.462c-1.088-4.231-1.949-7.58-2.818-10.957C30.197,130.184,36.175,123.228,35.405,114.825z"/>
	<path fill="#B5E0F5" d="M67.164,201.479c8.63,6.911,18.395,11.575,28.856,14.756c25.454,7.74,50.581,6.653,75.126-3.651
		c50.145-21.05,77.501-75.041,64.949-127.838c-12.45-52.369-61.311-88.309-115.144-84.465c-26.9,1.921-50.079,12.463-69.496,31.201
		c-6.316,6.095-11.781,12.854-15.808,20.796c12.856-18.179,28.837-32.536,49.324-41.473c20.723-9.04,42.268-11.356,64.436-7.092
		c22.075,4.245,41.062,14.478,56.799,30.537c34.693,35.401,41.286,89.091,16.098,131.628c-12.5,21.109-30.163,36.595-52.958,45.606
		C133.747,225.557,99.728,221.214,67.164,201.479z"/>
</g>
</svg>
