<?xml version="1.0" encoding="utf-8"?>
<!-- Generator: Adobe Illustrator 24.3.0, SVG Export Plug-In . SVG Version: 6.00 Build 0)  -->
<svg version="1.1" id="Layer_1" xmlns="http://www.w3.org/2000/svg" xmlns:xlink="http://www.w3.org/1999/xlink" x="0px" y="0px"
	 viewBox="0 0 430.231 323.753" enable-background="new 0 0 430.231 323.753" xml:space="preserve">
<g>
	<path fill="#23110B" d="M395.246,190.83c-12.22,1.58-24.03,12.8-35.56,12.12c-113.6-6.73-228.36,25.4-341.16-9.85
		c-4.9-1.53-14.86,0.96-16.67,4.52c-2.66,5.23-2.48,14.63,0.67,19.61c11.16,17.69,28.41,23.3,50.37,17.06
		c-14.74-8.1-29.49-16.19-44.23-24.29c1.44-3.05,2.89-6.11,4.33-9.16c10.01,3.97,21.39,6.15,29.64,12.43
		c7.89,6.01,12.61,16.23,18.55,24.72c31.81,45.37,69.6,83.28,130.39,73.67c36.95-5.84,72.51-20.51,108.96-31.3
		c-24.51,14.01-49.86,28.49-74.52,42.58c1.19,0.15,4.14,1.01,6.99,0.77c5.57-0.48,11.17-1.22,16.62-2.46
		c53.8-12.26,91.18-45.44,116.71-92.98c10.15-18.9,24.17-30.19,45.01-31.6c1.58,2.06,3.16,4.12,4.73,6.18
		c-12.23,9.55-24.46,19.1-36.69,28.65c10.92-0.1,22.82-1.23,30.45-7.53c8.77-7.25,13.76-19.07,20.4-28.9
		C418.536,193.44,406.536,189.37,395.246,190.83z"/>
	<path fill="#23110B" d="M51.176,252.28c-1.63,1.67-3.27,3.34-4.91,5c17.25,29.42,35.58,46,54.45,56.29
		c1.61-1.82,3.22-3.64,4.84-5.45C86.926,295.47,68.716,277.84,51.176,252.28z"/>
</g>
<g>
	<path fill="#F89931" d="M255.142,189.795c-11.549,3.119-23.216,2.03-33.279-2.31c-0.015,0-0.03,0-0.044-0.015
		c-12.138-5.223-21.951-15.168-26.467-28.174c8.857,0.692,27.88-2.295,49.374-8.092c1.501-0.412,2.972-0.809,4.428-1.236
		c19.523-5.532,35.53-11.902,42.327-16.595C296.321,158.105,280.638,182.909,255.142,189.795z"/>
	<path fill="#F89931" d="M243.97,148.374c20.756-5.599,37.948-12.215,44.035-16.633c-7.131,3.741-21.11,8.737-37.498,13.158
		c-24.329,6.563-44.73,9.366-45.567,6.262c-0.837-3.104,18.206-10.941,42.535-17.503c9.336-2.518,18.087-4.48,25.383-5.77
		c-8.81,1.229-20.222,3.608-32.544,6.932c-26.617,7.18-47.376,16.034-46.367,19.777C194.957,158.34,217.353,155.554,243.97,148.374z
		"/>
	<path fill="#F89931" d="M289.198,126.835C272.169,98.757,261.38,55.079,261.64,30.64c14.527,4.045,24.607-18.895,12.089-27.688
		c-13.96-9.806-32.683,5.761-28.338,32.758C252.99,82.932,289.198,126.835,289.198,126.835z M251.859,11.652
		c1.249-2.319,2.813-4.52,4.91-6.116c2.096-1.595,4.78-2.536,7.387-2.158c2.607,0.379,5.05,2.233,5.736,4.776
		c0.548,2.031-0.066,4.28-1.378,5.924c-0.964,1.208-2.313,2.132-3.823,2.462c-1.51,0.329-3.174,0.028-4.395-0.919
		c-1.221-0.947-1.937-2.554-1.697-4.081c-3.3,1.84-6.268,4.534-8.059,7.861c-1.791,3.327-2.734,6.95-2.453,10.718
		C247.506,23.772,248.836,17.263,251.859,11.652z"/>
</g>
</svg>
