<?xml version="1.0" encoding="utf-8"?>
<!-- Generator: Adobe Illustrator 24.3.0, SVG Export Plug-In . SVG Version: 6.00 Build 0)  -->
<svg version="1.1" id="Layer_1" xmlns="http://www.w3.org/2000/svg" xmlns:xlink="http://www.w3.org/1999/xlink" x="0px" y="0px"
	 viewBox="0 0 643 876.515" enable-background="new 0 0 643 876.515" xml:space="preserve">
<g>
	<polygon fill="#254C84" points="122.253,268.831 122.253,484.619 0,606.872 0,268.831 	"/>
	<polygon fill="#254C84" points="122.253,517.269 122.253,771.628 0,771.628 0,639.522 	"/>
	<polygon fill="#254C84" points="290.184,0 290.184,321.614 167.931,438.941 167.931,0 	"/>
	<polygon fill="#254C84" points="290.184,349.337 290.184,771.628 167.931,771.628 167.931,471.591 	"/>
	<polygon fill="#254C84" points="458.115,135.045 458.115,439.18 335.862,320.329 335.862,135.045 	"/>
	<polygon fill="#254C84" points="458.115,471.83 458.115,771.628 335.862,771.628 335.862,349.577 	"/>
</g>
<g>
	<g>
		<path fill="#7F7F7F" d="M643,356.488l-46.2,0.804l-3.88,192.529l-2.301,114.258c-1.128,37.327,0.857,78.896-16.603,119.571
			c-8.798,20.048-24.679,38.934-45.027,49.159c-20.212,10.403-41.733,13.35-61.72,14.199c-20.258,0.714-39.387-0.402-58.607-0.848
			l-57.705-1.697l-230.91-6.876l230.774-9.957l57.705-2.5c19.22-0.938,38.621-1.295,56.758-3.304
			c18.182-2.009,35.462-6.251,48.997-14.645c8.302-5.09,14.979-11.877,20.168-19.869c3.248-5.001,5.956-10.493,8.031-16.342
			c5.595-15.181,7.309-32.683,7.715-50.499c0.271-17.815-1.083-36.479-2.076-55.678l-6.226-114.124l-10.467-192.305l-48.772,0.848
			l74.669-133.1l3.158-5.626L643,356.488z"/>
	</g>
	<g>
		<path fill="#7F7F7F" d="M610.139,689.931c-2.219,21.518-4.393,43.017-7.966,64.106c-1.781,10.52-3.667,21.035-6.491,30.941
			l-2.208,7.347c-0.705,2.485-1.912,4.37-2.806,6.595c-0.866,2.14-1.903,4.307-3.431,6.495c-1.399,2.156-2.657,4.427-4.223,6.442
			c-11.316,17.126-27.255,30.34-46.175,38.313c-18.794,8.382-40.078,11.625-61.432,13.214c-21.341,1.252-43.549,1.046-65.4,1.17
			c-21.938,0.113-43.868-0.05-65.882-0.746c21.613,4.414,43.57,6.8,65.498,9.003c22.025,1.814,43.747,3.845,66.316,3.698
			c22.395-0.094,45.394-3.079,67.17-11.657c21.769-8.515,41.022-24.332,53.939-43.501c1.743-2.33,3.119-4.846,4.651-7.282
			c1.575-2.324,2.912-5.046,4.116-7.953c1.155-2.807,2.711-5.696,3.467-8.456l2.403-8.303c2.931-11.056,4.942-21.985,6.371-32.955
			c2.764-21.924,4.604-43.751,5.278-65.605c1.553-43.668,0.843-87.29-2.784-130.766
			C617.137,603.491,614.162,646.832,610.139,689.931z"/>
	</g>
</g>
</svg>
