<?xml version="1.0" encoding="utf-8"?>
<!-- Generator: Adobe Illustrator 24.3.0, SVG Export Plug-In . SVG Version: 6.00 Build 0)  -->
<svg version="1.1" id="Layer_2" xmlns="http://www.w3.org/2000/svg" xmlns:xlink="http://www.w3.org/1999/xlink" x="0px" y="0px"
	 viewBox="0 0 189.316 228.294" enable-background="new 0 0 189.316 228.294" xml:space="preserve">
<g>
	<rect y="209.988" fill="#390772" width="189.316" height="18.307"/>
	<polygon fill="#390772" points="71.737,13.231 94.655,0 117.578,13.231 117.578,74.677 115.562,78.165 107.816,91.585 
		117.578,91.585 117.578,195.933 129.038,195.933 129.038,91.585 138.8,91.585 131.054,78.165 129.038,74.677 129.038,49.751 
		151.957,36.52 174.874,49.751 174.874,195.933 189.316,195.933 189.316,204.479 174.874,204.479 129.038,204.479 117.578,204.479 
		71.737,204.479 60.278,204.479 14.44,204.479 0,204.479 0,195.933 14.44,195.933 14.44,94.703 37.359,81.47 60.278,94.703 
		60.278,115.394 58.267,118.882 50.521,132.297 60.278,132.297 60.278,195.933 71.737,195.933 71.737,132.297 81.498,132.297 
		73.754,118.882 71.737,115.389 	"/>
</g>
</svg>
