<?xml version="1.0" encoding="utf-8"?>
<!-- Generator: Adobe Illustrator 24.3.0, SVG Export Plug-In . SVG Version: 6.00 Build 0)  -->
<svg version="1.1" id="Layer_2" xmlns="http://www.w3.org/2000/svg" xmlns:xlink="http://www.w3.org/1999/xlink" x="0px" y="0px"
	 viewBox="0 0 205.687 181.182" enable-background="new 0 0 205.687 181.182" xml:space="preserve">
<g>
	<path fill="#F2DD88" d="M20.496,82.499c-0.237,2.715-0.355,5.373-0.298,8.091c0.237-3.189,0.592-6.439,1.124-9.568
		c0.237-0.474,0.416-1.005,0.532-1.476v-0.061c0.118,0.65,0.298,1.242,0.592,1.831c1.005,2.126,2.897,3.839,4.908,4.726
		c1.124,0.532,2.366,0.826,3.49,0.708c0.176,0,0.355-0.237,0.237-0.413c-0.592-0.945-1.066-1.95-1.421-2.895
		c-0.413-0.945-0.65-1.889-1.124-2.715c-0.471-0.826-1.063-1.595-1.655-2.305c-0.532-0.647-1.063-1.297-1.655-1.947
		c-0.65-0.65-1.361-1.3-2.305-1.771c-0.061,0-0.118,0-0.176,0c-0.061,0-0.118,0-0.179,0c0.061-0.237,0.118-0.532,0.179-0.768
		l0.532-2.008l0.589-2.008l0.298-1.005l0.355-1.002l0.234-0.768c0.118,0.65,0.237,1.3,0.416,1.947
		c0.471,1.655,1.361,3.25,2.542,4.55c2.366,2.655,5.795,4.31,9.166,4.842c1.831,0.295,3.724,0.295,5.379-0.295
		c0.298-0.118,0.474-0.474,0.237-0.711c-1.181-1.181-2.305-2.421-3.253-3.66c-0.945-1.239-1.774-2.481-2.779-3.544
		c-1.063-1.063-2.247-1.889-3.487-2.658c-1.066-0.708-2.129-1.415-3.313-2.065c-1.124-0.65-2.363-1.181-3.724-1.418
		c0.768-1.947,1.537-3.958,2.424-5.847c0.118-0.295,0.295-0.589,0.413-0.884c0.061,0.058,0.061,0.118,0.118,0.176
		c0.237,0.295,0.416,0.65,0.592,0.887c0.413,0.589,0.829,1.063,1.361,1.534c0.945,0.887,2.129,1.595,3.31,2.302
		c0.65,0.416,1.361,0.829,2.129,1.124c0.118,0.058,0.355,0,0.295-0.176c-0.058-0.829-0.237-1.655-0.471-2.481
		c-0.237-0.826-0.534-1.655-1.124-2.363c-0.592-0.708-1.303-1.239-2.129-1.652c-0.711-0.355-1.421-0.592-2.129-0.711
		c-0.474-0.058-0.887-0.058-1.3,0c0.708-1.358,1.418-2.715,2.126-4.073c1.184-0.061,2.308-0.061,3.49-0.118c0,0,0,0,0,0.058
		c-0.058,0.416-0.058,0.829-0.058,1.242c0,0.826,0.234,1.652,0.589,2.421c0.711,1.534,1.953,2.776,3.313,3.602
		c0.768,0.471,1.595,0.887,2.424,0.945c0.176,0,0.295-0.118,0.237-0.295c-0.237-0.768-0.474-1.595-0.711-2.363
		c-0.237-0.768-0.355-1.534-0.711-2.245c-0.352-0.708-0.768-1.3-1.3-1.889c-0.413-0.532-0.887-1.002-1.361-1.476
		c-0.058-0.058-0.118-0.118-0.176-0.118c2.484-0.118,5.026-0.355,7.508-0.708c-0.116,0.352-0.234,0.768-0.295,1.121
		c-0.118,0.65-0.176,1.239-0.176,1.889c-0.061,1.242,0.176,2.424,0.532,3.544c0.711,2.184,1.831,3.958,2.897,5.728
		c0.592,1.002,1.181,2.008,1.831,3.071c0.118,0.176,0.416,0.295,0.592,0.058c0.711-1.121,1.181-2.421,1.479-3.778
		c0.295-1.358,0.413-2.776,0.176-4.134c-0.295-1.418-0.887-2.597-1.595-3.66c-0.592-0.948-1.242-1.774-1.953-2.539
		c-0.592-0.592-1.242-1.124-1.95-1.537c2.424-0.413,4.79-0.945,7.095-1.713c0.295,1.476,1.005,2.834,1.95,4.015
		c0.711,0.945,1.658,1.713,2.661,2.305c1.597,0.884,3.432,1.063,5.206,0.532c1.713-0.474,3.253-1.655,4.374-3.013
		c2.129-2.715,2.721-6.555,1.005-9.625c-1.655-2.952-5.203-5.078-8.632-4.371c-1.834,0.413-3.49,1.476-4.732,2.895
		c-1.181,1.415-1.831,3.189-1.95,5.018c-3.726,1.3-7.629,2.008-11.59,2.363c0.237-0.118,0.532-0.295,0.768-0.413
		c1.066-0.708,1.953-1.655,2.542-2.6c1.242-1.889,1.892-4.134,2.308-6.318c0.234-1.239,0.352-2.481,0.176-3.721
		c-0.058-0.237-0.295-0.413-0.474-0.237c-1.005,0.65-2.011,1.358-3.016,2.126c-0.945,0.711-1.892,1.476-2.6,2.421
		c-0.711,0.945-1.184,2.126-1.537,3.25c-0.298,0.945-0.534,1.831-0.771,2.715c-0.176,0.945-0.295,1.889-0.352,3.013
		c-1.953,0.118-3.963,0.237-5.913,0.295c4.021-6.791,8.987-13.051,14.782-18.424l1.537-1.418l1.597-1.358l0.768-0.708l0.826-0.65
		l1.597-1.3c0.711-0.532,1.361-1.005,2.071-1.537c0.413,0.298,0.826,0.532,1.239,0.768c0.592,0.237,1.124,0.532,1.716,0.768
		c1.124,0.471,2.305,0.708,3.608,0.826c2.542,0.176,5.379-0.471,7.745-1.771c1.3-0.708,2.542-1.713,3.253-2.952
		c0.118-0.237,0.058-0.532-0.237-0.532c-1.361-0.118-2.603-0.355-3.845-0.65c-1.181-0.295-2.363-0.711-3.605-0.826
		c-1.184-0.118-2.424,0.058-3.666,0.295c2.424-1.476,4.966-2.895,7.568-4.134c0.058,0.118,0.176,0.237,0.237,0.352
		c0.237,0.298,0.471,0.592,0.768,0.887c0.532,0.592,1.124,1.005,1.774,1.418c1.361,0.708,2.897,1.063,4.376,1.121
		c0.826,0.061,1.713,0.061,2.481-0.237c0.118-0.058,0.237-0.234,0.118-0.352c-0.532-0.592-1.124-1.242-1.655-1.774
		c-0.532-0.589-1.124-1.179-1.774-1.595c-0.711-0.413-1.479-0.647-2.247-0.826c-0.474-0.118-0.945-0.176-1.418-0.237
		c1.063-0.471,2.129-0.945,3.192-1.358c0.592-0.237,1.242-0.471,1.834-0.708c0.176,0.237,0.413,0.471,0.65,0.65
		c0.355,0.295,0.711,0.532,1.063,0.826c0.711,0.474,1.479,0.887,2.308,1.121c1.655,0.474,3.547,0.532,5.321,0.118
		c1.005-0.234,1.95-0.589,2.718-1.181c0.118-0.116,0.179-0.352,0-0.413c-0.826-0.413-1.655-0.826-2.424-1.239
		c-0.768-0.413-1.479-0.945-2.305-1.181c-0.65-0.237-1.361-0.295-2.011-0.352c2.187-0.65,4.376-1.242,6.563-1.713
		c0.295,0,0.592-0.061,0.948-0.061c0.589-0.118,1.239-0.176,1.831-0.295c0.65-0.118,1.3-0.295,1.953-0.532
		c2.011-0.355,4.018-0.589,6.029-0.826c1.421-0.118,2.779-0.237,4.2-0.295l2.129-0.118l2.126-0.061l-2.126-0.118l-2.129-0.058
		c-1.421,0-2.84,0-4.258,0.058c-1.181,0.061-2.366,0.118-3.547,0.237c1.595-0.945,3.074-2.126,4.492-3.426
		c0.948-0.884,1.953-1.771,2.721-2.892c0.118-0.179,0.118-0.532-0.176-0.592C102.094,0.118,100.733,0,99.373,0
		c-1.358,0-2.779,0.058-4.079,0.471c-1.361,0.474-2.542,1.3-3.608,2.187c-0.887,0.766-1.713,1.652-2.363,2.658
		c-0.592,0.884-0.948,1.889-1.066,2.952c-3.724,0.708-7.389,1.652-10.997,2.834c0.176-0.176,0.355-0.413,0.474-0.589
		c0.65-0.829,1.063-1.537,1.476-2.245c0.829-1.476,1.421-3.071,2.19-4.726c0.413-0.945,0.945-1.889,1.3-2.952
		c0.061-0.176,0-0.471-0.295-0.413c-1.124,0.061-2.308,0.355-3.432,0.826c-1.121,0.474-2.245,1.063-3.131,2.068
		c-0.887,1.002-1.421,2.302-1.716,3.542c-0.118,0.532-0.176,1.124-0.237,1.655c0,0.532,0,1.002,0.061,1.476
		c0.118,0.826,0.352,1.534,0.768,2.245c-3.313,1.181-6.563,2.658-9.64,4.252c0.237-0.298,0.416-0.592,0.65-0.887
		c0.534-0.768,0.948-1.537,1.242-2.363c0.65-1.652,0.948-3.365,1.303-5.197c0.176-1.002,0.352-2.065,0.352-3.129
		c0-0.179-0.176-0.413-0.413-0.295c-1.005,0.471-1.95,1.063-2.837,1.771s-1.774,1.476-2.366,2.479
		c-0.592,1.063-0.887,2.245-1.005,3.426c-0.118,1.005-0.061,2.008,0.118,2.952c0.176,0.887,0.592,1.655,1.181,2.245
		c-3.96,2.187-7.745,4.665-11.292,7.499c0.352-0.826,0.708-1.71,0.887-2.655c0.352-1.361,0.471-2.837,0.352-4.252
		c-0.116-1.595-0.471-3.189-1.358-4.371c-0.179-0.237-0.474-0.237-0.65,0c-0.653,1.239-1.479,2.302-2.308,3.308
		c-0.826,1.002-1.713,1.889-2.424,3.01c-0.65,1.124-1.181,2.421-1.537,3.9c-0.298,1.239-0.532,2.597-0.413,4.015
		c0.058,1.002,0.352,1.947,0.887,2.715c-0.592,0.589-1.184,1.181-1.774,1.771c0.234-2.658,0-5.373-0.711-7.97
		c0.592-0.416,1.005-1.124,1.418-1.713c0.592-0.945,1.184-1.95,1.655-3.013c0.948-2.008,1.774-4.134,1.834-6.436
		c0.118-2.895-0.711-6.023-2.484-8.447c-0.826-1.121-1.892-2.126-3.192-2.479c-0.061,0-0.179-0.061-0.298-0.061
		c-0.058-0.058-0.116-0.176-0.176-0.176c-1.242-0.826-2.779-0.887-4.079-0.474c-0.711,0.237-1.361,0.592-2.011,1.005
		c0-0.061-0.061-0.061-0.118,0c0-0.061-0.061-0.061-0.118-0.061c-0.887-0.234-1.774-0.176-2.603,0.061
		c-0.826,0.237-1.655,0.532-2.424,0.887c-1.537,0.708-2.837,1.771-3.726,3.305c-0.413,0.768-0.708,1.595-0.768,2.539
		c-0.176,0.061-0.352,0.118-0.471,0.179c-0.653,0.352-1.124,0.884-1.421,1.595c-0.532,1.358-0.413,3.01,0.237,4.371
		c0.355,0.826,0.887,1.534,1.537,2.065c0.592,2.245,2.011,4.252,3.726,5.728c1.005,0.826,2.068,1.476,3.192,2.068
		c1.124,0.532,2.247,0.766,3.432,0.766c1.655,0,3.25-0.234,4.787-0.766c0.237-0.061,0.534-0.179,0.771-0.298
		c0.65,2.424,0.826,4.963,0.532,7.441c-0.355-0.237-0.711-0.471-1.124-0.708c-0.887-0.532-1.834-1.005-2.84-1.358
		c-1.95-0.768-4.137-1.063-6.384-0.887c-2.247,0.176-4.434,0.826-6.505,1.95c-2.011,1.063-3.784,2.539-5.203,4.192
		c-1.537,1.831-2.721,4.076-2.84,6.26c0,0.413,0.298,0.768,0.711,0.592c1.95-0.768,3.842-1.181,5.676-1.418
		c1.834-0.237,3.608-0.118,5.263-0.413c1.655-0.295,3.31-0.887,5.026-1.476c1.476-0.532,3.016-1.063,4.553-1.774
		c0.295-0.116,0.532-0.234,0.826-0.413l-0.471,0.532l-1.303,1.655c-0.887,1.121-1.713,2.302-2.542,3.423
		c-1.597,2.363-3.134,4.665-4.434,7.147c-0.118,0-0.179,0-0.295,0c-0.061,0-0.118,0-0.179,0c-4.966-1.002-10.053-1.652-15.137-1.889
		c-0.058-0.768-0.295-1.476-0.474-2.184c-0.295-1.063-0.65-2.068-1.063-3.074c-0.768-1.889-1.655-3.718-2.84-5.018
		c-1.476-1.537-3.368-2.363-5.203-1.831c-0.826,0.237-1.713,0.768-2.305,1.831c-0.061,0.295-0.061,0.352-0.118,0.471
		c-0.061,0-0.118,0.061-0.179,0.061c-0.826,0.768-1.358,2.184-1.537,3.66c-0.118,0.768-0.118,1.595-0.118,2.421
		c0,0.061,0,0.118,0,0.179c0,0-0.058,0.058-0.058,0.118c-0.413,0.708-0.65,1.595-0.768,2.479c-0.118,0.887-0.237,1.831-0.298,2.776
		c-0.118,1.831,0.061,3.602,0.592,5.197c0.237,0.768,0.65,1.476,1.066,2.008c0,0.179-0.061,0.413-0.061,0.592
		c-0.058,0.766,0.118,1.534,0.413,2.184c0.534,1.181,1.421,1.889,2.366,2.008c0.532,0.061,1.066-0.058,1.597-0.413
		c1.361,0.532,2.837,0.237,4.197-0.708c0.711-0.532,1.418-1.181,2.071-2.008c0.589-0.768,1.121-1.774,1.476-2.895
		c0.532-1.537,0.887-3.247,1.066-4.96c0.118,0,0.237,0.058,0.352,0.058c4.732,0.237,9.403,0.826,14.016,1.771l-0.653,1.242
		l-0.887,1.947l-0.471,0.945l-0.179,0.355c-0.058-0.058-0.058-0.058-0.118-0.058c-0.768-0.474-1.713-0.65-2.661-0.711
		c-1.063-0.058-2.129-0.058-3.192,0.061c-2.129,0.295-4.14,1.121-5.913,2.36c-1.774,1.242-3.253,2.776-4.376,4.489
		c-1.124,1.655-2.011,3.484-2.661,5.258c-0.708,2.008-1.242,4.015-1.181,6.081c0,0.355,0.355,0.711,0.768,0.532
		c1.831-0.884,3.608-1.829,5.382-2.776c1.713-0.884,3.487-1.71,4.908-2.834c1.476-1.121,2.542-2.421,3.666-3.778
		c0.945-1.124,1.892-2.245,2.837-3.484c0.295-0.413,0.65-0.887,0.948-1.361c-1.834,4.784-3.195,9.747-4.082,14.764
		c-0.589,0.061-1.124,0.295-1.595,0.532c-0.592,0.295-1.124,0.532-1.658,0.826c-1.063,0.532-2.008,1.242-2.897,2.011
		c-1.713,1.534-3.074,3.484-4.316,5.491c-0.708,1.121-1.418,2.302-1.831,3.602c-0.061,0.237,0.058,0.532,0.355,0.532
		c1.358-0.118,2.718-0.413,4.079-0.768s2.718-0.826,3.903-1.652c1.181-0.829,2.129-2.008,2.897-3.25
		C20.377,82.676,20.435,82.618,20.496,82.499z M31.67,58.286c-0.589-0.532-1.3-0.945-2.011-1.239
		c0.355,0.118,0.653,0.237,1.005,0.413c0.298,0.118,0.653,0.295,0.948,0.474c0.295,0.176,0.592,0.413,0.826,0.647
		c0.534,0.474,1.005,0.948,1.479,1.479c0.474,0.532,0.948,1.063,1.418,1.595c-0.471-0.532-0.887-1.063-1.358-1.595
		c-0.474-0.532-0.948-1.063-1.479-1.537c-0.237-0.237-0.532-0.471-0.829-0.65c-0.295-0.176-0.589-0.413-0.945-0.532
		c-0.118-0.058-0.179-0.118-0.298-0.118c0.534,0.179,1.066,0.413,1.54,0.711c1.005,0.589,1.831,1.415,2.424,2.36
		c-0.592-1.002-1.418-1.829-2.366-2.479c-0.592-0.413-1.242-0.711-1.95-0.945c1.418,0.352,2.779,1.121,3.903,2.126
		c-0.829-1.124-1.953-1.892-3.195-2.363c1.066,0.355,2.129,0.945,3.077,1.652c-0.711-0.65-1.54-1.181-2.366-1.595
		c0.592,0.237,1.181,0.532,1.716,0.887c-0.237-0.176-0.474-0.413-0.771-0.589c0.771,0.352,1.479,0.826,2.011,1.415
		c0.534,0.592,0.887,1.358,1.124,2.126c0.237,0.768,0.416,1.537,0.474,2.302c-0.532-0.234-1.005-0.532-1.479-0.766
		c-0.589-0.355-1.181-0.711-1.713-1.063c-0.592-0.355-1.124-0.768-1.655-1.242c0.176,0.061,0.413,0.179,0.589,0.298
		c-0.413-0.355-0.826-0.65-1.242-0.948c-0.058-0.058-0.118-0.116-0.176-0.176c0.532,0.295,1.005,0.65,1.537,0.887
		c-0.65-0.474-1.242-1.063-2.011-1.476l-0.058-0.061c0.945,0.474,1.831,1.063,2.6,1.774c-0.826-0.948-1.831-1.713-2.955-2.305
		l-0.058-0.118c1.239,0.592,2.424,1.418,3.429,2.424c-0.948-1.124-2.129-2.068-3.49-2.776c0.768,0.237,1.479,0.65,2.129,1.121
		c0.826,0.65,1.537,1.358,2.187,2.187C33.149,59.762,32.438,58.997,31.67,58.286z M62.654,48.603
		c-0.945,0.116-1.831,0.116-2.779,0.058c-1.063-0.118-2.068-0.295-3.074-0.589c2.718,0.234,5.439-0.416,7.687-1.774
		c-2.366,0.945-4.908,1.124-7.274,0.532c2.187-0.176,4.316-0.945,6.032-2.184c-1.892,0.826-3.963,1.121-5.974,0.945
		c1.716-0.474,3.253-1.3,4.495-2.363c-1.655,0.887-3.429,1.3-5.203,1.3c1.595-0.65,3.016-1.476,4.316-2.539
		c-1.479,0.708-3.016,1.121-4.553,1.3l0.058-0.061c1.421-0.413,2.779-1.063,3.903-1.831c-0.768,0.179-1.537,0.298-2.247,0.298
		c0.416-0.298,0.829-0.474,1.242-0.711c2.545-1.063,5.439,0.061,7.098,2.126c1.831,2.245,1.892,5.258,0.532,7.736
		c-1.242,2.305-4.021,4.252-6.742,3.602c0.298-0.058,0.653-0.116,0.948-0.234c1.181-0.298,2.305-0.887,3.016-1.774
		c-0.948,0.65-2.071,0.945-3.195,0.945c-0.768,0-1.476-0.058-2.245-0.234c1.3-0.179,2.542-0.65,3.547-1.418
		c-1.953,0.826-4.14,0.65-5.795-0.295c1.831,0.118,3.666,0,5.379-0.474c-2.068,0-4.137-0.413-5.971-1.121
		c1.3,0.058,2.603,0.118,3.903-0.061c1.005-0.116,1.953-0.352,2.897-0.647c0.948-0.355,1.774-0.829,2.542-1.361
		C64.488,48.187,63.541,48.424,62.654,48.603z M45.093,53.384c0-0.058,0-0.176,0-0.234c0.945,2.184,1.95,4.252,2.661,6.378
		c-0.592-2.245-1.479-4.55-2.305-6.852c0.65,1.124,1.239,2.302,1.713,3.544c0.592,1.534,1.066,3.129,1.418,4.665
		c-0.234-1.595-0.65-3.189-1.121-4.784c-0.416-1.181-0.887-2.363-1.421-3.484c0.298,0.532,0.534,1.002,0.829,1.476
		c0.237,0.471,0.532,0.945,0.768,1.476c0.237,0.471,0.474,1.002,0.65,1.534c0.413,1.063,0.711,2.126,1.005,3.189
		s0.532,2.126,0.829,3.25c-0.237-1.063-0.416-2.187-0.653-3.25c-0.234-1.063-0.532-2.184-0.887-3.247
		c-0.176-0.532-0.352-1.063-0.589-1.595s-0.474-1.005-0.711-1.537c-0.058-0.176-0.176-0.295-0.237-0.471
		c0.474,0.708,0.948,1.476,1.303,2.245c0.826,1.534,1.476,3.247,1.595,5.078c-0.058-1.831-0.65-3.602-1.361-5.197
		c-0.471-1.005-1.005-1.95-1.537-2.895c1.303,1.771,2.542,3.721,3.313,5.965c-0.534-2.008-1.479-3.778-2.484-5.434
		c0.945,1.418,1.892,2.834,2.661,4.489c-0.532-1.358-1.181-2.658-1.834-3.897c0.474,0.766,1.005,1.595,1.479,2.421
		c-0.176-0.474-0.355-0.887-0.532-1.3c0.711,1.005,1.3,2.126,1.655,3.365c0.295,1.242,0.237,2.539,0,3.781
		c-0.237,1.297-0.65,2.479-1.181,3.542c-0.474-0.768-0.887-1.476-1.303-2.245c-0.532-0.884-1.063-1.771-1.595-2.715
		c-0.534-0.945-1.005-1.889-1.421-3.013l0.653,0.887l-1.066-2.421c0-0.118-0.058-0.295-0.058-0.413
		c0.471,0.884,0.887,1.831,1.418,2.658c-0.592-1.242-0.948-2.539-1.537-3.9c0-0.058,0-0.058,0-0.116
		c0.826,1.595,1.595,3.189,2.187,4.781C46.749,57.284,45.92,55.334,45.093,53.384z M40.362,44.29
		c0.355-1.063,0.768-2.184,1.361-3.129c0.65-0.945,1.537-1.655,2.424-2.363c0.887-0.708,1.834-1.358,2.779-2.008
		c0.061,0.826,0,1.713-0.118,2.539c-0.176,1.063-0.413,2.126-0.708,3.129c-0.355,1.063-0.768,2.126-1.361,3.074l0.295-1.063
		c-0.413,0.766-0.708,1.534-1.181,2.302c-0.118,0.118-0.176,0.237-0.295,0.295c0.471-0.945,0.887-1.771,1.124-2.715
		c-0.298,0.589-0.592,1.181-0.948,1.771c-0.355,0.589-0.768,1.181-1.124,1.831l-0.058,0.058c0.887-1.652,1.537-3.129,2.363-4.605
		c-0.532,0.826-1.063,1.652-1.595,2.539c-0.534,0.884-1.066,1.771-1.716,2.658c-0.058,0.058-0.176,0.058-0.237,0.116
		c1.479-2.008,2.308-3.955,3.371-5.844c-0.65,0.945-1.242,1.947-1.834,2.892c-0.65,1.005-1.3,2.008-2.126,2.952
		c0.708-1.121,1.3-2.242,1.892-3.305c0.768-1.361,1.655-2.718,2.481-4.018c-0.945,1.3-1.892,2.542-2.718,3.9
		c-0.65,1.002-1.303,2.008-1.953,3.071c0.298-0.474,0.532-0.945,0.768-1.418c0.237-0.471,0.474-0.945,0.711-1.415
		c0.237-0.474,0.474-0.948,0.768-1.361c0.474-1.063,1.063-1.947,1.597-2.834c0.532-0.887,1.063-1.831,1.476-2.834
		c-0.471,0.945-1.005,1.831-1.595,2.715c-0.592,0.887-1.184,1.771-1.716,2.658c-0.295,0.474-0.532,0.887-0.826,1.358
		c-0.237,0.474-0.474,0.887-0.771,1.361c-0.058,0.116-0.176,0.295-0.234,0.413c0.352-0.768,0.65-1.476,1.005-2.245
		c0.65-1.537,1.476-3.013,2.542-4.313c-1.124,1.242-2.071,2.658-2.779,4.194c-0.474,0.945-0.887,1.831-1.361,2.715
		c0.413-0.945,0.711-1.947,1.124-2.892c0.355-1.005,0.826-2.011,1.361-2.955c-1.005,1.537-1.774,3.308-2.484,4.902
		c0.295-0.768,0.592-1.534,0.826-2.184c0.298-0.768,0.592-1.537,0.89-2.305c-0.653,1.181-1.184,2.424-1.716,3.544
		c0.295-0.768,0.592-1.595,0.945-2.481C40.778,43.522,40.541,43.938,40.362,44.29z M35.396,52.439
		c0.65,1.418,1.418,2.776,2.305,4.076c-0.768-1.418-1.479-2.895-2.068-4.428c0.474,0.708,0.887,1.476,1.3,2.245
		c0.532,0.945,1.005,1.947,1.597,2.892c-0.532-0.945-1.005-2.008-1.421-2.952c-0.352-0.768-0.708-1.476-1.121-2.245
		c0.234,0.355,0.413,0.65,0.589,0.945c0.179,0.298,0.416,0.592,0.592,0.945c0.176,0.298,0.355,0.65,0.532,0.948
		c0.355,0.647,0.711,1.297,1.124,1.889c0.413,0.589,0.829,1.181,1.361,1.713c-0.532-0.532-0.948-1.124-1.3-1.713
		c-0.355-0.65-0.711-1.3-1.005-1.889c-0.179-0.298-0.355-0.65-0.474-0.948c-0.179-0.295-0.355-0.647-0.532-0.945
		c-0.061-0.118-0.118-0.176-0.179-0.295c0.355,0.474,0.65,0.945,0.948,1.418c0.65,0.945,1.181,1.889,1.713,2.952
		c-0.471-1.063-0.945-2.068-1.537-3.013c-0.355-0.589-0.768-1.181-1.124-1.829c0.948,1.121,1.774,2.302,2.542,3.484
		c-0.589-1.063-1.239-2.126-1.95-3.131c0.826,1.063,1.479,1.889,2.011,2.6c-0.413-0.65-0.887-1.358-1.418-2.245
		c0.352,0.471,0.708,0.945,1.063,1.418c-0.118-0.237-0.295-0.532-0.413-0.768c0.471,0.589,0.945,1.181,1.3,1.831
		c0.355,0.647,0.532,1.358,0.711,2.126c0.176,0.766,0.413,1.476,0.65,2.242c-0.592-0.118-1.124-0.352-1.655-0.708
		c-0.65-0.355-1.303-0.826-1.834-1.418c-0.592-0.532-1.063-1.239-1.479-1.947c0.179,0.176,0.355,0.413,0.534,0.589
		c-0.355-0.532-0.65-1.063-0.948-1.595c0-0.118-0.058-0.176-0.058-0.295c0.355,0.589,0.708,1.239,1.181,1.713
		c-0.592-0.768-0.887-1.713-1.361-2.539v-0.061c0.592,1.063,1.242,2.068,1.892,3.131c-0.65-1.239-1.3-2.539-1.892-3.839
		C35.396,52.558,35.396,52.5,35.396,52.439z M90.328,5.668c1.239-1.358,2.718-2.539,4.255-3.542
		c-1.358,0.708-2.661,1.595-3.842,2.597c0.768-0.708,1.537-1.358,2.366-2.008c-0.474,0.237-0.887,0.532-1.303,0.768
		c0.948-0.887,2.071-1.713,3.313-2.184c1.239-0.474,2.542-0.592,3.784-0.592c1.3,0,2.6,0.061,3.842,0.237
		c-0.592,0.768-1.242,1.415-1.892,2.008c-0.829,0.768-1.716,1.534-2.603,2.184c-0.945,0.711-1.892,1.361-2.897,1.892
		c0.298-0.237,0.534-0.532,0.829-0.768c-0.65,0.352-1.242,0.768-1.892,1.181c-0.118,0-0.176,0-0.295,0.058
		c0.65-0.471,1.3-0.945,1.95-1.476c-0.887,0.589-1.831,1.005-2.718,1.534c-0.061,0-0.118,0-0.237,0
		c1.124-0.884,2.363-1.71,3.666-2.36c-1.597,0.65-3.134,1.476-4.495,2.421c-0.118,0-0.176,0-0.295,0.058
		c1.537-1.179,3.253-2.184,5.026-3.071c-2.071,0.829-4.082,1.95-5.974,3.189c-0.058,0-0.118,0-0.176,0.061
		c0.826-0.826,1.831-1.537,2.837-2.187c1.479-0.884,3.077-1.534,4.613-2.126c-1.597,0.532-3.253,1.063-4.79,1.892
		c-1.124,0.589-2.247,1.297-3.192,2.184c0.413-0.413,0.826-0.826,1.239-1.181c0.416-0.355,0.887-0.708,1.361-1.063
		c0.474-0.355,0.948-0.65,1.479-0.887c1.005-0.532,2.068-1.002,3.134-1.476c1.063-0.471,2.129-0.945,3.134-1.476
		c-1.066,0.474-2.129,0.887-3.195,1.3c-1.063,0.413-2.187,0.826-3.192,1.358c-0.532,0.237-1.063,0.532-1.537,0.887
		c-0.474,0.295-0.948,0.65-1.418,1.002c-0.118,0.118-0.298,0.237-0.416,0.355c0.65-0.65,1.303-1.3,2.071-1.831
		c1.476-1.121,3.192-1.947,4.966-2.421c-1.831,0.355-3.608,1.124-5.145,2.187c-1.005,0.647-1.892,1.415-2.718,2.242
		c1.476-1.829,3.429-3.423,5.616-4.486C93.639,3.01,91.865,4.192,90.328,5.668z M81.636,13.228
		c-0.887-0.237-1.774-0.471-2.721-0.532c0.413,0,0.829,0.061,1.242,0.061c0.413,0.058,0.826,0.058,1.181,0.116
		c0.416,0.061,0.768,0.179,1.184,0.237c0.768,0.176,1.595,0.413,2.363,0.532c0.768,0.176,1.597,0.295,2.427,0.237
		c-0.829,0-1.597-0.118-2.427-0.355c-0.768-0.176-1.537-0.413-2.363-0.65c-0.416-0.116-0.768-0.234-1.184-0.295
		c-0.413-0.058-0.826-0.118-1.242-0.176c-0.118,0-0.234,0-0.352-0.061c0.65,0,1.3,0.061,1.892,0.118
		c1.3,0.179,2.481,0.474,3.724,0.887c-1.181-0.474-2.424-0.826-3.666-1.063c-0.768-0.118-1.597-0.237-2.424-0.237
		c1.655-0.118,3.31,0.061,4.908,0.355c-1.303-0.355-2.721-0.592-4.082-0.65c1.242,0,2.427,0.058,3.608,0.176
		c-0.945-0.176-1.892-0.352-2.897-0.413c0.65,0,1.242,0.061,1.892,0.118l-1.005-0.237c0.887,0,1.774,0.061,2.603,0.298
		c0.826,0.234,1.537,0.647,2.247,1.063c0.768,0.413,1.476,0.826,2.305,1.239c-0.532,0.352-1.184,0.589-1.834,0.768
		c-0.826,0.234-1.713,0.352-2.542,0.352c-0.887,0-1.774-0.058-2.603-0.295h0.89l-1.953-0.355c-0.118-0.058-0.176-0.058-0.295-0.118
		c0.708,0.061,1.476,0.237,2.247,0.237c-1.066-0.118-2.011-0.532-3.016-0.65l-0.061-0.058c1.3,0.118,2.542,0.355,3.845,0.65
		c-1.479-0.413-2.958-0.826-4.495-1.063l-0.118-0.118c1.655,0.237,3.31,0.589,4.966,0.945c-1.713-0.474-3.429-0.945-5.142-1.358
		c0.945,0,1.892,0.176,2.837,0.413c1.184,0.295,2.366,0.65,3.547,0.887C83.941,13.996,82.76,13.583,81.636,13.228z M74.599,8.504
		c0.118-0.887,0.295-1.831,0.589-2.718c-0.176,0.413-0.413,0.826-0.532,1.3c0.237-1.181,0.65-2.363,1.421-3.365
		c0.768-0.945,1.774-1.595,2.779-2.008c1.063-0.474,2.126-0.768,3.192-0.887c-0.295,0.708-0.65,1.418-0.948,2.065
		c-0.413,0.829-0.768,1.655-1.124,2.481c-0.352,0.826-0.708,1.595-1.121,2.363c0.058-0.295,0.116-0.592,0.176-0.887
		c-0.295,0.592-0.532,1.239-0.768,1.889c-0.061,0.118-0.118,0.179-0.179,0.298c0.118-0.768,0.416-1.479,0.653-2.245
		c-0.416,1.002-1.005,1.889-1.184,3.071L77.496,9.92c0.118-0.708,0.237-1.415,0.474-2.065c0.234-0.65,0.532-1.3,0.945-1.889
		c-0.532,0.647-0.945,1.415-1.242,2.184c-0.355,0.768-0.532,1.595-0.708,2.481c-0.061,0.058-0.118,0.116-0.118,0.176
		c0.176-1.005,0.352-1.95,0.708-2.834c0.298-0.887,0.768-1.713,1.303-2.539c-0.592,0.766-1.124,1.652-1.54,2.539
		c-0.413,0.884-0.65,1.889-0.945,2.952c0.058-1.181,0.237-2.245,0.708-3.308c0.534-1.3,1.361-2.481,2.308-3.484
		c-1.005,0.945-1.892,2.065-2.542,3.365c-0.474,1.005-0.711,2.068-0.887,3.189c0.058-0.474,0.058-1.005,0.176-1.476
		c0.058-0.474,0.176-0.945,0.295-1.418c0.118-0.471,0.355-0.945,0.534-1.358c0.471-0.887,1.005-1.652,1.655-2.421
		c0.589-0.768,1.3-1.476,1.95-2.184c-0.708,0.708-1.361,1.358-2.011,2.123c-0.65,0.711-1.242,1.537-1.774,2.424
		c-0.237,0.413-0.474,0.884-0.65,1.358c-0.176,0.471-0.295,0.945-0.355,1.476c0,0.118-0.058,0.295-0.058,0.471
		c0.058-0.766,0.118-1.534,0.355-2.36c0.413-1.537,1.358-2.952,2.542-4.015c-1.242,0.945-2.247,2.36-2.779,3.955
		c-0.355,1.005-0.474,2.008-0.534,2.952c-0.058-1.002,0-2.008,0.298-3.071c0.237-1.063,0.708-2.065,1.3-2.952
		c-0.532,0.768-1.005,1.595-1.361,2.481c-0.355,0.884-0.532,1.831-0.589,2.715c0-1.534,0.413-3.247,1.181-4.784
		C75.307,5.847,74.836,7.205,74.599,8.504z M73.062,16.948c-0.711-0.355-1.421-0.708-2.19-0.945
		c0.355,0.118,0.711,0.176,1.005,0.295c0.355,0.118,0.65,0.237,1.005,0.355c0.355,0.118,0.65,0.295,0.948,0.413
		c0.589,0.295,1.3,0.589,1.892,0.945c0.65,0.295,1.3,0.589,2.011,0.768c-0.653-0.237-1.303-0.532-1.953-0.826
		c-0.65-0.355-1.3-0.711-1.892-1.005c-0.295-0.176-0.65-0.295-0.945-0.474c-0.355-0.116-0.65-0.295-1.005-0.413
		c-0.118-0.058-0.237-0.058-0.298-0.118c0.534,0.118,1.066,0.298,1.597,0.474c1.063,0.355,2.068,0.826,3.016,1.476
		c-0.887-0.65-1.892-1.181-2.958-1.595c-0.65-0.237-1.3-0.471-2.008-0.65c1.418,0.237,2.837,0.65,4.137,1.242
		c-1.124-0.592-2.305-1.005-3.487-1.361c1.063,0.237,2.129,0.532,3.192,0.887c-0.829-0.355-1.655-0.65-2.542-0.945
		c0.592,0.176,1.181,0.295,1.713,0.471l-0.826-0.352c0.768,0.176,1.479,0.352,2.187,0.768c0.65,0.352,1.184,0.884,1.716,1.415
		c0.532,0.532,1.063,1.124,1.595,1.713c-0.589,0.118-1.121,0.118-1.713,0.118c-0.711,0-1.479-0.118-2.187-0.237
		c-0.711-0.176-1.479-0.413-2.129-0.708l0.708,0.118l-1.595-0.65c-0.061-0.061-0.118-0.118-0.237-0.176
		c0.589,0.234,1.242,0.471,1.892,0.589c-0.829-0.295-1.597-0.768-2.484-1.121l-0.058-0.061c1.063,0.355,2.126,0.768,3.192,1.239
		c-1.181-0.647-2.366-1.239-3.608-1.771c-0.058-0.058-0.058-0.058-0.118-0.118c1.361,0.532,2.721,1.124,4.082,1.774
		c-1.361-0.711-2.779-1.418-4.14-2.126c0.826,0.234,1.597,0.532,2.366,0.884c0.945,0.474,1.892,0.945,2.837,1.418
		C74.894,18.011,74.007,17.422,73.062,16.948z M64.073,9.507c-0.768,1.537-1.181,3.308-1.181,5.021
		c-0.061-1.476,0.118-3.071,0.532-4.547c-0.474,1.181-0.768,2.479-0.887,3.721c0.061-0.829,0.118-1.713,0.295-2.539
		c-0.116,0.413-0.234,0.826-0.352,1.239c0.058-1.124,0.295-2.187,0.826-3.189c0.474-0.945,1.303-1.713,2.071-2.363
		c0.826-0.65,1.713-1.239,2.6-1.713c0,0.768-0.118,1.476-0.237,2.187c-0.176,0.884-0.295,1.771-0.471,2.658
		c-0.179,0.884-0.416,1.771-0.711,2.597c0-0.295,0.058-0.589,0.058-0.884c-0.234,0.647-0.352,1.358-0.532,2.008
		c-0.058,0.116-0.118,0.176-0.118,0.295c0.118-0.768,0.298-1.537,0.416-2.363c-0.237,1.063-0.768,2.068-0.887,3.189l-0.061,0.058
		c0.118-1.358,0.413-2.773,0.948-4.073c-0.768,1.476-1.242,3.129-1.421,4.784c-0.058,0.058-0.058,0.118-0.118,0.176
		c0.118-1.831,0.592-3.66,1.361-5.373c-0.887,1.713-1.479,3.66-1.774,5.61c-0.058-1.063,0.061-2.126,0.413-3.189
		c0.355-1.3,0.948-2.539,1.658-3.721c-0.771,1.121-1.421,2.363-1.892,3.663c-0.355,1.002-0.592,2.008-0.592,3.071
		c0-0.474,0-0.948,0-1.418c0-0.474,0.118-0.945,0.176-1.358c0.118-0.474,0.237-0.887,0.355-1.358
		c0.295-0.887,0.711-1.713,1.124-2.542c0.413-0.826,0.887-1.652,1.242-2.479c-0.413,0.826-0.887,1.652-1.361,2.421
		c-0.474,0.826-0.887,1.652-1.242,2.539c-0.176,0.413-0.295,0.887-0.413,1.358c-0.118,0.474-0.176,0.945-0.237,1.418
		c0,0.118,0,0.295-0.058,0.413c0-0.768,0-1.476,0.176-2.245c0.237-1.476,0.829-2.952,1.774-4.134c-0.945,1.181-1.655,2.6-1.95,4.134
		c-0.237,0.945-0.298,1.889-0.298,2.834C63.009,13.404,63.304,11.338,64.073,9.507z M62.062,23.563
		c-1.3-0.061-2.661-0.061-4.021,0.176c0.592-0.118,1.184-0.237,1.777-0.295c0.589-0.061,1.181-0.179,1.774-0.179
		c0.589-0.058,1.181-0.058,1.774-0.058c1.181,0,2.363,0.058,3.547,0c1.181-0.058,2.366-0.237,3.49-0.589
		c-1.124,0.352-2.308,0.471-3.49,0.471c-1.184,0-2.366-0.058-3.547-0.118c-0.592,0-1.184-0.058-1.774,0
		c-0.592,0-1.184,0.061-1.774,0.118c-0.179,0-0.355,0.061-0.534,0.061c0.887-0.237,1.834-0.355,2.779-0.474
		c1.834-0.176,3.726-0.176,5.558-0.058c-1.831-0.237-3.666-0.355-5.558-0.237c-1.181,0.058-2.363,0.237-3.547,0.471
		c2.308-0.766,4.79-1.002,7.098-1.121c-2.011-0.061-4.14,0.058-6.211,0.471c1.834-0.471,3.666-0.708,5.382-0.945
		c-1.479,0.061-2.955,0.179-4.495,0.355c1.005-0.176,2.011-0.355,2.958-0.532h-1.479c1.242-0.295,2.542-0.474,3.726-0.413
		c1.181,0.058,2.305,0.413,3.487,0.708c1.184,0.295,2.424,0.592,3.726,0.711c-0.592,0.766-1.361,1.415-2.247,1.947
		c-1.063,0.65-2.305,1.181-3.547,1.537c-1.3,0.352-2.603,0.532-3.845,0.471l1.242-0.295c-1.005,0.058-1.95,0.118-2.897,0.118
		c-0.118,0-0.295-0.061-0.474-0.118c1.066-0.118,2.19-0.176,3.253-0.413c-1.537,0.176-3.016-0.061-4.492,0.058l-0.118-0.058
		c1.831-0.237,3.724-0.295,5.676-0.355c-2.308-0.118-4.495-0.176-6.682-0.058c-0.061-0.061-0.179-0.061-0.237-0.118
		c2.366-0.237,4.847-0.237,7.389-0.355c-2.661-0.058-5.203-0.295-7.745-0.176c1.3-0.295,2.721-0.413,4.079-0.413
		c1.774,0,3.55,0.118,5.382,0.058C65.612,23.858,63.836,23.621,62.062,23.563z M45.507,25.924c0.237-1.121,0.532-2.184,0.829-3.189
		c-0.237,0.474-0.474,0.948-0.653,1.479c0.298-1.418,0.711-2.718,1.361-3.781c0.592-1.063,1.479-1.947,2.247-2.895
		c0.829-0.945,1.597-2.008,2.305-3.189c0.474,0.887,0.768,1.892,0.887,2.955c0.118,1.358,0.061,2.715-0.176,4.015
		c-0.237,1.358-0.768,2.658-1.3,3.778l0.237-1.239c-0.298,0.768-0.653,1.476-0.887,2.184c-0.061,0.061-0.179,0.118-0.237,0.237
		c0.237-0.768,0.589-1.595,0.768-2.481c-0.355,1.063-0.948,2.008-1.361,2.955c-0.061,0.058-0.118,0.116-0.176,0.176
		c0.413-1.418,1.063-2.834,1.713-4.31c-0.945,1.652-1.774,3.247-2.366,4.899c-0.058,0.061-0.176,0.118-0.234,0.179
		c0.532-1.892,1.476-3.721,2.363-5.728c-1.124,2.126-2.363,4.192-3.016,6.318c-0.058,0.061-0.118,0.118-0.176,0.176
		c0.118-1.121,0.532-2.242,1.005-3.305c0.768-1.655,1.716-3.25,2.542-5.021c-0.887,1.713-1.95,3.247-2.779,4.842
		c-0.65,1.242-1.181,2.539-1.3,3.9c0.058-0.592,0.118-1.242,0.237-1.831c0.118-0.592,0.295-1.181,0.532-1.774
		c0.237-0.589,0.474-1.121,0.708-1.71c0.534-1.124,1.124-2.187,1.597-3.308c0.474-1.124,0.887-2.363,1.005-3.544
		c-0.176,1.242-0.65,2.421-1.124,3.484c-0.532,1.124-1.181,2.187-1.774,3.25c-0.295,0.532-0.592,1.121-0.826,1.713
		c-0.237,0.589-0.416,1.179-0.592,1.771c-0.061,0.176-0.061,0.355-0.118,0.589c0.118-1.002,0.355-1.947,0.65-2.892
		c0.65-1.892,1.537-3.602,2.484-5.258c-1.066,1.595-2.071,3.25-2.779,5.139c-0.474,1.181-0.768,2.421-0.887,3.721
		c0-1.3,0.237-2.6,0.589-3.839c0.355-1.239,0.829-2.421,1.303-3.544c-0.948,1.831-1.953,3.958-2.308,6.26
		c0.237-2.065,0.829-4.015,1.479-5.728C46.573,22.734,45.92,24.271,45.507,25.924z M41.604,2.952c1.124,0.237,2.129,1.002,2.84,1.95
		c1.655,2.126,2.481,4.899,2.481,7.499c0,1.652-0.471,3.247-1.005,4.784c0.061-0.355,0.118-0.768,0.179-1.124
		c0.118-1.063,0.176-2.126,0.118-3.247c-0.061-1.063-0.298-2.184-0.711-3.247c-0.413-1.005-0.945-2.008-1.716-2.776
		c0.711,0.826,1.242,1.829,1.54,2.834c0.295,1.005,0.471,2.068,0.471,3.131c0,1.002-0.118,1.947-0.234,2.952
		c0-0.355,0-0.711-0.061-1.063c-0.176-1.476-0.65-2.952-1.361-4.252c-0.708-1.3-1.713-2.481-2.897-3.308
		c1.124,0.887,2.071,2.065,2.721,3.365c0.65,1.3,1.063,2.776,1.124,4.194c0.058,1.002,0,1.947-0.237,2.892
		c0.058-0.708,0.118-1.415,0.058-2.126c-0.118-1.179-0.532-2.302-1.124-3.305c-0.65-1.005-1.476-1.831-2.424-2.363
		c1.892,1.239,3.134,3.484,3.195,5.668c0.058,1.124-0.179,2.187-0.416,3.189c0,0.061-0.058,0.118-0.058,0.179
		c0-1.005-0.061-2.008-0.298-2.895c-0.295-1.358-0.945-2.658-1.892-3.721c-0.826-0.887-1.892-1.534-3.013-1.831
		c-0.829-0.176-1.597-0.176-2.366,0c-0.413-1.121,0.237-2.245,0.826-3.071c0.355-0.532,0.711-1.121,0.948-1.713
		c0.237-0.532,0.413-1.063,0.708-1.534C39.536,3.129,40.541,2.776,41.604,2.952z M36.341,3.129c0.534-0.352,1.124-0.65,1.716-0.826
		c0.532-0.176,1.063-0.237,1.597-0.176c-0.298,0.118-0.653,0.295-0.887,0.532c-0.534,0.471-0.887,1.181-1.124,1.829
		c0,0.061-0.061,0.061-0.061,0.118c-0.589-0.352-1.242-0.708-1.892-0.884C35.809,3.542,36.046,3.308,36.341,3.129z M37.109,5.549
		c-0.176,0.298-0.295,0.592-0.532,0.887c-0.65,1.005-1.361,2.184-1.242,3.426c-0.826-0.532-1.774-0.532-2.661-0.355
		c-0.65,0.118-1.242,0.413-1.892,0.65c-0.65,0.237-1.3,0.474-1.892,0.708c-0.058,0-0.058,0-0.118,0.061
		c-0.058-0.711-0.118-1.418,0.118-2.068c0.118-0.352,0.298-0.708,0.592-0.945s0.711-0.352,1.124-0.471
		c0.826-0.237,1.655-0.355,2.305-0.945c0.298-0.298,0.474-0.711,0.711-1.063c0.176-0.355,0.474-0.592,0.826-0.65
		C35.396,4.547,36.283,5.078,37.109,5.549z M32.735,3.542c0.65-0.176,1.3-0.352,1.95-0.295c-0.058,0.118-0.118,0.237-0.176,0.413
		c-0.413,0.061-0.829,0.179-1.184,0.474c-0.413,0.295-0.589,0.768-0.826,1.181c-0.474,0.826-1.361,0.884-2.187,1.121
		c-0.948,0.237-1.716,0.708-2.129,1.652c-0.061,0.179-0.118,0.355-0.179,0.532c-0.118-0.058-0.237-0.058-0.295,0
		c-0.237,0.118-0.532,0.179-0.768,0.298C27.472,5.905,30.193,4.31,32.735,3.542z M25.404,15.648
		c-0.592-0.945-0.948-2.126-0.829-3.189c0.061-0.708,0.355-1.476,0.887-1.889c0.65-0.532,1.537-0.532,2.305-0.826
		c0,0.532,0,1.063,0.061,1.595c-0.295,0.118-0.532,0.237-0.829,0.355c-0.532,0.295-0.887,0.708-1.181,1.239
		C25.462,13.701,25.343,14.646,25.404,15.648z M31.493,19.545c0.826,1.063,1.774,2.011,2.779,2.837
		c0.118,0.118,0.237,0.237,0.355,0.295c0.118,0.118,0.237,0.176,0.413,0.295c0.118,0.118,0.295,0.179,0.413,0.295l0.474,0.237
		c0.413,0.237,0.829,0.355,1.242,0.474c-0.887-0.061-1.774-0.237-2.661-0.532c-1.774-0.592-3.49-1.595-5.084-2.776
		c1.476,1.3,3.131,2.421,4.966,3.129c0.887,0.355,1.831,0.65,2.779,0.768c0.295,0.061,0.592,0.061,0.887,0.118
		c-0.355,0.058-0.768,0.118-1.124,0.176c-1.005,0.118-2.011,0.061-3.016-0.234c-1.005-0.298-2.011-0.887-2.955-1.537
		c-1.953-1.358-3.547-3.308-4.319-5.61c-0.295-1.063-0.471-2.184-0.234-3.247c0.118-0.416,0.295-0.829,0.532-1.181
		c0.355-0.413,0.826-0.65,1.3-0.826c1.3-0.474,2.603-1.005,3.903-1.479c0.948-0.295,2.129-0.589,2.958,0.237
		c-0.829,0.65-1.361,1.595-1.658,2.658c-0.708,2.363-0.176,5.258,1.421,7.265c-0.061-0.061-0.118-0.118-0.237-0.179
		c-0.829-0.766-1.479-1.713-2.071-2.658c-0.589-1.002-1.063-2.008-1.595-3.071c0.413,1.063,0.887,2.126,1.418,3.131
		c0.532,1.002,1.181,2.008,1.95,2.834c0.771,0.826,1.777,1.595,2.84,2.008c0.295,0.118,0.592,0.237,0.887,0.295
		c0.058,0,0.118,0.061,0.176,0.061c-0.176,0-0.352-0.061-0.589-0.061c-0.592-0.058-1.184-0.234-1.716-0.471l-0.176-0.118
		l-0.179-0.118c-0.118-0.058-0.237-0.118-0.413-0.237c-0.237-0.176-0.532-0.352-0.768-0.532c-1.005-0.766-2.011-1.595-2.84-2.597
		c-0.887-0.945-1.595-2.068-2.126-3.308C30.014,17.304,30.664,18.485,31.493,19.545z M41.841,22.145
		c-0.237-0.589-0.474-1.181-0.711-1.771c-0.352-0.768-0.768-1.537-1.181-2.305c-0.413-0.708-0.887-1.476-1.361-2.184l-1.3-2.068
		l1.181,2.245c0.416,0.768,0.768,1.476,1.184,2.245c0.352,0.768,0.708,1.537,0.945,2.302c0.179,0.532,0.355,1.063,0.474,1.595
		c-1.716-2.126-3.253-4.428-4.613-6.849c1.184,2.6,2.542,5.078,4.14,7.441c-0.176,0-0.295,0-0.474,0c0,0-0.058,0-0.058-0.061
		L39.83,22.44c-0.176-0.176-0.355-0.352-0.474-0.532c-0.295-0.352-0.65-0.768-0.945-1.181c-0.592-0.826-1.184-1.652-1.655-2.539
		c0.352,0.945,0.826,1.889,1.358,2.776c0.237,0.474,0.534,0.887,0.829,1.3c0.058,0.118,0.176,0.237,0.237,0.355
		c-0.179-0.061-0.355-0.118-0.532-0.179c-1.005-0.884-1.892-2.008-2.484-3.308c0.237,0.945,0.65,1.831,1.124,2.658
		c-0.355-0.234-0.711-0.532-1.005-0.826c-1.537-1.534-2.247-3.897-1.953-5.965c0.179-1.063,0.592-2.242,1.361-2.952
		c0.65-0.589,1.597-0.826,2.484-0.708c0.887,0.058,1.831,0.471,2.542,1.121c0.887,0.768,1.537,1.831,1.892,2.952
		c0.295,0.887,0.474,1.831,0.474,2.776c-0.237-0.471-0.474-0.945-0.711-1.415c0.237,1.002,0.474,2.008,0.592,2.952h0.058
		c0,0.058,0,0.058,0,0.118c-0.413-1.713-1.124-3.368-2.068-4.784c1.005,2.008,1.537,4.252,1.597,6.378c0,0,0,0,0,0.058
		c-0.534-2.421-1.658-4.723-3.134-6.673C40.778,17.006,41.665,19.606,41.841,22.145z M26.172,36.436
		c1.713-0.532,3.487-0.826,5.26-1.063c0.887-0.118,1.777-0.234,2.663-0.352c0.887-0.118,1.774-0.237,2.718-0.355
		c0.295-0.058,0.532-0.058,0.829-0.118c-1.421,0.355-2.779,0.65-4.14,0.945c-2.721,0.65-5.382,1.239-8.1,1.889
		c2.779-0.532,5.439-1.002,8.158-1.476c1.655-0.295,3.371-0.589,5.206-0.884c-3.55,1.002-6.919,1.889-10.113,2.892
		c2.84-0.708,5.795-1.239,8.811-1.889c-2.661,0.708-5.145,1.476-7.508,2.302c2.011-0.532,4.079-1.002,6.208-1.415
		c-1.418,0.352-2.779,0.768-4.079,1.239c0.65-0.118,1.358-0.237,2.011-0.295c-1.716,0.65-3.313,1.239-4.969,1.534
		c-1.595,0.355-3.31,0.298-5.145,0.474c-1.831,0.176-3.666,0.532-5.616,1.181c0.295-1.476,1.005-2.895,2.011-4.134
		c1.181-1.595,2.779-3.013,4.553-4.134c1.831-1.124,3.96-1.889,6.089-2.187c-0.65,0.237-1.3,0.532-1.95,0.829
		c1.595-0.416,3.192-0.711,4.847-0.948c0.237,0,0.532,0.061,0.768,0.061c-1.774,0.295-3.605,0.65-5.321,1.358
		c2.424-0.768,4.908-0.65,7.45-0.887l0.179,0.061c-3.077,0.413-6.211,0.945-9.284,1.771c3.666-0.768,7.332-1.002,10.94-1.121
		c0.118,0.058,0.237,0.118,0.413,0.176c-3.96,0.176-7.924,0.65-11.826,1.831c4.14-1.005,8.337-1.181,12.419-1.005
		c-2.19,0.355-4.319,0.532-6.505,0.829c-2.779,0.352-5.558,0.766-8.279,1.771c2.779-0.826,5.558-1.124,8.34-1.3
		c2.068-0.118,4.137-0.237,6.266-0.413c-0.945,0.118-1.831,0.295-2.718,0.413c-0.887,0.176-1.774,0.295-2.661,0.474
		c-0.887,0.118-1.777,0.295-2.663,0.413c-1.774,0.295-3.547,0.708-5.321,1.297c-1.713,0.592-3.368,1.537-4.729,2.718
		C22.801,37.793,24.456,36.967,26.172,36.436z M12.572,45.827l0.058,0.058c-1.005-0.471-2.129-0.589-3.192-0.471
		c1.361,0.058,2.721,0.65,3.842,1.652c0,0,0,0,0,0.058c-1.418-0.708-3.013-0.826-4.492-0.295c1.655-0.295,3.31,0.179,4.729,1.242
		c-0.413-0.118-0.768-0.179-1.181-0.237c-0.532-0.061-1.063-0.061-1.537,0c-0.532,0.058-1.066,0.118-1.537,0.176l-1.54,0.237h1.54
		c0.532,0,1.005,0,1.537,0c0.532,0,1.005,0.118,1.537,0.237c0.355,0.058,0.65,0.176,1.005,0.295
		c-1.655,0.589-3.371,0.887-5.026,0.945c1.716,0.176,3.49,0.118,5.203-0.237c-0.058,0.179-0.118,0.295-0.176,0.474
		c0,0,0,0-0.061,0.058l-0.234,0.118c-0.118,0.061-0.298,0.118-0.474,0.176c-0.295,0.118-0.592,0.237-0.887,0.298
		c-0.592,0.176-1.242,0.295-1.834,0.295c0.592,0.118,1.242,0.118,1.892,0.118c0.298,0,0.65-0.061,0.948-0.118
		c0.058,0,0.176-0.061,0.237-0.061c-0.061,0.179-0.179,0.298-0.237,0.416c-0.768,0.532-1.655,0.766-2.542,0.708
		c0.532,0.237,1.181,0.295,1.774,0.237c-0.237,0.234-0.474,0.413-0.768,0.589c-1.303,0.708-2.721,0.237-3.726-1.121
		c-0.532-0.711-1.005-1.655-1.124-2.776c-0.118-0.945,0.061-1.889,0.413-2.718c0.298-0.826,0.829-1.476,1.361-1.889
		c0.711-0.471,1.418-0.532,2.129-0.352c0.592,0.176,1.124,0.471,1.597,0.945c-0.355,0-0.65,0-1.005,0
		C11.448,45.177,12.041,45.472,12.572,45.827z M3.406,38.68c0.474-0.945,1.184-1.534,1.892-1.771
		c1.655-0.532,3.371,0.118,4.732,1.415c0.887,0.829,1.595,2.068,2.187,3.368c-0.176-0.237-0.355-0.474-0.532-0.711
		c-0.532-0.647-1.066-1.239-1.655-1.71c-0.592-0.474-1.242-0.829-1.892-0.948c-0.65-0.116-1.361-0.058-2.011,0.298
		c0.65-0.298,1.361-0.298,1.95-0.061c0.65,0.179,1.242,0.592,1.774,1.124c0.534,0.471,1.005,1.063,1.479,1.71
		c-0.176-0.176-0.355-0.352-0.592-0.471c-0.826-0.589-1.713-0.887-2.661-0.826c-0.887,0.058-1.831,0.413-2.661,1.121
		c0.829-0.65,1.716-0.945,2.603-0.884c0.887,0.058,1.774,0.352,2.542,1.002c0.532,0.413,1.005,1.005,1.479,1.652
		c-0.355-0.413-0.711-0.826-1.124-1.121c-0.65-0.474-1.361-0.65-2.071-0.532c-0.708,0.118-1.418,0.474-2.011,1.121
		c1.242-1.179,2.779-1.239,3.963-0.234c0.589,0.532,1.063,1.239,1.537,2.008c0.058,0,0.118,0.058,0.118,0.058
		c-0.532-0.532-1.066-0.884-1.597-1.181c-0.826-0.352-1.713-0.413-2.542-0.058c-0.711,0.295-1.418,1.002-1.892,1.95
		c-0.355,0.647-0.592,1.476-0.768,2.302c-0.711-0.179-1.063-1.358-1.361-2.302c-0.176-0.592-0.355-1.242-0.589-1.774
		c-0.179-0.471-0.416-0.945-0.592-1.415C2.814,40.806,2.932,39.625,3.406,38.68z M1.927,41.812c0.061-0.592,0.179-1.124,0.416-1.655
		c-0.061,0.355-0.061,0.768,0,1.124c0.118,0.766,0.355,1.415,0.589,2.008c0,0.058,0.061,0.058,0.061,0.118
		c-0.355,0.413-0.768,0.826-1.066,1.358c-0.058-0.295-0.116-0.592-0.116-0.945C1.812,43.169,1.869,42.459,1.927,41.812z
		 M1.988,54.802c0,0.295-0.061,0.592-0.118,0.887c-1.361-2.008-1.361-5.434-0.948-8.268c0.118-0.711,0.237-1.418,0.474-2.008
		c0.061,0.118,0.118,0.295,0.179,0.413c-0.118,0.413-0.179,0.884-0.118,1.358c0.058,0.532,0.237,0.945,0.355,1.418
		c0.295,0.884,0.058,1.771-0.118,2.658c-0.179,1.002-0.179,2.008,0.176,2.892c0.058,0.179,0.118,0.295,0.237,0.474
		C2.046,54.626,1.988,54.684,1.988,54.802z M2.282,51.437c0.118-0.887,0.355-1.771,0.237-2.658
		c-0.058-0.413-0.237-0.826-0.355-1.181c-0.118-0.355-0.176-0.708-0.058-1.121c0.176-0.945,0.708-1.595,1.242-2.126
		c0.118,0.295,0.237,0.589,0.295,0.945c0.295,1.121,0.711,2.421,1.418,2.952c-0.532,0.532-0.826,1.418-1.005,2.363
		c-0.118,0.708-0.176,1.415-0.237,2.065c-0.058,0.708-0.116,1.476-0.234,2.187c0,0.058,0,0.058,0,0.116
		c-0.416-0.295-0.771-0.647-1.066-1.179c-0.176-0.298-0.295-0.65-0.295-1.005C2.164,52.263,2.225,51.85,2.282,51.437z M3.051,59.704
		c-0.352-0.474-0.65-1.063-0.708-1.831c-0.061-0.884,0.176-1.771,0.295-2.658c0.295,0.295,0.592,0.532,0.887,0.768
		c0,0.295-0.058,0.65-0.058,0.945c0,0.65,0.118,1.239,0.295,1.771c0.295,0.829,0.768,1.418,1.3,1.831
		C4.293,60.649,3.585,60.354,3.051,59.704z M13.459,54.152c-0.237,1.005-0.592,1.95-1.066,2.718
		c-0.471,0.826-1.121,1.476-1.713,2.065c-1.3,1.181-2.84,1.771-4.316,1.3c-0.653-0.237-1.303-0.65-1.774-1.418
		c-0.179-0.295-0.355-0.708-0.474-1.121c-0.118-0.532-0.061-1.063,0-1.655c0.118-1.476,0.295-3.01,0.474-4.486
		c0.116-1.063,0.352-2.305,1.063-2.718c0.058,1.124,0.413,2.126,0.887,2.895c1.005,1.831,2.721,2.776,4.258,2.245
		c-0.061,0.058-0.118,0.058-0.179,0.118c-0.65,0.413-1.358,0.589-2.068,0.65c-0.711,0.058-1.418,0.058-2.129,0
		c0.711,0.118,1.418,0.234,2.068,0.234c0.711,0,1.421-0.116,2.129-0.471c0.711-0.355,1.361-0.887,1.953-1.713
		c0.176-0.237,0.295-0.471,0.413-0.708c0.061-0.061,0.061-0.118,0.118-0.179c-0.058,0.179-0.118,0.355-0.237,0.532
		c-0.237,0.532-0.474,1.005-0.768,1.361l-0.118,0.176l-0.118,0.118c-0.058,0.118-0.176,0.176-0.237,0.237
		c-0.176,0.176-0.352,0.352-0.532,0.471c-0.708,0.592-1.479,1.124-2.247,1.476c-0.768,0.355-1.595,0.474-2.424,0.413
		c0.768,0.179,1.597,0.061,2.424-0.176c0.829-0.237,1.597-0.708,2.366-1.239c0.118-0.061,0.176-0.118,0.295-0.237
		c0.118-0.061,0.179-0.118,0.298-0.237c0.118-0.058,0.176-0.176,0.295-0.237l0.118-0.118l0.118-0.176
		c0.237-0.295,0.474-0.589,0.65-0.945c-0.295,0.826-0.708,1.537-1.124,2.245c-0.887,1.418-1.892,2.539-3.016,3.484
		c1.124-0.768,2.247-1.831,3.195-3.189c0.471-0.65,0.887-1.418,1.3-2.245c0.118-0.237,0.237-0.532,0.295-0.768
		C13.635,53.326,13.577,53.739,13.459,54.152z M23.096,61.357c-1.831,1.713-3.547,3.602-5.203,5.494
		c1.479-1.418,2.958-2.837,4.553-4.134c-1.005,0.945-1.892,1.889-2.779,2.952c0.532-0.413,1.005-0.829,1.537-1.242
		c-1.124,1.3-2.187,2.6-3.547,3.781c-1.3,1.121-2.955,1.889-4.553,2.776c-1.655,0.884-3.371,1.771-5.084,2.597
		c0.058-1.418,0.413-2.834,0.887-4.192c0.589-1.713,1.3-3.426,2.305-5.081c1.005-1.652,2.366-3.247,4.021-4.486
		c-0.413,0.532-0.829,1.063-1.181,1.595c1.121-1.063,2.305-2.126,3.547-3.071c0.237-0.118,0.471-0.237,0.708-0.295
		c-1.358,1.121-2.779,2.302-3.784,3.66c1.655-1.771,3.784-2.952,5.855-4.31c0.058,0,0.118,0,0.176-0.061
		c-2.542,1.771-4.79,3.781-6.919,5.907c2.661-2.245,5.5-4.371,8.753-6.084c0.118,0,0.295,0,0.413,0
		c-3.49,1.889-6.505,4.371-9.166,7.086c3.016-2.597,6.326-5.021,10.053-6.615c-1.774,1.242-3.547,2.424-5.263,3.721
		c-2.129,1.595-4.255,3.308-6.147,5.197c2.008-1.771,4.197-3.365,6.384-4.899c1.655-1.124,3.371-2.187,5.145-3.25
		c-0.768,0.474-1.479,1.063-2.187,1.595c-0.711,0.532-1.361,1.063-2.071,1.655c-0.65,0.532-1.361,1.121-2.011,1.652
		c-1.361,1.121-2.661,2.245-3.903,3.544c-1.242,1.239-2.363,2.658-3.31,4.134c1.005-1.476,2.187-2.776,3.429-3.958
		c1.303-1.181,2.603-2.302,4.021-3.365c0.711-0.532,1.361-1.063,2.071-1.537c0.708-0.532,1.358-1.063,2.068-1.534
		c0.237-0.179,0.413-0.298,0.65-0.474c-1.063,0.887-2.011,1.771-3.016,2.715c-1.95,1.831-3.903,3.663-6.089,5.376
		c2.247-1.595,4.316-3.368,6.326-5.078c1.3-1.063,2.542-2.126,3.903-3.131c-2.542,2.363-4.79,4.784-7.155,7.205
		C18.78,65.196,20.851,63.249,23.096,61.357z M28.951,71.28c1.124,1.121,2.366,2.245,3.605,3.189
		c-2.542-2.245-4.729-4.784-6.621-7.56c1.242,1.3,2.484,2.597,3.666,3.897c1.537,1.655,3.192,3.25,5.026,4.608
		c-1.774-1.476-3.31-3.131-4.732-4.844c-1.063-1.297-2.129-2.479-3.31-3.836c0.295,0.295,0.532,0.532,0.768,0.826
		c0.295,0.237,0.532,0.532,0.829,0.768c0.237,0.234,0.532,0.532,0.768,0.766c0.295,0.237,0.532,0.532,0.768,0.768
		c0.295,0.237,0.532,0.532,0.768,0.768c0.295,0.237,0.532,0.471,0.768,0.768c1.063,1.002,2.129,2.008,3.371,2.892
		c1.181,0.887,2.481,1.595,3.903,2.126c-1.361-0.532-2.661-1.358-3.784-2.242c-1.124-0.948-2.19-1.95-3.195-3.013
		c-0.234-0.237-0.532-0.532-0.768-0.768c-0.237-0.295-0.471-0.532-0.768-0.768c-0.237-0.234-0.474-0.532-0.768-0.766
		c-0.237-0.237-0.532-0.532-0.768-0.768c-0.176-0.176-0.295-0.355-0.474-0.474c0.887,0.768,1.716,1.476,2.603,2.245
		c1.713,1.476,3.429,2.895,5.084,4.489c-1.595-1.655-3.253-3.189-4.847-4.726c-1.005-0.945-2.071-1.947-3.077-2.952
		c1.124,0.887,2.308,1.774,3.432,2.658c1.181,0.887,2.245,1.771,3.368,2.6c-0.945-0.829-1.831-1.595-2.718-2.421
		c-0.887-0.768-1.774-1.595-2.779-2.481c1.713,1.358,3.429,2.597,5.142,3.778c-1.358-1.063-2.661-2.184-3.96-3.365
		c0.948,0.708,1.834,1.418,2.779,2.068l-1.181-1.181c1.242,0.826,2.424,1.595,3.487,2.597c1.005,0.945,1.834,2.187,2.721,3.365
		c0.945,1.181,1.95,2.424,3.074,3.602c-0.589,0.118-1.181,0.237-1.831,0.237c-0.592,0-1.242,0-1.892-0.058
		c-1.597-0.179-3.134-0.592-4.671-1.3c-1.537-0.708-3.016-1.713-4.2-2.895l0.711,0.413l0.711,0.416
		c-1.005-0.829-2.011-1.713-2.897-2.658c-0.118-0.179-0.237-0.355-0.298-0.532c0.534,0.532,1.066,1.002,1.658,1.476
		c0.589,0.471,1.181,0.945,1.774,1.297c-1.658-1.179-2.779-2.834-4.2-4.368c0-0.061,0-0.061-0.058-0.118
		c1.774,1.829,3.605,3.542,5.616,5.136c-1.063-1.002-2.126-2.065-3.131-3.129c-0.534-0.532-1.005-1.124-1.479-1.655
		c-0.474-0.589-0.948-1.121-1.418-1.71c0-0.118-0.061-0.237-0.061-0.355C26.704,68.917,27.767,70.156,28.951,71.28z M23.451,80.018
		c-0.413-0.884-0.826-1.771-1.124-2.715c0-0.058,0-0.176,0-0.237c0.768,2.008,1.774,3.897,3.016,5.61
		c-1.181-1.889-2.068-3.897-2.718-6.023c0.65,1.3,1.063,2.187,1.595,3.131c0.65,1.297,1.418,2.597,2.308,3.836
		c-0.829-1.239-1.54-2.597-2.129-3.897c-0.416-1.002-0.829-1.889-1.303-3.071c0.237,0.474,0.474,0.887,0.711,1.3
		c0.237,0.413,0.474,0.826,0.711,1.239c0.118,0.237,0.234,0.413,0.352,0.65l0.355,0.65c0.474,0.826,1.005,1.652,1.597,2.421
		s1.3,1.476,2.068,2.008c-0.768-0.589-1.418-1.3-2.011-2.065c-0.589-0.768-1.005-1.655-1.476-2.481
		c-0.118-0.237-0.237-0.413-0.355-0.65c-0.118-0.237-0.237-0.413-0.298-0.65c-0.234-0.413-0.471-0.826-0.65-1.297
		c-0.058-0.118-0.118-0.237-0.176-0.416c0.413,0.65,0.768,1.3,1.181,1.892c0.829,1.239,1.597,2.479,2.366,3.778
		c-0.711-1.3-1.479-2.597-2.187-3.897c-0.474-0.768-0.948-1.595-1.361-2.421c0.532,0.766,1.063,1.595,1.655,2.302
		c0.532,0.768,1.063,1.476,1.655,2.245c-0.413-0.711-0.826-1.3-1.3-2.008c-0.413-0.711-0.829-1.361-1.242-2.068
		c0.829,1.181,1.655,2.302,2.542,3.308c-0.65-0.945-1.242-1.889-1.831-2.834c0.413,0.65,0.887,1.239,1.358,1.829
		c-0.176-0.295-0.352-0.647-0.532-0.945c0.592,0.711,1.242,1.418,1.716,2.245c0.474,0.768,0.768,1.713,1.124,2.6
		c0.355,0.945,0.826,1.829,1.3,2.776c-0.413,0-0.768-0.061-1.181-0.179c-0.416-0.118-0.768-0.237-1.184-0.352
		c-0.945-0.416-1.892-0.948-2.718-1.655c-0.887-0.708-1.597-1.652-2.129-2.658c0.237,0.295,0.474,0.532,0.768,0.826
		c-0.532-0.708-0.948-1.476-1.361-2.242c-0.058-0.118-0.058-0.298-0.118-0.416c0.474,0.829,0.948,1.713,1.655,2.424
		c-0.826-1.063-1.242-2.305-1.831-3.544v-0.058c0.768,1.534,1.595,2.952,2.542,4.31C24.338,81.792,23.864,80.905,23.451,80.018z
		 M17.301,85.215c-1.063,0.829-2.305,1.3-3.547,1.655c-1.242,0.352-2.542,0.65-3.842,0.826c0.355-0.887,0.826-1.713,1.3-2.481
		c0.592-1.002,1.242-1.947,1.892-2.892c0.711-0.945,1.479-1.831,2.305-2.658c-0.176,0.352-0.352,0.65-0.589,1.002
		c0.589-0.65,1.181-1.358,1.774-2.008c0.118-0.058,0.237-0.176,0.355-0.237c-0.592,0.829-1.242,1.595-1.834,2.481
		c0.887-1.063,2.011-1.95,2.84-3.129l0.058-0.061c-1.005,1.537-2.129,2.895-3.49,4.134c1.655-1.3,3.195-2.895,4.437-4.665
		c0.058-0.058,0.176-0.058,0.234-0.118c-1.3,1.95-2.897,3.781-4.671,5.376c1.953-1.537,3.726-3.368,5.263-5.376
		c-0.592,1.181-1.418,2.305-2.366,3.308c-1.181,1.3-2.542,2.363-3.903,3.426c1.421-0.945,2.84-2.008,4.14-3.189
		c0.948-0.945,1.834-1.95,2.484-3.071c-0.295,0.532-0.592,1.063-0.887,1.534c-0.295,0.474-0.65,0.945-1.005,1.418
		c-0.355,0.474-0.768,0.887-1.184,1.3c-0.826,0.826-1.713,1.595-2.661,2.36c-0.887,0.768-1.831,1.479-2.661,2.305
		c0.887-0.768,1.834-1.476,2.779-2.187c0.948-0.708,1.892-1.415,2.779-2.245c0.416-0.413,0.887-0.826,1.242-1.297
		c0.416-0.474,0.768-0.945,1.066-1.418c0.118-0.176,0.176-0.295,0.295-0.471c-0.413,0.826-0.945,1.652-1.479,2.421
		c-1.124,1.534-2.542,2.834-4.197,3.778c1.655-0.887,3.192-2.126,4.434-3.602c0.768-0.945,1.418-1.95,1.953-2.952
		c-0.887,2.245-2.366,4.371-4.2,6.023c1.655-1.358,3.077-3.071,4.14-4.96c-0.826,1.713-1.892,3.308-3.134,4.723
		c1.124-1.121,2.129-2.302,3.016-3.66c-0.532,0.884-1.124,1.771-1.713,2.658c0.352-0.355,0.708-0.768,1.063-1.124
		C19.193,83.268,18.367,84.389,17.301,85.215z M205.572,140.609c0.058-0.708,0.116-1.415,0.116-2.126
		c0-1.358-0.176-2.715-0.532-3.897c-0.176-0.589-0.471-1.121-0.768-1.476c0-0.118,0-0.295,0-0.413c0-0.592-0.118-1.181-0.355-1.595
		c-0.352-0.887-0.945-1.358-1.537-1.418c-0.355,0-0.65,0.118-1.005,0.355c-0.887-0.355-1.774-0.061-2.6,0.65
		c-0.474,0.413-0.887,0.945-1.242,1.534c-0.355,0.592-0.65,1.358-0.829,2.187c-0.295,1.181-0.413,2.421-0.532,3.721
		c-0.061,0-0.118,0-0.237,0c-2.955,0-5.913-0.355-8.868-0.887l0.355-0.945l0.471-1.476l0.237-0.711l0.061-0.176
		c0.471,0.295,1.005,0.413,1.595,0.413c0.65,0,1.361,0,2.011-0.176c1.303-0.237,2.603-0.945,3.666-1.95
		c1.066-0.945,1.953-2.184,2.603-3.484c0.65-1.3,1.124-2.658,1.479-4.015c0.352-1.537,0.65-3.071,0.532-4.608
		c0-0.295-0.237-0.532-0.474-0.352c-1.124,0.708-2.247,1.476-3.311,2.245c-1.066,0.708-2.129,1.415-2.958,2.242
		c-0.887,0.887-1.537,1.892-2.187,2.955c-0.592,0.884-1.124,1.771-1.655,2.715c-0.061,0.118-0.118,0.176-0.176,0.295
		c0.887-3.426,1.476-6.91,1.831-10.451c0.355-0.061,0.711-0.237,1.005-0.474c0.355-0.237,0.711-0.413,1.005-0.65
		c0.65-0.413,1.242-1.002,1.716-1.595c1.005-1.239,1.831-2.715,2.542-4.252c0.413-0.884,0.826-1.771,1.005-2.715
		c0.058-0.176-0.061-0.413-0.237-0.355c-0.829,0.118-1.716,0.413-2.542,0.711c-0.829,0.295-1.655,0.708-2.366,1.358
		s-1.3,1.534-1.716,2.481c-0.058,0.058-0.058,0.176-0.118,0.234c0.061-2.008,0.061-4.015-0.058-6.081
		c-0.061,2.421-0.176,4.842-0.355,7.205c-0.118,0.352-0.237,0.766-0.295,1.121c0,0,0,0,0,0.061
		c-0.118-0.474-0.237-0.948-0.413-1.361c-0.711-1.595-1.953-2.773-3.253-3.423c-0.711-0.355-1.479-0.592-2.247-0.474
		c-0.118,0-0.237,0.176-0.179,0.355c0.416,0.708,0.711,1.415,1.005,2.126c0.298,0.708,0.474,1.415,0.771,2.008
		c0.295,0.589,0.708,1.121,1.121,1.652c0.355,0.474,0.711,0.945,1.124,1.418c0.416,0.471,0.887,0.945,1.54,1.239
		c0.058,0,0.058,0,0.118,0c0.058,0,0.058,0,0.116,0c-0.058,0.176-0.058,0.413-0.116,0.592l-0.237,1.534l-0.298,1.537l-0.176,0.766
		l-0.179,0.768l-0.116,0.592c-0.061-0.474-0.179-0.945-0.298-1.418c-0.355-1.239-0.945-2.363-1.774-3.365
		c-1.597-1.95-3.784-3.071-5.913-3.368c-1.182-0.176-2.366-0.116-3.368,0.416c-0.179,0.058-0.298,0.352-0.118,0.532
		c0.826,0.826,1.537,1.771,2.187,2.655c0.65,0.887,1.182,1.831,1.892,2.542c0.711,0.766,1.479,1.358,2.305,1.889
		c0.711,0.471,1.418,1.002,2.129,1.476c0.711,0.413,1.537,0.826,2.366,0.945c-0.413,1.476-0.829,3.013-1.361,4.428
		c-0.058,0.237-0.176,0.413-0.237,0.65c0-0.058-0.058-0.058-0.058-0.118c-0.118-0.237-0.298-0.471-0.416-0.65
		c-0.295-0.413-0.589-0.768-0.887-1.121c-0.65-0.65-1.418-1.124-2.187-1.655c-0.413-0.295-0.887-0.589-1.361-0.766
		c-0.118-0.061-0.176,0-0.176,0.176c0.058,0.589,0.176,1.239,0.355,1.831c0.176,0.589,0.413,1.239,0.768,1.713
		c0.355,0.532,0.887,0.884,1.418,1.179c0.413,0.237,0.887,0.416,1.361,0.474c0.295,0.058,0.532,0,0.826-0.058
		c-0.352,1.063-0.768,2.065-1.239,3.129c-0.711,0.058-1.479,0.118-2.19,0.176c0-0.295,0-0.65,0-0.945
		c-0.058-0.589-0.176-1.239-0.474-1.771c-0.471-1.121-1.3-2.008-2.187-2.6c-0.474-0.352-1.005-0.589-1.537-0.647
		c-0.118,0-0.179,0.058-0.179,0.234c0.179,0.592,0.355,1.182,0.534,1.774c0.176,0.589,0.295,1.121,0.532,1.652
		s0.532,0.945,0.887,1.358c0.295,0.355,0.592,0.711,0.887,1.063c0.058,0.061,0.058,0.061,0.118,0.118
		c-1.597,0.176-3.134,0.413-4.671,0.708c0.058-0.295,0.118-0.532,0.118-0.826c0.058-0.471,0.058-0.945,0.058-1.415
		c0-0.945-0.176-1.831-0.471-2.658c-0.534-1.655-1.303-2.895-2.011-4.194c-0.416-0.708-0.771-1.476-1.242-2.245
		c-0.061-0.118-0.298-0.176-0.355,0c-0.413,0.829-0.65,1.831-0.829,2.895c-0.118,1.005-0.176,2.126,0.061,3.131
		c0.237,1.063,0.65,1.947,1.124,2.715c0.413,0.65,0.826,1.3,1.3,1.831c0.355,0.413,0.829,0.826,1.3,1.063
		c-1.476,0.352-2.955,0.826-4.374,1.476c-0.237-1.124-0.711-2.126-1.361-2.952c-0.474-0.65-1.066-1.242-1.774-1.655
		c-1.066-0.589-2.19-0.708-3.311-0.237c-1.066,0.416-2.011,1.3-2.663,2.424c-1.239,2.065-1.476,5.018-0.295,7.262
		c1.124,2.187,3.429,3.663,5.619,3.013c1.124-0.355,2.129-1.181,2.837-2.305c0.711-1.063,1.066-2.421,1.066-3.778
		c2.305-1.063,4.729-1.713,7.213-2.126c-0.179,0.118-0.298,0.237-0.474,0.355c-0.65,0.589-1.181,1.3-1.537,2.008
		c-0.711,1.476-1.066,3.128-1.242,4.784c-0.118,0.945-0.118,1.889,0,2.776c0,0.176,0.176,0.295,0.295,0.176
		c0.653-0.532,1.242-1.124,1.834-1.652c0.592-0.592,1.124-1.182,1.537-1.892c0.413-0.766,0.711-1.595,0.887-2.479
		c0.179-0.711,0.295-1.418,0.355-2.068c0.058-0.708,0.118-1.415,0.118-2.245c1.242-0.176,2.484-0.295,3.724-0.352
		c-2.305,5.197-5.26,10.038-8.689,14.233l-0.89,1.121l-0.945,1.063l-0.947,1.063l-0.945,1.002c-0.413,0.416-0.829,0.829-1.242,1.181
		c-0.237-0.234-0.532-0.352-0.826-0.532c-0.355-0.176-0.711-0.352-1.124-0.532c-0.711-0.295-1.479-0.471-2.308-0.532
		c-1.595-0.058-3.368,0.474-4.79,1.537c-0.826,0.589-1.537,1.358-1.95,2.302c-0.061,0.176,0,0.413,0.176,0.413
		c0.829,0,1.655,0.179,2.427,0.355c0.768,0.176,1.537,0.471,2.305,0.471c0.768,0.061,1.537-0.116,2.305-0.295
		c-1.479,1.182-3.016,2.305-4.61,3.308c-0.061-0.118-0.118-0.176-0.179-0.295c-0.176-0.237-0.295-0.474-0.474-0.65
		c-0.352-0.413-0.768-0.708-1.181-1.005c-0.887-0.532-1.834-0.708-2.779-0.708c-0.532,0-1.063,0-1.537,0.237
		c-0.118,0.058-0.118,0.176-0.061,0.237c0.355,0.471,0.711,0.884,1.124,1.297c0.355,0.416,0.768,0.829,1.184,1.124
		c0.471,0.295,0.945,0.471,1.418,0.589c0.295,0.061,0.592,0.118,0.887,0.179c-0.65,0.352-1.3,0.766-1.953,1.121
		c-0.352,0.176-0.768,0.413-1.124,0.589c-0.116-0.176-0.295-0.352-0.413-0.471c-0.237-0.176-0.474-0.413-0.708-0.592
		c-0.474-0.352-0.948-0.589-1.479-0.766c-1.066-0.355-2.247-0.298-3.371,0.058c-0.592,0.176-1.182,0.474-1.655,1.005
		c-0.058,0.058-0.058,0.234,0.058,0.295c0.534,0.295,1.066,0.589,1.54,0.887c0.471,0.295,0.945,0.647,1.476,0.826
		c0.416,0.118,0.829,0.176,1.303,0.237c-1.361,0.532-2.721,1.063-4.082,1.476c-0.176,0-0.352,0.058-0.589,0.116
		c-0.355,0.061-0.768,0.179-1.124,0.298c-0.416,0.118-0.829,0.295-1.184,0.471c-1.242,0.295-2.481,0.592-3.784,0.768
		c-0.887,0.118-1.774,0.237-2.6,0.355l-1.303,0.118l-1.3,0.116l1.361,0.061h1.361c0.887-0.061,1.774-0.061,2.661-0.176
		c0.708-0.061,1.476-0.179,2.187-0.237c-1.005,0.768-1.831,1.713-2.718,2.658c-0.592,0.65-1.184,1.415-1.597,2.245
		c-0.061,0.176-0.061,0.413,0.118,0.413c0.826,0.118,1.713,0.176,2.542,0.118c0.829-0.061,1.716-0.118,2.542-0.474
		c0.829-0.413,1.537-1.002,2.187-1.771c0.534-0.65,1.005-1.3,1.421-2.068c0.355-0.708,0.532-1.476,0.532-2.245
		c2.305-0.647,4.613-1.415,6.8-2.421c-0.118,0.179-0.179,0.295-0.295,0.474c-0.355,0.65-0.592,1.182-0.829,1.713
		c-0.474,1.121-0.768,2.302-1.242,3.602c-0.237,0.708-0.532,1.415-0.711,2.242c-0.058,0.118,0.061,0.355,0.179,0.298
		c0.711-0.118,1.418-0.355,2.129-0.711c0.708-0.352,1.418-0.884,1.892-1.652c0.532-0.768,0.826-1.771,0.945-2.715
		c0.061-0.416,0.061-0.829,0.061-1.242c0-0.413-0.061-0.766-0.118-1.121c-0.118-0.592-0.298-1.124-0.532-1.655
		c2.011-1.002,4.018-2.126,5.913-3.484c-0.118,0.237-0.237,0.474-0.355,0.711c-0.298,0.589-0.534,1.179-0.711,1.829
		c-0.355,1.242-0.474,2.539-0.65,3.9c-0.061,0.766-0.179,1.534-0.118,2.36c0,0.118,0.118,0.298,0.237,0.237
		c0.592-0.355,1.181-0.826,1.713-1.358c0.534-0.532,1.066-1.121,1.421-1.95c0.355-0.766,0.471-1.713,0.532-2.597
		c0-0.768,0-1.537-0.176-2.245c-0.118-0.65-0.416-1.239-0.829-1.652c2.424-1.774,4.729-3.721,6.858-5.907
		c-0.176,0.65-0.352,1.3-0.471,2.008c-0.179,1.063-0.179,2.126-0.118,3.189c0.118,1.181,0.413,2.363,1.005,3.25
		c0.118,0.176,0.295,0.176,0.413,0c0.355-0.945,0.826-1.774,1.361-2.539c0.471-0.768,1.005-1.479,1.418-2.305
		c0.355-0.826,0.65-1.829,0.829-2.952c0.116-0.945,0.234-2.008,0.116-3.013c-0.058-0.766-0.295-1.476-0.65-2.008
		c0.355-0.471,0.711-0.945,1.066-1.415c-0.061,2.008,0.176,4.015,0.708,5.905c-0.352,0.355-0.589,0.826-0.826,1.3
		c-0.355,0.708-0.65,1.476-0.948,2.302c-0.532,1.537-0.945,3.189-0.945,4.902c0,2.184,0.65,4.489,1.831,6.26
		c0.592,0.826,1.303,1.534,2.129,1.771c0.061,0,0.118,0.061,0.179,0.061c0.058,0.058,0.058,0.118,0.118,0.118
		c0.826,0.589,1.774,0.589,2.6,0.234c0.413-0.176,0.829-0.471,1.242-0.826l0.061-0.058l0.058,0.058
		c0.532,0.176,1.124,0.061,1.597-0.118c0.532-0.176,1.063-0.471,1.537-0.768c0.945-0.589,1.713-1.415,2.247-2.597
		c0.237-0.589,0.413-1.239,0.413-1.889c0.118-0.061,0.237-0.118,0.295-0.179c0.416-0.234,0.711-0.708,0.829-1.239
		c0.295-1.002,0.176-2.245-0.295-3.247c-0.237-0.592-0.592-1.124-1.066-1.537c-0.474-1.652-1.418-3.129-2.542-4.192
		c-0.65-0.592-1.361-1.063-2.071-1.418c-0.708-0.355-1.418-0.532-2.187-0.471c-1.005,0.058-2.011,0.295-2.955,0.708
		c-0.179,0.058-0.298,0.176-0.474,0.237c-0.474-1.831-0.65-3.663-0.592-5.552c0.237,0.176,0.474,0.355,0.711,0.474
		c0.592,0.352,1.182,0.708,1.831,0.945c1.242,0.532,2.663,0.65,4.021,0.471c1.361-0.176,2.779-0.768,4.021-1.652
		c1.242-0.887,2.305-2.008,3.134-3.308c0.948-1.418,1.597-3.131,1.597-4.784c0-0.295-0.237-0.589-0.474-0.413
		c-1.181,0.65-2.366,1.002-3.547,1.239c-1.124,0.237-2.247,0.237-3.31,0.474c-1.066,0.237-2.071,0.708-3.134,1.239
		c-0.887,0.413-1.834,0.887-2.779,1.418c-0.179,0.118-0.355,0.176-0.474,0.295l0.237-0.413l0.768-1.3
		c0.532-0.826,1.005-1.771,1.479-2.658c0.887-1.771,1.774-3.602,2.542-5.492c0.058,0,0.118,0,0.176,0c0.061,0,0.061,0,0.118,0
		c3.192,0.65,6.387,0.945,9.579,0.945c0.061,0.589,0.237,1.121,0.355,1.652c0.237,0.768,0.474,1.537,0.768,2.245
		c0.532,1.358,1.182,2.776,1.95,3.663c1.005,1.121,2.19,1.652,3.313,1.239c0.532-0.176,1.063-0.65,1.418-1.418
		c0-0.058,0.058-0.116,0.058-0.176c0.061,0,0.061-0.058,0.118-0.058c0.474-0.592,0.768-1.713,0.829-2.776
		c0.058-0.592,0.058-1.181,0-1.771c0-0.061,0-0.061,0-0.118c0,0,0-0.061,0.058-0.061
		C205.453,141.967,205.511,141.32,205.572,140.609z M190.611,130.334c1.124-1.358,2.068-2.776,3.074-4.252
		c-0.887,1.124-1.774,2.187-2.718,3.25c0.589-0.711,1.124-1.479,1.655-2.305c-0.298,0.355-0.592,0.65-0.948,0.945
		c0.65-1.002,1.303-2.008,2.071-2.892c0.768-0.887,1.774-1.537,2.779-2.187c1.005-0.708,2.068-1.415,3.134-2.126
		c0,1.063-0.179,2.126-0.416,3.189c-0.295,1.3-0.708,2.6-1.3,3.839c-0.592,1.3-1.361,2.481-2.366,3.484
		c0.237-0.413,0.474-0.826,0.711-1.239c-0.65,0.826-1.361,1.652-2.129,2.421c-0.118,0.118-0.295,0.176-0.413,0.237
		c0.826-0.887,1.655-1.771,2.247-2.895c-0.948,1.358-2.247,2.302-3.55,3.426c-0.058,0-0.058,0-0.118,0
		c1.54-1.418,2.897-3.013,4.14-4.608c-1.595,1.774-3.311,3.426-5.26,4.844c-0.118,0-0.179,0-0.298,0
		c2.129-1.537,3.903-3.487,5.558-5.552c-1.774,2.065-3.784,3.897-6.089,5.255c1.063-0.945,2.129-1.947,3.192-2.952
		c1.303-1.239,2.542-2.597,3.666-4.073c-1.182,1.415-2.481,2.658-3.842,3.836c-1.005,0.887-2.068,1.713-3.134,2.6
		c0.474-0.413,0.887-0.826,1.3-1.239c0.416-0.413,0.829-0.887,1.242-1.3c0.416-0.413,0.829-0.887,1.242-1.3
		c0.829-0.887,1.597-1.771,2.305-2.776c0.711-1.002,1.421-2.065,1.953-3.189c-0.592,1.124-1.242,2.126-2.011,3.071
		s-1.597,1.774-2.424,2.6c-0.416,0.413-0.829,0.826-1.242,1.239c-0.413,0.413-0.829,0.826-1.242,1.242
		c-0.118,0.116-0.237,0.234-0.413,0.352c0.65-0.708,1.242-1.415,1.831-2.126c1.184-1.415,2.308-2.834,3.608-4.192
		c-1.361,1.239-2.603,2.658-3.845,3.955c-0.768,0.829-1.537,1.655-2.363,2.481c1.537-1.831,2.837-3.721,4.255-5.61
		C193.214,127.382,191.971,128.858,190.611,130.334z M193.508,113.091c-0.65,0.884-1.242,1.829-1.774,2.834
		c0.295-0.708,0.65-1.358,1.005-2.008c-0.237,0.295-0.413,0.589-0.65,0.884c0.413-0.884,0.887-1.771,1.537-2.421
		c0.65-0.65,1.418-1.063,2.187-1.358c0.768-0.295,1.597-0.532,2.366-0.708c-0.176,0.65-0.474,1.3-0.711,1.889
		c-0.355,0.768-0.708,1.537-1.124,2.184c-0.413,0.711-0.826,1.418-1.358,2.068c0.118-0.237,0.234-0.532,0.352-0.768
		c-0.352,0.532-0.708,1.063-1.063,1.595c-0.058,0.061-0.118,0.118-0.237,0.176c0.355-0.647,0.711-1.239,1.066-1.889
		c-0.534,0.826-1.184,1.537-1.716,2.421c0,0-0.061,0-0.061,0.061c0.592-1.181,1.242-2.245,2.011-3.189
		c-1.005,1.063-1.892,2.245-2.6,3.602c-0.061,0.058-0.118,0.058-0.118,0.118c0.768-1.537,1.713-2.895,2.779-4.134
		c-1.181,1.239-2.247,2.597-3.134,4.134c0.355-0.945,0.829-1.771,1.361-2.539c0.708-1.005,1.537-1.831,2.366-2.658
		c-0.887,0.768-1.716,1.595-2.484,2.539c-0.592,0.708-1.066,1.534-1.479,2.363c0.179-0.413,0.298-0.768,0.474-1.181
		c0.176-0.355,0.355-0.768,0.592-1.124c0.234-0.352,0.471-0.708,0.708-1.002c0.474-0.65,1.066-1.239,1.597-1.831
		c0.532-0.589,1.124-1.181,1.597-1.831c-0.534,0.592-1.124,1.181-1.658,1.713c-0.589,0.592-1.121,1.124-1.655,1.771
		c-0.237,0.298-0.532,0.65-0.768,1.005s-0.474,0.708-0.65,1.121c-0.058,0.118-0.118,0.237-0.176,0.355
		c0.237-0.65,0.532-1.239,0.826-1.831c0.65-1.179,1.479-2.184,2.484-2.952c-1.005,0.711-1.953,1.713-2.661,2.834
		c-0.474,0.711-0.829,1.479-1.124,2.305c0.474-1.713,1.3-3.308,2.424-4.665c-1.005,1.063-1.831,2.36-2.424,3.839
		C192.148,115.394,192.74,114.212,193.508,113.091z M188.658,114.449c0.829,1.358,1.479,2.895,1.892,4.428
		c-0.413-0.945-0.768-1.595-1.063-2.302c-0.474-0.945-0.947-1.95-1.597-2.776c0.592,0.887,1.066,1.889,1.479,2.895
		c0.295,0.766,0.592,1.415,0.948,2.245c-0.179-0.355-0.298-0.65-0.474-0.948c-0.179-0.295-0.355-0.589-0.474-0.945
		c-0.058-0.176-0.176-0.295-0.237-0.471l-0.237-0.474c-0.352-0.589-0.65-1.239-1.063-1.771c-0.413-0.532-0.887-1.063-1.361-1.476
		c0.532,0.413,0.948,0.945,1.3,1.534c0.355,0.592,0.711,1.181,1.005,1.831c0.061,0.176,0.179,0.295,0.237,0.474
		c0.061,0.176,0.118,0.295,0.237,0.471c0.118,0.295,0.295,0.65,0.474,0.945c0.058,0.118,0.118,0.179,0.118,0.298
		c-0.298-0.474-0.532-0.948-0.829-1.361c-0.532-0.884-1.063-1.829-1.655-2.715c0.474,0.945,1.005,1.889,1.479,2.834
		c0.295,0.592,0.65,1.181,0.945,1.774c-0.352-0.592-0.708-1.124-1.124-1.713c-0.352-0.532-0.708-1.124-1.121-1.655
		c0.295,0.532,0.589,0.945,0.887,1.476c0.295,0.474,0.589,1.005,0.887,1.537c-0.534-0.887-1.124-1.655-1.716-2.421
		c0.413,0.65,0.829,1.358,1.242,2.065c-0.295-0.471-0.592-0.884-0.887-1.3c0.118,0.237,0.237,0.474,0.355,0.711
		c-0.416-0.532-0.829-1.063-1.124-1.655c-0.298-0.589-0.532-1.239-0.768-1.889c-0.298-0.65-0.592-1.358-0.948-2.065
		c0.237,0,0.474,0,0.768,0.058c0.237,0.061,0.532,0.118,0.768,0.237c0.65,0.237,1.242,0.65,1.774,1.181
		c0.592,0.532,1.066,1.181,1.421,1.889c-0.179-0.176-0.355-0.413-0.534-0.592c0.355,0.532,0.653,1.063,0.948,1.655
		c0,0.118,0.058,0.176,0.058,0.295c-0.352-0.589-0.65-1.239-1.124-1.771c0.534,0.768,0.829,1.713,1.242,2.597v0.061
		c-0.532-1.124-1.124-2.187-1.774-3.131c0.355,0.592,0.65,1.242,0.947,1.889c0.295,0.65,0.589,1.3,0.826,2.011
		c0,0.058,0,0.116,0,0.176C190.198,117.046,189.487,115.688,188.658,114.449z M188.776,126.319
		c-0.826-0.945-1.655-1.889-2.424-2.776c-1.005-1.181-2.129-2.302-3.31-3.308c1.181,1.063,2.187,2.245,3.134,3.484
		c0.708,0.948,1.418,1.831,2.187,2.776c-0.176-0.176-0.355-0.413-0.532-0.589c-0.179-0.179-0.355-0.355-0.532-0.592
		c-0.179-0.176-0.355-0.352-0.534-0.532c-0.176-0.176-0.352-0.352-0.532-0.532c-0.176-0.176-0.355-0.352-0.532-0.532
		c-0.176-0.176-0.355-0.352-0.532-0.532c-0.711-0.708-1.418-1.415-2.19-2.065c-0.768-0.592-1.655-1.121-2.542-1.476
		c0.887,0.355,1.716,0.945,2.484,1.595c0.768,0.65,1.418,1.415,2.129,2.126c0.176,0.176,0.355,0.352,0.532,0.589
		c0.176,0.179,0.355,0.413,0.474,0.592c0.176,0.176,0.355,0.413,0.532,0.589c0.176,0.176,0.355,0.355,0.532,0.592
		c0.118,0.116,0.237,0.234,0.298,0.352c-0.592-0.532-1.124-1.063-1.716-1.595c-1.124-1.063-2.247-2.065-3.371-3.189
		c1.066,1.181,2.129,2.305,3.195,3.426c0.708,0.708,1.358,1.358,2.068,2.126c-0.768-0.65-1.479-1.3-2.247-1.889
		c-0.768-0.65-1.479-1.242-2.187-1.831c0.592,0.589,1.181,1.121,1.831,1.713c0.592,0.532,1.184,1.121,1.834,1.771
		c-1.124-0.945-2.247-1.831-3.371-2.658c0.887,0.768,1.716,1.595,2.603,2.421c-0.592-0.532-1.184-1.002-1.834-1.476l0.416,0.413
		l0.413,0.416c-0.829-0.592-1.597-1.124-2.247-1.831c-0.711-0.711-1.242-1.595-1.834-2.421c-0.65-0.887-1.3-1.713-2.068-2.6
		c0.355-0.118,0.711-0.176,1.124-0.237c0.355,0,0.768-0.058,1.182,0c1.005,0.061,2.011,0.355,2.958,0.829
		c1.005,0.471,1.95,1.179,2.718,2.065l-0.471-0.295l-0.474-0.295c0.65,0.589,1.3,1.239,1.95,1.889
		c0.061,0.118,0.179,0.237,0.237,0.413c-0.355-0.355-0.708-0.708-1.063-1.063s-0.768-0.65-1.184-0.887
		c1.066,0.826,1.834,2.068,2.779,3.131c0,0.058,0,0.058,0.061,0.118c-1.181-1.361-2.366-2.539-3.666-3.663
		c0.708,0.708,1.418,1.476,2.068,2.245c0.355,0.413,0.65,0.826,1.005,1.181c0.298,0.413,0.65,0.826,0.948,1.239
		c0,0.061,0.058,0.179,0.058,0.237c-0.65-0.945-1.418-1.831-2.129-2.6c-0.768-0.826-1.537-1.595-2.363-2.302
		C186.058,122.422,187.537,124.25,188.776,126.319z M185.527,132.873c0.413,0.355,0.826,0.65,1.3,0.887
		c-0.237-0.061-0.413-0.179-0.65-0.295c-0.179-0.118-0.416-0.237-0.592-0.355s-0.355-0.295-0.532-0.474
		c-0.355-0.352-0.711-0.708-1.005-1.063c-0.295-0.352-0.65-0.766-0.948-1.121c0.298,0.355,0.592,0.768,0.887,1.181
		c0.298,0.413,0.592,0.768,0.948,1.121c0.176,0.179,0.355,0.355,0.532,0.474c0.179,0.118,0.413,0.295,0.592,0.413
		c0.058,0.058,0.118,0.058,0.176,0.118c-0.355-0.118-0.65-0.295-1.005-0.474c-0.65-0.413-1.181-1.002-1.595-1.713
		c0.413,0.711,0.945,1.361,1.595,1.831c0.416,0.295,0.829,0.532,1.242,0.65c-0.887-0.237-1.774-0.768-2.542-1.476
		c0.592,0.708,1.3,1.239,2.129,1.534c-0.711-0.234-1.361-0.647-1.953-1.121c0.474,0.474,1.005,0.826,1.54,1.121
		c-0.355-0.176-0.771-0.352-1.124-0.589c0.176,0.118,0.352,0.295,0.471,0.413c-0.471-0.237-0.945-0.589-1.358-1.002
		c-0.355-0.474-0.592-1.005-0.771-1.537c-0.176-0.589-0.295-1.121-0.413-1.713c0.355,0.179,0.65,0.355,0.947,0.532
		c0.355,0.237,0.768,0.474,1.124,0.768c0.352,0.295,0.708,0.532,1.063,0.887c-0.118-0.061-0.237-0.118-0.413-0.179
		c0.295,0.237,0.532,0.474,0.826,0.65c0.061,0.061,0.061,0.061,0.118,0.118c-0.355-0.176-0.65-0.413-1.005-0.65
		c0.416,0.355,0.829,0.768,1.303,1.063v0.061c-0.592-0.298-1.184-0.711-1.716-1.242c0.532,0.65,1.242,1.242,1.95,1.655l0.061,0.118
		c-0.829-0.416-1.597-1.005-2.247-1.713c0.65,0.826,1.418,1.476,2.247,2.008c-0.474-0.179-0.948-0.413-1.361-0.768
		c-0.532-0.413-1.005-1.005-1.418-1.595C184.521,131.81,184.992,132.402,185.527,132.873z M166.369,141.083
		c0.589-0.118,1.182-0.179,1.713-0.118c0.65,0.058,1.303,0.176,1.953,0.355c-1.716-0.118-3.429,0.471-4.79,1.534
		c1.418-0.768,3.074-0.945,4.553-0.589c-1.361,0.234-2.661,0.826-3.726,1.829c1.184-0.708,2.484-0.945,3.726-0.884
		c-1.066,0.413-2.011,1.063-2.721,1.889c1.005-0.708,2.129-1.063,3.253-1.124c-1.005,0.532-1.892,1.181-2.603,2.068
		c0.887-0.532,1.834-0.887,2.84-1.063c0,0,0,0.058-0.061,0.058c-0.887,0.355-1.713,0.887-2.424,1.479
		c0.474-0.179,0.948-0.237,1.418-0.298c-0.234,0.237-0.471,0.413-0.768,0.532c-1.537,0.887-3.429,0.118-4.553-1.415
		c-1.242-1.655-1.361-3.9-0.589-5.789c0.708-1.771,2.363-3.308,4.137-2.892c-0.176,0.058-0.413,0.116-0.589,0.176
		c-0.711,0.295-1.421,0.768-1.834,1.415c0.592-0.532,1.3-0.766,1.953-0.826c0.471-0.058,0.945,0,1.418,0.118
		c-0.829,0.176-1.597,0.532-2.187,1.124c1.182-0.65,2.6-0.592,3.666,0.058c-1.184-0.058-2.308,0.118-3.371,0.474
		c1.3-0.061,2.603,0.176,3.784,0.708c-0.829,0-1.655,0-2.424,0.176c-0.592,0.118-1.242,0.295-1.774,0.592
		c-0.592,0.295-1.066,0.65-1.54,1.063C165.245,141.378,165.776,141.202,166.369,141.083z M177.248,137.183
		c-0.65-1.592-1.361-3.129-1.892-4.723c0.413,1.713,1.124,3.365,1.655,5.078c-0.474-0.826-0.829-1.713-1.182-2.597
		c-0.416-1.124-0.768-2.305-1.066-3.484c0.179,1.179,0.474,2.36,0.887,3.542c0.298,0.887,0.65,1.713,1.005,2.6
		c-0.176-0.355-0.413-0.711-0.589-1.063c-0.179-0.355-0.355-0.711-0.534-1.063c-0.176-0.355-0.295-0.768-0.471-1.124
		c-0.298-0.768-0.534-1.534-0.711-2.363c-0.237-0.766-0.413-1.592-0.592-2.421c0.179,0.829,0.355,1.595,0.532,2.421
		c0.179,0.829,0.416,1.595,0.653,2.424c0.118,0.413,0.295,0.766,0.413,1.181c0.176,0.352,0.295,0.766,0.474,1.121
		c0.058,0.118,0.118,0.237,0.176,0.355c-0.295-0.532-0.65-1.063-0.887-1.655c-0.592-1.121-1.005-2.421-1.182-3.721
		c0.118,1.358,0.532,2.658,1.063,3.839c0.355,0.768,0.711,1.418,1.066,2.126c-0.887-1.3-1.716-2.715-2.308-4.371
		c0.416,1.476,1.066,2.776,1.716,3.958c-0.65-1.005-1.3-2.068-1.834-3.308c0.355,1.005,0.829,1.95,1.303,2.834
		c-0.355-0.589-0.653-1.179-1.005-1.771c0.118,0.355,0.237,0.65,0.352,0.945c-0.471-0.708-0.887-1.534-1.121-2.479
		c-0.237-0.948-0.237-1.892-0.118-2.837c0.118-0.945,0.295-1.889,0.65-2.715c0.295,0.532,0.589,1.121,0.887,1.652
		c0.355,0.65,0.708,1.3,1.063,1.95c0.355,0.708,0.711,1.418,1.005,2.184l-0.413-0.65l0.768,1.774c0,0.118,0.061,0.237,0.061,0.295
		c-0.355-0.65-0.592-1.358-1.005-1.95c0.413,0.887,0.65,1.892,1.121,2.895v0.061c-0.589-1.182-1.121-2.363-1.537-3.544
		c0.355,1.418,0.948,2.834,1.537,4.31C177.248,137.068,177.248,137.126,177.248,137.183z M180.558,143.622
		c-0.176,0.826-0.413,1.652-0.768,2.421c-0.355,0.708-0.887,1.3-1.418,1.831s-1.124,1.063-1.716,1.595
		c-0.058-0.65-0.058-1.3,0-1.889c0.061-0.829,0.179-1.595,0.355-2.363c0.176-0.826,0.413-1.595,0.768-2.305l-0.118,0.829
		c0.237-0.592,0.413-1.181,0.65-1.774c0.061-0.058,0.118-0.176,0.179-0.234c-0.237,0.708-0.474,1.358-0.65,2.065
		c0.176-0.471,0.352-0.887,0.532-1.358c0.237-0.413,0.413-0.887,0.65-1.418l0.058-0.058c-0.532,1.239-0.887,2.363-1.358,3.542
		c0.295-0.647,0.589-1.297,0.887-1.947c0.295-0.65,0.589-1.358,1.005-2.068c0.058-0.058,0.118-0.058,0.118-0.118
		c-0.829,1.537-1.303,3.013-1.953,4.489c0.355-0.708,0.711-1.476,1.066-2.245c0.352-0.766,0.768-1.534,1.239-2.245
		c-0.413,0.887-0.708,1.713-1.063,2.539c-0.413,1.063-0.948,2.068-1.418,3.074c0.532-1.005,1.063-1.95,1.595-3.013
		c0.355-0.768,0.711-1.537,1.124-2.363c-0.176,0.355-0.295,0.711-0.413,1.063c-0.118,0.355-0.295,0.711-0.413,1.063
		c-0.118,0.355-0.298,0.708-0.416,1.063c-0.295,0.708-0.589,1.358-0.945,2.068c-0.295,0.708-0.592,1.415-0.829,2.126
		c0.237-0.711,0.592-1.418,0.887-2.068c0.355-0.65,0.711-1.358,1.005-2.008c0.179-0.355,0.298-0.708,0.474-1.063
		c0.118-0.355,0.295-0.708,0.413-1.063c0.061-0.118,0.118-0.237,0.118-0.295c-0.176,0.589-0.352,1.121-0.532,1.713
		c-0.355,1.181-0.826,2.302-1.479,3.308c0.653-0.948,1.184-2.068,1.597-3.189c0.295-0.711,0.474-1.418,0.768-2.068
		c-0.237,0.708-0.355,1.476-0.589,2.184c-0.179,0.768-0.474,1.537-0.771,2.245c0.592-1.181,1.005-2.539,1.421-3.721
		c-0.179,0.592-0.298,1.181-0.416,1.655c-0.118,0.589-0.295,1.181-0.471,1.713c0.352-0.887,0.65-1.892,0.945-2.718
		c-0.176,0.592-0.355,1.242-0.474,1.889C180.321,144.212,180.44,143.917,180.558,143.622z M183.219,137.599
		c-0.295-0.532-0.589-1.124-0.887-1.655c-0.355-0.708-0.708-1.415-1.124-2.126c0.355,0.711,0.711,1.476,1.005,2.187
		c0.237,0.532,0.474,1.121,0.768,1.652c-0.118-0.237-0.295-0.474-0.413-0.708c-0.118-0.237-0.237-0.474-0.413-0.65
		c-0.118-0.237-0.237-0.474-0.355-0.708c-0.237-0.474-0.474-0.947-0.768-1.361c-0.295-0.471-0.592-0.884-0.947-1.239
		c0.355,0.355,0.653,0.826,0.887,1.239c0.237,0.474,0.474,0.945,0.711,1.418c0.118,0.237,0.237,0.474,0.355,0.708
		c0.118,0.237,0.237,0.474,0.355,0.711c0.058,0.058,0.058,0.116,0.118,0.234c-0.237-0.352-0.474-0.65-0.653-1.002
		c-0.413-0.708-0.826-1.418-1.182-2.126c0.295,0.768,0.711,1.534,1.066,2.245c0.234,0.471,0.532,0.884,0.768,1.297
		c-0.592-0.826-1.184-1.652-1.716-2.539c0.413,0.768,0.887,1.537,1.361,2.305c-0.532-0.768-1.005-1.358-1.361-1.889
		c0.295,0.471,0.592,1.002,1.005,1.652c-0.237-0.355-0.474-0.708-0.711-1.005c0.118,0.179,0.179,0.355,0.298,0.532
		c-0.355-0.413-0.65-0.826-0.887-1.297c-0.237-0.474-0.355-1.005-0.534-1.537c-0.176-0.532-0.295-1.121-0.471-1.652
		c0.355,0.058,0.708,0.234,1.063,0.471c0.413,0.295,0.829,0.592,1.184,1.005c0.352,0.413,0.708,0.884,1.005,1.415
		c-0.118-0.116-0.237-0.295-0.355-0.413c0.237,0.355,0.471,0.768,0.65,1.181c0,0.061,0.058,0.118,0.058,0.237
		c-0.237-0.413-0.471-0.887-0.826-1.239c0.355,0.589,0.589,1.239,0.945,1.889v0.058c-0.413-0.766-0.826-1.534-1.3-2.302
		c0.474,0.945,0.887,1.831,1.3,2.834c0,0.061,0,0.061,0,0.118c-0.471-1.063-1.005-2.008-1.595-3.01
		C182.332,135.413,182.805,136.536,183.219,137.599z M150.402,173.977c-0.768,1.063-1.597,2.008-2.542,2.773
		c0.826-0.589,1.597-1.239,2.305-2.008c-0.474,0.532-0.887,1.063-1.418,1.537c0.295-0.176,0.532-0.413,0.826-0.589
		c-0.589,0.708-1.239,1.358-2.011,1.771c-0.768,0.413-1.595,0.532-2.363,0.532c-0.829,0.058-1.597,0-2.424-0.061
		c0.352-0.589,0.708-1.063,1.121-1.534c0.534-0.592,1.005-1.181,1.54-1.713c0.532-0.532,1.124-1.063,1.774-1.476
		c-0.179,0.176-0.355,0.413-0.474,0.589c0.413-0.295,0.768-0.589,1.124-0.945c0.058,0,0.118,0,0.176-0.058
		c-0.413,0.352-0.826,0.768-1.181,1.182c0.532-0.474,1.124-0.829,1.655-1.242c0.058,0,0.118,0,0.118,0
		c-0.711,0.711-1.418,1.361-2.247,1.831c0.948-0.532,1.892-1.181,2.779-1.95c0.061,0,0.118,0,0.179-0.058
		c-0.948,0.945-1.953,1.771-3.016,2.421c1.3-0.708,2.542-1.534,3.666-2.597c0.058,0,0.058,0,0.118,0
		c-0.474,0.65-1.066,1.239-1.716,1.713c-0.887,0.708-1.892,1.239-2.837,1.71c1.005-0.413,2.008-0.884,2.955-1.534
		c0.711-0.474,1.361-1.063,1.95-1.713c-0.234,0.295-0.471,0.65-0.768,0.945c-0.234,0.295-0.532,0.592-0.826,0.826
		c-0.298,0.237-0.592,0.474-0.887,0.711c-0.592,0.413-1.242,0.826-1.953,1.182c-0.65,0.352-1.3,0.766-1.95,1.179
		c0.65-0.413,1.3-0.766,1.95-1.063c0.65-0.352,1.361-0.708,1.953-1.121c0.295-0.237,0.65-0.413,0.945-0.708
		c0.298-0.237,0.592-0.532,0.887-0.829c0.061-0.116,0.179-0.176,0.237-0.295c-0.355,0.532-0.768,1.005-1.242,1.418
		c-0.887,0.887-1.95,1.534-3.074,1.947c1.124-0.352,2.187-0.945,3.134-1.771c0.592-0.532,1.124-1.121,1.595-1.771
		c-0.887,1.418-2.008,2.658-3.368,3.542C148.453,176.043,149.516,175.098,150.402,173.977z M155.666,168.07
		c0.532,0.179,1.124,0.298,1.713,0.298c-0.237,0-0.532,0-0.768,0s-0.532-0.061-0.768-0.061c-0.237-0.058-0.532-0.058-0.768-0.118
		c-0.474-0.118-1.005-0.237-1.537-0.352c-0.532-0.118-1.005-0.179-1.537-0.118c0.532,0,1.005,0.058,1.537,0.176
		c0.474,0.118,1.005,0.295,1.479,0.413c0.234,0.061,0.532,0.118,0.768,0.176c0.237,0.061,0.532,0.061,0.768,0.118
		c0.058,0,0.176,0,0.237,0c-0.416,0-0.829,0-1.184-0.058c-0.826-0.061-1.595-0.237-2.363-0.532c0.768,0.295,1.537,0.532,2.363,0.708
		c0.532,0.061,1.005,0.118,1.537,0.118c-1.063,0.118-2.068,0.061-3.131-0.118c0.826,0.237,1.713,0.355,2.6,0.355
		c-0.768,0.058-1.537,0-2.247-0.061c0.592,0.118,1.242,0.179,1.834,0.237c-0.413,0-0.768,0-1.181,0l0.65,0.118
		c-0.532,0-1.124,0-1.655-0.176c-0.534-0.179-1.005-0.474-1.421-0.768c-0.471-0.295-0.945-0.589-1.476-0.887
		c0.352-0.295,0.708-0.471,1.124-0.65c0.532-0.176,1.063-0.295,1.595-0.352c0.532-0.061,1.124,0,1.655,0.118l-0.532,0.058
		l1.242,0.237c0.058,0,0.118,0.058,0.176,0.118c-0.471-0.061-0.945-0.118-1.418-0.118c0.65,0.058,1.242,0.355,1.892,0.413h0.061
		c-0.829-0.058-1.597-0.176-2.427-0.355c0.948,0.298,1.892,0.532,2.84,0.65l0.118,0.061c-1.066-0.118-2.129-0.355-3.192-0.592
		c1.121,0.295,2.187,0.65,3.31,0.887c-0.592,0-1.184-0.061-1.774-0.237c-0.768-0.176-1.479-0.413-2.247-0.589
		C154.187,167.538,154.897,167.836,155.666,168.07z M160.039,170.727c0.061,1.181-0.176,2.481-0.589,3.602
		c0.413-0.945,0.65-1.947,0.768-2.952c-0.061,0.65-0.118,1.358-0.295,2.068c0.116-0.298,0.234-0.65,0.295-1.005
		c-0.118,0.887-0.355,1.771-0.768,2.539c-0.416,0.711-1.066,1.239-1.655,1.595c-0.653,0.355-1.303,0.65-1.953,0.768
		c0.179-0.532,0.355-1.063,0.532-1.595c0.237-0.65,0.416-1.239,0.592-1.889c0.176-0.65,0.413-1.242,0.65-1.831
		c0,0.237-0.058,0.413-0.058,0.65c0.176-0.474,0.295-0.945,0.413-1.418c0.061-0.058,0.061-0.118,0.118-0.237
		c-0.058,0.592-0.237,1.124-0.295,1.713c0.237-0.766,0.532-1.476,0.65-2.302v-0.058c-0.061,0.532-0.118,1.063-0.237,1.534
		c-0.118,0.474-0.295,1.005-0.532,1.418c0.295-0.532,0.532-1.063,0.708-1.655c0.179-0.589,0.298-1.181,0.355-1.889
		c0-0.058,0.061-0.058,0.061-0.118c-0.118,0.768-0.179,1.476-0.355,2.126c-0.179,0.65-0.413,1.3-0.711,1.95
		c0.355-0.592,0.65-1.239,0.887-1.95c0.237-0.708,0.355-1.415,0.474-2.245c0,0.887-0.061,1.713-0.295,2.481
		c-0.298,1.005-0.768,1.889-1.361,2.658c0.592-0.768,1.124-1.595,1.479-2.6c0.234-0.766,0.413-1.534,0.413-2.36
		c0,0.352,0,0.708-0.061,1.121c0,0.355-0.058,0.708-0.118,1.063c-0.058,0.355-0.176,0.708-0.295,1.005
		c-0.237,0.65-0.592,1.297-0.945,1.889c-0.355,0.589-0.771,1.121-1.124,1.713c0.413-0.532,0.826-1.063,1.181-1.655
		c0.355-0.589,0.768-1.182,1.005-1.829c0.118-0.355,0.237-0.711,0.355-1.063c0.058-0.355,0.118-0.711,0.176-1.124
		c0-0.118,0-0.237,0.061-0.352c0,0.589-0.061,1.179-0.179,1.771c-0.237,1.182-0.768,2.245-1.476,3.071
		c0.768-0.768,1.358-1.831,1.595-3.013c0.179-0.768,0.237-1.476,0.237-2.245c0.061,0.711,0.061,1.537-0.058,2.305
		c-0.118,0.766-0.355,1.534-0.711,2.245c0.355-0.592,0.592-1.242,0.768-1.892C159.924,172.085,160.039,171.377,160.039,170.727z
		 M160.926,165.06c0.474,0.234,0.948,0.471,1.421,0.65c-0.237-0.061-0.416-0.118-0.65-0.179c-0.237-0.058-0.416-0.118-0.653-0.237
		c-0.234-0.058-0.413-0.176-0.65-0.295c-0.413-0.176-0.826-0.413-1.242-0.65c-0.413-0.234-0.826-0.413-1.3-0.532
		c0.413,0.118,0.829,0.355,1.242,0.592c0.413,0.237,0.829,0.471,1.242,0.708c0.176,0.118,0.413,0.237,0.65,0.295
		c0.237,0.118,0.413,0.179,0.65,0.237c0.061,0,0.118,0.061,0.179,0.061c-0.355-0.061-0.711-0.179-1.005-0.298
		c-0.653-0.234-1.361-0.589-1.953-1.002c0.592,0.471,1.242,0.826,1.892,1.121c0.413,0.179,0.829,0.295,1.3,0.413
		c-0.887-0.118-1.774-0.413-2.661-0.766c0.711,0.413,1.479,0.708,2.247,0.884c-0.711-0.118-1.361-0.295-2.011-0.532
		c0.532,0.237,1.066,0.474,1.597,0.65c-0.355-0.118-0.768-0.176-1.124-0.295l0.532,0.237c-0.474-0.118-0.945-0.237-1.418-0.474
		c-0.413-0.237-0.768-0.65-1.124-1.002c-0.355-0.413-0.711-0.829-1.063-1.242c0.352-0.118,0.708-0.118,1.063-0.118
		c0.474,0,0.887,0.061,1.361,0.118c0.474,0.118,0.945,0.237,1.361,0.474l-0.474-0.061l1.005,0.474
		c0.058,0.058,0.118,0.058,0.118,0.118c-0.416-0.118-0.768-0.295-1.184-0.413c0.534,0.176,1.005,0.532,1.597,0.768v0.058
		c-0.711-0.237-1.361-0.532-2.068-0.826c0.768,0.471,1.537,0.826,2.363,1.181c0,0.058,0.061,0.058,0.061,0.116
		c-0.887-0.352-1.774-0.766-2.661-1.179c0.887,0.532,1.774,1.002,2.661,1.476c-0.532-0.118-1.005-0.355-1.479-0.592
		c-0.592-0.295-1.242-0.65-1.831-1.002C159.687,164.291,160.276,164.704,160.926,165.06z M167.137,166.004
		c0.237,1.415,0.118,2.952-0.298,4.371c0.416-1.181,0.653-2.539,0.592-3.839c0.061,1.121,0,2.302-0.176,3.426
		c0.237-0.887,0.352-1.831,0.413-2.837c0,0.65,0,1.3-0.118,1.889c0.058-0.295,0.118-0.589,0.176-0.945
		c0,0.829-0.118,1.655-0.413,2.424c-0.295,0.766-0.768,1.358-1.242,1.829c-0.471,0.532-1.063,0.945-1.595,1.358
		c0-0.589,0.058-1.121,0.118-1.652c0.058-0.65,0.116-1.358,0.234-2.008s0.179-1.3,0.355-1.95c0,0.237,0,0.474,0,0.65
		c0.118-0.471,0.179-1.002,0.298-1.534c0-0.061,0.058-0.179,0.058-0.237c-0.058,0.589-0.118,1.181-0.176,1.771
		c0.118-0.826,0.413-1.534,0.413-2.421v-0.058c0,1.063-0.176,2.065-0.474,3.071c0.413-1.124,0.711-2.363,0.711-3.602
		c0-0.061,0.058-0.061,0.058-0.118c-0.058,1.358-0.237,2.776-0.65,4.073c0.532-1.297,0.829-2.776,0.948-4.252
		c0.058,0.768,0,1.595-0.118,2.363c-0.179,1.005-0.534,1.95-0.887,2.834c0.413-0.884,0.826-1.771,1.063-2.773
		c0.179-0.768,0.295-1.537,0.237-2.305c0,0.355,0.058,0.711,0.058,1.063c0,0.355,0,0.711-0.058,1.063
		c-0.058,0.355-0.118,0.711-0.176,1.005c-0.179,0.65-0.355,1.3-0.592,1.947c-0.237,0.65-0.474,1.242-0.711,1.892
		c0.237-0.65,0.532-1.242,0.768-1.892c0.237-0.647,0.474-1.239,0.711-1.947c0.118-0.355,0.176-0.711,0.237-1.005
		c0.058-0.352,0.118-0.708,0.118-1.063c0-0.118,0-0.237,0-0.352c0.058,0.532,0.058,1.121,0,1.652
		c-0.118,1.121-0.413,2.245-0.947,3.129c0.534-0.884,0.947-2.008,1.124-3.129C167.137,167.42,167.137,166.712,167.137,166.004z
		 M167.608,159.802c0.829,0,1.716,0,2.484-0.237c-0.355,0.118-0.708,0.237-1.063,0.298c-0.355,0.058-0.711,0.118-1.124,0.176
		c-0.355,0.058-0.711,0.058-1.124,0.058c-0.768,0.061-1.479,0.061-2.247,0.118c-0.768,0.061-1.479,0.237-2.187,0.532
		c0.708-0.295,1.418-0.413,2.187-0.471c0.768-0.061,1.479,0,2.247,0c0.355,0,0.768,0,1.124-0.061c0.355,0,0.768-0.058,1.124-0.118
		c0.118,0,0.237-0.058,0.355-0.058c-0.592,0.176-1.124,0.355-1.716,0.413c-1.182,0.176-2.305,0.237-3.49,0.176
		c1.184,0.118,2.308,0.179,3.49,0c0.711-0.058,1.479-0.234,2.187-0.471c-1.418,0.65-2.955,0.887-4.434,1.063
		c1.242-0.061,2.603-0.176,3.903-0.532c-1.124,0.413-2.247,0.65-3.371,0.887c0.887-0.061,1.834-0.179,2.779-0.416
		c-0.65,0.179-1.239,0.355-1.831,0.474l0.945-0.058c-0.768,0.234-1.595,0.413-2.305,0.413c-0.768,0-1.479-0.237-2.187-0.413
		c-0.768-0.179-1.537-0.355-2.366-0.416c0.355-0.589,0.829-1.121,1.361-1.534c0.65-0.532,1.418-0.945,2.187-1.239
		c0.768-0.298,1.597-0.474,2.424-0.474l-0.768,0.237c0.592-0.061,1.242-0.118,1.834-0.176c0.118,0,0.176,0.058,0.295,0.058
		c-0.65,0.118-1.361,0.176-2.011,0.413c0.947-0.176,1.892,0,2.84-0.176h0.058c-1.124,0.237-2.366,0.352-3.547,0.471
		c1.418,0,2.84,0,4.197-0.176c0.061,0,0.118,0.058,0.179,0.058c-1.479,0.237-3.016,0.298-4.613,0.474
		c1.655,0,3.311,0.058,4.908-0.118c-0.829,0.295-1.716,0.413-2.542,0.413c-1.124,0.061-2.247,0-3.371,0.118
		C165.363,159.626,166.487,159.744,167.608,159.802z M177.84,158.858c-0.118,1.063-0.355,2.068-0.711,2.895
		c-0.355,0.826-0.829,1.534-1.3,2.245c-0.474,0.766-0.947,1.534-1.361,2.421c-0.355-0.65-0.532-1.418-0.65-2.184
		c-0.118-1.005-0.118-2.011,0-3.013c0.118-1.005,0.355-2.008,0.708-2.895l-0.118,0.945c0.179-0.589,0.355-1.121,0.474-1.652
		c0.061-0.061,0.118-0.118,0.179-0.176c-0.118,0.589-0.298,1.239-0.416,1.889c0.179-0.826,0.532-1.537,0.768-2.245
		c0.061-0.061,0.061-0.061,0.118-0.118c-0.237,1.063-0.589,2.184-0.945,3.308c0.532-1.239,1.005-2.481,1.3-3.721
		c0.061-0.061,0.118-0.118,0.118-0.176c-0.295,1.415-0.826,2.834-1.3,4.368c0.65-1.652,1.361-3.189,1.713-4.784
		c0.061-0.058,0.061-0.116,0.118-0.116c-0.058,0.826-0.237,1.71-0.532,2.539c-0.413,1.239-1.005,2.479-1.418,3.836
		c0.474-1.297,1.124-2.479,1.595-3.718c0.355-0.948,0.653-1.95,0.711-2.955c0,0.474-0.058,0.887-0.118,1.361
		c-0.058,0.471-0.176,0.884-0.237,1.358c-0.118,0.413-0.237,0.884-0.413,1.297c-0.295,0.829-0.65,1.655-0.887,2.542
		c-0.295,0.884-0.474,1.771-0.532,2.715c0.058-0.945,0.295-1.831,0.589-2.658c0.298-0.826,0.653-1.652,1.005-2.481
		c0.179-0.413,0.298-0.826,0.474-1.297c0.118-0.474,0.237-0.887,0.298-1.361c0-0.116,0.058-0.295,0.058-0.413
		c-0.058,0.768-0.118,1.476-0.295,2.187c-0.355,1.415-0.829,2.715-1.421,4.015c0.592-1.239,1.184-2.481,1.597-3.958
		c0.237-0.884,0.413-1.831,0.474-2.776c0.058,1.005-0.061,1.95-0.237,2.895c-0.176,0.945-0.474,1.831-0.711,2.658
		c0.534-1.418,1.066-3.013,1.242-4.784c-0.058,1.537-0.413,3.013-0.708,4.371c0.352-1.063,0.708-2.187,0.887-3.484
		c-0.118,0.826-0.237,1.652-0.416,2.421C177.603,159.626,177.721,159.213,177.84,158.858z M181.15,174.627
		c-0.711-0.118-1.361-0.65-1.892-1.361c-1.124-1.534-1.716-3.602-1.774-5.549c-0.061-1.242,0.176-2.481,0.474-3.602
		c0,0.295-0.061,0.589-0.061,0.884c-0.058,0.826-0.058,1.595,0.061,2.421c0.058,0.829,0.234,1.655,0.532,2.363
		c0.295,0.768,0.708,1.476,1.181,2.008c-0.474-0.589-0.826-1.297-1.063-2.065s-0.355-1.537-0.416-2.363
		c-0.058-0.768,0-1.476,0.061-2.184c0,0.295,0.058,0.532,0.058,0.826c0.179,1.121,0.474,2.184,1.005,3.128
		c0.474,0.945,1.184,1.774,1.953,2.363c-0.768-0.65-1.361-1.476-1.834-2.481c-0.471-0.945-0.768-2.008-0.826-3.071
		c-0.061-0.708-0.061-1.476,0.058-2.184c0,0.532,0,1.063,0.061,1.595c0.118,0.887,0.413,1.713,0.826,2.421
		c0.413,0.708,1.005,1.3,1.597,1.713c-1.242-0.887-2.071-2.539-2.187-4.134c-0.061-0.826,0.058-1.652,0.176-2.421
		c0-0.061,0-0.118,0-0.179c0,0.711,0.118,1.479,0.295,2.187c0.237,1.002,0.711,1.947,1.303,2.715c0.532,0.65,1.239,1.124,1.95,1.242
		c0.532,0.116,1.005,0.116,1.479-0.061c0.295,0.826-0.118,1.652-0.416,2.363c-0.176,0.413-0.413,0.826-0.532,1.3
		c-0.118,0.413-0.237,0.826-0.413,1.179C182.45,174.448,181.8,174.743,181.15,174.627z M184.461,174.33
		c-0.295,0.298-0.65,0.532-1.063,0.65c-0.298,0.118-0.65,0.237-1.005,0.179c0.176-0.118,0.355-0.237,0.532-0.416
		c0.295-0.352,0.532-0.884,0.65-1.415c0-0.061,0-0.061,0.061-0.118c0.413,0.237,0.768,0.471,1.182,0.589
		C184.755,174.035,184.64,174.211,184.461,174.33z M183.869,172.559c0.061-0.237,0.179-0.474,0.298-0.708
		c0.355-0.768,0.768-1.655,0.65-2.6c0.532,0.355,1.124,0.355,1.655,0.179c0.413-0.118,0.768-0.355,1.124-0.532
		c0.413-0.179,0.768-0.416,1.182-0.592c0,0,0.061,0,0.061-0.058c0.058,0.532,0.118,1.063,0,1.595
		c-0.061,0.295-0.179,0.532-0.355,0.708c-0.176,0.176-0.413,0.295-0.65,0.413c-0.532,0.176-1.066,0.295-1.418,0.768
		c-0.179,0.237-0.298,0.532-0.416,0.826c-0.118,0.237-0.295,0.413-0.532,0.532C184.992,173.267,184.403,172.914,183.869,172.559z
		 M186.708,173.917c-0.413,0.179-0.829,0.295-1.242,0.295c0.061-0.116,0.061-0.176,0.118-0.295c0.237-0.058,0.532-0.176,0.711-0.352
		c0.237-0.237,0.352-0.592,0.471-0.887c0.298-0.65,0.829-0.708,1.361-0.887c0.592-0.176,1.066-0.589,1.303-1.3
		c0.058-0.116,0.058-0.295,0.116-0.413c0.061,0.061,0.118,0.061,0.179,0c0.176-0.116,0.295-0.176,0.474-0.234
		C189.961,172.027,188.245,173.267,186.708,173.917z M190.729,166.712c0.237-0.589,0.295-1.358,0.237-2.065
		c0.413,0.708,0.65,1.534,0.589,2.36c0,0.532-0.176,1.124-0.532,1.476c-0.413,0.416-0.945,0.474-1.418,0.711
		c0-0.413-0.061-0.826-0.118-1.182c0.176-0.118,0.355-0.176,0.474-0.295C190.316,167.48,190.55,167.125,190.729,166.712z
		 M186.945,161.928c-0.532-0.768-1.184-1.415-1.834-2.008c-0.058-0.058-0.176-0.176-0.237-0.237
		c-0.058-0.058-0.176-0.118-0.234-0.234c-0.118-0.061-0.179-0.118-0.298-0.179l-0.118-0.118l-0.118-0.058
		c-0.237-0.118-0.532-0.237-0.826-0.355c0.532,0.061,1.124,0.118,1.655,0.355c1.124,0.413,2.247,1.063,3.253,1.95
		c-1.005-0.948-2.071-1.713-3.253-2.245c-0.592-0.237-1.182-0.413-1.774-0.532c-0.179,0-0.355-0.061-0.532-0.061
		c0.234-0.058,0.471-0.118,0.708-0.176c0.65-0.118,1.242-0.118,1.892,0.118c0.65,0.176,1.303,0.589,1.892,1.063
		c1.242,0.945,2.366,2.363,2.897,4.073c0.237,0.768,0.355,1.595,0.237,2.424c-0.058,0.352-0.118,0.647-0.295,0.884
		c-0.179,0.295-0.474,0.474-0.768,0.65c-0.829,0.413-1.597,0.826-2.427,1.182c-0.589,0.295-1.3,0.474-1.892-0.058
		c0.474-0.474,0.829-1.242,0.948-2.011c0.355-1.771-0.061-3.955-1.181-5.431c0.058,0.058,0.116,0.118,0.116,0.118
		c0.534,0.532,1.005,1.239,1.421,1.947c0.413,0.711,0.768,1.476,1.124,2.245c-0.298-0.768-0.653-1.595-1.005-2.302
		c-0.355-0.768-0.829-1.476-1.361-2.068c-0.532-0.589-1.182-1.121-1.834-1.415c-0.176-0.061-0.352-0.118-0.589-0.237
		c-0.061,0-0.061-0.061-0.118-0.061c0.118,0,0.237,0,0.355,0.061c0.352,0.058,0.708,0.118,1.063,0.295l0.118,0.061l0.118,0.058
		c0.058,0.058,0.176,0.118,0.237,0.176c0.176,0.118,0.355,0.237,0.532,0.355c0.65,0.532,1.3,1.121,1.892,1.831
		c0.592,0.708,1.063,1.534,1.479,2.421C187.95,163.523,187.477,162.697,186.945,161.928z M179.966,160.865
		C179.966,160.865,179.966,160.807,179.966,160.865c0.416,1.774,1.184,3.484,2.247,4.844c-1.005-1.655-1.655-3.544-1.892-5.434
		c0.179,0.413,0.298,0.884,0.474,1.3c0.237,0.589,0.532,1.121,0.829,1.652c0.295,0.532,0.589,1.063,0.887,1.595l0.945,1.534
		l-0.826-1.652c-0.298-0.532-0.534-1.121-0.829-1.652c-0.237-0.532-0.474-1.124-0.711-1.713c-0.118-0.413-0.234-0.768-0.352-1.182
		c1.121,1.534,2.187,3.247,3.131,5.021c-0.826-1.892-1.774-3.721-2.837-5.434c0.118,0,0.176,0,0.295,0c0,0,0,0,0.061,0.058
		l0.176,0.179c0.118,0.116,0.237,0.234,0.355,0.413c0.237,0.295,0.413,0.532,0.65,0.826c0.413,0.589,0.768,1.181,1.124,1.831
		c-0.295-0.711-0.592-1.361-0.945-2.008c-0.179-0.355-0.355-0.65-0.534-0.948c-0.058-0.058-0.118-0.176-0.176-0.234
		c0.118,0.058,0.237,0.058,0.355,0.118c0.65,0.647,1.242,1.476,1.713,2.421c-0.176-0.65-0.471-1.358-0.826-1.95
		c0.237,0.176,0.471,0.355,0.65,0.592c1.005,1.121,1.537,2.834,1.418,4.428c-0.058,0.826-0.295,1.713-0.768,2.245
		c-0.413,0.471-0.945,0.65-1.537,0.589c-0.592-0.058-1.184-0.295-1.655-0.768c-0.592-0.532-1.005-1.297-1.303-2.126
		c-0.234-0.647-0.352-1.358-0.413-2.065c0.179,0.355,0.355,0.708,0.532,1.063c-0.176-0.708-0.352-1.476-0.471-2.245v-0.058
		c0.295,1.239,0.826,2.479,1.476,3.542C180.5,164.115,180.084,162.46,179.966,160.865z M185.348,151.121
		c-1.3,0.176-2.6,0.295-3.903,0.474c0.592-0.118,1.124-0.237,1.716-0.413c0.592-0.118,1.124-0.298,1.655-0.416
		c0.532-0.116,1.124-0.295,1.655-0.413c1.124-0.295,2.247-0.589,3.311-1.121c1.066-0.532,2.071-1.239,2.897-2.184
		c-0.826,0.884-1.892,1.534-2.955,2.008c-1.066,0.471-2.187,0.708-3.31,0.945c-0.534,0.118-1.124,0.234-1.658,0.295
		c-0.532,0.118-1.121,0.237-1.655,0.355c-0.176,0.058-0.352,0.058-0.532,0.116c0.887-0.295,1.716-0.532,2.542-0.826
		c1.716-0.532,3.313-1.063,5.026-1.652c-1.713,0.471-3.371,0.884-5.084,1.358c-1.066,0.237-2.129,0.532-3.253,0.826
		c2.187-0.826,4.258-1.595,6.269-2.479c-1.774,0.589-3.608,1.121-5.5,1.652c1.655-0.589,3.192-1.239,4.671-1.95
		c-1.242,0.474-2.542,0.887-3.842,1.242c0.887-0.298,1.713-0.65,2.542-1.063c-0.413,0.118-0.829,0.176-1.3,0.295
		c1.063-0.532,2.068-1.005,3.074-1.3c1.005-0.295,2.068-0.295,3.192-0.471c1.124-0.179,2.308-0.474,3.49-1.063
		c-0.118,1.121-0.532,2.184-1.124,3.189c-0.711,1.239-1.655,2.36-2.721,3.247c-1.121,0.887-2.424,1.537-3.784,1.831
		c0.416-0.237,0.829-0.474,1.184-0.711c-1.005,0.355-2.011,0.65-3.016,0.829c-0.179,0-0.355,0-0.474-0.061
		c1.124-0.295,2.247-0.589,3.31-1.182c-1.476,0.65-3.074,0.65-4.671,0.887l-0.118-0.058c1.953-0.355,3.845-0.887,5.737-1.595
		c-2.305,0.647-4.553,1.002-6.861,1.179c-0.058-0.058-0.176-0.058-0.234-0.116c2.481-0.237,4.966-0.711,7.389-1.713
		c-2.6,0.826-5.203,1.121-7.745,1.121c1.361-0.295,2.718-0.532,4.079-0.768c1.716-0.352,3.49-0.766,5.145-1.534
		C188.837,150.59,187.063,150.885,185.348,151.121z M204.211,136.239c0.058,0.298,0,0.65,0,0.945
		c-0.061,0.65-0.179,1.361-0.061,2.011c0.061,0.352,0.179,0.589,0.237,0.884c0.061,0.295,0.118,0.532,0.118,0.826
		c-0.058,0.711-0.413,1.182-0.711,1.595c-0.058-0.234-0.176-0.471-0.234-0.708c-0.237-0.826-0.534-1.771-1.005-2.126
		c0.295-0.413,0.471-1.121,0.532-1.771c0.058-0.532,0.058-1.063,0.058-1.595s0.061-1.124,0.061-1.655v-0.058
		c0.237,0.237,0.532,0.474,0.708,0.826C204.093,135.707,204.211,135.944,204.211,136.239z M203.443,131.042
		c0.237,0.298,0.471,0.768,0.532,1.361c0.058,0.647-0.061,1.297-0.061,2.008c-0.176-0.237-0.352-0.355-0.589-0.532
		c0-0.237,0-0.474,0-0.711c0-0.471-0.118-0.884-0.237-1.297c-0.179-0.592-0.532-1.063-0.887-1.361
		C202.674,130.334,203.087,130.571,203.443,131.042z M196.998,136.418c0.058-0.295,0.058-0.592,0.116-0.887
		c0.118-0.768,0.298-1.476,0.592-2.065c0.298-0.65,0.65-1.124,1.005-1.595c0.768-0.945,1.716-1.418,2.661-1.063
		c0.416,0.118,0.829,0.471,1.184,1.002c0.118,0.237,0.237,0.474,0.295,0.826c0.118,0.413,0.058,0.829,0.058,1.242
		c-0.058,1.121-0.058,2.245-0.116,3.365c-0.061,0.768-0.118,1.713-0.534,2.065c-0.058-0.826-0.355-1.595-0.65-2.126
		c-0.708-1.358-1.774-2.008-2.779-1.592c0.061,0,0.061-0.061,0.118-0.061c0.413-0.295,0.829-0.471,1.242-0.532
		c0.413-0.058,0.887-0.058,1.3-0.058c-0.413-0.061-0.887-0.118-1.3-0.118c-0.413,0-0.887,0.118-1.3,0.413
		c-0.416,0.295-0.829,0.708-1.124,1.3c-0.118,0.176-0.179,0.352-0.237,0.532c0,0.058-0.061,0.058-0.061,0.116
		c0.061-0.116,0.061-0.234,0.118-0.413c0.118-0.413,0.298-0.766,0.474-1.063l0.058-0.116l0.061-0.118
		c0.058-0.061,0.118-0.118,0.118-0.179c0.118-0.118,0.176-0.234,0.295-0.352c0.416-0.474,0.887-0.887,1.361-1.124
		c0.474-0.295,1.005-0.413,1.479-0.352c-0.532-0.118-1.005,0-1.537,0.176c-0.474,0.237-1.005,0.589-1.421,1.002
		c-0.058,0.061-0.118,0.118-0.176,0.179c-0.061,0.058-0.118,0.118-0.179,0.176c-0.058,0.061-0.116,0.118-0.176,0.176l-0.058,0.118
		l-0.061,0.118c-0.118,0.237-0.237,0.474-0.355,0.711c0.179-0.592,0.355-1.182,0.65-1.713c0.474-1.063,1.124-1.95,1.777-2.658
		c-0.711,0.65-1.361,1.415-1.892,2.479c-0.298,0.532-0.534,1.124-0.711,1.713C197.113,136.005,197.056,136.181,196.998,136.418z
		 M197.942,141.733C197.942,141.672,197.885,141.672,197.942,141.733c0.65,0.234,1.3,0.352,1.953,0.176
		c-0.89,0-1.716-0.413-2.484-1.121c0.945,0.471,1.892,0.532,2.837,0.116c-1.005,0.298-2.068,0-3.016-0.826
		c0.237,0.061,0.474,0.118,0.771,0.118c0.352,0,0.65,0,1.002-0.058c0.355-0.061,0.653-0.118,0.948-0.179l0.945-0.234l-0.945,0.058
		c-0.295,0-0.65,0.058-0.948,0.058c-0.295,0-0.65-0.058-0.945-0.116c-0.237-0.061-0.413-0.118-0.65-0.237
		c1.005-0.474,2.068-0.768,3.134-0.887c-1.066-0.118-2.19,0-3.253,0.295c0-0.118,0.058-0.234,0.058-0.352l0.118-0.061
		c0.118-0.058,0.179-0.118,0.298-0.176c0.176-0.118,0.352-0.176,0.532-0.237c0.355-0.176,0.768-0.237,1.124-0.295
		c-0.416-0.061-0.768-0.061-1.184,0c-0.176,0-0.413,0.058-0.589,0.118c-0.061,0-0.118,0.058-0.179,0.058
		c0.061-0.118,0.118-0.237,0.179-0.352c0.471-0.416,1.005-0.65,1.595-0.592c-0.352-0.118-0.708-0.176-1.124-0.118
		c0.118-0.176,0.298-0.352,0.474-0.471c0.768-0.592,1.716-0.237,2.424,0.708c0.355,0.532,0.711,1.239,0.771,2.008
		c0.116,0.708,0,1.418-0.179,2.068c-0.176,0.589-0.474,1.121-0.826,1.476c-0.416,0.352-0.887,0.471-1.361,0.352
		c-0.355-0.118-0.711-0.352-1.066-0.647c0.179,0,0.416,0,0.592,0C198.653,142.146,198.298,141.909,197.942,141.733z
		 M203.974,146.751c-0.237,0.768-0.711,1.181-1.124,1.361c-1.005,0.413-2.129,0-3.016-0.948c-0.592-0.589-1.063-1.476-1.479-2.479
		c0.118,0.176,0.237,0.352,0.355,0.532c0.355,0.471,0.711,0.884,1.124,1.239s0.829,0.592,1.242,0.65
		c0.413,0.058,0.826,0,1.242-0.237c-0.416,0.237-0.829,0.237-1.242,0.118s-0.829-0.413-1.182-0.768
		c-0.355-0.352-0.653-0.766-1.005-1.239c0.116,0.118,0.234,0.237,0.352,0.355c0.534,0.413,1.124,0.589,1.716,0.532
		c0.592-0.061,1.124-0.355,1.597-0.887c-0.474,0.532-1.066,0.768-1.597,0.768c-0.592,0-1.124-0.237-1.655-0.711
		c-0.355-0.295-0.65-0.708-0.948-1.179c0.237,0.295,0.474,0.589,0.711,0.826c0.413,0.352,0.887,0.471,1.361,0.352
		c0.471-0.116,0.887-0.413,1.242-0.884c-0.711,0.884-1.716,1.002-2.484,0.295c-0.413-0.355-0.711-0.887-1.066-1.476
		c0-0.061-0.058-0.061-0.058-0.118c0.355,0.355,0.711,0.65,1.063,0.826c0.534,0.237,1.066,0.237,1.597-0.058
		c0.474-0.237,0.829-0.826,1.124-1.537c0.176-0.532,0.355-1.121,0.413-1.713c0.474,0.118,0.711,1.005,0.948,1.713
		c0.118,0.474,0.295,0.887,0.413,1.3c0.118,0.355,0.295,0.65,0.413,1.063C204.211,145.156,204.211,146.043,203.974,146.751z
		 M204.743,144.391c0,0.413-0.118,0.826-0.176,1.239c0-0.295,0-0.592-0.061-0.826c-0.058-0.532-0.237-1.063-0.474-1.476
		c0,0,0-0.061-0.058-0.061c0.237-0.295,0.413-0.65,0.592-1.063c0.058,0.237,0.058,0.474,0.118,0.708
		C204.8,143.385,204.8,143.917,204.743,144.391z M204.979,141.672c-0.061-0.118-0.061-0.176-0.118-0.295
		c0.058-0.295,0.058-0.65,0.058-1.005c-0.058-0.413-0.176-0.708-0.295-1.063c-0.176-0.647-0.058-1.297,0-2.008
		c0.061-0.766,0.061-1.476-0.237-2.126c-0.058-0.116-0.118-0.234-0.176-0.352c0.058-0.061,0.058-0.118,0.058-0.237
		c0-0.237,0-0.413,0.061-0.65c0.945,1.476,1.005,4.015,0.887,6.141C205.156,140.67,205.098,141.202,204.979,141.672z
		 M141.886,152.361c-2.837,1.774-5.792,3.368-8.808,4.726c-6.15,2.658-12.713,4.489-19.395,5.197
		c-3.31,0.355-6.682,0.589-10.053,0.413c-3.371-0.118-6.739-0.413-10.053-1.063c-3.31-0.589-6.563-1.418-9.755-2.539l-1.181-0.413
		l-1.184-0.474c-0.768-0.295-1.595-0.589-2.366-0.945l-2.305-1.063c-0.768-0.352-1.479-0.768-2.247-1.121
		c-3.016-1.537-5.853-3.308-8.574-5.315c-2.718-2.008-5.321-4.134-7.745-6.497c-2.366-2.363-4.671-4.842-6.682-7.56
		c-2.011-2.658-3.903-5.491-5.5-8.444c-3.192-5.905-5.558-12.283-6.919-18.837c-0.65-3.308-1.121-6.615-1.239-9.923l-0.061-1.239
		v-1.239c0-0.829,0-1.655,0-2.481l0.295-4.96c-0.295,6.673,0.237,13.346,1.777,19.782c1.476,6.436,3.96,12.638,7.213,18.367
		c6.563,11.457,16.437,20.964,28.145,26.989c11.647,6.081,25.129,8.62,38.316,7.323c13.184-1.242,25.898-6.439,36.363-14.707
		C147.387,148.582,144.726,150.59,141.886,152.361z M111.555,25.097c1.716,0.061,3.429,0.295,5.084,0.474
		c0.829,0.118,1.716,0.295,2.542,0.413c0.829,0.118,1.658,0.295,2.545,0.532c1.655,0.352,3.31,0.826,4.966,1.3
		c1.655,0.532,3.253,1.002,4.847,1.71c1.597,0.592,3.134,1.3,4.732,2.008c1.537,0.768,3.074,1.537,4.553,2.424
		c1.479,0.826,2.955,1.771,4.376,2.715l2.129,1.476c0.708,0.474,1.358,1.063,2.068,1.537c5.382,4.252,10.111,9.331,13.956,14.998
		c1.892,2.837,3.666,5.789,5.145,8.86c1.476,3.071,2.718,6.26,3.724,9.568c0.948,3.305,1.716,6.612,2.247,9.978
		c0.474,3.368,0.711,6.791,0.711,10.217c-0.061,6.791-1.124,13.583-3.253,20.019c1.774-6.555,2.661-13.285,2.424-20.019
		c-0.061-3.365-0.413-6.731-0.947-10.038c-0.589-3.308-1.358-6.555-2.424-9.804c-4.14-12.757-12.121-24.213-22.645-32.539
		c-10.466-8.386-23.477-13.525-36.84-14.646c-6.682-0.589-13.479-0.176-20.103,1.239c-6.624,1.3-13.008,3.781-18.982,6.91
		c2.897-1.771,5.974-3.308,9.108-4.547c3.134-1.3,6.384-2.363,9.697-3.129C97.836,25.216,104.755,24.627,111.555,25.097z
		 M114.452,179.94c1.479-0.058,3.016-0.176,4.495-0.295c-1.479,0.295-2.958,0.532-4.495,0.768c-1.479,0.237-3.016,0.355-4.553,0.532
		c-1.537,0.118-3.016,0.237-4.553,0.237h-3.432l-1.121-0.061c-6.092-0.176-12.182-1.002-18.153-2.539
		c-5.974-1.476-11.708-3.721-17.208-6.436c-5.497-2.776-10.642-6.202-15.374-10.099c-4.729-3.958-9.048-8.325-12.89-13.17
		c-0.948-1.182-1.834-2.479-2.721-3.721c-0.826-1.297-1.713-2.539-2.542-3.836l-1.181-1.95c-0.413-0.65-0.768-1.3-1.124-2.008
		c-0.711-1.358-1.479-2.718-2.068-4.076c-5.324-11.044-8.103-23.208-7.984-35.315c1.242,12.049,4.732,23.682,10.29,34.194
		c2.837,5.255,6.032,10.275,9.816,14.822c3.724,4.608,7.921,8.799,12.534,12.578c9.105,7.56,19.808,13.23,31.221,16.654
		c5.734,1.713,11.59,2.837,17.561,3.426c2.955,0.295,5.971,0.474,8.987,0.474C111.436,180.058,112.973,180,114.452,179.94z
		 M144.845,17.422c-9.284-4.963-19.453-8.27-29.979-9.981c10.703,0.352,21.345,3.071,31.103,7.736
		c4.908,2.302,9.518,5.136,13.895,8.386c4.316,3.247,8.337,6.907,12.003,10.925c7.274,8.031,13.008,17.48,16.674,27.637
		c3.669,10.157,5.324,21.024,4.613,31.655c-0.711-10.631-2.955-21.085-6.976-30.768c-4.021-9.686-9.697-18.661-16.677-26.397
		c-3.487-3.9-7.332-7.441-11.468-10.691C153.892,22.734,149.458,19.961,144.845,17.422z"/>
	<path fill-rule="evenodd" clip-rule="evenodd" fill="#F2DD88" d="M109.809,111.412c-11.371-6.809-9.944,0.141-18.991,2.674
		c-2.745,0.743-5.462,0.217-5.708-3.863c-0.096-1.692-0.355-3.475-1.941-3.956c-1.669-0.428-1.448-1.141-0.806-2.609
		c-1.113-0.488-2.46-0.71-1.982-2.269c0.189-0.572,0.259-0.929,0.295-1.758c-1.969-0.609-5.96-1.161-4.666-3.681
		c1.508-2.984,2.583-5.512,3.79-8.589c0.466-1.199,0.345-1.591-0.161-2.747c-2.991-6.683-3.704-8.874-2.307-16.536
		c0.018,7.612,0.969,9.367,3.868,15.577c0.713,1.523,0.672,2.518,0,4.041c-1.005,2.173-2.1,4.563-3.102,6.736
		c-1.463,3.205,0.433,2.868,3.79,4.059c-0.071,1.687-0.506,2.911-0.307,3.392c0.232,0.426,0.846,0.34,2.221,1.201
		c-0.128,1.793-0.29,1.674,0.851,2.166c1.387,0.584,1.795,2.095,1.894,3.759c0.206,3.027,1.652,3.583,3.686,3.226
		c0.504-0.118,1.063-0.262,1.652-0.458c3.981-1.828,5.985-3.432,8.503-4.104c2.77-0.743,5.837,0.103,9.425,3.739H109.809z"/>
	<path fill-rule="evenodd" clip-rule="evenodd" fill="#F2DD88" d="M80.121,55.489c0.607,13.421,2.946,17.118,9.934,22.886
		c8.433,6.965,15.086,10.754,19.565,14.927c21.675,20.079-0.577,39.309-15.967,36.622c-8.768-1.526-14.048-10.435-11.062-18.976
		c-6.368,9.344,0.065,21.816,12.134,25.221c25.883,7.272,49.265-27.965,18.492-49.61c-4.87-3.412-11.482-6.841-19.85-12.031
		C86.864,70.494,82.012,65.337,80.121,55.489z"/>
	<path fill-rule="evenodd" clip-rule="evenodd" fill="#F2DD88" d="M101.741,76.894c-4.5-4.283-7.491-7.592-7.559-11.248
		c-0.071-2.964,2.329-6.104,3.21-10.689c3.52,3.246,7.343,4.537,8.503,7.909c1.214,3.455-0.32,9.037-3.326,14.836
		c-0.277-7.403-0.75-10.631-3.168-17.818c0.733,5.703,1.246,11.344,2.342,17.009H101.741z"/>
	<path fill-rule="evenodd" clip-rule="evenodd" fill="#F2DD88" d="M107.449,75.414c0.01-7.584,0.428-13.021,3.631-16.153
		c2.571-2.551,7.353-3.072,12.187-6.139c0.06,5.87,2.118,10.329,0.103,14.202c-2.072,3.956-8.304,7.325-15.979,9.498
		c6.358-6.434,8.841-9.596,13.194-17.777C116.124,64.481,111.533,69.716,107.449,75.414z"/>
	<path fill-rule="evenodd" clip-rule="evenodd" fill="#F2DD88" d="M109.537,79.208c5.567-2.76,9.707-4.442,13.172-3.246
		c2.785,0.972,4.915,4.298,8.914,6.706c-4.271,2.178-6.779,5.311-10.349,5.248c-3.679-0.071-8.388-3.392-12.779-8.224
		c7.02,2.284,10.231,2.969,17.835,3.173C120.707,81.58,115.202,80.135,109.537,79.208z"/>
</g>
</svg>
