<?xml version="1.0" encoding="utf-8"?>
<!-- Generator: Adobe Illustrator 24.3.0, SVG Export Plug-In . SVG Version: 6.00 Build 0)  -->
<svg version="1.1" id="Layer_1" xmlns="http://www.w3.org/2000/svg" xmlns:xlink="http://www.w3.org/1999/xlink" x="0px" y="0px"
	 viewBox="0 0 949.84 652.385" enable-background="new 0 0 949.84 652.385" xml:space="preserve">
<g>
	<path fill="#969796" d="M459.923,92.4v294.307c-27.105,19.157-53.935,40.39-79.831,63.864V92.4H459.923z"/>
	<path fill="#969796" d="M360.179,184.814v284.461c-4.098,3.974-14.343,13.489-18.373,17.601
		c-18.166-8.691-33.282-13.686-61.458-21.742v-280.32H360.179z"/>
	<path fill="#969796" d="M559.68,0v325.125c-26.28,14.137-53.11,30.034-79.831,47.885V0H559.68z"/>
</g>
<g>
	<path fill="#3359A6" d="M839.974,235.698C731.993,265.98,637.654,321.47,559.68,382.295c-25.042,19.528-48.393,39.606-69.97,59.588
		c-10.342,9.558-20.284,19.115-29.787,28.563c-15.705,15.595-30.268,30.915-43.635,45.657c-4.043,4.442-7.976,8.843-11.799,13.174
		c-14.797,16.777-27.972,32.606-39.413,46.977c-36.14,45.327-55.311,76.131-55.311,76.131C202.127,495.447,0,441.333,0,441.333
		c232.327,28.412,301.884,105.519,301.884,105.519c3.796-4.676,7.646-9.269,11.538-13.807c6.546-7.674,13.229-15.141,20.037-22.443
		c4.772-5.157,9.613-10.232,14.522-15.196c4.029-4.112,8.1-8.155,12.198-12.129c6.56-6.395,13.202-12.624,19.913-18.703
		c25.895-23.475,52.725-44.708,79.831-63.864c6.628-4.689,13.271-9.255,19.927-13.697c26.72-17.85,53.55-33.747,79.831-47.885
		C706.51,260.191,836.756,236.276,839.974,235.698z"/>
</g>
<g>
	<path fill="#2BBDBB" d="M949.84,219.679c-326.098,98.92-521.314,427.763-521.314,427.763
		c-18.125-25.271-38.709-47.74-60.476-67.653c-16.999-15.556-34.722-29.557-52.551-42.111
		c-11.086-7.799-22.215-15.048-33.237-21.748c-0.098-0.067-0.209-0.133-0.307-0.186c-85.191-51.836-163.81-71.844-167.447-72.758
		c68.908,6.952,123.648,18.468,166.572,31.263c27.31,8.132,49.83,16.763,68.176,25.07c4.346,1.944,8.445,3.88,12.323,5.793
		c7.547,3.72,14.253,7.32,20.143,10.717c2.005,1.154,3.913,2.283,5.725,3.387c7.998,4.852,14.279,9.204,19.017,12.777
		c8.33,6.248,11.96,10.119,11.96,10.119c6.375-8.181,12.878-16.172,19.509-23.96c7.557-8.894,15.27-17.529,23.14-25.934
		c16.491-17.665,33.583-34.27,51.067-49.865c15.364-13.721,31.034-26.665,46.843-38.855
		C742.075,262.351,945.813,220.493,949.84,219.679z"/>
</g>
</svg>
