<?xml version="1.0" encoding="utf-8"?>
<!-- Generator: Adobe Illustrator 24.3.0, SVG Export Plug-In . SVG Version: 6.00 Build 0)  -->
<svg version="1.1" id="Layer_1" xmlns="http://www.w3.org/2000/svg" xmlns:xlink="http://www.w3.org/1999/xlink" x="0px" y="0px"
	 viewBox="0 0 821.447 682.551" enable-background="new 0 0 821.447 682.551" xml:space="preserve">
<g>
	<path fill="#48C0B6" d="M245.897,0v490.358l25.983,10.662V130.948c0-1.035,0.854-1.889,1.915-1.889h9.006
		c1.061,0,1.915,0.854,1.915,1.889v375.325l12.111,4.969v0.026l0.777-0.544v-6.366h9.032l32.375-22.8l57.09-40.216V136.254
		L245.897,0z M308.706,488.927h-11.105v-19.771h11.105V488.927z M308.706,453.72h-11.105v-19.771h11.105V453.72z M308.706,418.512
		h-11.105v-19.771h11.105V418.512z M308.706,383.304h-11.105v-19.771h11.105V383.304z M308.706,348.097h-11.105v-19.771h11.105
		V348.097z M308.706,312.889h-11.105v-19.771h11.105V312.889z M308.706,277.681h-11.105V257.91h11.105V277.681z M308.706,242.473
		h-11.105v-19.771h11.105V242.473z M308.706,207.237h-11.105v-19.771h11.105V207.237z"/>
	<polygon fill="#48C0B6" points="339.01,491.082 396.1,450.789 396.1,524.053 376.354,544.652 339.01,544.471 284.716,544.264 
		271.906,544.212 271.88,544.212 245.897,544.083 245.897,499.286 271.88,509.845 284.716,515.072 296.957,520.041 296.957,519.782 
		297.604,520.196 297.707,520.248 308.706,512.484 	"/>
	<polygon fill="#48C0B6" points="534.191,247.43 534.191,344.063 489.213,375.739 489.213,207.24 	"/>
	<polygon fill="#48C0B6" points="489.213,385.03 534.191,353.276 534.191,379.802 489.213,426.773 	"/>
	<polygon fill="#48C0B6" points="55.648,658.508 151.561,471.321 168.813,490.358 86.522,651.491 	"/>
	<polygon fill="#48C0B6" points="712.113,644.584 568.558,353.594 592.577,328.841 753.305,654.069 	"/>
</g>
<g>
	<polygon fill="#848384" points="245.897,313.086 245.897,490.358 204.827,473.51 204.827,349.964 	"/>
	<polygon fill="#848384" points="204.827,482.594 245.897,499.286 245.897,544.471 225.893,544.6 204.827,521.387 	"/>
	<polygon fill="#848384" points="468.484,399.677 489.213,385.03 489.213,426.773 468.484,448.434 455.674,461.813 443.691,474.313 
		433.236,485.26 396.1,524.053 376.354,544.652 376.276,544.73 339.01,544.73 339.01,491.082 396.1,450.789 434.453,423.693 
		444.338,416.706 455.674,408.709 	"/>
	<path fill="#848384" d="M396.1,188.193l-57.09,62.291v231.075l57.09-40.216l37.136-26.164v-16.433h11.102v8.618l11.335-7.997
		v-211.2c1.656,0,3.002-1.372,3.002-3.028h6.806c0,1.656,1.346,3.028,3.002,3.028v202.194l20.729-14.622V86.669L396.1,188.193z
		 M444.331,383.304h-11.105v-19.771h11.105V383.304z M444.331,348.097h-11.105v-19.771h11.105V348.097z M444.331,312.889h-11.105
		v-19.771h11.105V312.889z M444.331,277.681h-11.105V257.91h11.105V277.681z M444.331,242.473h-11.105v-19.771h11.105V242.473z"/>
	<polygon fill="#848384" points="611.935,298.572 534.193,379.8 489.221,426.777 468.478,448.434 455.666,461.813 443.683,474.319 
		433.224,485.257 396.097,524.041 376.356,544.653 376.269,544.74 305.057,617.137 299.159,622.419 292.014,615.561 
		225.884,544.609 204.836,521.383 149.144,459.939 204.836,482.599 245.886,499.289 271.901,509.835 284.713,515.064 
		296.958,520.032 297.612,519.552 308.724,511.752 339.01,490.487 396.097,450.308 434.009,423.682 444.336,416.405 455.666,408.43 
		468.478,399.454 489.221,384.855 534.193,353.218 	"/>
	<rect x="158.325" y="548.316" fill="#848384" width="14.943" height="27.696"/>
	<rect x="158.325" y="590.446" fill="#848384" width="14.943" height="27.696"/>
	<rect x="183.767" y="548.316" fill="#848384" width="16.053" height="27.696"/>
	<rect x="183.767" y="590.446" fill="#848384" width="16.053" height="27.696"/>
	<rect x="516.065" y="483.95" fill="#848384" width="26.887" height="39.002"/>
	<rect x="516.065" y="543.259" fill="#848384" width="26.887" height="39.002"/>
	<rect x="561.852" y="483.941" fill="#848384" width="28.884" height="39.001"/>
	<rect x="561.852" y="543.267" fill="#848384" width="28.884" height="39.001"/>
	<path fill="#848384" d="M0.029,682.534c-3.468,1.361,306.921-80.561,821.418,0C793.658,674.783,434.565,543.489,0.029,682.534z"/>
</g>
</svg>
