<?xml version="1.0" encoding="utf-8"?>
<!-- Generator: Adobe Illustrator 24.3.0, SVG Export Plug-In . SVG Version: 6.00 Build 0)  -->
<svg version="1.1" id="Layer_1" xmlns="http://www.w3.org/2000/svg" xmlns:xlink="http://www.w3.org/1999/xlink" x="0px" y="0px"
	 viewBox="0 0 268.513 343.715" enable-background="new 0 0 268.513 343.715" xml:space="preserve">
<g>
	<path fill="#F04F2F" d="M245.886,118.918c-4.375-4.673-10.323-9.999-17.427-15.584c-2.444-1.922-4.988-3.846-7.616-5.759
		c-5.57-4.075-11.536-8.116-17.826-12.084c-15.363-9.702-30.586-17.64-42.88-22.334c-2.373-0.912-4.585-1.672-6.625-2.297
		c-3.03-9.02,0.331-19.844,8.013-25.491c4.168-3.069,9.238-4.601,13.892-6.88c4.647-2.272,9.205-5.707,10.631-10.69
		c1.933,4.852,1.791,10.564-0.661,15.185c-1.266,2.387-3.079,4.547-3.69,7.183c-0.92,4.033,1.482,8.401,5.138,10.334
		c3.662,1.925,8.252,1.618,11.946-0.233c3.708-1.853,6.581-5.087,8.621-8.684c3.669-6.462,4.882-14.117,8.673-20.508
		c3.799-6.385,10.151-11.195,17.325-13.107c0.165-0.048,0.33-0.096,0.503-0.139c-4.544,2.658-6.878,7.906-6.654,13.169
		c0.238,5.261,2.447,10.215,4.858,14.895c2.417,4.673,5.112,9.284,6.453,14.37c1.342,5.086,1.166,10.874-1.864,15.18
		c-2.914,4.143-8.186,6.61-9.849,11.394c-1.331,3.811,0.253,8.363,3.496,10.773c3.243,2.41,7.846,2.685,11.499,0.966
		c3.835-1.804,6.468-5.444,8.461-9.192c1.987-3.74,3.515-7.753,5.995-11.182c2.992-4.145,7.353-7.265,12.214-8.822
		c-2.983,1.304-5.394,4.24-6.792,7.198c-1.772,3.757-2.034,8.053-1.844,12.195c0.191,4.156,0.813,8.282,0.698,12.439
		C260.284,102.046,254.646,112.58,245.886,118.918z"/>
</g>
<g>
	<path fill="#F7991F" d="M235.415,30.13c-0.385-3.136,1.209-6.43,3.183-9.105c1.974-2.675,4.4-5.006,6.248-7.767
		c2.769-4.139,3.114-8.524,2.703-13.258c-0.403,2.182-1.981,4.059-3.719,5.502c-1.738,1.444-3.693,2.586-5.379,4.095
		c-2.905,2.598-4.897,6.262-5.454,10.032C232.439,23.398,233.322,27.234,235.415,30.13z"/>
	<path fill="#F7991F" d="M117.182,75.093c0.115,0.989,0.315,1.965,0.559,2.93c-5.889,0.516-11.958,1.343-18.206,2.516
		c-2.339,0.439-4.616,0.93-6.853,1.453c0.091-0.62,0.212-1.235,0.252-1.859c1.532-2.931,4.757-5.024,8.153-6.217
		c3.688-1.333,7.739-1.789,11.727-1.315c-3.918-0.879-8.09-0.86-12.082,0.134c-1.992,0.492-3.97,1.219-5.787,2.334
		c-1.21,0.742-2.342,1.694-3.296,2.831c-5.913-1.642-10.069-4.948-10.583-9.22c-0.849-7.059,8.473-13.986,20.822-15.471
		c12.349-1.486,23.049,3.032,23.898,10.091C126.318,67.716,122.865,72.081,117.182,75.093z"/>
</g>
<g>
	<path fill="#CD2027" d="M79.176,234.309c7.23,6.548,33.164,9.314,63.506,6.18c30.341-3.134,55.163-11.143,60.902-19.031
		c-17.959,4.068-39.105,7.526-61.847,9.875C118.994,233.682,97.588,234.62,79.176,234.309z"/>
	<path fill="#CD2027" d="M136.442,177.594c-66.937,6.915-120.073,23.423-118.684,36.873c1.39,13.45,56.779,18.748,123.715,11.833
		c66.937-6.915,120.074-23.423,118.684-36.873C258.768,175.978,203.379,170.68,136.442,177.594z M200.437,202.574
		c6.732-2.362,10.508-4.696,10.296-6.752c-0.63-6.099-36.006-7.442-79.014-3c-24.585,2.54-46.328,6.42-60.339,10.418
		c13.235-4.643,37.928-9.391,66.437-12.336c43.008-4.443,78.384-3.1,79.014,3C217.101,196.516,210.937,199.578,200.437,202.574z"/>
	<path fill="#CD2027" d="M239.084,237.577c-3.686,49.167-39.032,92.223-89.661,103.411c-27.146,5.998-54.161,1.841-77.107-9.92
		c-29.34-15.097-52-42.635-59.671-77.35c-0.912-4.128-1.571-8.267-2.015-12.382c0,0,36.711,14.004,107.012,14.3
		c9.512,0.063,19.639-0.149,30.369-0.681C182.744,253.262,216.858,245.189,239.084,237.577z"/>
</g>
<g>
	<path fill="#ED1C24" d="M0,181.469c115.008-2.045,197.16-34.85,233.358-55.082c-16.343-20.877-46.207-40.86-87.827-44.542
		c-14.278-1.293-29.913-0.652-46.89,2.538C35.319,96.275,9.575,139.58,1.604,173.386C0.951,176.16,0.422,178.863,0,181.469z"/>
	<path fill="#ED1C24" d="M239.084,237.577c-3.686,49.167-39.032,92.223-89.661,103.411c-27.146,5.998-54.161,1.841-77.107-9.92
		c2.978,0.203,6.001,0.187,8.982-0.122c10.221-1.048,20.284-5.553,26.94-13.356c5.842-6.855,8.74-15.759,10.296-24.624
		c2.115-12.34,1.788-25.095-0.892-37.33c9.512,0.063,19.639-0.149,30.369-0.681C182.744,253.262,216.858,245.189,239.084,237.577z"
		/>
</g>
</svg>
