<?xml version="1.0" encoding="utf-8"?>
<!-- Generator: Adobe Illustrator 24.3.0, SVG Export Plug-In . SVG Version: 6.00 Build 0)  -->
<svg version="1.1" id="Layer_6" xmlns="http://www.w3.org/2000/svg" xmlns:xlink="http://www.w3.org/1999/xlink" x="0px" y="0px"
	 viewBox="0 0 287.671 231.051" enable-background="new 0 0 287.671 231.051" xml:space="preserve">
<g>
	<path fill="#ECECED" d="M166.683,2.878c-11.21,0-20.29,8.74-20.29,19.51l0.36,179.58l1.1-0.1l13.76-1.3
		c-0.12-0.27-0.18-0.56-0.18-0.87c0-0.93,0.56-1.73,1.37-2.07c0.27-0.11,0.56-0.17,0.87-0.17h31.04l80.82-7.6l9.15-0.86V2.878
		H166.683z M163.673,4.818h53.62v183.03h-53.62V4.818z"/>
	<path fill="#CCCCCC" d="M268.833,209.018c0-10.87,10.53-19.16,10.53-19.16h-114.66c-6.22,0-11.72,3.28-14.97,8.28
		c-0.75,1.16-1.38,2.41-1.88,3.73c-0.34,0.92-0.62,1.87-0.82,2.85c-0.27,1.29-0.41,2.62-0.41,3.99v0.62
		c0,10.41,8.1,18.85,18.08,18.85h114.66C279.363,228.178,268.833,219.238,268.833,209.018z M157.273,208.518
		c0-1.24,1-2.24,2.24-2.24h99.65c1.24,0,2.24,1,2.24,2.24s-1,2.24-2.24,2.24h-99.65
		C158.273,210.758,157.273,209.758,157.273,208.518z M263.323,219.578h-99.65c-1.24,0-2.24-1-2.24-2.24c0-1.23,1-2.23,2.24-2.23
		h99.65c1.24,0,2.24,1,2.24,2.23C265.563,218.578,264.563,219.578,263.323,219.578z M263.323,201.938h-99.65
		c-0.93,0-1.72-0.57-2.06-1.37c-0.12-0.27-0.18-0.56-0.18-0.87c0-0.93,0.56-1.73,1.37-2.07c0.27-0.11,0.56-0.17,0.87-0.17h99.65
		c1.24,0,2.24,1,2.24,2.24C265.563,200.928,264.563,201.938,263.323,201.938z"/>
	<path fill="#ECECED" d="M2.83,2.878v186.12l9.15,0.86l80.82,7.6h31.04c0.31,0,0.6,0.06,0.87,0.17c0.81,0.34,1.37,1.14,1.37,2.07
		c0,0.31-0.06,0.6-0.18,0.87l13.76,1.3l1.1,0.1l0.36-179.58c0-10.77-9.08-19.51-20.29-19.51L2.83,2.878L2.83,2.878z M123.84,187.848
		H70.22V4.818h53.62V187.848z"/>
	<path fill="#CCCCCC" d="M8.15,228.178h114.66c9.98,0,18.08-8.44,18.08-18.85v-0.62c0-1.37-0.14-2.7-0.41-3.99
		c-0.2-0.98-0.48-1.93-0.82-2.85c-0.5-1.32-1.13-2.57-1.88-3.73c-3.25-5-8.75-8.28-14.97-8.28H8.15c0,0,10.53,8.29,10.53,19.16
		C18.68,219.238,8.15,228.178,8.15,228.178z M128,210.758H28.35c-1.24,0-2.24-1-2.24-2.24s1-2.24,2.24-2.24H128
		c1.24,0,2.24,1,2.24,2.24S129.24,210.758,128,210.758z M21.95,217.338c0-1.23,1-2.23,2.24-2.23h99.65c1.24,0,2.24,1,2.24,2.23
		c0,1.24-1,2.24-2.24,2.24H24.19C22.95,219.578,21.95,218.578,21.95,217.338z M21.95,199.698c0-1.24,1-2.24,2.24-2.24h99.65
		c0.31,0,0.6,0.06,0.87,0.17c0.81,0.34,1.37,1.14,1.37,2.07c0,0.31-0.06,0.6-0.18,0.87c-0.34,0.8-1.13,1.37-2.06,1.37H24.19
		C22.95,201.938,21.95,200.928,21.95,199.698z"/>
</g>
<g>
	<polygon fill="#F5921E" points="244.723,136.953 229.112,121.341 213.5,136.953 213.5,0.522 244.723,0.522 	"/>
</g>
<g>
	<path fill="#8144AF" d="M281.143,192.118l6.53-5.14V-0.002h-120.99c-12.84,0-23.28,10.05-23.28,22.4l0.36,182.73l0.28-0.03
		c-0.2,1.17-0.3,2.38-0.3,3.61v0.62c0,11.98,9.41,21.72,20.97,21.72h122.45l-5.93-5.06c-0.1-0.08-9.53-8.23-9.53-16.97
		C271.703,199.708,281.053,192.188,281.143,192.118z M149.383,22.398c0-9.18,7.76-16.65,17.3-16.65h115.01v181.23h-116.98
		c-5.87,0-11.18,2.51-14.99,6.55L149.383,22.398z M265.963,209.018c0,6.48,3.56,12.34,6.73,16.28h-107.98
		c-8.39,0-15.22-7.16-15.22-15.97v-0.62c0-1.51,0.2-2.98,0.59-4.37c0.58-2.16,1.59-4.14,2.93-5.83c2.79-3.53,7-5.78,11.7-5.78h107.8
		C269.383,196.578,265.963,202.308,265.963,209.018z"/>
</g>
<g>
	<rect x="175.179" y="28.164" fill="#30355D" width="76.642" height="14.372"/>
	<rect x="163.673" y="50.451" fill="#30355D" width="99.654" height="5.749"/>
	<rect x="163.673" y="64.392" fill="#30355D" width="99.654" height="5.749"/>
	<rect x="163.673" y="78.334" fill="#30355D" width="99.654" height="5.749"/>
	<rect x="163.673" y="92.276" fill="#30355D" width="99.654" height="5.749"/>
	<rect x="163.673" y="106.217" fill="#30355D" width="99.654" height="5.749"/>
	<rect x="163.673" y="120.158" fill="#30355D" width="99.654" height="5.749"/>
	<rect x="163.673" y="134.101" fill="#30355D" width="99.654" height="5.749"/>
	<rect x="163.673" y="148.042" fill="#30355D" width="99.654" height="5.749"/>
	<rect x="35.692" y="28.164" fill="#30355D" width="76.642" height="14.372"/>
	<rect x="24.186" y="50.451" fill="#30355D" width="99.654" height="5.749"/>
	<rect x="24.186" y="64.392" fill="#30355D" width="99.654" height="5.749"/>
	<rect x="24.186" y="78.334" fill="#30355D" width="99.654" height="5.749"/>
	<rect x="24.186" y="92.276" fill="#30355D" width="99.654" height="5.749"/>
	<rect x="24.186" y="106.217" fill="#30355D" width="99.654" height="5.749"/>
	<rect x="24.186" y="120.158" fill="#30355D" width="99.654" height="5.749"/>
	<rect x="24.186" y="134.101" fill="#30355D" width="99.654" height="5.749"/>
	<rect x="24.186" y="148.042" fill="#30355D" width="99.654" height="5.749"/>
</g>
<g>
	<path fill="#F900B3" d="M143.753,205.128l0.36-182.73c0-12.35-10.44-22.4-23.28-22.4H-0.157v186.98l6.52,5.14
		c0.09,0.07,9.44,7.59,9.44,16.9c0,8.74-9.43,16.89-9.52,16.97l-5.93,5.06h122.45c11.56,0,20.96-9.74,20.96-21.72v-0.62
		c0-1.23-0.1-2.44-0.3-3.62L143.753,205.128z M138.013,209.328c0,8.81-6.82,15.97-15.21,15.97H14.823c3.17-3.94,6.73-9.8,6.73-16.28
		c0-6.71-3.42-12.44-6.55-16.29h107.8c4.7,0,8.91,2.25,11.69,5.78c1.34,1.69,2.35,3.66,2.94,5.82c0.38,1.39,0.58,2.86,0.58,4.38
		V209.328z M137.793,193.538c-3.81-4.05-9.12-6.56-14.99-6.56H5.823V5.748h115.01c9.54,0,17.3,7.47,17.3,16.65L137.793,193.538z"/>
</g>
</svg>
