<?xml version="1.0" encoding="utf-8"?>
<!-- Generator: Adobe Illustrator 25.2.0, SVG Export Plug-In . SVG Version: 6.00 Build 0)  -->
<svg version="1.1" id="Layer_1" xmlns="http://www.w3.org/2000/svg" xmlns:xlink="http://www.w3.org/1999/xlink" x="0px" y="0px"
	 viewBox="0 0 330.656 229.495" enable-background="new 0 0 330.656 229.495" xml:space="preserve">
<g>
	<path fill-rule="evenodd" clip-rule="evenodd" fill="#02C9D3" d="M282.886,129.245l-17.878-3.474V56.033
		c0-1.019,0.955-1.765,1.934-1.525l14.483,3.555c0.698,0.168,1.188,0.795,1.188,1.516
		C282.709,86.276,282.797,102.219,282.886,129.245L282.886,129.245z"/>
	<path fill-rule="evenodd" clip-rule="evenodd" fill="#02C9D3" d="M123.208,162.377c-0.554,5.216,0.104,10.631,1.862,15.719
		c0.89,2.576,2.046,5.031,3.45,7.358c1.405,2.335,3.033,4.502,4.886,6.491c2.824,3.041,6.042,5.585,9.653,7.623
		c0.602,0.337,1.204,0.658,1.822,0.971c0.618,0.313,1.243,0.602,1.878,0.874c2.536,1.107,5.167,1.942,7.879,2.512
		c1.356,0.281,2.72,0.489,4.092,0.634c1.372,0.145,2.76,0.216,4.133,0.224c1.38,0.008,2.76-0.064,4.14-0.2
		c1.372-0.136,2.744-0.345,4.1-0.618c1.356-0.281,2.688-0.626,4.012-1.035c1.316-0.417,2.608-0.89,3.876-1.444
		c0.634-0.273,1.26-0.561,1.878-0.867c0.618-0.305,1.228-0.626,1.829-0.962c3.619-2.022,6.852-4.55,9.685-7.583
		c1.862-1.981,3.498-4.14,4.919-6.467c1.42-2.327,2.576-4.783,3.474-7.35c1.781-5.079,2.455-10.495,1.926-15.711
		c-0.273,2.583-0.762,5.128-1.46,7.639c-0.69,2.463-1.597,4.839-2.72,7.133c-2.223,4.55-5.192,8.545-8.907,11.988
		c-3.651,3.386-7.799,5.994-12.429,7.815c-2.279,0.898-4.621,1.564-7.037,2.022c-1.196,0.224-2.407,0.393-3.619,0.505
		c-1.219,0.112-2.439,0.168-3.659,0.168c-1.219,0-2.439-0.064-3.659-0.177c-1.212-0.112-2.424-0.288-3.619-0.514
		c-2.407-0.458-4.75-1.14-7.029-2.046c-4.621-1.845-8.762-4.462-12.405-7.864c-3.699-3.458-6.652-7.462-8.859-12.028
		c-1.115-2.295-2.014-4.678-2.688-7.15c-0.674-2.527-1.148-5.079-1.405-7.663L123.208,162.377z"/>
	<path fill-rule="evenodd" clip-rule="evenodd" fill="#02C9D3" d="M26.237,13.915C15.212,28.038,7.356,44.936,3.288,62.862
		c-2.054,9.083-3.145,18.279-3.274,27.579c-0.136,9.3,0.69,18.52,2.471,27.651c2.704,13.914,7.462,27.097,14.251,39.534
		c1.131,2.054,2.311,4.092,3.546,6.098c1.235,2.006,2.519,3.98,3.86,5.922c5.368,7.799,11.474,14.957,18.327,21.488
		c3.418,3.257,6.997,6.331,10.728,9.227c3.731,2.897,7.607,5.593,11.595,8.105c3.996,2.512,8.136,4.783,12.365,6.877
		c4.229,2.095,8.586,3.947,13.007,5.593c4.429,1.637,8.931,3.049,13.505,4.229c4.566,1.179,9.188,2.118,13.85,2.808
		c2.335,0.353,4.67,0.642,7.013,0.867c2.343,0.233,4.694,0.393,7.045,0.505c14.155,0.658,28.084-0.842,41.781-4.517
		c8.987-2.399,17.629-5.697,25.934-9.902c8.305-4.205,16.089-9.228,23.35-15.045c14.323-11.522,26.062-26.006,33.917-42.11
		c-5.457,7.005-11.458,13.513-18.006,19.514c-6.443,5.898-13.352,11.162-20.758,15.783c-14.66,9.18-30.475,15.415-47.446,18.704
		c-16.714,3.234-33.429,3.322-50.158,0.257c-8.233-1.516-16.248-3.795-24.048-6.836c-3.883-1.508-7.687-3.202-11.419-5.071
		c-3.731-1.878-7.367-3.916-10.912-6.114c-3.538-2.207-6.973-4.582-10.287-7.109c-3.314-2.527-6.515-5.216-9.573-8.032
		c-6.155-5.681-11.723-11.884-16.69-18.624c-10.094-13.689-17.356-28.758-21.786-45.192c-4.485-16.698-5.817-33.645-3.996-50.856
		c0.915-8.682,2.608-17.203,5.087-25.588C19.104,30.124,22.322,21.884,26.237,13.915L26.237,13.915z"/>
	<path fill-rule="evenodd" clip-rule="evenodd" fill="#02C9D3" d="M134.89,129.189l-27.121,13.136V10.923
		c0-1.003,0.931-1.75,1.917-1.525c7.863,1.814,15.719,3.627,23.591,5.44c0.706,0.168,1.204,0.803,1.212,1.525
		C134.626,59.765,134.762,85.459,134.89,129.189L134.89,129.189z"/>
	<path fill-rule="evenodd" clip-rule="evenodd" fill="#02C9D3" d="M212.435,37.258c-0.008-0.746-0.53-1.388-1.26-1.533
		c-5.785-1.164-11.586-2.319-17.381-3.482c-0.971-0.193-1.862,0.545-1.862,1.533v79.992l20.814-1.909
		C212.643,82.915,212.54,65.855,212.435,37.258L212.435,37.258z"/>
</g>
<g>
	<path fill-rule="evenodd" clip-rule="evenodd" fill="#135489" d="M307.226,126.935c0,0-0.02,0-0.03,0
		c-5.79,0.07-11.64-0.15-17.47-0.64v-73.62c0-0.04-0.02-0.09-0.02-0.14c-0.01-0.08-0.02-0.16-0.03-0.24
		c-0.01-0.07-0.03-0.14-0.05-0.21c-0.02-0.07-0.03-0.14-0.06-0.21c-0.04-0.07-0.06-0.14-0.1-0.2c-0.03-0.06-0.06-0.13-0.11-0.18
		c-0.03-0.07-0.08-0.12-0.12-0.18c-0.04-0.06-0.09-0.11-0.14-0.17s-0.11-0.1-0.15-0.15c-0.06-0.05-0.11-0.1-0.17-0.14
		c-0.06-0.04-0.12-0.09-0.19-0.12c-0.06-0.03-0.12-0.07-0.18-0.1c-0.08-0.03-0.15-0.07-0.23-0.09c-0.05-0.02-0.09-0.03-0.14-0.05
		l-27.49-7.34c-0.78-0.21-1.56,0.02-2.1,0.51c-0.12,0.06-0.24,0.12-0.37,0.2l-14.78,10.58c-0.01,0.01-0.01,0.01-0.01,0.01h-0.01
		c-0.45,0.33-0.74,0.8-0.87,1.31c-0.03,0.1-0.04,0.2-0.04,0.3c-0.02,0.09-0.02,0.17-0.02,0.26v60.27c-2.43-0.53-5.05-1.06-7.94-1.58
		c-3.19-0.56-7.56-1.32-12.91-1.93v-80.39c0,0,0,0,0-0.01v-0.02c0-0.04-0.01-0.09-0.01-0.13c-0.01-0.1-0.02-0.21-0.03-0.3
		c-0.01-0.07-0.04-0.13-0.06-0.19c-0.02-0.08-0.03-0.16-0.06-0.24c-0.04-0.06-0.08-0.13-0.11-0.2c-0.03-0.05-0.06-0.12-0.1-0.17
		c-0.04-0.07-0.09-0.12-0.13-0.17c-0.05-0.06-0.1-0.11-0.15-0.17c-0.04-0.05-0.1-0.1-0.15-0.14c-0.06-0.04-0.11-0.1-0.18-0.15
		c-0.06-0.04-0.13-0.07-0.2-0.1c-0.06-0.04-0.12-0.08-0.17-0.11c-0.11-0.04-0.2-0.07-0.31-0.09c-0.03-0.02-0.08-0.04-0.12-0.04
		l-0.01-0.01c-0.01,0-0.01,0-0.01,0l-32.23-6.97c-0.01,0-0.03,0-0.05-0.01c-0.08-0.01-0.17-0.02-0.25-0.02
		c-0.07-0.01-0.13-0.02-0.19-0.02c-0.08,0-0.16,0.02-0.24,0.03c-0.07,0.01-0.13,0.01-0.21,0.03c-0.07,0.02-0.14,0.03-0.21,0.06
		c-0.07,0.02-0.14,0.04-0.2,0.07c-0.07,0.03-0.12,0.06-0.19,0.1c-0.07,0.04-0.14,0.08-0.21,0.12c-0.01,0.01-0.03,0.02-0.04,0.03
		l-18.03,13.14l-0.01,0.01h-0.01c-0.45,0.34-0.74,0.82-0.86,1.33c-0.02,0.08-0.03,0.17-0.04,0.24c0,0.1-0.01,0.18-0.01,0.27v78.04
		c-10.16,2.6-17.98,5.66-22.68,7.53v-112.9c0-0.05-0.01-0.11-0.01-0.16c-0.01-0.08-0.02-0.17-0.04-0.25
		c-0.01-0.07-0.03-0.14-0.04-0.2c-0.03-0.07-0.04-0.15-0.08-0.22c-0.03-0.07-0.05-0.13-0.09-0.2c-0.03-0.06-0.07-0.13-0.11-0.18
		c-0.04-0.07-0.09-0.12-0.13-0.17c-0.04-0.06-0.09-0.11-0.14-0.17c-0.05-0.05-0.11-0.1-0.15-0.15c-0.06-0.04-0.11-0.09-0.18-0.14
		c-0.06-0.04-0.12-0.07-0.18-0.11c-0.07-0.03-0.12-0.07-0.19-0.11c-0.08-0.03-0.16-0.05-0.24-0.08c-0.05-0.02-0.1-0.04-0.14-0.05
		l-37.81-9.28c-0.32-0.08-0.64-0.08-0.95-0.02c-0.58-0.12-1.2,0-1.72,0.37l-29.4,21.01c0,0,0,0,0,0.01c-0.01,0-0.01,0.01-0.01,0.01
		h-0.01c-0.46,0.33-0.75,0.82-0.87,1.33c0,0.01,0,0.01,0,0.01c-0.01,0.06-0.03,0.13-0.03,0.2c-0.02,0.1-0.02,0.21-0.02,0.31v123.64
		c-4.57,0.24-9.15,0.27-13.69,0.07c-1.25-0.06-2.3,0.92-2.35,2.16c-0.05,1.26,0.91,2.31,2.16,2.36c2.1,0.09,4.21,0.14,6.32,0.14
		c4.7,0,9.4-0.23,14.07-0.68l1.06-0.1c6.42-0.59,18.38-1.72,33.11-7.32c10.09-3.83,14.97-6.29,19.71-8.66
		c3.72-1.87,7.23-3.64,13.14-6c7.98-3.19,26.68-10.67,51.06-12.09c16.94-0.97,29.85,1.3,37.56,2.66c8.53,1.5,14.66,3.17,20.59,4.79
		c7.33,2.02,14.27,3.92,25.14,5.43c9.24,1.28,18.62,1.86,27.89,1.76c1.24-0.02,2.24-1.05,2.23-2.29
		C309.476,127.925,308.466,126.935,307.226,126.935z M139.486,126.315c-3.87,1.68-6.69,3.09-9.62,4.57
		c-4.62,2.32-9.4,4.72-19.27,8.48c-11.97,4.55-22.08,6.02-28.66,6.72l21.8-14.98c1.02-0.7,1.28-2.12,0.57-3.14
		c-0.7-1.03-2.11-1.29-3.14-0.58l-25.15,17.29v-15.52l27.74-19.07c1.03-0.71,1.28-2.12,0.58-3.15c-0.71-1.03-2.12-1.29-3.15-0.58
		l-25.18,17.31v-15.4l28.15-19.36c1.03-0.7,1.29-2.11,0.58-3.14c-0.71-1.04-2.11-1.29-3.14-0.58l-25.59,17.59v-15.62l28.07-19.29
		c1.03-0.71,1.29-2.12,0.58-3.15c-0.71-1.03-2.12-1.29-3.14-0.58l-25.52,17.54v-15.68l28.11-19.32c1.02-0.7,1.28-2.12,0.58-3.14
		c-0.71-1.03-2.11-1.29-3.15-0.58l-25.55,17.57v-15.45l28.18-19.38c1.04-0.71,1.29-2.12,0.59-3.15c-0.71-1.03-2.12-1.29-3.15-0.57
		l-25.63,17.61v-15.13l27.82-19.9l35.69,8.76V126.315z M216.966,112.635c-6.13-0.52-13.27-0.77-21.17-0.3
		c-9.02,0.51-17.29,1.84-24.56,3.49v-3.16l17.05-11.74c1.04-0.7,1.3-2.11,0.59-3.14c-0.71-1.03-2.12-1.29-3.15-0.58l-14.5,9.97
		v-12.99l17.06-11.73c1.03-0.7,1.29-2.12,0.58-3.14c-0.7-1.04-2.12-1.29-3.14-0.59l-14.5,9.98v-13.04l17.05-11.73
		c1.03-0.7,1.29-2.12,0.58-3.14c-0.7-1.04-2.12-1.3-3.14-0.58l-14.5,9.96v-12.82c0,0,0.01,0,0.01-0.01l17.04-11.72
		c1.03-0.71,1.29-2.12,0.58-3.14c-0.7-1.04-2.11-1.3-3.14-0.58l-14.5,9.96v-11.86l16.28-11.87l29.48,6.37V112.635z M285.196,125.845
		c-1.74-0.19-3.48-0.4-5.22-0.65c-10.58-1.46-17.38-3.33-24.57-5.3c-2.74-0.75-5.51-1.51-8.54-2.25v-2.07h0.03
		c0.01-0.02,0.02-0.02,0.03-0.03l14.34-9.86c1.02-0.7,1.28-2.11,0.57-3.14c-0.7-1.03-2.11-1.3-3.14-0.58l-11.81,8.13v-8.27
		l14.37-9.88c1.03-0.71,1.28-2.11,0.58-3.15c-0.71-1.03-2.12-1.29-3.15-0.58l-11.81,8.13v-8.83l14.37-9.88
		c1.03-0.71,1.28-2.12,0.58-3.15c-0.71-1.02-2.12-1.29-3.15-0.58l-11.81,8.13v-9.16c0.03-0.02,0.05-0.03,0.08-0.04l14.3-9.84
		c1.03-0.71,1.29-2.11,0.58-3.14c-0.71-1.03-2.12-1.3-3.15-0.58l-11.81,8.13v-9.96l13.52-9.66l24.81,6.63V125.845z"/>
	<path fill-rule="evenodd" clip-rule="evenodd" fill="#135489" d="M328.632,151.905c-5.785,0.602-11.555,0.907-17.276,0.907
		c-6.86,0-13.657-0.433-20.317-1.3c-10.576-1.388-16.938-3.162-25.741-5.625c-5.946-1.661-13.352-3.739-24.112-6.235l-0.2-0.04
		c-11.683-2.72-22.716-5.28-35.474-5.761c-17.155-0.642-34.512,2.399-51.571,9.051c-1.164,0.45-2.471-0.121-2.928-1.284
		c-0.45-1.164,0.121-2.471,1.284-2.928c17.637-6.885,35.595-10.038,53.384-9.364c13.191,0.505,24.433,3.105,36.325,5.874l0.209,0.04
		c10.848,2.527,18.311,4.606,24.305,6.283c8.618,2.407,14.845,4.156,25.107,5.488c11.867,1.557,24.169,1.685,36.541,0.386
		c1.252-0.129,2.351,0.778,2.479,2.014C330.766,150.662,329.867,151.777,328.632,151.905L328.632,151.905z"/>
</g>
</svg>
