<?xml version="1.0" encoding="utf-8"?>
<!-- Generator: Adobe Illustrator 24.3.0, SVG Export Plug-In . SVG Version: 6.00 Build 0)  -->
<svg version="1.1" id="Layer_1" xmlns="http://www.w3.org/2000/svg" xmlns:xlink="http://www.w3.org/1999/xlink" x="0px" y="0px"
	 viewBox="0 0 369.848 233.727" enable-background="new 0 0 369.848 233.727" xml:space="preserve">
<g>
	<path d="M299.156,188.102c-0.331-0.087-0.667-0.179-0.998-0.266c0.318-0.157,0.637-0.31,0.955-0.467L299.156,188.102z"/>
	<path d="M299.156,188.102c-0.331-0.087-0.667-0.179-0.998-0.266c0.318-0.157,0.637-0.31,0.955-0.467L299.156,188.102z"/>
	<path fill-rule="evenodd" clip-rule="evenodd" d="M287.787,112.914c-0.1-5.31-0.59-10.51-1.46-15.6
		c-7.55-44.52-43.28-79.34-88.05-85.71c-1.99-0.29-3.99-0.51-6.01-0.67c0.17,0.61,0.27,1.25,0.28,1.9h-18.18
		c0.01-0.65,0.11-1.29,0.28-1.9c-2.02,0.16-4.02,0.38-6.01,0.67c-44.78,6.37-80.51,41.19-88.05,85.71
		c-0.87,5.09-1.36,10.29-1.46,15.6l-0.11,5.62h208.87L287.787,112.914z M209.577,21.054c19.13,2.45,41.67,22.08,52.59,41.7
		c3.6,6.47,7.12,16.44,8.37,23.56l-12.45-3.54c-1.47-14.89-22.9-41.61-34.45-50.13c-4.89-3.62-9.3-6.14-14.88-8.54
		c-3.92-1.68-1.48-0.4-5.29-2.67C206.907,20.754,206.127,20.614,209.577,21.054z"/>
	<path fill-rule="evenodd" clip-rule="evenodd" d="M183.453,80.916c13.19,0,26.387,0.468,39.535,1.538
		c10.996,0.895,21.994,2.184,32.833,4.27c8.103,1.559,16.62,3.567,24.15,6.993c8.06,3.668,15.499,9.772,15.499,19.42
		c0,9.648-7.439,15.752-15.499,19.42c-7.53,3.426-16.047,5.433-24.15,6.993c-10.839,2.087-21.837,3.375-32.833,4.271
		c-13.148,1.07-26.345,1.538-39.535,1.538c-13.189,0-26.386-0.468-39.534-1.538c-10.997-0.895-21.994-2.184-32.833-4.271
		c-8.104-1.559-16.621-3.567-24.15-6.993c-8.061-3.668-15.5-9.772-15.5-19.42c0-9.649,7.439-15.753,15.5-19.42
		c7.529-3.426,16.046-5.434,24.15-6.993c10.839-2.086,21.836-3.375,32.833-4.27C157.068,81.384,170.264,80.916,183.453,80.916z"/>
	<path fill-rule="evenodd" clip-rule="evenodd" d="M185.973,221.218c44.254,0,80.348-10.091,80.348-22.462
		s-36.094-22.461-80.348-22.461c-44.255,0-80.349,10.09-80.349,22.461S141.718,221.218,185.973,221.218z"/>
	<ellipse fill-rule="evenodd" clip-rule="evenodd" cx="185.973" cy="181.377" rx="120.49" ry="31.553"/>
	<path d="M309.751,152.154c1.911-3.42,3.588-6.126,5.169-8.455c1.596-2.294,3.052-4.386,4.556-6.021
		c0.754-0.822,1.534-1.535,2.348-2.088c0.843-0.549,1.582-0.892,2.649-1.102c1.066-0.22,2.448-0.267,4.205-0.326
		c1.721-0.075,3.586-0.156,5.644-0.245c1.963-0.063,3.959-0.127,5.969-0.191c0.971-0.049,2.049-0.03,3.442-0.265
		c0.686-0.122,1.435-0.322,2.188-0.663c0.755-0.335,1.493-0.843,2.041-1.341c1.124-1.031,1.75-1.966,2.358-2.787
		c0.634-0.866,1.208-1.716,1.78-2.563c1.135-1.691,2.194-3.36,3.237-4.99c1.578-3.349,5.45-8.515,7.437-12.331l1.151-1.229
		c0.691-1.301,1.568-2.8,2.533-3.885l0.016,0.123c0.546-0.993,1.12-1.727,1.874-2.813c0.737-1.027,1.321-2.469,1.359-3.404
		l0.058,0.165c0.244-1.513-0.087-2.927-0.517-4.021c0.112,0.174,0.215,0.368,0.32,0.559c-0.467-1.275-1.085-2.298-1.643-3.138
		c-0.563-0.86-1.124-1.718-1.678-2.566c-0.589-0.822-1.171-1.634-1.741-2.429c-0.599-0.77-1.185-1.524-1.753-2.253l-0.073,0.461
		c-2.402-3.108-4.399-4.928-6.379-6.546c-1.962-1.656-3.939-3.101-6.636-5.323l0.127-0.015c-3.867-2.153-6.736-4.032-9.677-5.897
		c-2.939-1.854-5.959-3.647-10.114-5.27c1.036,0.403-0.341-0.374-0.223-0.409c-0.935-0.442-1.885-0.891-2.786-1.317
		c-0.96-0.435-1.964-0.817-2.92-1.039c-1.923-0.49-3.569-0.112-3.531,0.241c-0.988,0.112-1.641,0.338-2.15,0.552
		c-0.53,0.224-0.818,0.405-1.014,0.512c-0.387,0.222-0.418,0.094-0.733,0.231c0.071,0.032-0.104,0.308-0.277,0.63
		c-0.152,0.285-0.36,0.676-0.607,1.139c-0.105,0.196-0.208,0.381-0.313,0.543c-0.061,0.095-0.088,0.132-0.176,0.254
		c-0.085,0.115-0.171,0.231-0.259,0.35c-0.356,0.468-0.728,0.958-1.091,1.434l0.591-0.938c-1.403,1.818-2.663,3.683-3.876,5.572
		l1.204-0.78c-2.1,2.871-1.098,0.36-2.826,3.303l0.419,0.214c-2.686,4.102-4.738,6.231-7.355,10.229
		c-2.433,4.31-4.699,8.812-6.757,13.479c-0.502,1.178-1.009,2.35-1.471,3.563l-1.385,3.543c-0.462,1.274-0.929,2.764-0.889,4.479
		c0.013,0.425,0.059,0.855,0.14,1.282c0.088,0.407,0.204,0.784,0.313,1.173c0.127,0.38,0.297,0.745,0.451,1.114
		c0.174,0.356,0.379,0.691,0.573,1.033c0.837,1.32,1.885,2.341,2.902,3.216c1.024,0.875,2.04,1.62,2.973,2.361
		c0.933,0.739,1.785,1.471,2.47,2.251c0.685,0.772,1.19,1.607,1.569,2.543c0.766,1.865,0.892,4.049,0.712,6.193
		c-0.201,2.158-0.717,4.304-1.4,6.37l-0.549,0.641c-0.596,0.176-0.711,4.977-1.413,5.474l-0.436,2.06
		c-0.27,0.53-0.794,1.654-0.547,0.64c-0.674,1.806-0.607,1.879-0.937,3.24l-1.053,1.809c-3.009,6.948-5.424,12.956-9.529,19.934
		c-1.968,2.962-4.418,6.977-6.994,11.344c-1.288,2.185-2.6,4.457-3.889,6.731c-0.814,1.435-1.627,2.867-2.429,4.282
		c-0.957,1.705-1.933,3.375-2.782,4.964c1.553,0.367,3.079,0.728,4.569,1.08c0.732,0.179,1.427,0.377,2.107,0.579
		c0.524,0.149,0.896,0.244,1.34,0.354c0.87,0.211,1.613,0.379,2.478,0.551c0.761,0.143,1.492,0.281,2.189,0.412l0.338,0.061
		c0.129,0.024,0.124,0.017,0.19,0.028l0.304,0.043c0.206,0.032,0.42,0.07,0.635,0.121c0.107,0.026,0.217,0.053,0.319,0.098
		c0.094,0.058,0.143,0.165,0.174,0.266c0.054,0.211,0.007,0.435-0.068,0.64c-0.074,0.209-0.186,0.404-0.297,0.601l-0.518,0.91
		c-0.492,0.846-0.987,1.697-1.485,2.552c-2.011,3.411-4.137,6.849-6.265,10.298c-2.128,3.443-4.259,6.925-6.28,10.353
		c-0.988,1.653-1.965,3.035-2.975,3.722c-0.961,0.691-2.27,0.927-3.91,0.838c-0.396-0.108-1.562-0.172-1.572-0.118
		c-0.692-0.154-1.515-0.361-2.162-0.544c-0.314-0.092-0.572-0.188-0.759-0.282c-0.198-0.102-0.248-0.148-0.357-0.25
		c-0.163-0.212-0.264-0.356-0.317-0.803c-0.056-0.416-0.015-0.983,0.107-1.582c0.119-0.601,0.305-1.237,0.54-1.881
		c0.242-0.65,0.529-1.371,0.804-2.052c0,0,1.727-4.314,4.392-9.651c1.321-2.668,2.846-5.592,4.391-8.365
		c0.777-1.382,1.544-2.738,2.299-3.997c0.372-0.635,0.742-1.244,1.103-1.824c0.18-0.29,0.357-0.575,0.529-0.854l0.26-0.408
		c0.074-0.118,0.085-0.15,0.131-0.23c0.081-0.201,0.24-0.342,0.418-0.424c0.199-0.095,0.298-0.144,0.616-0.23
		c0.581-0.152,1.146-0.237,1.596-0.291c0.453-0.057,0.806-0.059,0.951-0.087c0.058-0.007,0.062-0.019,0.068-0.039
		c-0.017,0.026,0.075-0.121,0.126-0.18c0.08-0.087,0.077-0.115,0.107-0.155c0.051-0.075,0.12-0.128,0.186-0.161l0.012-0.006
		l0.006-0.003l0.003-0.001l0.001-0.001c-0.202,0.123,0.453-0.277-0.451,0.277l0.014,0.007l0.027,0.012l0.05,0.016
		c0.063,0.014,0.11,0,0.14-0.045c0.015-0.022,0.026-0.052,0.033-0.09l0.007-0.063l0-0.002l0-0.001
		c-0.039,0.024,0.343-0.21,0.18-0.111l-0.006,0.003l-0.013,0.006l-0.026,0.014l-0.052,0.034c-0.051,0.039-0.042,0.038-0.026,0.022
		c0.005-0.01,0.032-0.023,0.019-0.042c-0.017-0.036-0.039-0.08-0.071-0.133c-0.097-0.097-0.251-0.208-0.474-0.308
		c-0.442-0.199-1.104-0.359-1.963-0.419c-0.436-0.028-0.897-0.043-1.475,0.035c-0.558,0.069-1.25,0.229-1.677,0.808
		c-0.267,0.296-0.548,0.607-0.844,0.935c-0.273,0.318-0.559,0.651-0.859,1c-0.601,0.701-1.223,1.49-1.897,2.355
		c-1.342,1.732-2.824,3.8-4.44,6.236l0.073-0.359c-3.949,6.654-6.075,11.085-7.54,16.304c-0.452,0.254-1.161,1.778-1.481,3.775
		c-0.143,0.999-0.194,2.126,0.072,3.236c0.111,0.541,0.345,1.096,0.578,1.548c0.252,0.448,0.524,0.804,0.749,1.086l-0.222-0.168
		l0.215,0.214c0.35,0.311,0.734,0.574,1.145,0.793c0.386,0.204,0.762,0.353,1.117,0.474c0.717,0.238,1.324,0.37,1.896,0.522
		c1.169,0.303,2.403,0.634,3.741,0.816c1.335,0.17,2.819,0.185,4.279-0.267c1.463-0.419,2.783-1.364,3.633-2.402
		c-0.131,0.177-0.01,0.439-1.093,1.27c1.776-1.32,2.957-3.265,3.792-4.648c0.836-1.395,1.423-2.363,1.672-2.377
		c3.761-6.86,9.3-16.267,11.214-20.951l-0.073,0.355c0.258-0.676,0.497-1.217,0.733-1.693c0.068-0.132,0.134-0.26,0.199-0.386
		c0.096-0.175,0.189-0.346,0.282-0.515c0.187-0.333,0.363-0.651,0.518-0.978c0.313-0.65,0.556-1.329,0.607-2.105
		c0.024-0.387-0.007-0.803-0.155-1.24c-0.146-0.438-0.44-0.898-0.895-1.106c-0.142-0.147-0.379-0.32-0.319-0.311
		c-0.462-0.244-1.107-0.419-1.8-0.567c-0.625-0.132-1.291-0.272-1.982-0.417c-1.017-0.213-2.166-0.43-3.139-0.693
		c-0.515-0.142-1.026-0.282-1.52-0.419c-0.406-0.125-0.799-0.246-1.169-0.361c-0.467-0.15-0.885-0.252-1.259-0.303l0.24-0.206
		l-0.437-0.101c0.393-0.813,0.96-1.733,1.449-2.623l-0.768,1.193c-0.157-0.095-0.093-0.328,0.093-0.643
		c0.093-0.157,0.216-0.333,0.355-0.519c0.149-0.202,0.26-0.324,0.531-0.708c0.96-1.328,2.178-3.036,3.122-5.088
		c2.229-3.565,3.054-8.107,5.569-11.696c0.748-1.978-0.438,1.871,0.896-0.96c0.383,0.103-0.523,1.382,0.145,0.84
		c1.375-2.744,2.866-4.157,4.45-7.624l0.337,0.006c1.879-4.605,4.62-8.193,5.47-11.458c0.902-2.408,1.421-3.123,1.906-3.889
		c0.486-0.763,0.98-1.564,1.598-4.188c0.358-0.608,0.735-1.214,1.073-1.832c0.777-2.158,0.064-1.71,1.016-4.065
		c0.197,0.224,1.132-3.004,0.928-1.513c1.043-2.645,1.763-5.717,1.984-9.08c0.106-1.694,0.094-3.492-0.177-5.421
		c-0.26-1.921-0.855-4.005-2.012-6.055c-0.766-0.713-1.859-1.888-2.95-2.793c-1.085-0.919-2.099-1.668-2.675-1.895
		c-0.015-0.155-1.474-1.292-2.232-2.126c-0.395-0.417-0.637-0.761-0.643-0.853c0.008-0.095,0.18,0.069,0.889,0.609
		c0.234,0.188,0.657,0.568,0.568,0.606l0.535,0.077c-0.634-0.73-1.186-1.343-1.622-1.897c-0.422-0.556-0.74-1.052-0.994-1.591
		c-0.25-0.606-0.374-0.953-0.34-1.642c0.026-0.646,0.253-1.452,0.633-2.342c-0.554,1.051-0.794,2.256-0.777,1.376
		c0.303-1.012,0.832-2.135,1.366-3.4l-0.095,0.87l1.178-2.675c0.381-0.859,0.799-1.717,1.201-2.574l-0.597,0.593
		c1.296-2.489,2.184-3.151,3.208-6.185c0.43-1.396-1.568,2.205-0.316-0.501c1.874-3.284,4.822-8.129,7.346-12.221
		c-0.523,0.215,0.138-0.9,0.763-2.078l0.336,0.023c1.143-2.289,1.541-2.591,1.934-2.887c0.4-0.291,0.777-0.596,2.024-2.77
		l-0.069,0.484l0.212-1.451c1.035-2.029,1.524-2.429,2.024-2.88c0.25-0.226,0.496-0.481,0.836-0.934
		c0.172-0.223,0.365-0.499,0.591-0.856c0.11-0.18,0.231-0.379,0.365-0.599c0.191-0.286,0.424-0.672,0.579-1.004
		c-0.293,0.485-0.709,0.919-0.79,0.935c-0.131,0.072-0.18,0.005-0.141-0.167c0.029-0.159,0.288-0.591,0.496-1.004
		c0.227-0.424,0.489-0.91,0.757-1.189l-0.03,0.535c0.107-0.178,0.196-0.326,0.274-0.457c0.046-0.081,0.095-0.149,0.15-0.203
		c0.051-0.057,0.117-0.102,0.174-0.127c0.078-0.047,0.207-0.088,0.334-0.109c-0.205,0.145-0.21,0.264-0.061,0.294
		c0.16,0.038,0.424-0.022,1.017-0.05c-0.269,0.126-0.492,0.261-0.65,0.429c0.474-0.315,1.362-0.425,2.418-0.248
		c0.592,0.294,1.259,0.624,1.949,0.966c0.775,0.393,1.574,0.797,2.325,1.177c1.519,0.759,2.821,1.443,3.27,1.899
		c0,0,1.38,0.78,2.943,1.597c1.549,0.833,3.283,1.705,4.013,1.878c-1.234-0.384,1.726,1.423,0.706,1.215
		c0.793,0.255,2.228,0.97,3.668,1.762c1.41,0.827,2.82,1.735,3.498,2.424l-0.318-0.172c2.833,2.091,5.247,3.826,7.496,5.631
		c2.264,1.784,4.293,3.721,6.135,6.199c0.085-0.44,2.012,2.205,1.847,1.313c1.019,1.243,1.952,2.478,2.636,3.745
		c0.348,0.615,0.733,1.241,0.978,1.785c0.251,0.543,0.427,1.031,0.509,1.431c0.089,0.404,0.09,0.705,0.065,0.943
		c-0.027,0.236-0.069,0.432-0.163,0.715c-0.184,0.555-0.501,1.247-0.597,1.941c-1.813,2.585-2.407,2.839-3.375,4.126l0.353-0.652
		c-3.123,4.878-3.974,6.295-6.313,9.863c-1.036,1.858-0.677,2.49-2.872,5.597c0.455-1.17-0.346,0.163-1.126,1.347
		c0.464-0.781,0.539-1.065-0.623,0.399c-0.077,0.263-0.262,0.625-0.438,0.962c-0.025,0.002-0.079,0.055-0.081,0.008
		c-1.234,2.013-0.947,1.709-0.304,0.824c0.002,0.068,0.094,0.018,0.34-0.225c-0.813,0.932-1.769,2.339-2.6,3.485
		c-0.419,0.558-0.802,1.077-1.121,1.427c-0.312,0.348-0.541,0.519-0.664,0.495c-0.492,0.584-0.893,0.94-1.337,1.16
		c-0.465,0.233-1.061,0.38-1.747,0.464c-0.675,0.084-1.466,0.128-2.216,0.19c-0.752,0.061-1.488,0.121-2.216,0.18
		c-2.91,0.242-5.669,0.487-8.64,0.67c-0.676-0.202,0.708-0.445,2.432-0.589l-4.225,0.222c0.037-0.325,2.425-0.266,3.724-0.373
		c-1.266-0.088-2.525-0.081-3.847-0.017c-1.335,0.073-2.803,0.223-4.322,0.685c-1.53,0.451-3.019,1.294-4.244,2.291
		c-1.247,0.997-2.337,2.128-3.406,3.274c-0.205,0.39-0.399,0.781-0.583,1.171l-0.251,0.268c0.115,0.066-0.532,1.271-0.976,2.033
		c-0.699,0.546-0.509-0.42-2.137,2.068c-1.491,1.838-3.39,5.741-4.683,8.5c0.837-1.416,0.716-0.875,0.46-0.21
		c-0.71,1.288-1.35,1.904-1.77,2.966l-0.401-0.052c0.572-0.349-1.438,3.579-1.528,4.139c-0.626,0.619,0.81-2.14,0.796-2.562
		c-2.635,5.267-1.333,2.628-3.89,7.918c-1.1,2.945,0.568-0.357,0.218,1.136c-1.134,2.519-2.046,5.065-3.603,7.83l0.73-0.763
		c-1.972,4.797-3.331,7.581-5.142,10.579c-3.554,8.98-5.551,13.961-6.342,16.465c-0.788,2.503-0.37,2.508,0.555,1.423
		c0.908-1.106,2.353-3.315,3.493-5.28c1.162-1.957,2.07-3.647,2.07-3.647c3.74-6.685,6.125-11.954,8.571-17.557
		C303.242,166.09,305.664,160.09,309.751,152.154z"/>
	<path d="M86.888,178.513c-1.976-2.942-3.457-5.405-4.728-7.616c-1.278-2.237-2.375-4.248-3.473-6.242
		c-2.172-4.009-4.457-8.008-7.762-14.451c-0.738-1.56-1.462-3.153-2.164-4.765c-0.65-1.557-1.445-3.421-2.164-5.009
		c-0.716-1.62-1.369-3.193-1.816-4.684c-0.225-0.744-0.378-1.456-0.463-2.103c-0.044-0.326-0.053-0.618-0.055-0.893
		c0.019-0.258,0.019-0.469,0.1-0.808c-0.039-1.227,0.719-2.957,1.951-4.806c1.194-1.841,2.738-3.936,3.518-6.068
		c0.333-0.486,0.663-0.988,0.954-1.544c0.213-0.793,0.384-1.699,0.496-2.613c0.109-0.906,0.151-1.778,0.214-2.577l0.084,0.099
		c-0.26-2.369-0.711-4.773-1.09-5.78l0.104,0.066c-0.228-0.845-0.489-1.664-0.762-2.472l0.247,0.384
		c-0.67-1.682-1.346-3.378-2.008-5.036c-0.637-1.577-1.238-3.25-1.863-4.769l-0.211,0.388c-1.222-3.284-2.414-5.35-3.552-7.312
		c-1.148-1.96-2.287-3.812-3.636-6.572l0.115,0.029c-2.352-3.104-3.745-5.794-5.027-8.54c-0.666-1.394-1.205-2.697-2.017-4.288
		c-0.824-1.544-1.895-3.365-3.921-4.884c0.997,0.757-0.273-0.495-0.167-0.484c-0.23-0.186-0.482-0.354-0.73-0.523l-0.697-0.419
		c-0.45-0.284-0.952-0.503-1.417-0.737c-0.974-0.41-1.931-0.742-2.802-0.875c-1.738-0.304-2.94-0.078-2.966,0.257
		c-1.536-0.013-2.143,0.091-2.444,0.036c-0.301-0.045-0.278-0.16-0.499-0.251c0.039,0.154-0.601,0.359-1.475,0.694
		c-0.875,0.333-1.997,0.778-2.998,1.271c0.299-0.175,0.592-0.359,0.9-0.526c-2.03,0.893-3.654,1.957-5.411,2.93l1.297-0.069
		c-2.859,1.389-1.033-0.219-3.635,1.371l0.257,0.394c-3.892,2.039-6.494,2.661-10.397,4.417c-1.956,1.069-3.902,2.073-5.883,3.268
		c-1.982,1.201-4.095,2.613-5.837,4.689c-1.765,2.071-2.818,4.832-2.999,7.452c-0.222,2.641,0.228,5.146,0.893,7.46
		c0.666,2.323,1.588,4.494,2.561,6.556c0.968,2.043,1.959,4.054,2.993,6.015c2.045,3.935,4.225,7.681,6.377,11.271l0.118,0.812
		c-0.256,0.578,3.277,3.344,3.283,4.12l1.364,1.406c0.256,0.491,0.887,1.463,0.202,0.767c1.103,1.424,1.197,1.406,2.133,2.313
		l0.995,1.686c2.224,2.803,4.492,5.121,6.998,7.447c1.29,1.158,2.714,2.319,4.454,3.277c1.703,0.966,3.91,1.631,5.996,1.732
		c2.504,0.335,5.353-0.069,7.846,0.05c1.244,0.071,2.349,0.293,3.27,0.803c0.935,0.508,1.852,1.401,2.738,2.537
		c0.878,1.121,1.788,2.506,2.697,3.802c0.906,1.304,1.799,2.589,2.663,3.832c1.72,2.491,3.322,4.813,4.676,6.774
		c7.828,10.923,13.987,25.37,21.327,36.941c0.154,0.424,0.85,1.358,0.896,1.323c1.978,3.683,3.939,7.376,5.849,11.094
		c0,0,1.756,3.37,4.057,7.786c0.574,1.105,1.182,2.274,1.805,3.474c0.623,1.162,1.253,2.533,2.317,3.88
		c0.543,0.667,1.151,1.313,1.985,1.829l0.626,0.379c0.219,0.103,0.446,0.188,0.669,0.276c0.444,0.198,0.906,0.267,1.358,0.358
		c1.831,0.289,3.47-0.19,4.78-0.849c1.317-0.679,2.336-1.622,3.028-2.618c0.716-0.984,1.004-2.078,1.097-2.906
		c0.073-0.856-0.099-1.463-0.236-1.779c-0.139-0.307-0.289-0.304-0.403-0.1c-0.066,0.122-0.133,0.314-0.203,0.568
		c-0.05,0.255-0.165,0.569-0.316,0.937c-0.303,0.725-0.86,1.654-1.908,2.451c-0.509,0.408-1.156,0.76-1.895,1.021
		c-0.732,0.272-1.594,0.417-2.458,0.337c-0.864-0.076-1.709-0.403-2.321-1.019c-0.673-0.65-1.202-1.623-1.71-2.873l0.233,0.198
		c-0.717-1.54-1.368-2.936-1.971-4.23c-0.62-1.315-1.213-2.517-1.808-3.642c-1.177-2.258-2.341-4.22-3.698-6.196
		c0.273-0.994-2.594-5.045-3.159-6.574l0.123,0.108c-2.472-3.45-3.76-7.836-6.173-11.142c0.125,0.11,0.334,0.094,0.802,0.902
		c-1.52-2.542-3.658-5.979-3.424-6.368c-3.591-6.089-8.505-14.655-11.438-18.167l0.257,0.206c-1.716-1.972-1.804-2.811-3.521-5.139
		c-0.039-0.161-0.124-0.349-0.088-0.333c-1.847-2.157-4.443-6.891-5.837-8.696l0.144-0.269l-3.113-4.65l1.1,1.779
		c-0.506-0.102-0.99-1.048-1.677-2.361c-0.686-1.28-1.564-3.094-3.347-4.602c-0.733-0.783-1.686-1.45-2.763-1.866
		c-1.082-0.406-2.211-0.565-3.282-0.56c-2.145,0.035-4.066,0.549-6.04,0.495c-1.835,0.458,1.594-0.654-1.153-0.227
		c-0.106-0.378,1.265-0.309,0.544-0.576c-1.333,0.168-2.406,0.084-3.462-0.125c-1.06-0.22-2.049-0.528-3.429-1.131l0.038-0.319
		c-1.822-0.71-3.248-2.172-4.468-3.541c-1.232-1.407-2.32-2.712-3.484-3.615c-3.168-3.222-1.348-2.815-4.747-6.072
		c-0.278-0.553-0.536-1.12-0.797-1.681c-1.163-1.621-1.261-0.843-2.418-2.746c0.273-0.032-1.441-2.41-0.503-1.484
		c-1.275-2.158-2.779-4.199-4.284-6.49c-1.505-2.286-3.021-4.822-4.203-7.913c-1.084-1.049-2.259-4.201-2.992-5.003
		c0.059-0.122-0.563-1.622-0.89-2.7c-0.329-1.08-0.448-1.711,0.327-0.113c0.13,0.275,0.317,0.782,0.226,0.777l0.426,0.293
		c-0.387-1.769-0.92-3.238-1.355-4.708c-0.432-1.458-0.738-2.947-0.515-4.462c-0.229,0.875-0.152,2.164-0.362,1.314
		c0.003-1.002,0.173-1.95,0.442-2.84c0.024,0.209,0.038,0.407,0.091,0.618c0.336-1.331,0.976-2.466,1.877-3.461
		c-0.196,0.077-0.4,0.157-0.589,0.249c0.667-0.761,1.326-1.121,1.959-1.544c0.65-0.419,1.305-0.887,2.326-1.789
		c0.906-0.865-2.139,0.879-0.047-0.57c1.425-0.774,3.409-1.688,5.435-2.675c2.034-0.988,4.164-2.046,6.099-3.06
		c-0.525-0.104,0.512-0.661,1.539-1.306l0.266,0.194c3.865-2.603,1.803-0.243,5.675-2.754L29.3,71.523l0.77-1.137
		c1.67-1.252,2.268-1.425,2.821-1.555c0.568-0.126,1.116-0.362,2.873-1.386c-0.739,0.279-0.977,0.183-0.785-0.045
		c0.19-0.226,0.835-0.627,1.813-0.76c-0.142,0.131-0.281,0.248-0.415,0.387c1.02-0.289,1.36-0.463,2.054-0.441
		c-0.304,0.099-0.371,0.208-0.184,0.275c0.189,0.063,0.625,0.076,1.342,0.1c-0.327,0.086-0.648,0.223-0.955,0.342
		c0.875-0.211,1.782-0.29,2.722-0.207c0.496,0.218,1.056,0.466,1.631,0.768c0.284,0.163,0.581,0.301,0.862,0.491l0.426,0.262
		l0.343,0.242c0.876,0.667,1.529,1.596,1.618,2.09c0,0,0.631,1.014,1.321,2.386c0.695,1.373,1.613,3.031,2.122,3.492
		c-0.803-0.911,0.636,1.996-0.085,1.338c0.993,1.207,3.438,4.938,4.048,6.621l-0.202-0.271c2.998,5.799,6.012,9.321,7.91,14.679
		c0.236-0.381,1.191,2.449,1.318,1.605c1.305,2.715,2.093,5.359,2.621,7.449c0.547,2.111,0.848,3.669,1.654,4.57
		c0.205,1.253,0.098,1.978-0.016,2.53c-0.075,0.266-0.142,0.501-0.209,0.739c-0.088,0.225-0.167,0.452-0.229,0.727l0.016-0.525
		c-0.128,1.005-0.413,1.839-0.744,2.576c-0.314,0.736-0.677,1.369-1.028,1.971c-0.726,1.212-1.495,2.272-2.587,3.953
		c-0.481,0.886-0.613,1.51-0.852,2.29c-0.203,0.808-0.618,1.718-1.164,3.579c0.098-1.251-0.378,0.185-0.492,1.813
		c0.027-0.51,0.033-0.849-0.022-0.801c-0.034,0.04-0.225,0.511-0.282,1.54c0.071,0.296,0.174,0.709,0.244,1.108
		c-0.02,0.02-0.024,0.097-0.056,0.061c0.214,1.212,0.399,1.651,0.435,1.705c0.047,0.045-0.009-0.327-0.1-0.868
		c0.047,0.049,0.08-0.054,0.097-0.403c0.021,1.256,0.487,2.871,0.944,4.152c0.454,1.289,0.862,2.289,0.711,2.502
		c0.657,1.519,1.319,2.854,1.887,4.102c0.602,1.317,1.205,2.549,1.818,3.733c1.228,2.368,2.477,4.558,3.803,6.913
		c0.085,0.642-0.683-0.382-1.472-1.749c0.604,1.132,1.22,2.256,1.848,3.372c-0.3,0.124-1.202-1.862-1.791-2.894
		c1.621,4.342,4.923,8.06,7.236,12.873l0.785,0.818l0.127,0.294c0.107-0.082,0.878,0.847,1.322,1.5
		c0.15,0.789-0.585,0.289,0.799,2.534c0.872,1.94,3.293,5.002,4.976,7.163c-0.791-1.249-0.394-0.941,0.045-0.471
		c0.751,1.087,0.944,1.88,1.631,2.644l-0.238,0.32c-0.006-0.628,2.29,2.609,2.705,2.909c0.207,0.773-1.384-1.525-1.741-1.68
		c3.094,4.284,1.547,2.142,4.64,6.423c1.867,2.119-0.007-0.623,1.045,0.276c1.503,1.975,3.131,3.789,4.562,6.257l-0.238-0.931
		c2.883,3.667,4.372,6.037,5.746,8.866c5.139,6.989,7.54,11.241,8.897,13.214c1.358,1.974,1.614,1.668,1.427,0.393
		c-0.243-1.293-0.971-3.625-1.796-5.553c-0.383-0.981-0.783-1.86-1.09-2.492c-0.303-0.636-0.494-1.035-0.494-1.035
		c-1.507-3.193-3.045-5.878-4.603-8.322c-1.551-2.453-3.132-4.663-4.797-6.896C95.331,189.575,91.574,185.078,86.888,178.513z"/>
</g>
<g>
	<path fill-rule="evenodd" clip-rule="evenodd" fill="#CBCCCA" d="M183.457,16.064c-53.96,0-97.81,43.24-98.82,96.95h197.63
		C281.257,59.304,237.407,16.064,183.457,16.064z M223.637,32.644c-4.89-3.62-9.3-6.14-14.88-8.54c-3.92-1.68-1.48-0.4-5.29-2.67
		c3.44-0.68,2.66-0.82,6.11-0.38c19.13,2.45,41.67,22.08,52.59,41.7c3.6,6.47,7.12,16.44,8.37,23.56l-12.45-3.54
		C256.617,67.884,235.187,41.164,223.637,32.644z"/>
	<path fill-rule="evenodd" clip-rule="evenodd" fill="#CBCCCA" d="M183.453,86.431c13.032,0,26.097,0.463,39.088,1.52
		c10.764,0.876,21.629,2.147,32.238,4.189c7.529,1.449,15.911,3.413,22.908,6.597c5.929,2.698,12.269,7.141,12.269,14.401
		c0,7.26-6.34,11.703-12.269,14.401c-6.997,3.184-15.38,5.148-22.908,6.597c-10.609,2.042-21.474,3.313-32.238,4.189
		c-12.99,1.057-26.055,1.52-39.088,1.52c-13.031,0-26.096-0.463-39.087-1.52c-10.764-0.876-21.629-2.147-32.239-4.189
		c-7.529-1.449-15.911-3.413-22.908-6.597c-5.929-2.698-12.269-7.141-12.269-14.401c0-7.26,6.34-11.703,12.269-14.401
		c6.997-3.184,15.379-5.148,22.908-6.597c10.61-2.042,21.475-3.313,32.239-4.189C157.357,86.894,170.422,86.431,183.453,86.431z"/>
	<path fill-rule="evenodd" clip-rule="evenodd" fill="#CBCCCA" d="M185.973,207.416c63.326,0,114.975-11.697,114.975-26.039
		c0-14.341-51.649-26.038-114.975-26.038S70.997,167.036,70.997,181.377C70.997,195.718,122.646,207.416,185.973,207.416z"/>
</g>
<g>
	<path fill-rule="evenodd" clip-rule="evenodd" fill="#2E3F1C" d="M198.817,15.484c-0.02-1.34-0.21-2.64-0.54-3.88
		c-1.79-6.7-7.75-11.6-14.82-11.6s-13.04,4.9-14.82,11.6c-0.33,1.24-0.52,2.54-0.54,3.88l-0.02,0.85h30.75L198.817,15.484z
		 M174.367,12.834c0.01-0.65,0.11-1.29,0.28-1.9c0.99-3.62,4.56-6.29,8.81-6.29c4.24,0,7.82,2.67,8.81,6.29
		c0.17,0.61,0.27,1.25,0.28,1.9H174.367z"/>
	<path fill-rule="evenodd" clip-rule="evenodd" fill="#273819" d="M282.267,113.134c0,0.63-0.16,1.24-0.47,1.85
		c-0.05,0.02-0.1,0.04-0.15,0.06c-0.07,0.2-0.15,0.41-0.24,0.62c-1.42,3.16-7.09,5.94-10.34,6.55l-2.18,0.17
		c2.12-1.77,5.15-3.39,7.3-5.27c-20.75,6.98-52.66,9.36-69.55,9.46c-2.8,0.01-4.92,0.09-7.69-0.5c2.01-0.58,1.16-0.41,3.35-0.71
		c13.29-1.82,36.85-4.19,56.47-8.81c-16.78,2.75-34.6,3.82-45.8,3.89c-2.79,0.01-4.92,0.09-7.68-0.5c2.01-0.58,1.16-0.41,3.34-0.71
		c12.04-1.65,32.51-3.75,50.83-7.56c-16.33,2.57-33.41,3.58-44.28,3.64c-1.56,0.01-2.91,0.04-4.29-0.04
		c-8.71,0.48-17.91,0.74-27.43,0.74c-9.52,0-18.73-0.26-27.44-0.74c-1.37,0.08-2.73,0.05-4.29,0.04
		c-10.87-0.06-27.95-1.07-44.28-3.64c18.33,3.81,38.79,5.91,50.83,7.56c2.19,0.3,1.34,0.13,3.35,0.71c-2.77,0.59-4.89,0.51-7.69,0.5
		c-11.2-0.07-29.01-1.14-45.79-3.89c19.61,4.62,43.17,6.99,56.47,8.81c2.18,0.3,1.33,0.13,3.34,0.71c-2.76,0.59-4.89,0.51-7.68,0.5
		c-17.37-0.1-50.63-2.62-71.29-10.07c2.15,2.15,5.61,3.92,7.96,5.88l-2.19-0.17c-3.25-0.61-8.92-3.39-10.33-6.55
		c-3.6-8.06,12.76-12.26,18.24-13.48c0.02,0,0.04,0,0.05-0.01c7.66-2.08,17.46-3.86,28.78-5.21c15.1-1.8,32.9-2.84,51.96-2.84
		c38.12,0,71.19,4.15,87.67,10.24c2.37,0.87,4.39,1.78,6.03,2.72c2.31,1.33,3.88,2.71,4.62,4.15
		C282.097,111.864,282.267,112.494,282.267,113.134z"/>
</g>
<g>
	<path fill-rule="evenodd" clip-rule="evenodd" fill="#999A9A" d="M95.966,87.762c0.566-3.218,1.702-8.436,2.296-10.524
		c5.576-19.602,21.932-36.259,39.285-46.096c5.44-3.084,16.602-8.041,22.797-8.079l2.992,0.365
		c-3.306,2.299-4.043,2.405-7.496,4.143c-20.397,10.268-44.722,33.059-46.911,56.996C104.621,85.436,100.231,86.453,95.966,87.762z"
		/>
	<path fill-rule="evenodd" clip-rule="evenodd" fill="#999A9A" d="M185.973,194.044c48.786,0,88.576-6.906,88.576-15.374
		c0-8.468-39.791-15.374-88.576-15.374c-48.788,0-88.577,6.906-88.577,15.374C97.396,187.138,137.185,194.044,185.973,194.044z"/>
	<path fill-rule="evenodd" clip-rule="evenodd" fill="#999A9A" d="M79.617,183.784c19.466,10.151,49.717,14.13,71.454,17.31
		c3.369,0.493,1.952,0.242,5.272,0.98c-3.219,0.123-2.145,0.154-5.368-0.011c-21.158-1.082-54.074-5.593-73.11-14.953
		c-0.918-0.485-1.271-1.62-0.786-2.539C77.562,183.653,78.699,183.301,79.617,183.784z"/>
</g>
</svg>
