<?xml version="1.0" encoding="utf-8"?>
<!-- Generator: Adobe Illustrator 24.3.0, SVG Export Plug-In . SVG Version: 6.00 Build 0)  -->
<svg version="1.1" id="Layer_3" xmlns="http://www.w3.org/2000/svg" xmlns:xlink="http://www.w3.org/1999/xlink" x="0px" y="0px"
	 viewBox="0 0 308.716 103.203" enable-background="new 0 0 308.716 103.203" xml:space="preserve">
<g>
	<path fill="#0057F2" d="M304.448,5.162c-0.24-0.07-0.47-0.13-0.7-0.2c-4.17-1.28-8.53-2.3-13.07-3.07s-9.25-1.29-14.1-1.54
		c-23.33-1.21-44.21,0.72-63.85,5.93c-6.9,1.84-14.15,4.06-22.8,7.01c-2.65,0.9-5.17,2.08-7.6,3.21c-2.33,1.09-4.53,2.12-6.85,2.94
		c-2.26,0.79-5.11,0.15-7.86-0.47c-1.2-0.28-2.45-0.56-3.65-0.72c-8.79-1.19-17.69-1.2-26.44-0.03l-0.2,0.03
		c-0.88,0.12-1.72,0.23-2.5,0.18c-1.42-0.09-2.78-0.79-4.21-1.53c-0.77-0.4-1.57-0.81-2.42-1.14c-1.49-0.59-3.02-1.18-4.54-1.77
		l-2.41-0.93c-15.41-5.98-32.67-9.2-51.32-9.56c-13.22-0.25-26.22,1.51-38.8,3.22c-4.03,0.55-8.06,1.09-12.12,1.58
		c-4.85,0.58-10.32,2.36-16.26,5.27c-0.69,0.34-1.41,0.73-1.96,1.45c-0.65,0.84-1.22,2.34-0.32,4.77c1.55,4.18,5.03,7.29,7.83,9.79
		c15.05,13.42,30.61,27.29,48.07,38.22l1.19,0.75c9.78,6.12,19.01,11.91,31.05,12.35c0.53,0.02,1.06,0.03,1.59,0.03
		c8.79,0,17.57-2.65,24.88-7.54c2.14-1.43,4.28-3.12,6.54-5.18c4.52-4.11,8.54-8.76,11.94-13.82c0.72-1.08,1.42-2.17,2.11-3.26
		c1.4-2.2,2.84-4.47,4.47-6.49c3.91-4.82,9.67-7.88,15.04-7.99c3.99-0.1,7.57,1.52,10.3,4.63c1.47,1.68,2.55,3.66,3.69,5.77
		c0.51,0.94,1.02,1.88,1.56,2.8c2.45,4.09,5.66,7.71,8.47,10.7c3.09,3.29,6.52,6.71,10.64,9.39c3.02,1.96,6.5,3.59,10.62,4.96
		c8.16,2.72,15.37,3.35,24.11,2.12c7.9-1.11,15.75-3.15,23.33-6.07c3.08-1.19,6.14-2.53,9.09-3.99
		c11.67-5.76,21.99-13.4,30.68-22.71c1.99-2.13,3.9-4.35,5.67-6.61c6.44-8.23,11.09-17.55,14.42-24.75c0.53-1.14,1-2.27,0.96-3.59
		C308.608,6.262,305.898,5.542,304.448,5.162z M124.348,44.822c-0.39,0.4-0.76,0.78-1.08,1.14c-5.11,5.77-11.01,10.84-16.71,15.74
		l-0.03,0.02c-4.69,4.03-10.25,6.46-15.86,7.22c-6.24,0.83-12.54-0.41-17.74-3.84c-10.08-6.66-19.4-15.45-28.49-26.88l-0.67-0.83
		c-2.72-3.39-5.67-7.16-6.75-9.66c-0.03-0.07-0.06-0.13-0.09-0.2c-0.05-0.13-0.1-0.26-0.14-0.38c-0.55-1.6-1.14-3.96-0.03-5.86
		c1.28-2.17,3.87-2.66,7.46-3.33l0.43-0.08c13.48-2.54,25.39-1.66,33.01-0.47c10.48,1.64,20.51,4.28,31.59,7.31
		c3.52,0.96,7.5,2.04,11.07,3.96c4.22,2.27,6.84,4.68,7.81,7.17c0.04,0.1,0.07,0.2,0.11,0.31c0.01,0.05,0.03,0.1,0.04,0.15
		c0.01,0.04,0.03,0.09,0.04,0.13c0.02,0.08,0.04,0.15,0.05,0.23c0,0.01,0.01,0.02,0.01,0.02c0.09,0.45,0.12,0.89,0.1,1.32
		C128.338,40.702,126.088,43.022,124.348,44.822z M267.508,21.712c-0.07,0.91-0.38,1.99-1.05,3.27c-8.66,16.41-18.95,27.86-31.45,35
		c-2.78,1.58-6.49,3.49-10.58,4.16c-0.21,0.04-0.42,0.07-0.63,0.1c-8.16,1.1-15.92-2.73-21.1-5.74c-4.64-2.69-9.08-5.8-13.22-9.25
		c-0.33-0.28-0.71-0.58-1.13-0.92c-2.53-2.03-6.48-5.19-8.02-8.82c-0.46-1.08-0.71-2.22-0.63-3.37c0.01-0.12,0.02-0.24,0.04-0.36
		v-0.04c0.03-0.25,0.08-0.49,0.14-0.73c0.01-0.03,0.02-0.05,0.02-0.08c0.03-0.1,0.06-0.2,0.09-0.3c0.01-0.02,0.02-0.04,0.02-0.06
		c0.04-0.12,0.08-0.24,0.13-0.35c0.01-0.03,0.02-0.05,0.03-0.08c0.04-0.09,0.08-0.19,0.13-0.28c0.01-0.03,0.03-0.07,0.04-0.1
		c0.06-0.12,0.12-0.23,0.18-0.35c0.93-1.69,2.42-2.8,3.75-3.71c10.24-7,22.39-9.31,34.14-11.54l2.25-0.43
		c11.99-2.3,26.18-4.26,40.53-1.35c0.78,0.15,1.56,0.33,2.33,0.51c0.72,0.18,1.92,0.46,2.85,1.41c0.03,0.03,0.06,0.07,0.1,0.1
		c0,0.01,0.01,0.02,0.02,0.03c0.03,0.03,0.06,0.07,0.09,0.1c0,0.01,0.01,0.01,0.01,0.02
		C267.108,19.182,267.628,20.202,267.508,21.712z"/>
	<path fill="#0057F2" d="M19.949,78.544c-1.628,4.606-4.376,10.327-4.707,15.215c-0.451,1.692-0.857,3.586-0.013,5.119
		c1.318,2.393,4.723,2.429,7.396,1.87c3.98-0.832,7.832-2.279,11.375-4.273c1.032-0.58,2.052-1.22,2.845-2.098
		c1.081-1.199,1.664-2.754,2.222-4.269c2.834-7.692,5.669-15.383,8.502-23.074c-5.879-4.1-11.563-8.475-17.109-13.034
		C26.22,61.772,22.884,70.238,19.949,78.544z"/>
	<path fill="#0057F2" d="M142.076,1.549c-7.628-0.142-15.269,0.003-22.874,0.652c-6.563,0.56-12.891,0.683-19.364,1.802
		c6.868,1.478,13.629,3.434,20.194,5.983c2.309,0.896,4.655,1.791,6.94,2.694c2.347,0.928,4.506,2.613,7.131,2.781
		c1.009,0.064,2.018-0.085,3.02-0.218c8.618-1.15,17.39-1.136,26.006,0.027c3.915,0.529,8.473,2.45,12.275,1.11
		c4.937-1.741,9.443-4.442,14.432-6.14c3.218-1.095,6.449-2.152,9.692-3.173c-12.966-2.663-26.191-3.904-39.406-4.733
		C154.112,1.955,148.097,1.661,142.076,1.549z"/>
	<path fill="#0057F2" d="M283.284,90.498c-1.134-4.829-2.579-9.58-4.024-14.326c-1.56-5.128-3.12-10.255-4.68-15.382
		c-5.13,3.81-10.605,7.158-16.335,9.988c-1.773,0.876-3.576,1.685-5.394,2.46c0.148,0.996,0.337,2.014,0.423,3.084
		c0.35,4.317,0.457,8.945,3.056,12.622c1.839,2.603,4.663,4.305,7.403,5.932c3.051,1.811,6.101,3.622,9.17,5.404
		c2.635,1.531,5.479,3.088,8.521,2.908c0.625-0.037,1.277-0.162,1.76-0.56c0.603-0.496,0.826-1.313,0.953-2.083
		C284.688,97.207,284.058,93.792,283.284,90.498z"/>
</g>
<g>
	<path fill="#1776FF" d="M267.5,23.554c0.126-1.522-0.393-2.555-0.911-3.186c-0.004-0.005-0.008-0.01-0.012-0.014
		c-0.03-0.036-0.06-0.071-0.09-0.104c-0.008-0.009-0.015-0.017-0.023-0.026c-0.034-0.037-0.067-0.073-0.1-0.107
		c-0.922-0.943-2.123-1.231-2.842-1.404c-0.769-0.185-1.552-0.358-2.331-0.516c-14.355-2.91-28.546-0.95-40.535,1.35l-2.248,0.429
		c-11.749,2.234-23.897,4.544-34.137,11.547c-1.33,0.909-2.827,2.021-3.751,3.706c-0.065,0.117-0.124,0.235-0.18,0.353
		c-0.016,0.032-0.031,0.064-0.045,0.096c-0.044,0.096-0.086,0.191-0.125,0.286c-0.01,0.024-0.02,0.048-0.03,0.072
		c-0.047,0.118-0.09,0.236-0.129,0.354c-0.007,0.02-0.013,0.04-0.019,0.06c-0.033,0.102-0.063,0.204-0.09,0.305
		c-0.007,0.025-0.013,0.05-0.02,0.075c-0.062,0.243-0.109,0.485-0.142,0.726c-0.002,0.015-0.004,0.03-0.006,0.045
		c-0.015,0.12-0.027,0.24-0.036,0.36c0,0,0,0,0,0.001c-0.078,1.157,0.169,2.291,0.635,3.384c-0.002-0.004-0.004-0.007-0.006-0.011
		c1.539,3.621,5.49,6.787,8.022,8.815c0.42,0.337,0.804,0.644,1.132,0.918c4.133,3.448,8.58,6.562,13.218,9.257
		c5.177,3.009,12.939,6.831,21.102,5.735c0.21-0.028,0.42-0.06,0.63-0.094c4.086-0.676,7.797-2.582,10.573-4.168
		c12.504-7.137,22.792-18.584,31.45-34.993c0.676-1.282,0.98-2.367,1.053-3.275C267.504,23.537,267.502,23.545,267.5,23.554z
		 M262.885,24.92c-8.289,15.71-18.063,26.627-29.881,33.372c-2.484,1.418-5.778,3.119-9.232,3.69
		c-5.424,0.899-11.463-0.741-19.046-5.148c-4.441-2.581-8.701-5.564-12.66-8.866c-0.346-0.289-0.751-0.614-1.195-0.969
		c-2.851-2.283-8.043-6.454-6.955-9.472c1.157,2.48,4.663,5.23,6.671,6.802c0.443,0.346,0.847,0.663,1.193,0.946
		c3.939,3.212,8.183,6.115,12.617,8.629c6.204,3.515,11.373,5.209,16.002,5.209c1.008,0,1.991-0.08,2.952-0.239
		c3.439-0.567,6.725-2.235,9.203-3.625c11.802-6.618,21.58-17.296,29.894-32.641c0.043,0.01,0.087,0.018,0.13,0.029
		c0.191,0.046,0.769,0.185,0.894,0.293C263.517,23.03,263.548,23.663,262.885,24.92z"/>
	<path fill="#1776FF" d="M128.468,39.392c0.03-0.43,0-0.88-0.09-1.33c0-0.01-0.01-0.02-0.01-0.03c-0.01-0.07-0.03-0.15-0.05-0.23
		c-0.01-0.04-0.03-0.08-0.04-0.13c-0.01-0.05-0.03-0.1-0.04-0.15c-0.04-0.1-0.07-0.2-0.11-0.31c-0.97-2.49-3.59-4.9-7.81-7.16
		c-3.57-1.92-7.55-3.01-11.07-3.97c-11.08-3.03-21.11-5.67-31.59-7.3c-7.62-1.19-19.53-2.08-33.01,0.46l-0.43,0.08
		c-3.59,0.67-6.18,1.16-7.46,3.34c-1.11,1.9-0.52,4.25,0.03,5.86c0.04,0.12,0.09,0.24,0.14,0.37c0.03,0.07,0.06,0.14,0.09,0.2
		c1.08,2.5,4.03,6.27,6.75,9.66l0.67,0.83c9.09,11.43,18.41,20.23,28.49,26.88c5.2,3.44,11.5,4.68,17.74,3.84
		c5.61-0.75,11.17-3.19,15.86-7.21l0.03-0.03c5.7-4.9,11.6-9.97,16.71-15.74c0.32-0.36,0.69-0.74,1.08-1.14
		c1.74-1.79,3.99-4.12,4.13-6.81C128.478,39.382,128.478,39.382,128.468,39.392z M121.448,42.012c-0.43,0.44-0.83,0.86-1.2,1.27
		c-4.93,5.57-10.72,10.55-16.32,15.36l-0.03,0.02c-8.54,7.34-20.37,8.6-28.75,3.07c-9.72-6.42-18.73-14.93-27.55-26.02
		c-0.19-0.24-0.42-0.53-0.68-0.85c-1.69-2.1-5.64-7.01-6.31-9c-0.63-1.86-0.42-2.42-0.37-2.52c0.06,0.22,0.13,0.46,0.23,0.74
		c0.59,1.71,3.65,5.58,6.25,8.75l0.38-0.29l-0.37,0.3l0.68,0.83c8.78,10.82,17.76,19.12,27.45,25.36c3.44,2.22,7.47,3.31,11.62,3.31
		c5.89,0,12.01-2.19,17.03-6.41c5.61-4.72,11.41-9.6,16.35-15.06c0.36-0.39,0.75-0.79,1.21-1.25c1.04-1.06,2.07-2.14,2.6-3.06
		c0.02,0.03,0.04,0.06,0.05,0.09v0.01l0.23-0.11c0.1,0.15,0.2,0.3,0.27,0.45c0.01,0.01,0.01,0.01,0.02,0.02
		c0.05,0.1,0.09,0.19,0.13,0.29C124.828,38.522,122.878,40.532,121.448,42.012z"/>
</g>
</svg>
