<?xml version="1.0" encoding="utf-8"?>
<!-- Generator: Adobe Illustrator 24.3.0, SVG Export Plug-In . SVG Version: 6.00 Build 0)  -->
<svg version="1.1" id="Layer_5" xmlns="http://www.w3.org/2000/svg" xmlns:xlink="http://www.w3.org/1999/xlink" x="0px" y="0px"
	 viewBox="0 0 211.566 211.558" enable-background="new 0 0 211.566 211.558" xml:space="preserve">
<g>
	<path fill="#0086B5" d="M207.249,185.656h-20.842c-3.562,0-6.476-2.902-6.476-6.476v-4.317c0-3.574,2.913-6.476,6.476-6.476
		c4.388,0,20.842,0,20.842,0c2.394,0,4.317-1.934,4.317-4.317c0-0.767-0.201-1.486-0.543-2.111
		c-5.756-11.842-17.917-19.474-31.092-19.474c-12.326,0-23.779,6.688-29.901,17.268h-16.183v-15.982
		c-2.854,0.46-5.732,0.861-8.634,1.18v14.803h-12.951v-13.848c-2.147,0.083-4.305,0.118-6.476,0.118c-0.719,0-1.439,0-2.159-0.012
		v13.741H86.36v-14.803c-2.902-0.318-5.78-0.719-8.634-1.18v15.982H61.543c-6.134-10.58-17.575-17.268-29.913-17.268
		c-13.258,0-25.513,7.738-31.21,19.733c-1.356,2.854,0.731,6.169,3.904,6.169h20.83c3.574,0,6.476,2.902,6.476,6.476v4.317
		c0,3.574-2.902,6.476-6.476,6.476H4.325c-3.173,0-5.261,3.303-3.904,6.169c5.697,11.984,17.952,19.733,31.21,19.733
		c12.338,0,23.779-6.7,29.913-17.268h88.487c6.122,10.568,17.575,17.268,29.901,17.268c13.27,0,25.513-7.749,31.21-19.733
		c0.637-1.333,0.543-2.902-0.248-4.164C210.104,186.411,208.724,185.656,207.249,185.656z M55.044,188.121
		c-2.135,4.506-5.497,8.198-9.578,10.781c-4.069,2.571-8.858,4.022-13.836,4.022c-7.431,0-14.437-3.244-19.285-8.634h12.81
		c8.339,0,15.11-6.782,15.11-15.11v-4.317c0-8.339-6.77-15.11-15.11-15.11h-12.81c4.848-5.39,11.854-8.634,19.285-8.634
		c12.869,0,24.274,9.684,25.749,23.036C57.922,179.086,57.049,183.887,55.044,188.121z M146.48,185.656H65.082
		c1.415-5.438,1.498-11.512,0-17.268h81.398C144.971,174.227,145.1,180.289,146.48,185.656z M179.931,202.924
		c-13.057,0-24.369-9.896-25.761-23.178c-1.604-15.263,10.415-28.627,25.761-28.627c7.431,0,14.449,3.244,19.297,8.634h-12.821
		c-8.327,0-15.11,6.77-15.11,15.11v4.317c0,8.327,6.782,15.11,15.11,15.11h12.821C194.381,199.68,187.362,202.924,179.931,202.924z"
		/>
</g>
<g>
	<path fill="#00BBED" d="M58.229,121.431l-36.636-20.347V51.816c0-2.383-1.934-4.317-4.317-4.317c-2.383,0-4.317,1.934-4.317,4.317
		v51.804c0,1.569,0.849,3.02,2.217,3.774l38.865,21.585c2.076,1.156,4.706,0.413,5.862-1.675
		C61.072,125.218,60.317,122.599,58.229,121.431z"/>
	<path fill="#00BBED" d="M84.108,117.102L38.861,92.427V25.348l6.24,4.152c1.993,1.321,4.671,0.79,5.992-1.191
		c1.321-1.982,0.79-4.671-1.203-5.992c-13.682-9.106-12.927-8.658-13.423-8.905c-0.896-0.448-1.887-0.554-2.819-0.354
		c-0.625,0.13-1.132,0.413-1.132,0.413c-0.342,0.177,0.083-0.071-13.317,8.846c-1.982,1.321-2.524,3.999-1.191,5.992
		c1.321,1.993,4.01,2.512,5.98,1.191l6.24-4.164v69.65c0,1.581,0.861,3.031,2.253,3.798l45.246,24.675v20.311
		c2.854,0.46,5.732,0.861,8.634,1.18v-24.062C86.36,119.308,85.499,117.857,84.108,117.102z"/>
	<path fill="#00BBED" d="M161.909,56.133C161.909,25.183,136.738,0,105.787,0S49.654,25.183,49.654,56.133
		c0,30.219,24.027,54.942,53.975,56.086v33.793c0.72,0.012,1.439,0.012,2.159,0.012c2.17,0,4.329-0.035,6.476-0.118v-34.017
		C140.17,108.657,161.909,84.89,161.909,56.133z M112.263,103.184V80.644l9.601-3.845c7.278-2.913,11.984-9.861,11.984-17.693
		V43.182c0-2.383-1.934-4.317-4.317-4.317s-4.317,1.934-4.317,4.317v15.923c0,4.282-2.571,8.08-6.558,9.672l-6.393,2.56V51.816
		c0-2.383-1.934-4.317-4.317-4.317c-2.383,0-4.317,1.934-4.317,4.317v36.188l-2.878-1.439c-3.55-1.769-5.756-5.343-5.756-9.318
		V64.767c0-2.383-1.934-4.317-4.317-4.317c-2.383,0-4.317,1.934-4.317,4.317v12.479c0,7.266,4.034,13.8,10.533,17.044l6.735,3.362
		v5.921c-25.194-1.132-45.341-21.974-45.341-47.44c0-26.185,21.314-47.499,47.499-47.499s47.487,21.314,47.487,47.499
		C153.274,80.125,135.393,100.011,112.263,103.184z"/>
	<path fill="#00BBED" d="M181.335,94.987v-69.65l6.251,4.164c1.97,1.321,4.659,0.79,5.98-1.191c1.321-1.993,0.79-4.671-1.191-5.992
		c-13.517-9-12.951-8.658-13.317-8.846c-1.144-0.613-2.63-0.719-3.951-0.059c-0.507,0.248,0.177-0.153-13.435,8.905
		c-1.982,1.321-2.512,3.999-1.191,5.992c1.321,1.982,3.999,2.512,5.98,1.191l6.24-4.152v67.079l-45.234,24.676
		c-1.392,0.755-2.253,2.206-2.253,3.786v24.062c2.902-0.318,5.78-0.719,8.634-1.18V123.46l45.246-24.675
		C180.474,98.018,181.335,96.567,181.335,94.987z"/>
	<path fill="#00BBED" d="M194.298,47.499c-2.383,0-4.317,1.934-4.317,4.317v49.268l-36.636,20.358
		c-2.088,1.156-2.843,3.786-1.687,5.862c1.168,2.088,3.786,2.843,5.874,1.675l38.853-21.585c1.38-0.755,2.229-2.206,2.229-3.774
		V51.816C198.615,49.434,196.681,47.499,194.298,47.499z"/>
</g>
</svg>
