<?xml version="1.0" encoding="utf-8"?>
<!-- Generator: Adobe Illustrator 26.0.1, SVG Export Plug-In . SVG Version: 6.00 Build 0)  -->
<svg version="1.1" id="Layer_6" xmlns="http://www.w3.org/2000/svg" xmlns:xlink="http://www.w3.org/1999/xlink" x="0px" y="0px"
	 viewBox="0 0 147.632 202.241" enable-background="new 0 0 147.632 202.241" xml:space="preserve">
<g>
	<polygon fill="#C10896" points="30.745,161.409 80.125,189.915 80.125,183.756 30.745,155.246 	"/>
	<polygon fill="#C10896" points="30.745,149.088 80.125,177.593 80.125,171.435 30.745,142.924 	"/>
	<polygon fill="#C10896" points="30.745,136.766 80.125,165.271 80.125,159.113 30.745,130.603 	"/>
	<polygon fill="#C10896" points="30.745,124.444 80.125,152.951 80.125,146.788 30.745,118.281 	"/>
	<polygon fill="#C10896" points="30.745,112.123 80.125,140.628 80.125,134.466 30.745,105.959 30.745,110.824 	"/>
	<polygon fill="#C10896" points="30.745,99.796 80.125,128.308 80.125,122.144 30.745,93.638 	"/>
	<polygon fill="#C10896" points="30.745,87.474 80.125,115.981 80.125,109.823 30.745,81.316 	"/>
	<polygon fill="#C10896" points="30.745,186.056 58.779,202.241 69.449,202.241 30.745,179.893 	"/>
	<polygon fill="#C10896" points="80.125,196.078 30.745,167.571 30.745,173.736 80.125,202.241 	"/>
	<polygon fill="#C10896" points="37.433,202.241 30.745,202.241 30.745,198.378 30.745,197.493 30.745,192.216 48.107,202.241 
		38.596,202.241 	"/>
</g>
<g>
	<polygon fill="#472E40" points="86.821,113.69 86.821,202.241 124.254,202.241 124.254,166.853 124.254,117.627 124.254,0 
		65.814,33.74 65.814,93.823 86.821,105.956 86.821,107.425 	"/>
	<polygon fill="#472E40" points="130.955,111.942 130.955,202.241 147.632,202.241 147.632,121.569 	"/>
	<polygon fill="#472E40" points="24.049,202.241 24.049,143.059 0,156.942 0,202.241 	"/>
</g>
</svg>
