<?xml version="1.0" encoding="utf-8"?>
<!-- Generator: Adobe Illustrator 24.3.0, SVG Export Plug-In . SVG Version: 6.00 Build 0)  -->
<svg version="1.1" id="Layer_1" xmlns="http://www.w3.org/2000/svg" xmlns:xlink="http://www.w3.org/1999/xlink" x="0px" y="0px"
	 viewBox="0 0 225.473 228.541" enable-background="new 0 0 225.473 228.541" xml:space="preserve">
<g>
	<path fill="#F36C24" d="M11.672,174.198c67.022,11.194,133.57,11.37,200.654-0.09c-2.417,3.014-4.788,6.024-7.215,8.988
		c-9.378,11.452-18.611,23.031-28.289,34.225c-2.18,2.521-5.732,4.61-8.996,5.326c-37.58,8.234-75.219,7.51-112.804-0.105
		c-2.15-0.435-4.711-1.377-6.034-2.958C36.41,204.552,24.061,189.332,11.672,174.198z"/>
	<path fill="#F36C24" d="M0,162.796c7.473-5.835,15.107-6.924,22.516-8.234c40.203-7.107,80.747-7.851,121.403-6.035
		c22.436,1.002,44.806,2.63,66.709,8.055c2.091,0.518,4.263,1.005,6.144,1.99c2.056,1.076,3.818,2.715,5.708,4.108
		c-1.817,1.293-3.459,3.171-5.482,3.773c-6.502,1.935-13.063,3.914-19.744,4.96c-36.465,5.703-73.189,7.505-110.002,5.272
		c-21.874-1.327-43.68-3.885-65.478-6.247c-5.037-0.546-9.96-2.412-14.845-3.959C4.845,165.819,2.993,164.421,0,162.796z"/>
</g>
<g>
	<path fill="#F79355" d="M91.813,106.641l-89.12-61.81c-0.31,2.33-0.47,4.65-0.47,6.96c0,16.96,8.29,33.06,22.46,42.89l47.23,32.76
		c1.66,1.14,3.89,0.94,5.3-0.49l2.43-2.46l12.64-12.8c0.42-0.43,0.7-0.94,0.84-1.49C93.463,108.911,93.003,107.471,91.813,106.641z
		 M52.773,111.351c-7.09-4.72-14.11-9.54-21.12-14.38c-1.74-1.24-3.49-2.39-5.23-3.7l-1.31-0.97l-1.25-1.03
		c-0.85-0.68-1.65-1.41-2.43-2.17c-3.12-3-5.92-6.35-8.18-10.04c-4.57-7.34-7.17-15.84-7.51-24.36c1.11,8.45,4.17,16.53,8.81,23.52
		c2.35,3.48,5.08,6.69,8.17,9.51c0.77,0.7,1.54,1.4,2.37,2.05l1.21,0.99l1.27,0.92c1.67,1.24,3.48,2.43,5.22,3.64
		c6.99,4.87,13.96,9.76,20.87,14.74c6.92,4.96,13.77,10.03,20.55,15.2C66.993,120.741,59.843,116.101,52.773,111.351z"/>
	<path fill="#F79355" d="M151.433,150.761c-0.1-0.06-13.77-9.57-27.88-19.39h-0.01c-3.33-2.32-6.68-4.65-9.88-6.88
		c-0.21-0.15-0.42-0.29-0.62-0.43c-0.61-0.42-1.21-0.84-1.8-1.26c-9.29-6.46-16.86-11.72-18.12-12.6c-0.13-0.09-0.19-0.13-0.19-0.13
		l-14.41,14.45l1.12-0.03l0.49-0.02c2.52,0.01,7.68,0.37,13.11,2.74c1.78,0.78,3.68,2.28,5.68,4.16c0.47,0.43,0.95,0.89,1.42,1.37
		c0.23,0.22,0.45,0.44,0.67,0.67c2.81,2.86,5.79,6.2,8.84,9.15c0.21-0.2,0.43-0.39,0.65-0.58c0.03-0.03,0.06-0.06,0.09-0.09
		c0.22-0.2,0.44-0.41,0.65-0.62c0.45-0.44,0.9-0.89,1.35-1.32l2-2.14c0.65-0.73,1.27-1.48,1.96-2.2c-0.5,0.85-1.05,1.66-1.58,2.5
		c-0.57,0.81-1.19,1.58-1.8,2.36c-0.41,0.49-0.85,0.96-1.29,1.43c-0.21,0.23-0.43,0.46-0.64,0.68c-0.03,0.03-0.05,0.05-0.08,0.08
		c-0.21,0.19-0.41,0.37-0.61,0.56c0.23,0.22,0.46,0.43,0.69,0.64c3.08,2.81,6.23,5.1,9.37,5.97c9.84,2.75,13.65,10.02,13.65,10.02
		c8.85,17.25,18.14,7.74,19.98,5.11C157.443,160.421,156.153,154.041,151.433,150.761z M98.483,123.771c-0.69,1-2.07,1.25-3.07,0.56
		c-1-0.7-1.25-2.07-0.55-3.07c0.69-1,2.07-1.25,3.07-0.55C98.933,121.401,99.173,122.771,98.483,123.771z M118.743,147.651
		c-1.89-0.71-3.62-1.77-5.18-3.01c-0.58-0.43-1.1-0.92-1.63-1.42c0.23-0.22,0.46-0.44,0.69-0.67c0.5,0.45,1,0.91,1.56,1.3
		c1.49,1.22,3.12,2.26,4.86,3.08c0.87,0.4,1.76,0.75,2.7,1c0.92,0.27,1.89,0.41,2.87,0.37
		C122.673,148.751,120.593,148.351,118.743,147.651z M135.253,151.961c-1-0.69-1.25-2.07-0.55-3.07c0.69-1,2.06-1.25,3.07-0.55
		c1,0.69,1.24,2.06,0.55,3.06S136.253,152.651,135.253,151.961z M145.793,168.751c-1.55,0.14-2.96-0.61-4.1-1.46
		c-1.11-0.93-2.08-1.98-2.85-3.16c-0.82-1.13-1.43-2.4-2.01-3.66c0.91,1.06,1.73,2.17,2.63,3.19c0.43,0.53,0.9,1.01,1.37,1.49
		c0.44,0.52,0.98,0.91,1.47,1.35c1.04,0.79,2.2,1.44,3.45,1.47c1.25,0.04,2.5-0.67,3.42-1.7
		C148.583,167.511,147.343,168.631,145.793,168.751z M150.933,165.081c1.83-2.83,2.11-6.58,0.59-9.52c-0.7-1.49-1.84-2.75-3.17-3.68
		l-4.19-2.83l-16.68-11.43c-2.01-1.41-4.01-2.81-6.02-4.21c-3.41-2.39-6.82-4.77-10.22-7.19c-0.11-0.07-0.21-0.14-0.32-0.22
		c-0.12-0.09-0.24-0.17-0.36-0.26c-0.58-0.41-1.17-0.83-1.75-1.25c-4.79-3.41-9.56-6.84-14.29-10.34c5.01,3.26,9.97,6.58,14.91,9.91
		c0.6,0.41,1.2,0.82,1.8,1.23h0.01c0.04,0.03,0.08,0.05,0.12,0.08c0.18,0.12,0.37,0.25,0.55,0.37c3.42,2.31,6.82,4.65,10.22,6.99
		c1.97,1.36,3.94,2.72,5.92,4.07l16.55,11.62l4.12,2.94c1.39,1.04,2.56,2.4,3.24,3.99
		C153.403,158.511,152.963,162.371,150.933,165.081z"/>
	<path fill="#F79355" d="M219.783,44.831l-89.11,61.81c-1.2,0.82-1.66,2.27-1.32,3.56c0.14,0.55,0.42,1.06,0.85,1.49l12.63,12.8
		l2.43,2.46c1.41,1.43,3.65,1.63,5.3,0.49l47.23-32.76c14.18-9.83,22.46-25.92,22.46-42.89
		C220.253,49.481,220.093,47.161,219.783,44.831z M209.233,79.061c-2.27,3.69-5.06,7.04-8.19,10.04c-0.77,0.76-1.58,1.49-2.42,2.17
		l-1.26,1.03l-1.3,0.97c-1.74,1.31-3.49,2.46-5.24,3.7c-7,4.84-14.03,9.66-21.11,14.38c-7.08,4.75-14.22,9.39-21.44,13.92
		c6.78-5.17,13.62-10.24,20.55-15.2c6.9-4.98,13.88-9.87,20.87-14.74c1.73-1.21,3.54-2.4,5.22-3.64l1.26-0.92l1.22-0.99
		c0.82-0.65,1.59-1.35,2.36-2.05c3.09-2.82,5.82-6.03,8.17-9.51c4.64-6.99,7.7-15.07,8.82-23.52
		C216.403,63.221,213.793,71.721,209.233,79.061z"/>
	<path fill="#F79355" d="M129.543,110.071c0,0-0.06,0.04-0.19,0.13c-1.26,0.88-8.83,6.14-18.11,12.6c-0.6,0.42-1.2,0.84-1.81,1.26
		c-0.2,0.14-0.41,0.28-0.62,0.43c-3.2,2.23-6.55,4.56-9.89,6.88c-14.11,9.82-27.78,19.33-27.87,19.39
		c-4.72,3.28-6.02,9.66-2.82,14.2c1.85,2.63,11.14,12.14,19.98-5.11c0,0,3.82-7.27,13.66-10.02c3.14-0.88,6.29-3.16,9.37-5.97
		c0.23-0.21,0.46-0.43,0.69-0.64c0.23-0.22,0.46-0.44,0.69-0.67c3.06-2.94,6.03-6.28,8.84-9.14c0.23-0.23,0.45-0.46,0.67-0.68
		c0.48-0.47,0.95-0.93,1.41-1.36h0.01c2-1.88,3.9-3.38,5.68-4.16c5.43-2.37,10.59-2.73,13.11-2.74l0.49,0.02l1.12,0.03
		L129.543,110.071z M83.633,164.131c-0.77,1.18-1.74,2.23-2.84,3.16c-1.14,0.85-2.56,1.6-4.11,1.46c-1.55-0.12-2.79-1.24-3.37-2.48
		c0.92,1.03,2.17,1.74,3.41,1.7c1.25-0.03,2.42-0.68,3.45-1.47c0.5-0.44,1.03-0.83,1.47-1.35c0.48-0.48,0.95-0.96,1.37-1.49
		c0.91-1.02,1.72-2.13,2.64-3.19C85.063,161.731,84.463,163.001,83.633,164.131z M87.223,151.961c-1,0.69-2.37,0.44-3.07-0.56
		c-0.69-1-0.44-2.37,0.56-3.06c1-0.7,2.37-0.45,3.07,0.55C88.473,149.891,88.223,151.271,87.223,151.961z M114.973,138.111
		c-0.57,0.81-1.19,1.58-1.8,2.36c-0.41,0.49-0.85,0.96-1.29,1.43c-0.21,0.23-0.43,0.46-0.64,0.68c-0.03,0.03-0.05,0.05-0.08,0.08
		c-0.21,0.19-0.41,0.37-0.61,0.56c-0.53,0.5-1.05,0.99-1.64,1.42c-1.55,1.24-3.29,2.3-5.17,3.01c-1.86,0.7-3.94,1.1-5.88,0.65
		c0.98,0.04,1.95-0.1,2.88-0.37c0.93-0.25,1.83-0.6,2.7-1c1.73-0.82,3.36-1.86,4.86-3.08c0.55-0.39,1.05-0.85,1.55-1.29
		c0.21-0.2,0.43-0.39,0.65-0.58c0.03-0.03,0.06-0.06,0.09-0.09c0.22-0.2,0.44-0.41,0.65-0.62c0.45-0.44,0.9-0.89,1.35-1.32l2-2.14
		c0.65-0.73,1.27-1.48,1.96-2.2C116.053,136.461,115.503,137.271,114.973,138.111z M104.633,134.521c1-0.69,2.37-0.44,3.07,0.56
		c0.69,1,0.44,2.37-0.56,3.06c-1,0.7-2.37,0.45-3.07-0.55C103.383,136.591,103.633,135.221,104.633,134.521z M111.553,126.001
		c-5.49,3.91-11.04,7.74-16.55,11.62l-16.69,11.43l-4.19,2.83c-1.33,0.93-2.47,2.19-3.16,3.68c-1.52,2.94-1.25,6.69,0.59,9.52
		c-2.03-2.71-2.48-6.57-1.04-9.73c0.69-1.59,1.86-2.95,3.25-3.99l4.11-2.94l16.56-11.62c5.56-3.81,11.1-7.66,16.68-11.43
		c5.59-3.78,11.18-7.54,16.84-11.22C122.533,118.171,117.043,122.091,111.553,126.001z M127.063,124.331
		c-1,0.69-2.37,0.44-3.07-0.56c-0.69-1-0.44-2.37,0.56-3.06c1-0.7,2.37-0.45,3.07,0.55
		C128.313,122.261,128.063,123.631,127.063,124.331z"/>
</g>
<g>
	<g>
		<path fill="#292929" d="M71.812,29.831c-6.49,0.983-11.482,5.503-14.113,10.802c-2.583,5.33-2.763,11.71-0.771,17.204
			c1.951,5.506,6.297,10.086,11.721,12.649c2.723,1.25,5.7,2.061,8.743,2.01c3.038,0.018,6.15-0.855,8.638-2.988
			c-1.764,2.802-5.087,4.513-8.438,5.08c-1.694,0.296-3.428,0.316-5.156,0.154c-1.717-0.175-3.401-0.596-5.038-1.16
			c-6.54-2.254-12.126-7.586-14.495-14.295c-2.388-6.622-1.835-14.298,1.893-20.278c1.807-2.988,4.402-5.42,7.347-7.131
			C65.118,30.222,68.566,29.387,71.812,29.831z"/>
	</g>
	<g>
		<path fill="#292929" d="M77.32,44.546c2.566,3.705,4.818,7.645,6.772,11.725c1.955,4.083,3.618,8.306,5.037,12.61
			c1.408,4.308,2.55,8.708,3.358,13.168c0.846,4.453,1.214,8.991,1.238,13.513l-0.996,0.089c-0.923-4.404-1.609-8.798-2.593-13.141
			c-0.936-4.346-1.908-8.689-3.213-12.944c-1.252-4.268-2.71-8.48-4.371-12.617c-0.803-2.082-1.729-4.111-2.63-6.158
			c-0.932-2.032-1.943-4.026-2.966-6.028L77.32,44.546z"/>
	</g>
	<g>
		<path fill="#292929" d="M148.593,42.216c-1.625,4.441-3.532,8.625-5.386,12.869c-1.857,4.238-3.461,8.58-4.937,12.966
			c-1.466,4.391-2.667,8.874-3.59,13.421c-1.046,4.54-1.309,9.18-1.828,13.824l-0.163-0.002c-0.158-0.294-0.073-0.585-0.088-0.878
			l0.015-0.877l0.031-1.755l0.031-1.757l0.131-1.751l0.272-3.508l0.453-3.49l0.231-1.747l0.312-1.733
			c0.216-1.154,0.4-2.317,0.642-3.467c0.525-2.29,1.046-4.586,1.714-6.842c1.257-4.534,2.854-8.975,4.729-13.292
			c1.872-4.309,4.113-8.508,7.281-12.075L148.593,42.216z"/>
	</g>
	<g>
		<path fill="#FFFFFF" d="M146.032,119.335c-20.618-5.294-42.239-5.294-62.857,0c-1.531-5.962-3.062-11.924-4.592-17.886
			c23.631-6.067,48.411-6.067,72.042,0C149.094,107.41,147.563,113.373,146.032,119.335z"/>
		<path fill="#292929" d="M146.287,119.765c-1.363-0.217-2.815-0.457-4.245-0.767l-3.89-0.699l-3.905-0.575l-3.918-0.452
			c-5.238-0.47-10.497-0.583-15.724-0.312c-5.227,0.255-10.419,0.725-15.596,1.328c-1.29,0.185-2.584,0.335-3.882,0.472
			c-1.296,0.152-2.591,0.321-3.899,0.433c-1.299,0.163-2.608,0.287-3.929,0.385c-1.318,0.115-2.638,0.239-3.998,0.241l-0.516,0
			l-0.093-0.36l-4.592-17.886l-0.124-0.485l0.484-0.124c5.898-1.507,11.864-2.758,17.893-3.704l4.533-0.648l4.556-0.506l4.573-0.398
			l4.589-0.259c6.127-0.251,12.289-0.056,18.399,0.651l4.568,0.637c1.515,0.257,3.032,0.517,4.531,0.859
			c1.49,0.389,2.969,0.827,4.42,1.356c1.439,0.583,2.864,1.204,4.228,2.012l0.448,0.265l-0.088,0.343
			C149.554,107.65,147.922,113.747,146.287,119.765z M145.778,118.904c1.426-5.906,2.856-11.734,4.363-17.58l0.36,0.608
			c-1.586,0.101-3.11,0.014-4.621-0.111c-1.518-0.088-3.011-0.263-4.491-0.489c-1.488-0.183-2.961-0.441-4.434-0.706l-4.442-0.645
			c-5.929-0.814-11.901-1.383-17.908-1.634l-4.51-0.116l-4.517,0.031l-4.516,0.209l-4.512,0.351
			c-6.009,0.575-11.987,1.602-17.842,3.112l0.36-0.608l4.592,17.886l-0.608-0.36c1.214-0.617,2.467-1.11,3.723-1.613
			c1.27-0.44,2.553-0.851,3.846-1.225c1.298-0.346,2.612-0.629,3.923-0.932c1.322-0.239,2.648-0.458,3.978-0.646
			c5.327-0.724,10.723-0.921,16.083-0.666c5.36,0.271,10.688,0.824,15.954,1.682l3.943,0.667l3.917,0.79l3.885,0.911
			C143.446,118.126,144.568,118.504,145.778,118.904z"/>
	</g>
	<g>
		<path fill="#292929" d="M62.909,43.041c5.974-12.263,16.064-22.507,27.847-29.723c5.88-3.672,12.257-6.519,18.832-8.742
			c6.597-2.173,13.445-3.577,20.366-4.269c3.46-0.307,6.994-0.432,10.563-0.147c3.558,0.298,7.186,0.976,10.584,2.431
			c6.823,2.872,12.3,8.262,15.601,14.632c1.612,3.206,2.831,6.629,3.32,10.174c0.501,3.529,0.469,7.101-0.109,10.561
			c-1.155,6.918-4.286,13.383-8.825,18.446c3.643-5.723,5.962-12.182,6.386-18.738c0.541-6.544-0.951-13.068-4.187-18.552
			c-0.848-1.346-1.718-2.68-2.759-3.876c-0.483-0.627-1.042-1.188-1.564-1.779c-0.565-0.549-1.107-1.123-1.707-1.63
			c-2.358-2.075-5.037-3.764-7.93-4.845c-5.779-2.28-12.376-2.347-18.911-1.698c-6.573,0.563-13.081,1.88-19.405,3.794
			c-6.345,1.867-12.458,4.482-18.307,7.603C81.056,23.007,70.672,31.869,62.909,43.041z"/>
	</g>
	<g>
		<path fill="#292929" d="M140.03,68.356c2.006,0.705,3.684,2.136,5.453,3.063c1.755,0.985,3.657,1.639,5.582,2.047
			c1.935,0.359,3.903,0.518,5.832,0.287c1.919-0.217,3.876-0.613,5.324-1.588c1.524-0.922,2.732-2.392,3.565-4.072
			c0.875-1.676,1.304-3.577,1.429-5.509c0.211-3.929-0.944-7.959-2.209-11.949c2.271,3.497,4.128,7.491,4.333,11.954
			c0.128,2.23-0.315,4.507-1.22,6.6c-0.934,2.078-2.432,3.995-4.456,5.283c-1.02,0.629-2.147,1.073-3.249,1.341
			c-1.101,0.272-2.2,0.441-3.316,0.502c-2.224,0.107-4.458-0.139-6.559-0.8c-2.104-0.641-4.08-1.658-5.79-2.988
			C143.029,71.179,141.739,69.586,140.03,68.356z"/>
	</g>
</g>
</svg>
