<?xml version="1.0" encoding="utf-8"?>
<!-- Generator: Adobe Illustrator 24.3.0, SVG Export Plug-In . SVG Version: 6.00 Build 0)  -->
<svg version="1.1" id="Layer_1" xmlns="http://www.w3.org/2000/svg" xmlns:xlink="http://www.w3.org/1999/xlink" x="0px" y="0px"
	 viewBox="0 0 305.725 367.45" enable-background="new 0 0 305.725 367.45" xml:space="preserve">
<g>
	<path fill="#7B9C3F" d="M154.132,35.791c0,0-18.834,31.847-5.564,64.787c0,0-67.558-8.245-49.386-100.578
		C99.183,0,137.155,9.737,154.132,35.791z"/>
</g>
<g>
	<path fill="#71C8B7" d="M154.106,96.093L154.106,96.093c28.079-1.934,49.273-26.264,47.339-54.343l-1.729-25.094l0,0
		c-28.078,1.934-49.273,26.264-47.339,54.343L154.106,96.093z"/>
	<g>
		<path fill="#71C8B7" d="M98.009,237.202l0.374,77.317c0.141,29.081-21.62,52.779-48.604,52.93h0
			c-26.984,0.152-48.973-23.3-49.114-52.382l-0.369-76.197L98.009,237.202z"/>
	</g>
	<path fill="#71C8B7" d="M0.375,223.438l-0.374-77.317c-0.141-29.081,21.62-52.779,48.604-52.93h0
		c26.984-0.152,48.973,23.3,49.114,52.382l0.369,76.197L0.375,223.438z"/>
	<path fill="#71C8B7" d="M226.355,206.118l54.942-54.942c20.665-20.665,20.665-54.17,0-74.835l0,0
		c-20.665-20.665-54.17-20.665-74.835,0l-54.146,54.146L226.355,206.118z"/>
</g>
<g>
	<path fill="#44BEAA" d="M78.966,238.98l-24.218,0.414l1.463,82.04c0.127,7.133,5.547,12.834,12.168,12.797h0
		c6.752-0.038,12.17-6.021,12.041-13.297L78.966,238.98z"/>
	<path fill="#44BEAA" d="M54.676,221.705l24.218-0.414l-1.463-82.04c-0.127-7.133-5.547-12.834-12.168-12.797h0
		c-6.752,0.038-12.17,6.021-12.041,13.297L54.676,221.705z"/>
	<path fill="#44BEAA" d="M211.926,71.226l-18.351,18.745l59.119,57.485c5.14,4.998,13.342,4.941,18.412-0.129l0,0
		c5.171-5.171,5.112-13.572-0.13-18.671L211.926,71.226z"/>
</g>
<g>
	<g>
		<path fill="#DB3329" d="M305.351,237.202l0.374,77.317c0.141,29.081-21.62,52.779-48.604,52.93h0
			c-26.984,0.152-48.973-23.3-49.114-52.382l-0.369-76.197L305.351,237.202z"/>
	</g>
	<path fill="#DB3329" d="M207.717,223.438l-0.374-77.317c-0.141-29.081,21.62-52.779,48.604-52.93h0
		c26.984-0.152,48.973,23.3,49.114,52.382l0.369,76.197L207.717,223.438z"/>
	<path fill="#D83427" d="M78.216,206.118l-54.942-54.942c-20.665-20.665-20.665-54.17,0-74.835l0,0
		c20.665-20.665,54.17-20.665,74.835,0l54.146,54.146L78.216,206.118z"/>
</g>
<g>
	<path fill="#C32627" d="M286.308,237.202l-24.218,0.414l1.463,82.04c0.127,7.133,5.547,12.834,12.168,12.797h0
		c6.752-0.038,12.17-6.021,12.041-13.297L286.308,237.202z"/>
	<path fill="#C32627" d="M262.018,221.705l24.218-0.414l-1.463-82.04c-0.127-7.133-5.547-12.834-12.168-12.797h0
		c-6.752,0.038-12.17,6.021-12.041,13.297L262.018,221.705z"/>
	<path fill="#C32627" d="M92.645,71.226l18.351,18.745l-59.119,57.485c-5.14,4.998-13.342,4.941-18.412-0.129l0,0
		c-5.171-5.171-5.112-13.572,0.13-18.671L92.645,71.226z"/>
</g>
</svg>
