<?xml version="1.0" encoding="utf-8"?>
<!-- Generator: Adobe Illustrator 24.3.0, SVG Export Plug-In . SVG Version: 6.00 Build 0)  -->
<svg version="1.1" id="Layer_1" xmlns="http://www.w3.org/2000/svg" xmlns:xlink="http://www.w3.org/1999/xlink" x="0px" y="0px"
	 viewBox="0 0 317.071 304" enable-background="new 0 0 317.071 304" xml:space="preserve">
<g>
	<g>
		<path fill="#461B0D" d="M106.387,142.327l8.528-2.262l0.003,0.01l10.675-2.832l2.261,8.523c0.931,2.275,7.717,2.42,10.153,1.762
			c4.823-1.304,8.727-4.488,8.201-7.049l-2.168-8.174l18.781-4.815c22.014-5.839,44.593,7.273,50.432,29.287l-8.323,2.208
			c-6.738-24.924-33.811-14.885-31.282-5.53l2.299,8.502l1.397,5.166l-1.529,1.872l-16.301,20.207l-0.204,0.253l-4.001-14.801
			l-0.032,0.008l-1.76-6.634l-0.002-0.007l-0.407-1.533c-0.812-2.486-5.531-3.386-10.605-2.014
			c-2.437,0.659-8.253,4.166-7.935,6.603l2.261,8.523l-19.203,5.094l-11.235-42.357l0,0L106.387,142.327z"/>
	</g>
</g>
<g>
	<g>
		<path fill="#FEE6A0" d="M142.352,204.194c0,3.08,2.343,5.64,5.403,5.904l2.466,0.217c3.977-0.236,8.776-0.529,12.507-0.756
			c0.179-0.009,0.359-0.009,0.538-0.019h0.094c0.567,0,1.124,0.057,1.672,0.142c1.247-1.115,2.05-2.73,2.05-4.553
			c0-3.231-2.522-5.913-5.753-6.093c-0.293-0.019-0.614-0.038-0.916-0.057c-3.675-0.217-8.19-0.482-11.789-0.699
			c-0.123,0-0.236-0.009-0.359-0.009C145.026,198.271,142.352,200.906,142.352,204.194z"/>
	</g>
	<g>
		<path fill="#FEE6A0" d="M149.478,214.299c0.222-0.013,0.459-0.028,0.687-0.041c4.036-0.242,8.975-0.539,12.799-0.772
			c0.134-0.008,0.267-0.012,0.399-0.012c0.336,0,0.664,0.032,0.988,0.082c0.494,0.076,0.972,0.206,1.425,0.389
			c2.13,0.859,3.728,2.819,4.017,5.242c0.265,2.215-0.622,4.278-2.163,5.635c-0.078,0.002-0.153,0.004-0.232,0.007
			c-3.771,0.106-8.26,0.23-11.877,0.33c-1.915,0.053-3.764,0.661-5.343,1.702l-0.124,0.004c-0.068,0.002-0.135,0.003-0.202,0.003
			c-3.172,0-5.862-2.372-6.241-5.542C143.181,217.729,145.865,214.515,149.478,214.299z"/>
	</g>
	<g>
		<path fill="#FEE6A0" d="M149.541,235.915c0.274,3.25,2.995,5.743,6.254,5.743h0.227c1.181-0.708,2.494-1.171,3.873-1.332
			c3.476-0.397,7.841-0.888,11.345-1.285c0.227-0.028,0.453-0.057,0.671-0.076c0.368-0.047,0.746-0.066,1.115-0.066
			c0.51,0,1.02,0.047,1.511,0.123c0.897-1.219,1.379-2.758,1.237-4.393c-0.293-3.363-3.098-5.923-6.452-5.923h-0.189
			c-0.047,0-0.113,0.009-0.161,0.009c-0.17,0-0.35,0.009-0.52,0.009c-3.949,0.113-8.899,0.255-12.828,0.359
			c-1.578,0.047-3.004,0.671-4.081,1.663C150.165,232.023,149.362,233.893,149.541,235.915z"/>
	</g>
	<g>
		<path fill="#FEE6A0" d="M155.426,250.793c0.472,2.711,2.834,4.667,5.545,4.667c0.161,0,0.321-0.009,0.482-0.019l12.054-1.02
			c0.624-0.057,1.219-0.208,1.776-0.444c2.409-1.02,3.92-3.599,3.448-6.339c-0.321-1.87-1.521-3.382-3.098-4.185
			c-0.793-0.397-1.681-0.623-2.607-0.623c-0.047,0-0.094,0.009-0.142,0.009c-0.179,0-0.35,0.009-0.529,0.028
			c-0.019,0-0.047,0.009-0.076,0.009c-2.003,0.227-4.336,0.491-6.65,0.756c-1.842,0.208-3.665,0.416-5.29,0.605
			c-1.19,0.132-2.239,0.623-3.07,1.36C155.842,246.845,155.077,248.781,155.426,250.793z"/>
	</g>
	<g>
		<path fill="#FEE6A0" d="M161.538,193.16c0,0,3.826,2.116,8.568,2.116c3.798,0,8.19-1.36,11.657-6.282
			c0,0,0.699,12.734,8.615,20.253c1.549,1.474,3.372,2.749,5.517,3.684l0.633,2.352l0.605,2.277l7.33,27.338l26.904,13.971
			c7.878-9.286,12.441-21.217,12.441-33.903v-3.797l-18.184-9.692l-2.059-1.096l-2.05-1.096l-17.467-32.43l-24.098-6.527
			l-0.066,0.085L161.538,193.16z"/>
	</g>
</g>
<g>
	<g>
		<path fill="#071534" d="M254.345,116.531c-4.654-3.113-10.894,0.221-10.894,5.82v93.437c0,24.126-14.31,45.88-36.456,55.435
			l-32.733,14.129c-10.002,4.317-21.342,4.316-31.343-0.004h0l-28.055-12.112l-4.679-2.013c-8.717-3.765-16.226-9.424-22.113-16.378
			c-9.076-10.697-14.332-24.442-14.332-39.057v-90.956c0-5.483-6.014-8.84-10.68-5.96c-0.047,0.029-0.094,0.058-0.142,0.087
			c-2.066,1.275-3.326,3.532-3.326,5.96v90.868c0,1.056,0.022,2.1,0.065,3.134c0.664,15.747,6.268,30.558,15.595,42.572
			c7.552,9.729,17.542,17.63,29.328,22.723l6.551,2.819l28.055,12.112l3.735,1.613c10,4.318,21.338,4.32,31.339,0.003l38.339-16.547
			c27.315-11.786,44.999-38.687,44.999-68.429v-93.342c0-2.337-1.169-4.521-3.111-5.82
			C254.44,116.594,254.392,116.563,254.345,116.531z M46.152,114.44l0.033,0.087l1.796-0.74L46.152,114.44z"/>
	</g>
</g>
<g>
	<path fill="#3F61AD" d="M266.457,97.235c-1.632-1.611-3.254-4.157-3.297-6.301c-0.283-13.048-0.218-26.107,0.033-39.155
		c0.033-1.796,1.339-4.037,2.764-5.245c5.811-4.919,9.294-10.937,10.175-18.533c1.458-12.765-8.303-26.063-19.044-26.978
		c0.392,2.166,0.74,4.277,1.143,6.388c0.446,2.307,1.001,4.592,1.382,6.91c1.066,6.54-3.189,12.667-9.805,14.18
		c-5.637,1.295-11.938-2.655-13.668-8.88c-1.23-4.44-2.024-9-3.091-13.821c-13.385,11.514-11.905,31.592,2.427,41.647
		c1.502,1.056,3.624,2.612,3.722,4.059c0.424,6.007,0.185,12.069,0.185,19.305C213.764,46.642,189.169,23.441,164.325,0
		C109.336,48.71,54.663,97.137,0,145.574c0.174,0.272,0.359,0.555,0.533,0.827c1.045-0.577,2.122-1.11,3.134-1.741
		c18.642-11.514,37.283-23.016,55.925-34.53c4.723-2.916,9.435-5.822,14.147-8.739c28.86-17.836,57.71-35.683,86.526-53.574
		c3.134-1.948,5.158-1.806,8.129,0.196c20.035,13.462,40.069,26.912,60.125,40.341c0.294,0.196,0.588,0.392,0.881,0.588
		c4.679,3.145,9.359,6.279,14.049,9.413c4.712,3.156,9.424,6.312,14.147,9.468c18.098,12.123,36.195,24.224,54.292,36.336
		c1.698,1.143,3.45,2.176,5.18,3.265C300.421,130.328,283.368,113.863,266.457,97.235z M164.27,28.077
		c-0.141,1.469-1.415,3.265-2.688,4.124C136.977,48.71,112.296,65.11,87.038,80.824c25.4-21.667,50.799-43.334,77.352-65.991
		C164.39,20.22,164.64,24.181,164.27,28.077z M255.618,86.265c-5.844-4.864-11.242-8.63-9.729-16.715
		c0.555-2.971-0.479-6.279,0.305-9.13c0.522-1.948,2.949-3.374,4.516-5.028c1.643,1.6,4.592,3.112,4.69,4.799
		C255.89,68.548,255.618,76.961,255.618,86.265z"/>
</g>
<g>
	<g>
		<path d="M173.696,218.722c0.274,2.267-0.227,4.544-1.36,6.49c3.996,1.19,6.971,4.695,7.359,9.078
			c0.189,2.163-0.312,4.317-1.398,6.169c2.211,1.436,3.826,3.741,4.308,6.509c0.463,2.683-0.217,5.46-1.88,7.614
			c-1.143,1.474-2.683,2.569-4.421,3.202l7.453,27.565l24.353-10.514l-16.068-59.437c-4.374-2.522-7.916-6.518-10.457-11.903
			c-1.096-2.324-1.88-4.648-2.428-6.716c-2.683,1.606-5.725,2.428-9.05,2.428c-0.359,0-0.718-0.009-1.058-0.028
			c1.228,1.672,1.965,3.731,1.965,5.951c0,2.277-0.775,4.374-2.05,6.055C171.504,212.818,173.318,215.53,173.696,218.722z"/>
	</g>
	<path d="M163.532,99.065c4.401,0,8.655,0,13.267,0c0,4.513,0,8.926,0,13.64c-4.37,0-8.633,0-13.267,0
		C163.532,108.218,163.532,103.801,163.532,99.065z"/>
	<path d="M153.545,112.817c-4.68,0-8.801,0-13.273,0c0-4.6,0-9.005,0-13.74c4.38,0,8.643,0,13.273,0
		C153.545,103.521,153.545,107.929,153.545,112.817z"/>
	<path d="M153.689,78.144c0,4.497,0,8.584,0,13.032c-4.469,0-8.72,0-13.374,0c0-4.205,0-8.426,0-13.032
		C144.636,78.144,148.883,78.144,153.689,78.144z"/>
	<path d="M163.533,78.141c4.362,0,8.613,0,13.245,0c0,4.222,0,8.45,0,13.037c-4.349,0-8.604,0-13.245,0
		C163.533,86.955,163.533,82.738,163.533,78.141z"/>
</g>
</svg>
