<?xml version="1.0" encoding="utf-8"?>
<!-- Generator: Adobe Illustrator 24.3.0, SVG Export Plug-In . SVG Version: 6.00 Build 0)  -->
<svg version="1.1" id="Layer_1" xmlns="http://www.w3.org/2000/svg" xmlns:xlink="http://www.w3.org/1999/xlink" x="0px" y="0px"
	 viewBox="0 0 264.695 288.552" enable-background="new 0 0 264.695 288.552" xml:space="preserve">
<g>
	<path fill="#C71F80" d="M230.239,132.195c-1.598-1.67-3.612-2.937-5.392-4.439c-1.296-1.093-2.398-2.406-1.168-4.122
		c1.328-1.853,2.889-1.26,4.597-0.282c1.718,0.983,3.391,3.955,4.915,2.854c2.002-1.446,0.912-4.59,0.617-6.993
		c-1.17-9.546-5.238-17.402-13.359-23.049c-1.32,1.686-1.062,3.363-1.367,4.889c-0.371,1.856-1.07,3.569-3.261,3.398
		c-2.282-0.178-2.491-2.007-2.451-3.91c0.42-19.983-13.018-33.717-33.14-33.901c-3.378-0.031-6.699,0.269-10.387,1.842
		c2.179,1.511,1.851,3.614,1.852,5.642c0.003,7.158,0.111,14.319-0.052,21.474c-0.062,2.735,0.931,3.533,3.538,3.489
		c7.156-0.121,14.316-0.08,21.474-0.02c6.521,0.055,7.656,1.231,7.66,7.63c0.004,7.012,0.014,14.025-0.003,21.037
		c-0.017,6.671-2.331,9.036-8.845,9.052c-6.72,0.016-13.444,0.129-20.159-0.05c-2.922-0.078-3.747,0.967-3.667,3.781
		c0.178,6.277,0.069,12.562,0.049,18.844c-0.016,5.051-0.952,6.059-6.166,6.145c-6.117,0.1-12.237,0.023-18.289,0.023
		c-0.571,1.963,0.725,2.78,1.539,3.645c10.536,11.193,18.323,24.151,24.646,38.065c0.362,0.797,0.758,1.579,1.141,2.366
		c0.758,1.562,2.047,2.076,3.629,1.583c1.839-0.573,1.213-2.145,0.998-3.327c-1.337-7.341-3.183-14.544-6.365-21.334
		c-0.962-2.054-2.27-4.32,0.645-5.552c2.936-1.241,3.646,1.48,4.516,3.436c3.652,8.204,3.61,8.097,12.715,5.834
		c10.969-2.726,18.303-9.718,17.588-20.669c-0.128-1.961,0.661-3.66,2.84-3.646c2.232,0.014,2.634,1.8,2.75,3.726
		c0.388,6.411,0.989,6.717,6.848,3.739C236.294,165.485,241.335,143.79,230.239,132.195z"/>
	<path fill="#C71F80" d="M153.268,55.605c-9.108-1.082-18.075-0.408-26.646,3.221c-3,1.27-5.586,3.103-7.781,5.538
		c-1.172,1.3-1.913,3.703-4.417,2.564c-2.337-1.062-1.427-3.121-0.663-4.9c-29.319-1.111-55.042,31.012-44.144,55.216
		c1.286-2.182,2.384-4.136,3.572-6.033c0.86-1.373,2.077-2.198,3.658-1.182c1.547,0.995,1.434,2.506,0.558,3.847
		c-5.278,8.08-3.776,15.525,2.142,22.472c6.302,7.398,14.384,8.946,23.433,6.601c2.523-0.654,4.897-1.861,7.372-2.72
		c1.381-0.479,2.686-0.199,3.307,1.267c0.623,1.469-0.058,2.619-1.414,3.212c-2.27,0.992-4.585,1.89-6.916,2.729
		c-1.616,0.582-2.128,1.396-0.939,2.834c8.795,10.644,19.928,16.554,34.17,16.797c-3.123-2.786-2.961-6.294-2.92-9.815
		c0.063-5.548-0.211-11.11,0.094-16.642c0.216-3.908-0.853-5.429-5.019-5.228c-6.847,0.331-13.726-0.064-20.583,0.15
		c-3.376,0.105-5.055-1.313-5.096-4.447c-0.121-9.343-0.086-18.689-0.068-28.033c0.005-2.868,1.787-3.646,4.356-3.628
		c7.301,0.053,14.606-0.125,21.901,0.07c3.339,0.09,4.635-0.833,4.508-4.395c-0.26-7.292,0.045-14.602-0.129-21.899
		c-0.078-3.281,1.327-4.53,4.379-4.472c1.022,0.019,2.044-0.018,3.066-0.02c13.542-0.035,13.542-0.035,26.373-6.991
		C164.604,57.934,159.062,56.293,153.268,55.605z"/>
</g>
<g>
	<path fill="#2665B0" d="M211.83,24.474c-14.859-3.525-28.824-7.829-43.471-10.108c-62.562-9.733-126.57,32.652-141.293,94.111
		c-7.517,31.38-2.567,60.923,13.502,88.854c3.882,6.748,7.621,9.327,15.107,4.791c30.528-18.496,60.038-15.357,88.474,5.001
		c5.26,3.766,11.176,6.105,17.246,8.197c3.19,1.099,8.277,1.186,7.686,5.885c-0.627,4.984-5.792,4.738-9.638,5.093
		c-10.829,0.999-21.363-1.504-32.293-2.441c6.904,5.733,14.881,8.496,23.923,8.995c19.402,1.071,38.262-2.147,56.714-7.574
		c7.592-2.233,14.738-1.989,22.311-0.803c6.59,1.033,6.073,3.841,2.902,7.9c-1.217,1.558-2.672,3.01-4.258,4.187
		c-57.941,42.977-134.334,48.101-190.025-7.304c-48.265-48.017-51.666-126.6-8.728-179.334
		c43.45-53.363,121.165-65.747,178.384-28.4C209.631,22.344,210.682,23.483,211.83,24.474z"/>
</g>
<g>
	<path fill="#CDDC2E" d="M245.033,193.882c34.648-84.543-20.674-145.212-72.516-157.199C107.378,21.621,38.682,64.584,35.76,143.999
		c-8.157-45.925,20.093-96.231,65.324-116.322c50.268-22.329,107.602-7.709,140.674,35.871
		C270.914,101.967,272.57,160.537,245.033,193.882z"/>
</g>
<g>
	<path fill="#BABABA" d="M17.127,280.691c81.057-6.232,162.128-5.988,243.209-0.33C241.209,291.013,37.939,291.436,17.127,280.691z"
		/>
</g>
</svg>
