<?xml version="1.0" encoding="utf-8"?>
<!-- Generator: Adobe Illustrator 24.3.0, SVG Export Plug-In . SVG Version: 6.00 Build 0)  -->
<svg version="1.1" id="Layer_1" xmlns="http://www.w3.org/2000/svg" xmlns:xlink="http://www.w3.org/1999/xlink" x="0px" y="0px"
	 viewBox="0 0 862.048 679.182" enable-background="new 0 0 862.048 679.182" xml:space="preserve">
<g>
	<path fill="#6B6B6B" d="M396.098,223.975c4.735,3.884-118.395-149.014-261.284-166.705c0,0-138.807,360.627-134.725,360.627
		s254.48,29.939,439.557,261.284c0,0-187.345-272.625-387.617-297.574l96.394-286.233C148.422,95.374,240.96,96.735,396.098,223.975
		z"/>
</g>
<g>
	<path fill="#DF2326" d="M862.048,34.675v644.491H734.67V307.033h25.712l-25.712-51.7V139.964
		c0-58.157,47.132-105.289,105.249-105.289C839.919,34.675,862.048,34.675,862.048,34.675z"/>
	<path fill="#DF2326" d="M493.561,166.705C498.296,170.588,375.167,17.691,232.277,0c0,0-138.807,360.627-134.725,360.627
		c4.083,0,254.48,29.939,439.557,261.284c0,0-187.345-272.625-387.617-297.574l96.394-286.233
		C245.885,38.104,338.424,39.465,493.561,166.705z"/>
</g>
<g>
	<path d="M699.508,253.916l-26.972,53.117h26.972v372.134H572.129V455.595h26.066l-26.066-52.448V228.794
		c0-59.18,47.959-107.179,107.14-107.179h20.239L699.508,253.916L699.508,253.916z"/>
	<path d="M536.967,403.265l-26.578,52.33h26.578v223.572H409.589V299.669c0-52.408,42.446-94.893,94.854-94.893h32.524V403.265z"/>
</g>
</svg>
