<?xml version="1.0" encoding="utf-8"?>
<!-- Generator: Adobe Illustrator 24.3.0, SVG Export Plug-In . SVG Version: 6.00 Build 0)  -->
<svg version="1.1" id="Layer_4" xmlns="http://www.w3.org/2000/svg" xmlns:xlink="http://www.w3.org/1999/xlink" x="0px" y="0px"
	 viewBox="0 0 231.555 231.56" enable-background="new 0 0 231.555 231.56" xml:space="preserve">
<g>
	<g>
		<path fill="#123866" d="M115.778,224.079c-59.717,0-108.298-48.581-108.298-108.298S56.06,7.477,115.778,7.477
			S224.076,56.063,224.076,115.78S175.495,224.079,115.778,224.079z"/>
	</g>
</g>
<g>
	<g>
		<path fill="#55FBFF" d="M115.778,231.56C51.936,231.56,0,179.624,0,115.783S51.936,0,115.778,0s115.778,51.941,115.778,115.783
			S179.619,231.56,115.778,231.56z M115.778,14.959c-55.593,0-100.819,45.231-100.819,100.824s45.226,100.819,100.819,100.819
			s100.819-45.226,100.819-100.819S171.371,14.959,115.778,14.959z"/>
	</g>
	<g>
		<path fill="#55FBFF" d="M115.778,171.721c-30.847,0-55.944-25.096-55.944-55.944s25.096-55.944,55.944-55.944
			s55.944,25.096,55.944,55.944S146.625,171.721,115.778,171.721z M115.778,74.793c-22.598,0-40.985,18.387-40.985,40.985
			s18.387,40.985,40.985,40.985s40.985-18.387,40.985-40.985S138.376,74.793,115.778,74.793z"/>
	</g>
	<g>
		<g>
			<path fill="#55FBFF" d="M115.871,150.307c2.163,0,3.919-1.652,3.919-3.693c0-2.038,0-3.69,0-3.69
				c10.7-0.98,17.784-6.632,17.784-15.826v-0.15c0-9.345-6.029-13.64-18.01-16.427v-8.741c1.725,0.422,3.511,1.019,5.257,1.794
				c2.81,1.245,6.224,0.465,7.93-2.324c1.707-2.787,0.785-6.702-2.378-8.122c-3.149-1.412-6.605-2.385-10.434-2.803v-2.261
				c0-1.247-1.753-2.26-3.918-2.26c-2.165,0-3.919,0.962-3.919,2.145c0,1.187,0,2.148,0,2.148
				c-11.532,0.83-18.012,7.009-18.012,15.901v0.152c0,9.343,6.179,13.491,18.313,16.276v9.044c-2.911-0.469-5.761-1.436-8.661-2.917
				c-3.09-1.576-6.875-1.019-8.747,1.749c-1.874,2.766-1.117,6.696,1.998,8.225c4.576,2.248,9.748,3.717,14.958,4.25v3.767
				C111.952,148.621,113.707,150.307,115.871,150.307z M119.487,123.632c3.921,1.129,5.05,2.261,5.05,4.295v0.152
				c0,2.185-1.582,3.465-5.05,3.843V123.632z M107.353,105.017v-0.15c0-1.959,1.433-3.467,5.124-3.767v8.14
				C108.409,108.108,107.353,106.975,107.353,105.017z"/>
		</g>
	</g>
</g>
</svg>
