<?xml version="1.0" encoding="utf-8"?>
<!-- Generator: Adobe Illustrator 24.3.0, SVG Export Plug-In . SVG Version: 6.00 Build 0)  -->
<svg version="1.1" id="Layer_7" xmlns="http://www.w3.org/2000/svg" xmlns:xlink="http://www.w3.org/1999/xlink" x="0px" y="0px"
	 viewBox="0 0 238.171 251.066" enable-background="new 0 0 238.171 251.066" xml:space="preserve">
<g>
	<path fill="#E25A3B" d="M126.605,0.096c-0.935,0.455-1.86,0.91-2.785,1.38c0.075,9.271-1.485,25.689-11.812,38.7
		c-15.282,19.243-22.213,41.086-6.781,56.333c0,0-6.236-17.337,7.011-35.845C124.135,44.022,138.847,25.614,126.605,0.096z
		 M118.104,4.471c-1.13,0.61-2.245,1.23-3.36,1.85c-0.835,7.331-2.95,15.402-7.766,22.108
		C93.126,47.673,93.471,61.665,93.471,61.665c4.951-14.522,10.882-19.723,17.572-29.809
		C115.214,25.564,118.089,14.988,118.104,4.471z M137.617,23.419c0,0-1.305,18.193-16.217,35.38
		c-14.902,17.187-9.326,36.95-9.326,36.95s-4.601-16.032,11.342-33.805C139.352,44.187,137.617,23.419,137.617,23.419z
		 M105.102,100.33c-24.443,0-46.557,0.885-62.739,2.345c-8.086,0.725-14.662,1.57-19.503,2.61c-2.105,0.445-3.841,0.905-5.436,1.525
		c-2.04,3.931-3.966,7.901-5.791,11.937v23.653c0,18.788,5.411,40.136,14.737,59.863c9.781-5.926,18.883-12.407,27.004-18.878
		v-17.287c0-5.241,4.411-9.656,9.656-9.656h12.787c2.015,0,3.891,0.65,5.461,1.74c7.781-7.991,12.747-14.002,13.062-14.437
		c0.015-0.01,0.03-0.035,0.04-0.05c1.585-2.105,5.211-5.896,10.706-5.896c5.096,0,8.846,3.31,10.862,5.466
		c1.445,1.545,4.066,4.731,8.871,9.906c4.801,5.176,11.417,11.947,19.528,19.293c10.782,9.756,24.228,20.498,39.486,29.784
		c9.316-19.723,14.712-41.071,14.712-59.848v-2.965c9.366,2.04,16.602,9.121,16.602,19.243c0,9.411-5.856,17.007-14.167,19.698
		c-1.015,0.33-1.8,1.115-2.13,2.12c-1.89,5.811-4.131,11.592-6.716,17.252c-1.015,2.215,0.635,4.741,3.08,4.691
		c23.708-0.43,42.956-19.938,42.956-43.761c0-22.643-17.552-40.881-39.626-43.066v-1.925c0-0.155-0.01-0.32-0.04-0.485
		c-0.16-2.065-1.33-3.59-2.24-4.386c-0.975-0.865-1.85-1.31-2.75-1.7c-1.8-0.8-3.766-1.32-6.186-1.83
		c-4.851-1.04-11.427-1.885-19.513-2.61C151.649,101.215,129.546,100.33,105.102,100.33z M104.797,105.756c0.1,0,0.205,0,0.305,0
		c5.881,0,11.732,0.05,17.497,0.155c2.88,0.05,5.716,0.125,8.516,0.2c5.616,0.155,11.037,0.37,16.182,0.625c0.015,0,0.025,0,0.04,0
		c16.487,0.81,29.639,2.08,37.535,3.616c0.035,0,0.06,0.01,0.1,0.025c5.376,1.04,8.186,2.165,8.226,3.31
		c0,2.105-9.291,4.121-25.804,5.606c-16.522,1.495-38.925,2.32-62.284,2.32c-23.363,0-45.771-0.825-62.294-2.32
		c-16.512-1.485-25.799-3.5-25.799-5.606c0.035-1.145,2.835-2.27,8.221-3.31h-0.035c0.11-0.025,0.24-0.055,0.355-0.065
		c1.06-0.205,2.23-0.405,3.495-0.61c0.265-0.035,0.545-0.075,0.825-0.115c1.215-0.19,2.52-0.365,3.901-0.53
		c0.37-0.05,0.75-0.1,1.14-0.14c1.38-0.165,2.85-0.33,4.376-0.48c0.415-0.04,0.835-0.09,1.25-0.13c1.55-0.15,3.17-0.29,4.831-0.43
		c0.58-0.05,1.165-0.1,1.75-0.14c1.53-0.125,3.1-0.24,4.711-0.355c0.81-0.05,1.625-0.1,2.46-0.15c1.685-0.115,3.42-0.22,5.196-0.32
		c0.545-0.025,1.075-0.05,1.635-0.075c1.9-0.1,3.866-0.205,5.851-0.29c0.915-0.04,1.85-0.08,2.79-0.105
		c1.62-0.075,3.27-0.125,4.941-0.19c1.395-0.035,2.79-0.09,4.196-0.125c1.255-0.04,2.51-0.065,3.776-0.1
		c1.545-0.04,3.105-0.065,4.676-0.09c1.46-0.025,2.93-0.05,4.411-0.075c1.42-0.025,2.84-0.04,4.261-0.055
		c1.415-0.01,2.85-0.025,4.281-0.025C101.807,105.771,103.302,105.756,104.797,105.756z M105.102,143.926
		c-2.84,0-4.626,1.865-5.841,3.46c-1.18,1.6-8.366,10.226-19.883,21.348v-2.625c0-1.965-1.585-3.55-3.55-3.55H63.041
		c-1.96,0-3.545,1.585-3.545,3.55v20.233c-15.247,12.392-34.015,25.169-54.998,34.135c-8.936,3.54-3.22,16.932,5.511,12.912
		c47.017-20.078,82.322-56.953,95.093-71.525c12.772,14.572,48.077,51.447,95.088,71.525c8.731,4.021,14.447-9.371,5.501-12.912
		c-52.512-22.438-90.578-69.155-94.188-73.025C109.678,145.496,107.943,143.926,105.102,143.926z"/>
	<path fill="#E25A3B" d="M131.552,201.08c-0.273-0.123-0.546-0.232-0.818-0.327c-2.005,2.1-3.641,4.91-4.705,8.224
		c-1.377,4.214-1.787,8.633-2.223,13.297c-0.123,1.268-0.232,2.55-0.382,3.819c-0.614,5.701-1.773,12.247-5.605,17.58
		c-1.718,2.4-3.901,4.46-6.015,6.451c-0.15,0.136-0.286,0.273-0.436,0.409c9.342,2.619,20.826-4.623,26.527-17.157
		C144.031,219.928,141.18,205.471,131.552,201.08"/>
	<path fill="#E25A3B" d="M114.831,241.532c3.328-4.651,4.364-10.611,4.937-15.834c0.136-1.255,0.259-2.509,0.368-3.764
		c0.436-4.664,0.886-9.479,2.387-14.089c0.982-3.055,2.387-5.755,4.132-7.979c-8.715-0.614-18.507,6.369-23.649,17.648
		c-5.769,12.643-3.587,26.199,4.719,31.396c0.505-0.491,1.023-0.982,1.555-1.473C111.258,245.568,113.317,243.645,114.831,241.532"
		/>
	<path fill="#E25A3B" d="M91.441,220.501c0.123,1.255,0.232,2.523,0.368,3.764c0.586,5.224,1.623,11.197,4.951,15.834
		c0.15,0.218,0.314,0.436,0.477,0.641c-3.096-6.56-2.946-15.821,1.077-24.658c1.405-3.069,3.15-5.824,5.128-8.197
		c-5.264-6.315-12.179-9.888-18.507-9.451c1.732,2.237,3.137,4.937,4.132,7.979C90.554,211.022,91.005,215.85,91.441,220.501"/>
	<path fill="#E25A3B" d="M93.76,242.254c-3.832-5.346-4.978-11.893-5.605-17.58c-0.136-1.268-0.259-2.55-0.382-3.832
		c-0.436-4.664-0.846-9.07-2.209-13.284c-1.077-3.328-2.7-6.137-4.719-8.238c-0.273,0.109-0.546,0.218-0.818,0.341
		c-9.629,4.378-12.466,18.835-6.342,32.296c5.715,12.534,17.198,19.762,26.527,17.144c-0.136-0.136-0.286-0.273-0.423-0.409
		C97.674,246.714,95.478,244.655,93.76,242.254"/>
</g>
</svg>
