<?xml version="1.0" encoding="utf-8"?>
<!-- Generator: Adobe Illustrator 24.3.0, SVG Export Plug-In . SVG Version: 6.00 Build 0)  -->
<svg version="1.1" id="Layer_11" xmlns="http://www.w3.org/2000/svg" xmlns:xlink="http://www.w3.org/1999/xlink" x="0px" y="0px"
	 viewBox="0 0 282.373 311.805" enable-background="new 0 0 282.373 311.805" xml:space="preserve">
<g>
	<polygon fill="#C1C1C1" points="257.447,103.265 257.447,311.225 156.182,311.225 156.182,170.527 172.174,159.914 
		208.169,135.991 219.811,128.268 239.997,114.855 	"/>
	<polygon fill="#C1C1C1" points="127.011,170.527 127.011,311.225 25.746,311.225 25.746,103.265 43.197,114.855 72.758,134.493 
		85.455,142.932 111.019,159.914 	"/>
</g>
<g>
	<path fill="#F5B709" d="M219.785,65.661c-1.354-11.304-5.235-21.826-11.069-30.994C195.472,13.817,172.174,0,145.66,0
		S95.848,13.817,82.603,34.667C75.493,45.827,71.274,59.019,71,73.175c-0.026,0.495-0.026,1.003-0.026,1.511
		c0,3.79,0.638,8.087,1.784,12.762c1.315,5.326,3.295,11.134,5.756,17.255c0.378,0.912,0.768,1.836,1.159,2.774
		c0.391,0.925,0.794,1.862,1.198,2.8c1.328,3.008,2.748,6.082,4.258,9.181c0.156,0.313,0.299,0.638,0.469,0.951
		c0.417,0.859,0.833,1.719,1.276,2.592c0.43,0.86,0.873,1.732,1.315,2.605c10.262,20.068,23.402,41.126,34.562,57.964
		c0.039,0.065,0.091,0.13,0.13,0.195c0.716,1.081,1.42,2.149,2.123,3.191c0.638,0.938,1.25,1.862,1.862,2.774
		c0.052,0.078,0.104,0.143,0.143,0.208c0.039,0.052,0.078,0.104,0.104,0.156c0.052,0.065,0.091,0.13,0.13,0.195
		c0.274,0.404,0.547,0.807,0.807,1.198c5.821,8.569,10.757,15.549,13.96,20.016c2.526,3.503,3.985,5.47,3.985,5.47
		s3.92-5.326,9.949-14.026c0.039-0.052,0.078-0.117,0.13-0.182c0.026-0.052,0.065-0.104,0.104-0.156
		c0.638-0.925,1.315-1.888,2.005-2.904c0.677-0.99,1.38-2.019,2.11-3.086c0.039-0.052,0.078-0.117,0.117-0.169
		c0.013-0.013,0.013-0.026,0.026-0.039c12.606-18.505,30.877-46.752,43.913-72.954c0.43-0.873,0.86-1.745,1.276-2.605
		c0.43-0.86,0.847-1.732,1.25-2.592c1.966-4.141,3.79-8.217,5.404-12.163c0.378-0.925,0.755-1.849,1.107-2.761
		c0.365-0.912,0.703-1.823,1.042-2.722c2.631-7.058,4.506-13.622,5.378-19.391c0.339-2.318,0.521-4.493,0.521-6.537
		C220.332,71.625,220.15,68.617,219.785,65.661z M145.66,42.298c17.893,0,32.388,14.494,32.388,32.388s-14.494,32.401-32.388,32.401
		s-32.388-14.507-32.388-32.401S127.766,42.298,145.66,42.298z"/>
</g>
<g>
	<path fill="#EF6A0F" d="M196.813,34.667C184.91,19.482,166.405,9.702,145.66,9.702s-39.251,9.78-51.153,24.965
		C85.859,45.71,80.689,59.605,80.689,74.686c0,2.748,0.404,5.86,1.172,9.272c0.82,3.659,2.045,7.67,3.594,11.929
		c1.641,4.48,3.646,9.246,5.938,14.208c0.43,0.938,0.886,1.888,1.341,2.852c0.443,0.951,0.912,1.914,1.393,2.878
		c1.029,2.123,2.123,4.285,3.256,6.459c0.156,0.313,0.326,0.638,0.495,0.951c0.443,0.873,0.899,1.745,1.367,2.618
		c0.469,0.873,0.938,1.745,1.42,2.631c6.707,12.424,14.429,25.277,22.087,37.297c0.039,0.078,0.091,0.143,0.13,0.208
		c0.716,1.12,1.42,2.227,2.123,3.321c0.625,0.964,1.25,1.927,1.862,2.878c0.052,0.078,0.104,0.156,0.143,0.221
		c0.039,0.052,0.078,0.104,0.104,0.156c0.052,0.078,0.091,0.143,0.13,0.208c0.274,0.417,0.534,0.82,0.807,1.224
		c4.923,7.54,9.702,14.598,14.052,20.849c1.328,1.914,2.618,3.751,3.855,5.509c3.06-4.363,6.433-9.272,9.988-14.572
		c0.052-0.065,0.091-0.13,0.13-0.195c0.039-0.052,0.078-0.104,0.104-0.156c0.664-0.99,1.328-1.992,2.005-3.008
		c0.703-1.042,1.393-2.11,2.11-3.178c0.039-0.065,0.078-0.13,0.117-0.182c0.013-0.013,0.013-0.026,0.026-0.039
		c10.6-16.135,22.204-34.94,31.567-52.729c0.469-0.873,0.925-1.745,1.367-2.618c0.456-0.873,0.899-1.745,1.341-2.605
		c1.641-3.243,3.204-6.446,4.662-9.572c0.443-0.951,0.873-1.901,1.289-2.839c0.43-0.938,0.847-1.875,1.237-2.8
		c2.631-6.043,4.766-11.747,6.264-16.917c1.576-5.378,2.448-10.184,2.461-14.208v-0.052C210.63,59.605,205.46,45.71,196.813,34.667z
		 M145.66,32.583c4.571,0,8.973,0.729,13.101,2.084c16.825,5.522,29.002,21.37,29.002,40.019c0,23.22-18.883,42.103-42.103,42.103
		s-42.103-18.883-42.103-42.103c0-18.649,12.176-34.497,29.002-40.019C136.687,33.312,141.089,32.583,145.66,32.583z"/>
</g>
<g>
	<polygon fill="#EAEAEA" stroke="#FFFFFF" stroke-width="1.1595" stroke-miterlimit="10" points="239.997,92.664 239.997,311.225 
		158.188,311.225 158.188,173.77 158.617,173.34 162.628,169.368 172.174,159.914 210.63,121.783 219.785,112.706 	"/>
	<polygon fill="#EAEAEA" stroke="#FFFFFF" stroke-width="1.1595" stroke-miterlimit="10" points="125.006,173.77 125.006,311.225 
		43.197,311.225 43.197,92.664 71,120.22 81.861,131.003 111.019,159.914 120.565,169.368 124.576,173.34 	"/>
	<polygon fill="#EAEAEA" stroke="#FFFFFF" stroke-width="1.1595" stroke-miterlimit="10" points="266.238,128.229 266.238,311.225 
		158.188,311.225 158.188,173.523 158.617,173.34 200.668,155.707 213.391,150.381 239.997,139.234 257.447,131.915 	"/>
	<polygon fill="#EAEAEA" stroke="#FFFFFF" stroke-width="1.1595" stroke-miterlimit="10" points="125.006,173.523 125.006,311.225 
		16.956,311.225 16.956,128.229 25.746,131.915 43.197,139.234 79.673,154.522 92.735,159.992 124.576,173.34 	"/>
</g>
<g>
	<polygon fill="#A01D7E" points="128.053,176.414 128.053,311.225 0,311.225 0,146.852 14.833,150.277 16.956,150.772 
		19.065,151.254 25.746,152.79 43.197,156.827 85.13,166.503 97.384,169.329 122.883,175.216 123.834,175.437 125.006,175.711 
		127.011,176.179 127.115,176.192 	"/>
	<path fill="#A01D7E" d="M160.415,177.325v133.9h-37.532v-133.9c0-0.43,0.117-0.833,0.326-1.198c0.156-0.26,0.378-0.495,0.625-0.69
		c0.065-0.039,0.143-0.091,0.208-0.13c0.299-0.182,0.625-0.3,0.964-0.326c0.469-0.039,0.938,0.052,1.354,0.286
		c0.013,0.013,0.247,0.13,0.651,0.339c0.039,0.013,0.065,0.026,0.104,0.052c2.201,1.055,8.869,4.011,15.732,4.011
		c5.743,0,11.291-2.8,13.231-3.894c0.039-0.026,0.065-0.039,0.104-0.052c0.391-0.234,0.612-0.365,0.625-0.378
		c0.417-0.273,0.899-0.391,1.38-0.378c0.352,0.026,0.703,0.13,1.016,0.299c0.365,0.195,0.664,0.495,0.873,0.847
		c0.091,0.156,0.169,0.313,0.221,0.495C160.375,176.83,160.415,177.078,160.415,177.325z"/>
</g>
<g>
	<polygon fill="#C22192" points="282.373,147.881 282.373,311.225 155.948,311.225 155.948,177.065 156.078,177.039 
		156.182,177.013 158.188,176.544 160.076,176.114 160.297,176.062 194.717,168.118 206.88,165.305 239.997,157.661 
		257.447,153.637 264.128,152.087 266.238,151.605 268.36,151.11 	"/>
	<polygon fill="#C22192" points="64.033,162.466 64.033,311.225 0.807,311.225 0.807,148.193 14.833,151.358 16.956,151.84 
		19.065,152.309 25.746,153.819 43.197,157.765 62.457,162.115 	"/>
	<path fill="#C22192" d="M142.404,184.306l-0.299,57.587l-0.091,16.656l-0.273,52.677h-14.872V180.933c0,0,0.052,0.026,0.143,0.065
		c0.026,0.013,0.065,0.026,0.104,0.039c0.039,0.013,0.078,0.039,0.13,0.052c0.195,0.078,0.469,0.195,0.807,0.326
		C130.475,182.339,136.335,184.306,142.404,184.306z"/>
</g>
</svg>
