<?xml version="1.0" encoding="utf-8"?>
<!-- Generator: Adobe Illustrator 24.3.0, SVG Export Plug-In . SVG Version: 6.00 Build 0)  -->
<svg version="1.1" id="Layer_5" xmlns="http://www.w3.org/2000/svg" xmlns:xlink="http://www.w3.org/1999/xlink" x="0px" y="0px"
	 viewBox="0 0 254.784 164.216" enable-background="new 0 0 254.784 164.216" xml:space="preserve">
<g>
	<path fill-rule="evenodd" clip-rule="evenodd" fill="#FFC700" d="M35.146,107.871h6.195c-0.133-0.033-0.266-0.091-0.39-0.166
		c-0.731-0.432-0.972-1.362-0.548-2.101l38.824-66.362c-0.374-0.914-1.96-2.192-2.799-4.036c-0.008,0.407-0.025,0.806-0.025,1.204
		c-0.042,2.691-0.083,5.082-1.088,6.586c-0.581,0.88-1.354,1.47-2.201,1.835c-0.822,0.349-1.702,0.465-2.549,0.374
		c-0.855-0.083-1.678-0.374-2.375-0.847c-0.722-0.482-1.304-1.154-1.653-1.993c-0.54-1.246-0.606-3.172-0.673-5.174
		c-0.083-2.217-0.166-4.551-0.797-5.298c-0.681-0.814-2.068,0.523-2.076,0.523c-0.282,0.266-0.648,0.39-1.013,0.374L44.929,76.704
		c0.781-0.166,1.246-0.274,1.254-0.274c1.561-0.34,3.106,0.656,3.446,2.226c0.332,1.57-0.664,3.114-2.226,3.455
		c-0.017,0.008-2.184,0.482-5.008,1.113l-7.333,18.876c0.54,1.611,0.897,2.674,0.897,2.682
		C36.342,105.911,35.976,107.115,35.146,107.871z M86.875,24.775c-0.125-0.972-0.689-5.672-1.478-11.577l13.022,6.835
		c-0.158,1.694,0.706,3.397,2.317,4.219l16.011,7.308c-10.389-2.118-16.617-3.156-26.691-6.096
		C88.918,25.132,87.863,24.908,86.875,24.775z M63.431,29.044l10.123-26.06c2.242-0.183,5.631-0.166,5.755,0.091l1.736,19.341
		c-1.013,0.017-3.77,0.141-6.021,5.041c-1.237,2.699-1.287,5.979-1.337,8.911c-0.033,2.267-0.066,4.277-0.631,5.124
		c-0.266,0.39-0.623,0.664-0.997,0.822c-0.382,0.166-0.806,0.224-1.221,0.183c-0.415-0.042-0.814-0.183-1.138-0.407
		c-0.291-0.199-0.531-0.465-0.673-0.781c-0.324-0.789-0.39-2.475-0.457-4.219c-0.091-2.674-0.191-5.489-1.412-6.951
		C65.964,28.712,64.577,28.67,63.431,29.044z M28.494,78.165c4.069-0.905,7.798-1.736,7.815-1.736
		c0.282-0.058,0.565-0.083,0.83-0.058c2.35-6.137,4.883-12.756,7.433-19.424c-0.324,0.008-1.013-0.017-1.952-0.299L28.494,78.165z
		 M146.876,121.316l8.745,0.224l1.437-1.877l-13.055-23.527L146.876,121.316z M53.989,115.137
		c-2.342,11.784-13.055,36.59-6.013,40.227c6.419,3.322,30.918-3.696,38.757-4.783c0.208,0.233,0.399,0.457,0.59,0.673
		l-34.057,9.849c0,0-5.763,1.445-10.638-2.359c-7.001-5.464-4.269-15.646-1.943-22.588c2.724-8.122,6.984-20.247,8.861-25.595
		c0.698,0.042,1.644,0.174,2.101,0.598C51.796,111.301,52.677,112.812,53.989,115.137z M160.894,94.492
		c0.141-2.018,0.316-3.994,0.515-5.921c0.739-7.267,1.869-13.902,3.33-20.039c-3.197-4.9-9.509-14.558-10.97-16.759
		c-1.985-2.99-6.677-5.614-10.107-7.15c-3.421-1.545-52.302-12.042-56.812-13.312c-3.114-0.872-6.054-0.407-7.574-0.033
		c-0.075,0.548-0.042,1.121,0.091,1.719c0.531,2.284,2.558,4.684,6.096,6.087l51.513,18.959c0.424,0.158,0.739,0.482,0.897,0.872
		l13.869,28.402l-1.752-9.285c-0.249-1.287,0.424-2.342,1.47-2.99c-0.822-4.443-2.956-16.103-3.081-16.211
		c-0.141-0.133-3.671-0.307-3.696-0.307c-1.021,0.058-1.902-0.731-1.96-1.769c-0.058-1.03,0.731-1.918,1.761-1.976
		c0.017,0,5.232-0.324,6.278,0.606c0.864,0.789,1.287,3.023,1.345,3.363l3.031,15.629c1.171,0.257,2.151,1.03,2.417,2.433
		L160.894,94.492z M188.299,110.586c1.345-0.656,2.757-1.487,4.202-2.458l0.108-5.954l-4.202-0.208
		C188.315,104.748,188.274,107.613,188.299,110.586z M202.832,98.819c0.216-0.249,0.432-0.507,0.639-0.772
		c4.194-5.099,7.059-10.622,6.486-14.832c-0.457-3.305-0.997-6.444-1.603-9.442c-0.465-2.292-0.972-4.509-1.528-6.644h-11.768
		l0.017,0.033c1.536,2.732,3.38,5.996,4.144,8.695c0.307,1.088-0.324,2.226-1.412,2.533c-1.08,0.316-2.217-0.324-2.516-1.412
		c-0.54-1.893-1.802-4.293-3.023-6.486c-1.296,5.672-2.309,11.801-2.998,18.486c-0.199,2.043-0.382,4.144-0.531,6.287l2.109-0.066
		c0,0,1.179-12.44,1.304-12.988c0.141-0.54,9.791-0.772,10.422-0.357c0.631,0.407-0.274,14.026-0.274,14.026L202.832,98.819z
		 M184.346,117.338c-0.025-0.789-0.042-1.578-0.066-2.359h-19.732c0.017,0.781,0.042,1.57,0.075,2.359H184.346z M235.71,117.338
		l0.042-26.417l-17.083-1.594c-0.756-0.025-2.076-1.337-2.06-2.093c0.025-0.747,0.656-1.337,1.403-1.32l17.224,0.573
		c-0.54-0.656-3.089-3.255-4.102-4.161l-17.315-0.972c0.05,0.424,0.116,0.864,0.183,1.296c0.747,5.464-2.533,12.091-7.374,18.004
		c-5.265,6.395-12.457,12.058-18.27,14.367c0.017,0.764,0.042,1.536,0.066,2.317H235.71z M166.101,62.694
		c0.465-0.44,1.08-0.706,1.761-0.706h40.393c3.131,0,4.559,13.138,5.132,16.609l20.014,1.121c0.316,0.017,0.598,0.141,0.814,0.34
		l0.008-0.008c0.017,0.017,4.626,4.078,5.265,4.991c0.108,0.166,0.216,1.038,0.299,2.408c0.075,0.166,0.108,0.349,0.108,0.556
		c-0.008,0.108-0.025,0.208-0.058,0.307c0.498,8.919,0.615,32.87,0.615,32.953c0,0.756-0.598,1.37-1.354,1.37
		c-0.149,0-0.374-0.025-0.631-0.066l-27.297,0.781l-3.363,3.92l-20.022,0.905l-13.894,1.736l-20.778,1.976
		c0,0-0.664,0.199-1.603,0.814h-0.1l-0.008,0.058c-2.035,1.345-5.265,4.543-6.046,11.535c-0.855,7.599,1.852,12.64,3.363,14.807
		l-0.017,0.158h-34.398c-2.118-1.254-6.685-4.7-7.308-11.253l12.449,0.199c-0.075-0.789-0.133-1.561-0.158-2.317
		c-3.92,0.042-9.285,0.083-9.907,0.025c-1.785-0.166-2.043-1.553-0.673-1.653c2.383-0.166,6.851-0.199,10.547-0.199
		c0.008-0.822,0.05-1.619,0.133-2.392c-3.837,0.042-8.637,0.066-9.235,0.017c-1.777-0.158-2.035-1.545-0.664-1.644
		c2.3-0.166,6.552-0.208,10.165-0.208c0.191-0.93,0.44-1.81,0.764-2.641c-1.57,0.025-8.222,0.141-8.795,0.058
		c-0.656-0.091-1.113-0.515-0.955-0.897c0.141-0.324,8.13-0.756,10.572-0.872c1.204-2.068,3.006-3.72,5.589-4.866
		c9.185-0.432,20.471-0.639,20.504-0.639c0.656-0.008,1.188-0.548,1.171-1.204c-0.008-0.664-0.548-1.188-1.204-1.179
		c-0.042,0-15.505,0.274-24.939,0.864c-0.282,0.025-0.507,0.033-0.656,0.058c-5.423,0.44-9.874,2.109-12.905,5.199
		c-3.039,3.123-4.609,7.615-4.235,13.669v0.033c0.017,0.233,0.025,0.424,0.042,0.573c0.44,5.439,3.214,9.069,5.705,11.269h-3.397
		c-2.084-1.827-7.233-7.524-5.356-18.029c2.35-13.063,11.527-13.711,13.404-14.649c1.869-0.938,23.842-2.167,23.842-2.167
		l0.415-2.624l-3.812-33.326l4.086-0.465l-11.651-20.994L82.781,45.105l-37.852,62.027c-0.216,0.365-0.556,0.606-0.938,0.714
		l6.511,0.025l-0.025,0.066l0.025-0.033c0,0,2.284-0.307,3.314,0.424c1.013,0.723,1.976,2.649,1.976,2.649l17.813,35.718
		c2.865,0.008,11.136,0.066,11.917,0.382c0.997,0.399,4.576,5.215,4.584,5.224h-0.133l0.091,0.042c0,0-31.508,11.17-38.359,11.66
		c-6.851,0.482-4.451,0-4.451,0l-27.596-2.367c-13.844-4.177-22.588-16.692-18.752-31.009c1.503-5.622,11.236-22.755,11.236-22.755
		h12.955l3.114-8.13c-1.985-6.004-4.518-13.844-4.518-14.45c0-0.033,0-0.058,0-0.091c-1.827,0.415-3.264,0.747-3.812,0.897
		c1.038,3.181,4.883,14.707,4.9,14.749c0.498,1.511-0.316,3.164-1.827,3.671c-1.511,0.507-3.147-0.307-3.654-1.835
		c-0.017-0.042-5.481-16.41-5.481-17.39c0-0.797,0.141-1.835,1.129-2.923c0.656-0.722,1.694-1.42,3.43-1.877
		c0.498-0.133,1.578-0.39,2.973-0.706c0.042-0.083,0.091-0.166,0.141-0.249l16.808-25.595c-2.068-2.417-0.839-5.273-0.839-5.273
		l20.313-26.209c4.85-12.648,8.28-21.609,8.388-21.824c0.49-1.063,16.792-0.756,17.498,0.673c0.141,0.274,0.573,3.164,1.071,6.826
		l15.422,7.881c1.254-1.37,3.305-1.794,5.024-0.914l32.388,16.642c1.819,0.922,2.691,2.965,2.209,4.858
		c0.83,0.183,1.669,0.365,2.491,0.531c2.84,0.623,5.423,1.91,7.698,3.621c2.5,1.885,4.626,4.285,6.32,6.876L166.101,62.694z
		 M179.006,95.572l5.647-0.174c0.149-2.342,0.34-4.609,0.565-6.826c0.797-7.823,2.043-14.923,3.662-21.442h-19.599
		c-1.694,6.594-2.998,13.819-3.812,21.849c-0.556,5.423-0.88,11.195-0.963,17.373c0.191,0.166,0.465,0.274,0.822,0.166
		c0.905-0.266,1.262-14.35,1.262-14.35l8.844-0.224c0,0,1.893,0.091,2.79,1.952C178.383,94.202,178.649,94.799,179.006,95.572z
		 M184.338,101.759l-2.641-0.125c1.296,2.923,2.433,5.514,2.433,5.514l0.091,0.216C184.238,105.454,184.271,103.594,184.338,101.759
		z M147.665,147.866h11.444c0,0,0.025-1.212,0.224-2.89c-3.588-0.058-8.504-0.166-9.085-0.291c-0.922-0.199-1.561-1.154-1.337-2.01
		c0.141-0.531,6.428-0.98,11.045-1.246c0.199-0.806,0.448-1.619,0.747-2.367c-2.433,0.042-7.906,0.116-8.437,0.042
		c-0.698-0.091-1.171-0.515-1.005-0.897c0.133-0.307,7.092-0.681,10.281-0.83c0.664-1.096,1.312-1.935,1.877-2.574
		c-2.292,0.042-7.565,0.116-8.08,0.058c-0.648-0.1-1.096-0.531-0.938-0.905c0.149-0.39,11.261-0.913,11.269-0.913
		c2.541-0.233,28.701-2.616,33.16-2.965c11.685-0.905,25.935,0.108,38.65,2.3h0.008c0.448,0.075,0.905,0.158,1.354,0.233
		c0.141,0.025,0.291,0.058,0.432,0.083c0.025,0.008,0.042,0.025,0.058,0.033c2.824,0.515,5.68,1.021,8.313,2.126
		c12.15,5.066,8.064,23.826-6.727,24.117l-81.975,1.669C153.295,160.995,148.163,158.08,147.665,147.866z M242.752,136.032
		c4.061,6.137,4.476,17.381-6.868,18.245c-0.241,0.017-0.448,0.025-0.623,0.033l-58.73,2.724c-3.289,0.133-6.287,0.091-8.363-1.105
		c-1.993-1.146-3.687-3.48-3.737-8.006c-0.008-0.565-0.465-1.013-1.021-1.013c-0.565,0.008-0.606,0.465-0.606,1.03
		c0.05,5.398,1.736,8.263,4.352,9.774c2.525,1.453,5.846,1.511,9.459,1.362l62.517-2.716c0.274-0.017,0.507-0.033,0.698-0.042
		c3.446-0.266,6.502-1.428,8.662-3.446c6.669-6.212,3.72-14.799-5.68-16.825L242.752,136.032z M33.784,85.15l-2.334,6.087
		c-0.731-2.209-1.362-4.119-1.702-5.141C30.329,85.947,31.857,85.581,33.784,85.15"/>
</g>
<g>
	<polygon fill-rule="evenodd" clip-rule="evenodd" fill="#141515" points="179.263,137.958 229.764,136.397 229.764,139.561 
		179.263,141.122 	"/>
	<path fill-rule="evenodd" clip-rule="evenodd" fill="#141515" d="M171.823,151.536c1.819,0,3.297-2.998,3.297-6.66
		c0-3.662-1.478-6.652-3.297-6.652c-1.81,0-3.289,2.99-3.289,6.652C168.534,148.538,170.012,151.536,171.823,151.536z"/>
	<path fill-rule="evenodd" clip-rule="evenodd" fill="#141515" d="M127.368,142.891c0,0,0.606-1.993,1.42-2.176
		c0.806-0.183,15.098-0.34,15.098-0.34l-0.291,2.176L127.368,142.891z"/>
	<path fill-rule="evenodd" clip-rule="evenodd" fill="#141515" d="M127.368,150.191c0,0,0.606,1.993,1.42,2.176
		c0.806,0.183,15.098,0.34,15.098,0.34l-0.291-2.176L127.368,150.191z"/>
	<polyline fill-rule="evenodd" clip-rule="evenodd" fill="#141515" points="179.263,146.919 229.764,145.349 229.764,148.522 
		179.263,150.083 179.263,146.919 	"/>
</g>
</svg>
